<?xml version="1.0" encoding="utf-8" standalone="no"?>
<!DOCTYPE svg PUBLIC "-//W3C//DTD SVG 1.1//EN"
  "http://www.w3.org/Graphics/SVG/1.1/DTD/svg11.dtd">
<svg xmlns:xlink="http://www.w3.org/1999/xlink" width="720pt" height="288pt" viewBox="0 0 720 288" xmlns="http://www.w3.org/2000/svg" version="1.1">
 <metadata>
  <rdf:RDF xmlns:dc="http://purl.org/dc/elements/1.1/" xmlns:cc="http://creativecommons.org/ns#" xmlns:rdf="http://www.w3.org/1999/02/22-rdf-syntax-ns#">
   <cc:Work>
    <dc:type rdf:resource="http://purl.org/dc/dcmitype/StillImage"/>
    <dc:date>2025-06-11T23:17:13.249089</dc:date>
    <dc:format>image/svg+xml</dc:format>
    <dc:creator>
     <cc:Agent>
      <dc:title>Matplotlib v3.10.3, https://matplotlib.org/</dc:title>
     </cc:Agent>
    </dc:creator>
   </cc:Work>
  </rdf:RDF>
 </metadata>
 <defs>
  <style type="text/css">*{stroke-linejoin: round; stroke-linecap: butt}</style>
 </defs>
 <g id="figure_1">
  <g id="patch_1">
   <path d="M 0 288 
L 720 288 
L 720 0 
L 0 0 
z
" style="fill: #ffffff"/>
  </g>
  <g id="axes_1">
   <g id="patch_2">
    <path d="M 44.57 246.04 
L 703.085953 246.04 
L 703.085953 26.88 
L 44.57 26.88 
z
" style="fill: #ffffff"/>
   </g>
   <g id="FillBetweenPolyCollection_1">
    <defs>
     <path id="md794b07181" d="M 74.502543 -234.285933 
L 74.502543 -61.690666 
L 78.087279 -56.99757 
L 81.672015 -51.921818 
L 85.25675 -100.583265 
L 88.841486 -107.311406 
L 92.426222 -115.842298 
L 96.010958 -66.782384 
L 99.595693 -65.653388 
L 103.180429 -59.880093 
L 106.765165 -70.263441 
L 110.349901 -117.402237 
L 113.934636 -70.835144 
L 117.519372 -72.035444 
L 121.104108 -64.56722 
L 124.688843 -73.173152 
L 128.273579 -69.345307 
L 131.858315 -72.981086 
L 135.443051 -78.335994 
L 139.027786 -77.947601 
L 142.612522 -74.27329 
L 146.197258 -78.874019 
L 149.781994 -78.71993 
L 153.366729 -78.675905 
L 156.951465 -75.597014 
L 160.536201 -75.577732 
L 164.120936 -77.097882 
L 167.705672 -75.375751 
L 171.290408 -83.724652 
L 174.875144 -84.724911 
L 178.459879 -87.990676 
L 182.044615 -84.876233 
L 185.629351 -89.331579 
L 189.214086 -89.030039 
L 192.798822 -97.581375 
L 196.383558 -98.730889 
L 199.968294 -97.337175 
L 203.553029 -101.09865 
L 207.137765 -105.005086 
L 210.722501 -104.018534 
L 214.307237 -112.747018 
L 217.891972 -110.413752 
L 221.476708 -109.868996 
L 225.061444 -124.189873 
L 228.646179 -127.384484 
L 232.230915 -125.656538 
L 235.815651 -119.309054 
L 239.400387 -117.182039 
L 242.985122 -111.115363 
L 246.569858 -110.743138 
L 250.154594 -110.454845 
L 253.73933 -106.201005 
L 257.324065 -100.57768 
L 260.908801 -102.784524 
L 264.493537 -102.868288 
L 268.078272 -107.437669 
L 271.663008 -107.679999 
L 275.247744 -111.377458 
L 278.83248 -116.109306 
L 282.417215 -113.976985 
L 286.001951 -114.970249 
L 289.586687 -105.573864 
L 293.171423 -107.571247 
L 296.756158 -108.934161 
L 300.340894 -112.905503 
L 303.92563 -114.120176 
L 307.510365 -107.934683 
L 311.095101 -107.533711 
L 314.679837 -111.045876 
L 318.264573 -108.441193 
L 321.849308 -113.663702 
L 325.434044 -110.853226 
L 329.01878 -108.083536 
L 332.603515 -109.230239 
L 336.188251 -104.980855 
L 339.772987 -109.153019 
L 343.357723 -107.274493 
L 346.942458 -107.778759 
L 350.527194 -112.171826 
L 354.11193 -112.148422 
L 357.696666 -110.918353 
L 361.281401 -102.982039 
L 364.866137 -105.369512 
L 368.450873 -100.117971 
L 372.035608 -100.077838 
L 375.620344 -96.632489 
L 379.20508 -93.255647 
L 382.789816 -98.184482 
L 386.374551 -106.727558 
L 389.959287 -112.809136 
L 393.544023 -117.032476 
L 397.128759 -123.089749 
L 400.713494 -118.499736 
L 404.29823 -118.653421 
L 407.882966 -119.526686 
L 411.467701 -115.797274 
L 415.052437 -111.74964 
L 418.637173 -109.546117 
L 422.221909 -104.674801 
L 425.806644 -102.75398 
L 429.39138 -103.936074 
L 432.976116 -106.855956 
L 436.560852 -103.835472 
L 440.145587 -99.050615 
L 443.730323 -101.538854 
L 447.315059 -100.632747 
L 450.899794 -104.059181 
L 454.48453 -97.918884 
L 458.069266 -96.786143 
L 461.654002 -103.58244 
L 465.238737 -105.685363 
L 468.823473 -101.514836 
L 472.408209 -95.985245 
L 475.992944 -94.705332 
L 479.57768 -97.152768 
L 483.162416 -95.734748 
L 486.747152 -89.674048 
L 490.331887 -90.465226 
L 493.916623 -90.717408 
L 497.501359 -89.154322 
L 501.086095 -85.098433 
L 504.67083 -94.103765 
L 508.255566 -93.414612 
L 511.840302 -91.143066 
L 515.425037 -73.710548 
L 519.009773 -75.215483 
L 522.594509 -84.198516 
L 526.179245 -81.617547 
L 529.76398 -130.090011 
L 533.348716 -79.561315 
L 536.933452 -89.365287 
L 540.518188 -76.316685 
L 544.102923 -121.188737 
L 547.687659 -94.883816 
L 551.272395 -106.419036 
L 554.85713 -114.443398 
L 558.441866 -125.424244 
L 562.026602 -128.913013 
L 565.611338 -131.921139 
L 569.196073 -132.658075 
L 572.780809 -136.133759 
L 576.365545 -134.611783 
L 579.95028 -132.608736 
L 583.535016 -131.395977 
L 587.119752 -131.377588 
L 590.704488 -130.023553 
L 594.289223 -130.539903 
L 597.873959 -128.811185 
L 601.458695 -121.782676 
L 605.043431 -119.286917 
L 608.628166 -118.037004 
L 612.212902 -111.009059 
L 615.797638 -116.331329 
L 619.382373 -114.273832 
L 622.967109 -110.568322 
L 626.551845 -88.775278 
L 630.136581 -108.086199 
L 633.721316 -107.757018 
L 637.306052 -112.401185 
L 640.890788 -131.434966 
L 640.890788 -168.383807 
L 640.890788 -168.383807 
L 637.306052 -205.860018 
L 633.721316 -246.620611 
L 630.136581 -251.158182 
L 626.551845 -246.199377 
L 622.967109 -240.607496 
L 619.382373 -239.079217 
L 615.797638 -240.863893 
L 612.212902 -243.880859 
L 608.628166 -247.208485 
L 605.043431 -244.970585 
L 601.458695 -240.718403 
L 597.873959 -234.348553 
L 594.289223 -231.522071 
L 590.704488 -229.842894 
L 587.119752 -225.195568 
L 583.535016 -226.274943 
L 579.95028 -224.623078 
L 576.365545 -222.620031 
L 572.780809 -222.195819 
L 569.196073 -224.299298 
L 565.611338 -221.358726 
L 562.026602 -222.61043 
L 558.441866 -214.225054 
L 554.85713 -217.649627 
L 551.272395 -222.728323 
L 547.687659 -236.770104 
L 544.102923 -227.553705 
L 540.518188 -230.417999 
L 536.933452 -236.836407 
L 533.348716 -241.517481 
L 529.76398 -206.767309 
L 526.179245 -240.998118 
L 522.594509 -228.4275 
L 519.009773 -232.748697 
L 515.425037 -231.026206 
L 511.840302 -233.704719 
L 508.255566 -229.457198 
L 504.67083 -228.219163 
L 501.086095 -232.394335 
L 497.501359 -229.43621 
L 493.916623 -230.617533 
L 490.331887 -231.418597 
L 486.747152 -233.087986 
L 483.162416 -230.979236 
L 479.57768 -232.195849 
L 475.992944 -233.984625 
L 472.408209 -234.461134 
L 468.823473 -232.005282 
L 465.238737 -231.786704 
L 461.654002 -232.352758 
L 458.069266 -228.390971 
L 454.48453 -225.721361 
L 450.899794 -230.88803 
L 447.315059 -230.582068 
L 443.730323 -230.005289 
L 440.145587 -228.870908 
L 436.560852 -227.050013 
L 432.976116 -225.566399 
L 429.39138 -224.973437 
L 425.806644 -222.862239 
L 422.221909 -221.380524 
L 418.637173 -221.119815 
L 415.052437 -219.135845 
L 411.467701 -219.918372 
L 407.882966 -218.164934 
L 404.29823 -219.477305 
L 400.713494 -221.606964 
L 397.128759 -220.749348 
L 393.544023 -215.572839 
L 389.959287 -217.490875 
L 386.374551 -219.474136 
L 382.789816 -225.711907 
L 379.20508 -227.823149 
L 375.620344 -234.362772 
L 372.035608 -232.783622 
L 368.450873 -229.889304 
L 364.866137 -228.150607 
L 361.281401 -229.879421 
L 357.696666 -226.004833 
L 354.11193 -227.958278 
L 350.527194 -228.154427 
L 346.942458 -232.327941 
L 343.357723 -232.393102 
L 339.772987 -230.953682 
L 336.188251 -235.345398 
L 332.603515 -233.730647 
L 329.01878 -234.87735 
L 325.434044 -232.985871 
L 321.849308 -231.053606 
L 318.264573 -234.30014 
L 314.679837 -232.683444 
L 311.095101 -234.768517 
L 307.510365 -235.026203 
L 303.92563 -234.329528 
L 300.340894 -234.226885 
L 296.756158 -226.488748 
L 293.171423 -229.388531 
L 289.586687 -230.617479 
L 286.001951 -234.906548 
L 282.417215 -235.131378 
L 278.83248 -234.975032 
L 275.247744 -237.511351 
L 271.663008 -231.585083 
L 268.078272 -228.753674 
L 264.493537 -226.919433 
L 260.908801 -223.41717 
L 257.324065 -231.405569 
L 253.73933 -231.271063 
L 250.154594 -233.384252 
L 246.569858 -231.778643 
L 242.985122 -222.258387 
L 239.400387 -217.984725 
L 235.815651 -218.675303 
L 232.230915 -213.352399 
L 228.646179 -218.65014 
L 225.061444 -218.990566 
L 221.476708 -226.505308 
L 217.891972 -226.728986 
L 214.307237 -224.066392 
L 210.722501 -229.501584 
L 207.137765 -228.515032 
L 203.553029 -228.469519 
L 199.968294 -229.376808 
L 196.383558 -232.483925 
L 192.798822 -235.170309 
L 189.214086 -239.733103 
L 185.629351 -234.308666 
L 182.044615 -237.446695 
L 178.459879 -238.503754 
L 174.875144 -239.573992 
L 171.290408 -240.574252 
L 167.705672 -232.127367 
L 164.120936 -227.587643 
L 160.536201 -226.2902 
L 156.951465 -224.734048 
L 153.366729 -234.206256 
L 149.781994 -233.28402 
L 146.197258 -233.569037 
L 142.612522 -238.389318 
L 139.027786 -236.251876 
L 135.443051 -233.777732 
L 131.858315 -238.364206 
L 128.273579 -238.413956 
L 124.688843 -238.830798 
L 121.104108 -233.970828 
L 117.519372 -239.85873 
L 113.934636 -239.412384 
L 110.349901 -216.611875 
L 106.765165 -237.78856 
L 103.180429 -230.717464 
L 99.595693 -239.873756 
L 96.010958 -238.086102 
L 92.426222 -207.797947 
L 88.841486 -213.255101 
L 85.25675 -216.602129 
L 81.672015 -234.065132 
L 78.087279 -235.246633 
L 74.502543 -234.285933 
z
" style="stroke: #808080; stroke-opacity: 0.2"/>
    </defs>
    <g clip-path="url(#pe3930eace1)">
     <use xlink:href="#md794b07181" x="0" y="288" style="fill: #808080; fill-opacity: 0.2; stroke: #808080; stroke-opacity: 0.2"/>
    </g>
   </g>
   <g id="matplotlib.axis_1">
    <g id="xtick_1">
     <g id="line2d_1">
      <defs>
       <path id="m9e66d5c6b0" d="M 0 0 
L 0 3.5 
" style="stroke: #000000; stroke-width: 0.8"/>
      </defs>
      <g>
       <use xlink:href="#m9e66d5c6b0" x="81.672015" y="246.04" style="stroke: #000000; stroke-width: 0.8"/>
      </g>
     </g>
     <g id="text_1">
      <!-- 06-09 00 -->
      <g transform="translate(59.191546 260.638438) scale(0.1 -0.1)">
       <defs>
        <path id="DejaVuSans-30" d="M 2034 4250 
Q 1547 4250 1301 3770 
Q 1056 3291 1056 2328 
Q 1056 1369 1301 889 
Q 1547 409 2034 409 
Q 2525 409 2770 889 
Q 3016 1369 3016 2328 
Q 3016 3291 2770 3770 
Q 2525 4250 2034 4250 
z
M 2034 4750 
Q 2819 4750 3233 4129 
Q 3647 3509 3647 2328 
Q 3647 1150 3233 529 
Q 2819 -91 2034 -91 
Q 1250 -91 836 529 
Q 422 1150 422 2328 
Q 422 3509 836 4129 
Q 1250 4750 2034 4750 
z
" transform="scale(0.015625)"/>
        <path id="DejaVuSans-36" d="M 2113 2584 
Q 1688 2584 1439 2293 
Q 1191 2003 1191 1497 
Q 1191 994 1439 701 
Q 1688 409 2113 409 
Q 2538 409 2786 701 
Q 3034 994 3034 1497 
Q 3034 2003 2786 2293 
Q 2538 2584 2113 2584 
z
M 3366 4563 
L 3366 3988 
Q 3128 4100 2886 4159 
Q 2644 4219 2406 4219 
Q 1781 4219 1451 3797 
Q 1122 3375 1075 2522 
Q 1259 2794 1537 2939 
Q 1816 3084 2150 3084 
Q 2853 3084 3261 2657 
Q 3669 2231 3669 1497 
Q 3669 778 3244 343 
Q 2819 -91 2113 -91 
Q 1303 -91 875 529 
Q 447 1150 447 2328 
Q 447 3434 972 4092 
Q 1497 4750 2381 4750 
Q 2619 4750 2861 4703 
Q 3103 4656 3366 4563 
z
" transform="scale(0.015625)"/>
        <path id="DejaVuSans-2d" d="M 313 2009 
L 1997 2009 
L 1997 1497 
L 313 1497 
L 313 2009 
z
" transform="scale(0.015625)"/>
        <path id="DejaVuSans-39" d="M 703 97 
L 703 672 
Q 941 559 1184 500 
Q 1428 441 1663 441 
Q 2288 441 2617 861 
Q 2947 1281 2994 2138 
Q 2813 1869 2534 1725 
Q 2256 1581 1919 1581 
Q 1219 1581 811 2004 
Q 403 2428 403 3163 
Q 403 3881 828 4315 
Q 1253 4750 1959 4750 
Q 2769 4750 3195 4129 
Q 3622 3509 3622 2328 
Q 3622 1225 3098 567 
Q 2575 -91 1691 -91 
Q 1453 -91 1209 -44 
Q 966 3 703 97 
z
M 1959 2075 
Q 2384 2075 2632 2365 
Q 2881 2656 2881 3163 
Q 2881 3666 2632 3958 
Q 2384 4250 1959 4250 
Q 1534 4250 1286 3958 
Q 1038 3666 1038 3163 
Q 1038 2656 1286 2365 
Q 1534 2075 1959 2075 
z
" transform="scale(0.015625)"/>
        <path id="DejaVuSans-20" transform="scale(0.015625)"/>
       </defs>
       <use xlink:href="#DejaVuSans-30"/>
       <use xlink:href="#DejaVuSans-36" transform="translate(63.623047 0)"/>
       <use xlink:href="#DejaVuSans-2d" transform="translate(127.246094 0)"/>
       <use xlink:href="#DejaVuSans-30" transform="translate(163.330078 0)"/>
       <use xlink:href="#DejaVuSans-39" transform="translate(226.953125 0)"/>
       <use xlink:href="#DejaVuSans-20" transform="translate(290.576172 0)"/>
       <use xlink:href="#DejaVuSans-30" transform="translate(322.363281 0)"/>
       <use xlink:href="#DejaVuSans-30" transform="translate(385.986328 0)"/>
      </g>
     </g>
    </g>
    <g id="xtick_2">
     <g id="line2d_2">
      <g>
       <use xlink:href="#m9e66d5c6b0" x="167.705672" y="246.04" style="stroke: #000000; stroke-width: 0.8"/>
      </g>
     </g>
     <g id="text_2">
      <!-- 06-09 12 -->
      <g transform="translate(145.225203 260.638438) scale(0.1 -0.1)">
       <defs>
        <path id="DejaVuSans-31" d="M 794 531 
L 1825 531 
L 1825 4091 
L 703 3866 
L 703 4441 
L 1819 4666 
L 2450 4666 
L 2450 531 
L 3481 531 
L 3481 0 
L 794 0 
L 794 531 
z
" transform="scale(0.015625)"/>
        <path id="DejaVuSans-32" d="M 1228 531 
L 3431 531 
L 3431 0 
L 469 0 
L 469 531 
Q 828 903 1448 1529 
Q 2069 2156 2228 2338 
Q 2531 2678 2651 2914 
Q 2772 3150 2772 3378 
Q 2772 3750 2511 3984 
Q 2250 4219 1831 4219 
Q 1534 4219 1204 4116 
Q 875 4013 500 3803 
L 500 4441 
Q 881 4594 1212 4672 
Q 1544 4750 1819 4750 
Q 2544 4750 2975 4387 
Q 3406 4025 3406 3419 
Q 3406 3131 3298 2873 
Q 3191 2616 2906 2266 
Q 2828 2175 2409 1742 
Q 1991 1309 1228 531 
z
" transform="scale(0.015625)"/>
       </defs>
       <use xlink:href="#DejaVuSans-30"/>
       <use xlink:href="#DejaVuSans-36" transform="translate(63.623047 0)"/>
       <use xlink:href="#DejaVuSans-2d" transform="translate(127.246094 0)"/>
       <use xlink:href="#DejaVuSans-30" transform="translate(163.330078 0)"/>
       <use xlink:href="#DejaVuSans-39" transform="translate(226.953125 0)"/>
       <use xlink:href="#DejaVuSans-20" transform="translate(290.576172 0)"/>
       <use xlink:href="#DejaVuSans-31" transform="translate(322.363281 0)"/>
       <use xlink:href="#DejaVuSans-32" transform="translate(385.986328 0)"/>
      </g>
     </g>
    </g>
    <g id="xtick_3">
     <g id="line2d_3">
      <g>
       <use xlink:href="#m9e66d5c6b0" x="253.73933" y="246.04" style="stroke: #000000; stroke-width: 0.8"/>
      </g>
     </g>
     <g id="text_3">
      <!-- 06-10 00 -->
      <g transform="translate(231.258861 260.638438) scale(0.1 -0.1)">
       <use xlink:href="#DejaVuSans-30"/>
       <use xlink:href="#DejaVuSans-36" transform="translate(63.623047 0)"/>
       <use xlink:href="#DejaVuSans-2d" transform="translate(127.246094 0)"/>
       <use xlink:href="#DejaVuSans-31" transform="translate(163.330078 0)"/>
       <use xlink:href="#DejaVuSans-30" transform="translate(226.953125 0)"/>
       <use xlink:href="#DejaVuSans-20" transform="translate(290.576172 0)"/>
       <use xlink:href="#DejaVuSans-30" transform="translate(322.363281 0)"/>
       <use xlink:href="#DejaVuSans-30" transform="translate(385.986328 0)"/>
      </g>
     </g>
    </g>
    <g id="xtick_4">
     <g id="line2d_4">
      <g>
       <use xlink:href="#m9e66d5c6b0" x="339.772987" y="246.04" style="stroke: #000000; stroke-width: 0.8"/>
      </g>
     </g>
     <g id="text_4">
      <!-- 06-10 12 -->
      <g transform="translate(317.292518 260.638438) scale(0.1 -0.1)">
       <use xlink:href="#DejaVuSans-30"/>
       <use xlink:href="#DejaVuSans-36" transform="translate(63.623047 0)"/>
       <use xlink:href="#DejaVuSans-2d" transform="translate(127.246094 0)"/>
       <use xlink:href="#DejaVuSans-31" transform="translate(163.330078 0)"/>
       <use xlink:href="#DejaVuSans-30" transform="translate(226.953125 0)"/>
       <use xlink:href="#DejaVuSans-20" transform="translate(290.576172 0)"/>
       <use xlink:href="#DejaVuSans-31" transform="translate(322.363281 0)"/>
       <use xlink:href="#DejaVuSans-32" transform="translate(385.986328 0)"/>
      </g>
     </g>
    </g>
    <g id="xtick_5">
     <g id="line2d_5">
      <g>
       <use xlink:href="#m9e66d5c6b0" x="425.806644" y="246.04" style="stroke: #000000; stroke-width: 0.8"/>
      </g>
     </g>
     <g id="text_5">
      <!-- 06-11 00 -->
      <g transform="translate(403.326176 260.638438) scale(0.1 -0.1)">
       <use xlink:href="#DejaVuSans-30"/>
       <use xlink:href="#DejaVuSans-36" transform="translate(63.623047 0)"/>
       <use xlink:href="#DejaVuSans-2d" transform="translate(127.246094 0)"/>
       <use xlink:href="#DejaVuSans-31" transform="translate(163.330078 0)"/>
       <use xlink:href="#DejaVuSans-31" transform="translate(226.953125 0)"/>
       <use xlink:href="#DejaVuSans-20" transform="translate(290.576172 0)"/>
       <use xlink:href="#DejaVuSans-30" transform="translate(322.363281 0)"/>
       <use xlink:href="#DejaVuSans-30" transform="translate(385.986328 0)"/>
      </g>
     </g>
    </g>
    <g id="xtick_6">
     <g id="line2d_6">
      <g>
       <use xlink:href="#m9e66d5c6b0" x="511.840302" y="246.04" style="stroke: #000000; stroke-width: 0.8"/>
      </g>
     </g>
     <g id="text_6">
      <!-- 06-11 12 -->
      <g transform="translate(489.359833 260.638438) scale(0.1 -0.1)">
       <use xlink:href="#DejaVuSans-30"/>
       <use xlink:href="#DejaVuSans-36" transform="translate(63.623047 0)"/>
       <use xlink:href="#DejaVuSans-2d" transform="translate(127.246094 0)"/>
       <use xlink:href="#DejaVuSans-31" transform="translate(163.330078 0)"/>
       <use xlink:href="#DejaVuSans-31" transform="translate(226.953125 0)"/>
       <use xlink:href="#DejaVuSans-20" transform="translate(290.576172 0)"/>
       <use xlink:href="#DejaVuSans-31" transform="translate(322.363281 0)"/>
       <use xlink:href="#DejaVuSans-32" transform="translate(385.986328 0)"/>
      </g>
     </g>
    </g>
    <g id="xtick_7">
     <g id="line2d_7">
      <g>
       <use xlink:href="#m9e66d5c6b0" x="597.873959" y="246.04" style="stroke: #000000; stroke-width: 0.8"/>
      </g>
     </g>
     <g id="text_7">
      <!-- 06-12 00 -->
      <g transform="translate(575.39349 260.638438) scale(0.1 -0.1)">
       <use xlink:href="#DejaVuSans-30"/>
       <use xlink:href="#DejaVuSans-36" transform="translate(63.623047 0)"/>
       <use xlink:href="#DejaVuSans-2d" transform="translate(127.246094 0)"/>
       <use xlink:href="#DejaVuSans-31" transform="translate(163.330078 0)"/>
       <use xlink:href="#DejaVuSans-32" transform="translate(226.953125 0)"/>
       <use xlink:href="#DejaVuSans-20" transform="translate(290.576172 0)"/>
       <use xlink:href="#DejaVuSans-30" transform="translate(322.363281 0)"/>
       <use xlink:href="#DejaVuSans-30" transform="translate(385.986328 0)"/>
      </g>
     </g>
    </g>
    <g id="xtick_8">
     <g id="line2d_8">
      <g>
       <use xlink:href="#m9e66d5c6b0" x="683.907617" y="246.04" style="stroke: #000000; stroke-width: 0.8"/>
      </g>
     </g>
     <g id="text_8">
      <!-- 06-12 12 -->
      <g transform="translate(661.427148 260.638438) scale(0.1 -0.1)">
       <use xlink:href="#DejaVuSans-30"/>
       <use xlink:href="#DejaVuSans-36" transform="translate(63.623047 0)"/>
       <use xlink:href="#DejaVuSans-2d" transform="translate(127.246094 0)"/>
       <use xlink:href="#DejaVuSans-31" transform="translate(163.330078 0)"/>
       <use xlink:href="#DejaVuSans-32" transform="translate(226.953125 0)"/>
       <use xlink:href="#DejaVuSans-20" transform="translate(290.576172 0)"/>
       <use xlink:href="#DejaVuSans-31" transform="translate(322.363281 0)"/>
       <use xlink:href="#DejaVuSans-32" transform="translate(385.986328 0)"/>
      </g>
     </g>
    </g>
    <g id="text_9">
     <!-- Tijd -->
     <g transform="translate(364.977976 274.316562) scale(0.1 -0.1)">
      <defs>
       <path id="DejaVuSans-54" d="M -19 4666 
L 3928 4666 
L 3928 4134 
L 2272 4134 
L 2272 0 
L 1638 0 
L 1638 4134 
L -19 4134 
L -19 4666 
z
" transform="scale(0.015625)"/>
       <path id="DejaVuSans-69" d="M 603 3500 
L 1178 3500 
L 1178 0 
L 603 0 
L 603 3500 
z
M 603 4863 
L 1178 4863 
L 1178 4134 
L 603 4134 
L 603 4863 
z
" transform="scale(0.015625)"/>
       <path id="DejaVuSans-6a" d="M 603 3500 
L 1178 3500 
L 1178 -63 
Q 1178 -731 923 -1031 
Q 669 -1331 103 -1331 
L -116 -1331 
L -116 -844 
L 38 -844 
Q 366 -844 484 -692 
Q 603 -541 603 -63 
L 603 3500 
z
M 603 4863 
L 1178 4863 
L 1178 4134 
L 603 4134 
L 603 4863 
z
" transform="scale(0.015625)"/>
       <path id="DejaVuSans-64" d="M 2906 2969 
L 2906 4863 
L 3481 4863 
L 3481 0 
L 2906 0 
L 2906 525 
Q 2725 213 2448 61 
Q 2172 -91 1784 -91 
Q 1150 -91 751 415 
Q 353 922 353 1747 
Q 353 2572 751 3078 
Q 1150 3584 1784 3584 
Q 2172 3584 2448 3432 
Q 2725 3281 2906 2969 
z
M 947 1747 
Q 947 1113 1208 752 
Q 1469 391 1925 391 
Q 2381 391 2643 752 
Q 2906 1113 2906 1747 
Q 2906 2381 2643 2742 
Q 2381 3103 1925 3103 
Q 1469 3103 1208 2742 
Q 947 2381 947 1747 
z
" transform="scale(0.015625)"/>
      </defs>
      <use xlink:href="#DejaVuSans-54"/>
      <use xlink:href="#DejaVuSans-69" transform="translate(57.958984 0)"/>
      <use xlink:href="#DejaVuSans-6a" transform="translate(85.742188 0)"/>
      <use xlink:href="#DejaVuSans-64" transform="translate(113.525391 0)"/>
     </g>
    </g>
   </g>
   <g id="matplotlib.axis_2">
    <g id="ytick_1">
     <g id="line2d_9">
      <defs>
       <path id="mab1fd23230" d="M 0 0 
L -3.5 0 
" style="stroke: #000000; stroke-width: 0.8"/>
      </defs>
      <g>
       <use xlink:href="#mab1fd23230" x="44.57" y="213.781421" style="stroke: #000000; stroke-width: 0.8"/>
      </g>
     </g>
     <g id="text_10">
      <!-- 30 -->
      <g transform="translate(24.845 217.58064) scale(0.1 -0.1)">
       <defs>
        <path id="DejaVuSans-33" d="M 2597 2516 
Q 3050 2419 3304 2112 
Q 3559 1806 3559 1356 
Q 3559 666 3084 287 
Q 2609 -91 1734 -91 
Q 1441 -91 1130 -33 
Q 819 25 488 141 
L 488 750 
Q 750 597 1062 519 
Q 1375 441 1716 441 
Q 2309 441 2620 675 
Q 2931 909 2931 1356 
Q 2931 1769 2642 2001 
Q 2353 2234 1838 2234 
L 1294 2234 
L 1294 2753 
L 1863 2753 
Q 2328 2753 2575 2939 
Q 2822 3125 2822 3475 
Q 2822 3834 2567 4026 
Q 2313 4219 1838 4219 
Q 1578 4219 1281 4162 
Q 984 4106 628 3988 
L 628 4550 
Q 988 4650 1302 4700 
Q 1616 4750 1894 4750 
Q 2613 4750 3031 4423 
Q 3450 4097 3450 3541 
Q 3450 3153 3228 2886 
Q 3006 2619 2597 2516 
z
" transform="scale(0.015625)"/>
       </defs>
       <use xlink:href="#DejaVuSans-33"/>
       <use xlink:href="#DejaVuSans-30" transform="translate(63.623047 0)"/>
      </g>
     </g>
    </g>
    <g id="ytick_2">
     <g id="line2d_10">
      <g>
       <use xlink:href="#mab1fd23230" x="44.57" y="167.675345" style="stroke: #000000; stroke-width: 0.8"/>
      </g>
     </g>
     <g id="text_11">
      <!-- 32 -->
      <g transform="translate(24.845 171.474564) scale(0.1 -0.1)">
       <use xlink:href="#DejaVuSans-33"/>
       <use xlink:href="#DejaVuSans-32" transform="translate(63.623047 0)"/>
      </g>
     </g>
    </g>
    <g id="ytick_3">
     <g id="line2d_11">
      <g>
       <use xlink:href="#mab1fd23230" x="44.57" y="121.56927" style="stroke: #000000; stroke-width: 0.8"/>
      </g>
     </g>
     <g id="text_12">
      <!-- 34 -->
      <g transform="translate(24.845 125.368489) scale(0.1 -0.1)">
       <defs>
        <path id="DejaVuSans-34" d="M 2419 4116 
L 825 1625 
L 2419 1625 
L 2419 4116 
z
M 2253 4666 
L 3047 4666 
L 3047 1625 
L 3713 1625 
L 3713 1100 
L 3047 1100 
L 3047 0 
L 2419 0 
L 2419 1100 
L 313 1100 
L 313 1709 
L 2253 4666 
z
" transform="scale(0.015625)"/>
       </defs>
       <use xlink:href="#DejaVuSans-33"/>
       <use xlink:href="#DejaVuSans-34" transform="translate(63.623047 0)"/>
      </g>
     </g>
    </g>
    <g id="ytick_4">
     <g id="line2d_12">
      <g>
       <use xlink:href="#mab1fd23230" x="44.57" y="75.463195" style="stroke: #000000; stroke-width: 0.8"/>
      </g>
     </g>
     <g id="text_13">
      <!-- 36 -->
      <g transform="translate(24.845 79.262413) scale(0.1 -0.1)">
       <use xlink:href="#DejaVuSans-33"/>
       <use xlink:href="#DejaVuSans-36" transform="translate(63.623047 0)"/>
      </g>
     </g>
    </g>
    <g id="ytick_5">
     <g id="line2d_13">
      <g>
       <use xlink:href="#mab1fd23230" x="44.57" y="29.357119" style="stroke: #000000; stroke-width: 0.8"/>
      </g>
     </g>
     <g id="text_14">
      <!-- 38 -->
      <g transform="translate(24.845 33.156338) scale(0.1 -0.1)">
       <defs>
        <path id="DejaVuSans-38" d="M 2034 2216 
Q 1584 2216 1326 1975 
Q 1069 1734 1069 1313 
Q 1069 891 1326 650 
Q 1584 409 2034 409 
Q 2484 409 2743 651 
Q 3003 894 3003 1313 
Q 3003 1734 2745 1975 
Q 2488 2216 2034 2216 
z
M 1403 2484 
Q 997 2584 770 2862 
Q 544 3141 544 3541 
Q 544 4100 942 4425 
Q 1341 4750 2034 4750 
Q 2731 4750 3128 4425 
Q 3525 4100 3525 3541 
Q 3525 3141 3298 2862 
Q 3072 2584 2669 2484 
Q 3125 2378 3379 2068 
Q 3634 1759 3634 1313 
Q 3634 634 3220 271 
Q 2806 -91 2034 -91 
Q 1263 -91 848 271 
Q 434 634 434 1313 
Q 434 1759 690 2068 
Q 947 2378 1403 2484 
z
M 1172 3481 
Q 1172 3119 1398 2916 
Q 1625 2713 2034 2713 
Q 2441 2713 2670 2916 
Q 2900 3119 2900 3481 
Q 2900 3844 2670 4047 
Q 2441 4250 2034 4250 
Q 1625 4250 1398 4047 
Q 1172 3844 1172 3481 
z
" transform="scale(0.015625)"/>
       </defs>
       <use xlink:href="#DejaVuSans-33"/>
       <use xlink:href="#DejaVuSans-38" transform="translate(63.623047 0)"/>
      </g>
     </g>
    </g>
    <g id="text_15">
     <!-- Temperatuur (°C) -->
     <g transform="translate(18.765312 179.81625) rotate(-90) scale(0.1 -0.1)">
      <defs>
       <path id="DejaVuSans-65" d="M 3597 1894 
L 3597 1613 
L 953 1613 
Q 991 1019 1311 708 
Q 1631 397 2203 397 
Q 2534 397 2845 478 
Q 3156 559 3463 722 
L 3463 178 
Q 3153 47 2828 -22 
Q 2503 -91 2169 -91 
Q 1331 -91 842 396 
Q 353 884 353 1716 
Q 353 2575 817 3079 
Q 1281 3584 2069 3584 
Q 2775 3584 3186 3129 
Q 3597 2675 3597 1894 
z
M 3022 2063 
Q 3016 2534 2758 2815 
Q 2500 3097 2075 3097 
Q 1594 3097 1305 2825 
Q 1016 2553 972 2059 
L 3022 2063 
z
" transform="scale(0.015625)"/>
       <path id="DejaVuSans-6d" d="M 3328 2828 
Q 3544 3216 3844 3400 
Q 4144 3584 4550 3584 
Q 5097 3584 5394 3201 
Q 5691 2819 5691 2113 
L 5691 0 
L 5113 0 
L 5113 2094 
Q 5113 2597 4934 2840 
Q 4756 3084 4391 3084 
Q 3944 3084 3684 2787 
Q 3425 2491 3425 1978 
L 3425 0 
L 2847 0 
L 2847 2094 
Q 2847 2600 2669 2842 
Q 2491 3084 2119 3084 
Q 1678 3084 1418 2786 
Q 1159 2488 1159 1978 
L 1159 0 
L 581 0 
L 581 3500 
L 1159 3500 
L 1159 2956 
Q 1356 3278 1631 3431 
Q 1906 3584 2284 3584 
Q 2666 3584 2933 3390 
Q 3200 3197 3328 2828 
z
" transform="scale(0.015625)"/>
       <path id="DejaVuSans-70" d="M 1159 525 
L 1159 -1331 
L 581 -1331 
L 581 3500 
L 1159 3500 
L 1159 2969 
Q 1341 3281 1617 3432 
Q 1894 3584 2278 3584 
Q 2916 3584 3314 3078 
Q 3713 2572 3713 1747 
Q 3713 922 3314 415 
Q 2916 -91 2278 -91 
Q 1894 -91 1617 61 
Q 1341 213 1159 525 
z
M 3116 1747 
Q 3116 2381 2855 2742 
Q 2594 3103 2138 3103 
Q 1681 3103 1420 2742 
Q 1159 2381 1159 1747 
Q 1159 1113 1420 752 
Q 1681 391 2138 391 
Q 2594 391 2855 752 
Q 3116 1113 3116 1747 
z
" transform="scale(0.015625)"/>
       <path id="DejaVuSans-72" d="M 2631 2963 
Q 2534 3019 2420 3045 
Q 2306 3072 2169 3072 
Q 1681 3072 1420 2755 
Q 1159 2438 1159 1844 
L 1159 0 
L 581 0 
L 581 3500 
L 1159 3500 
L 1159 2956 
Q 1341 3275 1631 3429 
Q 1922 3584 2338 3584 
Q 2397 3584 2469 3576 
Q 2541 3569 2628 3553 
L 2631 2963 
z
" transform="scale(0.015625)"/>
       <path id="DejaVuSans-61" d="M 2194 1759 
Q 1497 1759 1228 1600 
Q 959 1441 959 1056 
Q 959 750 1161 570 
Q 1363 391 1709 391 
Q 2188 391 2477 730 
Q 2766 1069 2766 1631 
L 2766 1759 
L 2194 1759 
z
M 3341 1997 
L 3341 0 
L 2766 0 
L 2766 531 
Q 2569 213 2275 61 
Q 1981 -91 1556 -91 
Q 1019 -91 701 211 
Q 384 513 384 1019 
Q 384 1609 779 1909 
Q 1175 2209 1959 2209 
L 2766 2209 
L 2766 2266 
Q 2766 2663 2505 2880 
Q 2244 3097 1772 3097 
Q 1472 3097 1187 3025 
Q 903 2953 641 2809 
L 641 3341 
Q 956 3463 1253 3523 
Q 1550 3584 1831 3584 
Q 2591 3584 2966 3190 
Q 3341 2797 3341 1997 
z
" transform="scale(0.015625)"/>
       <path id="DejaVuSans-74" d="M 1172 4494 
L 1172 3500 
L 2356 3500 
L 2356 3053 
L 1172 3053 
L 1172 1153 
Q 1172 725 1289 603 
Q 1406 481 1766 481 
L 2356 481 
L 2356 0 
L 1766 0 
Q 1100 0 847 248 
Q 594 497 594 1153 
L 594 3053 
L 172 3053 
L 172 3500 
L 594 3500 
L 594 4494 
L 1172 4494 
z
" transform="scale(0.015625)"/>
       <path id="DejaVuSans-75" d="M 544 1381 
L 544 3500 
L 1119 3500 
L 1119 1403 
Q 1119 906 1312 657 
Q 1506 409 1894 409 
Q 2359 409 2629 706 
Q 2900 1003 2900 1516 
L 2900 3500 
L 3475 3500 
L 3475 0 
L 2900 0 
L 2900 538 
Q 2691 219 2414 64 
Q 2138 -91 1772 -91 
Q 1169 -91 856 284 
Q 544 659 544 1381 
z
M 1991 3584 
L 1991 3584 
z
" transform="scale(0.015625)"/>
       <path id="DejaVuSans-28" d="M 1984 4856 
Q 1566 4138 1362 3434 
Q 1159 2731 1159 2009 
Q 1159 1288 1364 580 
Q 1569 -128 1984 -844 
L 1484 -844 
Q 1016 -109 783 600 
Q 550 1309 550 2009 
Q 550 2706 781 3412 
Q 1013 4119 1484 4856 
L 1984 4856 
z
" transform="scale(0.015625)"/>
       <path id="DejaVuSans-b0" d="M 1600 4347 
Q 1350 4347 1178 4173 
Q 1006 4000 1006 3750 
Q 1006 3503 1178 3333 
Q 1350 3163 1600 3163 
Q 1850 3163 2022 3333 
Q 2194 3503 2194 3750 
Q 2194 3997 2020 4172 
Q 1847 4347 1600 4347 
z
M 1600 4750 
Q 1800 4750 1984 4673 
Q 2169 4597 2303 4453 
Q 2447 4313 2519 4134 
Q 2591 3956 2591 3750 
Q 2591 3338 2302 3052 
Q 2013 2766 1594 2766 
Q 1172 2766 890 3047 
Q 609 3328 609 3750 
Q 609 4169 896 4459 
Q 1184 4750 1600 4750 
z
" transform="scale(0.015625)"/>
       <path id="DejaVuSans-43" d="M 4122 4306 
L 4122 3641 
Q 3803 3938 3442 4084 
Q 3081 4231 2675 4231 
Q 1875 4231 1450 3742 
Q 1025 3253 1025 2328 
Q 1025 1406 1450 917 
Q 1875 428 2675 428 
Q 3081 428 3442 575 
Q 3803 722 4122 1019 
L 4122 359 
Q 3791 134 3420 21 
Q 3050 -91 2638 -91 
Q 1578 -91 968 557 
Q 359 1206 359 2328 
Q 359 3453 968 4101 
Q 1578 4750 2638 4750 
Q 3056 4750 3426 4639 
Q 3797 4528 4122 4306 
z
" transform="scale(0.015625)"/>
       <path id="DejaVuSans-29" d="M 513 4856 
L 1013 4856 
Q 1481 4119 1714 3412 
Q 1947 2706 1947 2009 
Q 1947 1309 1714 600 
Q 1481 -109 1013 -844 
L 513 -844 
Q 928 -128 1133 580 
Q 1338 1288 1338 2009 
Q 1338 2731 1133 3434 
Q 928 4138 513 4856 
z
" transform="scale(0.015625)"/>
      </defs>
      <use xlink:href="#DejaVuSans-54"/>
      <use xlink:href="#DejaVuSans-65" transform="translate(44.083984 0)"/>
      <use xlink:href="#DejaVuSans-6d" transform="translate(105.607422 0)"/>
      <use xlink:href="#DejaVuSans-70" transform="translate(203.019531 0)"/>
      <use xlink:href="#DejaVuSans-65" transform="translate(266.496094 0)"/>
      <use xlink:href="#DejaVuSans-72" transform="translate(328.019531 0)"/>
      <use xlink:href="#DejaVuSans-61" transform="translate(369.132812 0)"/>
      <use xlink:href="#DejaVuSans-74" transform="translate(430.412109 0)"/>
      <use xlink:href="#DejaVuSans-75" transform="translate(469.621094 0)"/>
      <use xlink:href="#DejaVuSans-75" transform="translate(533 0)"/>
      <use xlink:href="#DejaVuSans-72" transform="translate(596.378906 0)"/>
      <use xlink:href="#DejaVuSans-20" transform="translate(637.492188 0)"/>
      <use xlink:href="#DejaVuSans-28" transform="translate(669.279297 0)"/>
      <use xlink:href="#DejaVuSans-b0" transform="translate(708.292969 0)"/>
      <use xlink:href="#DejaVuSans-43" transform="translate(758.292969 0)"/>
      <use xlink:href="#DejaVuSans-29" transform="translate(828.117188 0)"/>
     </g>
    </g>
   </g>
   <g id="line2d_14">
    <path d="M 74.502543 119.263966 
L 78.087279 120.032401 
L 81.672015 113.884924 
L 85.25675 112.348055 
L 88.841486 113.11649 
L 92.426222 117.727097 
L 96.010958 124.643008 
L 99.595693 123.874574 
L 103.180429 124.643008 
L 106.765165 122.337705 
L 110.349901 122.721922 
L 113.934636 114.653359 
L 117.519372 111.57962 
L 121.104108 112.348055 
L 124.688843 111.57962 
L 131.858315 114.653359 
L 135.443051 115.421793 
L 139.027786 112.348055 
L 142.612522 113.11649 
L 146.197258 114.653359 
L 149.781994 114.653359 
L 153.366729 110.042751 
L 156.951465 111.57962 
L 160.536201 110.042751 
L 164.120936 112.348055 
L 167.705672 109.274317 
L 171.290408 110.042751 
L 174.875144 113.11649 
L 178.459879 113.884924 
L 182.044615 115.421793 
L 185.629351 112.348055 
L 189.214086 115.421793 
L 192.798822 115.806011 
L 196.383558 116.958662 
L 199.968294 119.263966 
L 203.553029 115.421793 
L 207.137765 115.421793 
L 210.722501 117.727097 
L 214.307237 117.727097 
L 217.891972 115.806011 
L 221.476708 114.653359 
L 225.061444 120.800835 
L 228.646179 121.56927 
L 232.230915 115.421793 
L 235.815651 114.653359 
L 239.400387 115.421793 
L 242.985122 114.653359 
L 246.569858 113.11649 
L 250.154594 114.653359 
L 253.73933 136.937962 
L 257.324065 147.696046 
L 260.908801 132.327354 
L 264.493537 117.727097 
L 268.078272 104.663709 
L 271.663008 98.516232 
L 275.247744 93.905625 
L 278.83248 93.905625 
L 282.417215 96.210929 
L 286.001951 95.058277 
L 289.586687 96.210929 
L 293.171423 96.210929 
L 296.756158 98.516232 
L 303.92563 98.516232 
L 307.510365 100.821536 
L 311.095101 100.821536 
L 314.679837 101.974188 
L 318.264573 103.895274 
L 321.849308 103.12684 
L 329.01878 103.12684 
L 332.603515 104.663709 
L 336.188251 103.12684 
L 339.772987 109.274317 
L 343.357723 107.737447 
L 346.942458 107.737447 
L 350.527194 109.274317 
L 354.11193 105.432144 
L 361.281401 112.348055 
L 364.866137 110.042751 
L 368.450873 116.958662 
L 372.035608 114.653359 
L 375.620344 114.653359 
L 379.20508 113.11649 
L 386.374551 111.57962 
L 389.959287 110.042751 
L 393.544023 113.11649 
L 400.713494 117.727097 
L 404.29823 120.800835 
L 407.882966 122.337705 
L 411.467701 123.106139 
L 415.052437 131.55892 
L 418.637173 133.864223 
L 422.221909 134.632658 
L 425.806644 133.095789 
L 429.39138 130.790485 
L 432.976116 120.800835 
L 436.560852 120.800835 
L 440.145587 126.179878 
L 443.730323 117.727097 
L 447.315059 112.348055 
L 450.899794 106.584796 
L 454.48453 104.663709 
L 458.069266 100.821536 
L 461.654002 103.895274 
L 465.238737 104.279492 
L 468.823473 107.737447 
L 472.408209 107.737447 
L 475.992944 109.274317 
L 479.57768 114.653359 
L 483.162416 118.495532 
L 486.747152 121.56927 
L 490.331887 115.806011 
L 493.916623 118.111314 
L 497.501359 123.106139 
L 501.086095 133.095789 
L 504.67083 126.179878 
L 508.255566 128.485181 
L 511.840302 127.332529 
L 515.425037 130.790485 
L 519.009773 134.632658 
L 522.594509 137.706396 
L 526.179245 133.864223 
L 529.76398 132.327354 
L 533.348716 135.401093 
L 536.933452 133.095789 
L 540.518188 140.780135 
L 544.102923 143.085439 
L 547.687659 142.317004 
L 551.272395 137.706396 
L 554.85713 140.0117 
L 558.441866 136.937962 
L 562.026602 138.859048 
L 565.611338 138.859048 
L 569.196073 136.937962 
L 572.780809 133.095789 
L 579.95028 136.169527 
L 583.535016 136.169527 
L 587.119752 131.55892 
L 590.704488 120.800835 
L 597.873959 96.210929 
L 601.458695 86.221279 
L 605.043431 80.073802 
L 608.628166 74.69476 
L 612.212902 73.926325 
L 615.797638 76.615847 
L 619.382373 83.147541 
L 622.967109 85.837062 
L 626.551845 95.058277 
L 630.136581 99.668884 
L 633.721316 103.895274 
L 637.306052 112.348055 
L 640.890788 131.55892 
L 644.475524 143.469656 
L 648.060259 139.243266 
L 651.644995 146.927611 
L 655.229731 161.912086 
L 658.814466 159.606782 
L 662.399202 160.759434 
L 669.568674 160.759434 
L 673.153409 163.064738 
L 673.153409 163.064738 
" clip-path="url(#pe3930eace1)" style="fill: none; stroke: #1f77b4; stroke-width: 2; stroke-linecap: square"/>
   </g>
   <g id="line2d_15">
    <path d="M 74.502543 140.0117 
L 78.087279 141.877898 
L 81.672015 145.006525 
L 85.25675 129.407303 
L 88.841486 127.716747 
L 92.426222 126.179878 
L 96.010958 135.565757 
L 99.595693 135.236428 
L 103.180429 142.701221 
L 106.765165 133.974 
L 110.349901 120.992944 
L 113.934636 132.876236 
L 117.519372 132.052913 
L 121.104108 138.730976 
L 124.688843 131.998025 
L 128.273579 134.120368 
L 131.858315 132.327354 
L 135.443051 131.943137 
L 139.027786 130.900261 
L 142.612522 131.668696 
L 149.781994 131.998025 
L 153.366729 131.55892 
L 156.951465 137.834469 
L 160.536201 137.066034 
L 167.705672 134.248441 
L 171.290408 125.850548 
L 174.875144 125.850548 
L 178.459879 124.752785 
L 182.044615 126.838536 
L 185.629351 126.179878 
L 189.214086 123.618429 
L 192.798822 121.624158 
L 196.383558 122.392593 
L 199.968294 124.643008 
L 203.553029 123.215916 
L 207.137765 121.239941 
L 210.722501 121.239941 
L 214.307237 119.593295 
L 217.891972 119.428631 
L 221.476708 119.812848 
L 225.061444 116.409781 
L 228.646179 114.982688 
L 232.230915 118.495532 
L 235.815651 119.007821 
L 239.400387 120.416618 
L 242.985122 121.313125 
L 246.569858 116.73911 
L 250.154594 116.080452 
L 253.73933 119.263966 
L 257.324065 122.008375 
L 260.908801 124.899153 
L 264.493537 123.106139 
L 268.078272 119.904328 
L 271.663008 118.367459 
L 275.247744 113.555595 
L 278.83248 112.457831 
L 282.417215 113.445819 
L 286.001951 113.061601 
L 289.586687 119.904328 
L 293.171423 119.520111 
L 296.756158 120.288546 
L 300.340894 114.433806 
L 303.92563 113.775148 
L 307.510365 116.519557 
L 311.095101 116.848886 
L 314.679837 116.13534 
L 318.264573 116.629333 
L 321.849308 115.641346 
L 329.01878 116.519557 
L 332.603515 116.519557 
L 336.188251 117.836873 
L 343.357723 118.166203 
L 350.527194 117.836873 
L 354.11193 117.94665 
L 357.696666 119.538407 
L 361.281401 121.56927 
L 364.866137 121.239941 
L 368.450873 122.996363 
L 372.035608 121.56927 
L 375.620344 122.502369 
L 379.20508 127.460602 
L 382.789816 126.051805 
L 386.374551 124.899153 
L 389.959287 122.849994 
L 393.544023 121.697342 
L 397.128759 116.080452 
L 400.713494 117.94665 
L 404.29823 118.934637 
L 407.882966 119.15419 
L 411.467701 120.142177 
L 415.052437 122.557257 
L 418.637173 122.667034 
L 422.221909 124.972337 
L 425.806644 125.19189 
L 432.976116 121.788823 
L 436.560852 122.557257 
L 440.145587 124.039238 
L 443.730323 122.227928 
L 447.315059 122.392593 
L 450.899794 120.526394 
L 454.48453 126.179878 
L 458.069266 125.411443 
L 461.654002 120.032401 
L 465.238737 119.263966 
L 468.823473 121.239941 
L 472.408209 122.77681 
L 475.992944 123.655021 
L 479.57768 123.325692 
L 483.162416 124.643008 
L 486.747152 126.618983 
L 490.331887 127.058089 
L 493.916623 127.332529 
L 497.501359 128.704734 
L 501.086095 129.253616 
L 504.67083 126.838536 
L 508.255566 126.564095 
L 511.840302 125.576108 
L 515.425037 135.631623 
L 519.009773 134.01791 
L 522.594509 131.686992 
L 526.179245 126.692167 
L 529.76398 119.57134 
L 533.348716 127.460602 
L 536.933452 124.899153 
L 540.518188 134.632658 
L 544.102923 113.628779 
L 547.687659 122.17304 
L 551.272395 123.42632 
L 554.85713 121.953487 
L 558.441866 118.175351 
L 562.026602 112.238279 
L 565.611338 111.360068 
L 569.196073 109.521313 
L 572.780809 108.835211 
L 576.365545 109.384093 
L 579.95028 109.384093 
L 583.535016 109.16454 
L 587.119752 109.713422 
L 590.704488 108.066777 
L 594.289223 106.969013 
L 597.873959 106.420131 
L 601.458695 106.74946 
L 605.043431 105.871249 
L 608.628166 105.377255 
L 612.212902 110.555041 
L 615.797638 109.402389 
L 619.382373 111.323475 
L 622.967109 112.412091 
L 626.551845 120.512672 
L 630.136581 108.37781 
L 633.721316 110.811186 
L 637.306052 128.869399 
L 640.890788 138.090614 
L 644.475524 143.469656 
L 648.060259 139.243266 
L 651.644995 146.927611 
L 655.229731 161.912086 
L 658.814466 159.606782 
L 662.399202 160.759434 
L 669.568674 160.759434 
L 673.153409 163.064738 
L 673.153409 163.064738 
" clip-path="url(#pe3930eace1)" style="fill: none; stroke-dasharray: 5.55,2.4; stroke-dashoffset: 0; stroke: #808080; stroke-width: 1.5"/>
   </g>
   <g id="patch_3">
    <path d="M 44.57 246.04 
L 44.57 26.88 
" style="fill: none; stroke: #000000; stroke-width: 0.8; stroke-linejoin: miter; stroke-linecap: square"/>
   </g>
   <g id="patch_4">
    <path d="M 703.085953 246.04 
L 703.085953 26.88 
" style="fill: none; stroke: #000000; stroke-width: 0.8; stroke-linejoin: miter; stroke-linecap: square"/>
   </g>
   <g id="patch_5">
    <path d="M 44.57 246.04 
L 703.085953 246.04 
" style="fill: none; stroke: #000000; stroke-width: 0.8; stroke-linejoin: miter; stroke-linecap: square"/>
   </g>
   <g id="patch_6">
    <path d="M 44.57 26.88 
L 703.085953 26.88 
" style="fill: none; stroke: #000000; stroke-width: 0.8; stroke-linejoin: miter; stroke-linecap: square"/>
   </g>
   <g id="text_16">
    <!-- Temperatuur - v001/c00002/d001 -->
    <g transform="translate(272.906101 20.88) scale(0.12 -0.12)">
     <defs>
      <path id="DejaVuSans-76" d="M 191 3500 
L 800 3500 
L 1894 563 
L 2988 3500 
L 3597 3500 
L 2284 0 
L 1503 0 
L 191 3500 
z
" transform="scale(0.015625)"/>
      <path id="DejaVuSans-2f" d="M 1625 4666 
L 2156 4666 
L 531 -594 
L 0 -594 
L 1625 4666 
z
" transform="scale(0.015625)"/>
      <path id="DejaVuSans-63" d="M 3122 3366 
L 3122 2828 
Q 2878 2963 2633 3030 
Q 2388 3097 2138 3097 
Q 1578 3097 1268 2742 
Q 959 2388 959 1747 
Q 959 1106 1268 751 
Q 1578 397 2138 397 
Q 2388 397 2633 464 
Q 2878 531 3122 666 
L 3122 134 
Q 2881 22 2623 -34 
Q 2366 -91 2075 -91 
Q 1284 -91 818 406 
Q 353 903 353 1747 
Q 353 2603 823 3093 
Q 1294 3584 2113 3584 
Q 2378 3584 2631 3529 
Q 2884 3475 3122 3366 
z
" transform="scale(0.015625)"/>
     </defs>
     <use xlink:href="#DejaVuSans-54"/>
     <use xlink:href="#DejaVuSans-65" transform="translate(44.083984 0)"/>
     <use xlink:href="#DejaVuSans-6d" transform="translate(105.607422 0)"/>
     <use xlink:href="#DejaVuSans-70" transform="translate(203.019531 0)"/>
     <use xlink:href="#DejaVuSans-65" transform="translate(266.496094 0)"/>
     <use xlink:href="#DejaVuSans-72" transform="translate(328.019531 0)"/>
     <use xlink:href="#DejaVuSans-61" transform="translate(369.132812 0)"/>
     <use xlink:href="#DejaVuSans-74" transform="translate(430.412109 0)"/>
     <use xlink:href="#DejaVuSans-75" transform="translate(469.621094 0)"/>
     <use xlink:href="#DejaVuSans-75" transform="translate(533 0)"/>
     <use xlink:href="#DejaVuSans-72" transform="translate(596.378906 0)"/>
     <use xlink:href="#DejaVuSans-20" transform="translate(637.492188 0)"/>
     <use xlink:href="#DejaVuSans-2d" transform="translate(669.279297 0)"/>
     <use xlink:href="#DejaVuSans-20" transform="translate(705.363281 0)"/>
     <use xlink:href="#DejaVuSans-76" transform="translate(737.150391 0)"/>
     <use xlink:href="#DejaVuSans-30" transform="translate(796.330078 0)"/>
     <use xlink:href="#DejaVuSans-30" transform="translate(859.953125 0)"/>
     <use xlink:href="#DejaVuSans-31" transform="translate(923.576172 0)"/>
     <use xlink:href="#DejaVuSans-2f" transform="translate(987.199219 0)"/>
     <use xlink:href="#DejaVuSans-63" transform="translate(1020.890625 0)"/>
     <use xlink:href="#DejaVuSans-30" transform="translate(1075.871094 0)"/>
     <use xlink:href="#DejaVuSans-30" transform="translate(1139.494141 0)"/>
     <use xlink:href="#DejaVuSans-30" transform="translate(1203.117188 0)"/>
     <use xlink:href="#DejaVuSans-30" transform="translate(1266.740234 0)"/>
     <use xlink:href="#DejaVuSans-32" transform="translate(1330.363281 0)"/>
     <use xlink:href="#DejaVuSans-2f" transform="translate(1393.986328 0)"/>
     <use xlink:href="#DejaVuSans-64" transform="translate(1427.677734 0)"/>
     <use xlink:href="#DejaVuSans-30" transform="translate(1491.154297 0)"/>
     <use xlink:href="#DejaVuSans-30" transform="translate(1554.777344 0)"/>
     <use xlink:href="#DejaVuSans-31" transform="translate(1618.400391 0)"/>
    </g>
   </g>
   <g id="legend_1">
    <g id="patch_7">
     <path d="M 545.142203 241.04 
L 696.085953 241.04 
Q 698.085953 241.04 698.085953 239.04 
L 698.085953 196.005625 
Q 698.085953 194.005625 696.085953 194.005625 
L 545.142203 194.005625 
Q 543.142203 194.005625 543.142203 196.005625 
L 543.142203 239.04 
Q 543.142203 241.04 545.142203 241.04 
z
" style="fill: #ffffff; opacity: 0.8; stroke: #cccccc; stroke-linejoin: miter"/>
    </g>
    <g id="line2d_16">
     <path d="M 547.142203 202.104062 
L 557.142203 202.104062 
L 567.142203 202.104062 
" style="fill: none; stroke: #1f77b4; stroke-width: 2; stroke-linecap: square"/>
    </g>
    <g id="text_17">
     <!-- Hive -->
     <g transform="translate(575.142203 205.604062) scale(0.1 -0.1)">
      <defs>
       <path id="DejaVuSans-48" d="M 628 4666 
L 1259 4666 
L 1259 2753 
L 3553 2753 
L 3553 4666 
L 4184 4666 
L 4184 0 
L 3553 0 
L 3553 2222 
L 1259 2222 
L 1259 0 
L 628 0 
L 628 4666 
z
" transform="scale(0.015625)"/>
      </defs>
      <use xlink:href="#DejaVuSans-48"/>
      <use xlink:href="#DejaVuSans-69" transform="translate(75.195312 0)"/>
      <use xlink:href="#DejaVuSans-76" transform="translate(102.978516 0)"/>
      <use xlink:href="#DejaVuSans-65" transform="translate(162.158203 0)"/>
     </g>
    </g>
    <g id="line2d_17">
     <path d="M 547.142203 216.782187 
L 557.142203 216.782187 
L 567.142203 216.782187 
" style="fill: none; stroke-dasharray: 5.55,2.4; stroke-dashoffset: 0; stroke: #808080; stroke-width: 1.5"/>
    </g>
    <g id="text_18">
     <!-- Gemiddelde (alle hives) -->
     <g transform="translate(575.142203 220.282187) scale(0.1 -0.1)">
      <defs>
       <path id="DejaVuSans-47" d="M 3809 666 
L 3809 1919 
L 2778 1919 
L 2778 2438 
L 4434 2438 
L 4434 434 
Q 4069 175 3628 42 
Q 3188 -91 2688 -91 
Q 1594 -91 976 548 
Q 359 1188 359 2328 
Q 359 3472 976 4111 
Q 1594 4750 2688 4750 
Q 3144 4750 3555 4637 
Q 3966 4525 4313 4306 
L 4313 3634 
Q 3963 3931 3569 4081 
Q 3175 4231 2741 4231 
Q 1884 4231 1454 3753 
Q 1025 3275 1025 2328 
Q 1025 1384 1454 906 
Q 1884 428 2741 428 
Q 3075 428 3337 486 
Q 3600 544 3809 666 
z
" transform="scale(0.015625)"/>
       <path id="DejaVuSans-6c" d="M 603 4863 
L 1178 4863 
L 1178 0 
L 603 0 
L 603 4863 
z
" transform="scale(0.015625)"/>
       <path id="DejaVuSans-68" d="M 3513 2113 
L 3513 0 
L 2938 0 
L 2938 2094 
Q 2938 2591 2744 2837 
Q 2550 3084 2163 3084 
Q 1697 3084 1428 2787 
Q 1159 2491 1159 1978 
L 1159 0 
L 581 0 
L 581 4863 
L 1159 4863 
L 1159 2956 
Q 1366 3272 1645 3428 
Q 1925 3584 2291 3584 
Q 2894 3584 3203 3211 
Q 3513 2838 3513 2113 
z
" transform="scale(0.015625)"/>
       <path id="DejaVuSans-73" d="M 2834 3397 
L 2834 2853 
Q 2591 2978 2328 3040 
Q 2066 3103 1784 3103 
Q 1356 3103 1142 2972 
Q 928 2841 928 2578 
Q 928 2378 1081 2264 
Q 1234 2150 1697 2047 
L 1894 2003 
Q 2506 1872 2764 1633 
Q 3022 1394 3022 966 
Q 3022 478 2636 193 
Q 2250 -91 1575 -91 
Q 1294 -91 989 -36 
Q 684 19 347 128 
L 347 722 
Q 666 556 975 473 
Q 1284 391 1588 391 
Q 1994 391 2212 530 
Q 2431 669 2431 922 
Q 2431 1156 2273 1281 
Q 2116 1406 1581 1522 
L 1381 1569 
Q 847 1681 609 1914 
Q 372 2147 372 2553 
Q 372 3047 722 3315 
Q 1072 3584 1716 3584 
Q 2034 3584 2315 3537 
Q 2597 3491 2834 3397 
z
" transform="scale(0.015625)"/>
      </defs>
      <use xlink:href="#DejaVuSans-47"/>
      <use xlink:href="#DejaVuSans-65" transform="translate(77.490234 0)"/>
      <use xlink:href="#DejaVuSans-6d" transform="translate(139.013672 0)"/>
      <use xlink:href="#DejaVuSans-69" transform="translate(236.425781 0)"/>
      <use xlink:href="#DejaVuSans-64" transform="translate(264.208984 0)"/>
      <use xlink:href="#DejaVuSans-64" transform="translate(327.685547 0)"/>
      <use xlink:href="#DejaVuSans-65" transform="translate(391.162109 0)"/>
      <use xlink:href="#DejaVuSans-6c" transform="translate(452.685547 0)"/>
      <use xlink:href="#DejaVuSans-64" transform="translate(480.46875 0)"/>
      <use xlink:href="#DejaVuSans-65" transform="translate(543.945312 0)"/>
      <use xlink:href="#DejaVuSans-20" transform="translate(605.46875 0)"/>
      <use xlink:href="#DejaVuSans-28" transform="translate(637.255859 0)"/>
      <use xlink:href="#DejaVuSans-61" transform="translate(676.269531 0)"/>
      <use xlink:href="#DejaVuSans-6c" transform="translate(737.548828 0)"/>
      <use xlink:href="#DejaVuSans-6c" transform="translate(765.332031 0)"/>
      <use xlink:href="#DejaVuSans-65" transform="translate(793.115234 0)"/>
      <use xlink:href="#DejaVuSans-20" transform="translate(854.638672 0)"/>
      <use xlink:href="#DejaVuSans-68" transform="translate(886.425781 0)"/>
      <use xlink:href="#DejaVuSans-69" transform="translate(949.804688 0)"/>
      <use xlink:href="#DejaVuSans-76" transform="translate(977.587891 0)"/>
      <use xlink:href="#DejaVuSans-65" transform="translate(1036.767578 0)"/>
      <use xlink:href="#DejaVuSans-73" transform="translate(1098.291016 0)"/>
      <use xlink:href="#DejaVuSans-29" transform="translate(1150.390625 0)"/>
     </g>
    </g>
    <g id="patch_8">
     <path d="M 547.142203 234.960312 
L 567.142203 234.960312 
L 567.142203 227.960312 
L 547.142203 227.960312 
z
" style="fill: #808080; fill-opacity: 0.2; stroke: #808080; stroke-opacity: 0.2; stroke-linejoin: miter"/>
    </g>
    <g id="text_19">
     <!-- ±2 Std Dev -->
     <g transform="translate(575.142203 234.960312) scale(0.1 -0.1)">
      <defs>
       <path id="DejaVuSans-b1" d="M 2944 4013 
L 2944 2803 
L 4684 2803 
L 4684 2272 
L 2944 2272 
L 2944 1063 
L 2419 1063 
L 2419 2272 
L 678 2272 
L 678 2803 
L 2419 2803 
L 2419 4013 
L 2944 4013 
z
M 678 531 
L 4684 531 
L 4684 0 
L 678 0 
L 678 531 
z
" transform="scale(0.015625)"/>
       <path id="DejaVuSans-53" d="M 3425 4513 
L 3425 3897 
Q 3066 4069 2747 4153 
Q 2428 4238 2131 4238 
Q 1616 4238 1336 4038 
Q 1056 3838 1056 3469 
Q 1056 3159 1242 3001 
Q 1428 2844 1947 2747 
L 2328 2669 
Q 3034 2534 3370 2195 
Q 3706 1856 3706 1288 
Q 3706 609 3251 259 
Q 2797 -91 1919 -91 
Q 1588 -91 1214 -16 
Q 841 59 441 206 
L 441 856 
Q 825 641 1194 531 
Q 1563 422 1919 422 
Q 2459 422 2753 634 
Q 3047 847 3047 1241 
Q 3047 1584 2836 1778 
Q 2625 1972 2144 2069 
L 1759 2144 
Q 1053 2284 737 2584 
Q 422 2884 422 3419 
Q 422 4038 858 4394 
Q 1294 4750 2059 4750 
Q 2388 4750 2728 4690 
Q 3069 4631 3425 4513 
z
" transform="scale(0.015625)"/>
       <path id="DejaVuSans-44" d="M 1259 4147 
L 1259 519 
L 2022 519 
Q 2988 519 3436 956 
Q 3884 1394 3884 2338 
Q 3884 3275 3436 3711 
Q 2988 4147 2022 4147 
L 1259 4147 
z
M 628 4666 
L 1925 4666 
Q 3281 4666 3915 4102 
Q 4550 3538 4550 2338 
Q 4550 1131 3912 565 
Q 3275 0 1925 0 
L 628 0 
L 628 4666 
z
" transform="scale(0.015625)"/>
      </defs>
      <use xlink:href="#DejaVuSans-b1"/>
      <use xlink:href="#DejaVuSans-32" transform="translate(83.789062 0)"/>
      <use xlink:href="#DejaVuSans-20" transform="translate(147.412109 0)"/>
      <use xlink:href="#DejaVuSans-53" transform="translate(179.199219 0)"/>
      <use xlink:href="#DejaVuSans-74" transform="translate(242.675781 0)"/>
      <use xlink:href="#DejaVuSans-64" transform="translate(281.884766 0)"/>
      <use xlink:href="#DejaVuSans-20" transform="translate(345.361328 0)"/>
      <use xlink:href="#DejaVuSans-44" transform="translate(377.148438 0)"/>
      <use xlink:href="#DejaVuSans-65" transform="translate(454.150391 0)"/>
      <use xlink:href="#DejaVuSans-76" transform="translate(515.673828 0)"/>
     </g>
    </g>
   </g>
  </g>
 </g>
 <defs>
  <clipPath id="pe3930eace1">
   <rect x="44.57" y="26.88" width="658.515953" height="219.16"/>
  </clipPath>
 </defs>
</svg>
