<?xml version="1.0" encoding="utf-8" standalone="no"?>
<!DOCTYPE svg PUBLIC "-//W3C//DTD SVG 1.1//EN"
  "http://www.w3.org/Graphics/SVG/1.1/DTD/svg11.dtd">
<svg xmlns:xlink="http://www.w3.org/1999/xlink" width="720pt" height="288pt" viewBox="0 0 720 288" xmlns="http://www.w3.org/2000/svg" version="1.1">
 <metadata>
  <rdf:RDF xmlns:dc="http://purl.org/dc/elements/1.1/" xmlns:cc="http://creativecommons.org/ns#" xmlns:rdf="http://www.w3.org/1999/02/22-rdf-syntax-ns#">
   <cc:Work>
    <dc:type rdf:resource="http://purl.org/dc/dcmitype/StillImage"/>
    <dc:date>2025-06-16T23:15:26.931981</dc:date>
    <dc:format>image/svg+xml</dc:format>
    <dc:creator>
     <cc:Agent>
      <dc:title>Matplotlib v3.10.3, https://matplotlib.org/</dc:title>
     </cc:Agent>
    </dc:creator>
   </cc:Work>
  </rdf:RDF>
 </metadata>
 <defs>
  <style type="text/css">*{stroke-linejoin: round; stroke-linecap: butt}</style>
 </defs>
 <g id="figure_1">
  <g id="patch_1">
   <path d="M 0 288 
L 720 288 
L 720 0 
L 0 0 
z
" style="fill: #ffffff"/>
  </g>
  <g id="axes_1">
   <g id="patch_2">
    <path d="M 44.57 246.04 
L 709.2 246.04 
L 709.2 26.88 
L 44.57 26.88 
z
" style="fill: #ffffff"/>
   </g>
   <g id="FillBetweenPolyCollection_1">
    <defs>
     <path id="m28d3aca689" d="M 74.780455 -251.158182 
L 74.780455 -75.204281 
L 78.313841 -77.135438 
L 81.847228 -76.906264 
L 85.380614 -74.367435 
L 88.914001 -74.811346 
L 92.447387 -82.521462 
L 95.980774 -72.269516 
L 99.51416 -77.720912 
L 103.047547 -75.948004 
L 106.580933 -84.701869 
L 110.11432 -84.117264 
L 113.647706 -82.036178 
L 117.181093 -81.281212 
L 120.714479 -83.856116 
L 124.247865 -82.91098 
L 127.781252 -78.036669 
L 131.314638 -79.049755 
L 134.848025 -72.451422 
L 138.381411 -78.452967 
L 141.914798 -79.330545 
L 145.448184 -78.215166 
L 148.981571 -73.786327 
L 152.514957 -61.032575 
L 156.048344 -65.659044 
L 159.58173 -75.897764 
L 163.115117 -64.401027 
L 166.648503 -75.748739 
L 170.18189 -73.411381 
L 173.715276 -75.662109 
L 177.248663 -73.882772 
L 180.782049 -71.061321 
L 184.315436 -64.069209 
L 187.848822 -74.398029 
L 191.382209 -73.217099 
L 194.915595 -69.884333 
L 198.448982 -66.822378 
L 201.982368 -65.167752 
L 205.515755 -67.01495 
L 209.049141 -67.727505 
L 212.582528 -72.427899 
L 216.115914 -76.269794 
L 219.649301 -75.969136 
L 223.182687 -78.728874 
L 226.716074 -73.272771 
L 230.24946 -72.762778 
L 233.782847 -68.337035 
L 237.316233 -65.769549 
L 240.84962 -60.413655 
L 244.383006 -54.470669 
L 247.916393 -51.921818 
L 251.449779 -55.52618 
L 254.983166 -60.083353 
L 258.516552 -65.381516 
L 262.049939 -61.650064 
L 265.583325 -71.759702 
L 269.116712 -72.896107 
L 272.650098 -72.919654 
L 276.183485 -71.349608 
L 279.716871 -72.372995 
L 283.250258 -72.042612 
L 286.783644 -74.396465 
L 290.317031 -68.55146 
L 293.850417 -74.593106 
L 297.383804 -71.35833 
L 300.91719 -76.213221 
L 304.450577 -73.734505 
L 307.983963 -67.037657 
L 311.51735 -67.229024 
L 315.050736 -70.46944 
L 318.584123 -68.933455 
L 322.117509 -65.514919 
L 325.650896 -71.013366 
L 329.184282 -64.852849 
L 332.717669 -59.084962 
L 336.251055 -62.36764 
L 339.784442 -70.254669 
L 343.317828 -71.614059 
L 346.851215 -67.314128 
L 350.384601 -73.422001 
L 353.917988 -71.534441 
L 357.451374 -74.850301 
L 360.984761 -75.11938 
L 364.518147 -75.987885 
L 368.051534 -74.787787 
L 371.58492 -74.182839 
L 375.118307 -72.4612 
L 378.651693 -75.585728 
L 382.18508 -76.504456 
L 385.718466 -80.460335 
L 389.251853 -79.544029 
L 392.785239 -84.653911 
L 396.318626 -81.816586 
L 399.852012 -82.343939 
L 403.385399 -81.281309 
L 406.918785 -79.652429 
L 410.452172 -83.415472 
L 413.985558 -82.005747 
L 417.518945 -81.312181 
L 421.052331 -79.913834 
L 424.585718 -80.700986 
L 428.119104 -86.909436 
L 431.652491 -89.892824 
L 435.185877 -94.154654 
L 438.719264 -98.376273 
L 442.25265 -95.302324 
L 445.786037 -91.768898 
L 449.319423 -94.128182 
L 452.85281 -94.249389 
L 456.386196 -97.447802 
L 459.919583 -93.794544 
L 463.452969 -100.21115 
L 466.986356 -95.937503 
L 470.519742 -95.347678 
L 474.053129 -96.302493 
L 477.586515 -94.38904 
L 481.119902 -93.761645 
L 484.653288 -95.070057 
L 488.186675 -97.252537 
L 491.720061 -97.983645 
L 495.253448 -97.706268 
L 498.786834 -96.560318 
L 502.320221 -98.768171 
L 505.853607 -97.57418 
L 509.386994 -96.248278 
L 512.92038 -93.338302 
L 516.453767 -93.735117 
L 519.987153 -92.352892 
L 523.52054 -89.941795 
L 527.053926 -85.484481 
L 530.587313 -89.500263 
L 534.120699 -86.707235 
L 537.654086 -85.352549 
L 541.187472 -88.231025 
L 544.720859 -87.759124 
L 548.254245 -90.59346 
L 551.787632 -89.37511 
L 555.321018 -91.074672 
L 558.854405 -91.735669 
L 562.387791 -91.461377 
L 565.921178 -96.243974 
L 569.454564 -89.358985 
L 572.987951 -92.470045 
L 576.521337 -98.284412 
L 580.054724 -93.496961 
L 583.58811 -88.333882 
L 587.121497 -86.541117 
L 590.654883 -83.331626 
L 594.18827 -81.314666 
L 597.721656 -81.528604 
L 601.255043 -92.849569 
L 604.788429 -96.849208 
L 608.321816 -95.486462 
L 611.855202 -100.373645 
L 615.388589 -98.360224 
L 618.921975 -102.153832 
L 622.455362 -105.521885 
L 625.988748 -113.314403 
L 629.522135 -115.212951 
L 633.055521 -99.301826 
L 636.588907 -106.473669 
L 636.588907 -160.306731 
L 636.588907 -160.306731 
L 633.055521 -163.731948 
L 629.522135 -164.605708 
L 625.988748 -165.605067 
L 622.455362 -177.144211 
L 618.921975 -168.573014 
L 615.388589 -167.271211 
L 611.855202 -171.759078 
L 608.321816 -174.491058 
L 604.788429 -172.221987 
L 601.255043 -170.284114 
L 597.721656 -178.258093 
L 594.18827 -181.269512 
L 590.654883 -180.426495 
L 587.121497 -186.105429 
L 583.58811 -182.706967 
L 580.054724 -184.309225 
L 576.521337 -183.246991 
L 572.987951 -185.721508 
L 569.454564 -186.64882 
L 565.921178 -190.425659 
L 562.387791 -184.717703 
L 558.854405 -186.177563 
L 555.321018 -186.174872 
L 551.787632 -188.131345 
L 548.254245 -189.910296 
L 544.720859 -188.163044 
L 541.187472 -184.693842 
L 537.654086 -185.195887 
L 534.120699 -185.082939 
L 530.587313 -179.206973 
L 527.053926 -197.331479 
L 523.52054 -185.102592 
L 519.987153 -186.866307 
L 516.453767 -180.238805 
L 512.92038 -178.901467 
L 509.386994 -171.281447 
L 505.853607 -173.359623 
L 502.320221 -172.22986 
L 498.786834 -170.798133 
L 495.253448 -170.380099 
L 491.720061 -159.997535 
L 488.186675 -165.99533 
L 484.653288 -165.480238 
L 481.119902 -164.776177 
L 477.586515 -166.418167 
L 474.053129 -169.600126 
L 470.519742 -167.364956 
L 466.986356 -173.818788 
L 463.452969 -170.701243 
L 459.919583 -170.887745 
L 456.386196 -173.036406 
L 452.85281 -174.115298 
L 449.319423 -178.411318 
L 445.786037 -182.611801 
L 442.25265 -178.650189 
L 438.719264 -177.37462 
L 435.185877 -178.25639 
L 431.652491 -183.588685 
L 428.119104 -185.330334 
L 424.585718 -188.798394 
L 421.052331 -189.285816 
L 417.518945 -184.461982 
L 413.985558 -185.052974 
L 410.452172 -186.298001 
L 406.918785 -187.920115 
L 403.385399 -191.515103 
L 399.852012 -191.308844 
L 396.318626 -192.906662 
L 392.785239 -193.28073 
L 389.251853 -196.592232 
L 385.718466 -195.162103 
L 382.18508 -198.989526 
L 378.651693 -196.39713 
L 375.118307 -196.246036 
L 371.58492 -191.719779 
L 368.051534 -192.39939 
L 364.518147 -194.003909 
L 360.984761 -193.416582 
L 357.451374 -194.220893 
L 353.917988 -198.050576 
L 350.384601 -195.734831 
L 346.851215 -201.478745 
L 343.317828 -198.142232 
L 339.784442 -201.792417 
L 336.251055 -212.526882 
L 332.717669 -216.708751 
L 329.184282 -213.724071 
L 325.650896 -209.490391 
L 322.117509 -211.948718 
L 318.584123 -211.527484 
L 315.050736 -205.773868 
L 311.51735 -211.005348 
L 307.983963 -209.869338 
L 304.450577 -205.249192 
L 300.91719 -207.523339 
L 297.383804 -208.631603 
L 293.850417 -207.173799 
L 290.317031 -215.677514 
L 286.783644 -207.862854 
L 283.250258 -213.663604 
L 279.716871 -210.913969 
L 276.183485 -216.647402 
L 272.650098 -214.9489 
L 269.116712 -210.369448 
L 265.583325 -215.380936 
L 262.049939 -219.617291 
L 258.516552 -211.589707 
L 254.983166 -215.924453 
L 251.449779 -221.166723 
L 247.916393 -231.536421 
L 244.383006 -230.571858 
L 240.84962 -234.177417 
L 237.316233 -234.002572 
L 233.782847 -239.18525 
L 230.24946 -239.426733 
L 226.716074 -239.473382 
L 223.182687 -236.329483 
L 219.649301 -238.318486 
L 216.115914 -239.47366 
L 212.582528 -240.72503 
L 209.049141 -242.599398 
L 205.515755 -242.519808 
L 201.982368 -240.34206 
L 198.448982 -241.577688 
L 194.915595 -238.365868 
L 191.382209 -237.388125 
L 187.848822 -243.100986 
L 184.315436 -246.996314 
L 180.782049 -240.143363 
L 177.248663 -230.98476 
L 173.715276 -231.688901 
L 170.18189 -231.65954 
L 166.648503 -231.109858 
L 163.115117 -230.703868 
L 159.58173 -224.08845 
L 156.048344 -229.520784 
L 152.514957 -238.268541 
L 148.981571 -227.141895 
L 145.448184 -226.416864 
L 141.914798 -228.255968 
L 138.381411 -223.117534 
L 134.848025 -232.969184 
L 131.314638 -221.535919 
L 127.781252 -222.891554 
L 124.247865 -222.834334 
L 120.714479 -225.271866 
L 117.181093 -227.739724 
L 113.647706 -228.012404 
L 110.11432 -231.92592 
L 106.580933 -229.585752 
L 103.047547 -236.890922 
L 99.51416 -240.484611 
L 95.980774 -240.944073 
L 92.447387 -247.477013 
L 88.914001 -250.309378 
L 85.380614 -244.501776 
L 81.847228 -245.602526 
L 78.313841 -246.65791 
L 74.780455 -251.158182 
z
" style="stroke: #808080; stroke-opacity: 0.2"/>
    </defs>
    <g clip-path="url(#p24017c55b6)">
     <use xlink:href="#m28d3aca689" x="0" y="288" style="fill: #808080; fill-opacity: 0.2; stroke: #808080; stroke-opacity: 0.2"/>
    </g>
   </g>
   <g id="matplotlib.axis_1">
    <g id="xtick_1">
     <g id="line2d_1">
      <defs>
       <path id="m7e1a6a176d" d="M 0 0 
L 0 3.5 
" style="stroke: #000000; stroke-width: 0.8"/>
      </defs>
      <g>
       <use xlink:href="#m7e1a6a176d" x="81.847228" y="246.04" style="stroke: #000000; stroke-width: 0.8"/>
      </g>
     </g>
     <g id="text_1">
      <!-- 06-14 00 -->
      <g transform="translate(59.366759 260.638438) scale(0.1 -0.1)">
       <defs>
        <path id="DejaVuSans-30" d="M 2034 4250 
Q 1547 4250 1301 3770 
Q 1056 3291 1056 2328 
Q 1056 1369 1301 889 
Q 1547 409 2034 409 
Q 2525 409 2770 889 
Q 3016 1369 3016 2328 
Q 3016 3291 2770 3770 
Q 2525 4250 2034 4250 
z
M 2034 4750 
Q 2819 4750 3233 4129 
Q 3647 3509 3647 2328 
Q 3647 1150 3233 529 
Q 2819 -91 2034 -91 
Q 1250 -91 836 529 
Q 422 1150 422 2328 
Q 422 3509 836 4129 
Q 1250 4750 2034 4750 
z
" transform="scale(0.015625)"/>
        <path id="DejaVuSans-36" d="M 2113 2584 
Q 1688 2584 1439 2293 
Q 1191 2003 1191 1497 
Q 1191 994 1439 701 
Q 1688 409 2113 409 
Q 2538 409 2786 701 
Q 3034 994 3034 1497 
Q 3034 2003 2786 2293 
Q 2538 2584 2113 2584 
z
M 3366 4563 
L 3366 3988 
Q 3128 4100 2886 4159 
Q 2644 4219 2406 4219 
Q 1781 4219 1451 3797 
Q 1122 3375 1075 2522 
Q 1259 2794 1537 2939 
Q 1816 3084 2150 3084 
Q 2853 3084 3261 2657 
Q 3669 2231 3669 1497 
Q 3669 778 3244 343 
Q 2819 -91 2113 -91 
Q 1303 -91 875 529 
Q 447 1150 447 2328 
Q 447 3434 972 4092 
Q 1497 4750 2381 4750 
Q 2619 4750 2861 4703 
Q 3103 4656 3366 4563 
z
" transform="scale(0.015625)"/>
        <path id="DejaVuSans-2d" d="M 313 2009 
L 1997 2009 
L 1997 1497 
L 313 1497 
L 313 2009 
z
" transform="scale(0.015625)"/>
        <path id="DejaVuSans-31" d="M 794 531 
L 1825 531 
L 1825 4091 
L 703 3866 
L 703 4441 
L 1819 4666 
L 2450 4666 
L 2450 531 
L 3481 531 
L 3481 0 
L 794 0 
L 794 531 
z
" transform="scale(0.015625)"/>
        <path id="DejaVuSans-34" d="M 2419 4116 
L 825 1625 
L 2419 1625 
L 2419 4116 
z
M 2253 4666 
L 3047 4666 
L 3047 1625 
L 3713 1625 
L 3713 1100 
L 3047 1100 
L 3047 0 
L 2419 0 
L 2419 1100 
L 313 1100 
L 313 1709 
L 2253 4666 
z
" transform="scale(0.015625)"/>
        <path id="DejaVuSans-20" transform="scale(0.015625)"/>
       </defs>
       <use xlink:href="#DejaVuSans-30"/>
       <use xlink:href="#DejaVuSans-36" transform="translate(63.623047 0)"/>
       <use xlink:href="#DejaVuSans-2d" transform="translate(127.246094 0)"/>
       <use xlink:href="#DejaVuSans-31" transform="translate(163.330078 0)"/>
       <use xlink:href="#DejaVuSans-34" transform="translate(226.953125 0)"/>
       <use xlink:href="#DejaVuSans-20" transform="translate(290.576172 0)"/>
       <use xlink:href="#DejaVuSans-30" transform="translate(322.363281 0)"/>
       <use xlink:href="#DejaVuSans-30" transform="translate(385.986328 0)"/>
      </g>
     </g>
    </g>
    <g id="xtick_2">
     <g id="line2d_2">
      <g>
       <use xlink:href="#m7e1a6a176d" x="166.648503" y="246.04" style="stroke: #000000; stroke-width: 0.8"/>
      </g>
     </g>
     <g id="text_2">
      <!-- 06-14 12 -->
      <g transform="translate(144.168035 260.638438) scale(0.1 -0.1)">
       <defs>
        <path id="DejaVuSans-32" d="M 1228 531 
L 3431 531 
L 3431 0 
L 469 0 
L 469 531 
Q 828 903 1448 1529 
Q 2069 2156 2228 2338 
Q 2531 2678 2651 2914 
Q 2772 3150 2772 3378 
Q 2772 3750 2511 3984 
Q 2250 4219 1831 4219 
Q 1534 4219 1204 4116 
Q 875 4013 500 3803 
L 500 4441 
Q 881 4594 1212 4672 
Q 1544 4750 1819 4750 
Q 2544 4750 2975 4387 
Q 3406 4025 3406 3419 
Q 3406 3131 3298 2873 
Q 3191 2616 2906 2266 
Q 2828 2175 2409 1742 
Q 1991 1309 1228 531 
z
" transform="scale(0.015625)"/>
       </defs>
       <use xlink:href="#DejaVuSans-30"/>
       <use xlink:href="#DejaVuSans-36" transform="translate(63.623047 0)"/>
       <use xlink:href="#DejaVuSans-2d" transform="translate(127.246094 0)"/>
       <use xlink:href="#DejaVuSans-31" transform="translate(163.330078 0)"/>
       <use xlink:href="#DejaVuSans-34" transform="translate(226.953125 0)"/>
       <use xlink:href="#DejaVuSans-20" transform="translate(290.576172 0)"/>
       <use xlink:href="#DejaVuSans-31" transform="translate(322.363281 0)"/>
       <use xlink:href="#DejaVuSans-32" transform="translate(385.986328 0)"/>
      </g>
     </g>
    </g>
    <g id="xtick_3">
     <g id="line2d_3">
      <g>
       <use xlink:href="#m7e1a6a176d" x="251.449779" y="246.04" style="stroke: #000000; stroke-width: 0.8"/>
      </g>
     </g>
     <g id="text_3">
      <!-- 06-15 00 -->
      <g transform="translate(228.969311 260.638438) scale(0.1 -0.1)">
       <defs>
        <path id="DejaVuSans-35" d="M 691 4666 
L 3169 4666 
L 3169 4134 
L 1269 4134 
L 1269 2991 
Q 1406 3038 1543 3061 
Q 1681 3084 1819 3084 
Q 2600 3084 3056 2656 
Q 3513 2228 3513 1497 
Q 3513 744 3044 326 
Q 2575 -91 1722 -91 
Q 1428 -91 1123 -41 
Q 819 9 494 109 
L 494 744 
Q 775 591 1075 516 
Q 1375 441 1709 441 
Q 2250 441 2565 725 
Q 2881 1009 2881 1497 
Q 2881 1984 2565 2268 
Q 2250 2553 1709 2553 
Q 1456 2553 1204 2497 
Q 953 2441 691 2322 
L 691 4666 
z
" transform="scale(0.015625)"/>
       </defs>
       <use xlink:href="#DejaVuSans-30"/>
       <use xlink:href="#DejaVuSans-36" transform="translate(63.623047 0)"/>
       <use xlink:href="#DejaVuSans-2d" transform="translate(127.246094 0)"/>
       <use xlink:href="#DejaVuSans-31" transform="translate(163.330078 0)"/>
       <use xlink:href="#DejaVuSans-35" transform="translate(226.953125 0)"/>
       <use xlink:href="#DejaVuSans-20" transform="translate(290.576172 0)"/>
       <use xlink:href="#DejaVuSans-30" transform="translate(322.363281 0)"/>
       <use xlink:href="#DejaVuSans-30" transform="translate(385.986328 0)"/>
      </g>
     </g>
    </g>
    <g id="xtick_4">
     <g id="line2d_4">
      <g>
       <use xlink:href="#m7e1a6a176d" x="336.251055" y="246.04" style="stroke: #000000; stroke-width: 0.8"/>
      </g>
     </g>
     <g id="text_4">
      <!-- 06-15 12 -->
      <g transform="translate(313.770587 260.638438) scale(0.1 -0.1)">
       <use xlink:href="#DejaVuSans-30"/>
       <use xlink:href="#DejaVuSans-36" transform="translate(63.623047 0)"/>
       <use xlink:href="#DejaVuSans-2d" transform="translate(127.246094 0)"/>
       <use xlink:href="#DejaVuSans-31" transform="translate(163.330078 0)"/>
       <use xlink:href="#DejaVuSans-35" transform="translate(226.953125 0)"/>
       <use xlink:href="#DejaVuSans-20" transform="translate(290.576172 0)"/>
       <use xlink:href="#DejaVuSans-31" transform="translate(322.363281 0)"/>
       <use xlink:href="#DejaVuSans-32" transform="translate(385.986328 0)"/>
      </g>
     </g>
    </g>
    <g id="xtick_5">
     <g id="line2d_5">
      <g>
       <use xlink:href="#m7e1a6a176d" x="421.052331" y="246.04" style="stroke: #000000; stroke-width: 0.8"/>
      </g>
     </g>
     <g id="text_5">
      <!-- 06-16 00 -->
      <g transform="translate(398.571862 260.638438) scale(0.1 -0.1)">
       <use xlink:href="#DejaVuSans-30"/>
       <use xlink:href="#DejaVuSans-36" transform="translate(63.623047 0)"/>
       <use xlink:href="#DejaVuSans-2d" transform="translate(127.246094 0)"/>
       <use xlink:href="#DejaVuSans-31" transform="translate(163.330078 0)"/>
       <use xlink:href="#DejaVuSans-36" transform="translate(226.953125 0)"/>
       <use xlink:href="#DejaVuSans-20" transform="translate(290.576172 0)"/>
       <use xlink:href="#DejaVuSans-30" transform="translate(322.363281 0)"/>
       <use xlink:href="#DejaVuSans-30" transform="translate(385.986328 0)"/>
      </g>
     </g>
    </g>
    <g id="xtick_6">
     <g id="line2d_6">
      <g>
       <use xlink:href="#m7e1a6a176d" x="505.853607" y="246.04" style="stroke: #000000; stroke-width: 0.8"/>
      </g>
     </g>
     <g id="text_6">
      <!-- 06-16 12 -->
      <g transform="translate(483.373138 260.638438) scale(0.1 -0.1)">
       <use xlink:href="#DejaVuSans-30"/>
       <use xlink:href="#DejaVuSans-36" transform="translate(63.623047 0)"/>
       <use xlink:href="#DejaVuSans-2d" transform="translate(127.246094 0)"/>
       <use xlink:href="#DejaVuSans-31" transform="translate(163.330078 0)"/>
       <use xlink:href="#DejaVuSans-36" transform="translate(226.953125 0)"/>
       <use xlink:href="#DejaVuSans-20" transform="translate(290.576172 0)"/>
       <use xlink:href="#DejaVuSans-31" transform="translate(322.363281 0)"/>
       <use xlink:href="#DejaVuSans-32" transform="translate(385.986328 0)"/>
      </g>
     </g>
    </g>
    <g id="xtick_7">
     <g id="line2d_7">
      <g>
       <use xlink:href="#m7e1a6a176d" x="590.654883" y="246.04" style="stroke: #000000; stroke-width: 0.8"/>
      </g>
     </g>
     <g id="text_7">
      <!-- 06-17 00 -->
      <g transform="translate(568.174414 260.638438) scale(0.1 -0.1)">
       <defs>
        <path id="DejaVuSans-37" d="M 525 4666 
L 3525 4666 
L 3525 4397 
L 1831 0 
L 1172 0 
L 2766 4134 
L 525 4134 
L 525 4666 
z
" transform="scale(0.015625)"/>
       </defs>
       <use xlink:href="#DejaVuSans-30"/>
       <use xlink:href="#DejaVuSans-36" transform="translate(63.623047 0)"/>
       <use xlink:href="#DejaVuSans-2d" transform="translate(127.246094 0)"/>
       <use xlink:href="#DejaVuSans-31" transform="translate(163.330078 0)"/>
       <use xlink:href="#DejaVuSans-37" transform="translate(226.953125 0)"/>
       <use xlink:href="#DejaVuSans-20" transform="translate(290.576172 0)"/>
       <use xlink:href="#DejaVuSans-30" transform="translate(322.363281 0)"/>
       <use xlink:href="#DejaVuSans-30" transform="translate(385.986328 0)"/>
      </g>
     </g>
    </g>
    <g id="xtick_8">
     <g id="line2d_8">
      <g>
       <use xlink:href="#m7e1a6a176d" x="675.456159" y="246.04" style="stroke: #000000; stroke-width: 0.8"/>
      </g>
     </g>
     <g id="text_8">
      <!-- 06-17 12 -->
      <g transform="translate(652.97569 260.638438) scale(0.1 -0.1)">
       <use xlink:href="#DejaVuSans-30"/>
       <use xlink:href="#DejaVuSans-36" transform="translate(63.623047 0)"/>
       <use xlink:href="#DejaVuSans-2d" transform="translate(127.246094 0)"/>
       <use xlink:href="#DejaVuSans-31" transform="translate(163.330078 0)"/>
       <use xlink:href="#DejaVuSans-37" transform="translate(226.953125 0)"/>
       <use xlink:href="#DejaVuSans-20" transform="translate(290.576172 0)"/>
       <use xlink:href="#DejaVuSans-31" transform="translate(322.363281 0)"/>
       <use xlink:href="#DejaVuSans-32" transform="translate(385.986328 0)"/>
      </g>
     </g>
    </g>
    <g id="text_9">
     <!-- Tijd -->
     <g transform="translate(368.035 274.316562) scale(0.1 -0.1)">
      <defs>
       <path id="DejaVuSans-54" d="M -19 4666 
L 3928 4666 
L 3928 4134 
L 2272 4134 
L 2272 0 
L 1638 0 
L 1638 4134 
L -19 4134 
L -19 4666 
z
" transform="scale(0.015625)"/>
       <path id="DejaVuSans-69" d="M 603 3500 
L 1178 3500 
L 1178 0 
L 603 0 
L 603 3500 
z
M 603 4863 
L 1178 4863 
L 1178 4134 
L 603 4134 
L 603 4863 
z
" transform="scale(0.015625)"/>
       <path id="DejaVuSans-6a" d="M 603 3500 
L 1178 3500 
L 1178 -63 
Q 1178 -731 923 -1031 
Q 669 -1331 103 -1331 
L -116 -1331 
L -116 -844 
L 38 -844 
Q 366 -844 484 -692 
Q 603 -541 603 -63 
L 603 3500 
z
M 603 4863 
L 1178 4863 
L 1178 4134 
L 603 4134 
L 603 4863 
z
" transform="scale(0.015625)"/>
       <path id="DejaVuSans-64" d="M 2906 2969 
L 2906 4863 
L 3481 4863 
L 3481 0 
L 2906 0 
L 2906 525 
Q 2725 213 2448 61 
Q 2172 -91 1784 -91 
Q 1150 -91 751 415 
Q 353 922 353 1747 
Q 353 2572 751 3078 
Q 1150 3584 1784 3584 
Q 2172 3584 2448 3432 
Q 2725 3281 2906 2969 
z
M 947 1747 
Q 947 1113 1208 752 
Q 1469 391 1925 391 
Q 2381 391 2643 752 
Q 2906 1113 2906 1747 
Q 2906 2381 2643 2742 
Q 2381 3103 1925 3103 
Q 1469 3103 1208 2742 
Q 947 2381 947 1747 
z
" transform="scale(0.015625)"/>
      </defs>
      <use xlink:href="#DejaVuSans-54"/>
      <use xlink:href="#DejaVuSans-69" transform="translate(57.958984 0)"/>
      <use xlink:href="#DejaVuSans-6a" transform="translate(85.742188 0)"/>
      <use xlink:href="#DejaVuSans-64" transform="translate(113.525391 0)"/>
     </g>
    </g>
   </g>
   <g id="matplotlib.axis_2">
    <g id="ytick_1">
     <g id="line2d_9">
      <defs>
       <path id="m0cb78122ea" d="M 0 0 
L -3.5 0 
" style="stroke: #000000; stroke-width: 0.8"/>
      </defs>
      <g>
       <use xlink:href="#m0cb78122ea" x="44.57" y="206.388176" style="stroke: #000000; stroke-width: 0.8"/>
      </g>
     </g>
     <g id="text_10">
      <!-- 40 -->
      <g transform="translate(24.845 210.187395) scale(0.1 -0.1)">
       <use xlink:href="#DejaVuSans-34"/>
       <use xlink:href="#DejaVuSans-30" transform="translate(63.623047 0)"/>
      </g>
     </g>
    </g>
    <g id="ytick_2">
     <g id="line2d_10">
      <g>
       <use xlink:href="#m0cb78122ea" x="44.57" y="161.42866" style="stroke: #000000; stroke-width: 0.8"/>
      </g>
     </g>
     <g id="text_11">
      <!-- 50 -->
      <g transform="translate(24.845 165.227879) scale(0.1 -0.1)">
       <use xlink:href="#DejaVuSans-35"/>
       <use xlink:href="#DejaVuSans-30" transform="translate(63.623047 0)"/>
      </g>
     </g>
    </g>
    <g id="ytick_3">
     <g id="line2d_11">
      <g>
       <use xlink:href="#m0cb78122ea" x="44.57" y="116.469144" style="stroke: #000000; stroke-width: 0.8"/>
      </g>
     </g>
     <g id="text_12">
      <!-- 60 -->
      <g transform="translate(24.845 120.268363) scale(0.1 -0.1)">
       <use xlink:href="#DejaVuSans-36"/>
       <use xlink:href="#DejaVuSans-30" transform="translate(63.623047 0)"/>
      </g>
     </g>
    </g>
    <g id="ytick_4">
     <g id="line2d_12">
      <g>
       <use xlink:href="#m0cb78122ea" x="44.57" y="71.509628" style="stroke: #000000; stroke-width: 0.8"/>
      </g>
     </g>
     <g id="text_13">
      <!-- 70 -->
      <g transform="translate(24.845 75.308847) scale(0.1 -0.1)">
       <use xlink:href="#DejaVuSans-37"/>
       <use xlink:href="#DejaVuSans-30" transform="translate(63.623047 0)"/>
      </g>
     </g>
    </g>
    <g id="text_14">
     <!-- (Rel.) Vochtigheid (%) -->
     <g transform="translate(18.765312 190.838125) rotate(-90) scale(0.1 -0.1)">
      <defs>
       <path id="DejaVuSans-28" d="M 1984 4856 
Q 1566 4138 1362 3434 
Q 1159 2731 1159 2009 
Q 1159 1288 1364 580 
Q 1569 -128 1984 -844 
L 1484 -844 
Q 1016 -109 783 600 
Q 550 1309 550 2009 
Q 550 2706 781 3412 
Q 1013 4119 1484 4856 
L 1984 4856 
z
" transform="scale(0.015625)"/>
       <path id="DejaVuSans-52" d="M 2841 2188 
Q 3044 2119 3236 1894 
Q 3428 1669 3622 1275 
L 4263 0 
L 3584 0 
L 2988 1197 
Q 2756 1666 2539 1819 
Q 2322 1972 1947 1972 
L 1259 1972 
L 1259 0 
L 628 0 
L 628 4666 
L 2053 4666 
Q 2853 4666 3247 4331 
Q 3641 3997 3641 3322 
Q 3641 2881 3436 2590 
Q 3231 2300 2841 2188 
z
M 1259 4147 
L 1259 2491 
L 2053 2491 
Q 2509 2491 2742 2702 
Q 2975 2913 2975 3322 
Q 2975 3731 2742 3939 
Q 2509 4147 2053 4147 
L 1259 4147 
z
" transform="scale(0.015625)"/>
       <path id="DejaVuSans-65" d="M 3597 1894 
L 3597 1613 
L 953 1613 
Q 991 1019 1311 708 
Q 1631 397 2203 397 
Q 2534 397 2845 478 
Q 3156 559 3463 722 
L 3463 178 
Q 3153 47 2828 -22 
Q 2503 -91 2169 -91 
Q 1331 -91 842 396 
Q 353 884 353 1716 
Q 353 2575 817 3079 
Q 1281 3584 2069 3584 
Q 2775 3584 3186 3129 
Q 3597 2675 3597 1894 
z
M 3022 2063 
Q 3016 2534 2758 2815 
Q 2500 3097 2075 3097 
Q 1594 3097 1305 2825 
Q 1016 2553 972 2059 
L 3022 2063 
z
" transform="scale(0.015625)"/>
       <path id="DejaVuSans-6c" d="M 603 4863 
L 1178 4863 
L 1178 0 
L 603 0 
L 603 4863 
z
" transform="scale(0.015625)"/>
       <path id="DejaVuSans-2e" d="M 684 794 
L 1344 794 
L 1344 0 
L 684 0 
L 684 794 
z
" transform="scale(0.015625)"/>
       <path id="DejaVuSans-29" d="M 513 4856 
L 1013 4856 
Q 1481 4119 1714 3412 
Q 1947 2706 1947 2009 
Q 1947 1309 1714 600 
Q 1481 -109 1013 -844 
L 513 -844 
Q 928 -128 1133 580 
Q 1338 1288 1338 2009 
Q 1338 2731 1133 3434 
Q 928 4138 513 4856 
z
" transform="scale(0.015625)"/>
       <path id="DejaVuSans-56" d="M 1831 0 
L 50 4666 
L 709 4666 
L 2188 738 
L 3669 4666 
L 4325 4666 
L 2547 0 
L 1831 0 
z
" transform="scale(0.015625)"/>
       <path id="DejaVuSans-6f" d="M 1959 3097 
Q 1497 3097 1228 2736 
Q 959 2375 959 1747 
Q 959 1119 1226 758 
Q 1494 397 1959 397 
Q 2419 397 2687 759 
Q 2956 1122 2956 1747 
Q 2956 2369 2687 2733 
Q 2419 3097 1959 3097 
z
M 1959 3584 
Q 2709 3584 3137 3096 
Q 3566 2609 3566 1747 
Q 3566 888 3137 398 
Q 2709 -91 1959 -91 
Q 1206 -91 779 398 
Q 353 888 353 1747 
Q 353 2609 779 3096 
Q 1206 3584 1959 3584 
z
" transform="scale(0.015625)"/>
       <path id="DejaVuSans-63" d="M 3122 3366 
L 3122 2828 
Q 2878 2963 2633 3030 
Q 2388 3097 2138 3097 
Q 1578 3097 1268 2742 
Q 959 2388 959 1747 
Q 959 1106 1268 751 
Q 1578 397 2138 397 
Q 2388 397 2633 464 
Q 2878 531 3122 666 
L 3122 134 
Q 2881 22 2623 -34 
Q 2366 -91 2075 -91 
Q 1284 -91 818 406 
Q 353 903 353 1747 
Q 353 2603 823 3093 
Q 1294 3584 2113 3584 
Q 2378 3584 2631 3529 
Q 2884 3475 3122 3366 
z
" transform="scale(0.015625)"/>
       <path id="DejaVuSans-68" d="M 3513 2113 
L 3513 0 
L 2938 0 
L 2938 2094 
Q 2938 2591 2744 2837 
Q 2550 3084 2163 3084 
Q 1697 3084 1428 2787 
Q 1159 2491 1159 1978 
L 1159 0 
L 581 0 
L 581 4863 
L 1159 4863 
L 1159 2956 
Q 1366 3272 1645 3428 
Q 1925 3584 2291 3584 
Q 2894 3584 3203 3211 
Q 3513 2838 3513 2113 
z
" transform="scale(0.015625)"/>
       <path id="DejaVuSans-74" d="M 1172 4494 
L 1172 3500 
L 2356 3500 
L 2356 3053 
L 1172 3053 
L 1172 1153 
Q 1172 725 1289 603 
Q 1406 481 1766 481 
L 2356 481 
L 2356 0 
L 1766 0 
Q 1100 0 847 248 
Q 594 497 594 1153 
L 594 3053 
L 172 3053 
L 172 3500 
L 594 3500 
L 594 4494 
L 1172 4494 
z
" transform="scale(0.015625)"/>
       <path id="DejaVuSans-67" d="M 2906 1791 
Q 2906 2416 2648 2759 
Q 2391 3103 1925 3103 
Q 1463 3103 1205 2759 
Q 947 2416 947 1791 
Q 947 1169 1205 825 
Q 1463 481 1925 481 
Q 2391 481 2648 825 
Q 2906 1169 2906 1791 
z
M 3481 434 
Q 3481 -459 3084 -895 
Q 2688 -1331 1869 -1331 
Q 1566 -1331 1297 -1286 
Q 1028 -1241 775 -1147 
L 775 -588 
Q 1028 -725 1275 -790 
Q 1522 -856 1778 -856 
Q 2344 -856 2625 -561 
Q 2906 -266 2906 331 
L 2906 616 
Q 2728 306 2450 153 
Q 2172 0 1784 0 
Q 1141 0 747 490 
Q 353 981 353 1791 
Q 353 2603 747 3093 
Q 1141 3584 1784 3584 
Q 2172 3584 2450 3431 
Q 2728 3278 2906 2969 
L 2906 3500 
L 3481 3500 
L 3481 434 
z
" transform="scale(0.015625)"/>
       <path id="DejaVuSans-25" d="M 4653 2053 
Q 4381 2053 4226 1822 
Q 4072 1591 4072 1178 
Q 4072 772 4226 539 
Q 4381 306 4653 306 
Q 4919 306 5073 539 
Q 5228 772 5228 1178 
Q 5228 1588 5073 1820 
Q 4919 2053 4653 2053 
z
M 4653 2450 
Q 5147 2450 5437 2106 
Q 5728 1763 5728 1178 
Q 5728 594 5436 251 
Q 5144 -91 4653 -91 
Q 4153 -91 3862 251 
Q 3572 594 3572 1178 
Q 3572 1766 3864 2108 
Q 4156 2450 4653 2450 
z
M 1428 4353 
Q 1159 4353 1004 4120 
Q 850 3888 850 3481 
Q 850 3069 1003 2837 
Q 1156 2606 1428 2606 
Q 1700 2606 1854 2837 
Q 2009 3069 2009 3481 
Q 2009 3884 1853 4118 
Q 1697 4353 1428 4353 
z
M 4250 4750 
L 4750 4750 
L 1831 -91 
L 1331 -91 
L 4250 4750 
z
M 1428 4750 
Q 1922 4750 2215 4408 
Q 2509 4066 2509 3481 
Q 2509 2891 2217 2550 
Q 1925 2209 1428 2209 
Q 931 2209 642 2551 
Q 353 2894 353 3481 
Q 353 4063 643 4406 
Q 934 4750 1428 4750 
z
" transform="scale(0.015625)"/>
      </defs>
      <use xlink:href="#DejaVuSans-28"/>
      <use xlink:href="#DejaVuSans-52" transform="translate(39.013672 0)"/>
      <use xlink:href="#DejaVuSans-65" transform="translate(103.996094 0)"/>
      <use xlink:href="#DejaVuSans-6c" transform="translate(165.519531 0)"/>
      <use xlink:href="#DejaVuSans-2e" transform="translate(193.302734 0)"/>
      <use xlink:href="#DejaVuSans-29" transform="translate(225.089844 0)"/>
      <use xlink:href="#DejaVuSans-20" transform="translate(264.103516 0)"/>
      <use xlink:href="#DejaVuSans-56" transform="translate(295.890625 0)"/>
      <use xlink:href="#DejaVuSans-6f" transform="translate(356.548828 0)"/>
      <use xlink:href="#DejaVuSans-63" transform="translate(417.730469 0)"/>
      <use xlink:href="#DejaVuSans-68" transform="translate(472.710938 0)"/>
      <use xlink:href="#DejaVuSans-74" transform="translate(536.089844 0)"/>
      <use xlink:href="#DejaVuSans-69" transform="translate(575.298828 0)"/>
      <use xlink:href="#DejaVuSans-67" transform="translate(603.082031 0)"/>
      <use xlink:href="#DejaVuSans-68" transform="translate(666.558594 0)"/>
      <use xlink:href="#DejaVuSans-65" transform="translate(729.9375 0)"/>
      <use xlink:href="#DejaVuSans-69" transform="translate(791.460938 0)"/>
      <use xlink:href="#DejaVuSans-64" transform="translate(819.244141 0)"/>
      <use xlink:href="#DejaVuSans-20" transform="translate(882.720703 0)"/>
      <use xlink:href="#DejaVuSans-28" transform="translate(914.507812 0)"/>
      <use xlink:href="#DejaVuSans-25" transform="translate(953.521484 0)"/>
      <use xlink:href="#DejaVuSans-29" transform="translate(1048.541016 0)"/>
     </g>
    </g>
   </g>
   <g id="line2d_13">
    <path d="M 74.780455 127.709023 
L 78.313841 132.05511 
L 81.847228 132.9543 
L 85.380614 136.700926 
L 88.914001 131.605514 
L 92.447387 135.202276 
L 95.980774 137.899847 
L 99.51416 148.540265 
L 103.047547 145.692829 
L 106.580933 148.3904 
L 110.11432 133.328962 
L 113.647706 137.600117 
L 120.714479 125.161317 
L 124.247865 133.85349 
L 127.781252 137.899847 
L 131.314638 138.049712 
L 134.848025 137.600117 
L 138.381411 139.398497 
L 141.914798 134.003355 
L 145.448184 141.047013 
L 148.981571 144.194179 
L 152.514957 147.49121 
L 156.048344 151.537567 
L 159.58173 148.240535 
L 163.115117 155.134328 
L 166.648503 150.188781 
L 170.18189 147.716008 
L 173.715276 145.393099 
L 177.248663 154.085272 
L 180.782049 152.137027 
L 184.315436 147.49121 
L 187.848822 141.946203 
L 191.382209 141.496608 
L 194.915595 144.793639 
L 198.448982 144.643774 
L 201.982368 146.59202 
L 205.515755 142.395798 
L 209.049141 142.096068 
L 212.582528 138.349442 
L 216.115914 137.450251 
L 219.649301 135.052411 
L 223.182687 133.25403 
L 226.716074 127.409293 
L 230.24946 131.605514 
L 233.782847 136.251331 
L 237.316233 136.101466 
L 240.84962 138.499307 
L 244.383006 140.297687 
L 247.916393 144.793639 
L 251.449779 150.188781 
L 254.983166 151.687432 
L 258.516552 153.036217 
L 262.049939 155.284193 
L 265.583325 156.632978 
L 269.116712 165.175286 
L 272.650098 165.325151 
L 276.183485 166.374207 
L 279.716871 164.276096 
L 283.250258 165.325151 
L 286.783644 161.72839 
L 290.317031 157.082574 
L 293.850417 162.32785 
L 297.383804 162.62758 
L 300.91719 163.077176 
L 304.450577 164.126231 
L 307.983963 164.425961 
L 311.51735 157.232439 
L 315.050736 160.079875 
L 318.584123 156.932708 
L 322.117509 154.385003 
L 325.650896 150.788241 
L 329.184282 158.131629 
L 332.717669 158.281494 
L 336.251055 156.782843 
L 339.784442 157.831899 
L 343.317828 160.8292 
L 346.851215 161.578525 
L 350.384601 160.379605 
L 353.917988 152.886352 
L 357.451374 153.335947 
L 360.984761 160.379605 
L 364.518147 158.131629 
L 368.051534 154.984463 
L 371.58492 156.782843 
L 375.118307 159.780144 
L 378.651693 157.532169 
L 382.18508 141.196878 
L 385.718466 146.59202 
L 389.251853 157.082574 
L 392.785239 148.09067 
L 396.318626 150.638376 
L 399.852012 146.89175 
L 403.385399 144.194179 
L 406.918785 148.989861 
L 410.452172 152.736487 
L 413.985558 153.335947 
L 417.518945 155.733788 
L 421.052331 152.586622 
L 424.585718 152.436757 
L 428.119104 159.780144 
L 431.652491 155.434058 
L 435.185877 163.077176 
L 438.719264 162.777446 
L 445.786037 170.720293 
L 449.319423 165.175286 
L 452.85281 160.52947 
L 456.386196 162.777446 
L 459.919583 160.679335 
L 463.452969 149.439456 
L 466.986356 156.782843 
L 470.519742 159.780144 
L 474.053129 153.485812 
L 477.586515 144.643774 
L 481.119902 146.59202 
L 484.653288 154.534868 
L 488.186675 149.589321 
L 491.720061 154.385003 
L 495.253448 148.165603 
L 498.786834 152.137027 
L 502.320221 150.338646 
L 505.853607 160.22974 
L 509.386994 165.175286 
L 512.92038 160.52947 
L 516.453767 159.180684 
L 519.987153 150.488511 
L 523.52054 142.395798 
L 527.053926 151.087971 
L 530.587313 160.079875 
L 534.120699 161.12893 
L 537.654086 160.52947 
L 541.187472 162.02812 
L 544.720859 160.379605 
L 548.254245 159.030819 
L 551.787632 153.935407 
L 555.321018 147.041615 
L 558.854405 140.597418 
L 562.387791 150.038916 
L 565.921178 142.995258 
L 569.454564 145.692829 
L 572.987951 150.638376 
L 576.521337 146.442155 
L 580.054724 147.641075 
L 583.58811 148.989861 
L 587.121497 145.99256 
L 590.654883 149.139726 
L 594.18827 152.736487 
L 597.721656 162.62758 
L 601.255043 166.973667 
L 604.788429 168.921913 
L 608.321816 169.970968 
L 611.855202 177.614086 
L 618.921975 166.673937 
L 622.455362 165.924612 
L 625.988748 162.477715 
L 629.522135 162.32785 
L 633.055521 167.872857 
L 636.588907 164.126231 
L 636.588907 164.126231 
" clip-path="url(#p24017c55b6)" style="fill: none; stroke: #1f77b4; stroke-width: 2; stroke-linecap: square"/>
   </g>
   <g id="line2d_14">
    <path d="M 74.780455 124.818768 
L 78.313841 126.103326 
L 81.847228 126.745605 
L 85.380614 128.565395 
L 88.914001 125.439638 
L 92.447387 123.000763 
L 95.980774 131.393206 
L 99.51416 128.897239 
L 103.047547 131.580537 
L 106.580933 130.856189 
L 110.11432 129.978408 
L 113.647706 132.975709 
L 117.181093 133.489532 
L 120.714479 133.436009 
L 124.247865 135.127343 
L 127.781252 137.535889 
L 131.314638 137.707163 
L 134.848025 135.289697 
L 138.381411 137.214749 
L 141.914798 134.206744 
L 145.448184 135.683985 
L 148.981571 137.535889 
L 152.514957 138.349442 
L 156.048344 140.410086 
L 159.58173 138.006893 
L 163.115117 140.447553 
L 166.648503 134.570701 
L 170.18189 135.464539 
L 173.715276 134.324495 
L 177.248663 135.566234 
L 180.782049 132.397658 
L 184.315436 132.467238 
L 187.848822 129.250492 
L 191.382209 132.697388 
L 194.915595 133.874899 
L 198.448982 133.799967 
L 201.982368 135.245094 
L 205.515755 133.232621 
L 209.049141 132.836549 
L 216.115914 130.128273 
L 219.649301 130.856189 
L 223.182687 130.470822 
L 226.716074 131.626924 
L 230.24946 131.905244 
L 233.782847 134.238857 
L 237.316233 138.11394 
L 240.84962 140.704464 
L 244.383006 145.478736 
L 247.916393 146.27088 
L 251.449779 149.653549 
L 254.983166 149.996097 
L 258.516552 149.514388 
L 262.049939 147.366323 
L 265.583325 144.429681 
L 269.116712 146.367222 
L 272.650098 144.065723 
L 276.183485 144.001495 
L 279.716871 146.356518 
L 283.250258 145.146892 
L 286.783644 146.870341 
L 290.317031 145.885513 
L 293.850417 147.116547 
L 297.383804 148.005033 
L 300.91719 146.13172 
L 304.450577 148.508151 
L 307.983963 149.546502 
L 311.51735 148.882814 
L 315.050736 149.878346 
L 318.584123 147.769531 
L 322.117509 149.268181 
L 325.650896 147.748122 
L 329.184282 148.71154 
L 332.717669 150.103144 
L 336.251055 150.552739 
L 339.784442 151.976457 
L 343.317828 153.121854 
L 346.851215 153.603563 
L 353.917988 153.207491 
L 360.984761 153.732019 
L 364.518147 153.004103 
L 368.051534 154.406412 
L 371.58492 155.048691 
L 375.118307 153.646382 
L 382.18508 150.253009 
L 385.718466 150.188781 
L 389.251853 149.93187 
L 392.785239 149.032679 
L 396.318626 150.638376 
L 403.385399 151.601794 
L 406.918785 154.213728 
L 410.452172 153.143264 
L 413.985558 154.47064 
L 417.518945 155.112919 
L 421.052331 153.400175 
L 424.585718 153.25031 
L 428.119104 151.880115 
L 431.652491 151.259246 
L 435.185877 151.794478 
L 438.719264 150.124553 
L 442.25265 151.023743 
L 445.786037 150.809651 
L 449.319423 151.73025 
L 452.85281 153.817656 
L 456.386196 152.757896 
L 459.919583 155.658855 
L 463.452969 152.543803 
L 466.986356 153.121854 
L 470.519742 156.643683 
L 474.053129 155.048691 
L 477.586515 157.596397 
L 481.119902 158.731089 
L 484.653288 157.724852 
L 488.186675 156.376067 
L 491.720061 159.00941 
L 495.253448 153.956817 
L 498.786834 154.320775 
L 502.320221 152.500985 
L 505.853607 152.533099 
L 509.386994 154.235137 
L 512.92038 151.880115 
L 516.453767 151.013039 
L 519.987153 148.3904 
L 523.52054 150.477806 
L 527.053926 146.59202 
L 530.587313 153.646382 
L 534.120699 152.104913 
L 537.654086 152.725782 
L 541.187472 151.537567 
L 544.720859 150.038916 
L 548.254245 147.748122 
L 551.787632 149.246772 
L 555.321018 149.375228 
L 558.854405 149.043384 
L 562.387791 149.91046 
L 565.921178 144.665183 
L 569.454564 149.996097 
L 572.987951 148.904223 
L 576.521337 147.234299 
L 580.054724 149.096907 
L 583.58811 152.479575 
L 587.121497 151.676727 
L 590.654883 156.120939 
L 594.18827 156.707911 
L 597.721656 158.106651 
L 601.255043 156.433158 
L 604.788429 153.464403 
L 608.321816 153.01124 
L 611.855202 151.933638 
L 615.388589 155.184283 
L 618.921975 152.636577 
L 622.455362 146.666952 
L 625.988748 148.540265 
L 629.522135 148.09067 
L 633.055521 156.483113 
L 636.588907 154.6098 
L 640.122294 148.989861 
L 643.65568 153.186082 
L 647.189067 153.785542 
L 650.722453 160.979065 
L 654.25584 160.22974 
L 657.789226 163.526771 
L 661.322613 159.480414 
L 664.855999 154.684733 
L 668.389386 162.477715 
L 671.922772 150.638376 
L 675.456159 151.087971 
L 678.989545 154.235137 
L 678.989545 154.235137 
" clip-path="url(#p24017c55b6)" style="fill: none; stroke-dasharray: 5.55,2.4; stroke-dashoffset: 0; stroke: #808080; stroke-width: 1.5"/>
   </g>
   <g id="patch_3">
    <path d="M 44.57 246.04 
L 44.57 26.88 
" style="fill: none; stroke: #000000; stroke-width: 0.8; stroke-linejoin: miter; stroke-linecap: square"/>
   </g>
   <g id="patch_4">
    <path d="M 709.2 246.04 
L 709.2 26.88 
" style="fill: none; stroke: #000000; stroke-width: 0.8; stroke-linejoin: miter; stroke-linecap: square"/>
   </g>
   <g id="patch_5">
    <path d="M 44.57 246.04 
L 709.2 246.04 
" style="fill: none; stroke: #000000; stroke-width: 0.8; stroke-linejoin: miter; stroke-linecap: square"/>
   </g>
   <g id="patch_6">
    <path d="M 44.57 26.88 
L 709.2 26.88 
" style="fill: none; stroke: #000000; stroke-width: 0.8; stroke-linejoin: miter; stroke-linecap: square"/>
   </g>
   <g id="text_15">
    <!-- Luchtvochtigheid - v001/c00001/d001 -->
    <g transform="translate(262.595312 20.88) scale(0.12 -0.12)">
     <defs>
      <path id="DejaVuSans-4c" d="M 628 4666 
L 1259 4666 
L 1259 531 
L 3531 531 
L 3531 0 
L 628 0 
L 628 4666 
z
" transform="scale(0.015625)"/>
      <path id="DejaVuSans-75" d="M 544 1381 
L 544 3500 
L 1119 3500 
L 1119 1403 
Q 1119 906 1312 657 
Q 1506 409 1894 409 
Q 2359 409 2629 706 
Q 2900 1003 2900 1516 
L 2900 3500 
L 3475 3500 
L 3475 0 
L 2900 0 
L 2900 538 
Q 2691 219 2414 64 
Q 2138 -91 1772 -91 
Q 1169 -91 856 284 
Q 544 659 544 1381 
z
M 1991 3584 
L 1991 3584 
z
" transform="scale(0.015625)"/>
      <path id="DejaVuSans-76" d="M 191 3500 
L 800 3500 
L 1894 563 
L 2988 3500 
L 3597 3500 
L 2284 0 
L 1503 0 
L 191 3500 
z
" transform="scale(0.015625)"/>
      <path id="DejaVuSans-2f" d="M 1625 4666 
L 2156 4666 
L 531 -594 
L 0 -594 
L 1625 4666 
z
" transform="scale(0.015625)"/>
     </defs>
     <use xlink:href="#DejaVuSans-4c"/>
     <use xlink:href="#DejaVuSans-75" transform="translate(53.962891 0)"/>
     <use xlink:href="#DejaVuSans-63" transform="translate(117.341797 0)"/>
     <use xlink:href="#DejaVuSans-68" transform="translate(172.322266 0)"/>
     <use xlink:href="#DejaVuSans-74" transform="translate(235.701172 0)"/>
     <use xlink:href="#DejaVuSans-76" transform="translate(274.910156 0)"/>
     <use xlink:href="#DejaVuSans-6f" transform="translate(334.089844 0)"/>
     <use xlink:href="#DejaVuSans-63" transform="translate(395.271484 0)"/>
     <use xlink:href="#DejaVuSans-68" transform="translate(450.251953 0)"/>
     <use xlink:href="#DejaVuSans-74" transform="translate(513.630859 0)"/>
     <use xlink:href="#DejaVuSans-69" transform="translate(552.839844 0)"/>
     <use xlink:href="#DejaVuSans-67" transform="translate(580.623047 0)"/>
     <use xlink:href="#DejaVuSans-68" transform="translate(644.099609 0)"/>
     <use xlink:href="#DejaVuSans-65" transform="translate(707.478516 0)"/>
     <use xlink:href="#DejaVuSans-69" transform="translate(769.001953 0)"/>
     <use xlink:href="#DejaVuSans-64" transform="translate(796.785156 0)"/>
     <use xlink:href="#DejaVuSans-20" transform="translate(860.261719 0)"/>
     <use xlink:href="#DejaVuSans-2d" transform="translate(892.048828 0)"/>
     <use xlink:href="#DejaVuSans-20" transform="translate(928.132812 0)"/>
     <use xlink:href="#DejaVuSans-76" transform="translate(959.919922 0)"/>
     <use xlink:href="#DejaVuSans-30" transform="translate(1019.099609 0)"/>
     <use xlink:href="#DejaVuSans-30" transform="translate(1082.722656 0)"/>
     <use xlink:href="#DejaVuSans-31" transform="translate(1146.345703 0)"/>
     <use xlink:href="#DejaVuSans-2f" transform="translate(1209.96875 0)"/>
     <use xlink:href="#DejaVuSans-63" transform="translate(1243.660156 0)"/>
     <use xlink:href="#DejaVuSans-30" transform="translate(1298.640625 0)"/>
     <use xlink:href="#DejaVuSans-30" transform="translate(1362.263672 0)"/>
     <use xlink:href="#DejaVuSans-30" transform="translate(1425.886719 0)"/>
     <use xlink:href="#DejaVuSans-30" transform="translate(1489.509766 0)"/>
     <use xlink:href="#DejaVuSans-31" transform="translate(1553.132812 0)"/>
     <use xlink:href="#DejaVuSans-2f" transform="translate(1616.755859 0)"/>
     <use xlink:href="#DejaVuSans-64" transform="translate(1650.447266 0)"/>
     <use xlink:href="#DejaVuSans-30" transform="translate(1713.923828 0)"/>
     <use xlink:href="#DejaVuSans-30" transform="translate(1777.546875 0)"/>
     <use xlink:href="#DejaVuSans-31" transform="translate(1841.169922 0)"/>
    </g>
   </g>
   <g id="legend_1">
    <g id="patch_7">
     <path d="M 551.25625 78.914375 
L 702.2 78.914375 
Q 704.2 78.914375 704.2 76.914375 
L 704.2 33.88 
Q 704.2 31.88 702.2 31.88 
L 551.25625 31.88 
Q 549.25625 31.88 549.25625 33.88 
L 549.25625 76.914375 
Q 549.25625 78.914375 551.25625 78.914375 
z
" style="fill: #ffffff; opacity: 0.8; stroke: #cccccc; stroke-linejoin: miter"/>
    </g>
    <g id="line2d_15">
     <path d="M 553.25625 39.978438 
L 563.25625 39.978438 
L 573.25625 39.978438 
" style="fill: none; stroke: #1f77b4; stroke-width: 2; stroke-linecap: square"/>
    </g>
    <g id="text_16">
     <!-- Hive -->
     <g transform="translate(581.25625 43.478438) scale(0.1 -0.1)">
      <defs>
       <path id="DejaVuSans-48" d="M 628 4666 
L 1259 4666 
L 1259 2753 
L 3553 2753 
L 3553 4666 
L 4184 4666 
L 4184 0 
L 3553 0 
L 3553 2222 
L 1259 2222 
L 1259 0 
L 628 0 
L 628 4666 
z
" transform="scale(0.015625)"/>
      </defs>
      <use xlink:href="#DejaVuSans-48"/>
      <use xlink:href="#DejaVuSans-69" transform="translate(75.195312 0)"/>
      <use xlink:href="#DejaVuSans-76" transform="translate(102.978516 0)"/>
      <use xlink:href="#DejaVuSans-65" transform="translate(162.158203 0)"/>
     </g>
    </g>
    <g id="line2d_16">
     <path d="M 553.25625 54.656563 
L 563.25625 54.656563 
L 573.25625 54.656563 
" style="fill: none; stroke-dasharray: 5.55,2.4; stroke-dashoffset: 0; stroke: #808080; stroke-width: 1.5"/>
    </g>
    <g id="text_17">
     <!-- Gemiddelde (alle hives) -->
     <g transform="translate(581.25625 58.156563) scale(0.1 -0.1)">
      <defs>
       <path id="DejaVuSans-47" d="M 3809 666 
L 3809 1919 
L 2778 1919 
L 2778 2438 
L 4434 2438 
L 4434 434 
Q 4069 175 3628 42 
Q 3188 -91 2688 -91 
Q 1594 -91 976 548 
Q 359 1188 359 2328 
Q 359 3472 976 4111 
Q 1594 4750 2688 4750 
Q 3144 4750 3555 4637 
Q 3966 4525 4313 4306 
L 4313 3634 
Q 3963 3931 3569 4081 
Q 3175 4231 2741 4231 
Q 1884 4231 1454 3753 
Q 1025 3275 1025 2328 
Q 1025 1384 1454 906 
Q 1884 428 2741 428 
Q 3075 428 3337 486 
Q 3600 544 3809 666 
z
" transform="scale(0.015625)"/>
       <path id="DejaVuSans-6d" d="M 3328 2828 
Q 3544 3216 3844 3400 
Q 4144 3584 4550 3584 
Q 5097 3584 5394 3201 
Q 5691 2819 5691 2113 
L 5691 0 
L 5113 0 
L 5113 2094 
Q 5113 2597 4934 2840 
Q 4756 3084 4391 3084 
Q 3944 3084 3684 2787 
Q 3425 2491 3425 1978 
L 3425 0 
L 2847 0 
L 2847 2094 
Q 2847 2600 2669 2842 
Q 2491 3084 2119 3084 
Q 1678 3084 1418 2786 
Q 1159 2488 1159 1978 
L 1159 0 
L 581 0 
L 581 3500 
L 1159 3500 
L 1159 2956 
Q 1356 3278 1631 3431 
Q 1906 3584 2284 3584 
Q 2666 3584 2933 3390 
Q 3200 3197 3328 2828 
z
" transform="scale(0.015625)"/>
       <path id="DejaVuSans-61" d="M 2194 1759 
Q 1497 1759 1228 1600 
Q 959 1441 959 1056 
Q 959 750 1161 570 
Q 1363 391 1709 391 
Q 2188 391 2477 730 
Q 2766 1069 2766 1631 
L 2766 1759 
L 2194 1759 
z
M 3341 1997 
L 3341 0 
L 2766 0 
L 2766 531 
Q 2569 213 2275 61 
Q 1981 -91 1556 -91 
Q 1019 -91 701 211 
Q 384 513 384 1019 
Q 384 1609 779 1909 
Q 1175 2209 1959 2209 
L 2766 2209 
L 2766 2266 
Q 2766 2663 2505 2880 
Q 2244 3097 1772 3097 
Q 1472 3097 1187 3025 
Q 903 2953 641 2809 
L 641 3341 
Q 956 3463 1253 3523 
Q 1550 3584 1831 3584 
Q 2591 3584 2966 3190 
Q 3341 2797 3341 1997 
z
" transform="scale(0.015625)"/>
       <path id="DejaVuSans-73" d="M 2834 3397 
L 2834 2853 
Q 2591 2978 2328 3040 
Q 2066 3103 1784 3103 
Q 1356 3103 1142 2972 
Q 928 2841 928 2578 
Q 928 2378 1081 2264 
Q 1234 2150 1697 2047 
L 1894 2003 
Q 2506 1872 2764 1633 
Q 3022 1394 3022 966 
Q 3022 478 2636 193 
Q 2250 -91 1575 -91 
Q 1294 -91 989 -36 
Q 684 19 347 128 
L 347 722 
Q 666 556 975 473 
Q 1284 391 1588 391 
Q 1994 391 2212 530 
Q 2431 669 2431 922 
Q 2431 1156 2273 1281 
Q 2116 1406 1581 1522 
L 1381 1569 
Q 847 1681 609 1914 
Q 372 2147 372 2553 
Q 372 3047 722 3315 
Q 1072 3584 1716 3584 
Q 2034 3584 2315 3537 
Q 2597 3491 2834 3397 
z
" transform="scale(0.015625)"/>
      </defs>
      <use xlink:href="#DejaVuSans-47"/>
      <use xlink:href="#DejaVuSans-65" transform="translate(77.490234 0)"/>
      <use xlink:href="#DejaVuSans-6d" transform="translate(139.013672 0)"/>
      <use xlink:href="#DejaVuSans-69" transform="translate(236.425781 0)"/>
      <use xlink:href="#DejaVuSans-64" transform="translate(264.208984 0)"/>
      <use xlink:href="#DejaVuSans-64" transform="translate(327.685547 0)"/>
      <use xlink:href="#DejaVuSans-65" transform="translate(391.162109 0)"/>
      <use xlink:href="#DejaVuSans-6c" transform="translate(452.685547 0)"/>
      <use xlink:href="#DejaVuSans-64" transform="translate(480.46875 0)"/>
      <use xlink:href="#DejaVuSans-65" transform="translate(543.945312 0)"/>
      <use xlink:href="#DejaVuSans-20" transform="translate(605.46875 0)"/>
      <use xlink:href="#DejaVuSans-28" transform="translate(637.255859 0)"/>
      <use xlink:href="#DejaVuSans-61" transform="translate(676.269531 0)"/>
      <use xlink:href="#DejaVuSans-6c" transform="translate(737.548828 0)"/>
      <use xlink:href="#DejaVuSans-6c" transform="translate(765.332031 0)"/>
      <use xlink:href="#DejaVuSans-65" transform="translate(793.115234 0)"/>
      <use xlink:href="#DejaVuSans-20" transform="translate(854.638672 0)"/>
      <use xlink:href="#DejaVuSans-68" transform="translate(886.425781 0)"/>
      <use xlink:href="#DejaVuSans-69" transform="translate(949.804688 0)"/>
      <use xlink:href="#DejaVuSans-76" transform="translate(977.587891 0)"/>
      <use xlink:href="#DejaVuSans-65" transform="translate(1036.767578 0)"/>
      <use xlink:href="#DejaVuSans-73" transform="translate(1098.291016 0)"/>
      <use xlink:href="#DejaVuSans-29" transform="translate(1150.390625 0)"/>
     </g>
    </g>
    <g id="patch_8">
     <path d="M 553.25625 72.834688 
L 573.25625 72.834688 
L 573.25625 65.834688 
L 553.25625 65.834688 
z
" style="fill: #808080; fill-opacity: 0.2; stroke: #808080; stroke-opacity: 0.2; stroke-linejoin: miter"/>
    </g>
    <g id="text_18">
     <!-- ±2 Std Dev -->
     <g transform="translate(581.25625 72.834688) scale(0.1 -0.1)">
      <defs>
       <path id="DejaVuSans-b1" d="M 2944 4013 
L 2944 2803 
L 4684 2803 
L 4684 2272 
L 2944 2272 
L 2944 1063 
L 2419 1063 
L 2419 2272 
L 678 2272 
L 678 2803 
L 2419 2803 
L 2419 4013 
L 2944 4013 
z
M 678 531 
L 4684 531 
L 4684 0 
L 678 0 
L 678 531 
z
" transform="scale(0.015625)"/>
       <path id="DejaVuSans-53" d="M 3425 4513 
L 3425 3897 
Q 3066 4069 2747 4153 
Q 2428 4238 2131 4238 
Q 1616 4238 1336 4038 
Q 1056 3838 1056 3469 
Q 1056 3159 1242 3001 
Q 1428 2844 1947 2747 
L 2328 2669 
Q 3034 2534 3370 2195 
Q 3706 1856 3706 1288 
Q 3706 609 3251 259 
Q 2797 -91 1919 -91 
Q 1588 -91 1214 -16 
Q 841 59 441 206 
L 441 856 
Q 825 641 1194 531 
Q 1563 422 1919 422 
Q 2459 422 2753 634 
Q 3047 847 3047 1241 
Q 3047 1584 2836 1778 
Q 2625 1972 2144 2069 
L 1759 2144 
Q 1053 2284 737 2584 
Q 422 2884 422 3419 
Q 422 4038 858 4394 
Q 1294 4750 2059 4750 
Q 2388 4750 2728 4690 
Q 3069 4631 3425 4513 
z
" transform="scale(0.015625)"/>
       <path id="DejaVuSans-44" d="M 1259 4147 
L 1259 519 
L 2022 519 
Q 2988 519 3436 956 
Q 3884 1394 3884 2338 
Q 3884 3275 3436 3711 
Q 2988 4147 2022 4147 
L 1259 4147 
z
M 628 4666 
L 1925 4666 
Q 3281 4666 3915 4102 
Q 4550 3538 4550 2338 
Q 4550 1131 3912 565 
Q 3275 0 1925 0 
L 628 0 
L 628 4666 
z
" transform="scale(0.015625)"/>
      </defs>
      <use xlink:href="#DejaVuSans-b1"/>
      <use xlink:href="#DejaVuSans-32" transform="translate(83.789062 0)"/>
      <use xlink:href="#DejaVuSans-20" transform="translate(147.412109 0)"/>
      <use xlink:href="#DejaVuSans-53" transform="translate(179.199219 0)"/>
      <use xlink:href="#DejaVuSans-74" transform="translate(242.675781 0)"/>
      <use xlink:href="#DejaVuSans-64" transform="translate(281.884766 0)"/>
      <use xlink:href="#DejaVuSans-20" transform="translate(345.361328 0)"/>
      <use xlink:href="#DejaVuSans-44" transform="translate(377.148438 0)"/>
      <use xlink:href="#DejaVuSans-65" transform="translate(454.150391 0)"/>
      <use xlink:href="#DejaVuSans-76" transform="translate(515.673828 0)"/>
     </g>
    </g>
   </g>
  </g>
 </g>
 <defs>
  <clipPath id="p24017c55b6">
   <rect x="44.57" y="26.88" width="664.63" height="219.16"/>
  </clipPath>
 </defs>
</svg>
