<?xml version="1.0" encoding="utf-8" standalone="no"?>
<!DOCTYPE svg PUBLIC "-//W3C//DTD SVG 1.1//EN"
  "http://www.w3.org/Graphics/SVG/1.1/DTD/svg11.dtd">
<svg xmlns:xlink="http://www.w3.org/1999/xlink" width="720pt" height="288pt" viewBox="0 0 720 288" xmlns="http://www.w3.org/2000/svg" version="1.1">
 <metadata>
  <rdf:RDF xmlns:dc="http://purl.org/dc/elements/1.1/" xmlns:cc="http://creativecommons.org/ns#" xmlns:rdf="http://www.w3.org/1999/02/22-rdf-syntax-ns#">
   <cc:Work>
    <dc:type rdf:resource="http://purl.org/dc/dcmitype/StillImage"/>
    <dc:date>2025-06-19T06:24:54.555153</dc:date>
    <dc:format>image/svg+xml</dc:format>
    <dc:creator>
     <cc:Agent>
      <dc:title>Matplotlib v3.10.3, https://matplotlib.org/</dc:title>
     </cc:Agent>
    </dc:creator>
   </cc:Work>
  </rdf:RDF>
 </metadata>
 <defs>
  <style type="text/css">*{stroke-linejoin: round; stroke-linecap: butt}</style>
 </defs>
 <g id="figure_1">
  <g id="patch_1">
   <path d="M 0 288 
L 720 288 
L 720 0 
L 0 0 
z
" style="fill: #ffffff"/>
  </g>
  <g id="axes_1">
   <g id="patch_2">
    <path d="M 54.02 246.04 
L 709.2 246.04 
L 709.2 26.88 
L 54.02 26.88 
z
" style="fill: #ffffff"/>
   </g>
   <g id="FillBetweenPolyCollection_1">
    <defs>
     <path id="m85ac566276" d="M 83.800909 -174.882115 
L 83.800909 -80.359512 
L 87.284056 -73.272911 
L 90.767204 -70.75615 
L 94.250351 -67.897076 
L 97.733498 -62.015299 
L 101.216645 -51.921818 
L 104.699793 -58.286654 
L 108.18294 -64.384136 
L 111.666087 -52.26412 
L 115.149234 -64.169215 
L 118.632382 -64.786434 
L 122.115529 -71.461843 
L 125.598676 -73.394188 
L 129.081823 -76.828873 
L 132.564971 -81.634934 
L 136.048118 -89.740563 
L 139.531265 -96.346195 
L 143.014413 -97.644502 
L 146.49756 -103.169095 
L 149.980707 -97.08724 
L 153.463854 -101.060127 
L 156.947002 -98.2584 
L 160.430149 -104.909973 
L 163.913296 -107.324398 
L 167.396443 -109.627674 
L 170.879591 -118.544506 
L 174.362738 -112.183668 
L 177.845885 -112.420707 
L 181.329032 -103.043214 
L 184.81218 -117.302821 
L 188.295327 -120.927083 
L 191.778474 -122.850765 
L 195.261621 -120.143973 
L 198.744769 -129.071692 
L 202.227916 -112.154172 
L 205.711063 -123.698239 
L 209.194211 -126.664079 
L 212.677358 -130.415555 
L 216.160505 -124.783122 
L 219.643652 -117.643525 
L 223.1268 -117.240434 
L 226.609947 -101.103498 
L 230.093094 -102.634957 
L 233.576241 -94.598124 
L 237.059389 -87.246839 
L 240.542536 -88.365266 
L 244.025683 -83.223961 
L 247.50883 -83.945417 
L 250.991978 -88.154249 
L 254.475125 -88.496686 
L 257.958272 -78.888942 
L 261.441419 -70.484531 
L 264.924567 -79.880245 
L 268.407714 -84.406539 
L 271.890861 -73.250615 
L 275.374009 -70.343459 
L 278.857156 -70.543523 
L 282.340303 -70.248106 
L 285.82345 -71.264119 
L 289.306598 -67.269846 
L 292.789745 -73.466399 
L 296.272892 -72.264771 
L 299.756039 -84.870067 
L 303.239187 -76.701608 
L 306.722334 -85.722858 
L 310.205481 -93.299889 
L 313.688628 -96.637064 
L 317.171776 -93.738274 
L 320.654923 -100.324506 
L 324.13807 -91.044352 
L 327.621217 -91.187087 
L 331.104365 -105.828612 
L 334.587512 -109.137467 
L 338.070659 -114.281135 
L 341.553806 -103.17335 
L 345.036954 -108.909033 
L 348.520101 -105.554129 
L 352.003248 -111.164674 
L 355.486396 -119.568588 
L 358.969543 -123.391498 
L 362.45269 -132.337331 
L 365.935837 -132.925125 
L 369.418985 -134.625625 
L 372.902132 -138.373753 
L 376.385279 -134.44979 
L 379.868426 -135.012462 
L 383.351574 -135.577077 
L 386.834721 -130.534019 
L 390.317868 -134.661549 
L 393.801015 -128.44156 
L 397.284163 -122.101209 
L 400.76731 -113.643693 
L 404.250457 -105.19758 
L 407.733604 -109.578592 
L 411.216752 -108.430074 
L 414.699899 -110.583167 
L 418.183046 -99.382801 
L 421.666194 -98.919872 
L 425.149341 -98.782511 
L 428.632488 -80.066229 
L 432.115635 -80.753037 
L 435.598783 -71.485449 
L 439.08193 -85.863633 
L 442.565077 -85.704616 
L 446.048224 -71.762802 
L 449.531372 -60.873691 
L 453.014519 -84.437106 
L 456.497666 -87.550979 
L 459.980813 -91.20079 
L 463.463961 -85.472798 
L 466.947108 -93.754044 
L 470.430255 -99.087317 
L 473.913402 -106.889833 
L 477.39655 -100.746372 
L 480.879697 -106.788334 
L 484.362844 -100.441404 
L 487.845991 -106.289774 
L 491.329139 -103.569041 
L 494.812286 -103.647018 
L 498.295433 -109.165455 
L 501.778581 -102.747519 
L 505.261728 -104.590914 
L 508.744875 -113.071313 
L 512.228022 -118.147725 
L 515.71117 -118.604634 
L 519.194317 -126.724783 
L 522.677464 -131.420044 
L 526.160611 -132.310911 
L 529.643759 -135.367186 
L 533.126906 -131.544957 
L 536.610053 -130.185593 
L 540.0932 -132.548851 
L 543.576348 -129.964681 
L 547.059495 -131.672571 
L 550.542642 -134.445855 
L 554.025789 -124.483141 
L 557.508937 -125.424079 
L 560.992084 -124.470138 
L 564.475231 -104.82142 
L 567.958379 -96.304151 
L 571.441526 -106.284875 
L 574.924673 -106.315151 
L 578.40782 -106.104531 
L 581.890968 -107.500911 
L 585.374115 -103.516252 
L 588.857262 -93.234803 
L 592.340409 -85.450508 
L 595.823557 -77.564091 
L 599.306704 -72.752591 
L 602.789851 -70.296666 
L 606.272998 -86.47216 
L 609.756146 -81.066945 
L 613.239293 -84.431667 
L 616.72244 -75.643496 
L 620.205587 -69.612265 
L 623.688735 -62.590835 
L 627.171882 -53.370399 
L 630.655029 -103.381053 
L 634.138177 -67.973722 
L 634.138177 -251.158182 
L 634.138177 -251.158182 
L 630.655029 -242.00713 
L 627.171882 -248.25732 
L 623.688735 -232.035209 
L 620.205587 -222.563194 
L 616.72244 -227.442905 
L 613.239293 -198.641615 
L 609.756146 -217.059936 
L 606.272998 -186.273652 
L 602.789851 -229.288897 
L 599.306704 -226.874649 
L 595.823557 -233.399193 
L 592.340409 -222.928825 
L 588.857262 -222.646324 
L 585.374115 -220.991938 
L 581.890968 -229.426915 
L 578.40782 -216.819947 
L 574.924673 -228.445491 
L 571.441526 -242.312408 
L 567.958379 -232.580085 
L 564.475231 -228.313832 
L 560.992084 -222.668463 
L 557.508937 -213.962669 
L 554.025789 -205.734747 
L 550.542642 -198.105925 
L 547.059495 -203.2131 
L 543.576348 -203.754045 
L 540.0932 -213.339451 
L 536.610053 -217.703187 
L 533.126906 -220.8449 
L 529.643759 -224.024345 
L 526.160611 -227.580739 
L 522.677464 -226.971248 
L 519.194317 -228.165672 
L 515.71117 -229.784267 
L 512.228022 -228.240697 
L 508.744875 -227.815794 
L 505.261728 -227.04398 
L 501.778581 -227.136956 
L 498.295433 -219.218662 
L 494.812286 -222.48656 
L 491.329139 -218.313521 
L 487.845991 -214.842609 
L 484.362844 -217.190142 
L 480.879697 -201.841059 
L 477.39655 -219.135711 
L 473.913402 -213.49237 
L 470.430255 -216.54375 
L 466.947108 -217.125887 
L 463.463961 -222.906535 
L 459.980813 -203.716991 
L 456.497666 -224.329191 
L 453.014519 -228.693363 
L 449.531372 -227.042416 
L 446.048224 -231.865395 
L 442.565077 -201.919754 
L 439.08193 -217.264444 
L 435.598783 -222.640476 
L 432.115635 -216.623665 
L 428.632488 -221.311429 
L 425.149341 -195.260061 
L 421.666194 -212.960298 
L 418.183046 -217.998685 
L 414.699899 -196.004071 
L 411.216752 -227.03907 
L 407.733604 -220.555944 
L 404.250457 -225.937194 
L 400.76731 -222.242217 
L 397.284163 -206.833039 
L 393.801015 -221.322669 
L 390.317868 -210.226514 
L 386.834721 -199.100396 
L 383.351574 -195.807757 
L 379.868426 -200.373328 
L 376.385279 -207.437556 
L 372.902132 -205.514071 
L 369.418985 -212.262916 
L 365.935837 -214.463536 
L 362.45269 -216.551689 
L 358.969543 -221.996684 
L 355.486396 -223.318997 
L 352.003248 -230.222552 
L 348.520101 -234.332738 
L 345.036954 -230.977834 
L 341.553806 -229.711843 
L 338.070659 -223.105135 
L 334.587512 -224.998025 
L 331.104365 -212.719819 
L 327.621217 -229.695235 
L 324.13807 -212.042048 
L 320.654923 -222.058175 
L 317.171776 -213.432436 
L 313.688628 -215.243107 
L 310.205481 -208.327829 
L 306.722334 -223.156595 
L 303.239187 -229.177127 
L 299.756039 -220.508548 
L 296.272892 -213.025708 
L 292.789745 -218.158928 
L 289.306598 -200.516447 
L 285.82345 -210.358816 
L 282.340303 -203.873035 
L 278.857156 -202.827439 
L 275.374009 -201.277085 
L 271.890861 -201.620705 
L 268.407714 -176.669816 
L 264.924567 -202.492869 
L 261.441419 -191.467033 
L 257.958272 -209.485607 
L 254.475125 -193.001219 
L 250.991978 -209.472513 
L 247.50883 -217.932361 
L 244.025683 -222.904834 
L 240.542536 -227.76592 
L 237.059389 -226.13369 
L 233.576241 -222.533302 
L 230.093094 -216.747007 
L 226.609947 -210.443259 
L 223.1268 -209.393264 
L 219.643652 -196.237123 
L 216.160505 -193.765309 
L 212.677358 -188.424613 
L 209.194211 -190.571539 
L 205.711063 -201.185041 
L 202.227916 -204.727195 
L 198.744769 -203.813501 
L 195.261621 -211.740981 
L 191.778474 -213.035146 
L 188.295327 -215.458947 
L 184.81218 -208.580698 
L 181.329032 -214.338271 
L 177.845885 -215.21323 
L 174.362738 -215.20021 
L 170.879591 -208.089192 
L 167.396443 -214.505426 
L 163.913296 -211.557447 
L 160.430149 -211.971393 
L 156.947002 -211.621292 
L 153.463854 -213.195612 
L 149.980707 -215.54311 
L 146.49756 -210.211434 
L 143.014413 -214.235669 
L 139.531265 -215.283915 
L 136.048118 -216.638292 
L 132.564971 -218.242366 
L 129.081823 -222.548308 
L 125.598676 -223.982514 
L 122.115529 -220.413544 
L 118.632382 -219.837219 
L 115.149234 -214.453002 
L 111.666087 -214.105168 
L 108.18294 -206.986347 
L 104.699793 -211.083351 
L 101.216645 -215.947828 
L 97.733498 -217.607157 
L 94.250351 -215.976397 
L 90.767204 -214.117562 
L 87.284056 -212.100921 
L 83.800909 -174.882115 
z
" style="stroke: #808080; stroke-opacity: 0.2"/>
    </defs>
    <g clip-path="url(#peb7e63c757)">
     <use xlink:href="#m85ac566276" x="0" y="288" style="fill: #808080; fill-opacity: 0.2; stroke: #808080; stroke-opacity: 0.2"/>
    </g>
   </g>
   <g id="matplotlib.axis_1">
    <g id="xtick_1">
     <g id="line2d_1">
      <defs>
       <path id="m864f747729" d="M 0 0 
L 0 3.5 
" style="stroke: #000000; stroke-width: 0.8"/>
      </defs>
      <g>
       <use xlink:href="#m864f747729" x="125.598676" y="246.04" style="stroke: #000000; stroke-width: 0.8"/>
      </g>
     </g>
     <g id="text_1">
      <!-- 06-16 12 -->
      <g transform="translate(103.118207 260.638438) scale(0.1 -0.1)">
       <defs>
        <path id="DejaVuSans-30" d="M 2034 4250 
Q 1547 4250 1301 3770 
Q 1056 3291 1056 2328 
Q 1056 1369 1301 889 
Q 1547 409 2034 409 
Q 2525 409 2770 889 
Q 3016 1369 3016 2328 
Q 3016 3291 2770 3770 
Q 2525 4250 2034 4250 
z
M 2034 4750 
Q 2819 4750 3233 4129 
Q 3647 3509 3647 2328 
Q 3647 1150 3233 529 
Q 2819 -91 2034 -91 
Q 1250 -91 836 529 
Q 422 1150 422 2328 
Q 422 3509 836 4129 
Q 1250 4750 2034 4750 
z
" transform="scale(0.015625)"/>
        <path id="DejaVuSans-36" d="M 2113 2584 
Q 1688 2584 1439 2293 
Q 1191 2003 1191 1497 
Q 1191 994 1439 701 
Q 1688 409 2113 409 
Q 2538 409 2786 701 
Q 3034 994 3034 1497 
Q 3034 2003 2786 2293 
Q 2538 2584 2113 2584 
z
M 3366 4563 
L 3366 3988 
Q 3128 4100 2886 4159 
Q 2644 4219 2406 4219 
Q 1781 4219 1451 3797 
Q 1122 3375 1075 2522 
Q 1259 2794 1537 2939 
Q 1816 3084 2150 3084 
Q 2853 3084 3261 2657 
Q 3669 2231 3669 1497 
Q 3669 778 3244 343 
Q 2819 -91 2113 -91 
Q 1303 -91 875 529 
Q 447 1150 447 2328 
Q 447 3434 972 4092 
Q 1497 4750 2381 4750 
Q 2619 4750 2861 4703 
Q 3103 4656 3366 4563 
z
" transform="scale(0.015625)"/>
        <path id="DejaVuSans-2d" d="M 313 2009 
L 1997 2009 
L 1997 1497 
L 313 1497 
L 313 2009 
z
" transform="scale(0.015625)"/>
        <path id="DejaVuSans-31" d="M 794 531 
L 1825 531 
L 1825 4091 
L 703 3866 
L 703 4441 
L 1819 4666 
L 2450 4666 
L 2450 531 
L 3481 531 
L 3481 0 
L 794 0 
L 794 531 
z
" transform="scale(0.015625)"/>
        <path id="DejaVuSans-20" transform="scale(0.015625)"/>
        <path id="DejaVuSans-32" d="M 1228 531 
L 3431 531 
L 3431 0 
L 469 0 
L 469 531 
Q 828 903 1448 1529 
Q 2069 2156 2228 2338 
Q 2531 2678 2651 2914 
Q 2772 3150 2772 3378 
Q 2772 3750 2511 3984 
Q 2250 4219 1831 4219 
Q 1534 4219 1204 4116 
Q 875 4013 500 3803 
L 500 4441 
Q 881 4594 1212 4672 
Q 1544 4750 1819 4750 
Q 2544 4750 2975 4387 
Q 3406 4025 3406 3419 
Q 3406 3131 3298 2873 
Q 3191 2616 2906 2266 
Q 2828 2175 2409 1742 
Q 1991 1309 1228 531 
z
" transform="scale(0.015625)"/>
       </defs>
       <use xlink:href="#DejaVuSans-30"/>
       <use xlink:href="#DejaVuSans-36" transform="translate(63.623047 0)"/>
       <use xlink:href="#DejaVuSans-2d" transform="translate(127.246094 0)"/>
       <use xlink:href="#DejaVuSans-31" transform="translate(163.330078 0)"/>
       <use xlink:href="#DejaVuSans-36" transform="translate(226.953125 0)"/>
       <use xlink:href="#DejaVuSans-20" transform="translate(290.576172 0)"/>
       <use xlink:href="#DejaVuSans-31" transform="translate(322.363281 0)"/>
       <use xlink:href="#DejaVuSans-32" transform="translate(385.986328 0)"/>
      </g>
     </g>
    </g>
    <g id="xtick_2">
     <g id="line2d_2">
      <g>
       <use xlink:href="#m864f747729" x="209.194211" y="246.04" style="stroke: #000000; stroke-width: 0.8"/>
      </g>
     </g>
     <g id="text_2">
      <!-- 06-17 00 -->
      <g transform="translate(186.713742 260.638438) scale(0.1 -0.1)">
       <defs>
        <path id="DejaVuSans-37" d="M 525 4666 
L 3525 4666 
L 3525 4397 
L 1831 0 
L 1172 0 
L 2766 4134 
L 525 4134 
L 525 4666 
z
" transform="scale(0.015625)"/>
       </defs>
       <use xlink:href="#DejaVuSans-30"/>
       <use xlink:href="#DejaVuSans-36" transform="translate(63.623047 0)"/>
       <use xlink:href="#DejaVuSans-2d" transform="translate(127.246094 0)"/>
       <use xlink:href="#DejaVuSans-31" transform="translate(163.330078 0)"/>
       <use xlink:href="#DejaVuSans-37" transform="translate(226.953125 0)"/>
       <use xlink:href="#DejaVuSans-20" transform="translate(290.576172 0)"/>
       <use xlink:href="#DejaVuSans-30" transform="translate(322.363281 0)"/>
       <use xlink:href="#DejaVuSans-30" transform="translate(385.986328 0)"/>
      </g>
     </g>
    </g>
    <g id="xtick_3">
     <g id="line2d_3">
      <g>
       <use xlink:href="#m864f747729" x="292.789745" y="246.04" style="stroke: #000000; stroke-width: 0.8"/>
      </g>
     </g>
     <g id="text_3">
      <!-- 06-17 12 -->
      <g transform="translate(270.309276 260.638438) scale(0.1 -0.1)">
       <use xlink:href="#DejaVuSans-30"/>
       <use xlink:href="#DejaVuSans-36" transform="translate(63.623047 0)"/>
       <use xlink:href="#DejaVuSans-2d" transform="translate(127.246094 0)"/>
       <use xlink:href="#DejaVuSans-31" transform="translate(163.330078 0)"/>
       <use xlink:href="#DejaVuSans-37" transform="translate(226.953125 0)"/>
       <use xlink:href="#DejaVuSans-20" transform="translate(290.576172 0)"/>
       <use xlink:href="#DejaVuSans-31" transform="translate(322.363281 0)"/>
       <use xlink:href="#DejaVuSans-32" transform="translate(385.986328 0)"/>
      </g>
     </g>
    </g>
    <g id="xtick_4">
     <g id="line2d_4">
      <g>
       <use xlink:href="#m864f747729" x="376.385279" y="246.04" style="stroke: #000000; stroke-width: 0.8"/>
      </g>
     </g>
     <g id="text_4">
      <!-- 06-18 00 -->
      <g transform="translate(353.90481 260.638438) scale(0.1 -0.1)">
       <defs>
        <path id="DejaVuSans-38" d="M 2034 2216 
Q 1584 2216 1326 1975 
Q 1069 1734 1069 1313 
Q 1069 891 1326 650 
Q 1584 409 2034 409 
Q 2484 409 2743 651 
Q 3003 894 3003 1313 
Q 3003 1734 2745 1975 
Q 2488 2216 2034 2216 
z
M 1403 2484 
Q 997 2584 770 2862 
Q 544 3141 544 3541 
Q 544 4100 942 4425 
Q 1341 4750 2034 4750 
Q 2731 4750 3128 4425 
Q 3525 4100 3525 3541 
Q 3525 3141 3298 2862 
Q 3072 2584 2669 2484 
Q 3125 2378 3379 2068 
Q 3634 1759 3634 1313 
Q 3634 634 3220 271 
Q 2806 -91 2034 -91 
Q 1263 -91 848 271 
Q 434 634 434 1313 
Q 434 1759 690 2068 
Q 947 2378 1403 2484 
z
M 1172 3481 
Q 1172 3119 1398 2916 
Q 1625 2713 2034 2713 
Q 2441 2713 2670 2916 
Q 2900 3119 2900 3481 
Q 2900 3844 2670 4047 
Q 2441 4250 2034 4250 
Q 1625 4250 1398 4047 
Q 1172 3844 1172 3481 
z
" transform="scale(0.015625)"/>
       </defs>
       <use xlink:href="#DejaVuSans-30"/>
       <use xlink:href="#DejaVuSans-36" transform="translate(63.623047 0)"/>
       <use xlink:href="#DejaVuSans-2d" transform="translate(127.246094 0)"/>
       <use xlink:href="#DejaVuSans-31" transform="translate(163.330078 0)"/>
       <use xlink:href="#DejaVuSans-38" transform="translate(226.953125 0)"/>
       <use xlink:href="#DejaVuSans-20" transform="translate(290.576172 0)"/>
       <use xlink:href="#DejaVuSans-30" transform="translate(322.363281 0)"/>
       <use xlink:href="#DejaVuSans-30" transform="translate(385.986328 0)"/>
      </g>
     </g>
    </g>
    <g id="xtick_5">
     <g id="line2d_5">
      <g>
       <use xlink:href="#m864f747729" x="459.980813" y="246.04" style="stroke: #000000; stroke-width: 0.8"/>
      </g>
     </g>
     <g id="text_5">
      <!-- 06-18 12 -->
      <g transform="translate(437.500345 260.638438) scale(0.1 -0.1)">
       <use xlink:href="#DejaVuSans-30"/>
       <use xlink:href="#DejaVuSans-36" transform="translate(63.623047 0)"/>
       <use xlink:href="#DejaVuSans-2d" transform="translate(127.246094 0)"/>
       <use xlink:href="#DejaVuSans-31" transform="translate(163.330078 0)"/>
       <use xlink:href="#DejaVuSans-38" transform="translate(226.953125 0)"/>
       <use xlink:href="#DejaVuSans-20" transform="translate(290.576172 0)"/>
       <use xlink:href="#DejaVuSans-31" transform="translate(322.363281 0)"/>
       <use xlink:href="#DejaVuSans-32" transform="translate(385.986328 0)"/>
      </g>
     </g>
    </g>
    <g id="xtick_6">
     <g id="line2d_6">
      <g>
       <use xlink:href="#m864f747729" x="543.576348" y="246.04" style="stroke: #000000; stroke-width: 0.8"/>
      </g>
     </g>
     <g id="text_6">
      <!-- 06-19 00 -->
      <g transform="translate(521.095879 260.638438) scale(0.1 -0.1)">
       <defs>
        <path id="DejaVuSans-39" d="M 703 97 
L 703 672 
Q 941 559 1184 500 
Q 1428 441 1663 441 
Q 2288 441 2617 861 
Q 2947 1281 2994 2138 
Q 2813 1869 2534 1725 
Q 2256 1581 1919 1581 
Q 1219 1581 811 2004 
Q 403 2428 403 3163 
Q 403 3881 828 4315 
Q 1253 4750 1959 4750 
Q 2769 4750 3195 4129 
Q 3622 3509 3622 2328 
Q 3622 1225 3098 567 
Q 2575 -91 1691 -91 
Q 1453 -91 1209 -44 
Q 966 3 703 97 
z
M 1959 2075 
Q 2384 2075 2632 2365 
Q 2881 2656 2881 3163 
Q 2881 3666 2632 3958 
Q 2384 4250 1959 4250 
Q 1534 4250 1286 3958 
Q 1038 3666 1038 3163 
Q 1038 2656 1286 2365 
Q 1534 2075 1959 2075 
z
" transform="scale(0.015625)"/>
       </defs>
       <use xlink:href="#DejaVuSans-30"/>
       <use xlink:href="#DejaVuSans-36" transform="translate(63.623047 0)"/>
       <use xlink:href="#DejaVuSans-2d" transform="translate(127.246094 0)"/>
       <use xlink:href="#DejaVuSans-31" transform="translate(163.330078 0)"/>
       <use xlink:href="#DejaVuSans-39" transform="translate(226.953125 0)"/>
       <use xlink:href="#DejaVuSans-20" transform="translate(290.576172 0)"/>
       <use xlink:href="#DejaVuSans-30" transform="translate(322.363281 0)"/>
       <use xlink:href="#DejaVuSans-30" transform="translate(385.986328 0)"/>
      </g>
     </g>
    </g>
    <g id="xtick_7">
     <g id="line2d_7">
      <g>
       <use xlink:href="#m864f747729" x="627.171882" y="246.04" style="stroke: #000000; stroke-width: 0.8"/>
      </g>
     </g>
     <g id="text_7">
      <!-- 06-19 12 -->
      <g transform="translate(604.691413 260.638438) scale(0.1 -0.1)">
       <use xlink:href="#DejaVuSans-30"/>
       <use xlink:href="#DejaVuSans-36" transform="translate(63.623047 0)"/>
       <use xlink:href="#DejaVuSans-2d" transform="translate(127.246094 0)"/>
       <use xlink:href="#DejaVuSans-31" transform="translate(163.330078 0)"/>
       <use xlink:href="#DejaVuSans-39" transform="translate(226.953125 0)"/>
       <use xlink:href="#DejaVuSans-20" transform="translate(290.576172 0)"/>
       <use xlink:href="#DejaVuSans-31" transform="translate(322.363281 0)"/>
       <use xlink:href="#DejaVuSans-32" transform="translate(385.986328 0)"/>
      </g>
     </g>
    </g>
    <g id="text_8">
     <!-- Tijd -->
     <g transform="translate(372.76 274.316562) scale(0.1 -0.1)">
      <defs>
       <path id="DejaVuSans-54" d="M -19 4666 
L 3928 4666 
L 3928 4134 
L 2272 4134 
L 2272 0 
L 1638 0 
L 1638 4134 
L -19 4134 
L -19 4666 
z
" transform="scale(0.015625)"/>
       <path id="DejaVuSans-69" d="M 603 3500 
L 1178 3500 
L 1178 0 
L 603 0 
L 603 3500 
z
M 603 4863 
L 1178 4863 
L 1178 4134 
L 603 4134 
L 603 4863 
z
" transform="scale(0.015625)"/>
       <path id="DejaVuSans-6a" d="M 603 3500 
L 1178 3500 
L 1178 -63 
Q 1178 -731 923 -1031 
Q 669 -1331 103 -1331 
L -116 -1331 
L -116 -844 
L 38 -844 
Q 366 -844 484 -692 
Q 603 -541 603 -63 
L 603 3500 
z
M 603 4863 
L 1178 4863 
L 1178 4134 
L 603 4134 
L 603 4863 
z
" transform="scale(0.015625)"/>
       <path id="DejaVuSans-64" d="M 2906 2969 
L 2906 4863 
L 3481 4863 
L 3481 0 
L 2906 0 
L 2906 525 
Q 2725 213 2448 61 
Q 2172 -91 1784 -91 
Q 1150 -91 751 415 
Q 353 922 353 1747 
Q 353 2572 751 3078 
Q 1150 3584 1784 3584 
Q 2172 3584 2448 3432 
Q 2725 3281 2906 2969 
z
M 947 1747 
Q 947 1113 1208 752 
Q 1469 391 1925 391 
Q 2381 391 2643 752 
Q 2906 1113 2906 1747 
Q 2906 2381 2643 2742 
Q 2381 3103 1925 3103 
Q 1469 3103 1208 2742 
Q 947 2381 947 1747 
z
" transform="scale(0.015625)"/>
      </defs>
      <use xlink:href="#DejaVuSans-54"/>
      <use xlink:href="#DejaVuSans-69" transform="translate(57.958984 0)"/>
      <use xlink:href="#DejaVuSans-6a" transform="translate(85.742188 0)"/>
      <use xlink:href="#DejaVuSans-64" transform="translate(113.525391 0)"/>
     </g>
    </g>
   </g>
   <g id="matplotlib.axis_2">
    <g id="ytick_1">
     <g id="line2d_8">
      <defs>
       <path id="m19240cd7ff" d="M 0 0 
L -3.5 0 
" style="stroke: #000000; stroke-width: 0.8"/>
      </defs>
      <g>
       <use xlink:href="#m19240cd7ff" x="54.02" y="232.583952" style="stroke: #000000; stroke-width: 0.8"/>
      </g>
     </g>
     <g id="text_9">
      <!-- 33.0 -->
      <g transform="translate(24.754375 236.383171) scale(0.1 -0.1)">
       <defs>
        <path id="DejaVuSans-33" d="M 2597 2516 
Q 3050 2419 3304 2112 
Q 3559 1806 3559 1356 
Q 3559 666 3084 287 
Q 2609 -91 1734 -91 
Q 1441 -91 1130 -33 
Q 819 25 488 141 
L 488 750 
Q 750 597 1062 519 
Q 1375 441 1716 441 
Q 2309 441 2620 675 
Q 2931 909 2931 1356 
Q 2931 1769 2642 2001 
Q 2353 2234 1838 2234 
L 1294 2234 
L 1294 2753 
L 1863 2753 
Q 2328 2753 2575 2939 
Q 2822 3125 2822 3475 
Q 2822 3834 2567 4026 
Q 2313 4219 1838 4219 
Q 1578 4219 1281 4162 
Q 984 4106 628 3988 
L 628 4550 
Q 988 4650 1302 4700 
Q 1616 4750 1894 4750 
Q 2613 4750 3031 4423 
Q 3450 4097 3450 3541 
Q 3450 3153 3228 2886 
Q 3006 2619 2597 2516 
z
" transform="scale(0.015625)"/>
        <path id="DejaVuSans-2e" d="M 684 794 
L 1344 794 
L 1344 0 
L 684 0 
L 684 794 
z
" transform="scale(0.015625)"/>
       </defs>
       <use xlink:href="#DejaVuSans-33"/>
       <use xlink:href="#DejaVuSans-33" transform="translate(63.623047 0)"/>
       <use xlink:href="#DejaVuSans-2e" transform="translate(127.246094 0)"/>
       <use xlink:href="#DejaVuSans-30" transform="translate(159.033203 0)"/>
      </g>
     </g>
    </g>
    <g id="ytick_2">
     <g id="line2d_9">
      <g>
       <use xlink:href="#m19240cd7ff" x="54.02" y="206.327674" style="stroke: #000000; stroke-width: 0.8"/>
      </g>
     </g>
     <g id="text_10">
      <!-- 33.5 -->
      <g transform="translate(24.754375 210.126893) scale(0.1 -0.1)">
       <defs>
        <path id="DejaVuSans-35" d="M 691 4666 
L 3169 4666 
L 3169 4134 
L 1269 4134 
L 1269 2991 
Q 1406 3038 1543 3061 
Q 1681 3084 1819 3084 
Q 2600 3084 3056 2656 
Q 3513 2228 3513 1497 
Q 3513 744 3044 326 
Q 2575 -91 1722 -91 
Q 1428 -91 1123 -41 
Q 819 9 494 109 
L 494 744 
Q 775 591 1075 516 
Q 1375 441 1709 441 
Q 2250 441 2565 725 
Q 2881 1009 2881 1497 
Q 2881 1984 2565 2268 
Q 2250 2553 1709 2553 
Q 1456 2553 1204 2497 
Q 953 2441 691 2322 
L 691 4666 
z
" transform="scale(0.015625)"/>
       </defs>
       <use xlink:href="#DejaVuSans-33"/>
       <use xlink:href="#DejaVuSans-33" transform="translate(63.623047 0)"/>
       <use xlink:href="#DejaVuSans-2e" transform="translate(127.246094 0)"/>
       <use xlink:href="#DejaVuSans-35" transform="translate(159.033203 0)"/>
      </g>
     </g>
    </g>
    <g id="ytick_3">
     <g id="line2d_10">
      <g>
       <use xlink:href="#m19240cd7ff" x="54.02" y="180.071395" style="stroke: #000000; stroke-width: 0.8"/>
      </g>
     </g>
     <g id="text_11">
      <!-- 34.0 -->
      <g transform="translate(24.754375 183.870614) scale(0.1 -0.1)">
       <defs>
        <path id="DejaVuSans-34" d="M 2419 4116 
L 825 1625 
L 2419 1625 
L 2419 4116 
z
M 2253 4666 
L 3047 4666 
L 3047 1625 
L 3713 1625 
L 3713 1100 
L 3047 1100 
L 3047 0 
L 2419 0 
L 2419 1100 
L 313 1100 
L 313 1709 
L 2253 4666 
z
" transform="scale(0.015625)"/>
       </defs>
       <use xlink:href="#DejaVuSans-33"/>
       <use xlink:href="#DejaVuSans-34" transform="translate(63.623047 0)"/>
       <use xlink:href="#DejaVuSans-2e" transform="translate(127.246094 0)"/>
       <use xlink:href="#DejaVuSans-30" transform="translate(159.033203 0)"/>
      </g>
     </g>
    </g>
    <g id="ytick_4">
     <g id="line2d_11">
      <g>
       <use xlink:href="#m19240cd7ff" x="54.02" y="153.815117" style="stroke: #000000; stroke-width: 0.8"/>
      </g>
     </g>
     <g id="text_12">
      <!-- 34.5 -->
      <g transform="translate(24.754375 157.614336) scale(0.1 -0.1)">
       <use xlink:href="#DejaVuSans-33"/>
       <use xlink:href="#DejaVuSans-34" transform="translate(63.623047 0)"/>
       <use xlink:href="#DejaVuSans-2e" transform="translate(127.246094 0)"/>
       <use xlink:href="#DejaVuSans-35" transform="translate(159.033203 0)"/>
      </g>
     </g>
    </g>
    <g id="ytick_5">
     <g id="line2d_12">
      <g>
       <use xlink:href="#m19240cd7ff" x="54.02" y="127.558839" style="stroke: #000000; stroke-width: 0.8"/>
      </g>
     </g>
     <g id="text_13">
      <!-- 35.0 -->
      <g transform="translate(24.754375 131.358057) scale(0.1 -0.1)">
       <use xlink:href="#DejaVuSans-33"/>
       <use xlink:href="#DejaVuSans-35" transform="translate(63.623047 0)"/>
       <use xlink:href="#DejaVuSans-2e" transform="translate(127.246094 0)"/>
       <use xlink:href="#DejaVuSans-30" transform="translate(159.033203 0)"/>
      </g>
     </g>
    </g>
    <g id="ytick_6">
     <g id="line2d_13">
      <g>
       <use xlink:href="#m19240cd7ff" x="54.02" y="101.30256" style="stroke: #000000; stroke-width: 0.8"/>
      </g>
     </g>
     <g id="text_14">
      <!-- 35.5 -->
      <g transform="translate(24.754375 105.101779) scale(0.1 -0.1)">
       <use xlink:href="#DejaVuSans-33"/>
       <use xlink:href="#DejaVuSans-35" transform="translate(63.623047 0)"/>
       <use xlink:href="#DejaVuSans-2e" transform="translate(127.246094 0)"/>
       <use xlink:href="#DejaVuSans-35" transform="translate(159.033203 0)"/>
      </g>
     </g>
    </g>
    <g id="ytick_7">
     <g id="line2d_14">
      <g>
       <use xlink:href="#m19240cd7ff" x="54.02" y="75.046282" style="stroke: #000000; stroke-width: 0.8"/>
      </g>
     </g>
     <g id="text_15">
      <!-- 36.0 -->
      <g transform="translate(24.754375 78.845501) scale(0.1 -0.1)">
       <use xlink:href="#DejaVuSans-33"/>
       <use xlink:href="#DejaVuSans-36" transform="translate(63.623047 0)"/>
       <use xlink:href="#DejaVuSans-2e" transform="translate(127.246094 0)"/>
       <use xlink:href="#DejaVuSans-30" transform="translate(159.033203 0)"/>
      </g>
     </g>
    </g>
    <g id="ytick_8">
     <g id="line2d_15">
      <g>
       <use xlink:href="#m19240cd7ff" x="54.02" y="48.790003" style="stroke: #000000; stroke-width: 0.8"/>
      </g>
     </g>
     <g id="text_16">
      <!-- 36.5 -->
      <g transform="translate(24.754375 52.589222) scale(0.1 -0.1)">
       <use xlink:href="#DejaVuSans-33"/>
       <use xlink:href="#DejaVuSans-36" transform="translate(63.623047 0)"/>
       <use xlink:href="#DejaVuSans-2e" transform="translate(127.246094 0)"/>
       <use xlink:href="#DejaVuSans-35" transform="translate(159.033203 0)"/>
      </g>
     </g>
    </g>
    <g id="text_17">
     <!-- Temperatuur (°C) -->
     <g transform="translate(18.674688 179.81625) rotate(-90) scale(0.1 -0.1)">
      <defs>
       <path id="DejaVuSans-65" d="M 3597 1894 
L 3597 1613 
L 953 1613 
Q 991 1019 1311 708 
Q 1631 397 2203 397 
Q 2534 397 2845 478 
Q 3156 559 3463 722 
L 3463 178 
Q 3153 47 2828 -22 
Q 2503 -91 2169 -91 
Q 1331 -91 842 396 
Q 353 884 353 1716 
Q 353 2575 817 3079 
Q 1281 3584 2069 3584 
Q 2775 3584 3186 3129 
Q 3597 2675 3597 1894 
z
M 3022 2063 
Q 3016 2534 2758 2815 
Q 2500 3097 2075 3097 
Q 1594 3097 1305 2825 
Q 1016 2553 972 2059 
L 3022 2063 
z
" transform="scale(0.015625)"/>
       <path id="DejaVuSans-6d" d="M 3328 2828 
Q 3544 3216 3844 3400 
Q 4144 3584 4550 3584 
Q 5097 3584 5394 3201 
Q 5691 2819 5691 2113 
L 5691 0 
L 5113 0 
L 5113 2094 
Q 5113 2597 4934 2840 
Q 4756 3084 4391 3084 
Q 3944 3084 3684 2787 
Q 3425 2491 3425 1978 
L 3425 0 
L 2847 0 
L 2847 2094 
Q 2847 2600 2669 2842 
Q 2491 3084 2119 3084 
Q 1678 3084 1418 2786 
Q 1159 2488 1159 1978 
L 1159 0 
L 581 0 
L 581 3500 
L 1159 3500 
L 1159 2956 
Q 1356 3278 1631 3431 
Q 1906 3584 2284 3584 
Q 2666 3584 2933 3390 
Q 3200 3197 3328 2828 
z
" transform="scale(0.015625)"/>
       <path id="DejaVuSans-70" d="M 1159 525 
L 1159 -1331 
L 581 -1331 
L 581 3500 
L 1159 3500 
L 1159 2969 
Q 1341 3281 1617 3432 
Q 1894 3584 2278 3584 
Q 2916 3584 3314 3078 
Q 3713 2572 3713 1747 
Q 3713 922 3314 415 
Q 2916 -91 2278 -91 
Q 1894 -91 1617 61 
Q 1341 213 1159 525 
z
M 3116 1747 
Q 3116 2381 2855 2742 
Q 2594 3103 2138 3103 
Q 1681 3103 1420 2742 
Q 1159 2381 1159 1747 
Q 1159 1113 1420 752 
Q 1681 391 2138 391 
Q 2594 391 2855 752 
Q 3116 1113 3116 1747 
z
" transform="scale(0.015625)"/>
       <path id="DejaVuSans-72" d="M 2631 2963 
Q 2534 3019 2420 3045 
Q 2306 3072 2169 3072 
Q 1681 3072 1420 2755 
Q 1159 2438 1159 1844 
L 1159 0 
L 581 0 
L 581 3500 
L 1159 3500 
L 1159 2956 
Q 1341 3275 1631 3429 
Q 1922 3584 2338 3584 
Q 2397 3584 2469 3576 
Q 2541 3569 2628 3553 
L 2631 2963 
z
" transform="scale(0.015625)"/>
       <path id="DejaVuSans-61" d="M 2194 1759 
Q 1497 1759 1228 1600 
Q 959 1441 959 1056 
Q 959 750 1161 570 
Q 1363 391 1709 391 
Q 2188 391 2477 730 
Q 2766 1069 2766 1631 
L 2766 1759 
L 2194 1759 
z
M 3341 1997 
L 3341 0 
L 2766 0 
L 2766 531 
Q 2569 213 2275 61 
Q 1981 -91 1556 -91 
Q 1019 -91 701 211 
Q 384 513 384 1019 
Q 384 1609 779 1909 
Q 1175 2209 1959 2209 
L 2766 2209 
L 2766 2266 
Q 2766 2663 2505 2880 
Q 2244 3097 1772 3097 
Q 1472 3097 1187 3025 
Q 903 2953 641 2809 
L 641 3341 
Q 956 3463 1253 3523 
Q 1550 3584 1831 3584 
Q 2591 3584 2966 3190 
Q 3341 2797 3341 1997 
z
" transform="scale(0.015625)"/>
       <path id="DejaVuSans-74" d="M 1172 4494 
L 1172 3500 
L 2356 3500 
L 2356 3053 
L 1172 3053 
L 1172 1153 
Q 1172 725 1289 603 
Q 1406 481 1766 481 
L 2356 481 
L 2356 0 
L 1766 0 
Q 1100 0 847 248 
Q 594 497 594 1153 
L 594 3053 
L 172 3053 
L 172 3500 
L 594 3500 
L 594 4494 
L 1172 4494 
z
" transform="scale(0.015625)"/>
       <path id="DejaVuSans-75" d="M 544 1381 
L 544 3500 
L 1119 3500 
L 1119 1403 
Q 1119 906 1312 657 
Q 1506 409 1894 409 
Q 2359 409 2629 706 
Q 2900 1003 2900 1516 
L 2900 3500 
L 3475 3500 
L 3475 0 
L 2900 0 
L 2900 538 
Q 2691 219 2414 64 
Q 2138 -91 1772 -91 
Q 1169 -91 856 284 
Q 544 659 544 1381 
z
M 1991 3584 
L 1991 3584 
z
" transform="scale(0.015625)"/>
       <path id="DejaVuSans-28" d="M 1984 4856 
Q 1566 4138 1362 3434 
Q 1159 2731 1159 2009 
Q 1159 1288 1364 580 
Q 1569 -128 1984 -844 
L 1484 -844 
Q 1016 -109 783 600 
Q 550 1309 550 2009 
Q 550 2706 781 3412 
Q 1013 4119 1484 4856 
L 1984 4856 
z
" transform="scale(0.015625)"/>
       <path id="DejaVuSans-b0" d="M 1600 4347 
Q 1350 4347 1178 4173 
Q 1006 4000 1006 3750 
Q 1006 3503 1178 3333 
Q 1350 3163 1600 3163 
Q 1850 3163 2022 3333 
Q 2194 3503 2194 3750 
Q 2194 3997 2020 4172 
Q 1847 4347 1600 4347 
z
M 1600 4750 
Q 1800 4750 1984 4673 
Q 2169 4597 2303 4453 
Q 2447 4313 2519 4134 
Q 2591 3956 2591 3750 
Q 2591 3338 2302 3052 
Q 2013 2766 1594 2766 
Q 1172 2766 890 3047 
Q 609 3328 609 3750 
Q 609 4169 896 4459 
Q 1184 4750 1600 4750 
z
" transform="scale(0.015625)"/>
       <path id="DejaVuSans-43" d="M 4122 4306 
L 4122 3641 
Q 3803 3938 3442 4084 
Q 3081 4231 2675 4231 
Q 1875 4231 1450 3742 
Q 1025 3253 1025 2328 
Q 1025 1406 1450 917 
Q 1875 428 2675 428 
Q 3081 428 3442 575 
Q 3803 722 4122 1019 
L 4122 359 
Q 3791 134 3420 21 
Q 3050 -91 2638 -91 
Q 1578 -91 968 557 
Q 359 1206 359 2328 
Q 359 3453 968 4101 
Q 1578 4750 2638 4750 
Q 3056 4750 3426 4639 
Q 3797 4528 4122 4306 
z
" transform="scale(0.015625)"/>
       <path id="DejaVuSans-29" d="M 513 4856 
L 1013 4856 
Q 1481 4119 1714 3412 
Q 1947 2706 1947 2009 
Q 1947 1309 1714 600 
Q 1481 -109 1013 -844 
L 513 -844 
Q 928 -128 1133 580 
Q 1338 1288 1338 2009 
Q 1338 2731 1133 3434 
Q 928 4138 513 4856 
z
" transform="scale(0.015625)"/>
      </defs>
      <use xlink:href="#DejaVuSans-54"/>
      <use xlink:href="#DejaVuSans-65" transform="translate(44.083984 0)"/>
      <use xlink:href="#DejaVuSans-6d" transform="translate(105.607422 0)"/>
      <use xlink:href="#DejaVuSans-70" transform="translate(203.019531 0)"/>
      <use xlink:href="#DejaVuSans-65" transform="translate(266.496094 0)"/>
      <use xlink:href="#DejaVuSans-72" transform="translate(328.019531 0)"/>
      <use xlink:href="#DejaVuSans-61" transform="translate(369.132812 0)"/>
      <use xlink:href="#DejaVuSans-74" transform="translate(430.412109 0)"/>
      <use xlink:href="#DejaVuSans-75" transform="translate(469.621094 0)"/>
      <use xlink:href="#DejaVuSans-75" transform="translate(533 0)"/>
      <use xlink:href="#DejaVuSans-72" transform="translate(596.378906 0)"/>
      <use xlink:href="#DejaVuSans-20" transform="translate(637.492188 0)"/>
      <use xlink:href="#DejaVuSans-28" transform="translate(669.279297 0)"/>
      <use xlink:href="#DejaVuSans-b0" transform="translate(708.292969 0)"/>
      <use xlink:href="#DejaVuSans-43" transform="translate(758.292969 0)"/>
      <use xlink:href="#DejaVuSans-29" transform="translate(828.117188 0)"/>
     </g>
    </g>
   </g>
   <g id="line2d_16">
    <path d="M 87.284056 101.30256 
L 90.767204 101.30256 
L 94.250351 106.553816 
L 97.733498 106.553816 
L 101.216645 115.305909 
L 104.699793 125.80842 
L 111.666087 129.309257 
L 118.632382 122.307583 
L 122.115529 122.307583 
L 125.598676 117.056327 
L 129.081823 118.806746 
L 132.564971 115.305909 
L 136.048118 115.305909 
L 139.531265 113.55549 
L 143.014413 117.056327 
L 146.49756 117.056327 
L 149.980707 111.805072 
L 153.463854 110.492258 
L 156.947002 110.054653 
L 160.430149 111.805072 
L 163.913296 115.305909 
L 167.396443 111.805072 
L 170.879591 118.806746 
L 174.362738 118.806746 
L 177.845885 122.307583 
L 181.329032 118.806746 
L 184.81218 122.307583 
L 188.295327 124.058001 
L 191.778474 124.058001 
L 195.261621 120.557164 
L 198.744769 122.307583 
L 205.711063 122.307583 
L 209.194211 124.058001 
L 212.677358 118.806746 
L 216.160505 111.805072 
L 219.643652 111.805072 
L 223.1268 113.55549 
L 233.576241 108.304234 
L 244.025683 113.55549 
L 250.991978 113.55549 
L 257.958272 110.054653 
L 261.441419 111.805072 
L 264.924567 111.805072 
L 268.407714 118.806746 
L 271.890861 122.307583 
L 275.374009 122.307583 
L 278.857156 127.558839 
L 282.340303 127.558839 
L 285.82345 129.309257 
L 289.306598 129.309257 
L 292.789745 122.307583 
L 296.272892 117.056327 
L 299.756039 117.056327 
L 303.239187 104.803397 
L 310.205481 115.305909 
L 313.688628 108.304234 
L 317.171776 104.803397 
L 320.654923 111.805072 
L 327.621217 111.805072 
L 331.104365 110.054653 
L 334.587512 111.805072 
L 338.070659 111.805072 
L 341.553806 117.056327 
L 345.036954 120.557164 
L 348.520101 122.307583 
L 352.003248 122.307583 
L 355.486396 125.80842 
L 358.969543 127.558839 
L 365.935837 124.058001 
L 369.418985 124.058001 
L 372.902132 122.307583 
L 376.385279 125.80842 
L 379.868426 122.307583 
L 383.351574 117.056327 
L 386.834721 115.305909 
L 390.317868 111.805072 
L 393.801015 111.805072 
L 397.284163 117.056327 
L 400.76731 117.056327 
L 404.250457 115.305909 
L 407.733604 115.305909 
L 411.216752 113.55549 
L 414.699899 113.55549 
L 418.183046 111.805072 
L 421.666194 117.056327 
L 432.115635 117.056327 
L 435.598783 122.307583 
L 439.08193 132.810094 
L 442.565077 131.059676 
L 446.048224 127.558839 
L 449.531372 127.558839 
L 453.014519 124.058001 
L 456.497666 118.806746 
L 459.980813 122.307583 
L 463.463961 118.806746 
L 466.947108 117.056327 
L 477.39655 117.056327 
L 480.879697 120.557164 
L 484.362844 120.557164 
L 487.845991 118.806746 
L 491.329139 120.557164 
L 494.812286 117.056327 
L 498.295433 118.806746 
L 501.778581 122.307583 
L 505.261728 117.056327 
L 508.744875 122.307583 
L 512.228022 120.557164 
L 515.71117 122.307583 
L 519.194317 122.307583 
L 522.677464 120.557164 
L 526.160611 122.307583 
L 529.643759 122.307583 
L 533.126906 127.558839 
L 547.059495 127.558839 
L 550.542642 113.55549 
L 554.025789 111.805072 
L 557.508937 111.805072 
L 560.992084 108.304234 
L 564.475231 108.304234 
L 567.958379 106.553816 
L 571.441526 108.304234 
L 574.924673 106.553816 
L 578.40782 106.553816 
L 581.890968 111.805072 
L 585.374115 110.054653 
L 588.857262 110.054653 
L 592.340409 111.805072 
L 595.823557 110.054653 
L 599.306704 106.553816 
L 602.789851 111.805072 
L 606.272998 124.058001 
L 609.756146 125.80842 
L 613.239293 122.307583 
L 616.72244 125.80842 
L 620.205587 127.558839 
L 620.205587 127.558839 
" clip-path="url(#peb7e63c757)" style="fill: none; stroke: #1f77b4; stroke-width: 2; stroke-linecap: square"/>
   </g>
   <g id="line2d_17">
    <path d="M 83.800909 160.379187 
L 87.284056 145.313084 
L 90.767204 145.563144 
L 94.250351 146.063263 
L 97.733498 148.188772 
L 101.216645 154.065177 
L 104.699793 153.314997 
L 108.18294 152.314758 
L 111.666087 154.815356 
L 115.149234 148.688891 
L 118.632382 145.688174 
L 122.115529 142.062307 
L 125.598676 139.311649 
L 129.081823 138.31141 
L 132.564971 138.06135 
L 136.048118 134.810573 
L 139.531265 132.184945 
L 143.014413 132.059915 
L 146.49756 131.309736 
L 149.980707 131.684825 
L 153.463854 130.872131 
L 156.947002 133.060154 
L 160.430149 129.559317 
L 163.913296 128.559078 
L 167.396443 125.93345 
L 170.879591 124.683151 
L 174.362738 124.308061 
L 177.845885 124.183031 
L 181.329032 129.309257 
L 184.81218 125.058241 
L 188.295327 119.806985 
L 191.778474 120.057045 
L 195.261621 122.057523 
L 198.744769 121.557404 
L 202.227916 129.559317 
L 205.711063 125.55836 
L 209.194211 129.382191 
L 212.677358 128.579916 
L 216.160505 128.725784 
L 219.643652 131.059676 
L 223.1268 124.683151 
L 226.609947 132.226621 
L 230.093094 128.309018 
L 233.576241 129.434287 
L 237.059389 131.309736 
L 240.542536 129.934407 
L 244.025683 134.935603 
L 250.991978 139.186619 
L 254.475125 147.251047 
L 257.958272 143.812725 
L 261.441419 157.024218 
L 264.924567 146.813443 
L 268.407714 157.461822 
L 271.890861 150.56434 
L 275.374009 152.189728 
L 278.857156 151.314519 
L 282.340303 150.939429 
L 285.82345 147.188532 
L 289.306598 154.106853 
L 292.789745 142.187337 
L 296.272892 145.354761 
L 299.756039 135.310692 
L 303.239187 135.060632 
L 306.722334 133.560274 
L 310.205481 137.186141 
L 313.688628 132.059915 
L 317.171776 134.414645 
L 320.654923 126.808659 
L 324.13807 136.4568 
L 327.621217 127.558839 
L 331.104365 128.725784 
L 334.587512 120.932254 
L 338.070659 119.306865 
L 341.553806 121.557404 
L 345.036954 118.056566 
L 348.520101 118.056566 
L 355.486396 116.556208 
L 358.969543 115.305909 
L 362.45269 113.55549 
L 365.935837 114.30567 
L 369.418985 114.555729 
L 372.902132 116.056088 
L 376.385279 117.056327 
L 379.868426 120.307105 
L 383.351574 122.307583 
L 386.834721 123.182792 
L 390.317868 115.555968 
L 393.801015 113.117885 
L 397.284163 123.532876 
L 400.76731 120.057045 
L 404.250457 122.432613 
L 407.733604 122.932732 
L 411.216752 120.265428 
L 414.699899 134.706381 
L 418.183046 129.309257 
L 421.666194 132.059915 
L 425.149341 140.978714 
L 428.632488 137.311171 
L 432.115635 139.311649 
L 435.598783 140.937038 
L 439.08193 136.435961 
L 442.565077 144.187815 
L 446.048224 136.185902 
L 449.531372 144.041947 
L 453.014519 131.434765 
L 456.497666 132.059915 
L 459.980813 140.54111 
L 463.463961 133.810333 
L 466.947108 132.560035 
L 473.913402 127.808898 
L 477.39655 128.058958 
L 480.879697 133.685304 
L 484.362844 129.184227 
L 487.845991 127.433809 
L 491.329139 127.058719 
L 494.812286 124.933211 
L 498.295433 123.807942 
L 501.778581 123.057762 
L 505.261728 122.182553 
L 508.744875 117.556447 
L 512.228022 114.805789 
L 515.71117 113.80555 
L 519.194317 110.554773 
L 522.677464 108.804354 
L 526.160611 108.054175 
L 529.643759 108.304234 
L 533.126906 111.805072 
L 536.610053 114.05561 
L 540.0932 115.055849 
L 543.576348 121.140637 
L 547.059495 120.557164 
L 554.025789 122.891056 
L 557.508937 118.306626 
L 560.992084 114.430699 
L 564.475231 121.432374 
L 567.958379 123.557882 
L 571.441526 113.701358 
L 574.924673 120.619679 
L 578.40782 126.537761 
L 581.890968 119.536087 
L 585.374115 125.745905 
L 588.857262 130.059437 
L 592.340409 133.810333 
L 595.823557 132.518358 
L 599.306704 138.18638 
L 602.789851 138.207218 
L 606.272998 151.627094 
L 609.756146 138.936559 
L 613.239293 146.463359 
L 616.72244 136.4568 
L 620.205587 141.912271 
L 623.688735 140.686978 
L 627.171882 137.186141 
L 630.655029 115.305909 
L 634.138177 128.434048 
L 637.621324 157.315954 
L 641.104471 146.813443 
L 644.587618 146.813443 
L 648.070766 150.31428 
L 651.553913 152.064698 
L 655.03706 160.816791 
L 662.003355 164.317628 
L 665.486502 153.815117 
L 672.452796 157.315954 
L 675.935944 155.565536 
L 679.419091 150.31428 
L 679.419091 150.31428 
" clip-path="url(#peb7e63c757)" style="fill: none; stroke-dasharray: 5.55,2.4; stroke-dashoffset: 0; stroke: #808080; stroke-width: 1.5"/>
   </g>
   <g id="patch_3">
    <path d="M 54.02 246.04 
L 54.02 26.88 
" style="fill: none; stroke: #000000; stroke-width: 0.8; stroke-linejoin: miter; stroke-linecap: square"/>
   </g>
   <g id="patch_4">
    <path d="M 709.2 246.04 
L 709.2 26.88 
" style="fill: none; stroke: #000000; stroke-width: 0.8; stroke-linejoin: miter; stroke-linecap: square"/>
   </g>
   <g id="patch_5">
    <path d="M 54.02 246.04 
L 709.2 246.04 
" style="fill: none; stroke: #000000; stroke-width: 0.8; stroke-linejoin: miter; stroke-linecap: square"/>
   </g>
   <g id="patch_6">
    <path d="M 54.02 26.88 
L 709.2 26.88 
" style="fill: none; stroke: #000000; stroke-width: 0.8; stroke-linejoin: miter; stroke-linecap: square"/>
   </g>
   <g id="text_18">
    <!-- Temperatuur - v001/c00003/d001 -->
    <g transform="translate(280.688125 20.88) scale(0.12 -0.12)">
     <defs>
      <path id="DejaVuSans-76" d="M 191 3500 
L 800 3500 
L 1894 563 
L 2988 3500 
L 3597 3500 
L 2284 0 
L 1503 0 
L 191 3500 
z
" transform="scale(0.015625)"/>
      <path id="DejaVuSans-2f" d="M 1625 4666 
L 2156 4666 
L 531 -594 
L 0 -594 
L 1625 4666 
z
" transform="scale(0.015625)"/>
      <path id="DejaVuSans-63" d="M 3122 3366 
L 3122 2828 
Q 2878 2963 2633 3030 
Q 2388 3097 2138 3097 
Q 1578 3097 1268 2742 
Q 959 2388 959 1747 
Q 959 1106 1268 751 
Q 1578 397 2138 397 
Q 2388 397 2633 464 
Q 2878 531 3122 666 
L 3122 134 
Q 2881 22 2623 -34 
Q 2366 -91 2075 -91 
Q 1284 -91 818 406 
Q 353 903 353 1747 
Q 353 2603 823 3093 
Q 1294 3584 2113 3584 
Q 2378 3584 2631 3529 
Q 2884 3475 3122 3366 
z
" transform="scale(0.015625)"/>
     </defs>
     <use xlink:href="#DejaVuSans-54"/>
     <use xlink:href="#DejaVuSans-65" transform="translate(44.083984 0)"/>
     <use xlink:href="#DejaVuSans-6d" transform="translate(105.607422 0)"/>
     <use xlink:href="#DejaVuSans-70" transform="translate(203.019531 0)"/>
     <use xlink:href="#DejaVuSans-65" transform="translate(266.496094 0)"/>
     <use xlink:href="#DejaVuSans-72" transform="translate(328.019531 0)"/>
     <use xlink:href="#DejaVuSans-61" transform="translate(369.132812 0)"/>
     <use xlink:href="#DejaVuSans-74" transform="translate(430.412109 0)"/>
     <use xlink:href="#DejaVuSans-75" transform="translate(469.621094 0)"/>
     <use xlink:href="#DejaVuSans-75" transform="translate(533 0)"/>
     <use xlink:href="#DejaVuSans-72" transform="translate(596.378906 0)"/>
     <use xlink:href="#DejaVuSans-20" transform="translate(637.492188 0)"/>
     <use xlink:href="#DejaVuSans-2d" transform="translate(669.279297 0)"/>
     <use xlink:href="#DejaVuSans-20" transform="translate(705.363281 0)"/>
     <use xlink:href="#DejaVuSans-76" transform="translate(737.150391 0)"/>
     <use xlink:href="#DejaVuSans-30" transform="translate(796.330078 0)"/>
     <use xlink:href="#DejaVuSans-30" transform="translate(859.953125 0)"/>
     <use xlink:href="#DejaVuSans-31" transform="translate(923.576172 0)"/>
     <use xlink:href="#DejaVuSans-2f" transform="translate(987.199219 0)"/>
     <use xlink:href="#DejaVuSans-63" transform="translate(1020.890625 0)"/>
     <use xlink:href="#DejaVuSans-30" transform="translate(1075.871094 0)"/>
     <use xlink:href="#DejaVuSans-30" transform="translate(1139.494141 0)"/>
     <use xlink:href="#DejaVuSans-30" transform="translate(1203.117188 0)"/>
     <use xlink:href="#DejaVuSans-30" transform="translate(1266.740234 0)"/>
     <use xlink:href="#DejaVuSans-33" transform="translate(1330.363281 0)"/>
     <use xlink:href="#DejaVuSans-2f" transform="translate(1393.986328 0)"/>
     <use xlink:href="#DejaVuSans-64" transform="translate(1427.677734 0)"/>
     <use xlink:href="#DejaVuSans-30" transform="translate(1491.154297 0)"/>
     <use xlink:href="#DejaVuSans-30" transform="translate(1554.777344 0)"/>
     <use xlink:href="#DejaVuSans-31" transform="translate(1618.400391 0)"/>
    </g>
   </g>
   <g id="legend_1">
    <g id="patch_7">
     <path d="M 551.25625 241.04 
L 702.2 241.04 
Q 704.2 241.04 704.2 239.04 
L 704.2 196.005625 
Q 704.2 194.005625 702.2 194.005625 
L 551.25625 194.005625 
Q 549.25625 194.005625 549.25625 196.005625 
L 549.25625 239.04 
Q 549.25625 241.04 551.25625 241.04 
z
" style="fill: #ffffff; opacity: 0.8; stroke: #cccccc; stroke-linejoin: miter"/>
    </g>
    <g id="line2d_18">
     <path d="M 553.25625 202.104062 
L 563.25625 202.104062 
L 573.25625 202.104062 
" style="fill: none; stroke: #1f77b4; stroke-width: 2; stroke-linecap: square"/>
    </g>
    <g id="text_19">
     <!-- Hive -->
     <g transform="translate(581.25625 205.604062) scale(0.1 -0.1)">
      <defs>
       <path id="DejaVuSans-48" d="M 628 4666 
L 1259 4666 
L 1259 2753 
L 3553 2753 
L 3553 4666 
L 4184 4666 
L 4184 0 
L 3553 0 
L 3553 2222 
L 1259 2222 
L 1259 0 
L 628 0 
L 628 4666 
z
" transform="scale(0.015625)"/>
      </defs>
      <use xlink:href="#DejaVuSans-48"/>
      <use xlink:href="#DejaVuSans-69" transform="translate(75.195312 0)"/>
      <use xlink:href="#DejaVuSans-76" transform="translate(102.978516 0)"/>
      <use xlink:href="#DejaVuSans-65" transform="translate(162.158203 0)"/>
     </g>
    </g>
    <g id="line2d_19">
     <path d="M 553.25625 216.782187 
L 563.25625 216.782187 
L 573.25625 216.782187 
" style="fill: none; stroke-dasharray: 5.55,2.4; stroke-dashoffset: 0; stroke: #808080; stroke-width: 1.5"/>
    </g>
    <g id="text_20">
     <!-- Gemiddelde (alle hives) -->
     <g transform="translate(581.25625 220.282187) scale(0.1 -0.1)">
      <defs>
       <path id="DejaVuSans-47" d="M 3809 666 
L 3809 1919 
L 2778 1919 
L 2778 2438 
L 4434 2438 
L 4434 434 
Q 4069 175 3628 42 
Q 3188 -91 2688 -91 
Q 1594 -91 976 548 
Q 359 1188 359 2328 
Q 359 3472 976 4111 
Q 1594 4750 2688 4750 
Q 3144 4750 3555 4637 
Q 3966 4525 4313 4306 
L 4313 3634 
Q 3963 3931 3569 4081 
Q 3175 4231 2741 4231 
Q 1884 4231 1454 3753 
Q 1025 3275 1025 2328 
Q 1025 1384 1454 906 
Q 1884 428 2741 428 
Q 3075 428 3337 486 
Q 3600 544 3809 666 
z
" transform="scale(0.015625)"/>
       <path id="DejaVuSans-6c" d="M 603 4863 
L 1178 4863 
L 1178 0 
L 603 0 
L 603 4863 
z
" transform="scale(0.015625)"/>
       <path id="DejaVuSans-68" d="M 3513 2113 
L 3513 0 
L 2938 0 
L 2938 2094 
Q 2938 2591 2744 2837 
Q 2550 3084 2163 3084 
Q 1697 3084 1428 2787 
Q 1159 2491 1159 1978 
L 1159 0 
L 581 0 
L 581 4863 
L 1159 4863 
L 1159 2956 
Q 1366 3272 1645 3428 
Q 1925 3584 2291 3584 
Q 2894 3584 3203 3211 
Q 3513 2838 3513 2113 
z
" transform="scale(0.015625)"/>
       <path id="DejaVuSans-73" d="M 2834 3397 
L 2834 2853 
Q 2591 2978 2328 3040 
Q 2066 3103 1784 3103 
Q 1356 3103 1142 2972 
Q 928 2841 928 2578 
Q 928 2378 1081 2264 
Q 1234 2150 1697 2047 
L 1894 2003 
Q 2506 1872 2764 1633 
Q 3022 1394 3022 966 
Q 3022 478 2636 193 
Q 2250 -91 1575 -91 
Q 1294 -91 989 -36 
Q 684 19 347 128 
L 347 722 
Q 666 556 975 473 
Q 1284 391 1588 391 
Q 1994 391 2212 530 
Q 2431 669 2431 922 
Q 2431 1156 2273 1281 
Q 2116 1406 1581 1522 
L 1381 1569 
Q 847 1681 609 1914 
Q 372 2147 372 2553 
Q 372 3047 722 3315 
Q 1072 3584 1716 3584 
Q 2034 3584 2315 3537 
Q 2597 3491 2834 3397 
z
" transform="scale(0.015625)"/>
      </defs>
      <use xlink:href="#DejaVuSans-47"/>
      <use xlink:href="#DejaVuSans-65" transform="translate(77.490234 0)"/>
      <use xlink:href="#DejaVuSans-6d" transform="translate(139.013672 0)"/>
      <use xlink:href="#DejaVuSans-69" transform="translate(236.425781 0)"/>
      <use xlink:href="#DejaVuSans-64" transform="translate(264.208984 0)"/>
      <use xlink:href="#DejaVuSans-64" transform="translate(327.685547 0)"/>
      <use xlink:href="#DejaVuSans-65" transform="translate(391.162109 0)"/>
      <use xlink:href="#DejaVuSans-6c" transform="translate(452.685547 0)"/>
      <use xlink:href="#DejaVuSans-64" transform="translate(480.46875 0)"/>
      <use xlink:href="#DejaVuSans-65" transform="translate(543.945312 0)"/>
      <use xlink:href="#DejaVuSans-20" transform="translate(605.46875 0)"/>
      <use xlink:href="#DejaVuSans-28" transform="translate(637.255859 0)"/>
      <use xlink:href="#DejaVuSans-61" transform="translate(676.269531 0)"/>
      <use xlink:href="#DejaVuSans-6c" transform="translate(737.548828 0)"/>
      <use xlink:href="#DejaVuSans-6c" transform="translate(765.332031 0)"/>
      <use xlink:href="#DejaVuSans-65" transform="translate(793.115234 0)"/>
      <use xlink:href="#DejaVuSans-20" transform="translate(854.638672 0)"/>
      <use xlink:href="#DejaVuSans-68" transform="translate(886.425781 0)"/>
      <use xlink:href="#DejaVuSans-69" transform="translate(949.804688 0)"/>
      <use xlink:href="#DejaVuSans-76" transform="translate(977.587891 0)"/>
      <use xlink:href="#DejaVuSans-65" transform="translate(1036.767578 0)"/>
      <use xlink:href="#DejaVuSans-73" transform="translate(1098.291016 0)"/>
      <use xlink:href="#DejaVuSans-29" transform="translate(1150.390625 0)"/>
     </g>
    </g>
    <g id="patch_8">
     <path d="M 553.25625 234.960312 
L 573.25625 234.960312 
L 573.25625 227.960312 
L 553.25625 227.960312 
z
" style="fill: #808080; fill-opacity: 0.2; stroke: #808080; stroke-opacity: 0.2; stroke-linejoin: miter"/>
    </g>
    <g id="text_21">
     <!-- ±2 Std Dev -->
     <g transform="translate(581.25625 234.960312) scale(0.1 -0.1)">
      <defs>
       <path id="DejaVuSans-b1" d="M 2944 4013 
L 2944 2803 
L 4684 2803 
L 4684 2272 
L 2944 2272 
L 2944 1063 
L 2419 1063 
L 2419 2272 
L 678 2272 
L 678 2803 
L 2419 2803 
L 2419 4013 
L 2944 4013 
z
M 678 531 
L 4684 531 
L 4684 0 
L 678 0 
L 678 531 
z
" transform="scale(0.015625)"/>
       <path id="DejaVuSans-53" d="M 3425 4513 
L 3425 3897 
Q 3066 4069 2747 4153 
Q 2428 4238 2131 4238 
Q 1616 4238 1336 4038 
Q 1056 3838 1056 3469 
Q 1056 3159 1242 3001 
Q 1428 2844 1947 2747 
L 2328 2669 
Q 3034 2534 3370 2195 
Q 3706 1856 3706 1288 
Q 3706 609 3251 259 
Q 2797 -91 1919 -91 
Q 1588 -91 1214 -16 
Q 841 59 441 206 
L 441 856 
Q 825 641 1194 531 
Q 1563 422 1919 422 
Q 2459 422 2753 634 
Q 3047 847 3047 1241 
Q 3047 1584 2836 1778 
Q 2625 1972 2144 2069 
L 1759 2144 
Q 1053 2284 737 2584 
Q 422 2884 422 3419 
Q 422 4038 858 4394 
Q 1294 4750 2059 4750 
Q 2388 4750 2728 4690 
Q 3069 4631 3425 4513 
z
" transform="scale(0.015625)"/>
       <path id="DejaVuSans-44" d="M 1259 4147 
L 1259 519 
L 2022 519 
Q 2988 519 3436 956 
Q 3884 1394 3884 2338 
Q 3884 3275 3436 3711 
Q 2988 4147 2022 4147 
L 1259 4147 
z
M 628 4666 
L 1925 4666 
Q 3281 4666 3915 4102 
Q 4550 3538 4550 2338 
Q 4550 1131 3912 565 
Q 3275 0 1925 0 
L 628 0 
L 628 4666 
z
" transform="scale(0.015625)"/>
      </defs>
      <use xlink:href="#DejaVuSans-b1"/>
      <use xlink:href="#DejaVuSans-32" transform="translate(83.789062 0)"/>
      <use xlink:href="#DejaVuSans-20" transform="translate(147.412109 0)"/>
      <use xlink:href="#DejaVuSans-53" transform="translate(179.199219 0)"/>
      <use xlink:href="#DejaVuSans-74" transform="translate(242.675781 0)"/>
      <use xlink:href="#DejaVuSans-64" transform="translate(281.884766 0)"/>
      <use xlink:href="#DejaVuSans-20" transform="translate(345.361328 0)"/>
      <use xlink:href="#DejaVuSans-44" transform="translate(377.148438 0)"/>
      <use xlink:href="#DejaVuSans-65" transform="translate(454.150391 0)"/>
      <use xlink:href="#DejaVuSans-76" transform="translate(515.673828 0)"/>
     </g>
    </g>
   </g>
  </g>
 </g>
 <defs>
  <clipPath id="peb7e63c757">
   <rect x="54.02" y="26.88" width="655.18" height="219.16"/>
  </clipPath>
 </defs>
</svg>
