<?xml version="1.0" encoding="utf-8" standalone="no"?>
<!DOCTYPE svg PUBLIC "-//W3C//DTD SVG 1.1//EN"
  "http://www.w3.org/Graphics/SVG/1.1/DTD/svg11.dtd">
<svg xmlns:xlink="http://www.w3.org/1999/xlink" width="720pt" height="288pt" viewBox="0 0 720 288" xmlns="http://www.w3.org/2000/svg" version="1.1">
 <metadata>
  <rdf:RDF xmlns:dc="http://purl.org/dc/elements/1.1/" xmlns:cc="http://creativecommons.org/ns#" xmlns:rdf="http://www.w3.org/1999/02/22-rdf-syntax-ns#">
   <cc:Work>
    <dc:type rdf:resource="http://purl.org/dc/dcmitype/StillImage"/>
    <dc:date>2025-06-16T21:15:50.723601</dc:date>
    <dc:format>image/svg+xml</dc:format>
    <dc:creator>
     <cc:Agent>
      <dc:title>Matplotlib v3.10.3, https://matplotlib.org/</dc:title>
     </cc:Agent>
    </dc:creator>
   </cc:Work>
  </rdf:RDF>
 </metadata>
 <defs>
  <style type="text/css">*{stroke-linejoin: round; stroke-linecap: butt}</style>
 </defs>
 <g id="figure_1">
  <g id="patch_1">
   <path d="M 0 288 
L 720 288 
L 720 0 
L 0 0 
z
" style="fill: #ffffff"/>
  </g>
  <g id="axes_1">
   <g id="patch_2">
    <path d="M 50.87 246.04 
L 703.299115 246.04 
L 703.299115 26.88 
L 50.87 26.88 
z
" style="fill: #ffffff"/>
   </g>
   <g id="FillBetweenPolyCollection_1">
    <defs>
     <path id="m6af382f849" d="M 80.525869 -168.734558 
L 80.525869 -70.733426 
L 83.994392 -73.186409 
L 87.462914 -77.18335 
L 90.931437 -80.139581 
L 94.39996 -72.784698 
L 97.868482 -72.075396 
L 101.337005 -73.311715 
L 104.805528 -73.819378 
L 108.27405 -75.595106 
L 111.742573 -81.056987 
L 115.211096 -94.936346 
L 118.679618 -98.138577 
L 122.148141 -89.426673 
L 125.616664 -98.914226 
L 129.085186 -96.153135 
L 132.553709 -99.167632 
L 136.022232 -105.834215 
L 139.490754 -107.756486 
L 142.959277 -108.94462 
L 146.4278 -107.575213 
L 149.896322 -111.411622 
L 153.364845 -135.160726 
L 156.833368 -118.619823 
L 160.30189 -119.672621 
L 163.770413 -126.661136 
L 167.238936 -131.238658 
L 170.707458 -151.801769 
L 174.175981 -122.433514 
L 177.644504 -125.846293 
L 181.113026 -112.753355 
L 184.581549 -115.464117 
L 188.050072 -107.32195 
L 191.518594 -106.342809 
L 194.987117 -103.587297 
L 198.45564 -96.40706 
L 201.924162 -89.263404 
L 205.392685 -108.351204 
L 208.861208 -101.750265 
L 212.32973 -97.306731 
L 215.798253 -94.480952 
L 219.266776 -86.057695 
L 222.735298 -93.193284 
L 226.203821 -103.184226 
L 229.672344 -118.17128 
L 233.140866 -120.268795 
L 236.609389 -118.428878 
L 240.077912 -126.893528 
L 243.546434 -123.154107 
L 247.014957 -116.51232 
L 250.48348 -112.930028 
L 253.952003 -100.518685 
L 257.420525 -105.954804 
L 260.889048 -111.299168 
L 264.357571 -113.819953 
L 267.826093 -109.904276 
L 271.294616 -112.832765 
L 274.763139 -104.497917 
L 278.231661 -105.370993 
L 281.700184 -113.227243 
L 285.168707 -118.801328 
L 288.637229 -124.911029 
L 292.105752 -124.621245 
L 295.574275 -123.33656 
L 299.042797 -127.627458 
L 302.51132 -124.952301 
L 305.979843 -129.440055 
L 309.448365 -133.143629 
L 312.916888 -133.500542 
L 316.385411 -133.748538 
L 319.853933 -133.507212 
L 323.322456 -133.422088 
L 326.790979 -133.647082 
L 330.259501 -134.814707 
L 333.728024 -134.985514 
L 337.196547 -138.660914 
L 340.665069 -140.430579 
L 344.133592 -144.258912 
L 347.602115 -145.505399 
L 351.070637 -147.333961 
L 354.53916 -142.929833 
L 358.007683 -134.886459 
L 361.476205 -126.494068 
L 364.944728 -118.351457 
L 368.413251 -112.348812 
L 371.881773 -109.188301 
L 375.350296 -107.874402 
L 378.818819 -105.588917 
L 382.287341 -103.749577 
L 385.755864 -82.322717 
L 389.224387 -77.391206 
L 392.692909 -82.478979 
L 396.161432 -89.901908 
L 399.629955 -103.207118 
L 403.098477 -101.246923 
L 406.567 -86.261873 
L 410.035523 -76.943125 
L 413.504045 -86.472401 
L 416.972568 -86.977032 
L 420.441091 -101.004554 
L 423.909614 -104.07546 
L 427.378136 -110.292365 
L 430.846659 -109.845278 
L 434.315182 -103.751566 
L 437.783704 -104.026069 
L 441.252227 -95.854241 
L 444.72075 -105.831513 
L 448.189272 -105.069751 
L 451.657795 -113.316343 
L 455.126318 -112.625765 
L 458.59484 -118.319093 
L 462.063363 -122.4449 
L 465.531886 -128.349023 
L 469.000408 -122.758348 
L 472.468931 -121.371597 
L 475.937454 -127.197242 
L 479.405976 -129.584721 
L 482.874499 -134.285045 
L 486.343022 -139.755815 
L 489.811544 -144.910764 
L 493.280067 -150.66348 
L 496.74859 -153.687746 
L 500.217112 -156.842874 
L 503.685635 -159.573947 
L 507.154158 -161.162119 
L 510.62268 -158.79096 
L 514.091203 -157.564223 
L 517.559726 -153.511092 
L 521.028248 -143.159205 
L 524.496771 -126.86775 
L 527.965294 -119.08823 
L 531.433816 -111.506408 
L 534.902339 -100.466211 
L 538.370862 -85.016297 
L 541.839384 -89.930564 
L 545.307907 -88.534706 
L 548.77643 -81.473004 
L 552.244952 -67.517255 
L 555.713475 -62.218238 
L 559.181998 -62.416629 
L 562.65052 -66.668785 
L 566.119043 -81.442227 
L 569.587566 -85.48096 
L 573.056088 -64.63263 
L 576.524611 -51.921818 
L 579.993134 -56.116364 
L 583.461656 -68.141444 
L 586.930179 -75.388515 
L 590.398702 -85.815371 
L 593.867224 -110.418187 
L 597.335747 -113.784771 
L 600.80427 -90.710143 
L 604.272793 -89.400504 
L 607.741315 -82.501767 
L 611.209838 -84.381559 
L 614.678361 -95.451193 
L 618.146883 -78.607945 
L 621.615406 -94.447334 
L 625.083929 -85.490345 
L 628.552451 -70.836825 
L 632.020974 -68.607496 
L 632.020974 -251.158182 
L 632.020974 -251.158182 
L 628.552451 -232.073808 
L 625.083929 -214.233872 
L 621.615406 -199.343556 
L 618.146883 -219.995533 
L 614.678361 -212.689558 
L 611.209838 -219.232283 
L 607.741315 -213.622898 
L 604.272793 -198.839428 
L 600.80427 -192.15024 
L 597.335747 -166.941811 
L 593.867224 -161.463343 
L 590.398702 -173.803949 
L 586.930179 -178.715009 
L 583.461656 -177.765299 
L 579.993134 -185.285444 
L 576.524611 -186.095797 
L 573.056088 -180.483002 
L 569.587566 -174.386367 
L 566.119043 -178.491026 
L 562.65052 -186.643629 
L 559.181998 -192.12954 
L 555.713475 -194.550574 
L 552.244952 -197.482871 
L 548.77643 -193.359493 
L 545.307907 -191.976833 
L 541.839384 -199.951864 
L 538.370862 -212.259245 
L 534.902339 -210.879793 
L 531.433816 -210.105193 
L 527.965294 -208.381355 
L 524.496771 -208.390504 
L 521.028248 -206.26369 
L 517.559726 -206.620046 
L 514.091203 -208.490824 
L 510.62268 -210.635724 
L 507.154158 -212.775777 
L 503.685635 -218.008707 
L 500.217112 -221.135335 
L 496.74859 -222.143164 
L 493.280067 -221.136534 
L 489.811544 -222.208514 
L 486.343022 -221.684422 
L 482.874499 -221.947049 
L 479.405976 -221.495738 
L 475.937454 -219.532111 
L 472.468931 -220.319137 
L 469.000408 -217.416091 
L 465.531886 -215.620862 
L 462.063363 -216.147318 
L 458.59484 -217.683181 
L 455.126318 -219.279688 
L 451.657795 -217.553132 
L 448.189272 -218.64206 
L 444.72075 -212.474378 
L 441.252227 -214.333351 
L 437.783704 -204.127239 
L 434.315182 -198.016352 
L 430.846659 -186.912276 
L 427.378136 -177.631124 
L 423.909614 -176.577348 
L 420.441091 -177.1054 
L 416.972568 -177.646375 
L 413.504045 -176.079051 
L 410.035523 -176.246855 
L 406.567 -172.861434 
L 403.098477 -163.979234 
L 399.629955 -164.67491 
L 396.161432 -171.688909 
L 392.692909 -176.418297 
L 389.224387 -178.464062 
L 385.755864 -178.825455 
L 382.287341 -171.365459 
L 378.818819 -178.030554 
L 375.350296 -183.091093 
L 371.881773 -186.081211 
L 368.413251 -187.620272 
L 364.944728 -187.240161 
L 361.476205 -185.313417 
L 358.007683 -184.992234 
L 354.53916 -183.315414 
L 351.070637 -185.080063 
L 347.602115 -188.396666 
L 344.133592 -188.578921 
L 340.665069 -190.815616 
L 337.196547 -191.285599 
L 333.728024 -192.549997 
L 330.259501 -190.498161 
L 326.790979 -187.879757 
L 323.322456 -186.579039 
L 319.853933 -182.039211 
L 316.385411 -183.549628 
L 312.916888 -180.623765 
L 309.448365 -178.174121 
L 305.979843 -181.180764 
L 302.51132 -180.780587 
L 299.042797 -175.816861 
L 295.574275 -171.57507 
L 292.105752 -169.386259 
L 288.637229 -166.214573 
L 285.168707 -169.706076 
L 281.700184 -174.639738 
L 278.231661 -176.201638 
L 274.763139 -181.212346 
L 271.294616 -168.309778 
L 267.826093 -170.484829 
L 264.357571 -171.786713 
L 260.889048 -171.274908 
L 257.420525 -171.138008 
L 253.952003 -175.104922 
L 250.48348 -176.914728 
L 247.014957 -176.402697 
L 243.546434 -168.046838 
L 240.077912 -164.552284 
L 236.609389 -172.687306 
L 233.140866 -178.457116 
L 229.672344 -179.980134 
L 226.203821 -191.303594 
L 222.735298 -200.34332 
L 219.266776 -201.997645 
L 215.798253 -200.826232 
L 212.32973 -196.314635 
L 208.861208 -198.444851 
L 205.392685 -200.536707 
L 201.924162 -216.745744 
L 198.45564 -208.939691 
L 194.987117 -211.930872 
L 191.518594 -213.140329 
L 188.050072 -230.199759 
L 184.581549 -226.188945 
L 181.113026 -232.61353 
L 177.644504 -229.208554 
L 174.175981 -230.448919 
L 170.707458 -222.198913 
L 167.238936 -228.110788 
L 163.770413 -231.558152 
L 160.30189 -227.000224 
L 156.833368 -224.888581 
L 153.364845 -217.128374 
L 149.896322 -221.284941 
L 146.4278 -220.657228 
L 142.959277 -200.932179 
L 139.490754 -196.563705 
L 136.022232 -200.416662 
L 132.553709 -206.386315 
L 129.085186 -212.150861 
L 125.616664 -211.358128 
L 122.148141 -216.5605 
L 118.679618 -206.822036 
L 115.211096 -205.546018 
L 111.742573 -209.162919 
L 108.27405 -212.460234 
L 104.805528 -207.360837 
L 101.337005 -200.88036 
L 97.868482 -193.659332 
L 94.39996 -183.889934 
L 90.931437 -169.019504 
L 87.462914 -164.893414 
L 83.994392 -166.517024 
L 80.525869 -168.734558 
z
" style="stroke: #808080; stroke-opacity: 0.2"/>
    </defs>
    <g clip-path="url(#p5bcb4e4166)">
     <use xlink:href="#m6af382f849" x="0" y="288" style="fill: #808080; fill-opacity: 0.2; stroke: #808080; stroke-opacity: 0.2"/>
    </g>
   </g>
   <g id="matplotlib.axis_1">
    <g id="xtick_1">
     <g id="line2d_1">
      <defs>
       <path id="m3ad48f24de" d="M 0 0 
L 0 3.5 
" style="stroke: #000000; stroke-width: 0.8"/>
      </defs>
      <g>
       <use xlink:href="#m3ad48f24de" x="101.337005" y="246.04" style="stroke: #000000; stroke-width: 0.8"/>
      </g>
     </g>
     <g id="text_1">
      <!-- 06-14 00 -->
      <g transform="translate(78.856536 260.638438) scale(0.1 -0.1)">
       <defs>
        <path id="DejaVuSans-30" d="M 2034 4250 
Q 1547 4250 1301 3770 
Q 1056 3291 1056 2328 
Q 1056 1369 1301 889 
Q 1547 409 2034 409 
Q 2525 409 2770 889 
Q 3016 1369 3016 2328 
Q 3016 3291 2770 3770 
Q 2525 4250 2034 4250 
z
M 2034 4750 
Q 2819 4750 3233 4129 
Q 3647 3509 3647 2328 
Q 3647 1150 3233 529 
Q 2819 -91 2034 -91 
Q 1250 -91 836 529 
Q 422 1150 422 2328 
Q 422 3509 836 4129 
Q 1250 4750 2034 4750 
z
" transform="scale(0.015625)"/>
        <path id="DejaVuSans-36" d="M 2113 2584 
Q 1688 2584 1439 2293 
Q 1191 2003 1191 1497 
Q 1191 994 1439 701 
Q 1688 409 2113 409 
Q 2538 409 2786 701 
Q 3034 994 3034 1497 
Q 3034 2003 2786 2293 
Q 2538 2584 2113 2584 
z
M 3366 4563 
L 3366 3988 
Q 3128 4100 2886 4159 
Q 2644 4219 2406 4219 
Q 1781 4219 1451 3797 
Q 1122 3375 1075 2522 
Q 1259 2794 1537 2939 
Q 1816 3084 2150 3084 
Q 2853 3084 3261 2657 
Q 3669 2231 3669 1497 
Q 3669 778 3244 343 
Q 2819 -91 2113 -91 
Q 1303 -91 875 529 
Q 447 1150 447 2328 
Q 447 3434 972 4092 
Q 1497 4750 2381 4750 
Q 2619 4750 2861 4703 
Q 3103 4656 3366 4563 
z
" transform="scale(0.015625)"/>
        <path id="DejaVuSans-2d" d="M 313 2009 
L 1997 2009 
L 1997 1497 
L 313 1497 
L 313 2009 
z
" transform="scale(0.015625)"/>
        <path id="DejaVuSans-31" d="M 794 531 
L 1825 531 
L 1825 4091 
L 703 3866 
L 703 4441 
L 1819 4666 
L 2450 4666 
L 2450 531 
L 3481 531 
L 3481 0 
L 794 0 
L 794 531 
z
" transform="scale(0.015625)"/>
        <path id="DejaVuSans-34" d="M 2419 4116 
L 825 1625 
L 2419 1625 
L 2419 4116 
z
M 2253 4666 
L 3047 4666 
L 3047 1625 
L 3713 1625 
L 3713 1100 
L 3047 1100 
L 3047 0 
L 2419 0 
L 2419 1100 
L 313 1100 
L 313 1709 
L 2253 4666 
z
" transform="scale(0.015625)"/>
        <path id="DejaVuSans-20" transform="scale(0.015625)"/>
       </defs>
       <use xlink:href="#DejaVuSans-30"/>
       <use xlink:href="#DejaVuSans-36" transform="translate(63.623047 0)"/>
       <use xlink:href="#DejaVuSans-2d" transform="translate(127.246094 0)"/>
       <use xlink:href="#DejaVuSans-31" transform="translate(163.330078 0)"/>
       <use xlink:href="#DejaVuSans-34" transform="translate(226.953125 0)"/>
       <use xlink:href="#DejaVuSans-20" transform="translate(290.576172 0)"/>
       <use xlink:href="#DejaVuSans-30" transform="translate(322.363281 0)"/>
       <use xlink:href="#DejaVuSans-30" transform="translate(385.986328 0)"/>
      </g>
     </g>
    </g>
    <g id="xtick_2">
     <g id="line2d_2">
      <g>
       <use xlink:href="#m3ad48f24de" x="184.581549" y="246.04" style="stroke: #000000; stroke-width: 0.8"/>
      </g>
     </g>
     <g id="text_2">
      <!-- 06-14 12 -->
      <g transform="translate(162.10108 260.638438) scale(0.1 -0.1)">
       <defs>
        <path id="DejaVuSans-32" d="M 1228 531 
L 3431 531 
L 3431 0 
L 469 0 
L 469 531 
Q 828 903 1448 1529 
Q 2069 2156 2228 2338 
Q 2531 2678 2651 2914 
Q 2772 3150 2772 3378 
Q 2772 3750 2511 3984 
Q 2250 4219 1831 4219 
Q 1534 4219 1204 4116 
Q 875 4013 500 3803 
L 500 4441 
Q 881 4594 1212 4672 
Q 1544 4750 1819 4750 
Q 2544 4750 2975 4387 
Q 3406 4025 3406 3419 
Q 3406 3131 3298 2873 
Q 3191 2616 2906 2266 
Q 2828 2175 2409 1742 
Q 1991 1309 1228 531 
z
" transform="scale(0.015625)"/>
       </defs>
       <use xlink:href="#DejaVuSans-30"/>
       <use xlink:href="#DejaVuSans-36" transform="translate(63.623047 0)"/>
       <use xlink:href="#DejaVuSans-2d" transform="translate(127.246094 0)"/>
       <use xlink:href="#DejaVuSans-31" transform="translate(163.330078 0)"/>
       <use xlink:href="#DejaVuSans-34" transform="translate(226.953125 0)"/>
       <use xlink:href="#DejaVuSans-20" transform="translate(290.576172 0)"/>
       <use xlink:href="#DejaVuSans-31" transform="translate(322.363281 0)"/>
       <use xlink:href="#DejaVuSans-32" transform="translate(385.986328 0)"/>
      </g>
     </g>
    </g>
    <g id="xtick_3">
     <g id="line2d_3">
      <g>
       <use xlink:href="#m3ad48f24de" x="267.826093" y="246.04" style="stroke: #000000; stroke-width: 0.8"/>
      </g>
     </g>
     <g id="text_3">
      <!-- 06-15 00 -->
      <g transform="translate(245.345624 260.638438) scale(0.1 -0.1)">
       <defs>
        <path id="DejaVuSans-35" d="M 691 4666 
L 3169 4666 
L 3169 4134 
L 1269 4134 
L 1269 2991 
Q 1406 3038 1543 3061 
Q 1681 3084 1819 3084 
Q 2600 3084 3056 2656 
Q 3513 2228 3513 1497 
Q 3513 744 3044 326 
Q 2575 -91 1722 -91 
Q 1428 -91 1123 -41 
Q 819 9 494 109 
L 494 744 
Q 775 591 1075 516 
Q 1375 441 1709 441 
Q 2250 441 2565 725 
Q 2881 1009 2881 1497 
Q 2881 1984 2565 2268 
Q 2250 2553 1709 2553 
Q 1456 2553 1204 2497 
Q 953 2441 691 2322 
L 691 4666 
z
" transform="scale(0.015625)"/>
       </defs>
       <use xlink:href="#DejaVuSans-30"/>
       <use xlink:href="#DejaVuSans-36" transform="translate(63.623047 0)"/>
       <use xlink:href="#DejaVuSans-2d" transform="translate(127.246094 0)"/>
       <use xlink:href="#DejaVuSans-31" transform="translate(163.330078 0)"/>
       <use xlink:href="#DejaVuSans-35" transform="translate(226.953125 0)"/>
       <use xlink:href="#DejaVuSans-20" transform="translate(290.576172 0)"/>
       <use xlink:href="#DejaVuSans-30" transform="translate(322.363281 0)"/>
       <use xlink:href="#DejaVuSans-30" transform="translate(385.986328 0)"/>
      </g>
     </g>
    </g>
    <g id="xtick_4">
     <g id="line2d_4">
      <g>
       <use xlink:href="#m3ad48f24de" x="351.070637" y="246.04" style="stroke: #000000; stroke-width: 0.8"/>
      </g>
     </g>
     <g id="text_4">
      <!-- 06-15 12 -->
      <g transform="translate(328.590169 260.638438) scale(0.1 -0.1)">
       <use xlink:href="#DejaVuSans-30"/>
       <use xlink:href="#DejaVuSans-36" transform="translate(63.623047 0)"/>
       <use xlink:href="#DejaVuSans-2d" transform="translate(127.246094 0)"/>
       <use xlink:href="#DejaVuSans-31" transform="translate(163.330078 0)"/>
       <use xlink:href="#DejaVuSans-35" transform="translate(226.953125 0)"/>
       <use xlink:href="#DejaVuSans-20" transform="translate(290.576172 0)"/>
       <use xlink:href="#DejaVuSans-31" transform="translate(322.363281 0)"/>
       <use xlink:href="#DejaVuSans-32" transform="translate(385.986328 0)"/>
      </g>
     </g>
    </g>
    <g id="xtick_5">
     <g id="line2d_5">
      <g>
       <use xlink:href="#m3ad48f24de" x="434.315182" y="246.04" style="stroke: #000000; stroke-width: 0.8"/>
      </g>
     </g>
     <g id="text_5">
      <!-- 06-16 00 -->
      <g transform="translate(411.834713 260.638438) scale(0.1 -0.1)">
       <use xlink:href="#DejaVuSans-30"/>
       <use xlink:href="#DejaVuSans-36" transform="translate(63.623047 0)"/>
       <use xlink:href="#DejaVuSans-2d" transform="translate(127.246094 0)"/>
       <use xlink:href="#DejaVuSans-31" transform="translate(163.330078 0)"/>
       <use xlink:href="#DejaVuSans-36" transform="translate(226.953125 0)"/>
       <use xlink:href="#DejaVuSans-20" transform="translate(290.576172 0)"/>
       <use xlink:href="#DejaVuSans-30" transform="translate(322.363281 0)"/>
       <use xlink:href="#DejaVuSans-30" transform="translate(385.986328 0)"/>
      </g>
     </g>
    </g>
    <g id="xtick_6">
     <g id="line2d_6">
      <g>
       <use xlink:href="#m3ad48f24de" x="517.559726" y="246.04" style="stroke: #000000; stroke-width: 0.8"/>
      </g>
     </g>
     <g id="text_6">
      <!-- 06-16 12 -->
      <g transform="translate(495.079257 260.638438) scale(0.1 -0.1)">
       <use xlink:href="#DejaVuSans-30"/>
       <use xlink:href="#DejaVuSans-36" transform="translate(63.623047 0)"/>
       <use xlink:href="#DejaVuSans-2d" transform="translate(127.246094 0)"/>
       <use xlink:href="#DejaVuSans-31" transform="translate(163.330078 0)"/>
       <use xlink:href="#DejaVuSans-36" transform="translate(226.953125 0)"/>
       <use xlink:href="#DejaVuSans-20" transform="translate(290.576172 0)"/>
       <use xlink:href="#DejaVuSans-31" transform="translate(322.363281 0)"/>
       <use xlink:href="#DejaVuSans-32" transform="translate(385.986328 0)"/>
      </g>
     </g>
    </g>
    <g id="xtick_7">
     <g id="line2d_7">
      <g>
       <use xlink:href="#m3ad48f24de" x="600.80427" y="246.04" style="stroke: #000000; stroke-width: 0.8"/>
      </g>
     </g>
     <g id="text_7">
      <!-- 06-17 00 -->
      <g transform="translate(578.323801 260.638438) scale(0.1 -0.1)">
       <defs>
        <path id="DejaVuSans-37" d="M 525 4666 
L 3525 4666 
L 3525 4397 
L 1831 0 
L 1172 0 
L 2766 4134 
L 525 4134 
L 525 4666 
z
" transform="scale(0.015625)"/>
       </defs>
       <use xlink:href="#DejaVuSans-30"/>
       <use xlink:href="#DejaVuSans-36" transform="translate(63.623047 0)"/>
       <use xlink:href="#DejaVuSans-2d" transform="translate(127.246094 0)"/>
       <use xlink:href="#DejaVuSans-31" transform="translate(163.330078 0)"/>
       <use xlink:href="#DejaVuSans-37" transform="translate(226.953125 0)"/>
       <use xlink:href="#DejaVuSans-20" transform="translate(290.576172 0)"/>
       <use xlink:href="#DejaVuSans-30" transform="translate(322.363281 0)"/>
       <use xlink:href="#DejaVuSans-30" transform="translate(385.986328 0)"/>
      </g>
     </g>
    </g>
    <g id="xtick_8">
     <g id="line2d_8">
      <g>
       <use xlink:href="#m3ad48f24de" x="684.048814" y="246.04" style="stroke: #000000; stroke-width: 0.8"/>
      </g>
     </g>
     <g id="text_8">
      <!-- 06-17 12 -->
      <g transform="translate(661.568345 260.638438) scale(0.1 -0.1)">
       <use xlink:href="#DejaVuSans-30"/>
       <use xlink:href="#DejaVuSans-36" transform="translate(63.623047 0)"/>
       <use xlink:href="#DejaVuSans-2d" transform="translate(127.246094 0)"/>
       <use xlink:href="#DejaVuSans-31" transform="translate(163.330078 0)"/>
       <use xlink:href="#DejaVuSans-37" transform="translate(226.953125 0)"/>
       <use xlink:href="#DejaVuSans-20" transform="translate(290.576172 0)"/>
       <use xlink:href="#DejaVuSans-31" transform="translate(322.363281 0)"/>
       <use xlink:href="#DejaVuSans-32" transform="translate(385.986328 0)"/>
      </g>
     </g>
    </g>
    <g id="text_9">
     <!-- Tijd -->
     <g transform="translate(368.234557 274.316562) scale(0.1 -0.1)">
      <defs>
       <path id="DejaVuSans-54" d="M -19 4666 
L 3928 4666 
L 3928 4134 
L 2272 4134 
L 2272 0 
L 1638 0 
L 1638 4134 
L -19 4134 
L -19 4666 
z
" transform="scale(0.015625)"/>
       <path id="DejaVuSans-69" d="M 603 3500 
L 1178 3500 
L 1178 0 
L 603 0 
L 603 3500 
z
M 603 4863 
L 1178 4863 
L 1178 4134 
L 603 4134 
L 603 4863 
z
" transform="scale(0.015625)"/>
       <path id="DejaVuSans-6a" d="M 603 3500 
L 1178 3500 
L 1178 -63 
Q 1178 -731 923 -1031 
Q 669 -1331 103 -1331 
L -116 -1331 
L -116 -844 
L 38 -844 
Q 366 -844 484 -692 
Q 603 -541 603 -63 
L 603 3500 
z
M 603 4863 
L 1178 4863 
L 1178 4134 
L 603 4134 
L 603 4863 
z
" transform="scale(0.015625)"/>
       <path id="DejaVuSans-64" d="M 2906 2969 
L 2906 4863 
L 3481 4863 
L 3481 0 
L 2906 0 
L 2906 525 
Q 2725 213 2448 61 
Q 2172 -91 1784 -91 
Q 1150 -91 751 415 
Q 353 922 353 1747 
Q 353 2572 751 3078 
Q 1150 3584 1784 3584 
Q 2172 3584 2448 3432 
Q 2725 3281 2906 2969 
z
M 947 1747 
Q 947 1113 1208 752 
Q 1469 391 1925 391 
Q 2381 391 2643 752 
Q 2906 1113 2906 1747 
Q 2906 2381 2643 2742 
Q 2381 3103 1925 3103 
Q 1469 3103 1208 2742 
Q 947 2381 947 1747 
z
" transform="scale(0.015625)"/>
      </defs>
      <use xlink:href="#DejaVuSans-54"/>
      <use xlink:href="#DejaVuSans-69" transform="translate(57.958984 0)"/>
      <use xlink:href="#DejaVuSans-6a" transform="translate(85.742188 0)"/>
      <use xlink:href="#DejaVuSans-64" transform="translate(113.525391 0)"/>
     </g>
    </g>
   </g>
   <g id="matplotlib.axis_2">
    <g id="ytick_1">
     <g id="line2d_9">
      <defs>
       <path id="m150fce950d" d="M 0 0 
L -3.5 0 
" style="stroke: #000000; stroke-width: 0.8"/>
      </defs>
      <g>
       <use xlink:href="#m150fce950d" x="50.87" y="220.775953" style="stroke: #000000; stroke-width: 0.8"/>
      </g>
     </g>
     <g id="text_10">
      <!-- 20 -->
      <g transform="translate(31.145 224.575172) scale(0.1 -0.1)">
       <use xlink:href="#DejaVuSans-32"/>
       <use xlink:href="#DejaVuSans-30" transform="translate(63.623047 0)"/>
      </g>
     </g>
    </g>
    <g id="ytick_2">
     <g id="line2d_10">
      <g>
       <use xlink:href="#m150fce950d" x="50.87" y="181.220439" style="stroke: #000000; stroke-width: 0.8"/>
      </g>
     </g>
     <g id="text_11">
      <!-- 40 -->
      <g transform="translate(31.145 185.019658) scale(0.1 -0.1)">
       <use xlink:href="#DejaVuSans-34"/>
       <use xlink:href="#DejaVuSans-30" transform="translate(63.623047 0)"/>
      </g>
     </g>
    </g>
    <g id="ytick_3">
     <g id="line2d_11">
      <g>
       <use xlink:href="#m150fce950d" x="50.87" y="141.664925" style="stroke: #000000; stroke-width: 0.8"/>
      </g>
     </g>
     <g id="text_12">
      <!-- 60 -->
      <g transform="translate(31.145 145.464144) scale(0.1 -0.1)">
       <use xlink:href="#DejaVuSans-36"/>
       <use xlink:href="#DejaVuSans-30" transform="translate(63.623047 0)"/>
      </g>
     </g>
    </g>
    <g id="ytick_4">
     <g id="line2d_12">
      <g>
       <use xlink:href="#m150fce950d" x="50.87" y="102.109411" style="stroke: #000000; stroke-width: 0.8"/>
      </g>
     </g>
     <g id="text_13">
      <!-- 80 -->
      <g transform="translate(31.145 105.908629) scale(0.1 -0.1)">
       <defs>
        <path id="DejaVuSans-38" d="M 2034 2216 
Q 1584 2216 1326 1975 
Q 1069 1734 1069 1313 
Q 1069 891 1326 650 
Q 1584 409 2034 409 
Q 2484 409 2743 651 
Q 3003 894 3003 1313 
Q 3003 1734 2745 1975 
Q 2488 2216 2034 2216 
z
M 1403 2484 
Q 997 2584 770 2862 
Q 544 3141 544 3541 
Q 544 4100 942 4425 
Q 1341 4750 2034 4750 
Q 2731 4750 3128 4425 
Q 3525 4100 3525 3541 
Q 3525 3141 3298 2862 
Q 3072 2584 2669 2484 
Q 3125 2378 3379 2068 
Q 3634 1759 3634 1313 
Q 3634 634 3220 271 
Q 2806 -91 2034 -91 
Q 1263 -91 848 271 
Q 434 634 434 1313 
Q 434 1759 690 2068 
Q 947 2378 1403 2484 
z
M 1172 3481 
Q 1172 3119 1398 2916 
Q 1625 2713 2034 2713 
Q 2441 2713 2670 2916 
Q 2900 3119 2900 3481 
Q 2900 3844 2670 4047 
Q 2441 4250 2034 4250 
Q 1625 4250 1398 4047 
Q 1172 3844 1172 3481 
z
" transform="scale(0.015625)"/>
       </defs>
       <use xlink:href="#DejaVuSans-38"/>
       <use xlink:href="#DejaVuSans-30" transform="translate(63.623047 0)"/>
      </g>
     </g>
    </g>
    <g id="ytick_5">
     <g id="line2d_13">
      <g>
       <use xlink:href="#m150fce950d" x="50.87" y="62.553896" style="stroke: #000000; stroke-width: 0.8"/>
      </g>
     </g>
     <g id="text_14">
      <!-- 100 -->
      <g transform="translate(24.7825 66.353115) scale(0.1 -0.1)">
       <use xlink:href="#DejaVuSans-31"/>
       <use xlink:href="#DejaVuSans-30" transform="translate(63.623047 0)"/>
       <use xlink:href="#DejaVuSans-30" transform="translate(127.246094 0)"/>
      </g>
     </g>
    </g>
    <g id="text_15">
     <!-- (Rel.) Buiten Vochtigheid (%) -->
     <g transform="translate(18.702813 208.620937) rotate(-90) scale(0.1 -0.1)">
      <defs>
       <path id="DejaVuSans-28" d="M 1984 4856 
Q 1566 4138 1362 3434 
Q 1159 2731 1159 2009 
Q 1159 1288 1364 580 
Q 1569 -128 1984 -844 
L 1484 -844 
Q 1016 -109 783 600 
Q 550 1309 550 2009 
Q 550 2706 781 3412 
Q 1013 4119 1484 4856 
L 1984 4856 
z
" transform="scale(0.015625)"/>
       <path id="DejaVuSans-52" d="M 2841 2188 
Q 3044 2119 3236 1894 
Q 3428 1669 3622 1275 
L 4263 0 
L 3584 0 
L 2988 1197 
Q 2756 1666 2539 1819 
Q 2322 1972 1947 1972 
L 1259 1972 
L 1259 0 
L 628 0 
L 628 4666 
L 2053 4666 
Q 2853 4666 3247 4331 
Q 3641 3997 3641 3322 
Q 3641 2881 3436 2590 
Q 3231 2300 2841 2188 
z
M 1259 4147 
L 1259 2491 
L 2053 2491 
Q 2509 2491 2742 2702 
Q 2975 2913 2975 3322 
Q 2975 3731 2742 3939 
Q 2509 4147 2053 4147 
L 1259 4147 
z
" transform="scale(0.015625)"/>
       <path id="DejaVuSans-65" d="M 3597 1894 
L 3597 1613 
L 953 1613 
Q 991 1019 1311 708 
Q 1631 397 2203 397 
Q 2534 397 2845 478 
Q 3156 559 3463 722 
L 3463 178 
Q 3153 47 2828 -22 
Q 2503 -91 2169 -91 
Q 1331 -91 842 396 
Q 353 884 353 1716 
Q 353 2575 817 3079 
Q 1281 3584 2069 3584 
Q 2775 3584 3186 3129 
Q 3597 2675 3597 1894 
z
M 3022 2063 
Q 3016 2534 2758 2815 
Q 2500 3097 2075 3097 
Q 1594 3097 1305 2825 
Q 1016 2553 972 2059 
L 3022 2063 
z
" transform="scale(0.015625)"/>
       <path id="DejaVuSans-6c" d="M 603 4863 
L 1178 4863 
L 1178 0 
L 603 0 
L 603 4863 
z
" transform="scale(0.015625)"/>
       <path id="DejaVuSans-2e" d="M 684 794 
L 1344 794 
L 1344 0 
L 684 0 
L 684 794 
z
" transform="scale(0.015625)"/>
       <path id="DejaVuSans-29" d="M 513 4856 
L 1013 4856 
Q 1481 4119 1714 3412 
Q 1947 2706 1947 2009 
Q 1947 1309 1714 600 
Q 1481 -109 1013 -844 
L 513 -844 
Q 928 -128 1133 580 
Q 1338 1288 1338 2009 
Q 1338 2731 1133 3434 
Q 928 4138 513 4856 
z
" transform="scale(0.015625)"/>
       <path id="DejaVuSans-42" d="M 1259 2228 
L 1259 519 
L 2272 519 
Q 2781 519 3026 730 
Q 3272 941 3272 1375 
Q 3272 1813 3026 2020 
Q 2781 2228 2272 2228 
L 1259 2228 
z
M 1259 4147 
L 1259 2741 
L 2194 2741 
Q 2656 2741 2882 2914 
Q 3109 3088 3109 3444 
Q 3109 3797 2882 3972 
Q 2656 4147 2194 4147 
L 1259 4147 
z
M 628 4666 
L 2241 4666 
Q 2963 4666 3353 4366 
Q 3744 4066 3744 3513 
Q 3744 3084 3544 2831 
Q 3344 2578 2956 2516 
Q 3422 2416 3680 2098 
Q 3938 1781 3938 1306 
Q 3938 681 3513 340 
Q 3088 0 2303 0 
L 628 0 
L 628 4666 
z
" transform="scale(0.015625)"/>
       <path id="DejaVuSans-75" d="M 544 1381 
L 544 3500 
L 1119 3500 
L 1119 1403 
Q 1119 906 1312 657 
Q 1506 409 1894 409 
Q 2359 409 2629 706 
Q 2900 1003 2900 1516 
L 2900 3500 
L 3475 3500 
L 3475 0 
L 2900 0 
L 2900 538 
Q 2691 219 2414 64 
Q 2138 -91 1772 -91 
Q 1169 -91 856 284 
Q 544 659 544 1381 
z
M 1991 3584 
L 1991 3584 
z
" transform="scale(0.015625)"/>
       <path id="DejaVuSans-74" d="M 1172 4494 
L 1172 3500 
L 2356 3500 
L 2356 3053 
L 1172 3053 
L 1172 1153 
Q 1172 725 1289 603 
Q 1406 481 1766 481 
L 2356 481 
L 2356 0 
L 1766 0 
Q 1100 0 847 248 
Q 594 497 594 1153 
L 594 3053 
L 172 3053 
L 172 3500 
L 594 3500 
L 594 4494 
L 1172 4494 
z
" transform="scale(0.015625)"/>
       <path id="DejaVuSans-6e" d="M 3513 2113 
L 3513 0 
L 2938 0 
L 2938 2094 
Q 2938 2591 2744 2837 
Q 2550 3084 2163 3084 
Q 1697 3084 1428 2787 
Q 1159 2491 1159 1978 
L 1159 0 
L 581 0 
L 581 3500 
L 1159 3500 
L 1159 2956 
Q 1366 3272 1645 3428 
Q 1925 3584 2291 3584 
Q 2894 3584 3203 3211 
Q 3513 2838 3513 2113 
z
" transform="scale(0.015625)"/>
       <path id="DejaVuSans-56" d="M 1831 0 
L 50 4666 
L 709 4666 
L 2188 738 
L 3669 4666 
L 4325 4666 
L 2547 0 
L 1831 0 
z
" transform="scale(0.015625)"/>
       <path id="DejaVuSans-6f" d="M 1959 3097 
Q 1497 3097 1228 2736 
Q 959 2375 959 1747 
Q 959 1119 1226 758 
Q 1494 397 1959 397 
Q 2419 397 2687 759 
Q 2956 1122 2956 1747 
Q 2956 2369 2687 2733 
Q 2419 3097 1959 3097 
z
M 1959 3584 
Q 2709 3584 3137 3096 
Q 3566 2609 3566 1747 
Q 3566 888 3137 398 
Q 2709 -91 1959 -91 
Q 1206 -91 779 398 
Q 353 888 353 1747 
Q 353 2609 779 3096 
Q 1206 3584 1959 3584 
z
" transform="scale(0.015625)"/>
       <path id="DejaVuSans-63" d="M 3122 3366 
L 3122 2828 
Q 2878 2963 2633 3030 
Q 2388 3097 2138 3097 
Q 1578 3097 1268 2742 
Q 959 2388 959 1747 
Q 959 1106 1268 751 
Q 1578 397 2138 397 
Q 2388 397 2633 464 
Q 2878 531 3122 666 
L 3122 134 
Q 2881 22 2623 -34 
Q 2366 -91 2075 -91 
Q 1284 -91 818 406 
Q 353 903 353 1747 
Q 353 2603 823 3093 
Q 1294 3584 2113 3584 
Q 2378 3584 2631 3529 
Q 2884 3475 3122 3366 
z
" transform="scale(0.015625)"/>
       <path id="DejaVuSans-68" d="M 3513 2113 
L 3513 0 
L 2938 0 
L 2938 2094 
Q 2938 2591 2744 2837 
Q 2550 3084 2163 3084 
Q 1697 3084 1428 2787 
Q 1159 2491 1159 1978 
L 1159 0 
L 581 0 
L 581 4863 
L 1159 4863 
L 1159 2956 
Q 1366 3272 1645 3428 
Q 1925 3584 2291 3584 
Q 2894 3584 3203 3211 
Q 3513 2838 3513 2113 
z
" transform="scale(0.015625)"/>
       <path id="DejaVuSans-67" d="M 2906 1791 
Q 2906 2416 2648 2759 
Q 2391 3103 1925 3103 
Q 1463 3103 1205 2759 
Q 947 2416 947 1791 
Q 947 1169 1205 825 
Q 1463 481 1925 481 
Q 2391 481 2648 825 
Q 2906 1169 2906 1791 
z
M 3481 434 
Q 3481 -459 3084 -895 
Q 2688 -1331 1869 -1331 
Q 1566 -1331 1297 -1286 
Q 1028 -1241 775 -1147 
L 775 -588 
Q 1028 -725 1275 -790 
Q 1522 -856 1778 -856 
Q 2344 -856 2625 -561 
Q 2906 -266 2906 331 
L 2906 616 
Q 2728 306 2450 153 
Q 2172 0 1784 0 
Q 1141 0 747 490 
Q 353 981 353 1791 
Q 353 2603 747 3093 
Q 1141 3584 1784 3584 
Q 2172 3584 2450 3431 
Q 2728 3278 2906 2969 
L 2906 3500 
L 3481 3500 
L 3481 434 
z
" transform="scale(0.015625)"/>
       <path id="DejaVuSans-25" d="M 4653 2053 
Q 4381 2053 4226 1822 
Q 4072 1591 4072 1178 
Q 4072 772 4226 539 
Q 4381 306 4653 306 
Q 4919 306 5073 539 
Q 5228 772 5228 1178 
Q 5228 1588 5073 1820 
Q 4919 2053 4653 2053 
z
M 4653 2450 
Q 5147 2450 5437 2106 
Q 5728 1763 5728 1178 
Q 5728 594 5436 251 
Q 5144 -91 4653 -91 
Q 4153 -91 3862 251 
Q 3572 594 3572 1178 
Q 3572 1766 3864 2108 
Q 4156 2450 4653 2450 
z
M 1428 4353 
Q 1159 4353 1004 4120 
Q 850 3888 850 3481 
Q 850 3069 1003 2837 
Q 1156 2606 1428 2606 
Q 1700 2606 1854 2837 
Q 2009 3069 2009 3481 
Q 2009 3884 1853 4118 
Q 1697 4353 1428 4353 
z
M 4250 4750 
L 4750 4750 
L 1831 -91 
L 1331 -91 
L 4250 4750 
z
M 1428 4750 
Q 1922 4750 2215 4408 
Q 2509 4066 2509 3481 
Q 2509 2891 2217 2550 
Q 1925 2209 1428 2209 
Q 931 2209 642 2551 
Q 353 2894 353 3481 
Q 353 4063 643 4406 
Q 934 4750 1428 4750 
z
" transform="scale(0.015625)"/>
      </defs>
      <use xlink:href="#DejaVuSans-28"/>
      <use xlink:href="#DejaVuSans-52" transform="translate(39.013672 0)"/>
      <use xlink:href="#DejaVuSans-65" transform="translate(103.996094 0)"/>
      <use xlink:href="#DejaVuSans-6c" transform="translate(165.519531 0)"/>
      <use xlink:href="#DejaVuSans-2e" transform="translate(193.302734 0)"/>
      <use xlink:href="#DejaVuSans-29" transform="translate(225.089844 0)"/>
      <use xlink:href="#DejaVuSans-20" transform="translate(264.103516 0)"/>
      <use xlink:href="#DejaVuSans-42" transform="translate(295.890625 0)"/>
      <use xlink:href="#DejaVuSans-75" transform="translate(364.494141 0)"/>
      <use xlink:href="#DejaVuSans-69" transform="translate(427.873047 0)"/>
      <use xlink:href="#DejaVuSans-74" transform="translate(455.65625 0)"/>
      <use xlink:href="#DejaVuSans-65" transform="translate(494.865234 0)"/>
      <use xlink:href="#DejaVuSans-6e" transform="translate(556.388672 0)"/>
      <use xlink:href="#DejaVuSans-20" transform="translate(619.767578 0)"/>
      <use xlink:href="#DejaVuSans-56" transform="translate(651.554688 0)"/>
      <use xlink:href="#DejaVuSans-6f" transform="translate(712.212891 0)"/>
      <use xlink:href="#DejaVuSans-63" transform="translate(773.394531 0)"/>
      <use xlink:href="#DejaVuSans-68" transform="translate(828.375 0)"/>
      <use xlink:href="#DejaVuSans-74" transform="translate(891.753906 0)"/>
      <use xlink:href="#DejaVuSans-69" transform="translate(930.962891 0)"/>
      <use xlink:href="#DejaVuSans-67" transform="translate(958.746094 0)"/>
      <use xlink:href="#DejaVuSans-68" transform="translate(1022.222656 0)"/>
      <use xlink:href="#DejaVuSans-65" transform="translate(1085.601562 0)"/>
      <use xlink:href="#DejaVuSans-69" transform="translate(1147.125 0)"/>
      <use xlink:href="#DejaVuSans-64" transform="translate(1174.908203 0)"/>
      <use xlink:href="#DejaVuSans-20" transform="translate(1238.384766 0)"/>
      <use xlink:href="#DejaVuSans-28" transform="translate(1270.171875 0)"/>
      <use xlink:href="#DejaVuSans-25" transform="translate(1309.185547 0)"/>
      <use xlink:href="#DejaVuSans-29" transform="translate(1404.205078 0)"/>
     </g>
    </g>
   </g>
   <g id="line2d_14">
    <path d="M 80.525869 157.289353 
L 83.994392 156.498243 
L 87.462914 155.575281 
L 90.931437 154.124912 
L 94.39996 147.598252 
L 97.868482 140.676037 
L 101.337005 131.182714 
L 104.805528 124.39235 
L 108.27405 120.964206 
L 115.211096 125.842719 
L 118.679618 128.018272 
L 122.148141 129.402715 
L 125.616664 129.501604 
L 129.085186 128.611605 
L 132.553709 129.468641 
L 139.490754 129.106049 
L 142.959277 131.578269 
L 146.4278 109.493107 
L 149.896322 104.219038 
L 156.833368 97.82423 
L 160.30189 98.285711 
L 163.770413 100.461264 
L 167.238936 100.131635 
L 170.707458 100.724968 
L 174.175981 104.746445 
L 177.644504 102.900521 
L 181.113026 104.416816 
L 184.581549 110.31718 
L 188.050072 114.767175 
L 191.518594 126.238274 
L 194.987117 138.104929 
L 198.45564 146.543438 
L 201.924162 154.520467 
L 205.392685 151.026397 
L 208.861208 148.290474 
L 212.32973 153.20195 
L 215.798253 150.762693 
L 219.266776 156.234539 
L 222.735298 149.444176 
L 226.203821 152.64158 
L 229.672344 139.884927 
L 233.140866 141.994554 
L 236.609389 155.311577 
L 240.077912 154.586393 
L 243.546434 148.58714 
L 247.014957 145.158995 
L 250.48348 149.707879 
L 253.952003 157.02565 
L 257.420525 166.189344 
L 260.889048 165.793789 
L 264.357571 160.321942 
L 267.826093 157.487131 
L 274.763139 152.740469 
L 278.231661 152.41084 
L 281.700184 151.685655 
L 285.168707 151.356026 
L 288.637229 149.576028 
L 292.105752 148.58714 
L 295.574275 143.049368 
L 299.042797 142.192332 
L 302.51132 140.181593 
L 305.979843 136.423819 
L 309.448365 135.467894 
L 312.916888 132.369379 
L 316.385411 131.644195 
L 319.853933 132.369379 
L 326.790979 128.479753 
L 330.259501 125.842719 
L 333.728024 124.260499 
L 337.196547 122.546426 
L 340.665069 122.084945 
L 344.133592 124.39235 
L 354.53916 129.204938 
L 358.007683 132.501231 
L 364.944728 143.115294 
L 368.413251 145.55455 
L 371.881773 151.026397 
L 375.350296 154.718245 
L 378.818819 157.750834 
L 382.287341 163.750087 
L 385.755864 197.932644 
L 389.224387 205.085599 
L 392.692909 201.789307 
L 396.161432 196.515238 
L 399.629955 176.869333 
L 403.098477 168.694526 
L 406.567 162.497496 
L 410.035523 159.530832 
L 413.504045 154.322689 
L 416.972568 149.905657 
L 420.441091 147.004919 
L 423.909614 148.850843 
L 427.378136 147.927881 
L 430.846659 140.544185 
L 434.315182 137.050115 
L 437.783704 133.292341 
L 441.252227 131.116788 
L 444.72075 130.68827 
L 448.189272 129.600493 
L 451.657795 132.435305 
L 455.126318 133.490119 
L 458.59484 133.424193 
L 462.063363 131.182714 
L 465.531886 129.204938 
L 469.000408 128.281976 
L 472.468931 126.436052 
L 475.937454 122.4805 
L 479.405976 118.98643 
L 486.343022 113.448658 
L 489.811544 111.207179 
L 493.280067 109.888662 
L 496.74859 109.361255 
L 500.217112 109.690884 
L 503.685635 111.075327 
L 510.62268 114.569398 
L 514.091203 116.613099 
L 517.559726 121.359761 
L 521.028248 129.864196 
L 524.496771 136.522708 
L 527.965294 142.752702 
L 531.433816 145.158995 
L 534.902339 149.048621 
L 541.839384 158.739722 
L 545.307907 166.387121 
L 548.77643 169.947118 
L 552.244952 197.240422 
L 555.713475 211.678185 
L 559.181998 214.7767 
L 562.65052 214.842626 
L 566.119043 190.252282 
L 569.587566 179.835996 
L 573.056088 171.001931 
L 576.524611 166.321195 
L 579.993134 162.167866 
L 583.461656 159.464906 
L 586.930179 155.377503 
L 590.398702 157.157501 
L 593.867224 156.168613 
L 597.335747 149.641954 
L 600.80427 144.301959 
L 604.272793 140.016778 
L 607.741315 135.006413 
L 611.209838 130.259752 
L 614.678361 125.842719 
L 614.678361 125.842719 
" clip-path="url(#p5bcb4e4166)" style="fill: none; stroke: #1f77b4; stroke-width: 2; stroke-linecap: square"/>
   </g>
   <g id="line2d_15">
    <path d="M 80.525869 168.266008 
L 83.994392 168.148283 
L 87.462914 166.961618 
L 90.931437 163.420458 
L 94.39996 159.662684 
L 97.868482 155.132636 
L 101.337005 150.903963 
L 108.27405 143.97233 
L 111.742573 142.890047 
L 115.211096 137.758818 
L 118.679618 135.519693 
L 122.148141 135.006413 
L 125.616664 132.863823 
L 129.085186 133.848002 
L 132.553709 135.223027 
L 136.022232 134.874562 
L 139.490754 135.839905 
L 142.959277 133.061601 
L 146.4278 123.883779 
L 149.896322 121.651718 
L 153.364845 111.85545 
L 156.833368 116.245798 
L 160.30189 114.663577 
L 163.770413 108.890356 
L 167.238936 108.325277 
L 170.707458 100.999659 
L 174.175981 111.558784 
L 177.644504 110.472577 
L 181.113026 115.316557 
L 184.581549 117.173469 
L 188.050072 119.239146 
L 191.518594 128.258431 
L 194.987117 130.240916 
L 198.45564 135.326625 
L 201.924162 134.995426 
L 205.392685 133.556044 
L 208.861208 137.902442 
L 212.32973 141.189317 
L 215.798253 140.346408 
L 219.266776 143.97233 
L 222.735298 141.231698 
L 226.203821 140.75609 
L 229.672344 138.924293 
L 233.140866 138.637044 
L 236.609389 142.441908 
L 240.077912 142.277094 
L 243.546434 142.399527 
L 247.014957 141.542491 
L 250.48348 143.077622 
L 253.952003 150.188196 
L 257.420525 149.453594 
L 260.889048 146.712962 
L 264.357571 145.196667 
L 267.826093 147.805448 
L 271.294616 147.428728 
L 274.763139 145.144868 
L 278.231661 147.213685 
L 281.700184 144.06651 
L 285.168707 143.746298 
L 288.637229 142.437199 
L 292.105752 140.996248 
L 295.574275 140.544185 
L 299.042797 136.277841 
L 302.51132 135.133556 
L 305.979843 132.68959 
L 309.448365 132.341125 
L 312.916888 130.937846 
L 316.385411 129.350917 
L 319.853933 130.226789 
L 323.322456 127.999437 
L 326.790979 127.23658 
L 330.259501 125.343566 
L 337.196547 123.026743 
L 340.665069 122.376903 
L 344.133592 121.581083 
L 347.602115 121.048968 
L 351.070637 121.792988 
L 358.007683 128.060653 
L 361.476205 132.096258 
L 364.944728 135.204191 
L 368.413251 138.015458 
L 371.881773 140.365244 
L 375.350296 142.517252 
L 378.818819 146.190264 
L 382.287341 150.442482 
L 385.755864 157.425914 
L 389.224387 160.072366 
L 392.692909 158.551362 
L 396.161432 157.204591 
L 399.629955 154.058986 
L 403.098477 155.386921 
L 410.035523 161.40501 
L 413.504045 156.724274 
L 416.972568 155.688296 
L 420.441091 148.945023 
L 423.909614 147.673596 
L 427.378136 144.038256 
L 430.846659 139.621223 
L 434.315182 137.116041 
L 437.783704 133.923346 
L 441.252227 132.906204 
L 444.72075 128.847055 
L 448.189272 126.144095 
L 451.657795 122.565262 
L 455.126318 122.047273 
L 458.59484 119.998863 
L 462.063363 118.703891 
L 465.531886 116.015058 
L 469.000408 117.91278 
L 472.468931 117.154633 
L 475.937454 114.635324 
L 479.405976 112.45977 
L 486.343022 107.279881 
L 489.811544 104.440361 
L 493.280067 102.099993 
L 496.74859 100.084545 
L 500.217112 99.010895 
L 503.685635 99.208673 
L 507.154158 101.031052 
L 510.62268 103.286658 
L 514.091203 104.972476 
L 517.559726 107.934431 
L 521.028248 113.288552 
L 524.496771 120.370873 
L 527.965294 124.265208 
L 531.433816 127.194199 
L 534.902339 132.326998 
L 538.370862 139.362229 
L 541.839384 143.058786 
L 545.307907 147.744231 
L 548.77643 150.583752 
L 552.244952 155.499937 
L 555.713475 159.615594 
L 559.181998 160.726916 
L 562.65052 161.343793 
L 566.119043 158.033373 
L 569.587566 158.066336 
L 573.056088 165.442184 
L 576.524611 168.991193 
L 579.993134 167.299096 
L 583.461656 165.046629 
L 586.930179 160.948238 
L 590.398702 158.19034 
L 593.867224 152.059235 
L 597.335747 147.636709 
L 600.80427 146.569809 
L 604.272793 143.880034 
L 607.741315 139.937667 
L 611.209838 136.193079 
L 614.678361 133.929624 
L 618.146883 138.698261 
L 621.615406 141.104555 
L 625.083929 138.137892 
L 628.552451 136.544683 
L 632.020974 128.117161 
L 635.489497 166.650825 
L 638.958019 162.893051 
L 642.426542 160.51972 
L 645.895065 160.387868 
L 649.363587 159.069351 
L 652.83211 155.773058 
L 656.300633 149.312324 
L 659.769155 142.587887 
L 663.237678 137.247892 
L 666.706201 131.512343 
L 670.174723 126.765681 
L 673.643246 123.271611 
L 673.643246 123.271611 
" clip-path="url(#p5bcb4e4166)" style="fill: none; stroke-dasharray: 5.55,2.4; stroke-dashoffset: 0; stroke: #808080; stroke-width: 1.5"/>
   </g>
   <g id="patch_3">
    <path d="M 50.87 246.04 
L 50.87 26.88 
" style="fill: none; stroke: #000000; stroke-width: 0.8; stroke-linejoin: miter; stroke-linecap: square"/>
   </g>
   <g id="patch_4">
    <path d="M 703.299115 246.04 
L 703.299115 26.88 
" style="fill: none; stroke: #000000; stroke-width: 0.8; stroke-linejoin: miter; stroke-linecap: square"/>
   </g>
   <g id="patch_5">
    <path d="M 50.87 246.04 
L 703.299115 246.04 
" style="fill: none; stroke: #000000; stroke-width: 0.8; stroke-linejoin: miter; stroke-linecap: square"/>
   </g>
   <g id="patch_6">
    <path d="M 50.87 26.88 
L 703.299115 26.88 
" style="fill: none; stroke: #000000; stroke-width: 0.8; stroke-linejoin: miter; stroke-linecap: square"/>
   </g>
   <g id="text_16">
    <!-- Luchtvochtigheid - v001/c00001/d021 -->
    <g transform="translate(262.79487 20.88) scale(0.12 -0.12)">
     <defs>
      <path id="DejaVuSans-4c" d="M 628 4666 
L 1259 4666 
L 1259 531 
L 3531 531 
L 3531 0 
L 628 0 
L 628 4666 
z
" transform="scale(0.015625)"/>
      <path id="DejaVuSans-76" d="M 191 3500 
L 800 3500 
L 1894 563 
L 2988 3500 
L 3597 3500 
L 2284 0 
L 1503 0 
L 191 3500 
z
" transform="scale(0.015625)"/>
      <path id="DejaVuSans-2f" d="M 1625 4666 
L 2156 4666 
L 531 -594 
L 0 -594 
L 1625 4666 
z
" transform="scale(0.015625)"/>
     </defs>
     <use xlink:href="#DejaVuSans-4c"/>
     <use xlink:href="#DejaVuSans-75" transform="translate(53.962891 0)"/>
     <use xlink:href="#DejaVuSans-63" transform="translate(117.341797 0)"/>
     <use xlink:href="#DejaVuSans-68" transform="translate(172.322266 0)"/>
     <use xlink:href="#DejaVuSans-74" transform="translate(235.701172 0)"/>
     <use xlink:href="#DejaVuSans-76" transform="translate(274.910156 0)"/>
     <use xlink:href="#DejaVuSans-6f" transform="translate(334.089844 0)"/>
     <use xlink:href="#DejaVuSans-63" transform="translate(395.271484 0)"/>
     <use xlink:href="#DejaVuSans-68" transform="translate(450.251953 0)"/>
     <use xlink:href="#DejaVuSans-74" transform="translate(513.630859 0)"/>
     <use xlink:href="#DejaVuSans-69" transform="translate(552.839844 0)"/>
     <use xlink:href="#DejaVuSans-67" transform="translate(580.623047 0)"/>
     <use xlink:href="#DejaVuSans-68" transform="translate(644.099609 0)"/>
     <use xlink:href="#DejaVuSans-65" transform="translate(707.478516 0)"/>
     <use xlink:href="#DejaVuSans-69" transform="translate(769.001953 0)"/>
     <use xlink:href="#DejaVuSans-64" transform="translate(796.785156 0)"/>
     <use xlink:href="#DejaVuSans-20" transform="translate(860.261719 0)"/>
     <use xlink:href="#DejaVuSans-2d" transform="translate(892.048828 0)"/>
     <use xlink:href="#DejaVuSans-20" transform="translate(928.132812 0)"/>
     <use xlink:href="#DejaVuSans-76" transform="translate(959.919922 0)"/>
     <use xlink:href="#DejaVuSans-30" transform="translate(1019.099609 0)"/>
     <use xlink:href="#DejaVuSans-30" transform="translate(1082.722656 0)"/>
     <use xlink:href="#DejaVuSans-31" transform="translate(1146.345703 0)"/>
     <use xlink:href="#DejaVuSans-2f" transform="translate(1209.96875 0)"/>
     <use xlink:href="#DejaVuSans-63" transform="translate(1243.660156 0)"/>
     <use xlink:href="#DejaVuSans-30" transform="translate(1298.640625 0)"/>
     <use xlink:href="#DejaVuSans-30" transform="translate(1362.263672 0)"/>
     <use xlink:href="#DejaVuSans-30" transform="translate(1425.886719 0)"/>
     <use xlink:href="#DejaVuSans-30" transform="translate(1489.509766 0)"/>
     <use xlink:href="#DejaVuSans-31" transform="translate(1553.132812 0)"/>
     <use xlink:href="#DejaVuSans-2f" transform="translate(1616.755859 0)"/>
     <use xlink:href="#DejaVuSans-64" transform="translate(1650.447266 0)"/>
     <use xlink:href="#DejaVuSans-30" transform="translate(1713.923828 0)"/>
     <use xlink:href="#DejaVuSans-32" transform="translate(1777.546875 0)"/>
     <use xlink:href="#DejaVuSans-31" transform="translate(1841.169922 0)"/>
    </g>
   </g>
   <g id="legend_1">
    <g id="patch_7">
     <path d="M 301.612682 78.914375 
L 452.556432 78.914375 
Q 454.556432 78.914375 454.556432 76.914375 
L 454.556432 33.88 
Q 454.556432 31.88 452.556432 31.88 
L 301.612682 31.88 
Q 299.612682 31.88 299.612682 33.88 
L 299.612682 76.914375 
Q 299.612682 78.914375 301.612682 78.914375 
z
" style="fill: #ffffff; opacity: 0.8; stroke: #cccccc; stroke-linejoin: miter"/>
    </g>
    <g id="line2d_16">
     <path d="M 303.612682 39.978438 
L 313.612682 39.978438 
L 323.612682 39.978438 
" style="fill: none; stroke: #1f77b4; stroke-width: 2; stroke-linecap: square"/>
    </g>
    <g id="text_17">
     <!-- Hive -->
     <g transform="translate(331.612682 43.478438) scale(0.1 -0.1)">
      <defs>
       <path id="DejaVuSans-48" d="M 628 4666 
L 1259 4666 
L 1259 2753 
L 3553 2753 
L 3553 4666 
L 4184 4666 
L 4184 0 
L 3553 0 
L 3553 2222 
L 1259 2222 
L 1259 0 
L 628 0 
L 628 4666 
z
" transform="scale(0.015625)"/>
      </defs>
      <use xlink:href="#DejaVuSans-48"/>
      <use xlink:href="#DejaVuSans-69" transform="translate(75.195312 0)"/>
      <use xlink:href="#DejaVuSans-76" transform="translate(102.978516 0)"/>
      <use xlink:href="#DejaVuSans-65" transform="translate(162.158203 0)"/>
     </g>
    </g>
    <g id="line2d_17">
     <path d="M 303.612682 54.656563 
L 313.612682 54.656563 
L 323.612682 54.656563 
" style="fill: none; stroke-dasharray: 5.55,2.4; stroke-dashoffset: 0; stroke: #808080; stroke-width: 1.5"/>
    </g>
    <g id="text_18">
     <!-- Gemiddelde (alle hives) -->
     <g transform="translate(331.612682 58.156563) scale(0.1 -0.1)">
      <defs>
       <path id="DejaVuSans-47" d="M 3809 666 
L 3809 1919 
L 2778 1919 
L 2778 2438 
L 4434 2438 
L 4434 434 
Q 4069 175 3628 42 
Q 3188 -91 2688 -91 
Q 1594 -91 976 548 
Q 359 1188 359 2328 
Q 359 3472 976 4111 
Q 1594 4750 2688 4750 
Q 3144 4750 3555 4637 
Q 3966 4525 4313 4306 
L 4313 3634 
Q 3963 3931 3569 4081 
Q 3175 4231 2741 4231 
Q 1884 4231 1454 3753 
Q 1025 3275 1025 2328 
Q 1025 1384 1454 906 
Q 1884 428 2741 428 
Q 3075 428 3337 486 
Q 3600 544 3809 666 
z
" transform="scale(0.015625)"/>
       <path id="DejaVuSans-6d" d="M 3328 2828 
Q 3544 3216 3844 3400 
Q 4144 3584 4550 3584 
Q 5097 3584 5394 3201 
Q 5691 2819 5691 2113 
L 5691 0 
L 5113 0 
L 5113 2094 
Q 5113 2597 4934 2840 
Q 4756 3084 4391 3084 
Q 3944 3084 3684 2787 
Q 3425 2491 3425 1978 
L 3425 0 
L 2847 0 
L 2847 2094 
Q 2847 2600 2669 2842 
Q 2491 3084 2119 3084 
Q 1678 3084 1418 2786 
Q 1159 2488 1159 1978 
L 1159 0 
L 581 0 
L 581 3500 
L 1159 3500 
L 1159 2956 
Q 1356 3278 1631 3431 
Q 1906 3584 2284 3584 
Q 2666 3584 2933 3390 
Q 3200 3197 3328 2828 
z
" transform="scale(0.015625)"/>
       <path id="DejaVuSans-61" d="M 2194 1759 
Q 1497 1759 1228 1600 
Q 959 1441 959 1056 
Q 959 750 1161 570 
Q 1363 391 1709 391 
Q 2188 391 2477 730 
Q 2766 1069 2766 1631 
L 2766 1759 
L 2194 1759 
z
M 3341 1997 
L 3341 0 
L 2766 0 
L 2766 531 
Q 2569 213 2275 61 
Q 1981 -91 1556 -91 
Q 1019 -91 701 211 
Q 384 513 384 1019 
Q 384 1609 779 1909 
Q 1175 2209 1959 2209 
L 2766 2209 
L 2766 2266 
Q 2766 2663 2505 2880 
Q 2244 3097 1772 3097 
Q 1472 3097 1187 3025 
Q 903 2953 641 2809 
L 641 3341 
Q 956 3463 1253 3523 
Q 1550 3584 1831 3584 
Q 2591 3584 2966 3190 
Q 3341 2797 3341 1997 
z
" transform="scale(0.015625)"/>
       <path id="DejaVuSans-73" d="M 2834 3397 
L 2834 2853 
Q 2591 2978 2328 3040 
Q 2066 3103 1784 3103 
Q 1356 3103 1142 2972 
Q 928 2841 928 2578 
Q 928 2378 1081 2264 
Q 1234 2150 1697 2047 
L 1894 2003 
Q 2506 1872 2764 1633 
Q 3022 1394 3022 966 
Q 3022 478 2636 193 
Q 2250 -91 1575 -91 
Q 1294 -91 989 -36 
Q 684 19 347 128 
L 347 722 
Q 666 556 975 473 
Q 1284 391 1588 391 
Q 1994 391 2212 530 
Q 2431 669 2431 922 
Q 2431 1156 2273 1281 
Q 2116 1406 1581 1522 
L 1381 1569 
Q 847 1681 609 1914 
Q 372 2147 372 2553 
Q 372 3047 722 3315 
Q 1072 3584 1716 3584 
Q 2034 3584 2315 3537 
Q 2597 3491 2834 3397 
z
" transform="scale(0.015625)"/>
      </defs>
      <use xlink:href="#DejaVuSans-47"/>
      <use xlink:href="#DejaVuSans-65" transform="translate(77.490234 0)"/>
      <use xlink:href="#DejaVuSans-6d" transform="translate(139.013672 0)"/>
      <use xlink:href="#DejaVuSans-69" transform="translate(236.425781 0)"/>
      <use xlink:href="#DejaVuSans-64" transform="translate(264.208984 0)"/>
      <use xlink:href="#DejaVuSans-64" transform="translate(327.685547 0)"/>
      <use xlink:href="#DejaVuSans-65" transform="translate(391.162109 0)"/>
      <use xlink:href="#DejaVuSans-6c" transform="translate(452.685547 0)"/>
      <use xlink:href="#DejaVuSans-64" transform="translate(480.46875 0)"/>
      <use xlink:href="#DejaVuSans-65" transform="translate(543.945312 0)"/>
      <use xlink:href="#DejaVuSans-20" transform="translate(605.46875 0)"/>
      <use xlink:href="#DejaVuSans-28" transform="translate(637.255859 0)"/>
      <use xlink:href="#DejaVuSans-61" transform="translate(676.269531 0)"/>
      <use xlink:href="#DejaVuSans-6c" transform="translate(737.548828 0)"/>
      <use xlink:href="#DejaVuSans-6c" transform="translate(765.332031 0)"/>
      <use xlink:href="#DejaVuSans-65" transform="translate(793.115234 0)"/>
      <use xlink:href="#DejaVuSans-20" transform="translate(854.638672 0)"/>
      <use xlink:href="#DejaVuSans-68" transform="translate(886.425781 0)"/>
      <use xlink:href="#DejaVuSans-69" transform="translate(949.804688 0)"/>
      <use xlink:href="#DejaVuSans-76" transform="translate(977.587891 0)"/>
      <use xlink:href="#DejaVuSans-65" transform="translate(1036.767578 0)"/>
      <use xlink:href="#DejaVuSans-73" transform="translate(1098.291016 0)"/>
      <use xlink:href="#DejaVuSans-29" transform="translate(1150.390625 0)"/>
     </g>
    </g>
    <g id="patch_8">
     <path d="M 303.612682 72.834688 
L 323.612682 72.834688 
L 323.612682 65.834688 
L 303.612682 65.834688 
z
" style="fill: #808080; fill-opacity: 0.2; stroke: #808080; stroke-opacity: 0.2; stroke-linejoin: miter"/>
    </g>
    <g id="text_19">
     <!-- 2 Std Dev -->
     <g transform="translate(331.612682 72.834688) scale(0.1 -0.1)">
      <defs>
       <path id="DejaVuSans-b1" d="M 2944 4013 
L 2944 2803 
L 4684 2803 
L 4684 2272 
L 2944 2272 
L 2944 1063 
L 2419 1063 
L 2419 2272 
L 678 2272 
L 678 2803 
L 2419 2803 
L 2419 4013 
L 2944 4013 
z
M 678 531 
L 4684 531 
L 4684 0 
L 678 0 
L 678 531 
z
" transform="scale(0.015625)"/>
       <path id="DejaVuSans-53" d="M 3425 4513 
L 3425 3897 
Q 3066 4069 2747 4153 
Q 2428 4238 2131 4238 
Q 1616 4238 1336 4038 
Q 1056 3838 1056 3469 
Q 1056 3159 1242 3001 
Q 1428 2844 1947 2747 
L 2328 2669 
Q 3034 2534 3370 2195 
Q 3706 1856 3706 1288 
Q 3706 609 3251 259 
Q 2797 -91 1919 -91 
Q 1588 -91 1214 -16 
Q 841 59 441 206 
L 441 856 
Q 825 641 1194 531 
Q 1563 422 1919 422 
Q 2459 422 2753 634 
Q 3047 847 3047 1241 
Q 3047 1584 2836 1778 
Q 2625 1972 2144 2069 
L 1759 2144 
Q 1053 2284 737 2584 
Q 422 2884 422 3419 
Q 422 4038 858 4394 
Q 1294 4750 2059 4750 
Q 2388 4750 2728 4690 
Q 3069 4631 3425 4513 
z
" transform="scale(0.015625)"/>
       <path id="DejaVuSans-44" d="M 1259 4147 
L 1259 519 
L 2022 519 
Q 2988 519 3436 956 
Q 3884 1394 3884 2338 
Q 3884 3275 3436 3711 
Q 2988 4147 2022 4147 
L 1259 4147 
z
M 628 4666 
L 1925 4666 
Q 3281 4666 3915 4102 
Q 4550 3538 4550 2338 
Q 4550 1131 3912 565 
Q 3275 0 1925 0 
L 628 0 
L 628 4666 
z
" transform="scale(0.015625)"/>
      </defs>
      <use xlink:href="#DejaVuSans-b1"/>
      <use xlink:href="#DejaVuSans-32" transform="translate(83.789062 0)"/>
      <use xlink:href="#DejaVuSans-20" transform="translate(147.412109 0)"/>
      <use xlink:href="#DejaVuSans-53" transform="translate(179.199219 0)"/>
      <use xlink:href="#DejaVuSans-74" transform="translate(242.675781 0)"/>
      <use xlink:href="#DejaVuSans-64" transform="translate(281.884766 0)"/>
      <use xlink:href="#DejaVuSans-20" transform="translate(345.361328 0)"/>
      <use xlink:href="#DejaVuSans-44" transform="translate(377.148438 0)"/>
      <use xlink:href="#DejaVuSans-65" transform="translate(454.150391 0)"/>
      <use xlink:href="#DejaVuSans-76" transform="translate(515.673828 0)"/>
     </g>
    </g>
   </g>
  </g>
 </g>
 <defs>
  <clipPath id="p5bcb4e4166">
   <rect x="50.87" y="26.88" width="652.429115" height="219.16"/>
  </clipPath>
 </defs>
</svg>
