<?xml version="1.0" encoding="utf-8" standalone="no"?>
<!DOCTYPE svg PUBLIC "-//W3C//DTD SVG 1.1//EN"
  "http://www.w3.org/Graphics/SVG/1.1/DTD/svg11.dtd">
<svg xmlns:xlink="http://www.w3.org/1999/xlink" width="720pt" height="288pt" viewBox="0 0 720 288" xmlns="http://www.w3.org/2000/svg" version="1.1">
 <metadata>
  <rdf:RDF xmlns:dc="http://purl.org/dc/elements/1.1/" xmlns:cc="http://creativecommons.org/ns#" xmlns:rdf="http://www.w3.org/1999/02/22-rdf-syntax-ns#">
   <cc:Work>
    <dc:type rdf:resource="http://purl.org/dc/dcmitype/StillImage"/>
    <dc:date>2025-06-04T15:40:11.593354</dc:date>
    <dc:format>image/svg+xml</dc:format>
    <dc:creator>
     <cc:Agent>
      <dc:title>Matplotlib v3.10.3, https://matplotlib.org/</dc:title>
     </cc:Agent>
    </dc:creator>
   </cc:Work>
  </rdf:RDF>
 </metadata>
 <defs>
  <style type="text/css">*{stroke-linejoin: round; stroke-linecap: butt}</style>
 </defs>
 <g id="figure_1">
  <g id="patch_1">
   <path d="M 0 288 
L 720 288 
L 720 0 
L 0 0 
z
" style="fill: #ffffff"/>
  </g>
  <g id="axes_1">
   <g id="patch_2">
    <path d="M 44.57 246.04 
L 709.2 246.04 
L 709.2 26.88 
L 44.57 26.88 
z
" style="fill: #ffffff"/>
   </g>
   <g id="FillBetweenPolyCollection_1">
    <defs>
     <path id="m912c1650ba" d="M 74.780455 -236.886766 
L 74.780455 -90.381907 
L 78.755514 -101.054259 
L 82.730574 -84.152522 
L 86.705634 -95.727511 
L 90.680694 -82.079595 
L 94.655754 -87.112091 
L 98.630813 -81.484529 
L 102.605873 -70.829765 
L 106.580933 -76.027418 
L 110.555993 -66.511708 
L 114.531053 -59.882995 
L 118.506112 -68.94904 
L 122.481172 -73.404436 
L 126.456232 -69.728661 
L 130.431292 -85.555242 
L 134.406352 -90.394301 
L 138.381411 -95.661423 
L 142.356471 -104.173627 
L 146.331531 -104.849281 
L 150.306591 -94.769265 
L 154.281651 -119.518919 
L 158.256711 -101.111276 
L 162.23177 -105.605973 
L 166.20683 -113.294205 
L 170.18189 -110.122913 
L 174.15695 -110.145277 
L 178.13201 -112.511837 
L 182.107069 -114.671078 
L 186.082129 -122.401253 
L 190.057189 -119.541092 
L 194.032249 -103.396279 
L 198.007309 -110.463209 
L 201.982368 -106.055069 
L 205.957428 -99.154628 
L 209.932488 -104.632314 
L 213.907548 -106.823159 
L 217.882608 -113.098253 
L 221.857667 -107.418767 
L 225.832727 -101.049025 
L 229.807787 -98.704143 
L 233.782847 -91.875915 
L 237.757907 -99.346092 
L 241.732967 -100.940749 
L 245.708026 -94.625514 
L 249.683086 -91.392263 
L 253.658146 -106.143455 
L 257.633206 -86.803573 
L 261.608266 -108.545118 
L 265.583325 -90.548592 
L 269.558385 -97.611614 
L 273.533445 -99.577438 
L 277.508505 -80.482461 
L 281.483565 -76.650456 
L 285.458624 -87.48177 
L 289.433684 -70.681675 
L 293.408744 -79.018359 
L 297.383804 -83.859736 
L 301.358864 -100.037731 
L 305.333923 -93.23275 
L 309.308983 -82.695034 
L 313.284043 -86.134315 
L 317.259103 -94.299455 
L 321.234163 -101.152735 
L 325.209222 -110.614053 
L 329.184282 -109.85252 
L 333.159342 -109.984289 
L 337.134402 -121.811603 
L 341.109462 -119.471837 
L 345.084522 -117.151322 
L 349.059581 -120.461468 
L 353.034641 -120.299835 
L 357.009701 -124.676651 
L 360.984761 -124.914329 
L 364.959821 -122.568433 
L 368.93488 -123.040024 
L 372.90994 -124.753575 
L 376.885 -112.742406 
L 380.86006 -117.821686 
L 384.83512 -109.304036 
L 388.810179 -118.037861 
L 392.785239 -112.712093 
L 396.760299 -116.299532 
L 400.735359 -109.476274 
L 404.710419 -112.965685 
L 408.685478 -107.844312 
L 412.660538 -116.715437 
L 416.635598 -106.495465 
L 420.610658 -106.43117 
L 424.585718 -105.899839 
L 428.560778 -95.444155 
L 432.535837 -91.96588 
L 436.510897 -105.891783 
L 440.485957 -95.817041 
L 444.461017 -86.882466 
L 448.436077 -85.615281 
L 452.411136 -81.031823 
L 456.386196 -65.005651 
L 460.361256 -74.921351 
L 464.336316 -87.026607 
L 468.311376 -69.165357 
L 472.286435 -75.746061 
L 476.261495 -91.1742 
L 480.236555 -51.921818 
L 484.211615 -63.37716 
L 488.186675 -69.878131 
L 492.161734 -62.009222 
L 496.136794 -64.107505 
L 500.111854 -85.263633 
L 504.086914 -85.214173 
L 508.061974 -70.142692 
L 512.037033 -68.679271 
L 516.012093 -85.301163 
L 519.987153 -84.446427 
L 523.962213 -101.982982 
L 527.937273 -86.385217 
L 531.912333 -85.591328 
L 535.887392 -105.004924 
L 539.862452 -92.392516 
L 543.837512 -104.002637 
L 547.812572 -104.826173 
L 551.787632 -92.483552 
L 555.762691 -86.98221 
L 559.737751 -97.093884 
L 563.712811 -96.512752 
L 567.687871 -111.878263 
L 571.662931 -97.121355 
L 575.63799 -115.348845 
L 579.61305 -111.450967 
L 583.58811 -129.465944 
L 587.56317 -95.860707 
L 591.53823 -96.335525 
L 595.513289 -74.314228 
L 599.488349 -81.626811 
L 603.463409 -90.323098 
L 607.438469 -93.219216 
L 611.413529 -92.839005 
L 615.388589 -77.80694 
L 619.363648 -89.124844 
L 623.338708 -92.939666 
L 627.313768 -92.64806 
L 631.288828 -94.877183 
L 635.263888 -102.41033 
L 639.238947 -94.149067 
L 643.214007 -85.548748 
L 647.189067 -89.978725 
L 651.164127 -85.231864 
L 655.139187 -69.88009 
L 659.114246 -72.873331 
L 663.089306 -78.267127 
L 667.064366 -64.210655 
L 671.039426 -89.559655 
L 675.014486 -127.87285 
L 678.989545 -115.448487 
L 678.989545 -225.787611 
L 678.989545 -225.787611 
L 675.014486 -228.000786 
L 671.039426 -234.020972 
L 667.064366 -249.069064 
L 663.089306 -248.312595 
L 659.114246 -234.476018 
L 655.139187 -247.694813 
L 651.164127 -232.908195 
L 647.189067 -235.546038 
L 643.214007 -215.696918 
L 639.238947 -222.48391 
L 635.263888 -226.128599 
L 631.288828 -222.245596 
L 627.313768 -220.104179 
L 623.338708 -213.294443 
L 619.363648 -217.599066 
L 615.388589 -227.108471 
L 611.413529 -218.406153 
L 607.438469 -205.592511 
L 603.463409 -232.941042 
L 599.488349 -229.972511 
L 595.513289 -223.367188 
L 591.53823 -203.90793 
L 587.56317 -196.613739 
L 583.58811 -190.40726 
L 579.61305 -218.067565 
L 575.63799 -217.372237 
L 571.662931 -217.062613 
L 567.687871 -201.552163 
L 563.712811 -202.595009 
L 559.737751 -199.494896 
L 555.762691 -200.047362 
L 551.787632 -203.749987 
L 547.812572 -189.857225 
L 543.837512 -193.32892 
L 539.862452 -209.363405 
L 535.887392 -194.974792 
L 531.912333 -214.61445 
L 527.937273 -209.374668 
L 523.962213 -200.182004 
L 519.987153 -210.043203 
L 516.012093 -209.640592 
L 512.037033 -215.992794 
L 508.061974 -215.175265 
L 504.086914 -200.878855 
L 500.111854 -202.056591 
L 496.136794 -212.620082 
L 492.161734 -219.304202 
L 488.186675 -223.22283 
L 484.211615 -228.722668 
L 480.236555 -251.158182 
L 476.261495 -229.312602 
L 472.286435 -239.250655 
L 468.311376 -243.312378 
L 464.336316 -234.009204 
L 460.361256 -238.36375 
L 456.386196 -239.872083 
L 452.411136 -238.421551 
L 448.436077 -235.775771 
L 444.461017 -237.705753 
L 440.485957 -208.307152 
L 436.510897 -211.204084 
L 432.535837 -224.096559 
L 428.560778 -214.859076 
L 424.585718 -210.679313 
L 420.610658 -204.141182 
L 416.635598 -201.008898 
L 412.660538 -195.1487 
L 408.685478 -186.386961 
L 404.710419 -192.891653 
L 400.735359 -187.984462 
L 396.760299 -195.047891 
L 392.785239 -194.426264 
L 388.810179 -191.727126 
L 384.83512 -196.779364 
L 380.86006 -185.64585 
L 376.885 -189.82088 
L 372.90994 -178.132657 
L 368.93488 -182.849609 
L 364.959821 -189.360294 
L 360.984761 -175.366803 
L 357.009701 -194.453777 
L 353.034641 -184.464868 
L 349.059581 -190.885956 
L 345.084522 -186.445392 
L 341.109462 -191.434227 
L 337.134402 -186.909191 
L 333.159342 -199.263985 
L 329.184282 -203.820116 
L 325.209222 -203.123173 
L 321.234163 -208.063243 
L 317.259103 -206.067796 
L 313.284043 -224.438038 
L 309.308983 -228.846158 
L 305.333923 -221.925439 
L 301.358864 -218.091563 
L 297.383804 -225.6146 
L 293.408744 -235.913768 
L 289.433684 -245.212832 
L 285.458624 -229.872454 
L 281.483565 -238.060991 
L 277.508505 -233.02332 
L 273.533445 -232.503134 
L 269.558385 -234.146012 
L 265.583325 -231.28382 
L 261.608266 -225.699194 
L 257.633206 -231.067365 
L 253.658146 -208.49802 
L 249.683086 -212.818049 
L 245.708026 -208.519075 
L 241.732967 -206.789677 
L 237.757907 -205.154871 
L 233.782847 -205.617115 
L 229.807787 -193.460274 
L 225.832727 -182.202076 
L 221.857667 -200.634605 
L 217.882608 -194.535289 
L 213.907548 -199.195652 
L 209.932488 -197.188195 
L 205.957428 -196.723671 
L 201.982368 -195.216433 
L 198.007309 -187.901776 
L 194.032249 -204.334147 
L 190.057189 -193.388768 
L 186.082129 -183.00396 
L 182.107069 -180.819686 
L 178.13201 -184.722837 
L 174.15695 -177.627071 
L 170.18189 -189.727625 
L 166.20683 -189.430555 
L 162.23177 -190.401504 
L 158.256711 -186.736427 
L 154.281651 -190.084595 
L 150.306591 -197.653509 
L 146.331531 -198.424486 
L 142.356471 -201.360765 
L 138.381411 -207.031042 
L 134.406352 -204.805811 
L 130.431292 -205.123623 
L 126.456232 -214.103743 
L 122.481172 -212.301056 
L 118.506112 -221.536057 
L 114.531053 -228.664425 
L 110.555993 -222.810783 
L 106.580933 -225.502441 
L 102.605873 -236.448536 
L 98.630813 -230.67026 
L 94.655754 -233.794542 
L 90.680694 -233.304657 
L 86.705634 -228.021048 
L 82.730574 -230.973372 
L 78.755514 -226.343593 
L 74.780455 -236.886766 
z
" style="stroke: #808080; stroke-opacity: 0.2"/>
    </defs>
    <g clip-path="url(#p6b252cdd3f)">
     <use xlink:href="#m912c1650ba" x="0" y="288" style="fill: #808080; fill-opacity: 0.2; stroke: #808080; stroke-opacity: 0.2"/>
    </g>
   </g>
   <g id="matplotlib.axis_1">
    <g id="xtick_1">
     <g id="line2d_1">
      <defs>
       <path id="mb4bb71dbf7" d="M 0 0 
L 0 3.5 
" style="stroke: #000000; stroke-width: 0.8"/>
      </defs>
      <g>
       <use xlink:href="#mb4bb71dbf7" x="46.955036" y="246.04" style="stroke: #000000; stroke-width: 0.8"/>
      </g>
     </g>
     <g id="text_1">
      <!-- 06-01 12 -->
      <g transform="translate(24.474567 260.638438) scale(0.1 -0.1)">
       <defs>
        <path id="DejaVuSans-30" d="M 2034 4250 
Q 1547 4250 1301 3770 
Q 1056 3291 1056 2328 
Q 1056 1369 1301 889 
Q 1547 409 2034 409 
Q 2525 409 2770 889 
Q 3016 1369 3016 2328 
Q 3016 3291 2770 3770 
Q 2525 4250 2034 4250 
z
M 2034 4750 
Q 2819 4750 3233 4129 
Q 3647 3509 3647 2328 
Q 3647 1150 3233 529 
Q 2819 -91 2034 -91 
Q 1250 -91 836 529 
Q 422 1150 422 2328 
Q 422 3509 836 4129 
Q 1250 4750 2034 4750 
z
" transform="scale(0.015625)"/>
        <path id="DejaVuSans-36" d="M 2113 2584 
Q 1688 2584 1439 2293 
Q 1191 2003 1191 1497 
Q 1191 994 1439 701 
Q 1688 409 2113 409 
Q 2538 409 2786 701 
Q 3034 994 3034 1497 
Q 3034 2003 2786 2293 
Q 2538 2584 2113 2584 
z
M 3366 4563 
L 3366 3988 
Q 3128 4100 2886 4159 
Q 2644 4219 2406 4219 
Q 1781 4219 1451 3797 
Q 1122 3375 1075 2522 
Q 1259 2794 1537 2939 
Q 1816 3084 2150 3084 
Q 2853 3084 3261 2657 
Q 3669 2231 3669 1497 
Q 3669 778 3244 343 
Q 2819 -91 2113 -91 
Q 1303 -91 875 529 
Q 447 1150 447 2328 
Q 447 3434 972 4092 
Q 1497 4750 2381 4750 
Q 2619 4750 2861 4703 
Q 3103 4656 3366 4563 
z
" transform="scale(0.015625)"/>
        <path id="DejaVuSans-2d" d="M 313 2009 
L 1997 2009 
L 1997 1497 
L 313 1497 
L 313 2009 
z
" transform="scale(0.015625)"/>
        <path id="DejaVuSans-31" d="M 794 531 
L 1825 531 
L 1825 4091 
L 703 3866 
L 703 4441 
L 1819 4666 
L 2450 4666 
L 2450 531 
L 3481 531 
L 3481 0 
L 794 0 
L 794 531 
z
" transform="scale(0.015625)"/>
        <path id="DejaVuSans-20" transform="scale(0.015625)"/>
        <path id="DejaVuSans-32" d="M 1228 531 
L 3431 531 
L 3431 0 
L 469 0 
L 469 531 
Q 828 903 1448 1529 
Q 2069 2156 2228 2338 
Q 2531 2678 2651 2914 
Q 2772 3150 2772 3378 
Q 2772 3750 2511 3984 
Q 2250 4219 1831 4219 
Q 1534 4219 1204 4116 
Q 875 4013 500 3803 
L 500 4441 
Q 881 4594 1212 4672 
Q 1544 4750 1819 4750 
Q 2544 4750 2975 4387 
Q 3406 4025 3406 3419 
Q 3406 3131 3298 2873 
Q 3191 2616 2906 2266 
Q 2828 2175 2409 1742 
Q 1991 1309 1228 531 
z
" transform="scale(0.015625)"/>
       </defs>
       <use xlink:href="#DejaVuSans-30"/>
       <use xlink:href="#DejaVuSans-36" transform="translate(63.623047 0)"/>
       <use xlink:href="#DejaVuSans-2d" transform="translate(127.246094 0)"/>
       <use xlink:href="#DejaVuSans-30" transform="translate(163.330078 0)"/>
       <use xlink:href="#DejaVuSans-31" transform="translate(226.953125 0)"/>
       <use xlink:href="#DejaVuSans-20" transform="translate(290.576172 0)"/>
       <use xlink:href="#DejaVuSans-31" transform="translate(322.363281 0)"/>
       <use xlink:href="#DejaVuSans-32" transform="translate(385.986328 0)"/>
      </g>
     </g>
    </g>
    <g id="xtick_2">
     <g id="line2d_2">
      <g>
       <use xlink:href="#mb4bb71dbf7" x="142.356471" y="246.04" style="stroke: #000000; stroke-width: 0.8"/>
      </g>
     </g>
     <g id="text_2">
      <!-- 06-02 00 -->
      <g transform="translate(119.876003 260.638438) scale(0.1 -0.1)">
       <use xlink:href="#DejaVuSans-30"/>
       <use xlink:href="#DejaVuSans-36" transform="translate(63.623047 0)"/>
       <use xlink:href="#DejaVuSans-2d" transform="translate(127.246094 0)"/>
       <use xlink:href="#DejaVuSans-30" transform="translate(163.330078 0)"/>
       <use xlink:href="#DejaVuSans-32" transform="translate(226.953125 0)"/>
       <use xlink:href="#DejaVuSans-20" transform="translate(290.576172 0)"/>
       <use xlink:href="#DejaVuSans-30" transform="translate(322.363281 0)"/>
       <use xlink:href="#DejaVuSans-30" transform="translate(385.986328 0)"/>
      </g>
     </g>
    </g>
    <g id="xtick_3">
     <g id="line2d_3">
      <g>
       <use xlink:href="#mb4bb71dbf7" x="237.757907" y="246.04" style="stroke: #000000; stroke-width: 0.8"/>
      </g>
     </g>
     <g id="text_3">
      <!-- 06-02 12 -->
      <g transform="translate(215.277438 260.638438) scale(0.1 -0.1)">
       <use xlink:href="#DejaVuSans-30"/>
       <use xlink:href="#DejaVuSans-36" transform="translate(63.623047 0)"/>
       <use xlink:href="#DejaVuSans-2d" transform="translate(127.246094 0)"/>
       <use xlink:href="#DejaVuSans-30" transform="translate(163.330078 0)"/>
       <use xlink:href="#DejaVuSans-32" transform="translate(226.953125 0)"/>
       <use xlink:href="#DejaVuSans-20" transform="translate(290.576172 0)"/>
       <use xlink:href="#DejaVuSans-31" transform="translate(322.363281 0)"/>
       <use xlink:href="#DejaVuSans-32" transform="translate(385.986328 0)"/>
      </g>
     </g>
    </g>
    <g id="xtick_4">
     <g id="line2d_4">
      <g>
       <use xlink:href="#mb4bb71dbf7" x="333.159342" y="246.04" style="stroke: #000000; stroke-width: 0.8"/>
      </g>
     </g>
     <g id="text_4">
      <!-- 06-03 00 -->
      <g transform="translate(310.678873 260.638438) scale(0.1 -0.1)">
       <defs>
        <path id="DejaVuSans-33" d="M 2597 2516 
Q 3050 2419 3304 2112 
Q 3559 1806 3559 1356 
Q 3559 666 3084 287 
Q 2609 -91 1734 -91 
Q 1441 -91 1130 -33 
Q 819 25 488 141 
L 488 750 
Q 750 597 1062 519 
Q 1375 441 1716 441 
Q 2309 441 2620 675 
Q 2931 909 2931 1356 
Q 2931 1769 2642 2001 
Q 2353 2234 1838 2234 
L 1294 2234 
L 1294 2753 
L 1863 2753 
Q 2328 2753 2575 2939 
Q 2822 3125 2822 3475 
Q 2822 3834 2567 4026 
Q 2313 4219 1838 4219 
Q 1578 4219 1281 4162 
Q 984 4106 628 3988 
L 628 4550 
Q 988 4650 1302 4700 
Q 1616 4750 1894 4750 
Q 2613 4750 3031 4423 
Q 3450 4097 3450 3541 
Q 3450 3153 3228 2886 
Q 3006 2619 2597 2516 
z
" transform="scale(0.015625)"/>
       </defs>
       <use xlink:href="#DejaVuSans-30"/>
       <use xlink:href="#DejaVuSans-36" transform="translate(63.623047 0)"/>
       <use xlink:href="#DejaVuSans-2d" transform="translate(127.246094 0)"/>
       <use xlink:href="#DejaVuSans-30" transform="translate(163.330078 0)"/>
       <use xlink:href="#DejaVuSans-33" transform="translate(226.953125 0)"/>
       <use xlink:href="#DejaVuSans-20" transform="translate(290.576172 0)"/>
       <use xlink:href="#DejaVuSans-30" transform="translate(322.363281 0)"/>
       <use xlink:href="#DejaVuSans-30" transform="translate(385.986328 0)"/>
      </g>
     </g>
    </g>
    <g id="xtick_5">
     <g id="line2d_5">
      <g>
       <use xlink:href="#mb4bb71dbf7" x="428.560778" y="246.04" style="stroke: #000000; stroke-width: 0.8"/>
      </g>
     </g>
     <g id="text_5">
      <!-- 06-03 12 -->
      <g transform="translate(406.080309 260.638438) scale(0.1 -0.1)">
       <use xlink:href="#DejaVuSans-30"/>
       <use xlink:href="#DejaVuSans-36" transform="translate(63.623047 0)"/>
       <use xlink:href="#DejaVuSans-2d" transform="translate(127.246094 0)"/>
       <use xlink:href="#DejaVuSans-30" transform="translate(163.330078 0)"/>
       <use xlink:href="#DejaVuSans-33" transform="translate(226.953125 0)"/>
       <use xlink:href="#DejaVuSans-20" transform="translate(290.576172 0)"/>
       <use xlink:href="#DejaVuSans-31" transform="translate(322.363281 0)"/>
       <use xlink:href="#DejaVuSans-32" transform="translate(385.986328 0)"/>
      </g>
     </g>
    </g>
    <g id="xtick_6">
     <g id="line2d_6">
      <g>
       <use xlink:href="#mb4bb71dbf7" x="523.962213" y="246.04" style="stroke: #000000; stroke-width: 0.8"/>
      </g>
     </g>
     <g id="text_6">
      <!-- 06-04 00 -->
      <g transform="translate(501.481744 260.638438) scale(0.1 -0.1)">
       <defs>
        <path id="DejaVuSans-34" d="M 2419 4116 
L 825 1625 
L 2419 1625 
L 2419 4116 
z
M 2253 4666 
L 3047 4666 
L 3047 1625 
L 3713 1625 
L 3713 1100 
L 3047 1100 
L 3047 0 
L 2419 0 
L 2419 1100 
L 313 1100 
L 313 1709 
L 2253 4666 
z
" transform="scale(0.015625)"/>
       </defs>
       <use xlink:href="#DejaVuSans-30"/>
       <use xlink:href="#DejaVuSans-36" transform="translate(63.623047 0)"/>
       <use xlink:href="#DejaVuSans-2d" transform="translate(127.246094 0)"/>
       <use xlink:href="#DejaVuSans-30" transform="translate(163.330078 0)"/>
       <use xlink:href="#DejaVuSans-34" transform="translate(226.953125 0)"/>
       <use xlink:href="#DejaVuSans-20" transform="translate(290.576172 0)"/>
       <use xlink:href="#DejaVuSans-30" transform="translate(322.363281 0)"/>
       <use xlink:href="#DejaVuSans-30" transform="translate(385.986328 0)"/>
      </g>
     </g>
    </g>
    <g id="xtick_7">
     <g id="line2d_7">
      <g>
       <use xlink:href="#mb4bb71dbf7" x="619.363648" y="246.04" style="stroke: #000000; stroke-width: 0.8"/>
      </g>
     </g>
     <g id="text_7">
      <!-- 06-04 12 -->
      <g transform="translate(596.88318 260.638438) scale(0.1 -0.1)">
       <use xlink:href="#DejaVuSans-30"/>
       <use xlink:href="#DejaVuSans-36" transform="translate(63.623047 0)"/>
       <use xlink:href="#DejaVuSans-2d" transform="translate(127.246094 0)"/>
       <use xlink:href="#DejaVuSans-30" transform="translate(163.330078 0)"/>
       <use xlink:href="#DejaVuSans-34" transform="translate(226.953125 0)"/>
       <use xlink:href="#DejaVuSans-20" transform="translate(290.576172 0)"/>
       <use xlink:href="#DejaVuSans-31" transform="translate(322.363281 0)"/>
       <use xlink:href="#DejaVuSans-32" transform="translate(385.986328 0)"/>
      </g>
     </g>
    </g>
    <g id="text_8">
     <!-- Tijd -->
     <g transform="translate(368.035 274.316562) scale(0.1 -0.1)">
      <defs>
       <path id="DejaVuSans-54" d="M -19 4666 
L 3928 4666 
L 3928 4134 
L 2272 4134 
L 2272 0 
L 1638 0 
L 1638 4134 
L -19 4134 
L -19 4666 
z
" transform="scale(0.015625)"/>
       <path id="DejaVuSans-69" d="M 603 3500 
L 1178 3500 
L 1178 0 
L 603 0 
L 603 3500 
z
M 603 4863 
L 1178 4863 
L 1178 4134 
L 603 4134 
L 603 4863 
z
" transform="scale(0.015625)"/>
       <path id="DejaVuSans-6a" d="M 603 3500 
L 1178 3500 
L 1178 -63 
Q 1178 -731 923 -1031 
Q 669 -1331 103 -1331 
L -116 -1331 
L -116 -844 
L 38 -844 
Q 366 -844 484 -692 
Q 603 -541 603 -63 
L 603 3500 
z
M 603 4863 
L 1178 4863 
L 1178 4134 
L 603 4134 
L 603 4863 
z
" transform="scale(0.015625)"/>
       <path id="DejaVuSans-64" d="M 2906 2969 
L 2906 4863 
L 3481 4863 
L 3481 0 
L 2906 0 
L 2906 525 
Q 2725 213 2448 61 
Q 2172 -91 1784 -91 
Q 1150 -91 751 415 
Q 353 922 353 1747 
Q 353 2572 751 3078 
Q 1150 3584 1784 3584 
Q 2172 3584 2448 3432 
Q 2725 3281 2906 2969 
z
M 947 1747 
Q 947 1113 1208 752 
Q 1469 391 1925 391 
Q 2381 391 2643 752 
Q 2906 1113 2906 1747 
Q 2906 2381 2643 2742 
Q 2381 3103 1925 3103 
Q 1469 3103 1208 2742 
Q 947 2381 947 1747 
z
" transform="scale(0.015625)"/>
      </defs>
      <use xlink:href="#DejaVuSans-54"/>
      <use xlink:href="#DejaVuSans-69" transform="translate(57.958984 0)"/>
      <use xlink:href="#DejaVuSans-6a" transform="translate(85.742188 0)"/>
      <use xlink:href="#DejaVuSans-64" transform="translate(113.525391 0)"/>
     </g>
    </g>
   </g>
   <g id="matplotlib.axis_2">
    <g id="ytick_1">
     <g id="line2d_8">
      <defs>
       <path id="m19f53e65c5" d="M 0 0 
L -3.5 0 
" style="stroke: #000000; stroke-width: 0.8"/>
      </defs>
      <g>
       <use xlink:href="#m19f53e65c5" x="44.57" y="220.522905" style="stroke: #000000; stroke-width: 0.8"/>
      </g>
     </g>
     <g id="text_9">
      <!-- 40 -->
      <g transform="translate(24.845 224.322124) scale(0.1 -0.1)">
       <use xlink:href="#DejaVuSans-34"/>
       <use xlink:href="#DejaVuSans-30" transform="translate(63.623047 0)"/>
      </g>
     </g>
    </g>
    <g id="ytick_2">
     <g id="line2d_9">
      <g>
       <use xlink:href="#m19f53e65c5" x="44.57" y="186.613551" style="stroke: #000000; stroke-width: 0.8"/>
      </g>
     </g>
     <g id="text_10">
      <!-- 45 -->
      <g transform="translate(24.845 190.412769) scale(0.1 -0.1)">
       <defs>
        <path id="DejaVuSans-35" d="M 691 4666 
L 3169 4666 
L 3169 4134 
L 1269 4134 
L 1269 2991 
Q 1406 3038 1543 3061 
Q 1681 3084 1819 3084 
Q 2600 3084 3056 2656 
Q 3513 2228 3513 1497 
Q 3513 744 3044 326 
Q 2575 -91 1722 -91 
Q 1428 -91 1123 -41 
Q 819 9 494 109 
L 494 744 
Q 775 591 1075 516 
Q 1375 441 1709 441 
Q 2250 441 2565 725 
Q 2881 1009 2881 1497 
Q 2881 1984 2565 2268 
Q 2250 2553 1709 2553 
Q 1456 2553 1204 2497 
Q 953 2441 691 2322 
L 691 4666 
z
" transform="scale(0.015625)"/>
       </defs>
       <use xlink:href="#DejaVuSans-34"/>
       <use xlink:href="#DejaVuSans-35" transform="translate(63.623047 0)"/>
      </g>
     </g>
    </g>
    <g id="ytick_3">
     <g id="line2d_10">
      <g>
       <use xlink:href="#m19f53e65c5" x="44.57" y="152.704196" style="stroke: #000000; stroke-width: 0.8"/>
      </g>
     </g>
     <g id="text_11">
      <!-- 50 -->
      <g transform="translate(24.845 156.503414) scale(0.1 -0.1)">
       <use xlink:href="#DejaVuSans-35"/>
       <use xlink:href="#DejaVuSans-30" transform="translate(63.623047 0)"/>
      </g>
     </g>
    </g>
    <g id="ytick_4">
     <g id="line2d_11">
      <g>
       <use xlink:href="#m19f53e65c5" x="44.57" y="118.794841" style="stroke: #000000; stroke-width: 0.8"/>
      </g>
     </g>
     <g id="text_12">
      <!-- 55 -->
      <g transform="translate(24.845 122.59406) scale(0.1 -0.1)">
       <use xlink:href="#DejaVuSans-35"/>
       <use xlink:href="#DejaVuSans-35" transform="translate(63.623047 0)"/>
      </g>
     </g>
    </g>
    <g id="ytick_5">
     <g id="line2d_12">
      <g>
       <use xlink:href="#m19f53e65c5" x="44.57" y="84.885486" style="stroke: #000000; stroke-width: 0.8"/>
      </g>
     </g>
     <g id="text_13">
      <!-- 60 -->
      <g transform="translate(24.845 88.684705) scale(0.1 -0.1)">
       <use xlink:href="#DejaVuSans-36"/>
       <use xlink:href="#DejaVuSans-30" transform="translate(63.623047 0)"/>
      </g>
     </g>
    </g>
    <g id="ytick_6">
     <g id="line2d_13">
      <g>
       <use xlink:href="#m19f53e65c5" x="44.57" y="50.976131" style="stroke: #000000; stroke-width: 0.8"/>
      </g>
     </g>
     <g id="text_14">
      <!-- 65 -->
      <g transform="translate(24.845 54.77535) scale(0.1 -0.1)">
       <use xlink:href="#DejaVuSans-36"/>
       <use xlink:href="#DejaVuSans-35" transform="translate(63.623047 0)"/>
      </g>
     </g>
    </g>
    <g id="text_15">
     <!-- (Rel.) Vochtigheid (%) -->
     <g transform="translate(18.765312 190.838125) rotate(-90) scale(0.1 -0.1)">
      <defs>
       <path id="DejaVuSans-28" d="M 1984 4856 
Q 1566 4138 1362 3434 
Q 1159 2731 1159 2009 
Q 1159 1288 1364 580 
Q 1569 -128 1984 -844 
L 1484 -844 
Q 1016 -109 783 600 
Q 550 1309 550 2009 
Q 550 2706 781 3412 
Q 1013 4119 1484 4856 
L 1984 4856 
z
" transform="scale(0.015625)"/>
       <path id="DejaVuSans-52" d="M 2841 2188 
Q 3044 2119 3236 1894 
Q 3428 1669 3622 1275 
L 4263 0 
L 3584 0 
L 2988 1197 
Q 2756 1666 2539 1819 
Q 2322 1972 1947 1972 
L 1259 1972 
L 1259 0 
L 628 0 
L 628 4666 
L 2053 4666 
Q 2853 4666 3247 4331 
Q 3641 3997 3641 3322 
Q 3641 2881 3436 2590 
Q 3231 2300 2841 2188 
z
M 1259 4147 
L 1259 2491 
L 2053 2491 
Q 2509 2491 2742 2702 
Q 2975 2913 2975 3322 
Q 2975 3731 2742 3939 
Q 2509 4147 2053 4147 
L 1259 4147 
z
" transform="scale(0.015625)"/>
       <path id="DejaVuSans-65" d="M 3597 1894 
L 3597 1613 
L 953 1613 
Q 991 1019 1311 708 
Q 1631 397 2203 397 
Q 2534 397 2845 478 
Q 3156 559 3463 722 
L 3463 178 
Q 3153 47 2828 -22 
Q 2503 -91 2169 -91 
Q 1331 -91 842 396 
Q 353 884 353 1716 
Q 353 2575 817 3079 
Q 1281 3584 2069 3584 
Q 2775 3584 3186 3129 
Q 3597 2675 3597 1894 
z
M 3022 2063 
Q 3016 2534 2758 2815 
Q 2500 3097 2075 3097 
Q 1594 3097 1305 2825 
Q 1016 2553 972 2059 
L 3022 2063 
z
" transform="scale(0.015625)"/>
       <path id="DejaVuSans-6c" d="M 603 4863 
L 1178 4863 
L 1178 0 
L 603 0 
L 603 4863 
z
" transform="scale(0.015625)"/>
       <path id="DejaVuSans-2e" d="M 684 794 
L 1344 794 
L 1344 0 
L 684 0 
L 684 794 
z
" transform="scale(0.015625)"/>
       <path id="DejaVuSans-29" d="M 513 4856 
L 1013 4856 
Q 1481 4119 1714 3412 
Q 1947 2706 1947 2009 
Q 1947 1309 1714 600 
Q 1481 -109 1013 -844 
L 513 -844 
Q 928 -128 1133 580 
Q 1338 1288 1338 2009 
Q 1338 2731 1133 3434 
Q 928 4138 513 4856 
z
" transform="scale(0.015625)"/>
       <path id="DejaVuSans-56" d="M 1831 0 
L 50 4666 
L 709 4666 
L 2188 738 
L 3669 4666 
L 4325 4666 
L 2547 0 
L 1831 0 
z
" transform="scale(0.015625)"/>
       <path id="DejaVuSans-6f" d="M 1959 3097 
Q 1497 3097 1228 2736 
Q 959 2375 959 1747 
Q 959 1119 1226 758 
Q 1494 397 1959 397 
Q 2419 397 2687 759 
Q 2956 1122 2956 1747 
Q 2956 2369 2687 2733 
Q 2419 3097 1959 3097 
z
M 1959 3584 
Q 2709 3584 3137 3096 
Q 3566 2609 3566 1747 
Q 3566 888 3137 398 
Q 2709 -91 1959 -91 
Q 1206 -91 779 398 
Q 353 888 353 1747 
Q 353 2609 779 3096 
Q 1206 3584 1959 3584 
z
" transform="scale(0.015625)"/>
       <path id="DejaVuSans-63" d="M 3122 3366 
L 3122 2828 
Q 2878 2963 2633 3030 
Q 2388 3097 2138 3097 
Q 1578 3097 1268 2742 
Q 959 2388 959 1747 
Q 959 1106 1268 751 
Q 1578 397 2138 397 
Q 2388 397 2633 464 
Q 2878 531 3122 666 
L 3122 134 
Q 2881 22 2623 -34 
Q 2366 -91 2075 -91 
Q 1284 -91 818 406 
Q 353 903 353 1747 
Q 353 2603 823 3093 
Q 1294 3584 2113 3584 
Q 2378 3584 2631 3529 
Q 2884 3475 3122 3366 
z
" transform="scale(0.015625)"/>
       <path id="DejaVuSans-68" d="M 3513 2113 
L 3513 0 
L 2938 0 
L 2938 2094 
Q 2938 2591 2744 2837 
Q 2550 3084 2163 3084 
Q 1697 3084 1428 2787 
Q 1159 2491 1159 1978 
L 1159 0 
L 581 0 
L 581 4863 
L 1159 4863 
L 1159 2956 
Q 1366 3272 1645 3428 
Q 1925 3584 2291 3584 
Q 2894 3584 3203 3211 
Q 3513 2838 3513 2113 
z
" transform="scale(0.015625)"/>
       <path id="DejaVuSans-74" d="M 1172 4494 
L 1172 3500 
L 2356 3500 
L 2356 3053 
L 1172 3053 
L 1172 1153 
Q 1172 725 1289 603 
Q 1406 481 1766 481 
L 2356 481 
L 2356 0 
L 1766 0 
Q 1100 0 847 248 
Q 594 497 594 1153 
L 594 3053 
L 172 3053 
L 172 3500 
L 594 3500 
L 594 4494 
L 1172 4494 
z
" transform="scale(0.015625)"/>
       <path id="DejaVuSans-67" d="M 2906 1791 
Q 2906 2416 2648 2759 
Q 2391 3103 1925 3103 
Q 1463 3103 1205 2759 
Q 947 2416 947 1791 
Q 947 1169 1205 825 
Q 1463 481 1925 481 
Q 2391 481 2648 825 
Q 2906 1169 2906 1791 
z
M 3481 434 
Q 3481 -459 3084 -895 
Q 2688 -1331 1869 -1331 
Q 1566 -1331 1297 -1286 
Q 1028 -1241 775 -1147 
L 775 -588 
Q 1028 -725 1275 -790 
Q 1522 -856 1778 -856 
Q 2344 -856 2625 -561 
Q 2906 -266 2906 331 
L 2906 616 
Q 2728 306 2450 153 
Q 2172 0 1784 0 
Q 1141 0 747 490 
Q 353 981 353 1791 
Q 353 2603 747 3093 
Q 1141 3584 1784 3584 
Q 2172 3584 2450 3431 
Q 2728 3278 2906 2969 
L 2906 3500 
L 3481 3500 
L 3481 434 
z
" transform="scale(0.015625)"/>
       <path id="DejaVuSans-25" d="M 4653 2053 
Q 4381 2053 4226 1822 
Q 4072 1591 4072 1178 
Q 4072 772 4226 539 
Q 4381 306 4653 306 
Q 4919 306 5073 539 
Q 5228 772 5228 1178 
Q 5228 1588 5073 1820 
Q 4919 2053 4653 2053 
z
M 4653 2450 
Q 5147 2450 5437 2106 
Q 5728 1763 5728 1178 
Q 5728 594 5436 251 
Q 5144 -91 4653 -91 
Q 4153 -91 3862 251 
Q 3572 594 3572 1178 
Q 3572 1766 3864 2108 
Q 4156 2450 4653 2450 
z
M 1428 4353 
Q 1159 4353 1004 4120 
Q 850 3888 850 3481 
Q 850 3069 1003 2837 
Q 1156 2606 1428 2606 
Q 1700 2606 1854 2837 
Q 2009 3069 2009 3481 
Q 2009 3884 1853 4118 
Q 1697 4353 1428 4353 
z
M 4250 4750 
L 4750 4750 
L 1831 -91 
L 1331 -91 
L 4250 4750 
z
M 1428 4750 
Q 1922 4750 2215 4408 
Q 2509 4066 2509 3481 
Q 2509 2891 2217 2550 
Q 1925 2209 1428 2209 
Q 931 2209 642 2551 
Q 353 2894 353 3481 
Q 353 4063 643 4406 
Q 934 4750 1428 4750 
z
" transform="scale(0.015625)"/>
      </defs>
      <use xlink:href="#DejaVuSans-28"/>
      <use xlink:href="#DejaVuSans-52" transform="translate(39.013672 0)"/>
      <use xlink:href="#DejaVuSans-65" transform="translate(103.996094 0)"/>
      <use xlink:href="#DejaVuSans-6c" transform="translate(165.519531 0)"/>
      <use xlink:href="#DejaVuSans-2e" transform="translate(193.302734 0)"/>
      <use xlink:href="#DejaVuSans-29" transform="translate(225.089844 0)"/>
      <use xlink:href="#DejaVuSans-20" transform="translate(264.103516 0)"/>
      <use xlink:href="#DejaVuSans-56" transform="translate(295.890625 0)"/>
      <use xlink:href="#DejaVuSans-6f" transform="translate(356.548828 0)"/>
      <use xlink:href="#DejaVuSans-63" transform="translate(417.730469 0)"/>
      <use xlink:href="#DejaVuSans-68" transform="translate(472.710938 0)"/>
      <use xlink:href="#DejaVuSans-74" transform="translate(536.089844 0)"/>
      <use xlink:href="#DejaVuSans-69" transform="translate(575.298828 0)"/>
      <use xlink:href="#DejaVuSans-67" transform="translate(603.082031 0)"/>
      <use xlink:href="#DejaVuSans-68" transform="translate(666.558594 0)"/>
      <use xlink:href="#DejaVuSans-65" transform="translate(729.9375 0)"/>
      <use xlink:href="#DejaVuSans-69" transform="translate(791.460938 0)"/>
      <use xlink:href="#DejaVuSans-64" transform="translate(819.244141 0)"/>
      <use xlink:href="#DejaVuSans-20" transform="translate(882.720703 0)"/>
      <use xlink:href="#DejaVuSans-28" transform="translate(914.507812 0)"/>
      <use xlink:href="#DejaVuSans-25" transform="translate(953.521484 0)"/>
      <use xlink:href="#DejaVuSans-29" transform="translate(1048.541016 0)"/>
     </g>
    </g>
   </g>
   <g id="line2d_14">
    <path d="M 74.780455 92.345544 
L 78.755514 91.667357 
L 82.730574 91.893419 
L 86.705634 95.73648 
L 90.680694 100.709852 
L 94.655754 109.978409 
L 98.630813 108.16991 
L 102.605873 106.587473 
L 106.580933 104.552912 
L 110.555993 119.473028 
L 114.531053 113.821469 
L 118.506112 111.560845 
L 122.481172 111.560845 
L 126.456232 122.637901 
L 130.431292 121.733652 
L 134.406352 121.733652 
L 138.381411 114.273594 
L 142.356471 114.047531 
L 146.331531 121.733652 
L 150.306591 123.316088 
L 154.281651 110.430533 
L 158.256711 110.204471 
L 162.23177 116.082092 
L 166.20683 114.273594 
L 170.18189 112.917219 
L 174.15695 112.917219 
L 178.13201 117.664529 
L 182.107069 123.768213 
L 186.082129 123.090026 
L 190.057189 106.361411 
L 194.032249 97.318916 
L 198.007309 112.465095 
L 201.982368 107.039598 
L 205.957428 108.848097 
L 209.932488 101.388039 
L 213.907548 96.866791 
L 217.882608 102.51835 
L 221.857667 102.066226 
L 225.832727 112.691157 
L 229.807787 109.300221 
L 233.782847 112.239032 
L 237.757907 107.491723 
L 241.732967 107.26566 
L 245.708026 106.135348 
L 249.683086 104.778974 
L 253.658146 101.840163 
L 257.633206 97.092854 
L 261.608266 104.326849 
L 265.583325 107.039598 
L 269.558385 93.475856 
L 273.533445 92.345544 
L 277.508505 101.840163 
L 281.483565 100.709852 
L 285.458624 106.361411 
L 289.433684 106.361411 
L 293.408744 105.457161 
L 297.383804 117.664529 
L 301.358864 111.334783 
L 305.333923 112.01297 
L 309.308983 112.917219 
L 317.259103 121.959714 
L 321.234163 125.124587 
L 325.209222 115.403905 
L 329.184282 116.308155 
L 333.159342 111.560845 
L 337.134402 118.568778 
L 341.109462 117.212404 
L 345.084522 112.691157 
L 349.059581 122.863963 
L 353.034641 110.656596 
L 357.009701 114.725718 
L 360.984761 120.60334 
L 364.959821 117.890591 
L 368.93488 121.733652 
L 372.90994 122.863963 
L 376.885 131.454333 
L 380.86006 139.366516 
L 384.83512 122.185776 
L 388.810179 119.69909 
L 392.785239 102.51835 
L 396.760299 106.135348 
L 400.735359 112.691157 
L 404.710419 112.239032 
L 408.685478 120.60334 
L 412.660538 107.26566 
L 416.635598 103.648662 
L 420.610658 104.778974 
L 424.585718 102.970475 
L 428.560778 98.449228 
L 432.535837 93.249793 
L 436.510897 103.196538 
L 440.485957 106.587473 
L 444.461017 91.441295 
L 448.436077 96.640729 
L 452.411136 98.67529 
L 456.386196 96.414667 
L 460.361256 95.962542 
L 464.336316 99.466509 
L 468.311376 97.092854 
L 472.286435 90.98917 
L 476.261495 88.728546 
L 480.236555 104.552912 
L 484.211615 107.943847 
L 488.186675 102.51835 
L 492.161734 111.560845 
L 496.136794 110.430533 
L 500.111854 127.385211 
L 504.086914 119.020903 
L 508.061974 121.281527 
L 512.037033 119.020903 
L 516.012093 117.890591 
L 519.987153 108.848097 
L 523.962213 117.212404 
L 527.937273 117.438467 
L 531.912333 116.986342 
L 535.887392 117.890591 
L 539.862452 128.515523 
L 543.837512 120.377277 
L 547.812572 126.707024 
L 551.787632 117.438467 
L 555.762691 130.097959 
L 559.737751 122.863963 
L 563.712811 120.377277 
L 567.687871 113.143282 
L 571.662931 102.744413 
L 575.63799 93.023731 
L 579.61305 94.83223 
L 583.58811 105.909286 
L 587.56317 126.028837 
L 591.53823 112.691157 
L 595.513289 87.598234 
L 599.488349 96.866791 
L 603.463409 69.96537 
L 607.438469 107.039598 
L 611.413529 100.144696 
L 615.388589 103.648662 
L 619.363648 110.995689 
L 623.338708 112.917219 
L 627.313768 108.395972 
L 631.288828 104.326849 
L 635.263888 103.874725 
L 639.238947 116.308155 
L 643.214007 101.388039 
L 647.189067 94.606168 
L 651.164127 109.074159 
L 655.139187 101.614101 
L 659.114246 100.257727 
L 663.089306 103.648662 
L 667.064366 126.933086 
L 667.064366 126.933086 
" clip-path="url(#p6b252cdd3f)" style="fill: none; stroke: #1f77b4; stroke-width: 2; stroke-linecap: square"/>
   </g>
   <g id="line2d_15">
    <path d="M 74.780455 124.365663 
L 78.755514 124.301074 
L 82.730574 130.437053 
L 86.705634 126.12572 
L 90.680694 130.307874 
L 94.655754 127.546684 
L 98.630813 131.922605 
L 102.605873 134.360849 
L 106.580933 137.235071 
L 110.555993 143.338755 
L 114.531053 143.72629 
L 118.506112 142.757452 
L 122.481172 145.147254 
L 126.456232 146.083798 
L 130.431292 142.660568 
L 134.406352 140.399944 
L 138.381411 136.653768 
L 142.356471 135.232804 
L 146.331531 136.363116 
L 150.306591 141.788613 
L 154.281651 133.198243 
L 158.256711 144.076149 
L 162.23177 139.996261 
L 166.20683 136.63762 
L 170.18189 138.074731 
L 174.15695 144.113826 
L 178.13201 139.382663 
L 182.107069 140.254618 
L 186.082129 135.297394 
L 190.057189 131.53507 
L 194.032249 134.134787 
L 198.007309 138.817508 
L 201.982368 137.364249 
L 205.957428 140.060851 
L 209.932488 137.089745 
L 213.907548 134.990595 
L 217.882608 134.183229 
L 221.857667 133.973314 
L 225.832727 146.374449 
L 229.807787 141.917791 
L 233.782847 139.253485 
L 237.757907 135.749518 
L 241.732967 134.134787 
L 245.708026 136.427705 
L 249.683086 135.894844 
L 253.658146 130.679262 
L 257.633206 129.064531 
L 261.608266 120.877844 
L 265.583325 127.083794 
L 269.558385 122.121187 
L 273.533445 121.959714 
L 277.508505 131.247109 
L 281.483565 130.644277 
L 285.458624 129.322888 
L 289.433684 130.052747 
L 293.408744 130.533937 
L 297.383804 133.262832 
L 301.358864 128.935353 
L 305.333923 130.420905 
L 309.308983 132.229404 
L 313.284043 132.713824 
L 317.259103 137.816374 
L 321.234163 133.392011 
L 325.209222 131.131387 
L 329.184282 131.163682 
L 333.159342 133.375863 
L 337.134402 133.639603 
L 341.109462 132.546968 
L 345.084522 136.201643 
L 349.059581 132.326288 
L 353.034641 135.617649 
L 357.009701 128.434786 
L 360.984761 137.859434 
L 364.959821 132.035637 
L 368.93488 135.055184 
L 372.90994 136.556884 
L 376.885 136.718357 
L 380.86006 136.266232 
L 384.83512 134.9583 
L 388.810179 133.117506 
L 392.785239 134.430821 
L 396.760299 132.326288 
L 400.735359 139.269632 
L 404.710419 135.071331 
L 408.685478 140.884363 
L 412.660538 132.067931 
L 416.635598 134.247818 
L 420.610658 132.713824 
L 424.585718 129.710424 
L 428.560778 132.848385 
L 432.535837 129.968781 
L 436.510897 129.452067 
L 440.485957 135.937904 
L 444.461017 125.70589 
L 448.436077 127.304474 
L 452.411136 128.273313 
L 456.386196 135.561133 
L 460.361256 131.357449 
L 464.336316 127.482095 
L 468.311376 131.761132 
L 472.286435 130.501642 
L 476.261495 127.756599 
L 480.236555 136.46 
L 484.211615 141.950086 
L 488.186675 141.449519 
L 492.161734 147.343288 
L 496.136794 149.636206 
L 500.111854 144.339888 
L 504.086914 144.953486 
L 512.037033 145.663968 
L 516.012093 140.529123 
L 519.987153 140.755185 
L 523.962213 136.917507 
L 527.937273 140.120057 
L 531.912333 137.897111 
L 535.887392 138.010142 
L 539.862452 137.12204 
L 543.837512 139.334222 
L 547.812572 140.658301 
L 551.787632 139.88323 
L 555.762691 144.485214 
L 559.737751 139.70561 
L 563.712811 138.446119 
L 567.687871 131.284787 
L 571.662931 130.908016 
L 575.63799 121.639459 
L 579.61305 123.240734 
L 583.58811 128.063398 
L 587.56317 141.762777 
L 591.53823 137.878272 
L 595.513289 139.159292 
L 599.488349 132.200339 
L 603.463409 126.36793 
L 607.438469 138.594136 
L 611.413529 132.377421 
L 615.388589 135.542294 
L 619.363648 134.638045 
L 623.338708 134.882946 
L 627.313768 131.62388 
L 631.288828 129.438611 
L 635.263888 123.730536 
L 639.238947 129.683511 
L 643.214007 137.377167 
L 647.189067 125.237618 
L 651.164127 128.92997 
L 655.139187 129.212548 
L 659.114246 134.325325 
L 663.089306 124.710139 
L 667.064366 131.360141 
L 671.039426 126.209686 
L 675.014486 110.063182 
L 678.989545 117.381951 
L 678.989545 117.381951 
" clip-path="url(#p6b252cdd3f)" style="fill: none; stroke-dasharray: 5.55,2.4; stroke-dashoffset: 0; stroke: #808080; stroke-width: 1.5"/>
   </g>
   <g id="patch_3">
    <path d="M 44.57 246.04 
L 44.57 26.88 
" style="fill: none; stroke: #000000; stroke-width: 0.8; stroke-linejoin: miter; stroke-linecap: square"/>
   </g>
   <g id="patch_4">
    <path d="M 709.2 246.04 
L 709.2 26.88 
" style="fill: none; stroke: #000000; stroke-width: 0.8; stroke-linejoin: miter; stroke-linecap: square"/>
   </g>
   <g id="patch_5">
    <path d="M 44.57 246.04 
L 709.2 246.04 
" style="fill: none; stroke: #000000; stroke-width: 0.8; stroke-linejoin: miter; stroke-linecap: square"/>
   </g>
   <g id="patch_6">
    <path d="M 44.57 26.88 
L 709.2 26.88 
" style="fill: none; stroke: #000000; stroke-width: 0.8; stroke-linejoin: miter; stroke-linecap: square"/>
   </g>
   <g id="text_16">
    <!-- Luchtvochtigheid - v001/c00001/d031 -->
    <g transform="translate(262.595312 20.88) scale(0.12 -0.12)">
     <defs>
      <path id="DejaVuSans-4c" d="M 628 4666 
L 1259 4666 
L 1259 531 
L 3531 531 
L 3531 0 
L 628 0 
L 628 4666 
z
" transform="scale(0.015625)"/>
      <path id="DejaVuSans-75" d="M 544 1381 
L 544 3500 
L 1119 3500 
L 1119 1403 
Q 1119 906 1312 657 
Q 1506 409 1894 409 
Q 2359 409 2629 706 
Q 2900 1003 2900 1516 
L 2900 3500 
L 3475 3500 
L 3475 0 
L 2900 0 
L 2900 538 
Q 2691 219 2414 64 
Q 2138 -91 1772 -91 
Q 1169 -91 856 284 
Q 544 659 544 1381 
z
M 1991 3584 
L 1991 3584 
z
" transform="scale(0.015625)"/>
      <path id="DejaVuSans-76" d="M 191 3500 
L 800 3500 
L 1894 563 
L 2988 3500 
L 3597 3500 
L 2284 0 
L 1503 0 
L 191 3500 
z
" transform="scale(0.015625)"/>
      <path id="DejaVuSans-2f" d="M 1625 4666 
L 2156 4666 
L 531 -594 
L 0 -594 
L 1625 4666 
z
" transform="scale(0.015625)"/>
     </defs>
     <use xlink:href="#DejaVuSans-4c"/>
     <use xlink:href="#DejaVuSans-75" transform="translate(53.962891 0)"/>
     <use xlink:href="#DejaVuSans-63" transform="translate(117.341797 0)"/>
     <use xlink:href="#DejaVuSans-68" transform="translate(172.322266 0)"/>
     <use xlink:href="#DejaVuSans-74" transform="translate(235.701172 0)"/>
     <use xlink:href="#DejaVuSans-76" transform="translate(274.910156 0)"/>
     <use xlink:href="#DejaVuSans-6f" transform="translate(334.089844 0)"/>
     <use xlink:href="#DejaVuSans-63" transform="translate(395.271484 0)"/>
     <use xlink:href="#DejaVuSans-68" transform="translate(450.251953 0)"/>
     <use xlink:href="#DejaVuSans-74" transform="translate(513.630859 0)"/>
     <use xlink:href="#DejaVuSans-69" transform="translate(552.839844 0)"/>
     <use xlink:href="#DejaVuSans-67" transform="translate(580.623047 0)"/>
     <use xlink:href="#DejaVuSans-68" transform="translate(644.099609 0)"/>
     <use xlink:href="#DejaVuSans-65" transform="translate(707.478516 0)"/>
     <use xlink:href="#DejaVuSans-69" transform="translate(769.001953 0)"/>
     <use xlink:href="#DejaVuSans-64" transform="translate(796.785156 0)"/>
     <use xlink:href="#DejaVuSans-20" transform="translate(860.261719 0)"/>
     <use xlink:href="#DejaVuSans-2d" transform="translate(892.048828 0)"/>
     <use xlink:href="#DejaVuSans-20" transform="translate(928.132812 0)"/>
     <use xlink:href="#DejaVuSans-76" transform="translate(959.919922 0)"/>
     <use xlink:href="#DejaVuSans-30" transform="translate(1019.099609 0)"/>
     <use xlink:href="#DejaVuSans-30" transform="translate(1082.722656 0)"/>
     <use xlink:href="#DejaVuSans-31" transform="translate(1146.345703 0)"/>
     <use xlink:href="#DejaVuSans-2f" transform="translate(1209.96875 0)"/>
     <use xlink:href="#DejaVuSans-63" transform="translate(1243.660156 0)"/>
     <use xlink:href="#DejaVuSans-30" transform="translate(1298.640625 0)"/>
     <use xlink:href="#DejaVuSans-30" transform="translate(1362.263672 0)"/>
     <use xlink:href="#DejaVuSans-30" transform="translate(1425.886719 0)"/>
     <use xlink:href="#DejaVuSans-30" transform="translate(1489.509766 0)"/>
     <use xlink:href="#DejaVuSans-31" transform="translate(1553.132812 0)"/>
     <use xlink:href="#DejaVuSans-2f" transform="translate(1616.755859 0)"/>
     <use xlink:href="#DejaVuSans-64" transform="translate(1650.447266 0)"/>
     <use xlink:href="#DejaVuSans-30" transform="translate(1713.923828 0)"/>
     <use xlink:href="#DejaVuSans-33" transform="translate(1777.546875 0)"/>
     <use xlink:href="#DejaVuSans-31" transform="translate(1841.169922 0)"/>
    </g>
   </g>
   <g id="legend_1">
    <g id="patch_7">
     <path d="M 301.413125 241.04 
L 452.356875 241.04 
Q 454.356875 241.04 454.356875 239.04 
L 454.356875 196.005625 
Q 454.356875 194.005625 452.356875 194.005625 
L 301.413125 194.005625 
Q 299.413125 194.005625 299.413125 196.005625 
L 299.413125 239.04 
Q 299.413125 241.04 301.413125 241.04 
z
" style="fill: #ffffff; opacity: 0.8; stroke: #cccccc; stroke-linejoin: miter"/>
    </g>
    <g id="line2d_16">
     <path d="M 303.413125 202.104062 
L 313.413125 202.104062 
L 323.413125 202.104062 
" style="fill: none; stroke: #1f77b4; stroke-width: 2; stroke-linecap: square"/>
    </g>
    <g id="text_17">
     <!-- Hive -->
     <g transform="translate(331.413125 205.604062) scale(0.1 -0.1)">
      <defs>
       <path id="DejaVuSans-48" d="M 628 4666 
L 1259 4666 
L 1259 2753 
L 3553 2753 
L 3553 4666 
L 4184 4666 
L 4184 0 
L 3553 0 
L 3553 2222 
L 1259 2222 
L 1259 0 
L 628 0 
L 628 4666 
z
" transform="scale(0.015625)"/>
      </defs>
      <use xlink:href="#DejaVuSans-48"/>
      <use xlink:href="#DejaVuSans-69" transform="translate(75.195312 0)"/>
      <use xlink:href="#DejaVuSans-76" transform="translate(102.978516 0)"/>
      <use xlink:href="#DejaVuSans-65" transform="translate(162.158203 0)"/>
     </g>
    </g>
    <g id="line2d_17">
     <path d="M 303.413125 216.782187 
L 313.413125 216.782187 
L 323.413125 216.782187 
" style="fill: none; stroke-dasharray: 5.55,2.4; stroke-dashoffset: 0; stroke: #808080; stroke-width: 1.5"/>
    </g>
    <g id="text_18">
     <!-- Gemiddelde (alle hives) -->
     <g transform="translate(331.413125 220.282187) scale(0.1 -0.1)">
      <defs>
       <path id="DejaVuSans-47" d="M 3809 666 
L 3809 1919 
L 2778 1919 
L 2778 2438 
L 4434 2438 
L 4434 434 
Q 4069 175 3628 42 
Q 3188 -91 2688 -91 
Q 1594 -91 976 548 
Q 359 1188 359 2328 
Q 359 3472 976 4111 
Q 1594 4750 2688 4750 
Q 3144 4750 3555 4637 
Q 3966 4525 4313 4306 
L 4313 3634 
Q 3963 3931 3569 4081 
Q 3175 4231 2741 4231 
Q 1884 4231 1454 3753 
Q 1025 3275 1025 2328 
Q 1025 1384 1454 906 
Q 1884 428 2741 428 
Q 3075 428 3337 486 
Q 3600 544 3809 666 
z
" transform="scale(0.015625)"/>
       <path id="DejaVuSans-6d" d="M 3328 2828 
Q 3544 3216 3844 3400 
Q 4144 3584 4550 3584 
Q 5097 3584 5394 3201 
Q 5691 2819 5691 2113 
L 5691 0 
L 5113 0 
L 5113 2094 
Q 5113 2597 4934 2840 
Q 4756 3084 4391 3084 
Q 3944 3084 3684 2787 
Q 3425 2491 3425 1978 
L 3425 0 
L 2847 0 
L 2847 2094 
Q 2847 2600 2669 2842 
Q 2491 3084 2119 3084 
Q 1678 3084 1418 2786 
Q 1159 2488 1159 1978 
L 1159 0 
L 581 0 
L 581 3500 
L 1159 3500 
L 1159 2956 
Q 1356 3278 1631 3431 
Q 1906 3584 2284 3584 
Q 2666 3584 2933 3390 
Q 3200 3197 3328 2828 
z
" transform="scale(0.015625)"/>
       <path id="DejaVuSans-61" d="M 2194 1759 
Q 1497 1759 1228 1600 
Q 959 1441 959 1056 
Q 959 750 1161 570 
Q 1363 391 1709 391 
Q 2188 391 2477 730 
Q 2766 1069 2766 1631 
L 2766 1759 
L 2194 1759 
z
M 3341 1997 
L 3341 0 
L 2766 0 
L 2766 531 
Q 2569 213 2275 61 
Q 1981 -91 1556 -91 
Q 1019 -91 701 211 
Q 384 513 384 1019 
Q 384 1609 779 1909 
Q 1175 2209 1959 2209 
L 2766 2209 
L 2766 2266 
Q 2766 2663 2505 2880 
Q 2244 3097 1772 3097 
Q 1472 3097 1187 3025 
Q 903 2953 641 2809 
L 641 3341 
Q 956 3463 1253 3523 
Q 1550 3584 1831 3584 
Q 2591 3584 2966 3190 
Q 3341 2797 3341 1997 
z
" transform="scale(0.015625)"/>
       <path id="DejaVuSans-73" d="M 2834 3397 
L 2834 2853 
Q 2591 2978 2328 3040 
Q 2066 3103 1784 3103 
Q 1356 3103 1142 2972 
Q 928 2841 928 2578 
Q 928 2378 1081 2264 
Q 1234 2150 1697 2047 
L 1894 2003 
Q 2506 1872 2764 1633 
Q 3022 1394 3022 966 
Q 3022 478 2636 193 
Q 2250 -91 1575 -91 
Q 1294 -91 989 -36 
Q 684 19 347 128 
L 347 722 
Q 666 556 975 473 
Q 1284 391 1588 391 
Q 1994 391 2212 530 
Q 2431 669 2431 922 
Q 2431 1156 2273 1281 
Q 2116 1406 1581 1522 
L 1381 1569 
Q 847 1681 609 1914 
Q 372 2147 372 2553 
Q 372 3047 722 3315 
Q 1072 3584 1716 3584 
Q 2034 3584 2315 3537 
Q 2597 3491 2834 3397 
z
" transform="scale(0.015625)"/>
      </defs>
      <use xlink:href="#DejaVuSans-47"/>
      <use xlink:href="#DejaVuSans-65" transform="translate(77.490234 0)"/>
      <use xlink:href="#DejaVuSans-6d" transform="translate(139.013672 0)"/>
      <use xlink:href="#DejaVuSans-69" transform="translate(236.425781 0)"/>
      <use xlink:href="#DejaVuSans-64" transform="translate(264.208984 0)"/>
      <use xlink:href="#DejaVuSans-64" transform="translate(327.685547 0)"/>
      <use xlink:href="#DejaVuSans-65" transform="translate(391.162109 0)"/>
      <use xlink:href="#DejaVuSans-6c" transform="translate(452.685547 0)"/>
      <use xlink:href="#DejaVuSans-64" transform="translate(480.46875 0)"/>
      <use xlink:href="#DejaVuSans-65" transform="translate(543.945312 0)"/>
      <use xlink:href="#DejaVuSans-20" transform="translate(605.46875 0)"/>
      <use xlink:href="#DejaVuSans-28" transform="translate(637.255859 0)"/>
      <use xlink:href="#DejaVuSans-61" transform="translate(676.269531 0)"/>
      <use xlink:href="#DejaVuSans-6c" transform="translate(737.548828 0)"/>
      <use xlink:href="#DejaVuSans-6c" transform="translate(765.332031 0)"/>
      <use xlink:href="#DejaVuSans-65" transform="translate(793.115234 0)"/>
      <use xlink:href="#DejaVuSans-20" transform="translate(854.638672 0)"/>
      <use xlink:href="#DejaVuSans-68" transform="translate(886.425781 0)"/>
      <use xlink:href="#DejaVuSans-69" transform="translate(949.804688 0)"/>
      <use xlink:href="#DejaVuSans-76" transform="translate(977.587891 0)"/>
      <use xlink:href="#DejaVuSans-65" transform="translate(1036.767578 0)"/>
      <use xlink:href="#DejaVuSans-73" transform="translate(1098.291016 0)"/>
      <use xlink:href="#DejaVuSans-29" transform="translate(1150.390625 0)"/>
     </g>
    </g>
    <g id="patch_8">
     <path d="M 303.413125 234.960312 
L 323.413125 234.960312 
L 323.413125 227.960312 
L 303.413125 227.960312 
z
" style="fill: #808080; fill-opacity: 0.2; stroke: #808080; stroke-opacity: 0.2; stroke-linejoin: miter"/>
    </g>
    <g id="text_19">
     <!-- ±2 Std Dev -->
     <g transform="translate(331.413125 234.960312) scale(0.1 -0.1)">
      <defs>
       <path id="DejaVuSans-b1" d="M 2944 4013 
L 2944 2803 
L 4684 2803 
L 4684 2272 
L 2944 2272 
L 2944 1063 
L 2419 1063 
L 2419 2272 
L 678 2272 
L 678 2803 
L 2419 2803 
L 2419 4013 
L 2944 4013 
z
M 678 531 
L 4684 531 
L 4684 0 
L 678 0 
L 678 531 
z
" transform="scale(0.015625)"/>
       <path id="DejaVuSans-53" d="M 3425 4513 
L 3425 3897 
Q 3066 4069 2747 4153 
Q 2428 4238 2131 4238 
Q 1616 4238 1336 4038 
Q 1056 3838 1056 3469 
Q 1056 3159 1242 3001 
Q 1428 2844 1947 2747 
L 2328 2669 
Q 3034 2534 3370 2195 
Q 3706 1856 3706 1288 
Q 3706 609 3251 259 
Q 2797 -91 1919 -91 
Q 1588 -91 1214 -16 
Q 841 59 441 206 
L 441 856 
Q 825 641 1194 531 
Q 1563 422 1919 422 
Q 2459 422 2753 634 
Q 3047 847 3047 1241 
Q 3047 1584 2836 1778 
Q 2625 1972 2144 2069 
L 1759 2144 
Q 1053 2284 737 2584 
Q 422 2884 422 3419 
Q 422 4038 858 4394 
Q 1294 4750 2059 4750 
Q 2388 4750 2728 4690 
Q 3069 4631 3425 4513 
z
" transform="scale(0.015625)"/>
       <path id="DejaVuSans-44" d="M 1259 4147 
L 1259 519 
L 2022 519 
Q 2988 519 3436 956 
Q 3884 1394 3884 2338 
Q 3884 3275 3436 3711 
Q 2988 4147 2022 4147 
L 1259 4147 
z
M 628 4666 
L 1925 4666 
Q 3281 4666 3915 4102 
Q 4550 3538 4550 2338 
Q 4550 1131 3912 565 
Q 3275 0 1925 0 
L 628 0 
L 628 4666 
z
" transform="scale(0.015625)"/>
      </defs>
      <use xlink:href="#DejaVuSans-b1"/>
      <use xlink:href="#DejaVuSans-32" transform="translate(83.789062 0)"/>
      <use xlink:href="#DejaVuSans-20" transform="translate(147.412109 0)"/>
      <use xlink:href="#DejaVuSans-53" transform="translate(179.199219 0)"/>
      <use xlink:href="#DejaVuSans-74" transform="translate(242.675781 0)"/>
      <use xlink:href="#DejaVuSans-64" transform="translate(281.884766 0)"/>
      <use xlink:href="#DejaVuSans-20" transform="translate(345.361328 0)"/>
      <use xlink:href="#DejaVuSans-44" transform="translate(377.148438 0)"/>
      <use xlink:href="#DejaVuSans-65" transform="translate(454.150391 0)"/>
      <use xlink:href="#DejaVuSans-76" transform="translate(515.673828 0)"/>
     </g>
    </g>
   </g>
  </g>
 </g>
 <defs>
  <clipPath id="p6b252cdd3f">
   <rect x="44.57" y="26.88" width="664.63" height="219.16"/>
  </clipPath>
 </defs>
</svg>
