<?xml version="1.0" encoding="utf-8" standalone="no"?>
<!DOCTYPE svg PUBLIC "-//W3C//DTD SVG 1.1//EN"
  "http://www.w3.org/Graphics/SVG/1.1/DTD/svg11.dtd">
<svg xmlns:xlink="http://www.w3.org/1999/xlink" width="720pt" height="288pt" viewBox="0 0 720 288" xmlns="http://www.w3.org/2000/svg" version="1.1">
 <metadata>
  <rdf:RDF xmlns:dc="http://purl.org/dc/elements/1.1/" xmlns:cc="http://creativecommons.org/ns#" xmlns:rdf="http://www.w3.org/1999/02/22-rdf-syntax-ns#">
   <cc:Work>
    <dc:type rdf:resource="http://purl.org/dc/dcmitype/StillImage"/>
    <dc:date>2025-06-15T19:12:41.955516</dc:date>
    <dc:format>image/svg+xml</dc:format>
    <dc:creator>
     <cc:Agent>
      <dc:title>Matplotlib v3.10.3, https://matplotlib.org/</dc:title>
     </cc:Agent>
    </dc:creator>
   </cc:Work>
  </rdf:RDF>
 </metadata>
 <defs>
  <style type="text/css">*{stroke-linejoin: round; stroke-linecap: butt}</style>
 </defs>
 <g id="figure_1">
  <g id="patch_1">
   <path d="M 0 288 
L 720 288 
L 720 0 
L 0 0 
z
" style="fill: #ffffff"/>
  </g>
  <g id="axes_1">
   <g id="patch_2">
    <path d="M 44.57 246.04 
L 709.2 246.04 
L 709.2 26.88 
L 44.57 26.88 
z
" style="fill: #ffffff"/>
   </g>
   <g id="FillBetweenPolyCollection_1">
    <defs>
     <path id="mdf1c4e9c86" d="M 74.780455 -195.818163 
L 74.780455 -74.17966 
L 78.355656 -76.378237 
L 81.930858 -71.128422 
L 85.50606 -69.248998 
L 89.081261 -67.252918 
L 92.656463 -63.927812 
L 96.231665 -62.291415 
L 99.806867 -68.265935 
L 103.382068 -69.138222 
L 106.95727 -65.957051 
L 110.532472 -66.903405 
L 114.107673 -72.583427 
L 117.682875 -72.027684 
L 121.258077 -76.720056 
L 124.833279 -88.717292 
L 128.40848 -91.408933 
L 131.983682 -90.90333 
L 135.558884 -85.515968 
L 139.134086 -88.186024 
L 142.709287 -88.21395 
L 146.284489 -85.718767 
L 149.859691 -85.128517 
L 153.434892 -85.514644 
L 157.010094 -87.871435 
L 160.585296 -82.128079 
L 164.160498 -79.81468 
L 167.735699 -72.264232 
L 171.310901 -71.418022 
L 174.886103 -64.245673 
L 178.461304 -72.469713 
L 182.036506 -72.118082 
L 185.611708 -71.745116 
L 189.18691 -72.608352 
L 192.762111 -73.287331 
L 196.337313 -70.544524 
L 199.912515 -69.976778 
L 203.487717 -70.187749 
L 207.062918 -68.050739 
L 210.63812 -64.217553 
L 214.213322 -63.65382 
L 217.788523 -62.616849 
L 221.363725 -60.911761 
L 224.938927 -66.352573 
L 228.514129 -66.989811 
L 232.08933 -63.573839 
L 235.664532 -52.726588 
L 239.239734 -68.362808 
L 242.814935 -69.262272 
L 246.390137 -53.67099 
L 249.965339 -57.438377 
L 253.540541 -63.428481 
L 257.115742 -66.821977 
L 260.690944 -66.251579 
L 264.266146 -68.513027 
L 267.841347 -68.16111 
L 271.416549 -71.894261 
L 274.991751 -75.471816 
L 278.566953 -75.320634 
L 282.142154 -76.074969 
L 285.717356 -73.28294 
L 289.292558 -74.856612 
L 292.86776 -83.847594 
L 296.442961 -73.067138 
L 300.018163 -79.7858 
L 303.593365 -74.369613 
L 307.168566 -84.185838 
L 310.743768 -85.756562 
L 314.31897 -81.57473 
L 317.894172 -83.010149 
L 321.469373 -89.006221 
L 325.044575 -86.822385 
L 328.619777 -77.760544 
L 332.194978 -78.563662 
L 335.77018 -71.678039 
L 339.345382 -79.855097 
L 342.920584 -81.013574 
L 346.495785 -77.900766 
L 350.070987 -75.366127 
L 353.646189 -59.423163 
L 357.221391 -61.687086 
L 360.796592 -74.566652 
L 364.371794 -61.903398 
L 367.946996 -75.250981 
L 371.522197 -69.480643 
L 375.097399 -74.082555 
L 378.672601 -72.431214 
L 382.247803 -71.179997 
L 385.823004 -64.557488 
L 389.398206 -77.006141 
L 392.973408 -74.157144 
L 396.548609 -71.466334 
L 400.123811 -67.283249 
L 403.699013 -64.143392 
L 407.274215 -64.838797 
L 410.849416 -66.031669 
L 414.424618 -72.302938 
L 417.99982 -75.014103 
L 421.575022 -77.808586 
L 425.150223 -79.105522 
L 428.725425 -75.562071 
L 432.300627 -72.648315 
L 435.875828 -69.897976 
L 439.45103 -69.429091 
L 443.026232 -63.764433 
L 446.601434 -55.566569 
L 450.176635 -51.921818 
L 453.751837 -57.826064 
L 457.327039 -58.06532 
L 460.90224 -63.04077 
L 464.477442 -58.237893 
L 468.052644 -69.75021 
L 471.627846 -72.400083 
L 475.203047 -69.956768 
L 478.778249 -67.960229 
L 482.353451 -70.074227 
L 485.928653 -70.166968 
L 489.503854 -72.741844 
L 493.079056 -67.41732 
L 496.654258 -72.800986 
L 500.229459 -69.78888 
L 503.804661 -73.448575 
L 507.379863 -71.659845 
L 510.955065 -64.507277 
L 514.530266 -66.752204 
L 518.105468 -69.447221 
L 521.68067 -68.210828 
L 525.255871 -62.871876 
L 528.831073 -69.858119 
L 532.406275 -62.723129 
L 535.981477 -58.024151 
L 539.556678 -58.778115 
L 543.13188 -69.768508 
L 546.707082 -70.692833 
L 550.282283 -67.795354 
L 553.857485 -72.604967 
L 557.432687 -73.366406 
L 561.007889 -76.079342 
L 564.58309 -74.792604 
L 568.158292 -72.923393 
L 571.733494 -74.749743 
L 575.308696 -75.258097 
L 578.883897 -73.215233 
L 582.459099 -75.196743 
L 586.034301 -74.179873 
L 589.609502 -81.646688 
L 593.184704 -79.862661 
L 596.759906 -123.495882 
L 600.335108 -119.120838 
L 603.910309 -126.779871 
L 607.485511 -124.95583 
L 611.060713 -107.966967 
L 614.635914 -114.698936 
L 618.211116 -109.187543 
L 621.786318 -111.154499 
L 625.36152 -118.028524 
L 628.936721 -118.307242 
L 632.511923 -107.879831 
L 636.087125 -111.334652 
L 639.662327 -95.254783 
L 643.237528 -92.586569 
L 643.237528 -165.190925 
L 643.237528 -165.190925 
L 639.662327 -161.293852 
L 636.087125 -157.9122 
L 632.511923 -162.823447 
L 628.936721 -156.037103 
L 625.36152 -155.496581 
L 621.786318 -154.90642 
L 618.211116 -154.597711 
L 614.635914 -150.724797 
L 611.060713 -158.184979 
L 607.485511 -150.025701 
L 603.910309 -146.745235 
L 600.335108 -151.855521 
L 596.759906 -151.394623 
L 593.184704 -185.788638 
L 589.609502 -183.913585 
L 586.034301 -189.423327 
L 582.459099 -186.267331 
L 578.883897 -185.904904 
L 575.308696 -181.245024 
L 571.733494 -182.345051 
L 568.158292 -184.922371 
L 564.58309 -183.417266 
L 561.007889 -183.518685 
L 557.432687 -187.232914 
L 553.857485 -185.991767 
L 550.282283 -191.506836 
L 546.707082 -188.495574 
L 543.13188 -191.945889 
L 539.556678 -203.778278 
L 535.981477 -207.354069 
L 532.406275 -204.384597 
L 528.831073 -199.525273 
L 525.255871 -202.779423 
L 521.68067 -201.491158 
L 518.105468 -195.953755 
L 514.530266 -201.038222 
L 510.955065 -200.643376 
L 507.379863 -195.561664 
L 503.804661 -197.778107 
L 500.229459 -198.820786 
L 496.654258 -197.242349 
L 493.079056 -205.652652 
L 489.503854 -197.870408 
L 485.928653 -203.699487 
L 482.353451 -201.175212 
L 478.778249 -207.066816 
L 475.203047 -205.206817 
L 471.627846 -199.964432 
L 468.052644 -205.413375 
L 464.477442 -212.155896 
L 460.90224 -202.360206 
L 457.327039 -206.812253 
L 453.751837 -210.692575 
L 450.176635 -221.78534 
L 446.601434 -220.279716 
L 443.026232 -222.322351 
L 439.45103 -221.527619 
L 435.875828 -227.203033 
L 432.300627 -227.729654 
L 428.725425 -226.727457 
L 425.150223 -224.048759 
L 421.575022 -225.573262 
L 417.99982 -227.912612 
L 414.424618 -229.008053 
L 410.849416 -231.729283 
L 407.274215 -231.852591 
L 403.699013 -229.544117 
L 400.123811 -230.068083 
L 396.548609 -226.271861 
L 392.973408 -225.310558 
L 389.398206 -229.971259 
L 385.823004 -237.213188 
L 382.247803 -228.469757 
L 378.672601 -220.027435 
L 375.097399 -220.606247 
L 371.522197 -223.005314 
L 367.946996 -219.642632 
L 364.371794 -222.417468 
L 360.796592 -213.204125 
L 357.221391 -221.568769 
L 353.646189 -229.758527 
L 350.070987 -215.135449 
L 346.495785 -214.85372 
L 342.920584 -215.655058 
L 339.345382 -210.919559 
L 335.77018 -223.320254 
L 332.194978 -210.162895 
L 328.619777 -211.466659 
L 325.044575 -208.981494 
L 321.469373 -210.575264 
L 317.894172 -214.955613 
L 314.31897 -216.117951 
L 310.743768 -218.763119 
L 307.168566 -217.42099 
L 303.593365 -227.100675 
L 300.018163 -227.396411 
L 296.442961 -230.451249 
L 292.86776 -235.564048 
L 289.292558 -237.946495 
L 285.717356 -232.829707 
L 282.142154 -233.587718 
L 278.566953 -234.933726 
L 274.991751 -236.51205 
L 271.416549 -234.901086 
L 267.841347 -240.18169 
L 264.266146 -233.139315 
L 260.690944 -238.859776 
L 257.115742 -234.648311 
L 253.540541 -238.815533 
L 249.965339 -247.226947 
L 246.390137 -251.158182 
L 242.814935 -239.581175 
L 239.239734 -235.201093 
L 235.664532 -237.274342 
L 232.08933 -229.996636 
L 228.514129 -227.243858 
L 224.938927 -227.432465 
L 221.363725 -230.103465 
L 217.788523 -227.423092 
L 214.213322 -223.499276 
L 210.63812 -224.710562 
L 207.062918 -221.794145 
L 203.487717 -216.711772 
L 199.912515 -212.963084 
L 196.337313 -214.267886 
L 192.762111 -205.556331 
L 189.18691 -206.547402 
L 185.611708 -207.469155 
L 182.036506 -201.927175 
L 178.461304 -200.736799 
L 174.886103 -202.54346 
L 171.310901 -198.218945 
L 167.735699 -200.94228 
L 164.160498 -192.221489 
L 160.585296 -193.672692 
L 157.010094 -190.465079 
L 153.434892 -188.042971 
L 149.859691 -195.041534 
L 146.284489 -187.100882 
L 142.709287 -194.472338 
L 139.134086 -193.934598 
L 135.558884 -198.223629 
L 131.983682 -197.108016 
L 128.40848 -201.108234 
L 124.833279 -195.275879 
L 121.258077 -185.099022 
L 117.682875 -187.333673 
L 114.107673 -202.671185 
L 110.532472 -212.29136 
L 106.95727 -215.344331 
L 103.382068 -211.734034 
L 99.806867 -209.641453 
L 96.231665 -213.704413 
L 92.656463 -215.579045 
L 89.081261 -212.331962 
L 85.50606 -207.214968 
L 81.930858 -208.690526 
L 78.355656 -204.728088 
L 74.780455 -195.818163 
z
" style="stroke: #808080; stroke-opacity: 0.2"/>
    </defs>
    <g clip-path="url(#p26dee76c05)">
     <use xlink:href="#mdf1c4e9c86" x="0" y="288" style="fill: #808080; fill-opacity: 0.2; stroke: #808080; stroke-opacity: 0.2"/>
    </g>
   </g>
   <g id="matplotlib.axis_1">
    <g id="xtick_1">
     <g id="line2d_1">
      <defs>
       <path id="mcde6416815" d="M 0 0 
L 0 3.5 
" style="stroke: #000000; stroke-width: 0.8"/>
      </defs>
      <g>
       <use xlink:href="#mcde6416815" x="110.532472" y="246.04" style="stroke: #000000; stroke-width: 0.8"/>
      </g>
     </g>
     <g id="text_1">
      <!-- 06-13 00 -->
      <g transform="translate(88.052003 260.638438) scale(0.1 -0.1)">
       <defs>
        <path id="DejaVuSans-30" d="M 2034 4250 
Q 1547 4250 1301 3770 
Q 1056 3291 1056 2328 
Q 1056 1369 1301 889 
Q 1547 409 2034 409 
Q 2525 409 2770 889 
Q 3016 1369 3016 2328 
Q 3016 3291 2770 3770 
Q 2525 4250 2034 4250 
z
M 2034 4750 
Q 2819 4750 3233 4129 
Q 3647 3509 3647 2328 
Q 3647 1150 3233 529 
Q 2819 -91 2034 -91 
Q 1250 -91 836 529 
Q 422 1150 422 2328 
Q 422 3509 836 4129 
Q 1250 4750 2034 4750 
z
" transform="scale(0.015625)"/>
        <path id="DejaVuSans-36" d="M 2113 2584 
Q 1688 2584 1439 2293 
Q 1191 2003 1191 1497 
Q 1191 994 1439 701 
Q 1688 409 2113 409 
Q 2538 409 2786 701 
Q 3034 994 3034 1497 
Q 3034 2003 2786 2293 
Q 2538 2584 2113 2584 
z
M 3366 4563 
L 3366 3988 
Q 3128 4100 2886 4159 
Q 2644 4219 2406 4219 
Q 1781 4219 1451 3797 
Q 1122 3375 1075 2522 
Q 1259 2794 1537 2939 
Q 1816 3084 2150 3084 
Q 2853 3084 3261 2657 
Q 3669 2231 3669 1497 
Q 3669 778 3244 343 
Q 2819 -91 2113 -91 
Q 1303 -91 875 529 
Q 447 1150 447 2328 
Q 447 3434 972 4092 
Q 1497 4750 2381 4750 
Q 2619 4750 2861 4703 
Q 3103 4656 3366 4563 
z
" transform="scale(0.015625)"/>
        <path id="DejaVuSans-2d" d="M 313 2009 
L 1997 2009 
L 1997 1497 
L 313 1497 
L 313 2009 
z
" transform="scale(0.015625)"/>
        <path id="DejaVuSans-31" d="M 794 531 
L 1825 531 
L 1825 4091 
L 703 3866 
L 703 4441 
L 1819 4666 
L 2450 4666 
L 2450 531 
L 3481 531 
L 3481 0 
L 794 0 
L 794 531 
z
" transform="scale(0.015625)"/>
        <path id="DejaVuSans-33" d="M 2597 2516 
Q 3050 2419 3304 2112 
Q 3559 1806 3559 1356 
Q 3559 666 3084 287 
Q 2609 -91 1734 -91 
Q 1441 -91 1130 -33 
Q 819 25 488 141 
L 488 750 
Q 750 597 1062 519 
Q 1375 441 1716 441 
Q 2309 441 2620 675 
Q 2931 909 2931 1356 
Q 2931 1769 2642 2001 
Q 2353 2234 1838 2234 
L 1294 2234 
L 1294 2753 
L 1863 2753 
Q 2328 2753 2575 2939 
Q 2822 3125 2822 3475 
Q 2822 3834 2567 4026 
Q 2313 4219 1838 4219 
Q 1578 4219 1281 4162 
Q 984 4106 628 3988 
L 628 4550 
Q 988 4650 1302 4700 
Q 1616 4750 1894 4750 
Q 2613 4750 3031 4423 
Q 3450 4097 3450 3541 
Q 3450 3153 3228 2886 
Q 3006 2619 2597 2516 
z
" transform="scale(0.015625)"/>
        <path id="DejaVuSans-20" transform="scale(0.015625)"/>
       </defs>
       <use xlink:href="#DejaVuSans-30"/>
       <use xlink:href="#DejaVuSans-36" transform="translate(63.623047 0)"/>
       <use xlink:href="#DejaVuSans-2d" transform="translate(127.246094 0)"/>
       <use xlink:href="#DejaVuSans-31" transform="translate(163.330078 0)"/>
       <use xlink:href="#DejaVuSans-33" transform="translate(226.953125 0)"/>
       <use xlink:href="#DejaVuSans-20" transform="translate(290.576172 0)"/>
       <use xlink:href="#DejaVuSans-30" transform="translate(322.363281 0)"/>
       <use xlink:href="#DejaVuSans-30" transform="translate(385.986328 0)"/>
      </g>
     </g>
    </g>
    <g id="xtick_2">
     <g id="line2d_2">
      <g>
       <use xlink:href="#mcde6416815" x="196.337313" y="246.04" style="stroke: #000000; stroke-width: 0.8"/>
      </g>
     </g>
     <g id="text_2">
      <!-- 06-13 12 -->
      <g transform="translate(173.856844 260.638438) scale(0.1 -0.1)">
       <defs>
        <path id="DejaVuSans-32" d="M 1228 531 
L 3431 531 
L 3431 0 
L 469 0 
L 469 531 
Q 828 903 1448 1529 
Q 2069 2156 2228 2338 
Q 2531 2678 2651 2914 
Q 2772 3150 2772 3378 
Q 2772 3750 2511 3984 
Q 2250 4219 1831 4219 
Q 1534 4219 1204 4116 
Q 875 4013 500 3803 
L 500 4441 
Q 881 4594 1212 4672 
Q 1544 4750 1819 4750 
Q 2544 4750 2975 4387 
Q 3406 4025 3406 3419 
Q 3406 3131 3298 2873 
Q 3191 2616 2906 2266 
Q 2828 2175 2409 1742 
Q 1991 1309 1228 531 
z
" transform="scale(0.015625)"/>
       </defs>
       <use xlink:href="#DejaVuSans-30"/>
       <use xlink:href="#DejaVuSans-36" transform="translate(63.623047 0)"/>
       <use xlink:href="#DejaVuSans-2d" transform="translate(127.246094 0)"/>
       <use xlink:href="#DejaVuSans-31" transform="translate(163.330078 0)"/>
       <use xlink:href="#DejaVuSans-33" transform="translate(226.953125 0)"/>
       <use xlink:href="#DejaVuSans-20" transform="translate(290.576172 0)"/>
       <use xlink:href="#DejaVuSans-31" transform="translate(322.363281 0)"/>
       <use xlink:href="#DejaVuSans-32" transform="translate(385.986328 0)"/>
      </g>
     </g>
    </g>
    <g id="xtick_3">
     <g id="line2d_3">
      <g>
       <use xlink:href="#mcde6416815" x="282.142154" y="246.04" style="stroke: #000000; stroke-width: 0.8"/>
      </g>
     </g>
     <g id="text_3">
      <!-- 06-14 00 -->
      <g transform="translate(259.661686 260.638438) scale(0.1 -0.1)">
       <defs>
        <path id="DejaVuSans-34" d="M 2419 4116 
L 825 1625 
L 2419 1625 
L 2419 4116 
z
M 2253 4666 
L 3047 4666 
L 3047 1625 
L 3713 1625 
L 3713 1100 
L 3047 1100 
L 3047 0 
L 2419 0 
L 2419 1100 
L 313 1100 
L 313 1709 
L 2253 4666 
z
" transform="scale(0.015625)"/>
       </defs>
       <use xlink:href="#DejaVuSans-30"/>
       <use xlink:href="#DejaVuSans-36" transform="translate(63.623047 0)"/>
       <use xlink:href="#DejaVuSans-2d" transform="translate(127.246094 0)"/>
       <use xlink:href="#DejaVuSans-31" transform="translate(163.330078 0)"/>
       <use xlink:href="#DejaVuSans-34" transform="translate(226.953125 0)"/>
       <use xlink:href="#DejaVuSans-20" transform="translate(290.576172 0)"/>
       <use xlink:href="#DejaVuSans-30" transform="translate(322.363281 0)"/>
       <use xlink:href="#DejaVuSans-30" transform="translate(385.986328 0)"/>
      </g>
     </g>
    </g>
    <g id="xtick_4">
     <g id="line2d_4">
      <g>
       <use xlink:href="#mcde6416815" x="367.946996" y="246.04" style="stroke: #000000; stroke-width: 0.8"/>
      </g>
     </g>
     <g id="text_4">
      <!-- 06-14 12 -->
      <g transform="translate(345.466527 260.638438) scale(0.1 -0.1)">
       <use xlink:href="#DejaVuSans-30"/>
       <use xlink:href="#DejaVuSans-36" transform="translate(63.623047 0)"/>
       <use xlink:href="#DejaVuSans-2d" transform="translate(127.246094 0)"/>
       <use xlink:href="#DejaVuSans-31" transform="translate(163.330078 0)"/>
       <use xlink:href="#DejaVuSans-34" transform="translate(226.953125 0)"/>
       <use xlink:href="#DejaVuSans-20" transform="translate(290.576172 0)"/>
       <use xlink:href="#DejaVuSans-31" transform="translate(322.363281 0)"/>
       <use xlink:href="#DejaVuSans-32" transform="translate(385.986328 0)"/>
      </g>
     </g>
    </g>
    <g id="xtick_5">
     <g id="line2d_5">
      <g>
       <use xlink:href="#mcde6416815" x="453.751837" y="246.04" style="stroke: #000000; stroke-width: 0.8"/>
      </g>
     </g>
     <g id="text_5">
      <!-- 06-15 00 -->
      <g transform="translate(431.271368 260.638438) scale(0.1 -0.1)">
       <defs>
        <path id="DejaVuSans-35" d="M 691 4666 
L 3169 4666 
L 3169 4134 
L 1269 4134 
L 1269 2991 
Q 1406 3038 1543 3061 
Q 1681 3084 1819 3084 
Q 2600 3084 3056 2656 
Q 3513 2228 3513 1497 
Q 3513 744 3044 326 
Q 2575 -91 1722 -91 
Q 1428 -91 1123 -41 
Q 819 9 494 109 
L 494 744 
Q 775 591 1075 516 
Q 1375 441 1709 441 
Q 2250 441 2565 725 
Q 2881 1009 2881 1497 
Q 2881 1984 2565 2268 
Q 2250 2553 1709 2553 
Q 1456 2553 1204 2497 
Q 953 2441 691 2322 
L 691 4666 
z
" transform="scale(0.015625)"/>
       </defs>
       <use xlink:href="#DejaVuSans-30"/>
       <use xlink:href="#DejaVuSans-36" transform="translate(63.623047 0)"/>
       <use xlink:href="#DejaVuSans-2d" transform="translate(127.246094 0)"/>
       <use xlink:href="#DejaVuSans-31" transform="translate(163.330078 0)"/>
       <use xlink:href="#DejaVuSans-35" transform="translate(226.953125 0)"/>
       <use xlink:href="#DejaVuSans-20" transform="translate(290.576172 0)"/>
       <use xlink:href="#DejaVuSans-30" transform="translate(322.363281 0)"/>
       <use xlink:href="#DejaVuSans-30" transform="translate(385.986328 0)"/>
      </g>
     </g>
    </g>
    <g id="xtick_6">
     <g id="line2d_6">
      <g>
       <use xlink:href="#mcde6416815" x="539.556678" y="246.04" style="stroke: #000000; stroke-width: 0.8"/>
      </g>
     </g>
     <g id="text_6">
      <!-- 06-15 12 -->
      <g transform="translate(517.07621 260.638438) scale(0.1 -0.1)">
       <use xlink:href="#DejaVuSans-30"/>
       <use xlink:href="#DejaVuSans-36" transform="translate(63.623047 0)"/>
       <use xlink:href="#DejaVuSans-2d" transform="translate(127.246094 0)"/>
       <use xlink:href="#DejaVuSans-31" transform="translate(163.330078 0)"/>
       <use xlink:href="#DejaVuSans-35" transform="translate(226.953125 0)"/>
       <use xlink:href="#DejaVuSans-20" transform="translate(290.576172 0)"/>
       <use xlink:href="#DejaVuSans-31" transform="translate(322.363281 0)"/>
       <use xlink:href="#DejaVuSans-32" transform="translate(385.986328 0)"/>
      </g>
     </g>
    </g>
    <g id="xtick_7">
     <g id="line2d_7">
      <g>
       <use xlink:href="#mcde6416815" x="625.36152" y="246.04" style="stroke: #000000; stroke-width: 0.8"/>
      </g>
     </g>
     <g id="text_7">
      <!-- 06-16 00 -->
      <g transform="translate(602.881051 260.638438) scale(0.1 -0.1)">
       <use xlink:href="#DejaVuSans-30"/>
       <use xlink:href="#DejaVuSans-36" transform="translate(63.623047 0)"/>
       <use xlink:href="#DejaVuSans-2d" transform="translate(127.246094 0)"/>
       <use xlink:href="#DejaVuSans-31" transform="translate(163.330078 0)"/>
       <use xlink:href="#DejaVuSans-36" transform="translate(226.953125 0)"/>
       <use xlink:href="#DejaVuSans-20" transform="translate(290.576172 0)"/>
       <use xlink:href="#DejaVuSans-30" transform="translate(322.363281 0)"/>
       <use xlink:href="#DejaVuSans-30" transform="translate(385.986328 0)"/>
      </g>
     </g>
    </g>
    <g id="text_8">
     <!-- Tijd -->
     <g transform="translate(368.035 274.316562) scale(0.1 -0.1)">
      <defs>
       <path id="DejaVuSans-54" d="M -19 4666 
L 3928 4666 
L 3928 4134 
L 2272 4134 
L 2272 0 
L 1638 0 
L 1638 4134 
L -19 4134 
L -19 4666 
z
" transform="scale(0.015625)"/>
       <path id="DejaVuSans-69" d="M 603 3500 
L 1178 3500 
L 1178 0 
L 603 0 
L 603 3500 
z
M 603 4863 
L 1178 4863 
L 1178 4134 
L 603 4134 
L 603 4863 
z
" transform="scale(0.015625)"/>
       <path id="DejaVuSans-6a" d="M 603 3500 
L 1178 3500 
L 1178 -63 
Q 1178 -731 923 -1031 
Q 669 -1331 103 -1331 
L -116 -1331 
L -116 -844 
L 38 -844 
Q 366 -844 484 -692 
Q 603 -541 603 -63 
L 603 3500 
z
M 603 4863 
L 1178 4863 
L 1178 4134 
L 603 4134 
L 603 4863 
z
" transform="scale(0.015625)"/>
       <path id="DejaVuSans-64" d="M 2906 2969 
L 2906 4863 
L 3481 4863 
L 3481 0 
L 2906 0 
L 2906 525 
Q 2725 213 2448 61 
Q 2172 -91 1784 -91 
Q 1150 -91 751 415 
Q 353 922 353 1747 
Q 353 2572 751 3078 
Q 1150 3584 1784 3584 
Q 2172 3584 2448 3432 
Q 2725 3281 2906 2969 
z
M 947 1747 
Q 947 1113 1208 752 
Q 1469 391 1925 391 
Q 2381 391 2643 752 
Q 2906 1113 2906 1747 
Q 2906 2381 2643 2742 
Q 2381 3103 1925 3103 
Q 1469 3103 1208 2742 
Q 947 2381 947 1747 
z
" transform="scale(0.015625)"/>
      </defs>
      <use xlink:href="#DejaVuSans-54"/>
      <use xlink:href="#DejaVuSans-69" transform="translate(57.958984 0)"/>
      <use xlink:href="#DejaVuSans-6a" transform="translate(85.742188 0)"/>
      <use xlink:href="#DejaVuSans-64" transform="translate(113.525391 0)"/>
     </g>
    </g>
   </g>
   <g id="matplotlib.axis_2">
    <g id="ytick_1">
     <g id="line2d_8">
      <defs>
       <path id="m07aff915bb" d="M 0 0 
L -3.5 0 
" style="stroke: #000000; stroke-width: 0.8"/>
      </defs>
      <g>
       <use xlink:href="#m07aff915bb" x="44.57" y="210.859906" style="stroke: #000000; stroke-width: 0.8"/>
      </g>
     </g>
     <g id="text_9">
      <!-- 40 -->
      <g transform="translate(24.845 214.659125) scale(0.1 -0.1)">
       <use xlink:href="#DejaVuSans-34"/>
       <use xlink:href="#DejaVuSans-30" transform="translate(63.623047 0)"/>
      </g>
     </g>
    </g>
    <g id="ytick_2">
     <g id="line2d_9">
      <g>
       <use xlink:href="#m07aff915bb" x="44.57" y="169.897912" style="stroke: #000000; stroke-width: 0.8"/>
      </g>
     </g>
     <g id="text_10">
      <!-- 50 -->
      <g transform="translate(24.845 173.69713) scale(0.1 -0.1)">
       <use xlink:href="#DejaVuSans-35"/>
       <use xlink:href="#DejaVuSans-30" transform="translate(63.623047 0)"/>
      </g>
     </g>
    </g>
    <g id="ytick_3">
     <g id="line2d_10">
      <g>
       <use xlink:href="#m07aff915bb" x="44.57" y="128.935917" style="stroke: #000000; stroke-width: 0.8"/>
      </g>
     </g>
     <g id="text_11">
      <!-- 60 -->
      <g transform="translate(24.845 132.735136) scale(0.1 -0.1)">
       <use xlink:href="#DejaVuSans-36"/>
       <use xlink:href="#DejaVuSans-30" transform="translate(63.623047 0)"/>
      </g>
     </g>
    </g>
    <g id="ytick_4">
     <g id="line2d_11">
      <g>
       <use xlink:href="#m07aff915bb" x="44.57" y="87.973923" style="stroke: #000000; stroke-width: 0.8"/>
      </g>
     </g>
     <g id="text_12">
      <!-- 70 -->
      <g transform="translate(24.845 91.773142) scale(0.1 -0.1)">
       <defs>
        <path id="DejaVuSans-37" d="M 525 4666 
L 3525 4666 
L 3525 4397 
L 1831 0 
L 1172 0 
L 2766 4134 
L 525 4134 
L 525 4666 
z
" transform="scale(0.015625)"/>
       </defs>
       <use xlink:href="#DejaVuSans-37"/>
       <use xlink:href="#DejaVuSans-30" transform="translate(63.623047 0)"/>
      </g>
     </g>
    </g>
    <g id="ytick_5">
     <g id="line2d_12">
      <g>
       <use xlink:href="#m07aff915bb" x="44.57" y="47.011928" style="stroke: #000000; stroke-width: 0.8"/>
      </g>
     </g>
     <g id="text_13">
      <!-- 80 -->
      <g transform="translate(24.845 50.811147) scale(0.1 -0.1)">
       <defs>
        <path id="DejaVuSans-38" d="M 2034 2216 
Q 1584 2216 1326 1975 
Q 1069 1734 1069 1313 
Q 1069 891 1326 650 
Q 1584 409 2034 409 
Q 2484 409 2743 651 
Q 3003 894 3003 1313 
Q 3003 1734 2745 1975 
Q 2488 2216 2034 2216 
z
M 1403 2484 
Q 997 2584 770 2862 
Q 544 3141 544 3541 
Q 544 4100 942 4425 
Q 1341 4750 2034 4750 
Q 2731 4750 3128 4425 
Q 3525 4100 3525 3541 
Q 3525 3141 3298 2862 
Q 3072 2584 2669 2484 
Q 3125 2378 3379 2068 
Q 3634 1759 3634 1313 
Q 3634 634 3220 271 
Q 2806 -91 2034 -91 
Q 1263 -91 848 271 
Q 434 634 434 1313 
Q 434 1759 690 2068 
Q 947 2378 1403 2484 
z
M 1172 3481 
Q 1172 3119 1398 2916 
Q 1625 2713 2034 2713 
Q 2441 2713 2670 2916 
Q 2900 3119 2900 3481 
Q 2900 3844 2670 4047 
Q 2441 4250 2034 4250 
Q 1625 4250 1398 4047 
Q 1172 3844 1172 3481 
z
" transform="scale(0.015625)"/>
       </defs>
       <use xlink:href="#DejaVuSans-38"/>
       <use xlink:href="#DejaVuSans-30" transform="translate(63.623047 0)"/>
      </g>
     </g>
    </g>
    <g id="text_14">
     <!-- (Rel.) Vochtigheid (%) -->
     <g transform="translate(18.765312 190.838125) rotate(-90) scale(0.1 -0.1)">
      <defs>
       <path id="DejaVuSans-28" d="M 1984 4856 
Q 1566 4138 1362 3434 
Q 1159 2731 1159 2009 
Q 1159 1288 1364 580 
Q 1569 -128 1984 -844 
L 1484 -844 
Q 1016 -109 783 600 
Q 550 1309 550 2009 
Q 550 2706 781 3412 
Q 1013 4119 1484 4856 
L 1984 4856 
z
" transform="scale(0.015625)"/>
       <path id="DejaVuSans-52" d="M 2841 2188 
Q 3044 2119 3236 1894 
Q 3428 1669 3622 1275 
L 4263 0 
L 3584 0 
L 2988 1197 
Q 2756 1666 2539 1819 
Q 2322 1972 1947 1972 
L 1259 1972 
L 1259 0 
L 628 0 
L 628 4666 
L 2053 4666 
Q 2853 4666 3247 4331 
Q 3641 3997 3641 3322 
Q 3641 2881 3436 2590 
Q 3231 2300 2841 2188 
z
M 1259 4147 
L 1259 2491 
L 2053 2491 
Q 2509 2491 2742 2702 
Q 2975 2913 2975 3322 
Q 2975 3731 2742 3939 
Q 2509 4147 2053 4147 
L 1259 4147 
z
" transform="scale(0.015625)"/>
       <path id="DejaVuSans-65" d="M 3597 1894 
L 3597 1613 
L 953 1613 
Q 991 1019 1311 708 
Q 1631 397 2203 397 
Q 2534 397 2845 478 
Q 3156 559 3463 722 
L 3463 178 
Q 3153 47 2828 -22 
Q 2503 -91 2169 -91 
Q 1331 -91 842 396 
Q 353 884 353 1716 
Q 353 2575 817 3079 
Q 1281 3584 2069 3584 
Q 2775 3584 3186 3129 
Q 3597 2675 3597 1894 
z
M 3022 2063 
Q 3016 2534 2758 2815 
Q 2500 3097 2075 3097 
Q 1594 3097 1305 2825 
Q 1016 2553 972 2059 
L 3022 2063 
z
" transform="scale(0.015625)"/>
       <path id="DejaVuSans-6c" d="M 603 4863 
L 1178 4863 
L 1178 0 
L 603 0 
L 603 4863 
z
" transform="scale(0.015625)"/>
       <path id="DejaVuSans-2e" d="M 684 794 
L 1344 794 
L 1344 0 
L 684 0 
L 684 794 
z
" transform="scale(0.015625)"/>
       <path id="DejaVuSans-29" d="M 513 4856 
L 1013 4856 
Q 1481 4119 1714 3412 
Q 1947 2706 1947 2009 
Q 1947 1309 1714 600 
Q 1481 -109 1013 -844 
L 513 -844 
Q 928 -128 1133 580 
Q 1338 1288 1338 2009 
Q 1338 2731 1133 3434 
Q 928 4138 513 4856 
z
" transform="scale(0.015625)"/>
       <path id="DejaVuSans-56" d="M 1831 0 
L 50 4666 
L 709 4666 
L 2188 738 
L 3669 4666 
L 4325 4666 
L 2547 0 
L 1831 0 
z
" transform="scale(0.015625)"/>
       <path id="DejaVuSans-6f" d="M 1959 3097 
Q 1497 3097 1228 2736 
Q 959 2375 959 1747 
Q 959 1119 1226 758 
Q 1494 397 1959 397 
Q 2419 397 2687 759 
Q 2956 1122 2956 1747 
Q 2956 2369 2687 2733 
Q 2419 3097 1959 3097 
z
M 1959 3584 
Q 2709 3584 3137 3096 
Q 3566 2609 3566 1747 
Q 3566 888 3137 398 
Q 2709 -91 1959 -91 
Q 1206 -91 779 398 
Q 353 888 353 1747 
Q 353 2609 779 3096 
Q 1206 3584 1959 3584 
z
" transform="scale(0.015625)"/>
       <path id="DejaVuSans-63" d="M 3122 3366 
L 3122 2828 
Q 2878 2963 2633 3030 
Q 2388 3097 2138 3097 
Q 1578 3097 1268 2742 
Q 959 2388 959 1747 
Q 959 1106 1268 751 
Q 1578 397 2138 397 
Q 2388 397 2633 464 
Q 2878 531 3122 666 
L 3122 134 
Q 2881 22 2623 -34 
Q 2366 -91 2075 -91 
Q 1284 -91 818 406 
Q 353 903 353 1747 
Q 353 2603 823 3093 
Q 1294 3584 2113 3584 
Q 2378 3584 2631 3529 
Q 2884 3475 3122 3366 
z
" transform="scale(0.015625)"/>
       <path id="DejaVuSans-68" d="M 3513 2113 
L 3513 0 
L 2938 0 
L 2938 2094 
Q 2938 2591 2744 2837 
Q 2550 3084 2163 3084 
Q 1697 3084 1428 2787 
Q 1159 2491 1159 1978 
L 1159 0 
L 581 0 
L 581 4863 
L 1159 4863 
L 1159 2956 
Q 1366 3272 1645 3428 
Q 1925 3584 2291 3584 
Q 2894 3584 3203 3211 
Q 3513 2838 3513 2113 
z
" transform="scale(0.015625)"/>
       <path id="DejaVuSans-74" d="M 1172 4494 
L 1172 3500 
L 2356 3500 
L 2356 3053 
L 1172 3053 
L 1172 1153 
Q 1172 725 1289 603 
Q 1406 481 1766 481 
L 2356 481 
L 2356 0 
L 1766 0 
Q 1100 0 847 248 
Q 594 497 594 1153 
L 594 3053 
L 172 3053 
L 172 3500 
L 594 3500 
L 594 4494 
L 1172 4494 
z
" transform="scale(0.015625)"/>
       <path id="DejaVuSans-67" d="M 2906 1791 
Q 2906 2416 2648 2759 
Q 2391 3103 1925 3103 
Q 1463 3103 1205 2759 
Q 947 2416 947 1791 
Q 947 1169 1205 825 
Q 1463 481 1925 481 
Q 2391 481 2648 825 
Q 2906 1169 2906 1791 
z
M 3481 434 
Q 3481 -459 3084 -895 
Q 2688 -1331 1869 -1331 
Q 1566 -1331 1297 -1286 
Q 1028 -1241 775 -1147 
L 775 -588 
Q 1028 -725 1275 -790 
Q 1522 -856 1778 -856 
Q 2344 -856 2625 -561 
Q 2906 -266 2906 331 
L 2906 616 
Q 2728 306 2450 153 
Q 2172 0 1784 0 
Q 1141 0 747 490 
Q 353 981 353 1791 
Q 353 2603 747 3093 
Q 1141 3584 1784 3584 
Q 2172 3584 2450 3431 
Q 2728 3278 2906 2969 
L 2906 3500 
L 3481 3500 
L 3481 434 
z
" transform="scale(0.015625)"/>
       <path id="DejaVuSans-25" d="M 4653 2053 
Q 4381 2053 4226 1822 
Q 4072 1591 4072 1178 
Q 4072 772 4226 539 
Q 4381 306 4653 306 
Q 4919 306 5073 539 
Q 5228 772 5228 1178 
Q 5228 1588 5073 1820 
Q 4919 2053 4653 2053 
z
M 4653 2450 
Q 5147 2450 5437 2106 
Q 5728 1763 5728 1178 
Q 5728 594 5436 251 
Q 5144 -91 4653 -91 
Q 4153 -91 3862 251 
Q 3572 594 3572 1178 
Q 3572 1766 3864 2108 
Q 4156 2450 4653 2450 
z
M 1428 4353 
Q 1159 4353 1004 4120 
Q 850 3888 850 3481 
Q 850 3069 1003 2837 
Q 1156 2606 1428 2606 
Q 1700 2606 1854 2837 
Q 2009 3069 2009 3481 
Q 2009 3884 1853 4118 
Q 1697 4353 1428 4353 
z
M 4250 4750 
L 4750 4750 
L 1831 -91 
L 1331 -91 
L 4250 4750 
z
M 1428 4750 
Q 1922 4750 2215 4408 
Q 2509 4066 2509 3481 
Q 2509 2891 2217 2550 
Q 1925 2209 1428 2209 
Q 931 2209 642 2551 
Q 353 2894 353 3481 
Q 353 4063 643 4406 
Q 934 4750 1428 4750 
z
" transform="scale(0.015625)"/>
      </defs>
      <use xlink:href="#DejaVuSans-28"/>
      <use xlink:href="#DejaVuSans-52" transform="translate(39.013672 0)"/>
      <use xlink:href="#DejaVuSans-65" transform="translate(103.996094 0)"/>
      <use xlink:href="#DejaVuSans-6c" transform="translate(165.519531 0)"/>
      <use xlink:href="#DejaVuSans-2e" transform="translate(193.302734 0)"/>
      <use xlink:href="#DejaVuSans-29" transform="translate(225.089844 0)"/>
      <use xlink:href="#DejaVuSans-20" transform="translate(264.103516 0)"/>
      <use xlink:href="#DejaVuSans-56" transform="translate(295.890625 0)"/>
      <use xlink:href="#DejaVuSans-6f" transform="translate(356.548828 0)"/>
      <use xlink:href="#DejaVuSans-63" transform="translate(417.730469 0)"/>
      <use xlink:href="#DejaVuSans-68" transform="translate(472.710938 0)"/>
      <use xlink:href="#DejaVuSans-74" transform="translate(536.089844 0)"/>
      <use xlink:href="#DejaVuSans-69" transform="translate(575.298828 0)"/>
      <use xlink:href="#DejaVuSans-67" transform="translate(603.082031 0)"/>
      <use xlink:href="#DejaVuSans-68" transform="translate(666.558594 0)"/>
      <use xlink:href="#DejaVuSans-65" transform="translate(729.9375 0)"/>
      <use xlink:href="#DejaVuSans-69" transform="translate(791.460938 0)"/>
      <use xlink:href="#DejaVuSans-64" transform="translate(819.244141 0)"/>
      <use xlink:href="#DejaVuSans-20" transform="translate(882.720703 0)"/>
      <use xlink:href="#DejaVuSans-28" transform="translate(914.507812 0)"/>
      <use xlink:href="#DejaVuSans-25" transform="translate(953.521484 0)"/>
      <use xlink:href="#DejaVuSans-29" transform="translate(1048.541016 0)"/>
     </g>
    </g>
   </g>
   <g id="line2d_13">
    <path d="M 78.355656 138.084096 
L 85.50606 129.482077 
L 89.081261 132.895577 
L 92.656463 132.895577 
L 96.231665 131.393637 
L 99.806867 134.260976 
L 103.382068 131.257097 
L 106.95727 129.208997 
L 110.532472 132.349417 
L 114.107673 132.076337 
L 128.40848 121.972378 
L 131.983682 120.880058 
L 135.558884 124.020478 
L 139.134086 122.791618 
L 142.709287 124.225288 
L 149.859691 114.599219 
L 153.434892 126.887817 
L 157.010094 124.430098 
L 160.585296 119.924278 
L 164.160498 130.984017 
L 167.735699 124.839718 
L 171.310901 126.683007 
L 178.461304 132.212877 
L 182.036506 133.032117 
L 185.611708 122.791618 
L 189.18691 132.212877 
L 192.762111 139.176416 
L 196.337313 130.369587 
L 199.912515 127.297437 
L 203.487717 128.253217 
L 207.062918 124.293558 
L 210.63812 126.068578 
L 214.213322 130.164777 
L 217.788523 127.707057 
L 221.363725 125.112798 
L 224.938927 127.502247 
L 228.514129 124.634908 
L 232.08933 127.707057 
L 239.239734 126.478198 
L 242.814935 122.791618 
L 246.390137 118.490609 
L 249.965339 118.285799 
L 253.540541 124.566638 
L 257.115742 126.614737 
L 260.690944 128.116677 
L 264.266146 127.980137 
L 267.841347 128.389757 
L 271.416549 123.337778 
L 274.991751 122.245458 
L 278.566953 120.880058 
L 282.142154 119.651198 
L 285.717356 125.249338 
L 289.292558 121.289678 
L 292.86776 122.177188 
L 300.018163 119.924278 
L 310.743768 121.835838 
L 314.31897 121.562758 
L 317.894172 119.105039 
L 321.469373 122.791618 
L 325.044575 121.767568 
L 328.619777 124.430098 
L 332.194978 122.655078 
L 335.77018 125.044528 
L 339.345382 125.932038 
L 342.920584 117.671369 
L 346.495785 121.972378 
L 350.070987 121.972378 
L 353.646189 125.249338 
L 360.796592 134.260976 
L 367.946996 130.369587 
L 371.522197 131.803257 
L 375.097399 128.526297 
L 378.672601 128.526297 
L 382.247803 126.478198 
L 389.398206 130.574397 
L 392.973408 127.707057 
L 396.548609 128.935917 
L 400.123811 128.116677 
L 403.699013 126.887817 
L 407.274215 124.839718 
L 410.849416 124.430098 
L 414.424618 129.345537 
L 417.99982 127.707057 
L 421.575022 131.530177 
L 425.150223 128.116677 
L 428.725425 127.980137 
L 432.300627 129.618617 
L 435.875828 126.341658 
L 439.45103 131.803257 
L 443.026232 128.935917 
L 446.601434 132.895577 
L 450.176635 130.164777 
L 457.327039 135.762916 
L 460.90224 135.626376 
L 464.477442 138.493716 
L 468.052644 133.305197 
L 471.627846 137.537936 
L 475.203047 137.537936 
L 478.778249 137.401396 
L 482.353451 140.132196 
L 485.928653 141.429325 
L 489.503854 135.899456 
L 493.079056 121.767568 
L 496.654258 132.212877 
L 500.229459 136.309076 
L 503.804661 139.790846 
L 507.379863 136.104266 
L 510.955065 136.445616 
L 514.530266 138.766796 
L 518.105468 140.541816 
L 521.68067 134.943676 
L 525.255871 145.457255 
L 528.831073 146.959195 
L 532.406275 146.139955 
L 535.981477 146.549575 
L 539.556678 149.416914 
L 543.13188 146.549575 
L 546.707082 148.870754 
L 550.282283 150.236154 
L 553.857485 147.914975 
L 557.432687 145.320715 
L 561.007889 151.328474 
L 564.58309 146.754385 
L 568.158292 146.754385 
L 571.733494 150.236154 
L 575.308696 147.778435 
L 578.883897 149.007294 
L 582.459099 146.549575 
L 586.034301 141.224515 
L 589.609502 139.995656 
L 593.184704 140.814896 
L 596.759906 143.818775 
L 600.335108 143.818775 
L 603.910309 146.822655 
L 607.485511 143.272615 
L 611.060713 140.951436 
L 614.635914 145.047635 
L 618.211116 142.999535 
L 621.786318 143.136075 
L 625.36152 144.091855 
L 628.936721 145.866875 
L 632.511923 143.136075 
L 636.087125 141.224515 
L 636.087125 141.224515 
" clip-path="url(#p26dee76c05)" style="fill: none; stroke: #1f77b4; stroke-width: 2; stroke-linecap: square"/>
   </g>
   <g id="line2d_14">
    <path d="M 74.780455 153.001089 
L 78.355656 147.446837 
L 81.930858 148.090526 
L 85.50606 149.768017 
L 89.081261 148.20756 
L 92.656463 148.246572 
L 96.231665 150.002086 
L 99.806867 149.046306 
L 103.382068 147.563872 
L 106.95727 147.349309 
L 110.532472 148.402617 
L 114.107673 150.372694 
L 117.682875 158.319321 
L 121.258077 157.090461 
L 124.833279 146.003415 
L 128.40848 141.741417 
L 135.558884 146.130202 
L 139.134086 146.939689 
L 142.709287 146.656856 
L 146.284489 151.590176 
L 149.859691 147.914975 
L 153.434892 151.221193 
L 157.010094 148.831743 
L 160.585296 150.099614 
L 164.160498 151.981915 
L 167.735699 151.396744 
L 171.310901 153.181517 
L 174.886103 154.605434 
L 178.461304 151.396744 
L 182.036506 150.977371 
L 185.611708 148.392865 
L 189.18691 148.422123 
L 192.762111 148.578169 
L 196.337313 145.593795 
L 199.912515 146.530069 
L 203.487717 144.550239 
L 207.062918 143.077558 
L 210.63812 143.535942 
L 214.213322 144.423452 
L 217.788523 142.98003 
L 221.363725 142.492387 
L 224.938927 141.107481 
L 228.514129 140.883166 
L 232.08933 141.214763 
L 235.664532 142.999535 
L 239.239734 136.21805 
L 242.814935 133.578277 
L 246.390137 135.585414 
L 249.965339 135.667338 
L 253.540541 136.877993 
L 257.115742 137.264856 
L 260.690944 135.444323 
L 264.266146 137.173829 
L 267.841347 133.8286 
L 271.416549 134.602326 
L 274.991751 132.008067 
L 278.566953 132.87282 
L 282.142154 133.168657 
L 285.717356 134.943676 
L 292.86776 128.294179 
L 296.442961 136.240806 
L 300.018163 134.408895 
L 303.593365 137.264856 
L 307.168566 137.196586 
L 310.743768 135.74016 
L 314.31897 139.153659 
L 317.894172 139.017119 
L 321.469373 138.209258 
L 325.044575 140.098061 
L 328.619777 143.386399 
L 332.194978 143.636722 
L 335.77018 140.500854 
L 339.345382 142.612672 
L 342.920584 139.665684 
L 346.495785 141.622757 
L 350.070987 142.749212 
L 353.646189 143.409155 
L 357.221391 146.372073 
L 360.796592 144.114612 
L 364.371794 145.839567 
L 367.946996 140.553194 
L 371.522197 141.757021 
L 375.097399 140.655599 
L 378.672601 141.770675 
L 382.247803 138.175123 
L 385.823004 137.114662 
L 389.398206 134.5113 
L 392.973408 138.266149 
L 396.548609 139.130902 
L 400.123811 139.324334 
L 403.699013 141.156245 
L 407.274215 139.654306 
L 410.849416 139.119524 
L 414.424618 137.344504 
L 417.99982 136.536643 
L 421.575022 136.309076 
L 425.150223 136.422859 
L 428.725425 136.855236 
L 432.300627 137.811016 
L 435.875828 139.449496 
L 439.45103 142.521645 
L 443.026232 144.956608 
L 446.601434 150.076858 
L 450.176635 151.146421 
L 453.751837 153.74068 
L 457.327039 155.561214 
L 460.90224 155.299512 
L 468.052644 150.418208 
L 471.627846 151.817742 
L 475.203047 150.418208 
L 478.778249 150.486478 
L 482.353451 152.375281 
L 485.928653 151.066772 
L 489.503854 152.693874 
L 493.079056 151.465014 
L 496.654258 152.978332 
L 500.229459 153.695167 
L 503.804661 152.386659 
L 507.379863 154.389245 
L 510.955065 155.424674 
L 514.530266 154.104787 
L 518.105468 155.299512 
L 521.68067 153.149007 
L 525.255871 155.17435 
L 528.831073 153.308304 
L 532.406275 154.446137 
L 535.981477 155.31089 
L 539.556678 156.721803 
L 543.13188 157.142802 
L 546.707082 158.405796 
L 550.282283 158.348905 
L 553.857485 158.701633 
L 557.432687 157.70034 
L 561.007889 158.200986 
L 564.58309 158.895065 
L 568.158292 159.077118 
L 575.308696 159.74844 
L 578.883897 158.439931 
L 586.034301 156.1984 
L 589.609502 155.219864 
L 593.184704 155.17435 
L 596.759906 150.554748 
L 600.335108 152.511821 
L 603.910309 151.237447 
L 607.485511 150.509234 
L 611.060713 154.924027 
L 614.635914 155.288134 
L 618.211116 156.107373 
L 621.786318 154.96954 
L 625.36152 151.237447 
L 628.936721 150.827828 
L 632.511923 152.648361 
L 636.087125 153.376574 
L 639.662327 159.725683 
L 643.237528 159.111253 
L 646.81273 145.184175 
L 653.963133 148.324595 
L 657.538335 155.356404 
L 661.113537 152.693874 
L 664.688739 164.982472 
L 668.26394 165.255552 
L 671.839142 165.938252 
L 675.414344 170.102722 
L 678.989545 165.187282 
L 678.989545 165.187282 
" clip-path="url(#p26dee76c05)" style="fill: none; stroke-dasharray: 5.55,2.4; stroke-dashoffset: 0; stroke: #808080; stroke-width: 1.5"/>
   </g>
   <g id="patch_3">
    <path d="M 44.57 246.04 
L 44.57 26.88 
" style="fill: none; stroke: #000000; stroke-width: 0.8; stroke-linejoin: miter; stroke-linecap: square"/>
   </g>
   <g id="patch_4">
    <path d="M 709.2 246.04 
L 709.2 26.88 
" style="fill: none; stroke: #000000; stroke-width: 0.8; stroke-linejoin: miter; stroke-linecap: square"/>
   </g>
   <g id="patch_5">
    <path d="M 44.57 246.04 
L 709.2 246.04 
" style="fill: none; stroke: #000000; stroke-width: 0.8; stroke-linejoin: miter; stroke-linecap: square"/>
   </g>
   <g id="patch_6">
    <path d="M 44.57 26.88 
L 709.2 26.88 
" style="fill: none; stroke: #000000; stroke-width: 0.8; stroke-linejoin: miter; stroke-linecap: square"/>
   </g>
   <g id="text_15">
    <!-- Luchtvochtigheid - v001/c00001/d011 -->
    <g transform="translate(262.595312 20.88) scale(0.12 -0.12)">
     <defs>
      <path id="DejaVuSans-4c" d="M 628 4666 
L 1259 4666 
L 1259 531 
L 3531 531 
L 3531 0 
L 628 0 
L 628 4666 
z
" transform="scale(0.015625)"/>
      <path id="DejaVuSans-75" d="M 544 1381 
L 544 3500 
L 1119 3500 
L 1119 1403 
Q 1119 906 1312 657 
Q 1506 409 1894 409 
Q 2359 409 2629 706 
Q 2900 1003 2900 1516 
L 2900 3500 
L 3475 3500 
L 3475 0 
L 2900 0 
L 2900 538 
Q 2691 219 2414 64 
Q 2138 -91 1772 -91 
Q 1169 -91 856 284 
Q 544 659 544 1381 
z
M 1991 3584 
L 1991 3584 
z
" transform="scale(0.015625)"/>
      <path id="DejaVuSans-76" d="M 191 3500 
L 800 3500 
L 1894 563 
L 2988 3500 
L 3597 3500 
L 2284 0 
L 1503 0 
L 191 3500 
z
" transform="scale(0.015625)"/>
      <path id="DejaVuSans-2f" d="M 1625 4666 
L 2156 4666 
L 531 -594 
L 0 -594 
L 1625 4666 
z
" transform="scale(0.015625)"/>
     </defs>
     <use xlink:href="#DejaVuSans-4c"/>
     <use xlink:href="#DejaVuSans-75" transform="translate(53.962891 0)"/>
     <use xlink:href="#DejaVuSans-63" transform="translate(117.341797 0)"/>
     <use xlink:href="#DejaVuSans-68" transform="translate(172.322266 0)"/>
     <use xlink:href="#DejaVuSans-74" transform="translate(235.701172 0)"/>
     <use xlink:href="#DejaVuSans-76" transform="translate(274.910156 0)"/>
     <use xlink:href="#DejaVuSans-6f" transform="translate(334.089844 0)"/>
     <use xlink:href="#DejaVuSans-63" transform="translate(395.271484 0)"/>
     <use xlink:href="#DejaVuSans-68" transform="translate(450.251953 0)"/>
     <use xlink:href="#DejaVuSans-74" transform="translate(513.630859 0)"/>
     <use xlink:href="#DejaVuSans-69" transform="translate(552.839844 0)"/>
     <use xlink:href="#DejaVuSans-67" transform="translate(580.623047 0)"/>
     <use xlink:href="#DejaVuSans-68" transform="translate(644.099609 0)"/>
     <use xlink:href="#DejaVuSans-65" transform="translate(707.478516 0)"/>
     <use xlink:href="#DejaVuSans-69" transform="translate(769.001953 0)"/>
     <use xlink:href="#DejaVuSans-64" transform="translate(796.785156 0)"/>
     <use xlink:href="#DejaVuSans-20" transform="translate(860.261719 0)"/>
     <use xlink:href="#DejaVuSans-2d" transform="translate(892.048828 0)"/>
     <use xlink:href="#DejaVuSans-20" transform="translate(928.132812 0)"/>
     <use xlink:href="#DejaVuSans-76" transform="translate(959.919922 0)"/>
     <use xlink:href="#DejaVuSans-30" transform="translate(1019.099609 0)"/>
     <use xlink:href="#DejaVuSans-30" transform="translate(1082.722656 0)"/>
     <use xlink:href="#DejaVuSans-31" transform="translate(1146.345703 0)"/>
     <use xlink:href="#DejaVuSans-2f" transform="translate(1209.96875 0)"/>
     <use xlink:href="#DejaVuSans-63" transform="translate(1243.660156 0)"/>
     <use xlink:href="#DejaVuSans-30" transform="translate(1298.640625 0)"/>
     <use xlink:href="#DejaVuSans-30" transform="translate(1362.263672 0)"/>
     <use xlink:href="#DejaVuSans-30" transform="translate(1425.886719 0)"/>
     <use xlink:href="#DejaVuSans-30" transform="translate(1489.509766 0)"/>
     <use xlink:href="#DejaVuSans-31" transform="translate(1553.132812 0)"/>
     <use xlink:href="#DejaVuSans-2f" transform="translate(1616.755859 0)"/>
     <use xlink:href="#DejaVuSans-64" transform="translate(1650.447266 0)"/>
     <use xlink:href="#DejaVuSans-30" transform="translate(1713.923828 0)"/>
     <use xlink:href="#DejaVuSans-31" transform="translate(1777.546875 0)"/>
     <use xlink:href="#DejaVuSans-31" transform="translate(1841.169922 0)"/>
    </g>
   </g>
   <g id="legend_1">
    <g id="patch_7">
     <path d="M 551.25625 78.914375 
L 702.2 78.914375 
Q 704.2 78.914375 704.2 76.914375 
L 704.2 33.88 
Q 704.2 31.88 702.2 31.88 
L 551.25625 31.88 
Q 549.25625 31.88 549.25625 33.88 
L 549.25625 76.914375 
Q 549.25625 78.914375 551.25625 78.914375 
z
" style="fill: #ffffff; opacity: 0.8; stroke: #cccccc; stroke-linejoin: miter"/>
    </g>
    <g id="line2d_15">
     <path d="M 553.25625 39.978438 
L 563.25625 39.978438 
L 573.25625 39.978438 
" style="fill: none; stroke: #1f77b4; stroke-width: 2; stroke-linecap: square"/>
    </g>
    <g id="text_16">
     <!-- Hive -->
     <g transform="translate(581.25625 43.478438) scale(0.1 -0.1)">
      <defs>
       <path id="DejaVuSans-48" d="M 628 4666 
L 1259 4666 
L 1259 2753 
L 3553 2753 
L 3553 4666 
L 4184 4666 
L 4184 0 
L 3553 0 
L 3553 2222 
L 1259 2222 
L 1259 0 
L 628 0 
L 628 4666 
z
" transform="scale(0.015625)"/>
      </defs>
      <use xlink:href="#DejaVuSans-48"/>
      <use xlink:href="#DejaVuSans-69" transform="translate(75.195312 0)"/>
      <use xlink:href="#DejaVuSans-76" transform="translate(102.978516 0)"/>
      <use xlink:href="#DejaVuSans-65" transform="translate(162.158203 0)"/>
     </g>
    </g>
    <g id="line2d_16">
     <path d="M 553.25625 54.656563 
L 563.25625 54.656563 
L 573.25625 54.656563 
" style="fill: none; stroke-dasharray: 5.55,2.4; stroke-dashoffset: 0; stroke: #808080; stroke-width: 1.5"/>
    </g>
    <g id="text_17">
     <!-- Gemiddelde (alle hives) -->
     <g transform="translate(581.25625 58.156563) scale(0.1 -0.1)">
      <defs>
       <path id="DejaVuSans-47" d="M 3809 666 
L 3809 1919 
L 2778 1919 
L 2778 2438 
L 4434 2438 
L 4434 434 
Q 4069 175 3628 42 
Q 3188 -91 2688 -91 
Q 1594 -91 976 548 
Q 359 1188 359 2328 
Q 359 3472 976 4111 
Q 1594 4750 2688 4750 
Q 3144 4750 3555 4637 
Q 3966 4525 4313 4306 
L 4313 3634 
Q 3963 3931 3569 4081 
Q 3175 4231 2741 4231 
Q 1884 4231 1454 3753 
Q 1025 3275 1025 2328 
Q 1025 1384 1454 906 
Q 1884 428 2741 428 
Q 3075 428 3337 486 
Q 3600 544 3809 666 
z
" transform="scale(0.015625)"/>
       <path id="DejaVuSans-6d" d="M 3328 2828 
Q 3544 3216 3844 3400 
Q 4144 3584 4550 3584 
Q 5097 3584 5394 3201 
Q 5691 2819 5691 2113 
L 5691 0 
L 5113 0 
L 5113 2094 
Q 5113 2597 4934 2840 
Q 4756 3084 4391 3084 
Q 3944 3084 3684 2787 
Q 3425 2491 3425 1978 
L 3425 0 
L 2847 0 
L 2847 2094 
Q 2847 2600 2669 2842 
Q 2491 3084 2119 3084 
Q 1678 3084 1418 2786 
Q 1159 2488 1159 1978 
L 1159 0 
L 581 0 
L 581 3500 
L 1159 3500 
L 1159 2956 
Q 1356 3278 1631 3431 
Q 1906 3584 2284 3584 
Q 2666 3584 2933 3390 
Q 3200 3197 3328 2828 
z
" transform="scale(0.015625)"/>
       <path id="DejaVuSans-61" d="M 2194 1759 
Q 1497 1759 1228 1600 
Q 959 1441 959 1056 
Q 959 750 1161 570 
Q 1363 391 1709 391 
Q 2188 391 2477 730 
Q 2766 1069 2766 1631 
L 2766 1759 
L 2194 1759 
z
M 3341 1997 
L 3341 0 
L 2766 0 
L 2766 531 
Q 2569 213 2275 61 
Q 1981 -91 1556 -91 
Q 1019 -91 701 211 
Q 384 513 384 1019 
Q 384 1609 779 1909 
Q 1175 2209 1959 2209 
L 2766 2209 
L 2766 2266 
Q 2766 2663 2505 2880 
Q 2244 3097 1772 3097 
Q 1472 3097 1187 3025 
Q 903 2953 641 2809 
L 641 3341 
Q 956 3463 1253 3523 
Q 1550 3584 1831 3584 
Q 2591 3584 2966 3190 
Q 3341 2797 3341 1997 
z
" transform="scale(0.015625)"/>
       <path id="DejaVuSans-73" d="M 2834 3397 
L 2834 2853 
Q 2591 2978 2328 3040 
Q 2066 3103 1784 3103 
Q 1356 3103 1142 2972 
Q 928 2841 928 2578 
Q 928 2378 1081 2264 
Q 1234 2150 1697 2047 
L 1894 2003 
Q 2506 1872 2764 1633 
Q 3022 1394 3022 966 
Q 3022 478 2636 193 
Q 2250 -91 1575 -91 
Q 1294 -91 989 -36 
Q 684 19 347 128 
L 347 722 
Q 666 556 975 473 
Q 1284 391 1588 391 
Q 1994 391 2212 530 
Q 2431 669 2431 922 
Q 2431 1156 2273 1281 
Q 2116 1406 1581 1522 
L 1381 1569 
Q 847 1681 609 1914 
Q 372 2147 372 2553 
Q 372 3047 722 3315 
Q 1072 3584 1716 3584 
Q 2034 3584 2315 3537 
Q 2597 3491 2834 3397 
z
" transform="scale(0.015625)"/>
      </defs>
      <use xlink:href="#DejaVuSans-47"/>
      <use xlink:href="#DejaVuSans-65" transform="translate(77.490234 0)"/>
      <use xlink:href="#DejaVuSans-6d" transform="translate(139.013672 0)"/>
      <use xlink:href="#DejaVuSans-69" transform="translate(236.425781 0)"/>
      <use xlink:href="#DejaVuSans-64" transform="translate(264.208984 0)"/>
      <use xlink:href="#DejaVuSans-64" transform="translate(327.685547 0)"/>
      <use xlink:href="#DejaVuSans-65" transform="translate(391.162109 0)"/>
      <use xlink:href="#DejaVuSans-6c" transform="translate(452.685547 0)"/>
      <use xlink:href="#DejaVuSans-64" transform="translate(480.46875 0)"/>
      <use xlink:href="#DejaVuSans-65" transform="translate(543.945312 0)"/>
      <use xlink:href="#DejaVuSans-20" transform="translate(605.46875 0)"/>
      <use xlink:href="#DejaVuSans-28" transform="translate(637.255859 0)"/>
      <use xlink:href="#DejaVuSans-61" transform="translate(676.269531 0)"/>
      <use xlink:href="#DejaVuSans-6c" transform="translate(737.548828 0)"/>
      <use xlink:href="#DejaVuSans-6c" transform="translate(765.332031 0)"/>
      <use xlink:href="#DejaVuSans-65" transform="translate(793.115234 0)"/>
      <use xlink:href="#DejaVuSans-20" transform="translate(854.638672 0)"/>
      <use xlink:href="#DejaVuSans-68" transform="translate(886.425781 0)"/>
      <use xlink:href="#DejaVuSans-69" transform="translate(949.804688 0)"/>
      <use xlink:href="#DejaVuSans-76" transform="translate(977.587891 0)"/>
      <use xlink:href="#DejaVuSans-65" transform="translate(1036.767578 0)"/>
      <use xlink:href="#DejaVuSans-73" transform="translate(1098.291016 0)"/>
      <use xlink:href="#DejaVuSans-29" transform="translate(1150.390625 0)"/>
     </g>
    </g>
    <g id="patch_8">
     <path d="M 553.25625 72.834688 
L 573.25625 72.834688 
L 573.25625 65.834688 
L 553.25625 65.834688 
z
" style="fill: #808080; fill-opacity: 0.2; stroke: #808080; stroke-opacity: 0.2; stroke-linejoin: miter"/>
    </g>
    <g id="text_18">
     <!-- 2 Std Dev -->
     <g transform="translate(581.25625 72.834688) scale(0.1 -0.1)">
      <defs>
       <path id="DejaVuSans-b1" d="M 2944 4013 
L 2944 2803 
L 4684 2803 
L 4684 2272 
L 2944 2272 
L 2944 1063 
L 2419 1063 
L 2419 2272 
L 678 2272 
L 678 2803 
L 2419 2803 
L 2419 4013 
L 2944 4013 
z
M 678 531 
L 4684 531 
L 4684 0 
L 678 0 
L 678 531 
z
" transform="scale(0.015625)"/>
       <path id="DejaVuSans-53" d="M 3425 4513 
L 3425 3897 
Q 3066 4069 2747 4153 
Q 2428 4238 2131 4238 
Q 1616 4238 1336 4038 
Q 1056 3838 1056 3469 
Q 1056 3159 1242 3001 
Q 1428 2844 1947 2747 
L 2328 2669 
Q 3034 2534 3370 2195 
Q 3706 1856 3706 1288 
Q 3706 609 3251 259 
Q 2797 -91 1919 -91 
Q 1588 -91 1214 -16 
Q 841 59 441 206 
L 441 856 
Q 825 641 1194 531 
Q 1563 422 1919 422 
Q 2459 422 2753 634 
Q 3047 847 3047 1241 
Q 3047 1584 2836 1778 
Q 2625 1972 2144 2069 
L 1759 2144 
Q 1053 2284 737 2584 
Q 422 2884 422 3419 
Q 422 4038 858 4394 
Q 1294 4750 2059 4750 
Q 2388 4750 2728 4690 
Q 3069 4631 3425 4513 
z
" transform="scale(0.015625)"/>
       <path id="DejaVuSans-44" d="M 1259 4147 
L 1259 519 
L 2022 519 
Q 2988 519 3436 956 
Q 3884 1394 3884 2338 
Q 3884 3275 3436 3711 
Q 2988 4147 2022 4147 
L 1259 4147 
z
M 628 4666 
L 1925 4666 
Q 3281 4666 3915 4102 
Q 4550 3538 4550 2338 
Q 4550 1131 3912 565 
Q 3275 0 1925 0 
L 628 0 
L 628 4666 
z
" transform="scale(0.015625)"/>
      </defs>
      <use xlink:href="#DejaVuSans-b1"/>
      <use xlink:href="#DejaVuSans-32" transform="translate(83.789062 0)"/>
      <use xlink:href="#DejaVuSans-20" transform="translate(147.412109 0)"/>
      <use xlink:href="#DejaVuSans-53" transform="translate(179.199219 0)"/>
      <use xlink:href="#DejaVuSans-74" transform="translate(242.675781 0)"/>
      <use xlink:href="#DejaVuSans-64" transform="translate(281.884766 0)"/>
      <use xlink:href="#DejaVuSans-20" transform="translate(345.361328 0)"/>
      <use xlink:href="#DejaVuSans-44" transform="translate(377.148438 0)"/>
      <use xlink:href="#DejaVuSans-65" transform="translate(454.150391 0)"/>
      <use xlink:href="#DejaVuSans-76" transform="translate(515.673828 0)"/>
     </g>
    </g>
   </g>
  </g>
 </g>
 <defs>
  <clipPath id="p26dee76c05">
   <rect x="44.57" y="26.88" width="664.63" height="219.16"/>
  </clipPath>
 </defs>
</svg>
