<?xml version="1.0" encoding="utf-8" standalone="no"?>
<!DOCTYPE svg PUBLIC "-//W3C//DTD SVG 1.1//EN"
  "http://www.w3.org/Graphics/SVG/1.1/DTD/svg11.dtd">
<svg xmlns:xlink="http://www.w3.org/1999/xlink" width="720pt" height="288pt" viewBox="0 0 720 288" xmlns="http://www.w3.org/2000/svg" version="1.1">
 <metadata>
  <rdf:RDF xmlns:dc="http://purl.org/dc/elements/1.1/" xmlns:cc="http://creativecommons.org/ns#" xmlns:rdf="http://www.w3.org/1999/02/22-rdf-syntax-ns#">
   <cc:Work>
    <dc:type rdf:resource="http://purl.org/dc/dcmitype/StillImage"/>
    <dc:date>2025-05-02T23:14:45.705131</dc:date>
    <dc:format>image/svg+xml</dc:format>
    <dc:creator>
     <cc:Agent>
      <dc:title>Matplotlib v3.10.1, https://matplotlib.org/</dc:title>
     </cc:Agent>
    </dc:creator>
   </cc:Work>
  </rdf:RDF>
 </metadata>
 <defs>
  <style type="text/css">*{stroke-linejoin: round; stroke-linecap: butt}</style>
 </defs>
 <g id="figure_1">
  <g id="patch_1">
   <path d="M 0 288 
L 720 288 
L 720 0 
L 0 0 
z
" style="fill: #ffffff"/>
  </g>
  <g id="axes_1">
   <g id="patch_2">
    <path d="M 44.57 246.04 
L 709.2 246.04 
L 709.2 26.88 
L 44.57 26.88 
z
" style="fill: #ffffff"/>
   </g>
   <g id="FillBetweenPolyCollection_1">
    <defs>
     <path id="mfa75c02b65" d="M 74.780455 -80.917956 
L 74.780455 -64.39888 
L 79.256077 -62.582481 
L 83.7317 -60.606713 
L 88.207323 -59.857965 
L 92.682946 -59.592181 
L 97.158569 -57.474942 
L 101.634192 -54.557149 
L 106.109815 -54.279842 
L 110.585438 -53.830997 
L 115.061061 -53.789002 
L 119.536684 -53.855718 
L 124.012306 -52.95566 
L 128.487929 -53.532027 
L 132.963552 -53.496513 
L 137.439175 -52.732588 
L 141.914798 -54.776633 
L 146.390421 -59.631094 
L 150.866044 -66.846605 
L 155.341667 -63.640233 
L 159.81729 -68.857796 
L 164.292912 -77.581123 
L 168.768535 -81.039982 
L 173.244158 -82.41285 
L 177.719781 -88.185741 
L 182.195404 -105.949814 
L 186.671027 -110.222083 
L 191.14665 -126.940424 
L 195.622273 -108.755307 
L 200.097896 -109.939335 
L 204.573519 -120.889307 
L 209.049141 -123.811993 
L 213.524764 -118.036287 
L 218.000387 -109.396405 
L 222.47601 -94.758094 
L 226.951633 -89.799651 
L 231.427256 -87.428088 
L 235.902879 -101.532597 
L 240.378502 -97.948486 
L 244.854125 -93.219817 
L 249.329747 -87.07143 
L 253.80537 -80.755382 
L 258.280993 -75.890076 
L 262.756616 -71.891935 
L 267.232239 -69.401215 
L 271.707862 -67.134364 
L 276.183485 -65.082306 
L 280.659108 -63.846616 
L 285.134731 -63.167513 
L 289.610354 -61.940934 
L 294.085976 -61.50461 
L 298.561599 -60.961061 
L 303.037222 -60.380343 
L 307.512845 -57.822641 
L 311.988468 -58.465752 
L 316.464091 -57.327214 
L 320.939714 -56.181944 
L 325.415337 -55.548383 
L 329.89096 -55.102484 
L 334.366582 -55.013067 
L 338.842205 -54.106519 
L 343.317828 -54.041217 
L 347.793451 -53.546722 
L 352.269074 -52.326219 
L 356.744697 -51.921818 
L 361.22032 -54.886227 
L 365.695943 -58.597999 
L 370.171566 -65.489701 
L 374.647189 -62.851833 
L 379.122811 -85.876969 
L 383.598434 -88.855137 
L 388.074057 -98.752808 
L 392.54968 -91.816388 
L 397.025303 -110.636392 
L 401.500926 -118.741969 
L 405.976549 -147.091865 
L 410.452172 -124.216517 
L 414.927795 -116.350558 
L 419.403418 -125.155542 
L 423.87904 -137.108777 
L 428.354663 -128.170338 
L 432.830286 -121.949962 
L 437.305909 -115.98434 
L 441.781532 -117.479731 
L 446.257155 -116.362168 
L 450.732778 -113.178997 
L 455.208401 -109.941017 
L 459.684024 -98.84531 
L 464.159646 -90.191269 
L 468.635269 -84.321275 
L 473.110892 -78.413848 
L 477.586515 -75.742342 
L 482.062138 -74.141029 
L 486.537761 -72.729627 
L 491.013384 -71.990192 
L 495.489007 -71.682187 
L 499.96463 -71.265456 
L 504.440253 -70.562603 
L 508.915875 -70.631567 
L 513.391498 -69.38834 
L 517.867121 -67.568389 
L 522.342744 -67.587535 
L 526.818367 -65.790831 
L 531.29399 -64.77553 
L 535.769613 -64.905938 
L 540.245236 -65.055911 
L 544.720859 -64.605092 
L 549.196481 -64.184562 
L 553.672104 -63.78665 
L 558.147727 -65.553532 
L 562.62335 -62.098721 
L 567.098973 -60.134946 
L 571.574596 -62.431873 
L 576.050219 -65.402832 
L 580.525842 -70.338037 
L 585.001465 -86.140357 
L 589.477088 -91.98946 
L 593.95271 -100.304773 
L 598.428333 -98.065181 
L 602.903956 -103.31366 
L 607.379579 -96.851288 
L 611.855202 -105.677069 
L 616.330825 -101.720983 
L 620.806448 -88.555031 
L 625.282071 -97.544501 
L 629.757694 -107.740171 
L 634.233316 -96.868137 
L 638.708939 -112.862677 
L 643.184562 -108.23404 
L 647.660185 -86.108788 
L 652.135808 -85.644971 
L 656.611431 -77.129321 
L 661.087054 -70.367828 
L 665.562677 -68.103152 
L 670.0383 -70.840081 
L 674.513923 -67.200459 
L 678.989545 -72.412509 
L 678.989545 -125.015312 
L 678.989545 -125.015312 
L 674.513923 -136.426709 
L 670.0383 -146.425651 
L 665.562677 -171.917832 
L 661.087054 -188.214731 
L 656.611431 -197.389208 
L 652.135808 -192.264966 
L 647.660185 -206.52156 
L 643.184562 -211.940859 
L 638.708939 -183.937036 
L 634.233316 -195.519099 
L 629.757694 -154.890197 
L 625.282071 -164.210666 
L 620.806448 -159.731749 
L 616.330825 -151.172763 
L 611.855202 -147.763679 
L 607.379579 -142.039226 
L 602.903956 -130.836177 
L 598.428333 -130.687577 
L 593.95271 -117.799694 
L 589.477088 -118.201723 
L 585.001465 -104.322314 
L 580.525842 -98.256741 
L 576.050219 -100.517717 
L 571.574596 -94.299055 
L 567.098973 -86.822894 
L 562.62335 -82.087645 
L 558.147727 -76.882431 
L 553.672104 -76.862442 
L 549.196481 -77.558532 
L 544.720859 -78.523739 
L 540.245236 -80.370325 
L 535.769613 -82.124835 
L 531.29399 -84.443248 
L 526.818367 -85.470085 
L 522.342744 -86.882455 
L 517.867121 -89.454273 
L 513.391498 -88.801259 
L 508.915875 -89.891903 
L 504.440253 -92.659407 
L 499.96463 -93.925758 
L 495.489007 -97.447436 
L 491.013384 -101.515441 
L 486.537761 -106.975354 
L 482.062138 -114.753572 
L 477.586515 -124.821619 
L 473.110892 -135.351077 
L 468.635269 -142.352879 
L 464.159646 -151.653052 
L 459.684024 -156.127041 
L 455.208401 -156.372493 
L 450.732778 -172.571291 
L 446.257155 -190.830568 
L 441.781532 -199.996628 
L 437.305909 -204.117625 
L 432.830286 -219.594452 
L 428.354663 -237.916198 
L 423.87904 -235.067706 
L 419.403418 -247.239742 
L 414.927795 -251.158182 
L 410.452172 -220.646371 
L 405.976549 -160.976074 
L 401.500926 -169.342191 
L 397.025303 -160.235461 
L 392.54968 -180.368269 
L 388.074057 -144.69605 
L 383.598434 -136.287413 
L 379.122811 -122.272076 
L 374.647189 -149.855556 
L 370.171566 -123.878968 
L 365.695943 -96.382526 
L 361.22032 -87.695603 
L 356.744697 -82.053859 
L 352.269074 -77.601649 
L 347.793451 -72.770937 
L 343.317828 -70.927173 
L 338.842205 -70.898338 
L 334.366582 -71.231659 
L 329.89096 -72.163311 
L 325.415337 -73.540749 
L 320.939714 -74.511725 
L 316.464091 -75.262726 
L 311.988468 -75.655792 
L 307.512845 -78.924509 
L 303.037222 -77.387876 
L 298.561599 -78.995162 
L 294.085976 -81.004287 
L 289.610354 -83.120635 
L 285.134731 -84.957263 
L 280.659108 -87.924835 
L 276.183485 -92.086223 
L 271.707862 -96.744047 
L 267.232239 -103.593883 
L 262.756616 -111.751454 
L 258.280993 -119.495607 
L 253.80537 -127.101929 
L 249.329747 -133.002242 
L 244.854125 -134.256605 
L 240.378502 -141.087895 
L 235.902879 -154.314956 
L 231.427256 -195.186059 
L 226.951633 -201.931183 
L 222.47601 -206.745829 
L 218.000387 -210.48676 
L 213.524764 -220.153186 
L 209.049141 -228.635979 
L 204.573519 -226.270986 
L 200.097896 -237.950293 
L 195.622273 -219.041143 
L 191.14665 -166.941949 
L 186.671027 -166.812651 
L 182.195404 -151.356409 
L 177.719781 -164.744472 
L 173.244158 -154.873128 
L 168.768535 -132.141475 
L 164.292912 -118.13276 
L 159.81729 -127.293688 
L 155.341667 -117.961019 
L 150.866044 -88.535054 
L 146.390421 -83.971805 
L 141.914798 -79.600179 
L 137.439175 -74.970808 
L 132.963552 -71.180142 
L 128.487929 -70.45176 
L 124.012306 -71.502196 
L 119.536684 -72.607808 
L 115.061061 -73.950861 
L 110.585438 -75.76867 
L 106.109815 -77.434897 
L 101.634192 -79.929063 
L 97.158569 -80.512078 
L 92.682946 -80.582843 
L 88.207323 -82.067463 
L 83.7317 -82.923252 
L 79.256077 -82.187353 
L 74.780455 -80.917956 
z
" style="stroke: #808080; stroke-opacity: 0.2"/>
    </defs>
    <g clip-path="url(#pfe16989363)">
     <use xlink:href="#mfa75c02b65" x="0" y="288" style="fill: #808080; fill-opacity: 0.2; stroke: #808080; stroke-opacity: 0.2"/>
    </g>
   </g>
   <g id="matplotlib.axis_1">
    <g id="xtick_1">
     <g id="line2d_1">
      <defs>
       <path id="m1824114ee4" d="M 0 0 
L 0 3.5 
" style="stroke: #000000; stroke-width: 0.8"/>
      </defs>
      <g>
       <use xlink:href="#m1824114ee4" x="83.7317" y="246.04" style="stroke: #000000; stroke-width: 0.8"/>
      </g>
     </g>
     <g id="text_1">
      <!-- 04-30 00 -->
      <g transform="translate(61.251232 260.638438) scale(0.1 -0.1)">
       <defs>
        <path id="DejaVuSans-30" d="M 2034 4250 
Q 1547 4250 1301 3770 
Q 1056 3291 1056 2328 
Q 1056 1369 1301 889 
Q 1547 409 2034 409 
Q 2525 409 2770 889 
Q 3016 1369 3016 2328 
Q 3016 3291 2770 3770 
Q 2525 4250 2034 4250 
z
M 2034 4750 
Q 2819 4750 3233 4129 
Q 3647 3509 3647 2328 
Q 3647 1150 3233 529 
Q 2819 -91 2034 -91 
Q 1250 -91 836 529 
Q 422 1150 422 2328 
Q 422 3509 836 4129 
Q 1250 4750 2034 4750 
z
" transform="scale(0.015625)"/>
        <path id="DejaVuSans-34" d="M 2419 4116 
L 825 1625 
L 2419 1625 
L 2419 4116 
z
M 2253 4666 
L 3047 4666 
L 3047 1625 
L 3713 1625 
L 3713 1100 
L 3047 1100 
L 3047 0 
L 2419 0 
L 2419 1100 
L 313 1100 
L 313 1709 
L 2253 4666 
z
" transform="scale(0.015625)"/>
        <path id="DejaVuSans-2d" d="M 313 2009 
L 1997 2009 
L 1997 1497 
L 313 1497 
L 313 2009 
z
" transform="scale(0.015625)"/>
        <path id="DejaVuSans-33" d="M 2597 2516 
Q 3050 2419 3304 2112 
Q 3559 1806 3559 1356 
Q 3559 666 3084 287 
Q 2609 -91 1734 -91 
Q 1441 -91 1130 -33 
Q 819 25 488 141 
L 488 750 
Q 750 597 1062 519 
Q 1375 441 1716 441 
Q 2309 441 2620 675 
Q 2931 909 2931 1356 
Q 2931 1769 2642 2001 
Q 2353 2234 1838 2234 
L 1294 2234 
L 1294 2753 
L 1863 2753 
Q 2328 2753 2575 2939 
Q 2822 3125 2822 3475 
Q 2822 3834 2567 4026 
Q 2313 4219 1838 4219 
Q 1578 4219 1281 4162 
Q 984 4106 628 3988 
L 628 4550 
Q 988 4650 1302 4700 
Q 1616 4750 1894 4750 
Q 2613 4750 3031 4423 
Q 3450 4097 3450 3541 
Q 3450 3153 3228 2886 
Q 3006 2619 2597 2516 
z
" transform="scale(0.015625)"/>
        <path id="DejaVuSans-20" transform="scale(0.015625)"/>
       </defs>
       <use xlink:href="#DejaVuSans-30"/>
       <use xlink:href="#DejaVuSans-34" transform="translate(63.623047 0)"/>
       <use xlink:href="#DejaVuSans-2d" transform="translate(127.246094 0)"/>
       <use xlink:href="#DejaVuSans-33" transform="translate(163.330078 0)"/>
       <use xlink:href="#DejaVuSans-30" transform="translate(226.953125 0)"/>
       <use xlink:href="#DejaVuSans-20" transform="translate(290.576172 0)"/>
       <use xlink:href="#DejaVuSans-30" transform="translate(322.363281 0)"/>
       <use xlink:href="#DejaVuSans-30" transform="translate(385.986328 0)"/>
      </g>
     </g>
    </g>
    <g id="xtick_2">
     <g id="line2d_2">
      <g>
       <use xlink:href="#m1824114ee4" x="191.14665" y="246.04" style="stroke: #000000; stroke-width: 0.8"/>
      </g>
     </g>
     <g id="text_2">
      <!-- 04-30 12 -->
      <g transform="translate(168.666181 260.638438) scale(0.1 -0.1)">
       <defs>
        <path id="DejaVuSans-31" d="M 794 531 
L 1825 531 
L 1825 4091 
L 703 3866 
L 703 4441 
L 1819 4666 
L 2450 4666 
L 2450 531 
L 3481 531 
L 3481 0 
L 794 0 
L 794 531 
z
" transform="scale(0.015625)"/>
        <path id="DejaVuSans-32" d="M 1228 531 
L 3431 531 
L 3431 0 
L 469 0 
L 469 531 
Q 828 903 1448 1529 
Q 2069 2156 2228 2338 
Q 2531 2678 2651 2914 
Q 2772 3150 2772 3378 
Q 2772 3750 2511 3984 
Q 2250 4219 1831 4219 
Q 1534 4219 1204 4116 
Q 875 4013 500 3803 
L 500 4441 
Q 881 4594 1212 4672 
Q 1544 4750 1819 4750 
Q 2544 4750 2975 4387 
Q 3406 4025 3406 3419 
Q 3406 3131 3298 2873 
Q 3191 2616 2906 2266 
Q 2828 2175 2409 1742 
Q 1991 1309 1228 531 
z
" transform="scale(0.015625)"/>
       </defs>
       <use xlink:href="#DejaVuSans-30"/>
       <use xlink:href="#DejaVuSans-34" transform="translate(63.623047 0)"/>
       <use xlink:href="#DejaVuSans-2d" transform="translate(127.246094 0)"/>
       <use xlink:href="#DejaVuSans-33" transform="translate(163.330078 0)"/>
       <use xlink:href="#DejaVuSans-30" transform="translate(226.953125 0)"/>
       <use xlink:href="#DejaVuSans-20" transform="translate(290.576172 0)"/>
       <use xlink:href="#DejaVuSans-31" transform="translate(322.363281 0)"/>
       <use xlink:href="#DejaVuSans-32" transform="translate(385.986328 0)"/>
      </g>
     </g>
    </g>
    <g id="xtick_3">
     <g id="line2d_3">
      <g>
       <use xlink:href="#m1824114ee4" x="298.561599" y="246.04" style="stroke: #000000; stroke-width: 0.8"/>
      </g>
     </g>
     <g id="text_3">
      <!-- 05-01 00 -->
      <g transform="translate(276.081131 260.638438) scale(0.1 -0.1)">
       <defs>
        <path id="DejaVuSans-35" d="M 691 4666 
L 3169 4666 
L 3169 4134 
L 1269 4134 
L 1269 2991 
Q 1406 3038 1543 3061 
Q 1681 3084 1819 3084 
Q 2600 3084 3056 2656 
Q 3513 2228 3513 1497 
Q 3513 744 3044 326 
Q 2575 -91 1722 -91 
Q 1428 -91 1123 -41 
Q 819 9 494 109 
L 494 744 
Q 775 591 1075 516 
Q 1375 441 1709 441 
Q 2250 441 2565 725 
Q 2881 1009 2881 1497 
Q 2881 1984 2565 2268 
Q 2250 2553 1709 2553 
Q 1456 2553 1204 2497 
Q 953 2441 691 2322 
L 691 4666 
z
" transform="scale(0.015625)"/>
       </defs>
       <use xlink:href="#DejaVuSans-30"/>
       <use xlink:href="#DejaVuSans-35" transform="translate(63.623047 0)"/>
       <use xlink:href="#DejaVuSans-2d" transform="translate(127.246094 0)"/>
       <use xlink:href="#DejaVuSans-30" transform="translate(163.330078 0)"/>
       <use xlink:href="#DejaVuSans-31" transform="translate(226.953125 0)"/>
       <use xlink:href="#DejaVuSans-20" transform="translate(290.576172 0)"/>
       <use xlink:href="#DejaVuSans-30" transform="translate(322.363281 0)"/>
       <use xlink:href="#DejaVuSans-30" transform="translate(385.986328 0)"/>
      </g>
     </g>
    </g>
    <g id="xtick_4">
     <g id="line2d_4">
      <g>
       <use xlink:href="#m1824114ee4" x="405.976549" y="246.04" style="stroke: #000000; stroke-width: 0.8"/>
      </g>
     </g>
     <g id="text_4">
      <!-- 05-01 12 -->
      <g transform="translate(383.49608 260.638438) scale(0.1 -0.1)">
       <use xlink:href="#DejaVuSans-30"/>
       <use xlink:href="#DejaVuSans-35" transform="translate(63.623047 0)"/>
       <use xlink:href="#DejaVuSans-2d" transform="translate(127.246094 0)"/>
       <use xlink:href="#DejaVuSans-30" transform="translate(163.330078 0)"/>
       <use xlink:href="#DejaVuSans-31" transform="translate(226.953125 0)"/>
       <use xlink:href="#DejaVuSans-20" transform="translate(290.576172 0)"/>
       <use xlink:href="#DejaVuSans-31" transform="translate(322.363281 0)"/>
       <use xlink:href="#DejaVuSans-32" transform="translate(385.986328 0)"/>
      </g>
     </g>
    </g>
    <g id="xtick_5">
     <g id="line2d_5">
      <g>
       <use xlink:href="#m1824114ee4" x="513.391498" y="246.04" style="stroke: #000000; stroke-width: 0.8"/>
      </g>
     </g>
     <g id="text_5">
      <!-- 05-02 00 -->
      <g transform="translate(490.91103 260.638438) scale(0.1 -0.1)">
       <use xlink:href="#DejaVuSans-30"/>
       <use xlink:href="#DejaVuSans-35" transform="translate(63.623047 0)"/>
       <use xlink:href="#DejaVuSans-2d" transform="translate(127.246094 0)"/>
       <use xlink:href="#DejaVuSans-30" transform="translate(163.330078 0)"/>
       <use xlink:href="#DejaVuSans-32" transform="translate(226.953125 0)"/>
       <use xlink:href="#DejaVuSans-20" transform="translate(290.576172 0)"/>
       <use xlink:href="#DejaVuSans-30" transform="translate(322.363281 0)"/>
       <use xlink:href="#DejaVuSans-30" transform="translate(385.986328 0)"/>
      </g>
     </g>
    </g>
    <g id="xtick_6">
     <g id="line2d_6">
      <g>
       <use xlink:href="#m1824114ee4" x="620.806448" y="246.04" style="stroke: #000000; stroke-width: 0.8"/>
      </g>
     </g>
     <g id="text_6">
      <!-- 05-02 12 -->
      <g transform="translate(598.325979 260.638438) scale(0.1 -0.1)">
       <use xlink:href="#DejaVuSans-30"/>
       <use xlink:href="#DejaVuSans-35" transform="translate(63.623047 0)"/>
       <use xlink:href="#DejaVuSans-2d" transform="translate(127.246094 0)"/>
       <use xlink:href="#DejaVuSans-30" transform="translate(163.330078 0)"/>
       <use xlink:href="#DejaVuSans-32" transform="translate(226.953125 0)"/>
       <use xlink:href="#DejaVuSans-20" transform="translate(290.576172 0)"/>
       <use xlink:href="#DejaVuSans-31" transform="translate(322.363281 0)"/>
       <use xlink:href="#DejaVuSans-32" transform="translate(385.986328 0)"/>
      </g>
     </g>
    </g>
    <g id="text_7">
     <!-- Tijd -->
     <g transform="translate(368.035 274.316562) scale(0.1 -0.1)">
      <defs>
       <path id="DejaVuSans-54" d="M -19 4666 
L 3928 4666 
L 3928 4134 
L 2272 4134 
L 2272 0 
L 1638 0 
L 1638 4134 
L -19 4134 
L -19 4666 
z
" transform="scale(0.015625)"/>
       <path id="DejaVuSans-69" d="M 603 3500 
L 1178 3500 
L 1178 0 
L 603 0 
L 603 3500 
z
M 603 4863 
L 1178 4863 
L 1178 4134 
L 603 4134 
L 603 4863 
z
" transform="scale(0.015625)"/>
       <path id="DejaVuSans-6a" d="M 603 3500 
L 1178 3500 
L 1178 -63 
Q 1178 -731 923 -1031 
Q 669 -1331 103 -1331 
L -116 -1331 
L -116 -844 
L 38 -844 
Q 366 -844 484 -692 
Q 603 -541 603 -63 
L 603 3500 
z
M 603 4863 
L 1178 4863 
L 1178 4134 
L 603 4134 
L 603 4863 
z
" transform="scale(0.015625)"/>
       <path id="DejaVuSans-64" d="M 2906 2969 
L 2906 4863 
L 3481 4863 
L 3481 0 
L 2906 0 
L 2906 525 
Q 2725 213 2448 61 
Q 2172 -91 1784 -91 
Q 1150 -91 751 415 
Q 353 922 353 1747 
Q 353 2572 751 3078 
Q 1150 3584 1784 3584 
Q 2172 3584 2448 3432 
Q 2725 3281 2906 2969 
z
M 947 1747 
Q 947 1113 1208 752 
Q 1469 391 1925 391 
Q 2381 391 2643 752 
Q 2906 1113 2906 1747 
Q 2906 2381 2643 2742 
Q 2381 3103 1925 3103 
Q 1469 3103 1208 2742 
Q 947 2381 947 1747 
z
" transform="scale(0.015625)"/>
      </defs>
      <use xlink:href="#DejaVuSans-54"/>
      <use xlink:href="#DejaVuSans-69" transform="translate(57.958984 0)"/>
      <use xlink:href="#DejaVuSans-6a" transform="translate(85.742188 0)"/>
      <use xlink:href="#DejaVuSans-64" transform="translate(113.525391 0)"/>
     </g>
    </g>
   </g>
   <g id="matplotlib.axis_2">
    <g id="ytick_1">
     <g id="line2d_7">
      <defs>
       <path id="m83781af980" d="M 0 0 
L -3.5 0 
" style="stroke: #000000; stroke-width: 0.8"/>
      </defs>
      <g>
       <use xlink:href="#m83781af980" x="44.57" y="230.712317" style="stroke: #000000; stroke-width: 0.8"/>
      </g>
     </g>
     <g id="text_8">
      <!-- 10 -->
      <g transform="translate(24.845 234.511536) scale(0.1 -0.1)">
       <use xlink:href="#DejaVuSans-31"/>
       <use xlink:href="#DejaVuSans-30" transform="translate(63.623047 0)"/>
      </g>
     </g>
    </g>
    <g id="ytick_2">
     <g id="line2d_8">
      <g>
       <use xlink:href="#m83781af980" x="44.57" y="186.952218" style="stroke: #000000; stroke-width: 0.8"/>
      </g>
     </g>
     <g id="text_9">
      <!-- 20 -->
      <g transform="translate(24.845 190.751436) scale(0.1 -0.1)">
       <use xlink:href="#DejaVuSans-32"/>
       <use xlink:href="#DejaVuSans-30" transform="translate(63.623047 0)"/>
      </g>
     </g>
    </g>
    <g id="ytick_3">
     <g id="line2d_9">
      <g>
       <use xlink:href="#m83781af980" x="44.57" y="143.192119" style="stroke: #000000; stroke-width: 0.8"/>
      </g>
     </g>
     <g id="text_10">
      <!-- 30 -->
      <g transform="translate(24.845 146.991337) scale(0.1 -0.1)">
       <use xlink:href="#DejaVuSans-33"/>
       <use xlink:href="#DejaVuSans-30" transform="translate(63.623047 0)"/>
      </g>
     </g>
    </g>
    <g id="ytick_4">
     <g id="line2d_10">
      <g>
       <use xlink:href="#m83781af980" x="44.57" y="99.432019" style="stroke: #000000; stroke-width: 0.8"/>
      </g>
     </g>
     <g id="text_11">
      <!-- 40 -->
      <g transform="translate(24.845 103.231238) scale(0.1 -0.1)">
       <use xlink:href="#DejaVuSans-34"/>
       <use xlink:href="#DejaVuSans-30" transform="translate(63.623047 0)"/>
      </g>
     </g>
    </g>
    <g id="ytick_5">
     <g id="line2d_11">
      <g>
       <use xlink:href="#m83781af980" x="44.57" y="55.67192" style="stroke: #000000; stroke-width: 0.8"/>
      </g>
     </g>
     <g id="text_12">
      <!-- 50 -->
      <g transform="translate(24.845 59.471139) scale(0.1 -0.1)">
       <use xlink:href="#DejaVuSans-35"/>
       <use xlink:href="#DejaVuSans-30" transform="translate(63.623047 0)"/>
      </g>
     </g>
    </g>
    <g id="text_13">
     <!-- Buiten temperatuur (°C) -->
     <g transform="translate(18.765312 197.355312) rotate(-90) scale(0.1 -0.1)">
      <defs>
       <path id="DejaVuSans-42" d="M 1259 2228 
L 1259 519 
L 2272 519 
Q 2781 519 3026 730 
Q 3272 941 3272 1375 
Q 3272 1813 3026 2020 
Q 2781 2228 2272 2228 
L 1259 2228 
z
M 1259 4147 
L 1259 2741 
L 2194 2741 
Q 2656 2741 2882 2914 
Q 3109 3088 3109 3444 
Q 3109 3797 2882 3972 
Q 2656 4147 2194 4147 
L 1259 4147 
z
M 628 4666 
L 2241 4666 
Q 2963 4666 3353 4366 
Q 3744 4066 3744 3513 
Q 3744 3084 3544 2831 
Q 3344 2578 2956 2516 
Q 3422 2416 3680 2098 
Q 3938 1781 3938 1306 
Q 3938 681 3513 340 
Q 3088 0 2303 0 
L 628 0 
L 628 4666 
z
" transform="scale(0.015625)"/>
       <path id="DejaVuSans-75" d="M 544 1381 
L 544 3500 
L 1119 3500 
L 1119 1403 
Q 1119 906 1312 657 
Q 1506 409 1894 409 
Q 2359 409 2629 706 
Q 2900 1003 2900 1516 
L 2900 3500 
L 3475 3500 
L 3475 0 
L 2900 0 
L 2900 538 
Q 2691 219 2414 64 
Q 2138 -91 1772 -91 
Q 1169 -91 856 284 
Q 544 659 544 1381 
z
M 1991 3584 
L 1991 3584 
z
" transform="scale(0.015625)"/>
       <path id="DejaVuSans-74" d="M 1172 4494 
L 1172 3500 
L 2356 3500 
L 2356 3053 
L 1172 3053 
L 1172 1153 
Q 1172 725 1289 603 
Q 1406 481 1766 481 
L 2356 481 
L 2356 0 
L 1766 0 
Q 1100 0 847 248 
Q 594 497 594 1153 
L 594 3053 
L 172 3053 
L 172 3500 
L 594 3500 
L 594 4494 
L 1172 4494 
z
" transform="scale(0.015625)"/>
       <path id="DejaVuSans-65" d="M 3597 1894 
L 3597 1613 
L 953 1613 
Q 991 1019 1311 708 
Q 1631 397 2203 397 
Q 2534 397 2845 478 
Q 3156 559 3463 722 
L 3463 178 
Q 3153 47 2828 -22 
Q 2503 -91 2169 -91 
Q 1331 -91 842 396 
Q 353 884 353 1716 
Q 353 2575 817 3079 
Q 1281 3584 2069 3584 
Q 2775 3584 3186 3129 
Q 3597 2675 3597 1894 
z
M 3022 2063 
Q 3016 2534 2758 2815 
Q 2500 3097 2075 3097 
Q 1594 3097 1305 2825 
Q 1016 2553 972 2059 
L 3022 2063 
z
" transform="scale(0.015625)"/>
       <path id="DejaVuSans-6e" d="M 3513 2113 
L 3513 0 
L 2938 0 
L 2938 2094 
Q 2938 2591 2744 2837 
Q 2550 3084 2163 3084 
Q 1697 3084 1428 2787 
Q 1159 2491 1159 1978 
L 1159 0 
L 581 0 
L 581 3500 
L 1159 3500 
L 1159 2956 
Q 1366 3272 1645 3428 
Q 1925 3584 2291 3584 
Q 2894 3584 3203 3211 
Q 3513 2838 3513 2113 
z
" transform="scale(0.015625)"/>
       <path id="DejaVuSans-6d" d="M 3328 2828 
Q 3544 3216 3844 3400 
Q 4144 3584 4550 3584 
Q 5097 3584 5394 3201 
Q 5691 2819 5691 2113 
L 5691 0 
L 5113 0 
L 5113 2094 
Q 5113 2597 4934 2840 
Q 4756 3084 4391 3084 
Q 3944 3084 3684 2787 
Q 3425 2491 3425 1978 
L 3425 0 
L 2847 0 
L 2847 2094 
Q 2847 2600 2669 2842 
Q 2491 3084 2119 3084 
Q 1678 3084 1418 2786 
Q 1159 2488 1159 1978 
L 1159 0 
L 581 0 
L 581 3500 
L 1159 3500 
L 1159 2956 
Q 1356 3278 1631 3431 
Q 1906 3584 2284 3584 
Q 2666 3584 2933 3390 
Q 3200 3197 3328 2828 
z
" transform="scale(0.015625)"/>
       <path id="DejaVuSans-70" d="M 1159 525 
L 1159 -1331 
L 581 -1331 
L 581 3500 
L 1159 3500 
L 1159 2969 
Q 1341 3281 1617 3432 
Q 1894 3584 2278 3584 
Q 2916 3584 3314 3078 
Q 3713 2572 3713 1747 
Q 3713 922 3314 415 
Q 2916 -91 2278 -91 
Q 1894 -91 1617 61 
Q 1341 213 1159 525 
z
M 3116 1747 
Q 3116 2381 2855 2742 
Q 2594 3103 2138 3103 
Q 1681 3103 1420 2742 
Q 1159 2381 1159 1747 
Q 1159 1113 1420 752 
Q 1681 391 2138 391 
Q 2594 391 2855 752 
Q 3116 1113 3116 1747 
z
" transform="scale(0.015625)"/>
       <path id="DejaVuSans-72" d="M 2631 2963 
Q 2534 3019 2420 3045 
Q 2306 3072 2169 3072 
Q 1681 3072 1420 2755 
Q 1159 2438 1159 1844 
L 1159 0 
L 581 0 
L 581 3500 
L 1159 3500 
L 1159 2956 
Q 1341 3275 1631 3429 
Q 1922 3584 2338 3584 
Q 2397 3584 2469 3576 
Q 2541 3569 2628 3553 
L 2631 2963 
z
" transform="scale(0.015625)"/>
       <path id="DejaVuSans-61" d="M 2194 1759 
Q 1497 1759 1228 1600 
Q 959 1441 959 1056 
Q 959 750 1161 570 
Q 1363 391 1709 391 
Q 2188 391 2477 730 
Q 2766 1069 2766 1631 
L 2766 1759 
L 2194 1759 
z
M 3341 1997 
L 3341 0 
L 2766 0 
L 2766 531 
Q 2569 213 2275 61 
Q 1981 -91 1556 -91 
Q 1019 -91 701 211 
Q 384 513 384 1019 
Q 384 1609 779 1909 
Q 1175 2209 1959 2209 
L 2766 2209 
L 2766 2266 
Q 2766 2663 2505 2880 
Q 2244 3097 1772 3097 
Q 1472 3097 1187 3025 
Q 903 2953 641 2809 
L 641 3341 
Q 956 3463 1253 3523 
Q 1550 3584 1831 3584 
Q 2591 3584 2966 3190 
Q 3341 2797 3341 1997 
z
" transform="scale(0.015625)"/>
       <path id="DejaVuSans-28" d="M 1984 4856 
Q 1566 4138 1362 3434 
Q 1159 2731 1159 2009 
Q 1159 1288 1364 580 
Q 1569 -128 1984 -844 
L 1484 -844 
Q 1016 -109 783 600 
Q 550 1309 550 2009 
Q 550 2706 781 3412 
Q 1013 4119 1484 4856 
L 1984 4856 
z
" transform="scale(0.015625)"/>
       <path id="DejaVuSans-b0" d="M 1600 4347 
Q 1350 4347 1178 4173 
Q 1006 4000 1006 3750 
Q 1006 3503 1178 3333 
Q 1350 3163 1600 3163 
Q 1850 3163 2022 3333 
Q 2194 3503 2194 3750 
Q 2194 3997 2020 4172 
Q 1847 4347 1600 4347 
z
M 1600 4750 
Q 1800 4750 1984 4673 
Q 2169 4597 2303 4453 
Q 2447 4313 2519 4134 
Q 2591 3956 2591 3750 
Q 2591 3338 2302 3052 
Q 2013 2766 1594 2766 
Q 1172 2766 890 3047 
Q 609 3328 609 3750 
Q 609 4169 896 4459 
Q 1184 4750 1600 4750 
z
" transform="scale(0.015625)"/>
       <path id="DejaVuSans-43" d="M 4122 4306 
L 4122 3641 
Q 3803 3938 3442 4084 
Q 3081 4231 2675 4231 
Q 1875 4231 1450 3742 
Q 1025 3253 1025 2328 
Q 1025 1406 1450 917 
Q 1875 428 2675 428 
Q 3081 428 3442 575 
Q 3803 722 4122 1019 
L 4122 359 
Q 3791 134 3420 21 
Q 3050 -91 2638 -91 
Q 1578 -91 968 557 
Q 359 1206 359 2328 
Q 359 3453 968 4101 
Q 1578 4750 2638 4750 
Q 3056 4750 3426 4639 
Q 3797 4528 4122 4306 
z
" transform="scale(0.015625)"/>
       <path id="DejaVuSans-29" d="M 513 4856 
L 1013 4856 
Q 1481 4119 1714 3412 
Q 1947 2706 1947 2009 
Q 1947 1309 1714 600 
Q 1481 -109 1013 -844 
L 513 -844 
Q 928 -128 1133 580 
Q 1338 1288 1338 2009 
Q 1338 2731 1133 3434 
Q 928 4138 513 4856 
z
" transform="scale(0.015625)"/>
      </defs>
      <use xlink:href="#DejaVuSans-42"/>
      <use xlink:href="#DejaVuSans-75" transform="translate(68.603516 0)"/>
      <use xlink:href="#DejaVuSans-69" transform="translate(131.982422 0)"/>
      <use xlink:href="#DejaVuSans-74" transform="translate(159.765625 0)"/>
      <use xlink:href="#DejaVuSans-65" transform="translate(198.974609 0)"/>
      <use xlink:href="#DejaVuSans-6e" transform="translate(260.498047 0)"/>
      <use xlink:href="#DejaVuSans-20" transform="translate(323.876953 0)"/>
      <use xlink:href="#DejaVuSans-74" transform="translate(355.664062 0)"/>
      <use xlink:href="#DejaVuSans-65" transform="translate(394.873047 0)"/>
      <use xlink:href="#DejaVuSans-6d" transform="translate(456.396484 0)"/>
      <use xlink:href="#DejaVuSans-70" transform="translate(553.808594 0)"/>
      <use xlink:href="#DejaVuSans-65" transform="translate(617.285156 0)"/>
      <use xlink:href="#DejaVuSans-72" transform="translate(678.808594 0)"/>
      <use xlink:href="#DejaVuSans-61" transform="translate(719.921875 0)"/>
      <use xlink:href="#DejaVuSans-74" transform="translate(781.201172 0)"/>
      <use xlink:href="#DejaVuSans-75" transform="translate(820.410156 0)"/>
      <use xlink:href="#DejaVuSans-75" transform="translate(883.789062 0)"/>
      <use xlink:href="#DejaVuSans-72" transform="translate(947.167969 0)"/>
      <use xlink:href="#DejaVuSans-20" transform="translate(988.28125 0)"/>
      <use xlink:href="#DejaVuSans-28" transform="translate(1020.068359 0)"/>
      <use xlink:href="#DejaVuSans-b0" transform="translate(1059.082031 0)"/>
      <use xlink:href="#DejaVuSans-43" transform="translate(1109.082031 0)"/>
      <use xlink:href="#DejaVuSans-29" transform="translate(1178.90625 0)"/>
     </g>
    </g>
   </g>
   <g id="line2d_12">
    <path d="M 74.780455 211.457873 
L 79.256077 211.749607 
L 83.7317 212.187208 
L 92.682946 213.354144 
L 97.158569 214.375213 
L 101.634192 215.833883 
L 106.109815 216.854952 
L 110.585438 217.292553 
L 119.536684 219.042957 
L 124.012306 220.064026 
L 128.487929 220.647494 
L 132.963552 220.647494 
L 137.439175 219.772292 
L 141.914798 216.125617 
L 146.390421 210.874405 
L 150.866044 204.164523 
L 155.341667 200.517848 
L 159.81729 194.245568 
L 164.292912 180.971671 
L 168.768535 166.676705 
L 173.244158 144.286121 
L 177.719781 134.294232 
L 182.195404 143.62972 
L 186.671027 141.004114 
L 191.14665 142.462784 
L 195.622273 142.098116 
L 200.097896 134.731833 
L 204.573519 139.399577 
L 209.049141 148.662131 
L 213.524764 156.757749 
L 218.000387 164.342833 
L 222.47601 167.989508 
L 226.951633 170.177513 
L 231.427256 171.198582 
L 235.902879 171.052715 
L 240.378502 176.303927 
L 244.854125 180.388203 
L 249.329747 183.305543 
L 253.80537 185.785282 
L 258.280993 188.702622 
L 262.756616 193.224499 
L 267.232239 197.308775 
L 271.707862 201.101316 
L 276.183485 204.31039 
L 280.659108 206.935996 
L 285.134731 208.978134 
L 294.085976 211.60374 
L 298.561599 213.06241 
L 303.037222 214.229346 
L 307.512845 214.666947 
L 311.988468 215.833883 
L 316.464091 216.271484 
L 320.939714 217.146686 
L 325.415337 218.167755 
L 329.89096 219.334691 
L 334.366582 220.064026 
L 343.317828 220.866295 
L 347.793451 220.209893 
L 352.269074 219.042957 
L 356.744697 216.709085 
L 361.22032 211.895474 
L 365.695943 203.726922 
L 370.171566 197.892243 
L 374.647189 189.359023 
L 379.122811 178.054331 
L 383.598434 163.175897 
L 388.074057 152.81934 
L 392.54968 120.145133 
L 397.025303 138.232641 
L 401.500926 132.397961 
L 405.976549 132.981429 
L 410.452172 129.04302 
L 414.927795 127.000882 
L 419.403418 125.542212 
L 423.87904 132.397961 
L 428.354663 141.004114 
L 432.830286 149.172665 
L 437.305909 151.214803 
L 441.781532 150.485468 
L 446.257155 151.944138 
L 450.732778 156.466015 
L 455.208401 161.863094 
L 468.635269 176.595661 
L 473.110892 180.825804 
L 477.586515 185.347681 
L 482.062138 191.619962 
L 486.537761 196.141839 
L 491.013384 198.913311 
L 495.489007 201.247183 
L 499.96463 202.414119 
L 504.440253 203.289321 
L 508.915875 204.893858 
L 513.391498 205.623193 
L 517.867121 205.76906 
L 522.342744 207.519464 
L 526.818367 209.124001 
L 531.29399 209.999203 
L 535.769613 211.312006 
L 540.245236 212.187208 
L 544.720859 213.208277 
L 553.672104 213.791745 
L 558.147727 214.812814 
L 562.62335 213.500011 
L 567.098973 208.248799 
L 571.574596 205.331459 
L 576.050219 204.164523 
L 580.525842 196.287706 
L 585.001465 189.431957 
L 589.477088 184.326612 
L 593.95271 178.346065 
L 598.428333 164.853368 
L 602.903956 168.572976 
L 607.379579 166.093237 
L 611.855202 162.884163 
L 616.330825 166.676705 
L 620.806448 167.551907 
L 625.282071 155.153212 
L 629.757694 151.944138 
L 634.233316 151.944138 
L 638.708939 153.986276 
L 643.184562 165.218035 
L 647.660185 175.866326 
L 652.135808 183.45141 
L 656.611431 187.681553 
L 661.087054 187.973287 
L 665.562677 187.82742 
L 670.0383 188.702622 
L 674.513923 194.537302 
L 678.989545 196.287706 
L 678.989545 196.287706 
" clip-path="url(#pfe16989363)" style="fill: none; stroke: #1f77b4; stroke-width: 2; stroke-linecap: square"/>
   </g>
   <g id="line2d_13">
    <path d="M 74.780455 215.341582 
L 79.256077 215.615083 
L 83.7317 216.235017 
L 92.682946 217.912488 
L 97.158569 219.00649 
L 101.634192 220.756894 
L 106.109815 222.142631 
L 110.585438 223.200167 
L 115.061061 224.130069 
L 119.536684 224.768237 
L 124.012306 225.771072 
L 128.487929 226.008106 
L 132.963552 225.661672 
L 137.439175 224.148302 
L 141.914798 220.811594 
L 146.390421 216.198551 
L 150.866044 210.309171 
L 155.341667 197.199374 
L 159.81729 189.924258 
L 164.292912 190.143058 
L 168.768535 181.409272 
L 173.244158 169.357011 
L 177.719781 161.534893 
L 182.195404 159.346888 
L 186.671027 149.482633 
L 191.14665 141.058814 
L 195.622273 124.101775 
L 200.097896 114.055186 
L 204.573519 114.419853 
L 209.049141 111.776014 
L 213.524764 118.905263 
L 222.47601 137.248038 
L 226.951633 142.134583 
L 231.427256 146.692926 
L 235.902879 160.076223 
L 240.378502 168.481809 
L 244.854125 174.261789 
L 249.329747 177.963164 
L 262.756616 196.178305 
L 267.232239 201.502451 
L 271.707862 206.060794 
L 276.183485 209.415735 
L 280.659108 212.114275 
L 285.134731 213.937612 
L 289.610354 215.469216 
L 298.561599 218.021888 
L 303.037222 219.115891 
L 307.512845 219.626425 
L 311.988468 220.939228 
L 316.464091 221.70503 
L 320.939714 222.653165 
L 329.89096 224.367103 
L 338.842205 225.497572 
L 343.317828 225.515805 
L 347.793451 224.84117 
L 352.269074 223.036066 
L 356.744697 221.012162 
L 361.22032 216.709085 
L 365.695943 210.509738 
L 370.171566 193.315665 
L 374.647189 181.646306 
L 379.122811 183.925478 
L 383.598434 175.428725 
L 388.074057 166.275571 
L 392.54968 151.907672 
L 397.025303 152.564073 
L 401.500926 143.95792 
L 405.976549 133.966031 
L 410.452172 115.568556 
L 414.927795 104.24563 
L 419.403418 101.802358 
L 423.87904 101.911758 
L 428.354663 104.956732 
L 432.830286 117.227793 
L 437.305909 127.949017 
L 441.781532 129.26182 
L 446.257155 134.403632 
L 450.732778 145.124856 
L 455.208401 154.843245 
L 459.684024 160.513824 
L 464.159646 167.077839 
L 468.635269 174.662923 
L 477.586515 187.718019 
L 482.062138 193.552699 
L 486.537761 198.14751 
L 491.013384 201.247183 
L 495.489007 203.435188 
L 499.96463 205.404393 
L 504.440253 206.388995 
L 508.915875 207.738265 
L 513.391498 208.905201 
L 517.867121 209.488669 
L 522.342744 210.765005 
L 526.818367 212.369542 
L 535.769613 214.484613 
L 540.245236 215.286882 
L 544.720859 216.435585 
L 549.196481 217.128453 
L 553.672104 217.675454 
L 562.62335 215.906817 
L 567.098973 214.52108 
L 571.574596 209.634536 
L 576.050219 205.039725 
L 580.525842 203.702611 
L 585.001465 192.768664 
L 589.477088 182.904409 
L 593.95271 178.947766 
L 598.428333 173.623621 
L 602.903956 170.925081 
L 607.379579 168.554743 
L 611.855202 161.279626 
L 616.330825 161.553127 
L 620.806448 163.85661 
L 625.282071 157.122417 
L 629.757694 156.684816 
L 634.233316 141.806382 
L 638.708939 139.600144 
L 643.184562 127.912551 
L 647.660185 141.684826 
L 652.135808 149.045032 
L 656.611431 150.740736 
L 661.087054 158.70872 
L 665.562677 167.989508 
L 670.0383 179.367134 
L 674.513923 186.186416 
L 678.989545 189.28609 
L 678.989545 189.28609 
" clip-path="url(#pfe16989363)" style="fill: none; stroke-dasharray: 5.55,2.4; stroke-dashoffset: 0; stroke: #808080; stroke-width: 1.5"/>
   </g>
   <g id="patch_3">
    <path d="M 44.57 246.04 
L 44.57 26.88 
" style="fill: none; stroke: #000000; stroke-width: 0.8; stroke-linejoin: miter; stroke-linecap: square"/>
   </g>
   <g id="patch_4">
    <path d="M 709.2 246.04 
L 709.2 26.88 
" style="fill: none; stroke: #000000; stroke-width: 0.8; stroke-linejoin: miter; stroke-linecap: square"/>
   </g>
   <g id="patch_5">
    <path d="M 44.57 246.04 
L 709.2 246.04 
" style="fill: none; stroke: #000000; stroke-width: 0.8; stroke-linejoin: miter; stroke-linecap: square"/>
   </g>
   <g id="patch_6">
    <path d="M 44.57 26.88 
L 709.2 26.88 
" style="fill: none; stroke: #000000; stroke-width: 0.8; stroke-linejoin: miter; stroke-linecap: square"/>
   </g>
   <g id="text_14">
    <!-- Buiten temperatuur - v001/c00003/d001 -->
    <g transform="translate(254.91625 20.88) scale(0.12 -0.12)">
     <defs>
      <path id="DejaVuSans-76" d="M 191 3500 
L 800 3500 
L 1894 563 
L 2988 3500 
L 3597 3500 
L 2284 0 
L 1503 0 
L 191 3500 
z
" transform="scale(0.015625)"/>
      <path id="DejaVuSans-2f" d="M 1625 4666 
L 2156 4666 
L 531 -594 
L 0 -594 
L 1625 4666 
z
" transform="scale(0.015625)"/>
      <path id="DejaVuSans-63" d="M 3122 3366 
L 3122 2828 
Q 2878 2963 2633 3030 
Q 2388 3097 2138 3097 
Q 1578 3097 1268 2742 
Q 959 2388 959 1747 
Q 959 1106 1268 751 
Q 1578 397 2138 397 
Q 2388 397 2633 464 
Q 2878 531 3122 666 
L 3122 134 
Q 2881 22 2623 -34 
Q 2366 -91 2075 -91 
Q 1284 -91 818 406 
Q 353 903 353 1747 
Q 353 2603 823 3093 
Q 1294 3584 2113 3584 
Q 2378 3584 2631 3529 
Q 2884 3475 3122 3366 
z
" transform="scale(0.015625)"/>
     </defs>
     <use xlink:href="#DejaVuSans-42"/>
     <use xlink:href="#DejaVuSans-75" transform="translate(68.603516 0)"/>
     <use xlink:href="#DejaVuSans-69" transform="translate(131.982422 0)"/>
     <use xlink:href="#DejaVuSans-74" transform="translate(159.765625 0)"/>
     <use xlink:href="#DejaVuSans-65" transform="translate(198.974609 0)"/>
     <use xlink:href="#DejaVuSans-6e" transform="translate(260.498047 0)"/>
     <use xlink:href="#DejaVuSans-20" transform="translate(323.876953 0)"/>
     <use xlink:href="#DejaVuSans-74" transform="translate(355.664062 0)"/>
     <use xlink:href="#DejaVuSans-65" transform="translate(394.873047 0)"/>
     <use xlink:href="#DejaVuSans-6d" transform="translate(456.396484 0)"/>
     <use xlink:href="#DejaVuSans-70" transform="translate(553.808594 0)"/>
     <use xlink:href="#DejaVuSans-65" transform="translate(617.285156 0)"/>
     <use xlink:href="#DejaVuSans-72" transform="translate(678.808594 0)"/>
     <use xlink:href="#DejaVuSans-61" transform="translate(719.921875 0)"/>
     <use xlink:href="#DejaVuSans-74" transform="translate(781.201172 0)"/>
     <use xlink:href="#DejaVuSans-75" transform="translate(820.410156 0)"/>
     <use xlink:href="#DejaVuSans-75" transform="translate(883.789062 0)"/>
     <use xlink:href="#DejaVuSans-72" transform="translate(947.167969 0)"/>
     <use xlink:href="#DejaVuSans-20" transform="translate(988.28125 0)"/>
     <use xlink:href="#DejaVuSans-2d" transform="translate(1020.068359 0)"/>
     <use xlink:href="#DejaVuSans-20" transform="translate(1056.152344 0)"/>
     <use xlink:href="#DejaVuSans-76" transform="translate(1087.939453 0)"/>
     <use xlink:href="#DejaVuSans-30" transform="translate(1147.119141 0)"/>
     <use xlink:href="#DejaVuSans-30" transform="translate(1210.742188 0)"/>
     <use xlink:href="#DejaVuSans-31" transform="translate(1274.365234 0)"/>
     <use xlink:href="#DejaVuSans-2f" transform="translate(1337.988281 0)"/>
     <use xlink:href="#DejaVuSans-63" transform="translate(1371.679688 0)"/>
     <use xlink:href="#DejaVuSans-30" transform="translate(1426.660156 0)"/>
     <use xlink:href="#DejaVuSans-30" transform="translate(1490.283203 0)"/>
     <use xlink:href="#DejaVuSans-30" transform="translate(1553.90625 0)"/>
     <use xlink:href="#DejaVuSans-30" transform="translate(1617.529297 0)"/>
     <use xlink:href="#DejaVuSans-33" transform="translate(1681.152344 0)"/>
     <use xlink:href="#DejaVuSans-2f" transform="translate(1744.775391 0)"/>
     <use xlink:href="#DejaVuSans-64" transform="translate(1778.466797 0)"/>
     <use xlink:href="#DejaVuSans-30" transform="translate(1841.943359 0)"/>
     <use xlink:href="#DejaVuSans-30" transform="translate(1905.566406 0)"/>
     <use xlink:href="#DejaVuSans-31" transform="translate(1969.189453 0)"/>
    </g>
   </g>
   <g id="legend_1">
    <g id="patch_7">
     <path d="M 551.25625 78.914375 
L 702.2 78.914375 
Q 704.2 78.914375 704.2 76.914375 
L 704.2 33.88 
Q 704.2 31.88 702.2 31.88 
L 551.25625 31.88 
Q 549.25625 31.88 549.25625 33.88 
L 549.25625 76.914375 
Q 549.25625 78.914375 551.25625 78.914375 
z
" style="fill: #ffffff; opacity: 0.8; stroke: #cccccc; stroke-linejoin: miter"/>
    </g>
    <g id="line2d_14">
     <path d="M 553.25625 39.978438 
L 563.25625 39.978438 
L 573.25625 39.978438 
" style="fill: none; stroke: #1f77b4; stroke-width: 2; stroke-linecap: square"/>
    </g>
    <g id="text_15">
     <!-- Hive -->
     <g transform="translate(581.25625 43.478438) scale(0.1 -0.1)">
      <defs>
       <path id="DejaVuSans-48" d="M 628 4666 
L 1259 4666 
L 1259 2753 
L 3553 2753 
L 3553 4666 
L 4184 4666 
L 4184 0 
L 3553 0 
L 3553 2222 
L 1259 2222 
L 1259 0 
L 628 0 
L 628 4666 
z
" transform="scale(0.015625)"/>
      </defs>
      <use xlink:href="#DejaVuSans-48"/>
      <use xlink:href="#DejaVuSans-69" transform="translate(75.195312 0)"/>
      <use xlink:href="#DejaVuSans-76" transform="translate(102.978516 0)"/>
      <use xlink:href="#DejaVuSans-65" transform="translate(162.158203 0)"/>
     </g>
    </g>
    <g id="line2d_15">
     <path d="M 553.25625 54.656563 
L 563.25625 54.656563 
L 573.25625 54.656563 
" style="fill: none; stroke-dasharray: 5.55,2.4; stroke-dashoffset: 0; stroke: #808080; stroke-width: 1.5"/>
    </g>
    <g id="text_16">
     <!-- Gemiddelde (alle hives) -->
     <g transform="translate(581.25625 58.156563) scale(0.1 -0.1)">
      <defs>
       <path id="DejaVuSans-47" d="M 3809 666 
L 3809 1919 
L 2778 1919 
L 2778 2438 
L 4434 2438 
L 4434 434 
Q 4069 175 3628 42 
Q 3188 -91 2688 -91 
Q 1594 -91 976 548 
Q 359 1188 359 2328 
Q 359 3472 976 4111 
Q 1594 4750 2688 4750 
Q 3144 4750 3555 4637 
Q 3966 4525 4313 4306 
L 4313 3634 
Q 3963 3931 3569 4081 
Q 3175 4231 2741 4231 
Q 1884 4231 1454 3753 
Q 1025 3275 1025 2328 
Q 1025 1384 1454 906 
Q 1884 428 2741 428 
Q 3075 428 3337 486 
Q 3600 544 3809 666 
z
" transform="scale(0.015625)"/>
       <path id="DejaVuSans-6c" d="M 603 4863 
L 1178 4863 
L 1178 0 
L 603 0 
L 603 4863 
z
" transform="scale(0.015625)"/>
       <path id="DejaVuSans-68" d="M 3513 2113 
L 3513 0 
L 2938 0 
L 2938 2094 
Q 2938 2591 2744 2837 
Q 2550 3084 2163 3084 
Q 1697 3084 1428 2787 
Q 1159 2491 1159 1978 
L 1159 0 
L 581 0 
L 581 4863 
L 1159 4863 
L 1159 2956 
Q 1366 3272 1645 3428 
Q 1925 3584 2291 3584 
Q 2894 3584 3203 3211 
Q 3513 2838 3513 2113 
z
" transform="scale(0.015625)"/>
       <path id="DejaVuSans-73" d="M 2834 3397 
L 2834 2853 
Q 2591 2978 2328 3040 
Q 2066 3103 1784 3103 
Q 1356 3103 1142 2972 
Q 928 2841 928 2578 
Q 928 2378 1081 2264 
Q 1234 2150 1697 2047 
L 1894 2003 
Q 2506 1872 2764 1633 
Q 3022 1394 3022 966 
Q 3022 478 2636 193 
Q 2250 -91 1575 -91 
Q 1294 -91 989 -36 
Q 684 19 347 128 
L 347 722 
Q 666 556 975 473 
Q 1284 391 1588 391 
Q 1994 391 2212 530 
Q 2431 669 2431 922 
Q 2431 1156 2273 1281 
Q 2116 1406 1581 1522 
L 1381 1569 
Q 847 1681 609 1914 
Q 372 2147 372 2553 
Q 372 3047 722 3315 
Q 1072 3584 1716 3584 
Q 2034 3584 2315 3537 
Q 2597 3491 2834 3397 
z
" transform="scale(0.015625)"/>
      </defs>
      <use xlink:href="#DejaVuSans-47"/>
      <use xlink:href="#DejaVuSans-65" transform="translate(77.490234 0)"/>
      <use xlink:href="#DejaVuSans-6d" transform="translate(139.013672 0)"/>
      <use xlink:href="#DejaVuSans-69" transform="translate(236.425781 0)"/>
      <use xlink:href="#DejaVuSans-64" transform="translate(264.208984 0)"/>
      <use xlink:href="#DejaVuSans-64" transform="translate(327.685547 0)"/>
      <use xlink:href="#DejaVuSans-65" transform="translate(391.162109 0)"/>
      <use xlink:href="#DejaVuSans-6c" transform="translate(452.685547 0)"/>
      <use xlink:href="#DejaVuSans-64" transform="translate(480.46875 0)"/>
      <use xlink:href="#DejaVuSans-65" transform="translate(543.945312 0)"/>
      <use xlink:href="#DejaVuSans-20" transform="translate(605.46875 0)"/>
      <use xlink:href="#DejaVuSans-28" transform="translate(637.255859 0)"/>
      <use xlink:href="#DejaVuSans-61" transform="translate(676.269531 0)"/>
      <use xlink:href="#DejaVuSans-6c" transform="translate(737.548828 0)"/>
      <use xlink:href="#DejaVuSans-6c" transform="translate(765.332031 0)"/>
      <use xlink:href="#DejaVuSans-65" transform="translate(793.115234 0)"/>
      <use xlink:href="#DejaVuSans-20" transform="translate(854.638672 0)"/>
      <use xlink:href="#DejaVuSans-68" transform="translate(886.425781 0)"/>
      <use xlink:href="#DejaVuSans-69" transform="translate(949.804688 0)"/>
      <use xlink:href="#DejaVuSans-76" transform="translate(977.587891 0)"/>
      <use xlink:href="#DejaVuSans-65" transform="translate(1036.767578 0)"/>
      <use xlink:href="#DejaVuSans-73" transform="translate(1098.291016 0)"/>
      <use xlink:href="#DejaVuSans-29" transform="translate(1150.390625 0)"/>
     </g>
    </g>
    <g id="patch_8">
     <path d="M 553.25625 72.834688 
L 573.25625 72.834688 
L 573.25625 65.834688 
L 553.25625 65.834688 
z
" style="fill: #808080; fill-opacity: 0.2; stroke: #808080; stroke-opacity: 0.2; stroke-linejoin: miter"/>
    </g>
    <g id="text_17">
     <!-- ±2 Std Dev -->
     <g transform="translate(581.25625 72.834688) scale(0.1 -0.1)">
      <defs>
       <path id="DejaVuSans-b1" d="M 2944 4013 
L 2944 2803 
L 4684 2803 
L 4684 2272 
L 2944 2272 
L 2944 1063 
L 2419 1063 
L 2419 2272 
L 678 2272 
L 678 2803 
L 2419 2803 
L 2419 4013 
L 2944 4013 
z
M 678 531 
L 4684 531 
L 4684 0 
L 678 0 
L 678 531 
z
" transform="scale(0.015625)"/>
       <path id="DejaVuSans-53" d="M 3425 4513 
L 3425 3897 
Q 3066 4069 2747 4153 
Q 2428 4238 2131 4238 
Q 1616 4238 1336 4038 
Q 1056 3838 1056 3469 
Q 1056 3159 1242 3001 
Q 1428 2844 1947 2747 
L 2328 2669 
Q 3034 2534 3370 2195 
Q 3706 1856 3706 1288 
Q 3706 609 3251 259 
Q 2797 -91 1919 -91 
Q 1588 -91 1214 -16 
Q 841 59 441 206 
L 441 856 
Q 825 641 1194 531 
Q 1563 422 1919 422 
Q 2459 422 2753 634 
Q 3047 847 3047 1241 
Q 3047 1584 2836 1778 
Q 2625 1972 2144 2069 
L 1759 2144 
Q 1053 2284 737 2584 
Q 422 2884 422 3419 
Q 422 4038 858 4394 
Q 1294 4750 2059 4750 
Q 2388 4750 2728 4690 
Q 3069 4631 3425 4513 
z
" transform="scale(0.015625)"/>
       <path id="DejaVuSans-44" d="M 1259 4147 
L 1259 519 
L 2022 519 
Q 2988 519 3436 956 
Q 3884 1394 3884 2338 
Q 3884 3275 3436 3711 
Q 2988 4147 2022 4147 
L 1259 4147 
z
M 628 4666 
L 1925 4666 
Q 3281 4666 3915 4102 
Q 4550 3538 4550 2338 
Q 4550 1131 3912 565 
Q 3275 0 1925 0 
L 628 0 
L 628 4666 
z
" transform="scale(0.015625)"/>
      </defs>
      <use xlink:href="#DejaVuSans-b1"/>
      <use xlink:href="#DejaVuSans-32" transform="translate(83.789062 0)"/>
      <use xlink:href="#DejaVuSans-20" transform="translate(147.412109 0)"/>
      <use xlink:href="#DejaVuSans-53" transform="translate(179.199219 0)"/>
      <use xlink:href="#DejaVuSans-74" transform="translate(242.675781 0)"/>
      <use xlink:href="#DejaVuSans-64" transform="translate(281.884766 0)"/>
      <use xlink:href="#DejaVuSans-20" transform="translate(345.361328 0)"/>
      <use xlink:href="#DejaVuSans-44" transform="translate(377.148438 0)"/>
      <use xlink:href="#DejaVuSans-65" transform="translate(454.150391 0)"/>
      <use xlink:href="#DejaVuSans-76" transform="translate(515.673828 0)"/>
     </g>
    </g>
   </g>
  </g>
 </g>
 <defs>
  <clipPath id="pfe16989363">
   <rect x="44.57" y="26.88" width="664.63" height="219.16"/>
  </clipPath>
 </defs>
</svg>
