<?xml version="1.0" encoding="utf-8" standalone="no"?>
<!DOCTYPE svg PUBLIC "-//W3C//DTD SVG 1.1//EN"
  "http://www.w3.org/Graphics/SVG/1.1/DTD/svg11.dtd">
<svg xmlns:xlink="http://www.w3.org/1999/xlink" width="720pt" height="288pt" viewBox="0 0 720 288" xmlns="http://www.w3.org/2000/svg" version="1.1">
 <metadata>
  <rdf:RDF xmlns:dc="http://purl.org/dc/elements/1.1/" xmlns:cc="http://creativecommons.org/ns#" xmlns:rdf="http://www.w3.org/1999/02/22-rdf-syntax-ns#">
   <cc:Work>
    <dc:type rdf:resource="http://purl.org/dc/dcmitype/StillImage"/>
    <dc:date>2025-06-04T10:18:24.080130</dc:date>
    <dc:format>image/svg+xml</dc:format>
    <dc:creator>
     <cc:Agent>
      <dc:title>Matplotlib v3.10.3, https://matplotlib.org/</dc:title>
     </cc:Agent>
    </dc:creator>
   </cc:Work>
  </rdf:RDF>
 </metadata>
 <defs>
  <style type="text/css">*{stroke-linejoin: round; stroke-linecap: butt}</style>
 </defs>
 <g id="figure_1">
  <g id="patch_1">
   <path d="M 0 288 
L 720 288 
L 720 0 
L 0 0 
z
" style="fill: #ffffff"/>
  </g>
  <g id="axes_1">
   <g id="patch_2">
    <path d="M 63.47 246.04 
L 709.2 246.04 
L 709.2 26.88 
L 63.47 26.88 
z
" style="fill: #ffffff"/>
   </g>
   <g id="FillBetweenPolyCollection_1">
    <defs>
     <path id="m5e77c7e048" d="M 92.821364 -164.883752 
L 92.821364 -70.531043 
L 96.422758 -73.141961 
L 100.024152 -70.719392 
L 103.625547 -74.331718 
L 107.226941 -71.974967 
L 110.828335 -73.434568 
L 114.42973 -83.427346 
L 118.031124 -80.746561 
L 121.632518 -74.901609 
L 125.233912 -76.585705 
L 128.835307 -71.693354 
L 132.436701 -67.148159 
L 136.038095 -72.79091 
L 139.63949 -69.964875 
L 143.240884 -82.774051 
L 146.842278 -69.795331 
L 150.443673 -71.397476 
L 154.045067 -70.680494 
L 157.646461 -73.362991 
L 161.247856 -71.029125 
L 164.84925 -67.706492 
L 168.450644 -65.147111 
L 172.052038 -74.965795 
L 175.653433 -80.616615 
L 179.254827 -77.967953 
L 182.856221 -87.149704 
L 186.457616 -88.252374 
L 190.05901 -101.83384 
L 193.660404 -100.25673 
L 197.261799 -105.577945 
L 200.863193 -93.007656 
L 204.464587 -102.046634 
L 208.065982 -101.211348 
L 211.667376 -100.235781 
L 215.26877 -116.773755 
L 218.870165 -109.688428 
L 222.471559 -94.229871 
L 226.072953 -117.886108 
L 229.674347 -113.158297 
L 233.275742 -123.953645 
L 236.877136 -134.522859 
L 240.47853 -116.587522 
L 244.079925 -117.157623 
L 247.681319 -120.013448 
L 251.282713 -110.102249 
L 254.884108 -97.567365 
L 258.485502 -118.264622 
L 262.086896 -99.675213 
L 265.688291 -97.132535 
L 269.289685 -88.313955 
L 272.891079 -87.011714 
L 276.492474 -83.212868 
L 280.093868 -72.883497 
L 283.695262 -86.873784 
L 287.296656 -80.772343 
L 290.898051 -80.746863 
L 294.499445 -80.342339 
L 298.100839 -74.07617 
L 301.702234 -59.028105 
L 305.303628 -75.404738 
L 308.905022 -72.541281 
L 312.506417 -76.538931 
L 316.107811 -65.428468 
L 319.709205 -63.159833 
L 323.3106 -65.34453 
L 326.911994 -51.921818 
L 330.513388 -71.128469 
L 334.114782 -71.117001 
L 337.716177 -57.455136 
L 341.317571 -61.054705 
L 344.918965 -62.744778 
L 348.52036 -64.73693 
L 352.121754 -59.037149 
L 355.723148 -63.426098 
L 359.324543 -72.066879 
L 362.925937 -82.402765 
L 366.527331 -82.617822 
L 370.128726 -82.152507 
L 373.73012 -68.208552 
L 377.331514 -80.244432 
L 380.932909 -92.895746 
L 384.534303 -97.15165 
L 388.135697 -88.747889 
L 391.737091 -101.334203 
L 395.338486 -109.847386 
L 398.93988 -102.780089 
L 402.541274 -102.758301 
L 406.142669 -93.852584 
L 409.744063 -87.693605 
L 413.345457 -102.352682 
L 416.946852 -105.808063 
L 420.548246 -115.620432 
L 424.14964 -133.458409 
L 427.751035 -122.473261 
L 431.352429 -111.380122 
L 434.953823 -111.251304 
L 438.555218 -109.345967 
L 442.156612 -116.98893 
L 445.758006 -99.314174 
L 449.3594 -85.659404 
L 452.960795 -98.774755 
L 456.562189 -101.676726 
L 460.163583 -95.426831 
L 463.764978 -90.650512 
L 467.366372 -84.391477 
L 470.967766 -78.469863 
L 474.569161 -70.212373 
L 478.170555 -67.707299 
L 481.771949 -81.825851 
L 485.373344 -93.866839 
L 488.974738 -80.092653 
L 492.576132 -81.715287 
L 496.177526 -83.334952 
L 499.778921 -58.168125 
L 503.380315 -79.198431 
L 506.981709 -80.708218 
L 510.583104 -85.168107 
L 514.184498 -75.057795 
L 517.785892 -58.022291 
L 521.387287 -81.298977 
L 524.988681 -77.035598 
L 528.590075 -75.375879 
L 532.19147 -83.923831 
L 535.792864 -87.275315 
L 539.394258 -96.122107 
L 542.995653 -95.769663 
L 546.597047 -108.164855 
L 550.198441 -108.030988 
L 553.799835 -102.140266 
L 557.40123 -95.223839 
L 561.002624 -92.573526 
L 564.604018 -100.340478 
L 568.205413 -103.676844 
L 571.806807 -114.841542 
L 575.408201 -95.103368 
L 579.009596 -123.200609 
L 582.61099 -83.990876 
L 586.212384 -127.722138 
L 589.813779 -118.405895 
L 593.415173 -74.262124 
L 597.016567 -81.433963 
L 600.617962 -94.207796 
L 604.219356 -103.432906 
L 607.82075 -95.23025 
L 611.422144 -100.482146 
L 615.023539 -91.04712 
L 618.624933 -96.300923 
L 622.226327 -91.450223 
L 625.827722 -89.36547 
L 629.429116 -86.647454 
L 633.03051 -98.2031 
L 636.631905 -94.535694 
L 640.233299 -107.619617 
L 643.834693 -105.585592 
L 647.436088 -122.825707 
L 651.037482 -104.244707 
L 654.638876 -126.511993 
L 654.638876 -142.659138 
L 654.638876 -142.659138 
L 651.037482 -130.693617 
L 647.436088 -122.902874 
L 643.834693 -133.741816 
L 640.233299 -147.855663 
L 636.631905 -154.259618 
L 633.03051 -162.496793 
L 629.429116 -167.337516 
L 625.827722 -170.048162 
L 622.226327 -158.957887 
L 618.624933 -156.465993 
L 615.023539 -165.034629 
L 611.422144 -177.755324 
L 607.82075 -185.411839 
L 604.219356 -146.808099 
L 600.617962 -163.030052 
L 597.016567 -165.844268 
L 593.415173 -187.699019 
L 589.813779 -148.713359 
L 586.212384 -166.328994 
L 582.61099 -210.866229 
L 579.009596 -168.12056 
L 575.408201 -162.222011 
L 571.806807 -146.348868 
L 568.205413 -142.559875 
L 564.604018 -162.431185 
L 561.002624 -156.989393 
L 557.40123 -158.252424 
L 553.799835 -143.9248 
L 550.198441 -147.751221 
L 546.597047 -164.363397 
L 542.995653 -164.684686 
L 539.394258 -154.299076 
L 535.792864 -139.069567 
L 532.19147 -140.981327 
L 528.590075 -140.8466 
L 524.988681 -142.489209 
L 521.387287 -137.209555 
L 517.785892 -172.231388 
L 514.184498 -139.03778 
L 510.583104 -124.137103 
L 506.981709 -154.407443 
L 503.380315 -141.091425 
L 499.778921 -174.08855 
L 496.177526 -160.823176 
L 492.576132 -147.425491 
L 488.974738 -154.393519 
L 485.373344 -145.204795 
L 481.771949 -154.927251 
L 478.170555 -160.161428 
L 474.569161 -181.79802 
L 470.967766 -169.16119 
L 467.366372 -168.301955 
L 463.764978 -167.244391 
L 460.163583 -170.181976 
L 456.562189 -159.070911 
L 452.960795 -162.668587 
L 449.3594 -209.066241 
L 445.758006 -194.357194 
L 442.156612 -175.75142 
L 438.555218 -201.558243 
L 434.953823 -181.721923 
L 431.352429 -201.996571 
L 427.751035 -196.711697 
L 424.14964 -212.756269 
L 420.548246 -244.05438 
L 416.946852 -240.90842 
L 413.345457 -246.645793 
L 409.744063 -250.106349 
L 406.142669 -244.150527 
L 402.541274 -220.301756 
L 398.93988 -232.760283 
L 395.338486 -212.871638 
L 391.737091 -232.686464 
L 388.135697 -251.158182 
L 384.534303 -226.535743 
L 380.932909 -222.182697 
L 377.331514 -225.322787 
L 373.73012 -228.429308 
L 370.128726 -215.61758 
L 366.527331 -203.591275 
L 362.925937 -186.586157 
L 359.324543 -189.642468 
L 355.723148 -186.147377 
L 352.121754 -172.445057 
L 348.52036 -174.216803 
L 344.918965 -181.701522 
L 341.317571 -173.677051 
L 337.716177 -176.390911 
L 334.114782 -153.179171 
L 330.513388 -158.526292 
L 326.911994 -170.268724 
L 323.3106 -168.568748 
L 319.709205 -182.278871 
L 316.107811 -170.776222 
L 312.506417 -176.071192 
L 308.905022 -175.057618 
L 305.303628 -162.447137 
L 301.702234 -206.391185 
L 298.100839 -176.218345 
L 294.499445 -167.980035 
L 290.898051 -161.168004 
L 287.296656 -159.150896 
L 283.695262 -166.440327 
L 280.093868 -196.513689 
L 276.492474 -173.440434 
L 272.891079 -167.089206 
L 269.289685 -163.282652 
L 265.688291 -180.994588 
L 262.086896 -180.015785 
L 258.485502 -171.758676 
L 254.884108 -198.044963 
L 251.282713 -172.416393 
L 247.681319 -175.065409 
L 244.079925 -173.004037 
L 240.47853 -185.886373 
L 236.877136 -176.278067 
L 233.275742 -172.329542 
L 229.674347 -181.848455 
L 226.072953 -181.51119 
L 222.471559 -185.817993 
L 218.870165 -176.688749 
L 215.26877 -169.393444 
L 211.667376 -178.759512 
L 208.065982 -170.029848 
L 204.464587 -175.370654 
L 200.863193 -161.833304 
L 197.261799 -159.341003 
L 193.660404 -171.033672 
L 190.05901 -162.691458 
L 186.457616 -154.460508 
L 182.856221 -149.505473 
L 179.254827 -140.491698 
L 175.653433 -140.922068 
L 172.052038 -147.29003 
L 168.450644 -156.881684 
L 164.84925 -153.194949 
L 161.247856 -147.208854 
L 157.646461 -153.11871 
L 154.045067 -160.79343 
L 150.443673 -174.233668 
L 146.842278 -162.596945 
L 143.240884 -160.968748 
L 139.63949 -154.39317 
L 136.038095 -163.374886 
L 132.436701 -165.00442 
L 128.835307 -161.834071 
L 125.233912 -142.822502 
L 121.632518 -160.672496 
L 118.031124 -150.17684 
L 114.42973 -143.9235 
L 110.828335 -154.547836 
L 107.226941 -165.698922 
L 103.625547 -158.564797 
L 100.024152 -177.155743 
L 96.422758 -169.575306 
L 92.821364 -164.883752 
z
" style="stroke: #808080; stroke-opacity: 0.2"/>
    </defs>
    <g clip-path="url(#p3074b20dff)">
     <use xlink:href="#m5e77c7e048" x="0" y="288" style="fill: #808080; fill-opacity: 0.2; stroke: #808080; stroke-opacity: 0.2"/>
    </g>
   </g>
   <g id="matplotlib.axis_1">
    <g id="xtick_1">
     <g id="line2d_1">
      <defs>
       <path id="m4de049eb2b" d="M 0 0 
L 0 3.5 
" style="stroke: #000000; stroke-width: 0.8"/>
      </defs>
      <g>
       <use xlink:href="#m4de049eb2b" x="107.226941" y="246.04" style="stroke: #000000; stroke-width: 0.8"/>
      </g>
     </g>
     <g id="text_1">
      <!-- 06-01 12 -->
      <g transform="translate(84.746472 260.638438) scale(0.1 -0.1)">
       <defs>
        <path id="DejaVuSans-30" d="M 2034 4250 
Q 1547 4250 1301 3770 
Q 1056 3291 1056 2328 
Q 1056 1369 1301 889 
Q 1547 409 2034 409 
Q 2525 409 2770 889 
Q 3016 1369 3016 2328 
Q 3016 3291 2770 3770 
Q 2525 4250 2034 4250 
z
M 2034 4750 
Q 2819 4750 3233 4129 
Q 3647 3509 3647 2328 
Q 3647 1150 3233 529 
Q 2819 -91 2034 -91 
Q 1250 -91 836 529 
Q 422 1150 422 2328 
Q 422 3509 836 4129 
Q 1250 4750 2034 4750 
z
" transform="scale(0.015625)"/>
        <path id="DejaVuSans-36" d="M 2113 2584 
Q 1688 2584 1439 2293 
Q 1191 2003 1191 1497 
Q 1191 994 1439 701 
Q 1688 409 2113 409 
Q 2538 409 2786 701 
Q 3034 994 3034 1497 
Q 3034 2003 2786 2293 
Q 2538 2584 2113 2584 
z
M 3366 4563 
L 3366 3988 
Q 3128 4100 2886 4159 
Q 2644 4219 2406 4219 
Q 1781 4219 1451 3797 
Q 1122 3375 1075 2522 
Q 1259 2794 1537 2939 
Q 1816 3084 2150 3084 
Q 2853 3084 3261 2657 
Q 3669 2231 3669 1497 
Q 3669 778 3244 343 
Q 2819 -91 2113 -91 
Q 1303 -91 875 529 
Q 447 1150 447 2328 
Q 447 3434 972 4092 
Q 1497 4750 2381 4750 
Q 2619 4750 2861 4703 
Q 3103 4656 3366 4563 
z
" transform="scale(0.015625)"/>
        <path id="DejaVuSans-2d" d="M 313 2009 
L 1997 2009 
L 1997 1497 
L 313 1497 
L 313 2009 
z
" transform="scale(0.015625)"/>
        <path id="DejaVuSans-31" d="M 794 531 
L 1825 531 
L 1825 4091 
L 703 3866 
L 703 4441 
L 1819 4666 
L 2450 4666 
L 2450 531 
L 3481 531 
L 3481 0 
L 794 0 
L 794 531 
z
" transform="scale(0.015625)"/>
        <path id="DejaVuSans-20" transform="scale(0.015625)"/>
        <path id="DejaVuSans-32" d="M 1228 531 
L 3431 531 
L 3431 0 
L 469 0 
L 469 531 
Q 828 903 1448 1529 
Q 2069 2156 2228 2338 
Q 2531 2678 2651 2914 
Q 2772 3150 2772 3378 
Q 2772 3750 2511 3984 
Q 2250 4219 1831 4219 
Q 1534 4219 1204 4116 
Q 875 4013 500 3803 
L 500 4441 
Q 881 4594 1212 4672 
Q 1544 4750 1819 4750 
Q 2544 4750 2975 4387 
Q 3406 4025 3406 3419 
Q 3406 3131 3298 2873 
Q 3191 2616 2906 2266 
Q 2828 2175 2409 1742 
Q 1991 1309 1228 531 
z
" transform="scale(0.015625)"/>
       </defs>
       <use xlink:href="#DejaVuSans-30"/>
       <use xlink:href="#DejaVuSans-36" transform="translate(63.623047 0)"/>
       <use xlink:href="#DejaVuSans-2d" transform="translate(127.246094 0)"/>
       <use xlink:href="#DejaVuSans-30" transform="translate(163.330078 0)"/>
       <use xlink:href="#DejaVuSans-31" transform="translate(226.953125 0)"/>
       <use xlink:href="#DejaVuSans-20" transform="translate(290.576172 0)"/>
       <use xlink:href="#DejaVuSans-31" transform="translate(322.363281 0)"/>
       <use xlink:href="#DejaVuSans-32" transform="translate(385.986328 0)"/>
      </g>
     </g>
    </g>
    <g id="xtick_2">
     <g id="line2d_2">
      <g>
       <use xlink:href="#m4de049eb2b" x="193.660404" y="246.04" style="stroke: #000000; stroke-width: 0.8"/>
      </g>
     </g>
     <g id="text_2">
      <!-- 06-02 00 -->
      <g transform="translate(171.179936 260.638438) scale(0.1 -0.1)">
       <use xlink:href="#DejaVuSans-30"/>
       <use xlink:href="#DejaVuSans-36" transform="translate(63.623047 0)"/>
       <use xlink:href="#DejaVuSans-2d" transform="translate(127.246094 0)"/>
       <use xlink:href="#DejaVuSans-30" transform="translate(163.330078 0)"/>
       <use xlink:href="#DejaVuSans-32" transform="translate(226.953125 0)"/>
       <use xlink:href="#DejaVuSans-20" transform="translate(290.576172 0)"/>
       <use xlink:href="#DejaVuSans-30" transform="translate(322.363281 0)"/>
       <use xlink:href="#DejaVuSans-30" transform="translate(385.986328 0)"/>
      </g>
     </g>
    </g>
    <g id="xtick_3">
     <g id="line2d_3">
      <g>
       <use xlink:href="#m4de049eb2b" x="280.093868" y="246.04" style="stroke: #000000; stroke-width: 0.8"/>
      </g>
     </g>
     <g id="text_3">
      <!-- 06-02 12 -->
      <g transform="translate(257.613399 260.638438) scale(0.1 -0.1)">
       <use xlink:href="#DejaVuSans-30"/>
       <use xlink:href="#DejaVuSans-36" transform="translate(63.623047 0)"/>
       <use xlink:href="#DejaVuSans-2d" transform="translate(127.246094 0)"/>
       <use xlink:href="#DejaVuSans-30" transform="translate(163.330078 0)"/>
       <use xlink:href="#DejaVuSans-32" transform="translate(226.953125 0)"/>
       <use xlink:href="#DejaVuSans-20" transform="translate(290.576172 0)"/>
       <use xlink:href="#DejaVuSans-31" transform="translate(322.363281 0)"/>
       <use xlink:href="#DejaVuSans-32" transform="translate(385.986328 0)"/>
      </g>
     </g>
    </g>
    <g id="xtick_4">
     <g id="line2d_4">
      <g>
       <use xlink:href="#m4de049eb2b" x="366.527331" y="246.04" style="stroke: #000000; stroke-width: 0.8"/>
      </g>
     </g>
     <g id="text_4">
      <!-- 06-03 00 -->
      <g transform="translate(344.046863 260.638438) scale(0.1 -0.1)">
       <defs>
        <path id="DejaVuSans-33" d="M 2597 2516 
Q 3050 2419 3304 2112 
Q 3559 1806 3559 1356 
Q 3559 666 3084 287 
Q 2609 -91 1734 -91 
Q 1441 -91 1130 -33 
Q 819 25 488 141 
L 488 750 
Q 750 597 1062 519 
Q 1375 441 1716 441 
Q 2309 441 2620 675 
Q 2931 909 2931 1356 
Q 2931 1769 2642 2001 
Q 2353 2234 1838 2234 
L 1294 2234 
L 1294 2753 
L 1863 2753 
Q 2328 2753 2575 2939 
Q 2822 3125 2822 3475 
Q 2822 3834 2567 4026 
Q 2313 4219 1838 4219 
Q 1578 4219 1281 4162 
Q 984 4106 628 3988 
L 628 4550 
Q 988 4650 1302 4700 
Q 1616 4750 1894 4750 
Q 2613 4750 3031 4423 
Q 3450 4097 3450 3541 
Q 3450 3153 3228 2886 
Q 3006 2619 2597 2516 
z
" transform="scale(0.015625)"/>
       </defs>
       <use xlink:href="#DejaVuSans-30"/>
       <use xlink:href="#DejaVuSans-36" transform="translate(63.623047 0)"/>
       <use xlink:href="#DejaVuSans-2d" transform="translate(127.246094 0)"/>
       <use xlink:href="#DejaVuSans-30" transform="translate(163.330078 0)"/>
       <use xlink:href="#DejaVuSans-33" transform="translate(226.953125 0)"/>
       <use xlink:href="#DejaVuSans-20" transform="translate(290.576172 0)"/>
       <use xlink:href="#DejaVuSans-30" transform="translate(322.363281 0)"/>
       <use xlink:href="#DejaVuSans-30" transform="translate(385.986328 0)"/>
      </g>
     </g>
    </g>
    <g id="xtick_5">
     <g id="line2d_5">
      <g>
       <use xlink:href="#m4de049eb2b" x="452.960795" y="246.04" style="stroke: #000000; stroke-width: 0.8"/>
      </g>
     </g>
     <g id="text_5">
      <!-- 06-03 12 -->
      <g transform="translate(430.480326 260.638438) scale(0.1 -0.1)">
       <use xlink:href="#DejaVuSans-30"/>
       <use xlink:href="#DejaVuSans-36" transform="translate(63.623047 0)"/>
       <use xlink:href="#DejaVuSans-2d" transform="translate(127.246094 0)"/>
       <use xlink:href="#DejaVuSans-30" transform="translate(163.330078 0)"/>
       <use xlink:href="#DejaVuSans-33" transform="translate(226.953125 0)"/>
       <use xlink:href="#DejaVuSans-20" transform="translate(290.576172 0)"/>
       <use xlink:href="#DejaVuSans-31" transform="translate(322.363281 0)"/>
       <use xlink:href="#DejaVuSans-32" transform="translate(385.986328 0)"/>
      </g>
     </g>
    </g>
    <g id="xtick_6">
     <g id="line2d_6">
      <g>
       <use xlink:href="#m4de049eb2b" x="539.394258" y="246.04" style="stroke: #000000; stroke-width: 0.8"/>
      </g>
     </g>
     <g id="text_6">
      <!-- 06-04 00 -->
      <g transform="translate(516.913789 260.638438) scale(0.1 -0.1)">
       <defs>
        <path id="DejaVuSans-34" d="M 2419 4116 
L 825 1625 
L 2419 1625 
L 2419 4116 
z
M 2253 4666 
L 3047 4666 
L 3047 1625 
L 3713 1625 
L 3713 1100 
L 3047 1100 
L 3047 0 
L 2419 0 
L 2419 1100 
L 313 1100 
L 313 1709 
L 2253 4666 
z
" transform="scale(0.015625)"/>
       </defs>
       <use xlink:href="#DejaVuSans-30"/>
       <use xlink:href="#DejaVuSans-36" transform="translate(63.623047 0)"/>
       <use xlink:href="#DejaVuSans-2d" transform="translate(127.246094 0)"/>
       <use xlink:href="#DejaVuSans-30" transform="translate(163.330078 0)"/>
       <use xlink:href="#DejaVuSans-34" transform="translate(226.953125 0)"/>
       <use xlink:href="#DejaVuSans-20" transform="translate(290.576172 0)"/>
       <use xlink:href="#DejaVuSans-30" transform="translate(322.363281 0)"/>
       <use xlink:href="#DejaVuSans-30" transform="translate(385.986328 0)"/>
      </g>
     </g>
    </g>
    <g id="xtick_7">
     <g id="line2d_7">
      <g>
       <use xlink:href="#m4de049eb2b" x="625.827722" y="246.04" style="stroke: #000000; stroke-width: 0.8"/>
      </g>
     </g>
     <g id="text_7">
      <!-- 06-04 12 -->
      <g transform="translate(603.347253 260.638438) scale(0.1 -0.1)">
       <use xlink:href="#DejaVuSans-30"/>
       <use xlink:href="#DejaVuSans-36" transform="translate(63.623047 0)"/>
       <use xlink:href="#DejaVuSans-2d" transform="translate(127.246094 0)"/>
       <use xlink:href="#DejaVuSans-30" transform="translate(163.330078 0)"/>
       <use xlink:href="#DejaVuSans-34" transform="translate(226.953125 0)"/>
       <use xlink:href="#DejaVuSans-20" transform="translate(290.576172 0)"/>
       <use xlink:href="#DejaVuSans-31" transform="translate(322.363281 0)"/>
       <use xlink:href="#DejaVuSans-32" transform="translate(385.986328 0)"/>
      </g>
     </g>
    </g>
    <g id="text_8">
     <!-- Tijd -->
     <g transform="translate(377.485 274.316562) scale(0.1 -0.1)">
      <defs>
       <path id="DejaVuSans-54" d="M -19 4666 
L 3928 4666 
L 3928 4134 
L 2272 4134 
L 2272 0 
L 1638 0 
L 1638 4134 
L -19 4134 
L -19 4666 
z
" transform="scale(0.015625)"/>
       <path id="DejaVuSans-69" d="M 603 3500 
L 1178 3500 
L 1178 0 
L 603 0 
L 603 3500 
z
M 603 4863 
L 1178 4863 
L 1178 4134 
L 603 4134 
L 603 4863 
z
" transform="scale(0.015625)"/>
       <path id="DejaVuSans-6a" d="M 603 3500 
L 1178 3500 
L 1178 -63 
Q 1178 -731 923 -1031 
Q 669 -1331 103 -1331 
L -116 -1331 
L -116 -844 
L 38 -844 
Q 366 -844 484 -692 
Q 603 -541 603 -63 
L 603 3500 
z
M 603 4863 
L 1178 4863 
L 1178 4134 
L 603 4134 
L 603 4863 
z
" transform="scale(0.015625)"/>
       <path id="DejaVuSans-64" d="M 2906 2969 
L 2906 4863 
L 3481 4863 
L 3481 0 
L 2906 0 
L 2906 525 
Q 2725 213 2448 61 
Q 2172 -91 1784 -91 
Q 1150 -91 751 415 
Q 353 922 353 1747 
Q 353 2572 751 3078 
Q 1150 3584 1784 3584 
Q 2172 3584 2448 3432 
Q 2725 3281 2906 2969 
z
M 947 1747 
Q 947 1113 1208 752 
Q 1469 391 1925 391 
Q 2381 391 2643 752 
Q 2906 1113 2906 1747 
Q 2906 2381 2643 2742 
Q 2381 3103 1925 3103 
Q 1469 3103 1208 2742 
Q 947 2381 947 1747 
z
" transform="scale(0.015625)"/>
      </defs>
      <use xlink:href="#DejaVuSans-54"/>
      <use xlink:href="#DejaVuSans-69" transform="translate(57.958984 0)"/>
      <use xlink:href="#DejaVuSans-6a" transform="translate(85.742188 0)"/>
      <use xlink:href="#DejaVuSans-64" transform="translate(113.525391 0)"/>
     </g>
    </g>
   </g>
   <g id="matplotlib.axis_2">
    <g id="ytick_1">
     <g id="line2d_8">
      <defs>
       <path id="mc293774264" d="M 0 0 
L -3.5 0 
" style="stroke: #000000; stroke-width: 0.8"/>
      </defs>
      <g>
       <use xlink:href="#mc293774264" x="63.47" y="235.68162" style="stroke: #000000; stroke-width: 0.8"/>
      </g>
     </g>
     <g id="text_9">
      <!-- 0 -->
      <g transform="translate(50.1075 239.480839) scale(0.1 -0.1)">
       <use xlink:href="#DejaVuSans-30"/>
      </g>
     </g>
    </g>
    <g id="ytick_2">
     <g id="line2d_9">
      <g>
       <use xlink:href="#mc293774264" x="63.47" y="210.104209" style="stroke: #000000; stroke-width: 0.8"/>
      </g>
     </g>
     <g id="text_10">
      <!-- 2500 -->
      <g transform="translate(31.02 213.903427) scale(0.1 -0.1)">
       <defs>
        <path id="DejaVuSans-35" d="M 691 4666 
L 3169 4666 
L 3169 4134 
L 1269 4134 
L 1269 2991 
Q 1406 3038 1543 3061 
Q 1681 3084 1819 3084 
Q 2600 3084 3056 2656 
Q 3513 2228 3513 1497 
Q 3513 744 3044 326 
Q 2575 -91 1722 -91 
Q 1428 -91 1123 -41 
Q 819 9 494 109 
L 494 744 
Q 775 591 1075 516 
Q 1375 441 1709 441 
Q 2250 441 2565 725 
Q 2881 1009 2881 1497 
Q 2881 1984 2565 2268 
Q 2250 2553 1709 2553 
Q 1456 2553 1204 2497 
Q 953 2441 691 2322 
L 691 4666 
z
" transform="scale(0.015625)"/>
       </defs>
       <use xlink:href="#DejaVuSans-32"/>
       <use xlink:href="#DejaVuSans-35" transform="translate(63.623047 0)"/>
       <use xlink:href="#DejaVuSans-30" transform="translate(127.246094 0)"/>
       <use xlink:href="#DejaVuSans-30" transform="translate(190.869141 0)"/>
      </g>
     </g>
    </g>
    <g id="ytick_3">
     <g id="line2d_10">
      <g>
       <use xlink:href="#mc293774264" x="63.47" y="184.526798" style="stroke: #000000; stroke-width: 0.8"/>
      </g>
     </g>
     <g id="text_11">
      <!-- 5000 -->
      <g transform="translate(31.02 188.326016) scale(0.1 -0.1)">
       <use xlink:href="#DejaVuSans-35"/>
       <use xlink:href="#DejaVuSans-30" transform="translate(63.623047 0)"/>
       <use xlink:href="#DejaVuSans-30" transform="translate(127.246094 0)"/>
       <use xlink:href="#DejaVuSans-30" transform="translate(190.869141 0)"/>
      </g>
     </g>
    </g>
    <g id="ytick_4">
     <g id="line2d_11">
      <g>
       <use xlink:href="#mc293774264" x="63.47" y="158.949386" style="stroke: #000000; stroke-width: 0.8"/>
      </g>
     </g>
     <g id="text_12">
      <!-- 7500 -->
      <g transform="translate(31.02 162.748605) scale(0.1 -0.1)">
       <defs>
        <path id="DejaVuSans-37" d="M 525 4666 
L 3525 4666 
L 3525 4397 
L 1831 0 
L 1172 0 
L 2766 4134 
L 525 4134 
L 525 4666 
z
" transform="scale(0.015625)"/>
       </defs>
       <use xlink:href="#DejaVuSans-37"/>
       <use xlink:href="#DejaVuSans-35" transform="translate(63.623047 0)"/>
       <use xlink:href="#DejaVuSans-30" transform="translate(127.246094 0)"/>
       <use xlink:href="#DejaVuSans-30" transform="translate(190.869141 0)"/>
      </g>
     </g>
    </g>
    <g id="ytick_5">
     <g id="line2d_12">
      <g>
       <use xlink:href="#mc293774264" x="63.47" y="133.371975" style="stroke: #000000; stroke-width: 0.8"/>
      </g>
     </g>
     <g id="text_13">
      <!-- 10000 -->
      <g transform="translate(24.6575 137.171194) scale(0.1 -0.1)">
       <use xlink:href="#DejaVuSans-31"/>
       <use xlink:href="#DejaVuSans-30" transform="translate(63.623047 0)"/>
       <use xlink:href="#DejaVuSans-30" transform="translate(127.246094 0)"/>
       <use xlink:href="#DejaVuSans-30" transform="translate(190.869141 0)"/>
       <use xlink:href="#DejaVuSans-30" transform="translate(254.492188 0)"/>
      </g>
     </g>
    </g>
    <g id="ytick_6">
     <g id="line2d_13">
      <g>
       <use xlink:href="#mc293774264" x="63.47" y="107.794564" style="stroke: #000000; stroke-width: 0.8"/>
      </g>
     </g>
     <g id="text_14">
      <!-- 12500 -->
      <g transform="translate(24.6575 111.593783) scale(0.1 -0.1)">
       <use xlink:href="#DejaVuSans-31"/>
       <use xlink:href="#DejaVuSans-32" transform="translate(63.623047 0)"/>
       <use xlink:href="#DejaVuSans-35" transform="translate(127.246094 0)"/>
       <use xlink:href="#DejaVuSans-30" transform="translate(190.869141 0)"/>
       <use xlink:href="#DejaVuSans-30" transform="translate(254.492188 0)"/>
      </g>
     </g>
    </g>
    <g id="ytick_7">
     <g id="line2d_14">
      <g>
       <use xlink:href="#mc293774264" x="63.47" y="82.217153" style="stroke: #000000; stroke-width: 0.8"/>
      </g>
     </g>
     <g id="text_15">
      <!-- 15000 -->
      <g transform="translate(24.6575 86.016371) scale(0.1 -0.1)">
       <use xlink:href="#DejaVuSans-31"/>
       <use xlink:href="#DejaVuSans-35" transform="translate(63.623047 0)"/>
       <use xlink:href="#DejaVuSans-30" transform="translate(127.246094 0)"/>
       <use xlink:href="#DejaVuSans-30" transform="translate(190.869141 0)"/>
       <use xlink:href="#DejaVuSans-30" transform="translate(254.492188 0)"/>
      </g>
     </g>
    </g>
    <g id="ytick_8">
     <g id="line2d_15">
      <g>
       <use xlink:href="#mc293774264" x="63.47" y="56.639741" style="stroke: #000000; stroke-width: 0.8"/>
      </g>
     </g>
     <g id="text_16">
      <!-- 17500 -->
      <g transform="translate(24.6575 60.43896) scale(0.1 -0.1)">
       <use xlink:href="#DejaVuSans-31"/>
       <use xlink:href="#DejaVuSans-37" transform="translate(63.623047 0)"/>
       <use xlink:href="#DejaVuSans-35" transform="translate(127.246094 0)"/>
       <use xlink:href="#DejaVuSans-30" transform="translate(190.869141 0)"/>
       <use xlink:href="#DejaVuSans-30" transform="translate(254.492188 0)"/>
      </g>
     </g>
    </g>
    <g id="ytick_9">
     <g id="line2d_16">
      <g>
       <use xlink:href="#mc293774264" x="63.47" y="31.06233" style="stroke: #000000; stroke-width: 0.8"/>
      </g>
     </g>
     <g id="text_17">
      <!-- 20000 -->
      <g transform="translate(24.6575 34.861549) scale(0.1 -0.1)">
       <use xlink:href="#DejaVuSans-32"/>
       <use xlink:href="#DejaVuSans-30" transform="translate(63.623047 0)"/>
       <use xlink:href="#DejaVuSans-30" transform="translate(127.246094 0)"/>
       <use xlink:href="#DejaVuSans-30" transform="translate(190.869141 0)"/>
       <use xlink:href="#DejaVuSans-30" transform="translate(254.492188 0)"/>
      </g>
     </g>
    </g>
    <g id="text_18">
     <!-- CO2 (PPM) -->
     <g transform="translate(18.577813 162.902969) rotate(-90) scale(0.1 -0.1)">
      <defs>
       <path id="DejaVuSans-43" d="M 4122 4306 
L 4122 3641 
Q 3803 3938 3442 4084 
Q 3081 4231 2675 4231 
Q 1875 4231 1450 3742 
Q 1025 3253 1025 2328 
Q 1025 1406 1450 917 
Q 1875 428 2675 428 
Q 3081 428 3442 575 
Q 3803 722 4122 1019 
L 4122 359 
Q 3791 134 3420 21 
Q 3050 -91 2638 -91 
Q 1578 -91 968 557 
Q 359 1206 359 2328 
Q 359 3453 968 4101 
Q 1578 4750 2638 4750 
Q 3056 4750 3426 4639 
Q 3797 4528 4122 4306 
z
" transform="scale(0.015625)"/>
       <path id="DejaVuSans-4f" d="M 2522 4238 
Q 1834 4238 1429 3725 
Q 1025 3213 1025 2328 
Q 1025 1447 1429 934 
Q 1834 422 2522 422 
Q 3209 422 3611 934 
Q 4013 1447 4013 2328 
Q 4013 3213 3611 3725 
Q 3209 4238 2522 4238 
z
M 2522 4750 
Q 3503 4750 4090 4092 
Q 4678 3434 4678 2328 
Q 4678 1225 4090 567 
Q 3503 -91 2522 -91 
Q 1538 -91 948 565 
Q 359 1222 359 2328 
Q 359 3434 948 4092 
Q 1538 4750 2522 4750 
z
" transform="scale(0.015625)"/>
       <path id="DejaVuSans-28" d="M 1984 4856 
Q 1566 4138 1362 3434 
Q 1159 2731 1159 2009 
Q 1159 1288 1364 580 
Q 1569 -128 1984 -844 
L 1484 -844 
Q 1016 -109 783 600 
Q 550 1309 550 2009 
Q 550 2706 781 3412 
Q 1013 4119 1484 4856 
L 1984 4856 
z
" transform="scale(0.015625)"/>
       <path id="DejaVuSans-50" d="M 1259 4147 
L 1259 2394 
L 2053 2394 
Q 2494 2394 2734 2622 
Q 2975 2850 2975 3272 
Q 2975 3691 2734 3919 
Q 2494 4147 2053 4147 
L 1259 4147 
z
M 628 4666 
L 2053 4666 
Q 2838 4666 3239 4311 
Q 3641 3956 3641 3272 
Q 3641 2581 3239 2228 
Q 2838 1875 2053 1875 
L 1259 1875 
L 1259 0 
L 628 0 
L 628 4666 
z
" transform="scale(0.015625)"/>
       <path id="DejaVuSans-4d" d="M 628 4666 
L 1569 4666 
L 2759 1491 
L 3956 4666 
L 4897 4666 
L 4897 0 
L 4281 0 
L 4281 4097 
L 3078 897 
L 2444 897 
L 1241 4097 
L 1241 0 
L 628 0 
L 628 4666 
z
" transform="scale(0.015625)"/>
       <path id="DejaVuSans-29" d="M 513 4856 
L 1013 4856 
Q 1481 4119 1714 3412 
Q 1947 2706 1947 2009 
Q 1947 1309 1714 600 
Q 1481 -109 1013 -844 
L 513 -844 
Q 928 -128 1133 580 
Q 1338 1288 1338 2009 
Q 1338 2731 1133 3434 
Q 928 4138 513 4856 
z
" transform="scale(0.015625)"/>
      </defs>
      <use xlink:href="#DejaVuSans-43"/>
      <use xlink:href="#DejaVuSans-4f" transform="translate(69.824219 0)"/>
      <use xlink:href="#DejaVuSans-32" transform="translate(148.535156 0)"/>
      <use xlink:href="#DejaVuSans-20" transform="translate(212.158203 0)"/>
      <use xlink:href="#DejaVuSans-28" transform="translate(243.945312 0)"/>
      <use xlink:href="#DejaVuSans-50" transform="translate(282.958984 0)"/>
      <use xlink:href="#DejaVuSans-50" transform="translate(343.261719 0)"/>
      <use xlink:href="#DejaVuSans-4d" transform="translate(403.564453 0)"/>
      <use xlink:href="#DejaVuSans-29" transform="translate(489.84375 0)"/>
     </g>
    </g>
   </g>
   <g id="line2d_17">
    <path d="M 92.821364 201.264655 
L 96.422758 192.142045 
L 100.024152 179.864888 
L 103.625547 188.666928 
L 107.226941 191.7635 
L 110.828335 188.752186 
L 114.42973 187.180028 
L 118.031124 183.682743 
L 121.632518 194.392858 
L 125.233912 196.493616 
L 128.835307 196.844879 
L 132.436701 204.357817 
L 136.038095 197.939592 
L 139.63949 207.751087 
L 143.240884 153.728184 
L 146.842278 177.453791 
L 150.443673 157.469307 
L 154.045067 181.150579 
L 157.646461 183.196772 
L 161.247856 189.478584 
L 164.84925 192.240945 
L 168.450644 190.583528 
L 172.052038 185.624921 
L 175.653433 182.347602 
L 179.254827 187.292568 
L 182.856221 182.835278 
L 186.457616 165.848467 
L 190.05901 150.894207 
L 193.660404 150.61115 
L 197.261799 144.939786 
L 200.863193 167.512704 
L 204.464587 138.675025 
L 208.065982 139.970947 
L 211.667376 127.144728 
L 215.26877 128.774862 
L 218.870165 130.715335 
L 222.471559 119.123652 
L 226.072953 112.487166 
L 229.674347 122.107683 
L 233.275742 141.416923 
L 236.877136 123.679841 
L 240.47853 123.441119 
L 244.079925 124.822299 
L 247.681319 127.509632 
L 251.282713 123.580942 
L 254.884108 138.146425 
L 258.485502 130.319737 
L 262.086896 151.24888 
L 265.688291 141.154329 
L 269.289685 135.571632 
L 272.891079 156.75996 
L 276.492474 163.873891 
L 280.093868 166.001931 
L 283.695262 181.512073 
L 287.296656 186.105776 
L 290.898051 183.142207 
L 294.499445 183.626473 
L 298.100839 195.518264 
L 301.702234 195.037408 
L 305.303628 197.216604 
L 308.905022 193.915413 
L 312.506417 179.745527 
L 316.107811 189.720717 
L 319.709205 188.417974 
L 323.3106 193.710793 
L 326.911994 201.53066 
L 330.513388 194.150725 
L 334.114782 200.671259 
L 337.716177 203.914475 
L 341.317571 198.246521 
L 344.918965 196.387896 
L 348.52036 192.312561 
L 352.121754 201.670484 
L 355.723148 193.519815 
L 359.324543 176.205613 
L 362.925937 165.77344 
L 366.527331 135.459092 
L 370.128726 128.44406 
L 373.73012 138.770514 
L 377.331514 126.322841 
L 380.932909 120.003515 
L 384.534303 132.161311 
L 388.135697 118.086914 
L 391.737091 112.436011 
L 395.338486 108.490269 
L 398.93988 107.300067 
L 402.541274 124.883685 
L 406.142669 120.453677 
L 409.744063 89.218543 
L 413.345457 79.018271 
L 416.946852 87.803259 
L 420.548246 112.521269 
L 424.14964 122.158838 
L 427.751035 111.733485 
L 431.352429 125.555518 
L 438.555218 142.01373 
L 442.156612 147.729429 
L 445.758006 133.665263 
L 449.3594 156.243296 
L 452.960795 166.458914 
L 456.562189 168.160665 
L 460.163583 173.961622 
L 463.764978 180.673134 
L 467.366372 184.141431 
L 470.967766 198.089646 
L 474.569161 179.745527 
L 478.170555 193.830155 
L 481.771949 183.060359 
L 485.373344 171.492549 
L 488.974738 173.965032 
L 492.576132 195.859296 
L 496.177526 192.7218 
L 499.778921 197.729857 
L 503.380315 194.276907 
L 506.981709 193.850616 
L 510.583104 193.854027 
L 514.184498 201.111191 
L 521.387287 199.249155 
L 524.988681 201.861462 
L 528.590075 196.565232 
L 532.19147 198.928585 
L 535.792864 193.154911 
L 539.394258 176.829702 
L 542.995653 129.890037 
L 546.597047 130.046912 
L 550.198441 148.70137 
L 553.799835 152.73237 
L 557.40123 157.462486 
L 561.002624 162.554096 
L 564.604018 152.186719 
L 568.205413 158.516275 
L 571.806807 155.150288 
L 575.408201 136.158208 
L 582.61099 144.250901 
L 586.212384 136.986916 
L 589.813779 166.155396 
L 593.415173 164.985655 
L 597.016567 163.631758 
L 600.617962 146.675639 
L 604.219356 158.601533 
L 607.82075 169.995418 
L 611.422144 165.197095 
L 615.023539 171.693758 
L 618.624933 171.134465 
L 622.226327 170.23755 
L 625.827722 174.16283 
L 629.429116 173.620589 
L 633.03051 178.39845 
L 636.631905 183.906119 
L 640.233299 174.091214 
L 640.233299 174.091214 
" clip-path="url(#p3074b20dff)" style="fill: none; stroke: #1f77b4; stroke-width: 2; stroke-linecap: square"/>
   </g>
   <g id="line2d_18">
    <path d="M 92.821364 170.292603 
L 96.422758 166.641366 
L 100.024152 164.062433 
L 103.625547 171.551742 
L 107.226941 169.163056 
L 110.828335 174.008798 
L 114.42973 174.324577 
L 118.031124 172.538299 
L 121.632518 170.212947 
L 125.233912 178.295897 
L 128.835307 171.236287 
L 132.436701 171.923711 
L 136.038095 169.917102 
L 139.63949 175.820978 
L 143.240884 166.1286 
L 146.842278 171.803862 
L 150.443673 165.184428 
L 154.045067 172.263038 
L 157.646461 174.75915 
L 161.247856 178.88101 
L 164.84925 177.54928 
L 168.450644 176.985602 
L 172.052038 176.872087 
L 175.653433 177.230658 
L 179.254827 178.770175 
L 182.856221 169.672411 
L 186.457616 166.643559 
L 190.05901 155.737351 
L 193.660404 152.354799 
L 197.261799 155.540526 
L 200.863193 160.57952 
L 204.464587 149.291356 
L 208.065982 152.379402 
L 211.667376 148.502354 
L 215.26877 144.9164 
L 218.870165 144.811411 
L 222.471559 147.976068 
L 226.072953 138.301351 
L 229.674347 140.496624 
L 233.275742 139.858407 
L 236.877136 132.599537 
L 240.47853 136.763053 
L 244.079925 142.91917 
L 247.681319 140.460572 
L 251.282713 146.740679 
L 254.884108 140.193836 
L 258.485502 142.988351 
L 262.086896 148.154501 
L 265.688291 148.936439 
L 269.289685 162.201696 
L 276.492474 159.673349 
L 280.093868 153.301407 
L 283.695262 161.342945 
L 287.296656 168.03838 
L 290.898051 167.042566 
L 294.499445 163.838813 
L 298.100839 162.852743 
L 301.702234 155.290355 
L 305.303628 169.074062 
L 308.905022 164.200551 
L 312.506417 161.694939 
L 316.107811 169.897655 
L 319.709205 165.280648 
L 326.911994 176.904729 
L 330.513388 173.172619 
L 334.114782 175.851914 
L 337.716177 171.076977 
L 341.317571 170.634122 
L 344.918965 165.77685 
L 348.52036 168.523133 
L 352.121754 172.258897 
L 355.723148 163.213263 
L 359.324543 157.145326 
L 362.925937 153.505539 
L 366.527331 144.895451 
L 370.128726 139.114956 
L 373.73012 139.68107 
L 377.331514 135.216391 
L 380.932909 130.460778 
L 384.534303 126.156303 
L 388.135697 118.046965 
L 391.737091 120.989666 
L 395.338486 126.640488 
L 398.93988 120.229814 
L 402.541274 126.469972 
L 406.142669 118.998444 
L 409.744063 119.100023 
L 413.345457 113.500762 
L 416.946852 114.641759 
L 420.548246 108.162594 
L 424.14964 114.892661 
L 427.751035 128.407521 
L 431.352429 131.311654 
L 434.953823 141.513387 
L 438.555218 132.547895 
L 442.156612 141.629825 
L 449.3594 140.637178 
L 452.960795 157.278329 
L 456.562189 157.626182 
L 460.163583 155.195597 
L 463.764978 159.052548 
L 470.967766 164.184473 
L 474.569161 161.994803 
L 478.170555 174.065636 
L 481.771949 169.623449 
L 485.373344 168.464183 
L 488.974738 170.756914 
L 492.576132 173.429611 
L 496.177526 165.920936 
L 503.380315 177.855072 
L 506.981709 170.44217 
L 510.583104 183.347395 
L 514.184498 180.952212 
L 517.785892 172.873161 
L 521.387287 178.745734 
L 524.988681 178.237596 
L 528.590075 179.88876 
L 532.19147 175.547421 
L 535.792864 174.827559 
L 539.394258 162.789408 
L 542.995653 157.772825 
L 546.597047 151.735874 
L 550.198441 160.108896 
L 553.799835 164.967467 
L 557.40123 161.261868 
L 561.002624 163.21854 
L 564.604018 156.614169 
L 568.205413 164.881641 
L 571.806807 157.404795 
L 575.408201 159.33731 
L 579.009596 142.339415 
L 582.61099 140.571448 
L 586.212384 140.974434 
L 589.813779 154.440373 
L 593.415173 157.019428 
L 597.016567 164.360884 
L 600.617962 159.381076 
L 604.219356 162.879498 
L 607.82075 147.678956 
L 611.422144 148.881265 
L 615.023539 159.959126 
L 618.624933 161.616542 
L 622.226327 162.795945 
L 625.827722 158.293184 
L 629.429116 161.007515 
L 633.03051 157.650054 
L 636.631905 163.602344 
L 640.233299 160.26236 
L 643.834693 168.336296 
L 647.436088 165.135709 
L 651.037482 170.530838 
L 654.638876 153.414434 
L 658.24027 151.170443 
L 661.841665 136.052488 
L 665.443059 131.656583 
L 669.044453 133.689135 
L 672.645848 124.218672 
L 676.247242 113.881988 
L 679.848636 134.671308 
L 679.848636 134.671308 
" clip-path="url(#p3074b20dff)" style="fill: none; stroke-dasharray: 5.55,2.4; stroke-dashoffset: 0; stroke: #808080; stroke-width: 1.5"/>
   </g>
   <g id="patch_3">
    <path d="M 63.47 246.04 
L 63.47 26.88 
" style="fill: none; stroke: #000000; stroke-width: 0.8; stroke-linejoin: miter; stroke-linecap: square"/>
   </g>
   <g id="patch_4">
    <path d="M 709.2 246.04 
L 709.2 26.88 
" style="fill: none; stroke: #000000; stroke-width: 0.8; stroke-linejoin: miter; stroke-linecap: square"/>
   </g>
   <g id="patch_5">
    <path d="M 63.47 246.04 
L 709.2 246.04 
" style="fill: none; stroke: #000000; stroke-width: 0.8; stroke-linejoin: miter; stroke-linecap: square"/>
   </g>
   <g id="patch_6">
    <path d="M 63.47 26.88 
L 709.2 26.88 
" style="fill: none; stroke: #000000; stroke-width: 0.8; stroke-linejoin: miter; stroke-linecap: square"/>
   </g>
   <g id="text_19">
    <!-- CO2 - v001/c00004/d001 -->
    <g transform="translate(310.931875 20.88) scale(0.12 -0.12)">
     <defs>
      <path id="DejaVuSans-76" d="M 191 3500 
L 800 3500 
L 1894 563 
L 2988 3500 
L 3597 3500 
L 2284 0 
L 1503 0 
L 191 3500 
z
" transform="scale(0.015625)"/>
      <path id="DejaVuSans-2f" d="M 1625 4666 
L 2156 4666 
L 531 -594 
L 0 -594 
L 1625 4666 
z
" transform="scale(0.015625)"/>
      <path id="DejaVuSans-63" d="M 3122 3366 
L 3122 2828 
Q 2878 2963 2633 3030 
Q 2388 3097 2138 3097 
Q 1578 3097 1268 2742 
Q 959 2388 959 1747 
Q 959 1106 1268 751 
Q 1578 397 2138 397 
Q 2388 397 2633 464 
Q 2878 531 3122 666 
L 3122 134 
Q 2881 22 2623 -34 
Q 2366 -91 2075 -91 
Q 1284 -91 818 406 
Q 353 903 353 1747 
Q 353 2603 823 3093 
Q 1294 3584 2113 3584 
Q 2378 3584 2631 3529 
Q 2884 3475 3122 3366 
z
" transform="scale(0.015625)"/>
     </defs>
     <use xlink:href="#DejaVuSans-43"/>
     <use xlink:href="#DejaVuSans-4f" transform="translate(69.824219 0)"/>
     <use xlink:href="#DejaVuSans-32" transform="translate(148.535156 0)"/>
     <use xlink:href="#DejaVuSans-20" transform="translate(212.158203 0)"/>
     <use xlink:href="#DejaVuSans-2d" transform="translate(243.945312 0)"/>
     <use xlink:href="#DejaVuSans-20" transform="translate(280.029297 0)"/>
     <use xlink:href="#DejaVuSans-76" transform="translate(311.816406 0)"/>
     <use xlink:href="#DejaVuSans-30" transform="translate(370.996094 0)"/>
     <use xlink:href="#DejaVuSans-30" transform="translate(434.619141 0)"/>
     <use xlink:href="#DejaVuSans-31" transform="translate(498.242188 0)"/>
     <use xlink:href="#DejaVuSans-2f" transform="translate(561.865234 0)"/>
     <use xlink:href="#DejaVuSans-63" transform="translate(595.556641 0)"/>
     <use xlink:href="#DejaVuSans-30" transform="translate(650.537109 0)"/>
     <use xlink:href="#DejaVuSans-30" transform="translate(714.160156 0)"/>
     <use xlink:href="#DejaVuSans-30" transform="translate(777.783203 0)"/>
     <use xlink:href="#DejaVuSans-30" transform="translate(841.40625 0)"/>
     <use xlink:href="#DejaVuSans-34" transform="translate(905.029297 0)"/>
     <use xlink:href="#DejaVuSans-2f" transform="translate(968.652344 0)"/>
     <use xlink:href="#DejaVuSans-64" transform="translate(1002.34375 0)"/>
     <use xlink:href="#DejaVuSans-30" transform="translate(1065.820312 0)"/>
     <use xlink:href="#DejaVuSans-30" transform="translate(1129.443359 0)"/>
     <use xlink:href="#DejaVuSans-31" transform="translate(1193.066406 0)"/>
    </g>
   </g>
   <g id="legend_1">
    <g id="patch_7">
     <path d="M 70.47 78.914375 
L 221.41375 78.914375 
Q 223.41375 78.914375 223.41375 76.914375 
L 223.41375 33.88 
Q 223.41375 31.88 221.41375 31.88 
L 70.47 31.88 
Q 68.47 31.88 68.47 33.88 
L 68.47 76.914375 
Q 68.47 78.914375 70.47 78.914375 
z
" style="fill: #ffffff; opacity: 0.8; stroke: #cccccc; stroke-linejoin: miter"/>
    </g>
    <g id="line2d_19">
     <path d="M 72.47 39.978438 
L 82.47 39.978438 
L 92.47 39.978438 
" style="fill: none; stroke: #1f77b4; stroke-width: 2; stroke-linecap: square"/>
    </g>
    <g id="text_20">
     <!-- Hive -->
     <g transform="translate(100.47 43.478438) scale(0.1 -0.1)">
      <defs>
       <path id="DejaVuSans-48" d="M 628 4666 
L 1259 4666 
L 1259 2753 
L 3553 2753 
L 3553 4666 
L 4184 4666 
L 4184 0 
L 3553 0 
L 3553 2222 
L 1259 2222 
L 1259 0 
L 628 0 
L 628 4666 
z
" transform="scale(0.015625)"/>
       <path id="DejaVuSans-65" d="M 3597 1894 
L 3597 1613 
L 953 1613 
Q 991 1019 1311 708 
Q 1631 397 2203 397 
Q 2534 397 2845 478 
Q 3156 559 3463 722 
L 3463 178 
Q 3153 47 2828 -22 
Q 2503 -91 2169 -91 
Q 1331 -91 842 396 
Q 353 884 353 1716 
Q 353 2575 817 3079 
Q 1281 3584 2069 3584 
Q 2775 3584 3186 3129 
Q 3597 2675 3597 1894 
z
M 3022 2063 
Q 3016 2534 2758 2815 
Q 2500 3097 2075 3097 
Q 1594 3097 1305 2825 
Q 1016 2553 972 2059 
L 3022 2063 
z
" transform="scale(0.015625)"/>
      </defs>
      <use xlink:href="#DejaVuSans-48"/>
      <use xlink:href="#DejaVuSans-69" transform="translate(75.195312 0)"/>
      <use xlink:href="#DejaVuSans-76" transform="translate(102.978516 0)"/>
      <use xlink:href="#DejaVuSans-65" transform="translate(162.158203 0)"/>
     </g>
    </g>
    <g id="line2d_20">
     <path d="M 72.47 54.656563 
L 82.47 54.656563 
L 92.47 54.656563 
" style="fill: none; stroke-dasharray: 5.55,2.4; stroke-dashoffset: 0; stroke: #808080; stroke-width: 1.5"/>
    </g>
    <g id="text_21">
     <!-- Gemiddelde (alle hives) -->
     <g transform="translate(100.47 58.156563) scale(0.1 -0.1)">
      <defs>
       <path id="DejaVuSans-47" d="M 3809 666 
L 3809 1919 
L 2778 1919 
L 2778 2438 
L 4434 2438 
L 4434 434 
Q 4069 175 3628 42 
Q 3188 -91 2688 -91 
Q 1594 -91 976 548 
Q 359 1188 359 2328 
Q 359 3472 976 4111 
Q 1594 4750 2688 4750 
Q 3144 4750 3555 4637 
Q 3966 4525 4313 4306 
L 4313 3634 
Q 3963 3931 3569 4081 
Q 3175 4231 2741 4231 
Q 1884 4231 1454 3753 
Q 1025 3275 1025 2328 
Q 1025 1384 1454 906 
Q 1884 428 2741 428 
Q 3075 428 3337 486 
Q 3600 544 3809 666 
z
" transform="scale(0.015625)"/>
       <path id="DejaVuSans-6d" d="M 3328 2828 
Q 3544 3216 3844 3400 
Q 4144 3584 4550 3584 
Q 5097 3584 5394 3201 
Q 5691 2819 5691 2113 
L 5691 0 
L 5113 0 
L 5113 2094 
Q 5113 2597 4934 2840 
Q 4756 3084 4391 3084 
Q 3944 3084 3684 2787 
Q 3425 2491 3425 1978 
L 3425 0 
L 2847 0 
L 2847 2094 
Q 2847 2600 2669 2842 
Q 2491 3084 2119 3084 
Q 1678 3084 1418 2786 
Q 1159 2488 1159 1978 
L 1159 0 
L 581 0 
L 581 3500 
L 1159 3500 
L 1159 2956 
Q 1356 3278 1631 3431 
Q 1906 3584 2284 3584 
Q 2666 3584 2933 3390 
Q 3200 3197 3328 2828 
z
" transform="scale(0.015625)"/>
       <path id="DejaVuSans-6c" d="M 603 4863 
L 1178 4863 
L 1178 0 
L 603 0 
L 603 4863 
z
" transform="scale(0.015625)"/>
       <path id="DejaVuSans-61" d="M 2194 1759 
Q 1497 1759 1228 1600 
Q 959 1441 959 1056 
Q 959 750 1161 570 
Q 1363 391 1709 391 
Q 2188 391 2477 730 
Q 2766 1069 2766 1631 
L 2766 1759 
L 2194 1759 
z
M 3341 1997 
L 3341 0 
L 2766 0 
L 2766 531 
Q 2569 213 2275 61 
Q 1981 -91 1556 -91 
Q 1019 -91 701 211 
Q 384 513 384 1019 
Q 384 1609 779 1909 
Q 1175 2209 1959 2209 
L 2766 2209 
L 2766 2266 
Q 2766 2663 2505 2880 
Q 2244 3097 1772 3097 
Q 1472 3097 1187 3025 
Q 903 2953 641 2809 
L 641 3341 
Q 956 3463 1253 3523 
Q 1550 3584 1831 3584 
Q 2591 3584 2966 3190 
Q 3341 2797 3341 1997 
z
" transform="scale(0.015625)"/>
       <path id="DejaVuSans-68" d="M 3513 2113 
L 3513 0 
L 2938 0 
L 2938 2094 
Q 2938 2591 2744 2837 
Q 2550 3084 2163 3084 
Q 1697 3084 1428 2787 
Q 1159 2491 1159 1978 
L 1159 0 
L 581 0 
L 581 4863 
L 1159 4863 
L 1159 2956 
Q 1366 3272 1645 3428 
Q 1925 3584 2291 3584 
Q 2894 3584 3203 3211 
Q 3513 2838 3513 2113 
z
" transform="scale(0.015625)"/>
       <path id="DejaVuSans-73" d="M 2834 3397 
L 2834 2853 
Q 2591 2978 2328 3040 
Q 2066 3103 1784 3103 
Q 1356 3103 1142 2972 
Q 928 2841 928 2578 
Q 928 2378 1081 2264 
Q 1234 2150 1697 2047 
L 1894 2003 
Q 2506 1872 2764 1633 
Q 3022 1394 3022 966 
Q 3022 478 2636 193 
Q 2250 -91 1575 -91 
Q 1294 -91 989 -36 
Q 684 19 347 128 
L 347 722 
Q 666 556 975 473 
Q 1284 391 1588 391 
Q 1994 391 2212 530 
Q 2431 669 2431 922 
Q 2431 1156 2273 1281 
Q 2116 1406 1581 1522 
L 1381 1569 
Q 847 1681 609 1914 
Q 372 2147 372 2553 
Q 372 3047 722 3315 
Q 1072 3584 1716 3584 
Q 2034 3584 2315 3537 
Q 2597 3491 2834 3397 
z
" transform="scale(0.015625)"/>
      </defs>
      <use xlink:href="#DejaVuSans-47"/>
      <use xlink:href="#DejaVuSans-65" transform="translate(77.490234 0)"/>
      <use xlink:href="#DejaVuSans-6d" transform="translate(139.013672 0)"/>
      <use xlink:href="#DejaVuSans-69" transform="translate(236.425781 0)"/>
      <use xlink:href="#DejaVuSans-64" transform="translate(264.208984 0)"/>
      <use xlink:href="#DejaVuSans-64" transform="translate(327.685547 0)"/>
      <use xlink:href="#DejaVuSans-65" transform="translate(391.162109 0)"/>
      <use xlink:href="#DejaVuSans-6c" transform="translate(452.685547 0)"/>
      <use xlink:href="#DejaVuSans-64" transform="translate(480.46875 0)"/>
      <use xlink:href="#DejaVuSans-65" transform="translate(543.945312 0)"/>
      <use xlink:href="#DejaVuSans-20" transform="translate(605.46875 0)"/>
      <use xlink:href="#DejaVuSans-28" transform="translate(637.255859 0)"/>
      <use xlink:href="#DejaVuSans-61" transform="translate(676.269531 0)"/>
      <use xlink:href="#DejaVuSans-6c" transform="translate(737.548828 0)"/>
      <use xlink:href="#DejaVuSans-6c" transform="translate(765.332031 0)"/>
      <use xlink:href="#DejaVuSans-65" transform="translate(793.115234 0)"/>
      <use xlink:href="#DejaVuSans-20" transform="translate(854.638672 0)"/>
      <use xlink:href="#DejaVuSans-68" transform="translate(886.425781 0)"/>
      <use xlink:href="#DejaVuSans-69" transform="translate(949.804688 0)"/>
      <use xlink:href="#DejaVuSans-76" transform="translate(977.587891 0)"/>
      <use xlink:href="#DejaVuSans-65" transform="translate(1036.767578 0)"/>
      <use xlink:href="#DejaVuSans-73" transform="translate(1098.291016 0)"/>
      <use xlink:href="#DejaVuSans-29" transform="translate(1150.390625 0)"/>
     </g>
    </g>
    <g id="patch_8">
     <path d="M 72.47 72.834688 
L 92.47 72.834688 
L 92.47 65.834688 
L 72.47 65.834688 
z
" style="fill: #808080; fill-opacity: 0.2; stroke: #808080; stroke-opacity: 0.2; stroke-linejoin: miter"/>
    </g>
    <g id="text_22">
     <!-- ±2 Std Dev -->
     <g transform="translate(100.47 72.834688) scale(0.1 -0.1)">
      <defs>
       <path id="DejaVuSans-b1" d="M 2944 4013 
L 2944 2803 
L 4684 2803 
L 4684 2272 
L 2944 2272 
L 2944 1063 
L 2419 1063 
L 2419 2272 
L 678 2272 
L 678 2803 
L 2419 2803 
L 2419 4013 
L 2944 4013 
z
M 678 531 
L 4684 531 
L 4684 0 
L 678 0 
L 678 531 
z
" transform="scale(0.015625)"/>
       <path id="DejaVuSans-53" d="M 3425 4513 
L 3425 3897 
Q 3066 4069 2747 4153 
Q 2428 4238 2131 4238 
Q 1616 4238 1336 4038 
Q 1056 3838 1056 3469 
Q 1056 3159 1242 3001 
Q 1428 2844 1947 2747 
L 2328 2669 
Q 3034 2534 3370 2195 
Q 3706 1856 3706 1288 
Q 3706 609 3251 259 
Q 2797 -91 1919 -91 
Q 1588 -91 1214 -16 
Q 841 59 441 206 
L 441 856 
Q 825 641 1194 531 
Q 1563 422 1919 422 
Q 2459 422 2753 634 
Q 3047 847 3047 1241 
Q 3047 1584 2836 1778 
Q 2625 1972 2144 2069 
L 1759 2144 
Q 1053 2284 737 2584 
Q 422 2884 422 3419 
Q 422 4038 858 4394 
Q 1294 4750 2059 4750 
Q 2388 4750 2728 4690 
Q 3069 4631 3425 4513 
z
" transform="scale(0.015625)"/>
       <path id="DejaVuSans-74" d="M 1172 4494 
L 1172 3500 
L 2356 3500 
L 2356 3053 
L 1172 3053 
L 1172 1153 
Q 1172 725 1289 603 
Q 1406 481 1766 481 
L 2356 481 
L 2356 0 
L 1766 0 
Q 1100 0 847 248 
Q 594 497 594 1153 
L 594 3053 
L 172 3053 
L 172 3500 
L 594 3500 
L 594 4494 
L 1172 4494 
z
" transform="scale(0.015625)"/>
       <path id="DejaVuSans-44" d="M 1259 4147 
L 1259 519 
L 2022 519 
Q 2988 519 3436 956 
Q 3884 1394 3884 2338 
Q 3884 3275 3436 3711 
Q 2988 4147 2022 4147 
L 1259 4147 
z
M 628 4666 
L 1925 4666 
Q 3281 4666 3915 4102 
Q 4550 3538 4550 2338 
Q 4550 1131 3912 565 
Q 3275 0 1925 0 
L 628 0 
L 628 4666 
z
" transform="scale(0.015625)"/>
      </defs>
      <use xlink:href="#DejaVuSans-b1"/>
      <use xlink:href="#DejaVuSans-32" transform="translate(83.789062 0)"/>
      <use xlink:href="#DejaVuSans-20" transform="translate(147.412109 0)"/>
      <use xlink:href="#DejaVuSans-53" transform="translate(179.199219 0)"/>
      <use xlink:href="#DejaVuSans-74" transform="translate(242.675781 0)"/>
      <use xlink:href="#DejaVuSans-64" transform="translate(281.884766 0)"/>
      <use xlink:href="#DejaVuSans-20" transform="translate(345.361328 0)"/>
      <use xlink:href="#DejaVuSans-44" transform="translate(377.148438 0)"/>
      <use xlink:href="#DejaVuSans-65" transform="translate(454.150391 0)"/>
      <use xlink:href="#DejaVuSans-76" transform="translate(515.673828 0)"/>
     </g>
    </g>
   </g>
  </g>
 </g>
 <defs>
  <clipPath id="p3074b20dff">
   <rect x="63.47" y="26.88" width="645.73" height="219.16"/>
  </clipPath>
 </defs>
</svg>
