<?xml version="1.0" encoding="utf-8" standalone="no"?>
<!DOCTYPE svg PUBLIC "-//W3C//DTD SVG 1.1//EN"
  "http://www.w3.org/Graphics/SVG/1.1/DTD/svg11.dtd">
<svg xmlns:xlink="http://www.w3.org/1999/xlink" width="720pt" height="288pt" viewBox="0 0 720 288" xmlns="http://www.w3.org/2000/svg" version="1.1">
 <metadata>
  <rdf:RDF xmlns:dc="http://purl.org/dc/elements/1.1/" xmlns:cc="http://creativecommons.org/ns#" xmlns:rdf="http://www.w3.org/1999/02/22-rdf-syntax-ns#">
   <cc:Work>
    <dc:type rdf:resource="http://purl.org/dc/dcmitype/StillImage"/>
    <dc:date>2025-05-26T10:20:55.529598</dc:date>
    <dc:format>image/svg+xml</dc:format>
    <dc:creator>
     <cc:Agent>
      <dc:title>Matplotlib v3.10.3, https://matplotlib.org/</dc:title>
     </cc:Agent>
    </dc:creator>
   </cc:Work>
  </rdf:RDF>
 </metadata>
 <defs>
  <style type="text/css">*{stroke-linejoin: round; stroke-linecap: butt}</style>
 </defs>
 <g id="figure_1">
  <g id="patch_1">
   <path d="M 0 288 
L 720 288 
L 720 0 
L 0 0 
z
" style="fill: #ffffff"/>
  </g>
  <g id="axes_1">
   <g id="patch_2">
    <path d="M 44.57 246.04 
L 709.2 246.04 
L 709.2 26.88 
L 44.57 26.88 
z
" style="fill: #ffffff"/>
   </g>
   <g id="FillBetweenPolyCollection_1">
    <defs>
     <path id="mb0aa8d94f8" d="M 74.780455 -251.158182 
L 74.780455 -55.17214 
L 78.62892 -60.166269 
L 82.477386 -59.971079 
L 86.325851 -63.505887 
L 90.174317 -62.971249 
L 94.022782 -61.712584 
L 97.871248 -63.405625 
L 101.719713 -55.330496 
L 105.568179 -64.794645 
L 109.416644 -66.005309 
L 113.26511 -68.293875 
L 117.113576 -73.338512 
L 120.962041 -79.453632 
L 124.810507 -79.482959 
L 128.658972 -75.459926 
L 132.507438 -75.076957 
L 136.355903 -74.772889 
L 140.204369 -72.643011 
L 144.052834 -73.74433 
L 147.9013 -74.179745 
L 151.749765 -74.64715 
L 155.598231 -76.102555 
L 159.446697 -75.863427 
L 163.295162 -75.005782 
L 167.143628 -69.533584 
L 170.992093 -68.321444 
L 174.840559 -68.428713 
L 178.689024 -71.479641 
L 182.53749 -70.337925 
L 186.385955 -67.737764 
L 190.234421 -62.015594 
L 194.082887 -64.014006 
L 197.931352 -67.368907 
L 201.779818 -60.15127 
L 205.628283 -69.41812 
L 209.476749 -68.50117 
L 213.325214 -70.456074 
L 217.17368 -72.89135 
L 221.022145 -71.030302 
L 224.870611 -68.454349 
L 228.719076 -68.68426 
L 232.567542 -62.92635 
L 236.416008 -61.795847 
L 240.264473 -61.210394 
L 244.112939 -62.504789 
L 247.961404 -51.921818 
L 251.80987 -63.602519 
L 255.658335 -64.808198 
L 259.506801 -65.125524 
L 263.355266 -65.410771 
L 267.203732 -65.643133 
L 271.052197 -65.77812 
L 274.900663 -71.201827 
L 278.749129 -75.312693 
L 282.597594 -104.382578 
L 286.44606 -105.299972 
L 290.294525 -105.781502 
L 294.142991 -104.137928 
L 297.991456 -97.91647 
L 301.839922 -92.113108 
L 305.688387 -87.927306 
L 309.536853 -84.184825 
L 313.385318 -82.285837 
L 317.233784 -79.314092 
L 321.08225 -76.49501 
L 324.930715 -70.294644 
L 328.779181 -83.029109 
L 332.627646 -83.684879 
L 336.476112 -79.677338 
L 340.324577 -79.184904 
L 344.173043 -80.358142 
L 348.021508 -80.329297 
L 351.869974 -83.331727 
L 355.718439 -85.70981 
L 359.566905 -85.348769 
L 363.415371 -85.899153 
L 367.263836 -81.927953 
L 371.112302 -77.768018 
L 374.960767 -82.112017 
L 378.809233 -93.246894 
L 382.657698 -91.138066 
L 386.506164 -93.132966 
L 390.354629 -94.246005 
L 394.203095 -91.321118 
L 398.051561 -89.991864 
L 401.900026 -89.798671 
L 405.748492 -93.958435 
L 409.596957 -94.894426 
L 413.445423 -94.911529 
L 417.293888 -97.795009 
L 421.142354 -99.698306 
L 424.990819 -98.275853 
L 428.839285 -93.053879 
L 432.68775 -104.976519 
L 436.536216 -104.194336 
L 440.384682 -96.747138 
L 444.233147 -96.324511 
L 448.081613 -97.283928 
L 451.930078 -100.26318 
L 455.778544 -101.666636 
L 459.627009 -101.691602 
L 463.475475 -99.70396 
L 467.32394 -101.661386 
L 471.172406 -106.243715 
L 475.020871 -106.046588 
L 478.869337 -109.472143 
L 482.717803 -117.912124 
L 486.566268 -127.601608 
L 490.414734 -129.490548 
L 494.263199 -131.00203 
L 498.111665 -131.121474 
L 501.96013 -129.050128 
L 505.808596 -125.034064 
L 509.657061 -124.726034 
L 513.505527 -122.583415 
L 517.353992 -123.579689 
L 521.202458 -123.431707 
L 525.050924 -123.596653 
L 528.899389 -125.597103 
L 532.747855 -125.188929 
L 536.59632 -120.184703 
L 540.444786 -116.473055 
L 544.293251 -114.957606 
L 548.141717 -116.989296 
L 551.990182 -116.750189 
L 555.838648 -113.528601 
L 559.687113 -116.892826 
L 563.535579 -108.566222 
L 567.384045 -107.478403 
L 571.23251 -111.291139 
L 575.080976 -113.374897 
L 578.929441 -113.538282 
L 582.777907 -111.391542 
L 586.626372 -108.206612 
L 590.474838 -109.395883 
L 594.323303 -105.599387 
L 598.171769 -104.816207 
L 602.020235 -104.808495 
L 605.8687 -103.265981 
L 609.717166 -105.390663 
L 613.565631 -102.910128 
L 617.414097 -107.104851 
L 621.262562 -108.307961 
L 625.111028 -114.549092 
L 628.959493 -117.52886 
L 632.807959 -117.02114 
L 636.656424 -118.056149 
L 640.50489 -120.110477 
L 644.353356 -120.01578 
L 648.201821 -141.689735 
L 652.050287 -125.082052 
L 655.898752 -124.312985 
L 659.747218 -121.825369 
L 663.595683 -120.178986 
L 663.595683 -205.836194 
L 663.595683 -205.836194 
L 659.747218 -206.292894 
L 655.898752 -207.590827 
L 652.050287 -205.980527 
L 648.201821 -201.150109 
L 644.353356 -199.774274 
L 640.50489 -210.741794 
L 636.656424 -211.954888 
L 632.807959 -214.602262 
L 628.959493 -214.935775 
L 625.111028 -216.653693 
L 621.262562 -220.441227 
L 617.414097 -221.994851 
L 613.565631 -219.235379 
L 609.717166 -222.026572 
L 605.8687 -224.081152 
L 602.020235 -224.151002 
L 598.171769 -223.722673 
L 594.323303 -223.430212 
L 590.474838 -221.736799 
L 586.626372 -221.594118 
L 582.777907 -219.671037 
L 578.929441 -218.36553 
L 575.080976 -218.178402 
L 571.23251 -220.402365 
L 567.384045 -217.35905 
L 563.535579 -215.429998 
L 559.687113 -215.712014 
L 555.838648 -216.973156 
L 551.990182 -215.153624 
L 548.141717 -216.176367 
L 544.293251 -215.544151 
L 540.444786 -215.150347 
L 536.59632 -211.859315 
L 532.747855 -208.537555 
L 528.899389 -207.007737 
L 525.050924 -208.026748 
L 521.202458 -209.313339 
L 517.353992 -208.74474 
L 513.505527 -208.198754 
L 509.657061 -207.598396 
L 505.808596 -207.851187 
L 501.96013 -205.377385 
L 498.111665 -204.35758 
L 494.263199 -204.617229 
L 490.414734 -203.324601 
L 486.566268 -202.40943 
L 482.717803 -208.944289 
L 478.869337 -211.916254 
L 475.020871 -213.308829 
L 471.172406 -211.218927 
L 467.32394 -213.207454 
L 463.475475 -217.057655 
L 459.627009 -216.191656 
L 455.778544 -216.076418 
L 451.930078 -218.321106 
L 448.081613 -219.968406 
L 444.233147 -220.85772 
L 440.384682 -220.645401 
L 436.536216 -218.035294 
L 432.68775 -218.514961 
L 428.839285 -215.96839 
L 424.990819 -220.23833 
L 421.142354 -219.026186 
L 417.293888 -220.158352 
L 413.445423 -221.990291 
L 409.596957 -220.675441 
L 405.748492 -221.611432 
L 401.900026 -224.158833 
L 398.051561 -224.456359 
L 394.203095 -224.388954 
L 390.354629 -221.674376 
L 386.506164 -221.66577 
L 382.657698 -230.166207 
L 378.809233 -229.06686 
L 374.960767 -219.675645 
L 371.112302 -219.981725 
L 367.263836 -226.841946 
L 363.415371 -223.431568 
L 359.566905 -223.280924 
L 355.718439 -222.499266 
L 351.869974 -222.774267 
L 348.021508 -223.112791 
L 344.173043 -222.242712 
L 340.324577 -222.855129 
L 336.476112 -222.643106 
L 332.627646 -220.598442 
L 328.779181 -219.711951 
L 324.930715 -218.201534 
L 321.08225 -223.021323 
L 317.233784 -221.464091 
L 313.385318 -220.595429 
L 309.536853 -219.67788 
L 305.688387 -217.968379 
L 301.839922 -215.535146 
L 297.991456 -211.90497 
L 294.142991 -209.889679 
L 290.294525 -208.877029 
L 286.44606 -209.849279 
L 282.597594 -211.187289 
L 278.749129 -219.997474 
L 274.900663 -229.576356 
L 271.052197 -232.546466 
L 267.203732 -234.363919 
L 263.355266 -235.57772 
L 259.506801 -235.091837 
L 255.658335 -235.33906 
L 251.80987 -237.175663 
L 247.961404 -234.05066 
L 244.112939 -236.450722 
L 240.264473 -237.81522 
L 236.416008 -237.860691 
L 232.567542 -236.589982 
L 228.719076 -234.827931 
L 224.870611 -234.426917 
L 221.022145 -232.411786 
L 217.17368 -230.130122 
L 213.325214 -232.635501 
L 209.476749 -231.365677 
L 205.628283 -232.06109 
L 201.779818 -228.933771 
L 197.931352 -238.793169 
L 194.082887 -242.65281 
L 190.234421 -242.968755 
L 186.385955 -231.357953 
L 182.53749 -229.73923 
L 178.689024 -230.700597 
L 174.840559 -231.508237 
L 170.992093 -231.4753 
L 167.143628 -231.104394 
L 163.295162 -227.595072 
L 159.446697 -225.755989 
L 155.598231 -224.395217 
L 151.749765 -225.430005 
L 147.9013 -224.915972 
L 144.052834 -226.96375 
L 140.204369 -227.959915 
L 136.355903 -225.935191 
L 132.507438 -225.420815 
L 128.658972 -225.879079 
L 124.810507 -223.538512 
L 120.962041 -222.235886 
L 117.113576 -224.074738 
L 113.26511 -224.562695 
L 109.416644 -227.762597 
L 105.568179 -228.973261 
L 101.719713 -227.613543 
L 97.871248 -229.871562 
L 94.022782 -230.723369 
L 90.174317 -230.235835 
L 86.325851 -231.103252 
L 82.477386 -234.918471 
L 78.62892 -236.545953 
L 74.780455 -251.158182 
z
" style="stroke: #808080; stroke-opacity: 0.2"/>
    </defs>
    <g clip-path="url(#p9c1d2854b0)">
     <use xlink:href="#mb0aa8d94f8" x="0" y="288" style="fill: #808080; fill-opacity: 0.2; stroke: #808080; stroke-opacity: 0.2"/>
    </g>
   </g>
   <g id="matplotlib.axis_1">
    <g id="xtick_1">
     <g id="line2d_1">
      <defs>
       <path id="m6f8cf0f603" d="M 0 0 
L 0 3.5 
" style="stroke: #000000; stroke-width: 0.8"/>
      </defs>
      <g>
       <use xlink:href="#m6f8cf0f603" x="90.174317" y="246.04" style="stroke: #000000; stroke-width: 0.8"/>
      </g>
     </g>
     <g id="text_1">
      <!-- 05-23 12 -->
      <g transform="translate(67.693848 260.638438) scale(0.1 -0.1)">
       <defs>
        <path id="DejaVuSans-30" d="M 2034 4250 
Q 1547 4250 1301 3770 
Q 1056 3291 1056 2328 
Q 1056 1369 1301 889 
Q 1547 409 2034 409 
Q 2525 409 2770 889 
Q 3016 1369 3016 2328 
Q 3016 3291 2770 3770 
Q 2525 4250 2034 4250 
z
M 2034 4750 
Q 2819 4750 3233 4129 
Q 3647 3509 3647 2328 
Q 3647 1150 3233 529 
Q 2819 -91 2034 -91 
Q 1250 -91 836 529 
Q 422 1150 422 2328 
Q 422 3509 836 4129 
Q 1250 4750 2034 4750 
z
" transform="scale(0.015625)"/>
        <path id="DejaVuSans-35" d="M 691 4666 
L 3169 4666 
L 3169 4134 
L 1269 4134 
L 1269 2991 
Q 1406 3038 1543 3061 
Q 1681 3084 1819 3084 
Q 2600 3084 3056 2656 
Q 3513 2228 3513 1497 
Q 3513 744 3044 326 
Q 2575 -91 1722 -91 
Q 1428 -91 1123 -41 
Q 819 9 494 109 
L 494 744 
Q 775 591 1075 516 
Q 1375 441 1709 441 
Q 2250 441 2565 725 
Q 2881 1009 2881 1497 
Q 2881 1984 2565 2268 
Q 2250 2553 1709 2553 
Q 1456 2553 1204 2497 
Q 953 2441 691 2322 
L 691 4666 
z
" transform="scale(0.015625)"/>
        <path id="DejaVuSans-2d" d="M 313 2009 
L 1997 2009 
L 1997 1497 
L 313 1497 
L 313 2009 
z
" transform="scale(0.015625)"/>
        <path id="DejaVuSans-32" d="M 1228 531 
L 3431 531 
L 3431 0 
L 469 0 
L 469 531 
Q 828 903 1448 1529 
Q 2069 2156 2228 2338 
Q 2531 2678 2651 2914 
Q 2772 3150 2772 3378 
Q 2772 3750 2511 3984 
Q 2250 4219 1831 4219 
Q 1534 4219 1204 4116 
Q 875 4013 500 3803 
L 500 4441 
Q 881 4594 1212 4672 
Q 1544 4750 1819 4750 
Q 2544 4750 2975 4387 
Q 3406 4025 3406 3419 
Q 3406 3131 3298 2873 
Q 3191 2616 2906 2266 
Q 2828 2175 2409 1742 
Q 1991 1309 1228 531 
z
" transform="scale(0.015625)"/>
        <path id="DejaVuSans-33" d="M 2597 2516 
Q 3050 2419 3304 2112 
Q 3559 1806 3559 1356 
Q 3559 666 3084 287 
Q 2609 -91 1734 -91 
Q 1441 -91 1130 -33 
Q 819 25 488 141 
L 488 750 
Q 750 597 1062 519 
Q 1375 441 1716 441 
Q 2309 441 2620 675 
Q 2931 909 2931 1356 
Q 2931 1769 2642 2001 
Q 2353 2234 1838 2234 
L 1294 2234 
L 1294 2753 
L 1863 2753 
Q 2328 2753 2575 2939 
Q 2822 3125 2822 3475 
Q 2822 3834 2567 4026 
Q 2313 4219 1838 4219 
Q 1578 4219 1281 4162 
Q 984 4106 628 3988 
L 628 4550 
Q 988 4650 1302 4700 
Q 1616 4750 1894 4750 
Q 2613 4750 3031 4423 
Q 3450 4097 3450 3541 
Q 3450 3153 3228 2886 
Q 3006 2619 2597 2516 
z
" transform="scale(0.015625)"/>
        <path id="DejaVuSans-20" transform="scale(0.015625)"/>
        <path id="DejaVuSans-31" d="M 794 531 
L 1825 531 
L 1825 4091 
L 703 3866 
L 703 4441 
L 1819 4666 
L 2450 4666 
L 2450 531 
L 3481 531 
L 3481 0 
L 794 0 
L 794 531 
z
" transform="scale(0.015625)"/>
       </defs>
       <use xlink:href="#DejaVuSans-30"/>
       <use xlink:href="#DejaVuSans-35" transform="translate(63.623047 0)"/>
       <use xlink:href="#DejaVuSans-2d" transform="translate(127.246094 0)"/>
       <use xlink:href="#DejaVuSans-32" transform="translate(163.330078 0)"/>
       <use xlink:href="#DejaVuSans-33" transform="translate(226.953125 0)"/>
       <use xlink:href="#DejaVuSans-20" transform="translate(290.576172 0)"/>
       <use xlink:href="#DejaVuSans-31" transform="translate(322.363281 0)"/>
       <use xlink:href="#DejaVuSans-32" transform="translate(385.986328 0)"/>
      </g>
     </g>
    </g>
    <g id="xtick_2">
     <g id="line2d_2">
      <g>
       <use xlink:href="#m6f8cf0f603" x="182.53749" y="246.04" style="stroke: #000000; stroke-width: 0.8"/>
      </g>
     </g>
     <g id="text_2">
      <!-- 05-24 00 -->
      <g transform="translate(160.057021 260.638438) scale(0.1 -0.1)">
       <defs>
        <path id="DejaVuSans-34" d="M 2419 4116 
L 825 1625 
L 2419 1625 
L 2419 4116 
z
M 2253 4666 
L 3047 4666 
L 3047 1625 
L 3713 1625 
L 3713 1100 
L 3047 1100 
L 3047 0 
L 2419 0 
L 2419 1100 
L 313 1100 
L 313 1709 
L 2253 4666 
z
" transform="scale(0.015625)"/>
       </defs>
       <use xlink:href="#DejaVuSans-30"/>
       <use xlink:href="#DejaVuSans-35" transform="translate(63.623047 0)"/>
       <use xlink:href="#DejaVuSans-2d" transform="translate(127.246094 0)"/>
       <use xlink:href="#DejaVuSans-32" transform="translate(163.330078 0)"/>
       <use xlink:href="#DejaVuSans-34" transform="translate(226.953125 0)"/>
       <use xlink:href="#DejaVuSans-20" transform="translate(290.576172 0)"/>
       <use xlink:href="#DejaVuSans-30" transform="translate(322.363281 0)"/>
       <use xlink:href="#DejaVuSans-30" transform="translate(385.986328 0)"/>
      </g>
     </g>
    </g>
    <g id="xtick_3">
     <g id="line2d_3">
      <g>
       <use xlink:href="#m6f8cf0f603" x="274.900663" y="246.04" style="stroke: #000000; stroke-width: 0.8"/>
      </g>
     </g>
     <g id="text_3">
      <!-- 05-24 12 -->
      <g transform="translate(252.420194 260.638438) scale(0.1 -0.1)">
       <use xlink:href="#DejaVuSans-30"/>
       <use xlink:href="#DejaVuSans-35" transform="translate(63.623047 0)"/>
       <use xlink:href="#DejaVuSans-2d" transform="translate(127.246094 0)"/>
       <use xlink:href="#DejaVuSans-32" transform="translate(163.330078 0)"/>
       <use xlink:href="#DejaVuSans-34" transform="translate(226.953125 0)"/>
       <use xlink:href="#DejaVuSans-20" transform="translate(290.576172 0)"/>
       <use xlink:href="#DejaVuSans-31" transform="translate(322.363281 0)"/>
       <use xlink:href="#DejaVuSans-32" transform="translate(385.986328 0)"/>
      </g>
     </g>
    </g>
    <g id="xtick_4">
     <g id="line2d_4">
      <g>
       <use xlink:href="#m6f8cf0f603" x="367.263836" y="246.04" style="stroke: #000000; stroke-width: 0.8"/>
      </g>
     </g>
     <g id="text_4">
      <!-- 05-25 00 -->
      <g transform="translate(344.783367 260.638438) scale(0.1 -0.1)">
       <use xlink:href="#DejaVuSans-30"/>
       <use xlink:href="#DejaVuSans-35" transform="translate(63.623047 0)"/>
       <use xlink:href="#DejaVuSans-2d" transform="translate(127.246094 0)"/>
       <use xlink:href="#DejaVuSans-32" transform="translate(163.330078 0)"/>
       <use xlink:href="#DejaVuSans-35" transform="translate(226.953125 0)"/>
       <use xlink:href="#DejaVuSans-20" transform="translate(290.576172 0)"/>
       <use xlink:href="#DejaVuSans-30" transform="translate(322.363281 0)"/>
       <use xlink:href="#DejaVuSans-30" transform="translate(385.986328 0)"/>
      </g>
     </g>
    </g>
    <g id="xtick_5">
     <g id="line2d_5">
      <g>
       <use xlink:href="#m6f8cf0f603" x="459.627009" y="246.04" style="stroke: #000000; stroke-width: 0.8"/>
      </g>
     </g>
     <g id="text_5">
      <!-- 05-25 12 -->
      <g transform="translate(437.146541 260.638438) scale(0.1 -0.1)">
       <use xlink:href="#DejaVuSans-30"/>
       <use xlink:href="#DejaVuSans-35" transform="translate(63.623047 0)"/>
       <use xlink:href="#DejaVuSans-2d" transform="translate(127.246094 0)"/>
       <use xlink:href="#DejaVuSans-32" transform="translate(163.330078 0)"/>
       <use xlink:href="#DejaVuSans-35" transform="translate(226.953125 0)"/>
       <use xlink:href="#DejaVuSans-20" transform="translate(290.576172 0)"/>
       <use xlink:href="#DejaVuSans-31" transform="translate(322.363281 0)"/>
       <use xlink:href="#DejaVuSans-32" transform="translate(385.986328 0)"/>
      </g>
     </g>
    </g>
    <g id="xtick_6">
     <g id="line2d_6">
      <g>
       <use xlink:href="#m6f8cf0f603" x="551.990182" y="246.04" style="stroke: #000000; stroke-width: 0.8"/>
      </g>
     </g>
     <g id="text_6">
      <!-- 05-26 00 -->
      <g transform="translate(529.509714 260.638438) scale(0.1 -0.1)">
       <defs>
        <path id="DejaVuSans-36" d="M 2113 2584 
Q 1688 2584 1439 2293 
Q 1191 2003 1191 1497 
Q 1191 994 1439 701 
Q 1688 409 2113 409 
Q 2538 409 2786 701 
Q 3034 994 3034 1497 
Q 3034 2003 2786 2293 
Q 2538 2584 2113 2584 
z
M 3366 4563 
L 3366 3988 
Q 3128 4100 2886 4159 
Q 2644 4219 2406 4219 
Q 1781 4219 1451 3797 
Q 1122 3375 1075 2522 
Q 1259 2794 1537 2939 
Q 1816 3084 2150 3084 
Q 2853 3084 3261 2657 
Q 3669 2231 3669 1497 
Q 3669 778 3244 343 
Q 2819 -91 2113 -91 
Q 1303 -91 875 529 
Q 447 1150 447 2328 
Q 447 3434 972 4092 
Q 1497 4750 2381 4750 
Q 2619 4750 2861 4703 
Q 3103 4656 3366 4563 
z
" transform="scale(0.015625)"/>
       </defs>
       <use xlink:href="#DejaVuSans-30"/>
       <use xlink:href="#DejaVuSans-35" transform="translate(63.623047 0)"/>
       <use xlink:href="#DejaVuSans-2d" transform="translate(127.246094 0)"/>
       <use xlink:href="#DejaVuSans-32" transform="translate(163.330078 0)"/>
       <use xlink:href="#DejaVuSans-36" transform="translate(226.953125 0)"/>
       <use xlink:href="#DejaVuSans-20" transform="translate(290.576172 0)"/>
       <use xlink:href="#DejaVuSans-30" transform="translate(322.363281 0)"/>
       <use xlink:href="#DejaVuSans-30" transform="translate(385.986328 0)"/>
      </g>
     </g>
    </g>
    <g id="xtick_7">
     <g id="line2d_7">
      <g>
       <use xlink:href="#m6f8cf0f603" x="644.353356" y="246.04" style="stroke: #000000; stroke-width: 0.8"/>
      </g>
     </g>
     <g id="text_7">
      <!-- 05-26 12 -->
      <g transform="translate(621.872887 260.638438) scale(0.1 -0.1)">
       <use xlink:href="#DejaVuSans-30"/>
       <use xlink:href="#DejaVuSans-35" transform="translate(63.623047 0)"/>
       <use xlink:href="#DejaVuSans-2d" transform="translate(127.246094 0)"/>
       <use xlink:href="#DejaVuSans-32" transform="translate(163.330078 0)"/>
       <use xlink:href="#DejaVuSans-36" transform="translate(226.953125 0)"/>
       <use xlink:href="#DejaVuSans-20" transform="translate(290.576172 0)"/>
       <use xlink:href="#DejaVuSans-31" transform="translate(322.363281 0)"/>
       <use xlink:href="#DejaVuSans-32" transform="translate(385.986328 0)"/>
      </g>
     </g>
    </g>
    <g id="text_8">
     <!-- Tijd -->
     <g transform="translate(368.035 274.316562) scale(0.1 -0.1)">
      <defs>
       <path id="DejaVuSans-54" d="M -19 4666 
L 3928 4666 
L 3928 4134 
L 2272 4134 
L 2272 0 
L 1638 0 
L 1638 4134 
L -19 4134 
L -19 4666 
z
" transform="scale(0.015625)"/>
       <path id="DejaVuSans-69" d="M 603 3500 
L 1178 3500 
L 1178 0 
L 603 0 
L 603 3500 
z
M 603 4863 
L 1178 4863 
L 1178 4134 
L 603 4134 
L 603 4863 
z
" transform="scale(0.015625)"/>
       <path id="DejaVuSans-6a" d="M 603 3500 
L 1178 3500 
L 1178 -63 
Q 1178 -731 923 -1031 
Q 669 -1331 103 -1331 
L -116 -1331 
L -116 -844 
L 38 -844 
Q 366 -844 484 -692 
Q 603 -541 603 -63 
L 603 3500 
z
M 603 4863 
L 1178 4863 
L 1178 4134 
L 603 4134 
L 603 4863 
z
" transform="scale(0.015625)"/>
       <path id="DejaVuSans-64" d="M 2906 2969 
L 2906 4863 
L 3481 4863 
L 3481 0 
L 2906 0 
L 2906 525 
Q 2725 213 2448 61 
Q 2172 -91 1784 -91 
Q 1150 -91 751 415 
Q 353 922 353 1747 
Q 353 2572 751 3078 
Q 1150 3584 1784 3584 
Q 2172 3584 2448 3432 
Q 2725 3281 2906 2969 
z
M 947 1747 
Q 947 1113 1208 752 
Q 1469 391 1925 391 
Q 2381 391 2643 752 
Q 2906 1113 2906 1747 
Q 2906 2381 2643 2742 
Q 2381 3103 1925 3103 
Q 1469 3103 1208 2742 
Q 947 2381 947 1747 
z
" transform="scale(0.015625)"/>
      </defs>
      <use xlink:href="#DejaVuSans-54"/>
      <use xlink:href="#DejaVuSans-69" transform="translate(57.958984 0)"/>
      <use xlink:href="#DejaVuSans-6a" transform="translate(85.742188 0)"/>
      <use xlink:href="#DejaVuSans-64" transform="translate(113.525391 0)"/>
     </g>
    </g>
   </g>
   <g id="matplotlib.axis_2">
    <g id="ytick_1">
     <g id="line2d_8">
      <defs>
       <path id="ma59347717f" d="M 0 0 
L -3.5 0 
" style="stroke: #000000; stroke-width: 0.8"/>
      </defs>
      <g>
       <use xlink:href="#ma59347717f" x="44.57" y="242.344447" style="stroke: #000000; stroke-width: 0.8"/>
      </g>
     </g>
     <g id="text_9">
      <!-- 24 -->
      <g transform="translate(24.845 246.143665) scale(0.1 -0.1)">
       <use xlink:href="#DejaVuSans-32"/>
       <use xlink:href="#DejaVuSans-34" transform="translate(63.623047 0)"/>
      </g>
     </g>
    </g>
    <g id="ytick_2">
     <g id="line2d_9">
      <g>
       <use xlink:href="#ma59347717f" x="44.57" y="217.107449" style="stroke: #000000; stroke-width: 0.8"/>
      </g>
     </g>
     <g id="text_10">
      <!-- 26 -->
      <g transform="translate(24.845 220.906668) scale(0.1 -0.1)">
       <use xlink:href="#DejaVuSans-32"/>
       <use xlink:href="#DejaVuSans-36" transform="translate(63.623047 0)"/>
      </g>
     </g>
    </g>
    <g id="ytick_3">
     <g id="line2d_10">
      <g>
       <use xlink:href="#ma59347717f" x="44.57" y="191.870452" style="stroke: #000000; stroke-width: 0.8"/>
      </g>
     </g>
     <g id="text_11">
      <!-- 28 -->
      <g transform="translate(24.845 195.669671) scale(0.1 -0.1)">
       <defs>
        <path id="DejaVuSans-38" d="M 2034 2216 
Q 1584 2216 1326 1975 
Q 1069 1734 1069 1313 
Q 1069 891 1326 650 
Q 1584 409 2034 409 
Q 2484 409 2743 651 
Q 3003 894 3003 1313 
Q 3003 1734 2745 1975 
Q 2488 2216 2034 2216 
z
M 1403 2484 
Q 997 2584 770 2862 
Q 544 3141 544 3541 
Q 544 4100 942 4425 
Q 1341 4750 2034 4750 
Q 2731 4750 3128 4425 
Q 3525 4100 3525 3541 
Q 3525 3141 3298 2862 
Q 3072 2584 2669 2484 
Q 3125 2378 3379 2068 
Q 3634 1759 3634 1313 
Q 3634 634 3220 271 
Q 2806 -91 2034 -91 
Q 1263 -91 848 271 
Q 434 634 434 1313 
Q 434 1759 690 2068 
Q 947 2378 1403 2484 
z
M 1172 3481 
Q 1172 3119 1398 2916 
Q 1625 2713 2034 2713 
Q 2441 2713 2670 2916 
Q 2900 3119 2900 3481 
Q 2900 3844 2670 4047 
Q 2441 4250 2034 4250 
Q 1625 4250 1398 4047 
Q 1172 3844 1172 3481 
z
" transform="scale(0.015625)"/>
       </defs>
       <use xlink:href="#DejaVuSans-32"/>
       <use xlink:href="#DejaVuSans-38" transform="translate(63.623047 0)"/>
      </g>
     </g>
    </g>
    <g id="ytick_4">
     <g id="line2d_11">
      <g>
       <use xlink:href="#ma59347717f" x="44.57" y="166.633455" style="stroke: #000000; stroke-width: 0.8"/>
      </g>
     </g>
     <g id="text_12">
      <!-- 30 -->
      <g transform="translate(24.845 170.432674) scale(0.1 -0.1)">
       <use xlink:href="#DejaVuSans-33"/>
       <use xlink:href="#DejaVuSans-30" transform="translate(63.623047 0)"/>
      </g>
     </g>
    </g>
    <g id="ytick_5">
     <g id="line2d_12">
      <g>
       <use xlink:href="#ma59347717f" x="44.57" y="141.396458" style="stroke: #000000; stroke-width: 0.8"/>
      </g>
     </g>
     <g id="text_13">
      <!-- 32 -->
      <g transform="translate(24.845 145.195677) scale(0.1 -0.1)">
       <use xlink:href="#DejaVuSans-33"/>
       <use xlink:href="#DejaVuSans-32" transform="translate(63.623047 0)"/>
      </g>
     </g>
    </g>
    <g id="ytick_6">
     <g id="line2d_13">
      <g>
       <use xlink:href="#ma59347717f" x="44.57" y="116.159461" style="stroke: #000000; stroke-width: 0.8"/>
      </g>
     </g>
     <g id="text_14">
      <!-- 34 -->
      <g transform="translate(24.845 119.95868) scale(0.1 -0.1)">
       <use xlink:href="#DejaVuSans-33"/>
       <use xlink:href="#DejaVuSans-34" transform="translate(63.623047 0)"/>
      </g>
     </g>
    </g>
    <g id="ytick_7">
     <g id="line2d_14">
      <g>
       <use xlink:href="#ma59347717f" x="44.57" y="90.922464" style="stroke: #000000; stroke-width: 0.8"/>
      </g>
     </g>
     <g id="text_15">
      <!-- 36 -->
      <g transform="translate(24.845 94.721683) scale(0.1 -0.1)">
       <use xlink:href="#DejaVuSans-33"/>
       <use xlink:href="#DejaVuSans-36" transform="translate(63.623047 0)"/>
      </g>
     </g>
    </g>
    <g id="ytick_8">
     <g id="line2d_15">
      <g>
       <use xlink:href="#ma59347717f" x="44.57" y="65.685467" style="stroke: #000000; stroke-width: 0.8"/>
      </g>
     </g>
     <g id="text_16">
      <!-- 38 -->
      <g transform="translate(24.845 69.484686) scale(0.1 -0.1)">
       <use xlink:href="#DejaVuSans-33"/>
       <use xlink:href="#DejaVuSans-38" transform="translate(63.623047 0)"/>
      </g>
     </g>
    </g>
    <g id="ytick_9">
     <g id="line2d_16">
      <g>
       <use xlink:href="#ma59347717f" x="44.57" y="40.44847" style="stroke: #000000; stroke-width: 0.8"/>
      </g>
     </g>
     <g id="text_17">
      <!-- 40 -->
      <g transform="translate(24.845 44.247688) scale(0.1 -0.1)">
       <use xlink:href="#DejaVuSans-34"/>
       <use xlink:href="#DejaVuSans-30" transform="translate(63.623047 0)"/>
      </g>
     </g>
    </g>
    <g id="text_18">
     <!-- Temperatuur (°C) -->
     <g transform="translate(18.765312 179.81625) rotate(-90) scale(0.1 -0.1)">
      <defs>
       <path id="DejaVuSans-65" d="M 3597 1894 
L 3597 1613 
L 953 1613 
Q 991 1019 1311 708 
Q 1631 397 2203 397 
Q 2534 397 2845 478 
Q 3156 559 3463 722 
L 3463 178 
Q 3153 47 2828 -22 
Q 2503 -91 2169 -91 
Q 1331 -91 842 396 
Q 353 884 353 1716 
Q 353 2575 817 3079 
Q 1281 3584 2069 3584 
Q 2775 3584 3186 3129 
Q 3597 2675 3597 1894 
z
M 3022 2063 
Q 3016 2534 2758 2815 
Q 2500 3097 2075 3097 
Q 1594 3097 1305 2825 
Q 1016 2553 972 2059 
L 3022 2063 
z
" transform="scale(0.015625)"/>
       <path id="DejaVuSans-6d" d="M 3328 2828 
Q 3544 3216 3844 3400 
Q 4144 3584 4550 3584 
Q 5097 3584 5394 3201 
Q 5691 2819 5691 2113 
L 5691 0 
L 5113 0 
L 5113 2094 
Q 5113 2597 4934 2840 
Q 4756 3084 4391 3084 
Q 3944 3084 3684 2787 
Q 3425 2491 3425 1978 
L 3425 0 
L 2847 0 
L 2847 2094 
Q 2847 2600 2669 2842 
Q 2491 3084 2119 3084 
Q 1678 3084 1418 2786 
Q 1159 2488 1159 1978 
L 1159 0 
L 581 0 
L 581 3500 
L 1159 3500 
L 1159 2956 
Q 1356 3278 1631 3431 
Q 1906 3584 2284 3584 
Q 2666 3584 2933 3390 
Q 3200 3197 3328 2828 
z
" transform="scale(0.015625)"/>
       <path id="DejaVuSans-70" d="M 1159 525 
L 1159 -1331 
L 581 -1331 
L 581 3500 
L 1159 3500 
L 1159 2969 
Q 1341 3281 1617 3432 
Q 1894 3584 2278 3584 
Q 2916 3584 3314 3078 
Q 3713 2572 3713 1747 
Q 3713 922 3314 415 
Q 2916 -91 2278 -91 
Q 1894 -91 1617 61 
Q 1341 213 1159 525 
z
M 3116 1747 
Q 3116 2381 2855 2742 
Q 2594 3103 2138 3103 
Q 1681 3103 1420 2742 
Q 1159 2381 1159 1747 
Q 1159 1113 1420 752 
Q 1681 391 2138 391 
Q 2594 391 2855 752 
Q 3116 1113 3116 1747 
z
" transform="scale(0.015625)"/>
       <path id="DejaVuSans-72" d="M 2631 2963 
Q 2534 3019 2420 3045 
Q 2306 3072 2169 3072 
Q 1681 3072 1420 2755 
Q 1159 2438 1159 1844 
L 1159 0 
L 581 0 
L 581 3500 
L 1159 3500 
L 1159 2956 
Q 1341 3275 1631 3429 
Q 1922 3584 2338 3584 
Q 2397 3584 2469 3576 
Q 2541 3569 2628 3553 
L 2631 2963 
z
" transform="scale(0.015625)"/>
       <path id="DejaVuSans-61" d="M 2194 1759 
Q 1497 1759 1228 1600 
Q 959 1441 959 1056 
Q 959 750 1161 570 
Q 1363 391 1709 391 
Q 2188 391 2477 730 
Q 2766 1069 2766 1631 
L 2766 1759 
L 2194 1759 
z
M 3341 1997 
L 3341 0 
L 2766 0 
L 2766 531 
Q 2569 213 2275 61 
Q 1981 -91 1556 -91 
Q 1019 -91 701 211 
Q 384 513 384 1019 
Q 384 1609 779 1909 
Q 1175 2209 1959 2209 
L 2766 2209 
L 2766 2266 
Q 2766 2663 2505 2880 
Q 2244 3097 1772 3097 
Q 1472 3097 1187 3025 
Q 903 2953 641 2809 
L 641 3341 
Q 956 3463 1253 3523 
Q 1550 3584 1831 3584 
Q 2591 3584 2966 3190 
Q 3341 2797 3341 1997 
z
" transform="scale(0.015625)"/>
       <path id="DejaVuSans-74" d="M 1172 4494 
L 1172 3500 
L 2356 3500 
L 2356 3053 
L 1172 3053 
L 1172 1153 
Q 1172 725 1289 603 
Q 1406 481 1766 481 
L 2356 481 
L 2356 0 
L 1766 0 
Q 1100 0 847 248 
Q 594 497 594 1153 
L 594 3053 
L 172 3053 
L 172 3500 
L 594 3500 
L 594 4494 
L 1172 4494 
z
" transform="scale(0.015625)"/>
       <path id="DejaVuSans-75" d="M 544 1381 
L 544 3500 
L 1119 3500 
L 1119 1403 
Q 1119 906 1312 657 
Q 1506 409 1894 409 
Q 2359 409 2629 706 
Q 2900 1003 2900 1516 
L 2900 3500 
L 3475 3500 
L 3475 0 
L 2900 0 
L 2900 538 
Q 2691 219 2414 64 
Q 2138 -91 1772 -91 
Q 1169 -91 856 284 
Q 544 659 544 1381 
z
M 1991 3584 
L 1991 3584 
z
" transform="scale(0.015625)"/>
       <path id="DejaVuSans-28" d="M 1984 4856 
Q 1566 4138 1362 3434 
Q 1159 2731 1159 2009 
Q 1159 1288 1364 580 
Q 1569 -128 1984 -844 
L 1484 -844 
Q 1016 -109 783 600 
Q 550 1309 550 2009 
Q 550 2706 781 3412 
Q 1013 4119 1484 4856 
L 1984 4856 
z
" transform="scale(0.015625)"/>
       <path id="DejaVuSans-b0" d="M 1600 4347 
Q 1350 4347 1178 4173 
Q 1006 4000 1006 3750 
Q 1006 3503 1178 3333 
Q 1350 3163 1600 3163 
Q 1850 3163 2022 3333 
Q 2194 3503 2194 3750 
Q 2194 3997 2020 4172 
Q 1847 4347 1600 4347 
z
M 1600 4750 
Q 1800 4750 1984 4673 
Q 2169 4597 2303 4453 
Q 2447 4313 2519 4134 
Q 2591 3956 2591 3750 
Q 2591 3338 2302 3052 
Q 2013 2766 1594 2766 
Q 1172 2766 890 3047 
Q 609 3328 609 3750 
Q 609 4169 896 4459 
Q 1184 4750 1600 4750 
z
" transform="scale(0.015625)"/>
       <path id="DejaVuSans-43" d="M 4122 4306 
L 4122 3641 
Q 3803 3938 3442 4084 
Q 3081 4231 2675 4231 
Q 1875 4231 1450 3742 
Q 1025 3253 1025 2328 
Q 1025 1406 1450 917 
Q 1875 428 2675 428 
Q 3081 428 3442 575 
Q 3803 722 4122 1019 
L 4122 359 
Q 3791 134 3420 21 
Q 3050 -91 2638 -91 
Q 1578 -91 968 557 
Q 359 1206 359 2328 
Q 359 3453 968 4101 
Q 1578 4750 2638 4750 
Q 3056 4750 3426 4639 
Q 3797 4528 4122 4306 
z
" transform="scale(0.015625)"/>
       <path id="DejaVuSans-29" d="M 513 4856 
L 1013 4856 
Q 1481 4119 1714 3412 
Q 1947 2706 1947 2009 
Q 1947 1309 1714 600 
Q 1481 -109 1013 -844 
L 513 -844 
Q 928 -128 1133 580 
Q 1338 1288 1338 2009 
Q 1338 2731 1133 3434 
Q 928 4138 513 4856 
z
" transform="scale(0.015625)"/>
      </defs>
      <use xlink:href="#DejaVuSans-54"/>
      <use xlink:href="#DejaVuSans-65" transform="translate(44.083984 0)"/>
      <use xlink:href="#DejaVuSans-6d" transform="translate(105.607422 0)"/>
      <use xlink:href="#DejaVuSans-70" transform="translate(203.019531 0)"/>
      <use xlink:href="#DejaVuSans-65" transform="translate(266.496094 0)"/>
      <use xlink:href="#DejaVuSans-72" transform="translate(328.019531 0)"/>
      <use xlink:href="#DejaVuSans-61" transform="translate(369.132812 0)"/>
      <use xlink:href="#DejaVuSans-74" transform="translate(430.412109 0)"/>
      <use xlink:href="#DejaVuSans-75" transform="translate(469.621094 0)"/>
      <use xlink:href="#DejaVuSans-75" transform="translate(533 0)"/>
      <use xlink:href="#DejaVuSans-72" transform="translate(596.378906 0)"/>
      <use xlink:href="#DejaVuSans-20" transform="translate(637.492188 0)"/>
      <use xlink:href="#DejaVuSans-28" transform="translate(669.279297 0)"/>
      <use xlink:href="#DejaVuSans-b0" transform="translate(708.292969 0)"/>
      <use xlink:href="#DejaVuSans-43" transform="translate(758.292969 0)"/>
      <use xlink:href="#DejaVuSans-29" transform="translate(828.117188 0)"/>
     </g>
    </g>
   </g>
   <g id="line2d_17">
    <path d="M 74.780455 218.369299 
L 78.62892 212.480667 
L 82.477386 209.53635 
L 86.325851 205.750801 
L 90.174317 206.592034 
L 94.022782 208.274501 
L 97.871248 207.433267 
L 101.719713 205.750801 
L 105.568179 206.171417 
L 109.416644 204.909568 
L 113.26511 202.596176 
L 117.113576 199.441552 
L 120.962041 193.552919 
L 124.810507 193.132302 
L 128.658972 197.338468 
L 136.355903 196.497235 
L 140.204369 197.864239 
L 144.052834 196.286927 
L 147.9013 195.656002 
L 151.749765 195.235385 
L 155.598231 192.711686 
L 159.446697 190.608603 
L 163.295162 192.291069 
L 167.143628 199.020935 
L 170.992093 200.703401 
L 174.840559 201.965251 
L 178.689024 199.020935 
L 182.53749 200.282785 
L 186.385955 201.965251 
L 190.234421 201.544635 
L 194.082887 202.385868 
L 197.931352 199.862168 
L 201.779818 204.909568 
L 205.628283 205.750801 
L 209.476749 206.171417 
L 213.325214 204.909568 
L 217.17368 201.544635 
L 221.022145 201.965251 
L 224.870611 204.068334 
L 228.719076 206.592034 
L 232.567542 212.06005 
L 236.416008 213.952825 
L 240.264473 214.58375 
L 244.112939 212.901283 
L 247.961404 214.163133 
L 251.80987 212.480667 
L 255.658335 212.06005 
L 259.506801 210.7982 
L 263.355266 211.218817 
L 267.203732 210.377584 
L 271.052197 208.695117 
L 274.900663 203.647718 
L 278.749129 191.029219 
L 282.597594 163.689139 
L 286.44606 159.903589 
L 290.294525 159.482973 
L 294.142991 161.586056 
L 297.991456 165.792222 
L 301.839922 174.204554 
L 305.688387 177.569487 
L 309.536853 181.775654 
L 313.385318 183.037503 
L 317.233784 185.561203 
L 321.08225 186.823053 
L 324.930715 185.140586 
L 328.779181 180.093187 
L 332.627646 180.513804 
L 336.476112 185.140586 
L 340.324577 185.140586 
L 344.173043 184.299353 
L 348.021508 185.561203 
L 351.869974 183.037503 
L 355.718439 180.93442 
L 359.566905 183.878737 
L 363.415371 183.037503 
L 367.263836 186.402436 
L 371.112302 184.299353 
L 374.960767 179.67257 
L 378.809233 177.148871 
L 382.657698 178.831337 
L 386.506164 176.728254 
L 390.354629 175.466404 
L 394.203095 179.251954 
L 398.051561 179.67257 
L 401.900026 178.831337 
L 405.748492 175.887021 
L 409.596957 172.522088 
L 413.445423 173.363321 
L 417.293888 169.577772 
L 421.142354 168.736538 
L 424.990819 170.419005 
L 428.839285 169.577772 
L 432.68775 164.109756 
L 436.536216 166.633455 
L 440.384682 174.204554 
L 444.233147 176.307637 
L 448.081613 174.625171 
L 451.930078 169.157155 
L 455.778544 166.633455 
L 459.627009 169.157155 
L 463.475475 170.839621 
L 467.32394 168.315922 
L 471.172406 166.212839 
L 475.020871 164.950989 
L 478.869337 161.586056 
L 482.717803 153.173723 
L 486.566268 138.031525 
L 490.414734 135.507826 
L 498.111665 132.984126 
L 501.96013 139.293375 
L 505.808596 143.499541 
L 509.657061 145.602624 
L 513.505527 147.285091 
L 517.353992 147.285091 
L 521.202458 146.023241 
L 525.050924 142.237691 
L 528.899389 139.713992 
L 532.747855 141.817075 
L 540.444786 155.276807 
L 544.293251 156.959273 
L 548.141717 154.85619 
L 551.990182 156.11804 
L 555.838648 159.903589 
L 559.687113 156.959273 
L 563.535579 161.586056 
L 567.384045 164.109756 
L 571.23251 166.212839 
L 575.080976 163.689139 
L 578.929441 161.586056 
L 582.777907 164.950989 
L 586.626372 168.736538 
L 590.474838 168.315922 
L 594.323303 171.260238 
L 602.020235 172.101471 
L 605.8687 173.573629 
L 609.717166 171.260238 
L 613.565631 166.212839 
L 617.414097 169.577772 
L 621.262562 167.474689 
L 625.111028 159.903589 
L 628.959493 154.85619 
L 632.807959 154.435573 
L 636.656424 152.122182 
L 640.50489 148.967557 
L 644.353356 147.705707 
L 644.353356 147.705707 
" clip-path="url(#p9c1d2854b0)" style="fill: none; stroke: #1f77b4; stroke-width: 2; stroke-linecap: square"/>
   </g>
   <g id="line2d_18">
    <path d="M 74.780455 134.834839 
L 78.62892 139.643889 
L 82.477386 140.555225 
L 86.325851 140.69543 
L 90.174317 141.396458 
L 94.022782 141.782023 
L 97.871248 141.361407 
L 101.719713 146.527981 
L 105.568179 141.116047 
L 109.416644 141.116047 
L 113.26511 141.571715 
L 117.113576 139.293375 
L 120.962041 137.155241 
L 124.810507 136.489264 
L 128.658972 137.330498 
L 132.507438 137.751114 
L 136.355903 137.64596 
L 144.052834 137.64596 
L 147.9013 138.452142 
L 151.749765 137.961422 
L 155.598231 137.751114 
L 163.295162 136.699573 
L 167.143628 137.681011 
L 170.992093 138.101628 
L 174.840559 138.031525 
L 178.689024 136.909881 
L 182.53749 137.961422 
L 186.385955 138.452142 
L 190.234421 135.507826 
L 194.082887 134.666592 
L 197.931352 134.918962 
L 201.779818 143.45748 
L 205.628283 137.260395 
L 209.476749 138.066577 
L 213.325214 136.454213 
L 217.17368 136.489264 
L 221.022145 136.278956 
L 224.870611 136.559367 
L 228.719076 136.243905 
L 232.567542 138.241834 
L 236.416008 138.171731 
L 240.264473 138.487193 
L 244.112939 138.522245 
L 247.961404 145.013761 
L 251.80987 137.610909 
L 255.658335 137.926371 
L 259.506801 137.89132 
L 263.355266 137.505754 
L 267.203732 137.996474 
L 271.052197 138.837707 
L 274.900663 137.610909 
L 278.749129 140.344917 
L 282.597594 130.215066 
L 290.294525 130.670734 
L 294.142991 130.986197 
L 297.991456 133.08928 
L 301.839922 134.175873 
L 305.688387 135.052157 
L 309.536853 136.068648 
L 313.385318 136.559367 
L 317.233784 137.610909 
L 321.08225 138.241834 
L 324.930715 143.751911 
L 328.779181 136.62947 
L 332.627646 135.858339 
L 336.476112 136.839778 
L 340.324577 136.979984 
L 344.173043 136.699573 
L 348.021508 136.278956 
L 351.869974 134.947003 
L 355.718439 133.895462 
L 359.566905 133.685153 
L 363.415371 133.33464 
L 367.263836 133.615051 
L 371.112302 139.125128 
L 374.960767 137.106169 
L 378.809233 126.843123 
L 382.657698 127.347863 
L 386.506164 130.600632 
L 390.354629 130.039809 
L 394.203095 130.144964 
L 398.051561 130.775889 
L 401.900026 131.021248 
L 405.748492 130.215066 
L 409.596957 130.215066 
L 413.445423 129.54909 
L 417.293888 129.023319 
L 421.142354 128.637754 
L 424.990819 128.742908 
L 428.839285 133.488866 
L 432.68775 126.25426 
L 436.536216 126.885185 
L 440.384682 129.30373 
L 444.233147 129.408885 
L 448.081613 129.373833 
L 451.930078 128.707857 
L 455.778544 129.128473 
L 459.627009 129.058371 
L 463.475475 129.619193 
L 467.32394 130.56558 
L 471.172406 129.268679 
L 478.869337 127.305801 
L 482.717803 124.571793 
L 486.566268 122.994481 
L 494.263199 120.19037 
L 498.111665 120.260473 
L 501.96013 120.786244 
L 505.808596 121.557374 
L 509.657061 121.837785 
L 513.505527 122.608916 
L 517.353992 121.837785 
L 521.202458 121.627477 
L 525.050924 122.188299 
L 532.747855 121.136758 
L 536.59632 121.977991 
L 540.444786 122.188299 
L 544.293251 122.749121 
L 548.141717 121.417169 
L 555.838648 122.749121 
L 559.687113 121.69758 
L 563.535579 126.00189 
L 567.384045 125.581273 
L 571.23251 122.153248 
L 575.080976 122.223351 
L 578.929441 122.048094 
L 582.777907 122.46871 
L 586.626372 123.099635 
L 590.474838 122.433659 
L 594.323303 123.4852 
L 598.171769 123.73056 
L 602.020235 123.520252 
L 605.8687 124.326434 
L 609.717166 124.291382 
L 613.565631 126.927246 
L 617.414097 123.450149 
L 621.262562 123.625406 
L 625.111028 122.398608 
L 628.959493 121.767683 
L 632.807959 122.188299 
L 636.656424 122.994481 
L 640.50489 122.573864 
L 644.353356 128.104973 
L 648.201821 116.580078 
L 652.050287 122.46871 
L 655.898752 122.048094 
L 659.747218 123.940868 
L 663.595683 124.99241 
L 667.444149 107.326512 
L 671.292614 107.326512 
L 675.14108 107.747129 
L 678.989545 107.326512 
L 678.989545 107.326512 
" clip-path="url(#p9c1d2854b0)" style="fill: none; stroke-dasharray: 5.55,2.4; stroke-dashoffset: 0; stroke: #808080; stroke-width: 1.5"/>
   </g>
   <g id="patch_3">
    <path d="M 44.57 246.04 
L 44.57 26.88 
" style="fill: none; stroke: #000000; stroke-width: 0.8; stroke-linejoin: miter; stroke-linecap: square"/>
   </g>
   <g id="patch_4">
    <path d="M 709.2 246.04 
L 709.2 26.88 
" style="fill: none; stroke: #000000; stroke-width: 0.8; stroke-linejoin: miter; stroke-linecap: square"/>
   </g>
   <g id="patch_5">
    <path d="M 44.57 246.04 
L 709.2 246.04 
" style="fill: none; stroke: #000000; stroke-width: 0.8; stroke-linejoin: miter; stroke-linecap: square"/>
   </g>
   <g id="patch_6">
    <path d="M 44.57 26.88 
L 709.2 26.88 
" style="fill: none; stroke: #000000; stroke-width: 0.8; stroke-linejoin: miter; stroke-linecap: square"/>
   </g>
   <g id="text_19">
    <!-- Temperatuur - v001/c00004/d001 -->
    <g transform="translate(275.963125 20.88) scale(0.12 -0.12)">
     <defs>
      <path id="DejaVuSans-76" d="M 191 3500 
L 800 3500 
L 1894 563 
L 2988 3500 
L 3597 3500 
L 2284 0 
L 1503 0 
L 191 3500 
z
" transform="scale(0.015625)"/>
      <path id="DejaVuSans-2f" d="M 1625 4666 
L 2156 4666 
L 531 -594 
L 0 -594 
L 1625 4666 
z
" transform="scale(0.015625)"/>
      <path id="DejaVuSans-63" d="M 3122 3366 
L 3122 2828 
Q 2878 2963 2633 3030 
Q 2388 3097 2138 3097 
Q 1578 3097 1268 2742 
Q 959 2388 959 1747 
Q 959 1106 1268 751 
Q 1578 397 2138 397 
Q 2388 397 2633 464 
Q 2878 531 3122 666 
L 3122 134 
Q 2881 22 2623 -34 
Q 2366 -91 2075 -91 
Q 1284 -91 818 406 
Q 353 903 353 1747 
Q 353 2603 823 3093 
Q 1294 3584 2113 3584 
Q 2378 3584 2631 3529 
Q 2884 3475 3122 3366 
z
" transform="scale(0.015625)"/>
     </defs>
     <use xlink:href="#DejaVuSans-54"/>
     <use xlink:href="#DejaVuSans-65" transform="translate(44.083984 0)"/>
     <use xlink:href="#DejaVuSans-6d" transform="translate(105.607422 0)"/>
     <use xlink:href="#DejaVuSans-70" transform="translate(203.019531 0)"/>
     <use xlink:href="#DejaVuSans-65" transform="translate(266.496094 0)"/>
     <use xlink:href="#DejaVuSans-72" transform="translate(328.019531 0)"/>
     <use xlink:href="#DejaVuSans-61" transform="translate(369.132812 0)"/>
     <use xlink:href="#DejaVuSans-74" transform="translate(430.412109 0)"/>
     <use xlink:href="#DejaVuSans-75" transform="translate(469.621094 0)"/>
     <use xlink:href="#DejaVuSans-75" transform="translate(533 0)"/>
     <use xlink:href="#DejaVuSans-72" transform="translate(596.378906 0)"/>
     <use xlink:href="#DejaVuSans-20" transform="translate(637.492188 0)"/>
     <use xlink:href="#DejaVuSans-2d" transform="translate(669.279297 0)"/>
     <use xlink:href="#DejaVuSans-20" transform="translate(705.363281 0)"/>
     <use xlink:href="#DejaVuSans-76" transform="translate(737.150391 0)"/>
     <use xlink:href="#DejaVuSans-30" transform="translate(796.330078 0)"/>
     <use xlink:href="#DejaVuSans-30" transform="translate(859.953125 0)"/>
     <use xlink:href="#DejaVuSans-31" transform="translate(923.576172 0)"/>
     <use xlink:href="#DejaVuSans-2f" transform="translate(987.199219 0)"/>
     <use xlink:href="#DejaVuSans-63" transform="translate(1020.890625 0)"/>
     <use xlink:href="#DejaVuSans-30" transform="translate(1075.871094 0)"/>
     <use xlink:href="#DejaVuSans-30" transform="translate(1139.494141 0)"/>
     <use xlink:href="#DejaVuSans-30" transform="translate(1203.117188 0)"/>
     <use xlink:href="#DejaVuSans-30" transform="translate(1266.740234 0)"/>
     <use xlink:href="#DejaVuSans-34" transform="translate(1330.363281 0)"/>
     <use xlink:href="#DejaVuSans-2f" transform="translate(1393.986328 0)"/>
     <use xlink:href="#DejaVuSans-64" transform="translate(1427.677734 0)"/>
     <use xlink:href="#DejaVuSans-30" transform="translate(1491.154297 0)"/>
     <use xlink:href="#DejaVuSans-30" transform="translate(1554.777344 0)"/>
     <use xlink:href="#DejaVuSans-31" transform="translate(1618.400391 0)"/>
    </g>
   </g>
   <g id="legend_1">
    <g id="patch_7">
     <path d="M 551.25625 241.04 
L 702.2 241.04 
Q 704.2 241.04 704.2 239.04 
L 704.2 196.005625 
Q 704.2 194.005625 702.2 194.005625 
L 551.25625 194.005625 
Q 549.25625 194.005625 549.25625 196.005625 
L 549.25625 239.04 
Q 549.25625 241.04 551.25625 241.04 
z
" style="fill: #ffffff; opacity: 0.8; stroke: #cccccc; stroke-linejoin: miter"/>
    </g>
    <g id="line2d_19">
     <path d="M 553.25625 202.104062 
L 563.25625 202.104062 
L 573.25625 202.104062 
" style="fill: none; stroke: #1f77b4; stroke-width: 2; stroke-linecap: square"/>
    </g>
    <g id="text_20">
     <!-- Hive -->
     <g transform="translate(581.25625 205.604062) scale(0.1 -0.1)">
      <defs>
       <path id="DejaVuSans-48" d="M 628 4666 
L 1259 4666 
L 1259 2753 
L 3553 2753 
L 3553 4666 
L 4184 4666 
L 4184 0 
L 3553 0 
L 3553 2222 
L 1259 2222 
L 1259 0 
L 628 0 
L 628 4666 
z
" transform="scale(0.015625)"/>
      </defs>
      <use xlink:href="#DejaVuSans-48"/>
      <use xlink:href="#DejaVuSans-69" transform="translate(75.195312 0)"/>
      <use xlink:href="#DejaVuSans-76" transform="translate(102.978516 0)"/>
      <use xlink:href="#DejaVuSans-65" transform="translate(162.158203 0)"/>
     </g>
    </g>
    <g id="line2d_20">
     <path d="M 553.25625 216.782187 
L 563.25625 216.782187 
L 573.25625 216.782187 
" style="fill: none; stroke-dasharray: 5.55,2.4; stroke-dashoffset: 0; stroke: #808080; stroke-width: 1.5"/>
    </g>
    <g id="text_21">
     <!-- Gemiddelde (alle hives) -->
     <g transform="translate(581.25625 220.282187) scale(0.1 -0.1)">
      <defs>
       <path id="DejaVuSans-47" d="M 3809 666 
L 3809 1919 
L 2778 1919 
L 2778 2438 
L 4434 2438 
L 4434 434 
Q 4069 175 3628 42 
Q 3188 -91 2688 -91 
Q 1594 -91 976 548 
Q 359 1188 359 2328 
Q 359 3472 976 4111 
Q 1594 4750 2688 4750 
Q 3144 4750 3555 4637 
Q 3966 4525 4313 4306 
L 4313 3634 
Q 3963 3931 3569 4081 
Q 3175 4231 2741 4231 
Q 1884 4231 1454 3753 
Q 1025 3275 1025 2328 
Q 1025 1384 1454 906 
Q 1884 428 2741 428 
Q 3075 428 3337 486 
Q 3600 544 3809 666 
z
" transform="scale(0.015625)"/>
       <path id="DejaVuSans-6c" d="M 603 4863 
L 1178 4863 
L 1178 0 
L 603 0 
L 603 4863 
z
" transform="scale(0.015625)"/>
       <path id="DejaVuSans-68" d="M 3513 2113 
L 3513 0 
L 2938 0 
L 2938 2094 
Q 2938 2591 2744 2837 
Q 2550 3084 2163 3084 
Q 1697 3084 1428 2787 
Q 1159 2491 1159 1978 
L 1159 0 
L 581 0 
L 581 4863 
L 1159 4863 
L 1159 2956 
Q 1366 3272 1645 3428 
Q 1925 3584 2291 3584 
Q 2894 3584 3203 3211 
Q 3513 2838 3513 2113 
z
" transform="scale(0.015625)"/>
       <path id="DejaVuSans-73" d="M 2834 3397 
L 2834 2853 
Q 2591 2978 2328 3040 
Q 2066 3103 1784 3103 
Q 1356 3103 1142 2972 
Q 928 2841 928 2578 
Q 928 2378 1081 2264 
Q 1234 2150 1697 2047 
L 1894 2003 
Q 2506 1872 2764 1633 
Q 3022 1394 3022 966 
Q 3022 478 2636 193 
Q 2250 -91 1575 -91 
Q 1294 -91 989 -36 
Q 684 19 347 128 
L 347 722 
Q 666 556 975 473 
Q 1284 391 1588 391 
Q 1994 391 2212 530 
Q 2431 669 2431 922 
Q 2431 1156 2273 1281 
Q 2116 1406 1581 1522 
L 1381 1569 
Q 847 1681 609 1914 
Q 372 2147 372 2553 
Q 372 3047 722 3315 
Q 1072 3584 1716 3584 
Q 2034 3584 2315 3537 
Q 2597 3491 2834 3397 
z
" transform="scale(0.015625)"/>
      </defs>
      <use xlink:href="#DejaVuSans-47"/>
      <use xlink:href="#DejaVuSans-65" transform="translate(77.490234 0)"/>
      <use xlink:href="#DejaVuSans-6d" transform="translate(139.013672 0)"/>
      <use xlink:href="#DejaVuSans-69" transform="translate(236.425781 0)"/>
      <use xlink:href="#DejaVuSans-64" transform="translate(264.208984 0)"/>
      <use xlink:href="#DejaVuSans-64" transform="translate(327.685547 0)"/>
      <use xlink:href="#DejaVuSans-65" transform="translate(391.162109 0)"/>
      <use xlink:href="#DejaVuSans-6c" transform="translate(452.685547 0)"/>
      <use xlink:href="#DejaVuSans-64" transform="translate(480.46875 0)"/>
      <use xlink:href="#DejaVuSans-65" transform="translate(543.945312 0)"/>
      <use xlink:href="#DejaVuSans-20" transform="translate(605.46875 0)"/>
      <use xlink:href="#DejaVuSans-28" transform="translate(637.255859 0)"/>
      <use xlink:href="#DejaVuSans-61" transform="translate(676.269531 0)"/>
      <use xlink:href="#DejaVuSans-6c" transform="translate(737.548828 0)"/>
      <use xlink:href="#DejaVuSans-6c" transform="translate(765.332031 0)"/>
      <use xlink:href="#DejaVuSans-65" transform="translate(793.115234 0)"/>
      <use xlink:href="#DejaVuSans-20" transform="translate(854.638672 0)"/>
      <use xlink:href="#DejaVuSans-68" transform="translate(886.425781 0)"/>
      <use xlink:href="#DejaVuSans-69" transform="translate(949.804688 0)"/>
      <use xlink:href="#DejaVuSans-76" transform="translate(977.587891 0)"/>
      <use xlink:href="#DejaVuSans-65" transform="translate(1036.767578 0)"/>
      <use xlink:href="#DejaVuSans-73" transform="translate(1098.291016 0)"/>
      <use xlink:href="#DejaVuSans-29" transform="translate(1150.390625 0)"/>
     </g>
    </g>
    <g id="patch_8">
     <path d="M 553.25625 234.960312 
L 573.25625 234.960312 
L 573.25625 227.960312 
L 553.25625 227.960312 
z
" style="fill: #808080; fill-opacity: 0.2; stroke: #808080; stroke-opacity: 0.2; stroke-linejoin: miter"/>
    </g>
    <g id="text_22">
     <!-- ±2 Std Dev -->
     <g transform="translate(581.25625 234.960312) scale(0.1 -0.1)">
      <defs>
       <path id="DejaVuSans-b1" d="M 2944 4013 
L 2944 2803 
L 4684 2803 
L 4684 2272 
L 2944 2272 
L 2944 1063 
L 2419 1063 
L 2419 2272 
L 678 2272 
L 678 2803 
L 2419 2803 
L 2419 4013 
L 2944 4013 
z
M 678 531 
L 4684 531 
L 4684 0 
L 678 0 
L 678 531 
z
" transform="scale(0.015625)"/>
       <path id="DejaVuSans-53" d="M 3425 4513 
L 3425 3897 
Q 3066 4069 2747 4153 
Q 2428 4238 2131 4238 
Q 1616 4238 1336 4038 
Q 1056 3838 1056 3469 
Q 1056 3159 1242 3001 
Q 1428 2844 1947 2747 
L 2328 2669 
Q 3034 2534 3370 2195 
Q 3706 1856 3706 1288 
Q 3706 609 3251 259 
Q 2797 -91 1919 -91 
Q 1588 -91 1214 -16 
Q 841 59 441 206 
L 441 856 
Q 825 641 1194 531 
Q 1563 422 1919 422 
Q 2459 422 2753 634 
Q 3047 847 3047 1241 
Q 3047 1584 2836 1778 
Q 2625 1972 2144 2069 
L 1759 2144 
Q 1053 2284 737 2584 
Q 422 2884 422 3419 
Q 422 4038 858 4394 
Q 1294 4750 2059 4750 
Q 2388 4750 2728 4690 
Q 3069 4631 3425 4513 
z
" transform="scale(0.015625)"/>
       <path id="DejaVuSans-44" d="M 1259 4147 
L 1259 519 
L 2022 519 
Q 2988 519 3436 956 
Q 3884 1394 3884 2338 
Q 3884 3275 3436 3711 
Q 2988 4147 2022 4147 
L 1259 4147 
z
M 628 4666 
L 1925 4666 
Q 3281 4666 3915 4102 
Q 4550 3538 4550 2338 
Q 4550 1131 3912 565 
Q 3275 0 1925 0 
L 628 0 
L 628 4666 
z
" transform="scale(0.015625)"/>
      </defs>
      <use xlink:href="#DejaVuSans-b1"/>
      <use xlink:href="#DejaVuSans-32" transform="translate(83.789062 0)"/>
      <use xlink:href="#DejaVuSans-20" transform="translate(147.412109 0)"/>
      <use xlink:href="#DejaVuSans-53" transform="translate(179.199219 0)"/>
      <use xlink:href="#DejaVuSans-74" transform="translate(242.675781 0)"/>
      <use xlink:href="#DejaVuSans-64" transform="translate(281.884766 0)"/>
      <use xlink:href="#DejaVuSans-20" transform="translate(345.361328 0)"/>
      <use xlink:href="#DejaVuSans-44" transform="translate(377.148438 0)"/>
      <use xlink:href="#DejaVuSans-65" transform="translate(454.150391 0)"/>
      <use xlink:href="#DejaVuSans-76" transform="translate(515.673828 0)"/>
     </g>
    </g>
   </g>
  </g>
 </g>
 <defs>
  <clipPath id="p9c1d2854b0">
   <rect x="44.57" y="26.88" width="664.63" height="219.16"/>
  </clipPath>
 </defs>
</svg>
