<?xml version="1.0" encoding="utf-8" standalone="no"?>
<!DOCTYPE svg PUBLIC "-//W3C//DTD SVG 1.1//EN"
  "http://www.w3.org/Graphics/SVG/1.1/DTD/svg11.dtd">
<svg xmlns:xlink="http://www.w3.org/1999/xlink" width="720pt" height="288pt" viewBox="0 0 720 288" xmlns="http://www.w3.org/2000/svg" version="1.1">
 <metadata>
  <rdf:RDF xmlns:dc="http://purl.org/dc/elements/1.1/" xmlns:cc="http://creativecommons.org/ns#" xmlns:rdf="http://www.w3.org/1999/02/22-rdf-syntax-ns#">
   <cc:Work>
    <dc:type rdf:resource="http://purl.org/dc/dcmitype/StillImage"/>
    <dc:date>2025-06-19T11:14:44.266137</dc:date>
    <dc:format>image/svg+xml</dc:format>
    <dc:creator>
     <cc:Agent>
      <dc:title>Matplotlib v3.10.3, https://matplotlib.org/</dc:title>
     </cc:Agent>
    </dc:creator>
   </cc:Work>
  </rdf:RDF>
 </metadata>
 <defs>
  <style type="text/css">*{stroke-linejoin: round; stroke-linecap: butt}</style>
 </defs>
 <g id="figure_1">
  <g id="patch_1">
   <path d="M 0 288 
L 720 288 
L 720 0 
L 0 0 
z
" style="fill: #ffffff"/>
  </g>
  <g id="axes_1">
   <g id="patch_2">
    <path d="M 44.57 246.04 
L 709.2 246.04 
L 709.2 26.88 
L 44.57 26.88 
z
" style="fill: #ffffff"/>
   </g>
   <g id="FillBetweenPolyCollection_1">
    <defs>
     <path id="mb7e48f2d28" d="M 74.780455 -207.804559 
L 74.780455 -92.565207 
L 78.533306 -97.144391 
L 82.286158 -95.314647 
L 86.039009 -93.282755 
L 89.791861 -88.823331 
L 93.544712 -89.431435 
L 97.297564 -87.313229 
L 101.050415 -83.618317 
L 104.803267 -76.78766 
L 108.556118 -82.941687 
L 112.30897 -78.661482 
L 116.061821 -76.585478 
L 119.814673 -80.99663 
L 123.567524 -80.273461 
L 127.320375 -84.616969 
L 131.073227 -82.749896 
L 134.826078 -85.354407 
L 138.57893 -86.367359 
L 142.331781 -85.947017 
L 146.084633 -93.276159 
L 149.837484 -82.725185 
L 153.590336 -87.492761 
L 157.343187 -96.40305 
L 161.096039 -89.06647 
L 164.84889 -81.154254 
L 168.601742 -78.406912 
L 172.354593 -73.488494 
L 176.107445 -70.397583 
L 179.860296 -70.725434 
L 183.613148 -88.074367 
L 187.365999 -94.203655 
L 191.118851 -92.115302 
L 194.871702 -99.417006 
L 198.624554 -101.041612 
L 202.377405 -106.753477 
L 206.130257 -101.674709 
L 209.883108 -113.270151 
L 213.63596 -114.578207 
L 217.388811 -107.879072 
L 221.141663 -104.783947 
L 224.894514 -117.305999 
L 228.647366 -110.761874 
L 232.400217 -105.616817 
L 236.153069 -95.958881 
L 239.90592 -95.752691 
L 243.658772 -102.325861 
L 247.411623 -101.697131 
L 251.164475 -98.338377 
L 254.917326 -101.011643 
L 258.670178 -87.200346 
L 262.423029 -90.750223 
L 266.175881 -94.406315 
L 269.928732 -85.373581 
L 273.681584 -91.080693 
L 277.434435 -98.690014 
L 281.187287 -83.659552 
L 284.940138 -84.869345 
L 288.69299 -81.550841 
L 292.445841 -86.675485 
L 296.198693 -76.414972 
L 299.951544 -77.689746 
L 303.704396 -73.016299 
L 307.457247 -79.845046 
L 311.210099 -88.529617 
L 314.96295 -91.725488 
L 318.715802 -96.25316 
L 322.468653 -95.148438 
L 326.221505 -93.430244 
L 329.974356 -91.473502 
L 333.727208 -89.087791 
L 337.480059 -89.713759 
L 341.232911 -95.216504 
L 344.985762 -90.942721 
L 348.738614 -87.321748 
L 352.491465 -89.550502 
L 356.244317 -78.329548 
L 359.997168 -93.046673 
L 363.75002 -71.985564 
L 367.502871 -97.163465 
L 371.255723 -109.614843 
L 375.008574 -112.109163 
L 378.761426 -105.993472 
L 382.514277 -109.506623 
L 386.267129 -96.693991 
L 390.01998 -110.095559 
L 393.772832 -107.962679 
L 397.525683 -119.879406 
L 401.278535 -115.261975 
L 405.031386 -106.6807 
L 408.784238 -109.985424 
L 412.537089 -101.275374 
L 416.289941 -96.735776 
L 420.042792 -96.054965 
L 423.795644 -82.768373 
L 427.548495 -90.555956 
L 431.301347 -87.584402 
L 435.054198 -93.834229 
L 438.80705 -91.234941 
L 442.559901 -83.081947 
L 446.312753 -82.550372 
L 450.065604 -79.296067 
L 453.818456 -81.865315 
L 457.571307 -81.521469 
L 461.324159 -76.497121 
L 465.07701 -51.921818 
L 468.829862 -78.841256 
L 472.582713 -73.970157 
L 476.335565 -66.359813 
L 480.088416 -69.607265 
L 483.841268 -68.083818 
L 487.594119 -74.334706 
L 491.346971 -77.445626 
L 495.099822 -79.441263 
L 498.852674 -79.709156 
L 502.605525 -82.298535 
L 506.358377 -85.703802 
L 510.111228 -84.776789 
L 513.86408 -78.296386 
L 517.616931 -82.626425 
L 521.369783 -79.294275 
L 525.122634 -72.55221 
L 528.875486 -67.990912 
L 532.628337 -57.144645 
L 536.381189 -71.069887 
L 540.13404 -68.33591 
L 543.886892 -69.874249 
L 547.639743 -92.021389 
L 551.392595 -101.460418 
L 555.145446 -99.709067 
L 558.898298 -98.136173 
L 562.651149 -102.18878 
L 566.404001 -79.994243 
L 570.156852 -77.230461 
L 573.909704 -77.552637 
L 577.662555 -89.895003 
L 581.415407 -85.367527 
L 585.168258 -88.553849 
L 588.92111 -93.325726 
L 592.673961 -83.618058 
L 596.426813 -108.154179 
L 600.179664 -92.078859 
L 603.932516 -91.493012 
L 607.685367 -99.50319 
L 611.438219 -99.901161 
L 615.19107 -88.93875 
L 618.943922 -88.696824 
L 622.696773 -95.971947 
L 626.449625 -88.452529 
L 630.202476 -85.199826 
L 633.955327 -91.116884 
L 637.708179 -88.184505 
L 641.46103 -88.172152 
L 645.213882 -83.85829 
L 648.966733 -111.833469 
L 652.719585 -110.942669 
L 656.472436 -125.180109 
L 660.225288 -131.942194 
L 663.978139 -117.462919 
L 667.730991 -86.729025 
L 667.730991 -208.850641 
L 667.730991 -208.850641 
L 663.978139 -181.446851 
L 660.225288 -173.972276 
L 656.472436 -172.007194 
L 652.719585 -180.158582 
L 648.966733 -192.243702 
L 645.213882 -245.711396 
L 641.46103 -251.158182 
L 637.708179 -245.519102 
L 633.955327 -236.845166 
L 630.202476 -236.423544 
L 626.449625 -233.492369 
L 622.696773 -231.117387 
L 618.943922 -221.275013 
L 615.19107 -207.559566 
L 611.438219 -190.954024 
L 607.685367 -191.980832 
L 603.932516 -208.745518 
L 600.179664 -192.457879 
L 596.426813 -184.702349 
L 592.673961 -220.245855 
L 588.92111 -218.100639 
L 585.168258 -218.541741 
L 581.415407 -209.326299 
L 577.662555 -220.957206 
L 573.909704 -237.586602 
L 570.156852 -223.669715 
L 566.404001 -227.002921 
L 562.651149 -223.70631 
L 558.898298 -214.191236 
L 555.145446 -219.164918 
L 551.392595 -226.731295 
L 547.639743 -220.19239 
L 543.886892 -237.150255 
L 540.13404 -236.583357 
L 536.381189 -229.945121 
L 532.628337 -238.588129 
L 528.875486 -243.008937 
L 525.122634 -239.497524 
L 521.369783 -243.123071 
L 517.616931 -239.987774 
L 513.86408 -241.102541 
L 510.111228 -237.968646 
L 506.358377 -235.663659 
L 502.605525 -239.987575 
L 498.852674 -240.149096 
L 495.099822 -241.532491 
L 491.346971 -242.018919 
L 487.594119 -238.305588 
L 483.841268 -244.261196 
L 480.088416 -244.378194 
L 476.335565 -242.704311 
L 472.582713 -232.994198 
L 468.829862 -232.552299 
L 465.07701 -248.17454 
L 461.324159 -235.847892 
L 457.571307 -231.643768 
L 453.818456 -229.429814 
L 450.065604 -227.471434 
L 446.312753 -224.413983 
L 442.559901 -220.114852 
L 438.80705 -212.612568 
L 435.054198 -211.752152 
L 431.301347 -207.076615 
L 427.548495 -200.988216 
L 423.795644 -208.371156 
L 420.042792 -198.638861 
L 416.289941 -194.906823 
L 412.537089 -189.251722 
L 408.784238 -186.184802 
L 405.031386 -194.334307 
L 401.278535 -192.588219 
L 397.525683 -187.609891 
L 393.772832 -197.875237 
L 390.01998 -205.005402 
L 386.267129 -207.940932 
L 382.514277 -206.217708 
L 378.761426 -208.024795 
L 375.008574 -212.224223 
L 371.255723 -211.30423 
L 367.502871 -218.42963 
L 363.75002 -222.752007 
L 359.997168 -218.15003 
L 356.244317 -224.336841 
L 352.491465 -222.827321 
L 348.738614 -230.371117 
L 344.985762 -234.689897 
L 341.232911 -233.106444 
L 337.480059 -231.259995 
L 333.727208 -231.754728 
L 329.974356 -232.912378 
L 326.221505 -232.530463 
L 322.468653 -230.681033 
L 318.715802 -231.085521 
L 314.96295 -227.575013 
L 311.210099 -231.197399 
L 307.457247 -234.763782 
L 303.704396 -235.271348 
L 299.951544 -228.979328 
L 296.198693 -231.41335 
L 292.445841 -222.815155 
L 288.69299 -224.631568 
L 284.940138 -216.812777 
L 281.187287 -219.001369 
L 277.434435 -208.241531 
L 273.681584 -198.724607 
L 269.928732 -204.858235 
L 266.175881 -197.728417 
L 262.423029 -194.429023 
L 258.670178 -196.360327 
L 254.917326 -173.931226 
L 251.164475 -175.718651 
L 247.411623 -172.458324 
L 243.658772 -172.485772 
L 239.90592 -176.959173 
L 236.153069 -174.357933 
L 232.400217 -177.626703 
L 228.647366 -163.420922 
L 224.894514 -180.603099 
L 221.141663 -187.389062 
L 217.388811 -193.310917 
L 213.63596 -189.302111 
L 209.883108 -187.230851 
L 206.130257 -207.717504 
L 202.377405 -204.443225 
L 198.624554 -204.905667 
L 194.871702 -209.515883 
L 191.118851 -213.186735 
L 187.365999 -209.709471 
L 183.613148 -206.739758 
L 179.860296 -218.959567 
L 176.107445 -223.574448 
L 172.354593 -222.282557 
L 168.601742 -230.985301 
L 164.84889 -225.777291 
L 161.096039 -228.232688 
L 157.343187 -226.604856 
L 153.590336 -230.396957 
L 149.837484 -231.818026 
L 146.084633 -237.605883 
L 142.331781 -228.858665 
L 138.57893 -231.095844 
L 134.826078 -231.091719 
L 131.073227 -234.089938 
L 127.320375 -236.81611 
L 123.567524 -234.138514 
L 119.814673 -228.822098 
L 116.061821 -229.591463 
L 112.30897 -229.418375 
L 108.556118 -220.413689 
L 104.803267 -248.188781 
L 101.050415 -229.448492 
L 97.297564 -232.151316 
L 93.544712 -221.99493 
L 89.791861 -219.945513 
L 86.039009 -208.268131 
L 82.286158 -211.452854 
L 78.533306 -209.721537 
L 74.780455 -207.804559 
z
" style="stroke: #808080; stroke-opacity: 0.2"/>
    </defs>
    <g clip-path="url(#p280392a426)">
     <use xlink:href="#mb7e48f2d28" x="0" y="288" style="fill: #808080; fill-opacity: 0.2; stroke: #808080; stroke-opacity: 0.2"/>
    </g>
   </g>
   <g id="matplotlib.axis_1">
    <g id="xtick_1">
     <g id="line2d_1">
      <defs>
       <path id="m101a7388d5" d="M 0 0 
L 0 3.5 
" style="stroke: #000000; stroke-width: 0.8"/>
      </defs>
      <g>
       <use xlink:href="#m101a7388d5" x="82.286158" y="246.04" style="stroke: #000000; stroke-width: 0.8"/>
      </g>
     </g>
     <g id="text_1">
      <!-- 06-16 12 -->
      <g transform="translate(59.805689 260.638438) scale(0.1 -0.1)">
       <defs>
        <path id="DejaVuSans-30" d="M 2034 4250 
Q 1547 4250 1301 3770 
Q 1056 3291 1056 2328 
Q 1056 1369 1301 889 
Q 1547 409 2034 409 
Q 2525 409 2770 889 
Q 3016 1369 3016 2328 
Q 3016 3291 2770 3770 
Q 2525 4250 2034 4250 
z
M 2034 4750 
Q 2819 4750 3233 4129 
Q 3647 3509 3647 2328 
Q 3647 1150 3233 529 
Q 2819 -91 2034 -91 
Q 1250 -91 836 529 
Q 422 1150 422 2328 
Q 422 3509 836 4129 
Q 1250 4750 2034 4750 
z
" transform="scale(0.015625)"/>
        <path id="DejaVuSans-36" d="M 2113 2584 
Q 1688 2584 1439 2293 
Q 1191 2003 1191 1497 
Q 1191 994 1439 701 
Q 1688 409 2113 409 
Q 2538 409 2786 701 
Q 3034 994 3034 1497 
Q 3034 2003 2786 2293 
Q 2538 2584 2113 2584 
z
M 3366 4563 
L 3366 3988 
Q 3128 4100 2886 4159 
Q 2644 4219 2406 4219 
Q 1781 4219 1451 3797 
Q 1122 3375 1075 2522 
Q 1259 2794 1537 2939 
Q 1816 3084 2150 3084 
Q 2853 3084 3261 2657 
Q 3669 2231 3669 1497 
Q 3669 778 3244 343 
Q 2819 -91 2113 -91 
Q 1303 -91 875 529 
Q 447 1150 447 2328 
Q 447 3434 972 4092 
Q 1497 4750 2381 4750 
Q 2619 4750 2861 4703 
Q 3103 4656 3366 4563 
z
" transform="scale(0.015625)"/>
        <path id="DejaVuSans-2d" d="M 313 2009 
L 1997 2009 
L 1997 1497 
L 313 1497 
L 313 2009 
z
" transform="scale(0.015625)"/>
        <path id="DejaVuSans-31" d="M 794 531 
L 1825 531 
L 1825 4091 
L 703 3866 
L 703 4441 
L 1819 4666 
L 2450 4666 
L 2450 531 
L 3481 531 
L 3481 0 
L 794 0 
L 794 531 
z
" transform="scale(0.015625)"/>
        <path id="DejaVuSans-20" transform="scale(0.015625)"/>
        <path id="DejaVuSans-32" d="M 1228 531 
L 3431 531 
L 3431 0 
L 469 0 
L 469 531 
Q 828 903 1448 1529 
Q 2069 2156 2228 2338 
Q 2531 2678 2651 2914 
Q 2772 3150 2772 3378 
Q 2772 3750 2511 3984 
Q 2250 4219 1831 4219 
Q 1534 4219 1204 4116 
Q 875 4013 500 3803 
L 500 4441 
Q 881 4594 1212 4672 
Q 1544 4750 1819 4750 
Q 2544 4750 2975 4387 
Q 3406 4025 3406 3419 
Q 3406 3131 3298 2873 
Q 3191 2616 2906 2266 
Q 2828 2175 2409 1742 
Q 1991 1309 1228 531 
z
" transform="scale(0.015625)"/>
       </defs>
       <use xlink:href="#DejaVuSans-30"/>
       <use xlink:href="#DejaVuSans-36" transform="translate(63.623047 0)"/>
       <use xlink:href="#DejaVuSans-2d" transform="translate(127.246094 0)"/>
       <use xlink:href="#DejaVuSans-31" transform="translate(163.330078 0)"/>
       <use xlink:href="#DejaVuSans-36" transform="translate(226.953125 0)"/>
       <use xlink:href="#DejaVuSans-20" transform="translate(290.576172 0)"/>
       <use xlink:href="#DejaVuSans-31" transform="translate(322.363281 0)"/>
       <use xlink:href="#DejaVuSans-32" transform="translate(385.986328 0)"/>
      </g>
     </g>
    </g>
    <g id="xtick_2">
     <g id="line2d_2">
      <g>
       <use xlink:href="#m101a7388d5" x="172.354593" y="246.04" style="stroke: #000000; stroke-width: 0.8"/>
      </g>
     </g>
     <g id="text_2">
      <!-- 06-17 00 -->
      <g transform="translate(149.874125 260.638438) scale(0.1 -0.1)">
       <defs>
        <path id="DejaVuSans-37" d="M 525 4666 
L 3525 4666 
L 3525 4397 
L 1831 0 
L 1172 0 
L 2766 4134 
L 525 4134 
L 525 4666 
z
" transform="scale(0.015625)"/>
       </defs>
       <use xlink:href="#DejaVuSans-30"/>
       <use xlink:href="#DejaVuSans-36" transform="translate(63.623047 0)"/>
       <use xlink:href="#DejaVuSans-2d" transform="translate(127.246094 0)"/>
       <use xlink:href="#DejaVuSans-31" transform="translate(163.330078 0)"/>
       <use xlink:href="#DejaVuSans-37" transform="translate(226.953125 0)"/>
       <use xlink:href="#DejaVuSans-20" transform="translate(290.576172 0)"/>
       <use xlink:href="#DejaVuSans-30" transform="translate(322.363281 0)"/>
       <use xlink:href="#DejaVuSans-30" transform="translate(385.986328 0)"/>
      </g>
     </g>
    </g>
    <g id="xtick_3">
     <g id="line2d_3">
      <g>
       <use xlink:href="#m101a7388d5" x="262.423029" y="246.04" style="stroke: #000000; stroke-width: 0.8"/>
      </g>
     </g>
     <g id="text_3">
      <!-- 06-17 12 -->
      <g transform="translate(239.942561 260.638438) scale(0.1 -0.1)">
       <use xlink:href="#DejaVuSans-30"/>
       <use xlink:href="#DejaVuSans-36" transform="translate(63.623047 0)"/>
       <use xlink:href="#DejaVuSans-2d" transform="translate(127.246094 0)"/>
       <use xlink:href="#DejaVuSans-31" transform="translate(163.330078 0)"/>
       <use xlink:href="#DejaVuSans-37" transform="translate(226.953125 0)"/>
       <use xlink:href="#DejaVuSans-20" transform="translate(290.576172 0)"/>
       <use xlink:href="#DejaVuSans-31" transform="translate(322.363281 0)"/>
       <use xlink:href="#DejaVuSans-32" transform="translate(385.986328 0)"/>
      </g>
     </g>
    </g>
    <g id="xtick_4">
     <g id="line2d_4">
      <g>
       <use xlink:href="#m101a7388d5" x="352.491465" y="246.04" style="stroke: #000000; stroke-width: 0.8"/>
      </g>
     </g>
     <g id="text_4">
      <!-- 06-18 00 -->
      <g transform="translate(330.010997 260.638438) scale(0.1 -0.1)">
       <defs>
        <path id="DejaVuSans-38" d="M 2034 2216 
Q 1584 2216 1326 1975 
Q 1069 1734 1069 1313 
Q 1069 891 1326 650 
Q 1584 409 2034 409 
Q 2484 409 2743 651 
Q 3003 894 3003 1313 
Q 3003 1734 2745 1975 
Q 2488 2216 2034 2216 
z
M 1403 2484 
Q 997 2584 770 2862 
Q 544 3141 544 3541 
Q 544 4100 942 4425 
Q 1341 4750 2034 4750 
Q 2731 4750 3128 4425 
Q 3525 4100 3525 3541 
Q 3525 3141 3298 2862 
Q 3072 2584 2669 2484 
Q 3125 2378 3379 2068 
Q 3634 1759 3634 1313 
Q 3634 634 3220 271 
Q 2806 -91 2034 -91 
Q 1263 -91 848 271 
Q 434 634 434 1313 
Q 434 1759 690 2068 
Q 947 2378 1403 2484 
z
M 1172 3481 
Q 1172 3119 1398 2916 
Q 1625 2713 2034 2713 
Q 2441 2713 2670 2916 
Q 2900 3119 2900 3481 
Q 2900 3844 2670 4047 
Q 2441 4250 2034 4250 
Q 1625 4250 1398 4047 
Q 1172 3844 1172 3481 
z
" transform="scale(0.015625)"/>
       </defs>
       <use xlink:href="#DejaVuSans-30"/>
       <use xlink:href="#DejaVuSans-36" transform="translate(63.623047 0)"/>
       <use xlink:href="#DejaVuSans-2d" transform="translate(127.246094 0)"/>
       <use xlink:href="#DejaVuSans-31" transform="translate(163.330078 0)"/>
       <use xlink:href="#DejaVuSans-38" transform="translate(226.953125 0)"/>
       <use xlink:href="#DejaVuSans-20" transform="translate(290.576172 0)"/>
       <use xlink:href="#DejaVuSans-30" transform="translate(322.363281 0)"/>
       <use xlink:href="#DejaVuSans-30" transform="translate(385.986328 0)"/>
      </g>
     </g>
    </g>
    <g id="xtick_5">
     <g id="line2d_5">
      <g>
       <use xlink:href="#m101a7388d5" x="442.559901" y="246.04" style="stroke: #000000; stroke-width: 0.8"/>
      </g>
     </g>
     <g id="text_5">
      <!-- 06-18 12 -->
      <g transform="translate(420.079432 260.638438) scale(0.1 -0.1)">
       <use xlink:href="#DejaVuSans-30"/>
       <use xlink:href="#DejaVuSans-36" transform="translate(63.623047 0)"/>
       <use xlink:href="#DejaVuSans-2d" transform="translate(127.246094 0)"/>
       <use xlink:href="#DejaVuSans-31" transform="translate(163.330078 0)"/>
       <use xlink:href="#DejaVuSans-38" transform="translate(226.953125 0)"/>
       <use xlink:href="#DejaVuSans-20" transform="translate(290.576172 0)"/>
       <use xlink:href="#DejaVuSans-31" transform="translate(322.363281 0)"/>
       <use xlink:href="#DejaVuSans-32" transform="translate(385.986328 0)"/>
      </g>
     </g>
    </g>
    <g id="xtick_6">
     <g id="line2d_6">
      <g>
       <use xlink:href="#m101a7388d5" x="532.628337" y="246.04" style="stroke: #000000; stroke-width: 0.8"/>
      </g>
     </g>
     <g id="text_6">
      <!-- 06-19 00 -->
      <g transform="translate(510.147868 260.638438) scale(0.1 -0.1)">
       <defs>
        <path id="DejaVuSans-39" d="M 703 97 
L 703 672 
Q 941 559 1184 500 
Q 1428 441 1663 441 
Q 2288 441 2617 861 
Q 2947 1281 2994 2138 
Q 2813 1869 2534 1725 
Q 2256 1581 1919 1581 
Q 1219 1581 811 2004 
Q 403 2428 403 3163 
Q 403 3881 828 4315 
Q 1253 4750 1959 4750 
Q 2769 4750 3195 4129 
Q 3622 3509 3622 2328 
Q 3622 1225 3098 567 
Q 2575 -91 1691 -91 
Q 1453 -91 1209 -44 
Q 966 3 703 97 
z
M 1959 2075 
Q 2384 2075 2632 2365 
Q 2881 2656 2881 3163 
Q 2881 3666 2632 3958 
Q 2384 4250 1959 4250 
Q 1534 4250 1286 3958 
Q 1038 3666 1038 3163 
Q 1038 2656 1286 2365 
Q 1534 2075 1959 2075 
z
" transform="scale(0.015625)"/>
       </defs>
       <use xlink:href="#DejaVuSans-30"/>
       <use xlink:href="#DejaVuSans-36" transform="translate(63.623047 0)"/>
       <use xlink:href="#DejaVuSans-2d" transform="translate(127.246094 0)"/>
       <use xlink:href="#DejaVuSans-31" transform="translate(163.330078 0)"/>
       <use xlink:href="#DejaVuSans-39" transform="translate(226.953125 0)"/>
       <use xlink:href="#DejaVuSans-20" transform="translate(290.576172 0)"/>
       <use xlink:href="#DejaVuSans-30" transform="translate(322.363281 0)"/>
       <use xlink:href="#DejaVuSans-30" transform="translate(385.986328 0)"/>
      </g>
     </g>
    </g>
    <g id="xtick_7">
     <g id="line2d_7">
      <g>
       <use xlink:href="#m101a7388d5" x="622.696773" y="246.04" style="stroke: #000000; stroke-width: 0.8"/>
      </g>
     </g>
     <g id="text_7">
      <!-- 06-19 12 -->
      <g transform="translate(600.216304 260.638438) scale(0.1 -0.1)">
       <use xlink:href="#DejaVuSans-30"/>
       <use xlink:href="#DejaVuSans-36" transform="translate(63.623047 0)"/>
       <use xlink:href="#DejaVuSans-2d" transform="translate(127.246094 0)"/>
       <use xlink:href="#DejaVuSans-31" transform="translate(163.330078 0)"/>
       <use xlink:href="#DejaVuSans-39" transform="translate(226.953125 0)"/>
       <use xlink:href="#DejaVuSans-20" transform="translate(290.576172 0)"/>
       <use xlink:href="#DejaVuSans-31" transform="translate(322.363281 0)"/>
       <use xlink:href="#DejaVuSans-32" transform="translate(385.986328 0)"/>
      </g>
     </g>
    </g>
    <g id="text_8">
     <!-- Tijd -->
     <g transform="translate(368.035 274.316562) scale(0.1 -0.1)">
      <defs>
       <path id="DejaVuSans-54" d="M -19 4666 
L 3928 4666 
L 3928 4134 
L 2272 4134 
L 2272 0 
L 1638 0 
L 1638 4134 
L -19 4134 
L -19 4666 
z
" transform="scale(0.015625)"/>
       <path id="DejaVuSans-69" d="M 603 3500 
L 1178 3500 
L 1178 0 
L 603 0 
L 603 3500 
z
M 603 4863 
L 1178 4863 
L 1178 4134 
L 603 4134 
L 603 4863 
z
" transform="scale(0.015625)"/>
       <path id="DejaVuSans-6a" d="M 603 3500 
L 1178 3500 
L 1178 -63 
Q 1178 -731 923 -1031 
Q 669 -1331 103 -1331 
L -116 -1331 
L -116 -844 
L 38 -844 
Q 366 -844 484 -692 
Q 603 -541 603 -63 
L 603 3500 
z
M 603 4863 
L 1178 4863 
L 1178 4134 
L 603 4134 
L 603 4863 
z
" transform="scale(0.015625)"/>
       <path id="DejaVuSans-64" d="M 2906 2969 
L 2906 4863 
L 3481 4863 
L 3481 0 
L 2906 0 
L 2906 525 
Q 2725 213 2448 61 
Q 2172 -91 1784 -91 
Q 1150 -91 751 415 
Q 353 922 353 1747 
Q 353 2572 751 3078 
Q 1150 3584 1784 3584 
Q 2172 3584 2448 3432 
Q 2725 3281 2906 2969 
z
M 947 1747 
Q 947 1113 1208 752 
Q 1469 391 1925 391 
Q 2381 391 2643 752 
Q 2906 1113 2906 1747 
Q 2906 2381 2643 2742 
Q 2381 3103 1925 3103 
Q 1469 3103 1208 2742 
Q 947 2381 947 1747 
z
" transform="scale(0.015625)"/>
      </defs>
      <use xlink:href="#DejaVuSans-54"/>
      <use xlink:href="#DejaVuSans-69" transform="translate(57.958984 0)"/>
      <use xlink:href="#DejaVuSans-6a" transform="translate(85.742188 0)"/>
      <use xlink:href="#DejaVuSans-64" transform="translate(113.525391 0)"/>
     </g>
    </g>
   </g>
   <g id="matplotlib.axis_2">
    <g id="ytick_1">
     <g id="line2d_8">
      <defs>
       <path id="m4fb370c9d3" d="M 0 0 
L -3.5 0 
" style="stroke: #000000; stroke-width: 0.8"/>
      </defs>
      <g>
       <use xlink:href="#m4fb370c9d3" x="44.57" y="217.147035" style="stroke: #000000; stroke-width: 0.8"/>
      </g>
     </g>
     <g id="text_9">
      <!-- 40 -->
      <g transform="translate(24.845 220.946254) scale(0.1 -0.1)">
       <defs>
        <path id="DejaVuSans-34" d="M 2419 4116 
L 825 1625 
L 2419 1625 
L 2419 4116 
z
M 2253 4666 
L 3047 4666 
L 3047 1625 
L 3713 1625 
L 3713 1100 
L 3047 1100 
L 3047 0 
L 2419 0 
L 2419 1100 
L 313 1100 
L 313 1709 
L 2253 4666 
z
" transform="scale(0.015625)"/>
       </defs>
       <use xlink:href="#DejaVuSans-34"/>
       <use xlink:href="#DejaVuSans-30" transform="translate(63.623047 0)"/>
      </g>
     </g>
    </g>
    <g id="ytick_2">
     <g id="line2d_9">
      <g>
       <use xlink:href="#m4fb370c9d3" x="44.57" y="182.697691" style="stroke: #000000; stroke-width: 0.8"/>
      </g>
     </g>
     <g id="text_10">
      <!-- 45 -->
      <g transform="translate(24.845 186.49691) scale(0.1 -0.1)">
       <defs>
        <path id="DejaVuSans-35" d="M 691 4666 
L 3169 4666 
L 3169 4134 
L 1269 4134 
L 1269 2991 
Q 1406 3038 1543 3061 
Q 1681 3084 1819 3084 
Q 2600 3084 3056 2656 
Q 3513 2228 3513 1497 
Q 3513 744 3044 326 
Q 2575 -91 1722 -91 
Q 1428 -91 1123 -41 
Q 819 9 494 109 
L 494 744 
Q 775 591 1075 516 
Q 1375 441 1709 441 
Q 2250 441 2565 725 
Q 2881 1009 2881 1497 
Q 2881 1984 2565 2268 
Q 2250 2553 1709 2553 
Q 1456 2553 1204 2497 
Q 953 2441 691 2322 
L 691 4666 
z
" transform="scale(0.015625)"/>
       </defs>
       <use xlink:href="#DejaVuSans-34"/>
       <use xlink:href="#DejaVuSans-35" transform="translate(63.623047 0)"/>
      </g>
     </g>
    </g>
    <g id="ytick_3">
     <g id="line2d_10">
      <g>
       <use xlink:href="#m4fb370c9d3" x="44.57" y="148.248347" style="stroke: #000000; stroke-width: 0.8"/>
      </g>
     </g>
     <g id="text_11">
      <!-- 50 -->
      <g transform="translate(24.845 152.047566) scale(0.1 -0.1)">
       <use xlink:href="#DejaVuSans-35"/>
       <use xlink:href="#DejaVuSans-30" transform="translate(63.623047 0)"/>
      </g>
     </g>
    </g>
    <g id="ytick_4">
     <g id="line2d_11">
      <g>
       <use xlink:href="#m4fb370c9d3" x="44.57" y="113.799003" style="stroke: #000000; stroke-width: 0.8"/>
      </g>
     </g>
     <g id="text_12">
      <!-- 55 -->
      <g transform="translate(24.845 117.598222) scale(0.1 -0.1)">
       <use xlink:href="#DejaVuSans-35"/>
       <use xlink:href="#DejaVuSans-35" transform="translate(63.623047 0)"/>
      </g>
     </g>
    </g>
    <g id="ytick_5">
     <g id="line2d_12">
      <g>
       <use xlink:href="#m4fb370c9d3" x="44.57" y="79.349659" style="stroke: #000000; stroke-width: 0.8"/>
      </g>
     </g>
     <g id="text_13">
      <!-- 60 -->
      <g transform="translate(24.845 83.148878) scale(0.1 -0.1)">
       <use xlink:href="#DejaVuSans-36"/>
       <use xlink:href="#DejaVuSans-30" transform="translate(63.623047 0)"/>
      </g>
     </g>
    </g>
    <g id="ytick_6">
     <g id="line2d_13">
      <g>
       <use xlink:href="#m4fb370c9d3" x="44.57" y="44.900315" style="stroke: #000000; stroke-width: 0.8"/>
      </g>
     </g>
     <g id="text_14">
      <!-- 65 -->
      <g transform="translate(24.845 48.699533) scale(0.1 -0.1)">
       <use xlink:href="#DejaVuSans-36"/>
       <use xlink:href="#DejaVuSans-35" transform="translate(63.623047 0)"/>
      </g>
     </g>
    </g>
    <g id="text_15">
     <!-- (Rel.) Vochtigheid (%) -->
     <g transform="translate(18.765312 190.838125) rotate(-90) scale(0.1 -0.1)">
      <defs>
       <path id="DejaVuSans-28" d="M 1984 4856 
Q 1566 4138 1362 3434 
Q 1159 2731 1159 2009 
Q 1159 1288 1364 580 
Q 1569 -128 1984 -844 
L 1484 -844 
Q 1016 -109 783 600 
Q 550 1309 550 2009 
Q 550 2706 781 3412 
Q 1013 4119 1484 4856 
L 1984 4856 
z
" transform="scale(0.015625)"/>
       <path id="DejaVuSans-52" d="M 2841 2188 
Q 3044 2119 3236 1894 
Q 3428 1669 3622 1275 
L 4263 0 
L 3584 0 
L 2988 1197 
Q 2756 1666 2539 1819 
Q 2322 1972 1947 1972 
L 1259 1972 
L 1259 0 
L 628 0 
L 628 4666 
L 2053 4666 
Q 2853 4666 3247 4331 
Q 3641 3997 3641 3322 
Q 3641 2881 3436 2590 
Q 3231 2300 2841 2188 
z
M 1259 4147 
L 1259 2491 
L 2053 2491 
Q 2509 2491 2742 2702 
Q 2975 2913 2975 3322 
Q 2975 3731 2742 3939 
Q 2509 4147 2053 4147 
L 1259 4147 
z
" transform="scale(0.015625)"/>
       <path id="DejaVuSans-65" d="M 3597 1894 
L 3597 1613 
L 953 1613 
Q 991 1019 1311 708 
Q 1631 397 2203 397 
Q 2534 397 2845 478 
Q 3156 559 3463 722 
L 3463 178 
Q 3153 47 2828 -22 
Q 2503 -91 2169 -91 
Q 1331 -91 842 396 
Q 353 884 353 1716 
Q 353 2575 817 3079 
Q 1281 3584 2069 3584 
Q 2775 3584 3186 3129 
Q 3597 2675 3597 1894 
z
M 3022 2063 
Q 3016 2534 2758 2815 
Q 2500 3097 2075 3097 
Q 1594 3097 1305 2825 
Q 1016 2553 972 2059 
L 3022 2063 
z
" transform="scale(0.015625)"/>
       <path id="DejaVuSans-6c" d="M 603 4863 
L 1178 4863 
L 1178 0 
L 603 0 
L 603 4863 
z
" transform="scale(0.015625)"/>
       <path id="DejaVuSans-2e" d="M 684 794 
L 1344 794 
L 1344 0 
L 684 0 
L 684 794 
z
" transform="scale(0.015625)"/>
       <path id="DejaVuSans-29" d="M 513 4856 
L 1013 4856 
Q 1481 4119 1714 3412 
Q 1947 2706 1947 2009 
Q 1947 1309 1714 600 
Q 1481 -109 1013 -844 
L 513 -844 
Q 928 -128 1133 580 
Q 1338 1288 1338 2009 
Q 1338 2731 1133 3434 
Q 928 4138 513 4856 
z
" transform="scale(0.015625)"/>
       <path id="DejaVuSans-56" d="M 1831 0 
L 50 4666 
L 709 4666 
L 2188 738 
L 3669 4666 
L 4325 4666 
L 2547 0 
L 1831 0 
z
" transform="scale(0.015625)"/>
       <path id="DejaVuSans-6f" d="M 1959 3097 
Q 1497 3097 1228 2736 
Q 959 2375 959 1747 
Q 959 1119 1226 758 
Q 1494 397 1959 397 
Q 2419 397 2687 759 
Q 2956 1122 2956 1747 
Q 2956 2369 2687 2733 
Q 2419 3097 1959 3097 
z
M 1959 3584 
Q 2709 3584 3137 3096 
Q 3566 2609 3566 1747 
Q 3566 888 3137 398 
Q 2709 -91 1959 -91 
Q 1206 -91 779 398 
Q 353 888 353 1747 
Q 353 2609 779 3096 
Q 1206 3584 1959 3584 
z
" transform="scale(0.015625)"/>
       <path id="DejaVuSans-63" d="M 3122 3366 
L 3122 2828 
Q 2878 2963 2633 3030 
Q 2388 3097 2138 3097 
Q 1578 3097 1268 2742 
Q 959 2388 959 1747 
Q 959 1106 1268 751 
Q 1578 397 2138 397 
Q 2388 397 2633 464 
Q 2878 531 3122 666 
L 3122 134 
Q 2881 22 2623 -34 
Q 2366 -91 2075 -91 
Q 1284 -91 818 406 
Q 353 903 353 1747 
Q 353 2603 823 3093 
Q 1294 3584 2113 3584 
Q 2378 3584 2631 3529 
Q 2884 3475 3122 3366 
z
" transform="scale(0.015625)"/>
       <path id="DejaVuSans-68" d="M 3513 2113 
L 3513 0 
L 2938 0 
L 2938 2094 
Q 2938 2591 2744 2837 
Q 2550 3084 2163 3084 
Q 1697 3084 1428 2787 
Q 1159 2491 1159 1978 
L 1159 0 
L 581 0 
L 581 4863 
L 1159 4863 
L 1159 2956 
Q 1366 3272 1645 3428 
Q 1925 3584 2291 3584 
Q 2894 3584 3203 3211 
Q 3513 2838 3513 2113 
z
" transform="scale(0.015625)"/>
       <path id="DejaVuSans-74" d="M 1172 4494 
L 1172 3500 
L 2356 3500 
L 2356 3053 
L 1172 3053 
L 1172 1153 
Q 1172 725 1289 603 
Q 1406 481 1766 481 
L 2356 481 
L 2356 0 
L 1766 0 
Q 1100 0 847 248 
Q 594 497 594 1153 
L 594 3053 
L 172 3053 
L 172 3500 
L 594 3500 
L 594 4494 
L 1172 4494 
z
" transform="scale(0.015625)"/>
       <path id="DejaVuSans-67" d="M 2906 1791 
Q 2906 2416 2648 2759 
Q 2391 3103 1925 3103 
Q 1463 3103 1205 2759 
Q 947 2416 947 1791 
Q 947 1169 1205 825 
Q 1463 481 1925 481 
Q 2391 481 2648 825 
Q 2906 1169 2906 1791 
z
M 3481 434 
Q 3481 -459 3084 -895 
Q 2688 -1331 1869 -1331 
Q 1566 -1331 1297 -1286 
Q 1028 -1241 775 -1147 
L 775 -588 
Q 1028 -725 1275 -790 
Q 1522 -856 1778 -856 
Q 2344 -856 2625 -561 
Q 2906 -266 2906 331 
L 2906 616 
Q 2728 306 2450 153 
Q 2172 0 1784 0 
Q 1141 0 747 490 
Q 353 981 353 1791 
Q 353 2603 747 3093 
Q 1141 3584 1784 3584 
Q 2172 3584 2450 3431 
Q 2728 3278 2906 2969 
L 2906 3500 
L 3481 3500 
L 3481 434 
z
" transform="scale(0.015625)"/>
       <path id="DejaVuSans-25" d="M 4653 2053 
Q 4381 2053 4226 1822 
Q 4072 1591 4072 1178 
Q 4072 772 4226 539 
Q 4381 306 4653 306 
Q 4919 306 5073 539 
Q 5228 772 5228 1178 
Q 5228 1588 5073 1820 
Q 4919 2053 4653 2053 
z
M 4653 2450 
Q 5147 2450 5437 2106 
Q 5728 1763 5728 1178 
Q 5728 594 5436 251 
Q 5144 -91 4653 -91 
Q 4153 -91 3862 251 
Q 3572 594 3572 1178 
Q 3572 1766 3864 2108 
Q 4156 2450 4653 2450 
z
M 1428 4353 
Q 1159 4353 1004 4120 
Q 850 3888 850 3481 
Q 850 3069 1003 2837 
Q 1156 2606 1428 2606 
Q 1700 2606 1854 2837 
Q 2009 3069 2009 3481 
Q 2009 3884 1853 4118 
Q 1697 4353 1428 4353 
z
M 4250 4750 
L 4750 4750 
L 1831 -91 
L 1331 -91 
L 4250 4750 
z
M 1428 4750 
Q 1922 4750 2215 4408 
Q 2509 4066 2509 3481 
Q 2509 2891 2217 2550 
Q 1925 2209 1428 2209 
Q 931 2209 642 2551 
Q 353 2894 353 3481 
Q 353 4063 643 4406 
Q 934 4750 1428 4750 
z
" transform="scale(0.015625)"/>
      </defs>
      <use xlink:href="#DejaVuSans-28"/>
      <use xlink:href="#DejaVuSans-52" transform="translate(39.013672 0)"/>
      <use xlink:href="#DejaVuSans-65" transform="translate(103.996094 0)"/>
      <use xlink:href="#DejaVuSans-6c" transform="translate(165.519531 0)"/>
      <use xlink:href="#DejaVuSans-2e" transform="translate(193.302734 0)"/>
      <use xlink:href="#DejaVuSans-29" transform="translate(225.089844 0)"/>
      <use xlink:href="#DejaVuSans-20" transform="translate(264.103516 0)"/>
      <use xlink:href="#DejaVuSans-56" transform="translate(295.890625 0)"/>
      <use xlink:href="#DejaVuSans-6f" transform="translate(356.548828 0)"/>
      <use xlink:href="#DejaVuSans-63" transform="translate(417.730469 0)"/>
      <use xlink:href="#DejaVuSans-68" transform="translate(472.710938 0)"/>
      <use xlink:href="#DejaVuSans-74" transform="translate(536.089844 0)"/>
      <use xlink:href="#DejaVuSans-69" transform="translate(575.298828 0)"/>
      <use xlink:href="#DejaVuSans-67" transform="translate(603.082031 0)"/>
      <use xlink:href="#DejaVuSans-68" transform="translate(666.558594 0)"/>
      <use xlink:href="#DejaVuSans-65" transform="translate(729.9375 0)"/>
      <use xlink:href="#DejaVuSans-69" transform="translate(791.460938 0)"/>
      <use xlink:href="#DejaVuSans-64" transform="translate(819.244141 0)"/>
      <use xlink:href="#DejaVuSans-20" transform="translate(882.720703 0)"/>
      <use xlink:href="#DejaVuSans-28" transform="translate(914.507812 0)"/>
      <use xlink:href="#DejaVuSans-25" transform="translate(953.521484 0)"/>
      <use xlink:href="#DejaVuSans-29" transform="translate(1048.541016 0)"/>
     </g>
    </g>
   </g>
   <g id="line2d_14">
    <path d="M 74.780455 115.865964 
L 78.533306 113.799003 
L 82.286158 111.961705 
L 86.039009 113.339678 
L 89.791861 105.071836 
L 93.544712 105.071836 
L 97.297564 104.612511 
L 101.050415 108.746432 
L 104.803267 114.143496 
L 108.556118 118.277418 
L 112.30897 109.894744 
L 116.061821 115.52147 
L 119.814673 108.51677 
L 123.567524 112.765523 
L 127.320375 107.138796 
L 131.073227 106.909134 
L 134.826078 114.947314 
L 138.57893 123.904144 
L 142.331781 109.665082 
L 146.084633 94.50737 
L 149.837484 104.382849 
L 153.590336 109.435419 
L 161.096039 106.679472 
L 164.84889 108.057446 
L 168.601742 100.363759 
L 187.365999 115.865964 
L 194.871702 109.665082 
L 198.624554 119.999885 
L 202.377405 110.354069 
L 206.130257 108.287108 
L 209.883108 125.51178 
L 213.63596 115.865964 
L 217.388811 118.621911 
L 224.894514 114.48799 
L 232.400217 126.200767 
L 239.90592 124.4783 
L 243.658772 135.157596 
L 247.411623 125.167287 
L 251.164475 130.334688 
L 254.917326 133.090636 
L 262.423029 131.023675 
L 269.928732 131.712662 
L 273.681584 133.779623 
L 277.434435 129.645701 
L 284.940138 129.645701 
L 292.445841 125.282118 
L 299.951544 124.822793 
L 307.457247 122.755832 
L 311.210099 118.621911 
L 314.96295 121.722352 
L 318.715802 110.124406 
L 322.468653 109.665082 
L 326.221505 117.4736 
L 329.974356 114.48799 
L 333.727208 120.688872 
L 337.480059 121.148196 
L 341.232911 123.674482 
L 344.985762 108.51677 
L 348.738614 109.665082 
L 352.491465 116.095626 
L 356.244317 119.310898 
L 367.502871 111.043055 
L 371.255723 115.176977 
L 378.761426 118.621911 
L 382.514277 114.143496 
L 386.267129 121.722352 
L 390.01998 116.55495 
L 397.525683 124.4783 
L 401.278535 122.755832 
L 408.784238 109.665082 
L 412.537089 109.665082 
L 416.289941 111.387549 
L 420.042792 116.899444 
L 427.548495 132.401649 
L 435.054198 120.688872 
L 438.80705 127.578741 
L 446.312753 131.712662 
L 450.065604 122.985495 
L 453.818456 132.057155 
L 457.571307 127.119416 
L 461.324159 118.621911 
L 468.829862 117.932924 
L 472.582713 121.722352 
L 476.335565 114.143496 
L 480.088416 113.799003 
L 483.841268 115.52147 
L 487.594119 128.267727 
L 491.346971 119.999885 
L 495.099822 125.51178 
L 498.852674 124.363468 
L 502.605525 108.51677 
L 506.358377 111.50238 
L 510.111228 115.176977 
L 513.86408 126.889754 
L 517.616931 131.253337 
L 521.369783 115.865964 
L 525.122634 125.51178 
L 528.875486 123.904144 
L 532.628337 132.631311 
L 536.381189 122.755832 
L 540.13404 111.043055 
L 547.639743 131.712662 
L 551.392595 119.999885 
L 555.145446 117.932924 
L 558.898298 128.612221 
L 562.651149 124.822793 
L 566.404001 122.066846 
L 570.156852 107.598121 
L 573.909704 108.976095 
L 577.662555 113.799003 
L 581.415407 131.023675 
L 585.168258 101.052746 
L 588.92111 98.411629 
L 592.673961 84.172567 
L 596.426813 131.368168 
L 603.932516 104.153187 
L 611.438219 133.779623 
L 615.19107 113.799003 
L 618.943922 112.421029 
L 622.696773 135.846583 
L 626.449625 131.023675 
L 630.202476 135.50209 
L 633.955327 125.167287 
L 637.708179 117.932924 
L 645.213882 133.779623 
L 648.966733 126.889754 
L 652.719585 128.956714 
L 656.472436 130.334688 
L 660.225288 124.4783 
L 663.978139 127.234247 
L 667.730991 118.621911 
L 667.730991 118.621911 
" clip-path="url(#p280392a426)" style="fill: none; stroke: #1f77b4; stroke-width: 2; stroke-linecap: square"/>
   </g>
   <g id="line2d_15">
    <path d="M 74.780455 137.815117 
L 78.533306 134.567036 
L 82.286158 134.616249 
L 86.039009 137.224557 
L 89.791861 133.615578 
L 93.544712 132.286818 
L 97.297564 128.267727 
L 101.050415 131.466595 
L 104.803267 125.51178 
L 108.556118 136.322312 
L 112.30897 133.960071 
L 116.061821 134.91153 
L 119.814673 133.090636 
L 123.567524 130.794013 
L 127.320375 127.283461 
L 131.073227 129.580083 
L 134.826078 129.776937 
L 138.57893 129.268399 
L 142.331781 130.597159 
L 146.084633 122.558979 
L 149.837484 130.728395 
L 153.590336 129.055141 
L 157.343187 126.496047 
L 161.096039 129.350421 
L 164.84889 134.534227 
L 168.601742 133.303894 
L 172.354593 140.114474 
L 176.107445 141.013985 
L 179.860296 143.1575 
L 183.613148 140.592937 
L 187.365999 136.043437 
L 191.118851 135.348982 
L 194.871702 133.533556 
L 198.624554 135.026361 
L 202.377405 132.401649 
L 206.130257 133.303894 
L 209.883108 137.749499 
L 213.63596 136.059841 
L 217.388811 137.405006 
L 221.141663 141.913495 
L 224.894514 139.045451 
L 228.647366 150.908602 
L 232.400217 146.37824 
L 236.153069 152.841593 
L 239.90592 151.644068 
L 243.658772 150.594183 
L 247.411623 150.922272 
L 251.164475 150.971486 
L 254.917326 150.528566 
L 258.670178 146.219663 
L 262.423029 145.410377 
L 266.175881 141.932634 
L 269.928732 142.884092 
L 273.681584 143.09735 
L 277.434435 134.534227 
L 281.187287 136.66954 
L 284.940138 137.158939 
L 288.69299 134.908795 
L 292.445841 133.25468 
L 296.198693 134.085839 
L 299.951544 134.665463 
L 303.704396 133.856177 
L 307.457247 130.695586 
L 311.210099 128.136492 
L 314.96295 128.34975 
L 318.715802 124.33066 
L 322.468653 125.085264 
L 326.221505 125.019646 
L 329.974356 125.80706 
L 333.727208 127.578741 
L 337.480059 127.513123 
L 341.232911 123.838526 
L 344.985762 125.183691 
L 348.738614 129.153568 
L 352.491465 131.811089 
L 356.244317 136.666806 
L 359.997168 132.401649 
L 363.75002 140.631214 
L 367.502871 130.203453 
L 371.255723 127.540464 
L 375.008574 125.833307 
L 378.761426 130.990866 
L 382.514277 130.137835 
L 386.267129 135.682539 
L 390.01998 130.449519 
L 393.772832 135.081042 
L 397.525683 134.255352 
L 401.278535 134.074903 
L 405.031386 137.492496 
L 408.784238 139.914887 
L 412.537089 142.736452 
L 416.289941 142.178701 
L 420.042792 140.653087 
L 423.795644 142.430236 
L 427.548495 142.227914 
L 431.301347 140.669491 
L 435.054198 135.20681 
L 438.80705 136.076245 
L 442.559901 136.4016 
L 446.312753 134.517823 
L 450.065604 134.616249 
L 453.818456 132.352435 
L 457.571307 131.417382 
L 461.324159 131.827493 
L 465.07701 137.951821 
L 468.829862 132.303222 
L 472.582713 134.517823 
L 476.335565 133.467938 
L 480.088416 131.007271 
L 483.841268 131.827493 
L 487.594119 131.679853 
L 491.346971 128.267727 
L 495.099822 127.513123 
L 498.852674 128.070874 
L 502.605525 126.856945 
L 506.358377 127.316269 
L 510.111228 126.627283 
L 513.86408 128.300536 
L 517.616931 126.6929 
L 521.369783 126.791327 
L 525.122634 131.975133 
L 528.875486 132.500075 
L 532.628337 140.133613 
L 536.381189 137.492496 
L 540.13404 135.540367 
L 543.886892 134.487748 
L 547.639743 131.893111 
L 551.392595 123.904144 
L 555.145446 128.563008 
L 558.898298 131.836295 
L 562.651149 125.052455 
L 566.404001 134.501418 
L 570.156852 137.549912 
L 573.909704 130.430381 
L 577.662555 132.573895 
L 581.415407 140.653087 
L 585.168258 134.452205 
L 588.92111 132.286818 
L 592.673961 136.068043 
L 596.426813 141.571736 
L 600.179664 145.731631 
L 603.932516 137.880735 
L 607.685367 142.257989 
L 611.438219 142.572408 
L 615.19107 139.750842 
L 618.943922 133.014082 
L 622.696773 124.455333 
L 626.449625 127.027551 
L 630.202476 127.188315 
L 633.955327 124.018975 
L 641.46103 118.334833 
L 645.213882 123.215157 
L 648.966733 135.961414 
L 652.719585 142.449374 
L 656.472436 139.406349 
L 660.225288 135.042765 
L 663.978139 138.545115 
L 667.730991 140.210167 
L 671.483842 153.53058 
L 675.236694 160.879773 
L 678.989545 154.219567 
L 678.989545 154.219567 
" clip-path="url(#p280392a426)" style="fill: none; stroke-dasharray: 5.55,2.4; stroke-dashoffset: 0; stroke: #808080; stroke-width: 1.5"/>
   </g>
   <g id="patch_3">
    <path d="M 44.57 246.04 
L 44.57 26.88 
" style="fill: none; stroke: #000000; stroke-width: 0.8; stroke-linejoin: miter; stroke-linecap: square"/>
   </g>
   <g id="patch_4">
    <path d="M 709.2 246.04 
L 709.2 26.88 
" style="fill: none; stroke: #000000; stroke-width: 0.8; stroke-linejoin: miter; stroke-linecap: square"/>
   </g>
   <g id="patch_5">
    <path d="M 44.57 246.04 
L 709.2 246.04 
" style="fill: none; stroke: #000000; stroke-width: 0.8; stroke-linejoin: miter; stroke-linecap: square"/>
   </g>
   <g id="patch_6">
    <path d="M 44.57 26.88 
L 709.2 26.88 
" style="fill: none; stroke: #000000; stroke-width: 0.8; stroke-linejoin: miter; stroke-linecap: square"/>
   </g>
   <g id="text_16">
    <!-- Luchtvochtigheid - v001/c00001/d011 -->
    <g transform="translate(262.595312 20.88) scale(0.12 -0.12)">
     <defs>
      <path id="DejaVuSans-4c" d="M 628 4666 
L 1259 4666 
L 1259 531 
L 3531 531 
L 3531 0 
L 628 0 
L 628 4666 
z
" transform="scale(0.015625)"/>
      <path id="DejaVuSans-75" d="M 544 1381 
L 544 3500 
L 1119 3500 
L 1119 1403 
Q 1119 906 1312 657 
Q 1506 409 1894 409 
Q 2359 409 2629 706 
Q 2900 1003 2900 1516 
L 2900 3500 
L 3475 3500 
L 3475 0 
L 2900 0 
L 2900 538 
Q 2691 219 2414 64 
Q 2138 -91 1772 -91 
Q 1169 -91 856 284 
Q 544 659 544 1381 
z
M 1991 3584 
L 1991 3584 
z
" transform="scale(0.015625)"/>
      <path id="DejaVuSans-76" d="M 191 3500 
L 800 3500 
L 1894 563 
L 2988 3500 
L 3597 3500 
L 2284 0 
L 1503 0 
L 191 3500 
z
" transform="scale(0.015625)"/>
      <path id="DejaVuSans-2f" d="M 1625 4666 
L 2156 4666 
L 531 -594 
L 0 -594 
L 1625 4666 
z
" transform="scale(0.015625)"/>
     </defs>
     <use xlink:href="#DejaVuSans-4c"/>
     <use xlink:href="#DejaVuSans-75" transform="translate(53.962891 0)"/>
     <use xlink:href="#DejaVuSans-63" transform="translate(117.341797 0)"/>
     <use xlink:href="#DejaVuSans-68" transform="translate(172.322266 0)"/>
     <use xlink:href="#DejaVuSans-74" transform="translate(235.701172 0)"/>
     <use xlink:href="#DejaVuSans-76" transform="translate(274.910156 0)"/>
     <use xlink:href="#DejaVuSans-6f" transform="translate(334.089844 0)"/>
     <use xlink:href="#DejaVuSans-63" transform="translate(395.271484 0)"/>
     <use xlink:href="#DejaVuSans-68" transform="translate(450.251953 0)"/>
     <use xlink:href="#DejaVuSans-74" transform="translate(513.630859 0)"/>
     <use xlink:href="#DejaVuSans-69" transform="translate(552.839844 0)"/>
     <use xlink:href="#DejaVuSans-67" transform="translate(580.623047 0)"/>
     <use xlink:href="#DejaVuSans-68" transform="translate(644.099609 0)"/>
     <use xlink:href="#DejaVuSans-65" transform="translate(707.478516 0)"/>
     <use xlink:href="#DejaVuSans-69" transform="translate(769.001953 0)"/>
     <use xlink:href="#DejaVuSans-64" transform="translate(796.785156 0)"/>
     <use xlink:href="#DejaVuSans-20" transform="translate(860.261719 0)"/>
     <use xlink:href="#DejaVuSans-2d" transform="translate(892.048828 0)"/>
     <use xlink:href="#DejaVuSans-20" transform="translate(928.132812 0)"/>
     <use xlink:href="#DejaVuSans-76" transform="translate(959.919922 0)"/>
     <use xlink:href="#DejaVuSans-30" transform="translate(1019.099609 0)"/>
     <use xlink:href="#DejaVuSans-30" transform="translate(1082.722656 0)"/>
     <use xlink:href="#DejaVuSans-31" transform="translate(1146.345703 0)"/>
     <use xlink:href="#DejaVuSans-2f" transform="translate(1209.96875 0)"/>
     <use xlink:href="#DejaVuSans-63" transform="translate(1243.660156 0)"/>
     <use xlink:href="#DejaVuSans-30" transform="translate(1298.640625 0)"/>
     <use xlink:href="#DejaVuSans-30" transform="translate(1362.263672 0)"/>
     <use xlink:href="#DejaVuSans-30" transform="translate(1425.886719 0)"/>
     <use xlink:href="#DejaVuSans-30" transform="translate(1489.509766 0)"/>
     <use xlink:href="#DejaVuSans-31" transform="translate(1553.132812 0)"/>
     <use xlink:href="#DejaVuSans-2f" transform="translate(1616.755859 0)"/>
     <use xlink:href="#DejaVuSans-64" transform="translate(1650.447266 0)"/>
     <use xlink:href="#DejaVuSans-30" transform="translate(1713.923828 0)"/>
     <use xlink:href="#DejaVuSans-31" transform="translate(1777.546875 0)"/>
     <use xlink:href="#DejaVuSans-31" transform="translate(1841.169922 0)"/>
    </g>
   </g>
   <g id="legend_1">
    <g id="patch_7">
     <path d="M 551.25625 241.04 
L 702.2 241.04 
Q 704.2 241.04 704.2 239.04 
L 704.2 196.005625 
Q 704.2 194.005625 702.2 194.005625 
L 551.25625 194.005625 
Q 549.25625 194.005625 549.25625 196.005625 
L 549.25625 239.04 
Q 549.25625 241.04 551.25625 241.04 
z
" style="fill: #ffffff; opacity: 0.8; stroke: #cccccc; stroke-linejoin: miter"/>
    </g>
    <g id="line2d_16">
     <path d="M 553.25625 202.104062 
L 563.25625 202.104062 
L 573.25625 202.104062 
" style="fill: none; stroke: #1f77b4; stroke-width: 2; stroke-linecap: square"/>
    </g>
    <g id="text_17">
     <!-- Hive -->
     <g transform="translate(581.25625 205.604062) scale(0.1 -0.1)">
      <defs>
       <path id="DejaVuSans-48" d="M 628 4666 
L 1259 4666 
L 1259 2753 
L 3553 2753 
L 3553 4666 
L 4184 4666 
L 4184 0 
L 3553 0 
L 3553 2222 
L 1259 2222 
L 1259 0 
L 628 0 
L 628 4666 
z
" transform="scale(0.015625)"/>
      </defs>
      <use xlink:href="#DejaVuSans-48"/>
      <use xlink:href="#DejaVuSans-69" transform="translate(75.195312 0)"/>
      <use xlink:href="#DejaVuSans-76" transform="translate(102.978516 0)"/>
      <use xlink:href="#DejaVuSans-65" transform="translate(162.158203 0)"/>
     </g>
    </g>
    <g id="line2d_17">
     <path d="M 553.25625 216.782187 
L 563.25625 216.782187 
L 573.25625 216.782187 
" style="fill: none; stroke-dasharray: 5.55,2.4; stroke-dashoffset: 0; stroke: #808080; stroke-width: 1.5"/>
    </g>
    <g id="text_18">
     <!-- Gemiddelde (alle hives) -->
     <g transform="translate(581.25625 220.282187) scale(0.1 -0.1)">
      <defs>
       <path id="DejaVuSans-47" d="M 3809 666 
L 3809 1919 
L 2778 1919 
L 2778 2438 
L 4434 2438 
L 4434 434 
Q 4069 175 3628 42 
Q 3188 -91 2688 -91 
Q 1594 -91 976 548 
Q 359 1188 359 2328 
Q 359 3472 976 4111 
Q 1594 4750 2688 4750 
Q 3144 4750 3555 4637 
Q 3966 4525 4313 4306 
L 4313 3634 
Q 3963 3931 3569 4081 
Q 3175 4231 2741 4231 
Q 1884 4231 1454 3753 
Q 1025 3275 1025 2328 
Q 1025 1384 1454 906 
Q 1884 428 2741 428 
Q 3075 428 3337 486 
Q 3600 544 3809 666 
z
" transform="scale(0.015625)"/>
       <path id="DejaVuSans-6d" d="M 3328 2828 
Q 3544 3216 3844 3400 
Q 4144 3584 4550 3584 
Q 5097 3584 5394 3201 
Q 5691 2819 5691 2113 
L 5691 0 
L 5113 0 
L 5113 2094 
Q 5113 2597 4934 2840 
Q 4756 3084 4391 3084 
Q 3944 3084 3684 2787 
Q 3425 2491 3425 1978 
L 3425 0 
L 2847 0 
L 2847 2094 
Q 2847 2600 2669 2842 
Q 2491 3084 2119 3084 
Q 1678 3084 1418 2786 
Q 1159 2488 1159 1978 
L 1159 0 
L 581 0 
L 581 3500 
L 1159 3500 
L 1159 2956 
Q 1356 3278 1631 3431 
Q 1906 3584 2284 3584 
Q 2666 3584 2933 3390 
Q 3200 3197 3328 2828 
z
" transform="scale(0.015625)"/>
       <path id="DejaVuSans-61" d="M 2194 1759 
Q 1497 1759 1228 1600 
Q 959 1441 959 1056 
Q 959 750 1161 570 
Q 1363 391 1709 391 
Q 2188 391 2477 730 
Q 2766 1069 2766 1631 
L 2766 1759 
L 2194 1759 
z
M 3341 1997 
L 3341 0 
L 2766 0 
L 2766 531 
Q 2569 213 2275 61 
Q 1981 -91 1556 -91 
Q 1019 -91 701 211 
Q 384 513 384 1019 
Q 384 1609 779 1909 
Q 1175 2209 1959 2209 
L 2766 2209 
L 2766 2266 
Q 2766 2663 2505 2880 
Q 2244 3097 1772 3097 
Q 1472 3097 1187 3025 
Q 903 2953 641 2809 
L 641 3341 
Q 956 3463 1253 3523 
Q 1550 3584 1831 3584 
Q 2591 3584 2966 3190 
Q 3341 2797 3341 1997 
z
" transform="scale(0.015625)"/>
       <path id="DejaVuSans-73" d="M 2834 3397 
L 2834 2853 
Q 2591 2978 2328 3040 
Q 2066 3103 1784 3103 
Q 1356 3103 1142 2972 
Q 928 2841 928 2578 
Q 928 2378 1081 2264 
Q 1234 2150 1697 2047 
L 1894 2003 
Q 2506 1872 2764 1633 
Q 3022 1394 3022 966 
Q 3022 478 2636 193 
Q 2250 -91 1575 -91 
Q 1294 -91 989 -36 
Q 684 19 347 128 
L 347 722 
Q 666 556 975 473 
Q 1284 391 1588 391 
Q 1994 391 2212 530 
Q 2431 669 2431 922 
Q 2431 1156 2273 1281 
Q 2116 1406 1581 1522 
L 1381 1569 
Q 847 1681 609 1914 
Q 372 2147 372 2553 
Q 372 3047 722 3315 
Q 1072 3584 1716 3584 
Q 2034 3584 2315 3537 
Q 2597 3491 2834 3397 
z
" transform="scale(0.015625)"/>
      </defs>
      <use xlink:href="#DejaVuSans-47"/>
      <use xlink:href="#DejaVuSans-65" transform="translate(77.490234 0)"/>
      <use xlink:href="#DejaVuSans-6d" transform="translate(139.013672 0)"/>
      <use xlink:href="#DejaVuSans-69" transform="translate(236.425781 0)"/>
      <use xlink:href="#DejaVuSans-64" transform="translate(264.208984 0)"/>
      <use xlink:href="#DejaVuSans-64" transform="translate(327.685547 0)"/>
      <use xlink:href="#DejaVuSans-65" transform="translate(391.162109 0)"/>
      <use xlink:href="#DejaVuSans-6c" transform="translate(452.685547 0)"/>
      <use xlink:href="#DejaVuSans-64" transform="translate(480.46875 0)"/>
      <use xlink:href="#DejaVuSans-65" transform="translate(543.945312 0)"/>
      <use xlink:href="#DejaVuSans-20" transform="translate(605.46875 0)"/>
      <use xlink:href="#DejaVuSans-28" transform="translate(637.255859 0)"/>
      <use xlink:href="#DejaVuSans-61" transform="translate(676.269531 0)"/>
      <use xlink:href="#DejaVuSans-6c" transform="translate(737.548828 0)"/>
      <use xlink:href="#DejaVuSans-6c" transform="translate(765.332031 0)"/>
      <use xlink:href="#DejaVuSans-65" transform="translate(793.115234 0)"/>
      <use xlink:href="#DejaVuSans-20" transform="translate(854.638672 0)"/>
      <use xlink:href="#DejaVuSans-68" transform="translate(886.425781 0)"/>
      <use xlink:href="#DejaVuSans-69" transform="translate(949.804688 0)"/>
      <use xlink:href="#DejaVuSans-76" transform="translate(977.587891 0)"/>
      <use xlink:href="#DejaVuSans-65" transform="translate(1036.767578 0)"/>
      <use xlink:href="#DejaVuSans-73" transform="translate(1098.291016 0)"/>
      <use xlink:href="#DejaVuSans-29" transform="translate(1150.390625 0)"/>
     </g>
    </g>
    <g id="patch_8">
     <path d="M 553.25625 234.960312 
L 573.25625 234.960312 
L 573.25625 227.960312 
L 553.25625 227.960312 
z
" style="fill: #808080; fill-opacity: 0.2; stroke: #808080; stroke-opacity: 0.2; stroke-linejoin: miter"/>
    </g>
    <g id="text_19">
     <!-- 2 Std Dev -->
     <g transform="translate(581.25625 234.960312) scale(0.1 -0.1)">
      <defs>
       <path id="DejaVuSans-b1" d="M 2944 4013 
L 2944 2803 
L 4684 2803 
L 4684 2272 
L 2944 2272 
L 2944 1063 
L 2419 1063 
L 2419 2272 
L 678 2272 
L 678 2803 
L 2419 2803 
L 2419 4013 
L 2944 4013 
z
M 678 531 
L 4684 531 
L 4684 0 
L 678 0 
L 678 531 
z
" transform="scale(0.015625)"/>
       <path id="DejaVuSans-53" d="M 3425 4513 
L 3425 3897 
Q 3066 4069 2747 4153 
Q 2428 4238 2131 4238 
Q 1616 4238 1336 4038 
Q 1056 3838 1056 3469 
Q 1056 3159 1242 3001 
Q 1428 2844 1947 2747 
L 2328 2669 
Q 3034 2534 3370 2195 
Q 3706 1856 3706 1288 
Q 3706 609 3251 259 
Q 2797 -91 1919 -91 
Q 1588 -91 1214 -16 
Q 841 59 441 206 
L 441 856 
Q 825 641 1194 531 
Q 1563 422 1919 422 
Q 2459 422 2753 634 
Q 3047 847 3047 1241 
Q 3047 1584 2836 1778 
Q 2625 1972 2144 2069 
L 1759 2144 
Q 1053 2284 737 2584 
Q 422 2884 422 3419 
Q 422 4038 858 4394 
Q 1294 4750 2059 4750 
Q 2388 4750 2728 4690 
Q 3069 4631 3425 4513 
z
" transform="scale(0.015625)"/>
       <path id="DejaVuSans-44" d="M 1259 4147 
L 1259 519 
L 2022 519 
Q 2988 519 3436 956 
Q 3884 1394 3884 2338 
Q 3884 3275 3436 3711 
Q 2988 4147 2022 4147 
L 1259 4147 
z
M 628 4666 
L 1925 4666 
Q 3281 4666 3915 4102 
Q 4550 3538 4550 2338 
Q 4550 1131 3912 565 
Q 3275 0 1925 0 
L 628 0 
L 628 4666 
z
" transform="scale(0.015625)"/>
      </defs>
      <use xlink:href="#DejaVuSans-b1"/>
      <use xlink:href="#DejaVuSans-32" transform="translate(83.789062 0)"/>
      <use xlink:href="#DejaVuSans-20" transform="translate(147.412109 0)"/>
      <use xlink:href="#DejaVuSans-53" transform="translate(179.199219 0)"/>
      <use xlink:href="#DejaVuSans-74" transform="translate(242.675781 0)"/>
      <use xlink:href="#DejaVuSans-64" transform="translate(281.884766 0)"/>
      <use xlink:href="#DejaVuSans-20" transform="translate(345.361328 0)"/>
      <use xlink:href="#DejaVuSans-44" transform="translate(377.148438 0)"/>
      <use xlink:href="#DejaVuSans-65" transform="translate(454.150391 0)"/>
      <use xlink:href="#DejaVuSans-76" transform="translate(515.673828 0)"/>
     </g>
    </g>
   </g>
  </g>
 </g>
 <defs>
  <clipPath id="p280392a426">
   <rect x="44.57" y="26.88" width="664.63" height="219.16"/>
  </clipPath>
 </defs>
</svg>
