<?xml version="1.0" encoding="utf-8" standalone="no"?>
<!DOCTYPE svg PUBLIC "-//W3C//DTD SVG 1.1//EN"
  "http://www.w3.org/Graphics/SVG/1.1/DTD/svg11.dtd">
<svg xmlns:xlink="http://www.w3.org/1999/xlink" width="720pt" height="288pt" viewBox="0 0 720 288" xmlns="http://www.w3.org/2000/svg" version="1.1">
 <metadata>
  <rdf:RDF xmlns:dc="http://purl.org/dc/elements/1.1/" xmlns:cc="http://creativecommons.org/ns#" xmlns:rdf="http://www.w3.org/1999/02/22-rdf-syntax-ns#">
   <cc:Work>
    <dc:type rdf:resource="http://purl.org/dc/dcmitype/StillImage"/>
    <dc:date>2025-05-27T07:16:38.162812</dc:date>
    <dc:format>image/svg+xml</dc:format>
    <dc:creator>
     <cc:Agent>
      <dc:title>Matplotlib v3.10.3, https://matplotlib.org/</dc:title>
     </cc:Agent>
    </dc:creator>
   </cc:Work>
  </rdf:RDF>
 </metadata>
 <defs>
  <style type="text/css">*{stroke-linejoin: round; stroke-linecap: butt}</style>
 </defs>
 <g id="figure_1">
  <g id="patch_1">
   <path d="M 0 288 
L 720 288 
L 720 0 
L 0 0 
z
" style="fill: #ffffff"/>
  </g>
  <g id="axes_1">
   <g id="patch_2">
    <path d="M 50.87 246.04 
L 709.2 246.04 
L 709.2 26.88 
L 50.87 26.88 
z
" style="fill: #ffffff"/>
   </g>
   <g id="FillBetweenPolyCollection_1">
    <defs>
     <path id="m52021c2512" d="M 80.794091 -203.179482 
L 80.794091 -140.521851 
L 84.558128 -134.558792 
L 88.322164 -140.682272 
L 92.086201 -147.07962 
L 95.850237 -148.762308 
L 99.614274 -148.478708 
L 103.37831 -150.056832 
L 107.142347 -156.408148 
L 110.906384 -150.998791 
L 114.67042 -148.819842 
L 118.434457 -145.939608 
L 122.198493 -138.222598 
L 125.96253 -135.582026 
L 129.726567 -137.277886 
L 133.490603 -141.358572 
L 137.25464 -138.982121 
L 141.018676 -142.458109 
L 144.782713 -146.263929 
L 148.54675 -152.054342 
L 152.310786 -160.885575 
L 156.074823 -172.104226 
L 159.838859 -176.3157 
L 163.602896 -179.013182 
L 167.366933 -186.198156 
L 171.130969 -179.797623 
L 174.895006 -180.944437 
L 178.659042 -179.717334 
L 182.423079 -181.089903 
L 186.187115 -183.255198 
L 189.951152 -185.379459 
L 193.715189 -184.426642 
L 197.479225 -186.647696 
L 201.243262 -187.607287 
L 205.007298 -186.941092 
L 208.771335 -187.854691 
L 212.535372 -199.441419 
L 216.299408 -199.944325 
L 220.063445 -185.358785 
L 223.827481 -188.459606 
L 227.591518 -192.158617 
L 231.355555 -190.323196 
L 235.119591 -189.982623 
L 238.883628 -188.117145 
L 242.647664 -187.249605 
L 246.411701 -183.10446 
L 250.175738 -186.888048 
L 253.939774 -192.428509 
L 257.703811 -193.912537 
L 261.467847 -194.802258 
L 265.231884 -194.496654 
L 268.995921 -208.484698 
L 272.759957 -197.900762 
L 276.523994 -197.191188 
L 280.28803 -193.235014 
L 284.052067 -189.713242 
L 287.816103 -186.066157 
L 291.58014 -168.704624 
L 295.344177 -167.254395 
L 299.108213 -161.263395 
L 302.87225 -147.039818 
L 306.636286 -135.93277 
L 310.400323 -122.874185 
L 314.16436 -102.470175 
L 317.928396 -122.589654 
L 321.692433 -125.379613 
L 325.456469 -105.243112 
L 329.220506 -115.668791 
L 332.984543 -131.004757 
L 336.748579 -144.376722 
L 340.512616 -142.598773 
L 344.276652 -130.271435 
L 348.040689 -135.757472 
L 351.804726 -140.209206 
L 355.568762 -141.086603 
L 359.332799 -146.182233 
L 363.096835 -145.148155 
L 366.860872 -145.612697 
L 370.624909 -147.733141 
L 374.388945 -146.556295 
L 378.152982 -151.108932 
L 381.917018 -152.334646 
L 385.681055 -153.433999 
L 389.445091 -155.44201 
L 393.209128 -156.791082 
L 396.973165 -159.648174 
L 400.737201 -157.863989 
L 404.501238 -156.166075 
L 408.265274 -155.117873 
L 412.029311 -156.77989 
L 415.793348 -159.053529 
L 419.557384 -160.16605 
L 423.321421 -158.014317 
L 427.085457 -154.695531 
L 430.849494 -157.030704 
L 434.613531 -160.140693 
L 438.377567 -161.503879 
L 442.141604 -158.197091 
L 445.90564 -155.849391 
L 449.669677 -159.030636 
L 453.433714 -150.80415 
L 457.19775 -147.503847 
L 460.961787 -140.376468 
L 464.725823 -138.311566 
L 468.48986 -130.321179 
L 472.253897 -125.680124 
L 476.017933 -113.648665 
L 479.78197 -112.085307 
L 483.546006 -107.451589 
L 487.310043 -93.49892 
L 491.074079 -83.331648 
L 494.838116 -74.815024 
L 498.602153 -80.858226 
L 502.366189 -51.921818 
L 506.130226 -54.174688 
L 509.894262 -61.599563 
L 513.658299 -80.501722 
L 517.422336 -85.372077 
L 521.186372 -83.815079 
L 524.950409 -97.867785 
L 528.714445 -108.970527 
L 532.478482 -105.055957 
L 536.242519 -110.239917 
L 540.006555 -107.798597 
L 543.770592 -120.214407 
L 547.534628 -113.791216 
L 551.298665 -123.467597 
L 555.062702 -126.084513 
L 558.826738 -129.01678 
L 562.590775 -124.669513 
L 566.354811 -129.874489 
L 570.118848 -128.720287 
L 573.882885 -133.291414 
L 577.646921 -136.677596 
L 581.410958 -136.650919 
L 585.174994 -149.055534 
L 588.939031 -138.040557 
L 592.703067 -135.91396 
L 596.467104 -140.32581 
L 600.231141 -144.428475 
L 603.995177 -144.272895 
L 607.759214 -144.689422 
L 611.52325 -146.156363 
L 615.287287 -151.96001 
L 619.051324 -154.271143 
L 622.81536 -164.032834 
L 626.579397 -173.127713 
L 630.343433 -179.953755 
L 634.10747 -185.481428 
L 637.871507 -186.631109 
L 641.635543 -178.629826 
L 645.39958 -172.889491 
L 649.163616 -167.469599 
L 652.927653 -164.538027 
L 656.69169 -162.641476 
L 656.69169 -251.158182 
L 656.69169 -251.158182 
L 652.927653 -245.333062 
L 649.163616 -243.932966 
L 645.39958 -241.442854 
L 641.635543 -220.032633 
L 637.871507 -207.991805 
L 634.10747 -211.638458 
L 630.343433 -211.239983 
L 626.579397 -207.079349 
L 622.81536 -205.797923 
L 619.051324 -208.190773 
L 615.287287 -216.028536 
L 611.52325 -215.606401 
L 607.759214 -215.342107 
L 603.995177 -216.058271 
L 600.231141 -211.652289 
L 596.467104 -208.397211 
L 592.703067 -211.011241 
L 588.939031 -203.258134 
L 585.174994 -193.430606 
L 581.410958 -186.338864 
L 577.646921 -169.807758 
L 573.882885 -167.267793 
L 570.118848 -168.820359 
L 566.354811 -163.981735 
L 562.590775 -163.593494 
L 558.826738 -156.138885 
L 555.062702 -155.053801 
L 551.298665 -155.229233 
L 547.534628 -154.473821 
L 543.770592 -147.051841 
L 540.006555 -146.660959 
L 536.242519 -145.862092 
L 532.478482 -135.664705 
L 528.714445 -128.986819 
L 524.950409 -138.369425 
L 521.186372 -154.13117 
L 517.422336 -153.794914 
L 513.658299 -164.458244 
L 509.894262 -181.71795 
L 506.130226 -182.839358 
L 502.366189 -187.855543 
L 498.602153 -197.745385 
L 494.838116 -193.738552 
L 491.074079 -198.894236 
L 487.310043 -201.356093 
L 483.546006 -201.641713 
L 479.78197 -205.508797 
L 476.017933 -209.971465 
L 472.253897 -210.225108 
L 468.48986 -210.27836 
L 464.725823 -209.113029 
L 460.961787 -211.209748 
L 457.19775 -210.896327 
L 453.433714 -213.599855 
L 449.669677 -213.672194 
L 445.90564 -213.060261 
L 442.141604 -214.962962 
L 438.377567 -213.786923 
L 434.613531 -216.603902 
L 430.849494 -218.715102 
L 427.085457 -217.754272 
L 423.321421 -216.721602 
L 419.557384 -217.699407 
L 415.793348 -218.978394 
L 412.029311 -218.388838 
L 408.265274 -217.14327 
L 404.501238 -213.473802 
L 400.737201 -212.33521 
L 396.973165 -211.669668 
L 393.209128 -208.312074 
L 389.445091 -208.662358 
L 385.681055 -207.807175 
L 381.917018 -206.820169 
L 378.152982 -207.491 
L 374.388945 -204.341865 
L 370.624909 -201.034271 
L 366.860872 -195.031232 
L 363.096835 -189.991339 
L 359.332799 -191.642893 
L 355.568762 -194.541187 
L 351.804726 -190.557812 
L 348.040689 -199.004701 
L 344.276652 -198.80874 
L 340.512616 -187.347019 
L 336.748579 -193.736943 
L 332.984543 -202.703139 
L 329.220506 -210.992096 
L 325.456469 -217.067495 
L 321.692433 -219.070812 
L 317.928396 -226.810324 
L 314.16436 -242.113421 
L 310.400323 -235.503794 
L 306.636286 -244.229902 
L 302.87225 -245.296979 
L 299.108213 -246.49914 
L 295.344177 -246.722825 
L 291.58014 -246.182604 
L 287.816103 -238.143099 
L 284.052067 -236.626764 
L 280.28803 -233.959511 
L 276.523994 -233.044095 
L 272.759957 -232.023786 
L 268.995921 -224.531656 
L 265.231884 -229.279794 
L 261.467847 -230.372494 
L 257.703811 -232.194418 
L 253.939774 -233.267833 
L 250.175738 -237.110353 
L 246.411701 -239.462344 
L 242.647664 -237.037335 
L 238.883628 -236.103209 
L 235.119591 -234.992372 
L 231.355555 -235.195584 
L 227.591518 -234.370049 
L 223.827481 -234.741983 
L 220.063445 -236.431183 
L 216.299408 -232.898906 
L 212.535372 -233.02893 
L 208.771335 -236.487737 
L 205.007298 -236.313766 
L 201.243262 -234.915126 
L 197.479225 -233.677382 
L 193.715189 -233.201706 
L 189.951152 -232.082425 
L 186.187115 -232.897162 
L 182.423079 -233.952692 
L 178.659042 -234.520682 
L 174.895006 -233.432299 
L 171.130969 -234.934237 
L 167.366933 -233.594235 
L 163.602896 -232.411579 
L 159.838859 -232.645382 
L 156.074823 -233.283411 
L 152.310786 -236.456264 
L 148.54675 -237.119624 
L 144.782713 -237.616456 
L 141.018676 -237.460414 
L 137.25464 -236.752587 
L 133.490603 -232.667098 
L 129.726567 -226.948556 
L 125.96253 -217.901888 
L 122.198493 -210.416081 
L 118.434457 -203.371589 
L 114.67042 -195.763755 
L 110.906384 -190.865881 
L 107.142347 -182.68211 
L 103.37831 -178.335289 
L 99.614274 -178.426327 
L 95.850237 -180.939336 
L 92.086201 -185.778196 
L 88.322164 -187.898509 
L 84.558128 -193.877719 
L 80.794091 -203.179482 
z
" style="stroke: #808080; stroke-opacity: 0.2"/>
    </defs>
    <g clip-path="url(#pd6f661ca90)">
     <use xlink:href="#m52021c2512" x="0" y="288" style="fill: #808080; fill-opacity: 0.2; stroke: #808080; stroke-opacity: 0.2"/>
    </g>
   </g>
   <g id="matplotlib.axis_1">
    <g id="xtick_1">
     <g id="line2d_1">
      <defs>
       <path id="m06ca5b48e2" d="M 0 0 
L 0 3.5 
" style="stroke: #000000; stroke-width: 0.8"/>
      </defs>
      <g>
       <use xlink:href="#m06ca5b48e2" x="118.434457" y="246.04" style="stroke: #000000; stroke-width: 0.8"/>
      </g>
     </g>
     <g id="text_1">
      <!-- 05-24 12 -->
      <g transform="translate(95.953988 260.638438) scale(0.1 -0.1)">
       <defs>
        <path id="DejaVuSans-30" d="M 2034 4250 
Q 1547 4250 1301 3770 
Q 1056 3291 1056 2328 
Q 1056 1369 1301 889 
Q 1547 409 2034 409 
Q 2525 409 2770 889 
Q 3016 1369 3016 2328 
Q 3016 3291 2770 3770 
Q 2525 4250 2034 4250 
z
M 2034 4750 
Q 2819 4750 3233 4129 
Q 3647 3509 3647 2328 
Q 3647 1150 3233 529 
Q 2819 -91 2034 -91 
Q 1250 -91 836 529 
Q 422 1150 422 2328 
Q 422 3509 836 4129 
Q 1250 4750 2034 4750 
z
" transform="scale(0.015625)"/>
        <path id="DejaVuSans-35" d="M 691 4666 
L 3169 4666 
L 3169 4134 
L 1269 4134 
L 1269 2991 
Q 1406 3038 1543 3061 
Q 1681 3084 1819 3084 
Q 2600 3084 3056 2656 
Q 3513 2228 3513 1497 
Q 3513 744 3044 326 
Q 2575 -91 1722 -91 
Q 1428 -91 1123 -41 
Q 819 9 494 109 
L 494 744 
Q 775 591 1075 516 
Q 1375 441 1709 441 
Q 2250 441 2565 725 
Q 2881 1009 2881 1497 
Q 2881 1984 2565 2268 
Q 2250 2553 1709 2553 
Q 1456 2553 1204 2497 
Q 953 2441 691 2322 
L 691 4666 
z
" transform="scale(0.015625)"/>
        <path id="DejaVuSans-2d" d="M 313 2009 
L 1997 2009 
L 1997 1497 
L 313 1497 
L 313 2009 
z
" transform="scale(0.015625)"/>
        <path id="DejaVuSans-32" d="M 1228 531 
L 3431 531 
L 3431 0 
L 469 0 
L 469 531 
Q 828 903 1448 1529 
Q 2069 2156 2228 2338 
Q 2531 2678 2651 2914 
Q 2772 3150 2772 3378 
Q 2772 3750 2511 3984 
Q 2250 4219 1831 4219 
Q 1534 4219 1204 4116 
Q 875 4013 500 3803 
L 500 4441 
Q 881 4594 1212 4672 
Q 1544 4750 1819 4750 
Q 2544 4750 2975 4387 
Q 3406 4025 3406 3419 
Q 3406 3131 3298 2873 
Q 3191 2616 2906 2266 
Q 2828 2175 2409 1742 
Q 1991 1309 1228 531 
z
" transform="scale(0.015625)"/>
        <path id="DejaVuSans-34" d="M 2419 4116 
L 825 1625 
L 2419 1625 
L 2419 4116 
z
M 2253 4666 
L 3047 4666 
L 3047 1625 
L 3713 1625 
L 3713 1100 
L 3047 1100 
L 3047 0 
L 2419 0 
L 2419 1100 
L 313 1100 
L 313 1709 
L 2253 4666 
z
" transform="scale(0.015625)"/>
        <path id="DejaVuSans-20" transform="scale(0.015625)"/>
        <path id="DejaVuSans-31" d="M 794 531 
L 1825 531 
L 1825 4091 
L 703 3866 
L 703 4441 
L 1819 4666 
L 2450 4666 
L 2450 531 
L 3481 531 
L 3481 0 
L 794 0 
L 794 531 
z
" transform="scale(0.015625)"/>
       </defs>
       <use xlink:href="#DejaVuSans-30"/>
       <use xlink:href="#DejaVuSans-35" transform="translate(63.623047 0)"/>
       <use xlink:href="#DejaVuSans-2d" transform="translate(127.246094 0)"/>
       <use xlink:href="#DejaVuSans-32" transform="translate(163.330078 0)"/>
       <use xlink:href="#DejaVuSans-34" transform="translate(226.953125 0)"/>
       <use xlink:href="#DejaVuSans-20" transform="translate(290.576172 0)"/>
       <use xlink:href="#DejaVuSans-31" transform="translate(322.363281 0)"/>
       <use xlink:href="#DejaVuSans-32" transform="translate(385.986328 0)"/>
      </g>
     </g>
    </g>
    <g id="xtick_2">
     <g id="line2d_2">
      <g>
       <use xlink:href="#m06ca5b48e2" x="208.771335" y="246.04" style="stroke: #000000; stroke-width: 0.8"/>
      </g>
     </g>
     <g id="text_2">
      <!-- 05-25 00 -->
      <g transform="translate(186.290866 260.638438) scale(0.1 -0.1)">
       <use xlink:href="#DejaVuSans-30"/>
       <use xlink:href="#DejaVuSans-35" transform="translate(63.623047 0)"/>
       <use xlink:href="#DejaVuSans-2d" transform="translate(127.246094 0)"/>
       <use xlink:href="#DejaVuSans-32" transform="translate(163.330078 0)"/>
       <use xlink:href="#DejaVuSans-35" transform="translate(226.953125 0)"/>
       <use xlink:href="#DejaVuSans-20" transform="translate(290.576172 0)"/>
       <use xlink:href="#DejaVuSans-30" transform="translate(322.363281 0)"/>
       <use xlink:href="#DejaVuSans-30" transform="translate(385.986328 0)"/>
      </g>
     </g>
    </g>
    <g id="xtick_3">
     <g id="line2d_3">
      <g>
       <use xlink:href="#m06ca5b48e2" x="299.108213" y="246.04" style="stroke: #000000; stroke-width: 0.8"/>
      </g>
     </g>
     <g id="text_3">
      <!-- 05-25 12 -->
      <g transform="translate(276.627745 260.638438) scale(0.1 -0.1)">
       <use xlink:href="#DejaVuSans-30"/>
       <use xlink:href="#DejaVuSans-35" transform="translate(63.623047 0)"/>
       <use xlink:href="#DejaVuSans-2d" transform="translate(127.246094 0)"/>
       <use xlink:href="#DejaVuSans-32" transform="translate(163.330078 0)"/>
       <use xlink:href="#DejaVuSans-35" transform="translate(226.953125 0)"/>
       <use xlink:href="#DejaVuSans-20" transform="translate(290.576172 0)"/>
       <use xlink:href="#DejaVuSans-31" transform="translate(322.363281 0)"/>
       <use xlink:href="#DejaVuSans-32" transform="translate(385.986328 0)"/>
      </g>
     </g>
    </g>
    <g id="xtick_4">
     <g id="line2d_4">
      <g>
       <use xlink:href="#m06ca5b48e2" x="389.445091" y="246.04" style="stroke: #000000; stroke-width: 0.8"/>
      </g>
     </g>
     <g id="text_4">
      <!-- 05-26 00 -->
      <g transform="translate(366.964623 260.638438) scale(0.1 -0.1)">
       <defs>
        <path id="DejaVuSans-36" d="M 2113 2584 
Q 1688 2584 1439 2293 
Q 1191 2003 1191 1497 
Q 1191 994 1439 701 
Q 1688 409 2113 409 
Q 2538 409 2786 701 
Q 3034 994 3034 1497 
Q 3034 2003 2786 2293 
Q 2538 2584 2113 2584 
z
M 3366 4563 
L 3366 3988 
Q 3128 4100 2886 4159 
Q 2644 4219 2406 4219 
Q 1781 4219 1451 3797 
Q 1122 3375 1075 2522 
Q 1259 2794 1537 2939 
Q 1816 3084 2150 3084 
Q 2853 3084 3261 2657 
Q 3669 2231 3669 1497 
Q 3669 778 3244 343 
Q 2819 -91 2113 -91 
Q 1303 -91 875 529 
Q 447 1150 447 2328 
Q 447 3434 972 4092 
Q 1497 4750 2381 4750 
Q 2619 4750 2861 4703 
Q 3103 4656 3366 4563 
z
" transform="scale(0.015625)"/>
       </defs>
       <use xlink:href="#DejaVuSans-30"/>
       <use xlink:href="#DejaVuSans-35" transform="translate(63.623047 0)"/>
       <use xlink:href="#DejaVuSans-2d" transform="translate(127.246094 0)"/>
       <use xlink:href="#DejaVuSans-32" transform="translate(163.330078 0)"/>
       <use xlink:href="#DejaVuSans-36" transform="translate(226.953125 0)"/>
       <use xlink:href="#DejaVuSans-20" transform="translate(290.576172 0)"/>
       <use xlink:href="#DejaVuSans-30" transform="translate(322.363281 0)"/>
       <use xlink:href="#DejaVuSans-30" transform="translate(385.986328 0)"/>
      </g>
     </g>
    </g>
    <g id="xtick_5">
     <g id="line2d_5">
      <g>
       <use xlink:href="#m06ca5b48e2" x="479.78197" y="246.04" style="stroke: #000000; stroke-width: 0.8"/>
      </g>
     </g>
     <g id="text_5">
      <!-- 05-26 12 -->
      <g transform="translate(457.301501 260.638438) scale(0.1 -0.1)">
       <use xlink:href="#DejaVuSans-30"/>
       <use xlink:href="#DejaVuSans-35" transform="translate(63.623047 0)"/>
       <use xlink:href="#DejaVuSans-2d" transform="translate(127.246094 0)"/>
       <use xlink:href="#DejaVuSans-32" transform="translate(163.330078 0)"/>
       <use xlink:href="#DejaVuSans-36" transform="translate(226.953125 0)"/>
       <use xlink:href="#DejaVuSans-20" transform="translate(290.576172 0)"/>
       <use xlink:href="#DejaVuSans-31" transform="translate(322.363281 0)"/>
       <use xlink:href="#DejaVuSans-32" transform="translate(385.986328 0)"/>
      </g>
     </g>
    </g>
    <g id="xtick_6">
     <g id="line2d_6">
      <g>
       <use xlink:href="#m06ca5b48e2" x="570.118848" y="246.04" style="stroke: #000000; stroke-width: 0.8"/>
      </g>
     </g>
     <g id="text_6">
      <!-- 05-27 00 -->
      <g transform="translate(547.638379 260.638438) scale(0.1 -0.1)">
       <defs>
        <path id="DejaVuSans-37" d="M 525 4666 
L 3525 4666 
L 3525 4397 
L 1831 0 
L 1172 0 
L 2766 4134 
L 525 4134 
L 525 4666 
z
" transform="scale(0.015625)"/>
       </defs>
       <use xlink:href="#DejaVuSans-30"/>
       <use xlink:href="#DejaVuSans-35" transform="translate(63.623047 0)"/>
       <use xlink:href="#DejaVuSans-2d" transform="translate(127.246094 0)"/>
       <use xlink:href="#DejaVuSans-32" transform="translate(163.330078 0)"/>
       <use xlink:href="#DejaVuSans-37" transform="translate(226.953125 0)"/>
       <use xlink:href="#DejaVuSans-20" transform="translate(290.576172 0)"/>
       <use xlink:href="#DejaVuSans-30" transform="translate(322.363281 0)"/>
       <use xlink:href="#DejaVuSans-30" transform="translate(385.986328 0)"/>
      </g>
     </g>
    </g>
    <g id="xtick_7">
     <g id="line2d_7">
      <g>
       <use xlink:href="#m06ca5b48e2" x="660.455726" y="246.04" style="stroke: #000000; stroke-width: 0.8"/>
      </g>
     </g>
     <g id="text_7">
      <!-- 05-27 12 -->
      <g transform="translate(637.975257 260.638438) scale(0.1 -0.1)">
       <use xlink:href="#DejaVuSans-30"/>
       <use xlink:href="#DejaVuSans-35" transform="translate(63.623047 0)"/>
       <use xlink:href="#DejaVuSans-2d" transform="translate(127.246094 0)"/>
       <use xlink:href="#DejaVuSans-32" transform="translate(163.330078 0)"/>
       <use xlink:href="#DejaVuSans-37" transform="translate(226.953125 0)"/>
       <use xlink:href="#DejaVuSans-20" transform="translate(290.576172 0)"/>
       <use xlink:href="#DejaVuSans-31" transform="translate(322.363281 0)"/>
       <use xlink:href="#DejaVuSans-32" transform="translate(385.986328 0)"/>
      </g>
     </g>
    </g>
    <g id="text_8">
     <!-- Tijd -->
     <g transform="translate(371.185 274.316562) scale(0.1 -0.1)">
      <defs>
       <path id="DejaVuSans-54" d="M -19 4666 
L 3928 4666 
L 3928 4134 
L 2272 4134 
L 2272 0 
L 1638 0 
L 1638 4134 
L -19 4134 
L -19 4666 
z
" transform="scale(0.015625)"/>
       <path id="DejaVuSans-69" d="M 603 3500 
L 1178 3500 
L 1178 0 
L 603 0 
L 603 3500 
z
M 603 4863 
L 1178 4863 
L 1178 4134 
L 603 4134 
L 603 4863 
z
" transform="scale(0.015625)"/>
       <path id="DejaVuSans-6a" d="M 603 3500 
L 1178 3500 
L 1178 -63 
Q 1178 -731 923 -1031 
Q 669 -1331 103 -1331 
L -116 -1331 
L -116 -844 
L 38 -844 
Q 366 -844 484 -692 
Q 603 -541 603 -63 
L 603 3500 
z
M 603 4863 
L 1178 4863 
L 1178 4134 
L 603 4134 
L 603 4863 
z
" transform="scale(0.015625)"/>
       <path id="DejaVuSans-64" d="M 2906 2969 
L 2906 4863 
L 3481 4863 
L 3481 0 
L 2906 0 
L 2906 525 
Q 2725 213 2448 61 
Q 2172 -91 1784 -91 
Q 1150 -91 751 415 
Q 353 922 353 1747 
Q 353 2572 751 3078 
Q 1150 3584 1784 3584 
Q 2172 3584 2448 3432 
Q 2725 3281 2906 2969 
z
M 947 1747 
Q 947 1113 1208 752 
Q 1469 391 1925 391 
Q 2381 391 2643 752 
Q 2906 1113 2906 1747 
Q 2906 2381 2643 2742 
Q 2381 3103 1925 3103 
Q 1469 3103 1208 2742 
Q 947 2381 947 1747 
z
" transform="scale(0.015625)"/>
      </defs>
      <use xlink:href="#DejaVuSans-54"/>
      <use xlink:href="#DejaVuSans-69" transform="translate(57.958984 0)"/>
      <use xlink:href="#DejaVuSans-6a" transform="translate(85.742188 0)"/>
      <use xlink:href="#DejaVuSans-64" transform="translate(113.525391 0)"/>
     </g>
    </g>
   </g>
   <g id="matplotlib.axis_2">
    <g id="ytick_1">
     <g id="line2d_8">
      <defs>
       <path id="me6a0c36900" d="M 0 0 
L -3.5 0 
" style="stroke: #000000; stroke-width: 0.8"/>
      </defs>
      <g>
       <use xlink:href="#me6a0c36900" x="50.87" y="213.206632" style="stroke: #000000; stroke-width: 0.8"/>
      </g>
     </g>
     <g id="text_9">
      <!-- 20 -->
      <g transform="translate(31.145 217.005851) scale(0.1 -0.1)">
       <use xlink:href="#DejaVuSans-32"/>
       <use xlink:href="#DejaVuSans-30" transform="translate(63.623047 0)"/>
      </g>
     </g>
    </g>
    <g id="ytick_2">
     <g id="line2d_9">
      <g>
       <use xlink:href="#me6a0c36900" x="50.87" y="173.255081" style="stroke: #000000; stroke-width: 0.8"/>
      </g>
     </g>
     <g id="text_10">
      <!-- 40 -->
      <g transform="translate(31.145 177.0543) scale(0.1 -0.1)">
       <use xlink:href="#DejaVuSans-34"/>
       <use xlink:href="#DejaVuSans-30" transform="translate(63.623047 0)"/>
      </g>
     </g>
    </g>
    <g id="ytick_3">
     <g id="line2d_10">
      <g>
       <use xlink:href="#me6a0c36900" x="50.87" y="133.303531" style="stroke: #000000; stroke-width: 0.8"/>
      </g>
     </g>
     <g id="text_11">
      <!-- 60 -->
      <g transform="translate(31.145 137.102749) scale(0.1 -0.1)">
       <use xlink:href="#DejaVuSans-36"/>
       <use xlink:href="#DejaVuSans-30" transform="translate(63.623047 0)"/>
      </g>
     </g>
    </g>
    <g id="ytick_4">
     <g id="line2d_11">
      <g>
       <use xlink:href="#me6a0c36900" x="50.87" y="93.35198" style="stroke: #000000; stroke-width: 0.8"/>
      </g>
     </g>
     <g id="text_12">
      <!-- 80 -->
      <g transform="translate(31.145 97.151199) scale(0.1 -0.1)">
       <defs>
        <path id="DejaVuSans-38" d="M 2034 2216 
Q 1584 2216 1326 1975 
Q 1069 1734 1069 1313 
Q 1069 891 1326 650 
Q 1584 409 2034 409 
Q 2484 409 2743 651 
Q 3003 894 3003 1313 
Q 3003 1734 2745 1975 
Q 2488 2216 2034 2216 
z
M 1403 2484 
Q 997 2584 770 2862 
Q 544 3141 544 3541 
Q 544 4100 942 4425 
Q 1341 4750 2034 4750 
Q 2731 4750 3128 4425 
Q 3525 4100 3525 3541 
Q 3525 3141 3298 2862 
Q 3072 2584 2669 2484 
Q 3125 2378 3379 2068 
Q 3634 1759 3634 1313 
Q 3634 634 3220 271 
Q 2806 -91 2034 -91 
Q 1263 -91 848 271 
Q 434 634 434 1313 
Q 434 1759 690 2068 
Q 947 2378 1403 2484 
z
M 1172 3481 
Q 1172 3119 1398 2916 
Q 1625 2713 2034 2713 
Q 2441 2713 2670 2916 
Q 2900 3119 2900 3481 
Q 2900 3844 2670 4047 
Q 2441 4250 2034 4250 
Q 1625 4250 1398 4047 
Q 1172 3844 1172 3481 
z
" transform="scale(0.015625)"/>
       </defs>
       <use xlink:href="#DejaVuSans-38"/>
       <use xlink:href="#DejaVuSans-30" transform="translate(63.623047 0)"/>
      </g>
     </g>
    </g>
    <g id="ytick_5">
     <g id="line2d_12">
      <g>
       <use xlink:href="#me6a0c36900" x="50.87" y="53.400429" style="stroke: #000000; stroke-width: 0.8"/>
      </g>
     </g>
     <g id="text_13">
      <!-- 100 -->
      <g transform="translate(24.7825 57.199648) scale(0.1 -0.1)">
       <use xlink:href="#DejaVuSans-31"/>
       <use xlink:href="#DejaVuSans-30" transform="translate(63.623047 0)"/>
       <use xlink:href="#DejaVuSans-30" transform="translate(127.246094 0)"/>
      </g>
     </g>
    </g>
    <g id="text_14">
     <!-- (Rel.) Buiten Vochtigheid (%) -->
     <g transform="translate(18.702813 208.620937) rotate(-90) scale(0.1 -0.1)">
      <defs>
       <path id="DejaVuSans-28" d="M 1984 4856 
Q 1566 4138 1362 3434 
Q 1159 2731 1159 2009 
Q 1159 1288 1364 580 
Q 1569 -128 1984 -844 
L 1484 -844 
Q 1016 -109 783 600 
Q 550 1309 550 2009 
Q 550 2706 781 3412 
Q 1013 4119 1484 4856 
L 1984 4856 
z
" transform="scale(0.015625)"/>
       <path id="DejaVuSans-52" d="M 2841 2188 
Q 3044 2119 3236 1894 
Q 3428 1669 3622 1275 
L 4263 0 
L 3584 0 
L 2988 1197 
Q 2756 1666 2539 1819 
Q 2322 1972 1947 1972 
L 1259 1972 
L 1259 0 
L 628 0 
L 628 4666 
L 2053 4666 
Q 2853 4666 3247 4331 
Q 3641 3997 3641 3322 
Q 3641 2881 3436 2590 
Q 3231 2300 2841 2188 
z
M 1259 4147 
L 1259 2491 
L 2053 2491 
Q 2509 2491 2742 2702 
Q 2975 2913 2975 3322 
Q 2975 3731 2742 3939 
Q 2509 4147 2053 4147 
L 1259 4147 
z
" transform="scale(0.015625)"/>
       <path id="DejaVuSans-65" d="M 3597 1894 
L 3597 1613 
L 953 1613 
Q 991 1019 1311 708 
Q 1631 397 2203 397 
Q 2534 397 2845 478 
Q 3156 559 3463 722 
L 3463 178 
Q 3153 47 2828 -22 
Q 2503 -91 2169 -91 
Q 1331 -91 842 396 
Q 353 884 353 1716 
Q 353 2575 817 3079 
Q 1281 3584 2069 3584 
Q 2775 3584 3186 3129 
Q 3597 2675 3597 1894 
z
M 3022 2063 
Q 3016 2534 2758 2815 
Q 2500 3097 2075 3097 
Q 1594 3097 1305 2825 
Q 1016 2553 972 2059 
L 3022 2063 
z
" transform="scale(0.015625)"/>
       <path id="DejaVuSans-6c" d="M 603 4863 
L 1178 4863 
L 1178 0 
L 603 0 
L 603 4863 
z
" transform="scale(0.015625)"/>
       <path id="DejaVuSans-2e" d="M 684 794 
L 1344 794 
L 1344 0 
L 684 0 
L 684 794 
z
" transform="scale(0.015625)"/>
       <path id="DejaVuSans-29" d="M 513 4856 
L 1013 4856 
Q 1481 4119 1714 3412 
Q 1947 2706 1947 2009 
Q 1947 1309 1714 600 
Q 1481 -109 1013 -844 
L 513 -844 
Q 928 -128 1133 580 
Q 1338 1288 1338 2009 
Q 1338 2731 1133 3434 
Q 928 4138 513 4856 
z
" transform="scale(0.015625)"/>
       <path id="DejaVuSans-42" d="M 1259 2228 
L 1259 519 
L 2272 519 
Q 2781 519 3026 730 
Q 3272 941 3272 1375 
Q 3272 1813 3026 2020 
Q 2781 2228 2272 2228 
L 1259 2228 
z
M 1259 4147 
L 1259 2741 
L 2194 2741 
Q 2656 2741 2882 2914 
Q 3109 3088 3109 3444 
Q 3109 3797 2882 3972 
Q 2656 4147 2194 4147 
L 1259 4147 
z
M 628 4666 
L 2241 4666 
Q 2963 4666 3353 4366 
Q 3744 4066 3744 3513 
Q 3744 3084 3544 2831 
Q 3344 2578 2956 2516 
Q 3422 2416 3680 2098 
Q 3938 1781 3938 1306 
Q 3938 681 3513 340 
Q 3088 0 2303 0 
L 628 0 
L 628 4666 
z
" transform="scale(0.015625)"/>
       <path id="DejaVuSans-75" d="M 544 1381 
L 544 3500 
L 1119 3500 
L 1119 1403 
Q 1119 906 1312 657 
Q 1506 409 1894 409 
Q 2359 409 2629 706 
Q 2900 1003 2900 1516 
L 2900 3500 
L 3475 3500 
L 3475 0 
L 2900 0 
L 2900 538 
Q 2691 219 2414 64 
Q 2138 -91 1772 -91 
Q 1169 -91 856 284 
Q 544 659 544 1381 
z
M 1991 3584 
L 1991 3584 
z
" transform="scale(0.015625)"/>
       <path id="DejaVuSans-74" d="M 1172 4494 
L 1172 3500 
L 2356 3500 
L 2356 3053 
L 1172 3053 
L 1172 1153 
Q 1172 725 1289 603 
Q 1406 481 1766 481 
L 2356 481 
L 2356 0 
L 1766 0 
Q 1100 0 847 248 
Q 594 497 594 1153 
L 594 3053 
L 172 3053 
L 172 3500 
L 594 3500 
L 594 4494 
L 1172 4494 
z
" transform="scale(0.015625)"/>
       <path id="DejaVuSans-6e" d="M 3513 2113 
L 3513 0 
L 2938 0 
L 2938 2094 
Q 2938 2591 2744 2837 
Q 2550 3084 2163 3084 
Q 1697 3084 1428 2787 
Q 1159 2491 1159 1978 
L 1159 0 
L 581 0 
L 581 3500 
L 1159 3500 
L 1159 2956 
Q 1366 3272 1645 3428 
Q 1925 3584 2291 3584 
Q 2894 3584 3203 3211 
Q 3513 2838 3513 2113 
z
" transform="scale(0.015625)"/>
       <path id="DejaVuSans-56" d="M 1831 0 
L 50 4666 
L 709 4666 
L 2188 738 
L 3669 4666 
L 4325 4666 
L 2547 0 
L 1831 0 
z
" transform="scale(0.015625)"/>
       <path id="DejaVuSans-6f" d="M 1959 3097 
Q 1497 3097 1228 2736 
Q 959 2375 959 1747 
Q 959 1119 1226 758 
Q 1494 397 1959 397 
Q 2419 397 2687 759 
Q 2956 1122 2956 1747 
Q 2956 2369 2687 2733 
Q 2419 3097 1959 3097 
z
M 1959 3584 
Q 2709 3584 3137 3096 
Q 3566 2609 3566 1747 
Q 3566 888 3137 398 
Q 2709 -91 1959 -91 
Q 1206 -91 779 398 
Q 353 888 353 1747 
Q 353 2609 779 3096 
Q 1206 3584 1959 3584 
z
" transform="scale(0.015625)"/>
       <path id="DejaVuSans-63" d="M 3122 3366 
L 3122 2828 
Q 2878 2963 2633 3030 
Q 2388 3097 2138 3097 
Q 1578 3097 1268 2742 
Q 959 2388 959 1747 
Q 959 1106 1268 751 
Q 1578 397 2138 397 
Q 2388 397 2633 464 
Q 2878 531 3122 666 
L 3122 134 
Q 2881 22 2623 -34 
Q 2366 -91 2075 -91 
Q 1284 -91 818 406 
Q 353 903 353 1747 
Q 353 2603 823 3093 
Q 1294 3584 2113 3584 
Q 2378 3584 2631 3529 
Q 2884 3475 3122 3366 
z
" transform="scale(0.015625)"/>
       <path id="DejaVuSans-68" d="M 3513 2113 
L 3513 0 
L 2938 0 
L 2938 2094 
Q 2938 2591 2744 2837 
Q 2550 3084 2163 3084 
Q 1697 3084 1428 2787 
Q 1159 2491 1159 1978 
L 1159 0 
L 581 0 
L 581 4863 
L 1159 4863 
L 1159 2956 
Q 1366 3272 1645 3428 
Q 1925 3584 2291 3584 
Q 2894 3584 3203 3211 
Q 3513 2838 3513 2113 
z
" transform="scale(0.015625)"/>
       <path id="DejaVuSans-67" d="M 2906 1791 
Q 2906 2416 2648 2759 
Q 2391 3103 1925 3103 
Q 1463 3103 1205 2759 
Q 947 2416 947 1791 
Q 947 1169 1205 825 
Q 1463 481 1925 481 
Q 2391 481 2648 825 
Q 2906 1169 2906 1791 
z
M 3481 434 
Q 3481 -459 3084 -895 
Q 2688 -1331 1869 -1331 
Q 1566 -1331 1297 -1286 
Q 1028 -1241 775 -1147 
L 775 -588 
Q 1028 -725 1275 -790 
Q 1522 -856 1778 -856 
Q 2344 -856 2625 -561 
Q 2906 -266 2906 331 
L 2906 616 
Q 2728 306 2450 153 
Q 2172 0 1784 0 
Q 1141 0 747 490 
Q 353 981 353 1791 
Q 353 2603 747 3093 
Q 1141 3584 1784 3584 
Q 2172 3584 2450 3431 
Q 2728 3278 2906 2969 
L 2906 3500 
L 3481 3500 
L 3481 434 
z
" transform="scale(0.015625)"/>
       <path id="DejaVuSans-25" d="M 4653 2053 
Q 4381 2053 4226 1822 
Q 4072 1591 4072 1178 
Q 4072 772 4226 539 
Q 4381 306 4653 306 
Q 4919 306 5073 539 
Q 5228 772 5228 1178 
Q 5228 1588 5073 1820 
Q 4919 2053 4653 2053 
z
M 4653 2450 
Q 5147 2450 5437 2106 
Q 5728 1763 5728 1178 
Q 5728 594 5436 251 
Q 5144 -91 4653 -91 
Q 4153 -91 3862 251 
Q 3572 594 3572 1178 
Q 3572 1766 3864 2108 
Q 4156 2450 4653 2450 
z
M 1428 4353 
Q 1159 4353 1004 4120 
Q 850 3888 850 3481 
Q 850 3069 1003 2837 
Q 1156 2606 1428 2606 
Q 1700 2606 1854 2837 
Q 2009 3069 2009 3481 
Q 2009 3884 1853 4118 
Q 1697 4353 1428 4353 
z
M 4250 4750 
L 4750 4750 
L 1831 -91 
L 1331 -91 
L 4250 4750 
z
M 1428 4750 
Q 1922 4750 2215 4408 
Q 2509 4066 2509 3481 
Q 2509 2891 2217 2550 
Q 1925 2209 1428 2209 
Q 931 2209 642 2551 
Q 353 2894 353 3481 
Q 353 4063 643 4406 
Q 934 4750 1428 4750 
z
" transform="scale(0.015625)"/>
      </defs>
      <use xlink:href="#DejaVuSans-28"/>
      <use xlink:href="#DejaVuSans-52" transform="translate(39.013672 0)"/>
      <use xlink:href="#DejaVuSans-65" transform="translate(103.996094 0)"/>
      <use xlink:href="#DejaVuSans-6c" transform="translate(165.519531 0)"/>
      <use xlink:href="#DejaVuSans-2e" transform="translate(193.302734 0)"/>
      <use xlink:href="#DejaVuSans-29" transform="translate(225.089844 0)"/>
      <use xlink:href="#DejaVuSans-20" transform="translate(264.103516 0)"/>
      <use xlink:href="#DejaVuSans-42" transform="translate(295.890625 0)"/>
      <use xlink:href="#DejaVuSans-75" transform="translate(364.494141 0)"/>
      <use xlink:href="#DejaVuSans-69" transform="translate(427.873047 0)"/>
      <use xlink:href="#DejaVuSans-74" transform="translate(455.65625 0)"/>
      <use xlink:href="#DejaVuSans-65" transform="translate(494.865234 0)"/>
      <use xlink:href="#DejaVuSans-6e" transform="translate(556.388672 0)"/>
      <use xlink:href="#DejaVuSans-20" transform="translate(619.767578 0)"/>
      <use xlink:href="#DejaVuSans-56" transform="translate(651.554688 0)"/>
      <use xlink:href="#DejaVuSans-6f" transform="translate(712.212891 0)"/>
      <use xlink:href="#DejaVuSans-63" transform="translate(773.394531 0)"/>
      <use xlink:href="#DejaVuSans-68" transform="translate(828.375 0)"/>
      <use xlink:href="#DejaVuSans-74" transform="translate(891.753906 0)"/>
      <use xlink:href="#DejaVuSans-69" transform="translate(930.962891 0)"/>
      <use xlink:href="#DejaVuSans-67" transform="translate(958.746094 0)"/>
      <use xlink:href="#DejaVuSans-68" transform="translate(1022.222656 0)"/>
      <use xlink:href="#DejaVuSans-65" transform="translate(1085.601562 0)"/>
      <use xlink:href="#DejaVuSans-69" transform="translate(1147.125 0)"/>
      <use xlink:href="#DejaVuSans-64" transform="translate(1174.908203 0)"/>
      <use xlink:href="#DejaVuSans-20" transform="translate(1238.384766 0)"/>
      <use xlink:href="#DejaVuSans-28" transform="translate(1270.171875 0)"/>
      <use xlink:href="#DejaVuSans-25" transform="translate(1309.185547 0)"/>
      <use xlink:href="#DejaVuSans-29" transform="translate(1404.205078 0)"/>
     </g>
    </g>
   </g>
   <g id="line2d_13">
    <path d="M 80.794091 103.939141 
L 84.558128 105.637082 
L 92.086201 121.983925 
L 95.850237 127.577142 
L 99.614274 127.910071 
L 103.37831 127.776899 
L 107.142347 128.243001 
L 110.906384 129.641305 
L 114.67042 133.037187 
L 118.434457 133.370117 
L 122.198493 135.76721 
L 125.96253 140.428224 
L 129.726567 134.635249 
L 133.490603 124.580775 
L 137.25464 124.780533 
L 144.782713 121.784167 
L 148.54675 114.925817 
L 152.310786 100.743017 
L 156.074823 88.957309 
L 159.838859 81.76603 
L 163.602896 80.900413 
L 167.366933 78.902836 
L 171.130969 76.239399 
L 174.895006 74.10865 
L 178.659042 71.312041 
L 182.423079 71.578385 
L 186.187115 70.646182 
L 189.951152 70.18008 
L 193.715189 69.847151 
L 197.479225 68.249089 
L 201.243262 66.91737 
L 205.007298 66.517855 
L 208.771335 67.050542 
L 212.535372 67.183714 
L 216.299408 66.983956 
L 220.063445 67.516644 
L 223.827481 67.649816 
L 227.591518 67.982745 
L 231.355555 68.781776 
L 235.119591 69.04812 
L 238.883628 68.71519 
L 242.647664 68.981534 
L 246.411701 68.71519 
L 250.175738 68.249089 
L 253.939774 69.114706 
L 261.467847 68.648604 
L 265.231884 69.913737 
L 268.995921 71.045697 
L 272.759957 70.979111 
L 276.523994 70.779354 
L 280.28803 73.908892 
L 284.052067 73.043275 
L 287.816103 74.241821 
L 291.58014 71.445213 
L 295.344177 71.778143 
L 299.108213 72.910103 
L 302.87225 79.901624 
L 306.636286 80.234554 
L 310.400323 97.813236 
L 314.16436 97.480307 
L 317.928396 107.201851 
L 321.692433 111.796279 
L 325.456469 127.044454 
L 329.220506 130.173992 
L 332.984543 123.515401 
L 336.748579 115.591676 
L 340.512616 108.933085 
L 344.276652 95.1498 
L 348.040689 93.551738 
L 351.804726 101.542048 
L 355.568762 98.745439 
L 359.332799 101.275704 
L 363.096835 102.80718 
L 366.860872 103.006938 
L 370.624909 98.345924 
L 374.388945 94.483941 
L 378.152982 93.884667 
L 381.917018 92.686121 
L 385.681055 91.221231 
L 389.445091 91.221231 
L 393.209128 89.956098 
L 396.973165 88.824137 
L 400.737201 88.358036 
L 408.265274 88.890723 
L 412.029311 88.690966 
L 415.793348 87.15949 
L 419.557384 84.962154 
L 423.321421 84.229709 
L 427.085457 83.031163 
L 430.849494 81.100171 
L 434.613531 81.366515 
L 438.377567 82.365303 
L 442.141604 83.56385 
L 445.90564 88.491208 
L 449.669677 91.487574 
L 453.433714 97.014205 
L 460.961787 108.666741 
L 464.725823 113.127998 
L 468.48986 112.661896 
L 472.253897 113.427634 
L 476.017933 131.772055 
L 479.78197 137.298686 
L 483.546006 129.208497 
L 487.310043 136.00026 
L 491.074079 149.816838 
L 494.838116 159.671554 
L 498.602153 173.255081 
L 502.366189 172.123121 
L 506.130226 175.385831 
L 509.894262 181.245392 
L 513.658299 179.048056 
L 517.422336 179.913673 
L 521.186372 175.052901 
L 524.950409 175.652174 
L 528.714445 173.321667 
L 536.242519 169.8592 
L 540.006555 165.997216 
L 543.770592 165.597701 
L 547.534628 162.801092 
L 551.298665 154.810782 
L 555.062702 150.083182 
L 558.826738 150.149768 
L 562.590775 149.150979 
L 566.354811 143.957277 
L 570.118848 138.164303 
L 573.882885 134.102562 
L 581.410958 127.11104 
L 585.174994 125.712736 
L 588.939031 127.577142 
L 592.703067 123.715158 
L 596.467104 115.85802 
L 600.231141 104.605 
L 603.995177 97.613479 
L 607.759214 96.348346 
L 611.52325 92.752707 
L 615.287287 92.353191 
L 619.051324 94.084425 
L 622.81536 94.151011 
L 626.579397 94.483941 
L 630.343433 94.217597 
L 634.10747 92.086847 
L 637.871507 89.75634 
L 637.871507 89.75634 
" clip-path="url(#pd6f661ca90)" style="fill: none; stroke: #1f77b4; stroke-width: 2; stroke-linecap: square"/>
   </g>
   <g id="line2d_14">
    <path d="M 80.794091 116.149334 
L 84.558128 123.781744 
L 88.322164 123.70961 
L 92.086201 121.571092 
L 95.850237 123.149178 
L 99.614274 124.547482 
L 103.37831 123.80394 
L 107.142347 118.454871 
L 114.67042 115.708202 
L 118.434457 113.344402 
L 122.198493 113.680661 
L 125.96253 111.258043 
L 129.726567 105.886779 
L 133.490603 100.987165 
L 137.25464 100.132646 
L 144.782713 96.059807 
L 148.54675 93.413017 
L 156.074823 85.306181 
L 159.838859 83.519459 
L 163.602896 82.28762 
L 167.366933 78.103805 
L 171.130969 80.63407 
L 178.659042 80.880992 
L 182.423079 80.478702 
L 189.951152 79.269058 
L 193.715189 79.185826 
L 197.479225 77.837461 
L 201.243262 76.738793 
L 205.007298 76.372571 
L 208.771335 75.828786 
L 212.535372 71.764825 
L 216.299408 71.578385 
L 220.063445 77.105016 
L 223.827481 76.399205 
L 227.591518 74.735667 
L 231.355555 75.24061 
L 238.883628 75.889823 
L 242.647664 75.85653 
L 246.411701 76.716598 
L 250.175738 76.000799 
L 253.939774 75.151829 
L 257.703811 74.946522 
L 261.467847 75.412624 
L 265.231884 76.111776 
L 268.995921 71.491823 
L 272.759957 73.037726 
L 276.523994 72.882359 
L 280.28803 74.402737 
L 284.052067 74.829997 
L 287.816103 75.895372 
L 291.58014 80.556386 
L 295.344177 81.01139 
L 299.108213 84.118733 
L 302.87225 91.831601 
L 306.636286 97.918664 
L 310.400323 108.811011 
L 314.16436 115.708202 
L 317.928396 113.300011 
L 321.692433 115.774788 
L 325.456469 126.844697 
L 329.220506 124.669557 
L 332.984543 121.146052 
L 336.748579 118.943168 
L 340.512616 123.027104 
L 344.276652 123.459912 
L 348.040689 120.618913 
L 351.804726 122.616491 
L 355.568762 120.186105 
L 359.332799 119.087437 
L 363.096835 120.430253 
L 366.860872 117.678035 
L 370.624909 113.616294 
L 374.388945 112.55092 
L 378.152982 108.700034 
L 381.917018 108.422593 
L 385.681055 107.379413 
L 389.445091 105.947816 
L 393.209128 105.448422 
L 396.973165 102.341079 
L 400.737201 102.900401 
L 404.501238 103.180061 
L 408.265274 101.869429 
L 415.793348 98.984039 
L 419.557384 99.067271 
L 423.321421 100.63204 
L 427.085457 101.775099 
L 430.849494 100.127097 
L 434.613531 99.627703 
L 438.377567 100.354599 
L 442.141604 101.419974 
L 445.90564 103.545174 
L 449.669677 101.648585 
L 453.433714 105.797998 
L 457.19775 108.799913 
L 460.961787 112.206892 
L 464.725823 114.287702 
L 468.48986 117.700231 
L 472.253897 120.047384 
L 476.017933 126.189935 
L 479.78197 129.202948 
L 483.546006 133.453349 
L 487.310043 140.572493 
L 491.074079 146.887058 
L 494.838116 153.723212 
L 498.602153 148.698195 
L 502.366189 168.111319 
L 506.130226 169.492977 
L 509.894262 166.341244 
L 513.658299 165.520017 
L 517.422336 168.416505 
L 521.186372 169.026876 
L 524.950409 169.881395 
L 528.714445 169.021327 
L 532.478482 167.639669 
L 536.242519 159.948995 
L 540.006555 160.770222 
L 543.770592 154.366876 
L 547.534628 153.867482 
L 551.298665 148.651585 
L 555.062702 147.430843 
L 558.826738 145.422168 
L 562.590775 143.868496 
L 566.354811 141.071888 
L 570.118848 139.229677 
L 573.882885 137.720397 
L 577.646921 134.757323 
L 581.410958 126.505108 
L 585.174994 116.75693 
L 588.939031 117.350654 
L 592.703067 114.537399 
L 596.467104 113.63849 
L 600.231141 109.959618 
L 603.995177 107.834417 
L 607.759214 107.984235 
L 611.52325 107.118618 
L 615.287287 104.005727 
L 619.051324 106.769042 
L 622.81536 103.084622 
L 626.579397 97.896469 
L 630.343433 92.403131 
L 634.10747 89.440057 
L 637.871507 90.688543 
L 641.635543 88.66877 
L 645.39958 80.833827 
L 649.163616 82.298718 
L 652.927653 83.064456 
L 656.69169 81.100171 
L 660.455726 98.812025 
L 664.219763 101.442169 
L 667.983799 97.147377 
L 671.747836 86.859853 
L 675.511872 85.295084 
L 679.275909 87.359247 
L 679.275909 87.359247 
" clip-path="url(#pd6f661ca90)" style="fill: none; stroke-dasharray: 5.55,2.4; stroke-dashoffset: 0; stroke: #808080; stroke-width: 1.5"/>
   </g>
   <g id="patch_3">
    <path d="M 50.87 246.04 
L 50.87 26.88 
" style="fill: none; stroke: #000000; stroke-width: 0.8; stroke-linejoin: miter; stroke-linecap: square"/>
   </g>
   <g id="patch_4">
    <path d="M 709.2 246.04 
L 709.2 26.88 
" style="fill: none; stroke: #000000; stroke-width: 0.8; stroke-linejoin: miter; stroke-linecap: square"/>
   </g>
   <g id="patch_5">
    <path d="M 50.87 246.04 
L 709.2 246.04 
" style="fill: none; stroke: #000000; stroke-width: 0.8; stroke-linejoin: miter; stroke-linecap: square"/>
   </g>
   <g id="patch_6">
    <path d="M 50.87 26.88 
L 709.2 26.88 
" style="fill: none; stroke: #000000; stroke-width: 0.8; stroke-linejoin: miter; stroke-linecap: square"/>
   </g>
   <g id="text_15">
    <!-- Luchtvochtigheid - v001/c00004/d001 -->
    <g transform="translate(265.745313 20.88) scale(0.12 -0.12)">
     <defs>
      <path id="DejaVuSans-4c" d="M 628 4666 
L 1259 4666 
L 1259 531 
L 3531 531 
L 3531 0 
L 628 0 
L 628 4666 
z
" transform="scale(0.015625)"/>
      <path id="DejaVuSans-76" d="M 191 3500 
L 800 3500 
L 1894 563 
L 2988 3500 
L 3597 3500 
L 2284 0 
L 1503 0 
L 191 3500 
z
" transform="scale(0.015625)"/>
      <path id="DejaVuSans-2f" d="M 1625 4666 
L 2156 4666 
L 531 -594 
L 0 -594 
L 1625 4666 
z
" transform="scale(0.015625)"/>
     </defs>
     <use xlink:href="#DejaVuSans-4c"/>
     <use xlink:href="#DejaVuSans-75" transform="translate(53.962891 0)"/>
     <use xlink:href="#DejaVuSans-63" transform="translate(117.341797 0)"/>
     <use xlink:href="#DejaVuSans-68" transform="translate(172.322266 0)"/>
     <use xlink:href="#DejaVuSans-74" transform="translate(235.701172 0)"/>
     <use xlink:href="#DejaVuSans-76" transform="translate(274.910156 0)"/>
     <use xlink:href="#DejaVuSans-6f" transform="translate(334.089844 0)"/>
     <use xlink:href="#DejaVuSans-63" transform="translate(395.271484 0)"/>
     <use xlink:href="#DejaVuSans-68" transform="translate(450.251953 0)"/>
     <use xlink:href="#DejaVuSans-74" transform="translate(513.630859 0)"/>
     <use xlink:href="#DejaVuSans-69" transform="translate(552.839844 0)"/>
     <use xlink:href="#DejaVuSans-67" transform="translate(580.623047 0)"/>
     <use xlink:href="#DejaVuSans-68" transform="translate(644.099609 0)"/>
     <use xlink:href="#DejaVuSans-65" transform="translate(707.478516 0)"/>
     <use xlink:href="#DejaVuSans-69" transform="translate(769.001953 0)"/>
     <use xlink:href="#DejaVuSans-64" transform="translate(796.785156 0)"/>
     <use xlink:href="#DejaVuSans-20" transform="translate(860.261719 0)"/>
     <use xlink:href="#DejaVuSans-2d" transform="translate(892.048828 0)"/>
     <use xlink:href="#DejaVuSans-20" transform="translate(928.132812 0)"/>
     <use xlink:href="#DejaVuSans-76" transform="translate(959.919922 0)"/>
     <use xlink:href="#DejaVuSans-30" transform="translate(1019.099609 0)"/>
     <use xlink:href="#DejaVuSans-30" transform="translate(1082.722656 0)"/>
     <use xlink:href="#DejaVuSans-31" transform="translate(1146.345703 0)"/>
     <use xlink:href="#DejaVuSans-2f" transform="translate(1209.96875 0)"/>
     <use xlink:href="#DejaVuSans-63" transform="translate(1243.660156 0)"/>
     <use xlink:href="#DejaVuSans-30" transform="translate(1298.640625 0)"/>
     <use xlink:href="#DejaVuSans-30" transform="translate(1362.263672 0)"/>
     <use xlink:href="#DejaVuSans-30" transform="translate(1425.886719 0)"/>
     <use xlink:href="#DejaVuSans-30" transform="translate(1489.509766 0)"/>
     <use xlink:href="#DejaVuSans-34" transform="translate(1553.132812 0)"/>
     <use xlink:href="#DejaVuSans-2f" transform="translate(1616.755859 0)"/>
     <use xlink:href="#DejaVuSans-64" transform="translate(1650.447266 0)"/>
     <use xlink:href="#DejaVuSans-30" transform="translate(1713.923828 0)"/>
     <use xlink:href="#DejaVuSans-30" transform="translate(1777.546875 0)"/>
     <use xlink:href="#DejaVuSans-31" transform="translate(1841.169922 0)"/>
    </g>
   </g>
   <g id="legend_1">
    <g id="patch_7">
     <path d="M 57.87 241.04 
L 208.81375 241.04 
Q 210.81375 241.04 210.81375 239.04 
L 210.81375 196.005625 
Q 210.81375 194.005625 208.81375 194.005625 
L 57.87 194.005625 
Q 55.87 194.005625 55.87 196.005625 
L 55.87 239.04 
Q 55.87 241.04 57.87 241.04 
z
" style="fill: #ffffff; opacity: 0.8; stroke: #cccccc; stroke-linejoin: miter"/>
    </g>
    <g id="line2d_15">
     <path d="M 59.87 202.104062 
L 69.87 202.104062 
L 79.87 202.104062 
" style="fill: none; stroke: #1f77b4; stroke-width: 2; stroke-linecap: square"/>
    </g>
    <g id="text_16">
     <!-- Hive -->
     <g transform="translate(87.87 205.604062) scale(0.1 -0.1)">
      <defs>
       <path id="DejaVuSans-48" d="M 628 4666 
L 1259 4666 
L 1259 2753 
L 3553 2753 
L 3553 4666 
L 4184 4666 
L 4184 0 
L 3553 0 
L 3553 2222 
L 1259 2222 
L 1259 0 
L 628 0 
L 628 4666 
z
" transform="scale(0.015625)"/>
      </defs>
      <use xlink:href="#DejaVuSans-48"/>
      <use xlink:href="#DejaVuSans-69" transform="translate(75.195312 0)"/>
      <use xlink:href="#DejaVuSans-76" transform="translate(102.978516 0)"/>
      <use xlink:href="#DejaVuSans-65" transform="translate(162.158203 0)"/>
     </g>
    </g>
    <g id="line2d_16">
     <path d="M 59.87 216.782187 
L 69.87 216.782187 
L 79.87 216.782187 
" style="fill: none; stroke-dasharray: 5.55,2.4; stroke-dashoffset: 0; stroke: #808080; stroke-width: 1.5"/>
    </g>
    <g id="text_17">
     <!-- Gemiddelde (alle hives) -->
     <g transform="translate(87.87 220.282187) scale(0.1 -0.1)">
      <defs>
       <path id="DejaVuSans-47" d="M 3809 666 
L 3809 1919 
L 2778 1919 
L 2778 2438 
L 4434 2438 
L 4434 434 
Q 4069 175 3628 42 
Q 3188 -91 2688 -91 
Q 1594 -91 976 548 
Q 359 1188 359 2328 
Q 359 3472 976 4111 
Q 1594 4750 2688 4750 
Q 3144 4750 3555 4637 
Q 3966 4525 4313 4306 
L 4313 3634 
Q 3963 3931 3569 4081 
Q 3175 4231 2741 4231 
Q 1884 4231 1454 3753 
Q 1025 3275 1025 2328 
Q 1025 1384 1454 906 
Q 1884 428 2741 428 
Q 3075 428 3337 486 
Q 3600 544 3809 666 
z
" transform="scale(0.015625)"/>
       <path id="DejaVuSans-6d" d="M 3328 2828 
Q 3544 3216 3844 3400 
Q 4144 3584 4550 3584 
Q 5097 3584 5394 3201 
Q 5691 2819 5691 2113 
L 5691 0 
L 5113 0 
L 5113 2094 
Q 5113 2597 4934 2840 
Q 4756 3084 4391 3084 
Q 3944 3084 3684 2787 
Q 3425 2491 3425 1978 
L 3425 0 
L 2847 0 
L 2847 2094 
Q 2847 2600 2669 2842 
Q 2491 3084 2119 3084 
Q 1678 3084 1418 2786 
Q 1159 2488 1159 1978 
L 1159 0 
L 581 0 
L 581 3500 
L 1159 3500 
L 1159 2956 
Q 1356 3278 1631 3431 
Q 1906 3584 2284 3584 
Q 2666 3584 2933 3390 
Q 3200 3197 3328 2828 
z
" transform="scale(0.015625)"/>
       <path id="DejaVuSans-61" d="M 2194 1759 
Q 1497 1759 1228 1600 
Q 959 1441 959 1056 
Q 959 750 1161 570 
Q 1363 391 1709 391 
Q 2188 391 2477 730 
Q 2766 1069 2766 1631 
L 2766 1759 
L 2194 1759 
z
M 3341 1997 
L 3341 0 
L 2766 0 
L 2766 531 
Q 2569 213 2275 61 
Q 1981 -91 1556 -91 
Q 1019 -91 701 211 
Q 384 513 384 1019 
Q 384 1609 779 1909 
Q 1175 2209 1959 2209 
L 2766 2209 
L 2766 2266 
Q 2766 2663 2505 2880 
Q 2244 3097 1772 3097 
Q 1472 3097 1187 3025 
Q 903 2953 641 2809 
L 641 3341 
Q 956 3463 1253 3523 
Q 1550 3584 1831 3584 
Q 2591 3584 2966 3190 
Q 3341 2797 3341 1997 
z
" transform="scale(0.015625)"/>
       <path id="DejaVuSans-73" d="M 2834 3397 
L 2834 2853 
Q 2591 2978 2328 3040 
Q 2066 3103 1784 3103 
Q 1356 3103 1142 2972 
Q 928 2841 928 2578 
Q 928 2378 1081 2264 
Q 1234 2150 1697 2047 
L 1894 2003 
Q 2506 1872 2764 1633 
Q 3022 1394 3022 966 
Q 3022 478 2636 193 
Q 2250 -91 1575 -91 
Q 1294 -91 989 -36 
Q 684 19 347 128 
L 347 722 
Q 666 556 975 473 
Q 1284 391 1588 391 
Q 1994 391 2212 530 
Q 2431 669 2431 922 
Q 2431 1156 2273 1281 
Q 2116 1406 1581 1522 
L 1381 1569 
Q 847 1681 609 1914 
Q 372 2147 372 2553 
Q 372 3047 722 3315 
Q 1072 3584 1716 3584 
Q 2034 3584 2315 3537 
Q 2597 3491 2834 3397 
z
" transform="scale(0.015625)"/>
      </defs>
      <use xlink:href="#DejaVuSans-47"/>
      <use xlink:href="#DejaVuSans-65" transform="translate(77.490234 0)"/>
      <use xlink:href="#DejaVuSans-6d" transform="translate(139.013672 0)"/>
      <use xlink:href="#DejaVuSans-69" transform="translate(236.425781 0)"/>
      <use xlink:href="#DejaVuSans-64" transform="translate(264.208984 0)"/>
      <use xlink:href="#DejaVuSans-64" transform="translate(327.685547 0)"/>
      <use xlink:href="#DejaVuSans-65" transform="translate(391.162109 0)"/>
      <use xlink:href="#DejaVuSans-6c" transform="translate(452.685547 0)"/>
      <use xlink:href="#DejaVuSans-64" transform="translate(480.46875 0)"/>
      <use xlink:href="#DejaVuSans-65" transform="translate(543.945312 0)"/>
      <use xlink:href="#DejaVuSans-20" transform="translate(605.46875 0)"/>
      <use xlink:href="#DejaVuSans-28" transform="translate(637.255859 0)"/>
      <use xlink:href="#DejaVuSans-61" transform="translate(676.269531 0)"/>
      <use xlink:href="#DejaVuSans-6c" transform="translate(737.548828 0)"/>
      <use xlink:href="#DejaVuSans-6c" transform="translate(765.332031 0)"/>
      <use xlink:href="#DejaVuSans-65" transform="translate(793.115234 0)"/>
      <use xlink:href="#DejaVuSans-20" transform="translate(854.638672 0)"/>
      <use xlink:href="#DejaVuSans-68" transform="translate(886.425781 0)"/>
      <use xlink:href="#DejaVuSans-69" transform="translate(949.804688 0)"/>
      <use xlink:href="#DejaVuSans-76" transform="translate(977.587891 0)"/>
      <use xlink:href="#DejaVuSans-65" transform="translate(1036.767578 0)"/>
      <use xlink:href="#DejaVuSans-73" transform="translate(1098.291016 0)"/>
      <use xlink:href="#DejaVuSans-29" transform="translate(1150.390625 0)"/>
     </g>
    </g>
    <g id="patch_8">
     <path d="M 59.87 234.960312 
L 79.87 234.960312 
L 79.87 227.960312 
L 59.87 227.960312 
z
" style="fill: #808080; fill-opacity: 0.2; stroke: #808080; stroke-opacity: 0.2; stroke-linejoin: miter"/>
    </g>
    <g id="text_18">
     <!-- 2 Std Dev -->
     <g transform="translate(87.87 234.960312) scale(0.1 -0.1)">
      <defs>
       <path id="DejaVuSans-b1" d="M 2944 4013 
L 2944 2803 
L 4684 2803 
L 4684 2272 
L 2944 2272 
L 2944 1063 
L 2419 1063 
L 2419 2272 
L 678 2272 
L 678 2803 
L 2419 2803 
L 2419 4013 
L 2944 4013 
z
M 678 531 
L 4684 531 
L 4684 0 
L 678 0 
L 678 531 
z
" transform="scale(0.015625)"/>
       <path id="DejaVuSans-53" d="M 3425 4513 
L 3425 3897 
Q 3066 4069 2747 4153 
Q 2428 4238 2131 4238 
Q 1616 4238 1336 4038 
Q 1056 3838 1056 3469 
Q 1056 3159 1242 3001 
Q 1428 2844 1947 2747 
L 2328 2669 
Q 3034 2534 3370 2195 
Q 3706 1856 3706 1288 
Q 3706 609 3251 259 
Q 2797 -91 1919 -91 
Q 1588 -91 1214 -16 
Q 841 59 441 206 
L 441 856 
Q 825 641 1194 531 
Q 1563 422 1919 422 
Q 2459 422 2753 634 
Q 3047 847 3047 1241 
Q 3047 1584 2836 1778 
Q 2625 1972 2144 2069 
L 1759 2144 
Q 1053 2284 737 2584 
Q 422 2884 422 3419 
Q 422 4038 858 4394 
Q 1294 4750 2059 4750 
Q 2388 4750 2728 4690 
Q 3069 4631 3425 4513 
z
" transform="scale(0.015625)"/>
       <path id="DejaVuSans-44" d="M 1259 4147 
L 1259 519 
L 2022 519 
Q 2988 519 3436 956 
Q 3884 1394 3884 2338 
Q 3884 3275 3436 3711 
Q 2988 4147 2022 4147 
L 1259 4147 
z
M 628 4666 
L 1925 4666 
Q 3281 4666 3915 4102 
Q 4550 3538 4550 2338 
Q 4550 1131 3912 565 
Q 3275 0 1925 0 
L 628 0 
L 628 4666 
z
" transform="scale(0.015625)"/>
      </defs>
      <use xlink:href="#DejaVuSans-b1"/>
      <use xlink:href="#DejaVuSans-32" transform="translate(83.789062 0)"/>
      <use xlink:href="#DejaVuSans-20" transform="translate(147.412109 0)"/>
      <use xlink:href="#DejaVuSans-53" transform="translate(179.199219 0)"/>
      <use xlink:href="#DejaVuSans-74" transform="translate(242.675781 0)"/>
      <use xlink:href="#DejaVuSans-64" transform="translate(281.884766 0)"/>
      <use xlink:href="#DejaVuSans-20" transform="translate(345.361328 0)"/>
      <use xlink:href="#DejaVuSans-44" transform="translate(377.148438 0)"/>
      <use xlink:href="#DejaVuSans-65" transform="translate(454.150391 0)"/>
      <use xlink:href="#DejaVuSans-76" transform="translate(515.673828 0)"/>
     </g>
    </g>
   </g>
  </g>
 </g>
 <defs>
  <clipPath id="pd6f661ca90">
   <rect x="50.87" y="26.88" width="658.33" height="219.16"/>
  </clipPath>
 </defs>
</svg>
