<?xml version="1.0" encoding="utf-8" standalone="no"?>
<!DOCTYPE svg PUBLIC "-//W3C//DTD SVG 1.1//EN"
  "http://www.w3.org/Graphics/SVG/1.1/DTD/svg11.dtd">
<svg xmlns:xlink="http://www.w3.org/1999/xlink" width="720pt" height="288pt" viewBox="0 0 720 288" xmlns="http://www.w3.org/2000/svg" version="1.1">
 <metadata>
  <rdf:RDF xmlns:dc="http://purl.org/dc/elements/1.1/" xmlns:cc="http://creativecommons.org/ns#" xmlns:rdf="http://www.w3.org/1999/02/22-rdf-syntax-ns#">
   <cc:Work>
    <dc:type rdf:resource="http://purl.org/dc/dcmitype/StillImage"/>
    <dc:date>2025-05-21T06:24:29.190154</dc:date>
    <dc:format>image/svg+xml</dc:format>
    <dc:creator>
     <cc:Agent>
      <dc:title>Matplotlib v3.10.3, https://matplotlib.org/</dc:title>
     </cc:Agent>
    </dc:creator>
   </cc:Work>
  </rdf:RDF>
 </metadata>
 <defs>
  <style type="text/css">*{stroke-linejoin: round; stroke-linecap: butt}</style>
 </defs>
 <g id="figure_1">
  <g id="patch_1">
   <path d="M 0 288 
L 720 288 
L 720 0 
L 0 0 
z
" style="fill: #ffffff"/>
  </g>
  <g id="axes_1">
   <g id="patch_2">
    <path d="M 50.87 246.04 
L 709.2 246.04 
L 709.2 26.88 
L 50.87 26.88 
z
" style="fill: #ffffff"/>
   </g>
   <g id="FillBetweenPolyCollection_1">
    <defs>
     <path id="m794e53e5fd" d="M 80.794091 -205.372756 
L 80.794091 -167.305674 
L 84.630513 -151.828231 
L 88.466935 -144.413143 
L 92.303357 -146.127628 
L 96.139779 -140.560513 
L 99.9762 -138.794574 
L 103.812622 -137.948926 
L 107.649044 -133.994862 
L 111.485466 -126.754015 
L 115.321888 -128.712986 
L 119.15831 -118.18643 
L 122.994732 -117.228785 
L 126.831154 -113.887617 
L 130.667576 -97.042853 
L 134.503998 -83.837338 
L 138.34042 -81.381298 
L 142.176841 -64.128329 
L 146.013263 -67.596928 
L 149.849685 -66.329089 
L 153.686107 -85.018298 
L 157.522529 -99.973836 
L 161.358951 -85.347649 
L 165.195373 -81.387486 
L 169.031795 -87.697371 
L 172.868217 -97.172507 
L 176.704639 -104.644991 
L 180.541061 -116.478432 
L 184.377483 -115.526359 
L 188.213904 -125.310056 
L 192.050326 -137.389095 
L 195.886748 -134.452273 
L 199.72317 -136.250544 
L 203.559592 -141.092244 
L 207.396014 -145.51618 
L 211.232436 -145.799869 
L 215.068858 -152.385261 
L 218.90528 -157.666835 
L 222.741702 -161.404637 
L 226.578124 -164.87207 
L 230.414545 -167.410135 
L 234.250967 -169.785752 
L 238.087389 -170.721937 
L 241.923811 -172.037615 
L 245.760233 -173.470414 
L 249.596655 -175.392299 
L 253.433077 -174.870034 
L 257.269499 -176.185896 
L 261.105921 -176.112312 
L 264.942343 -177.890933 
L 268.778765 -173.645069 
L 272.615186 -165.941438 
L 276.451608 -160.726856 
L 280.28803 -149.410814 
L 284.124452 -125.034887 
L 287.960874 -105.790484 
L 291.797296 -94.48617 
L 295.633718 -77.292932 
L 299.47014 -68.971706 
L 303.306562 -70.566864 
L 307.142984 -75.746954 
L 310.979406 -79.042409 
L 314.815828 -80.452689 
L 318.652249 -67.770111 
L 322.488671 -70.183001 
L 326.325093 -64.422493 
L 330.161515 -60.703109 
L 333.997937 -59.516641 
L 337.834359 -68.91508 
L 341.670781 -88.455412 
L 345.507203 -87.479596 
L 349.343625 -85.204456 
L 353.180047 -78.911453 
L 357.016469 -79.152261 
L 360.85289 -81.990617 
L 364.689312 -106.995494 
L 368.525734 -116.019317 
L 372.362156 -123.644377 
L 376.198578 -130.201186 
L 380.035 -135.409306 
L 383.871422 -140.502186 
L 387.707844 -144.243754 
L 391.544266 -147.642828 
L 395.380688 -149.626396 
L 399.21711 -151.822944 
L 403.053531 -153.452354 
L 406.889953 -152.882859 
L 410.726375 -151.524186 
L 414.562797 -154.019767 
L 418.399219 -155.216295 
L 422.235641 -159.523804 
L 426.072063 -162.45186 
L 429.908485 -167.806496 
L 433.744907 -166.867371 
L 437.581329 -170.531632 
L 441.417751 -170.007358 
L 445.254172 -167.412283 
L 449.090594 -160.966816 
L 452.927016 -153.223062 
L 456.763438 -145.964863 
L 460.59986 -134.676886 
L 464.436282 -117.1159 
L 468.272704 -111.221117 
L 472.109126 -104.382483 
L 475.945548 -90.014511 
L 479.78197 -80.416642 
L 483.618392 -74.955393 
L 487.454814 -72.095979 
L 491.291235 -70.07627 
L 495.127657 -67.864289 
L 498.964079 -71.401853 
L 502.800501 -64.231665 
L 506.636923 -56.610658 
L 510.473345 -55.497492 
L 514.309767 -51.921818 
L 518.146189 -55.509334 
L 521.982611 -59.283365 
L 525.819033 -84.390845 
L 529.655455 -96.806506 
L 533.491876 -87.542451 
L 537.328298 -87.769594 
L 541.16472 -95.919529 
L 545.001142 -98.375828 
L 548.837564 -121.389958 
L 552.673986 -133.9744 
L 556.510408 -128.944534 
L 560.34683 -141.016744 
L 564.183252 -131.107699 
L 568.019674 -144.075767 
L 571.856096 -149.393202 
L 575.692517 -145.766173 
L 579.528939 -149.013066 
L 583.365361 -146.020293 
L 587.201783 -151.253097 
L 591.038205 -153.730158 
L 594.874627 -154.715463 
L 598.711049 -156.665678 
L 602.547471 -158.720135 
L 606.383893 -161.825975 
L 610.220315 -163.724961 
L 614.056737 -169.506701 
L 617.893159 -173.292207 
L 621.72958 -175.616658 
L 625.566002 -173.917345 
L 629.402424 -175.601986 
L 633.238846 -174.619004 
L 637.075268 -174.79418 
L 640.91169 -168.450165 
L 644.748112 -158.150199 
L 648.584534 -159.453354 
L 652.420956 -160.769583 
L 656.257378 -165.930222 
L 660.0938 -170.190022 
L 663.930221 -191.537093 
L 663.930221 -206.579585 
L 663.930221 -206.579585 
L 660.0938 -235.615799 
L 656.257378 -245.129847 
L 652.420956 -249.393419 
L 648.584534 -251.158182 
L 644.748112 -231.652593 
L 640.91169 -225.47593 
L 637.075268 -222.799209 
L 633.238846 -224.298627 
L 629.402424 -221.970044 
L 625.566002 -223.377021 
L 621.72958 -221.517519 
L 617.893159 -222.14395 
L 614.056737 -222.223717 
L 610.220315 -223.658955 
L 606.383893 -223.507503 
L 602.547471 -222.181406 
L 598.711049 -221.309717 
L 594.874627 -221.423081 
L 591.038205 -220.99871 
L 587.201783 -220.079733 
L 583.365361 -221.766988 
L 579.528939 -215.549046 
L 575.692517 -213.199952 
L 571.856096 -205.130307 
L 568.019674 -199.832453 
L 564.183252 -198.447454 
L 560.34683 -181.020136 
L 556.510408 -177.137374 
L 552.673986 -160.146619 
L 548.837564 -156.647937 
L 545.001142 -162.436251 
L 541.16472 -154.608321 
L 537.328298 -155.496288 
L 533.491876 -151.280814 
L 529.655455 -147.698182 
L 525.819033 -159.686668 
L 521.982611 -167.643087 
L 518.146189 -167.038579 
L 514.309767 -166.578615 
L 510.473345 -175.038586 
L 506.636923 -177.381263 
L 502.800501 -173.267359 
L 498.964079 -175.815394 
L 495.127657 -188.644005 
L 491.291235 -193.854183 
L 487.454814 -200.239135 
L 483.618392 -208.66781 
L 479.78197 -215.915006 
L 475.945548 -212.148069 
L 472.109126 -209.463324 
L 468.272704 -214.617617 
L 464.436282 -224.870034 
L 460.59986 -220.636896 
L 456.763438 -216.140996 
L 452.927016 -216.198161 
L 449.090594 -215.929963 
L 445.254172 -217.350917 
L 441.417751 -214.696037 
L 437.581329 -212.740729 
L 433.744907 -213.589909 
L 429.908485 -209.688328 
L 426.072063 -210.984805 
L 422.235641 -211.07215 
L 418.399219 -212.412931 
L 414.562797 -210.636324 
L 410.726375 -210.876423 
L 406.889953 -205.698808 
L 403.053531 -201.605124 
L 399.21711 -197.745339 
L 395.380688 -191.505189 
L 391.544266 -184.112274 
L 387.707844 -178.2203 
L 383.871422 -171.090274 
L 380.035 -162.47085 
L 376.198578 -154.906448 
L 372.362156 -149.160629 
L 368.525734 -147.815022 
L 364.689312 -148.551658 
L 360.85289 -171.231484 
L 357.016469 -169.190896 
L 353.180047 -161.266566 
L 349.343625 -155.193253 
L 345.507203 -149.201694 
L 341.670781 -149.049714 
L 337.834359 -166.740991 
L 333.997937 -173.997454 
L 330.161515 -171.0077 
L 326.325093 -172.377796 
L 322.488671 -175.093652 
L 318.652249 -181.871352 
L 314.815828 -178.298272 
L 310.979406 -184.257961 
L 307.142984 -194.418723 
L 303.306562 -204.367912 
L 299.47014 -215.656883 
L 295.633718 -221.551418 
L 291.797296 -220.130077 
L 287.960874 -222.254301 
L 284.124452 -220.548468 
L 280.28803 -216.027006 
L 276.451608 -217.498741 
L 272.615186 -223.24729 
L 268.778765 -219.574357 
L 264.942343 -218.074615 
L 261.105921 -219.761699 
L 257.269499 -222.56239 
L 253.433077 -222.633343 
L 249.596655 -225.479655 
L 245.760233 -222.275445 
L 241.923811 -222.261953 
L 238.087389 -220.062594 
L 234.250967 -217.758355 
L 230.414545 -217.772306 
L 226.578124 -217.051639 
L 222.741702 -216.528041 
L 218.90528 -215.432667 
L 215.068858 -215.002306 
L 211.232436 -214.759007 
L 207.396014 -211.454429 
L 203.559592 -209.086289 
L 199.72317 -207.08099 
L 195.886748 -204.009471 
L 192.050326 -198.399756 
L 188.213904 -194.569592 
L 184.377483 -192.105582 
L 180.541061 -184.214973 
L 176.704639 -181.484812 
L 172.868217 -178.833257 
L 169.031795 -183.786444 
L 165.195373 -178.965379 
L 161.358951 -171.600025 
L 157.522529 -164.580597 
L 153.686107 -172.414524 
L 149.849685 -182.499217 
L 146.013263 -183.208586 
L 142.176841 -186.411725 
L 138.34042 -176.811285 
L 134.503998 -183.202336 
L 130.667576 -180.033899 
L 126.831154 -176.645135 
L 122.994732 -176.489469 
L 119.15831 -181.106453 
L 115.321888 -181.006008 
L 111.485466 -186.878205 
L 107.649044 -182.723694 
L 103.812622 -190.278934 
L 99.9762 -193.067322 
L 96.139779 -195.585334 
L 92.303357 -193.725484 
L 88.466935 -198.790239 
L 84.630513 -197.398313 
L 80.794091 -205.372756 
z
" style="stroke: #808080; stroke-opacity: 0.2"/>
    </defs>
    <g clip-path="url(#p13088fd61c)">
     <use xlink:href="#m794e53e5fd" x="0" y="288" style="fill: #808080; fill-opacity: 0.2; stroke: #808080; stroke-opacity: 0.2"/>
    </g>
   </g>
   <g id="matplotlib.axis_1">
    <g id="xtick_1">
     <g id="line2d_1">
      <defs>
       <path id="m810bdf39ff" d="M 0 0 
L 0 3.5 
" style="stroke: #000000; stroke-width: 0.8"/>
      </defs>
      <g>
       <use xlink:href="#m810bdf39ff" x="126.831154" y="246.04" style="stroke: #000000; stroke-width: 0.8"/>
      </g>
     </g>
     <g id="text_1">
      <!-- 05-18 12 -->
      <g transform="translate(104.350685 260.638438) scale(0.1 -0.1)">
       <defs>
        <path id="DejaVuSans-30" d="M 2034 4250 
Q 1547 4250 1301 3770 
Q 1056 3291 1056 2328 
Q 1056 1369 1301 889 
Q 1547 409 2034 409 
Q 2525 409 2770 889 
Q 3016 1369 3016 2328 
Q 3016 3291 2770 3770 
Q 2525 4250 2034 4250 
z
M 2034 4750 
Q 2819 4750 3233 4129 
Q 3647 3509 3647 2328 
Q 3647 1150 3233 529 
Q 2819 -91 2034 -91 
Q 1250 -91 836 529 
Q 422 1150 422 2328 
Q 422 3509 836 4129 
Q 1250 4750 2034 4750 
z
" transform="scale(0.015625)"/>
        <path id="DejaVuSans-35" d="M 691 4666 
L 3169 4666 
L 3169 4134 
L 1269 4134 
L 1269 2991 
Q 1406 3038 1543 3061 
Q 1681 3084 1819 3084 
Q 2600 3084 3056 2656 
Q 3513 2228 3513 1497 
Q 3513 744 3044 326 
Q 2575 -91 1722 -91 
Q 1428 -91 1123 -41 
Q 819 9 494 109 
L 494 744 
Q 775 591 1075 516 
Q 1375 441 1709 441 
Q 2250 441 2565 725 
Q 2881 1009 2881 1497 
Q 2881 1984 2565 2268 
Q 2250 2553 1709 2553 
Q 1456 2553 1204 2497 
Q 953 2441 691 2322 
L 691 4666 
z
" transform="scale(0.015625)"/>
        <path id="DejaVuSans-2d" d="M 313 2009 
L 1997 2009 
L 1997 1497 
L 313 1497 
L 313 2009 
z
" transform="scale(0.015625)"/>
        <path id="DejaVuSans-31" d="M 794 531 
L 1825 531 
L 1825 4091 
L 703 3866 
L 703 4441 
L 1819 4666 
L 2450 4666 
L 2450 531 
L 3481 531 
L 3481 0 
L 794 0 
L 794 531 
z
" transform="scale(0.015625)"/>
        <path id="DejaVuSans-38" d="M 2034 2216 
Q 1584 2216 1326 1975 
Q 1069 1734 1069 1313 
Q 1069 891 1326 650 
Q 1584 409 2034 409 
Q 2484 409 2743 651 
Q 3003 894 3003 1313 
Q 3003 1734 2745 1975 
Q 2488 2216 2034 2216 
z
M 1403 2484 
Q 997 2584 770 2862 
Q 544 3141 544 3541 
Q 544 4100 942 4425 
Q 1341 4750 2034 4750 
Q 2731 4750 3128 4425 
Q 3525 4100 3525 3541 
Q 3525 3141 3298 2862 
Q 3072 2584 2669 2484 
Q 3125 2378 3379 2068 
Q 3634 1759 3634 1313 
Q 3634 634 3220 271 
Q 2806 -91 2034 -91 
Q 1263 -91 848 271 
Q 434 634 434 1313 
Q 434 1759 690 2068 
Q 947 2378 1403 2484 
z
M 1172 3481 
Q 1172 3119 1398 2916 
Q 1625 2713 2034 2713 
Q 2441 2713 2670 2916 
Q 2900 3119 2900 3481 
Q 2900 3844 2670 4047 
Q 2441 4250 2034 4250 
Q 1625 4250 1398 4047 
Q 1172 3844 1172 3481 
z
" transform="scale(0.015625)"/>
        <path id="DejaVuSans-20" transform="scale(0.015625)"/>
        <path id="DejaVuSans-32" d="M 1228 531 
L 3431 531 
L 3431 0 
L 469 0 
L 469 531 
Q 828 903 1448 1529 
Q 2069 2156 2228 2338 
Q 2531 2678 2651 2914 
Q 2772 3150 2772 3378 
Q 2772 3750 2511 3984 
Q 2250 4219 1831 4219 
Q 1534 4219 1204 4116 
Q 875 4013 500 3803 
L 500 4441 
Q 881 4594 1212 4672 
Q 1544 4750 1819 4750 
Q 2544 4750 2975 4387 
Q 3406 4025 3406 3419 
Q 3406 3131 3298 2873 
Q 3191 2616 2906 2266 
Q 2828 2175 2409 1742 
Q 1991 1309 1228 531 
z
" transform="scale(0.015625)"/>
       </defs>
       <use xlink:href="#DejaVuSans-30"/>
       <use xlink:href="#DejaVuSans-35" transform="translate(63.623047 0)"/>
       <use xlink:href="#DejaVuSans-2d" transform="translate(127.246094 0)"/>
       <use xlink:href="#DejaVuSans-31" transform="translate(163.330078 0)"/>
       <use xlink:href="#DejaVuSans-38" transform="translate(226.953125 0)"/>
       <use xlink:href="#DejaVuSans-20" transform="translate(290.576172 0)"/>
       <use xlink:href="#DejaVuSans-31" transform="translate(322.363281 0)"/>
       <use xlink:href="#DejaVuSans-32" transform="translate(385.986328 0)"/>
      </g>
     </g>
    </g>
    <g id="xtick_2">
     <g id="line2d_2">
      <g>
       <use xlink:href="#m810bdf39ff" x="218.90528" y="246.04" style="stroke: #000000; stroke-width: 0.8"/>
      </g>
     </g>
     <g id="text_2">
      <!-- 05-19 00 -->
      <g transform="translate(196.424811 260.638438) scale(0.1 -0.1)">
       <defs>
        <path id="DejaVuSans-39" d="M 703 97 
L 703 672 
Q 941 559 1184 500 
Q 1428 441 1663 441 
Q 2288 441 2617 861 
Q 2947 1281 2994 2138 
Q 2813 1869 2534 1725 
Q 2256 1581 1919 1581 
Q 1219 1581 811 2004 
Q 403 2428 403 3163 
Q 403 3881 828 4315 
Q 1253 4750 1959 4750 
Q 2769 4750 3195 4129 
Q 3622 3509 3622 2328 
Q 3622 1225 3098 567 
Q 2575 -91 1691 -91 
Q 1453 -91 1209 -44 
Q 966 3 703 97 
z
M 1959 2075 
Q 2384 2075 2632 2365 
Q 2881 2656 2881 3163 
Q 2881 3666 2632 3958 
Q 2384 4250 1959 4250 
Q 1534 4250 1286 3958 
Q 1038 3666 1038 3163 
Q 1038 2656 1286 2365 
Q 1534 2075 1959 2075 
z
" transform="scale(0.015625)"/>
       </defs>
       <use xlink:href="#DejaVuSans-30"/>
       <use xlink:href="#DejaVuSans-35" transform="translate(63.623047 0)"/>
       <use xlink:href="#DejaVuSans-2d" transform="translate(127.246094 0)"/>
       <use xlink:href="#DejaVuSans-31" transform="translate(163.330078 0)"/>
       <use xlink:href="#DejaVuSans-39" transform="translate(226.953125 0)"/>
       <use xlink:href="#DejaVuSans-20" transform="translate(290.576172 0)"/>
       <use xlink:href="#DejaVuSans-30" transform="translate(322.363281 0)"/>
       <use xlink:href="#DejaVuSans-30" transform="translate(385.986328 0)"/>
      </g>
     </g>
    </g>
    <g id="xtick_3">
     <g id="line2d_3">
      <g>
       <use xlink:href="#m810bdf39ff" x="310.979406" y="246.04" style="stroke: #000000; stroke-width: 0.8"/>
      </g>
     </g>
     <g id="text_3">
      <!-- 05-19 12 -->
      <g transform="translate(288.498937 260.638438) scale(0.1 -0.1)">
       <use xlink:href="#DejaVuSans-30"/>
       <use xlink:href="#DejaVuSans-35" transform="translate(63.623047 0)"/>
       <use xlink:href="#DejaVuSans-2d" transform="translate(127.246094 0)"/>
       <use xlink:href="#DejaVuSans-31" transform="translate(163.330078 0)"/>
       <use xlink:href="#DejaVuSans-39" transform="translate(226.953125 0)"/>
       <use xlink:href="#DejaVuSans-20" transform="translate(290.576172 0)"/>
       <use xlink:href="#DejaVuSans-31" transform="translate(322.363281 0)"/>
       <use xlink:href="#DejaVuSans-32" transform="translate(385.986328 0)"/>
      </g>
     </g>
    </g>
    <g id="xtick_4">
     <g id="line2d_4">
      <g>
       <use xlink:href="#m810bdf39ff" x="403.053531" y="246.04" style="stroke: #000000; stroke-width: 0.8"/>
      </g>
     </g>
     <g id="text_4">
      <!-- 05-20 00 -->
      <g transform="translate(380.573063 260.638438) scale(0.1 -0.1)">
       <use xlink:href="#DejaVuSans-30"/>
       <use xlink:href="#DejaVuSans-35" transform="translate(63.623047 0)"/>
       <use xlink:href="#DejaVuSans-2d" transform="translate(127.246094 0)"/>
       <use xlink:href="#DejaVuSans-32" transform="translate(163.330078 0)"/>
       <use xlink:href="#DejaVuSans-30" transform="translate(226.953125 0)"/>
       <use xlink:href="#DejaVuSans-20" transform="translate(290.576172 0)"/>
       <use xlink:href="#DejaVuSans-30" transform="translate(322.363281 0)"/>
       <use xlink:href="#DejaVuSans-30" transform="translate(385.986328 0)"/>
      </g>
     </g>
    </g>
    <g id="xtick_5">
     <g id="line2d_5">
      <g>
       <use xlink:href="#m810bdf39ff" x="495.127657" y="246.04" style="stroke: #000000; stroke-width: 0.8"/>
      </g>
     </g>
     <g id="text_5">
      <!-- 05-20 12 -->
      <g transform="translate(472.647189 260.638438) scale(0.1 -0.1)">
       <use xlink:href="#DejaVuSans-30"/>
       <use xlink:href="#DejaVuSans-35" transform="translate(63.623047 0)"/>
       <use xlink:href="#DejaVuSans-2d" transform="translate(127.246094 0)"/>
       <use xlink:href="#DejaVuSans-32" transform="translate(163.330078 0)"/>
       <use xlink:href="#DejaVuSans-30" transform="translate(226.953125 0)"/>
       <use xlink:href="#DejaVuSans-20" transform="translate(290.576172 0)"/>
       <use xlink:href="#DejaVuSans-31" transform="translate(322.363281 0)"/>
       <use xlink:href="#DejaVuSans-32" transform="translate(385.986328 0)"/>
      </g>
     </g>
    </g>
    <g id="xtick_6">
     <g id="line2d_6">
      <g>
       <use xlink:href="#m810bdf39ff" x="587.201783" y="246.04" style="stroke: #000000; stroke-width: 0.8"/>
      </g>
     </g>
     <g id="text_6">
      <!-- 05-21 00 -->
      <g transform="translate(564.721314 260.638438) scale(0.1 -0.1)">
       <use xlink:href="#DejaVuSans-30"/>
       <use xlink:href="#DejaVuSans-35" transform="translate(63.623047 0)"/>
       <use xlink:href="#DejaVuSans-2d" transform="translate(127.246094 0)"/>
       <use xlink:href="#DejaVuSans-32" transform="translate(163.330078 0)"/>
       <use xlink:href="#DejaVuSans-31" transform="translate(226.953125 0)"/>
       <use xlink:href="#DejaVuSans-20" transform="translate(290.576172 0)"/>
       <use xlink:href="#DejaVuSans-30" transform="translate(322.363281 0)"/>
       <use xlink:href="#DejaVuSans-30" transform="translate(385.986328 0)"/>
      </g>
     </g>
    </g>
    <g id="xtick_7">
     <g id="line2d_7">
      <g>
       <use xlink:href="#m810bdf39ff" x="679.275909" y="246.04" style="stroke: #000000; stroke-width: 0.8"/>
      </g>
     </g>
     <g id="text_7">
      <!-- 05-21 12 -->
      <g transform="translate(656.79544 260.638438) scale(0.1 -0.1)">
       <use xlink:href="#DejaVuSans-30"/>
       <use xlink:href="#DejaVuSans-35" transform="translate(63.623047 0)"/>
       <use xlink:href="#DejaVuSans-2d" transform="translate(127.246094 0)"/>
       <use xlink:href="#DejaVuSans-32" transform="translate(163.330078 0)"/>
       <use xlink:href="#DejaVuSans-31" transform="translate(226.953125 0)"/>
       <use xlink:href="#DejaVuSans-20" transform="translate(290.576172 0)"/>
       <use xlink:href="#DejaVuSans-31" transform="translate(322.363281 0)"/>
       <use xlink:href="#DejaVuSans-32" transform="translate(385.986328 0)"/>
      </g>
     </g>
    </g>
    <g id="text_8">
     <!-- Tijd -->
     <g transform="translate(371.185 274.316562) scale(0.1 -0.1)">
      <defs>
       <path id="DejaVuSans-54" d="M -19 4666 
L 3928 4666 
L 3928 4134 
L 2272 4134 
L 2272 0 
L 1638 0 
L 1638 4134 
L -19 4134 
L -19 4666 
z
" transform="scale(0.015625)"/>
       <path id="DejaVuSans-69" d="M 603 3500 
L 1178 3500 
L 1178 0 
L 603 0 
L 603 3500 
z
M 603 4863 
L 1178 4863 
L 1178 4134 
L 603 4134 
L 603 4863 
z
" transform="scale(0.015625)"/>
       <path id="DejaVuSans-6a" d="M 603 3500 
L 1178 3500 
L 1178 -63 
Q 1178 -731 923 -1031 
Q 669 -1331 103 -1331 
L -116 -1331 
L -116 -844 
L 38 -844 
Q 366 -844 484 -692 
Q 603 -541 603 -63 
L 603 3500 
z
M 603 4863 
L 1178 4863 
L 1178 4134 
L 603 4134 
L 603 4863 
z
" transform="scale(0.015625)"/>
       <path id="DejaVuSans-64" d="M 2906 2969 
L 2906 4863 
L 3481 4863 
L 3481 0 
L 2906 0 
L 2906 525 
Q 2725 213 2448 61 
Q 2172 -91 1784 -91 
Q 1150 -91 751 415 
Q 353 922 353 1747 
Q 353 2572 751 3078 
Q 1150 3584 1784 3584 
Q 2172 3584 2448 3432 
Q 2725 3281 2906 2969 
z
M 947 1747 
Q 947 1113 1208 752 
Q 1469 391 1925 391 
Q 2381 391 2643 752 
Q 2906 1113 2906 1747 
Q 2906 2381 2643 2742 
Q 2381 3103 1925 3103 
Q 1469 3103 1208 2742 
Q 947 2381 947 1747 
z
" transform="scale(0.015625)"/>
      </defs>
      <use xlink:href="#DejaVuSans-54"/>
      <use xlink:href="#DejaVuSans-69" transform="translate(57.958984 0)"/>
      <use xlink:href="#DejaVuSans-6a" transform="translate(85.742188 0)"/>
      <use xlink:href="#DejaVuSans-64" transform="translate(113.525391 0)"/>
     </g>
    </g>
   </g>
   <g id="matplotlib.axis_2">
    <g id="ytick_1">
     <g id="line2d_8">
      <defs>
       <path id="mc7378526b4" d="M 0 0 
L -3.5 0 
" style="stroke: #000000; stroke-width: 0.8"/>
      </defs>
      <g>
       <use xlink:href="#mc7378526b4" x="50.87" y="208.92433" style="stroke: #000000; stroke-width: 0.8"/>
      </g>
     </g>
     <g id="text_9">
      <!-- 20 -->
      <g transform="translate(31.145 212.723549) scale(0.1 -0.1)">
       <use xlink:href="#DejaVuSans-32"/>
       <use xlink:href="#DejaVuSans-30" transform="translate(63.623047 0)"/>
      </g>
     </g>
    </g>
    <g id="ytick_2">
     <g id="line2d_9">
      <g>
       <use xlink:href="#mc7378526b4" x="50.87" y="170.478615" style="stroke: #000000; stroke-width: 0.8"/>
      </g>
     </g>
     <g id="text_10">
      <!-- 40 -->
      <g transform="translate(31.145 174.277834) scale(0.1 -0.1)">
       <defs>
        <path id="DejaVuSans-34" d="M 2419 4116 
L 825 1625 
L 2419 1625 
L 2419 4116 
z
M 2253 4666 
L 3047 4666 
L 3047 1625 
L 3713 1625 
L 3713 1100 
L 3047 1100 
L 3047 0 
L 2419 0 
L 2419 1100 
L 313 1100 
L 313 1709 
L 2253 4666 
z
" transform="scale(0.015625)"/>
       </defs>
       <use xlink:href="#DejaVuSans-34"/>
       <use xlink:href="#DejaVuSans-30" transform="translate(63.623047 0)"/>
      </g>
     </g>
    </g>
    <g id="ytick_3">
     <g id="line2d_10">
      <g>
       <use xlink:href="#mc7378526b4" x="50.87" y="132.0329" style="stroke: #000000; stroke-width: 0.8"/>
      </g>
     </g>
     <g id="text_11">
      <!-- 60 -->
      <g transform="translate(31.145 135.832119) scale(0.1 -0.1)">
       <defs>
        <path id="DejaVuSans-36" d="M 2113 2584 
Q 1688 2584 1439 2293 
Q 1191 2003 1191 1497 
Q 1191 994 1439 701 
Q 1688 409 2113 409 
Q 2538 409 2786 701 
Q 3034 994 3034 1497 
Q 3034 2003 2786 2293 
Q 2538 2584 2113 2584 
z
M 3366 4563 
L 3366 3988 
Q 3128 4100 2886 4159 
Q 2644 4219 2406 4219 
Q 1781 4219 1451 3797 
Q 1122 3375 1075 2522 
Q 1259 2794 1537 2939 
Q 1816 3084 2150 3084 
Q 2853 3084 3261 2657 
Q 3669 2231 3669 1497 
Q 3669 778 3244 343 
Q 2819 -91 2113 -91 
Q 1303 -91 875 529 
Q 447 1150 447 2328 
Q 447 3434 972 4092 
Q 1497 4750 2381 4750 
Q 2619 4750 2861 4703 
Q 3103 4656 3366 4563 
z
" transform="scale(0.015625)"/>
       </defs>
       <use xlink:href="#DejaVuSans-36"/>
       <use xlink:href="#DejaVuSans-30" transform="translate(63.623047 0)"/>
      </g>
     </g>
    </g>
    <g id="ytick_4">
     <g id="line2d_11">
      <g>
       <use xlink:href="#mc7378526b4" x="50.87" y="93.587185" style="stroke: #000000; stroke-width: 0.8"/>
      </g>
     </g>
     <g id="text_12">
      <!-- 80 -->
      <g transform="translate(31.145 97.386404) scale(0.1 -0.1)">
       <use xlink:href="#DejaVuSans-38"/>
       <use xlink:href="#DejaVuSans-30" transform="translate(63.623047 0)"/>
      </g>
     </g>
    </g>
    <g id="ytick_5">
     <g id="line2d_12">
      <g>
       <use xlink:href="#mc7378526b4" x="50.87" y="55.14147" style="stroke: #000000; stroke-width: 0.8"/>
      </g>
     </g>
     <g id="text_13">
      <!-- 100 -->
      <g transform="translate(24.7825 58.940689) scale(0.1 -0.1)">
       <use xlink:href="#DejaVuSans-31"/>
       <use xlink:href="#DejaVuSans-30" transform="translate(63.623047 0)"/>
       <use xlink:href="#DejaVuSans-30" transform="translate(127.246094 0)"/>
      </g>
     </g>
    </g>
    <g id="text_14">
     <!-- (Rel.) Buiten Vochtigheid (%) -->
     <g transform="translate(18.702813 208.620937) rotate(-90) scale(0.1 -0.1)">
      <defs>
       <path id="DejaVuSans-28" d="M 1984 4856 
Q 1566 4138 1362 3434 
Q 1159 2731 1159 2009 
Q 1159 1288 1364 580 
Q 1569 -128 1984 -844 
L 1484 -844 
Q 1016 -109 783 600 
Q 550 1309 550 2009 
Q 550 2706 781 3412 
Q 1013 4119 1484 4856 
L 1984 4856 
z
" transform="scale(0.015625)"/>
       <path id="DejaVuSans-52" d="M 2841 2188 
Q 3044 2119 3236 1894 
Q 3428 1669 3622 1275 
L 4263 0 
L 3584 0 
L 2988 1197 
Q 2756 1666 2539 1819 
Q 2322 1972 1947 1972 
L 1259 1972 
L 1259 0 
L 628 0 
L 628 4666 
L 2053 4666 
Q 2853 4666 3247 4331 
Q 3641 3997 3641 3322 
Q 3641 2881 3436 2590 
Q 3231 2300 2841 2188 
z
M 1259 4147 
L 1259 2491 
L 2053 2491 
Q 2509 2491 2742 2702 
Q 2975 2913 2975 3322 
Q 2975 3731 2742 3939 
Q 2509 4147 2053 4147 
L 1259 4147 
z
" transform="scale(0.015625)"/>
       <path id="DejaVuSans-65" d="M 3597 1894 
L 3597 1613 
L 953 1613 
Q 991 1019 1311 708 
Q 1631 397 2203 397 
Q 2534 397 2845 478 
Q 3156 559 3463 722 
L 3463 178 
Q 3153 47 2828 -22 
Q 2503 -91 2169 -91 
Q 1331 -91 842 396 
Q 353 884 353 1716 
Q 353 2575 817 3079 
Q 1281 3584 2069 3584 
Q 2775 3584 3186 3129 
Q 3597 2675 3597 1894 
z
M 3022 2063 
Q 3016 2534 2758 2815 
Q 2500 3097 2075 3097 
Q 1594 3097 1305 2825 
Q 1016 2553 972 2059 
L 3022 2063 
z
" transform="scale(0.015625)"/>
       <path id="DejaVuSans-6c" d="M 603 4863 
L 1178 4863 
L 1178 0 
L 603 0 
L 603 4863 
z
" transform="scale(0.015625)"/>
       <path id="DejaVuSans-2e" d="M 684 794 
L 1344 794 
L 1344 0 
L 684 0 
L 684 794 
z
" transform="scale(0.015625)"/>
       <path id="DejaVuSans-29" d="M 513 4856 
L 1013 4856 
Q 1481 4119 1714 3412 
Q 1947 2706 1947 2009 
Q 1947 1309 1714 600 
Q 1481 -109 1013 -844 
L 513 -844 
Q 928 -128 1133 580 
Q 1338 1288 1338 2009 
Q 1338 2731 1133 3434 
Q 928 4138 513 4856 
z
" transform="scale(0.015625)"/>
       <path id="DejaVuSans-42" d="M 1259 2228 
L 1259 519 
L 2272 519 
Q 2781 519 3026 730 
Q 3272 941 3272 1375 
Q 3272 1813 3026 2020 
Q 2781 2228 2272 2228 
L 1259 2228 
z
M 1259 4147 
L 1259 2741 
L 2194 2741 
Q 2656 2741 2882 2914 
Q 3109 3088 3109 3444 
Q 3109 3797 2882 3972 
Q 2656 4147 2194 4147 
L 1259 4147 
z
M 628 4666 
L 2241 4666 
Q 2963 4666 3353 4366 
Q 3744 4066 3744 3513 
Q 3744 3084 3544 2831 
Q 3344 2578 2956 2516 
Q 3422 2416 3680 2098 
Q 3938 1781 3938 1306 
Q 3938 681 3513 340 
Q 3088 0 2303 0 
L 628 0 
L 628 4666 
z
" transform="scale(0.015625)"/>
       <path id="DejaVuSans-75" d="M 544 1381 
L 544 3500 
L 1119 3500 
L 1119 1403 
Q 1119 906 1312 657 
Q 1506 409 1894 409 
Q 2359 409 2629 706 
Q 2900 1003 2900 1516 
L 2900 3500 
L 3475 3500 
L 3475 0 
L 2900 0 
L 2900 538 
Q 2691 219 2414 64 
Q 2138 -91 1772 -91 
Q 1169 -91 856 284 
Q 544 659 544 1381 
z
M 1991 3584 
L 1991 3584 
z
" transform="scale(0.015625)"/>
       <path id="DejaVuSans-74" d="M 1172 4494 
L 1172 3500 
L 2356 3500 
L 2356 3053 
L 1172 3053 
L 1172 1153 
Q 1172 725 1289 603 
Q 1406 481 1766 481 
L 2356 481 
L 2356 0 
L 1766 0 
Q 1100 0 847 248 
Q 594 497 594 1153 
L 594 3053 
L 172 3053 
L 172 3500 
L 594 3500 
L 594 4494 
L 1172 4494 
z
" transform="scale(0.015625)"/>
       <path id="DejaVuSans-6e" d="M 3513 2113 
L 3513 0 
L 2938 0 
L 2938 2094 
Q 2938 2591 2744 2837 
Q 2550 3084 2163 3084 
Q 1697 3084 1428 2787 
Q 1159 2491 1159 1978 
L 1159 0 
L 581 0 
L 581 3500 
L 1159 3500 
L 1159 2956 
Q 1366 3272 1645 3428 
Q 1925 3584 2291 3584 
Q 2894 3584 3203 3211 
Q 3513 2838 3513 2113 
z
" transform="scale(0.015625)"/>
       <path id="DejaVuSans-56" d="M 1831 0 
L 50 4666 
L 709 4666 
L 2188 738 
L 3669 4666 
L 4325 4666 
L 2547 0 
L 1831 0 
z
" transform="scale(0.015625)"/>
       <path id="DejaVuSans-6f" d="M 1959 3097 
Q 1497 3097 1228 2736 
Q 959 2375 959 1747 
Q 959 1119 1226 758 
Q 1494 397 1959 397 
Q 2419 397 2687 759 
Q 2956 1122 2956 1747 
Q 2956 2369 2687 2733 
Q 2419 3097 1959 3097 
z
M 1959 3584 
Q 2709 3584 3137 3096 
Q 3566 2609 3566 1747 
Q 3566 888 3137 398 
Q 2709 -91 1959 -91 
Q 1206 -91 779 398 
Q 353 888 353 1747 
Q 353 2609 779 3096 
Q 1206 3584 1959 3584 
z
" transform="scale(0.015625)"/>
       <path id="DejaVuSans-63" d="M 3122 3366 
L 3122 2828 
Q 2878 2963 2633 3030 
Q 2388 3097 2138 3097 
Q 1578 3097 1268 2742 
Q 959 2388 959 1747 
Q 959 1106 1268 751 
Q 1578 397 2138 397 
Q 2388 397 2633 464 
Q 2878 531 3122 666 
L 3122 134 
Q 2881 22 2623 -34 
Q 2366 -91 2075 -91 
Q 1284 -91 818 406 
Q 353 903 353 1747 
Q 353 2603 823 3093 
Q 1294 3584 2113 3584 
Q 2378 3584 2631 3529 
Q 2884 3475 3122 3366 
z
" transform="scale(0.015625)"/>
       <path id="DejaVuSans-68" d="M 3513 2113 
L 3513 0 
L 2938 0 
L 2938 2094 
Q 2938 2591 2744 2837 
Q 2550 3084 2163 3084 
Q 1697 3084 1428 2787 
Q 1159 2491 1159 1978 
L 1159 0 
L 581 0 
L 581 4863 
L 1159 4863 
L 1159 2956 
Q 1366 3272 1645 3428 
Q 1925 3584 2291 3584 
Q 2894 3584 3203 3211 
Q 3513 2838 3513 2113 
z
" transform="scale(0.015625)"/>
       <path id="DejaVuSans-67" d="M 2906 1791 
Q 2906 2416 2648 2759 
Q 2391 3103 1925 3103 
Q 1463 3103 1205 2759 
Q 947 2416 947 1791 
Q 947 1169 1205 825 
Q 1463 481 1925 481 
Q 2391 481 2648 825 
Q 2906 1169 2906 1791 
z
M 3481 434 
Q 3481 -459 3084 -895 
Q 2688 -1331 1869 -1331 
Q 1566 -1331 1297 -1286 
Q 1028 -1241 775 -1147 
L 775 -588 
Q 1028 -725 1275 -790 
Q 1522 -856 1778 -856 
Q 2344 -856 2625 -561 
Q 2906 -266 2906 331 
L 2906 616 
Q 2728 306 2450 153 
Q 2172 0 1784 0 
Q 1141 0 747 490 
Q 353 981 353 1791 
Q 353 2603 747 3093 
Q 1141 3584 1784 3584 
Q 2172 3584 2450 3431 
Q 2728 3278 2906 2969 
L 2906 3500 
L 3481 3500 
L 3481 434 
z
" transform="scale(0.015625)"/>
       <path id="DejaVuSans-25" d="M 4653 2053 
Q 4381 2053 4226 1822 
Q 4072 1591 4072 1178 
Q 4072 772 4226 539 
Q 4381 306 4653 306 
Q 4919 306 5073 539 
Q 5228 772 5228 1178 
Q 5228 1588 5073 1820 
Q 4919 2053 4653 2053 
z
M 4653 2450 
Q 5147 2450 5437 2106 
Q 5728 1763 5728 1178 
Q 5728 594 5436 251 
Q 5144 -91 4653 -91 
Q 4153 -91 3862 251 
Q 3572 594 3572 1178 
Q 3572 1766 3864 2108 
Q 4156 2450 4653 2450 
z
M 1428 4353 
Q 1159 4353 1004 4120 
Q 850 3888 850 3481 
Q 850 3069 1003 2837 
Q 1156 2606 1428 2606 
Q 1700 2606 1854 2837 
Q 2009 3069 2009 3481 
Q 2009 3884 1853 4118 
Q 1697 4353 1428 4353 
z
M 4250 4750 
L 4750 4750 
L 1831 -91 
L 1331 -91 
L 4250 4750 
z
M 1428 4750 
Q 1922 4750 2215 4408 
Q 2509 4066 2509 3481 
Q 2509 2891 2217 2550 
Q 1925 2209 1428 2209 
Q 931 2209 642 2551 
Q 353 2894 353 3481 
Q 353 4063 643 4406 
Q 934 4750 1428 4750 
z
" transform="scale(0.015625)"/>
      </defs>
      <use xlink:href="#DejaVuSans-28"/>
      <use xlink:href="#DejaVuSans-52" transform="translate(39.013672 0)"/>
      <use xlink:href="#DejaVuSans-65" transform="translate(103.996094 0)"/>
      <use xlink:href="#DejaVuSans-6c" transform="translate(165.519531 0)"/>
      <use xlink:href="#DejaVuSans-2e" transform="translate(193.302734 0)"/>
      <use xlink:href="#DejaVuSans-29" transform="translate(225.089844 0)"/>
      <use xlink:href="#DejaVuSans-20" transform="translate(264.103516 0)"/>
      <use xlink:href="#DejaVuSans-42" transform="translate(295.890625 0)"/>
      <use xlink:href="#DejaVuSans-75" transform="translate(364.494141 0)"/>
      <use xlink:href="#DejaVuSans-69" transform="translate(427.873047 0)"/>
      <use xlink:href="#DejaVuSans-74" transform="translate(455.65625 0)"/>
      <use xlink:href="#DejaVuSans-65" transform="translate(494.865234 0)"/>
      <use xlink:href="#DejaVuSans-6e" transform="translate(556.388672 0)"/>
      <use xlink:href="#DejaVuSans-20" transform="translate(619.767578 0)"/>
      <use xlink:href="#DejaVuSans-56" transform="translate(651.554688 0)"/>
      <use xlink:href="#DejaVuSans-6f" transform="translate(712.212891 0)"/>
      <use xlink:href="#DejaVuSans-63" transform="translate(773.394531 0)"/>
      <use xlink:href="#DejaVuSans-68" transform="translate(828.375 0)"/>
      <use xlink:href="#DejaVuSans-74" transform="translate(891.753906 0)"/>
      <use xlink:href="#DejaVuSans-69" transform="translate(930.962891 0)"/>
      <use xlink:href="#DejaVuSans-67" transform="translate(958.746094 0)"/>
      <use xlink:href="#DejaVuSans-68" transform="translate(1022.222656 0)"/>
      <use xlink:href="#DejaVuSans-65" transform="translate(1085.601562 0)"/>
      <use xlink:href="#DejaVuSans-69" transform="translate(1147.125 0)"/>
      <use xlink:href="#DejaVuSans-64" transform="translate(1174.908203 0)"/>
      <use xlink:href="#DejaVuSans-20" transform="translate(1238.384766 0)"/>
      <use xlink:href="#DejaVuSans-28" transform="translate(1270.171875 0)"/>
      <use xlink:href="#DejaVuSans-25" transform="translate(1309.185547 0)"/>
      <use xlink:href="#DejaVuSans-29" transform="translate(1404.205078 0)"/>
     </g>
    </g>
   </g>
   <g id="line2d_13">
    <path d="M 80.794091 112.233357 
L 88.466935 114.02749 
L 96.139779 119.794347 
L 99.9762 122.10109 
L 103.812622 126.906805 
L 111.485466 131.071757 
L 115.321888 135.941548 
L 119.15831 139.786119 
L 122.994732 147.731567 
L 126.831154 150.486843 
L 130.667576 154.715872 
L 134.503998 157.855605 
L 138.34042 162.693358 
L 142.176841 164.903986 
L 146.013263 172.657205 
L 153.686107 169.773777 
L 157.522529 166.249586 
L 161.358951 163.238005 
L 165.195373 161.6361 
L 169.031795 160.80311 
L 172.868217 159.329358 
L 176.704639 154.587719 
L 180.541061 145.296672 
L 184.377483 132.737738 
L 188.213904 124.023376 
L 192.050326 114.988633 
L 195.886748 110.695528 
L 199.72317 108.388785 
L 203.559592 103.518995 
L 207.396014 100.763718 
L 211.232436 100.891871 
L 215.068858 98.841433 
L 218.90528 98.264747 
L 222.741702 99.097737 
L 226.578124 98.585128 
L 230.414545 97.944366 
L 234.250967 96.726918 
L 238.087389 96.086156 
L 241.923811 93.587185 
L 245.760233 91.921204 
L 249.596655 90.030956 
L 253.433077 88.845547 
L 257.269499 89.358156 
L 261.105921 89.678537 
L 264.942343 89.037775 
L 272.615186 99.738499 
L 276.451608 107.940252 
L 280.28803 120.499185 
L 284.124452 129.469852 
L 291.797296 151.512062 
L 299.47014 162.853548 
L 303.306562 167.338882 
L 307.142984 162.084634 
L 310.979406 163.558386 
L 314.815828 164.647681 
L 318.652249 163.49431 
L 322.488671 161.31572 
L 326.325093 159.906043 
L 330.161515 166.313662 
L 333.997937 165.993282 
L 337.834359 164.968062 
L 341.670781 160.995339 
L 345.507203 159.073053 
L 349.343625 157.278919 
L 353.180047 156.638158 
L 357.016469 154.779948 
L 364.689312 149.5257 
L 368.525734 146.514119 
L 372.362156 146.514119 
L 376.198578 141.516176 
L 380.035 134.467795 
L 387.707844 122.229243 
L 391.544266 114.796404 
L 395.380688 108.068404 
L 399.21711 101.596709 
L 403.053531 102.173395 
L 406.889953 105.184976 
L 410.726375 105.889814 
L 414.562797 104.992747 
L 418.399219 101.276328 
L 422.235641 98.585128 
L 426.072063 97.36768 
L 429.908485 97.175452 
L 433.744907 95.893928 
L 437.581329 95.765775 
L 441.417751 96.278385 
L 445.254172 96.470614 
L 449.090594 98.136595 
L 452.927016 103.518995 
L 456.763438 112.874119 
L 460.59986 123.318538 
L 464.436282 132.481433 
L 468.272704 145.4889 
L 472.109126 151.736329 
L 475.945548 159.073053 
L 479.78197 167.467034 
L 483.618392 161.924443 
L 487.454814 165.865129 
L 491.291235 170.22231 
L 495.127657 169.837853 
L 498.964079 175.476558 
L 502.800501 176.629929 
L 506.636923 177.398844 
L 514.309767 171.375682 
L 518.146189 169.453396 
L 521.982611 157.342996 
L 525.819033 151.576138 
L 529.655455 146.065586 
L 533.491876 150.8713 
L 537.328298 153.754729 
L 541.16472 149.045129 
L 545.001142 143.31031 
L 548.837564 139.209433 
L 552.673986 136.454157 
L 556.510408 123.702995 
L 560.34683 117.551681 
L 564.183252 107.29949 
L 568.019674 100.379261 
L 571.856096 96.278385 
L 575.692517 93.074575 
L 579.528939 91.728975 
L 583.365361 90.575604 
L 587.201783 89.037775 
L 591.038205 88.589242 
L 598.711049 88.46109 
L 602.547471 85.833966 
L 606.383893 84.42429 
L 610.220315 84.296137 
L 614.056737 84.808747 
L 617.893159 83.527223 
L 621.72958 82.758309 
L 625.566002 81.348632 
L 629.402424 82.72627 
L 633.238846 82.758309 
L 637.075268 87.820328 
L 640.91169 94.740556 
L 640.91169 94.740556 
" clip-path="url(#p13088fd61c)" style="fill: none; stroke: #1f77b4; stroke-width: 2; stroke-linecap: square"/>
   </g>
   <g id="line2d_14">
    <path d="M 80.794091 101.660785 
L 84.630513 113.386728 
L 88.466935 116.398309 
L 92.303357 118.073444 
L 96.139779 119.927077 
L 99.9762 122.069052 
L 103.812622 123.88607 
L 107.649044 129.640722 
L 111.485466 131.18389 
L 115.321888 133.140503 
L 119.15831 138.353559 
L 122.994732 141.140873 
L 126.831154 142.733624 
L 130.667576 149.461624 
L 134.503998 154.480163 
L 138.34042 158.903709 
L 142.176841 162.729973 
L 146.013263 162.597243 
L 149.849685 163.585847 
L 153.686107 159.283589 
L 157.522529 155.722783 
L 161.358951 159.526163 
L 165.195373 157.823567 
L 169.031795 152.258092 
L 172.868217 149.997118 
L 176.704639 144.935099 
L 180.541061 137.653297 
L 184.377483 134.184029 
L 188.213904 128.060176 
L 192.050326 120.105575 
L 195.886748 118.769128 
L 199.72317 116.334233 
L 207.396014 109.514695 
L 211.232436 107.720562 
L 215.068858 104.306216 
L 218.90528 101.450249 
L 222.741702 99.033661 
L 226.578124 97.038146 
L 230.414545 95.40878 
L 234.250967 94.227947 
L 238.087389 92.607735 
L 241.923811 90.850216 
L 245.760233 90.127071 
L 249.596655 87.564023 
L 253.433077 89.248311 
L 257.269499 88.625857 
L 261.105921 90.062994 
L 264.942343 90.017226 
L 268.778765 91.390287 
L 272.615186 93.405636 
L 276.451608 98.887201 
L 280.28803 105.28109 
L 284.124452 115.208323 
L 287.960874 123.977607 
L 291.797296 130.691877 
L 295.633718 138.577825 
L 299.47014 145.685706 
L 303.306562 150.532612 
L 307.142984 152.917162 
L 310.979406 156.349815 
L 314.815828 158.624519 
L 318.652249 163.179269 
L 322.488671 165.361673 
L 326.325093 169.599856 
L 330.161515 172.144596 
L 333.997937 171.242952 
L 337.834359 170.171965 
L 341.670781 169.247437 
L 345.507203 169.659355 
L 349.343625 167.801145 
L 353.180047 167.91099 
L 357.016469 163.828422 
L 360.85289 161.388949 
L 364.689312 160.226424 
L 368.525734 156.082831 
L 372.362156 151.597497 
L 376.198578 145.446183 
L 380.035 139.059922 
L 383.871422 132.20377 
L 387.707844 126.767973 
L 395.380688 117.434208 
L 399.21711 113.215858 
L 403.053531 110.471261 
L 406.889953 108.709166 
L 410.726375 106.799696 
L 414.562797 105.671955 
L 426.072063 101.281668 
L 429.908485 99.252588 
L 437.581329 96.36382 
L 441.417751 95.648302 
L 445.254172 95.6184 
L 449.090594 99.55161 
L 456.763438 106.947071 
L 460.59986 110.343109 
L 464.436282 117.007033 
L 468.272704 125.080633 
L 475.945548 136.91871 
L 479.78197 139.834176 
L 483.618392 146.188399 
L 487.454814 151.832443 
L 491.291235 156.034773 
L 495.127657 159.745853 
L 498.964079 164.391377 
L 502.800501 169.250488 
L 510.473345 172.731961 
L 514.309767 178.749783 
L 518.146189 176.726044 
L 521.982611 174.536774 
L 525.819033 165.961243 
L 529.655455 165.747656 
L 533.491876 168.588367 
L 537.328298 166.367059 
L 541.16472 162.736075 
L 545.001142 157.593961 
L 548.837564 148.981053 
L 552.673986 140.939491 
L 556.510408 134.959046 
L 560.34683 126.98156 
L 564.183252 123.222424 
L 568.019674 116.04589 
L 571.856096 110.738246 
L 575.692517 108.516938 
L 579.528939 105.718944 
L 583.365361 104.10636 
L 591.038205 100.635566 
L 594.874627 99.930728 
L 598.711049 99.012302 
L 602.547471 97.549229 
L 606.383893 95.333261 
L 610.220315 94.308042 
L 614.056737 92.134791 
L 617.893159 90.281921 
L 621.72958 89.432912 
L 629.402424 89.213985 
L 633.238846 88.541185 
L 637.075268 89.203305 
L 640.91169 91.036952 
L 644.748112 93.098604 
L 648.584534 82.694232 
L 652.420956 82.918499 
L 656.257378 82.469966 
L 660.0938 85.09709 
L 667.766643 92.722156 
L 671.603065 96.02208 
L 675.439487 97.623985 
L 679.275909 103.294728 
L 679.275909 103.294728 
" clip-path="url(#p13088fd61c)" style="fill: none; stroke-dasharray: 5.55,2.4; stroke-dashoffset: 0; stroke: #808080; stroke-width: 1.5"/>
   </g>
   <g id="patch_3">
    <path d="M 50.87 246.04 
L 50.87 26.88 
" style="fill: none; stroke: #000000; stroke-width: 0.8; stroke-linejoin: miter; stroke-linecap: square"/>
   </g>
   <g id="patch_4">
    <path d="M 709.2 246.04 
L 709.2 26.88 
" style="fill: none; stroke: #000000; stroke-width: 0.8; stroke-linejoin: miter; stroke-linecap: square"/>
   </g>
   <g id="patch_5">
    <path d="M 50.87 246.04 
L 709.2 246.04 
" style="fill: none; stroke: #000000; stroke-width: 0.8; stroke-linejoin: miter; stroke-linecap: square"/>
   </g>
   <g id="patch_6">
    <path d="M 50.87 26.88 
L 709.2 26.88 
" style="fill: none; stroke: #000000; stroke-width: 0.8; stroke-linejoin: miter; stroke-linecap: square"/>
   </g>
   <g id="text_15">
    <!-- Luchtvochtigheid - v001/c00001/d031 -->
    <g transform="translate(265.745313 20.88) scale(0.12 -0.12)">
     <defs>
      <path id="DejaVuSans-4c" d="M 628 4666 
L 1259 4666 
L 1259 531 
L 3531 531 
L 3531 0 
L 628 0 
L 628 4666 
z
" transform="scale(0.015625)"/>
      <path id="DejaVuSans-76" d="M 191 3500 
L 800 3500 
L 1894 563 
L 2988 3500 
L 3597 3500 
L 2284 0 
L 1503 0 
L 191 3500 
z
" transform="scale(0.015625)"/>
      <path id="DejaVuSans-2f" d="M 1625 4666 
L 2156 4666 
L 531 -594 
L 0 -594 
L 1625 4666 
z
" transform="scale(0.015625)"/>
      <path id="DejaVuSans-33" d="M 2597 2516 
Q 3050 2419 3304 2112 
Q 3559 1806 3559 1356 
Q 3559 666 3084 287 
Q 2609 -91 1734 -91 
Q 1441 -91 1130 -33 
Q 819 25 488 141 
L 488 750 
Q 750 597 1062 519 
Q 1375 441 1716 441 
Q 2309 441 2620 675 
Q 2931 909 2931 1356 
Q 2931 1769 2642 2001 
Q 2353 2234 1838 2234 
L 1294 2234 
L 1294 2753 
L 1863 2753 
Q 2328 2753 2575 2939 
Q 2822 3125 2822 3475 
Q 2822 3834 2567 4026 
Q 2313 4219 1838 4219 
Q 1578 4219 1281 4162 
Q 984 4106 628 3988 
L 628 4550 
Q 988 4650 1302 4700 
Q 1616 4750 1894 4750 
Q 2613 4750 3031 4423 
Q 3450 4097 3450 3541 
Q 3450 3153 3228 2886 
Q 3006 2619 2597 2516 
z
" transform="scale(0.015625)"/>
     </defs>
     <use xlink:href="#DejaVuSans-4c"/>
     <use xlink:href="#DejaVuSans-75" transform="translate(53.962891 0)"/>
     <use xlink:href="#DejaVuSans-63" transform="translate(117.341797 0)"/>
     <use xlink:href="#DejaVuSans-68" transform="translate(172.322266 0)"/>
     <use xlink:href="#DejaVuSans-74" transform="translate(235.701172 0)"/>
     <use xlink:href="#DejaVuSans-76" transform="translate(274.910156 0)"/>
     <use xlink:href="#DejaVuSans-6f" transform="translate(334.089844 0)"/>
     <use xlink:href="#DejaVuSans-63" transform="translate(395.271484 0)"/>
     <use xlink:href="#DejaVuSans-68" transform="translate(450.251953 0)"/>
     <use xlink:href="#DejaVuSans-74" transform="translate(513.630859 0)"/>
     <use xlink:href="#DejaVuSans-69" transform="translate(552.839844 0)"/>
     <use xlink:href="#DejaVuSans-67" transform="translate(580.623047 0)"/>
     <use xlink:href="#DejaVuSans-68" transform="translate(644.099609 0)"/>
     <use xlink:href="#DejaVuSans-65" transform="translate(707.478516 0)"/>
     <use xlink:href="#DejaVuSans-69" transform="translate(769.001953 0)"/>
     <use xlink:href="#DejaVuSans-64" transform="translate(796.785156 0)"/>
     <use xlink:href="#DejaVuSans-20" transform="translate(860.261719 0)"/>
     <use xlink:href="#DejaVuSans-2d" transform="translate(892.048828 0)"/>
     <use xlink:href="#DejaVuSans-20" transform="translate(928.132812 0)"/>
     <use xlink:href="#DejaVuSans-76" transform="translate(959.919922 0)"/>
     <use xlink:href="#DejaVuSans-30" transform="translate(1019.099609 0)"/>
     <use xlink:href="#DejaVuSans-30" transform="translate(1082.722656 0)"/>
     <use xlink:href="#DejaVuSans-31" transform="translate(1146.345703 0)"/>
     <use xlink:href="#DejaVuSans-2f" transform="translate(1209.96875 0)"/>
     <use xlink:href="#DejaVuSans-63" transform="translate(1243.660156 0)"/>
     <use xlink:href="#DejaVuSans-30" transform="translate(1298.640625 0)"/>
     <use xlink:href="#DejaVuSans-30" transform="translate(1362.263672 0)"/>
     <use xlink:href="#DejaVuSans-30" transform="translate(1425.886719 0)"/>
     <use xlink:href="#DejaVuSans-30" transform="translate(1489.509766 0)"/>
     <use xlink:href="#DejaVuSans-31" transform="translate(1553.132812 0)"/>
     <use xlink:href="#DejaVuSans-2f" transform="translate(1616.755859 0)"/>
     <use xlink:href="#DejaVuSans-64" transform="translate(1650.447266 0)"/>
     <use xlink:href="#DejaVuSans-30" transform="translate(1713.923828 0)"/>
     <use xlink:href="#DejaVuSans-33" transform="translate(1777.546875 0)"/>
     <use xlink:href="#DejaVuSans-31" transform="translate(1841.169922 0)"/>
    </g>
   </g>
   <g id="legend_1">
    <g id="patch_7">
     <path d="M 551.25625 241.04 
L 702.2 241.04 
Q 704.2 241.04 704.2 239.04 
L 704.2 196.005625 
Q 704.2 194.005625 702.2 194.005625 
L 551.25625 194.005625 
Q 549.25625 194.005625 549.25625 196.005625 
L 549.25625 239.04 
Q 549.25625 241.04 551.25625 241.04 
z
" style="fill: #ffffff; opacity: 0.8; stroke: #cccccc; stroke-linejoin: miter"/>
    </g>
    <g id="line2d_15">
     <path d="M 553.25625 202.104062 
L 563.25625 202.104062 
L 573.25625 202.104062 
" style="fill: none; stroke: #1f77b4; stroke-width: 2; stroke-linecap: square"/>
    </g>
    <g id="text_16">
     <!-- Hive -->
     <g transform="translate(581.25625 205.604062) scale(0.1 -0.1)">
      <defs>
       <path id="DejaVuSans-48" d="M 628 4666 
L 1259 4666 
L 1259 2753 
L 3553 2753 
L 3553 4666 
L 4184 4666 
L 4184 0 
L 3553 0 
L 3553 2222 
L 1259 2222 
L 1259 0 
L 628 0 
L 628 4666 
z
" transform="scale(0.015625)"/>
      </defs>
      <use xlink:href="#DejaVuSans-48"/>
      <use xlink:href="#DejaVuSans-69" transform="translate(75.195312 0)"/>
      <use xlink:href="#DejaVuSans-76" transform="translate(102.978516 0)"/>
      <use xlink:href="#DejaVuSans-65" transform="translate(162.158203 0)"/>
     </g>
    </g>
    <g id="line2d_16">
     <path d="M 553.25625 216.782187 
L 563.25625 216.782187 
L 573.25625 216.782187 
" style="fill: none; stroke-dasharray: 5.55,2.4; stroke-dashoffset: 0; stroke: #808080; stroke-width: 1.5"/>
    </g>
    <g id="text_17">
     <!-- Gemiddelde (alle hives) -->
     <g transform="translate(581.25625 220.282187) scale(0.1 -0.1)">
      <defs>
       <path id="DejaVuSans-47" d="M 3809 666 
L 3809 1919 
L 2778 1919 
L 2778 2438 
L 4434 2438 
L 4434 434 
Q 4069 175 3628 42 
Q 3188 -91 2688 -91 
Q 1594 -91 976 548 
Q 359 1188 359 2328 
Q 359 3472 976 4111 
Q 1594 4750 2688 4750 
Q 3144 4750 3555 4637 
Q 3966 4525 4313 4306 
L 4313 3634 
Q 3963 3931 3569 4081 
Q 3175 4231 2741 4231 
Q 1884 4231 1454 3753 
Q 1025 3275 1025 2328 
Q 1025 1384 1454 906 
Q 1884 428 2741 428 
Q 3075 428 3337 486 
Q 3600 544 3809 666 
z
" transform="scale(0.015625)"/>
       <path id="DejaVuSans-6d" d="M 3328 2828 
Q 3544 3216 3844 3400 
Q 4144 3584 4550 3584 
Q 5097 3584 5394 3201 
Q 5691 2819 5691 2113 
L 5691 0 
L 5113 0 
L 5113 2094 
Q 5113 2597 4934 2840 
Q 4756 3084 4391 3084 
Q 3944 3084 3684 2787 
Q 3425 2491 3425 1978 
L 3425 0 
L 2847 0 
L 2847 2094 
Q 2847 2600 2669 2842 
Q 2491 3084 2119 3084 
Q 1678 3084 1418 2786 
Q 1159 2488 1159 1978 
L 1159 0 
L 581 0 
L 581 3500 
L 1159 3500 
L 1159 2956 
Q 1356 3278 1631 3431 
Q 1906 3584 2284 3584 
Q 2666 3584 2933 3390 
Q 3200 3197 3328 2828 
z
" transform="scale(0.015625)"/>
       <path id="DejaVuSans-61" d="M 2194 1759 
Q 1497 1759 1228 1600 
Q 959 1441 959 1056 
Q 959 750 1161 570 
Q 1363 391 1709 391 
Q 2188 391 2477 730 
Q 2766 1069 2766 1631 
L 2766 1759 
L 2194 1759 
z
M 3341 1997 
L 3341 0 
L 2766 0 
L 2766 531 
Q 2569 213 2275 61 
Q 1981 -91 1556 -91 
Q 1019 -91 701 211 
Q 384 513 384 1019 
Q 384 1609 779 1909 
Q 1175 2209 1959 2209 
L 2766 2209 
L 2766 2266 
Q 2766 2663 2505 2880 
Q 2244 3097 1772 3097 
Q 1472 3097 1187 3025 
Q 903 2953 641 2809 
L 641 3341 
Q 956 3463 1253 3523 
Q 1550 3584 1831 3584 
Q 2591 3584 2966 3190 
Q 3341 2797 3341 1997 
z
" transform="scale(0.015625)"/>
       <path id="DejaVuSans-73" d="M 2834 3397 
L 2834 2853 
Q 2591 2978 2328 3040 
Q 2066 3103 1784 3103 
Q 1356 3103 1142 2972 
Q 928 2841 928 2578 
Q 928 2378 1081 2264 
Q 1234 2150 1697 2047 
L 1894 2003 
Q 2506 1872 2764 1633 
Q 3022 1394 3022 966 
Q 3022 478 2636 193 
Q 2250 -91 1575 -91 
Q 1294 -91 989 -36 
Q 684 19 347 128 
L 347 722 
Q 666 556 975 473 
Q 1284 391 1588 391 
Q 1994 391 2212 530 
Q 2431 669 2431 922 
Q 2431 1156 2273 1281 
Q 2116 1406 1581 1522 
L 1381 1569 
Q 847 1681 609 1914 
Q 372 2147 372 2553 
Q 372 3047 722 3315 
Q 1072 3584 1716 3584 
Q 2034 3584 2315 3537 
Q 2597 3491 2834 3397 
z
" transform="scale(0.015625)"/>
      </defs>
      <use xlink:href="#DejaVuSans-47"/>
      <use xlink:href="#DejaVuSans-65" transform="translate(77.490234 0)"/>
      <use xlink:href="#DejaVuSans-6d" transform="translate(139.013672 0)"/>
      <use xlink:href="#DejaVuSans-69" transform="translate(236.425781 0)"/>
      <use xlink:href="#DejaVuSans-64" transform="translate(264.208984 0)"/>
      <use xlink:href="#DejaVuSans-64" transform="translate(327.685547 0)"/>
      <use xlink:href="#DejaVuSans-65" transform="translate(391.162109 0)"/>
      <use xlink:href="#DejaVuSans-6c" transform="translate(452.685547 0)"/>
      <use xlink:href="#DejaVuSans-64" transform="translate(480.46875 0)"/>
      <use xlink:href="#DejaVuSans-65" transform="translate(543.945312 0)"/>
      <use xlink:href="#DejaVuSans-20" transform="translate(605.46875 0)"/>
      <use xlink:href="#DejaVuSans-28" transform="translate(637.255859 0)"/>
      <use xlink:href="#DejaVuSans-61" transform="translate(676.269531 0)"/>
      <use xlink:href="#DejaVuSans-6c" transform="translate(737.548828 0)"/>
      <use xlink:href="#DejaVuSans-6c" transform="translate(765.332031 0)"/>
      <use xlink:href="#DejaVuSans-65" transform="translate(793.115234 0)"/>
      <use xlink:href="#DejaVuSans-20" transform="translate(854.638672 0)"/>
      <use xlink:href="#DejaVuSans-68" transform="translate(886.425781 0)"/>
      <use xlink:href="#DejaVuSans-69" transform="translate(949.804688 0)"/>
      <use xlink:href="#DejaVuSans-76" transform="translate(977.587891 0)"/>
      <use xlink:href="#DejaVuSans-65" transform="translate(1036.767578 0)"/>
      <use xlink:href="#DejaVuSans-73" transform="translate(1098.291016 0)"/>
      <use xlink:href="#DejaVuSans-29" transform="translate(1150.390625 0)"/>
     </g>
    </g>
    <g id="patch_8">
     <path d="M 553.25625 234.960312 
L 573.25625 234.960312 
L 573.25625 227.960312 
L 553.25625 227.960312 
z
" style="fill: #808080; fill-opacity: 0.2; stroke: #808080; stroke-opacity: 0.2; stroke-linejoin: miter"/>
    </g>
    <g id="text_18">
     <!-- 2 Std Dev -->
     <g transform="translate(581.25625 234.960312) scale(0.1 -0.1)">
      <defs>
       <path id="DejaVuSans-b1" d="M 2944 4013 
L 2944 2803 
L 4684 2803 
L 4684 2272 
L 2944 2272 
L 2944 1063 
L 2419 1063 
L 2419 2272 
L 678 2272 
L 678 2803 
L 2419 2803 
L 2419 4013 
L 2944 4013 
z
M 678 531 
L 4684 531 
L 4684 0 
L 678 0 
L 678 531 
z
" transform="scale(0.015625)"/>
       <path id="DejaVuSans-53" d="M 3425 4513 
L 3425 3897 
Q 3066 4069 2747 4153 
Q 2428 4238 2131 4238 
Q 1616 4238 1336 4038 
Q 1056 3838 1056 3469 
Q 1056 3159 1242 3001 
Q 1428 2844 1947 2747 
L 2328 2669 
Q 3034 2534 3370 2195 
Q 3706 1856 3706 1288 
Q 3706 609 3251 259 
Q 2797 -91 1919 -91 
Q 1588 -91 1214 -16 
Q 841 59 441 206 
L 441 856 
Q 825 641 1194 531 
Q 1563 422 1919 422 
Q 2459 422 2753 634 
Q 3047 847 3047 1241 
Q 3047 1584 2836 1778 
Q 2625 1972 2144 2069 
L 1759 2144 
Q 1053 2284 737 2584 
Q 422 2884 422 3419 
Q 422 4038 858 4394 
Q 1294 4750 2059 4750 
Q 2388 4750 2728 4690 
Q 3069 4631 3425 4513 
z
" transform="scale(0.015625)"/>
       <path id="DejaVuSans-44" d="M 1259 4147 
L 1259 519 
L 2022 519 
Q 2988 519 3436 956 
Q 3884 1394 3884 2338 
Q 3884 3275 3436 3711 
Q 2988 4147 2022 4147 
L 1259 4147 
z
M 628 4666 
L 1925 4666 
Q 3281 4666 3915 4102 
Q 4550 3538 4550 2338 
Q 4550 1131 3912 565 
Q 3275 0 1925 0 
L 628 0 
L 628 4666 
z
" transform="scale(0.015625)"/>
      </defs>
      <use xlink:href="#DejaVuSans-b1"/>
      <use xlink:href="#DejaVuSans-32" transform="translate(83.789062 0)"/>
      <use xlink:href="#DejaVuSans-20" transform="translate(147.412109 0)"/>
      <use xlink:href="#DejaVuSans-53" transform="translate(179.199219 0)"/>
      <use xlink:href="#DejaVuSans-74" transform="translate(242.675781 0)"/>
      <use xlink:href="#DejaVuSans-64" transform="translate(281.884766 0)"/>
      <use xlink:href="#DejaVuSans-20" transform="translate(345.361328 0)"/>
      <use xlink:href="#DejaVuSans-44" transform="translate(377.148438 0)"/>
      <use xlink:href="#DejaVuSans-65" transform="translate(454.150391 0)"/>
      <use xlink:href="#DejaVuSans-76" transform="translate(515.673828 0)"/>
     </g>
    </g>
   </g>
  </g>
 </g>
 <defs>
  <clipPath id="p13088fd61c">
   <rect x="50.87" y="26.88" width="658.33" height="219.16"/>
  </clipPath>
 </defs>
</svg>
