<?xml version="1.0" encoding="utf-8" standalone="no"?>
<!DOCTYPE svg PUBLIC "-//W3C//DTD SVG 1.1//EN"
  "http://www.w3.org/Graphics/SVG/1.1/DTD/svg11.dtd">
<svg xmlns:xlink="http://www.w3.org/1999/xlink" width="720pt" height="288pt" viewBox="0 0 720 288" xmlns="http://www.w3.org/2000/svg" version="1.1">
 <metadata>
  <rdf:RDF xmlns:dc="http://purl.org/dc/elements/1.1/" xmlns:cc="http://creativecommons.org/ns#" xmlns:rdf="http://www.w3.org/1999/02/22-rdf-syntax-ns#">
   <cc:Work>
    <dc:type rdf:resource="http://purl.org/dc/dcmitype/StillImage"/>
    <dc:date>2025-06-20T22:15:41.023242</dc:date>
    <dc:format>image/svg+xml</dc:format>
    <dc:creator>
     <cc:Agent>
      <dc:title>Matplotlib v3.10.3, https://matplotlib.org/</dc:title>
     </cc:Agent>
    </dc:creator>
   </cc:Work>
  </rdf:RDF>
 </metadata>
 <defs>
  <style type="text/css">*{stroke-linejoin: round; stroke-linecap: butt}</style>
 </defs>
 <g id="figure_1">
  <g id="patch_1">
   <path d="M 0 288 
L 720 288 
L 720 0 
L 0 0 
z
" style="fill: #ffffff"/>
  </g>
  <g id="axes_1">
   <g id="patch_2">
    <path d="M 71.84 246.04 
L 709.2 246.04 
L 709.2 26.88 
L 71.84 26.88 
z
" style="fill: #ffffff"/>
   </g>
   <g id="FillBetweenPolyCollection_1">
    <defs>
     <path id="mb873bdbb32" d="M 100.810909 -160.379696 
L 100.810909 -101.5052 
L 104.160147 -114.089377 
L 107.509385 -118.291493 
L 110.858623 -112.8836 
L 114.207861 -101.140971 
L 117.557099 -79.17325 
L 120.906337 -66.850729 
L 124.255575 -68.939823 
L 127.604813 -80.579592 
L 130.954051 -84.776018 
L 134.30329 -84.01214 
L 137.652528 -99.821563 
L 141.001766 -97.510186 
L 144.351004 -107.420239 
L 147.700242 -110.40814 
L 151.04948 -111.46374 
L 154.398718 -113.38745 
L 157.747956 -114.676468 
L 161.097194 -116.045125 
L 164.446432 -117.22592 
L 167.79567 -117.520014 
L 171.144908 -118.408896 
L 174.494146 -118.996914 
L 177.843384 -118.918206 
L 181.192622 -118.305157 
L 184.54186 -118.544644 
L 187.891098 -118.088883 
L 191.240336 -118.559637 
L 194.589574 -118.62802 
L 197.938812 -118.660751 
L 201.28805 -118.529988 
L 204.637288 -117.553384 
L 207.986527 -116.964347 
L 211.335765 -104.520663 
L 214.685003 -107.236338 
L 218.034241 -116.534241 
L 221.383479 -116.940279 
L 224.732717 -112.795616 
L 228.081955 -107.782217 
L 231.431193 -82.560089 
L 234.780431 -79.255443 
L 238.129669 -87.395988 
L 241.478907 -88.485979 
L 244.828145 -105.31452 
L 248.177383 -78.045404 
L 251.526621 -65.554856 
L 254.875859 -72.539323 
L 258.225097 -73.268597 
L 261.574335 -81.782589 
L 264.923573 -91.957286 
L 268.272811 -108.086572 
L 271.622049 -117.009941 
L 274.971287 -118.493817 
L 278.320525 -116.002425 
L 281.669764 -117.854268 
L 285.019002 -63.412503 
L 288.36824 -69.707627 
L 291.717478 -69.134633 
L 295.066716 -76.686367 
L 298.415954 -84.338015 
L 301.765192 -82.910914 
L 305.11443 -90.878416 
L 308.463668 -119.522384 
L 311.812906 -103.730927 
L 315.162144 -116.164752 
L 318.511382 -116.771351 
L 321.86062 -117.378509 
L 325.209858 -117.497787 
L 328.559096 -118.353332 
L 331.908334 -117.194305 
L 335.257572 -118.586654 
L 338.60681 -117.207755 
L 341.956048 -116.080671 
L 345.305286 -116.676377 
L 348.654524 -114.355401 
L 352.003762 -113.120712 
L 355.353001 -112.649183 
L 358.702239 -77.394818 
L 362.051477 -89.042154 
L 365.400715 -118.379882 
L 368.749953 -116.793155 
L 372.099191 -115.077751 
L 375.448429 -118.263709 
L 378.797667 -118.030157 
L 382.146905 -119.071292 
L 385.496143 -117.828832 
L 388.845381 -103.867629 
L 392.194619 -116.337236 
L 395.543857 -107.105495 
L 398.893095 -92.519095 
L 402.242333 -82.241256 
L 405.591571 -96.042735 
L 408.940809 -95.3374 
L 412.290047 -117.425313 
L 415.639285 -84.849715 
L 418.988523 -114.014971 
L 422.337761 -115.791462 
L 425.686999 -115.954729 
L 429.036238 -114.711598 
L 432.385476 -112.209963 
L 435.734714 -109.514946 
L 439.083952 -105.382145 
L 442.43319 -90.663575 
L 445.782428 -99.323315 
L 449.131666 -104.789891 
L 452.480904 -104.566437 
L 455.830142 -93.09933 
L 459.17938 -96.098219 
L 462.528618 -94.275562 
L 465.877856 -96.781712 
L 469.227094 -92.563297 
L 472.576332 -96.00838 
L 475.92557 -111.608932 
L 479.274808 -116.42657 
L 482.624046 -117.278983 
L 485.973284 -118.696687 
L 489.322522 -118.323418 
L 492.67176 -118.437078 
L 496.020998 -118.438375 
L 499.370236 -118.512352 
L 502.719475 -118.43418 
L 506.068713 -118.380486 
L 509.417951 -117.971589 
L 512.767189 -111.346964 
L 516.116427 -81.089076 
L 519.465665 -109.868292 
L 522.814903 -73.784061 
L 526.164141 -80.221342 
L 529.513379 -95.24219 
L 532.862617 -116.960925 
L 536.211855 -103.398612 
L 539.561093 -119.379865 
L 542.910331 -118.68664 
L 546.259569 -118.496635 
L 549.608807 -104.76334 
L 552.958045 -116.213369 
L 556.307283 -105.303502 
L 559.656521 -92.315159 
L 563.005759 -88.67235 
L 566.354997 -87.425522 
L 569.704235 -89.962901 
L 573.053473 -108.419491 
L 576.402712 -110.567095 
L 579.75195 -114.561573 
L 583.101188 -115.640956 
L 586.450426 -118.468866 
L 589.799664 -117.772568 
L 593.148902 -117.991104 
L 596.49814 -114.595507 
L 599.847378 -98.655108 
L 603.196616 -97.929586 
L 606.545854 -66.812217 
L 609.895092 -60.893886 
L 613.24433 -56.768719 
L 616.593568 -51.921818 
L 619.942806 -56.052643 
L 623.292044 -56.992232 
L 623.292044 -251.158182 
L 623.292044 -251.158182 
L 619.942806 -235.150976 
L 616.593568 -242.634604 
L 613.24433 -224.724777 
L 609.895092 -217.907382 
L 606.545854 -208.386951 
L 603.196616 -157.193076 
L 599.847378 -157.445841 
L 596.49814 -132.207398 
L 593.148902 -127.631129 
L 589.799664 -129.983982 
L 586.450426 -129.605216 
L 583.101188 -129.817781 
L 579.75195 -131.093689 
L 576.402712 -137.520657 
L 573.053473 -140.769968 
L 569.704235 -168.396922 
L 566.354997 -170.421913 
L 563.005759 -169.498919 
L 559.656521 -171.620354 
L 556.307283 -150.707665 
L 552.958045 -132.052542 
L 549.608807 -149.895136 
L 546.259569 -131.082184 
L 542.910331 -133.431944 
L 539.561093 -129.315135 
L 536.211855 -152.933793 
L 532.862617 -131.926917 
L 529.513379 -165.077545 
L 526.164141 -197.828667 
L 522.814903 -208.848703 
L 519.465665 -138.975576 
L 516.116427 -180.882334 
L 512.767189 -135.750543 
L 509.417951 -125.711597 
L 506.068713 -124.400694 
L 502.719475 -123.988187 
L 499.370236 -123.679978 
L 496.020998 -123.453576 
L 492.67176 -123.295626 
L 489.322522 -123.280428 
L 485.973284 -121.894248 
L 482.624046 -124.472986 
L 479.274808 -125.518413 
L 475.92557 -132.157387 
L 472.576332 -154.999263 
L 469.227094 -159.997177 
L 465.877856 -153.730147 
L 462.528618 -157.281844 
L 459.17938 -154.46939 
L 455.830142 -158.899187 
L 452.480904 -142.15212 
L 449.131666 -142.058246 
L 445.782428 -152.240084 
L 442.43319 -166.519327 
L 439.083952 -144.103499 
L 435.734714 -139.279572 
L 432.385476 -137.050577 
L 429.036238 -134.125026 
L 425.686999 -133.452808 
L 422.337761 -134.926894 
L 418.988523 -138.957312 
L 415.639285 -183.132316 
L 412.290047 -135.245361 
L 408.940809 -182.447564 
L 405.591571 -167.321561 
L 402.242333 -189.182766 
L 398.893095 -175.918992 
L 395.543857 -157.991217 
L 392.194619 -143.327302 
L 388.845381 -157.096841 
L 385.496143 -136.66882 
L 382.146905 -133.696885 
L 378.797667 -132.711367 
L 375.448429 -133.829015 
L 372.099191 -140.520418 
L 368.749953 -138.504041 
L 365.400715 -130.433456 
L 362.051477 -174.846277 
L 358.702239 -191.467265 
L 355.353001 -136.893094 
L 352.003762 -134.472668 
L 348.654524 -131.759932 
L 345.305286 -126.896424 
L 341.956048 -127.779455 
L 338.60681 -125.100544 
L 335.257572 -123.097565 
L 331.908334 -124.599258 
L 328.559096 -122.612861 
L 325.209858 -124.006889 
L 321.86062 -123.791516 
L 318.511382 -124.672942 
L 315.162144 -125.45825 
L 311.812906 -144.700266 
L 308.463668 -120.097367 
L 305.11443 -162.26864 
L 301.765192 -175.496053 
L 298.415954 -175.67612 
L 295.066716 -183.171685 
L 291.717478 -197.076946 
L 288.36824 -194.608383 
L 285.019002 -206.118898 
L 281.669764 -124.176737 
L 278.320525 -128.870873 
L 274.971287 -124.8413 
L 271.622049 -129.624024 
L 268.272811 -147.829553 
L 264.923573 -177.739951 
L 261.574335 -192.292264 
L 258.225097 -203.347439 
L 254.875859 -216.671294 
L 251.526621 -236.881743 
L 248.177383 -216.149732 
L 244.828145 -158.644658 
L 241.478907 -178.715525 
L 238.129669 -190.453528 
L 234.780431 -210.331625 
L 231.431193 -192.852727 
L 228.081955 -150.573033 
L 224.732717 -140.309866 
L 221.383479 -132.363359 
L 218.034241 -132.437757 
L 214.685003 -149.411256 
L 211.335765 -151.306169 
L 207.986527 -130.688707 
L 204.637288 -129.227627 
L 201.28805 -126.965226 
L 197.938812 -126.178909 
L 194.589574 -125.720858 
L 191.240336 -124.685679 
L 187.891098 -125.053761 
L 184.54186 -124.029951 
L 181.192622 -123.45673 
L 177.843384 -122.430877 
L 174.494146 -121.702859 
L 171.144908 -122.30777 
L 167.79567 -123.431466 
L 164.446432 -123.641607 
L 161.097194 -125.398056 
L 157.747956 -127.192219 
L 154.398718 -129.080674 
L 151.04948 -132.289731 
L 147.700242 -133.886806 
L 144.351004 -137.828827 
L 141.001766 -152.359333 
L 137.652528 -149.039521 
L 134.30329 -176.447995 
L 130.954051 -172.723367 
L 127.604813 -178.971658 
L 124.255575 -198.310741 
L 120.906337 -205.926964 
L 117.557099 -184.738203 
L 114.207861 -153.517886 
L 110.858623 -138.455206 
L 107.509385 -134.017655 
L 104.160147 -141.044692 
L 100.810909 -160.379696 
z
" style="stroke: #808080; stroke-opacity: 0.2"/>
    </defs>
    <g clip-path="url(#pb659c41663)">
     <use xlink:href="#mb873bdbb32" x="0" y="288" style="fill: #808080; fill-opacity: 0.2; stroke: #808080; stroke-opacity: 0.2"/>
    </g>
   </g>
   <g id="matplotlib.axis_1">
    <g id="xtick_1">
     <g id="line2d_1">
      <defs>
       <path id="m808f3ea078" d="M 0 0 
L 0 3.5 
" style="stroke: #000000; stroke-width: 0.8"/>
      </defs>
      <g>
       <use xlink:href="#m808f3ea078" x="114.207861" y="246.04" style="stroke: #000000; stroke-width: 0.8"/>
      </g>
     </g>
     <g id="text_1">
      <!-- 06-18 00 -->
      <g transform="translate(91.727393 260.638438) scale(0.1 -0.1)">
       <defs>
        <path id="DejaVuSans-30" d="M 2034 4250 
Q 1547 4250 1301 3770 
Q 1056 3291 1056 2328 
Q 1056 1369 1301 889 
Q 1547 409 2034 409 
Q 2525 409 2770 889 
Q 3016 1369 3016 2328 
Q 3016 3291 2770 3770 
Q 2525 4250 2034 4250 
z
M 2034 4750 
Q 2819 4750 3233 4129 
Q 3647 3509 3647 2328 
Q 3647 1150 3233 529 
Q 2819 -91 2034 -91 
Q 1250 -91 836 529 
Q 422 1150 422 2328 
Q 422 3509 836 4129 
Q 1250 4750 2034 4750 
z
" transform="scale(0.015625)"/>
        <path id="DejaVuSans-36" d="M 2113 2584 
Q 1688 2584 1439 2293 
Q 1191 2003 1191 1497 
Q 1191 994 1439 701 
Q 1688 409 2113 409 
Q 2538 409 2786 701 
Q 3034 994 3034 1497 
Q 3034 2003 2786 2293 
Q 2538 2584 2113 2584 
z
M 3366 4563 
L 3366 3988 
Q 3128 4100 2886 4159 
Q 2644 4219 2406 4219 
Q 1781 4219 1451 3797 
Q 1122 3375 1075 2522 
Q 1259 2794 1537 2939 
Q 1816 3084 2150 3084 
Q 2853 3084 3261 2657 
Q 3669 2231 3669 1497 
Q 3669 778 3244 343 
Q 2819 -91 2113 -91 
Q 1303 -91 875 529 
Q 447 1150 447 2328 
Q 447 3434 972 4092 
Q 1497 4750 2381 4750 
Q 2619 4750 2861 4703 
Q 3103 4656 3366 4563 
z
" transform="scale(0.015625)"/>
        <path id="DejaVuSans-2d" d="M 313 2009 
L 1997 2009 
L 1997 1497 
L 313 1497 
L 313 2009 
z
" transform="scale(0.015625)"/>
        <path id="DejaVuSans-31" d="M 794 531 
L 1825 531 
L 1825 4091 
L 703 3866 
L 703 4441 
L 1819 4666 
L 2450 4666 
L 2450 531 
L 3481 531 
L 3481 0 
L 794 0 
L 794 531 
z
" transform="scale(0.015625)"/>
        <path id="DejaVuSans-38" d="M 2034 2216 
Q 1584 2216 1326 1975 
Q 1069 1734 1069 1313 
Q 1069 891 1326 650 
Q 1584 409 2034 409 
Q 2484 409 2743 651 
Q 3003 894 3003 1313 
Q 3003 1734 2745 1975 
Q 2488 2216 2034 2216 
z
M 1403 2484 
Q 997 2584 770 2862 
Q 544 3141 544 3541 
Q 544 4100 942 4425 
Q 1341 4750 2034 4750 
Q 2731 4750 3128 4425 
Q 3525 4100 3525 3541 
Q 3525 3141 3298 2862 
Q 3072 2584 2669 2484 
Q 3125 2378 3379 2068 
Q 3634 1759 3634 1313 
Q 3634 634 3220 271 
Q 2806 -91 2034 -91 
Q 1263 -91 848 271 
Q 434 634 434 1313 
Q 434 1759 690 2068 
Q 947 2378 1403 2484 
z
M 1172 3481 
Q 1172 3119 1398 2916 
Q 1625 2713 2034 2713 
Q 2441 2713 2670 2916 
Q 2900 3119 2900 3481 
Q 2900 3844 2670 4047 
Q 2441 4250 2034 4250 
Q 1625 4250 1398 4047 
Q 1172 3844 1172 3481 
z
" transform="scale(0.015625)"/>
        <path id="DejaVuSans-20" transform="scale(0.015625)"/>
       </defs>
       <use xlink:href="#DejaVuSans-30"/>
       <use xlink:href="#DejaVuSans-36" transform="translate(63.623047 0)"/>
       <use xlink:href="#DejaVuSans-2d" transform="translate(127.246094 0)"/>
       <use xlink:href="#DejaVuSans-31" transform="translate(163.330078 0)"/>
       <use xlink:href="#DejaVuSans-38" transform="translate(226.953125 0)"/>
       <use xlink:href="#DejaVuSans-20" transform="translate(290.576172 0)"/>
       <use xlink:href="#DejaVuSans-30" transform="translate(322.363281 0)"/>
       <use xlink:href="#DejaVuSans-30" transform="translate(385.986328 0)"/>
      </g>
     </g>
    </g>
    <g id="xtick_2">
     <g id="line2d_2">
      <g>
       <use xlink:href="#m808f3ea078" x="194.589574" y="246.04" style="stroke: #000000; stroke-width: 0.8"/>
      </g>
     </g>
     <g id="text_2">
      <!-- 06-18 12 -->
      <g transform="translate(172.109106 260.638438) scale(0.1 -0.1)">
       <defs>
        <path id="DejaVuSans-32" d="M 1228 531 
L 3431 531 
L 3431 0 
L 469 0 
L 469 531 
Q 828 903 1448 1529 
Q 2069 2156 2228 2338 
Q 2531 2678 2651 2914 
Q 2772 3150 2772 3378 
Q 2772 3750 2511 3984 
Q 2250 4219 1831 4219 
Q 1534 4219 1204 4116 
Q 875 4013 500 3803 
L 500 4441 
Q 881 4594 1212 4672 
Q 1544 4750 1819 4750 
Q 2544 4750 2975 4387 
Q 3406 4025 3406 3419 
Q 3406 3131 3298 2873 
Q 3191 2616 2906 2266 
Q 2828 2175 2409 1742 
Q 1991 1309 1228 531 
z
" transform="scale(0.015625)"/>
       </defs>
       <use xlink:href="#DejaVuSans-30"/>
       <use xlink:href="#DejaVuSans-36" transform="translate(63.623047 0)"/>
       <use xlink:href="#DejaVuSans-2d" transform="translate(127.246094 0)"/>
       <use xlink:href="#DejaVuSans-31" transform="translate(163.330078 0)"/>
       <use xlink:href="#DejaVuSans-38" transform="translate(226.953125 0)"/>
       <use xlink:href="#DejaVuSans-20" transform="translate(290.576172 0)"/>
       <use xlink:href="#DejaVuSans-31" transform="translate(322.363281 0)"/>
       <use xlink:href="#DejaVuSans-32" transform="translate(385.986328 0)"/>
      </g>
     </g>
    </g>
    <g id="xtick_3">
     <g id="line2d_3">
      <g>
       <use xlink:href="#m808f3ea078" x="274.971287" y="246.04" style="stroke: #000000; stroke-width: 0.8"/>
      </g>
     </g>
     <g id="text_3">
      <!-- 06-19 00 -->
      <g transform="translate(252.490819 260.638438) scale(0.1 -0.1)">
       <defs>
        <path id="DejaVuSans-39" d="M 703 97 
L 703 672 
Q 941 559 1184 500 
Q 1428 441 1663 441 
Q 2288 441 2617 861 
Q 2947 1281 2994 2138 
Q 2813 1869 2534 1725 
Q 2256 1581 1919 1581 
Q 1219 1581 811 2004 
Q 403 2428 403 3163 
Q 403 3881 828 4315 
Q 1253 4750 1959 4750 
Q 2769 4750 3195 4129 
Q 3622 3509 3622 2328 
Q 3622 1225 3098 567 
Q 2575 -91 1691 -91 
Q 1453 -91 1209 -44 
Q 966 3 703 97 
z
M 1959 2075 
Q 2384 2075 2632 2365 
Q 2881 2656 2881 3163 
Q 2881 3666 2632 3958 
Q 2384 4250 1959 4250 
Q 1534 4250 1286 3958 
Q 1038 3666 1038 3163 
Q 1038 2656 1286 2365 
Q 1534 2075 1959 2075 
z
" transform="scale(0.015625)"/>
       </defs>
       <use xlink:href="#DejaVuSans-30"/>
       <use xlink:href="#DejaVuSans-36" transform="translate(63.623047 0)"/>
       <use xlink:href="#DejaVuSans-2d" transform="translate(127.246094 0)"/>
       <use xlink:href="#DejaVuSans-31" transform="translate(163.330078 0)"/>
       <use xlink:href="#DejaVuSans-39" transform="translate(226.953125 0)"/>
       <use xlink:href="#DejaVuSans-20" transform="translate(290.576172 0)"/>
       <use xlink:href="#DejaVuSans-30" transform="translate(322.363281 0)"/>
       <use xlink:href="#DejaVuSans-30" transform="translate(385.986328 0)"/>
      </g>
     </g>
    </g>
    <g id="xtick_4">
     <g id="line2d_4">
      <g>
       <use xlink:href="#m808f3ea078" x="355.353001" y="246.04" style="stroke: #000000; stroke-width: 0.8"/>
      </g>
     </g>
     <g id="text_4">
      <!-- 06-19 12 -->
      <g transform="translate(332.872532 260.638438) scale(0.1 -0.1)">
       <use xlink:href="#DejaVuSans-30"/>
       <use xlink:href="#DejaVuSans-36" transform="translate(63.623047 0)"/>
       <use xlink:href="#DejaVuSans-2d" transform="translate(127.246094 0)"/>
       <use xlink:href="#DejaVuSans-31" transform="translate(163.330078 0)"/>
       <use xlink:href="#DejaVuSans-39" transform="translate(226.953125 0)"/>
       <use xlink:href="#DejaVuSans-20" transform="translate(290.576172 0)"/>
       <use xlink:href="#DejaVuSans-31" transform="translate(322.363281 0)"/>
       <use xlink:href="#DejaVuSans-32" transform="translate(385.986328 0)"/>
      </g>
     </g>
    </g>
    <g id="xtick_5">
     <g id="line2d_5">
      <g>
       <use xlink:href="#m808f3ea078" x="435.734714" y="246.04" style="stroke: #000000; stroke-width: 0.8"/>
      </g>
     </g>
     <g id="text_5">
      <!-- 06-20 00 -->
      <g transform="translate(413.254245 260.638438) scale(0.1 -0.1)">
       <use xlink:href="#DejaVuSans-30"/>
       <use xlink:href="#DejaVuSans-36" transform="translate(63.623047 0)"/>
       <use xlink:href="#DejaVuSans-2d" transform="translate(127.246094 0)"/>
       <use xlink:href="#DejaVuSans-32" transform="translate(163.330078 0)"/>
       <use xlink:href="#DejaVuSans-30" transform="translate(226.953125 0)"/>
       <use xlink:href="#DejaVuSans-20" transform="translate(290.576172 0)"/>
       <use xlink:href="#DejaVuSans-30" transform="translate(322.363281 0)"/>
       <use xlink:href="#DejaVuSans-30" transform="translate(385.986328 0)"/>
      </g>
     </g>
    </g>
    <g id="xtick_6">
     <g id="line2d_6">
      <g>
       <use xlink:href="#m808f3ea078" x="516.116427" y="246.04" style="stroke: #000000; stroke-width: 0.8"/>
      </g>
     </g>
     <g id="text_6">
      <!-- 06-20 12 -->
      <g transform="translate(493.635958 260.638438) scale(0.1 -0.1)">
       <use xlink:href="#DejaVuSans-30"/>
       <use xlink:href="#DejaVuSans-36" transform="translate(63.623047 0)"/>
       <use xlink:href="#DejaVuSans-2d" transform="translate(127.246094 0)"/>
       <use xlink:href="#DejaVuSans-32" transform="translate(163.330078 0)"/>
       <use xlink:href="#DejaVuSans-30" transform="translate(226.953125 0)"/>
       <use xlink:href="#DejaVuSans-20" transform="translate(290.576172 0)"/>
       <use xlink:href="#DejaVuSans-31" transform="translate(322.363281 0)"/>
       <use xlink:href="#DejaVuSans-32" transform="translate(385.986328 0)"/>
      </g>
     </g>
    </g>
    <g id="xtick_7">
     <g id="line2d_7">
      <g>
       <use xlink:href="#m808f3ea078" x="596.49814" y="246.04" style="stroke: #000000; stroke-width: 0.8"/>
      </g>
     </g>
     <g id="text_7">
      <!-- 06-21 00 -->
      <g transform="translate(574.017671 260.638438) scale(0.1 -0.1)">
       <use xlink:href="#DejaVuSans-30"/>
       <use xlink:href="#DejaVuSans-36" transform="translate(63.623047 0)"/>
       <use xlink:href="#DejaVuSans-2d" transform="translate(127.246094 0)"/>
       <use xlink:href="#DejaVuSans-32" transform="translate(163.330078 0)"/>
       <use xlink:href="#DejaVuSans-31" transform="translate(226.953125 0)"/>
       <use xlink:href="#DejaVuSans-20" transform="translate(290.576172 0)"/>
       <use xlink:href="#DejaVuSans-30" transform="translate(322.363281 0)"/>
       <use xlink:href="#DejaVuSans-30" transform="translate(385.986328 0)"/>
      </g>
     </g>
    </g>
    <g id="xtick_8">
     <g id="line2d_8">
      <g>
       <use xlink:href="#m808f3ea078" x="676.879853" y="246.04" style="stroke: #000000; stroke-width: 0.8"/>
      </g>
     </g>
     <g id="text_8">
      <!-- 06-21 12 -->
      <g transform="translate(654.399384 260.638438) scale(0.1 -0.1)">
       <use xlink:href="#DejaVuSans-30"/>
       <use xlink:href="#DejaVuSans-36" transform="translate(63.623047 0)"/>
       <use xlink:href="#DejaVuSans-2d" transform="translate(127.246094 0)"/>
       <use xlink:href="#DejaVuSans-32" transform="translate(163.330078 0)"/>
       <use xlink:href="#DejaVuSans-31" transform="translate(226.953125 0)"/>
       <use xlink:href="#DejaVuSans-20" transform="translate(290.576172 0)"/>
       <use xlink:href="#DejaVuSans-31" transform="translate(322.363281 0)"/>
       <use xlink:href="#DejaVuSans-32" transform="translate(385.986328 0)"/>
      </g>
     </g>
    </g>
    <g id="text_9">
     <!-- Tijd -->
     <g transform="translate(381.67 274.316562) scale(0.1 -0.1)">
      <defs>
       <path id="DejaVuSans-54" d="M -19 4666 
L 3928 4666 
L 3928 4134 
L 2272 4134 
L 2272 0 
L 1638 0 
L 1638 4134 
L -19 4134 
L -19 4666 
z
" transform="scale(0.015625)"/>
       <path id="DejaVuSans-69" d="M 603 3500 
L 1178 3500 
L 1178 0 
L 603 0 
L 603 3500 
z
M 603 4863 
L 1178 4863 
L 1178 4134 
L 603 4134 
L 603 4863 
z
" transform="scale(0.015625)"/>
       <path id="DejaVuSans-6a" d="M 603 3500 
L 1178 3500 
L 1178 -63 
Q 1178 -731 923 -1031 
Q 669 -1331 103 -1331 
L -116 -1331 
L -116 -844 
L 38 -844 
Q 366 -844 484 -692 
Q 603 -541 603 -63 
L 603 3500 
z
M 603 4863 
L 1178 4863 
L 1178 4134 
L 603 4134 
L 603 4863 
z
" transform="scale(0.015625)"/>
       <path id="DejaVuSans-64" d="M 2906 2969 
L 2906 4863 
L 3481 4863 
L 3481 0 
L 2906 0 
L 2906 525 
Q 2725 213 2448 61 
Q 2172 -91 1784 -91 
Q 1150 -91 751 415 
Q 353 922 353 1747 
Q 353 2572 751 3078 
Q 1150 3584 1784 3584 
Q 2172 3584 2448 3432 
Q 2725 3281 2906 2969 
z
M 947 1747 
Q 947 1113 1208 752 
Q 1469 391 1925 391 
Q 2381 391 2643 752 
Q 2906 1113 2906 1747 
Q 2906 2381 2643 2742 
Q 2381 3103 1925 3103 
Q 1469 3103 1208 2742 
Q 947 2381 947 1747 
z
" transform="scale(0.015625)"/>
      </defs>
      <use xlink:href="#DejaVuSans-54"/>
      <use xlink:href="#DejaVuSans-69" transform="translate(57.958984 0)"/>
      <use xlink:href="#DejaVuSans-6a" transform="translate(85.742188 0)"/>
      <use xlink:href="#DejaVuSans-64" transform="translate(113.525391 0)"/>
     </g>
    </g>
   </g>
   <g id="matplotlib.axis_2">
    <g id="ytick_1">
     <g id="line2d_9">
      <defs>
       <path id="m1d92c1c061" d="M 0 0 
L -3.5 0 
" style="stroke: #000000; stroke-width: 0.8"/>
      </defs>
      <g>
       <use xlink:href="#m1d92c1c061" x="71.84" y="225.470402" style="stroke: #000000; stroke-width: 0.8"/>
      </g>
     </g>
     <g id="text_10">
      <!-- −20000 -->
      <g transform="translate(24.647813 229.26962) scale(0.1 -0.1)">
       <defs>
        <path id="DejaVuSans-2212" d="M 678 2272 
L 4684 2272 
L 4684 1741 
L 678 1741 
L 678 2272 
z
" transform="scale(0.015625)"/>
       </defs>
       <use xlink:href="#DejaVuSans-2212"/>
       <use xlink:href="#DejaVuSans-32" transform="translate(83.789062 0)"/>
       <use xlink:href="#DejaVuSans-30" transform="translate(147.412109 0)"/>
       <use xlink:href="#DejaVuSans-30" transform="translate(211.035156 0)"/>
       <use xlink:href="#DejaVuSans-30" transform="translate(274.658203 0)"/>
       <use xlink:href="#DejaVuSans-30" transform="translate(338.28125 0)"/>
      </g>
     </g>
    </g>
    <g id="ytick_2">
     <g id="line2d_10">
      <g>
       <use xlink:href="#m1d92c1c061" x="71.84" y="196.859605" style="stroke: #000000; stroke-width: 0.8"/>
      </g>
     </g>
     <g id="text_11">
      <!-- −10000 -->
      <g transform="translate(24.647813 200.658824) scale(0.1 -0.1)">
       <use xlink:href="#DejaVuSans-2212"/>
       <use xlink:href="#DejaVuSans-31" transform="translate(83.789062 0)"/>
       <use xlink:href="#DejaVuSans-30" transform="translate(147.412109 0)"/>
       <use xlink:href="#DejaVuSans-30" transform="translate(211.035156 0)"/>
       <use xlink:href="#DejaVuSans-30" transform="translate(274.658203 0)"/>
       <use xlink:href="#DejaVuSans-30" transform="translate(338.28125 0)"/>
      </g>
     </g>
    </g>
    <g id="ytick_3">
     <g id="line2d_11">
      <g>
       <use xlink:href="#m1d92c1c061" x="71.84" y="168.248808" style="stroke: #000000; stroke-width: 0.8"/>
      </g>
     </g>
     <g id="text_12">
      <!-- 0 -->
      <g transform="translate(58.4775 172.048027) scale(0.1 -0.1)">
       <use xlink:href="#DejaVuSans-30"/>
      </g>
     </g>
    </g>
    <g id="ytick_4">
     <g id="line2d_12">
      <g>
       <use xlink:href="#m1d92c1c061" x="71.84" y="139.638012" style="stroke: #000000; stroke-width: 0.8"/>
      </g>
     </g>
     <g id="text_13">
      <!-- 10000 -->
      <g transform="translate(33.0275 143.437231) scale(0.1 -0.1)">
       <use xlink:href="#DejaVuSans-31"/>
       <use xlink:href="#DejaVuSans-30" transform="translate(63.623047 0)"/>
       <use xlink:href="#DejaVuSans-30" transform="translate(127.246094 0)"/>
       <use xlink:href="#DejaVuSans-30" transform="translate(190.869141 0)"/>
       <use xlink:href="#DejaVuSans-30" transform="translate(254.492188 0)"/>
      </g>
     </g>
    </g>
    <g id="ytick_5">
     <g id="line2d_13">
      <g>
       <use xlink:href="#m1d92c1c061" x="71.84" y="111.027215" style="stroke: #000000; stroke-width: 0.8"/>
      </g>
     </g>
     <g id="text_14">
      <!-- 20000 -->
      <g transform="translate(33.0275 114.826434) scale(0.1 -0.1)">
       <use xlink:href="#DejaVuSans-32"/>
       <use xlink:href="#DejaVuSans-30" transform="translate(63.623047 0)"/>
       <use xlink:href="#DejaVuSans-30" transform="translate(127.246094 0)"/>
       <use xlink:href="#DejaVuSans-30" transform="translate(190.869141 0)"/>
       <use xlink:href="#DejaVuSans-30" transform="translate(254.492188 0)"/>
      </g>
     </g>
    </g>
    <g id="ytick_6">
     <g id="line2d_14">
      <g>
       <use xlink:href="#m1d92c1c061" x="71.84" y="82.416419" style="stroke: #000000; stroke-width: 0.8"/>
      </g>
     </g>
     <g id="text_15">
      <!-- 30000 -->
      <g transform="translate(33.0275 86.215637) scale(0.1 -0.1)">
       <defs>
        <path id="DejaVuSans-33" d="M 2597 2516 
Q 3050 2419 3304 2112 
Q 3559 1806 3559 1356 
Q 3559 666 3084 287 
Q 2609 -91 1734 -91 
Q 1441 -91 1130 -33 
Q 819 25 488 141 
L 488 750 
Q 750 597 1062 519 
Q 1375 441 1716 441 
Q 2309 441 2620 675 
Q 2931 909 2931 1356 
Q 2931 1769 2642 2001 
Q 2353 2234 1838 2234 
L 1294 2234 
L 1294 2753 
L 1863 2753 
Q 2328 2753 2575 2939 
Q 2822 3125 2822 3475 
Q 2822 3834 2567 4026 
Q 2313 4219 1838 4219 
Q 1578 4219 1281 4162 
Q 984 4106 628 3988 
L 628 4550 
Q 988 4650 1302 4700 
Q 1616 4750 1894 4750 
Q 2613 4750 3031 4423 
Q 3450 4097 3450 3541 
Q 3450 3153 3228 2886 
Q 3006 2619 2597 2516 
z
" transform="scale(0.015625)"/>
       </defs>
       <use xlink:href="#DejaVuSans-33"/>
       <use xlink:href="#DejaVuSans-30" transform="translate(63.623047 0)"/>
       <use xlink:href="#DejaVuSans-30" transform="translate(127.246094 0)"/>
       <use xlink:href="#DejaVuSans-30" transform="translate(190.869141 0)"/>
       <use xlink:href="#DejaVuSans-30" transform="translate(254.492188 0)"/>
      </g>
     </g>
    </g>
    <g id="ytick_7">
     <g id="line2d_15">
      <g>
       <use xlink:href="#m1d92c1c061" x="71.84" y="53.805622" style="stroke: #000000; stroke-width: 0.8"/>
      </g>
     </g>
     <g id="text_16">
      <!-- 40000 -->
      <g transform="translate(33.0275 57.604841) scale(0.1 -0.1)">
       <defs>
        <path id="DejaVuSans-34" d="M 2419 4116 
L 825 1625 
L 2419 1625 
L 2419 4116 
z
M 2253 4666 
L 3047 4666 
L 3047 1625 
L 3713 1625 
L 3713 1100 
L 3047 1100 
L 3047 0 
L 2419 0 
L 2419 1100 
L 313 1100 
L 313 1709 
L 2253 4666 
z
" transform="scale(0.015625)"/>
       </defs>
       <use xlink:href="#DejaVuSans-34"/>
       <use xlink:href="#DejaVuSans-30" transform="translate(63.623047 0)"/>
       <use xlink:href="#DejaVuSans-30" transform="translate(127.246094 0)"/>
       <use xlink:href="#DejaVuSans-30" transform="translate(190.869141 0)"/>
       <use xlink:href="#DejaVuSans-30" transform="translate(254.492188 0)"/>
      </g>
     </g>
    </g>
    <g id="text_17">
     <!-- Lichtintensiteit -->
     <g transform="translate(18.568125 173.656094) rotate(-90) scale(0.1 -0.1)">
      <defs>
       <path id="DejaVuSans-4c" d="M 628 4666 
L 1259 4666 
L 1259 531 
L 3531 531 
L 3531 0 
L 628 0 
L 628 4666 
z
" transform="scale(0.015625)"/>
       <path id="DejaVuSans-63" d="M 3122 3366 
L 3122 2828 
Q 2878 2963 2633 3030 
Q 2388 3097 2138 3097 
Q 1578 3097 1268 2742 
Q 959 2388 959 1747 
Q 959 1106 1268 751 
Q 1578 397 2138 397 
Q 2388 397 2633 464 
Q 2878 531 3122 666 
L 3122 134 
Q 2881 22 2623 -34 
Q 2366 -91 2075 -91 
Q 1284 -91 818 406 
Q 353 903 353 1747 
Q 353 2603 823 3093 
Q 1294 3584 2113 3584 
Q 2378 3584 2631 3529 
Q 2884 3475 3122 3366 
z
" transform="scale(0.015625)"/>
       <path id="DejaVuSans-68" d="M 3513 2113 
L 3513 0 
L 2938 0 
L 2938 2094 
Q 2938 2591 2744 2837 
Q 2550 3084 2163 3084 
Q 1697 3084 1428 2787 
Q 1159 2491 1159 1978 
L 1159 0 
L 581 0 
L 581 4863 
L 1159 4863 
L 1159 2956 
Q 1366 3272 1645 3428 
Q 1925 3584 2291 3584 
Q 2894 3584 3203 3211 
Q 3513 2838 3513 2113 
z
" transform="scale(0.015625)"/>
       <path id="DejaVuSans-74" d="M 1172 4494 
L 1172 3500 
L 2356 3500 
L 2356 3053 
L 1172 3053 
L 1172 1153 
Q 1172 725 1289 603 
Q 1406 481 1766 481 
L 2356 481 
L 2356 0 
L 1766 0 
Q 1100 0 847 248 
Q 594 497 594 1153 
L 594 3053 
L 172 3053 
L 172 3500 
L 594 3500 
L 594 4494 
L 1172 4494 
z
" transform="scale(0.015625)"/>
       <path id="DejaVuSans-6e" d="M 3513 2113 
L 3513 0 
L 2938 0 
L 2938 2094 
Q 2938 2591 2744 2837 
Q 2550 3084 2163 3084 
Q 1697 3084 1428 2787 
Q 1159 2491 1159 1978 
L 1159 0 
L 581 0 
L 581 3500 
L 1159 3500 
L 1159 2956 
Q 1366 3272 1645 3428 
Q 1925 3584 2291 3584 
Q 2894 3584 3203 3211 
Q 3513 2838 3513 2113 
z
" transform="scale(0.015625)"/>
       <path id="DejaVuSans-65" d="M 3597 1894 
L 3597 1613 
L 953 1613 
Q 991 1019 1311 708 
Q 1631 397 2203 397 
Q 2534 397 2845 478 
Q 3156 559 3463 722 
L 3463 178 
Q 3153 47 2828 -22 
Q 2503 -91 2169 -91 
Q 1331 -91 842 396 
Q 353 884 353 1716 
Q 353 2575 817 3079 
Q 1281 3584 2069 3584 
Q 2775 3584 3186 3129 
Q 3597 2675 3597 1894 
z
M 3022 2063 
Q 3016 2534 2758 2815 
Q 2500 3097 2075 3097 
Q 1594 3097 1305 2825 
Q 1016 2553 972 2059 
L 3022 2063 
z
" transform="scale(0.015625)"/>
       <path id="DejaVuSans-73" d="M 2834 3397 
L 2834 2853 
Q 2591 2978 2328 3040 
Q 2066 3103 1784 3103 
Q 1356 3103 1142 2972 
Q 928 2841 928 2578 
Q 928 2378 1081 2264 
Q 1234 2150 1697 2047 
L 1894 2003 
Q 2506 1872 2764 1633 
Q 3022 1394 3022 966 
Q 3022 478 2636 193 
Q 2250 -91 1575 -91 
Q 1294 -91 989 -36 
Q 684 19 347 128 
L 347 722 
Q 666 556 975 473 
Q 1284 391 1588 391 
Q 1994 391 2212 530 
Q 2431 669 2431 922 
Q 2431 1156 2273 1281 
Q 2116 1406 1581 1522 
L 1381 1569 
Q 847 1681 609 1914 
Q 372 2147 372 2553 
Q 372 3047 722 3315 
Q 1072 3584 1716 3584 
Q 2034 3584 2315 3537 
Q 2597 3491 2834 3397 
z
" transform="scale(0.015625)"/>
      </defs>
      <use xlink:href="#DejaVuSans-4c"/>
      <use xlink:href="#DejaVuSans-69" transform="translate(55.712891 0)"/>
      <use xlink:href="#DejaVuSans-63" transform="translate(83.496094 0)"/>
      <use xlink:href="#DejaVuSans-68" transform="translate(138.476562 0)"/>
      <use xlink:href="#DejaVuSans-74" transform="translate(201.855469 0)"/>
      <use xlink:href="#DejaVuSans-69" transform="translate(241.064453 0)"/>
      <use xlink:href="#DejaVuSans-6e" transform="translate(268.847656 0)"/>
      <use xlink:href="#DejaVuSans-74" transform="translate(332.226562 0)"/>
      <use xlink:href="#DejaVuSans-65" transform="translate(371.435547 0)"/>
      <use xlink:href="#DejaVuSans-6e" transform="translate(432.958984 0)"/>
      <use xlink:href="#DejaVuSans-73" transform="translate(496.337891 0)"/>
      <use xlink:href="#DejaVuSans-69" transform="translate(548.4375 0)"/>
      <use xlink:href="#DejaVuSans-74" transform="translate(576.220703 0)"/>
      <use xlink:href="#DejaVuSans-65" transform="translate(615.429688 0)"/>
      <use xlink:href="#DejaVuSans-69" transform="translate(676.953125 0)"/>
      <use xlink:href="#DejaVuSans-74" transform="translate(704.736328 0)"/>
     </g>
    </g>
   </g>
   <g id="line2d_16">
    <path d="M 100.810909 165.294744 
L 104.160147 165.123937 
L 107.509385 166.727668 
L 110.858623 167.775204 
L 114.207861 168.173276 
L 120.906337 168.248808 
L 161.097194 168.16927 
L 164.446432 167.767956 
L 167.79567 167.137756 
L 177.843384 165.814506 
L 181.192622 164.790145 
L 184.54186 164.798823 
L 187.891098 163.446963 
L 191.240336 164.451488 
L 197.938812 163.658397 
L 204.637288 164.394266 
L 207.986527 163.989805 
L 211.335765 162.953331 
L 214.685003 163.759298 
L 218.034241 161.872606 
L 221.383479 162.919285 
L 224.732717 158.452758 
L 228.081955 163.15685 
L 231.431193 154.053085 
L 234.780431 141.121005 
L 238.129669 162.185704 
L 241.478907 161.369533 
L 244.828145 162.335147 
L 248.177383 164.578615 
L 251.526621 164.830676 
L 254.875859 164.294987 
L 258.225097 165.46164 
L 261.574335 165.974345 
L 264.923573 166.086309 
L 271.622049 167.654371 
L 274.971287 168.100223 
L 278.320525 168.236124 
L 308.463668 168.248808 
L 321.86062 168.193876 
L 325.209858 167.991311 
L 341.956048 165.717516 
L 345.305286 164.678086 
L 348.654524 161.565803 
L 352.003762 161.234395 
L 355.353001 162.122855 
L 358.702239 161.048425 
L 362.051477 159.532052 
L 365.400715 159.598811 
L 368.749953 157.766862 
L 372.099191 159.234786 
L 378.797667 158.619654 
L 382.146905 158.602964 
L 385.496143 156.350722 
L 388.845381 159.983531 
L 392.194619 150.374213 
L 395.543857 142.999876 
L 398.893095 154.878792 
L 402.242333 164.191702 
L 405.591571 164.617621 
L 412.290047 164.975256 
L 415.639285 165.155695 
L 418.988523 165.045162 
L 422.337761 165.270901 
L 425.686999 165.816891 
L 429.036238 166.517092 
L 432.385476 167.382473 
L 435.734714 168.008001 
L 439.083952 168.225729 
L 459.17938 168.248808 
L 482.624046 168.228876 
L 485.973284 168.075618 
L 506.068713 166.075532 
L 509.417951 163.649623 
L 512.767189 165.777122 
L 516.116427 165.491777 
L 519.465665 164.915651 
L 522.814903 165.007014 
L 526.164141 164.662159 
L 529.513379 164.867966 
L 536.211855 164.851276 
L 539.561093 164.428504 
L 542.910331 162.943031 
L 546.259569 162.04141 
L 549.608807 164.434035 
L 552.958045 163.407194 
L 556.307283 139.750929 
L 559.656521 140.583026 
L 563.005759 163.961194 
L 566.354997 164.995189 
L 569.704235 165.208148 
L 573.053473 164.848129 
L 576.402712 164.931482 
L 579.75195 165.742979 
L 586.450426 165.154837 
L 589.799664 166.758663 
L 593.148902 167.451712 
L 596.49814 168.011911 
L 599.847378 168.219435 
L 613.24433 168.248808 
L 613.24433 168.248808 
" clip-path="url(#pb659c41663)" style="fill: none; stroke: #1f77b4; stroke-width: 2; stroke-linecap: square"/>
   </g>
   <g id="line2d_17">
    <path d="M 100.810909 157.057552 
L 104.160147 160.432965 
L 107.509385 161.845426 
L 110.858623 162.330597 
L 114.207861 160.670571 
L 117.557099 156.044274 
L 120.906337 151.611153 
L 124.255575 154.374718 
L 127.604813 158.224375 
L 130.954051 159.250307 
L 134.30329 157.769932 
L 137.652528 163.569458 
L 141.001766 163.06524 
L 144.351004 165.375467 
L 147.700242 165.852527 
L 151.04948 166.123265 
L 154.398718 166.765938 
L 164.446432 167.566236 
L 167.79567 167.52426 
L 174.494146 167.650114 
L 177.843384 167.325458 
L 181.192622 167.119057 
L 184.54186 166.712703 
L 187.891098 166.428678 
L 191.240336 166.377342 
L 194.589574 165.825561 
L 201.28805 165.252393 
L 204.637288 164.609495 
L 207.986527 164.173473 
L 211.335765 160.086584 
L 214.685003 159.676203 
L 218.034241 163.514001 
L 221.383479 163.348181 
L 224.732717 161.447259 
L 228.081955 158.822375 
L 231.431193 150.293592 
L 234.780431 143.206466 
L 238.129669 149.075242 
L 241.478907 154.399248 
L 244.828145 156.020411 
L 248.177383 140.902432 
L 251.526621 136.781701 
L 254.875859 143.394691 
L 258.225097 149.691982 
L 261.574335 150.962574 
L 264.923573 153.151381 
L 268.272811 160.041938 
L 271.622049 164.683018 
L 274.971287 166.332441 
L 278.320525 165.563351 
L 281.669764 166.984497 
L 285.019002 153.234299 
L 288.36824 155.841995 
L 291.717478 154.89421 
L 295.066716 158.070974 
L 298.415954 157.992932 
L 301.765192 158.796516 
L 305.11443 161.426472 
L 308.463668 168.190124 
L 311.812906 163.784403 
L 315.162144 167.188499 
L 321.86062 167.414988 
L 325.209858 167.247662 
L 328.559096 167.516903 
L 331.908334 167.103218 
L 335.257572 167.157891 
L 338.60681 166.845851 
L 341.956048 166.069937 
L 345.305286 166.2136 
L 348.654524 164.942334 
L 352.003762 164.20331 
L 355.353001 163.228861 
L 358.702239 153.568958 
L 362.051477 156.055785 
L 365.400715 163.593331 
L 368.749953 160.351402 
L 372.099191 160.200916 
L 375.448429 161.953638 
L 378.797667 162.629238 
L 382.146905 161.615912 
L 385.496143 160.751174 
L 388.845381 157.517765 
L 392.194619 158.167731 
L 395.543857 155.451644 
L 398.893095 153.780956 
L 402.242333 152.287989 
L 405.591571 156.317852 
L 408.940809 149.107518 
L 412.290047 161.664663 
L 415.639285 154.008984 
L 418.988523 161.513859 
L 422.337761 162.640822 
L 425.686999 163.296232 
L 429.036238 163.581688 
L 432.385476 163.36973 
L 435.734714 163.602741 
L 439.083952 163.257178 
L 442.43319 159.408549 
L 445.782428 162.218301 
L 449.131666 164.575931 
L 452.480904 164.640721 
L 455.830142 162.000742 
L 459.17938 162.716196 
L 462.528618 162.221297 
L 465.877856 162.744071 
L 469.227094 161.719763 
L 472.576332 162.496179 
L 475.92557 166.116841 
L 479.274808 167.027509 
L 482.624046 167.124016 
L 485.973284 167.704532 
L 489.322522 167.198077 
L 499.370236 166.903835 
L 506.068713 166.60941 
L 509.417951 166.158407 
L 512.767189 164.451246 
L 516.116427 157.014295 
L 519.465665 163.578066 
L 522.814903 146.683618 
L 526.164141 148.974995 
L 529.513379 157.840132 
L 532.862617 163.556079 
L 536.211855 159.833797 
L 539.561093 163.6525 
L 542.910331 161.940708 
L 546.259569 163.21059 
L 549.608807 160.670762 
L 552.958045 163.867044 
L 559.656521 156.032243 
L 563.005759 158.914366 
L 566.354997 159.076282 
L 569.704235 158.820089 
L 573.053473 163.405271 
L 576.402712 163.956124 
L 579.75195 165.172369 
L 583.101188 165.270631 
L 586.450426 163.962959 
L 589.799664 164.121725 
L 593.148902 165.188884 
L 596.49814 164.598548 
L 599.847378 159.949526 
L 603.196616 160.438669 
L 606.545854 150.400416 
L 609.895092 148.599366 
L 613.24433 147.253252 
L 616.593568 140.721789 
L 619.942806 142.398191 
L 623.292044 133.924793 
L 626.641282 117.068099 
L 629.99052 124.725492 
L 633.339758 126.0908 
L 636.688996 134.832256 
L 640.038234 156.694815 
L 643.387472 162.322463 
L 646.73671 161.899643 
L 650.085949 163.842746 
L 653.435187 165.52363 
L 656.784425 165.94726 
L 660.133663 166.169662 
L 663.482901 167.436977 
L 666.832139 168.115339 
L 670.181377 168.24404 
L 680.229091 168.248808 
L 680.229091 168.248808 
" clip-path="url(#pb659c41663)" style="fill: none; stroke-dasharray: 5.55,2.4; stroke-dashoffset: 0; stroke: #808080; stroke-width: 1.5"/>
   </g>
   <g id="patch_3">
    <path d="M 71.84 246.04 
L 71.84 26.88 
" style="fill: none; stroke: #000000; stroke-width: 0.8; stroke-linejoin: miter; stroke-linecap: square"/>
   </g>
   <g id="patch_4">
    <path d="M 709.2 246.04 
L 709.2 26.88 
" style="fill: none; stroke: #000000; stroke-width: 0.8; stroke-linejoin: miter; stroke-linecap: square"/>
   </g>
   <g id="patch_5">
    <path d="M 71.84 246.04 
L 709.2 246.04 
" style="fill: none; stroke: #000000; stroke-width: 0.8; stroke-linejoin: miter; stroke-linecap: square"/>
   </g>
   <g id="patch_6">
    <path d="M 71.84 26.88 
L 709.2 26.88 
" style="fill: none; stroke: #000000; stroke-width: 0.8; stroke-linejoin: miter; stroke-linecap: square"/>
   </g>
   <g id="text_18">
    <!-- Licht - v001/c00001/d031 -->
    <g transform="translate(313.383437 20.88) scale(0.12 -0.12)">
     <defs>
      <path id="DejaVuSans-76" d="M 191 3500 
L 800 3500 
L 1894 563 
L 2988 3500 
L 3597 3500 
L 2284 0 
L 1503 0 
L 191 3500 
z
" transform="scale(0.015625)"/>
      <path id="DejaVuSans-2f" d="M 1625 4666 
L 2156 4666 
L 531 -594 
L 0 -594 
L 1625 4666 
z
" transform="scale(0.015625)"/>
     </defs>
     <use xlink:href="#DejaVuSans-4c"/>
     <use xlink:href="#DejaVuSans-69" transform="translate(55.712891 0)"/>
     <use xlink:href="#DejaVuSans-63" transform="translate(83.496094 0)"/>
     <use xlink:href="#DejaVuSans-68" transform="translate(138.476562 0)"/>
     <use xlink:href="#DejaVuSans-74" transform="translate(201.855469 0)"/>
     <use xlink:href="#DejaVuSans-20" transform="translate(241.064453 0)"/>
     <use xlink:href="#DejaVuSans-2d" transform="translate(272.851562 0)"/>
     <use xlink:href="#DejaVuSans-20" transform="translate(308.935547 0)"/>
     <use xlink:href="#DejaVuSans-76" transform="translate(340.722656 0)"/>
     <use xlink:href="#DejaVuSans-30" transform="translate(399.902344 0)"/>
     <use xlink:href="#DejaVuSans-30" transform="translate(463.525391 0)"/>
     <use xlink:href="#DejaVuSans-31" transform="translate(527.148438 0)"/>
     <use xlink:href="#DejaVuSans-2f" transform="translate(590.771484 0)"/>
     <use xlink:href="#DejaVuSans-63" transform="translate(624.462891 0)"/>
     <use xlink:href="#DejaVuSans-30" transform="translate(679.443359 0)"/>
     <use xlink:href="#DejaVuSans-30" transform="translate(743.066406 0)"/>
     <use xlink:href="#DejaVuSans-30" transform="translate(806.689453 0)"/>
     <use xlink:href="#DejaVuSans-30" transform="translate(870.3125 0)"/>
     <use xlink:href="#DejaVuSans-31" transform="translate(933.935547 0)"/>
     <use xlink:href="#DejaVuSans-2f" transform="translate(997.558594 0)"/>
     <use xlink:href="#DejaVuSans-64" transform="translate(1031.25 0)"/>
     <use xlink:href="#DejaVuSans-30" transform="translate(1094.726562 0)"/>
     <use xlink:href="#DejaVuSans-33" transform="translate(1158.349609 0)"/>
     <use xlink:href="#DejaVuSans-31" transform="translate(1221.972656 0)"/>
    </g>
   </g>
   <g id="legend_1">
    <g id="patch_7">
     <path d="M 78.84 78.914375 
L 229.78375 78.914375 
Q 231.78375 78.914375 231.78375 76.914375 
L 231.78375 33.88 
Q 231.78375 31.88 229.78375 31.88 
L 78.84 31.88 
Q 76.84 31.88 76.84 33.88 
L 76.84 76.914375 
Q 76.84 78.914375 78.84 78.914375 
z
" style="fill: #ffffff; opacity: 0.8; stroke: #cccccc; stroke-linejoin: miter"/>
    </g>
    <g id="line2d_18">
     <path d="M 80.84 39.978438 
L 90.84 39.978438 
L 100.84 39.978438 
" style="fill: none; stroke: #1f77b4; stroke-width: 2; stroke-linecap: square"/>
    </g>
    <g id="text_19">
     <!-- Hive -->
     <g transform="translate(108.84 43.478438) scale(0.1 -0.1)">
      <defs>
       <path id="DejaVuSans-48" d="M 628 4666 
L 1259 4666 
L 1259 2753 
L 3553 2753 
L 3553 4666 
L 4184 4666 
L 4184 0 
L 3553 0 
L 3553 2222 
L 1259 2222 
L 1259 0 
L 628 0 
L 628 4666 
z
" transform="scale(0.015625)"/>
      </defs>
      <use xlink:href="#DejaVuSans-48"/>
      <use xlink:href="#DejaVuSans-69" transform="translate(75.195312 0)"/>
      <use xlink:href="#DejaVuSans-76" transform="translate(102.978516 0)"/>
      <use xlink:href="#DejaVuSans-65" transform="translate(162.158203 0)"/>
     </g>
    </g>
    <g id="line2d_19">
     <path d="M 80.84 54.656563 
L 90.84 54.656563 
L 100.84 54.656563 
" style="fill: none; stroke-dasharray: 5.55,2.4; stroke-dashoffset: 0; stroke: #808080; stroke-width: 1.5"/>
    </g>
    <g id="text_20">
     <!-- Gemiddelde (alle hives) -->
     <g transform="translate(108.84 58.156563) scale(0.1 -0.1)">
      <defs>
       <path id="DejaVuSans-47" d="M 3809 666 
L 3809 1919 
L 2778 1919 
L 2778 2438 
L 4434 2438 
L 4434 434 
Q 4069 175 3628 42 
Q 3188 -91 2688 -91 
Q 1594 -91 976 548 
Q 359 1188 359 2328 
Q 359 3472 976 4111 
Q 1594 4750 2688 4750 
Q 3144 4750 3555 4637 
Q 3966 4525 4313 4306 
L 4313 3634 
Q 3963 3931 3569 4081 
Q 3175 4231 2741 4231 
Q 1884 4231 1454 3753 
Q 1025 3275 1025 2328 
Q 1025 1384 1454 906 
Q 1884 428 2741 428 
Q 3075 428 3337 486 
Q 3600 544 3809 666 
z
" transform="scale(0.015625)"/>
       <path id="DejaVuSans-6d" d="M 3328 2828 
Q 3544 3216 3844 3400 
Q 4144 3584 4550 3584 
Q 5097 3584 5394 3201 
Q 5691 2819 5691 2113 
L 5691 0 
L 5113 0 
L 5113 2094 
Q 5113 2597 4934 2840 
Q 4756 3084 4391 3084 
Q 3944 3084 3684 2787 
Q 3425 2491 3425 1978 
L 3425 0 
L 2847 0 
L 2847 2094 
Q 2847 2600 2669 2842 
Q 2491 3084 2119 3084 
Q 1678 3084 1418 2786 
Q 1159 2488 1159 1978 
L 1159 0 
L 581 0 
L 581 3500 
L 1159 3500 
L 1159 2956 
Q 1356 3278 1631 3431 
Q 1906 3584 2284 3584 
Q 2666 3584 2933 3390 
Q 3200 3197 3328 2828 
z
" transform="scale(0.015625)"/>
       <path id="DejaVuSans-6c" d="M 603 4863 
L 1178 4863 
L 1178 0 
L 603 0 
L 603 4863 
z
" transform="scale(0.015625)"/>
       <path id="DejaVuSans-28" d="M 1984 4856 
Q 1566 4138 1362 3434 
Q 1159 2731 1159 2009 
Q 1159 1288 1364 580 
Q 1569 -128 1984 -844 
L 1484 -844 
Q 1016 -109 783 600 
Q 550 1309 550 2009 
Q 550 2706 781 3412 
Q 1013 4119 1484 4856 
L 1984 4856 
z
" transform="scale(0.015625)"/>
       <path id="DejaVuSans-61" d="M 2194 1759 
Q 1497 1759 1228 1600 
Q 959 1441 959 1056 
Q 959 750 1161 570 
Q 1363 391 1709 391 
Q 2188 391 2477 730 
Q 2766 1069 2766 1631 
L 2766 1759 
L 2194 1759 
z
M 3341 1997 
L 3341 0 
L 2766 0 
L 2766 531 
Q 2569 213 2275 61 
Q 1981 -91 1556 -91 
Q 1019 -91 701 211 
Q 384 513 384 1019 
Q 384 1609 779 1909 
Q 1175 2209 1959 2209 
L 2766 2209 
L 2766 2266 
Q 2766 2663 2505 2880 
Q 2244 3097 1772 3097 
Q 1472 3097 1187 3025 
Q 903 2953 641 2809 
L 641 3341 
Q 956 3463 1253 3523 
Q 1550 3584 1831 3584 
Q 2591 3584 2966 3190 
Q 3341 2797 3341 1997 
z
" transform="scale(0.015625)"/>
       <path id="DejaVuSans-29" d="M 513 4856 
L 1013 4856 
Q 1481 4119 1714 3412 
Q 1947 2706 1947 2009 
Q 1947 1309 1714 600 
Q 1481 -109 1013 -844 
L 513 -844 
Q 928 -128 1133 580 
Q 1338 1288 1338 2009 
Q 1338 2731 1133 3434 
Q 928 4138 513 4856 
z
" transform="scale(0.015625)"/>
      </defs>
      <use xlink:href="#DejaVuSans-47"/>
      <use xlink:href="#DejaVuSans-65" transform="translate(77.490234 0)"/>
      <use xlink:href="#DejaVuSans-6d" transform="translate(139.013672 0)"/>
      <use xlink:href="#DejaVuSans-69" transform="translate(236.425781 0)"/>
      <use xlink:href="#DejaVuSans-64" transform="translate(264.208984 0)"/>
      <use xlink:href="#DejaVuSans-64" transform="translate(327.685547 0)"/>
      <use xlink:href="#DejaVuSans-65" transform="translate(391.162109 0)"/>
      <use xlink:href="#DejaVuSans-6c" transform="translate(452.685547 0)"/>
      <use xlink:href="#DejaVuSans-64" transform="translate(480.46875 0)"/>
      <use xlink:href="#DejaVuSans-65" transform="translate(543.945312 0)"/>
      <use xlink:href="#DejaVuSans-20" transform="translate(605.46875 0)"/>
      <use xlink:href="#DejaVuSans-28" transform="translate(637.255859 0)"/>
      <use xlink:href="#DejaVuSans-61" transform="translate(676.269531 0)"/>
      <use xlink:href="#DejaVuSans-6c" transform="translate(737.548828 0)"/>
      <use xlink:href="#DejaVuSans-6c" transform="translate(765.332031 0)"/>
      <use xlink:href="#DejaVuSans-65" transform="translate(793.115234 0)"/>
      <use xlink:href="#DejaVuSans-20" transform="translate(854.638672 0)"/>
      <use xlink:href="#DejaVuSans-68" transform="translate(886.425781 0)"/>
      <use xlink:href="#DejaVuSans-69" transform="translate(949.804688 0)"/>
      <use xlink:href="#DejaVuSans-76" transform="translate(977.587891 0)"/>
      <use xlink:href="#DejaVuSans-65" transform="translate(1036.767578 0)"/>
      <use xlink:href="#DejaVuSans-73" transform="translate(1098.291016 0)"/>
      <use xlink:href="#DejaVuSans-29" transform="translate(1150.390625 0)"/>
     </g>
    </g>
    <g id="patch_8">
     <path d="M 80.84 72.834688 
L 100.84 72.834688 
L 100.84 65.834688 
L 80.84 65.834688 
z
" style="fill: #808080; fill-opacity: 0.2; stroke: #808080; stroke-opacity: 0.2; stroke-linejoin: miter"/>
    </g>
    <g id="text_21">
     <!-- ±2 Std Dev -->
     <g transform="translate(108.84 72.834688) scale(0.1 -0.1)">
      <defs>
       <path id="DejaVuSans-b1" d="M 2944 4013 
L 2944 2803 
L 4684 2803 
L 4684 2272 
L 2944 2272 
L 2944 1063 
L 2419 1063 
L 2419 2272 
L 678 2272 
L 678 2803 
L 2419 2803 
L 2419 4013 
L 2944 4013 
z
M 678 531 
L 4684 531 
L 4684 0 
L 678 0 
L 678 531 
z
" transform="scale(0.015625)"/>
       <path id="DejaVuSans-53" d="M 3425 4513 
L 3425 3897 
Q 3066 4069 2747 4153 
Q 2428 4238 2131 4238 
Q 1616 4238 1336 4038 
Q 1056 3838 1056 3469 
Q 1056 3159 1242 3001 
Q 1428 2844 1947 2747 
L 2328 2669 
Q 3034 2534 3370 2195 
Q 3706 1856 3706 1288 
Q 3706 609 3251 259 
Q 2797 -91 1919 -91 
Q 1588 -91 1214 -16 
Q 841 59 441 206 
L 441 856 
Q 825 641 1194 531 
Q 1563 422 1919 422 
Q 2459 422 2753 634 
Q 3047 847 3047 1241 
Q 3047 1584 2836 1778 
Q 2625 1972 2144 2069 
L 1759 2144 
Q 1053 2284 737 2584 
Q 422 2884 422 3419 
Q 422 4038 858 4394 
Q 1294 4750 2059 4750 
Q 2388 4750 2728 4690 
Q 3069 4631 3425 4513 
z
" transform="scale(0.015625)"/>
       <path id="DejaVuSans-44" d="M 1259 4147 
L 1259 519 
L 2022 519 
Q 2988 519 3436 956 
Q 3884 1394 3884 2338 
Q 3884 3275 3436 3711 
Q 2988 4147 2022 4147 
L 1259 4147 
z
M 628 4666 
L 1925 4666 
Q 3281 4666 3915 4102 
Q 4550 3538 4550 2338 
Q 4550 1131 3912 565 
Q 3275 0 1925 0 
L 628 0 
L 628 4666 
z
" transform="scale(0.015625)"/>
      </defs>
      <use xlink:href="#DejaVuSans-b1"/>
      <use xlink:href="#DejaVuSans-32" transform="translate(83.789062 0)"/>
      <use xlink:href="#DejaVuSans-20" transform="translate(147.412109 0)"/>
      <use xlink:href="#DejaVuSans-53" transform="translate(179.199219 0)"/>
      <use xlink:href="#DejaVuSans-74" transform="translate(242.675781 0)"/>
      <use xlink:href="#DejaVuSans-64" transform="translate(281.884766 0)"/>
      <use xlink:href="#DejaVuSans-20" transform="translate(345.361328 0)"/>
      <use xlink:href="#DejaVuSans-44" transform="translate(377.148438 0)"/>
      <use xlink:href="#DejaVuSans-65" transform="translate(454.150391 0)"/>
      <use xlink:href="#DejaVuSans-76" transform="translate(515.673828 0)"/>
     </g>
    </g>
   </g>
  </g>
 </g>
 <defs>
  <clipPath id="pb659c41663">
   <rect x="71.84" y="26.88" width="637.36" height="219.16"/>
  </clipPath>
 </defs>
</svg>
