<?xml version="1.0" encoding="utf-8" standalone="no"?>
<!DOCTYPE svg PUBLIC "-//W3C//DTD SVG 1.1//EN"
  "http://www.w3.org/Graphics/SVG/1.1/DTD/svg11.dtd">
<svg xmlns:xlink="http://www.w3.org/1999/xlink" width="720pt" height="288pt" viewBox="0 0 720 288" xmlns="http://www.w3.org/2000/svg" version="1.1">
 <metadata>
  <rdf:RDF xmlns:dc="http://purl.org/dc/elements/1.1/" xmlns:cc="http://creativecommons.org/ns#" xmlns:rdf="http://www.w3.org/1999/02/22-rdf-syntax-ns#">
   <cc:Work>
    <dc:type rdf:resource="http://purl.org/dc/dcmitype/StillImage"/>
    <dc:date>2025-06-13T15:17:44.282403</dc:date>
    <dc:format>image/svg+xml</dc:format>
    <dc:creator>
     <cc:Agent>
      <dc:title>Matplotlib v3.10.3, https://matplotlib.org/</dc:title>
     </cc:Agent>
    </dc:creator>
   </cc:Work>
  </rdf:RDF>
 </metadata>
 <defs>
  <style type="text/css">*{stroke-linejoin: round; stroke-linecap: butt}</style>
 </defs>
 <g id="figure_1">
  <g id="patch_1">
   <path d="M 0 288 
L 720 288 
L 720 0 
L 0 0 
z
" style="fill: #ffffff"/>
  </g>
  <g id="axes_1">
   <g id="patch_2">
    <path d="M 50.87 246.04 
L 709.2 246.04 
L 709.2 26.88 
L 50.87 26.88 
z
" style="fill: #ffffff"/>
   </g>
   <g id="FillBetweenPolyCollection_1">
    <defs>
     <path id="m93c7b3cdb6" d="M 80.794091 -233.241991 
L 80.794091 -175.96209 
L 84.356483 -167.679599 
L 87.918874 -159.173564 
L 91.481266 -154.642595 
L 95.043658 -147.62204 
L 98.60605 -144.724017 
L 102.168442 -159.792599 
L 105.730833 -157.167989 
L 109.293225 -152.333551 
L 112.855617 -150.15225 
L 116.418009 -141.598613 
L 119.9804 -143.68804 
L 123.542792 -141.308513 
L 127.105184 -142.628955 
L 130.667576 -144.496069 
L 134.229968 -149.07517 
L 137.792359 -156.403408 
L 141.354751 -159.457971 
L 144.917143 -157.274629 
L 148.479535 -160.804771 
L 152.041926 -164.94896 
L 155.604318 -157.592253 
L 159.16671 -162.630026 
L 162.729102 -159.587812 
L 166.291494 -165.808339 
L 169.853885 -179.298106 
L 173.416277 -170.533004 
L 176.978669 -172.394722 
L 180.541061 -174.92294 
L 184.103452 -178.472295 
L 187.665844 -181.190314 
L 191.228236 -181.682079 
L 194.790628 -183.456946 
L 198.353019 -184.934069 
L 201.915411 -185.878658 
L 205.477803 -187.243436 
L 209.040195 -188.205272 
L 212.602587 -189.652478 
L 216.164978 -186.138246 
L 219.72737 -178.511392 
L 223.289762 -164.276865 
L 226.852154 -156.639439 
L 230.414545 -144.597419 
L 233.976937 -126.562584 
L 237.539329 -124.48454 
L 241.101721 -117.607377 
L 244.664113 -107.309006 
L 248.226504 -84.057536 
L 251.788896 -106.659763 
L 255.351288 -98.040776 
L 258.91368 -86.206614 
L 262.476071 -64.588226 
L 266.038463 -61.659626 
L 269.600855 -64.25795 
L 273.163247 -66.640831 
L 276.725639 -92.904803 
L 280.28803 -84.866426 
L 283.850422 -72.143493 
L 287.412814 -51.921818 
L 290.975206 -59.211209 
L 294.537597 -65.946582 
L 298.099989 -72.960132 
L 301.662381 -86.290882 
L 305.224773 -105.503651 
L 308.787165 -112.741282 
L 312.349556 -117.593113 
L 315.911948 -120.606597 
L 319.47434 -126.029325 
L 323.036732 -129.357513 
L 326.599123 -137.597846 
L 330.161515 -150.928003 
L 333.723907 -157.388638 
L 337.286299 -157.428921 
L 340.84869 -161.277306 
L 344.411082 -161.494973 
L 347.973474 -162.660346 
L 351.535866 -162.753347 
L 355.098258 -162.466843 
L 358.660649 -160.154561 
L 362.223041 -160.354642 
L 365.785433 -163.145842 
L 369.347825 -165.943174 
L 372.910216 -173.315758 
L 376.472608 -172.407435 
L 380.035 -175.681889 
L 383.597392 -176.051128 
L 387.159784 -173.847311 
L 390.722175 -168.373553 
L 394.284567 -164.496254 
L 397.846959 -155.156583 
L 401.409351 -147.077335 
L 404.971742 -133.833471 
L 408.534134 -120.645056 
L 412.096526 -109.155911 
L 415.658918 -98.598898 
L 419.22131 -78.673246 
L 422.783701 -79.294796 
L 426.346093 -73.238771 
L 429.908485 -70.040502 
L 433.470877 -61.305665 
L 437.033268 -54.147877 
L 440.59566 -54.264114 
L 444.158052 -61.655405 
L 447.720444 -71.38462 
L 451.282835 -69.630245 
L 454.845227 -55.83324 
L 458.407619 -54.441817 
L 461.970011 -59.180891 
L 465.532403 -69.391698 
L 469.094794 -74.101519 
L 472.657186 -78.336178 
L 476.219578 -85.684946 
L 479.78197 -88.081568 
L 483.344361 -88.631032 
L 486.906753 -89.313467 
L 490.469145 -82.241231 
L 494.031537 -105.92575 
L 497.593929 -112.825637 
L 501.15632 -98.819843 
L 504.718712 -106.752954 
L 508.281104 -111.928015 
L 511.843496 -110.188241 
L 515.405887 -115.071888 
L 518.968279 -118.55328 
L 522.530671 -113.428416 
L 526.093063 -121.279132 
L 529.655455 -126.083573 
L 533.217846 -128.662515 
L 536.780238 -131.8191 
L 540.34263 -134.965778 
L 543.905022 -139.532493 
L 547.467413 -142.427412 
L 551.029805 -140.508498 
L 554.592197 -144.41715 
L 558.154589 -145.115252 
L 561.716981 -140.1534 
L 565.279372 -137.636773 
L 568.841764 -134.751147 
L 572.404156 -130.701933 
L 575.966548 -122.618324 
L 579.528939 -114.937426 
L 583.091331 -109.258464 
L 586.653723 -107.577636 
L 590.216115 -120.735867 
L 593.778506 -105.173738 
L 597.340898 -95.077551 
L 600.90329 -92.548624 
L 604.465682 -83.91843 
L 608.028074 -74.506631 
L 611.590465 -71.317097 
L 615.152857 -78.006528 
L 618.715249 -92.480295 
L 622.277641 -96.20631 
L 625.840032 -72.965473 
L 625.840032 -151.576857 
L 625.840032 -151.576857 
L 622.277641 -137.417746 
L 618.715249 -165.521324 
L 615.152857 -170.383171 
L 611.590465 -181.302759 
L 608.028074 -184.239379 
L 604.465682 -181.189919 
L 600.90329 -184.69801 
L 597.340898 -186.449736 
L 593.778506 -188.570021 
L 590.216115 -189.505016 
L 586.653723 -199.975623 
L 583.091331 -204.344392 
L 579.528939 -207.519929 
L 575.966548 -211.899132 
L 572.404156 -216.921355 
L 568.841764 -222.273938 
L 565.279372 -224.509457 
L 561.716981 -225.716411 
L 558.154589 -227.449186 
L 554.592197 -228.088648 
L 551.029805 -233.668514 
L 547.467413 -227.420082 
L 543.905022 -228.49719 
L 540.34263 -229.350097 
L 536.780238 -229.222761 
L 533.217846 -227.971643 
L 529.655455 -223.201155 
L 526.093063 -221.330516 
L 522.530671 -222.939429 
L 518.968279 -214.703436 
L 515.405887 -210.688802 
L 511.843496 -208.213246 
L 508.281104 -203.443786 
L 504.718712 -199.666617 
L 501.15632 -201.928027 
L 497.593929 -196.51025 
L 494.031537 -193.271442 
L 490.469145 -186.561378 
L 486.906753 -175.990345 
L 483.344361 -171.668913 
L 479.78197 -163.148867 
L 476.219578 -162.496258 
L 472.657186 -165.134354 
L 469.094794 -168.978087 
L 465.532403 -170.736408 
L 461.970011 -174.516464 
L 458.407619 -177.63319 
L 454.845227 -177.424322 
L 451.282835 -174.104163 
L 447.720444 -172.69185 
L 444.158052 -179.469565 
L 440.59566 -188.04341 
L 437.033268 -194.228791 
L 433.470877 -198.417662 
L 429.908485 -203.394594 
L 426.346093 -207.897588 
L 422.783701 -212.924347 
L 419.22131 -220.357802 
L 415.658918 -217.80886 
L 412.096526 -219.233763 
L 408.534134 -219.10105 
L 404.971742 -206.445274 
L 401.409351 -215.039575 
L 397.846959 -213.91883 
L 394.284567 -213.785492 
L 390.722175 -213.113796 
L 387.159784 -213.171656 
L 383.597392 -214.935749 
L 380.035 -217.210759 
L 376.472608 -221.89255 
L 372.910216 -225.82032 
L 369.347825 -225.815784 
L 365.785433 -226.590068 
L 362.223041 -227.710055 
L 358.660649 -226.463706 
L 355.098258 -222.998189 
L 351.535866 -219.71132 
L 347.973474 -217.448985 
L 344.411082 -217.637039 
L 340.84869 -217.678789 
L 337.286299 -215.448258 
L 333.723907 -218.111011 
L 330.161515 -217.365556 
L 326.599123 -215.136814 
L 323.036732 -212.196631 
L 319.47434 -207.393535 
L 315.911948 -199.172907 
L 312.349556 -197.514812 
L 308.787165 -190.912479 
L 305.224773 -187.634171 
L 301.662381 -194.806385 
L 298.099989 -205.889304 
L 294.537597 -203.891984 
L 290.975206 -208.359979 
L 287.412814 -214.00259 
L 283.850422 -201.907313 
L 280.28803 -189.477575 
L 276.725639 -193.544908 
L 273.163247 -208.224407 
L 269.600855 -216.410926 
L 266.038463 -222.115492 
L 262.476071 -226.182858 
L 258.91368 -234.991956 
L 255.351288 -226.035669 
L 251.788896 -225.876996 
L 248.226504 -233.474137 
L 244.664113 -236.515774 
L 241.101721 -232.18067 
L 237.539329 -245.957163 
L 233.976937 -251.158182 
L 230.414545 -239.127987 
L 226.852154 -236.409579 
L 223.289762 -236.033624 
L 219.72737 -237.146244 
L 216.164978 -231.636912 
L 212.602587 -234.221142 
L 209.040195 -239.675352 
L 205.477803 -240.168075 
L 201.915411 -239.861639 
L 198.353019 -239.398891 
L 194.790628 -239.507769 
L 191.228236 -239.562557 
L 187.665844 -237.024637 
L 184.103452 -237.172309 
L 180.541061 -237.652887 
L 176.978669 -240.161558 
L 173.416277 -239.423611 
L 169.853885 -230.033026 
L 166.291494 -235.205819 
L 162.729102 -236.696128 
L 159.16671 -231.718825 
L 155.604318 -229.954466 
L 152.041926 -223.966004 
L 148.479535 -223.340882 
L 144.917143 -220.342541 
L 141.354751 -215.579081 
L 137.792359 -214.568002 
L 134.229968 -214.214521 
L 130.667576 -218.070407 
L 127.105184 -222.263538 
L 123.542792 -222.274374 
L 119.9804 -224.898714 
L 116.418009 -219.189146 
L 112.855617 -218.300937 
L 109.293225 -217.601901 
L 105.730833 -215.960035 
L 102.168442 -219.28729 
L 98.60605 -227.628668 
L 95.043658 -231.744529 
L 91.481266 -231.056994 
L 87.918874 -234.158876 
L 84.356483 -234.350969 
L 80.794091 -233.241991 
z
" style="stroke: #808080; stroke-opacity: 0.2"/>
    </defs>
    <g clip-path="url(#pf99df35756)">
     <use xlink:href="#m93c7b3cdb6" x="0" y="288" style="fill: #808080; fill-opacity: 0.2; stroke: #808080; stroke-opacity: 0.2"/>
    </g>
   </g>
   <g id="matplotlib.axis_1">
    <g id="xtick_1">
     <g id="line2d_1">
      <defs>
       <path id="me8aff5d997" d="M 0 0 
L 0 3.5 
" style="stroke: #000000; stroke-width: 0.8"/>
      </defs>
      <g>
       <use xlink:href="#me8aff5d997" x="59.41974" y="246.04" style="stroke: #000000; stroke-width: 0.8"/>
      </g>
     </g>
     <g id="text_1">
      <!-- 06-10 12 -->
      <g transform="translate(36.939272 260.638438) scale(0.1 -0.1)">
       <defs>
        <path id="DejaVuSans-30" d="M 2034 4250 
Q 1547 4250 1301 3770 
Q 1056 3291 1056 2328 
Q 1056 1369 1301 889 
Q 1547 409 2034 409 
Q 2525 409 2770 889 
Q 3016 1369 3016 2328 
Q 3016 3291 2770 3770 
Q 2525 4250 2034 4250 
z
M 2034 4750 
Q 2819 4750 3233 4129 
Q 3647 3509 3647 2328 
Q 3647 1150 3233 529 
Q 2819 -91 2034 -91 
Q 1250 -91 836 529 
Q 422 1150 422 2328 
Q 422 3509 836 4129 
Q 1250 4750 2034 4750 
z
" transform="scale(0.015625)"/>
        <path id="DejaVuSans-36" d="M 2113 2584 
Q 1688 2584 1439 2293 
Q 1191 2003 1191 1497 
Q 1191 994 1439 701 
Q 1688 409 2113 409 
Q 2538 409 2786 701 
Q 3034 994 3034 1497 
Q 3034 2003 2786 2293 
Q 2538 2584 2113 2584 
z
M 3366 4563 
L 3366 3988 
Q 3128 4100 2886 4159 
Q 2644 4219 2406 4219 
Q 1781 4219 1451 3797 
Q 1122 3375 1075 2522 
Q 1259 2794 1537 2939 
Q 1816 3084 2150 3084 
Q 2853 3084 3261 2657 
Q 3669 2231 3669 1497 
Q 3669 778 3244 343 
Q 2819 -91 2113 -91 
Q 1303 -91 875 529 
Q 447 1150 447 2328 
Q 447 3434 972 4092 
Q 1497 4750 2381 4750 
Q 2619 4750 2861 4703 
Q 3103 4656 3366 4563 
z
" transform="scale(0.015625)"/>
        <path id="DejaVuSans-2d" d="M 313 2009 
L 1997 2009 
L 1997 1497 
L 313 1497 
L 313 2009 
z
" transform="scale(0.015625)"/>
        <path id="DejaVuSans-31" d="M 794 531 
L 1825 531 
L 1825 4091 
L 703 3866 
L 703 4441 
L 1819 4666 
L 2450 4666 
L 2450 531 
L 3481 531 
L 3481 0 
L 794 0 
L 794 531 
z
" transform="scale(0.015625)"/>
        <path id="DejaVuSans-20" transform="scale(0.015625)"/>
        <path id="DejaVuSans-32" d="M 1228 531 
L 3431 531 
L 3431 0 
L 469 0 
L 469 531 
Q 828 903 1448 1529 
Q 2069 2156 2228 2338 
Q 2531 2678 2651 2914 
Q 2772 3150 2772 3378 
Q 2772 3750 2511 3984 
Q 2250 4219 1831 4219 
Q 1534 4219 1204 4116 
Q 875 4013 500 3803 
L 500 4441 
Q 881 4594 1212 4672 
Q 1544 4750 1819 4750 
Q 2544 4750 2975 4387 
Q 3406 4025 3406 3419 
Q 3406 3131 3298 2873 
Q 3191 2616 2906 2266 
Q 2828 2175 2409 1742 
Q 1991 1309 1228 531 
z
" transform="scale(0.015625)"/>
       </defs>
       <use xlink:href="#DejaVuSans-30"/>
       <use xlink:href="#DejaVuSans-36" transform="translate(63.623047 0)"/>
       <use xlink:href="#DejaVuSans-2d" transform="translate(127.246094 0)"/>
       <use xlink:href="#DejaVuSans-31" transform="translate(163.330078 0)"/>
       <use xlink:href="#DejaVuSans-30" transform="translate(226.953125 0)"/>
       <use xlink:href="#DejaVuSans-20" transform="translate(290.576172 0)"/>
       <use xlink:href="#DejaVuSans-31" transform="translate(322.363281 0)"/>
       <use xlink:href="#DejaVuSans-32" transform="translate(385.986328 0)"/>
      </g>
     </g>
    </g>
    <g id="xtick_2">
     <g id="line2d_2">
      <g>
       <use xlink:href="#me8aff5d997" x="144.917143" y="246.04" style="stroke: #000000; stroke-width: 0.8"/>
      </g>
     </g>
     <g id="text_2">
      <!-- 06-11 00 -->
      <g transform="translate(122.436674 260.638438) scale(0.1 -0.1)">
       <use xlink:href="#DejaVuSans-30"/>
       <use xlink:href="#DejaVuSans-36" transform="translate(63.623047 0)"/>
       <use xlink:href="#DejaVuSans-2d" transform="translate(127.246094 0)"/>
       <use xlink:href="#DejaVuSans-31" transform="translate(163.330078 0)"/>
       <use xlink:href="#DejaVuSans-31" transform="translate(226.953125 0)"/>
       <use xlink:href="#DejaVuSans-20" transform="translate(290.576172 0)"/>
       <use xlink:href="#DejaVuSans-30" transform="translate(322.363281 0)"/>
       <use xlink:href="#DejaVuSans-30" transform="translate(385.986328 0)"/>
      </g>
     </g>
    </g>
    <g id="xtick_3">
     <g id="line2d_3">
      <g>
       <use xlink:href="#me8aff5d997" x="230.414545" y="246.04" style="stroke: #000000; stroke-width: 0.8"/>
      </g>
     </g>
     <g id="text_3">
      <!-- 06-11 12 -->
      <g transform="translate(207.934077 260.638438) scale(0.1 -0.1)">
       <use xlink:href="#DejaVuSans-30"/>
       <use xlink:href="#DejaVuSans-36" transform="translate(63.623047 0)"/>
       <use xlink:href="#DejaVuSans-2d" transform="translate(127.246094 0)"/>
       <use xlink:href="#DejaVuSans-31" transform="translate(163.330078 0)"/>
       <use xlink:href="#DejaVuSans-31" transform="translate(226.953125 0)"/>
       <use xlink:href="#DejaVuSans-20" transform="translate(290.576172 0)"/>
       <use xlink:href="#DejaVuSans-31" transform="translate(322.363281 0)"/>
       <use xlink:href="#DejaVuSans-32" transform="translate(385.986328 0)"/>
      </g>
     </g>
    </g>
    <g id="xtick_4">
     <g id="line2d_4">
      <g>
       <use xlink:href="#me8aff5d997" x="315.911948" y="246.04" style="stroke: #000000; stroke-width: 0.8"/>
      </g>
     </g>
     <g id="text_4">
      <!-- 06-12 00 -->
      <g transform="translate(293.431479 260.638438) scale(0.1 -0.1)">
       <use xlink:href="#DejaVuSans-30"/>
       <use xlink:href="#DejaVuSans-36" transform="translate(63.623047 0)"/>
       <use xlink:href="#DejaVuSans-2d" transform="translate(127.246094 0)"/>
       <use xlink:href="#DejaVuSans-31" transform="translate(163.330078 0)"/>
       <use xlink:href="#DejaVuSans-32" transform="translate(226.953125 0)"/>
       <use xlink:href="#DejaVuSans-20" transform="translate(290.576172 0)"/>
       <use xlink:href="#DejaVuSans-30" transform="translate(322.363281 0)"/>
       <use xlink:href="#DejaVuSans-30" transform="translate(385.986328 0)"/>
      </g>
     </g>
    </g>
    <g id="xtick_5">
     <g id="line2d_5">
      <g>
       <use xlink:href="#me8aff5d997" x="401.409351" y="246.04" style="stroke: #000000; stroke-width: 0.8"/>
      </g>
     </g>
     <g id="text_5">
      <!-- 06-12 12 -->
      <g transform="translate(378.928882 260.638438) scale(0.1 -0.1)">
       <use xlink:href="#DejaVuSans-30"/>
       <use xlink:href="#DejaVuSans-36" transform="translate(63.623047 0)"/>
       <use xlink:href="#DejaVuSans-2d" transform="translate(127.246094 0)"/>
       <use xlink:href="#DejaVuSans-31" transform="translate(163.330078 0)"/>
       <use xlink:href="#DejaVuSans-32" transform="translate(226.953125 0)"/>
       <use xlink:href="#DejaVuSans-20" transform="translate(290.576172 0)"/>
       <use xlink:href="#DejaVuSans-31" transform="translate(322.363281 0)"/>
       <use xlink:href="#DejaVuSans-32" transform="translate(385.986328 0)"/>
      </g>
     </g>
    </g>
    <g id="xtick_6">
     <g id="line2d_6">
      <g>
       <use xlink:href="#me8aff5d997" x="486.906753" y="246.04" style="stroke: #000000; stroke-width: 0.8"/>
      </g>
     </g>
     <g id="text_6">
      <!-- 06-13 00 -->
      <g transform="translate(464.426284 260.638438) scale(0.1 -0.1)">
       <defs>
        <path id="DejaVuSans-33" d="M 2597 2516 
Q 3050 2419 3304 2112 
Q 3559 1806 3559 1356 
Q 3559 666 3084 287 
Q 2609 -91 1734 -91 
Q 1441 -91 1130 -33 
Q 819 25 488 141 
L 488 750 
Q 750 597 1062 519 
Q 1375 441 1716 441 
Q 2309 441 2620 675 
Q 2931 909 2931 1356 
Q 2931 1769 2642 2001 
Q 2353 2234 1838 2234 
L 1294 2234 
L 1294 2753 
L 1863 2753 
Q 2328 2753 2575 2939 
Q 2822 3125 2822 3475 
Q 2822 3834 2567 4026 
Q 2313 4219 1838 4219 
Q 1578 4219 1281 4162 
Q 984 4106 628 3988 
L 628 4550 
Q 988 4650 1302 4700 
Q 1616 4750 1894 4750 
Q 2613 4750 3031 4423 
Q 3450 4097 3450 3541 
Q 3450 3153 3228 2886 
Q 3006 2619 2597 2516 
z
" transform="scale(0.015625)"/>
       </defs>
       <use xlink:href="#DejaVuSans-30"/>
       <use xlink:href="#DejaVuSans-36" transform="translate(63.623047 0)"/>
       <use xlink:href="#DejaVuSans-2d" transform="translate(127.246094 0)"/>
       <use xlink:href="#DejaVuSans-31" transform="translate(163.330078 0)"/>
       <use xlink:href="#DejaVuSans-33" transform="translate(226.953125 0)"/>
       <use xlink:href="#DejaVuSans-20" transform="translate(290.576172 0)"/>
       <use xlink:href="#DejaVuSans-30" transform="translate(322.363281 0)"/>
       <use xlink:href="#DejaVuSans-30" transform="translate(385.986328 0)"/>
      </g>
     </g>
    </g>
    <g id="xtick_7">
     <g id="line2d_7">
      <g>
       <use xlink:href="#me8aff5d997" x="572.404156" y="246.04" style="stroke: #000000; stroke-width: 0.8"/>
      </g>
     </g>
     <g id="text_7">
      <!-- 06-13 12 -->
      <g transform="translate(549.923687 260.638438) scale(0.1 -0.1)">
       <use xlink:href="#DejaVuSans-30"/>
       <use xlink:href="#DejaVuSans-36" transform="translate(63.623047 0)"/>
       <use xlink:href="#DejaVuSans-2d" transform="translate(127.246094 0)"/>
       <use xlink:href="#DejaVuSans-31" transform="translate(163.330078 0)"/>
       <use xlink:href="#DejaVuSans-33" transform="translate(226.953125 0)"/>
       <use xlink:href="#DejaVuSans-20" transform="translate(290.576172 0)"/>
       <use xlink:href="#DejaVuSans-31" transform="translate(322.363281 0)"/>
       <use xlink:href="#DejaVuSans-32" transform="translate(385.986328 0)"/>
      </g>
     </g>
    </g>
    <g id="xtick_8">
     <g id="line2d_8">
      <g>
       <use xlink:href="#me8aff5d997" x="657.901558" y="246.04" style="stroke: #000000; stroke-width: 0.8"/>
      </g>
     </g>
     <g id="text_8">
      <!-- 06-14 00 -->
      <g transform="translate(635.42109 260.638438) scale(0.1 -0.1)">
       <defs>
        <path id="DejaVuSans-34" d="M 2419 4116 
L 825 1625 
L 2419 1625 
L 2419 4116 
z
M 2253 4666 
L 3047 4666 
L 3047 1625 
L 3713 1625 
L 3713 1100 
L 3047 1100 
L 3047 0 
L 2419 0 
L 2419 1100 
L 313 1100 
L 313 1709 
L 2253 4666 
z
" transform="scale(0.015625)"/>
       </defs>
       <use xlink:href="#DejaVuSans-30"/>
       <use xlink:href="#DejaVuSans-36" transform="translate(63.623047 0)"/>
       <use xlink:href="#DejaVuSans-2d" transform="translate(127.246094 0)"/>
       <use xlink:href="#DejaVuSans-31" transform="translate(163.330078 0)"/>
       <use xlink:href="#DejaVuSans-34" transform="translate(226.953125 0)"/>
       <use xlink:href="#DejaVuSans-20" transform="translate(290.576172 0)"/>
       <use xlink:href="#DejaVuSans-30" transform="translate(322.363281 0)"/>
       <use xlink:href="#DejaVuSans-30" transform="translate(385.986328 0)"/>
      </g>
     </g>
    </g>
    <g id="text_9">
     <!-- Tijd -->
     <g transform="translate(371.185 274.316562) scale(0.1 -0.1)">
      <defs>
       <path id="DejaVuSans-54" d="M -19 4666 
L 3928 4666 
L 3928 4134 
L 2272 4134 
L 2272 0 
L 1638 0 
L 1638 4134 
L -19 4134 
L -19 4666 
z
" transform="scale(0.015625)"/>
       <path id="DejaVuSans-69" d="M 603 3500 
L 1178 3500 
L 1178 0 
L 603 0 
L 603 3500 
z
M 603 4863 
L 1178 4863 
L 1178 4134 
L 603 4134 
L 603 4863 
z
" transform="scale(0.015625)"/>
       <path id="DejaVuSans-6a" d="M 603 3500 
L 1178 3500 
L 1178 -63 
Q 1178 -731 923 -1031 
Q 669 -1331 103 -1331 
L -116 -1331 
L -116 -844 
L 38 -844 
Q 366 -844 484 -692 
Q 603 -541 603 -63 
L 603 3500 
z
M 603 4863 
L 1178 4863 
L 1178 4134 
L 603 4134 
L 603 4863 
z
" transform="scale(0.015625)"/>
       <path id="DejaVuSans-64" d="M 2906 2969 
L 2906 4863 
L 3481 4863 
L 3481 0 
L 2906 0 
L 2906 525 
Q 2725 213 2448 61 
Q 2172 -91 1784 -91 
Q 1150 -91 751 415 
Q 353 922 353 1747 
Q 353 2572 751 3078 
Q 1150 3584 1784 3584 
Q 2172 3584 2448 3432 
Q 2725 3281 2906 2969 
z
M 947 1747 
Q 947 1113 1208 752 
Q 1469 391 1925 391 
Q 2381 391 2643 752 
Q 2906 1113 2906 1747 
Q 2906 2381 2643 2742 
Q 2381 3103 1925 3103 
Q 1469 3103 1208 2742 
Q 947 2381 947 1747 
z
" transform="scale(0.015625)"/>
      </defs>
      <use xlink:href="#DejaVuSans-54"/>
      <use xlink:href="#DejaVuSans-69" transform="translate(57.958984 0)"/>
      <use xlink:href="#DejaVuSans-6a" transform="translate(85.742188 0)"/>
      <use xlink:href="#DejaVuSans-64" transform="translate(113.525391 0)"/>
     </g>
    </g>
   </g>
   <g id="matplotlib.axis_2">
    <g id="ytick_1">
     <g id="line2d_9">
      <defs>
       <path id="me17b9c0a0a" d="M 0 0 
L -3.5 0 
" style="stroke: #000000; stroke-width: 0.8"/>
      </defs>
      <g>
       <use xlink:href="#me17b9c0a0a" x="50.87" y="213.58646" style="stroke: #000000; stroke-width: 0.8"/>
      </g>
     </g>
     <g id="text_10">
      <!-- 20 -->
      <g transform="translate(31.145 217.385679) scale(0.1 -0.1)">
       <use xlink:href="#DejaVuSans-32"/>
       <use xlink:href="#DejaVuSans-30" transform="translate(63.623047 0)"/>
      </g>
     </g>
    </g>
    <g id="ytick_2">
     <g id="line2d_10">
      <g>
       <use xlink:href="#me17b9c0a0a" x="50.87" y="172.539114" style="stroke: #000000; stroke-width: 0.8"/>
      </g>
     </g>
     <g id="text_11">
      <!-- 40 -->
      <g transform="translate(31.145 176.338333) scale(0.1 -0.1)">
       <use xlink:href="#DejaVuSans-34"/>
       <use xlink:href="#DejaVuSans-30" transform="translate(63.623047 0)"/>
      </g>
     </g>
    </g>
    <g id="ytick_3">
     <g id="line2d_11">
      <g>
       <use xlink:href="#me17b9c0a0a" x="50.87" y="131.491767" style="stroke: #000000; stroke-width: 0.8"/>
      </g>
     </g>
     <g id="text_12">
      <!-- 60 -->
      <g transform="translate(31.145 135.290986) scale(0.1 -0.1)">
       <use xlink:href="#DejaVuSans-36"/>
       <use xlink:href="#DejaVuSans-30" transform="translate(63.623047 0)"/>
      </g>
     </g>
    </g>
    <g id="ytick_4">
     <g id="line2d_12">
      <g>
       <use xlink:href="#me17b9c0a0a" x="50.87" y="90.444421" style="stroke: #000000; stroke-width: 0.8"/>
      </g>
     </g>
     <g id="text_13">
      <!-- 80 -->
      <g transform="translate(31.145 94.24364) scale(0.1 -0.1)">
       <defs>
        <path id="DejaVuSans-38" d="M 2034 2216 
Q 1584 2216 1326 1975 
Q 1069 1734 1069 1313 
Q 1069 891 1326 650 
Q 1584 409 2034 409 
Q 2484 409 2743 651 
Q 3003 894 3003 1313 
Q 3003 1734 2745 1975 
Q 2488 2216 2034 2216 
z
M 1403 2484 
Q 997 2584 770 2862 
Q 544 3141 544 3541 
Q 544 4100 942 4425 
Q 1341 4750 2034 4750 
Q 2731 4750 3128 4425 
Q 3525 4100 3525 3541 
Q 3525 3141 3298 2862 
Q 3072 2584 2669 2484 
Q 3125 2378 3379 2068 
Q 3634 1759 3634 1313 
Q 3634 634 3220 271 
Q 2806 -91 2034 -91 
Q 1263 -91 848 271 
Q 434 634 434 1313 
Q 434 1759 690 2068 
Q 947 2378 1403 2484 
z
M 1172 3481 
Q 1172 3119 1398 2916 
Q 1625 2713 2034 2713 
Q 2441 2713 2670 2916 
Q 2900 3119 2900 3481 
Q 2900 3844 2670 4047 
Q 2441 4250 2034 4250 
Q 1625 4250 1398 4047 
Q 1172 3844 1172 3481 
z
" transform="scale(0.015625)"/>
       </defs>
       <use xlink:href="#DejaVuSans-38"/>
       <use xlink:href="#DejaVuSans-30" transform="translate(63.623047 0)"/>
      </g>
     </g>
    </g>
    <g id="ytick_5">
     <g id="line2d_13">
      <g>
       <use xlink:href="#me17b9c0a0a" x="50.87" y="49.397074" style="stroke: #000000; stroke-width: 0.8"/>
      </g>
     </g>
     <g id="text_14">
      <!-- 100 -->
      <g transform="translate(24.7825 53.196293) scale(0.1 -0.1)">
       <use xlink:href="#DejaVuSans-31"/>
       <use xlink:href="#DejaVuSans-30" transform="translate(63.623047 0)"/>
       <use xlink:href="#DejaVuSans-30" transform="translate(127.246094 0)"/>
      </g>
     </g>
    </g>
    <g id="text_15">
     <!-- (Rel.) Buiten Vochtigheid (%) -->
     <g transform="translate(18.702813 208.620937) rotate(-90) scale(0.1 -0.1)">
      <defs>
       <path id="DejaVuSans-28" d="M 1984 4856 
Q 1566 4138 1362 3434 
Q 1159 2731 1159 2009 
Q 1159 1288 1364 580 
Q 1569 -128 1984 -844 
L 1484 -844 
Q 1016 -109 783 600 
Q 550 1309 550 2009 
Q 550 2706 781 3412 
Q 1013 4119 1484 4856 
L 1984 4856 
z
" transform="scale(0.015625)"/>
       <path id="DejaVuSans-52" d="M 2841 2188 
Q 3044 2119 3236 1894 
Q 3428 1669 3622 1275 
L 4263 0 
L 3584 0 
L 2988 1197 
Q 2756 1666 2539 1819 
Q 2322 1972 1947 1972 
L 1259 1972 
L 1259 0 
L 628 0 
L 628 4666 
L 2053 4666 
Q 2853 4666 3247 4331 
Q 3641 3997 3641 3322 
Q 3641 2881 3436 2590 
Q 3231 2300 2841 2188 
z
M 1259 4147 
L 1259 2491 
L 2053 2491 
Q 2509 2491 2742 2702 
Q 2975 2913 2975 3322 
Q 2975 3731 2742 3939 
Q 2509 4147 2053 4147 
L 1259 4147 
z
" transform="scale(0.015625)"/>
       <path id="DejaVuSans-65" d="M 3597 1894 
L 3597 1613 
L 953 1613 
Q 991 1019 1311 708 
Q 1631 397 2203 397 
Q 2534 397 2845 478 
Q 3156 559 3463 722 
L 3463 178 
Q 3153 47 2828 -22 
Q 2503 -91 2169 -91 
Q 1331 -91 842 396 
Q 353 884 353 1716 
Q 353 2575 817 3079 
Q 1281 3584 2069 3584 
Q 2775 3584 3186 3129 
Q 3597 2675 3597 1894 
z
M 3022 2063 
Q 3016 2534 2758 2815 
Q 2500 3097 2075 3097 
Q 1594 3097 1305 2825 
Q 1016 2553 972 2059 
L 3022 2063 
z
" transform="scale(0.015625)"/>
       <path id="DejaVuSans-6c" d="M 603 4863 
L 1178 4863 
L 1178 0 
L 603 0 
L 603 4863 
z
" transform="scale(0.015625)"/>
       <path id="DejaVuSans-2e" d="M 684 794 
L 1344 794 
L 1344 0 
L 684 0 
L 684 794 
z
" transform="scale(0.015625)"/>
       <path id="DejaVuSans-29" d="M 513 4856 
L 1013 4856 
Q 1481 4119 1714 3412 
Q 1947 2706 1947 2009 
Q 1947 1309 1714 600 
Q 1481 -109 1013 -844 
L 513 -844 
Q 928 -128 1133 580 
Q 1338 1288 1338 2009 
Q 1338 2731 1133 3434 
Q 928 4138 513 4856 
z
" transform="scale(0.015625)"/>
       <path id="DejaVuSans-42" d="M 1259 2228 
L 1259 519 
L 2272 519 
Q 2781 519 3026 730 
Q 3272 941 3272 1375 
Q 3272 1813 3026 2020 
Q 2781 2228 2272 2228 
L 1259 2228 
z
M 1259 4147 
L 1259 2741 
L 2194 2741 
Q 2656 2741 2882 2914 
Q 3109 3088 3109 3444 
Q 3109 3797 2882 3972 
Q 2656 4147 2194 4147 
L 1259 4147 
z
M 628 4666 
L 2241 4666 
Q 2963 4666 3353 4366 
Q 3744 4066 3744 3513 
Q 3744 3084 3544 2831 
Q 3344 2578 2956 2516 
Q 3422 2416 3680 2098 
Q 3938 1781 3938 1306 
Q 3938 681 3513 340 
Q 3088 0 2303 0 
L 628 0 
L 628 4666 
z
" transform="scale(0.015625)"/>
       <path id="DejaVuSans-75" d="M 544 1381 
L 544 3500 
L 1119 3500 
L 1119 1403 
Q 1119 906 1312 657 
Q 1506 409 1894 409 
Q 2359 409 2629 706 
Q 2900 1003 2900 1516 
L 2900 3500 
L 3475 3500 
L 3475 0 
L 2900 0 
L 2900 538 
Q 2691 219 2414 64 
Q 2138 -91 1772 -91 
Q 1169 -91 856 284 
Q 544 659 544 1381 
z
M 1991 3584 
L 1991 3584 
z
" transform="scale(0.015625)"/>
       <path id="DejaVuSans-74" d="M 1172 4494 
L 1172 3500 
L 2356 3500 
L 2356 3053 
L 1172 3053 
L 1172 1153 
Q 1172 725 1289 603 
Q 1406 481 1766 481 
L 2356 481 
L 2356 0 
L 1766 0 
Q 1100 0 847 248 
Q 594 497 594 1153 
L 594 3053 
L 172 3053 
L 172 3500 
L 594 3500 
L 594 4494 
L 1172 4494 
z
" transform="scale(0.015625)"/>
       <path id="DejaVuSans-6e" d="M 3513 2113 
L 3513 0 
L 2938 0 
L 2938 2094 
Q 2938 2591 2744 2837 
Q 2550 3084 2163 3084 
Q 1697 3084 1428 2787 
Q 1159 2491 1159 1978 
L 1159 0 
L 581 0 
L 581 3500 
L 1159 3500 
L 1159 2956 
Q 1366 3272 1645 3428 
Q 1925 3584 2291 3584 
Q 2894 3584 3203 3211 
Q 3513 2838 3513 2113 
z
" transform="scale(0.015625)"/>
       <path id="DejaVuSans-56" d="M 1831 0 
L 50 4666 
L 709 4666 
L 2188 738 
L 3669 4666 
L 4325 4666 
L 2547 0 
L 1831 0 
z
" transform="scale(0.015625)"/>
       <path id="DejaVuSans-6f" d="M 1959 3097 
Q 1497 3097 1228 2736 
Q 959 2375 959 1747 
Q 959 1119 1226 758 
Q 1494 397 1959 397 
Q 2419 397 2687 759 
Q 2956 1122 2956 1747 
Q 2956 2369 2687 2733 
Q 2419 3097 1959 3097 
z
M 1959 3584 
Q 2709 3584 3137 3096 
Q 3566 2609 3566 1747 
Q 3566 888 3137 398 
Q 2709 -91 1959 -91 
Q 1206 -91 779 398 
Q 353 888 353 1747 
Q 353 2609 779 3096 
Q 1206 3584 1959 3584 
z
" transform="scale(0.015625)"/>
       <path id="DejaVuSans-63" d="M 3122 3366 
L 3122 2828 
Q 2878 2963 2633 3030 
Q 2388 3097 2138 3097 
Q 1578 3097 1268 2742 
Q 959 2388 959 1747 
Q 959 1106 1268 751 
Q 1578 397 2138 397 
Q 2388 397 2633 464 
Q 2878 531 3122 666 
L 3122 134 
Q 2881 22 2623 -34 
Q 2366 -91 2075 -91 
Q 1284 -91 818 406 
Q 353 903 353 1747 
Q 353 2603 823 3093 
Q 1294 3584 2113 3584 
Q 2378 3584 2631 3529 
Q 2884 3475 3122 3366 
z
" transform="scale(0.015625)"/>
       <path id="DejaVuSans-68" d="M 3513 2113 
L 3513 0 
L 2938 0 
L 2938 2094 
Q 2938 2591 2744 2837 
Q 2550 3084 2163 3084 
Q 1697 3084 1428 2787 
Q 1159 2491 1159 1978 
L 1159 0 
L 581 0 
L 581 4863 
L 1159 4863 
L 1159 2956 
Q 1366 3272 1645 3428 
Q 1925 3584 2291 3584 
Q 2894 3584 3203 3211 
Q 3513 2838 3513 2113 
z
" transform="scale(0.015625)"/>
       <path id="DejaVuSans-67" d="M 2906 1791 
Q 2906 2416 2648 2759 
Q 2391 3103 1925 3103 
Q 1463 3103 1205 2759 
Q 947 2416 947 1791 
Q 947 1169 1205 825 
Q 1463 481 1925 481 
Q 2391 481 2648 825 
Q 2906 1169 2906 1791 
z
M 3481 434 
Q 3481 -459 3084 -895 
Q 2688 -1331 1869 -1331 
Q 1566 -1331 1297 -1286 
Q 1028 -1241 775 -1147 
L 775 -588 
Q 1028 -725 1275 -790 
Q 1522 -856 1778 -856 
Q 2344 -856 2625 -561 
Q 2906 -266 2906 331 
L 2906 616 
Q 2728 306 2450 153 
Q 2172 0 1784 0 
Q 1141 0 747 490 
Q 353 981 353 1791 
Q 353 2603 747 3093 
Q 1141 3584 1784 3584 
Q 2172 3584 2450 3431 
Q 2728 3278 2906 2969 
L 2906 3500 
L 3481 3500 
L 3481 434 
z
" transform="scale(0.015625)"/>
       <path id="DejaVuSans-25" d="M 4653 2053 
Q 4381 2053 4226 1822 
Q 4072 1591 4072 1178 
Q 4072 772 4226 539 
Q 4381 306 4653 306 
Q 4919 306 5073 539 
Q 5228 772 5228 1178 
Q 5228 1588 5073 1820 
Q 4919 2053 4653 2053 
z
M 4653 2450 
Q 5147 2450 5437 2106 
Q 5728 1763 5728 1178 
Q 5728 594 5436 251 
Q 5144 -91 4653 -91 
Q 4153 -91 3862 251 
Q 3572 594 3572 1178 
Q 3572 1766 3864 2108 
Q 4156 2450 4653 2450 
z
M 1428 4353 
Q 1159 4353 1004 4120 
Q 850 3888 850 3481 
Q 850 3069 1003 2837 
Q 1156 2606 1428 2606 
Q 1700 2606 1854 2837 
Q 2009 3069 2009 3481 
Q 2009 3884 1853 4118 
Q 1697 4353 1428 4353 
z
M 4250 4750 
L 4750 4750 
L 1831 -91 
L 1331 -91 
L 4250 4750 
z
M 1428 4750 
Q 1922 4750 2215 4408 
Q 2509 4066 2509 3481 
Q 2509 2891 2217 2550 
Q 1925 2209 1428 2209 
Q 931 2209 642 2551 
Q 353 2894 353 3481 
Q 353 4063 643 4406 
Q 934 4750 1428 4750 
z
" transform="scale(0.015625)"/>
      </defs>
      <use xlink:href="#DejaVuSans-28"/>
      <use xlink:href="#DejaVuSans-52" transform="translate(39.013672 0)"/>
      <use xlink:href="#DejaVuSans-65" transform="translate(103.996094 0)"/>
      <use xlink:href="#DejaVuSans-6c" transform="translate(165.519531 0)"/>
      <use xlink:href="#DejaVuSans-2e" transform="translate(193.302734 0)"/>
      <use xlink:href="#DejaVuSans-29" transform="translate(225.089844 0)"/>
      <use xlink:href="#DejaVuSans-20" transform="translate(264.103516 0)"/>
      <use xlink:href="#DejaVuSans-42" transform="translate(295.890625 0)"/>
      <use xlink:href="#DejaVuSans-75" transform="translate(364.494141 0)"/>
      <use xlink:href="#DejaVuSans-69" transform="translate(427.873047 0)"/>
      <use xlink:href="#DejaVuSans-74" transform="translate(455.65625 0)"/>
      <use xlink:href="#DejaVuSans-65" transform="translate(494.865234 0)"/>
      <use xlink:href="#DejaVuSans-6e" transform="translate(556.388672 0)"/>
      <use xlink:href="#DejaVuSans-20" transform="translate(619.767578 0)"/>
      <use xlink:href="#DejaVuSans-56" transform="translate(651.554688 0)"/>
      <use xlink:href="#DejaVuSans-6f" transform="translate(712.212891 0)"/>
      <use xlink:href="#DejaVuSans-63" transform="translate(773.394531 0)"/>
      <use xlink:href="#DejaVuSans-68" transform="translate(828.375 0)"/>
      <use xlink:href="#DejaVuSans-74" transform="translate(891.753906 0)"/>
      <use xlink:href="#DejaVuSans-69" transform="translate(930.962891 0)"/>
      <use xlink:href="#DejaVuSans-67" transform="translate(958.746094 0)"/>
      <use xlink:href="#DejaVuSans-68" transform="translate(1022.222656 0)"/>
      <use xlink:href="#DejaVuSans-65" transform="translate(1085.601562 0)"/>
      <use xlink:href="#DejaVuSans-69" transform="translate(1147.125 0)"/>
      <use xlink:href="#DejaVuSans-64" transform="translate(1174.908203 0)"/>
      <use xlink:href="#DejaVuSans-20" transform="translate(1238.384766 0)"/>
      <use xlink:href="#DejaVuSans-28" transform="translate(1270.171875 0)"/>
      <use xlink:href="#DejaVuSans-25" transform="translate(1309.185547 0)"/>
      <use xlink:href="#DejaVuSans-29" transform="translate(1404.205078 0)"/>
     </g>
    </g>
   </g>
   <g id="line2d_14">
    <path d="M 80.794091 99.474837 
L 84.356483 98.517066 
L 91.481266 99.166982 
L 95.043658 99.88531 
L 98.60605 103.032274 
L 102.168442 102.484976 
L 105.730833 92.770437 
L 109.293225 84.697792 
L 112.855617 75.256903 
L 116.418009 70.673282 
L 119.9804 69.099801 
L 123.542792 68.347266 
L 127.105184 69.647099 
L 130.667576 75.530552 
L 134.229968 83.329547 
L 137.792359 85.997625 
L 141.354751 92.291551 
L 144.917143 99.2696 
L 148.479535 100.501021 
L 152.041926 98.448653 
L 155.604318 121.024694 
L 159.16671 116.919959 
L 162.729102 123.555947 
L 166.291494 116.099012 
L 169.853885 95.267484 
L 173.416277 111.925865 
L 176.978669 109.736674 
L 180.541061 105.700351 
L 184.103452 100.193166 
L 187.665844 95.780576 
L 191.228236 93.522972 
L 194.790628 89.007764 
L 201.915411 83.671609 
L 205.477803 81.311386 
L 209.040195 79.874729 
L 212.602587 79.1564 
L 216.164978 78.061805 
L 219.72737 77.719743 
L 223.289762 75.530552 
L 226.852154 76.283086 
L 230.414545 76.385705 
L 233.976937 76.146262 
L 237.539329 75.735788 
L 248.226504 75.256903 
L 251.788896 74.846429 
L 255.351288 73.067711 
L 258.91368 70.946931 
L 262.476071 70.946931 
L 266.038463 73.922864 
L 269.600855 83.055898 
L 273.163247 88.289435 
L 276.725639 95.506927 
L 280.28803 100.808876 
L 283.850422 101.014113 
L 287.412814 97.490882 
L 290.975206 96.327874 
L 294.537597 107.342245 
L 298.099989 107.957955 
L 301.662381 134.228257 
L 305.224773 144.968979 
L 308.787165 136.554273 
L 312.349556 130.944469 
L 315.911948 135.049204 
L 319.47434 125.129429 
L 323.036732 124.718955 
L 326.599123 111.036506 
L 330.161515 102.758625 
L 333.723907 96.396286 
L 337.286299 99.406425 
L 340.84869 93.933445 
L 344.411082 101.732441 
L 347.973474 105.529321 
L 351.535866 105.905588 
L 355.098258 107.547482 
L 358.660649 112.609988 
L 362.223041 111.481186 
L 365.785433 108.09478 
L 369.347825 105.118847 
L 372.910216 101.424586 
L 376.472608 98.346035 
L 380.035 97.627706 
L 383.597392 95.985813 
L 387.159784 94.857011 
L 390.722175 94.343919 
L 394.284567 90.239184 
L 397.846959 89.315619 
L 401.409351 85.313502 
L 415.658918 80.900913 
L 419.22131 80.387821 
L 422.783701 80.593058 
L 426.346093 81.414005 
L 429.908485 83.534784 
L 433.470877 86.237068 
L 437.033268 90.854894 
L 440.59566 98.551272 
L 444.158052 107.47907 
L 447.720444 109.94191 
L 451.282835 109.120963 
L 454.845227 110.660239 
L 458.407619 111.857453 
L 461.970011 118.835502 
L 465.532403 120.956282 
L 469.094794 136.006975 
L 472.657186 147.842294 
L 476.219578 172.539114 
L 479.78197 178.285742 
L 483.344361 174.181008 
L 486.906753 181.501118 
L 490.469145 193.678497 
L 501.15632 172.949587 
L 504.718712 170.555159 
L 508.281104 166.587249 
L 511.843496 170.794602 
L 518.968279 162.687751 
L 522.530671 166.689867 
L 526.093063 163.371873 
L 529.655455 156.530649 
L 533.217846 154.170426 
L 536.780238 149.142126 
L 540.34263 145.960957 
L 543.905022 142.027253 
L 547.467413 139.153939 
L 551.029805 137.238396 
L 554.592197 135.69912 
L 561.716981 131.286531 
L 565.279372 128.139567 
L 568.841764 124.650543 
L 572.404156 121.845641 
L 575.966548 116.509486 
L 579.528939 110.147147 
L 583.091331 109.052551 
L 586.653723 109.531437 
L 590.216115 107.171214 
L 593.778506 106.863359 
L 597.340898 104.12687 
L 600.90329 103.990045 
L 604.465682 110.489208 
L 608.028074 113.328316 
L 611.590465 124.718955 
L 615.152857 132.17589 
L 618.715249 133.954608 
L 629.402424 139.906473 
L 632.964816 144.011208 
L 636.527208 144.832155 
L 640.0896 151.947028 
L 643.651991 160.909032 
L 650.776775 202.503677 
L 654.339167 204.624456 
L 657.901558 202.435265 
L 661.46395 201.203844 
L 665.026342 199.493538 
L 668.588734 185.879501 
L 672.151126 174.523069 
L 675.713517 180.748583 
L 679.275909 184.853318 
L 679.275909 184.853318 
" clip-path="url(#pf99df35756)" style="fill: none; stroke: #1f77b4; stroke-width: 2; stroke-linecap: square"/>
   </g>
   <g id="line2d_15">
    <path d="M 80.794091 83.39796 
L 84.356483 86.984716 
L 87.918874 91.33378 
L 91.481266 95.150206 
L 95.043658 98.316715 
L 98.60605 101.823657 
L 102.168442 98.460055 
L 105.730833 101.435988 
L 109.293225 103.032274 
L 112.855617 103.773406 
L 116.418009 107.606121 
L 119.9804 103.706623 
L 123.542792 106.208556 
L 127.105184 105.553754 
L 130.667576 106.716762 
L 134.229968 106.355154 
L 137.792359 102.514295 
L 141.354751 100.481474 
L 144.917143 99.191415 
L 148.479535 95.927173 
L 152.041926 93.542518 
L 155.604318 94.226641 
L 159.16671 90.825575 
L 162.729102 89.85803 
L 166.291494 87.492921 
L 169.853885 83.334434 
L 173.416277 83.021692 
L 176.978669 81.72186 
L 180.541061 81.712086 
L 184.103452 80.177698 
L 187.665844 78.892525 
L 191.228236 77.377682 
L 194.790628 76.517642 
L 201.915411 75.129851 
L 205.477803 74.294245 
L 209.040195 74.059688 
L 212.602587 76.06319 
L 216.164978 79.112421 
L 219.72737 80.171182 
L 223.289762 87.844755 
L 226.852154 91.475491 
L 230.414545 96.137297 
L 233.976937 99.139617 
L 237.539329 102.779148 
L 241.101721 113.105977 
L 244.664113 116.08761 
L 248.226504 129.234163 
L 251.788896 121.73162 
L 255.351288 125.961778 
L 258.91368 127.400715 
L 262.476071 142.614458 
L 266.038463 146.112441 
L 269.600855 147.665562 
L 273.163247 150.567381 
L 276.725639 144.775145 
L 280.28803 150.827999 
L 283.850422 150.974597 
L 287.412814 155.037796 
L 290.975206 154.214406 
L 294.537597 153.080717 
L 298.099989 148.575282 
L 301.662381 147.451367 
L 305.224773 141.431089 
L 308.787165 136.173119 
L 312.349556 130.446037 
L 315.911948 128.110248 
L 319.47434 121.28857 
L 323.036732 117.222928 
L 326.599123 111.63267 
L 330.161515 103.853221 
L 333.723907 100.250176 
L 337.286299 101.56141 
L 340.84869 98.521952 
L 344.411082 98.433994 
L 347.973474 97.945335 
L 351.535866 96.767667 
L 355.098258 95.267484 
L 358.660649 94.690867 
L 365.785433 93.132045 
L 369.347825 92.120521 
L 372.910216 88.431961 
L 376.472608 90.850008 
L 380.035 91.553676 
L 383.597392 92.506561 
L 387.159784 94.490516 
L 390.722175 97.256326 
L 394.284567 98.859127 
L 397.846959 103.462294 
L 401.409351 106.941545 
L 404.971742 117.860628 
L 408.534134 118.126947 
L 412.096526 123.805163 
L 415.658918 129.796121 
L 419.22131 138.484476 
L 422.783701 141.890428 
L 426.346093 147.43182 
L 429.908485 151.282452 
L 433.470877 158.138336 
L 437.033268 163.811666 
L 440.59566 166.846238 
L 444.158052 167.437515 
L 447.720444 165.961765 
L 451.282835 166.132796 
L 454.845227 171.371219 
L 458.407619 171.962496 
L 461.970011 171.151323 
L 465.532403 167.935947 
L 469.094794 166.460197 
L 472.657186 166.264734 
L 476.219578 163.909398 
L 479.78197 162.384782 
L 483.344361 157.850028 
L 486.906753 155.348094 
L 490.469145 153.598695 
L 494.031537 138.401404 
L 497.593929 133.332057 
L 501.15632 137.626065 
L 504.718712 134.790215 
L 508.281104 130.314099 
L 511.843496 128.799257 
L 518.968279 121.371642 
L 522.530671 119.816078 
L 526.093063 116.695176 
L 529.655455 113.357636 
L 533.217846 109.682921 
L 536.780238 107.47907 
L 540.34263 105.842062 
L 543.905022 103.985159 
L 547.467413 103.076253 
L 551.029805 100.911494 
L 554.592197 101.747101 
L 558.154589 101.717781 
L 561.716981 105.065095 
L 565.279372 106.926885 
L 568.841764 109.487458 
L 572.404156 114.188356 
L 575.966548 120.741272 
L 579.528939 126.771322 
L 583.091331 131.198572 
L 586.653723 134.22337 
L 590.216115 132.879559 
L 593.778506 141.128121 
L 597.340898 147.236357 
L 600.90329 149.376683 
L 604.465682 155.445826 
L 611.590465 161.690072 
L 615.152857 163.805151 
L 618.715249 158.999191 
L 622.277641 171.187972 
L 625.840032 175.728835 
L 629.402424 139.906473 
L 632.964816 144.011208 
L 636.527208 144.832155 
L 640.0896 151.947028 
L 643.651991 160.909032 
L 650.776775 202.503677 
L 654.339167 204.624456 
L 657.901558 202.435265 
L 661.46395 201.203844 
L 665.026342 199.493538 
L 668.588734 185.879501 
L 672.151126 174.523069 
L 675.713517 180.748583 
L 679.275909 184.853318 
L 679.275909 184.853318 
" clip-path="url(#pf99df35756)" style="fill: none; stroke-dasharray: 5.55,2.4; stroke-dashoffset: 0; stroke: #808080; stroke-width: 1.5"/>
   </g>
   <g id="patch_3">
    <path d="M 50.87 246.04 
L 50.87 26.88 
" style="fill: none; stroke: #000000; stroke-width: 0.8; stroke-linejoin: miter; stroke-linecap: square"/>
   </g>
   <g id="patch_4">
    <path d="M 709.2 246.04 
L 709.2 26.88 
" style="fill: none; stroke: #000000; stroke-width: 0.8; stroke-linejoin: miter; stroke-linecap: square"/>
   </g>
   <g id="patch_5">
    <path d="M 50.87 246.04 
L 709.2 246.04 
" style="fill: none; stroke: #000000; stroke-width: 0.8; stroke-linejoin: miter; stroke-linecap: square"/>
   </g>
   <g id="patch_6">
    <path d="M 50.87 26.88 
L 709.2 26.88 
" style="fill: none; stroke: #000000; stroke-width: 0.8; stroke-linejoin: miter; stroke-linecap: square"/>
   </g>
   <g id="text_16">
    <!-- Luchtvochtigheid - v001/c00002/d001 -->
    <g transform="translate(265.745313 20.88) scale(0.12 -0.12)">
     <defs>
      <path id="DejaVuSans-4c" d="M 628 4666 
L 1259 4666 
L 1259 531 
L 3531 531 
L 3531 0 
L 628 0 
L 628 4666 
z
" transform="scale(0.015625)"/>
      <path id="DejaVuSans-76" d="M 191 3500 
L 800 3500 
L 1894 563 
L 2988 3500 
L 3597 3500 
L 2284 0 
L 1503 0 
L 191 3500 
z
" transform="scale(0.015625)"/>
      <path id="DejaVuSans-2f" d="M 1625 4666 
L 2156 4666 
L 531 -594 
L 0 -594 
L 1625 4666 
z
" transform="scale(0.015625)"/>
     </defs>
     <use xlink:href="#DejaVuSans-4c"/>
     <use xlink:href="#DejaVuSans-75" transform="translate(53.962891 0)"/>
     <use xlink:href="#DejaVuSans-63" transform="translate(117.341797 0)"/>
     <use xlink:href="#DejaVuSans-68" transform="translate(172.322266 0)"/>
     <use xlink:href="#DejaVuSans-74" transform="translate(235.701172 0)"/>
     <use xlink:href="#DejaVuSans-76" transform="translate(274.910156 0)"/>
     <use xlink:href="#DejaVuSans-6f" transform="translate(334.089844 0)"/>
     <use xlink:href="#DejaVuSans-63" transform="translate(395.271484 0)"/>
     <use xlink:href="#DejaVuSans-68" transform="translate(450.251953 0)"/>
     <use xlink:href="#DejaVuSans-74" transform="translate(513.630859 0)"/>
     <use xlink:href="#DejaVuSans-69" transform="translate(552.839844 0)"/>
     <use xlink:href="#DejaVuSans-67" transform="translate(580.623047 0)"/>
     <use xlink:href="#DejaVuSans-68" transform="translate(644.099609 0)"/>
     <use xlink:href="#DejaVuSans-65" transform="translate(707.478516 0)"/>
     <use xlink:href="#DejaVuSans-69" transform="translate(769.001953 0)"/>
     <use xlink:href="#DejaVuSans-64" transform="translate(796.785156 0)"/>
     <use xlink:href="#DejaVuSans-20" transform="translate(860.261719 0)"/>
     <use xlink:href="#DejaVuSans-2d" transform="translate(892.048828 0)"/>
     <use xlink:href="#DejaVuSans-20" transform="translate(928.132812 0)"/>
     <use xlink:href="#DejaVuSans-76" transform="translate(959.919922 0)"/>
     <use xlink:href="#DejaVuSans-30" transform="translate(1019.099609 0)"/>
     <use xlink:href="#DejaVuSans-30" transform="translate(1082.722656 0)"/>
     <use xlink:href="#DejaVuSans-31" transform="translate(1146.345703 0)"/>
     <use xlink:href="#DejaVuSans-2f" transform="translate(1209.96875 0)"/>
     <use xlink:href="#DejaVuSans-63" transform="translate(1243.660156 0)"/>
     <use xlink:href="#DejaVuSans-30" transform="translate(1298.640625 0)"/>
     <use xlink:href="#DejaVuSans-30" transform="translate(1362.263672 0)"/>
     <use xlink:href="#DejaVuSans-30" transform="translate(1425.886719 0)"/>
     <use xlink:href="#DejaVuSans-30" transform="translate(1489.509766 0)"/>
     <use xlink:href="#DejaVuSans-32" transform="translate(1553.132812 0)"/>
     <use xlink:href="#DejaVuSans-2f" transform="translate(1616.755859 0)"/>
     <use xlink:href="#DejaVuSans-64" transform="translate(1650.447266 0)"/>
     <use xlink:href="#DejaVuSans-30" transform="translate(1713.923828 0)"/>
     <use xlink:href="#DejaVuSans-30" transform="translate(1777.546875 0)"/>
     <use xlink:href="#DejaVuSans-31" transform="translate(1841.169922 0)"/>
    </g>
   </g>
   <g id="legend_1">
    <g id="patch_7">
     <path d="M 57.87 241.04 
L 208.81375 241.04 
Q 210.81375 241.04 210.81375 239.04 
L 210.81375 196.005625 
Q 210.81375 194.005625 208.81375 194.005625 
L 57.87 194.005625 
Q 55.87 194.005625 55.87 196.005625 
L 55.87 239.04 
Q 55.87 241.04 57.87 241.04 
z
" style="fill: #ffffff; opacity: 0.8; stroke: #cccccc; stroke-linejoin: miter"/>
    </g>
    <g id="line2d_16">
     <path d="M 59.87 202.104062 
L 69.87 202.104062 
L 79.87 202.104062 
" style="fill: none; stroke: #1f77b4; stroke-width: 2; stroke-linecap: square"/>
    </g>
    <g id="text_17">
     <!-- Hive -->
     <g transform="translate(87.87 205.604062) scale(0.1 -0.1)">
      <defs>
       <path id="DejaVuSans-48" d="M 628 4666 
L 1259 4666 
L 1259 2753 
L 3553 2753 
L 3553 4666 
L 4184 4666 
L 4184 0 
L 3553 0 
L 3553 2222 
L 1259 2222 
L 1259 0 
L 628 0 
L 628 4666 
z
" transform="scale(0.015625)"/>
      </defs>
      <use xlink:href="#DejaVuSans-48"/>
      <use xlink:href="#DejaVuSans-69" transform="translate(75.195312 0)"/>
      <use xlink:href="#DejaVuSans-76" transform="translate(102.978516 0)"/>
      <use xlink:href="#DejaVuSans-65" transform="translate(162.158203 0)"/>
     </g>
    </g>
    <g id="line2d_17">
     <path d="M 59.87 216.782187 
L 69.87 216.782187 
L 79.87 216.782187 
" style="fill: none; stroke-dasharray: 5.55,2.4; stroke-dashoffset: 0; stroke: #808080; stroke-width: 1.5"/>
    </g>
    <g id="text_18">
     <!-- Gemiddelde (alle hives) -->
     <g transform="translate(87.87 220.282187) scale(0.1 -0.1)">
      <defs>
       <path id="DejaVuSans-47" d="M 3809 666 
L 3809 1919 
L 2778 1919 
L 2778 2438 
L 4434 2438 
L 4434 434 
Q 4069 175 3628 42 
Q 3188 -91 2688 -91 
Q 1594 -91 976 548 
Q 359 1188 359 2328 
Q 359 3472 976 4111 
Q 1594 4750 2688 4750 
Q 3144 4750 3555 4637 
Q 3966 4525 4313 4306 
L 4313 3634 
Q 3963 3931 3569 4081 
Q 3175 4231 2741 4231 
Q 1884 4231 1454 3753 
Q 1025 3275 1025 2328 
Q 1025 1384 1454 906 
Q 1884 428 2741 428 
Q 3075 428 3337 486 
Q 3600 544 3809 666 
z
" transform="scale(0.015625)"/>
       <path id="DejaVuSans-6d" d="M 3328 2828 
Q 3544 3216 3844 3400 
Q 4144 3584 4550 3584 
Q 5097 3584 5394 3201 
Q 5691 2819 5691 2113 
L 5691 0 
L 5113 0 
L 5113 2094 
Q 5113 2597 4934 2840 
Q 4756 3084 4391 3084 
Q 3944 3084 3684 2787 
Q 3425 2491 3425 1978 
L 3425 0 
L 2847 0 
L 2847 2094 
Q 2847 2600 2669 2842 
Q 2491 3084 2119 3084 
Q 1678 3084 1418 2786 
Q 1159 2488 1159 1978 
L 1159 0 
L 581 0 
L 581 3500 
L 1159 3500 
L 1159 2956 
Q 1356 3278 1631 3431 
Q 1906 3584 2284 3584 
Q 2666 3584 2933 3390 
Q 3200 3197 3328 2828 
z
" transform="scale(0.015625)"/>
       <path id="DejaVuSans-61" d="M 2194 1759 
Q 1497 1759 1228 1600 
Q 959 1441 959 1056 
Q 959 750 1161 570 
Q 1363 391 1709 391 
Q 2188 391 2477 730 
Q 2766 1069 2766 1631 
L 2766 1759 
L 2194 1759 
z
M 3341 1997 
L 3341 0 
L 2766 0 
L 2766 531 
Q 2569 213 2275 61 
Q 1981 -91 1556 -91 
Q 1019 -91 701 211 
Q 384 513 384 1019 
Q 384 1609 779 1909 
Q 1175 2209 1959 2209 
L 2766 2209 
L 2766 2266 
Q 2766 2663 2505 2880 
Q 2244 3097 1772 3097 
Q 1472 3097 1187 3025 
Q 903 2953 641 2809 
L 641 3341 
Q 956 3463 1253 3523 
Q 1550 3584 1831 3584 
Q 2591 3584 2966 3190 
Q 3341 2797 3341 1997 
z
" transform="scale(0.015625)"/>
       <path id="DejaVuSans-73" d="M 2834 3397 
L 2834 2853 
Q 2591 2978 2328 3040 
Q 2066 3103 1784 3103 
Q 1356 3103 1142 2972 
Q 928 2841 928 2578 
Q 928 2378 1081 2264 
Q 1234 2150 1697 2047 
L 1894 2003 
Q 2506 1872 2764 1633 
Q 3022 1394 3022 966 
Q 3022 478 2636 193 
Q 2250 -91 1575 -91 
Q 1294 -91 989 -36 
Q 684 19 347 128 
L 347 722 
Q 666 556 975 473 
Q 1284 391 1588 391 
Q 1994 391 2212 530 
Q 2431 669 2431 922 
Q 2431 1156 2273 1281 
Q 2116 1406 1581 1522 
L 1381 1569 
Q 847 1681 609 1914 
Q 372 2147 372 2553 
Q 372 3047 722 3315 
Q 1072 3584 1716 3584 
Q 2034 3584 2315 3537 
Q 2597 3491 2834 3397 
z
" transform="scale(0.015625)"/>
      </defs>
      <use xlink:href="#DejaVuSans-47"/>
      <use xlink:href="#DejaVuSans-65" transform="translate(77.490234 0)"/>
      <use xlink:href="#DejaVuSans-6d" transform="translate(139.013672 0)"/>
      <use xlink:href="#DejaVuSans-69" transform="translate(236.425781 0)"/>
      <use xlink:href="#DejaVuSans-64" transform="translate(264.208984 0)"/>
      <use xlink:href="#DejaVuSans-64" transform="translate(327.685547 0)"/>
      <use xlink:href="#DejaVuSans-65" transform="translate(391.162109 0)"/>
      <use xlink:href="#DejaVuSans-6c" transform="translate(452.685547 0)"/>
      <use xlink:href="#DejaVuSans-64" transform="translate(480.46875 0)"/>
      <use xlink:href="#DejaVuSans-65" transform="translate(543.945312 0)"/>
      <use xlink:href="#DejaVuSans-20" transform="translate(605.46875 0)"/>
      <use xlink:href="#DejaVuSans-28" transform="translate(637.255859 0)"/>
      <use xlink:href="#DejaVuSans-61" transform="translate(676.269531 0)"/>
      <use xlink:href="#DejaVuSans-6c" transform="translate(737.548828 0)"/>
      <use xlink:href="#DejaVuSans-6c" transform="translate(765.332031 0)"/>
      <use xlink:href="#DejaVuSans-65" transform="translate(793.115234 0)"/>
      <use xlink:href="#DejaVuSans-20" transform="translate(854.638672 0)"/>
      <use xlink:href="#DejaVuSans-68" transform="translate(886.425781 0)"/>
      <use xlink:href="#DejaVuSans-69" transform="translate(949.804688 0)"/>
      <use xlink:href="#DejaVuSans-76" transform="translate(977.587891 0)"/>
      <use xlink:href="#DejaVuSans-65" transform="translate(1036.767578 0)"/>
      <use xlink:href="#DejaVuSans-73" transform="translate(1098.291016 0)"/>
      <use xlink:href="#DejaVuSans-29" transform="translate(1150.390625 0)"/>
     </g>
    </g>
    <g id="patch_8">
     <path d="M 59.87 234.960312 
L 79.87 234.960312 
L 79.87 227.960312 
L 59.87 227.960312 
z
" style="fill: #808080; fill-opacity: 0.2; stroke: #808080; stroke-opacity: 0.2; stroke-linejoin: miter"/>
    </g>
    <g id="text_19">
     <!-- 2 Std Dev -->
     <g transform="translate(87.87 234.960312) scale(0.1 -0.1)">
      <defs>
       <path id="DejaVuSans-b1" d="M 2944 4013 
L 2944 2803 
L 4684 2803 
L 4684 2272 
L 2944 2272 
L 2944 1063 
L 2419 1063 
L 2419 2272 
L 678 2272 
L 678 2803 
L 2419 2803 
L 2419 4013 
L 2944 4013 
z
M 678 531 
L 4684 531 
L 4684 0 
L 678 0 
L 678 531 
z
" transform="scale(0.015625)"/>
       <path id="DejaVuSans-53" d="M 3425 4513 
L 3425 3897 
Q 3066 4069 2747 4153 
Q 2428 4238 2131 4238 
Q 1616 4238 1336 4038 
Q 1056 3838 1056 3469 
Q 1056 3159 1242 3001 
Q 1428 2844 1947 2747 
L 2328 2669 
Q 3034 2534 3370 2195 
Q 3706 1856 3706 1288 
Q 3706 609 3251 259 
Q 2797 -91 1919 -91 
Q 1588 -91 1214 -16 
Q 841 59 441 206 
L 441 856 
Q 825 641 1194 531 
Q 1563 422 1919 422 
Q 2459 422 2753 634 
Q 3047 847 3047 1241 
Q 3047 1584 2836 1778 
Q 2625 1972 2144 2069 
L 1759 2144 
Q 1053 2284 737 2584 
Q 422 2884 422 3419 
Q 422 4038 858 4394 
Q 1294 4750 2059 4750 
Q 2388 4750 2728 4690 
Q 3069 4631 3425 4513 
z
" transform="scale(0.015625)"/>
       <path id="DejaVuSans-44" d="M 1259 4147 
L 1259 519 
L 2022 519 
Q 2988 519 3436 956 
Q 3884 1394 3884 2338 
Q 3884 3275 3436 3711 
Q 2988 4147 2022 4147 
L 1259 4147 
z
M 628 4666 
L 1925 4666 
Q 3281 4666 3915 4102 
Q 4550 3538 4550 2338 
Q 4550 1131 3912 565 
Q 3275 0 1925 0 
L 628 0 
L 628 4666 
z
" transform="scale(0.015625)"/>
      </defs>
      <use xlink:href="#DejaVuSans-b1"/>
      <use xlink:href="#DejaVuSans-32" transform="translate(83.789062 0)"/>
      <use xlink:href="#DejaVuSans-20" transform="translate(147.412109 0)"/>
      <use xlink:href="#DejaVuSans-53" transform="translate(179.199219 0)"/>
      <use xlink:href="#DejaVuSans-74" transform="translate(242.675781 0)"/>
      <use xlink:href="#DejaVuSans-64" transform="translate(281.884766 0)"/>
      <use xlink:href="#DejaVuSans-20" transform="translate(345.361328 0)"/>
      <use xlink:href="#DejaVuSans-44" transform="translate(377.148438 0)"/>
      <use xlink:href="#DejaVuSans-65" transform="translate(454.150391 0)"/>
      <use xlink:href="#DejaVuSans-76" transform="translate(515.673828 0)"/>
     </g>
    </g>
   </g>
  </g>
 </g>
 <defs>
  <clipPath id="pf99df35756">
   <rect x="50.87" y="26.88" width="658.33" height="219.16"/>
  </clipPath>
 </defs>
</svg>
