<?xml version="1.0" encoding="utf-8" standalone="no"?>
<!DOCTYPE svg PUBLIC "-//W3C//DTD SVG 1.1//EN"
  "http://www.w3.org/Graphics/SVG/1.1/DTD/svg11.dtd">
<svg xmlns:xlink="http://www.w3.org/1999/xlink" width="720pt" height="288pt" viewBox="0 0 720 288" xmlns="http://www.w3.org/2000/svg" version="1.1">
 <metadata>
  <rdf:RDF xmlns:dc="http://purl.org/dc/elements/1.1/" xmlns:cc="http://creativecommons.org/ns#" xmlns:rdf="http://www.w3.org/1999/02/22-rdf-syntax-ns#">
   <cc:Work>
    <dc:type rdf:resource="http://purl.org/dc/dcmitype/StillImage"/>
    <dc:date>2025-05-26T10:20:52.780686</dc:date>
    <dc:format>image/svg+xml</dc:format>
    <dc:creator>
     <cc:Agent>
      <dc:title>Matplotlib v3.10.3, https://matplotlib.org/</dc:title>
     </cc:Agent>
    </dc:creator>
   </cc:Work>
  </rdf:RDF>
 </metadata>
 <defs>
  <style type="text/css">*{stroke-linejoin: round; stroke-linecap: butt}</style>
 </defs>
 <g id="figure_1">
  <g id="patch_1">
   <path d="M 0 288 
L 720 288 
L 720 0 
L 0 0 
z
" style="fill: #ffffff"/>
  </g>
  <g id="axes_1">
   <g id="patch_2">
    <path d="M 71.84 246.04 
L 709.2 246.04 
L 709.2 26.88 
L 71.84 26.88 
z
" style="fill: #ffffff"/>
   </g>
   <g id="FillBetweenPolyCollection_1">
    <defs>
     <path id="me7f83cd772" d="M 100.810909 -122.552716 
L 100.810909 -112.23047 
L 104.501471 -111.490769 
L 108.192032 -111.619884 
L 111.882594 -105.324269 
L 115.573156 -110.299505 
L 119.263717 -112.360226 
L 122.954279 -108.308732 
L 126.644841 -87.107071 
L 130.335402 -51.921818 
L 134.025964 -78.899306 
L 137.716526 -74.654403 
L 141.407087 -66.156426 
L 145.097649 -101.647701 
L 148.788211 -91.238099 
L 152.478772 -67.424558 
L 156.169334 -61.099706 
L 159.859896 -89.901042 
L 163.550457 -92.525334 
L 167.241019 -92.843437 
L 170.931581 -101.748517 
L 174.622142 -71.667028 
L 178.312704 -86.632007 
L 182.003266 -99.777249 
L 185.693827 -100.059417 
L 189.384389 -105.343559 
L 193.074951 -108.758425 
L 196.765512 -109.391759 
L 200.456074 -109.160315 
L 204.146636 -110.430258 
L 207.837197 -111.259552 
L 211.527759 -111.947609 
L 215.218321 -112.653638 
L 218.908882 -113.078041 
L 222.599444 -113.137835 
L 226.290006 -113.138931 
L 229.980567 -113.138931 
L 233.671129 -113.129021 
L 237.361691 -112.981238 
L 241.052252 -112.50442 
L 244.742814 -112.278734 
L 248.433376 -111.840712 
L 252.123937 -111.487631 
L 255.814499 -110.593622 
L 259.505061 -110.246708 
L 263.195622 -109.935417 
L 266.886184 -107.990638 
L 270.576746 -109.944035 
L 274.267307 -108.690963 
L 277.957869 -107.84484 
L 281.648431 -106.706939 
L 285.338992 -107.124113 
L 289.029554 -105.750501 
L 292.720116 -108.755926 
L 296.410677 -107.591968 
L 300.101239 -104.177447 
L 303.791801 -110.102141 
L 307.482362 -108.002528 
L 311.172924 -107.638994 
L 314.863486 -107.064959 
L 318.554047 -106.305958 
L 322.244609 -100.902745 
L 325.935171 -101.885487 
L 329.625732 -107.58673 
L 333.316294 -103.032413 
L 337.006856 -103.436692 
L 340.697417 -107.524153 
L 344.387979 -108.883028 
L 348.078541 -108.921744 
L 351.769102 -107.236768 
L 355.459664 -106.630241 
L 359.150226 -108.412901 
L 362.840787 -107.304186 
L 366.531349 -108.286759 
L 370.221911 -110.485023 
L 373.912472 -110.815547 
L 377.603034 -111.310923 
L 381.293596 -112.010597 
L 384.984157 -112.325728 
L 388.674719 -112.160586 
L 392.365281 -112.340152 
L 396.055843 -113.030114 
L 399.746404 -113.129705 
L 403.436966 -113.138931 
L 407.127528 -113.138931 
L 410.818089 -113.138931 
L 414.508651 -113.134574 
L 418.199213 -113.088166 
L 421.889774 -113.014836 
L 425.580336 -112.85124 
L 429.270898 -112.847751 
L 432.961459 -112.445237 
L 436.652021 -112.051664 
L 440.342583 -111.75973 
L 444.033144 -111.686842 
L 447.723706 -111.482401 
L 451.414268 -110.613849 
L 455.104829 -109.992212 
L 458.795391 -110.443039 
L 462.485953 -110.142696 
L 466.176514 -113.208231 
L 469.867076 -110.016995 
L 473.557638 -113.101267 
L 477.248199 -112.717017 
L 480.938761 -108.554222 
L 484.629323 -113.683517 
L 488.319884 -116.508868 
L 492.010446 -109.85252 
L 495.701008 -110.97865 
L 499.391569 -118.416516 
L 503.082131 -92.534736 
L 506.772693 -100.958409 
L 510.463254 -61.247981 
L 514.153816 -103.389068 
L 517.844378 -105.405337 
L 521.534939 -64.773513 
L 525.225501 -105.986225 
L 528.916063 -93.53965 
L 532.606624 -88.340297 
L 536.297186 -87.341827 
L 539.987748 -92.369903 
L 543.678309 -87.801914 
L 547.368871 -104.128963 
L 551.059433 -105.842969 
L 554.749994 -104.812166 
L 558.440556 -109.249864 
L 562.131118 -109.645732 
L 565.821679 -110.922118 
L 569.512241 -113.138931 
L 573.202803 -113.138931 
L 576.893364 -113.101941 
L 580.583926 -113.138931 
L 584.274488 -113.138931 
L 587.965049 -113.138248 
L 591.655611 -113.113986 
L 595.346173 -112.945523 
L 599.036734 -112.602001 
L 602.727296 -112.516098 
L 606.417858 -112.130999 
L 610.108419 -111.469524 
L 613.798981 -110.906429 
L 617.489543 -109.926094 
L 621.180104 -109.810508 
L 624.870666 -111.234145 
L 628.561228 -110.823516 
L 632.251789 -109.779914 
L 635.942351 -111.069411 
L 639.632913 -109.313151 
L 643.323474 -110.091271 
L 647.014036 -110.947364 
L 650.704598 -115.655732 
L 654.395159 -116.71056 
L 658.085721 -114.853766 
L 661.776283 -122.788011 
L 665.466844 -118.749564 
L 665.466844 -132.816765 
L 665.466844 -132.816765 
L 661.776283 -140.266694 
L 658.085721 -128.799753 
L 654.395159 -121.959593 
L 650.704598 -122.993958 
L 647.014036 -132.536494 
L 643.323474 -130.939938 
L 639.632913 -131.047111 
L 635.942351 -125.943915 
L 632.251789 -127.28352 
L 628.561228 -123.901012 
L 624.870666 -121.75525 
L 621.180104 -123.094708 
L 617.489543 -122.477728 
L 613.798981 -120.252349 
L 610.108419 -118.16509 
L 606.417858 -116.49565 
L 602.727296 -114.8591 
L 599.036734 -114.14688 
L 595.346173 -113.445175 
L 591.655611 -113.176671 
L 587.965049 -113.139965 
L 584.274488 -113.138931 
L 580.583926 -113.138931 
L 576.893364 -113.194895 
L 573.202803 -113.138931 
L 569.512241 -113.138931 
L 565.821679 -116.492868 
L 562.131118 -118.425106 
L 558.440556 -119.071097 
L 554.749994 -125.995921 
L 551.059433 -124.877829 
L 547.368871 -127.868132 
L 543.678309 -153.896452 
L 539.987748 -147.494648 
L 536.297186 -158.357684 
L 532.606624 -160.003741 
L 528.916063 -160.850473 
L 525.225501 -140.481973 
L 521.534939 -204.846585 
L 517.844378 -153.468672 
L 514.153816 -154.806807 
L 510.463254 -221.598168 
L 506.772693 -158.171682 
L 503.082131 -180.954346 
L 499.391569 -147.665635 
L 495.701008 -166.6355 
L 492.010446 -157.776142 
L 488.319884 -132.338156 
L 484.629323 -144.189821 
L 480.938761 -148.834229 
L 477.248199 -132.998817 
L 473.557638 -133.489802 
L 469.867076 -137.607039 
L 466.176514 -127.230118 
L 462.485953 -127.565875 
L 458.795391 -124.213743 
L 455.104829 -126.01214 
L 451.414268 -124.285367 
L 447.723706 -120.035129 
L 444.033144 -118.440066 
L 440.342583 -117.019806 
L 436.652021 -116.341118 
L 432.961459 -115.065759 
L 429.270898 -114.188742 
L 425.580336 -113.895648 
L 421.889774 -113.37584 
L 418.199213 -113.220019 
L 414.508651 -113.145522 
L 410.818089 -113.138931 
L 407.127528 -113.138931 
L 403.436966 -113.138931 
L 399.746404 -113.15289 
L 396.055843 -113.310427 
L 392.365281 -114.397818 
L 388.674719 -114.680816 
L 384.984157 -114.42055 
L 381.293596 -114.854801 
L 377.603034 -115.968967 
L 373.912472 -116.938298 
L 370.221911 -117.525562 
L 366.531349 -120.997844 
L 362.840787 -123.204875 
L 359.150226 -121.696216 
L 355.459664 -125.185045 
L 351.769102 -124.754871 
L 348.078541 -123.373369 
L 344.387979 -124.899068 
L 340.697417 -126.321464 
L 337.006856 -132.796684 
L 333.316294 -134.798546 
L 329.625732 -130.735954 
L 325.935171 -139.541963 
L 322.244609 -141.08584 
L 318.554047 -134.34643 
L 314.863486 -132.866482 
L 311.172924 -135.013023 
L 307.482362 -134.64101 
L 303.791801 -131.526574 
L 300.101239 -140.283759 
L 296.410677 -139.249207 
L 292.720116 -136.2807 
L 289.029554 -136.397873 
L 285.338992 -135.922612 
L 281.648431 -133.285083 
L 277.957869 -133.001582 
L 274.267307 -130.184332 
L 270.576746 -126.756066 
L 266.886184 -128.106143 
L 263.195622 -122.887462 
L 259.505061 -121.382102 
L 255.814499 -120.506744 
L 252.123937 -118.079589 
L 248.433376 -116.669792 
L 244.742814 -114.992786 
L 241.052252 -114.171347 
L 237.361691 -113.378042 
L 233.671129 -113.153923 
L 229.980567 -113.138931 
L 226.290006 -113.138931 
L 222.599444 -113.140657 
L 218.908882 -113.234894 
L 215.218321 -113.903759 
L 211.527759 -115.016471 
L 207.837197 -115.982346 
L 204.146636 -117.25238 
L 200.456074 -119.301615 
L 196.765512 -119.223935 
L 193.074951 -120.512331 
L 189.384389 -126.878813 
L 185.693827 -134.727555 
L 182.003266 -137.791975 
L 178.312704 -159.137616 
L 174.622142 -186.684341 
L 170.931581 -149.682113 
L 167.241019 -166.862228 
L 163.550457 -172.732401 
L 159.859896 -181.695966 
L 156.169334 -230.781238 
L 152.478772 -224.611464 
L 148.788211 -190.802642 
L 145.097649 -164.095679 
L 141.407087 -251.158182 
L 137.716526 -236.045601 
L 134.025964 -216.071615 
L 130.335402 -237.994091 
L 126.644841 -180.685355 
L 122.954279 -141.334827 
L 119.263717 -134.460481 
L 115.573156 -139.409477 
L 111.882594 -139.947407 
L 108.192032 -131.741533 
L 104.501471 -128.89561 
L 100.810909 -122.552716 
z
" style="stroke: #808080; stroke-opacity: 0.2"/>
    </defs>
    <g clip-path="url(#p2dc8c8e0b3)">
     <use xlink:href="#me7f83cd772" x="0" y="288" style="fill: #808080; fill-opacity: 0.2; stroke: #808080; stroke-opacity: 0.2"/>
    </g>
   </g>
   <g id="matplotlib.axis_1">
    <g id="xtick_1">
     <g id="line2d_1">
      <defs>
       <path id="m0952d484f1" d="M 0 0 
L 0 3.5 
" style="stroke: #000000; stroke-width: 0.8"/>
      </defs>
      <g>
       <use xlink:href="#m0952d484f1" x="115.573156" y="246.04" style="stroke: #000000; stroke-width: 0.8"/>
      </g>
     </g>
     <g id="text_1">
      <!-- 05-23 12 -->
      <g transform="translate(93.092687 260.638438) scale(0.1 -0.1)">
       <defs>
        <path id="DejaVuSans-30" d="M 2034 4250 
Q 1547 4250 1301 3770 
Q 1056 3291 1056 2328 
Q 1056 1369 1301 889 
Q 1547 409 2034 409 
Q 2525 409 2770 889 
Q 3016 1369 3016 2328 
Q 3016 3291 2770 3770 
Q 2525 4250 2034 4250 
z
M 2034 4750 
Q 2819 4750 3233 4129 
Q 3647 3509 3647 2328 
Q 3647 1150 3233 529 
Q 2819 -91 2034 -91 
Q 1250 -91 836 529 
Q 422 1150 422 2328 
Q 422 3509 836 4129 
Q 1250 4750 2034 4750 
z
" transform="scale(0.015625)"/>
        <path id="DejaVuSans-35" d="M 691 4666 
L 3169 4666 
L 3169 4134 
L 1269 4134 
L 1269 2991 
Q 1406 3038 1543 3061 
Q 1681 3084 1819 3084 
Q 2600 3084 3056 2656 
Q 3513 2228 3513 1497 
Q 3513 744 3044 326 
Q 2575 -91 1722 -91 
Q 1428 -91 1123 -41 
Q 819 9 494 109 
L 494 744 
Q 775 591 1075 516 
Q 1375 441 1709 441 
Q 2250 441 2565 725 
Q 2881 1009 2881 1497 
Q 2881 1984 2565 2268 
Q 2250 2553 1709 2553 
Q 1456 2553 1204 2497 
Q 953 2441 691 2322 
L 691 4666 
z
" transform="scale(0.015625)"/>
        <path id="DejaVuSans-2d" d="M 313 2009 
L 1997 2009 
L 1997 1497 
L 313 1497 
L 313 2009 
z
" transform="scale(0.015625)"/>
        <path id="DejaVuSans-32" d="M 1228 531 
L 3431 531 
L 3431 0 
L 469 0 
L 469 531 
Q 828 903 1448 1529 
Q 2069 2156 2228 2338 
Q 2531 2678 2651 2914 
Q 2772 3150 2772 3378 
Q 2772 3750 2511 3984 
Q 2250 4219 1831 4219 
Q 1534 4219 1204 4116 
Q 875 4013 500 3803 
L 500 4441 
Q 881 4594 1212 4672 
Q 1544 4750 1819 4750 
Q 2544 4750 2975 4387 
Q 3406 4025 3406 3419 
Q 3406 3131 3298 2873 
Q 3191 2616 2906 2266 
Q 2828 2175 2409 1742 
Q 1991 1309 1228 531 
z
" transform="scale(0.015625)"/>
        <path id="DejaVuSans-33" d="M 2597 2516 
Q 3050 2419 3304 2112 
Q 3559 1806 3559 1356 
Q 3559 666 3084 287 
Q 2609 -91 1734 -91 
Q 1441 -91 1130 -33 
Q 819 25 488 141 
L 488 750 
Q 750 597 1062 519 
Q 1375 441 1716 441 
Q 2309 441 2620 675 
Q 2931 909 2931 1356 
Q 2931 1769 2642 2001 
Q 2353 2234 1838 2234 
L 1294 2234 
L 1294 2753 
L 1863 2753 
Q 2328 2753 2575 2939 
Q 2822 3125 2822 3475 
Q 2822 3834 2567 4026 
Q 2313 4219 1838 4219 
Q 1578 4219 1281 4162 
Q 984 4106 628 3988 
L 628 4550 
Q 988 4650 1302 4700 
Q 1616 4750 1894 4750 
Q 2613 4750 3031 4423 
Q 3450 4097 3450 3541 
Q 3450 3153 3228 2886 
Q 3006 2619 2597 2516 
z
" transform="scale(0.015625)"/>
        <path id="DejaVuSans-20" transform="scale(0.015625)"/>
        <path id="DejaVuSans-31" d="M 794 531 
L 1825 531 
L 1825 4091 
L 703 3866 
L 703 4441 
L 1819 4666 
L 2450 4666 
L 2450 531 
L 3481 531 
L 3481 0 
L 794 0 
L 794 531 
z
" transform="scale(0.015625)"/>
       </defs>
       <use xlink:href="#DejaVuSans-30"/>
       <use xlink:href="#DejaVuSans-35" transform="translate(63.623047 0)"/>
       <use xlink:href="#DejaVuSans-2d" transform="translate(127.246094 0)"/>
       <use xlink:href="#DejaVuSans-32" transform="translate(163.330078 0)"/>
       <use xlink:href="#DejaVuSans-33" transform="translate(226.953125 0)"/>
       <use xlink:href="#DejaVuSans-20" transform="translate(290.576172 0)"/>
       <use xlink:href="#DejaVuSans-31" transform="translate(322.363281 0)"/>
       <use xlink:href="#DejaVuSans-32" transform="translate(385.986328 0)"/>
      </g>
     </g>
    </g>
    <g id="xtick_2">
     <g id="line2d_2">
      <g>
       <use xlink:href="#m0952d484f1" x="204.146636" y="246.04" style="stroke: #000000; stroke-width: 0.8"/>
      </g>
     </g>
     <g id="text_2">
      <!-- 05-24 00 -->
      <g transform="translate(181.666167 260.638438) scale(0.1 -0.1)">
       <defs>
        <path id="DejaVuSans-34" d="M 2419 4116 
L 825 1625 
L 2419 1625 
L 2419 4116 
z
M 2253 4666 
L 3047 4666 
L 3047 1625 
L 3713 1625 
L 3713 1100 
L 3047 1100 
L 3047 0 
L 2419 0 
L 2419 1100 
L 313 1100 
L 313 1709 
L 2253 4666 
z
" transform="scale(0.015625)"/>
       </defs>
       <use xlink:href="#DejaVuSans-30"/>
       <use xlink:href="#DejaVuSans-35" transform="translate(63.623047 0)"/>
       <use xlink:href="#DejaVuSans-2d" transform="translate(127.246094 0)"/>
       <use xlink:href="#DejaVuSans-32" transform="translate(163.330078 0)"/>
       <use xlink:href="#DejaVuSans-34" transform="translate(226.953125 0)"/>
       <use xlink:href="#DejaVuSans-20" transform="translate(290.576172 0)"/>
       <use xlink:href="#DejaVuSans-30" transform="translate(322.363281 0)"/>
       <use xlink:href="#DejaVuSans-30" transform="translate(385.986328 0)"/>
      </g>
     </g>
    </g>
    <g id="xtick_3">
     <g id="line2d_3">
      <g>
       <use xlink:href="#m0952d484f1" x="292.720116" y="246.04" style="stroke: #000000; stroke-width: 0.8"/>
      </g>
     </g>
     <g id="text_3">
      <!-- 05-24 12 -->
      <g transform="translate(270.239647 260.638438) scale(0.1 -0.1)">
       <use xlink:href="#DejaVuSans-30"/>
       <use xlink:href="#DejaVuSans-35" transform="translate(63.623047 0)"/>
       <use xlink:href="#DejaVuSans-2d" transform="translate(127.246094 0)"/>
       <use xlink:href="#DejaVuSans-32" transform="translate(163.330078 0)"/>
       <use xlink:href="#DejaVuSans-34" transform="translate(226.953125 0)"/>
       <use xlink:href="#DejaVuSans-20" transform="translate(290.576172 0)"/>
       <use xlink:href="#DejaVuSans-31" transform="translate(322.363281 0)"/>
       <use xlink:href="#DejaVuSans-32" transform="translate(385.986328 0)"/>
      </g>
     </g>
    </g>
    <g id="xtick_4">
     <g id="line2d_4">
      <g>
       <use xlink:href="#m0952d484f1" x="381.293596" y="246.04" style="stroke: #000000; stroke-width: 0.8"/>
      </g>
     </g>
     <g id="text_4">
      <!-- 05-25 00 -->
      <g transform="translate(358.813127 260.638438) scale(0.1 -0.1)">
       <use xlink:href="#DejaVuSans-30"/>
       <use xlink:href="#DejaVuSans-35" transform="translate(63.623047 0)"/>
       <use xlink:href="#DejaVuSans-2d" transform="translate(127.246094 0)"/>
       <use xlink:href="#DejaVuSans-32" transform="translate(163.330078 0)"/>
       <use xlink:href="#DejaVuSans-35" transform="translate(226.953125 0)"/>
       <use xlink:href="#DejaVuSans-20" transform="translate(290.576172 0)"/>
       <use xlink:href="#DejaVuSans-30" transform="translate(322.363281 0)"/>
       <use xlink:href="#DejaVuSans-30" transform="translate(385.986328 0)"/>
      </g>
     </g>
    </g>
    <g id="xtick_5">
     <g id="line2d_5">
      <g>
       <use xlink:href="#m0952d484f1" x="469.867076" y="246.04" style="stroke: #000000; stroke-width: 0.8"/>
      </g>
     </g>
     <g id="text_5">
      <!-- 05-25 12 -->
      <g transform="translate(447.386607 260.638438) scale(0.1 -0.1)">
       <use xlink:href="#DejaVuSans-30"/>
       <use xlink:href="#DejaVuSans-35" transform="translate(63.623047 0)"/>
       <use xlink:href="#DejaVuSans-2d" transform="translate(127.246094 0)"/>
       <use xlink:href="#DejaVuSans-32" transform="translate(163.330078 0)"/>
       <use xlink:href="#DejaVuSans-35" transform="translate(226.953125 0)"/>
       <use xlink:href="#DejaVuSans-20" transform="translate(290.576172 0)"/>
       <use xlink:href="#DejaVuSans-31" transform="translate(322.363281 0)"/>
       <use xlink:href="#DejaVuSans-32" transform="translate(385.986328 0)"/>
      </g>
     </g>
    </g>
    <g id="xtick_6">
     <g id="line2d_6">
      <g>
       <use xlink:href="#m0952d484f1" x="558.440556" y="246.04" style="stroke: #000000; stroke-width: 0.8"/>
      </g>
     </g>
     <g id="text_6">
      <!-- 05-26 00 -->
      <g transform="translate(535.960087 260.638438) scale(0.1 -0.1)">
       <defs>
        <path id="DejaVuSans-36" d="M 2113 2584 
Q 1688 2584 1439 2293 
Q 1191 2003 1191 1497 
Q 1191 994 1439 701 
Q 1688 409 2113 409 
Q 2538 409 2786 701 
Q 3034 994 3034 1497 
Q 3034 2003 2786 2293 
Q 2538 2584 2113 2584 
z
M 3366 4563 
L 3366 3988 
Q 3128 4100 2886 4159 
Q 2644 4219 2406 4219 
Q 1781 4219 1451 3797 
Q 1122 3375 1075 2522 
Q 1259 2794 1537 2939 
Q 1816 3084 2150 3084 
Q 2853 3084 3261 2657 
Q 3669 2231 3669 1497 
Q 3669 778 3244 343 
Q 2819 -91 2113 -91 
Q 1303 -91 875 529 
Q 447 1150 447 2328 
Q 447 3434 972 4092 
Q 1497 4750 2381 4750 
Q 2619 4750 2861 4703 
Q 3103 4656 3366 4563 
z
" transform="scale(0.015625)"/>
       </defs>
       <use xlink:href="#DejaVuSans-30"/>
       <use xlink:href="#DejaVuSans-35" transform="translate(63.623047 0)"/>
       <use xlink:href="#DejaVuSans-2d" transform="translate(127.246094 0)"/>
       <use xlink:href="#DejaVuSans-32" transform="translate(163.330078 0)"/>
       <use xlink:href="#DejaVuSans-36" transform="translate(226.953125 0)"/>
       <use xlink:href="#DejaVuSans-20" transform="translate(290.576172 0)"/>
       <use xlink:href="#DejaVuSans-30" transform="translate(322.363281 0)"/>
       <use xlink:href="#DejaVuSans-30" transform="translate(385.986328 0)"/>
      </g>
     </g>
    </g>
    <g id="xtick_7">
     <g id="line2d_7">
      <g>
       <use xlink:href="#m0952d484f1" x="647.014036" y="246.04" style="stroke: #000000; stroke-width: 0.8"/>
      </g>
     </g>
     <g id="text_7">
      <!-- 05-26 12 -->
      <g transform="translate(624.533567 260.638438) scale(0.1 -0.1)">
       <use xlink:href="#DejaVuSans-30"/>
       <use xlink:href="#DejaVuSans-35" transform="translate(63.623047 0)"/>
       <use xlink:href="#DejaVuSans-2d" transform="translate(127.246094 0)"/>
       <use xlink:href="#DejaVuSans-32" transform="translate(163.330078 0)"/>
       <use xlink:href="#DejaVuSans-36" transform="translate(226.953125 0)"/>
       <use xlink:href="#DejaVuSans-20" transform="translate(290.576172 0)"/>
       <use xlink:href="#DejaVuSans-31" transform="translate(322.363281 0)"/>
       <use xlink:href="#DejaVuSans-32" transform="translate(385.986328 0)"/>
      </g>
     </g>
    </g>
    <g id="text_8">
     <!-- Tijd -->
     <g transform="translate(381.67 274.316562) scale(0.1 -0.1)">
      <defs>
       <path id="DejaVuSans-54" d="M -19 4666 
L 3928 4666 
L 3928 4134 
L 2272 4134 
L 2272 0 
L 1638 0 
L 1638 4134 
L -19 4134 
L -19 4666 
z
" transform="scale(0.015625)"/>
       <path id="DejaVuSans-69" d="M 603 3500 
L 1178 3500 
L 1178 0 
L 603 0 
L 603 3500 
z
M 603 4863 
L 1178 4863 
L 1178 4134 
L 603 4134 
L 603 4863 
z
" transform="scale(0.015625)"/>
       <path id="DejaVuSans-6a" d="M 603 3500 
L 1178 3500 
L 1178 -63 
Q 1178 -731 923 -1031 
Q 669 -1331 103 -1331 
L -116 -1331 
L -116 -844 
L 38 -844 
Q 366 -844 484 -692 
Q 603 -541 603 -63 
L 603 3500 
z
M 603 4863 
L 1178 4863 
L 1178 4134 
L 603 4134 
L 603 4863 
z
" transform="scale(0.015625)"/>
       <path id="DejaVuSans-64" d="M 2906 2969 
L 2906 4863 
L 3481 4863 
L 3481 0 
L 2906 0 
L 2906 525 
Q 2725 213 2448 61 
Q 2172 -91 1784 -91 
Q 1150 -91 751 415 
Q 353 922 353 1747 
Q 353 2572 751 3078 
Q 1150 3584 1784 3584 
Q 2172 3584 2448 3432 
Q 2725 3281 2906 2969 
z
M 947 1747 
Q 947 1113 1208 752 
Q 1469 391 1925 391 
Q 2381 391 2643 752 
Q 2906 1113 2906 1747 
Q 2906 2381 2643 2742 
Q 2381 3103 1925 3103 
Q 1469 3103 1208 2742 
Q 947 2381 947 1747 
z
" transform="scale(0.015625)"/>
      </defs>
      <use xlink:href="#DejaVuSans-54"/>
      <use xlink:href="#DejaVuSans-69" transform="translate(57.958984 0)"/>
      <use xlink:href="#DejaVuSans-6a" transform="translate(85.742188 0)"/>
      <use xlink:href="#DejaVuSans-64" transform="translate(113.525391 0)"/>
     </g>
    </g>
   </g>
   <g id="matplotlib.axis_2">
    <g id="ytick_1">
     <g id="line2d_8">
      <defs>
       <path id="mb770c7099f" d="M 0 0 
L -3.5 0 
" style="stroke: #000000; stroke-width: 0.8"/>
      </defs>
      <g>
       <use xlink:href="#mb770c7099f" x="71.84" y="214.298915" style="stroke: #000000; stroke-width: 0.8"/>
      </g>
     </g>
     <g id="text_9">
      <!-- −10000 -->
      <g transform="translate(24.647813 218.098134) scale(0.1 -0.1)">
       <defs>
        <path id="DejaVuSans-2212" d="M 678 2272 
L 4684 2272 
L 4684 1741 
L 678 1741 
L 678 2272 
z
" transform="scale(0.015625)"/>
       </defs>
       <use xlink:href="#DejaVuSans-2212"/>
       <use xlink:href="#DejaVuSans-31" transform="translate(83.789062 0)"/>
       <use xlink:href="#DejaVuSans-30" transform="translate(147.412109 0)"/>
       <use xlink:href="#DejaVuSans-30" transform="translate(211.035156 0)"/>
       <use xlink:href="#DejaVuSans-30" transform="translate(274.658203 0)"/>
       <use xlink:href="#DejaVuSans-30" transform="translate(338.28125 0)"/>
      </g>
     </g>
    </g>
    <g id="ytick_2">
     <g id="line2d_9">
      <g>
       <use xlink:href="#mb770c7099f" x="71.84" y="174.861069" style="stroke: #000000; stroke-width: 0.8"/>
      </g>
     </g>
     <g id="text_10">
      <!-- 0 -->
      <g transform="translate(58.4775 178.660288) scale(0.1 -0.1)">
       <use xlink:href="#DejaVuSans-30"/>
      </g>
     </g>
    </g>
    <g id="ytick_3">
     <g id="line2d_10">
      <g>
       <use xlink:href="#mb770c7099f" x="71.84" y="135.423223" style="stroke: #000000; stroke-width: 0.8"/>
      </g>
     </g>
     <g id="text_11">
      <!-- 10000 -->
      <g transform="translate(33.0275 139.222442) scale(0.1 -0.1)">
       <use xlink:href="#DejaVuSans-31"/>
       <use xlink:href="#DejaVuSans-30" transform="translate(63.623047 0)"/>
       <use xlink:href="#DejaVuSans-30" transform="translate(127.246094 0)"/>
       <use xlink:href="#DejaVuSans-30" transform="translate(190.869141 0)"/>
       <use xlink:href="#DejaVuSans-30" transform="translate(254.492188 0)"/>
      </g>
     </g>
    </g>
    <g id="ytick_4">
     <g id="line2d_11">
      <g>
       <use xlink:href="#mb770c7099f" x="71.84" y="95.985377" style="stroke: #000000; stroke-width: 0.8"/>
      </g>
     </g>
     <g id="text_12">
      <!-- 20000 -->
      <g transform="translate(33.0275 99.784596) scale(0.1 -0.1)">
       <use xlink:href="#DejaVuSans-32"/>
       <use xlink:href="#DejaVuSans-30" transform="translate(63.623047 0)"/>
       <use xlink:href="#DejaVuSans-30" transform="translate(127.246094 0)"/>
       <use xlink:href="#DejaVuSans-30" transform="translate(190.869141 0)"/>
       <use xlink:href="#DejaVuSans-30" transform="translate(254.492188 0)"/>
      </g>
     </g>
    </g>
    <g id="ytick_5">
     <g id="line2d_12">
      <g>
       <use xlink:href="#mb770c7099f" x="71.84" y="56.547532" style="stroke: #000000; stroke-width: 0.8"/>
      </g>
     </g>
     <g id="text_13">
      <!-- 30000 -->
      <g transform="translate(33.0275 60.34675) scale(0.1 -0.1)">
       <use xlink:href="#DejaVuSans-33"/>
       <use xlink:href="#DejaVuSans-30" transform="translate(63.623047 0)"/>
       <use xlink:href="#DejaVuSans-30" transform="translate(127.246094 0)"/>
       <use xlink:href="#DejaVuSans-30" transform="translate(190.869141 0)"/>
       <use xlink:href="#DejaVuSans-30" transform="translate(254.492188 0)"/>
      </g>
     </g>
    </g>
    <g id="text_14">
     <!-- Lichtintensiteit -->
     <g transform="translate(18.568125 173.656094) rotate(-90) scale(0.1 -0.1)">
      <defs>
       <path id="DejaVuSans-4c" d="M 628 4666 
L 1259 4666 
L 1259 531 
L 3531 531 
L 3531 0 
L 628 0 
L 628 4666 
z
" transform="scale(0.015625)"/>
       <path id="DejaVuSans-63" d="M 3122 3366 
L 3122 2828 
Q 2878 2963 2633 3030 
Q 2388 3097 2138 3097 
Q 1578 3097 1268 2742 
Q 959 2388 959 1747 
Q 959 1106 1268 751 
Q 1578 397 2138 397 
Q 2388 397 2633 464 
Q 2878 531 3122 666 
L 3122 134 
Q 2881 22 2623 -34 
Q 2366 -91 2075 -91 
Q 1284 -91 818 406 
Q 353 903 353 1747 
Q 353 2603 823 3093 
Q 1294 3584 2113 3584 
Q 2378 3584 2631 3529 
Q 2884 3475 3122 3366 
z
" transform="scale(0.015625)"/>
       <path id="DejaVuSans-68" d="M 3513 2113 
L 3513 0 
L 2938 0 
L 2938 2094 
Q 2938 2591 2744 2837 
Q 2550 3084 2163 3084 
Q 1697 3084 1428 2787 
Q 1159 2491 1159 1978 
L 1159 0 
L 581 0 
L 581 4863 
L 1159 4863 
L 1159 2956 
Q 1366 3272 1645 3428 
Q 1925 3584 2291 3584 
Q 2894 3584 3203 3211 
Q 3513 2838 3513 2113 
z
" transform="scale(0.015625)"/>
       <path id="DejaVuSans-74" d="M 1172 4494 
L 1172 3500 
L 2356 3500 
L 2356 3053 
L 1172 3053 
L 1172 1153 
Q 1172 725 1289 603 
Q 1406 481 1766 481 
L 2356 481 
L 2356 0 
L 1766 0 
Q 1100 0 847 248 
Q 594 497 594 1153 
L 594 3053 
L 172 3053 
L 172 3500 
L 594 3500 
L 594 4494 
L 1172 4494 
z
" transform="scale(0.015625)"/>
       <path id="DejaVuSans-6e" d="M 3513 2113 
L 3513 0 
L 2938 0 
L 2938 2094 
Q 2938 2591 2744 2837 
Q 2550 3084 2163 3084 
Q 1697 3084 1428 2787 
Q 1159 2491 1159 1978 
L 1159 0 
L 581 0 
L 581 3500 
L 1159 3500 
L 1159 2956 
Q 1366 3272 1645 3428 
Q 1925 3584 2291 3584 
Q 2894 3584 3203 3211 
Q 3513 2838 3513 2113 
z
" transform="scale(0.015625)"/>
       <path id="DejaVuSans-65" d="M 3597 1894 
L 3597 1613 
L 953 1613 
Q 991 1019 1311 708 
Q 1631 397 2203 397 
Q 2534 397 2845 478 
Q 3156 559 3463 722 
L 3463 178 
Q 3153 47 2828 -22 
Q 2503 -91 2169 -91 
Q 1331 -91 842 396 
Q 353 884 353 1716 
Q 353 2575 817 3079 
Q 1281 3584 2069 3584 
Q 2775 3584 3186 3129 
Q 3597 2675 3597 1894 
z
M 3022 2063 
Q 3016 2534 2758 2815 
Q 2500 3097 2075 3097 
Q 1594 3097 1305 2825 
Q 1016 2553 972 2059 
L 3022 2063 
z
" transform="scale(0.015625)"/>
       <path id="DejaVuSans-73" d="M 2834 3397 
L 2834 2853 
Q 2591 2978 2328 3040 
Q 2066 3103 1784 3103 
Q 1356 3103 1142 2972 
Q 928 2841 928 2578 
Q 928 2378 1081 2264 
Q 1234 2150 1697 2047 
L 1894 2003 
Q 2506 1872 2764 1633 
Q 3022 1394 3022 966 
Q 3022 478 2636 193 
Q 2250 -91 1575 -91 
Q 1294 -91 989 -36 
Q 684 19 347 128 
L 347 722 
Q 666 556 975 473 
Q 1284 391 1588 391 
Q 1994 391 2212 530 
Q 2431 669 2431 922 
Q 2431 1156 2273 1281 
Q 2116 1406 1581 1522 
L 1381 1569 
Q 847 1681 609 1914 
Q 372 2147 372 2553 
Q 372 3047 722 3315 
Q 1072 3584 1716 3584 
Q 2034 3584 2315 3537 
Q 2597 3491 2834 3397 
z
" transform="scale(0.015625)"/>
      </defs>
      <use xlink:href="#DejaVuSans-4c"/>
      <use xlink:href="#DejaVuSans-69" transform="translate(55.712891 0)"/>
      <use xlink:href="#DejaVuSans-63" transform="translate(83.496094 0)"/>
      <use xlink:href="#DejaVuSans-68" transform="translate(138.476562 0)"/>
      <use xlink:href="#DejaVuSans-74" transform="translate(201.855469 0)"/>
      <use xlink:href="#DejaVuSans-69" transform="translate(241.064453 0)"/>
      <use xlink:href="#DejaVuSans-6e" transform="translate(268.847656 0)"/>
      <use xlink:href="#DejaVuSans-74" transform="translate(332.226562 0)"/>
      <use xlink:href="#DejaVuSans-65" transform="translate(371.435547 0)"/>
      <use xlink:href="#DejaVuSans-6e" transform="translate(432.958984 0)"/>
      <use xlink:href="#DejaVuSans-73" transform="translate(496.337891 0)"/>
      <use xlink:href="#DejaVuSans-69" transform="translate(548.4375 0)"/>
      <use xlink:href="#DejaVuSans-74" transform="translate(576.220703 0)"/>
      <use xlink:href="#DejaVuSans-65" transform="translate(615.429688 0)"/>
      <use xlink:href="#DejaVuSans-69" transform="translate(676.953125 0)"/>
      <use xlink:href="#DejaVuSans-74" transform="translate(704.736328 0)"/>
     </g>
    </g>
   </g>
   <g id="line2d_13">
    <path d="M 100.810909 170.476764 
L 108.192032 167.419279 
L 111.882594 169.329911 
L 115.573156 164.781544 
L 119.263717 165.378042 
L 122.954279 166.176461 
L 130.335402 162.684634 
L 134.025964 93.954328 
L 137.716526 62.964266 
L 141.407087 53.155877 
L 145.097649 124.860388 
L 148.788211 153.817823 
L 152.478772 162.306688 
L 156.169334 166.2439 
L 159.859896 157.422837 
L 163.550457 166.596737 
L 167.241019 171.412361 
L 170.931581 162.929017 
L 174.622142 171.288658 
L 178.312704 173.813863 
L 182.003266 174.495086 
L 185.693827 174.817293 
L 196.765512 174.861069 
L 241.052252 174.824786 
L 244.742814 174.588159 
L 248.433376 174.151188 
L 252.123937 173.481796 
L 255.814499 173.09307 
L 259.505061 173.030364 
L 263.195622 172.611534 
L 270.576746 170.811985 
L 274.267307 167.80485 
L 277.957869 168.123902 
L 281.648431 170.969737 
L 285.338992 169.734149 
L 289.029554 171.167058 
L 300.101239 171.0916 
L 303.791801 171.273803 
L 314.863486 172.611534 
L 318.554047 172.852894 
L 322.244609 173.293415 
L 325.935171 172.892529 
L 329.625732 171.582798 
L 333.316294 171.27538 
L 337.006856 172.892332 
L 344.387979 172.007215 
L 348.078541 173.71185 
L 351.769102 174.042734 
L 355.459664 174.178531 
L 359.150226 174.700163 
L 362.840787 174.838064 
L 381.293596 174.861069 
L 421.889774 174.837998 
L 425.580336 174.737234 
L 429.270898 174.455779 
L 432.961459 174.296845 
L 436.652021 173.74695 
L 444.033144 172.810301 
L 447.723706 172.92546 
L 451.414268 169.438365 
L 455.104829 170.569969 
L 458.795391 172.169436 
L 462.485953 168.794345 
L 466.176514 167.310496 
L 469.867076 164.005802 
L 473.557638 164.281867 
L 477.248199 164.145609 
L 480.938761 155.815876 
L 484.629323 156.02299 
L 488.319884 165.849653 
L 492.010446 158.517368 
L 495.701008 132.834523 
L 499.391569 156.713087 
L 503.082131 164.424829 
L 506.772693 157.864935 
L 510.463254 159.689133 
L 514.153816 163.062449 
L 517.844378 150.91086 
L 521.534939 169.280614 
L 525.225501 170.277471 
L 528.916063 163.260953 
L 532.606624 172.861833 
L 536.297186 174.259773 
L 539.987748 174.72422 
L 543.678309 174.855679 
L 595.346173 174.860017 
L 599.036734 174.798757 
L 602.727296 174.487593 
L 606.417858 173.902598 
L 610.108419 173.658215 
L 613.798981 172.887599 
L 624.870666 172.019967 
L 628.561228 171.255793 
L 632.251789 170.683812 
L 635.942351 170.345436 
L 639.632913 167.947812 
L 643.323474 167.083729 
L 647.014036 166.937414 
L 650.704598 168.228807 
L 650.704598 168.228807 
" clip-path="url(#p2dc8c8e0b3)" style="fill: none; stroke: #1f77b4; stroke-width: 2; stroke-linecap: square"/>
   </g>
   <g id="line2d_14">
    <path d="M 100.810909 170.608407 
L 104.501471 167.806811 
L 108.192032 166.319292 
L 111.882594 165.364162 
L 115.573156 163.145509 
L 119.263717 164.589646 
L 122.954279 163.178221 
L 126.644841 154.103787 
L 130.335402 143.042045 
L 134.025964 140.51454 
L 137.716526 132.649998 
L 141.407087 129.342696 
L 145.097649 155.12831 
L 148.788211 146.979629 
L 152.478772 141.981989 
L 156.169334 142.059528 
L 159.859896 152.201496 
L 163.550457 155.371132 
L 167.241019 158.147168 
L 170.931581 162.284685 
L 174.622142 158.824315 
L 178.312704 165.115189 
L 182.003266 169.215388 
L 193.074951 173.364622 
L 196.765512 173.692153 
L 200.456074 173.769035 
L 204.146636 174.158681 
L 215.218321 174.721301 
L 222.599444 174.860754 
L 237.361691 174.82036 
L 241.052252 174.662116 
L 244.742814 174.36424 
L 255.814499 172.449817 
L 259.505061 172.185595 
L 263.195622 171.58856 
L 266.886184 169.951609 
L 270.576746 169.649949 
L 277.957869 167.576789 
L 281.648431 168.003989 
L 285.338992 166.476638 
L 289.029554 166.925813 
L 292.720116 165.481687 
L 296.410677 164.579412 
L 300.101239 165.769397 
L 303.791801 167.185643 
L 307.482362 166.678231 
L 311.172924 166.673991 
L 314.863486 168.034279 
L 318.554047 167.673806 
L 322.244609 167.005707 
L 325.935171 167.286275 
L 329.625732 168.838658 
L 333.316294 169.08452 
L 337.006856 169.883312 
L 340.697417 171.077192 
L 344.387979 171.108952 
L 348.078541 171.852443 
L 355.459664 172.092357 
L 359.150226 172.945441 
L 362.840787 172.74547 
L 370.221911 173.994707 
L 377.603034 174.360055 
L 381.293596 174.567301 
L 388.674719 174.579299 
L 392.365281 174.631015 
L 396.055843 174.829729 
L 410.818089 174.861069 
L 421.889774 174.804662 
L 432.961459 174.244502 
L 436.652021 173.803609 
L 440.342583 173.610232 
L 447.723706 172.241235 
L 451.414268 170.550392 
L 455.104829 169.997824 
L 458.795391 170.671609 
L 462.485953 169.145715 
L 466.176514 167.780825 
L 469.867076 164.187983 
L 477.248199 165.142083 
L 480.938761 159.305775 
L 484.629323 159.063331 
L 488.319884 163.576488 
L 492.010446 154.185669 
L 495.701008 149.192925 
L 499.391569 154.958925 
L 503.082131 151.255459 
L 506.772693 158.434954 
L 510.463254 146.576925 
L 514.153816 158.902063 
L 517.844378 158.562996 
L 521.534939 153.189951 
L 525.225501 164.765901 
L 528.916063 160.804939 
L 532.606624 163.827981 
L 536.297186 165.150244 
L 539.987748 168.067725 
L 543.678309 167.150817 
L 547.368871 172.001453 
L 551.059433 172.639601 
L 554.749994 172.595956 
L 558.440556 173.839519 
L 562.131118 173.964581 
L 565.821679 174.292507 
L 569.512241 174.861069 
L 595.346173 174.804651 
L 599.036734 174.625559 
L 602.727296 174.312401 
L 606.417858 173.686676 
L 610.108419 173.182693 
L 613.798981 172.420611 
L 617.489543 171.798089 
L 621.180104 171.547392 
L 624.870666 171.505303 
L 628.561228 170.637736 
L 632.251789 169.468283 
L 635.942351 169.493337 
L 639.632913 167.819869 
L 643.323474 167.484395 
L 647.014036 166.258071 
L 650.704598 168.675155 
L 654.395159 168.664923 
L 658.085721 166.17324 
L 661.776283 156.472648 
L 665.466844 162.216836 
L 669.157406 161.202363 
L 672.847968 154.818559 
L 676.538529 160.514501 
L 680.229091 152.807031 
L 680.229091 152.807031 
" clip-path="url(#p2dc8c8e0b3)" style="fill: none; stroke-dasharray: 5.55,2.4; stroke-dashoffset: 0; stroke: #808080; stroke-width: 1.5"/>
   </g>
   <g id="patch_3">
    <path d="M 71.84 246.04 
L 71.84 26.88 
" style="fill: none; stroke: #000000; stroke-width: 0.8; stroke-linejoin: miter; stroke-linecap: square"/>
   </g>
   <g id="patch_4">
    <path d="M 709.2 246.04 
L 709.2 26.88 
" style="fill: none; stroke: #000000; stroke-width: 0.8; stroke-linejoin: miter; stroke-linecap: square"/>
   </g>
   <g id="patch_5">
    <path d="M 71.84 246.04 
L 709.2 246.04 
" style="fill: none; stroke: #000000; stroke-width: 0.8; stroke-linejoin: miter; stroke-linecap: square"/>
   </g>
   <g id="patch_6">
    <path d="M 71.84 26.88 
L 709.2 26.88 
" style="fill: none; stroke: #000000; stroke-width: 0.8; stroke-linejoin: miter; stroke-linecap: square"/>
   </g>
   <g id="text_15">
    <!-- Licht - v001/c00001/d011 -->
    <g transform="translate(313.383438 20.88) scale(0.12 -0.12)">
     <defs>
      <path id="DejaVuSans-76" d="M 191 3500 
L 800 3500 
L 1894 563 
L 2988 3500 
L 3597 3500 
L 2284 0 
L 1503 0 
L 191 3500 
z
" transform="scale(0.015625)"/>
      <path id="DejaVuSans-2f" d="M 1625 4666 
L 2156 4666 
L 531 -594 
L 0 -594 
L 1625 4666 
z
" transform="scale(0.015625)"/>
     </defs>
     <use xlink:href="#DejaVuSans-4c"/>
     <use xlink:href="#DejaVuSans-69" transform="translate(55.712891 0)"/>
     <use xlink:href="#DejaVuSans-63" transform="translate(83.496094 0)"/>
     <use xlink:href="#DejaVuSans-68" transform="translate(138.476562 0)"/>
     <use xlink:href="#DejaVuSans-74" transform="translate(201.855469 0)"/>
     <use xlink:href="#DejaVuSans-20" transform="translate(241.064453 0)"/>
     <use xlink:href="#DejaVuSans-2d" transform="translate(272.851562 0)"/>
     <use xlink:href="#DejaVuSans-20" transform="translate(308.935547 0)"/>
     <use xlink:href="#DejaVuSans-76" transform="translate(340.722656 0)"/>
     <use xlink:href="#DejaVuSans-30" transform="translate(399.902344 0)"/>
     <use xlink:href="#DejaVuSans-30" transform="translate(463.525391 0)"/>
     <use xlink:href="#DejaVuSans-31" transform="translate(527.148438 0)"/>
     <use xlink:href="#DejaVuSans-2f" transform="translate(590.771484 0)"/>
     <use xlink:href="#DejaVuSans-63" transform="translate(624.462891 0)"/>
     <use xlink:href="#DejaVuSans-30" transform="translate(679.443359 0)"/>
     <use xlink:href="#DejaVuSans-30" transform="translate(743.066406 0)"/>
     <use xlink:href="#DejaVuSans-30" transform="translate(806.689453 0)"/>
     <use xlink:href="#DejaVuSans-30" transform="translate(870.3125 0)"/>
     <use xlink:href="#DejaVuSans-31" transform="translate(933.935547 0)"/>
     <use xlink:href="#DejaVuSans-2f" transform="translate(997.558594 0)"/>
     <use xlink:href="#DejaVuSans-64" transform="translate(1031.25 0)"/>
     <use xlink:href="#DejaVuSans-30" transform="translate(1094.726562 0)"/>
     <use xlink:href="#DejaVuSans-31" transform="translate(1158.349609 0)"/>
     <use xlink:href="#DejaVuSans-31" transform="translate(1221.972656 0)"/>
    </g>
   </g>
   <g id="legend_1">
    <g id="patch_7">
     <path d="M 551.25625 78.914375 
L 702.2 78.914375 
Q 704.2 78.914375 704.2 76.914375 
L 704.2 33.88 
Q 704.2 31.88 702.2 31.88 
L 551.25625 31.88 
Q 549.25625 31.88 549.25625 33.88 
L 549.25625 76.914375 
Q 549.25625 78.914375 551.25625 78.914375 
z
" style="fill: #ffffff; opacity: 0.8; stroke: #cccccc; stroke-linejoin: miter"/>
    </g>
    <g id="line2d_15">
     <path d="M 553.25625 39.978438 
L 563.25625 39.978438 
L 573.25625 39.978438 
" style="fill: none; stroke: #1f77b4; stroke-width: 2; stroke-linecap: square"/>
    </g>
    <g id="text_16">
     <!-- Hive -->
     <g transform="translate(581.25625 43.478438) scale(0.1 -0.1)">
      <defs>
       <path id="DejaVuSans-48" d="M 628 4666 
L 1259 4666 
L 1259 2753 
L 3553 2753 
L 3553 4666 
L 4184 4666 
L 4184 0 
L 3553 0 
L 3553 2222 
L 1259 2222 
L 1259 0 
L 628 0 
L 628 4666 
z
" transform="scale(0.015625)"/>
      </defs>
      <use xlink:href="#DejaVuSans-48"/>
      <use xlink:href="#DejaVuSans-69" transform="translate(75.195312 0)"/>
      <use xlink:href="#DejaVuSans-76" transform="translate(102.978516 0)"/>
      <use xlink:href="#DejaVuSans-65" transform="translate(162.158203 0)"/>
     </g>
    </g>
    <g id="line2d_16">
     <path d="M 553.25625 54.656563 
L 563.25625 54.656563 
L 573.25625 54.656563 
" style="fill: none; stroke-dasharray: 5.55,2.4; stroke-dashoffset: 0; stroke: #808080; stroke-width: 1.5"/>
    </g>
    <g id="text_17">
     <!-- Gemiddelde (alle hives) -->
     <g transform="translate(581.25625 58.156563) scale(0.1 -0.1)">
      <defs>
       <path id="DejaVuSans-47" d="M 3809 666 
L 3809 1919 
L 2778 1919 
L 2778 2438 
L 4434 2438 
L 4434 434 
Q 4069 175 3628 42 
Q 3188 -91 2688 -91 
Q 1594 -91 976 548 
Q 359 1188 359 2328 
Q 359 3472 976 4111 
Q 1594 4750 2688 4750 
Q 3144 4750 3555 4637 
Q 3966 4525 4313 4306 
L 4313 3634 
Q 3963 3931 3569 4081 
Q 3175 4231 2741 4231 
Q 1884 4231 1454 3753 
Q 1025 3275 1025 2328 
Q 1025 1384 1454 906 
Q 1884 428 2741 428 
Q 3075 428 3337 486 
Q 3600 544 3809 666 
z
" transform="scale(0.015625)"/>
       <path id="DejaVuSans-6d" d="M 3328 2828 
Q 3544 3216 3844 3400 
Q 4144 3584 4550 3584 
Q 5097 3584 5394 3201 
Q 5691 2819 5691 2113 
L 5691 0 
L 5113 0 
L 5113 2094 
Q 5113 2597 4934 2840 
Q 4756 3084 4391 3084 
Q 3944 3084 3684 2787 
Q 3425 2491 3425 1978 
L 3425 0 
L 2847 0 
L 2847 2094 
Q 2847 2600 2669 2842 
Q 2491 3084 2119 3084 
Q 1678 3084 1418 2786 
Q 1159 2488 1159 1978 
L 1159 0 
L 581 0 
L 581 3500 
L 1159 3500 
L 1159 2956 
Q 1356 3278 1631 3431 
Q 1906 3584 2284 3584 
Q 2666 3584 2933 3390 
Q 3200 3197 3328 2828 
z
" transform="scale(0.015625)"/>
       <path id="DejaVuSans-6c" d="M 603 4863 
L 1178 4863 
L 1178 0 
L 603 0 
L 603 4863 
z
" transform="scale(0.015625)"/>
       <path id="DejaVuSans-28" d="M 1984 4856 
Q 1566 4138 1362 3434 
Q 1159 2731 1159 2009 
Q 1159 1288 1364 580 
Q 1569 -128 1984 -844 
L 1484 -844 
Q 1016 -109 783 600 
Q 550 1309 550 2009 
Q 550 2706 781 3412 
Q 1013 4119 1484 4856 
L 1984 4856 
z
" transform="scale(0.015625)"/>
       <path id="DejaVuSans-61" d="M 2194 1759 
Q 1497 1759 1228 1600 
Q 959 1441 959 1056 
Q 959 750 1161 570 
Q 1363 391 1709 391 
Q 2188 391 2477 730 
Q 2766 1069 2766 1631 
L 2766 1759 
L 2194 1759 
z
M 3341 1997 
L 3341 0 
L 2766 0 
L 2766 531 
Q 2569 213 2275 61 
Q 1981 -91 1556 -91 
Q 1019 -91 701 211 
Q 384 513 384 1019 
Q 384 1609 779 1909 
Q 1175 2209 1959 2209 
L 2766 2209 
L 2766 2266 
Q 2766 2663 2505 2880 
Q 2244 3097 1772 3097 
Q 1472 3097 1187 3025 
Q 903 2953 641 2809 
L 641 3341 
Q 956 3463 1253 3523 
Q 1550 3584 1831 3584 
Q 2591 3584 2966 3190 
Q 3341 2797 3341 1997 
z
" transform="scale(0.015625)"/>
       <path id="DejaVuSans-29" d="M 513 4856 
L 1013 4856 
Q 1481 4119 1714 3412 
Q 1947 2706 1947 2009 
Q 1947 1309 1714 600 
Q 1481 -109 1013 -844 
L 513 -844 
Q 928 -128 1133 580 
Q 1338 1288 1338 2009 
Q 1338 2731 1133 3434 
Q 928 4138 513 4856 
z
" transform="scale(0.015625)"/>
      </defs>
      <use xlink:href="#DejaVuSans-47"/>
      <use xlink:href="#DejaVuSans-65" transform="translate(77.490234 0)"/>
      <use xlink:href="#DejaVuSans-6d" transform="translate(139.013672 0)"/>
      <use xlink:href="#DejaVuSans-69" transform="translate(236.425781 0)"/>
      <use xlink:href="#DejaVuSans-64" transform="translate(264.208984 0)"/>
      <use xlink:href="#DejaVuSans-64" transform="translate(327.685547 0)"/>
      <use xlink:href="#DejaVuSans-65" transform="translate(391.162109 0)"/>
      <use xlink:href="#DejaVuSans-6c" transform="translate(452.685547 0)"/>
      <use xlink:href="#DejaVuSans-64" transform="translate(480.46875 0)"/>
      <use xlink:href="#DejaVuSans-65" transform="translate(543.945312 0)"/>
      <use xlink:href="#DejaVuSans-20" transform="translate(605.46875 0)"/>
      <use xlink:href="#DejaVuSans-28" transform="translate(637.255859 0)"/>
      <use xlink:href="#DejaVuSans-61" transform="translate(676.269531 0)"/>
      <use xlink:href="#DejaVuSans-6c" transform="translate(737.548828 0)"/>
      <use xlink:href="#DejaVuSans-6c" transform="translate(765.332031 0)"/>
      <use xlink:href="#DejaVuSans-65" transform="translate(793.115234 0)"/>
      <use xlink:href="#DejaVuSans-20" transform="translate(854.638672 0)"/>
      <use xlink:href="#DejaVuSans-68" transform="translate(886.425781 0)"/>
      <use xlink:href="#DejaVuSans-69" transform="translate(949.804688 0)"/>
      <use xlink:href="#DejaVuSans-76" transform="translate(977.587891 0)"/>
      <use xlink:href="#DejaVuSans-65" transform="translate(1036.767578 0)"/>
      <use xlink:href="#DejaVuSans-73" transform="translate(1098.291016 0)"/>
      <use xlink:href="#DejaVuSans-29" transform="translate(1150.390625 0)"/>
     </g>
    </g>
    <g id="patch_8">
     <path d="M 553.25625 72.834688 
L 573.25625 72.834688 
L 573.25625 65.834688 
L 553.25625 65.834688 
z
" style="fill: #808080; fill-opacity: 0.2; stroke: #808080; stroke-opacity: 0.2; stroke-linejoin: miter"/>
    </g>
    <g id="text_18">
     <!-- ±2 Std Dev -->
     <g transform="translate(581.25625 72.834688) scale(0.1 -0.1)">
      <defs>
       <path id="DejaVuSans-b1" d="M 2944 4013 
L 2944 2803 
L 4684 2803 
L 4684 2272 
L 2944 2272 
L 2944 1063 
L 2419 1063 
L 2419 2272 
L 678 2272 
L 678 2803 
L 2419 2803 
L 2419 4013 
L 2944 4013 
z
M 678 531 
L 4684 531 
L 4684 0 
L 678 0 
L 678 531 
z
" transform="scale(0.015625)"/>
       <path id="DejaVuSans-53" d="M 3425 4513 
L 3425 3897 
Q 3066 4069 2747 4153 
Q 2428 4238 2131 4238 
Q 1616 4238 1336 4038 
Q 1056 3838 1056 3469 
Q 1056 3159 1242 3001 
Q 1428 2844 1947 2747 
L 2328 2669 
Q 3034 2534 3370 2195 
Q 3706 1856 3706 1288 
Q 3706 609 3251 259 
Q 2797 -91 1919 -91 
Q 1588 -91 1214 -16 
Q 841 59 441 206 
L 441 856 
Q 825 641 1194 531 
Q 1563 422 1919 422 
Q 2459 422 2753 634 
Q 3047 847 3047 1241 
Q 3047 1584 2836 1778 
Q 2625 1972 2144 2069 
L 1759 2144 
Q 1053 2284 737 2584 
Q 422 2884 422 3419 
Q 422 4038 858 4394 
Q 1294 4750 2059 4750 
Q 2388 4750 2728 4690 
Q 3069 4631 3425 4513 
z
" transform="scale(0.015625)"/>
       <path id="DejaVuSans-44" d="M 1259 4147 
L 1259 519 
L 2022 519 
Q 2988 519 3436 956 
Q 3884 1394 3884 2338 
Q 3884 3275 3436 3711 
Q 2988 4147 2022 4147 
L 1259 4147 
z
M 628 4666 
L 1925 4666 
Q 3281 4666 3915 4102 
Q 4550 3538 4550 2338 
Q 4550 1131 3912 565 
Q 3275 0 1925 0 
L 628 0 
L 628 4666 
z
" transform="scale(0.015625)"/>
      </defs>
      <use xlink:href="#DejaVuSans-b1"/>
      <use xlink:href="#DejaVuSans-32" transform="translate(83.789062 0)"/>
      <use xlink:href="#DejaVuSans-20" transform="translate(147.412109 0)"/>
      <use xlink:href="#DejaVuSans-53" transform="translate(179.199219 0)"/>
      <use xlink:href="#DejaVuSans-74" transform="translate(242.675781 0)"/>
      <use xlink:href="#DejaVuSans-64" transform="translate(281.884766 0)"/>
      <use xlink:href="#DejaVuSans-20" transform="translate(345.361328 0)"/>
      <use xlink:href="#DejaVuSans-44" transform="translate(377.148438 0)"/>
      <use xlink:href="#DejaVuSans-65" transform="translate(454.150391 0)"/>
      <use xlink:href="#DejaVuSans-76" transform="translate(515.673828 0)"/>
     </g>
    </g>
   </g>
  </g>
 </g>
 <defs>
  <clipPath id="p2dc8c8e0b3">
   <rect x="71.84" y="26.88" width="637.36" height="219.16"/>
  </clipPath>
 </defs>
</svg>
