<?xml version="1.0" encoding="utf-8" standalone="no"?>
<!DOCTYPE svg PUBLIC "-//W3C//DTD SVG 1.1//EN"
  "http://www.w3.org/Graphics/SVG/1.1/DTD/svg11.dtd">
<svg xmlns:xlink="http://www.w3.org/1999/xlink" width="720pt" height="288pt" viewBox="0 0 720 288" xmlns="http://www.w3.org/2000/svg" version="1.1">
 <metadata>
  <rdf:RDF xmlns:dc="http://purl.org/dc/elements/1.1/" xmlns:cc="http://creativecommons.org/ns#" xmlns:rdf="http://www.w3.org/1999/02/22-rdf-syntax-ns#">
   <cc:Work>
    <dc:type rdf:resource="http://purl.org/dc/dcmitype/StillImage"/>
    <dc:date>2025-06-05T22:14:36.900418</dc:date>
    <dc:format>image/svg+xml</dc:format>
    <dc:creator>
     <cc:Agent>
      <dc:title>Matplotlib v3.10.3, https://matplotlib.org/</dc:title>
     </cc:Agent>
    </dc:creator>
   </cc:Work>
  </rdf:RDF>
 </metadata>
 <defs>
  <style type="text/css">*{stroke-linejoin: round; stroke-linecap: butt}</style>
 </defs>
 <g id="figure_1">
  <g id="patch_1">
   <path d="M 0 288 
L 720 288 
L 720 0 
L 0 0 
z
" style="fill: #ffffff"/>
  </g>
  <g id="axes_1">
   <g id="patch_2">
    <path d="M 53.93 246.04 
L 687.453625 246.04 
L 687.453625 26.88 
L 53.93 26.88 
z
" style="fill: #ffffff"/>
   </g>
   <g id="FillBetweenPolyCollection_1">
    <path d="M 82.726528 79.398366 
L 82.726528 162.106256 
L 86.2383 165.368003 
L 89.750072 166.928902 
L 93.261844 167.437135 
L 96.773615 174.499301 
L 100.285387 174.270286 
L 103.797159 175.945051 
L 107.308931 174.919234 
L 110.820702 170.383193 
L 114.332474 175.702156 
L 117.844246 172.852813 
L 121.356018 174.949728 
L 124.86779 171.771218 
L 128.379561 170.541394 
L 131.891333 170.964299 
L 135.403105 172.455497 
L 138.914877 173.403861 
L 142.426648 172.696444 
L 145.93842 177.860559 
L 149.450192 178.654213 
L 152.961964 176.809748 
L 156.473735 173.317242 
L 159.985507 176.737339 
L 163.497279 173.438729 
L 167.009051 174.935495 
L 170.520822 173.099685 
L 174.032594 168.917784 
L 177.544366 170.716059 
L 181.056138 174.167279 
L 184.567909 171.41192 
L 188.079681 169.650673 
L 191.591453 173.916038 
L 195.103225 172.969967 
L 198.614996 174.35311 
L 202.126768 174.056978 
L 205.63854 177.582477 
L 209.150312 172.810386 
L 212.662083 171.764286 
L 216.173855 169.991536 
L 219.685627 170.110856 
L 223.197399 171.78267 
L 226.709171 170.995877 
L 230.220942 167.679063 
L 233.732714 162.89013 
L 237.244486 163.622439 
L 240.756258 162.551372 
L 244.268029 159.660636 
L 247.779801 160.341641 
L 251.291573 165.002021 
L 254.803345 165.967487 
L 258.315116 165.954154 
L 261.826888 164.618838 
L 265.33866 143.551083 
L 268.850432 144.541005 
L 272.362203 144.287943 
L 275.873975 144.356038 
L 279.385747 164.731916 
L 282.897519 165.037663 
L 286.40929 164.367929 
L 289.921062 165.125966 
L 293.432834 163.993722 
L 296.944606 166.618535 
L 300.456377 163.474935 
L 303.968149 170.789849 
L 307.479921 168.799385 
L 310.991693 168.82429 
L 314.503464 169.040733 
L 318.015236 169.928098 
L 321.527008 168.926888 
L 325.03878 161.533789 
L 328.550552 161.254403 
L 332.062323 164.996147 
L 335.574095 162.704573 
L 339.085867 160.479048 
L 342.597639 159.955711 
L 346.10941 160.091675 
L 349.621182 158.276771 
L 353.132954 161.091854 
L 356.644726 163.011749 
L 360.156497 162.944001 
L 363.668269 165.015624 
L 367.180041 163.615515 
L 370.691813 167.639699 
L 374.203584 167.416074 
L 377.715356 166.693458 
L 381.227128 167.73759 
L 384.7389 146.034608 
L 388.250671 171.090101 
L 391.762443 171.757692 
L 395.274215 168.528492 
L 398.785987 164.277927 
L 402.297758 161.250973 
L 405.80953 160.983031 
L 409.321302 162.30851 
L 412.833074 164.585946 
L 416.344846 165.45102 
L 419.856617 166.573938 
L 423.368389 169.590516 
L 426.880161 170.123279 
L 430.391933 170.12199 
L 433.903704 148.865728 
L 437.415476 150.023329 
L 440.927248 150.341052 
L 444.43902 150.563189 
L 447.950791 176.917964 
L 451.462563 180.05687 
L 454.974335 177.715578 
L 458.486107 174.496956 
L 461.997878 173.658504 
L 465.50965 170.997909 
L 469.021422 169.13454 
L 472.533194 172.476777 
L 476.044965 170.531804 
L 479.556737 171.209801 
L 483.068509 171.825424 
L 486.580281 171.044769 
L 490.092052 173.350647 
L 493.603824 170.919608 
L 497.115596 173.212085 
L 500.627368 174.594289 
L 504.139139 171.031876 
L 507.650911 172.48895 
L 511.162683 171.15038 
L 514.674455 169.514511 
L 518.186227 167.226577 
L 521.697998 166.761784 
L 525.20977 168.68319 
L 528.721542 171.898959 
L 532.233314 170.808192 
L 535.745085 172.468631 
L 539.256857 173.872892 
L 542.768629 176.105614 
L 546.280401 176.760523 
L 549.792172 173.677855 
L 553.303944 172.205282 
L 556.815716 175.031463 
L 560.327488 176.422779 
L 563.839259 177.352317 
L 567.351031 175.829328 
L 570.862803 175.792272 
L 574.374575 189.144174 
L 577.886346 189.660891 
L 581.398118 191.068968 
L 584.90989 191.456095 
L 588.421662 191.726722 
L 591.933433 189.113234 
L 595.445205 190.537024 
L 598.956977 211.772954 
L 602.468749 214.13399 
L 605.98052 212.832357 
L 605.98052 96.381186 
L 605.98052 96.381186 
L 602.468749 55.729027 
L 598.956977 56.78922 
L 595.445205 61.894686 
L 591.933433 63.318477 
L 588.421662 63.046507 
L 584.90989 61.560995 
L 581.398118 61.167615 
L 577.886346 63.161072 
L 574.374575 65.043675 
L 570.862803 72.959908 
L 567.351031 71.919345 
L 563.839259 71.399864 
L 560.327488 72.329401 
L 556.815716 72.438458 
L 553.303944 73.536374 
L 549.792172 72.454055 
L 546.280401 78.858254 
L 542.768629 73.46424 
L 539.256857 71.534261 
L 535.745085 72.938522 
L 532.233314 73.985707 
L 528.721542 73.285193 
L 525.20977 76.500962 
L 521.697998 77.920614 
L 518.186227 78.069076 
L 514.674455 76.617399 
L 511.162683 75.817786 
L 507.650911 74.925219 
L 504.139139 74.486778 
L 500.627368 72.485378 
L 497.115596 72.41807 
L 493.603824 73.316786 
L 490.092052 72.223758 
L 486.580281 74.027882 
L 483.068509 74.752489 
L 479.556737 83.563428 
L 476.044965 74.763849 
L 472.533194 72.707375 
L 469.021422 75.046104 
L 465.50965 74.130492 
L 461.997878 72.696407 
L 458.486107 71.913706 
L 454.974335 78.033283 
L 451.462563 76.667625 
L 447.950791 71.05371 
L 444.43902 81.965611 
L 440.927248 82.578001 
L 437.415476 83.416061 
L 433.903704 84.963916 
L 430.391933 76.901927 
L 426.880161 76.844887 
L 423.368389 77.712153 
L 419.856617 79.613722 
L 416.344846 80.067635 
L 412.833074 79.706198 
L 409.321302 80.534123 
L 405.80953 80.29859 
L 402.297758 78.469635 
L 398.785987 76.390438 
L 395.274215 73.087631 
L 391.762443 73.482211 
L 388.250671 76.547071 
L 384.7389 87.404783 
L 381.227128 77.502312 
L 377.715356 77.152683 
L 374.203584 75.928313 
L 370.691813 81.149648 
L 367.180041 79.059867 
L 363.668269 78.774767 
L 360.156497 79.341127 
L 356.644726 79.44063 
L 353.132954 81.304775 
L 349.621182 82.057092 
L 346.10941 80.799692 
L 342.597639 80.935656 
L 339.085867 80.412319 
L 335.574095 78.298295 
L 332.062323 80.801259 
L 328.550552 78.354704 
L 325.03878 78.242569 
L 321.527008 77.651025 
L 318.015236 70.600892 
L 314.503464 71.163046 
L 310.991693 70.208729 
L 307.479921 70.10355 
L 303.968149 69.544014 
L 300.456377 76.970429 
L 296.944606 74.440084 
L 293.432834 75.392384 
L 289.921062 75.6539 
L 286.40929 75.798683 
L 282.897519 75.686453 
L 279.385747 75.769198 
L 275.873975 83.229555 
L 272.362203 82.777313 
L 268.850432 84.085264 
L 265.33866 86.115861 
L 261.826888 78.446797 
L 258.315116 77.334483 
L 254.803345 77.767153 
L 251.291573 78.84412 
L 247.779801 82.054988 
L 244.268029 83.404999 
L 240.756258 80.737264 
L 237.244486 79.889199 
L 233.732714 81.067512 
L 230.220942 78.174095 
L 226.709171 75.136032 
L 223.197399 73.12273 
L 219.685627 74.794544 
L 216.173855 75.471368 
L 212.662083 76.207388 
L 209.150312 77.725809 
L 205.63854 78.751765 
L 202.126768 77.538475 
L 198.614996 77.019341 
L 195.103225 78.346734 
L 191.591453 81.572655 
L 188.079681 81.052773 
L 184.567909 80.573787 
L 181.056138 83.858059 
L 177.544366 80.489141 
L 174.032594 81.56266 
L 170.520822 78.495768 
L 167.009051 77.551966 
L 163.497279 78.76998 
L 159.985507 76.140375 
L 156.473735 77.107452 
L 152.961964 75.510461 
L 149.450192 80.737012 
L 145.93842 75.630409 
L 142.426648 77.616749 
L 138.914877 77.689838 
L 135.403105 76.742687 
L 131.891333 78.401137 
L 128.379561 79.102794 
L 124.86779 78.541975 
L 121.356018 81.124345 
L 117.844246 78.185136 
L 114.332474 80.111748 
L 110.820702 76.919476 
L 107.308931 78.943405 
L 103.797159 76.746828 
L 100.285387 77.771171 
L 96.773615 78.062494 
L 93.261844 77.412514 
L 89.750072 78.143749 
L 86.2383 78.255136 
L 82.726528 79.398366 
z
" clip-path="url(#pccbf7a24ce)" style="fill: #808080; fill-opacity: 0.2; stroke: #808080; stroke-opacity: 0.2"/>
    <path d="M 616.515836 67.07971 
L 616.515836 209.937948 
L 620.027608 234.344526 
L 623.539379 233.809364 
L 627.051151 234.991118 
L 630.562923 236.078182 
L 630.562923 36.841818 
L 630.562923 36.841818 
L 627.051151 38.514261 
L 623.539379 43.403421 
L 620.027608 42.282879 
L 616.515836 67.07971 
z
" clip-path="url(#pccbf7a24ce)" style="fill: #808080; fill-opacity: 0.2; stroke: #808080; stroke-opacity: 0.2"/>
   </g>
   <g id="matplotlib.axis_1">
    <g id="xtick_1">
     <g id="line2d_1">
      <defs>
       <path id="m1930e43dfe" d="M 0 0 
L 0 3.5 
" style="stroke: #000000; stroke-width: 0.8"/>
      </defs>
      <g>
       <use xlink:href="#m1930e43dfe" x="96.773615" y="246.04" style="stroke: #000000; stroke-width: 0.8"/>
      </g>
     </g>
     <g id="text_1">
      <!-- 06-03 00 -->
      <g transform="translate(74.293147 260.638438) scale(0.1 -0.1)">
       <defs>
        <path id="DejaVuSans-30" d="M 2034 4250 
Q 1547 4250 1301 3770 
Q 1056 3291 1056 2328 
Q 1056 1369 1301 889 
Q 1547 409 2034 409 
Q 2525 409 2770 889 
Q 3016 1369 3016 2328 
Q 3016 3291 2770 3770 
Q 2525 4250 2034 4250 
z
M 2034 4750 
Q 2819 4750 3233 4129 
Q 3647 3509 3647 2328 
Q 3647 1150 3233 529 
Q 2819 -91 2034 -91 
Q 1250 -91 836 529 
Q 422 1150 422 2328 
Q 422 3509 836 4129 
Q 1250 4750 2034 4750 
z
" transform="scale(0.015625)"/>
        <path id="DejaVuSans-36" d="M 2113 2584 
Q 1688 2584 1439 2293 
Q 1191 2003 1191 1497 
Q 1191 994 1439 701 
Q 1688 409 2113 409 
Q 2538 409 2786 701 
Q 3034 994 3034 1497 
Q 3034 2003 2786 2293 
Q 2538 2584 2113 2584 
z
M 3366 4563 
L 3366 3988 
Q 3128 4100 2886 4159 
Q 2644 4219 2406 4219 
Q 1781 4219 1451 3797 
Q 1122 3375 1075 2522 
Q 1259 2794 1537 2939 
Q 1816 3084 2150 3084 
Q 2853 3084 3261 2657 
Q 3669 2231 3669 1497 
Q 3669 778 3244 343 
Q 2819 -91 2113 -91 
Q 1303 -91 875 529 
Q 447 1150 447 2328 
Q 447 3434 972 4092 
Q 1497 4750 2381 4750 
Q 2619 4750 2861 4703 
Q 3103 4656 3366 4563 
z
" transform="scale(0.015625)"/>
        <path id="DejaVuSans-2d" d="M 313 2009 
L 1997 2009 
L 1997 1497 
L 313 1497 
L 313 2009 
z
" transform="scale(0.015625)"/>
        <path id="DejaVuSans-33" d="M 2597 2516 
Q 3050 2419 3304 2112 
Q 3559 1806 3559 1356 
Q 3559 666 3084 287 
Q 2609 -91 1734 -91 
Q 1441 -91 1130 -33 
Q 819 25 488 141 
L 488 750 
Q 750 597 1062 519 
Q 1375 441 1716 441 
Q 2309 441 2620 675 
Q 2931 909 2931 1356 
Q 2931 1769 2642 2001 
Q 2353 2234 1838 2234 
L 1294 2234 
L 1294 2753 
L 1863 2753 
Q 2328 2753 2575 2939 
Q 2822 3125 2822 3475 
Q 2822 3834 2567 4026 
Q 2313 4219 1838 4219 
Q 1578 4219 1281 4162 
Q 984 4106 628 3988 
L 628 4550 
Q 988 4650 1302 4700 
Q 1616 4750 1894 4750 
Q 2613 4750 3031 4423 
Q 3450 4097 3450 3541 
Q 3450 3153 3228 2886 
Q 3006 2619 2597 2516 
z
" transform="scale(0.015625)"/>
        <path id="DejaVuSans-20" transform="scale(0.015625)"/>
       </defs>
       <use xlink:href="#DejaVuSans-30"/>
       <use xlink:href="#DejaVuSans-36" transform="translate(63.623047 0)"/>
       <use xlink:href="#DejaVuSans-2d" transform="translate(127.246094 0)"/>
       <use xlink:href="#DejaVuSans-30" transform="translate(163.330078 0)"/>
       <use xlink:href="#DejaVuSans-33" transform="translate(226.953125 0)"/>
       <use xlink:href="#DejaVuSans-20" transform="translate(290.576172 0)"/>
       <use xlink:href="#DejaVuSans-30" transform="translate(322.363281 0)"/>
       <use xlink:href="#DejaVuSans-30" transform="translate(385.986328 0)"/>
      </g>
     </g>
    </g>
    <g id="xtick_2">
     <g id="line2d_2">
      <g>
       <use xlink:href="#m1930e43dfe" x="181.056138" y="246.04" style="stroke: #000000; stroke-width: 0.8"/>
      </g>
     </g>
     <g id="text_2">
      <!-- 06-03 12 -->
      <g transform="translate(158.575669 260.638438) scale(0.1 -0.1)">
       <defs>
        <path id="DejaVuSans-31" d="M 794 531 
L 1825 531 
L 1825 4091 
L 703 3866 
L 703 4441 
L 1819 4666 
L 2450 4666 
L 2450 531 
L 3481 531 
L 3481 0 
L 794 0 
L 794 531 
z
" transform="scale(0.015625)"/>
        <path id="DejaVuSans-32" d="M 1228 531 
L 3431 531 
L 3431 0 
L 469 0 
L 469 531 
Q 828 903 1448 1529 
Q 2069 2156 2228 2338 
Q 2531 2678 2651 2914 
Q 2772 3150 2772 3378 
Q 2772 3750 2511 3984 
Q 2250 4219 1831 4219 
Q 1534 4219 1204 4116 
Q 875 4013 500 3803 
L 500 4441 
Q 881 4594 1212 4672 
Q 1544 4750 1819 4750 
Q 2544 4750 2975 4387 
Q 3406 4025 3406 3419 
Q 3406 3131 3298 2873 
Q 3191 2616 2906 2266 
Q 2828 2175 2409 1742 
Q 1991 1309 1228 531 
z
" transform="scale(0.015625)"/>
       </defs>
       <use xlink:href="#DejaVuSans-30"/>
       <use xlink:href="#DejaVuSans-36" transform="translate(63.623047 0)"/>
       <use xlink:href="#DejaVuSans-2d" transform="translate(127.246094 0)"/>
       <use xlink:href="#DejaVuSans-30" transform="translate(163.330078 0)"/>
       <use xlink:href="#DejaVuSans-33" transform="translate(226.953125 0)"/>
       <use xlink:href="#DejaVuSans-20" transform="translate(290.576172 0)"/>
       <use xlink:href="#DejaVuSans-31" transform="translate(322.363281 0)"/>
       <use xlink:href="#DejaVuSans-32" transform="translate(385.986328 0)"/>
      </g>
     </g>
    </g>
    <g id="xtick_3">
     <g id="line2d_3">
      <g>
       <use xlink:href="#m1930e43dfe" x="265.33866" y="246.04" style="stroke: #000000; stroke-width: 0.8"/>
      </g>
     </g>
     <g id="text_3">
      <!-- 06-04 00 -->
      <g transform="translate(242.858191 260.638438) scale(0.1 -0.1)">
       <defs>
        <path id="DejaVuSans-34" d="M 2419 4116 
L 825 1625 
L 2419 1625 
L 2419 4116 
z
M 2253 4666 
L 3047 4666 
L 3047 1625 
L 3713 1625 
L 3713 1100 
L 3047 1100 
L 3047 0 
L 2419 0 
L 2419 1100 
L 313 1100 
L 313 1709 
L 2253 4666 
z
" transform="scale(0.015625)"/>
       </defs>
       <use xlink:href="#DejaVuSans-30"/>
       <use xlink:href="#DejaVuSans-36" transform="translate(63.623047 0)"/>
       <use xlink:href="#DejaVuSans-2d" transform="translate(127.246094 0)"/>
       <use xlink:href="#DejaVuSans-30" transform="translate(163.330078 0)"/>
       <use xlink:href="#DejaVuSans-34" transform="translate(226.953125 0)"/>
       <use xlink:href="#DejaVuSans-20" transform="translate(290.576172 0)"/>
       <use xlink:href="#DejaVuSans-30" transform="translate(322.363281 0)"/>
       <use xlink:href="#DejaVuSans-30" transform="translate(385.986328 0)"/>
      </g>
     </g>
    </g>
    <g id="xtick_4">
     <g id="line2d_4">
      <g>
       <use xlink:href="#m1930e43dfe" x="349.621182" y="246.04" style="stroke: #000000; stroke-width: 0.8"/>
      </g>
     </g>
     <g id="text_4">
      <!-- 06-04 12 -->
      <g transform="translate(327.140713 260.638438) scale(0.1 -0.1)">
       <use xlink:href="#DejaVuSans-30"/>
       <use xlink:href="#DejaVuSans-36" transform="translate(63.623047 0)"/>
       <use xlink:href="#DejaVuSans-2d" transform="translate(127.246094 0)"/>
       <use xlink:href="#DejaVuSans-30" transform="translate(163.330078 0)"/>
       <use xlink:href="#DejaVuSans-34" transform="translate(226.953125 0)"/>
       <use xlink:href="#DejaVuSans-20" transform="translate(290.576172 0)"/>
       <use xlink:href="#DejaVuSans-31" transform="translate(322.363281 0)"/>
       <use xlink:href="#DejaVuSans-32" transform="translate(385.986328 0)"/>
      </g>
     </g>
    </g>
    <g id="xtick_5">
     <g id="line2d_5">
      <g>
       <use xlink:href="#m1930e43dfe" x="433.903704" y="246.04" style="stroke: #000000; stroke-width: 0.8"/>
      </g>
     </g>
     <g id="text_5">
      <!-- 06-05 00 -->
      <g transform="translate(411.423236 260.638438) scale(0.1 -0.1)">
       <defs>
        <path id="DejaVuSans-35" d="M 691 4666 
L 3169 4666 
L 3169 4134 
L 1269 4134 
L 1269 2991 
Q 1406 3038 1543 3061 
Q 1681 3084 1819 3084 
Q 2600 3084 3056 2656 
Q 3513 2228 3513 1497 
Q 3513 744 3044 326 
Q 2575 -91 1722 -91 
Q 1428 -91 1123 -41 
Q 819 9 494 109 
L 494 744 
Q 775 591 1075 516 
Q 1375 441 1709 441 
Q 2250 441 2565 725 
Q 2881 1009 2881 1497 
Q 2881 1984 2565 2268 
Q 2250 2553 1709 2553 
Q 1456 2553 1204 2497 
Q 953 2441 691 2322 
L 691 4666 
z
" transform="scale(0.015625)"/>
       </defs>
       <use xlink:href="#DejaVuSans-30"/>
       <use xlink:href="#DejaVuSans-36" transform="translate(63.623047 0)"/>
       <use xlink:href="#DejaVuSans-2d" transform="translate(127.246094 0)"/>
       <use xlink:href="#DejaVuSans-30" transform="translate(163.330078 0)"/>
       <use xlink:href="#DejaVuSans-35" transform="translate(226.953125 0)"/>
       <use xlink:href="#DejaVuSans-20" transform="translate(290.576172 0)"/>
       <use xlink:href="#DejaVuSans-30" transform="translate(322.363281 0)"/>
       <use xlink:href="#DejaVuSans-30" transform="translate(385.986328 0)"/>
      </g>
     </g>
    </g>
    <g id="xtick_6">
     <g id="line2d_6">
      <g>
       <use xlink:href="#m1930e43dfe" x="518.186227" y="246.04" style="stroke: #000000; stroke-width: 0.8"/>
      </g>
     </g>
     <g id="text_6">
      <!-- 06-05 12 -->
      <g transform="translate(495.705758 260.638438) scale(0.1 -0.1)">
       <use xlink:href="#DejaVuSans-30"/>
       <use xlink:href="#DejaVuSans-36" transform="translate(63.623047 0)"/>
       <use xlink:href="#DejaVuSans-2d" transform="translate(127.246094 0)"/>
       <use xlink:href="#DejaVuSans-30" transform="translate(163.330078 0)"/>
       <use xlink:href="#DejaVuSans-35" transform="translate(226.953125 0)"/>
       <use xlink:href="#DejaVuSans-20" transform="translate(290.576172 0)"/>
       <use xlink:href="#DejaVuSans-31" transform="translate(322.363281 0)"/>
       <use xlink:href="#DejaVuSans-32" transform="translate(385.986328 0)"/>
      </g>
     </g>
    </g>
    <g id="xtick_7">
     <g id="line2d_7">
      <g>
       <use xlink:href="#m1930e43dfe" x="602.468749" y="246.04" style="stroke: #000000; stroke-width: 0.8"/>
      </g>
     </g>
     <g id="text_7">
      <!-- 06-06 00 -->
      <g transform="translate(579.98828 260.638438) scale(0.1 -0.1)">
       <use xlink:href="#DejaVuSans-30"/>
       <use xlink:href="#DejaVuSans-36" transform="translate(63.623047 0)"/>
       <use xlink:href="#DejaVuSans-2d" transform="translate(127.246094 0)"/>
       <use xlink:href="#DejaVuSans-30" transform="translate(163.330078 0)"/>
       <use xlink:href="#DejaVuSans-36" transform="translate(226.953125 0)"/>
       <use xlink:href="#DejaVuSans-20" transform="translate(290.576172 0)"/>
       <use xlink:href="#DejaVuSans-30" transform="translate(322.363281 0)"/>
       <use xlink:href="#DejaVuSans-30" transform="translate(385.986328 0)"/>
      </g>
     </g>
    </g>
    <g id="xtick_8">
     <g id="line2d_8">
      <g>
       <use xlink:href="#m1930e43dfe" x="686.751271" y="246.04" style="stroke: #000000; stroke-width: 0.8"/>
      </g>
     </g>
     <g id="text_8">
      <!-- 06-06 12 -->
      <g transform="translate(664.270802 260.638438) scale(0.1 -0.1)">
       <use xlink:href="#DejaVuSans-30"/>
       <use xlink:href="#DejaVuSans-36" transform="translate(63.623047 0)"/>
       <use xlink:href="#DejaVuSans-2d" transform="translate(127.246094 0)"/>
       <use xlink:href="#DejaVuSans-30" transform="translate(163.330078 0)"/>
       <use xlink:href="#DejaVuSans-36" transform="translate(226.953125 0)"/>
       <use xlink:href="#DejaVuSans-20" transform="translate(290.576172 0)"/>
       <use xlink:href="#DejaVuSans-31" transform="translate(322.363281 0)"/>
       <use xlink:href="#DejaVuSans-32" transform="translate(385.986328 0)"/>
      </g>
     </g>
    </g>
    <g id="text_9">
     <!-- Tijd -->
     <g transform="translate(361.841813 274.316562) scale(0.1 -0.1)">
      <defs>
       <path id="DejaVuSans-54" d="M -19 4666 
L 3928 4666 
L 3928 4134 
L 2272 4134 
L 2272 0 
L 1638 0 
L 1638 4134 
L -19 4134 
L -19 4666 
z
" transform="scale(0.015625)"/>
       <path id="DejaVuSans-69" d="M 603 3500 
L 1178 3500 
L 1178 0 
L 603 0 
L 603 3500 
z
M 603 4863 
L 1178 4863 
L 1178 4134 
L 603 4134 
L 603 4863 
z
" transform="scale(0.015625)"/>
       <path id="DejaVuSans-6a" d="M 603 3500 
L 1178 3500 
L 1178 -63 
Q 1178 -731 923 -1031 
Q 669 -1331 103 -1331 
L -116 -1331 
L -116 -844 
L 38 -844 
Q 366 -844 484 -692 
Q 603 -541 603 -63 
L 603 3500 
z
M 603 4863 
L 1178 4863 
L 1178 4134 
L 603 4134 
L 603 4863 
z
" transform="scale(0.015625)"/>
       <path id="DejaVuSans-64" d="M 2906 2969 
L 2906 4863 
L 3481 4863 
L 3481 0 
L 2906 0 
L 2906 525 
Q 2725 213 2448 61 
Q 2172 -91 1784 -91 
Q 1150 -91 751 415 
Q 353 922 353 1747 
Q 353 2572 751 3078 
Q 1150 3584 1784 3584 
Q 2172 3584 2448 3432 
Q 2725 3281 2906 2969 
z
M 947 1747 
Q 947 1113 1208 752 
Q 1469 391 1925 391 
Q 2381 391 2643 752 
Q 2906 1113 2906 1747 
Q 2906 2381 2643 2742 
Q 2381 3103 1925 3103 
Q 1469 3103 1208 2742 
Q 947 2381 947 1747 
z
" transform="scale(0.015625)"/>
      </defs>
      <use xlink:href="#DejaVuSans-54"/>
      <use xlink:href="#DejaVuSans-69" transform="translate(57.958984 0)"/>
      <use xlink:href="#DejaVuSans-6a" transform="translate(85.742188 0)"/>
      <use xlink:href="#DejaVuSans-64" transform="translate(113.525391 0)"/>
     </g>
    </g>
   </g>
   <g id="matplotlib.axis_2">
    <g id="ytick_1">
     <g id="line2d_9">
      <defs>
       <path id="m8bf4c11628" d="M 0 0 
L -3.5 0 
" style="stroke: #000000; stroke-width: 0.8"/>
      </defs>
      <g>
       <use xlink:href="#m8bf4c11628" x="53.93" y="223.77914" style="stroke: #000000; stroke-width: 0.8"/>
      </g>
     </g>
     <g id="text_10">
      <!-- 25.0 -->
      <g transform="translate(24.664375 227.578359) scale(0.1 -0.1)">
       <defs>
        <path id="DejaVuSans-2e" d="M 684 794 
L 1344 794 
L 1344 0 
L 684 0 
L 684 794 
z
" transform="scale(0.015625)"/>
       </defs>
       <use xlink:href="#DejaVuSans-32"/>
       <use xlink:href="#DejaVuSans-35" transform="translate(63.623047 0)"/>
       <use xlink:href="#DejaVuSans-2e" transform="translate(127.246094 0)"/>
       <use xlink:href="#DejaVuSans-30" transform="translate(159.033203 0)"/>
      </g>
     </g>
    </g>
    <g id="ytick_2">
     <g id="line2d_10">
      <g>
       <use xlink:href="#m8bf4c11628" x="53.93" y="194.510155" style="stroke: #000000; stroke-width: 0.8"/>
      </g>
     </g>
     <g id="text_11">
      <!-- 27.5 -->
      <g transform="translate(24.664375 198.309373) scale(0.1 -0.1)">
       <defs>
        <path id="DejaVuSans-37" d="M 525 4666 
L 3525 4666 
L 3525 4397 
L 1831 0 
L 1172 0 
L 2766 4134 
L 525 4134 
L 525 4666 
z
" transform="scale(0.015625)"/>
       </defs>
       <use xlink:href="#DejaVuSans-32"/>
       <use xlink:href="#DejaVuSans-37" transform="translate(63.623047 0)"/>
       <use xlink:href="#DejaVuSans-2e" transform="translate(127.246094 0)"/>
       <use xlink:href="#DejaVuSans-35" transform="translate(159.033203 0)"/>
      </g>
     </g>
    </g>
    <g id="ytick_3">
     <g id="line2d_11">
      <g>
       <use xlink:href="#m8bf4c11628" x="53.93" y="165.241169" style="stroke: #000000; stroke-width: 0.8"/>
      </g>
     </g>
     <g id="text_12">
      <!-- 30.0 -->
      <g transform="translate(24.664375 169.040388) scale(0.1 -0.1)">
       <use xlink:href="#DejaVuSans-33"/>
       <use xlink:href="#DejaVuSans-30" transform="translate(63.623047 0)"/>
       <use xlink:href="#DejaVuSans-2e" transform="translate(127.246094 0)"/>
       <use xlink:href="#DejaVuSans-30" transform="translate(159.033203 0)"/>
      </g>
     </g>
    </g>
    <g id="ytick_4">
     <g id="line2d_12">
      <g>
       <use xlink:href="#m8bf4c11628" x="53.93" y="135.972184" style="stroke: #000000; stroke-width: 0.8"/>
      </g>
     </g>
     <g id="text_13">
      <!-- 32.5 -->
      <g transform="translate(24.664375 139.771402) scale(0.1 -0.1)">
       <use xlink:href="#DejaVuSans-33"/>
       <use xlink:href="#DejaVuSans-32" transform="translate(63.623047 0)"/>
       <use xlink:href="#DejaVuSans-2e" transform="translate(127.246094 0)"/>
       <use xlink:href="#DejaVuSans-35" transform="translate(159.033203 0)"/>
      </g>
     </g>
    </g>
    <g id="ytick_5">
     <g id="line2d_13">
      <g>
       <use xlink:href="#m8bf4c11628" x="53.93" y="106.703198" style="stroke: #000000; stroke-width: 0.8"/>
      </g>
     </g>
     <g id="text_14">
      <!-- 35.0 -->
      <g transform="translate(24.664375 110.502417) scale(0.1 -0.1)">
       <use xlink:href="#DejaVuSans-33"/>
       <use xlink:href="#DejaVuSans-35" transform="translate(63.623047 0)"/>
       <use xlink:href="#DejaVuSans-2e" transform="translate(127.246094 0)"/>
       <use xlink:href="#DejaVuSans-30" transform="translate(159.033203 0)"/>
      </g>
     </g>
    </g>
    <g id="ytick_6">
     <g id="line2d_14">
      <g>
       <use xlink:href="#m8bf4c11628" x="53.93" y="77.434212" style="stroke: #000000; stroke-width: 0.8"/>
      </g>
     </g>
     <g id="text_15">
      <!-- 37.5 -->
      <g transform="translate(24.664375 81.233431) scale(0.1 -0.1)">
       <use xlink:href="#DejaVuSans-33"/>
       <use xlink:href="#DejaVuSans-37" transform="translate(63.623047 0)"/>
       <use xlink:href="#DejaVuSans-2e" transform="translate(127.246094 0)"/>
       <use xlink:href="#DejaVuSans-35" transform="translate(159.033203 0)"/>
      </g>
     </g>
    </g>
    <g id="ytick_7">
     <g id="line2d_15">
      <g>
       <use xlink:href="#m8bf4c11628" x="53.93" y="48.165227" style="stroke: #000000; stroke-width: 0.8"/>
      </g>
     </g>
     <g id="text_16">
      <!-- 40.0 -->
      <g transform="translate(24.664375 51.964446) scale(0.1 -0.1)">
       <use xlink:href="#DejaVuSans-34"/>
       <use xlink:href="#DejaVuSans-30" transform="translate(63.623047 0)"/>
       <use xlink:href="#DejaVuSans-2e" transform="translate(127.246094 0)"/>
       <use xlink:href="#DejaVuSans-30" transform="translate(159.033203 0)"/>
      </g>
     </g>
    </g>
    <g id="text_17">
     <!-- Temperatuur (°C) -->
     <g transform="translate(18.584688 179.81625) rotate(-90) scale(0.1 -0.1)">
      <defs>
       <path id="DejaVuSans-65" d="M 3597 1894 
L 3597 1613 
L 953 1613 
Q 991 1019 1311 708 
Q 1631 397 2203 397 
Q 2534 397 2845 478 
Q 3156 559 3463 722 
L 3463 178 
Q 3153 47 2828 -22 
Q 2503 -91 2169 -91 
Q 1331 -91 842 396 
Q 353 884 353 1716 
Q 353 2575 817 3079 
Q 1281 3584 2069 3584 
Q 2775 3584 3186 3129 
Q 3597 2675 3597 1894 
z
M 3022 2063 
Q 3016 2534 2758 2815 
Q 2500 3097 2075 3097 
Q 1594 3097 1305 2825 
Q 1016 2553 972 2059 
L 3022 2063 
z
" transform="scale(0.015625)"/>
       <path id="DejaVuSans-6d" d="M 3328 2828 
Q 3544 3216 3844 3400 
Q 4144 3584 4550 3584 
Q 5097 3584 5394 3201 
Q 5691 2819 5691 2113 
L 5691 0 
L 5113 0 
L 5113 2094 
Q 5113 2597 4934 2840 
Q 4756 3084 4391 3084 
Q 3944 3084 3684 2787 
Q 3425 2491 3425 1978 
L 3425 0 
L 2847 0 
L 2847 2094 
Q 2847 2600 2669 2842 
Q 2491 3084 2119 3084 
Q 1678 3084 1418 2786 
Q 1159 2488 1159 1978 
L 1159 0 
L 581 0 
L 581 3500 
L 1159 3500 
L 1159 2956 
Q 1356 3278 1631 3431 
Q 1906 3584 2284 3584 
Q 2666 3584 2933 3390 
Q 3200 3197 3328 2828 
z
" transform="scale(0.015625)"/>
       <path id="DejaVuSans-70" d="M 1159 525 
L 1159 -1331 
L 581 -1331 
L 581 3500 
L 1159 3500 
L 1159 2969 
Q 1341 3281 1617 3432 
Q 1894 3584 2278 3584 
Q 2916 3584 3314 3078 
Q 3713 2572 3713 1747 
Q 3713 922 3314 415 
Q 2916 -91 2278 -91 
Q 1894 -91 1617 61 
Q 1341 213 1159 525 
z
M 3116 1747 
Q 3116 2381 2855 2742 
Q 2594 3103 2138 3103 
Q 1681 3103 1420 2742 
Q 1159 2381 1159 1747 
Q 1159 1113 1420 752 
Q 1681 391 2138 391 
Q 2594 391 2855 752 
Q 3116 1113 3116 1747 
z
" transform="scale(0.015625)"/>
       <path id="DejaVuSans-72" d="M 2631 2963 
Q 2534 3019 2420 3045 
Q 2306 3072 2169 3072 
Q 1681 3072 1420 2755 
Q 1159 2438 1159 1844 
L 1159 0 
L 581 0 
L 581 3500 
L 1159 3500 
L 1159 2956 
Q 1341 3275 1631 3429 
Q 1922 3584 2338 3584 
Q 2397 3584 2469 3576 
Q 2541 3569 2628 3553 
L 2631 2963 
z
" transform="scale(0.015625)"/>
       <path id="DejaVuSans-61" d="M 2194 1759 
Q 1497 1759 1228 1600 
Q 959 1441 959 1056 
Q 959 750 1161 570 
Q 1363 391 1709 391 
Q 2188 391 2477 730 
Q 2766 1069 2766 1631 
L 2766 1759 
L 2194 1759 
z
M 3341 1997 
L 3341 0 
L 2766 0 
L 2766 531 
Q 2569 213 2275 61 
Q 1981 -91 1556 -91 
Q 1019 -91 701 211 
Q 384 513 384 1019 
Q 384 1609 779 1909 
Q 1175 2209 1959 2209 
L 2766 2209 
L 2766 2266 
Q 2766 2663 2505 2880 
Q 2244 3097 1772 3097 
Q 1472 3097 1187 3025 
Q 903 2953 641 2809 
L 641 3341 
Q 956 3463 1253 3523 
Q 1550 3584 1831 3584 
Q 2591 3584 2966 3190 
Q 3341 2797 3341 1997 
z
" transform="scale(0.015625)"/>
       <path id="DejaVuSans-74" d="M 1172 4494 
L 1172 3500 
L 2356 3500 
L 2356 3053 
L 1172 3053 
L 1172 1153 
Q 1172 725 1289 603 
Q 1406 481 1766 481 
L 2356 481 
L 2356 0 
L 1766 0 
Q 1100 0 847 248 
Q 594 497 594 1153 
L 594 3053 
L 172 3053 
L 172 3500 
L 594 3500 
L 594 4494 
L 1172 4494 
z
" transform="scale(0.015625)"/>
       <path id="DejaVuSans-75" d="M 544 1381 
L 544 3500 
L 1119 3500 
L 1119 1403 
Q 1119 906 1312 657 
Q 1506 409 1894 409 
Q 2359 409 2629 706 
Q 2900 1003 2900 1516 
L 2900 3500 
L 3475 3500 
L 3475 0 
L 2900 0 
L 2900 538 
Q 2691 219 2414 64 
Q 2138 -91 1772 -91 
Q 1169 -91 856 284 
Q 544 659 544 1381 
z
M 1991 3584 
L 1991 3584 
z
" transform="scale(0.015625)"/>
       <path id="DejaVuSans-28" d="M 1984 4856 
Q 1566 4138 1362 3434 
Q 1159 2731 1159 2009 
Q 1159 1288 1364 580 
Q 1569 -128 1984 -844 
L 1484 -844 
Q 1016 -109 783 600 
Q 550 1309 550 2009 
Q 550 2706 781 3412 
Q 1013 4119 1484 4856 
L 1984 4856 
z
" transform="scale(0.015625)"/>
       <path id="DejaVuSans-b0" d="M 1600 4347 
Q 1350 4347 1178 4173 
Q 1006 4000 1006 3750 
Q 1006 3503 1178 3333 
Q 1350 3163 1600 3163 
Q 1850 3163 2022 3333 
Q 2194 3503 2194 3750 
Q 2194 3997 2020 4172 
Q 1847 4347 1600 4347 
z
M 1600 4750 
Q 1800 4750 1984 4673 
Q 2169 4597 2303 4453 
Q 2447 4313 2519 4134 
Q 2591 3956 2591 3750 
Q 2591 3338 2302 3052 
Q 2013 2766 1594 2766 
Q 1172 2766 890 3047 
Q 609 3328 609 3750 
Q 609 4169 896 4459 
Q 1184 4750 1600 4750 
z
" transform="scale(0.015625)"/>
       <path id="DejaVuSans-43" d="M 4122 4306 
L 4122 3641 
Q 3803 3938 3442 4084 
Q 3081 4231 2675 4231 
Q 1875 4231 1450 3742 
Q 1025 3253 1025 2328 
Q 1025 1406 1450 917 
Q 1875 428 2675 428 
Q 3081 428 3442 575 
Q 3803 722 4122 1019 
L 4122 359 
Q 3791 134 3420 21 
Q 3050 -91 2638 -91 
Q 1578 -91 968 557 
Q 359 1206 359 2328 
Q 359 3453 968 4101 
Q 1578 4750 2638 4750 
Q 3056 4750 3426 4639 
Q 3797 4528 4122 4306 
z
" transform="scale(0.015625)"/>
       <path id="DejaVuSans-29" d="M 513 4856 
L 1013 4856 
Q 1481 4119 1714 3412 
Q 1947 2706 1947 2009 
Q 1947 1309 1714 600 
Q 1481 -109 1013 -844 
L 513 -844 
Q 928 -128 1133 580 
Q 1338 1288 1338 2009 
Q 1338 2731 1133 3434 
Q 928 4138 513 4856 
z
" transform="scale(0.015625)"/>
      </defs>
      <use xlink:href="#DejaVuSans-54"/>
      <use xlink:href="#DejaVuSans-65" transform="translate(44.083984 0)"/>
      <use xlink:href="#DejaVuSans-6d" transform="translate(105.607422 0)"/>
      <use xlink:href="#DejaVuSans-70" transform="translate(203.019531 0)"/>
      <use xlink:href="#DejaVuSans-65" transform="translate(266.496094 0)"/>
      <use xlink:href="#DejaVuSans-72" transform="translate(328.019531 0)"/>
      <use xlink:href="#DejaVuSans-61" transform="translate(369.132812 0)"/>
      <use xlink:href="#DejaVuSans-74" transform="translate(430.412109 0)"/>
      <use xlink:href="#DejaVuSans-75" transform="translate(469.621094 0)"/>
      <use xlink:href="#DejaVuSans-75" transform="translate(533 0)"/>
      <use xlink:href="#DejaVuSans-72" transform="translate(596.378906 0)"/>
      <use xlink:href="#DejaVuSans-20" transform="translate(637.492188 0)"/>
      <use xlink:href="#DejaVuSans-28" transform="translate(669.279297 0)"/>
      <use xlink:href="#DejaVuSans-b0" transform="translate(708.292969 0)"/>
      <use xlink:href="#DejaVuSans-43" transform="translate(758.292969 0)"/>
      <use xlink:href="#DejaVuSans-29" transform="translate(828.117188 0)"/>
     </g>
    </g>
   </g>
   <g id="line2d_16">
    <path d="M 82.726528 95.580984 
L 86.2383 96.166363 
L 89.750072 96.94687 
L 93.261844 96.166363 
L 96.773615 96.94687 
L 100.285387 98.117629 
L 103.797159 98.507882 
L 107.308931 100.849401 
L 114.332474 104.361679 
L 117.844246 105.532439 
L 121.356018 104.361679 
L 124.86779 104.361679 
L 128.379561 106.117818 
L 131.891333 106.312945 
L 135.403105 105.142185 
L 138.914877 104.361679 
L 142.426648 104.361679 
L 145.93842 104.947059 
L 149.450192 103.971426 
L 152.961964 103.971426 
L 156.473735 104.361679 
L 159.985507 105.532439 
L 163.497279 105.922692 
L 167.009051 105.532439 
L 170.520822 104.751932 
L 174.032594 104.751932 
L 177.544366 106.117818 
L 184.567909 107.483704 
L 188.079681 109.825223 
L 191.591453 109.825223 
L 195.103225 109.044717 
L 198.614996 109.044717 
L 202.126768 111.386236 
L 205.63854 110.215476 
L 209.150312 109.825223 
L 212.662083 109.044717 
L 216.173855 109.630097 
L 219.685627 109.825223 
L 226.709171 109.044717 
L 230.220942 109.044717 
L 233.732714 108.264211 
L 237.244486 107.873957 
L 240.756258 106.703198 
L 244.268029 107.093451 
L 247.779801 105.922692 
L 251.291573 105.142185 
L 258.315116 102.800667 
L 265.33866 102.02016 
L 268.850432 99.678641 
L 272.362203 98.507882 
L 275.873975 99.288388 
L 279.385747 99.288388 
L 282.897519 100.849401 
L 286.40929 102.02016 
L 289.921062 103.776299 
L 293.432834 102.410413 
L 296.944606 103.19092 
L 300.456377 102.800667 
L 303.968149 103.19092 
L 310.991693 101.629907 
L 318.015236 102.410413 
L 321.527008 103.19092 
L 325.03878 103.776299 
L 328.550552 102.02016 
L 335.574095 103.19092 
L 339.085867 102.60554 
L 346.10941 102.60554 
L 349.621182 102.800667 
L 353.132954 102.02016 
L 360.156497 103.19092 
L 363.668269 105.532439 
L 367.180041 103.776299 
L 370.691813 103.19092 
L 374.203584 104.361679 
L 377.715356 104.947059 
L 381.227128 106.703198 
L 384.7389 107.873957 
L 388.250671 107.093451 
L 391.762443 106.703198 
L 395.274215 104.751932 
L 398.785987 103.971426 
L 402.297758 102.800667 
L 405.80953 104.751932 
L 409.321302 106.312945 
L 412.833074 106.703198 
L 419.856617 105.922692 
L 423.368389 106.312945 
L 426.880161 104.361679 
L 430.391933 104.751932 
L 433.903704 106.312945 
L 437.415476 106.312945 
L 440.927248 105.532439 
L 444.43902 104.361679 
L 451.462563 104.361679 
L 454.974335 105.532439 
L 458.486107 105.922692 
L 461.997878 105.532439 
L 465.50965 105.532439 
L 469.021422 104.751932 
L 472.533194 104.361679 
L 476.044965 105.922692 
L 479.556737 107.288578 
L 483.068509 107.483704 
L 486.580281 105.142185 
L 490.092052 104.751932 
L 493.603824 105.142185 
L 497.115596 106.703198 
L 500.627368 107.483704 
L 504.139139 107.873957 
L 507.650911 106.703198 
L 511.162683 106.703198 
L 514.674455 106.312945 
L 518.186227 107.093451 
L 521.697998 108.264211 
L 525.20977 107.483704 
L 528.721542 107.288578 
L 532.233314 107.483704 
L 535.745085 106.703198 
L 539.256857 107.873957 
L 546.280401 108.654464 
L 553.303944 108.264211 
L 556.815716 108.459337 
L 560.327488 111.386236 
L 563.839259 110.215476 
L 574.374575 109.044717 
L 577.886346 107.873957 
L 581.398118 107.093451 
L 584.90989 108.654464 
L 588.421662 110.605729 
L 591.933433 108.654464 
L 595.445205 107.093451 
L 616.515836 103.19092 
L 620.027608 104.361679 
L 623.539379 104.947059 
L 627.051151 102.02016 
L 630.562923 101.239654 
L 634.074695 102.800667 
L 637.586466 103.776299 
L 641.098238 105.142185 
L 644.61001 105.532439 
L 648.121782 106.312945 
L 651.633553 106.312945 
L 655.145325 107.873957 
L 658.657097 107.873957 
L 658.657097 107.873957 
" clip-path="url(#pccbf7a24ce)" style="fill: none; stroke: #1f77b4; stroke-width: 2; stroke-linecap: square"/>
   </g>
   <g id="line2d_17">
    <path d="M 82.726528 120.752311 
L 86.2383 121.81157 
L 89.750072 122.536325 
L 93.261844 122.424825 
L 96.773615 126.280897 
L 100.285387 126.020728 
L 103.797159 126.345939 
L 107.308931 126.931319 
L 110.820702 123.651334 
L 114.332474 127.906952 
L 117.844246 125.518974 
L 121.356018 128.037036 
L 124.86779 125.156597 
L 128.379561 124.822094 
L 135.403105 124.599092 
L 138.914877 125.54685 
L 142.426648 125.156597 
L 145.93842 126.745484 
L 149.450192 129.695612 
L 152.961964 126.160105 
L 156.473735 125.212347 
L 159.985507 126.438857 
L 163.497279 126.104354 
L 167.009051 126.24373 
L 174.032594 125.240222 
L 177.544366 125.6026 
L 181.056138 129.012669 
L 184.567909 125.992853 
L 188.079681 125.351723 
L 191.591453 127.744347 
L 195.103225 125.658351 
L 202.126768 125.797727 
L 205.63854 128.167121 
L 209.150312 125.268097 
L 216.173855 122.731452 
L 219.685627 122.4527 
L 223.197399 122.4527 
L 226.709171 123.065955 
L 230.220942 122.926579 
L 233.732714 121.978821 
L 237.244486 121.755819 
L 244.268029 121.532817 
L 247.779801 121.198315 
L 251.291573 121.923071 
L 254.803345 121.86732 
L 258.315116 121.644318 
L 261.826888 121.532817 
L 265.33866 114.833472 
L 268.850432 114.313134 
L 272.362203 113.532628 
L 275.873975 113.792797 
L 279.385747 120.250557 
L 282.897519 120.362058 
L 286.40929 120.083306 
L 289.921062 120.389933 
L 293.432834 119.693053 
L 296.944606 120.529309 
L 300.456377 120.222682 
L 303.968149 120.166931 
L 307.479921 119.451467 
L 310.991693 119.516509 
L 314.503464 120.101889 
L 318.015236 120.264495 
L 321.527008 123.288957 
L 325.03878 119.888179 
L 328.550552 119.804553 
L 332.062323 122.898703 
L 335.574095 120.501434 
L 342.597639 120.445684 
L 346.10941 120.445684 
L 349.621182 120.166931 
L 353.132954 121.198315 
L 356.644726 121.22619 
L 360.156497 121.142564 
L 363.668269 121.895195 
L 367.180041 121.337691 
L 370.691813 124.394674 
L 374.203584 121.672193 
L 377.715356 121.923071 
L 381.227128 122.619951 
L 384.7389 116.719695 
L 388.250671 123.818586 
L 391.762443 122.619951 
L 395.274215 120.808062 
L 402.297758 119.860304 
L 412.833074 122.146072 
L 416.344846 122.759327 
L 419.856617 123.09383 
L 423.368389 123.651334 
L 426.880161 123.484083 
L 430.391933 123.511958 
L 433.903704 116.914822 
L 444.43902 116.2644 
L 447.950791 123.985837 
L 451.462563 128.362247 
L 454.974335 127.874431 
L 458.486107 123.205331 
L 461.997878 123.177456 
L 465.50965 122.564201 
L 469.021422 122.090322 
L 472.533194 122.592076 
L 476.044965 122.647826 
L 479.556737 127.386614 
L 483.068509 123.288957 
L 486.580281 122.536325 
L 490.092052 122.787202 
L 493.603824 122.118197 
L 500.627368 123.539834 
L 504.139139 122.759327 
L 507.650911 123.707085 
L 511.162683 123.484083 
L 521.697998 122.341199 
L 525.20977 122.592076 
L 528.721542 122.592076 
L 532.233314 122.396949 
L 535.745085 122.703577 
L 539.256857 122.703577 
L 542.768629 124.784927 
L 546.280401 127.809389 
L 549.792172 123.065955 
L 553.303944 122.870828 
L 556.815716 123.73496 
L 560.327488 124.37609 
L 563.839259 124.37609 
L 567.351031 123.874336 
L 570.862803 124.37609 
L 574.374575 127.093925 
L 577.886346 126.410982 
L 581.398118 126.118292 
L 584.90989 126.508545 
L 588.421662 127.386614 
L 591.933433 126.215855 
L 595.445205 126.215855 
L 598.956977 134.281087 
L 602.468749 134.931509 
L 605.98052 154.606771 
L 609.492292 134.411171 
L 613.004064 135.191677 
L 616.515836 138.508829 
L 620.027608 138.313702 
L 623.539379 138.606392 
L 627.051151 136.75269 
L 630.562923 136.46 
L 634.074695 102.800667 
L 637.586466 103.776299 
L 641.098238 105.142185 
L 644.61001 105.532439 
L 648.121782 106.312945 
L 651.633553 106.312945 
L 655.145325 107.873957 
L 658.657097 107.873957 
L 658.657097 107.873957 
" clip-path="url(#pccbf7a24ce)" style="fill: none; stroke-dasharray: 5.55,2.4; stroke-dashoffset: 0; stroke: #808080; stroke-width: 1.5"/>
   </g>
   <g id="patch_3">
    <path d="M 53.93 246.04 
L 53.93 26.88 
" style="fill: none; stroke: #000000; stroke-width: 0.8; stroke-linejoin: miter; stroke-linecap: square"/>
   </g>
   <g id="patch_4">
    <path d="M 687.453625 246.04 
L 687.453625 26.88 
" style="fill: none; stroke: #000000; stroke-width: 0.8; stroke-linejoin: miter; stroke-linecap: square"/>
   </g>
   <g id="patch_5">
    <path d="M 53.93 246.04 
L 687.453625 246.04 
" style="fill: none; stroke: #000000; stroke-width: 0.8; stroke-linejoin: miter; stroke-linecap: square"/>
   </g>
   <g id="patch_6">
    <path d="M 53.93 26.88 
L 687.453625 26.88 
" style="fill: none; stroke: #000000; stroke-width: 0.8; stroke-linejoin: miter; stroke-linecap: square"/>
   </g>
   <g id="text_18">
    <!-- Temperatuur - v001/c00002/d001 -->
    <g transform="translate(269.769938 20.88) scale(0.12 -0.12)">
     <defs>
      <path id="DejaVuSans-76" d="M 191 3500 
L 800 3500 
L 1894 563 
L 2988 3500 
L 3597 3500 
L 2284 0 
L 1503 0 
L 191 3500 
z
" transform="scale(0.015625)"/>
      <path id="DejaVuSans-2f" d="M 1625 4666 
L 2156 4666 
L 531 -594 
L 0 -594 
L 1625 4666 
z
" transform="scale(0.015625)"/>
      <path id="DejaVuSans-63" d="M 3122 3366 
L 3122 2828 
Q 2878 2963 2633 3030 
Q 2388 3097 2138 3097 
Q 1578 3097 1268 2742 
Q 959 2388 959 1747 
Q 959 1106 1268 751 
Q 1578 397 2138 397 
Q 2388 397 2633 464 
Q 2878 531 3122 666 
L 3122 134 
Q 2881 22 2623 -34 
Q 2366 -91 2075 -91 
Q 1284 -91 818 406 
Q 353 903 353 1747 
Q 353 2603 823 3093 
Q 1294 3584 2113 3584 
Q 2378 3584 2631 3529 
Q 2884 3475 3122 3366 
z
" transform="scale(0.015625)"/>
     </defs>
     <use xlink:href="#DejaVuSans-54"/>
     <use xlink:href="#DejaVuSans-65" transform="translate(44.083984 0)"/>
     <use xlink:href="#DejaVuSans-6d" transform="translate(105.607422 0)"/>
     <use xlink:href="#DejaVuSans-70" transform="translate(203.019531 0)"/>
     <use xlink:href="#DejaVuSans-65" transform="translate(266.496094 0)"/>
     <use xlink:href="#DejaVuSans-72" transform="translate(328.019531 0)"/>
     <use xlink:href="#DejaVuSans-61" transform="translate(369.132812 0)"/>
     <use xlink:href="#DejaVuSans-74" transform="translate(430.412109 0)"/>
     <use xlink:href="#DejaVuSans-75" transform="translate(469.621094 0)"/>
     <use xlink:href="#DejaVuSans-75" transform="translate(533 0)"/>
     <use xlink:href="#DejaVuSans-72" transform="translate(596.378906 0)"/>
     <use xlink:href="#DejaVuSans-20" transform="translate(637.492188 0)"/>
     <use xlink:href="#DejaVuSans-2d" transform="translate(669.279297 0)"/>
     <use xlink:href="#DejaVuSans-20" transform="translate(705.363281 0)"/>
     <use xlink:href="#DejaVuSans-76" transform="translate(737.150391 0)"/>
     <use xlink:href="#DejaVuSans-30" transform="translate(796.330078 0)"/>
     <use xlink:href="#DejaVuSans-30" transform="translate(859.953125 0)"/>
     <use xlink:href="#DejaVuSans-31" transform="translate(923.576172 0)"/>
     <use xlink:href="#DejaVuSans-2f" transform="translate(987.199219 0)"/>
     <use xlink:href="#DejaVuSans-63" transform="translate(1020.890625 0)"/>
     <use xlink:href="#DejaVuSans-30" transform="translate(1075.871094 0)"/>
     <use xlink:href="#DejaVuSans-30" transform="translate(1139.494141 0)"/>
     <use xlink:href="#DejaVuSans-30" transform="translate(1203.117188 0)"/>
     <use xlink:href="#DejaVuSans-30" transform="translate(1266.740234 0)"/>
     <use xlink:href="#DejaVuSans-32" transform="translate(1330.363281 0)"/>
     <use xlink:href="#DejaVuSans-2f" transform="translate(1393.986328 0)"/>
     <use xlink:href="#DejaVuSans-64" transform="translate(1427.677734 0)"/>
     <use xlink:href="#DejaVuSans-30" transform="translate(1491.154297 0)"/>
     <use xlink:href="#DejaVuSans-30" transform="translate(1554.777344 0)"/>
     <use xlink:href="#DejaVuSans-31" transform="translate(1618.400391 0)"/>
    </g>
   </g>
   <g id="legend_1">
    <g id="patch_7">
     <path d="M 60.93 241.04 
L 211.87375 241.04 
Q 213.87375 241.04 213.87375 239.04 
L 213.87375 196.005625 
Q 213.87375 194.005625 211.87375 194.005625 
L 60.93 194.005625 
Q 58.93 194.005625 58.93 196.005625 
L 58.93 239.04 
Q 58.93 241.04 60.93 241.04 
z
" style="fill: #ffffff; opacity: 0.8; stroke: #cccccc; stroke-linejoin: miter"/>
    </g>
    <g id="line2d_18">
     <path d="M 62.93 202.104062 
L 72.93 202.104062 
L 82.93 202.104062 
" style="fill: none; stroke: #1f77b4; stroke-width: 2; stroke-linecap: square"/>
    </g>
    <g id="text_19">
     <!-- Hive -->
     <g transform="translate(90.93 205.604062) scale(0.1 -0.1)">
      <defs>
       <path id="DejaVuSans-48" d="M 628 4666 
L 1259 4666 
L 1259 2753 
L 3553 2753 
L 3553 4666 
L 4184 4666 
L 4184 0 
L 3553 0 
L 3553 2222 
L 1259 2222 
L 1259 0 
L 628 0 
L 628 4666 
z
" transform="scale(0.015625)"/>
      </defs>
      <use xlink:href="#DejaVuSans-48"/>
      <use xlink:href="#DejaVuSans-69" transform="translate(75.195312 0)"/>
      <use xlink:href="#DejaVuSans-76" transform="translate(102.978516 0)"/>
      <use xlink:href="#DejaVuSans-65" transform="translate(162.158203 0)"/>
     </g>
    </g>
    <g id="line2d_19">
     <path d="M 62.93 216.782187 
L 72.93 216.782187 
L 82.93 216.782187 
" style="fill: none; stroke-dasharray: 5.55,2.4; stroke-dashoffset: 0; stroke: #808080; stroke-width: 1.5"/>
    </g>
    <g id="text_20">
     <!-- Gemiddelde (alle hives) -->
     <g transform="translate(90.93 220.282187) scale(0.1 -0.1)">
      <defs>
       <path id="DejaVuSans-47" d="M 3809 666 
L 3809 1919 
L 2778 1919 
L 2778 2438 
L 4434 2438 
L 4434 434 
Q 4069 175 3628 42 
Q 3188 -91 2688 -91 
Q 1594 -91 976 548 
Q 359 1188 359 2328 
Q 359 3472 976 4111 
Q 1594 4750 2688 4750 
Q 3144 4750 3555 4637 
Q 3966 4525 4313 4306 
L 4313 3634 
Q 3963 3931 3569 4081 
Q 3175 4231 2741 4231 
Q 1884 4231 1454 3753 
Q 1025 3275 1025 2328 
Q 1025 1384 1454 906 
Q 1884 428 2741 428 
Q 3075 428 3337 486 
Q 3600 544 3809 666 
z
" transform="scale(0.015625)"/>
       <path id="DejaVuSans-6c" d="M 603 4863 
L 1178 4863 
L 1178 0 
L 603 0 
L 603 4863 
z
" transform="scale(0.015625)"/>
       <path id="DejaVuSans-68" d="M 3513 2113 
L 3513 0 
L 2938 0 
L 2938 2094 
Q 2938 2591 2744 2837 
Q 2550 3084 2163 3084 
Q 1697 3084 1428 2787 
Q 1159 2491 1159 1978 
L 1159 0 
L 581 0 
L 581 4863 
L 1159 4863 
L 1159 2956 
Q 1366 3272 1645 3428 
Q 1925 3584 2291 3584 
Q 2894 3584 3203 3211 
Q 3513 2838 3513 2113 
z
" transform="scale(0.015625)"/>
       <path id="DejaVuSans-73" d="M 2834 3397 
L 2834 2853 
Q 2591 2978 2328 3040 
Q 2066 3103 1784 3103 
Q 1356 3103 1142 2972 
Q 928 2841 928 2578 
Q 928 2378 1081 2264 
Q 1234 2150 1697 2047 
L 1894 2003 
Q 2506 1872 2764 1633 
Q 3022 1394 3022 966 
Q 3022 478 2636 193 
Q 2250 -91 1575 -91 
Q 1294 -91 989 -36 
Q 684 19 347 128 
L 347 722 
Q 666 556 975 473 
Q 1284 391 1588 391 
Q 1994 391 2212 530 
Q 2431 669 2431 922 
Q 2431 1156 2273 1281 
Q 2116 1406 1581 1522 
L 1381 1569 
Q 847 1681 609 1914 
Q 372 2147 372 2553 
Q 372 3047 722 3315 
Q 1072 3584 1716 3584 
Q 2034 3584 2315 3537 
Q 2597 3491 2834 3397 
z
" transform="scale(0.015625)"/>
      </defs>
      <use xlink:href="#DejaVuSans-47"/>
      <use xlink:href="#DejaVuSans-65" transform="translate(77.490234 0)"/>
      <use xlink:href="#DejaVuSans-6d" transform="translate(139.013672 0)"/>
      <use xlink:href="#DejaVuSans-69" transform="translate(236.425781 0)"/>
      <use xlink:href="#DejaVuSans-64" transform="translate(264.208984 0)"/>
      <use xlink:href="#DejaVuSans-64" transform="translate(327.685547 0)"/>
      <use xlink:href="#DejaVuSans-65" transform="translate(391.162109 0)"/>
      <use xlink:href="#DejaVuSans-6c" transform="translate(452.685547 0)"/>
      <use xlink:href="#DejaVuSans-64" transform="translate(480.46875 0)"/>
      <use xlink:href="#DejaVuSans-65" transform="translate(543.945312 0)"/>
      <use xlink:href="#DejaVuSans-20" transform="translate(605.46875 0)"/>
      <use xlink:href="#DejaVuSans-28" transform="translate(637.255859 0)"/>
      <use xlink:href="#DejaVuSans-61" transform="translate(676.269531 0)"/>
      <use xlink:href="#DejaVuSans-6c" transform="translate(737.548828 0)"/>
      <use xlink:href="#DejaVuSans-6c" transform="translate(765.332031 0)"/>
      <use xlink:href="#DejaVuSans-65" transform="translate(793.115234 0)"/>
      <use xlink:href="#DejaVuSans-20" transform="translate(854.638672 0)"/>
      <use xlink:href="#DejaVuSans-68" transform="translate(886.425781 0)"/>
      <use xlink:href="#DejaVuSans-69" transform="translate(949.804688 0)"/>
      <use xlink:href="#DejaVuSans-76" transform="translate(977.587891 0)"/>
      <use xlink:href="#DejaVuSans-65" transform="translate(1036.767578 0)"/>
      <use xlink:href="#DejaVuSans-73" transform="translate(1098.291016 0)"/>
      <use xlink:href="#DejaVuSans-29" transform="translate(1150.390625 0)"/>
     </g>
    </g>
    <g id="patch_8">
     <path d="M 62.93 234.960312 
L 82.93 234.960312 
L 82.93 227.960312 
L 62.93 227.960312 
z
" style="fill: #808080; fill-opacity: 0.2; stroke: #808080; stroke-opacity: 0.2; stroke-linejoin: miter"/>
    </g>
    <g id="text_21">
     <!-- ±2 Std Dev -->
     <g transform="translate(90.93 234.960312) scale(0.1 -0.1)">
      <defs>
       <path id="DejaVuSans-b1" d="M 2944 4013 
L 2944 2803 
L 4684 2803 
L 4684 2272 
L 2944 2272 
L 2944 1063 
L 2419 1063 
L 2419 2272 
L 678 2272 
L 678 2803 
L 2419 2803 
L 2419 4013 
L 2944 4013 
z
M 678 531 
L 4684 531 
L 4684 0 
L 678 0 
L 678 531 
z
" transform="scale(0.015625)"/>
       <path id="DejaVuSans-53" d="M 3425 4513 
L 3425 3897 
Q 3066 4069 2747 4153 
Q 2428 4238 2131 4238 
Q 1616 4238 1336 4038 
Q 1056 3838 1056 3469 
Q 1056 3159 1242 3001 
Q 1428 2844 1947 2747 
L 2328 2669 
Q 3034 2534 3370 2195 
Q 3706 1856 3706 1288 
Q 3706 609 3251 259 
Q 2797 -91 1919 -91 
Q 1588 -91 1214 -16 
Q 841 59 441 206 
L 441 856 
Q 825 641 1194 531 
Q 1563 422 1919 422 
Q 2459 422 2753 634 
Q 3047 847 3047 1241 
Q 3047 1584 2836 1778 
Q 2625 1972 2144 2069 
L 1759 2144 
Q 1053 2284 737 2584 
Q 422 2884 422 3419 
Q 422 4038 858 4394 
Q 1294 4750 2059 4750 
Q 2388 4750 2728 4690 
Q 3069 4631 3425 4513 
z
" transform="scale(0.015625)"/>
       <path id="DejaVuSans-44" d="M 1259 4147 
L 1259 519 
L 2022 519 
Q 2988 519 3436 956 
Q 3884 1394 3884 2338 
Q 3884 3275 3436 3711 
Q 2988 4147 2022 4147 
L 1259 4147 
z
M 628 4666 
L 1925 4666 
Q 3281 4666 3915 4102 
Q 4550 3538 4550 2338 
Q 4550 1131 3912 565 
Q 3275 0 1925 0 
L 628 0 
L 628 4666 
z
" transform="scale(0.015625)"/>
      </defs>
      <use xlink:href="#DejaVuSans-b1"/>
      <use xlink:href="#DejaVuSans-32" transform="translate(83.789062 0)"/>
      <use xlink:href="#DejaVuSans-20" transform="translate(147.412109 0)"/>
      <use xlink:href="#DejaVuSans-53" transform="translate(179.199219 0)"/>
      <use xlink:href="#DejaVuSans-74" transform="translate(242.675781 0)"/>
      <use xlink:href="#DejaVuSans-64" transform="translate(281.884766 0)"/>
      <use xlink:href="#DejaVuSans-20" transform="translate(345.361328 0)"/>
      <use xlink:href="#DejaVuSans-44" transform="translate(377.148438 0)"/>
      <use xlink:href="#DejaVuSans-65" transform="translate(454.150391 0)"/>
      <use xlink:href="#DejaVuSans-76" transform="translate(515.673828 0)"/>
     </g>
    </g>
   </g>
  </g>
 </g>
 <defs>
  <clipPath id="pccbf7a24ce">
   <rect x="53.93" y="26.88" width="633.523625" height="219.16"/>
  </clipPath>
 </defs>
</svg>
