<?xml version="1.0" encoding="utf-8" standalone="no"?>
<!DOCTYPE svg PUBLIC "-//W3C//DTD SVG 1.1//EN"
  "http://www.w3.org/Graphics/SVG/1.1/DTD/svg11.dtd">
<svg xmlns:xlink="http://www.w3.org/1999/xlink" width="720pt" height="288pt" viewBox="0 0 720 288" xmlns="http://www.w3.org/2000/svg" version="1.1">
 <metadata>
  <rdf:RDF xmlns:dc="http://purl.org/dc/elements/1.1/" xmlns:cc="http://creativecommons.org/ns#" xmlns:rdf="http://www.w3.org/1999/02/22-rdf-syntax-ns#">
   <cc:Work>
    <dc:type rdf:resource="http://purl.org/dc/dcmitype/StillImage"/>
    <dc:date>2025-05-28T08:22:13.197207</dc:date>
    <dc:format>image/svg+xml</dc:format>
    <dc:creator>
     <cc:Agent>
      <dc:title>Matplotlib v3.10.3, https://matplotlib.org/</dc:title>
     </cc:Agent>
    </dc:creator>
   </cc:Work>
  </rdf:RDF>
 </metadata>
 <defs>
  <style type="text/css">*{stroke-linejoin: round; stroke-linecap: butt}</style>
 </defs>
 <g id="figure_1">
  <g id="patch_1">
   <path d="M 0 288 
L 720 288 
L 720 0 
L 0 0 
z
" style="fill: #ffffff"/>
  </g>
  <g id="axes_1">
   <g id="patch_2">
    <path d="M 63.47 246.04 
L 709.2 246.04 
L 709.2 26.88 
L 63.47 26.88 
z
" style="fill: #ffffff"/>
   </g>
   <g id="FillBetweenPolyCollection_1">
    <defs>
     <path id="mde210a5b6f" d="M 92.821364 -198.55498 
L 92.821364 -70.218009 
L 96.513359 -68.050575 
L 100.205354 -75.991131 
L 103.89735 -79.458834 
L 107.589345 -85.635668 
L 111.281341 -90.168993 
L 114.973336 -86.590399 
L 118.665332 -70.208619 
L 122.357327 -80.50332 
L 126.049322 -92.333913 
L 129.741318 -104.66846 
L 133.433313 -78.169103 
L 137.125309 -74.649865 
L 140.817304 -80.299894 
L 144.5093 -103.726132 
L 148.201295 -95.259239 
L 151.89329 -86.086108 
L 155.585286 -72.586376 
L 159.277281 -64.860572 
L 162.969277 -51.921818 
L 166.661272 -77.099199 
L 170.353268 -75.368548 
L 174.045263 -80.362121 
L 177.737258 -85.911562 
L 181.429254 -83.40921 
L 185.121249 -77.233272 
L 188.813245 -92.607434 
L 192.50524 -82.143191 
L 196.197236 -90.005218 
L 199.889231 -96.538353 
L 203.581226 -86.049803 
L 207.273222 -102.988763 
L 210.965217 -111.6156 
L 214.657213 -104.304319 
L 218.349208 -114.878715 
L 222.041204 -102.51857 
L 225.733199 -107.147398 
L 229.425194 -107.102632 
L 233.11719 -90.11595 
L 236.809185 -69.643504 
L 240.501181 -67.936608 
L 244.193176 -87.611267 
L 247.885172 -55.671773 
L 251.577167 -71.934611 
L 255.269162 -101.880551 
L 258.961158 -111.93254 
L 262.653153 -115.219768 
L 266.345149 -104.556773 
L 270.037144 -106.288263 
L 273.72914 -84.925962 
L 277.421135 -91.910152 
L 281.11313 -99.020515 
L 284.805126 -93.836558 
L 288.497121 -90.491459 
L 292.189117 -86.479455 
L 295.881112 -86.289596 
L 299.573107 -91.538997 
L 303.265103 -85.380647 
L 306.957098 -81.265766 
L 310.649094 -69.501614 
L 314.341089 -74.780371 
L 318.033085 -53.51128 
L 321.72508 -77.658343 
L 325.417075 -93.442975 
L 329.109071 -88.607371 
L 332.801066 -82.178017 
L 336.493062 -71.191018 
L 340.185057 -83.079811 
L 343.877053 -81.737402 
L 347.569048 -54.832151 
L 351.261043 -78.197843 
L 354.953039 -89.236868 
L 358.645034 -84.379564 
L 362.33703 -74.369559 
L 366.029025 -80.79418 
L 369.721021 -75.671379 
L 373.413016 -81.599051 
L 377.105011 -91.153834 
L 380.797007 -62.336803 
L 384.489002 -77.671164 
L 388.180998 -66.802465 
L 391.872993 -88.087326 
L 395.564989 -83.638141 
L 399.256984 -86.172437 
L 402.948979 -75.256142 
L 406.640975 -87.205591 
L 410.33297 -68.607471 
L 414.024966 -82.285516 
L 417.716961 -60.063542 
L 421.408957 -70.974697 
L 425.100952 -70.595436 
L 428.792947 -85.647191 
L 432.484943 -90.592599 
L 436.176938 -80.730681 
L 439.868934 -91.095977 
L 443.560929 -79.971519 
L 447.252925 -66.320181 
L 450.94492 -68.006985 
L 454.636915 -63.810454 
L 458.328911 -75.148002 
L 462.020906 -79.600997 
L 465.712902 -67.099115 
L 469.404897 -84.315631 
L 473.096893 -100.457252 
L 476.788888 -103.186937 
L 480.480883 -103.852444 
L 484.172879 -98.076459 
L 487.864874 -86.692425 
L 491.55687 -86.214909 
L 495.248865 -77.673308 
L 498.94086 -80.520998 
L 502.632856 -100.66233 
L 506.324851 -79.060044 
L 510.016847 -52.234921 
L 513.708842 -71.567817 
L 517.400838 -75.357696 
L 521.092833 -58.694105 
L 524.784828 -64.917245 
L 528.476824 -66.930105 
L 532.168819 -81.451683 
L 535.860815 -67.478286 
L 539.55281 -73.752137 
L 543.244806 -83.138355 
L 546.936801 -64.262197 
L 550.628796 -77.644757 
L 554.320792 -76.444947 
L 558.012787 -70.271961 
L 561.704783 -87.765542 
L 565.396778 -69.384118 
L 569.088774 -77.279917 
L 572.780769 -68.649254 
L 576.472764 -79.7523 
L 580.16476 -76.281032 
L 583.856755 -76.10466 
L 587.548751 -72.668258 
L 591.240746 -72.385714 
L 594.932742 -82.809752 
L 598.624737 -67.791129 
L 602.316732 -66.432528 
L 606.008728 -64.959006 
L 609.700723 -65.414682 
L 613.392719 -86.014447 
L 617.084714 -75.267115 
L 620.77671 -84.764718 
L 624.468705 -67.182815 
L 628.1607 -94.882148 
L 631.852696 -78.160099 
L 635.544691 -70.593694 
L 639.236687 -73.826539 
L 642.928682 -80.961153 
L 646.620678 -91.800447 
L 650.312673 -113.268209 
L 654.004668 -121.272399 
L 657.696664 -120.025717 
L 661.388659 -119.48339 
L 661.388659 -145.222413 
L 661.388659 -145.222413 
L 657.696664 -147.871294 
L 654.004668 -137.315692 
L 650.312673 -135.468407 
L 646.620678 -151.434995 
L 642.928682 -203.182241 
L 639.236687 -175.721169 
L 635.544691 -174.024769 
L 631.852696 -166.350072 
L 628.1607 -160.134948 
L 624.468705 -196.829176 
L 620.77671 -178.457007 
L 617.084714 -204.850196 
L 613.392719 -172.728189 
L 609.700723 -197.830061 
L 606.008728 -205.124006 
L 602.316732 -199.265218 
L 598.624737 -188.007903 
L 594.932742 -189.507269 
L 591.240746 -194.159295 
L 587.548751 -180.571231 
L 583.856755 -190.36746 
L 580.16476 -183.405321 
L 576.472764 -188.810025 
L 572.780769 -191.379071 
L 569.088774 -189.709547 
L 565.396778 -190.479798 
L 561.704783 -167.743689 
L 558.012787 -193.725234 
L 554.320792 -185.810044 
L 550.628796 -185.737542 
L 546.936801 -194.859679 
L 543.244806 -179.89649 
L 539.55281 -184.703329 
L 535.860815 -188.257831 
L 532.168819 -169.171269 
L 528.476824 -177.872168 
L 524.784828 -190.516138 
L 521.092833 -216.443542 
L 517.400838 -203.687987 
L 513.708842 -198.811243 
L 510.016847 -206.083536 
L 506.324851 -172.614039 
L 502.632856 -158.410224 
L 498.94086 -191.301038 
L 495.248865 -194.079676 
L 491.55687 -189.201688 
L 487.864874 -180.39733 
L 484.172879 -170.662881 
L 480.480883 -165.223937 
L 476.788888 -161.298008 
L 473.096893 -175.472854 
L 469.404897 -170.129316 
L 465.712902 -184.39302 
L 462.020906 -185.554743 
L 458.328911 -190.862673 
L 454.636915 -206.496813 
L 450.94492 -190.124044 
L 447.252925 -199.546908 
L 443.560929 -189.683039 
L 439.868934 -173.523237 
L 436.176938 -176.043413 
L 432.484943 -174.00568 
L 428.792947 -177.884722 
L 425.100952 -192.265682 
L 421.408957 -197.676958 
L 417.716961 -213.820749 
L 414.024966 -179.659836 
L 410.33297 -198.612168 
L 406.640975 -178.333225 
L 402.948979 -202.637024 
L 399.256984 -177.63141 
L 395.564989 -180.282329 
L 391.872993 -168.761302 
L 388.180998 -190.51528 
L 384.489002 -167.745456 
L 380.797007 -194.757345 
L 377.105011 -159.706965 
L 373.413016 -153.960615 
L 369.721021 -167.311967 
L 366.029025 -144.29254 
L 362.33703 -159.121824 
L 358.645034 -144.784535 
L 354.953039 -143.36341 
L 351.261043 -146.423047 
L 347.569048 -182.154049 
L 343.877053 -163.462196 
L 340.185057 -169.250817 
L 336.493062 -180.890255 
L 332.801066 -168.673465 
L 329.109071 -165.053886 
L 325.417075 -169.129877 
L 321.72508 -172.976666 
L 318.033085 -247.565733 
L 314.341089 -229.728656 
L 310.649094 -220.857153 
L 306.957098 -228.027057 
L 303.265103 -200.628093 
L 299.573107 -181.773694 
L 295.881112 -190.231291 
L 292.189117 -205.83196 
L 288.497121 -200.197225 
L 284.805126 -190.348596 
L 281.11313 -185.420572 
L 277.421135 -192.324325 
L 273.72914 -196.299804 
L 270.037144 -177.307973 
L 266.345149 -174.061991 
L 262.653153 -174.372847 
L 258.961158 -161.507295 
L 255.269162 -174.380019 
L 251.577167 -230.833857 
L 247.885172 -251.158182 
L 244.193176 -206.642931 
L 240.501181 -233.366963 
L 236.809185 -242.734207 
L 233.11719 -222.294644 
L 229.425194 -177.238712 
L 225.733199 -169.291064 
L 222.041204 -175.90597 
L 218.349208 -169.389193 
L 214.657213 -178.924514 
L 210.965217 -158.567812 
L 207.273222 -180.018664 
L 203.581226 -195.972257 
L 199.889231 -187.16179 
L 196.197236 -161.844236 
L 192.50524 -165.895229 
L 188.813245 -147.176484 
L 185.121249 -160.599642 
L 181.429254 -158.395861 
L 177.737258 -160.421373 
L 174.045263 -160.007098 
L 170.353268 -174.84831 
L 166.661272 -174.953028 
L 162.969277 -196.539684 
L 159.277281 -193.228259 
L 155.585286 -164.098953 
L 151.89329 -178.694776 
L 148.201295 -177.146454 
L 144.5093 -171.320541 
L 140.817304 -206.839168 
L 137.125309 -204.123993 
L 133.433313 -188.126549 
L 129.741318 -170.939401 
L 126.049322 -190.392921 
L 122.357327 -195.176881 
L 118.665332 -187.369991 
L 114.973336 -162.854278 
L 111.281341 -158.101793 
L 107.589345 -165.312268 
L 103.89735 -190.20778 
L 100.205354 -189.643044 
L 96.513359 -207.15448 
L 92.821364 -198.55498 
z
" style="stroke: #808080; stroke-opacity: 0.2"/>
    </defs>
    <g clip-path="url(#pe8dc9ec93a)">
     <use xlink:href="#mde210a5b6f" x="0" y="288" style="fill: #808080; fill-opacity: 0.2; stroke: #808080; stroke-opacity: 0.2"/>
    </g>
   </g>
   <g id="matplotlib.axis_1">
    <g id="xtick_1">
     <g id="line2d_1">
      <defs>
       <path id="m572d3dbc39" d="M 0 0 
L 0 3.5 
" style="stroke: #000000; stroke-width: 0.8"/>
      </defs>
      <g>
       <use xlink:href="#m572d3dbc39" x="122.357327" y="246.04" style="stroke: #000000; stroke-width: 0.8"/>
      </g>
     </g>
     <g id="text_1">
      <!-- 05-25 12 -->
      <g transform="translate(99.876858 260.638438) scale(0.1 -0.1)">
       <defs>
        <path id="DejaVuSans-30" d="M 2034 4250 
Q 1547 4250 1301 3770 
Q 1056 3291 1056 2328 
Q 1056 1369 1301 889 
Q 1547 409 2034 409 
Q 2525 409 2770 889 
Q 3016 1369 3016 2328 
Q 3016 3291 2770 3770 
Q 2525 4250 2034 4250 
z
M 2034 4750 
Q 2819 4750 3233 4129 
Q 3647 3509 3647 2328 
Q 3647 1150 3233 529 
Q 2819 -91 2034 -91 
Q 1250 -91 836 529 
Q 422 1150 422 2328 
Q 422 3509 836 4129 
Q 1250 4750 2034 4750 
z
" transform="scale(0.015625)"/>
        <path id="DejaVuSans-35" d="M 691 4666 
L 3169 4666 
L 3169 4134 
L 1269 4134 
L 1269 2991 
Q 1406 3038 1543 3061 
Q 1681 3084 1819 3084 
Q 2600 3084 3056 2656 
Q 3513 2228 3513 1497 
Q 3513 744 3044 326 
Q 2575 -91 1722 -91 
Q 1428 -91 1123 -41 
Q 819 9 494 109 
L 494 744 
Q 775 591 1075 516 
Q 1375 441 1709 441 
Q 2250 441 2565 725 
Q 2881 1009 2881 1497 
Q 2881 1984 2565 2268 
Q 2250 2553 1709 2553 
Q 1456 2553 1204 2497 
Q 953 2441 691 2322 
L 691 4666 
z
" transform="scale(0.015625)"/>
        <path id="DejaVuSans-2d" d="M 313 2009 
L 1997 2009 
L 1997 1497 
L 313 1497 
L 313 2009 
z
" transform="scale(0.015625)"/>
        <path id="DejaVuSans-32" d="M 1228 531 
L 3431 531 
L 3431 0 
L 469 0 
L 469 531 
Q 828 903 1448 1529 
Q 2069 2156 2228 2338 
Q 2531 2678 2651 2914 
Q 2772 3150 2772 3378 
Q 2772 3750 2511 3984 
Q 2250 4219 1831 4219 
Q 1534 4219 1204 4116 
Q 875 4013 500 3803 
L 500 4441 
Q 881 4594 1212 4672 
Q 1544 4750 1819 4750 
Q 2544 4750 2975 4387 
Q 3406 4025 3406 3419 
Q 3406 3131 3298 2873 
Q 3191 2616 2906 2266 
Q 2828 2175 2409 1742 
Q 1991 1309 1228 531 
z
" transform="scale(0.015625)"/>
        <path id="DejaVuSans-20" transform="scale(0.015625)"/>
        <path id="DejaVuSans-31" d="M 794 531 
L 1825 531 
L 1825 4091 
L 703 3866 
L 703 4441 
L 1819 4666 
L 2450 4666 
L 2450 531 
L 3481 531 
L 3481 0 
L 794 0 
L 794 531 
z
" transform="scale(0.015625)"/>
       </defs>
       <use xlink:href="#DejaVuSans-30"/>
       <use xlink:href="#DejaVuSans-35" transform="translate(63.623047 0)"/>
       <use xlink:href="#DejaVuSans-2d" transform="translate(127.246094 0)"/>
       <use xlink:href="#DejaVuSans-32" transform="translate(163.330078 0)"/>
       <use xlink:href="#DejaVuSans-35" transform="translate(226.953125 0)"/>
       <use xlink:href="#DejaVuSans-20" transform="translate(290.576172 0)"/>
       <use xlink:href="#DejaVuSans-31" transform="translate(322.363281 0)"/>
       <use xlink:href="#DejaVuSans-32" transform="translate(385.986328 0)"/>
      </g>
     </g>
    </g>
    <g id="xtick_2">
     <g id="line2d_2">
      <g>
       <use xlink:href="#m572d3dbc39" x="210.965217" y="246.04" style="stroke: #000000; stroke-width: 0.8"/>
      </g>
     </g>
     <g id="text_2">
      <!-- 05-26 00 -->
      <g transform="translate(188.484749 260.638438) scale(0.1 -0.1)">
       <defs>
        <path id="DejaVuSans-36" d="M 2113 2584 
Q 1688 2584 1439 2293 
Q 1191 2003 1191 1497 
Q 1191 994 1439 701 
Q 1688 409 2113 409 
Q 2538 409 2786 701 
Q 3034 994 3034 1497 
Q 3034 2003 2786 2293 
Q 2538 2584 2113 2584 
z
M 3366 4563 
L 3366 3988 
Q 3128 4100 2886 4159 
Q 2644 4219 2406 4219 
Q 1781 4219 1451 3797 
Q 1122 3375 1075 2522 
Q 1259 2794 1537 2939 
Q 1816 3084 2150 3084 
Q 2853 3084 3261 2657 
Q 3669 2231 3669 1497 
Q 3669 778 3244 343 
Q 2819 -91 2113 -91 
Q 1303 -91 875 529 
Q 447 1150 447 2328 
Q 447 3434 972 4092 
Q 1497 4750 2381 4750 
Q 2619 4750 2861 4703 
Q 3103 4656 3366 4563 
z
" transform="scale(0.015625)"/>
       </defs>
       <use xlink:href="#DejaVuSans-30"/>
       <use xlink:href="#DejaVuSans-35" transform="translate(63.623047 0)"/>
       <use xlink:href="#DejaVuSans-2d" transform="translate(127.246094 0)"/>
       <use xlink:href="#DejaVuSans-32" transform="translate(163.330078 0)"/>
       <use xlink:href="#DejaVuSans-36" transform="translate(226.953125 0)"/>
       <use xlink:href="#DejaVuSans-20" transform="translate(290.576172 0)"/>
       <use xlink:href="#DejaVuSans-30" transform="translate(322.363281 0)"/>
       <use xlink:href="#DejaVuSans-30" transform="translate(385.986328 0)"/>
      </g>
     </g>
    </g>
    <g id="xtick_3">
     <g id="line2d_3">
      <g>
       <use xlink:href="#m572d3dbc39" x="299.573107" y="246.04" style="stroke: #000000; stroke-width: 0.8"/>
      </g>
     </g>
     <g id="text_3">
      <!-- 05-26 12 -->
      <g transform="translate(277.092639 260.638438) scale(0.1 -0.1)">
       <use xlink:href="#DejaVuSans-30"/>
       <use xlink:href="#DejaVuSans-35" transform="translate(63.623047 0)"/>
       <use xlink:href="#DejaVuSans-2d" transform="translate(127.246094 0)"/>
       <use xlink:href="#DejaVuSans-32" transform="translate(163.330078 0)"/>
       <use xlink:href="#DejaVuSans-36" transform="translate(226.953125 0)"/>
       <use xlink:href="#DejaVuSans-20" transform="translate(290.576172 0)"/>
       <use xlink:href="#DejaVuSans-31" transform="translate(322.363281 0)"/>
       <use xlink:href="#DejaVuSans-32" transform="translate(385.986328 0)"/>
      </g>
     </g>
    </g>
    <g id="xtick_4">
     <g id="line2d_4">
      <g>
       <use xlink:href="#m572d3dbc39" x="388.180998" y="246.04" style="stroke: #000000; stroke-width: 0.8"/>
      </g>
     </g>
     <g id="text_4">
      <!-- 05-27 00 -->
      <g transform="translate(365.700529 260.638438) scale(0.1 -0.1)">
       <defs>
        <path id="DejaVuSans-37" d="M 525 4666 
L 3525 4666 
L 3525 4397 
L 1831 0 
L 1172 0 
L 2766 4134 
L 525 4134 
L 525 4666 
z
" transform="scale(0.015625)"/>
       </defs>
       <use xlink:href="#DejaVuSans-30"/>
       <use xlink:href="#DejaVuSans-35" transform="translate(63.623047 0)"/>
       <use xlink:href="#DejaVuSans-2d" transform="translate(127.246094 0)"/>
       <use xlink:href="#DejaVuSans-32" transform="translate(163.330078 0)"/>
       <use xlink:href="#DejaVuSans-37" transform="translate(226.953125 0)"/>
       <use xlink:href="#DejaVuSans-20" transform="translate(290.576172 0)"/>
       <use xlink:href="#DejaVuSans-30" transform="translate(322.363281 0)"/>
       <use xlink:href="#DejaVuSans-30" transform="translate(385.986328 0)"/>
      </g>
     </g>
    </g>
    <g id="xtick_5">
     <g id="line2d_5">
      <g>
       <use xlink:href="#m572d3dbc39" x="476.788888" y="246.04" style="stroke: #000000; stroke-width: 0.8"/>
      </g>
     </g>
     <g id="text_5">
      <!-- 05-27 12 -->
      <g transform="translate(454.308419 260.638438) scale(0.1 -0.1)">
       <use xlink:href="#DejaVuSans-30"/>
       <use xlink:href="#DejaVuSans-35" transform="translate(63.623047 0)"/>
       <use xlink:href="#DejaVuSans-2d" transform="translate(127.246094 0)"/>
       <use xlink:href="#DejaVuSans-32" transform="translate(163.330078 0)"/>
       <use xlink:href="#DejaVuSans-37" transform="translate(226.953125 0)"/>
       <use xlink:href="#DejaVuSans-20" transform="translate(290.576172 0)"/>
       <use xlink:href="#DejaVuSans-31" transform="translate(322.363281 0)"/>
       <use xlink:href="#DejaVuSans-32" transform="translate(385.986328 0)"/>
      </g>
     </g>
    </g>
    <g id="xtick_6">
     <g id="line2d_6">
      <g>
       <use xlink:href="#m572d3dbc39" x="565.396778" y="246.04" style="stroke: #000000; stroke-width: 0.8"/>
      </g>
     </g>
     <g id="text_6">
      <!-- 05-28 00 -->
      <g transform="translate(542.916309 260.638438) scale(0.1 -0.1)">
       <defs>
        <path id="DejaVuSans-38" d="M 2034 2216 
Q 1584 2216 1326 1975 
Q 1069 1734 1069 1313 
Q 1069 891 1326 650 
Q 1584 409 2034 409 
Q 2484 409 2743 651 
Q 3003 894 3003 1313 
Q 3003 1734 2745 1975 
Q 2488 2216 2034 2216 
z
M 1403 2484 
Q 997 2584 770 2862 
Q 544 3141 544 3541 
Q 544 4100 942 4425 
Q 1341 4750 2034 4750 
Q 2731 4750 3128 4425 
Q 3525 4100 3525 3541 
Q 3525 3141 3298 2862 
Q 3072 2584 2669 2484 
Q 3125 2378 3379 2068 
Q 3634 1759 3634 1313 
Q 3634 634 3220 271 
Q 2806 -91 2034 -91 
Q 1263 -91 848 271 
Q 434 634 434 1313 
Q 434 1759 690 2068 
Q 947 2378 1403 2484 
z
M 1172 3481 
Q 1172 3119 1398 2916 
Q 1625 2713 2034 2713 
Q 2441 2713 2670 2916 
Q 2900 3119 2900 3481 
Q 2900 3844 2670 4047 
Q 2441 4250 2034 4250 
Q 1625 4250 1398 4047 
Q 1172 3844 1172 3481 
z
" transform="scale(0.015625)"/>
       </defs>
       <use xlink:href="#DejaVuSans-30"/>
       <use xlink:href="#DejaVuSans-35" transform="translate(63.623047 0)"/>
       <use xlink:href="#DejaVuSans-2d" transform="translate(127.246094 0)"/>
       <use xlink:href="#DejaVuSans-32" transform="translate(163.330078 0)"/>
       <use xlink:href="#DejaVuSans-38" transform="translate(226.953125 0)"/>
       <use xlink:href="#DejaVuSans-20" transform="translate(290.576172 0)"/>
       <use xlink:href="#DejaVuSans-30" transform="translate(322.363281 0)"/>
       <use xlink:href="#DejaVuSans-30" transform="translate(385.986328 0)"/>
      </g>
     </g>
    </g>
    <g id="xtick_7">
     <g id="line2d_7">
      <g>
       <use xlink:href="#m572d3dbc39" x="654.004668" y="246.04" style="stroke: #000000; stroke-width: 0.8"/>
      </g>
     </g>
     <g id="text_7">
      <!-- 05-28 12 -->
      <g transform="translate(631.5242 260.638438) scale(0.1 -0.1)">
       <use xlink:href="#DejaVuSans-30"/>
       <use xlink:href="#DejaVuSans-35" transform="translate(63.623047 0)"/>
       <use xlink:href="#DejaVuSans-2d" transform="translate(127.246094 0)"/>
       <use xlink:href="#DejaVuSans-32" transform="translate(163.330078 0)"/>
       <use xlink:href="#DejaVuSans-38" transform="translate(226.953125 0)"/>
       <use xlink:href="#DejaVuSans-20" transform="translate(290.576172 0)"/>
       <use xlink:href="#DejaVuSans-31" transform="translate(322.363281 0)"/>
       <use xlink:href="#DejaVuSans-32" transform="translate(385.986328 0)"/>
      </g>
     </g>
    </g>
    <g id="text_8">
     <!-- Tijd -->
     <g transform="translate(377.485 274.316562) scale(0.1 -0.1)">
      <defs>
       <path id="DejaVuSans-54" d="M -19 4666 
L 3928 4666 
L 3928 4134 
L 2272 4134 
L 2272 0 
L 1638 0 
L 1638 4134 
L -19 4134 
L -19 4666 
z
" transform="scale(0.015625)"/>
       <path id="DejaVuSans-69" d="M 603 3500 
L 1178 3500 
L 1178 0 
L 603 0 
L 603 3500 
z
M 603 4863 
L 1178 4863 
L 1178 4134 
L 603 4134 
L 603 4863 
z
" transform="scale(0.015625)"/>
       <path id="DejaVuSans-6a" d="M 603 3500 
L 1178 3500 
L 1178 -63 
Q 1178 -731 923 -1031 
Q 669 -1331 103 -1331 
L -116 -1331 
L -116 -844 
L 38 -844 
Q 366 -844 484 -692 
Q 603 -541 603 -63 
L 603 3500 
z
M 603 4863 
L 1178 4863 
L 1178 4134 
L 603 4134 
L 603 4863 
z
" transform="scale(0.015625)"/>
       <path id="DejaVuSans-64" d="M 2906 2969 
L 2906 4863 
L 3481 4863 
L 3481 0 
L 2906 0 
L 2906 525 
Q 2725 213 2448 61 
Q 2172 -91 1784 -91 
Q 1150 -91 751 415 
Q 353 922 353 1747 
Q 353 2572 751 3078 
Q 1150 3584 1784 3584 
Q 2172 3584 2448 3432 
Q 2725 3281 2906 2969 
z
M 947 1747 
Q 947 1113 1208 752 
Q 1469 391 1925 391 
Q 2381 391 2643 752 
Q 2906 1113 2906 1747 
Q 2906 2381 2643 2742 
Q 2381 3103 1925 3103 
Q 1469 3103 1208 2742 
Q 947 2381 947 1747 
z
" transform="scale(0.015625)"/>
      </defs>
      <use xlink:href="#DejaVuSans-54"/>
      <use xlink:href="#DejaVuSans-69" transform="translate(57.958984 0)"/>
      <use xlink:href="#DejaVuSans-6a" transform="translate(85.742188 0)"/>
      <use xlink:href="#DejaVuSans-64" transform="translate(113.525391 0)"/>
     </g>
    </g>
   </g>
   <g id="matplotlib.axis_2">
    <g id="ytick_1">
     <g id="line2d_8">
      <defs>
       <path id="m1b39ad802b" d="M 0 0 
L -3.5 0 
" style="stroke: #000000; stroke-width: 0.8"/>
      </defs>
      <g>
       <use xlink:href="#m1b39ad802b" x="63.47" y="236.953823" style="stroke: #000000; stroke-width: 0.8"/>
      </g>
     </g>
     <g id="text_9">
      <!-- 0 -->
      <g transform="translate(50.1075 240.753042) scale(0.1 -0.1)">
       <use xlink:href="#DejaVuSans-30"/>
      </g>
     </g>
    </g>
    <g id="ytick_2">
     <g id="line2d_9">
      <g>
       <use xlink:href="#m1b39ad802b" x="63.47" y="212.292255" style="stroke: #000000; stroke-width: 0.8"/>
      </g>
     </g>
     <g id="text_10">
      <!-- 2500 -->
      <g transform="translate(31.02 216.091474) scale(0.1 -0.1)">
       <use xlink:href="#DejaVuSans-32"/>
       <use xlink:href="#DejaVuSans-35" transform="translate(63.623047 0)"/>
       <use xlink:href="#DejaVuSans-30" transform="translate(127.246094 0)"/>
       <use xlink:href="#DejaVuSans-30" transform="translate(190.869141 0)"/>
      </g>
     </g>
    </g>
    <g id="ytick_3">
     <g id="line2d_10">
      <g>
       <use xlink:href="#m1b39ad802b" x="63.47" y="187.630686" style="stroke: #000000; stroke-width: 0.8"/>
      </g>
     </g>
     <g id="text_11">
      <!-- 5000 -->
      <g transform="translate(31.02 191.429905) scale(0.1 -0.1)">
       <use xlink:href="#DejaVuSans-35"/>
       <use xlink:href="#DejaVuSans-30" transform="translate(63.623047 0)"/>
       <use xlink:href="#DejaVuSans-30" transform="translate(127.246094 0)"/>
       <use xlink:href="#DejaVuSans-30" transform="translate(190.869141 0)"/>
      </g>
     </g>
    </g>
    <g id="ytick_4">
     <g id="line2d_11">
      <g>
       <use xlink:href="#m1b39ad802b" x="63.47" y="162.969118" style="stroke: #000000; stroke-width: 0.8"/>
      </g>
     </g>
     <g id="text_12">
      <!-- 7500 -->
      <g transform="translate(31.02 166.768337) scale(0.1 -0.1)">
       <use xlink:href="#DejaVuSans-37"/>
       <use xlink:href="#DejaVuSans-35" transform="translate(63.623047 0)"/>
       <use xlink:href="#DejaVuSans-30" transform="translate(127.246094 0)"/>
       <use xlink:href="#DejaVuSans-30" transform="translate(190.869141 0)"/>
      </g>
     </g>
    </g>
    <g id="ytick_5">
     <g id="line2d_12">
      <g>
       <use xlink:href="#m1b39ad802b" x="63.47" y="138.30755" style="stroke: #000000; stroke-width: 0.8"/>
      </g>
     </g>
     <g id="text_13">
      <!-- 10000 -->
      <g transform="translate(24.6575 142.106768) scale(0.1 -0.1)">
       <use xlink:href="#DejaVuSans-31"/>
       <use xlink:href="#DejaVuSans-30" transform="translate(63.623047 0)"/>
       <use xlink:href="#DejaVuSans-30" transform="translate(127.246094 0)"/>
       <use xlink:href="#DejaVuSans-30" transform="translate(190.869141 0)"/>
       <use xlink:href="#DejaVuSans-30" transform="translate(254.492188 0)"/>
      </g>
     </g>
    </g>
    <g id="ytick_6">
     <g id="line2d_13">
      <g>
       <use xlink:href="#m1b39ad802b" x="63.47" y="113.645981" style="stroke: #000000; stroke-width: 0.8"/>
      </g>
     </g>
     <g id="text_14">
      <!-- 12500 -->
      <g transform="translate(24.6575 117.4452) scale(0.1 -0.1)">
       <use xlink:href="#DejaVuSans-31"/>
       <use xlink:href="#DejaVuSans-32" transform="translate(63.623047 0)"/>
       <use xlink:href="#DejaVuSans-35" transform="translate(127.246094 0)"/>
       <use xlink:href="#DejaVuSans-30" transform="translate(190.869141 0)"/>
       <use xlink:href="#DejaVuSans-30" transform="translate(254.492188 0)"/>
      </g>
     </g>
    </g>
    <g id="ytick_7">
     <g id="line2d_14">
      <g>
       <use xlink:href="#m1b39ad802b" x="63.47" y="88.984413" style="stroke: #000000; stroke-width: 0.8"/>
      </g>
     </g>
     <g id="text_15">
      <!-- 15000 -->
      <g transform="translate(24.6575 92.783631) scale(0.1 -0.1)">
       <use xlink:href="#DejaVuSans-31"/>
       <use xlink:href="#DejaVuSans-35" transform="translate(63.623047 0)"/>
       <use xlink:href="#DejaVuSans-30" transform="translate(127.246094 0)"/>
       <use xlink:href="#DejaVuSans-30" transform="translate(190.869141 0)"/>
       <use xlink:href="#DejaVuSans-30" transform="translate(254.492188 0)"/>
      </g>
     </g>
    </g>
    <g id="ytick_8">
     <g id="line2d_15">
      <g>
       <use xlink:href="#m1b39ad802b" x="63.47" y="64.322844" style="stroke: #000000; stroke-width: 0.8"/>
      </g>
     </g>
     <g id="text_16">
      <!-- 17500 -->
      <g transform="translate(24.6575 68.122063) scale(0.1 -0.1)">
       <use xlink:href="#DejaVuSans-31"/>
       <use xlink:href="#DejaVuSans-37" transform="translate(63.623047 0)"/>
       <use xlink:href="#DejaVuSans-35" transform="translate(127.246094 0)"/>
       <use xlink:href="#DejaVuSans-30" transform="translate(190.869141 0)"/>
       <use xlink:href="#DejaVuSans-30" transform="translate(254.492188 0)"/>
      </g>
     </g>
    </g>
    <g id="ytick_9">
     <g id="line2d_16">
      <g>
       <use xlink:href="#m1b39ad802b" x="63.47" y="39.661276" style="stroke: #000000; stroke-width: 0.8"/>
      </g>
     </g>
     <g id="text_17">
      <!-- 20000 -->
      <g transform="translate(24.6575 43.460495) scale(0.1 -0.1)">
       <use xlink:href="#DejaVuSans-32"/>
       <use xlink:href="#DejaVuSans-30" transform="translate(63.623047 0)"/>
       <use xlink:href="#DejaVuSans-30" transform="translate(127.246094 0)"/>
       <use xlink:href="#DejaVuSans-30" transform="translate(190.869141 0)"/>
       <use xlink:href="#DejaVuSans-30" transform="translate(254.492188 0)"/>
      </g>
     </g>
    </g>
    <g id="text_18">
     <!-- CO2 (PPM) -->
     <g transform="translate(18.577813 162.902969) rotate(-90) scale(0.1 -0.1)">
      <defs>
       <path id="DejaVuSans-43" d="M 4122 4306 
L 4122 3641 
Q 3803 3938 3442 4084 
Q 3081 4231 2675 4231 
Q 1875 4231 1450 3742 
Q 1025 3253 1025 2328 
Q 1025 1406 1450 917 
Q 1875 428 2675 428 
Q 3081 428 3442 575 
Q 3803 722 4122 1019 
L 4122 359 
Q 3791 134 3420 21 
Q 3050 -91 2638 -91 
Q 1578 -91 968 557 
Q 359 1206 359 2328 
Q 359 3453 968 4101 
Q 1578 4750 2638 4750 
Q 3056 4750 3426 4639 
Q 3797 4528 4122 4306 
z
" transform="scale(0.015625)"/>
       <path id="DejaVuSans-4f" d="M 2522 4238 
Q 1834 4238 1429 3725 
Q 1025 3213 1025 2328 
Q 1025 1447 1429 934 
Q 1834 422 2522 422 
Q 3209 422 3611 934 
Q 4013 1447 4013 2328 
Q 4013 3213 3611 3725 
Q 3209 4238 2522 4238 
z
M 2522 4750 
Q 3503 4750 4090 4092 
Q 4678 3434 4678 2328 
Q 4678 1225 4090 567 
Q 3503 -91 2522 -91 
Q 1538 -91 948 565 
Q 359 1222 359 2328 
Q 359 3434 948 4092 
Q 1538 4750 2522 4750 
z
" transform="scale(0.015625)"/>
       <path id="DejaVuSans-28" d="M 1984 4856 
Q 1566 4138 1362 3434 
Q 1159 2731 1159 2009 
Q 1159 1288 1364 580 
Q 1569 -128 1984 -844 
L 1484 -844 
Q 1016 -109 783 600 
Q 550 1309 550 2009 
Q 550 2706 781 3412 
Q 1013 4119 1484 4856 
L 1984 4856 
z
" transform="scale(0.015625)"/>
       <path id="DejaVuSans-50" d="M 1259 4147 
L 1259 2394 
L 2053 2394 
Q 2494 2394 2734 2622 
Q 2975 2850 2975 3272 
Q 2975 3691 2734 3919 
Q 2494 4147 2053 4147 
L 1259 4147 
z
M 628 4666 
L 2053 4666 
Q 2838 4666 3239 4311 
Q 3641 3956 3641 3272 
Q 3641 2581 3239 2228 
Q 2838 1875 2053 1875 
L 1259 1875 
L 1259 0 
L 628 0 
L 628 4666 
z
" transform="scale(0.015625)"/>
       <path id="DejaVuSans-4d" d="M 628 4666 
L 1569 4666 
L 2759 1491 
L 3956 4666 
L 4897 4666 
L 4897 0 
L 4281 0 
L 4281 4097 
L 3078 897 
L 2444 897 
L 1241 4097 
L 1241 0 
L 628 0 
L 628 4666 
z
" transform="scale(0.015625)"/>
       <path id="DejaVuSans-29" d="M 513 4856 
L 1013 4856 
Q 1481 4119 1714 3412 
Q 1947 2706 1947 2009 
Q 1947 1309 1714 600 
Q 1481 -109 1013 -844 
L 513 -844 
Q 928 -128 1133 580 
Q 1338 1288 1338 2009 
Q 1338 2731 1133 3434 
Q 928 4138 513 4856 
z
" transform="scale(0.015625)"/>
      </defs>
      <use xlink:href="#DejaVuSans-43"/>
      <use xlink:href="#DejaVuSans-4f" transform="translate(69.824219 0)"/>
      <use xlink:href="#DejaVuSans-32" transform="translate(148.535156 0)"/>
      <use xlink:href="#DejaVuSans-20" transform="translate(212.158203 0)"/>
      <use xlink:href="#DejaVuSans-28" transform="translate(243.945312 0)"/>
      <use xlink:href="#DejaVuSans-50" transform="translate(282.958984 0)"/>
      <use xlink:href="#DejaVuSans-50" transform="translate(343.261719 0)"/>
      <use xlink:href="#DejaVuSans-4d" transform="translate(403.564453 0)"/>
      <use xlink:href="#DejaVuSans-29" transform="translate(489.84375 0)"/>
     </g>
    </g>
   </g>
   <g id="line2d_17">
    <path d="M 92.821364 178.13105 
L 96.513359 172.261597 
L 100.205354 169.129578 
L 103.89735 167.314486 
L 107.589345 176.631627 
L 111.281341 161.509153 
L 114.973336 171.544767 
L 118.665332 169.407431 
L 122.357327 170.936449 
L 126.049322 169.973003 
L 129.741318 162.094454 
L 133.433313 168.187506 
L 137.125309 160.236616 
L 140.817304 167.422997 
L 144.5093 164.57212 
L 148.201295 153.326445 
L 151.89329 153.765421 
L 155.585286 156.463396 
L 159.277281 121.560701 
L 162.969277 156.414073 
L 166.661272 152.219962 
L 170.353268 154.89492 
L 174.045263 158.88845 
L 177.737258 156.330224 
L 181.429254 170.025615 
L 185.121249 170.403759 
L 188.813245 159.115337 
L 192.50524 152.321897 
L 196.197236 166.737406 
L 199.889231 144.943156 
L 203.581226 151.059225 
L 207.273222 135.854546 
L 210.965217 153.633892 
L 214.657213 129.495149 
L 218.349208 138.356873 
L 229.425194 119.975784 
L 233.11719 83.090298 
L 236.809185 50.571554 
L 240.501181 61.102043 
L 244.193176 86.291369 
L 247.885172 43.390105 
L 251.577167 81.225883 
L 255.269162 145.819463 
L 258.961158 162.590974 
L 262.653153 157.050342 
L 266.345149 154.288246 
L 270.037144 138.652812 
L 273.72914 157.829647 
L 277.421135 163.679371 
L 281.11313 163.551131 
L 284.805126 162.627144 
L 288.497121 149.816281 
L 292.189117 156.030997 
L 295.881112 141.967326 
L 299.573107 149.625565 
L 303.265103 147.373142 
L 306.957098 156.448599 
L 310.649094 161.081686 
L 314.341089 148.869277 
L 318.033085 142.016649 
L 321.72508 161.371048 
L 325.417075 144.181935 
L 329.109071 157.520555 
L 332.801066 151.220347 
L 336.493062 160.088647 
L 340.185057 139.540628 
L 343.877053 160.443773 
L 347.569048 169.279191 
L 351.261043 148.159024 
L 354.953039 163.870087 
L 358.645034 174.994099 
L 362.33703 175.572824 
L 366.029025 182.484639 
L 369.721021 172.544383 
L 373.413016 175.585976 
L 377.105011 176.105513 
L 380.797007 179.525251 
L 384.489002 166.280345 
L 388.180998 182.040731 
L 391.872993 169.739541 
L 395.564989 174.64226 
L 399.256984 177.272828 
L 406.640975 171.140318 
L 410.33297 177.881146 
L 414.024966 175.105898 
L 417.716961 162.258865 
L 421.408957 170.245925 
L 425.100952 172.705505 
L 428.792947 172.001828 
L 432.484943 167.414777 
L 436.176938 174.839553 
L 439.868934 168.894471 
L 443.560929 156.917169 
L 447.252925 173.294095 
L 450.94492 179.548268 
L 454.636915 176.703967 
L 458.328911 170.749021 
L 462.020906 161.51573 
L 465.712902 175.747099 
L 469.404897 182.668779 
L 473.096893 174.533749 
L 476.788888 172.817304 
L 480.480883 170.579678 
L 484.172879 166.254039 
L 487.864874 171.18142 
L 491.55687 179.203006 
L 495.248865 169.63103 
L 498.94086 163.205869 
L 502.632856 159.427717 
L 506.324851 173.011309 
L 513.708842 153.415226 
L 517.400838 147.162697 
L 521.092833 156.734673 
L 524.784828 163.294651 
L 528.476824 167.401624 
L 532.168819 159.970271 
L 535.860815 171.702601 
L 539.55281 177.736465 
L 543.244806 160.328686 
L 546.936801 177.361609 
L 550.628796 177.15774 
L 554.320792 169.216715 
L 558.012787 177.279404 
L 561.704783 179.715967 
L 565.396778 170.153855 
L 569.088774 169.778999 
L 572.780769 164.550747 
L 576.472764 165.777249 
L 583.856755 173.077073 
L 587.548751 174.678431 
L 591.240746 175.206188 
L 594.932742 170.597763 
L 598.624737 176.920989 
L 602.316732 174.070112 
L 606.008728 174.267405 
L 609.700723 176.789461 
L 613.392719 183.083093 
L 617.084714 178.426989 
L 620.77671 179.383858 
L 624.468705 180.676124 
L 628.1607 172.643029 
L 631.852696 178.236273 
L 635.544691 179.03202 
L 639.236687 172.669335 
L 642.928682 169.085187 
L 646.620678 176.924277 
L 650.312673 167.55617 
L 654.004668 155.869874 
L 657.696664 149.129046 
L 661.388659 151.097039 
L 665.080655 155.445696 
L 668.77265 155.018228 
L 672.464646 150.855356 
L 676.156641 159.223848 
L 679.848636 155.550918 
L 679.848636 155.550918 
" clip-path="url(#pe8dc9ec93a)" style="fill: none; stroke: #1f77b4; stroke-width: 2; stroke-linecap: square"/>
   </g>
   <g id="line2d_18">
    <path d="M 92.821364 153.613505 
L 96.513359 150.397472 
L 100.205354 155.182913 
L 103.89735 153.166693 
L 107.589345 162.526032 
L 111.281341 163.864607 
L 114.973336 163.277662 
L 118.665332 159.210695 
L 122.357327 150.159899 
L 126.049322 146.636583 
L 129.741318 150.19607 
L 133.433313 154.852174 
L 137.125309 148.613071 
L 140.817304 144.430469 
L 144.5093 150.476663 
L 148.201295 151.797153 
L 151.89329 155.609558 
L 155.585286 169.657335 
L 159.277281 158.955585 
L 162.969277 163.769249 
L 166.661272 161.973887 
L 170.353268 162.891571 
L 174.045263 167.81539 
L 177.737258 164.833533 
L 181.429254 167.097465 
L 185.121249 169.083543 
L 188.813245 168.108041 
L 192.50524 163.98079 
L 196.197236 162.075273 
L 199.889231 146.149928 
L 203.581226 146.98897 
L 207.273222 146.496286 
L 210.965217 152.908294 
L 214.657213 146.385583 
L 218.349208 145.866046 
L 222.041204 148.78773 
L 225.733199 149.780769 
L 229.425194 145.829328 
L 233.11719 131.794703 
L 236.809185 131.811144 
L 240.501181 137.348215 
L 244.193176 140.872901 
L 247.885172 134.585023 
L 251.577167 136.615766 
L 255.269162 149.869715 
L 258.961158 151.280083 
L 262.653153 143.203693 
L 266.345149 148.690618 
L 270.037144 146.201882 
L 273.72914 147.387117 
L 277.421135 145.882761 
L 281.11313 145.779457 
L 284.805126 145.907423 
L 288.497121 142.655658 
L 292.189117 141.844292 
L 295.881112 149.739557 
L 299.573107 151.343655 
L 303.265103 144.99563 
L 306.957098 133.353589 
L 310.649094 142.820617 
L 314.341089 135.745487 
L 318.033085 137.461493 
L 321.72508 162.682496 
L 325.417075 156.713574 
L 329.109071 161.169372 
L 332.801066 162.574259 
L 336.493062 161.959364 
L 340.185057 161.834686 
L 343.877053 165.400201 
L 347.569048 169.5069 
L 351.261043 175.689555 
L 354.953039 171.699861 
L 358.645034 173.417951 
L 362.33703 171.254309 
L 366.029025 175.45664 
L 369.721021 166.508327 
L 373.413016 170.220167 
L 377.105011 162.569601 
L 380.797007 159.452926 
L 384.489002 165.29169 
L 388.180998 159.341127 
L 391.872993 159.575686 
L 395.564989 156.039765 
L 399.256984 156.098076 
L 402.948979 149.053417 
L 406.640975 155.230592 
L 410.33297 154.39018 
L 414.024966 157.027324 
L 417.716961 151.057854 
L 421.408957 153.674173 
L 425.100952 156.569441 
L 428.792947 156.234044 
L 432.484943 155.700861 
L 436.176938 159.612953 
L 439.868934 155.690393 
L 443.560929 153.172721 
L 447.252925 155.066455 
L 450.94492 158.934485 
L 454.636915 152.846366 
L 458.328911 154.994663 
L 462.020906 155.42213 
L 465.712902 162.253933 
L 469.404897 160.777527 
L 473.096893 150.034947 
L 476.788888 155.757527 
L 480.480883 153.461809 
L 484.172879 153.63033 
L 487.864874 154.455123 
L 491.55687 150.291702 
L 495.248865 152.123508 
L 498.94086 152.088982 
L 502.632856 158.463723 
L 506.324851 162.162959 
L 510.016847 158.840771 
L 513.708842 152.81047 
L 517.400838 148.477158 
L 521.092833 150.431177 
L 524.784828 160.283309 
L 528.476824 165.598863 
L 532.168819 162.688524 
L 535.860815 160.131942 
L 539.55281 158.772267 
L 543.244806 156.482577 
L 546.936801 158.439062 
L 550.628796 156.30885 
L 554.320792 156.872504 
L 558.012787 156.001403 
L 561.704783 160.245385 
L 565.396778 158.068042 
L 569.088774 154.505268 
L 572.780769 157.985837 
L 576.472764 153.718838 
L 580.16476 158.156824 
L 583.856755 154.76394 
L 587.548751 161.380255 
L 591.240746 154.727496 
L 594.932742 151.841489 
L 598.624737 160.100484 
L 602.316732 155.151127 
L 606.008728 152.958494 
L 609.700723 156.377629 
L 613.392719 158.628682 
L 617.084714 147.941345 
L 620.77671 156.389138 
L 624.468705 155.994004 
L 628.1607 160.491452 
L 631.852696 165.744915 
L 635.544691 165.690769 
L 639.236687 163.226146 
L 642.928682 145.928303 
L 646.620678 166.382279 
L 650.312673 163.631692 
L 654.004668 158.705955 
L 657.696664 154.051495 
L 661.388659 155.647098 
L 665.080655 155.445696 
L 668.77265 155.018228 
L 672.464646 150.855356 
L 676.156641 159.223848 
L 679.848636 155.550918 
L 679.848636 155.550918 
" clip-path="url(#pe8dc9ec93a)" style="fill: none; stroke-dasharray: 5.55,2.4; stroke-dashoffset: 0; stroke: #808080; stroke-width: 1.5"/>
   </g>
   <g id="patch_3">
    <path d="M 63.47 246.04 
L 63.47 26.88 
" style="fill: none; stroke: #000000; stroke-width: 0.8; stroke-linejoin: miter; stroke-linecap: square"/>
   </g>
   <g id="patch_4">
    <path d="M 709.2 246.04 
L 709.2 26.88 
" style="fill: none; stroke: #000000; stroke-width: 0.8; stroke-linejoin: miter; stroke-linecap: square"/>
   </g>
   <g id="patch_5">
    <path d="M 63.47 246.04 
L 709.2 246.04 
" style="fill: none; stroke: #000000; stroke-width: 0.8; stroke-linejoin: miter; stroke-linecap: square"/>
   </g>
   <g id="patch_6">
    <path d="M 63.47 26.88 
L 709.2 26.88 
" style="fill: none; stroke: #000000; stroke-width: 0.8; stroke-linejoin: miter; stroke-linecap: square"/>
   </g>
   <g id="text_19">
    <!-- CO2 - v001/c00002/d001 -->
    <g transform="translate(310.931875 20.88) scale(0.12 -0.12)">
     <defs>
      <path id="DejaVuSans-76" d="M 191 3500 
L 800 3500 
L 1894 563 
L 2988 3500 
L 3597 3500 
L 2284 0 
L 1503 0 
L 191 3500 
z
" transform="scale(0.015625)"/>
      <path id="DejaVuSans-2f" d="M 1625 4666 
L 2156 4666 
L 531 -594 
L 0 -594 
L 1625 4666 
z
" transform="scale(0.015625)"/>
      <path id="DejaVuSans-63" d="M 3122 3366 
L 3122 2828 
Q 2878 2963 2633 3030 
Q 2388 3097 2138 3097 
Q 1578 3097 1268 2742 
Q 959 2388 959 1747 
Q 959 1106 1268 751 
Q 1578 397 2138 397 
Q 2388 397 2633 464 
Q 2878 531 3122 666 
L 3122 134 
Q 2881 22 2623 -34 
Q 2366 -91 2075 -91 
Q 1284 -91 818 406 
Q 353 903 353 1747 
Q 353 2603 823 3093 
Q 1294 3584 2113 3584 
Q 2378 3584 2631 3529 
Q 2884 3475 3122 3366 
z
" transform="scale(0.015625)"/>
     </defs>
     <use xlink:href="#DejaVuSans-43"/>
     <use xlink:href="#DejaVuSans-4f" transform="translate(69.824219 0)"/>
     <use xlink:href="#DejaVuSans-32" transform="translate(148.535156 0)"/>
     <use xlink:href="#DejaVuSans-20" transform="translate(212.158203 0)"/>
     <use xlink:href="#DejaVuSans-2d" transform="translate(243.945312 0)"/>
     <use xlink:href="#DejaVuSans-20" transform="translate(280.029297 0)"/>
     <use xlink:href="#DejaVuSans-76" transform="translate(311.816406 0)"/>
     <use xlink:href="#DejaVuSans-30" transform="translate(370.996094 0)"/>
     <use xlink:href="#DejaVuSans-30" transform="translate(434.619141 0)"/>
     <use xlink:href="#DejaVuSans-31" transform="translate(498.242188 0)"/>
     <use xlink:href="#DejaVuSans-2f" transform="translate(561.865234 0)"/>
     <use xlink:href="#DejaVuSans-63" transform="translate(595.556641 0)"/>
     <use xlink:href="#DejaVuSans-30" transform="translate(650.537109 0)"/>
     <use xlink:href="#DejaVuSans-30" transform="translate(714.160156 0)"/>
     <use xlink:href="#DejaVuSans-30" transform="translate(777.783203 0)"/>
     <use xlink:href="#DejaVuSans-30" transform="translate(841.40625 0)"/>
     <use xlink:href="#DejaVuSans-32" transform="translate(905.029297 0)"/>
     <use xlink:href="#DejaVuSans-2f" transform="translate(968.652344 0)"/>
     <use xlink:href="#DejaVuSans-64" transform="translate(1002.34375 0)"/>
     <use xlink:href="#DejaVuSans-30" transform="translate(1065.820312 0)"/>
     <use xlink:href="#DejaVuSans-30" transform="translate(1129.443359 0)"/>
     <use xlink:href="#DejaVuSans-31" transform="translate(1193.066406 0)"/>
    </g>
   </g>
   <g id="legend_1">
    <g id="patch_7">
     <path d="M 551.25625 78.914375 
L 702.2 78.914375 
Q 704.2 78.914375 704.2 76.914375 
L 704.2 33.88 
Q 704.2 31.88 702.2 31.88 
L 551.25625 31.88 
Q 549.25625 31.88 549.25625 33.88 
L 549.25625 76.914375 
Q 549.25625 78.914375 551.25625 78.914375 
z
" style="fill: #ffffff; opacity: 0.8; stroke: #cccccc; stroke-linejoin: miter"/>
    </g>
    <g id="line2d_19">
     <path d="M 553.25625 39.978438 
L 563.25625 39.978438 
L 573.25625 39.978438 
" style="fill: none; stroke: #1f77b4; stroke-width: 2; stroke-linecap: square"/>
    </g>
    <g id="text_20">
     <!-- Hive -->
     <g transform="translate(581.25625 43.478438) scale(0.1 -0.1)">
      <defs>
       <path id="DejaVuSans-48" d="M 628 4666 
L 1259 4666 
L 1259 2753 
L 3553 2753 
L 3553 4666 
L 4184 4666 
L 4184 0 
L 3553 0 
L 3553 2222 
L 1259 2222 
L 1259 0 
L 628 0 
L 628 4666 
z
" transform="scale(0.015625)"/>
       <path id="DejaVuSans-65" d="M 3597 1894 
L 3597 1613 
L 953 1613 
Q 991 1019 1311 708 
Q 1631 397 2203 397 
Q 2534 397 2845 478 
Q 3156 559 3463 722 
L 3463 178 
Q 3153 47 2828 -22 
Q 2503 -91 2169 -91 
Q 1331 -91 842 396 
Q 353 884 353 1716 
Q 353 2575 817 3079 
Q 1281 3584 2069 3584 
Q 2775 3584 3186 3129 
Q 3597 2675 3597 1894 
z
M 3022 2063 
Q 3016 2534 2758 2815 
Q 2500 3097 2075 3097 
Q 1594 3097 1305 2825 
Q 1016 2553 972 2059 
L 3022 2063 
z
" transform="scale(0.015625)"/>
      </defs>
      <use xlink:href="#DejaVuSans-48"/>
      <use xlink:href="#DejaVuSans-69" transform="translate(75.195312 0)"/>
      <use xlink:href="#DejaVuSans-76" transform="translate(102.978516 0)"/>
      <use xlink:href="#DejaVuSans-65" transform="translate(162.158203 0)"/>
     </g>
    </g>
    <g id="line2d_20">
     <path d="M 553.25625 54.656563 
L 563.25625 54.656563 
L 573.25625 54.656563 
" style="fill: none; stroke-dasharray: 5.55,2.4; stroke-dashoffset: 0; stroke: #808080; stroke-width: 1.5"/>
    </g>
    <g id="text_21">
     <!-- Gemiddelde (alle hives) -->
     <g transform="translate(581.25625 58.156563) scale(0.1 -0.1)">
      <defs>
       <path id="DejaVuSans-47" d="M 3809 666 
L 3809 1919 
L 2778 1919 
L 2778 2438 
L 4434 2438 
L 4434 434 
Q 4069 175 3628 42 
Q 3188 -91 2688 -91 
Q 1594 -91 976 548 
Q 359 1188 359 2328 
Q 359 3472 976 4111 
Q 1594 4750 2688 4750 
Q 3144 4750 3555 4637 
Q 3966 4525 4313 4306 
L 4313 3634 
Q 3963 3931 3569 4081 
Q 3175 4231 2741 4231 
Q 1884 4231 1454 3753 
Q 1025 3275 1025 2328 
Q 1025 1384 1454 906 
Q 1884 428 2741 428 
Q 3075 428 3337 486 
Q 3600 544 3809 666 
z
" transform="scale(0.015625)"/>
       <path id="DejaVuSans-6d" d="M 3328 2828 
Q 3544 3216 3844 3400 
Q 4144 3584 4550 3584 
Q 5097 3584 5394 3201 
Q 5691 2819 5691 2113 
L 5691 0 
L 5113 0 
L 5113 2094 
Q 5113 2597 4934 2840 
Q 4756 3084 4391 3084 
Q 3944 3084 3684 2787 
Q 3425 2491 3425 1978 
L 3425 0 
L 2847 0 
L 2847 2094 
Q 2847 2600 2669 2842 
Q 2491 3084 2119 3084 
Q 1678 3084 1418 2786 
Q 1159 2488 1159 1978 
L 1159 0 
L 581 0 
L 581 3500 
L 1159 3500 
L 1159 2956 
Q 1356 3278 1631 3431 
Q 1906 3584 2284 3584 
Q 2666 3584 2933 3390 
Q 3200 3197 3328 2828 
z
" transform="scale(0.015625)"/>
       <path id="DejaVuSans-6c" d="M 603 4863 
L 1178 4863 
L 1178 0 
L 603 0 
L 603 4863 
z
" transform="scale(0.015625)"/>
       <path id="DejaVuSans-61" d="M 2194 1759 
Q 1497 1759 1228 1600 
Q 959 1441 959 1056 
Q 959 750 1161 570 
Q 1363 391 1709 391 
Q 2188 391 2477 730 
Q 2766 1069 2766 1631 
L 2766 1759 
L 2194 1759 
z
M 3341 1997 
L 3341 0 
L 2766 0 
L 2766 531 
Q 2569 213 2275 61 
Q 1981 -91 1556 -91 
Q 1019 -91 701 211 
Q 384 513 384 1019 
Q 384 1609 779 1909 
Q 1175 2209 1959 2209 
L 2766 2209 
L 2766 2266 
Q 2766 2663 2505 2880 
Q 2244 3097 1772 3097 
Q 1472 3097 1187 3025 
Q 903 2953 641 2809 
L 641 3341 
Q 956 3463 1253 3523 
Q 1550 3584 1831 3584 
Q 2591 3584 2966 3190 
Q 3341 2797 3341 1997 
z
" transform="scale(0.015625)"/>
       <path id="DejaVuSans-68" d="M 3513 2113 
L 3513 0 
L 2938 0 
L 2938 2094 
Q 2938 2591 2744 2837 
Q 2550 3084 2163 3084 
Q 1697 3084 1428 2787 
Q 1159 2491 1159 1978 
L 1159 0 
L 581 0 
L 581 4863 
L 1159 4863 
L 1159 2956 
Q 1366 3272 1645 3428 
Q 1925 3584 2291 3584 
Q 2894 3584 3203 3211 
Q 3513 2838 3513 2113 
z
" transform="scale(0.015625)"/>
       <path id="DejaVuSans-73" d="M 2834 3397 
L 2834 2853 
Q 2591 2978 2328 3040 
Q 2066 3103 1784 3103 
Q 1356 3103 1142 2972 
Q 928 2841 928 2578 
Q 928 2378 1081 2264 
Q 1234 2150 1697 2047 
L 1894 2003 
Q 2506 1872 2764 1633 
Q 3022 1394 3022 966 
Q 3022 478 2636 193 
Q 2250 -91 1575 -91 
Q 1294 -91 989 -36 
Q 684 19 347 128 
L 347 722 
Q 666 556 975 473 
Q 1284 391 1588 391 
Q 1994 391 2212 530 
Q 2431 669 2431 922 
Q 2431 1156 2273 1281 
Q 2116 1406 1581 1522 
L 1381 1569 
Q 847 1681 609 1914 
Q 372 2147 372 2553 
Q 372 3047 722 3315 
Q 1072 3584 1716 3584 
Q 2034 3584 2315 3537 
Q 2597 3491 2834 3397 
z
" transform="scale(0.015625)"/>
      </defs>
      <use xlink:href="#DejaVuSans-47"/>
      <use xlink:href="#DejaVuSans-65" transform="translate(77.490234 0)"/>
      <use xlink:href="#DejaVuSans-6d" transform="translate(139.013672 0)"/>
      <use xlink:href="#DejaVuSans-69" transform="translate(236.425781 0)"/>
      <use xlink:href="#DejaVuSans-64" transform="translate(264.208984 0)"/>
      <use xlink:href="#DejaVuSans-64" transform="translate(327.685547 0)"/>
      <use xlink:href="#DejaVuSans-65" transform="translate(391.162109 0)"/>
      <use xlink:href="#DejaVuSans-6c" transform="translate(452.685547 0)"/>
      <use xlink:href="#DejaVuSans-64" transform="translate(480.46875 0)"/>
      <use xlink:href="#DejaVuSans-65" transform="translate(543.945312 0)"/>
      <use xlink:href="#DejaVuSans-20" transform="translate(605.46875 0)"/>
      <use xlink:href="#DejaVuSans-28" transform="translate(637.255859 0)"/>
      <use xlink:href="#DejaVuSans-61" transform="translate(676.269531 0)"/>
      <use xlink:href="#DejaVuSans-6c" transform="translate(737.548828 0)"/>
      <use xlink:href="#DejaVuSans-6c" transform="translate(765.332031 0)"/>
      <use xlink:href="#DejaVuSans-65" transform="translate(793.115234 0)"/>
      <use xlink:href="#DejaVuSans-20" transform="translate(854.638672 0)"/>
      <use xlink:href="#DejaVuSans-68" transform="translate(886.425781 0)"/>
      <use xlink:href="#DejaVuSans-69" transform="translate(949.804688 0)"/>
      <use xlink:href="#DejaVuSans-76" transform="translate(977.587891 0)"/>
      <use xlink:href="#DejaVuSans-65" transform="translate(1036.767578 0)"/>
      <use xlink:href="#DejaVuSans-73" transform="translate(1098.291016 0)"/>
      <use xlink:href="#DejaVuSans-29" transform="translate(1150.390625 0)"/>
     </g>
    </g>
    <g id="patch_8">
     <path d="M 553.25625 72.834688 
L 573.25625 72.834688 
L 573.25625 65.834688 
L 553.25625 65.834688 
z
" style="fill: #808080; fill-opacity: 0.2; stroke: #808080; stroke-opacity: 0.2; stroke-linejoin: miter"/>
    </g>
    <g id="text_22">
     <!-- ±2 Std Dev -->
     <g transform="translate(581.25625 72.834688) scale(0.1 -0.1)">
      <defs>
       <path id="DejaVuSans-b1" d="M 2944 4013 
L 2944 2803 
L 4684 2803 
L 4684 2272 
L 2944 2272 
L 2944 1063 
L 2419 1063 
L 2419 2272 
L 678 2272 
L 678 2803 
L 2419 2803 
L 2419 4013 
L 2944 4013 
z
M 678 531 
L 4684 531 
L 4684 0 
L 678 0 
L 678 531 
z
" transform="scale(0.015625)"/>
       <path id="DejaVuSans-53" d="M 3425 4513 
L 3425 3897 
Q 3066 4069 2747 4153 
Q 2428 4238 2131 4238 
Q 1616 4238 1336 4038 
Q 1056 3838 1056 3469 
Q 1056 3159 1242 3001 
Q 1428 2844 1947 2747 
L 2328 2669 
Q 3034 2534 3370 2195 
Q 3706 1856 3706 1288 
Q 3706 609 3251 259 
Q 2797 -91 1919 -91 
Q 1588 -91 1214 -16 
Q 841 59 441 206 
L 441 856 
Q 825 641 1194 531 
Q 1563 422 1919 422 
Q 2459 422 2753 634 
Q 3047 847 3047 1241 
Q 3047 1584 2836 1778 
Q 2625 1972 2144 2069 
L 1759 2144 
Q 1053 2284 737 2584 
Q 422 2884 422 3419 
Q 422 4038 858 4394 
Q 1294 4750 2059 4750 
Q 2388 4750 2728 4690 
Q 3069 4631 3425 4513 
z
" transform="scale(0.015625)"/>
       <path id="DejaVuSans-74" d="M 1172 4494 
L 1172 3500 
L 2356 3500 
L 2356 3053 
L 1172 3053 
L 1172 1153 
Q 1172 725 1289 603 
Q 1406 481 1766 481 
L 2356 481 
L 2356 0 
L 1766 0 
Q 1100 0 847 248 
Q 594 497 594 1153 
L 594 3053 
L 172 3053 
L 172 3500 
L 594 3500 
L 594 4494 
L 1172 4494 
z
" transform="scale(0.015625)"/>
       <path id="DejaVuSans-44" d="M 1259 4147 
L 1259 519 
L 2022 519 
Q 2988 519 3436 956 
Q 3884 1394 3884 2338 
Q 3884 3275 3436 3711 
Q 2988 4147 2022 4147 
L 1259 4147 
z
M 628 4666 
L 1925 4666 
Q 3281 4666 3915 4102 
Q 4550 3538 4550 2338 
Q 4550 1131 3912 565 
Q 3275 0 1925 0 
L 628 0 
L 628 4666 
z
" transform="scale(0.015625)"/>
      </defs>
      <use xlink:href="#DejaVuSans-b1"/>
      <use xlink:href="#DejaVuSans-32" transform="translate(83.789062 0)"/>
      <use xlink:href="#DejaVuSans-20" transform="translate(147.412109 0)"/>
      <use xlink:href="#DejaVuSans-53" transform="translate(179.199219 0)"/>
      <use xlink:href="#DejaVuSans-74" transform="translate(242.675781 0)"/>
      <use xlink:href="#DejaVuSans-64" transform="translate(281.884766 0)"/>
      <use xlink:href="#DejaVuSans-20" transform="translate(345.361328 0)"/>
      <use xlink:href="#DejaVuSans-44" transform="translate(377.148438 0)"/>
      <use xlink:href="#DejaVuSans-65" transform="translate(454.150391 0)"/>
      <use xlink:href="#DejaVuSans-76" transform="translate(515.673828 0)"/>
     </g>
    </g>
   </g>
  </g>
 </g>
 <defs>
  <clipPath id="pe8dc9ec93a">
   <rect x="63.47" y="26.88" width="645.73" height="219.16"/>
  </clipPath>
 </defs>
</svg>
