<?xml version="1.0" encoding="utf-8" standalone="no"?>
<!DOCTYPE svg PUBLIC "-//W3C//DTD SVG 1.1//EN"
  "http://www.w3.org/Graphics/SVG/1.1/DTD/svg11.dtd">
<svg xmlns:xlink="http://www.w3.org/1999/xlink" width="720pt" height="288pt" viewBox="0 0 720 288" xmlns="http://www.w3.org/2000/svg" version="1.1">
 <metadata>
  <rdf:RDF xmlns:dc="http://purl.org/dc/elements/1.1/" xmlns:cc="http://creativecommons.org/ns#" xmlns:rdf="http://www.w3.org/1999/02/22-rdf-syntax-ns#">
   <cc:Work>
    <dc:type rdf:resource="http://purl.org/dc/dcmitype/StillImage"/>
    <dc:date>2025-06-20T05:17:05.895170</dc:date>
    <dc:format>image/svg+xml</dc:format>
    <dc:creator>
     <cc:Agent>
      <dc:title>Matplotlib v3.10.3, https://matplotlib.org/</dc:title>
     </cc:Agent>
    </dc:creator>
   </cc:Work>
  </rdf:RDF>
 </metadata>
 <defs>
  <style type="text/css">*{stroke-linejoin: round; stroke-linecap: butt}</style>
 </defs>
 <g id="figure_1">
  <g id="patch_1">
   <path d="M 0 288 
L 720 288 
L 720 0 
L 0 0 
z
" style="fill: #ffffff"/>
  </g>
  <g id="axes_1">
   <g id="patch_2">
    <path d="M 63.47 246.04 
L 709.2 246.04 
L 709.2 26.88 
L 63.47 26.88 
z
" style="fill: #ffffff"/>
   </g>
   <g id="FillBetweenPolyCollection_1">
    <defs>
     <path id="m69110a225a" d="M 92.821364 -229.420094 
L 92.821364 -91.769299 
L 96.214585 -99.962714 
L 99.607806 -104.956039 
L 103.001027 -105.706685 
L 106.394249 -89.021933 
L 109.78747 -96.207096 
L 113.180691 -81.561151 
L 116.573912 -95.90368 
L 119.967133 -89.222027 
L 123.360355 -90.924857 
L 126.753576 -105.622801 
L 130.146797 -104.220214 
L 133.540018 -85.304693 
L 136.93324 -104.96574 
L 140.326461 -98.3932 
L 143.719682 -106.347239 
L 147.112903 -97.0119 
L 150.506125 -105.278931 
L 153.899346 -112.077972 
L 157.292567 -93.1068 
L 160.685788 -75.549988 
L 164.079009 -84.637965 
L 167.472231 -88.412585 
L 170.865452 -77.150204 
L 174.258673 -60.613532 
L 177.651894 -52.901613 
L 181.045116 -54.981987 
L 184.438337 -68.205834 
L 187.831558 -62.96992 
L 191.224779 -79.52578 
L 194.618001 -87.295567 
L 198.011222 -79.48488 
L 201.404443 -68.77067 
L 204.797664 -80.435879 
L 208.190885 -88.110472 
L 211.584107 -90.816428 
L 214.977328 -89.522037 
L 218.370549 -89.48397 
L 221.76377 -90.731338 
L 225.156992 -92.457667 
L 228.550213 -89.350156 
L 231.943434 -91.743389 
L 235.336655 -91.288515 
L 238.729877 -105.075126 
L 242.123098 -83.388107 
L 245.516319 -84.351192 
L 248.90954 -84.90777 
L 252.302761 -91.689577 
L 255.695983 -102.014915 
L 259.089204 -107.152705 
L 262.482425 -95.89089 
L 265.875646 -98.985404 
L 269.268868 -130.514859 
L 272.662089 -102.854818 
L 276.05531 -87.652799 
L 279.448531 -96.26713 
L 282.841752 -88.880397 
L 286.234974 -91.345188 
L 289.628195 -89.050219 
L 293.021416 -90.017138 
L 296.414637 -90.168415 
L 299.807859 -102.665733 
L 303.20108 -95.828864 
L 306.594301 -93.670141 
L 309.987522 -92.488726 
L 313.380744 -91.900909 
L 316.773965 -87.090274 
L 320.167186 -88.210507 
L 323.560407 -80.085976 
L 326.953628 -88.280431 
L 330.34685 -85.251024 
L 333.740071 -76.106533 
L 337.133292 -73.435522 
L 340.526513 -55.363996 
L 343.919735 -53.915417 
L 347.312956 -51.921818 
L 350.706177 -76.963445 
L 354.099398 -86.063773 
L 357.49262 -81.743179 
L 360.885841 -82.33469 
L 364.279062 -70.209635 
L 367.672283 -79.961369 
L 371.065504 -83.033667 
L 374.458726 -93.517282 
L 377.851947 -89.233653 
L 381.245168 -92.49093 
L 384.638389 -91.527278 
L 388.031611 -93.451039 
L 391.424832 -90.884023 
L 394.818053 -87.75981 
L 398.211274 -85.562424 
L 401.604496 -83.986883 
L 404.997717 -79.29743 
L 408.390938 -99.152973 
L 411.784159 -90.393831 
L 415.17738 -77.778959 
L 418.570602 -84.397598 
L 421.963823 -78.736337 
L 425.357044 -88.689171 
L 428.750265 -91.711917 
L 432.143487 -86.739212 
L 435.536708 -84.330306 
L 438.929929 -82.04226 
L 442.32315 -89.623539 
L 445.716372 -101.89043 
L 449.109593 -82.596865 
L 452.502814 -88.20524 
L 455.896035 -91.352295 
L 459.289256 -87.563869 
L 462.682478 -74.220774 
L 466.075699 -67.54807 
L 469.46892 -69.770476 
L 472.862141 -87.739715 
L 476.255363 -78.306602 
L 479.648584 -88.188226 
L 483.041805 -84.043108 
L 486.435026 -76.759635 
L 489.828248 -89.43941 
L 493.221469 -82.32394 
L 496.61469 -82.344835 
L 500.007911 -80.25173 
L 503.401132 -81.876646 
L 506.794354 -85.012037 
L 510.187575 -83.805254 
L 513.580796 -78.718101 
L 516.974017 -73.625809 
L 520.367239 -90.064942 
L 523.76046 -96.789762 
L 527.153681 -57.698649 
L 530.546902 -61.356689 
L 533.940123 -61.098311 
L 537.333345 -61.376273 
L 540.726566 -60.875995 
L 544.119787 -62.684791 
L 547.513008 -65.035499 
L 550.90623 -57.802725 
L 554.299451 -59.941914 
L 557.692672 -60.240237 
L 561.085893 -68.215499 
L 564.479115 -66.297005 
L 567.872336 -68.403423 
L 571.265557 -69.199364 
L 574.658778 -64.277062 
L 578.051999 -66.645836 
L 581.445221 -67.115458 
L 584.838442 -102.491879 
L 588.231663 -109.823906 
L 591.624884 -108.988978 
L 595.018106 -113.520942 
L 598.411327 -124.234852 
L 601.804548 -103.832705 
L 605.197769 -94.417094 
L 608.590991 -98.45751 
L 611.984212 -94.543465 
L 615.377433 -82.102134 
L 618.770654 -81.122076 
L 622.163875 -146.006872 
L 625.557097 -121.102279 
L 628.950318 -165.393278 
L 628.950318 -217.203853 
L 628.950318 -217.203853 
L 625.557097 -251.158182 
L 622.163875 -211.632234 
L 618.770654 -228.720574 
L 615.377433 -226.628071 
L 611.984212 -207.733 
L 608.590991 -221.756909 
L 605.197769 -222.036267 
L 601.804548 -200.009177 
L 598.411327 -168.232793 
L 595.018106 -174.289254 
L 591.624884 -175.603025 
L 588.231663 -175.05669 
L 584.838442 -181.278026 
L 581.445221 -186.337782 
L 578.051999 -186.435243 
L 574.658778 -199.076339 
L 571.265557 -175.404459 
L 567.872336 -164.74641 
L 564.479115 -165.554719 
L 561.085893 -163.352647 
L 557.692672 -164.173275 
L 554.299451 -155.803693 
L 550.90623 -153.748935 
L 547.513008 -145.455389 
L 544.119787 -146.673828 
L 540.726566 -154.484562 
L 537.333345 -151.032064 
L 533.940123 -155.285318 
L 530.546902 -158.921635 
L 527.153681 -176.328103 
L 523.76046 -144.062585 
L 520.367239 -147.219781 
L 516.974017 -161.317418 
L 513.580796 -151.779896 
L 510.187575 -152.68948 
L 506.794354 -150.151534 
L 503.401132 -157.031473 
L 500.007911 -161.615759 
L 496.61469 -162.027037 
L 493.221469 -160.521123 
L 489.828248 -170.672956 
L 486.435026 -173.993764 
L 483.041805 -160.82769 
L 479.648584 -183.469907 
L 476.255363 -199.881905 
L 472.862141 -189.259974 
L 469.46892 -223.381275 
L 466.075699 -227.12984 
L 462.682478 -210.697929 
L 459.289256 -210.506949 
L 455.896035 -202.182389 
L 452.502814 -193.052483 
L 449.109593 -212.584688 
L 445.716372 -158.342962 
L 442.32315 -189.177343 
L 438.929929 -196.956403 
L 435.536708 -205.777485 
L 432.143487 -210.036841 
L 428.750265 -196.721705 
L 425.357044 -197.907879 
L 421.963823 -205.837596 
L 418.570602 -225.400203 
L 415.17738 -203.401974 
L 411.784159 -192.650694 
L 408.390938 -170.258765 
L 404.997717 -196.710014 
L 401.604496 -164.143187 
L 398.211274 -166.614993 
L 394.818053 -139.604622 
L 391.424832 -135.136246 
L 388.031611 -126.532193 
L 384.638389 -126.447508 
L 381.245168 -125.311704 
L 377.851947 -126.604548 
L 374.458726 -131.58484 
L 371.065504 -143.46796 
L 367.672283 -145.948588 
L 364.279062 -163.605965 
L 360.885841 -143.072738 
L 357.49262 -144.530025 
L 354.099398 -143.169451 
L 350.706177 -155.005834 
L 347.312956 -164.277054 
L 343.919735 -151.028359 
L 340.526513 -156.623965 
L 337.133292 -161.926665 
L 333.740071 -154.31616 
L 330.34685 -141.015495 
L 326.953628 -150.201114 
L 323.560407 -144.55113 
L 320.167186 -157.739893 
L 316.773965 -167.200886 
L 313.380744 -175.505597 
L 309.987522 -171.031814 
L 306.594301 -176.075187 
L 303.20108 -173.504282 
L 299.807859 -181.753226 
L 296.414637 -198.494187 
L 293.021416 -204.500226 
L 289.628195 -210.990046 
L 286.234974 -203.05778 
L 282.841752 -212.45909 
L 279.448531 -198.025805 
L 276.05531 -204.94201 
L 272.662089 -214.371724 
L 269.268868 -168.893623 
L 265.875646 -196.166622 
L 262.482425 -218.346105 
L 259.089204 -187.801448 
L 255.695983 -191.39163 
L 252.302761 -197.132363 
L 248.90954 -205.23122 
L 245.516319 -191.090767 
L 242.123098 -178.53147 
L 238.729877 -170.615498 
L 235.336655 -167.158819 
L 231.943434 -143.669125 
L 228.550213 -135.364427 
L 225.156992 -130.539626 
L 221.76377 -136.776461 
L 218.370549 -144.703791 
L 214.977328 -145.249595 
L 211.584107 -147.720273 
L 208.190885 -149.726477 
L 204.797664 -155.091218 
L 201.404443 -172.313219 
L 198.011222 -160.178334 
L 194.618001 -150.340816 
L 191.224779 -161.105721 
L 187.831558 -175.379029 
L 184.438337 -169.513004 
L 181.045116 -188.476938 
L 177.651894 -191.41566 
L 174.258673 -200.675153 
L 170.865452 -182.275261 
L 167.472231 -174.486199 
L 164.079009 -184.871976 
L 160.685788 -198.589964 
L 157.292567 -185.508095 
L 153.899346 -173.348832 
L 150.506125 -179.013003 
L 147.112903 -200.917965 
L 143.719682 -186.929309 
L 140.326461 -219.393813 
L 136.93324 -207.922077 
L 133.540018 -230.558558 
L 130.146797 -216.368038 
L 126.753576 -211.273365 
L 123.360355 -234.246885 
L 119.967133 -228.463589 
L 116.573912 -223.484612 
L 113.180691 -244.666348 
L 109.78747 -211.096722 
L 106.394249 -250.991136 
L 103.001027 -207.860364 
L 99.607806 -230.170462 
L 96.214585 -223.644613 
L 92.821364 -229.420094 
z
" style="stroke: #808080; stroke-opacity: 0.2"/>
    </defs>
    <g clip-path="url(#pecae7d497c)">
     <use xlink:href="#m69110a225a" x="0" y="288" style="fill: #808080; fill-opacity: 0.2; stroke: #808080; stroke-opacity: 0.2"/>
    </g>
   </g>
   <g id="matplotlib.axis_1">
    <g id="xtick_1">
     <g id="line2d_1">
      <defs>
       <path id="mbcccd6c072" d="M 0 0 
L 0 3.5 
" style="stroke: #000000; stroke-width: 0.8"/>
      </defs>
      <g>
       <use xlink:href="#mbcccd6c072" x="140.326461" y="246.04" style="stroke: #000000; stroke-width: 0.8"/>
      </g>
     </g>
     <g id="text_1">
      <!-- 06-17 12 -->
      <g transform="translate(117.845992 260.638438) scale(0.1 -0.1)">
       <defs>
        <path id="DejaVuSans-30" d="M 2034 4250 
Q 1547 4250 1301 3770 
Q 1056 3291 1056 2328 
Q 1056 1369 1301 889 
Q 1547 409 2034 409 
Q 2525 409 2770 889 
Q 3016 1369 3016 2328 
Q 3016 3291 2770 3770 
Q 2525 4250 2034 4250 
z
M 2034 4750 
Q 2819 4750 3233 4129 
Q 3647 3509 3647 2328 
Q 3647 1150 3233 529 
Q 2819 -91 2034 -91 
Q 1250 -91 836 529 
Q 422 1150 422 2328 
Q 422 3509 836 4129 
Q 1250 4750 2034 4750 
z
" transform="scale(0.015625)"/>
        <path id="DejaVuSans-36" d="M 2113 2584 
Q 1688 2584 1439 2293 
Q 1191 2003 1191 1497 
Q 1191 994 1439 701 
Q 1688 409 2113 409 
Q 2538 409 2786 701 
Q 3034 994 3034 1497 
Q 3034 2003 2786 2293 
Q 2538 2584 2113 2584 
z
M 3366 4563 
L 3366 3988 
Q 3128 4100 2886 4159 
Q 2644 4219 2406 4219 
Q 1781 4219 1451 3797 
Q 1122 3375 1075 2522 
Q 1259 2794 1537 2939 
Q 1816 3084 2150 3084 
Q 2853 3084 3261 2657 
Q 3669 2231 3669 1497 
Q 3669 778 3244 343 
Q 2819 -91 2113 -91 
Q 1303 -91 875 529 
Q 447 1150 447 2328 
Q 447 3434 972 4092 
Q 1497 4750 2381 4750 
Q 2619 4750 2861 4703 
Q 3103 4656 3366 4563 
z
" transform="scale(0.015625)"/>
        <path id="DejaVuSans-2d" d="M 313 2009 
L 1997 2009 
L 1997 1497 
L 313 1497 
L 313 2009 
z
" transform="scale(0.015625)"/>
        <path id="DejaVuSans-31" d="M 794 531 
L 1825 531 
L 1825 4091 
L 703 3866 
L 703 4441 
L 1819 4666 
L 2450 4666 
L 2450 531 
L 3481 531 
L 3481 0 
L 794 0 
L 794 531 
z
" transform="scale(0.015625)"/>
        <path id="DejaVuSans-37" d="M 525 4666 
L 3525 4666 
L 3525 4397 
L 1831 0 
L 1172 0 
L 2766 4134 
L 525 4134 
L 525 4666 
z
" transform="scale(0.015625)"/>
        <path id="DejaVuSans-20" transform="scale(0.015625)"/>
        <path id="DejaVuSans-32" d="M 1228 531 
L 3431 531 
L 3431 0 
L 469 0 
L 469 531 
Q 828 903 1448 1529 
Q 2069 2156 2228 2338 
Q 2531 2678 2651 2914 
Q 2772 3150 2772 3378 
Q 2772 3750 2511 3984 
Q 2250 4219 1831 4219 
Q 1534 4219 1204 4116 
Q 875 4013 500 3803 
L 500 4441 
Q 881 4594 1212 4672 
Q 1544 4750 1819 4750 
Q 2544 4750 2975 4387 
Q 3406 4025 3406 3419 
Q 3406 3131 3298 2873 
Q 3191 2616 2906 2266 
Q 2828 2175 2409 1742 
Q 1991 1309 1228 531 
z
" transform="scale(0.015625)"/>
       </defs>
       <use xlink:href="#DejaVuSans-30"/>
       <use xlink:href="#DejaVuSans-36" transform="translate(63.623047 0)"/>
       <use xlink:href="#DejaVuSans-2d" transform="translate(127.246094 0)"/>
       <use xlink:href="#DejaVuSans-31" transform="translate(163.330078 0)"/>
       <use xlink:href="#DejaVuSans-37" transform="translate(226.953125 0)"/>
       <use xlink:href="#DejaVuSans-20" transform="translate(290.576172 0)"/>
       <use xlink:href="#DejaVuSans-31" transform="translate(322.363281 0)"/>
       <use xlink:href="#DejaVuSans-32" transform="translate(385.986328 0)"/>
      </g>
     </g>
    </g>
    <g id="xtick_2">
     <g id="line2d_2">
      <g>
       <use xlink:href="#mbcccd6c072" x="221.76377" y="246.04" style="stroke: #000000; stroke-width: 0.8"/>
      </g>
     </g>
     <g id="text_2">
      <!-- 06-18 00 -->
      <g transform="translate(199.283302 260.638438) scale(0.1 -0.1)">
       <defs>
        <path id="DejaVuSans-38" d="M 2034 2216 
Q 1584 2216 1326 1975 
Q 1069 1734 1069 1313 
Q 1069 891 1326 650 
Q 1584 409 2034 409 
Q 2484 409 2743 651 
Q 3003 894 3003 1313 
Q 3003 1734 2745 1975 
Q 2488 2216 2034 2216 
z
M 1403 2484 
Q 997 2584 770 2862 
Q 544 3141 544 3541 
Q 544 4100 942 4425 
Q 1341 4750 2034 4750 
Q 2731 4750 3128 4425 
Q 3525 4100 3525 3541 
Q 3525 3141 3298 2862 
Q 3072 2584 2669 2484 
Q 3125 2378 3379 2068 
Q 3634 1759 3634 1313 
Q 3634 634 3220 271 
Q 2806 -91 2034 -91 
Q 1263 -91 848 271 
Q 434 634 434 1313 
Q 434 1759 690 2068 
Q 947 2378 1403 2484 
z
M 1172 3481 
Q 1172 3119 1398 2916 
Q 1625 2713 2034 2713 
Q 2441 2713 2670 2916 
Q 2900 3119 2900 3481 
Q 2900 3844 2670 4047 
Q 2441 4250 2034 4250 
Q 1625 4250 1398 4047 
Q 1172 3844 1172 3481 
z
" transform="scale(0.015625)"/>
       </defs>
       <use xlink:href="#DejaVuSans-30"/>
       <use xlink:href="#DejaVuSans-36" transform="translate(63.623047 0)"/>
       <use xlink:href="#DejaVuSans-2d" transform="translate(127.246094 0)"/>
       <use xlink:href="#DejaVuSans-31" transform="translate(163.330078 0)"/>
       <use xlink:href="#DejaVuSans-38" transform="translate(226.953125 0)"/>
       <use xlink:href="#DejaVuSans-20" transform="translate(290.576172 0)"/>
       <use xlink:href="#DejaVuSans-30" transform="translate(322.363281 0)"/>
       <use xlink:href="#DejaVuSans-30" transform="translate(385.986328 0)"/>
      </g>
     </g>
    </g>
    <g id="xtick_3">
     <g id="line2d_3">
      <g>
       <use xlink:href="#mbcccd6c072" x="303.20108" y="246.04" style="stroke: #000000; stroke-width: 0.8"/>
      </g>
     </g>
     <g id="text_3">
      <!-- 06-18 12 -->
      <g transform="translate(280.720611 260.638438) scale(0.1 -0.1)">
       <use xlink:href="#DejaVuSans-30"/>
       <use xlink:href="#DejaVuSans-36" transform="translate(63.623047 0)"/>
       <use xlink:href="#DejaVuSans-2d" transform="translate(127.246094 0)"/>
       <use xlink:href="#DejaVuSans-31" transform="translate(163.330078 0)"/>
       <use xlink:href="#DejaVuSans-38" transform="translate(226.953125 0)"/>
       <use xlink:href="#DejaVuSans-20" transform="translate(290.576172 0)"/>
       <use xlink:href="#DejaVuSans-31" transform="translate(322.363281 0)"/>
       <use xlink:href="#DejaVuSans-32" transform="translate(385.986328 0)"/>
      </g>
     </g>
    </g>
    <g id="xtick_4">
     <g id="line2d_4">
      <g>
       <use xlink:href="#mbcccd6c072" x="384.638389" y="246.04" style="stroke: #000000; stroke-width: 0.8"/>
      </g>
     </g>
     <g id="text_4">
      <!-- 06-19 00 -->
      <g transform="translate(362.157921 260.638438) scale(0.1 -0.1)">
       <defs>
        <path id="DejaVuSans-39" d="M 703 97 
L 703 672 
Q 941 559 1184 500 
Q 1428 441 1663 441 
Q 2288 441 2617 861 
Q 2947 1281 2994 2138 
Q 2813 1869 2534 1725 
Q 2256 1581 1919 1581 
Q 1219 1581 811 2004 
Q 403 2428 403 3163 
Q 403 3881 828 4315 
Q 1253 4750 1959 4750 
Q 2769 4750 3195 4129 
Q 3622 3509 3622 2328 
Q 3622 1225 3098 567 
Q 2575 -91 1691 -91 
Q 1453 -91 1209 -44 
Q 966 3 703 97 
z
M 1959 2075 
Q 2384 2075 2632 2365 
Q 2881 2656 2881 3163 
Q 2881 3666 2632 3958 
Q 2384 4250 1959 4250 
Q 1534 4250 1286 3958 
Q 1038 3666 1038 3163 
Q 1038 2656 1286 2365 
Q 1534 2075 1959 2075 
z
" transform="scale(0.015625)"/>
       </defs>
       <use xlink:href="#DejaVuSans-30"/>
       <use xlink:href="#DejaVuSans-36" transform="translate(63.623047 0)"/>
       <use xlink:href="#DejaVuSans-2d" transform="translate(127.246094 0)"/>
       <use xlink:href="#DejaVuSans-31" transform="translate(163.330078 0)"/>
       <use xlink:href="#DejaVuSans-39" transform="translate(226.953125 0)"/>
       <use xlink:href="#DejaVuSans-20" transform="translate(290.576172 0)"/>
       <use xlink:href="#DejaVuSans-30" transform="translate(322.363281 0)"/>
       <use xlink:href="#DejaVuSans-30" transform="translate(385.986328 0)"/>
      </g>
     </g>
    </g>
    <g id="xtick_5">
     <g id="line2d_5">
      <g>
       <use xlink:href="#mbcccd6c072" x="466.075699" y="246.04" style="stroke: #000000; stroke-width: 0.8"/>
      </g>
     </g>
     <g id="text_5">
      <!-- 06-19 12 -->
      <g transform="translate(443.59523 260.638438) scale(0.1 -0.1)">
       <use xlink:href="#DejaVuSans-30"/>
       <use xlink:href="#DejaVuSans-36" transform="translate(63.623047 0)"/>
       <use xlink:href="#DejaVuSans-2d" transform="translate(127.246094 0)"/>
       <use xlink:href="#DejaVuSans-31" transform="translate(163.330078 0)"/>
       <use xlink:href="#DejaVuSans-39" transform="translate(226.953125 0)"/>
       <use xlink:href="#DejaVuSans-20" transform="translate(290.576172 0)"/>
       <use xlink:href="#DejaVuSans-31" transform="translate(322.363281 0)"/>
       <use xlink:href="#DejaVuSans-32" transform="translate(385.986328 0)"/>
      </g>
     </g>
    </g>
    <g id="xtick_6">
     <g id="line2d_6">
      <g>
       <use xlink:href="#mbcccd6c072" x="547.513008" y="246.04" style="stroke: #000000; stroke-width: 0.8"/>
      </g>
     </g>
     <g id="text_6">
      <!-- 06-20 00 -->
      <g transform="translate(525.03254 260.638438) scale(0.1 -0.1)">
       <use xlink:href="#DejaVuSans-30"/>
       <use xlink:href="#DejaVuSans-36" transform="translate(63.623047 0)"/>
       <use xlink:href="#DejaVuSans-2d" transform="translate(127.246094 0)"/>
       <use xlink:href="#DejaVuSans-32" transform="translate(163.330078 0)"/>
       <use xlink:href="#DejaVuSans-30" transform="translate(226.953125 0)"/>
       <use xlink:href="#DejaVuSans-20" transform="translate(290.576172 0)"/>
       <use xlink:href="#DejaVuSans-30" transform="translate(322.363281 0)"/>
       <use xlink:href="#DejaVuSans-30" transform="translate(385.986328 0)"/>
      </g>
     </g>
    </g>
    <g id="xtick_7">
     <g id="line2d_7">
      <g>
       <use xlink:href="#mbcccd6c072" x="628.950318" y="246.04" style="stroke: #000000; stroke-width: 0.8"/>
      </g>
     </g>
     <g id="text_7">
      <!-- 06-20 12 -->
      <g transform="translate(606.469849 260.638438) scale(0.1 -0.1)">
       <use xlink:href="#DejaVuSans-30"/>
       <use xlink:href="#DejaVuSans-36" transform="translate(63.623047 0)"/>
       <use xlink:href="#DejaVuSans-2d" transform="translate(127.246094 0)"/>
       <use xlink:href="#DejaVuSans-32" transform="translate(163.330078 0)"/>
       <use xlink:href="#DejaVuSans-30" transform="translate(226.953125 0)"/>
       <use xlink:href="#DejaVuSans-20" transform="translate(290.576172 0)"/>
       <use xlink:href="#DejaVuSans-31" transform="translate(322.363281 0)"/>
       <use xlink:href="#DejaVuSans-32" transform="translate(385.986328 0)"/>
      </g>
     </g>
    </g>
    <g id="text_8">
     <!-- Tijd -->
     <g transform="translate(377.485 274.316562) scale(0.1 -0.1)">
      <defs>
       <path id="DejaVuSans-54" d="M -19 4666 
L 3928 4666 
L 3928 4134 
L 2272 4134 
L 2272 0 
L 1638 0 
L 1638 4134 
L -19 4134 
L -19 4666 
z
" transform="scale(0.015625)"/>
       <path id="DejaVuSans-69" d="M 603 3500 
L 1178 3500 
L 1178 0 
L 603 0 
L 603 3500 
z
M 603 4863 
L 1178 4863 
L 1178 4134 
L 603 4134 
L 603 4863 
z
" transform="scale(0.015625)"/>
       <path id="DejaVuSans-6a" d="M 603 3500 
L 1178 3500 
L 1178 -63 
Q 1178 -731 923 -1031 
Q 669 -1331 103 -1331 
L -116 -1331 
L -116 -844 
L 38 -844 
Q 366 -844 484 -692 
Q 603 -541 603 -63 
L 603 3500 
z
M 603 4863 
L 1178 4863 
L 1178 4134 
L 603 4134 
L 603 4863 
z
" transform="scale(0.015625)"/>
       <path id="DejaVuSans-64" d="M 2906 2969 
L 2906 4863 
L 3481 4863 
L 3481 0 
L 2906 0 
L 2906 525 
Q 2725 213 2448 61 
Q 2172 -91 1784 -91 
Q 1150 -91 751 415 
Q 353 922 353 1747 
Q 353 2572 751 3078 
Q 1150 3584 1784 3584 
Q 2172 3584 2448 3432 
Q 2725 3281 2906 2969 
z
M 947 1747 
Q 947 1113 1208 752 
Q 1469 391 1925 391 
Q 2381 391 2643 752 
Q 2906 1113 2906 1747 
Q 2906 2381 2643 2742 
Q 2381 3103 1925 3103 
Q 1469 3103 1208 2742 
Q 947 2381 947 1747 
z
" transform="scale(0.015625)"/>
      </defs>
      <use xlink:href="#DejaVuSans-54"/>
      <use xlink:href="#DejaVuSans-69" transform="translate(57.958984 0)"/>
      <use xlink:href="#DejaVuSans-6a" transform="translate(85.742188 0)"/>
      <use xlink:href="#DejaVuSans-64" transform="translate(113.525391 0)"/>
     </g>
    </g>
   </g>
   <g id="matplotlib.axis_2">
    <g id="ytick_1">
     <g id="line2d_8">
      <defs>
       <path id="m0ea56d6c7b" d="M 0 0 
L -3.5 0 
" style="stroke: #000000; stroke-width: 0.8"/>
      </defs>
      <g>
       <use xlink:href="#m0ea56d6c7b" x="63.47" y="226.335876" style="stroke: #000000; stroke-width: 0.8"/>
      </g>
     </g>
     <g id="text_9">
      <!-- 0 -->
      <g transform="translate(50.1075 230.135095) scale(0.1 -0.1)">
       <use xlink:href="#DejaVuSans-30"/>
      </g>
     </g>
    </g>
    <g id="ytick_2">
     <g id="line2d_9">
      <g>
       <use xlink:href="#m0ea56d6c7b" x="63.47" y="197.086668" style="stroke: #000000; stroke-width: 0.8"/>
      </g>
     </g>
     <g id="text_10">
      <!-- 2500 -->
      <g transform="translate(31.02 200.885887) scale(0.1 -0.1)">
       <defs>
        <path id="DejaVuSans-35" d="M 691 4666 
L 3169 4666 
L 3169 4134 
L 1269 4134 
L 1269 2991 
Q 1406 3038 1543 3061 
Q 1681 3084 1819 3084 
Q 2600 3084 3056 2656 
Q 3513 2228 3513 1497 
Q 3513 744 3044 326 
Q 2575 -91 1722 -91 
Q 1428 -91 1123 -41 
Q 819 9 494 109 
L 494 744 
Q 775 591 1075 516 
Q 1375 441 1709 441 
Q 2250 441 2565 725 
Q 2881 1009 2881 1497 
Q 2881 1984 2565 2268 
Q 2250 2553 1709 2553 
Q 1456 2553 1204 2497 
Q 953 2441 691 2322 
L 691 4666 
z
" transform="scale(0.015625)"/>
       </defs>
       <use xlink:href="#DejaVuSans-32"/>
       <use xlink:href="#DejaVuSans-35" transform="translate(63.623047 0)"/>
       <use xlink:href="#DejaVuSans-30" transform="translate(127.246094 0)"/>
       <use xlink:href="#DejaVuSans-30" transform="translate(190.869141 0)"/>
      </g>
     </g>
    </g>
    <g id="ytick_3">
     <g id="line2d_10">
      <g>
       <use xlink:href="#m0ea56d6c7b" x="63.47" y="167.837459" style="stroke: #000000; stroke-width: 0.8"/>
      </g>
     </g>
     <g id="text_11">
      <!-- 5000 -->
      <g transform="translate(31.02 171.636678) scale(0.1 -0.1)">
       <use xlink:href="#DejaVuSans-35"/>
       <use xlink:href="#DejaVuSans-30" transform="translate(63.623047 0)"/>
       <use xlink:href="#DejaVuSans-30" transform="translate(127.246094 0)"/>
       <use xlink:href="#DejaVuSans-30" transform="translate(190.869141 0)"/>
      </g>
     </g>
    </g>
    <g id="ytick_4">
     <g id="line2d_11">
      <g>
       <use xlink:href="#m0ea56d6c7b" x="63.47" y="138.588251" style="stroke: #000000; stroke-width: 0.8"/>
      </g>
     </g>
     <g id="text_12">
      <!-- 7500 -->
      <g transform="translate(31.02 142.38747) scale(0.1 -0.1)">
       <use xlink:href="#DejaVuSans-37"/>
       <use xlink:href="#DejaVuSans-35" transform="translate(63.623047 0)"/>
       <use xlink:href="#DejaVuSans-30" transform="translate(127.246094 0)"/>
       <use xlink:href="#DejaVuSans-30" transform="translate(190.869141 0)"/>
      </g>
     </g>
    </g>
    <g id="ytick_5">
     <g id="line2d_12">
      <g>
       <use xlink:href="#m0ea56d6c7b" x="63.47" y="109.339043" style="stroke: #000000; stroke-width: 0.8"/>
      </g>
     </g>
     <g id="text_13">
      <!-- 10000 -->
      <g transform="translate(24.6575 113.138261) scale(0.1 -0.1)">
       <use xlink:href="#DejaVuSans-31"/>
       <use xlink:href="#DejaVuSans-30" transform="translate(63.623047 0)"/>
       <use xlink:href="#DejaVuSans-30" transform="translate(127.246094 0)"/>
       <use xlink:href="#DejaVuSans-30" transform="translate(190.869141 0)"/>
       <use xlink:href="#DejaVuSans-30" transform="translate(254.492188 0)"/>
      </g>
     </g>
    </g>
    <g id="ytick_6">
     <g id="line2d_13">
      <g>
       <use xlink:href="#m0ea56d6c7b" x="63.47" y="80.089834" style="stroke: #000000; stroke-width: 0.8"/>
      </g>
     </g>
     <g id="text_14">
      <!-- 12500 -->
      <g transform="translate(24.6575 83.889053) scale(0.1 -0.1)">
       <use xlink:href="#DejaVuSans-31"/>
       <use xlink:href="#DejaVuSans-32" transform="translate(63.623047 0)"/>
       <use xlink:href="#DejaVuSans-35" transform="translate(127.246094 0)"/>
       <use xlink:href="#DejaVuSans-30" transform="translate(190.869141 0)"/>
       <use xlink:href="#DejaVuSans-30" transform="translate(254.492188 0)"/>
      </g>
     </g>
    </g>
    <g id="ytick_7">
     <g id="line2d_14">
      <g>
       <use xlink:href="#m0ea56d6c7b" x="63.47" y="50.840626" style="stroke: #000000; stroke-width: 0.8"/>
      </g>
     </g>
     <g id="text_15">
      <!-- 15000 -->
      <g transform="translate(24.6575 54.639845) scale(0.1 -0.1)">
       <use xlink:href="#DejaVuSans-31"/>
       <use xlink:href="#DejaVuSans-35" transform="translate(63.623047 0)"/>
       <use xlink:href="#DejaVuSans-30" transform="translate(127.246094 0)"/>
       <use xlink:href="#DejaVuSans-30" transform="translate(190.869141 0)"/>
       <use xlink:href="#DejaVuSans-30" transform="translate(254.492188 0)"/>
      </g>
     </g>
    </g>
    <g id="text_16">
     <!-- CO2 (PPM) -->
     <g transform="translate(18.577813 162.902969) rotate(-90) scale(0.1 -0.1)">
      <defs>
       <path id="DejaVuSans-43" d="M 4122 4306 
L 4122 3641 
Q 3803 3938 3442 4084 
Q 3081 4231 2675 4231 
Q 1875 4231 1450 3742 
Q 1025 3253 1025 2328 
Q 1025 1406 1450 917 
Q 1875 428 2675 428 
Q 3081 428 3442 575 
Q 3803 722 4122 1019 
L 4122 359 
Q 3791 134 3420 21 
Q 3050 -91 2638 -91 
Q 1578 -91 968 557 
Q 359 1206 359 2328 
Q 359 3453 968 4101 
Q 1578 4750 2638 4750 
Q 3056 4750 3426 4639 
Q 3797 4528 4122 4306 
z
" transform="scale(0.015625)"/>
       <path id="DejaVuSans-4f" d="M 2522 4238 
Q 1834 4238 1429 3725 
Q 1025 3213 1025 2328 
Q 1025 1447 1429 934 
Q 1834 422 2522 422 
Q 3209 422 3611 934 
Q 4013 1447 4013 2328 
Q 4013 3213 3611 3725 
Q 3209 4238 2522 4238 
z
M 2522 4750 
Q 3503 4750 4090 4092 
Q 4678 3434 4678 2328 
Q 4678 1225 4090 567 
Q 3503 -91 2522 -91 
Q 1538 -91 948 565 
Q 359 1222 359 2328 
Q 359 3434 948 4092 
Q 1538 4750 2522 4750 
z
" transform="scale(0.015625)"/>
       <path id="DejaVuSans-28" d="M 1984 4856 
Q 1566 4138 1362 3434 
Q 1159 2731 1159 2009 
Q 1159 1288 1364 580 
Q 1569 -128 1984 -844 
L 1484 -844 
Q 1016 -109 783 600 
Q 550 1309 550 2009 
Q 550 2706 781 3412 
Q 1013 4119 1484 4856 
L 1984 4856 
z
" transform="scale(0.015625)"/>
       <path id="DejaVuSans-50" d="M 1259 4147 
L 1259 2394 
L 2053 2394 
Q 2494 2394 2734 2622 
Q 2975 2850 2975 3272 
Q 2975 3691 2734 3919 
Q 2494 4147 2053 4147 
L 1259 4147 
z
M 628 4666 
L 2053 4666 
Q 2838 4666 3239 4311 
Q 3641 3956 3641 3272 
Q 3641 2581 3239 2228 
Q 2838 1875 2053 1875 
L 1259 1875 
L 1259 0 
L 628 0 
L 628 4666 
z
" transform="scale(0.015625)"/>
       <path id="DejaVuSans-4d" d="M 628 4666 
L 1569 4666 
L 2759 1491 
L 3956 4666 
L 4897 4666 
L 4897 0 
L 4281 0 
L 4281 4097 
L 3078 897 
L 2444 897 
L 1241 4097 
L 1241 0 
L 628 0 
L 628 4666 
z
" transform="scale(0.015625)"/>
       <path id="DejaVuSans-29" d="M 513 4856 
L 1013 4856 
Q 1481 4119 1714 3412 
Q 1947 2706 1947 2009 
Q 1947 1309 1714 600 
Q 1481 -109 1013 -844 
L 513 -844 
Q 928 -128 1133 580 
Q 1338 1288 1338 2009 
Q 1338 2731 1133 3434 
Q 928 4138 513 4856 
z
" transform="scale(0.015625)"/>
      </defs>
      <use xlink:href="#DejaVuSans-43"/>
      <use xlink:href="#DejaVuSans-4f" transform="translate(69.824219 0)"/>
      <use xlink:href="#DejaVuSans-32" transform="translate(148.535156 0)"/>
      <use xlink:href="#DejaVuSans-20" transform="translate(212.158203 0)"/>
      <use xlink:href="#DejaVuSans-28" transform="translate(243.945312 0)"/>
      <use xlink:href="#DejaVuSans-50" transform="translate(282.958984 0)"/>
      <use xlink:href="#DejaVuSans-50" transform="translate(343.261719 0)"/>
      <use xlink:href="#DejaVuSans-4d" transform="translate(403.564453 0)"/>
      <use xlink:href="#DejaVuSans-29" transform="translate(489.84375 0)"/>
     </g>
    </g>
   </g>
   <g id="line2d_15">
    <path d="M 92.821364 177.103609 
L 96.214585 170.352891 
L 99.607806 165.045135 
L 103.001027 164.643446 
L 106.394249 162.966491 
L 109.78747 169.955102 
L 113.180691 172.23654 
L 116.573912 173.234913 
L 119.967133 166.242403 
L 123.360355 169.799106 
L 126.753576 153.205055 
L 130.146797 140.019512 
L 133.540018 161.371434 
L 136.93324 139.71532 
L 140.326461 137.816072 
L 143.719682 144.274297 
L 147.112903 128.499224 
L 150.506125 145.159573 
L 153.899346 149.570354 
L 157.292567 117.150531 
L 160.685788 94.837285 
L 164.079009 111.437186 
L 167.472231 126.615575 
L 170.865452 126.260685 
L 174.258673 91.641322 
L 177.651894 98.696231 
L 181.045116 93.782364 
L 184.438337 115.411178 
L 187.831558 106.499919 
L 191.224779 124.763125 
L 194.618001 139.278532 
L 198.011222 126.596076 
L 201.404443 112.813849 
L 204.797664 131.997429 
L 208.190885 139.949314 
L 211.584107 142.390648 
L 214.977328 152.378278 
L 218.370549 156.777359 
L 221.76377 168.352245 
L 225.156992 174.514079 
L 228.550213 181.225797 
L 231.943434 182.649259 
L 235.336655 177.80949 
L 238.729877 178.560219 
L 242.123098 177.279104 
L 245.516319 174.970366 
L 248.90954 177.376601 
L 252.302761 178.008384 
L 255.695983 174.810471 
L 259.089204 172.101994 
L 262.482425 171.405863 
L 265.875646 170.41139 
L 269.268868 149.979843 
L 272.662089 169.221922 
L 276.05531 168.309347 
L 279.448531 166.3516 
L 282.841752 159.175794 
L 286.234974 162.030517 
L 289.628195 173.207614 
L 293.021416 158.59471 
L 296.414637 158.22422 
L 299.807859 164.13256 
L 303.20108 166.261902 
L 306.594301 162.798796 
L 309.987522 156.313271 
L 313.380744 153.532647 
L 320.167186 159.183594 
L 323.560407 160.774751 
L 326.953628 146.930125 
L 330.34685 156.067578 
L 333.740071 144.254798 
L 337.133292 140.932088 
L 340.526513 149.199864 
L 343.919735 140.717593 
L 347.312956 127.812843 
L 350.706177 136.583705 
L 354.099398 150.241136 
L 357.49262 146.310042 
L 360.885841 142.792337 
L 364.279062 120.403043 
L 367.672283 142.640241 
L 371.065504 144.399094 
L 374.458726 164.210558 
L 377.851947 164.530349 
L 381.245168 172.704528 
L 394.818053 179.057456 
L 398.211274 180.176725 
L 401.604496 184.189717 
L 404.997717 182.163722 
L 408.390938 178.016184 
L 411.784159 174.751972 
L 415.17738 180.028529 
L 421.963823 179.307049 
L 425.357044 180.098728 
L 428.750265 173.7341 
L 432.143487 166.948283 
L 435.536708 166.644092 
L 438.929929 170.914476 
L 442.32315 166.842986 
L 445.716372 172.915122 
L 449.109593 159.752978 
L 452.502814 166.051308 
L 455.896035 169.159524 
L 459.289256 152.799466 
L 462.682478 163.531976 
L 466.075699 160.373061 
L 469.46892 153.973335 
L 472.862141 149.644452 
L 476.255363 137.371484 
L 479.648584 140.84629 
L 483.041805 158.9652 
L 486.435026 135.378638 
L 489.828248 149.644452 
L 493.221469 154.609017 
L 496.61469 153.02176 
L 500.007911 149.036068 
L 503.401132 155.97788 
L 506.794354 165.98111 
L 510.187575 146.072148 
L 513.580796 152.846265 
L 516.974017 155.720487 
L 520.367239 162.190412 
L 523.76046 155.646389 
L 527.153681 126.537577 
L 530.546902 152.089686 
L 533.940123 153.587245 
L 537.333345 156.106577 
L 540.726566 148.306788 
L 544.119787 158.625909 
L 547.513008 162.861194 
L 550.90623 157.506639 
L 554.299451 168.032454 
L 557.692672 165.333727 
L 561.085893 165.439024 
L 564.479115 162.876794 
L 567.872336 162.026617 
L 571.265557 160.103969 
L 574.658778 159.261591 
L 578.051999 167.948606 
L 581.445221 168.001255 
L 584.838442 173.780899 
L 588.231663 171.257667 
L 595.018106 162.221611 
L 601.804548 166.421798 
L 605.197769 153.277203 
L 608.590991 154.480321 
L 611.984212 166.948283 
L 615.377433 166.628492 
L 618.770654 157.003553 
L 622.163875 109.565236 
L 625.557097 124.860623 
L 628.950318 105.860337 
L 632.343539 118.68319 
L 635.73676 121.24152 
L 639.129982 118.176203 
L 642.523203 137.117991 
L 645.916424 148.211241 
L 649.309645 134.598659 
L 652.702867 108.114476 
L 656.096088 90.494753 
L 659.489309 91.789518 
L 662.88253 129.946085 
L 666.275751 119.41637 
L 669.668973 113.535329 
L 673.062194 97.736857 
L 676.455415 79.329355 
L 679.848636 96.013103 
L 679.848636 96.013103 
" clip-path="url(#pecae7d497c)" style="fill: none; stroke: #1f77b4; stroke-width: 2; stroke-linecap: square"/>
   </g>
   <g id="line2d_16">
    <path d="M 92.821364 127.405304 
L 96.214585 126.196336 
L 99.607806 120.436749 
L 103.001027 131.216476 
L 106.394249 117.993466 
L 109.78747 134.348091 
L 113.180691 124.88625 
L 116.573912 128.305854 
L 119.967133 129.157192 
L 123.360355 125.414129 
L 126.753576 129.551917 
L 130.146797 127.705874 
L 133.540018 130.068374 
L 136.93324 131.556091 
L 140.326461 129.106493 
L 143.719682 141.361726 
L 147.112903 139.035067 
L 150.506125 145.854033 
L 153.899346 145.286598 
L 157.292567 148.692553 
L 164.079009 153.245029 
L 167.472231 156.550608 
L 170.865452 158.287268 
L 174.258673 157.355657 
L 177.651894 165.841363 
L 181.045116 166.270538 
L 184.438337 169.140581 
L 187.831558 168.825526 
L 191.224779 167.684249 
L 194.618001 169.181809 
L 198.011222 168.168393 
L 201.404443 167.458055 
L 204.797664 170.236452 
L 208.190885 169.081526 
L 211.584107 168.731649 
L 214.977328 170.614184 
L 218.370549 170.906119 
L 221.76377 174.2461 
L 225.156992 176.501353 
L 228.550213 175.642708 
L 231.943434 170.293743 
L 235.336655 158.776333 
L 238.729877 150.154688 
L 242.123098 157.040212 
L 245.516319 150.27902 
L 248.90954 142.930505 
L 252.302761 143.58903 
L 255.695983 141.296728 
L 259.089204 140.522924 
L 262.482425 130.881502 
L 265.875646 140.423987 
L 269.268868 138.295759 
L 272.662089 129.386729 
L 276.05531 141.702595 
L 279.448531 140.853533 
L 282.841752 137.330256 
L 286.234974 140.798516 
L 289.628195 137.979867 
L 293.021416 140.741318 
L 296.414637 143.668699 
L 299.807859 145.79052 
L 303.20108 153.333427 
L 306.594301 153.127336 
L 309.987522 156.23973 
L 313.380744 154.296747 
L 316.773965 160.85442 
L 320.167186 165.0248 
L 323.560407 175.681447 
L 326.953628 168.759227 
L 330.34685 174.866741 
L 333.740071 172.788654 
L 337.133292 170.318907 
L 340.526513 182.00602 
L 343.919735 185.528112 
L 347.312956 179.900564 
L 350.706177 172.015361 
L 357.49262 174.863398 
L 360.885841 175.296286 
L 364.279062 171.0922 
L 367.672283 175.045021 
L 371.065504 174.749187 
L 374.458726 175.448939 
L 377.851947 180.080899 
L 381.245168 179.098683 
L 384.638389 179.012607 
L 388.031611 178.008384 
L 391.424832 174.989866 
L 394.818053 174.317784 
L 398.211274 161.911291 
L 401.604496 163.934965 
L 404.997717 149.996278 
L 408.390938 153.294131 
L 411.784159 146.477737 
L 415.17738 147.409534 
L 418.570602 133.1011 
L 421.963823 145.713033 
L 428.750265 143.783189 
L 432.143487 139.611973 
L 435.536708 142.946104 
L 438.929929 148.500668 
L 442.32315 148.599559 
L 445.716372 157.883304 
L 449.109593 140.409223 
L 452.502814 147.371138 
L 455.896035 141.232658 
L 459.289256 138.964591 
L 462.682478 145.540649 
L 466.075699 140.661045 
L 469.46892 141.424124 
L 472.862141 149.500156 
L 476.255363 148.905747 
L 479.648584 152.170933 
L 483.041805 165.564601 
L 486.435026 162.623301 
L 489.828248 157.943817 
L 493.221469 166.577468 
L 496.61469 165.814064 
L 500.007911 167.066255 
L 503.401132 168.54594 
L 506.794354 170.418215 
L 510.187575 169.752633 
L 513.580796 172.751001 
L 516.974017 170.528387 
L 520.367239 169.357638 
L 523.76046 167.573827 
L 527.153681 170.986624 
L 530.546902 177.860838 
L 537.333345 181.795832 
L 540.726566 180.319722 
L 544.119787 183.32069 
L 550.90623 182.22417 
L 554.299451 180.127197 
L 557.692672 175.793244 
L 561.085893 172.215927 
L 564.479115 172.074138 
L 567.872336 171.425084 
L 571.265557 165.698089 
L 574.658778 156.3233 
L 578.051999 161.459461 
L 581.445221 161.27338 
L 584.838442 146.115047 
L 588.231663 145.559702 
L 591.624884 145.703998 
L 595.018106 144.094902 
L 598.411327 141.766177 
L 601.804548 136.079059 
L 605.197769 129.77332 
L 608.590991 127.89279 
L 611.984212 136.861768 
L 615.377433 133.634898 
L 618.770654 133.078675 
L 622.163875 109.180447 
L 625.557097 101.86977 
L 628.950318 96.701435 
L 632.343539 118.68319 
L 635.73676 121.24152 
L 639.129982 118.176203 
L 642.523203 137.117991 
L 645.916424 148.211241 
L 649.309645 134.598659 
L 652.702867 108.114476 
L 656.096088 90.494753 
L 659.489309 91.789518 
L 662.88253 129.946085 
L 666.275751 119.41637 
L 669.668973 113.535329 
L 673.062194 97.736857 
L 676.455415 79.329355 
L 679.848636 96.013103 
L 679.848636 96.013103 
" clip-path="url(#pecae7d497c)" style="fill: none; stroke-dasharray: 5.55,2.4; stroke-dashoffset: 0; stroke: #808080; stroke-width: 1.5"/>
   </g>
   <g id="patch_3">
    <path d="M 63.47 246.04 
L 63.47 26.88 
" style="fill: none; stroke: #000000; stroke-width: 0.8; stroke-linejoin: miter; stroke-linecap: square"/>
   </g>
   <g id="patch_4">
    <path d="M 709.2 246.04 
L 709.2 26.88 
" style="fill: none; stroke: #000000; stroke-width: 0.8; stroke-linejoin: miter; stroke-linecap: square"/>
   </g>
   <g id="patch_5">
    <path d="M 63.47 246.04 
L 709.2 246.04 
" style="fill: none; stroke: #000000; stroke-width: 0.8; stroke-linejoin: miter; stroke-linecap: square"/>
   </g>
   <g id="patch_6">
    <path d="M 63.47 26.88 
L 709.2 26.88 
" style="fill: none; stroke: #000000; stroke-width: 0.8; stroke-linejoin: miter; stroke-linecap: square"/>
   </g>
   <g id="text_17">
    <!-- CO2 - v001/c00002/d001 -->
    <g transform="translate(310.931875 20.88) scale(0.12 -0.12)">
     <defs>
      <path id="DejaVuSans-76" d="M 191 3500 
L 800 3500 
L 1894 563 
L 2988 3500 
L 3597 3500 
L 2284 0 
L 1503 0 
L 191 3500 
z
" transform="scale(0.015625)"/>
      <path id="DejaVuSans-2f" d="M 1625 4666 
L 2156 4666 
L 531 -594 
L 0 -594 
L 1625 4666 
z
" transform="scale(0.015625)"/>
      <path id="DejaVuSans-63" d="M 3122 3366 
L 3122 2828 
Q 2878 2963 2633 3030 
Q 2388 3097 2138 3097 
Q 1578 3097 1268 2742 
Q 959 2388 959 1747 
Q 959 1106 1268 751 
Q 1578 397 2138 397 
Q 2388 397 2633 464 
Q 2878 531 3122 666 
L 3122 134 
Q 2881 22 2623 -34 
Q 2366 -91 2075 -91 
Q 1284 -91 818 406 
Q 353 903 353 1747 
Q 353 2603 823 3093 
Q 1294 3584 2113 3584 
Q 2378 3584 2631 3529 
Q 2884 3475 3122 3366 
z
" transform="scale(0.015625)"/>
     </defs>
     <use xlink:href="#DejaVuSans-43"/>
     <use xlink:href="#DejaVuSans-4f" transform="translate(69.824219 0)"/>
     <use xlink:href="#DejaVuSans-32" transform="translate(148.535156 0)"/>
     <use xlink:href="#DejaVuSans-20" transform="translate(212.158203 0)"/>
     <use xlink:href="#DejaVuSans-2d" transform="translate(243.945312 0)"/>
     <use xlink:href="#DejaVuSans-20" transform="translate(280.029297 0)"/>
     <use xlink:href="#DejaVuSans-76" transform="translate(311.816406 0)"/>
     <use xlink:href="#DejaVuSans-30" transform="translate(370.996094 0)"/>
     <use xlink:href="#DejaVuSans-30" transform="translate(434.619141 0)"/>
     <use xlink:href="#DejaVuSans-31" transform="translate(498.242188 0)"/>
     <use xlink:href="#DejaVuSans-2f" transform="translate(561.865234 0)"/>
     <use xlink:href="#DejaVuSans-63" transform="translate(595.556641 0)"/>
     <use xlink:href="#DejaVuSans-30" transform="translate(650.537109 0)"/>
     <use xlink:href="#DejaVuSans-30" transform="translate(714.160156 0)"/>
     <use xlink:href="#DejaVuSans-30" transform="translate(777.783203 0)"/>
     <use xlink:href="#DejaVuSans-30" transform="translate(841.40625 0)"/>
     <use xlink:href="#DejaVuSans-32" transform="translate(905.029297 0)"/>
     <use xlink:href="#DejaVuSans-2f" transform="translate(968.652344 0)"/>
     <use xlink:href="#DejaVuSans-64" transform="translate(1002.34375 0)"/>
     <use xlink:href="#DejaVuSans-30" transform="translate(1065.820312 0)"/>
     <use xlink:href="#DejaVuSans-30" transform="translate(1129.443359 0)"/>
     <use xlink:href="#DejaVuSans-31" transform="translate(1193.066406 0)"/>
    </g>
   </g>
   <g id="legend_1">
    <g id="patch_7">
     <path d="M 310.863125 78.914375 
L 461.806875 78.914375 
Q 463.806875 78.914375 463.806875 76.914375 
L 463.806875 33.88 
Q 463.806875 31.88 461.806875 31.88 
L 310.863125 31.88 
Q 308.863125 31.88 308.863125 33.88 
L 308.863125 76.914375 
Q 308.863125 78.914375 310.863125 78.914375 
z
" style="fill: #ffffff; opacity: 0.8; stroke: #cccccc; stroke-linejoin: miter"/>
    </g>
    <g id="line2d_17">
     <path d="M 312.863125 39.978438 
L 322.863125 39.978438 
L 332.863125 39.978438 
" style="fill: none; stroke: #1f77b4; stroke-width: 2; stroke-linecap: square"/>
    </g>
    <g id="text_18">
     <!-- Hive -->
     <g transform="translate(340.863125 43.478438) scale(0.1 -0.1)">
      <defs>
       <path id="DejaVuSans-48" d="M 628 4666 
L 1259 4666 
L 1259 2753 
L 3553 2753 
L 3553 4666 
L 4184 4666 
L 4184 0 
L 3553 0 
L 3553 2222 
L 1259 2222 
L 1259 0 
L 628 0 
L 628 4666 
z
" transform="scale(0.015625)"/>
       <path id="DejaVuSans-65" d="M 3597 1894 
L 3597 1613 
L 953 1613 
Q 991 1019 1311 708 
Q 1631 397 2203 397 
Q 2534 397 2845 478 
Q 3156 559 3463 722 
L 3463 178 
Q 3153 47 2828 -22 
Q 2503 -91 2169 -91 
Q 1331 -91 842 396 
Q 353 884 353 1716 
Q 353 2575 817 3079 
Q 1281 3584 2069 3584 
Q 2775 3584 3186 3129 
Q 3597 2675 3597 1894 
z
M 3022 2063 
Q 3016 2534 2758 2815 
Q 2500 3097 2075 3097 
Q 1594 3097 1305 2825 
Q 1016 2553 972 2059 
L 3022 2063 
z
" transform="scale(0.015625)"/>
      </defs>
      <use xlink:href="#DejaVuSans-48"/>
      <use xlink:href="#DejaVuSans-69" transform="translate(75.195312 0)"/>
      <use xlink:href="#DejaVuSans-76" transform="translate(102.978516 0)"/>
      <use xlink:href="#DejaVuSans-65" transform="translate(162.158203 0)"/>
     </g>
    </g>
    <g id="line2d_18">
     <path d="M 312.863125 54.656563 
L 322.863125 54.656563 
L 332.863125 54.656563 
" style="fill: none; stroke-dasharray: 5.55,2.4; stroke-dashoffset: 0; stroke: #808080; stroke-width: 1.5"/>
    </g>
    <g id="text_19">
     <!-- Gemiddelde (alle hives) -->
     <g transform="translate(340.863125 58.156563) scale(0.1 -0.1)">
      <defs>
       <path id="DejaVuSans-47" d="M 3809 666 
L 3809 1919 
L 2778 1919 
L 2778 2438 
L 4434 2438 
L 4434 434 
Q 4069 175 3628 42 
Q 3188 -91 2688 -91 
Q 1594 -91 976 548 
Q 359 1188 359 2328 
Q 359 3472 976 4111 
Q 1594 4750 2688 4750 
Q 3144 4750 3555 4637 
Q 3966 4525 4313 4306 
L 4313 3634 
Q 3963 3931 3569 4081 
Q 3175 4231 2741 4231 
Q 1884 4231 1454 3753 
Q 1025 3275 1025 2328 
Q 1025 1384 1454 906 
Q 1884 428 2741 428 
Q 3075 428 3337 486 
Q 3600 544 3809 666 
z
" transform="scale(0.015625)"/>
       <path id="DejaVuSans-6d" d="M 3328 2828 
Q 3544 3216 3844 3400 
Q 4144 3584 4550 3584 
Q 5097 3584 5394 3201 
Q 5691 2819 5691 2113 
L 5691 0 
L 5113 0 
L 5113 2094 
Q 5113 2597 4934 2840 
Q 4756 3084 4391 3084 
Q 3944 3084 3684 2787 
Q 3425 2491 3425 1978 
L 3425 0 
L 2847 0 
L 2847 2094 
Q 2847 2600 2669 2842 
Q 2491 3084 2119 3084 
Q 1678 3084 1418 2786 
Q 1159 2488 1159 1978 
L 1159 0 
L 581 0 
L 581 3500 
L 1159 3500 
L 1159 2956 
Q 1356 3278 1631 3431 
Q 1906 3584 2284 3584 
Q 2666 3584 2933 3390 
Q 3200 3197 3328 2828 
z
" transform="scale(0.015625)"/>
       <path id="DejaVuSans-6c" d="M 603 4863 
L 1178 4863 
L 1178 0 
L 603 0 
L 603 4863 
z
" transform="scale(0.015625)"/>
       <path id="DejaVuSans-61" d="M 2194 1759 
Q 1497 1759 1228 1600 
Q 959 1441 959 1056 
Q 959 750 1161 570 
Q 1363 391 1709 391 
Q 2188 391 2477 730 
Q 2766 1069 2766 1631 
L 2766 1759 
L 2194 1759 
z
M 3341 1997 
L 3341 0 
L 2766 0 
L 2766 531 
Q 2569 213 2275 61 
Q 1981 -91 1556 -91 
Q 1019 -91 701 211 
Q 384 513 384 1019 
Q 384 1609 779 1909 
Q 1175 2209 1959 2209 
L 2766 2209 
L 2766 2266 
Q 2766 2663 2505 2880 
Q 2244 3097 1772 3097 
Q 1472 3097 1187 3025 
Q 903 2953 641 2809 
L 641 3341 
Q 956 3463 1253 3523 
Q 1550 3584 1831 3584 
Q 2591 3584 2966 3190 
Q 3341 2797 3341 1997 
z
" transform="scale(0.015625)"/>
       <path id="DejaVuSans-68" d="M 3513 2113 
L 3513 0 
L 2938 0 
L 2938 2094 
Q 2938 2591 2744 2837 
Q 2550 3084 2163 3084 
Q 1697 3084 1428 2787 
Q 1159 2491 1159 1978 
L 1159 0 
L 581 0 
L 581 4863 
L 1159 4863 
L 1159 2956 
Q 1366 3272 1645 3428 
Q 1925 3584 2291 3584 
Q 2894 3584 3203 3211 
Q 3513 2838 3513 2113 
z
" transform="scale(0.015625)"/>
       <path id="DejaVuSans-73" d="M 2834 3397 
L 2834 2853 
Q 2591 2978 2328 3040 
Q 2066 3103 1784 3103 
Q 1356 3103 1142 2972 
Q 928 2841 928 2578 
Q 928 2378 1081 2264 
Q 1234 2150 1697 2047 
L 1894 2003 
Q 2506 1872 2764 1633 
Q 3022 1394 3022 966 
Q 3022 478 2636 193 
Q 2250 -91 1575 -91 
Q 1294 -91 989 -36 
Q 684 19 347 128 
L 347 722 
Q 666 556 975 473 
Q 1284 391 1588 391 
Q 1994 391 2212 530 
Q 2431 669 2431 922 
Q 2431 1156 2273 1281 
Q 2116 1406 1581 1522 
L 1381 1569 
Q 847 1681 609 1914 
Q 372 2147 372 2553 
Q 372 3047 722 3315 
Q 1072 3584 1716 3584 
Q 2034 3584 2315 3537 
Q 2597 3491 2834 3397 
z
" transform="scale(0.015625)"/>
      </defs>
      <use xlink:href="#DejaVuSans-47"/>
      <use xlink:href="#DejaVuSans-65" transform="translate(77.490234 0)"/>
      <use xlink:href="#DejaVuSans-6d" transform="translate(139.013672 0)"/>
      <use xlink:href="#DejaVuSans-69" transform="translate(236.425781 0)"/>
      <use xlink:href="#DejaVuSans-64" transform="translate(264.208984 0)"/>
      <use xlink:href="#DejaVuSans-64" transform="translate(327.685547 0)"/>
      <use xlink:href="#DejaVuSans-65" transform="translate(391.162109 0)"/>
      <use xlink:href="#DejaVuSans-6c" transform="translate(452.685547 0)"/>
      <use xlink:href="#DejaVuSans-64" transform="translate(480.46875 0)"/>
      <use xlink:href="#DejaVuSans-65" transform="translate(543.945312 0)"/>
      <use xlink:href="#DejaVuSans-20" transform="translate(605.46875 0)"/>
      <use xlink:href="#DejaVuSans-28" transform="translate(637.255859 0)"/>
      <use xlink:href="#DejaVuSans-61" transform="translate(676.269531 0)"/>
      <use xlink:href="#DejaVuSans-6c" transform="translate(737.548828 0)"/>
      <use xlink:href="#DejaVuSans-6c" transform="translate(765.332031 0)"/>
      <use xlink:href="#DejaVuSans-65" transform="translate(793.115234 0)"/>
      <use xlink:href="#DejaVuSans-20" transform="translate(854.638672 0)"/>
      <use xlink:href="#DejaVuSans-68" transform="translate(886.425781 0)"/>
      <use xlink:href="#DejaVuSans-69" transform="translate(949.804688 0)"/>
      <use xlink:href="#DejaVuSans-76" transform="translate(977.587891 0)"/>
      <use xlink:href="#DejaVuSans-65" transform="translate(1036.767578 0)"/>
      <use xlink:href="#DejaVuSans-73" transform="translate(1098.291016 0)"/>
      <use xlink:href="#DejaVuSans-29" transform="translate(1150.390625 0)"/>
     </g>
    </g>
    <g id="patch_8">
     <path d="M 312.863125 72.834688 
L 332.863125 72.834688 
L 332.863125 65.834688 
L 312.863125 65.834688 
z
" style="fill: #808080; fill-opacity: 0.2; stroke: #808080; stroke-opacity: 0.2; stroke-linejoin: miter"/>
    </g>
    <g id="text_20">
     <!-- ±2 Std Dev -->
     <g transform="translate(340.863125 72.834688) scale(0.1 -0.1)">
      <defs>
       <path id="DejaVuSans-b1" d="M 2944 4013 
L 2944 2803 
L 4684 2803 
L 4684 2272 
L 2944 2272 
L 2944 1063 
L 2419 1063 
L 2419 2272 
L 678 2272 
L 678 2803 
L 2419 2803 
L 2419 4013 
L 2944 4013 
z
M 678 531 
L 4684 531 
L 4684 0 
L 678 0 
L 678 531 
z
" transform="scale(0.015625)"/>
       <path id="DejaVuSans-53" d="M 3425 4513 
L 3425 3897 
Q 3066 4069 2747 4153 
Q 2428 4238 2131 4238 
Q 1616 4238 1336 4038 
Q 1056 3838 1056 3469 
Q 1056 3159 1242 3001 
Q 1428 2844 1947 2747 
L 2328 2669 
Q 3034 2534 3370 2195 
Q 3706 1856 3706 1288 
Q 3706 609 3251 259 
Q 2797 -91 1919 -91 
Q 1588 -91 1214 -16 
Q 841 59 441 206 
L 441 856 
Q 825 641 1194 531 
Q 1563 422 1919 422 
Q 2459 422 2753 634 
Q 3047 847 3047 1241 
Q 3047 1584 2836 1778 
Q 2625 1972 2144 2069 
L 1759 2144 
Q 1053 2284 737 2584 
Q 422 2884 422 3419 
Q 422 4038 858 4394 
Q 1294 4750 2059 4750 
Q 2388 4750 2728 4690 
Q 3069 4631 3425 4513 
z
" transform="scale(0.015625)"/>
       <path id="DejaVuSans-74" d="M 1172 4494 
L 1172 3500 
L 2356 3500 
L 2356 3053 
L 1172 3053 
L 1172 1153 
Q 1172 725 1289 603 
Q 1406 481 1766 481 
L 2356 481 
L 2356 0 
L 1766 0 
Q 1100 0 847 248 
Q 594 497 594 1153 
L 594 3053 
L 172 3053 
L 172 3500 
L 594 3500 
L 594 4494 
L 1172 4494 
z
" transform="scale(0.015625)"/>
       <path id="DejaVuSans-44" d="M 1259 4147 
L 1259 519 
L 2022 519 
Q 2988 519 3436 956 
Q 3884 1394 3884 2338 
Q 3884 3275 3436 3711 
Q 2988 4147 2022 4147 
L 1259 4147 
z
M 628 4666 
L 1925 4666 
Q 3281 4666 3915 4102 
Q 4550 3538 4550 2338 
Q 4550 1131 3912 565 
Q 3275 0 1925 0 
L 628 0 
L 628 4666 
z
" transform="scale(0.015625)"/>
      </defs>
      <use xlink:href="#DejaVuSans-b1"/>
      <use xlink:href="#DejaVuSans-32" transform="translate(83.789062 0)"/>
      <use xlink:href="#DejaVuSans-20" transform="translate(147.412109 0)"/>
      <use xlink:href="#DejaVuSans-53" transform="translate(179.199219 0)"/>
      <use xlink:href="#DejaVuSans-74" transform="translate(242.675781 0)"/>
      <use xlink:href="#DejaVuSans-64" transform="translate(281.884766 0)"/>
      <use xlink:href="#DejaVuSans-20" transform="translate(345.361328 0)"/>
      <use xlink:href="#DejaVuSans-44" transform="translate(377.148438 0)"/>
      <use xlink:href="#DejaVuSans-65" transform="translate(454.150391 0)"/>
      <use xlink:href="#DejaVuSans-76" transform="translate(515.673828 0)"/>
     </g>
    </g>
   </g>
  </g>
 </g>
 <defs>
  <clipPath id="pecae7d497c">
   <rect x="63.47" y="26.88" width="645.73" height="219.16"/>
  </clipPath>
 </defs>
</svg>
