<?xml version="1.0" encoding="utf-8" standalone="no"?>
<!DOCTYPE svg PUBLIC "-//W3C//DTD SVG 1.1//EN"
  "http://www.w3.org/Graphics/SVG/1.1/DTD/svg11.dtd">
<svg xmlns:xlink="http://www.w3.org/1999/xlink" width="720pt" height="288pt" viewBox="0 0 720 288" xmlns="http://www.w3.org/2000/svg" version="1.1">
 <metadata>
  <rdf:RDF xmlns:dc="http://purl.org/dc/elements/1.1/" xmlns:cc="http://creativecommons.org/ns#" xmlns:rdf="http://www.w3.org/1999/02/22-rdf-syntax-ns#">
   <cc:Work>
    <dc:type rdf:resource="http://purl.org/dc/dcmitype/StillImage"/>
    <dc:date>2025-06-16T17:15:00.818033</dc:date>
    <dc:format>image/svg+xml</dc:format>
    <dc:creator>
     <cc:Agent>
      <dc:title>Matplotlib v3.10.3, https://matplotlib.org/</dc:title>
     </cc:Agent>
    </dc:creator>
   </cc:Work>
  </rdf:RDF>
 </metadata>
 <defs>
  <style type="text/css">*{stroke-linejoin: round; stroke-linecap: butt}</style>
 </defs>
 <g id="figure_1">
  <g id="patch_1">
   <path d="M 0 288 
L 720 288 
L 720 0 
L 0 0 
z
" style="fill: #ffffff"/>
  </g>
  <g id="axes_1">
   <g id="patch_2">
    <path d="M 44.57 246.04 
L 709.2 246.04 
L 709.2 26.88 
L 44.57 26.88 
z
" style="fill: #ffffff"/>
   </g>
   <g id="FillBetweenPolyCollection_1">
    <defs>
     <path id="m385fdd687e" d="M 74.780455 -245.516243 
L 74.780455 -84.545835 
L 78.313841 -86.756445 
L 81.847228 -106.775081 
L 85.380614 -122.857997 
L 88.914001 -142.668912 
L 92.447387 -121.341638 
L 95.980774 -106.926171 
L 99.51416 -113.088467 
L 103.047547 -116.968569 
L 106.580933 -120.56141 
L 110.11432 -123.954374 
L 113.647706 -119.751932 
L 117.181093 -94.764798 
L 120.714479 -85.136436 
L 124.247865 -78.574846 
L 127.781252 -75.106504 
L 131.314638 -73.699383 
L 134.848025 -93.048447 
L 138.381411 -95.101485 
L 141.914798 -87.208312 
L 145.448184 -82.194717 
L 148.981571 -87.408078 
L 152.514957 -93.863827 
L 156.048344 -94.796175 
L 159.58173 -96.050474 
L 163.115117 -96.600282 
L 166.648503 -96.227784 
L 170.18189 -93.513888 
L 173.715276 -94.178753 
L 177.248663 -103.463953 
L 180.782049 -96.055513 
L 184.315436 -96.705672 
L 187.848822 -96.322582 
L 191.382209 -97.590139 
L 194.915595 -98.904113 
L 198.448982 -101.84986 
L 201.982368 -99.99521 
L 205.515755 -102.517063 
L 209.049141 -103.989057 
L 212.582528 -103.127076 
L 216.115914 -106.448042 
L 219.649301 -109.2931 
L 223.182687 -109.034498 
L 226.716074 -105.139577 
L 230.24946 -110.181301 
L 233.782847 -109.03183 
L 237.316233 -109.880994 
L 240.84962 -109.520204 
L 244.383006 -107.734357 
L 247.916393 -109.09964 
L 251.449779 -118.711495 
L 254.983166 -117.08181 
L 258.516552 -118.995932 
L 262.049939 -123.737124 
L 265.583325 -120.747537 
L 269.116712 -118.437187 
L 272.650098 -113.994551 
L 276.183485 -110.703448 
L 279.716871 -104.229254 
L 283.250258 -108.275774 
L 286.783644 -105.907383 
L 290.317031 -100.786296 
L 293.850417 -96.591291 
L 297.383804 -99.60089 
L 300.91719 -98.756281 
L 304.450577 -100.026923 
L 307.983963 -93.348854 
L 311.51735 -89.132713 
L 315.050736 -89.441332 
L 318.584123 -86.317203 
L 322.117509 -78.187337 
L 325.650896 -81.752454 
L 329.184282 -83.113568 
L 332.717669 -85.190072 
L 336.251055 -87.755006 
L 339.784442 -89.181873 
L 343.317828 -90.163294 
L 346.851215 -90.793689 
L 350.384601 -90.523373 
L 353.917988 -91.457964 
L 357.451374 -91.712375 
L 360.984761 -91.851133 
L 364.518147 -93.303342 
L 368.051534 -95.000698 
L 371.58492 -96.4189 
L 375.118307 -95.697474 
L 378.651693 -94.102942 
L 382.18508 -94.27544 
L 385.718466 -91.942436 
L 389.251853 -89.817633 
L 392.785239 -89.566008 
L 396.318626 -88.547052 
L 399.852012 -88.07213 
L 403.385399 -89.528203 
L 406.918785 -90.857591 
L 410.452172 -94.68857 
L 413.985558 -82.104248 
L 417.518945 -78.369202 
L 421.052331 -84.989407 
L 424.585718 -91.090743 
L 428.119104 -103.104997 
L 431.652491 -101.451832 
L 435.185877 -87.50119 
L 438.719264 -85.300535 
L 442.25265 -93.629648 
L 445.786037 -87.662862 
L 449.319423 -95.636931 
L 452.85281 -94.008788 
L 456.386196 -94.544662 
L 459.919583 -79.299337 
L 463.452969 -58.649538 
L 466.986356 -63.160943 
L 470.519742 -51.921818 
L 474.053129 -60.851799 
L 477.586515 -56.894375 
L 481.119902 -61.147921 
L 484.653288 -63.476566 
L 488.186675 -68.725739 
L 491.720061 -71.291576 
L 495.253448 -78.037418 
L 498.786834 -81.293736 
L 502.320221 -82.952587 
L 505.853607 -82.866937 
L 509.386994 -82.957825 
L 512.92038 -82.499653 
L 516.453767 -82.208353 
L 519.987153 -82.464959 
L 523.52054 -84.471908 
L 527.053926 -87.404291 
L 530.587313 -90.268482 
L 534.120699 -90.548553 
L 537.654086 -91.23426 
L 541.187472 -89.382717 
L 544.720859 -90.158105 
L 548.254245 -92.572129 
L 551.787632 -90.858545 
L 555.321018 -88.77907 
L 558.854405 -87.356097 
L 562.387791 -83.011065 
L 565.921178 -78.411315 
L 569.454564 -71.294745 
L 572.987951 -82.620016 
L 576.521337 -85.099133 
L 580.054724 -87.541577 
L 583.58811 -77.430903 
L 587.121497 -69.024908 
L 590.654883 -68.658693 
L 594.18827 -75.18751 
L 597.721656 -99.762633 
L 601.255043 -97.983136 
L 601.255043 -171.972677 
L 601.255043 -171.972677 
L 597.721656 -164.976334 
L 594.18827 -204.056337 
L 590.654883 -214.226718 
L 587.121497 -212.387512 
L 583.58811 -195.736852 
L 580.054724 -170.200677 
L 576.521337 -168.796975 
L 572.987951 -167.123071 
L 569.454564 -178.305135 
L 565.921178 -161.777782 
L 562.387791 -149.58803 
L 558.854405 -141.315019 
L 555.321018 -133.775037 
L 551.787632 -124.45335 
L 548.254245 -117.850251 
L 544.720859 -115.947589 
L 541.187472 -112.692707 
L 537.654086 -108.324802 
L 534.120699 -106.187274 
L 530.587313 -103.971441 
L 527.053926 -105.035309 
L 523.52054 -107.742651 
L 519.987153 -111.365801 
L 516.453767 -114.036477 
L 512.92038 -116.138789 
L 509.386994 -118.606143 
L 505.853607 -121.479349 
L 502.320221 -123.828229 
L 498.786834 -127.55336 
L 495.253448 -132.323587 
L 491.720061 -142.383661 
L 488.186675 -147.077154 
L 484.653288 -156.172473 
L 481.119902 -160.342358 
L 477.586515 -168.973964 
L 474.053129 -168.003442 
L 470.519742 -183.807385 
L 466.986356 -173.141091 
L 463.452969 -182.603386 
L 459.919583 -157.616443 
L 456.386196 -144.416941 
L 452.85281 -151.131199 
L 449.319423 -150.525968 
L 445.786037 -169.097397 
L 442.25265 -163.908023 
L 438.719264 -182.261666 
L 435.185877 -176.992278 
L 431.652491 -155.635758 
L 428.119104 -151.814021 
L 424.585718 -171.806983 
L 421.052331 -183.022875 
L 417.518945 -195.146343 
L 413.985558 -185.130622 
L 410.452172 -158.02096 
L 406.918785 -156.410051 
L 403.385399 -153.381837 
L 399.852012 -152.239716 
L 396.318626 -145.975117 
L 392.785239 -140.025729 
L 389.251853 -135.43696 
L 385.718466 -128.013476 
L 382.18508 -120.545458 
L 378.651693 -116.87181 
L 375.118307 -111.369756 
L 371.58492 -109.052589 
L 368.051534 -109.652463 
L 364.518147 -111.002028 
L 360.984761 -112.085989 
L 357.451374 -112.981702 
L 353.917988 -114.42269 
L 350.384601 -116.891647 
L 346.851215 -118.401197 
L 343.317828 -121.056956 
L 339.784442 -122.897623 
L 336.251055 -127.454598 
L 332.717669 -132.269937 
L 329.184282 -137.865256 
L 325.650896 -142.90885 
L 322.117509 -150.299655 
L 318.584123 -140.533131 
L 315.050736 -139.209326 
L 311.51735 -143.343633 
L 307.983963 -140.825525 
L 304.450577 -129.83759 
L 300.91719 -139.918907 
L 297.383804 -145.498181 
L 293.850417 -154.931663 
L 290.317031 -152.127816 
L 286.783644 -151.548455 
L 283.250258 -158.018017 
L 279.716871 -172.129984 
L 276.183485 -160.58215 
L 272.650098 -159.664201 
L 269.116712 -154.93515 
L 265.583325 -155.816284 
L 262.049939 -157.368422 
L 258.516552 -156.27902 
L 254.983166 -158.581849 
L 251.449779 -162.885049 
L 247.916393 -174.15402 
L 244.383006 -176.296715 
L 240.84962 -171.912674 
L 237.316233 -172.124714 
L 233.782847 -167.613823 
L 230.24946 -163.109203 
L 226.716074 -174.203152 
L 223.182687 -166.097246 
L 219.649301 -158.432768 
L 216.115914 -158.393216 
L 212.582528 -156.309801 
L 209.049141 -146.551901 
L 205.515755 -144.914245 
L 201.982368 -139.661972 
L 198.448982 -139.137108 
L 194.915595 -131.724173 
L 191.382209 -135.459037 
L 187.848822 -136.951634 
L 184.315436 -139.96461 
L 180.782049 -142.087761 
L 177.248663 -130.076221 
L 173.715276 -150.961234 
L 170.18189 -155.349496 
L 166.648503 -161.985008 
L 163.115117 -162.819546 
L 159.58173 -164.474098 
L 156.048344 -168.019718 
L 152.514957 -169.954519 
L 148.981571 -181.627115 
L 145.448184 -193.901973 
L 141.914798 -188.168931 
L 138.381411 -182.427282 
L 134.848025 -192.022585 
L 131.314638 -222.4225 
L 127.781252 -228.748588 
L 124.247865 -230.803967 
L 120.714479 -226.901946 
L 117.181093 -220.710566 
L 113.647706 -197.278257 
L 110.11432 -196.430963 
L 106.580933 -202.974494 
L 103.047547 -209.636069 
L 99.51416 -223.131537 
L 95.980774 -233.221812 
L 92.447387 -223.375348 
L 88.914001 -195.269582 
L 85.380614 -205.751547 
L 81.847228 -231.20433 
L 78.313841 -251.158182 
L 74.780455 -245.516243 
z
" style="stroke: #808080; stroke-opacity: 0.2"/>
    </defs>
    <g clip-path="url(#p7f931d4bf5)">
     <use xlink:href="#m385fdd687e" x="0" y="288" style="fill: #808080; fill-opacity: 0.2; stroke: #808080; stroke-opacity: 0.2"/>
    </g>
   </g>
   <g id="matplotlib.axis_1">
    <g id="xtick_1">
     <g id="line2d_1">
      <defs>
       <path id="mf4af3e01c1" d="M 0 0 
L 0 3.5 
" style="stroke: #000000; stroke-width: 0.8"/>
      </defs>
      <g>
       <use xlink:href="#mf4af3e01c1" x="124.247865" y="246.04" style="stroke: #000000; stroke-width: 0.8"/>
      </g>
     </g>
     <g id="text_1">
      <!-- 06-14 00 -->
      <g transform="translate(101.767397 260.638438) scale(0.1 -0.1)">
       <defs>
        <path id="DejaVuSans-30" d="M 2034 4250 
Q 1547 4250 1301 3770 
Q 1056 3291 1056 2328 
Q 1056 1369 1301 889 
Q 1547 409 2034 409 
Q 2525 409 2770 889 
Q 3016 1369 3016 2328 
Q 3016 3291 2770 3770 
Q 2525 4250 2034 4250 
z
M 2034 4750 
Q 2819 4750 3233 4129 
Q 3647 3509 3647 2328 
Q 3647 1150 3233 529 
Q 2819 -91 2034 -91 
Q 1250 -91 836 529 
Q 422 1150 422 2328 
Q 422 3509 836 4129 
Q 1250 4750 2034 4750 
z
" transform="scale(0.015625)"/>
        <path id="DejaVuSans-36" d="M 2113 2584 
Q 1688 2584 1439 2293 
Q 1191 2003 1191 1497 
Q 1191 994 1439 701 
Q 1688 409 2113 409 
Q 2538 409 2786 701 
Q 3034 994 3034 1497 
Q 3034 2003 2786 2293 
Q 2538 2584 2113 2584 
z
M 3366 4563 
L 3366 3988 
Q 3128 4100 2886 4159 
Q 2644 4219 2406 4219 
Q 1781 4219 1451 3797 
Q 1122 3375 1075 2522 
Q 1259 2794 1537 2939 
Q 1816 3084 2150 3084 
Q 2853 3084 3261 2657 
Q 3669 2231 3669 1497 
Q 3669 778 3244 343 
Q 2819 -91 2113 -91 
Q 1303 -91 875 529 
Q 447 1150 447 2328 
Q 447 3434 972 4092 
Q 1497 4750 2381 4750 
Q 2619 4750 2861 4703 
Q 3103 4656 3366 4563 
z
" transform="scale(0.015625)"/>
        <path id="DejaVuSans-2d" d="M 313 2009 
L 1997 2009 
L 1997 1497 
L 313 1497 
L 313 2009 
z
" transform="scale(0.015625)"/>
        <path id="DejaVuSans-31" d="M 794 531 
L 1825 531 
L 1825 4091 
L 703 3866 
L 703 4441 
L 1819 4666 
L 2450 4666 
L 2450 531 
L 3481 531 
L 3481 0 
L 794 0 
L 794 531 
z
" transform="scale(0.015625)"/>
        <path id="DejaVuSans-34" d="M 2419 4116 
L 825 1625 
L 2419 1625 
L 2419 4116 
z
M 2253 4666 
L 3047 4666 
L 3047 1625 
L 3713 1625 
L 3713 1100 
L 3047 1100 
L 3047 0 
L 2419 0 
L 2419 1100 
L 313 1100 
L 313 1709 
L 2253 4666 
z
" transform="scale(0.015625)"/>
        <path id="DejaVuSans-20" transform="scale(0.015625)"/>
       </defs>
       <use xlink:href="#DejaVuSans-30"/>
       <use xlink:href="#DejaVuSans-36" transform="translate(63.623047 0)"/>
       <use xlink:href="#DejaVuSans-2d" transform="translate(127.246094 0)"/>
       <use xlink:href="#DejaVuSans-31" transform="translate(163.330078 0)"/>
       <use xlink:href="#DejaVuSans-34" transform="translate(226.953125 0)"/>
       <use xlink:href="#DejaVuSans-20" transform="translate(290.576172 0)"/>
       <use xlink:href="#DejaVuSans-30" transform="translate(322.363281 0)"/>
       <use xlink:href="#DejaVuSans-30" transform="translate(385.986328 0)"/>
      </g>
     </g>
    </g>
    <g id="xtick_2">
     <g id="line2d_2">
      <g>
       <use xlink:href="#mf4af3e01c1" x="209.049141" y="246.04" style="stroke: #000000; stroke-width: 0.8"/>
      </g>
     </g>
     <g id="text_2">
      <!-- 06-14 12 -->
      <g transform="translate(186.568673 260.638438) scale(0.1 -0.1)">
       <defs>
        <path id="DejaVuSans-32" d="M 1228 531 
L 3431 531 
L 3431 0 
L 469 0 
L 469 531 
Q 828 903 1448 1529 
Q 2069 2156 2228 2338 
Q 2531 2678 2651 2914 
Q 2772 3150 2772 3378 
Q 2772 3750 2511 3984 
Q 2250 4219 1831 4219 
Q 1534 4219 1204 4116 
Q 875 4013 500 3803 
L 500 4441 
Q 881 4594 1212 4672 
Q 1544 4750 1819 4750 
Q 2544 4750 2975 4387 
Q 3406 4025 3406 3419 
Q 3406 3131 3298 2873 
Q 3191 2616 2906 2266 
Q 2828 2175 2409 1742 
Q 1991 1309 1228 531 
z
" transform="scale(0.015625)"/>
       </defs>
       <use xlink:href="#DejaVuSans-30"/>
       <use xlink:href="#DejaVuSans-36" transform="translate(63.623047 0)"/>
       <use xlink:href="#DejaVuSans-2d" transform="translate(127.246094 0)"/>
       <use xlink:href="#DejaVuSans-31" transform="translate(163.330078 0)"/>
       <use xlink:href="#DejaVuSans-34" transform="translate(226.953125 0)"/>
       <use xlink:href="#DejaVuSans-20" transform="translate(290.576172 0)"/>
       <use xlink:href="#DejaVuSans-31" transform="translate(322.363281 0)"/>
       <use xlink:href="#DejaVuSans-32" transform="translate(385.986328 0)"/>
      </g>
     </g>
    </g>
    <g id="xtick_3">
     <g id="line2d_3">
      <g>
       <use xlink:href="#mf4af3e01c1" x="293.850417" y="246.04" style="stroke: #000000; stroke-width: 0.8"/>
      </g>
     </g>
     <g id="text_3">
      <!-- 06-15 00 -->
      <g transform="translate(271.369949 260.638438) scale(0.1 -0.1)">
       <defs>
        <path id="DejaVuSans-35" d="M 691 4666 
L 3169 4666 
L 3169 4134 
L 1269 4134 
L 1269 2991 
Q 1406 3038 1543 3061 
Q 1681 3084 1819 3084 
Q 2600 3084 3056 2656 
Q 3513 2228 3513 1497 
Q 3513 744 3044 326 
Q 2575 -91 1722 -91 
Q 1428 -91 1123 -41 
Q 819 9 494 109 
L 494 744 
Q 775 591 1075 516 
Q 1375 441 1709 441 
Q 2250 441 2565 725 
Q 2881 1009 2881 1497 
Q 2881 1984 2565 2268 
Q 2250 2553 1709 2553 
Q 1456 2553 1204 2497 
Q 953 2441 691 2322 
L 691 4666 
z
" transform="scale(0.015625)"/>
       </defs>
       <use xlink:href="#DejaVuSans-30"/>
       <use xlink:href="#DejaVuSans-36" transform="translate(63.623047 0)"/>
       <use xlink:href="#DejaVuSans-2d" transform="translate(127.246094 0)"/>
       <use xlink:href="#DejaVuSans-31" transform="translate(163.330078 0)"/>
       <use xlink:href="#DejaVuSans-35" transform="translate(226.953125 0)"/>
       <use xlink:href="#DejaVuSans-20" transform="translate(290.576172 0)"/>
       <use xlink:href="#DejaVuSans-30" transform="translate(322.363281 0)"/>
       <use xlink:href="#DejaVuSans-30" transform="translate(385.986328 0)"/>
      </g>
     </g>
    </g>
    <g id="xtick_4">
     <g id="line2d_4">
      <g>
       <use xlink:href="#mf4af3e01c1" x="378.651693" y="246.04" style="stroke: #000000; stroke-width: 0.8"/>
      </g>
     </g>
     <g id="text_4">
      <!-- 06-15 12 -->
      <g transform="translate(356.171224 260.638438) scale(0.1 -0.1)">
       <use xlink:href="#DejaVuSans-30"/>
       <use xlink:href="#DejaVuSans-36" transform="translate(63.623047 0)"/>
       <use xlink:href="#DejaVuSans-2d" transform="translate(127.246094 0)"/>
       <use xlink:href="#DejaVuSans-31" transform="translate(163.330078 0)"/>
       <use xlink:href="#DejaVuSans-35" transform="translate(226.953125 0)"/>
       <use xlink:href="#DejaVuSans-20" transform="translate(290.576172 0)"/>
       <use xlink:href="#DejaVuSans-31" transform="translate(322.363281 0)"/>
       <use xlink:href="#DejaVuSans-32" transform="translate(385.986328 0)"/>
      </g>
     </g>
    </g>
    <g id="xtick_5">
     <g id="line2d_5">
      <g>
       <use xlink:href="#mf4af3e01c1" x="463.452969" y="246.04" style="stroke: #000000; stroke-width: 0.8"/>
      </g>
     </g>
     <g id="text_5">
      <!-- 06-16 00 -->
      <g transform="translate(440.9725 260.638438) scale(0.1 -0.1)">
       <use xlink:href="#DejaVuSans-30"/>
       <use xlink:href="#DejaVuSans-36" transform="translate(63.623047 0)"/>
       <use xlink:href="#DejaVuSans-2d" transform="translate(127.246094 0)"/>
       <use xlink:href="#DejaVuSans-31" transform="translate(163.330078 0)"/>
       <use xlink:href="#DejaVuSans-36" transform="translate(226.953125 0)"/>
       <use xlink:href="#DejaVuSans-20" transform="translate(290.576172 0)"/>
       <use xlink:href="#DejaVuSans-30" transform="translate(322.363281 0)"/>
       <use xlink:href="#DejaVuSans-30" transform="translate(385.986328 0)"/>
      </g>
     </g>
    </g>
    <g id="xtick_6">
     <g id="line2d_6">
      <g>
       <use xlink:href="#mf4af3e01c1" x="548.254245" y="246.04" style="stroke: #000000; stroke-width: 0.8"/>
      </g>
     </g>
     <g id="text_6">
      <!-- 06-16 12 -->
      <g transform="translate(525.773776 260.638438) scale(0.1 -0.1)">
       <use xlink:href="#DejaVuSans-30"/>
       <use xlink:href="#DejaVuSans-36" transform="translate(63.623047 0)"/>
       <use xlink:href="#DejaVuSans-2d" transform="translate(127.246094 0)"/>
       <use xlink:href="#DejaVuSans-31" transform="translate(163.330078 0)"/>
       <use xlink:href="#DejaVuSans-36" transform="translate(226.953125 0)"/>
       <use xlink:href="#DejaVuSans-20" transform="translate(290.576172 0)"/>
       <use xlink:href="#DejaVuSans-31" transform="translate(322.363281 0)"/>
       <use xlink:href="#DejaVuSans-32" transform="translate(385.986328 0)"/>
      </g>
     </g>
    </g>
    <g id="xtick_7">
     <g id="line2d_7">
      <g>
       <use xlink:href="#mf4af3e01c1" x="633.055521" y="246.04" style="stroke: #000000; stroke-width: 0.8"/>
      </g>
     </g>
     <g id="text_7">
      <!-- 06-17 00 -->
      <g transform="translate(610.575052 260.638438) scale(0.1 -0.1)">
       <defs>
        <path id="DejaVuSans-37" d="M 525 4666 
L 3525 4666 
L 3525 4397 
L 1831 0 
L 1172 0 
L 2766 4134 
L 525 4134 
L 525 4666 
z
" transform="scale(0.015625)"/>
       </defs>
       <use xlink:href="#DejaVuSans-30"/>
       <use xlink:href="#DejaVuSans-36" transform="translate(63.623047 0)"/>
       <use xlink:href="#DejaVuSans-2d" transform="translate(127.246094 0)"/>
       <use xlink:href="#DejaVuSans-31" transform="translate(163.330078 0)"/>
       <use xlink:href="#DejaVuSans-37" transform="translate(226.953125 0)"/>
       <use xlink:href="#DejaVuSans-20" transform="translate(290.576172 0)"/>
       <use xlink:href="#DejaVuSans-30" transform="translate(322.363281 0)"/>
       <use xlink:href="#DejaVuSans-30" transform="translate(385.986328 0)"/>
      </g>
     </g>
    </g>
    <g id="text_8">
     <!-- Tijd -->
     <g transform="translate(368.035 274.316562) scale(0.1 -0.1)">
      <defs>
       <path id="DejaVuSans-54" d="M -19 4666 
L 3928 4666 
L 3928 4134 
L 2272 4134 
L 2272 0 
L 1638 0 
L 1638 4134 
L -19 4134 
L -19 4666 
z
" transform="scale(0.015625)"/>
       <path id="DejaVuSans-69" d="M 603 3500 
L 1178 3500 
L 1178 0 
L 603 0 
L 603 3500 
z
M 603 4863 
L 1178 4863 
L 1178 4134 
L 603 4134 
L 603 4863 
z
" transform="scale(0.015625)"/>
       <path id="DejaVuSans-6a" d="M 603 3500 
L 1178 3500 
L 1178 -63 
Q 1178 -731 923 -1031 
Q 669 -1331 103 -1331 
L -116 -1331 
L -116 -844 
L 38 -844 
Q 366 -844 484 -692 
Q 603 -541 603 -63 
L 603 3500 
z
M 603 4863 
L 1178 4863 
L 1178 4134 
L 603 4134 
L 603 4863 
z
" transform="scale(0.015625)"/>
       <path id="DejaVuSans-64" d="M 2906 2969 
L 2906 4863 
L 3481 4863 
L 3481 0 
L 2906 0 
L 2906 525 
Q 2725 213 2448 61 
Q 2172 -91 1784 -91 
Q 1150 -91 751 415 
Q 353 922 353 1747 
Q 353 2572 751 3078 
Q 1150 3584 1784 3584 
Q 2172 3584 2448 3432 
Q 2725 3281 2906 2969 
z
M 947 1747 
Q 947 1113 1208 752 
Q 1469 391 1925 391 
Q 2381 391 2643 752 
Q 2906 1113 2906 1747 
Q 2906 2381 2643 2742 
Q 2381 3103 1925 3103 
Q 1469 3103 1208 2742 
Q 947 2381 947 1747 
z
" transform="scale(0.015625)"/>
      </defs>
      <use xlink:href="#DejaVuSans-54"/>
      <use xlink:href="#DejaVuSans-69" transform="translate(57.958984 0)"/>
      <use xlink:href="#DejaVuSans-6a" transform="translate(85.742188 0)"/>
      <use xlink:href="#DejaVuSans-64" transform="translate(113.525391 0)"/>
     </g>
    </g>
   </g>
   <g id="matplotlib.axis_2">
    <g id="ytick_1">
     <g id="line2d_8">
      <defs>
       <path id="m061583f2a0" d="M 0 0 
L -3.5 0 
" style="stroke: #000000; stroke-width: 0.8"/>
      </defs>
      <g>
       <use xlink:href="#m061583f2a0" x="44.57" y="216.411903" style="stroke: #000000; stroke-width: 0.8"/>
      </g>
     </g>
     <g id="text_9">
      <!-- 10 -->
      <g transform="translate(24.845 220.211121) scale(0.1 -0.1)">
       <use xlink:href="#DejaVuSans-31"/>
       <use xlink:href="#DejaVuSans-30" transform="translate(63.623047 0)"/>
      </g>
     </g>
    </g>
    <g id="ytick_2">
     <g id="line2d_9">
      <g>
       <use xlink:href="#m061583f2a0" x="44.57" y="173.449631" style="stroke: #000000; stroke-width: 0.8"/>
      </g>
     </g>
     <g id="text_10">
      <!-- 20 -->
      <g transform="translate(24.845 177.248849) scale(0.1 -0.1)">
       <use xlink:href="#DejaVuSans-32"/>
       <use xlink:href="#DejaVuSans-30" transform="translate(63.623047 0)"/>
      </g>
     </g>
    </g>
    <g id="ytick_3">
     <g id="line2d_10">
      <g>
       <use xlink:href="#m061583f2a0" x="44.57" y="130.487359" style="stroke: #000000; stroke-width: 0.8"/>
      </g>
     </g>
     <g id="text_11">
      <!-- 30 -->
      <g transform="translate(24.845 134.286577) scale(0.1 -0.1)">
       <defs>
        <path id="DejaVuSans-33" d="M 2597 2516 
Q 3050 2419 3304 2112 
Q 3559 1806 3559 1356 
Q 3559 666 3084 287 
Q 2609 -91 1734 -91 
Q 1441 -91 1130 -33 
Q 819 25 488 141 
L 488 750 
Q 750 597 1062 519 
Q 1375 441 1716 441 
Q 2309 441 2620 675 
Q 2931 909 2931 1356 
Q 2931 1769 2642 2001 
Q 2353 2234 1838 2234 
L 1294 2234 
L 1294 2753 
L 1863 2753 
Q 2328 2753 2575 2939 
Q 2822 3125 2822 3475 
Q 2822 3834 2567 4026 
Q 2313 4219 1838 4219 
Q 1578 4219 1281 4162 
Q 984 4106 628 3988 
L 628 4550 
Q 988 4650 1302 4700 
Q 1616 4750 1894 4750 
Q 2613 4750 3031 4423 
Q 3450 4097 3450 3541 
Q 3450 3153 3228 2886 
Q 3006 2619 2597 2516 
z
" transform="scale(0.015625)"/>
       </defs>
       <use xlink:href="#DejaVuSans-33"/>
       <use xlink:href="#DejaVuSans-30" transform="translate(63.623047 0)"/>
      </g>
     </g>
    </g>
    <g id="ytick_4">
     <g id="line2d_11">
      <g>
       <use xlink:href="#m061583f2a0" x="44.57" y="87.525087" style="stroke: #000000; stroke-width: 0.8"/>
      </g>
     </g>
     <g id="text_12">
      <!-- 40 -->
      <g transform="translate(24.845 91.324305) scale(0.1 -0.1)">
       <use xlink:href="#DejaVuSans-34"/>
       <use xlink:href="#DejaVuSans-30" transform="translate(63.623047 0)"/>
      </g>
     </g>
    </g>
    <g id="ytick_5">
     <g id="line2d_12">
      <g>
       <use xlink:href="#m061583f2a0" x="44.57" y="44.562815" style="stroke: #000000; stroke-width: 0.8"/>
      </g>
     </g>
     <g id="text_13">
      <!-- 50 -->
      <g transform="translate(24.845 48.362033) scale(0.1 -0.1)">
       <use xlink:href="#DejaVuSans-35"/>
       <use xlink:href="#DejaVuSans-30" transform="translate(63.623047 0)"/>
      </g>
     </g>
    </g>
    <g id="text_14">
     <!-- Buiten temperatuur (°C) -->
     <g transform="translate(18.765312 197.355312) rotate(-90) scale(0.1 -0.1)">
      <defs>
       <path id="DejaVuSans-42" d="M 1259 2228 
L 1259 519 
L 2272 519 
Q 2781 519 3026 730 
Q 3272 941 3272 1375 
Q 3272 1813 3026 2020 
Q 2781 2228 2272 2228 
L 1259 2228 
z
M 1259 4147 
L 1259 2741 
L 2194 2741 
Q 2656 2741 2882 2914 
Q 3109 3088 3109 3444 
Q 3109 3797 2882 3972 
Q 2656 4147 2194 4147 
L 1259 4147 
z
M 628 4666 
L 2241 4666 
Q 2963 4666 3353 4366 
Q 3744 4066 3744 3513 
Q 3744 3084 3544 2831 
Q 3344 2578 2956 2516 
Q 3422 2416 3680 2098 
Q 3938 1781 3938 1306 
Q 3938 681 3513 340 
Q 3088 0 2303 0 
L 628 0 
L 628 4666 
z
" transform="scale(0.015625)"/>
       <path id="DejaVuSans-75" d="M 544 1381 
L 544 3500 
L 1119 3500 
L 1119 1403 
Q 1119 906 1312 657 
Q 1506 409 1894 409 
Q 2359 409 2629 706 
Q 2900 1003 2900 1516 
L 2900 3500 
L 3475 3500 
L 3475 0 
L 2900 0 
L 2900 538 
Q 2691 219 2414 64 
Q 2138 -91 1772 -91 
Q 1169 -91 856 284 
Q 544 659 544 1381 
z
M 1991 3584 
L 1991 3584 
z
" transform="scale(0.015625)"/>
       <path id="DejaVuSans-74" d="M 1172 4494 
L 1172 3500 
L 2356 3500 
L 2356 3053 
L 1172 3053 
L 1172 1153 
Q 1172 725 1289 603 
Q 1406 481 1766 481 
L 2356 481 
L 2356 0 
L 1766 0 
Q 1100 0 847 248 
Q 594 497 594 1153 
L 594 3053 
L 172 3053 
L 172 3500 
L 594 3500 
L 594 4494 
L 1172 4494 
z
" transform="scale(0.015625)"/>
       <path id="DejaVuSans-65" d="M 3597 1894 
L 3597 1613 
L 953 1613 
Q 991 1019 1311 708 
Q 1631 397 2203 397 
Q 2534 397 2845 478 
Q 3156 559 3463 722 
L 3463 178 
Q 3153 47 2828 -22 
Q 2503 -91 2169 -91 
Q 1331 -91 842 396 
Q 353 884 353 1716 
Q 353 2575 817 3079 
Q 1281 3584 2069 3584 
Q 2775 3584 3186 3129 
Q 3597 2675 3597 1894 
z
M 3022 2063 
Q 3016 2534 2758 2815 
Q 2500 3097 2075 3097 
Q 1594 3097 1305 2825 
Q 1016 2553 972 2059 
L 3022 2063 
z
" transform="scale(0.015625)"/>
       <path id="DejaVuSans-6e" d="M 3513 2113 
L 3513 0 
L 2938 0 
L 2938 2094 
Q 2938 2591 2744 2837 
Q 2550 3084 2163 3084 
Q 1697 3084 1428 2787 
Q 1159 2491 1159 1978 
L 1159 0 
L 581 0 
L 581 3500 
L 1159 3500 
L 1159 2956 
Q 1366 3272 1645 3428 
Q 1925 3584 2291 3584 
Q 2894 3584 3203 3211 
Q 3513 2838 3513 2113 
z
" transform="scale(0.015625)"/>
       <path id="DejaVuSans-6d" d="M 3328 2828 
Q 3544 3216 3844 3400 
Q 4144 3584 4550 3584 
Q 5097 3584 5394 3201 
Q 5691 2819 5691 2113 
L 5691 0 
L 5113 0 
L 5113 2094 
Q 5113 2597 4934 2840 
Q 4756 3084 4391 3084 
Q 3944 3084 3684 2787 
Q 3425 2491 3425 1978 
L 3425 0 
L 2847 0 
L 2847 2094 
Q 2847 2600 2669 2842 
Q 2491 3084 2119 3084 
Q 1678 3084 1418 2786 
Q 1159 2488 1159 1978 
L 1159 0 
L 581 0 
L 581 3500 
L 1159 3500 
L 1159 2956 
Q 1356 3278 1631 3431 
Q 1906 3584 2284 3584 
Q 2666 3584 2933 3390 
Q 3200 3197 3328 2828 
z
" transform="scale(0.015625)"/>
       <path id="DejaVuSans-70" d="M 1159 525 
L 1159 -1331 
L 581 -1331 
L 581 3500 
L 1159 3500 
L 1159 2969 
Q 1341 3281 1617 3432 
Q 1894 3584 2278 3584 
Q 2916 3584 3314 3078 
Q 3713 2572 3713 1747 
Q 3713 922 3314 415 
Q 2916 -91 2278 -91 
Q 1894 -91 1617 61 
Q 1341 213 1159 525 
z
M 3116 1747 
Q 3116 2381 2855 2742 
Q 2594 3103 2138 3103 
Q 1681 3103 1420 2742 
Q 1159 2381 1159 1747 
Q 1159 1113 1420 752 
Q 1681 391 2138 391 
Q 2594 391 2855 752 
Q 3116 1113 3116 1747 
z
" transform="scale(0.015625)"/>
       <path id="DejaVuSans-72" d="M 2631 2963 
Q 2534 3019 2420 3045 
Q 2306 3072 2169 3072 
Q 1681 3072 1420 2755 
Q 1159 2438 1159 1844 
L 1159 0 
L 581 0 
L 581 3500 
L 1159 3500 
L 1159 2956 
Q 1341 3275 1631 3429 
Q 1922 3584 2338 3584 
Q 2397 3584 2469 3576 
Q 2541 3569 2628 3553 
L 2631 2963 
z
" transform="scale(0.015625)"/>
       <path id="DejaVuSans-61" d="M 2194 1759 
Q 1497 1759 1228 1600 
Q 959 1441 959 1056 
Q 959 750 1161 570 
Q 1363 391 1709 391 
Q 2188 391 2477 730 
Q 2766 1069 2766 1631 
L 2766 1759 
L 2194 1759 
z
M 3341 1997 
L 3341 0 
L 2766 0 
L 2766 531 
Q 2569 213 2275 61 
Q 1981 -91 1556 -91 
Q 1019 -91 701 211 
Q 384 513 384 1019 
Q 384 1609 779 1909 
Q 1175 2209 1959 2209 
L 2766 2209 
L 2766 2266 
Q 2766 2663 2505 2880 
Q 2244 3097 1772 3097 
Q 1472 3097 1187 3025 
Q 903 2953 641 2809 
L 641 3341 
Q 956 3463 1253 3523 
Q 1550 3584 1831 3584 
Q 2591 3584 2966 3190 
Q 3341 2797 3341 1997 
z
" transform="scale(0.015625)"/>
       <path id="DejaVuSans-28" d="M 1984 4856 
Q 1566 4138 1362 3434 
Q 1159 2731 1159 2009 
Q 1159 1288 1364 580 
Q 1569 -128 1984 -844 
L 1484 -844 
Q 1016 -109 783 600 
Q 550 1309 550 2009 
Q 550 2706 781 3412 
Q 1013 4119 1484 4856 
L 1984 4856 
z
" transform="scale(0.015625)"/>
       <path id="DejaVuSans-b0" d="M 1600 4347 
Q 1350 4347 1178 4173 
Q 1006 4000 1006 3750 
Q 1006 3503 1178 3333 
Q 1350 3163 1600 3163 
Q 1850 3163 2022 3333 
Q 2194 3503 2194 3750 
Q 2194 3997 2020 4172 
Q 1847 4347 1600 4347 
z
M 1600 4750 
Q 1800 4750 1984 4673 
Q 2169 4597 2303 4453 
Q 2447 4313 2519 4134 
Q 2591 3956 2591 3750 
Q 2591 3338 2302 3052 
Q 2013 2766 1594 2766 
Q 1172 2766 890 3047 
Q 609 3328 609 3750 
Q 609 4169 896 4459 
Q 1184 4750 1600 4750 
z
" transform="scale(0.015625)"/>
       <path id="DejaVuSans-43" d="M 4122 4306 
L 4122 3641 
Q 3803 3938 3442 4084 
Q 3081 4231 2675 4231 
Q 1875 4231 1450 3742 
Q 1025 3253 1025 2328 
Q 1025 1406 1450 917 
Q 1875 428 2675 428 
Q 3081 428 3442 575 
Q 3803 722 4122 1019 
L 4122 359 
Q 3791 134 3420 21 
Q 3050 -91 2638 -91 
Q 1578 -91 968 557 
Q 359 1206 359 2328 
Q 359 3453 968 4101 
Q 1578 4750 2638 4750 
Q 3056 4750 3426 4639 
Q 3797 4528 4122 4306 
z
" transform="scale(0.015625)"/>
       <path id="DejaVuSans-29" d="M 513 4856 
L 1013 4856 
Q 1481 4119 1714 3412 
Q 1947 2706 1947 2009 
Q 1947 1309 1714 600 
Q 1481 -109 1013 -844 
L 513 -844 
Q 928 -128 1133 580 
Q 1338 1288 1338 2009 
Q 1338 2731 1133 3434 
Q 928 4138 513 4856 
z
" transform="scale(0.015625)"/>
      </defs>
      <use xlink:href="#DejaVuSans-42"/>
      <use xlink:href="#DejaVuSans-75" transform="translate(68.603516 0)"/>
      <use xlink:href="#DejaVuSans-69" transform="translate(131.982422 0)"/>
      <use xlink:href="#DejaVuSans-74" transform="translate(159.765625 0)"/>
      <use xlink:href="#DejaVuSans-65" transform="translate(198.974609 0)"/>
      <use xlink:href="#DejaVuSans-6e" transform="translate(260.498047 0)"/>
      <use xlink:href="#DejaVuSans-20" transform="translate(323.876953 0)"/>
      <use xlink:href="#DejaVuSans-74" transform="translate(355.664062 0)"/>
      <use xlink:href="#DejaVuSans-65" transform="translate(394.873047 0)"/>
      <use xlink:href="#DejaVuSans-6d" transform="translate(456.396484 0)"/>
      <use xlink:href="#DejaVuSans-70" transform="translate(553.808594 0)"/>
      <use xlink:href="#DejaVuSans-65" transform="translate(617.285156 0)"/>
      <use xlink:href="#DejaVuSans-72" transform="translate(678.808594 0)"/>
      <use xlink:href="#DejaVuSans-61" transform="translate(719.921875 0)"/>
      <use xlink:href="#DejaVuSans-74" transform="translate(781.201172 0)"/>
      <use xlink:href="#DejaVuSans-75" transform="translate(820.410156 0)"/>
      <use xlink:href="#DejaVuSans-75" transform="translate(883.789062 0)"/>
      <use xlink:href="#DejaVuSans-72" transform="translate(947.167969 0)"/>
      <use xlink:href="#DejaVuSans-20" transform="translate(988.28125 0)"/>
      <use xlink:href="#DejaVuSans-28" transform="translate(1020.068359 0)"/>
      <use xlink:href="#DejaVuSans-b0" transform="translate(1059.082031 0)"/>
      <use xlink:href="#DejaVuSans-43" transform="translate(1109.082031 0)"/>
      <use xlink:href="#DejaVuSans-29" transform="translate(1178.90625 0)"/>
     </g>
    </g>
   </g>
   <g id="line2d_13">
    <path d="M 74.780455 121.680093 
L 78.313841 125.331886 
L 81.847228 125.188678 
L 85.380614 127.909622 
L 88.914001 124.615848 
L 92.447387 124.186225 
L 95.980774 124.615848 
L 99.51416 126.477547 
L 103.047547 130.057736 
L 106.580933 133.208302 
L 110.11432 136.645284 
L 117.181093 145.380946 
L 124.247865 152.398117 
L 127.781252 154.546231 
L 131.314638 157.55359 
L 134.848025 159.988119 
L 138.381411 161.635006 
L 141.914798 163.568308 
L 145.448184 164.857176 
L 148.981571 165.573214 
L 156.048344 168.007743 
L 159.58173 167.721328 
L 163.115117 165.50161 
L 166.648503 165.716422 
L 170.18189 167.00529 
L 173.715276 167.57812 
L 177.248663 169.296611 
L 180.782049 168.723781 
L 184.315436 167.721328 
L 187.848822 165.716422 
L 191.382209 160.704157 
L 198.448982 154.832646 
L 205.515755 146.383399 
L 209.049141 143.37604 
L 212.582528 139.223021 
L 216.115914 139.652643 
L 219.649301 139.652643 
L 223.182687 142.946417 
L 226.716074 143.37604 
L 230.24946 144.521701 
L 233.782847 143.089625 
L 237.316233 146.95623 
L 240.84962 150.464815 
L 244.383006 150.822834 
L 247.916393 150.536419 
L 254.983166 153.686985 
L 258.516552 156.264722 
L 262.049939 155.691892 
L 265.583325 153.114155 
L 269.116712 157.123967 
L 272.650098 158.412835 
L 276.183485 163.854723 
L 279.716871 168.15095 
L 283.250258 169.439819 
L 286.783644 171.301517 
L 290.317031 173.736046 
L 293.850417 174.738499 
L 297.383804 176.45699 
L 300.91719 179.177934 
L 304.450577 180.323594 
L 307.983963 180.323594 
L 311.51735 183.330953 
L 315.050736 185.049444 
L 318.584123 186.624727 
L 322.117509 186.48152 
L 325.650896 189.202464 
L 329.184282 190.061709 
L 332.717669 187.340765 
L 336.251055 186.553124 
L 339.784442 186.911143 
L 343.317828 185.335859 
L 346.851215 186.051897 
L 350.384601 186.624727 
L 353.917988 185.908689 
L 357.451374 185.049444 
L 360.984761 184.476614 
L 364.518147 183.330953 
L 368.051534 182.471708 
L 371.58492 181.18284 
L 375.118307 179.464349 
L 378.651693 173.163215 
L 382.18508 172.447178 
L 385.718466 171.301517 
L 389.251853 171.444725 
L 392.785239 171.158309 
L 396.318626 167.864535 
L 399.852012 168.294158 
L 403.385399 168.866988 
L 406.918785 168.580573 
L 410.452172 166.862082 
L 413.985558 165.859629 
L 417.518945 163.854723 
L 421.052331 167.148497 
L 424.585718 170.012649 
L 428.119104 171.301517 
L 431.652491 172.447178 
L 435.185877 173.020008 
L 442.25265 175.311329 
L 445.786037 178.461896 
L 449.319423 180.610009 
L 452.85281 181.612462 
L 459.919583 186.48152 
L 463.452969 188.772841 
L 466.986356 190.777747 
L 470.519742 192.35303 
L 474.053129 193.498691 
L 477.586515 197.222088 
L 481.119902 198.224541 
L 484.653288 198.510956 
L 488.186675 199.656617 
L 491.720061 199.656617 
L 495.253448 199.943032 
L 498.786834 200.945485 
L 502.320221 201.518315 
L 505.853607 202.807183 
L 509.386994 202.807183 
L 512.92038 202.520768 
L 516.453767 202.37756 
L 519.987153 202.091145 
L 523.52054 199.441805 
L 527.053926 195.93322 
L 530.587313 188.772841 
L 534.120699 184.619821 
L 537.654086 181.898877 
L 541.187472 178.390292 
L 544.720859 175.597744 
L 548.254245 174.595291 
L 551.787632 172.590385 
L 555.321018 171.015102 
L 558.854405 170.728687 
L 562.387791 171.444725 
L 569.454564 165.430007 
L 572.987951 162.136232 
L 576.521337 162.422647 
L 580.054724 166.002837 
L 583.58811 162.995478 
L 587.121497 162.27944 
L 590.654883 163.568308 
L 594.18827 167.00529 
L 597.721656 167.864535 
L 601.255043 169.583026 
L 601.255043 169.583026 
" clip-path="url(#p7f931d4bf5)" style="fill: none; stroke: #1f77b4; stroke-width: 2; stroke-linecap: square"/>
   </g>
   <g id="line2d_14">
    <path d="M 74.780455 122.968961 
L 78.313841 119.042687 
L 81.847228 119.010295 
L 85.380614 123.695228 
L 88.914001 119.030753 
L 92.447387 115.641507 
L 95.980774 117.926009 
L 99.51416 119.889998 
L 103.047547 124.697681 
L 110.11432 127.807331 
L 113.647706 129.484906 
L 117.181093 130.262318 
L 120.714479 131.980809 
L 124.247865 133.310594 
L 127.781252 136.072454 
L 131.314638 139.939058 
L 134.848025 145.464484 
L 138.381411 149.235617 
L 141.914798 150.311378 
L 145.448184 149.951655 
L 148.981571 153.482403 
L 152.514957 156.090827 
L 156.048344 156.592053 
L 159.58173 157.737714 
L 166.648503 158.893604 
L 170.18189 163.568308 
L 173.715276 165.430007 
L 177.248663 171.229913 
L 180.782049 168.928363 
L 184.315436 169.664859 
L 187.848822 171.362892 
L 191.382209 171.475412 
L 194.915595 172.685857 
L 198.448982 167.506516 
L 201.982368 168.171409 
L 205.515755 164.284346 
L 209.049141 162.729521 
L 212.582528 158.281562 
L 216.115914 155.579371 
L 219.649301 154.137066 
L 223.182687 150.434128 
L 226.716074 148.328635 
L 230.24946 151.354748 
L 233.782847 149.677173 
L 237.316233 146.997146 
L 240.84962 147.283561 
L 244.383006 145.984464 
L 247.916393 146.37317 
L 251.449779 147.201728 
L 254.983166 150.168171 
L 258.516552 150.362524 
L 262.049939 147.447227 
L 265.583325 149.71809 
L 269.116712 151.313831 
L 272.650098 151.170624 
L 276.183485 152.357201 
L 279.716871 149.820381 
L 283.250258 154.853104 
L 286.783644 159.272081 
L 290.317031 161.542944 
L 293.850417 162.238523 
L 300.91719 168.662406 
L 304.450577 173.067744 
L 307.983963 170.912811 
L 311.51735 171.761827 
L 315.050736 173.674671 
L 318.584123 174.574833 
L 322.117509 173.756504 
L 329.184282 177.510588 
L 332.717669 179.269996 
L 336.251055 180.395198 
L 339.784442 181.960252 
L 343.317828 182.389875 
L 346.851215 183.402557 
L 350.384601 184.29249 
L 353.917988 185.059673 
L 357.451374 185.652962 
L 360.984761 186.031439 
L 368.051534 185.67342 
L 371.58492 185.264255 
L 375.118307 184.466385 
L 382.18508 180.589551 
L 389.251853 175.372704 
L 392.785239 173.204132 
L 396.318626 170.738916 
L 399.852012 167.844077 
L 403.385399 166.54498 
L 406.918785 164.366179 
L 410.452172 161.645235 
L 413.985558 154.382565 
L 417.518945 151.242228 
L 421.052331 153.993859 
L 424.585718 156.551137 
L 428.119104 160.540491 
L 431.652491 159.456205 
L 435.185877 155.753266 
L 438.719264 154.218899 
L 442.25265 159.231164 
L 445.786037 159.619871 
L 449.319423 164.918551 
L 452.85281 165.430007 
L 456.386196 168.519198 
L 459.919583 169.54211 
L 463.452969 167.373538 
L 466.986356 169.848983 
L 470.519742 170.135398 
L 474.053129 173.57238 
L 477.586515 175.06583 
L 481.119902 177.25486 
L 484.653288 178.175481 
L 488.186675 180.098554 
L 491.720061 181.162381 
L 495.253448 182.819498 
L 498.786834 183.576452 
L 502.320221 184.609592 
L 505.853607 185.826857 
L 512.92038 188.680779 
L 519.987153 191.08462 
L 523.52054 191.89272 
L 527.053926 191.7802 
L 530.587313 190.880038 
L 534.120699 189.632086 
L 537.654086 188.220469 
L 541.187472 186.962288 
L 544.720859 184.947153 
L 548.254245 182.78881 
L 551.787632 180.344052 
L 555.321018 176.722947 
L 558.854405 173.664442 
L 562.387791 171.700452 
L 565.921178 167.905452 
L 569.454564 163.20006 
L 572.987951 163.128456 
L 576.521337 161.051946 
L 580.054724 159.128873 
L 583.58811 151.416123 
L 587.121497 147.29379 
L 590.654883 146.557294 
L 594.18827 148.378076 
L 597.721656 155.630517 
L 601.255043 153.022093 
L 604.788429 172.017555 
L 608.321816 171.73114 
L 611.855202 168.580573 
L 615.388589 157.983213 
L 618.921975 155.691892 
L 622.455362 155.548684 
L 625.988748 150.536419 
L 629.522135 139.079813 
L 633.055521 112.299997 
L 636.588907 104.709995 
L 640.122294 102.705089 
L 643.65568 95.687918 
L 647.189067 99.554523 
L 650.722453 99.554523 
L 654.25584 106.858109 
L 657.789226 112.228393 
L 661.322613 123.613395 
L 664.855999 129.055283 
L 668.389386 136.931699 
L 671.922772 149.104343 
L 675.456159 158.556043 
L 678.989545 162.709063 
L 678.989545 162.709063 
" clip-path="url(#p7f931d4bf5)" style="fill: none; stroke-dasharray: 5.55,2.4; stroke-dashoffset: 0; stroke: #808080; stroke-width: 1.5"/>
   </g>
   <g id="patch_3">
    <path d="M 44.57 246.04 
L 44.57 26.88 
" style="fill: none; stroke: #000000; stroke-width: 0.8; stroke-linejoin: miter; stroke-linecap: square"/>
   </g>
   <g id="patch_4">
    <path d="M 709.2 246.04 
L 709.2 26.88 
" style="fill: none; stroke: #000000; stroke-width: 0.8; stroke-linejoin: miter; stroke-linecap: square"/>
   </g>
   <g id="patch_5">
    <path d="M 44.57 246.04 
L 709.2 246.04 
" style="fill: none; stroke: #000000; stroke-width: 0.8; stroke-linejoin: miter; stroke-linecap: square"/>
   </g>
   <g id="patch_6">
    <path d="M 44.57 26.88 
L 709.2 26.88 
" style="fill: none; stroke: #000000; stroke-width: 0.8; stroke-linejoin: miter; stroke-linecap: square"/>
   </g>
   <g id="text_15">
    <!-- Buiten temperatuur - v001/c00001/d031 -->
    <g transform="translate(254.91625 20.88) scale(0.12 -0.12)">
     <defs>
      <path id="DejaVuSans-76" d="M 191 3500 
L 800 3500 
L 1894 563 
L 2988 3500 
L 3597 3500 
L 2284 0 
L 1503 0 
L 191 3500 
z
" transform="scale(0.015625)"/>
      <path id="DejaVuSans-2f" d="M 1625 4666 
L 2156 4666 
L 531 -594 
L 0 -594 
L 1625 4666 
z
" transform="scale(0.015625)"/>
      <path id="DejaVuSans-63" d="M 3122 3366 
L 3122 2828 
Q 2878 2963 2633 3030 
Q 2388 3097 2138 3097 
Q 1578 3097 1268 2742 
Q 959 2388 959 1747 
Q 959 1106 1268 751 
Q 1578 397 2138 397 
Q 2388 397 2633 464 
Q 2878 531 3122 666 
L 3122 134 
Q 2881 22 2623 -34 
Q 2366 -91 2075 -91 
Q 1284 -91 818 406 
Q 353 903 353 1747 
Q 353 2603 823 3093 
Q 1294 3584 2113 3584 
Q 2378 3584 2631 3529 
Q 2884 3475 3122 3366 
z
" transform="scale(0.015625)"/>
     </defs>
     <use xlink:href="#DejaVuSans-42"/>
     <use xlink:href="#DejaVuSans-75" transform="translate(68.603516 0)"/>
     <use xlink:href="#DejaVuSans-69" transform="translate(131.982422 0)"/>
     <use xlink:href="#DejaVuSans-74" transform="translate(159.765625 0)"/>
     <use xlink:href="#DejaVuSans-65" transform="translate(198.974609 0)"/>
     <use xlink:href="#DejaVuSans-6e" transform="translate(260.498047 0)"/>
     <use xlink:href="#DejaVuSans-20" transform="translate(323.876953 0)"/>
     <use xlink:href="#DejaVuSans-74" transform="translate(355.664062 0)"/>
     <use xlink:href="#DejaVuSans-65" transform="translate(394.873047 0)"/>
     <use xlink:href="#DejaVuSans-6d" transform="translate(456.396484 0)"/>
     <use xlink:href="#DejaVuSans-70" transform="translate(553.808594 0)"/>
     <use xlink:href="#DejaVuSans-65" transform="translate(617.285156 0)"/>
     <use xlink:href="#DejaVuSans-72" transform="translate(678.808594 0)"/>
     <use xlink:href="#DejaVuSans-61" transform="translate(719.921875 0)"/>
     <use xlink:href="#DejaVuSans-74" transform="translate(781.201172 0)"/>
     <use xlink:href="#DejaVuSans-75" transform="translate(820.410156 0)"/>
     <use xlink:href="#DejaVuSans-75" transform="translate(883.789062 0)"/>
     <use xlink:href="#DejaVuSans-72" transform="translate(947.167969 0)"/>
     <use xlink:href="#DejaVuSans-20" transform="translate(988.28125 0)"/>
     <use xlink:href="#DejaVuSans-2d" transform="translate(1020.068359 0)"/>
     <use xlink:href="#DejaVuSans-20" transform="translate(1056.152344 0)"/>
     <use xlink:href="#DejaVuSans-76" transform="translate(1087.939453 0)"/>
     <use xlink:href="#DejaVuSans-30" transform="translate(1147.119141 0)"/>
     <use xlink:href="#DejaVuSans-30" transform="translate(1210.742188 0)"/>
     <use xlink:href="#DejaVuSans-31" transform="translate(1274.365234 0)"/>
     <use xlink:href="#DejaVuSans-2f" transform="translate(1337.988281 0)"/>
     <use xlink:href="#DejaVuSans-63" transform="translate(1371.679688 0)"/>
     <use xlink:href="#DejaVuSans-30" transform="translate(1426.660156 0)"/>
     <use xlink:href="#DejaVuSans-30" transform="translate(1490.283203 0)"/>
     <use xlink:href="#DejaVuSans-30" transform="translate(1553.90625 0)"/>
     <use xlink:href="#DejaVuSans-30" transform="translate(1617.529297 0)"/>
     <use xlink:href="#DejaVuSans-31" transform="translate(1681.152344 0)"/>
     <use xlink:href="#DejaVuSans-2f" transform="translate(1744.775391 0)"/>
     <use xlink:href="#DejaVuSans-64" transform="translate(1778.466797 0)"/>
     <use xlink:href="#DejaVuSans-30" transform="translate(1841.943359 0)"/>
     <use xlink:href="#DejaVuSans-33" transform="translate(1905.566406 0)"/>
     <use xlink:href="#DejaVuSans-31" transform="translate(1969.189453 0)"/>
    </g>
   </g>
   <g id="legend_1">
    <g id="patch_7">
     <path d="M 301.413125 78.914375 
L 452.356875 78.914375 
Q 454.356875 78.914375 454.356875 76.914375 
L 454.356875 33.88 
Q 454.356875 31.88 452.356875 31.88 
L 301.413125 31.88 
Q 299.413125 31.88 299.413125 33.88 
L 299.413125 76.914375 
Q 299.413125 78.914375 301.413125 78.914375 
z
" style="fill: #ffffff; opacity: 0.8; stroke: #cccccc; stroke-linejoin: miter"/>
    </g>
    <g id="line2d_15">
     <path d="M 303.413125 39.978438 
L 313.413125 39.978438 
L 323.413125 39.978438 
" style="fill: none; stroke: #1f77b4; stroke-width: 2; stroke-linecap: square"/>
    </g>
    <g id="text_16">
     <!-- Hive -->
     <g transform="translate(331.413125 43.478438) scale(0.1 -0.1)">
      <defs>
       <path id="DejaVuSans-48" d="M 628 4666 
L 1259 4666 
L 1259 2753 
L 3553 2753 
L 3553 4666 
L 4184 4666 
L 4184 0 
L 3553 0 
L 3553 2222 
L 1259 2222 
L 1259 0 
L 628 0 
L 628 4666 
z
" transform="scale(0.015625)"/>
      </defs>
      <use xlink:href="#DejaVuSans-48"/>
      <use xlink:href="#DejaVuSans-69" transform="translate(75.195312 0)"/>
      <use xlink:href="#DejaVuSans-76" transform="translate(102.978516 0)"/>
      <use xlink:href="#DejaVuSans-65" transform="translate(162.158203 0)"/>
     </g>
    </g>
    <g id="line2d_16">
     <path d="M 303.413125 54.656563 
L 313.413125 54.656563 
L 323.413125 54.656563 
" style="fill: none; stroke-dasharray: 5.55,2.4; stroke-dashoffset: 0; stroke: #808080; stroke-width: 1.5"/>
    </g>
    <g id="text_17">
     <!-- Gemiddelde (alle hives) -->
     <g transform="translate(331.413125 58.156563) scale(0.1 -0.1)">
      <defs>
       <path id="DejaVuSans-47" d="M 3809 666 
L 3809 1919 
L 2778 1919 
L 2778 2438 
L 4434 2438 
L 4434 434 
Q 4069 175 3628 42 
Q 3188 -91 2688 -91 
Q 1594 -91 976 548 
Q 359 1188 359 2328 
Q 359 3472 976 4111 
Q 1594 4750 2688 4750 
Q 3144 4750 3555 4637 
Q 3966 4525 4313 4306 
L 4313 3634 
Q 3963 3931 3569 4081 
Q 3175 4231 2741 4231 
Q 1884 4231 1454 3753 
Q 1025 3275 1025 2328 
Q 1025 1384 1454 906 
Q 1884 428 2741 428 
Q 3075 428 3337 486 
Q 3600 544 3809 666 
z
" transform="scale(0.015625)"/>
       <path id="DejaVuSans-6c" d="M 603 4863 
L 1178 4863 
L 1178 0 
L 603 0 
L 603 4863 
z
" transform="scale(0.015625)"/>
       <path id="DejaVuSans-68" d="M 3513 2113 
L 3513 0 
L 2938 0 
L 2938 2094 
Q 2938 2591 2744 2837 
Q 2550 3084 2163 3084 
Q 1697 3084 1428 2787 
Q 1159 2491 1159 1978 
L 1159 0 
L 581 0 
L 581 4863 
L 1159 4863 
L 1159 2956 
Q 1366 3272 1645 3428 
Q 1925 3584 2291 3584 
Q 2894 3584 3203 3211 
Q 3513 2838 3513 2113 
z
" transform="scale(0.015625)"/>
       <path id="DejaVuSans-73" d="M 2834 3397 
L 2834 2853 
Q 2591 2978 2328 3040 
Q 2066 3103 1784 3103 
Q 1356 3103 1142 2972 
Q 928 2841 928 2578 
Q 928 2378 1081 2264 
Q 1234 2150 1697 2047 
L 1894 2003 
Q 2506 1872 2764 1633 
Q 3022 1394 3022 966 
Q 3022 478 2636 193 
Q 2250 -91 1575 -91 
Q 1294 -91 989 -36 
Q 684 19 347 128 
L 347 722 
Q 666 556 975 473 
Q 1284 391 1588 391 
Q 1994 391 2212 530 
Q 2431 669 2431 922 
Q 2431 1156 2273 1281 
Q 2116 1406 1581 1522 
L 1381 1569 
Q 847 1681 609 1914 
Q 372 2147 372 2553 
Q 372 3047 722 3315 
Q 1072 3584 1716 3584 
Q 2034 3584 2315 3537 
Q 2597 3491 2834 3397 
z
" transform="scale(0.015625)"/>
      </defs>
      <use xlink:href="#DejaVuSans-47"/>
      <use xlink:href="#DejaVuSans-65" transform="translate(77.490234 0)"/>
      <use xlink:href="#DejaVuSans-6d" transform="translate(139.013672 0)"/>
      <use xlink:href="#DejaVuSans-69" transform="translate(236.425781 0)"/>
      <use xlink:href="#DejaVuSans-64" transform="translate(264.208984 0)"/>
      <use xlink:href="#DejaVuSans-64" transform="translate(327.685547 0)"/>
      <use xlink:href="#DejaVuSans-65" transform="translate(391.162109 0)"/>
      <use xlink:href="#DejaVuSans-6c" transform="translate(452.685547 0)"/>
      <use xlink:href="#DejaVuSans-64" transform="translate(480.46875 0)"/>
      <use xlink:href="#DejaVuSans-65" transform="translate(543.945312 0)"/>
      <use xlink:href="#DejaVuSans-20" transform="translate(605.46875 0)"/>
      <use xlink:href="#DejaVuSans-28" transform="translate(637.255859 0)"/>
      <use xlink:href="#DejaVuSans-61" transform="translate(676.269531 0)"/>
      <use xlink:href="#DejaVuSans-6c" transform="translate(737.548828 0)"/>
      <use xlink:href="#DejaVuSans-6c" transform="translate(765.332031 0)"/>
      <use xlink:href="#DejaVuSans-65" transform="translate(793.115234 0)"/>
      <use xlink:href="#DejaVuSans-20" transform="translate(854.638672 0)"/>
      <use xlink:href="#DejaVuSans-68" transform="translate(886.425781 0)"/>
      <use xlink:href="#DejaVuSans-69" transform="translate(949.804688 0)"/>
      <use xlink:href="#DejaVuSans-76" transform="translate(977.587891 0)"/>
      <use xlink:href="#DejaVuSans-65" transform="translate(1036.767578 0)"/>
      <use xlink:href="#DejaVuSans-73" transform="translate(1098.291016 0)"/>
      <use xlink:href="#DejaVuSans-29" transform="translate(1150.390625 0)"/>
     </g>
    </g>
    <g id="patch_8">
     <path d="M 303.413125 72.834688 
L 323.413125 72.834688 
L 323.413125 65.834688 
L 303.413125 65.834688 
z
" style="fill: #808080; fill-opacity: 0.2; stroke: #808080; stroke-opacity: 0.2; stroke-linejoin: miter"/>
    </g>
    <g id="text_18">
     <!-- ±2 Std Dev -->
     <g transform="translate(331.413125 72.834688) scale(0.1 -0.1)">
      <defs>
       <path id="DejaVuSans-b1" d="M 2944 4013 
L 2944 2803 
L 4684 2803 
L 4684 2272 
L 2944 2272 
L 2944 1063 
L 2419 1063 
L 2419 2272 
L 678 2272 
L 678 2803 
L 2419 2803 
L 2419 4013 
L 2944 4013 
z
M 678 531 
L 4684 531 
L 4684 0 
L 678 0 
L 678 531 
z
" transform="scale(0.015625)"/>
       <path id="DejaVuSans-53" d="M 3425 4513 
L 3425 3897 
Q 3066 4069 2747 4153 
Q 2428 4238 2131 4238 
Q 1616 4238 1336 4038 
Q 1056 3838 1056 3469 
Q 1056 3159 1242 3001 
Q 1428 2844 1947 2747 
L 2328 2669 
Q 3034 2534 3370 2195 
Q 3706 1856 3706 1288 
Q 3706 609 3251 259 
Q 2797 -91 1919 -91 
Q 1588 -91 1214 -16 
Q 841 59 441 206 
L 441 856 
Q 825 641 1194 531 
Q 1563 422 1919 422 
Q 2459 422 2753 634 
Q 3047 847 3047 1241 
Q 3047 1584 2836 1778 
Q 2625 1972 2144 2069 
L 1759 2144 
Q 1053 2284 737 2584 
Q 422 2884 422 3419 
Q 422 4038 858 4394 
Q 1294 4750 2059 4750 
Q 2388 4750 2728 4690 
Q 3069 4631 3425 4513 
z
" transform="scale(0.015625)"/>
       <path id="DejaVuSans-44" d="M 1259 4147 
L 1259 519 
L 2022 519 
Q 2988 519 3436 956 
Q 3884 1394 3884 2338 
Q 3884 3275 3436 3711 
Q 2988 4147 2022 4147 
L 1259 4147 
z
M 628 4666 
L 1925 4666 
Q 3281 4666 3915 4102 
Q 4550 3538 4550 2338 
Q 4550 1131 3912 565 
Q 3275 0 1925 0 
L 628 0 
L 628 4666 
z
" transform="scale(0.015625)"/>
      </defs>
      <use xlink:href="#DejaVuSans-b1"/>
      <use xlink:href="#DejaVuSans-32" transform="translate(83.789062 0)"/>
      <use xlink:href="#DejaVuSans-20" transform="translate(147.412109 0)"/>
      <use xlink:href="#DejaVuSans-53" transform="translate(179.199219 0)"/>
      <use xlink:href="#DejaVuSans-74" transform="translate(242.675781 0)"/>
      <use xlink:href="#DejaVuSans-64" transform="translate(281.884766 0)"/>
      <use xlink:href="#DejaVuSans-20" transform="translate(345.361328 0)"/>
      <use xlink:href="#DejaVuSans-44" transform="translate(377.148438 0)"/>
      <use xlink:href="#DejaVuSans-65" transform="translate(454.150391 0)"/>
      <use xlink:href="#DejaVuSans-76" transform="translate(515.673828 0)"/>
     </g>
    </g>
   </g>
  </g>
 </g>
 <defs>
  <clipPath id="p7f931d4bf5">
   <rect x="44.57" y="26.88" width="664.63" height="219.16"/>
  </clipPath>
 </defs>
</svg>
