<?xml version="1.0" encoding="utf-8" standalone="no"?>
<!DOCTYPE svg PUBLIC "-//W3C//DTD SVG 1.1//EN"
  "http://www.w3.org/Graphics/SVG/1.1/DTD/svg11.dtd">
<svg xmlns:xlink="http://www.w3.org/1999/xlink" width="720pt" height="288pt" viewBox="0 0 720 288" xmlns="http://www.w3.org/2000/svg" version="1.1">
 <metadata>
  <rdf:RDF xmlns:dc="http://purl.org/dc/elements/1.1/" xmlns:cc="http://creativecommons.org/ns#" xmlns:rdf="http://www.w3.org/1999/02/22-rdf-syntax-ns#">
   <cc:Work>
    <dc:type rdf:resource="http://purl.org/dc/dcmitype/StillImage"/>
    <dc:date>2025-06-06T07:15:46.825349</dc:date>
    <dc:format>image/svg+xml</dc:format>
    <dc:creator>
     <cc:Agent>
      <dc:title>Matplotlib v3.10.3, https://matplotlib.org/</dc:title>
     </cc:Agent>
    </dc:creator>
   </cc:Work>
  </rdf:RDF>
 </metadata>
 <defs>
  <style type="text/css">*{stroke-linejoin: round; stroke-linecap: butt}</style>
 </defs>
 <g id="figure_1">
  <g id="patch_1">
   <path d="M 0 288 
L 720 288 
L 720 0 
L 0 0 
z
" style="fill: #ffffff"/>
  </g>
  <g id="axes_1">
   <g id="patch_2">
    <path d="M 44.57 246.04 
L 709.2 246.04 
L 709.2 26.88 
L 44.57 26.88 
z
" style="fill: #ffffff"/>
   </g>
   <g id="FillBetweenPolyCollection_1">
    <defs>
     <path id="m14d00d4286" d="M 74.780455 -187.142458 
L 74.780455 -119.11023 
L 78.70389 -111.044712 
L 82.627326 -114.533753 
L 86.550762 -107.897645 
L 90.474197 -111.291347 
L 94.397633 -106.310446 
L 98.321068 -114.93825 
L 102.244504 -104.998596 
L 106.16794 -104.936064 
L 110.091375 -104.419307 
L 114.014811 -94.250406 
L 117.938247 -90.867534 
L 121.861682 -104.411472 
L 125.785118 -94.613064 
L 129.708554 -85.92355 
L 133.631989 -84.691122 
L 137.555425 -80.233382 
L 141.478861 -64.646782 
L 145.402296 -74.29051 
L 149.325732 -86.063737 
L 153.249168 -68.692394 
L 157.172603 -75.0926 
L 161.096039 -90.097569 
L 165.019475 -51.921818 
L 168.94291 -63.062958 
L 172.866346 -69.385618 
L 176.789782 -61.73254 
L 180.713217 -63.77327 
L 184.636653 -84.349119 
L 188.560089 -84.301016 
L 192.483524 -69.642922 
L 196.40696 -68.21964 
L 200.330396 -84.38562 
L 204.253831 -83.554328 
L 208.177267 -100.609883 
L 212.100702 -85.43994 
L 216.024138 -84.667826 
L 219.947574 -103.548938 
L 223.871009 -91.282468 
L 227.794445 -102.574142 
L 231.717881 -103.37509 
L 235.641316 -91.371008 
L 239.564752 -86.020559 
L 243.488188 -95.854886 
L 247.411623 -95.289693 
L 251.335059 -110.233752 
L 255.258495 -95.881603 
L 259.18193 -113.609141 
L 263.105366 -109.818176 
L 267.028802 -127.339031 
L 270.952237 -94.655532 
L 274.875673 -93.846086 
L 278.799109 -77.609629 
L 282.722544 -84.882165 
L 286.64598 -88.597936 
L 290.569416 -94.506123 
L 294.492851 -91.634497 
L 298.416287 -76.645171 
L 302.339723 -90.620995 
L 306.263158 -91.659066 
L 310.186594 -93.661781 
L 314.11003 -97.032441 
L 318.033465 -94.707043 
L 321.956901 -85.415764 
L 325.880336 -81.089463 
L 329.803772 -82.298392 
L 333.727208 -76.754148 
L 337.650643 -69.560787 
L 341.574079 -66.557337 
L 345.497515 -69.880489 
L 349.42095 -61.489901 
L 353.344386 -77.861609 
L 357.267822 -79.087057 
L 361.191257 -79.692569 
L 365.114693 -70.911578 
L 369.038129 -65.817883 
L 372.961564 -70.937511 
L 376.885 -66.115483 
L 380.808436 -73.7091 
L 384.731871 -78.611073 
L 388.655307 -90.35456 
L 392.578743 -89.994784 
L 396.502178 -91.199784 
L 400.425614 -90.540333 
L 404.34905 -76.626076 
L 408.272485 -70.572465 
L 412.195921 -83.919856 
L 416.119357 -87.315407 
L 420.042792 -86.715523 
L 423.966228 -93.985185 
L 427.889664 -84.559478 
L 431.813099 -85.473753 
L 435.736535 -97.588025 
L 439.65997 -74.688883 
L 443.583406 -88.369281 
L 447.506842 -67.627212 
L 451.430277 -86.524039 
L 455.353713 -83.214781 
L 459.277149 -83.117006 
L 463.200584 -77.867138 
L 467.12402 -77.845062 
L 471.047456 -67.872555 
L 474.970891 -78.799933 
L 478.894327 -89.215605 
L 482.817763 -78.384519 
L 486.741198 -73.776287 
L 490.664634 -75.229119 
L 494.58807 -66.159238 
L 498.511505 -72.241819 
L 502.434941 -90.499264 
L 506.358377 -91.98665 
L 510.281812 -74.775804 
L 514.205248 -73.402066 
L 518.128684 -89.810017 
L 522.052119 -83.107578 
L 525.975555 -72.990265 
L 529.898991 -64.836627 
L 533.822426 -75.91535 
L 537.745862 -95.613994 
L 541.669298 -79.573362 
L 545.592733 -67.709009 
L 549.516169 -97.291532 
L 553.439604 -93.859892 
L 557.36304 -84.742359 
L 561.286476 -87.675795 
L 565.209911 -90.636637 
L 569.133347 -89.767184 
L 573.056783 -95.25533 
L 576.980218 -107.020194 
L 580.903654 -77.430887 
L 584.82709 -89.756119 
L 588.750525 -77.482212 
L 592.673961 -102.335658 
L 596.597397 -91.573246 
L 600.520832 -78.370475 
L 604.444268 -102.956029 
L 608.367704 -93.582246 
L 612.291139 -84.388631 
L 616.214575 -90.967494 
L 620.138011 -75.185803 
L 624.061446 -73.910004 
L 627.984882 -115.730763 
L 631.908318 -119.674928 
L 635.831753 -72.683453 
L 639.755189 -91.081764 
L 643.678625 -72.695565 
L 647.60206 -101.502549 
L 647.60206 -215.303508 
L 647.60206 -215.303508 
L 643.678625 -233.447193 
L 639.755189 -231.000976 
L 635.831753 -251.158182 
L 631.908318 -181.960663 
L 627.984882 -200.943377 
L 624.061446 -215.413324 
L 620.138011 -225.099207 
L 616.214575 -216.258868 
L 612.291139 -212.483286 
L 608.367704 -214.539268 
L 604.444268 -213.227086 
L 600.520832 -218.28158 
L 596.597397 -197.860013 
L 592.673961 -184.349328 
L 588.750525 -221.690926 
L 584.82709 -223.019137 
L 580.903654 -222.812245 
L 576.980218 -209.880089 
L 573.056783 -210.997358 
L 569.133347 -214.349704 
L 565.209911 -211.313041 
L 561.286476 -213.394437 
L 557.36304 -218.400855 
L 553.439604 -222.53785 
L 549.516169 -214.614747 
L 545.592733 -231.476692 
L 541.669298 -225.014659 
L 537.745862 -220.18698 
L 533.822426 -230.023251 
L 529.898991 -227.125043 
L 525.975555 -228.048557 
L 522.052119 -208.23115 
L 518.128684 -224.724134 
L 514.205248 -233.761479 
L 510.281812 -227.456554 
L 506.358377 -207.575957 
L 502.434941 -211.638867 
L 498.511505 -213.249631 
L 494.58807 -219.740527 
L 490.664634 -213.434623 
L 486.741198 -214.604775 
L 482.817763 -205.033948 
L 478.894327 -195.773304 
L 474.970891 -198.588039 
L 471.047456 -206.280307 
L 467.12402 -199.480092 
L 463.200584 -198.295889 
L 459.277149 -193.108838 
L 455.353713 -193.356561 
L 451.430277 -190.895341 
L 447.506842 -195.056191 
L 443.583406 -198.001616 
L 439.65997 -192.4284 
L 435.736535 -171.63365 
L 431.813099 -193.892974 
L 427.889664 -191.226643 
L 423.966228 -174.733949 
L 420.042792 -180.548335 
L 416.119357 -185.664858 
L 412.195921 -191.772038 
L 408.272485 -201.674927 
L 404.34905 -202.143884 
L 400.425614 -188.962499 
L 396.502178 -195.338627 
L 392.578743 -193.643545 
L 388.655307 -195.011255 
L 384.731871 -200.849882 
L 380.808436 -195.449758 
L 376.885 -208.382875 
L 372.961564 -205.947919 
L 369.038129 -215.02506 
L 365.114693 -218.034843 
L 361.191257 -221.126392 
L 357.267822 -230.871874 
L 353.344386 -226.946274 
L 349.42095 -236.313812 
L 345.497515 -237.031786 
L 341.574079 -221.776613 
L 337.650643 -233.676653 
L 333.727208 -223.185365 
L 329.803772 -225.493329 
L 325.880336 -204.642788 
L 321.956901 -214.084025 
L 318.033465 -217.35628 
L 314.11003 -211.230413 
L 310.186594 -209.073118 
L 306.263158 -203.066581 
L 302.339723 -206.58595 
L 298.416287 -215.159454 
L 294.492851 -207.771066 
L 290.569416 -195.728061 
L 286.64598 -221.203951 
L 282.722544 -216.130483 
L 278.799109 -211.242566 
L 274.875673 -194.817656 
L 270.952237 -192.645067 
L 267.028802 -186.608822 
L 263.105366 -213.510448 
L 259.18193 -212.834192 
L 255.258495 -212.533061 
L 251.335059 -197.448038 
L 247.411623 -198.46228 
L 243.488188 -195.447199 
L 239.564752 -195.984511 
L 235.641316 -199.585579 
L 231.717881 -186.073873 
L 227.794445 -189.450346 
L 223.871009 -205.04503 
L 219.947574 -191.051074 
L 216.024138 -210.152047 
L 212.100702 -205.055984 
L 208.177267 -196.11546 
L 204.253831 -205.706182 
L 200.330396 -205.314614 
L 196.40696 -211.492585 
L 192.483524 -210.697479 
L 188.560089 -196.793197 
L 184.636653 -197.93863 
L 180.713217 -208.212382 
L 176.789782 -214.713166 
L 172.866346 -218.524313 
L 168.94291 -223.873299 
L 165.019475 -245.693442 
L 161.096039 -224.447052 
L 157.172603 -234.112519 
L 153.249168 -238.062836 
L 149.325732 -229.014833 
L 145.402296 -233.249941 
L 141.478861 -234.716903 
L 137.555425 -233.306156 
L 133.631989 -230.732946 
L 129.708554 -232.609992 
L 125.785118 -204.017748 
L 121.861682 -206.835222 
L 117.938247 -219.374076 
L 114.014811 -210.389963 
L 110.091375 -206.324845 
L 106.16794 -199.966044 
L 102.244504 -196.919674 
L 98.321068 -191.220212 
L 94.397633 -182.698794 
L 90.474197 -189.025072 
L 86.550762 -184.252477 
L 82.627326 -191.122168 
L 78.70389 -190.517591 
L 74.780455 -187.142458 
z
" style="stroke: #808080; stroke-opacity: 0.2"/>
    </defs>
    <g clip-path="url(#p043d6c4773)">
     <use xlink:href="#m14d00d4286" x="0" y="288" style="fill: #808080; fill-opacity: 0.2; stroke: #808080; stroke-opacity: 0.2"/>
    </g>
   </g>
   <g id="matplotlib.axis_1">
    <g id="xtick_1">
     <g id="line2d_1">
      <defs>
       <path id="mcdbe12ca2a" d="M 0 0 
L 0 3.5 
" style="stroke: #000000; stroke-width: 0.8"/>
      </defs>
      <g>
       <use xlink:href="#mcdbe12ca2a" x="114.014811" y="246.04" style="stroke: #000000; stroke-width: 0.8"/>
      </g>
     </g>
     <g id="text_1">
      <!-- 06-03 12 -->
      <g transform="translate(91.534342 260.638438) scale(0.1 -0.1)">
       <defs>
        <path id="DejaVuSans-30" d="M 2034 4250 
Q 1547 4250 1301 3770 
Q 1056 3291 1056 2328 
Q 1056 1369 1301 889 
Q 1547 409 2034 409 
Q 2525 409 2770 889 
Q 3016 1369 3016 2328 
Q 3016 3291 2770 3770 
Q 2525 4250 2034 4250 
z
M 2034 4750 
Q 2819 4750 3233 4129 
Q 3647 3509 3647 2328 
Q 3647 1150 3233 529 
Q 2819 -91 2034 -91 
Q 1250 -91 836 529 
Q 422 1150 422 2328 
Q 422 3509 836 4129 
Q 1250 4750 2034 4750 
z
" transform="scale(0.015625)"/>
        <path id="DejaVuSans-36" d="M 2113 2584 
Q 1688 2584 1439 2293 
Q 1191 2003 1191 1497 
Q 1191 994 1439 701 
Q 1688 409 2113 409 
Q 2538 409 2786 701 
Q 3034 994 3034 1497 
Q 3034 2003 2786 2293 
Q 2538 2584 2113 2584 
z
M 3366 4563 
L 3366 3988 
Q 3128 4100 2886 4159 
Q 2644 4219 2406 4219 
Q 1781 4219 1451 3797 
Q 1122 3375 1075 2522 
Q 1259 2794 1537 2939 
Q 1816 3084 2150 3084 
Q 2853 3084 3261 2657 
Q 3669 2231 3669 1497 
Q 3669 778 3244 343 
Q 2819 -91 2113 -91 
Q 1303 -91 875 529 
Q 447 1150 447 2328 
Q 447 3434 972 4092 
Q 1497 4750 2381 4750 
Q 2619 4750 2861 4703 
Q 3103 4656 3366 4563 
z
" transform="scale(0.015625)"/>
        <path id="DejaVuSans-2d" d="M 313 2009 
L 1997 2009 
L 1997 1497 
L 313 1497 
L 313 2009 
z
" transform="scale(0.015625)"/>
        <path id="DejaVuSans-33" d="M 2597 2516 
Q 3050 2419 3304 2112 
Q 3559 1806 3559 1356 
Q 3559 666 3084 287 
Q 2609 -91 1734 -91 
Q 1441 -91 1130 -33 
Q 819 25 488 141 
L 488 750 
Q 750 597 1062 519 
Q 1375 441 1716 441 
Q 2309 441 2620 675 
Q 2931 909 2931 1356 
Q 2931 1769 2642 2001 
Q 2353 2234 1838 2234 
L 1294 2234 
L 1294 2753 
L 1863 2753 
Q 2328 2753 2575 2939 
Q 2822 3125 2822 3475 
Q 2822 3834 2567 4026 
Q 2313 4219 1838 4219 
Q 1578 4219 1281 4162 
Q 984 4106 628 3988 
L 628 4550 
Q 988 4650 1302 4700 
Q 1616 4750 1894 4750 
Q 2613 4750 3031 4423 
Q 3450 4097 3450 3541 
Q 3450 3153 3228 2886 
Q 3006 2619 2597 2516 
z
" transform="scale(0.015625)"/>
        <path id="DejaVuSans-20" transform="scale(0.015625)"/>
        <path id="DejaVuSans-31" d="M 794 531 
L 1825 531 
L 1825 4091 
L 703 3866 
L 703 4441 
L 1819 4666 
L 2450 4666 
L 2450 531 
L 3481 531 
L 3481 0 
L 794 0 
L 794 531 
z
" transform="scale(0.015625)"/>
        <path id="DejaVuSans-32" d="M 1228 531 
L 3431 531 
L 3431 0 
L 469 0 
L 469 531 
Q 828 903 1448 1529 
Q 2069 2156 2228 2338 
Q 2531 2678 2651 2914 
Q 2772 3150 2772 3378 
Q 2772 3750 2511 3984 
Q 2250 4219 1831 4219 
Q 1534 4219 1204 4116 
Q 875 4013 500 3803 
L 500 4441 
Q 881 4594 1212 4672 
Q 1544 4750 1819 4750 
Q 2544 4750 2975 4387 
Q 3406 4025 3406 3419 
Q 3406 3131 3298 2873 
Q 3191 2616 2906 2266 
Q 2828 2175 2409 1742 
Q 1991 1309 1228 531 
z
" transform="scale(0.015625)"/>
       </defs>
       <use xlink:href="#DejaVuSans-30"/>
       <use xlink:href="#DejaVuSans-36" transform="translate(63.623047 0)"/>
       <use xlink:href="#DejaVuSans-2d" transform="translate(127.246094 0)"/>
       <use xlink:href="#DejaVuSans-30" transform="translate(163.330078 0)"/>
       <use xlink:href="#DejaVuSans-33" transform="translate(226.953125 0)"/>
       <use xlink:href="#DejaVuSans-20" transform="translate(290.576172 0)"/>
       <use xlink:href="#DejaVuSans-31" transform="translate(322.363281 0)"/>
       <use xlink:href="#DejaVuSans-32" transform="translate(385.986328 0)"/>
      </g>
     </g>
    </g>
    <g id="xtick_2">
     <g id="line2d_2">
      <g>
       <use xlink:href="#mcdbe12ca2a" x="208.177267" y="246.04" style="stroke: #000000; stroke-width: 0.8"/>
      </g>
     </g>
     <g id="text_2">
      <!-- 06-04 00 -->
      <g transform="translate(185.696798 260.638438) scale(0.1 -0.1)">
       <defs>
        <path id="DejaVuSans-34" d="M 2419 4116 
L 825 1625 
L 2419 1625 
L 2419 4116 
z
M 2253 4666 
L 3047 4666 
L 3047 1625 
L 3713 1625 
L 3713 1100 
L 3047 1100 
L 3047 0 
L 2419 0 
L 2419 1100 
L 313 1100 
L 313 1709 
L 2253 4666 
z
" transform="scale(0.015625)"/>
       </defs>
       <use xlink:href="#DejaVuSans-30"/>
       <use xlink:href="#DejaVuSans-36" transform="translate(63.623047 0)"/>
       <use xlink:href="#DejaVuSans-2d" transform="translate(127.246094 0)"/>
       <use xlink:href="#DejaVuSans-30" transform="translate(163.330078 0)"/>
       <use xlink:href="#DejaVuSans-34" transform="translate(226.953125 0)"/>
       <use xlink:href="#DejaVuSans-20" transform="translate(290.576172 0)"/>
       <use xlink:href="#DejaVuSans-30" transform="translate(322.363281 0)"/>
       <use xlink:href="#DejaVuSans-30" transform="translate(385.986328 0)"/>
      </g>
     </g>
    </g>
    <g id="xtick_3">
     <g id="line2d_3">
      <g>
       <use xlink:href="#mcdbe12ca2a" x="302.339723" y="246.04" style="stroke: #000000; stroke-width: 0.8"/>
      </g>
     </g>
     <g id="text_3">
      <!-- 06-04 12 -->
      <g transform="translate(279.859254 260.638438) scale(0.1 -0.1)">
       <use xlink:href="#DejaVuSans-30"/>
       <use xlink:href="#DejaVuSans-36" transform="translate(63.623047 0)"/>
       <use xlink:href="#DejaVuSans-2d" transform="translate(127.246094 0)"/>
       <use xlink:href="#DejaVuSans-30" transform="translate(163.330078 0)"/>
       <use xlink:href="#DejaVuSans-34" transform="translate(226.953125 0)"/>
       <use xlink:href="#DejaVuSans-20" transform="translate(290.576172 0)"/>
       <use xlink:href="#DejaVuSans-31" transform="translate(322.363281 0)"/>
       <use xlink:href="#DejaVuSans-32" transform="translate(385.986328 0)"/>
      </g>
     </g>
    </g>
    <g id="xtick_4">
     <g id="line2d_4">
      <g>
       <use xlink:href="#mcdbe12ca2a" x="396.502178" y="246.04" style="stroke: #000000; stroke-width: 0.8"/>
      </g>
     </g>
     <g id="text_4">
      <!-- 06-05 00 -->
      <g transform="translate(374.02171 260.638438) scale(0.1 -0.1)">
       <defs>
        <path id="DejaVuSans-35" d="M 691 4666 
L 3169 4666 
L 3169 4134 
L 1269 4134 
L 1269 2991 
Q 1406 3038 1543 3061 
Q 1681 3084 1819 3084 
Q 2600 3084 3056 2656 
Q 3513 2228 3513 1497 
Q 3513 744 3044 326 
Q 2575 -91 1722 -91 
Q 1428 -91 1123 -41 
Q 819 9 494 109 
L 494 744 
Q 775 591 1075 516 
Q 1375 441 1709 441 
Q 2250 441 2565 725 
Q 2881 1009 2881 1497 
Q 2881 1984 2565 2268 
Q 2250 2553 1709 2553 
Q 1456 2553 1204 2497 
Q 953 2441 691 2322 
L 691 4666 
z
" transform="scale(0.015625)"/>
       </defs>
       <use xlink:href="#DejaVuSans-30"/>
       <use xlink:href="#DejaVuSans-36" transform="translate(63.623047 0)"/>
       <use xlink:href="#DejaVuSans-2d" transform="translate(127.246094 0)"/>
       <use xlink:href="#DejaVuSans-30" transform="translate(163.330078 0)"/>
       <use xlink:href="#DejaVuSans-35" transform="translate(226.953125 0)"/>
       <use xlink:href="#DejaVuSans-20" transform="translate(290.576172 0)"/>
       <use xlink:href="#DejaVuSans-30" transform="translate(322.363281 0)"/>
       <use xlink:href="#DejaVuSans-30" transform="translate(385.986328 0)"/>
      </g>
     </g>
    </g>
    <g id="xtick_5">
     <g id="line2d_5">
      <g>
       <use xlink:href="#mcdbe12ca2a" x="490.664634" y="246.04" style="stroke: #000000; stroke-width: 0.8"/>
      </g>
     </g>
     <g id="text_5">
      <!-- 06-05 12 -->
      <g transform="translate(468.184165 260.638438) scale(0.1 -0.1)">
       <use xlink:href="#DejaVuSans-30"/>
       <use xlink:href="#DejaVuSans-36" transform="translate(63.623047 0)"/>
       <use xlink:href="#DejaVuSans-2d" transform="translate(127.246094 0)"/>
       <use xlink:href="#DejaVuSans-30" transform="translate(163.330078 0)"/>
       <use xlink:href="#DejaVuSans-35" transform="translate(226.953125 0)"/>
       <use xlink:href="#DejaVuSans-20" transform="translate(290.576172 0)"/>
       <use xlink:href="#DejaVuSans-31" transform="translate(322.363281 0)"/>
       <use xlink:href="#DejaVuSans-32" transform="translate(385.986328 0)"/>
      </g>
     </g>
    </g>
    <g id="xtick_6">
     <g id="line2d_6">
      <g>
       <use xlink:href="#mcdbe12ca2a" x="584.82709" y="246.04" style="stroke: #000000; stroke-width: 0.8"/>
      </g>
     </g>
     <g id="text_6">
      <!-- 06-06 00 -->
      <g transform="translate(562.346621 260.638438) scale(0.1 -0.1)">
       <use xlink:href="#DejaVuSans-30"/>
       <use xlink:href="#DejaVuSans-36" transform="translate(63.623047 0)"/>
       <use xlink:href="#DejaVuSans-2d" transform="translate(127.246094 0)"/>
       <use xlink:href="#DejaVuSans-30" transform="translate(163.330078 0)"/>
       <use xlink:href="#DejaVuSans-36" transform="translate(226.953125 0)"/>
       <use xlink:href="#DejaVuSans-20" transform="translate(290.576172 0)"/>
       <use xlink:href="#DejaVuSans-30" transform="translate(322.363281 0)"/>
       <use xlink:href="#DejaVuSans-30" transform="translate(385.986328 0)"/>
      </g>
     </g>
    </g>
    <g id="xtick_7">
     <g id="line2d_7">
      <g>
       <use xlink:href="#mcdbe12ca2a" x="678.989545" y="246.04" style="stroke: #000000; stroke-width: 0.8"/>
      </g>
     </g>
     <g id="text_7">
      <!-- 06-06 12 -->
      <g transform="translate(656.509077 260.638438) scale(0.1 -0.1)">
       <use xlink:href="#DejaVuSans-30"/>
       <use xlink:href="#DejaVuSans-36" transform="translate(63.623047 0)"/>
       <use xlink:href="#DejaVuSans-2d" transform="translate(127.246094 0)"/>
       <use xlink:href="#DejaVuSans-30" transform="translate(163.330078 0)"/>
       <use xlink:href="#DejaVuSans-36" transform="translate(226.953125 0)"/>
       <use xlink:href="#DejaVuSans-20" transform="translate(290.576172 0)"/>
       <use xlink:href="#DejaVuSans-31" transform="translate(322.363281 0)"/>
       <use xlink:href="#DejaVuSans-32" transform="translate(385.986328 0)"/>
      </g>
     </g>
    </g>
    <g id="text_8">
     <!-- Tijd -->
     <g transform="translate(368.035 274.316562) scale(0.1 -0.1)">
      <defs>
       <path id="DejaVuSans-54" d="M -19 4666 
L 3928 4666 
L 3928 4134 
L 2272 4134 
L 2272 0 
L 1638 0 
L 1638 4134 
L -19 4134 
L -19 4666 
z
" transform="scale(0.015625)"/>
       <path id="DejaVuSans-69" d="M 603 3500 
L 1178 3500 
L 1178 0 
L 603 0 
L 603 3500 
z
M 603 4863 
L 1178 4863 
L 1178 4134 
L 603 4134 
L 603 4863 
z
" transform="scale(0.015625)"/>
       <path id="DejaVuSans-6a" d="M 603 3500 
L 1178 3500 
L 1178 -63 
Q 1178 -731 923 -1031 
Q 669 -1331 103 -1331 
L -116 -1331 
L -116 -844 
L 38 -844 
Q 366 -844 484 -692 
Q 603 -541 603 -63 
L 603 3500 
z
M 603 4863 
L 1178 4863 
L 1178 4134 
L 603 4134 
L 603 4863 
z
" transform="scale(0.015625)"/>
       <path id="DejaVuSans-64" d="M 2906 2969 
L 2906 4863 
L 3481 4863 
L 3481 0 
L 2906 0 
L 2906 525 
Q 2725 213 2448 61 
Q 2172 -91 1784 -91 
Q 1150 -91 751 415 
Q 353 922 353 1747 
Q 353 2572 751 3078 
Q 1150 3584 1784 3584 
Q 2172 3584 2448 3432 
Q 2725 3281 2906 2969 
z
M 947 1747 
Q 947 1113 1208 752 
Q 1469 391 1925 391 
Q 2381 391 2643 752 
Q 2906 1113 2906 1747 
Q 2906 2381 2643 2742 
Q 2381 3103 1925 3103 
Q 1469 3103 1208 2742 
Q 947 2381 947 1747 
z
" transform="scale(0.015625)"/>
      </defs>
      <use xlink:href="#DejaVuSans-54"/>
      <use xlink:href="#DejaVuSans-69" transform="translate(57.958984 0)"/>
      <use xlink:href="#DejaVuSans-6a" transform="translate(85.742188 0)"/>
      <use xlink:href="#DejaVuSans-64" transform="translate(113.525391 0)"/>
     </g>
    </g>
   </g>
   <g id="matplotlib.axis_2">
    <g id="ytick_1">
     <g id="line2d_8">
      <defs>
       <path id="m730674fc1c" d="M 0 0 
L -3.5 0 
" style="stroke: #000000; stroke-width: 0.8"/>
      </defs>
      <g>
       <use xlink:href="#m730674fc1c" x="44.57" y="220.949562" style="stroke: #000000; stroke-width: 0.8"/>
      </g>
     </g>
     <g id="text_9">
      <!-- 40 -->
      <g transform="translate(24.845 224.748781) scale(0.1 -0.1)">
       <use xlink:href="#DejaVuSans-34"/>
       <use xlink:href="#DejaVuSans-30" transform="translate(63.623047 0)"/>
      </g>
     </g>
    </g>
    <g id="ytick_2">
     <g id="line2d_9">
      <g>
       <use xlink:href="#m730674fc1c" x="44.57" y="187.970288" style="stroke: #000000; stroke-width: 0.8"/>
      </g>
     </g>
     <g id="text_10">
      <!-- 45 -->
      <g transform="translate(24.845 191.769506) scale(0.1 -0.1)">
       <use xlink:href="#DejaVuSans-34"/>
       <use xlink:href="#DejaVuSans-35" transform="translate(63.623047 0)"/>
      </g>
     </g>
    </g>
    <g id="ytick_3">
     <g id="line2d_10">
      <g>
       <use xlink:href="#m730674fc1c" x="44.57" y="154.991013" style="stroke: #000000; stroke-width: 0.8"/>
      </g>
     </g>
     <g id="text_11">
      <!-- 50 -->
      <g transform="translate(24.845 158.790232) scale(0.1 -0.1)">
       <use xlink:href="#DejaVuSans-35"/>
       <use xlink:href="#DejaVuSans-30" transform="translate(63.623047 0)"/>
      </g>
     </g>
    </g>
    <g id="ytick_4">
     <g id="line2d_11">
      <g>
       <use xlink:href="#m730674fc1c" x="44.57" y="122.011739" style="stroke: #000000; stroke-width: 0.8"/>
      </g>
     </g>
     <g id="text_12">
      <!-- 55 -->
      <g transform="translate(24.845 125.810957) scale(0.1 -0.1)">
       <use xlink:href="#DejaVuSans-35"/>
       <use xlink:href="#DejaVuSans-35" transform="translate(63.623047 0)"/>
      </g>
     </g>
    </g>
    <g id="ytick_5">
     <g id="line2d_12">
      <g>
       <use xlink:href="#m730674fc1c" x="44.57" y="89.032464" style="stroke: #000000; stroke-width: 0.8"/>
      </g>
     </g>
     <g id="text_13">
      <!-- 60 -->
      <g transform="translate(24.845 92.831683) scale(0.1 -0.1)">
       <use xlink:href="#DejaVuSans-36"/>
       <use xlink:href="#DejaVuSans-30" transform="translate(63.623047 0)"/>
      </g>
     </g>
    </g>
    <g id="ytick_6">
     <g id="line2d_13">
      <g>
       <use xlink:href="#m730674fc1c" x="44.57" y="56.053189" style="stroke: #000000; stroke-width: 0.8"/>
      </g>
     </g>
     <g id="text_14">
      <!-- 65 -->
      <g transform="translate(24.845 59.852408) scale(0.1 -0.1)">
       <use xlink:href="#DejaVuSans-36"/>
       <use xlink:href="#DejaVuSans-35" transform="translate(63.623047 0)"/>
      </g>
     </g>
    </g>
    <g id="text_15">
     <!-- (Rel.) Vochtigheid (%) -->
     <g transform="translate(18.765312 190.838125) rotate(-90) scale(0.1 -0.1)">
      <defs>
       <path id="DejaVuSans-28" d="M 1984 4856 
Q 1566 4138 1362 3434 
Q 1159 2731 1159 2009 
Q 1159 1288 1364 580 
Q 1569 -128 1984 -844 
L 1484 -844 
Q 1016 -109 783 600 
Q 550 1309 550 2009 
Q 550 2706 781 3412 
Q 1013 4119 1484 4856 
L 1984 4856 
z
" transform="scale(0.015625)"/>
       <path id="DejaVuSans-52" d="M 2841 2188 
Q 3044 2119 3236 1894 
Q 3428 1669 3622 1275 
L 4263 0 
L 3584 0 
L 2988 1197 
Q 2756 1666 2539 1819 
Q 2322 1972 1947 1972 
L 1259 1972 
L 1259 0 
L 628 0 
L 628 4666 
L 2053 4666 
Q 2853 4666 3247 4331 
Q 3641 3997 3641 3322 
Q 3641 2881 3436 2590 
Q 3231 2300 2841 2188 
z
M 1259 4147 
L 1259 2491 
L 2053 2491 
Q 2509 2491 2742 2702 
Q 2975 2913 2975 3322 
Q 2975 3731 2742 3939 
Q 2509 4147 2053 4147 
L 1259 4147 
z
" transform="scale(0.015625)"/>
       <path id="DejaVuSans-65" d="M 3597 1894 
L 3597 1613 
L 953 1613 
Q 991 1019 1311 708 
Q 1631 397 2203 397 
Q 2534 397 2845 478 
Q 3156 559 3463 722 
L 3463 178 
Q 3153 47 2828 -22 
Q 2503 -91 2169 -91 
Q 1331 -91 842 396 
Q 353 884 353 1716 
Q 353 2575 817 3079 
Q 1281 3584 2069 3584 
Q 2775 3584 3186 3129 
Q 3597 2675 3597 1894 
z
M 3022 2063 
Q 3016 2534 2758 2815 
Q 2500 3097 2075 3097 
Q 1594 3097 1305 2825 
Q 1016 2553 972 2059 
L 3022 2063 
z
" transform="scale(0.015625)"/>
       <path id="DejaVuSans-6c" d="M 603 4863 
L 1178 4863 
L 1178 0 
L 603 0 
L 603 4863 
z
" transform="scale(0.015625)"/>
       <path id="DejaVuSans-2e" d="M 684 794 
L 1344 794 
L 1344 0 
L 684 0 
L 684 794 
z
" transform="scale(0.015625)"/>
       <path id="DejaVuSans-29" d="M 513 4856 
L 1013 4856 
Q 1481 4119 1714 3412 
Q 1947 2706 1947 2009 
Q 1947 1309 1714 600 
Q 1481 -109 1013 -844 
L 513 -844 
Q 928 -128 1133 580 
Q 1338 1288 1338 2009 
Q 1338 2731 1133 3434 
Q 928 4138 513 4856 
z
" transform="scale(0.015625)"/>
       <path id="DejaVuSans-56" d="M 1831 0 
L 50 4666 
L 709 4666 
L 2188 738 
L 3669 4666 
L 4325 4666 
L 2547 0 
L 1831 0 
z
" transform="scale(0.015625)"/>
       <path id="DejaVuSans-6f" d="M 1959 3097 
Q 1497 3097 1228 2736 
Q 959 2375 959 1747 
Q 959 1119 1226 758 
Q 1494 397 1959 397 
Q 2419 397 2687 759 
Q 2956 1122 2956 1747 
Q 2956 2369 2687 2733 
Q 2419 3097 1959 3097 
z
M 1959 3584 
Q 2709 3584 3137 3096 
Q 3566 2609 3566 1747 
Q 3566 888 3137 398 
Q 2709 -91 1959 -91 
Q 1206 -91 779 398 
Q 353 888 353 1747 
Q 353 2609 779 3096 
Q 1206 3584 1959 3584 
z
" transform="scale(0.015625)"/>
       <path id="DejaVuSans-63" d="M 3122 3366 
L 3122 2828 
Q 2878 2963 2633 3030 
Q 2388 3097 2138 3097 
Q 1578 3097 1268 2742 
Q 959 2388 959 1747 
Q 959 1106 1268 751 
Q 1578 397 2138 397 
Q 2388 397 2633 464 
Q 2878 531 3122 666 
L 3122 134 
Q 2881 22 2623 -34 
Q 2366 -91 2075 -91 
Q 1284 -91 818 406 
Q 353 903 353 1747 
Q 353 2603 823 3093 
Q 1294 3584 2113 3584 
Q 2378 3584 2631 3529 
Q 2884 3475 3122 3366 
z
" transform="scale(0.015625)"/>
       <path id="DejaVuSans-68" d="M 3513 2113 
L 3513 0 
L 2938 0 
L 2938 2094 
Q 2938 2591 2744 2837 
Q 2550 3084 2163 3084 
Q 1697 3084 1428 2787 
Q 1159 2491 1159 1978 
L 1159 0 
L 581 0 
L 581 4863 
L 1159 4863 
L 1159 2956 
Q 1366 3272 1645 3428 
Q 1925 3584 2291 3584 
Q 2894 3584 3203 3211 
Q 3513 2838 3513 2113 
z
" transform="scale(0.015625)"/>
       <path id="DejaVuSans-74" d="M 1172 4494 
L 1172 3500 
L 2356 3500 
L 2356 3053 
L 1172 3053 
L 1172 1153 
Q 1172 725 1289 603 
Q 1406 481 1766 481 
L 2356 481 
L 2356 0 
L 1766 0 
Q 1100 0 847 248 
Q 594 497 594 1153 
L 594 3053 
L 172 3053 
L 172 3500 
L 594 3500 
L 594 4494 
L 1172 4494 
z
" transform="scale(0.015625)"/>
       <path id="DejaVuSans-67" d="M 2906 1791 
Q 2906 2416 2648 2759 
Q 2391 3103 1925 3103 
Q 1463 3103 1205 2759 
Q 947 2416 947 1791 
Q 947 1169 1205 825 
Q 1463 481 1925 481 
Q 2391 481 2648 825 
Q 2906 1169 2906 1791 
z
M 3481 434 
Q 3481 -459 3084 -895 
Q 2688 -1331 1869 -1331 
Q 1566 -1331 1297 -1286 
Q 1028 -1241 775 -1147 
L 775 -588 
Q 1028 -725 1275 -790 
Q 1522 -856 1778 -856 
Q 2344 -856 2625 -561 
Q 2906 -266 2906 331 
L 2906 616 
Q 2728 306 2450 153 
Q 2172 0 1784 0 
Q 1141 0 747 490 
Q 353 981 353 1791 
Q 353 2603 747 3093 
Q 1141 3584 1784 3584 
Q 2172 3584 2450 3431 
Q 2728 3278 2906 2969 
L 2906 3500 
L 3481 3500 
L 3481 434 
z
" transform="scale(0.015625)"/>
       <path id="DejaVuSans-25" d="M 4653 2053 
Q 4381 2053 4226 1822 
Q 4072 1591 4072 1178 
Q 4072 772 4226 539 
Q 4381 306 4653 306 
Q 4919 306 5073 539 
Q 5228 772 5228 1178 
Q 5228 1588 5073 1820 
Q 4919 2053 4653 2053 
z
M 4653 2450 
Q 5147 2450 5437 2106 
Q 5728 1763 5728 1178 
Q 5728 594 5436 251 
Q 5144 -91 4653 -91 
Q 4153 -91 3862 251 
Q 3572 594 3572 1178 
Q 3572 1766 3864 2108 
Q 4156 2450 4653 2450 
z
M 1428 4353 
Q 1159 4353 1004 4120 
Q 850 3888 850 3481 
Q 850 3069 1003 2837 
Q 1156 2606 1428 2606 
Q 1700 2606 1854 2837 
Q 2009 3069 2009 3481 
Q 2009 3884 1853 4118 
Q 1697 4353 1428 4353 
z
M 4250 4750 
L 4750 4750 
L 1831 -91 
L 1331 -91 
L 4250 4750 
z
M 1428 4750 
Q 1922 4750 2215 4408 
Q 2509 4066 2509 3481 
Q 2509 2891 2217 2550 
Q 1925 2209 1428 2209 
Q 931 2209 642 2551 
Q 353 2894 353 3481 
Q 353 4063 643 4406 
Q 934 4750 1428 4750 
z
" transform="scale(0.015625)"/>
      </defs>
      <use xlink:href="#DejaVuSans-28"/>
      <use xlink:href="#DejaVuSans-52" transform="translate(39.013672 0)"/>
      <use xlink:href="#DejaVuSans-65" transform="translate(103.996094 0)"/>
      <use xlink:href="#DejaVuSans-6c" transform="translate(165.519531 0)"/>
      <use xlink:href="#DejaVuSans-2e" transform="translate(193.302734 0)"/>
      <use xlink:href="#DejaVuSans-29" transform="translate(225.089844 0)"/>
      <use xlink:href="#DejaVuSans-20" transform="translate(264.103516 0)"/>
      <use xlink:href="#DejaVuSans-56" transform="translate(295.890625 0)"/>
      <use xlink:href="#DejaVuSans-6f" transform="translate(356.548828 0)"/>
      <use xlink:href="#DejaVuSans-63" transform="translate(417.730469 0)"/>
      <use xlink:href="#DejaVuSans-68" transform="translate(472.710938 0)"/>
      <use xlink:href="#DejaVuSans-74" transform="translate(536.089844 0)"/>
      <use xlink:href="#DejaVuSans-69" transform="translate(575.298828 0)"/>
      <use xlink:href="#DejaVuSans-67" transform="translate(603.082031 0)"/>
      <use xlink:href="#DejaVuSans-68" transform="translate(666.558594 0)"/>
      <use xlink:href="#DejaVuSans-65" transform="translate(729.9375 0)"/>
      <use xlink:href="#DejaVuSans-69" transform="translate(791.460938 0)"/>
      <use xlink:href="#DejaVuSans-64" transform="translate(819.244141 0)"/>
      <use xlink:href="#DejaVuSans-20" transform="translate(882.720703 0)"/>
      <use xlink:href="#DejaVuSans-28" transform="translate(914.507812 0)"/>
      <use xlink:href="#DejaVuSans-25" transform="translate(953.521484 0)"/>
      <use xlink:href="#DejaVuSans-29" transform="translate(1048.541016 0)"/>
     </g>
    </g>
   </g>
   <g id="line2d_14">
    <path d="M 74.780455 131.245935 
L 78.70389 135.863034 
L 82.627326 121.352153 
L 86.550762 141.579441 
L 90.474197 126.628837 
L 94.397633 142.458889 
L 98.321068 139.820547 
L 102.244504 124.979873 
L 106.16794 135.533241 
L 110.091375 118.054226 
L 114.014811 131.245935 
L 117.938247 106.181687 
L 121.861682 111.458371 
L 125.785118 102.663897 
L 129.708554 87.3835 
L 133.631989 81.996885 
L 137.555425 88.153017 
L 141.478861 81.777024 
L 145.402296 89.472188 
L 149.325732 87.713293 
L 153.249168 83.096195 
L 157.172603 84.085573 
L 161.096039 91.670806 
L 165.019475 72.542827 
L 168.94291 97.826937 
L 172.866346 100.57521 
L 176.789782 105.302239 
L 180.713217 109.039891 
L 184.636653 118.054226 
L 188.560089 114.97616 
L 192.483524 112.55768 
L 196.40696 115.196022 
L 200.330396 107.940581 
L 204.253831 124.65008 
L 223.871009 104.532723 
L 227.794445 124.65008 
L 231.717881 126.628837 
L 235.641316 118.493949 
L 239.564752 124.65008 
L 243.488188 118.493949 
L 247.411623 121.132291 
L 251.335059 122.2316 
L 255.258495 120.692568 
L 259.18193 110.578923 
L 263.105366 114.316574 
L 267.028802 122.671324 
L 270.952237 114.096713 
L 274.875673 119.81312 
L 278.799109 120.362775 
L 282.722544 122.341531 
L 286.64598 118.713811 
L 290.569416 125.639459 
L 294.492851 120.252844 
L 298.416287 117.834364 
L 302.339723 116.735055 
L 306.263158 123.33091 
L 310.186594 122.451462 
L 314.11003 111.678232 
L 318.033465 96.287904 
L 321.956901 112.447749 
L 325.880336 111.238509 
L 329.803772 99.256039 
L 333.727208 103.213552 
L 337.650643 95.408457 
L 345.497515 83.975642 
L 349.42095 79.578405 
L 353.344386 82.216747 
L 357.267822 86.394122 
L 361.191257 92.550253 
L 365.114693 99.585832 
L 369.038129 110.1392 
L 372.961564 116.075469 
L 376.885 114.97616 
L 380.808436 116.515193 
L 384.731871 116.075469 
L 388.655307 114.096713 
L 392.578743 117.724433 
L 412.195921 127.948008 
L 416.119357 123.33091 
L 420.042792 129.596972 
L 423.966228 125.969251 
L 427.889664 109.809407 
L 431.813099 120.692568 
L 435.736535 135.203448 
L 439.65997 123.33091 
L 443.583406 120.252844 
L 447.506842 133.224692 
L 451.430277 117.39464 
L 455.353713 130.58635 
L 459.277149 118.713811 
L 463.200584 130.916143 
L 467.12402 126.189113 
L 471.047456 132.894899 
L 474.970891 120.912429 
L 478.894327 134.543863 
L 482.817763 139.160961 
L 486.741198 113.107334 
L 490.664634 120.032982 
L 494.58807 118.384018 
L 498.511505 129.926764 
L 502.434941 107.171065 
L 506.358377 98.266661 
L 510.281812 82.436609 
L 514.205248 75.181169 
L 518.128684 81.447231 
L 522.052119 91.341013 
L 525.975555 83.096195 
L 529.898991 87.713293 
L 533.822426 80.677714 
L 537.745862 84.415366 
L 541.669298 78.698958 
L 545.592733 79.138682 
L 549.516169 94.52901 
L 553.439604 86.17426 
L 557.36304 86.613984 
L 561.286476 101.564588 
L 565.209911 94.968733 
L 569.133347 83.316056 
L 573.056783 89.032464 
L 576.980218 94.309148 
L 580.903654 98.266661 
L 584.82709 92.770115 
L 588.750525 90.351635 
L 600.520832 93.31977 
L 604.444268 91.670806 
L 608.367704 93.649562 
L 612.291139 97.387214 
L 616.214575 88.812602 
L 620.138011 89.032464 
L 624.061446 95.848181 
L 627.984882 100.57521 
L 635.831753 94.52901 
L 639.755189 102.224174 
L 643.678625 106.511479 
L 647.60206 109.479614 
L 647.60206 109.479614 
" clip-path="url(#p043d6c4773)" style="fill: none; stroke: #1f77b4; stroke-width: 2; stroke-linecap: square"/>
   </g>
   <g id="line2d_15">
    <path d="M 74.780455 134.873656 
L 78.70389 137.218848 
L 82.627326 135.17204 
L 86.550762 141.924939 
L 90.474197 137.84179 
L 94.397633 143.49538 
L 98.321068 134.920769 
L 102.244504 137.040865 
L 106.16794 135.548946 
L 110.091375 132.627924 
L 114.014811 135.679816 
L 117.938247 132.879195 
L 121.861682 132.376653 
L 125.785118 138.684594 
L 129.708554 128.733229 
L 133.631989 130.287966 
L 137.555425 131.230231 
L 141.478861 138.318158 
L 145.402296 134.229775 
L 149.325732 130.460715 
L 153.249168 134.622385 
L 157.172603 133.39744 
L 161.096039 130.72769 
L 165.019475 139.19237 
L 168.94291 144.531872 
L 172.866346 144.045035 
L 176.789782 149.777147 
L 180.713217 152.007174 
L 184.636653 146.856125 
L 188.560089 147.452893 
L 196.40696 148.143888 
L 200.330396 143.149883 
L 204.253831 143.369745 
L 208.177267 139.637329 
L 212.100702 142.752038 
L 216.024138 140.590063 
L 219.947574 140.699994 
L 223.871009 139.836251 
L 227.794445 141.987756 
L 231.717881 143.275518 
L 235.641316 142.521706 
L 239.564752 146.997465 
L 243.488188 142.348958 
L 247.411623 141.124013 
L 251.335059 134.159105 
L 255.258495 133.792668 
L 259.18193 124.778333 
L 263.105366 126.335688 
L 267.028802 131.026074 
L 270.952237 144.349701 
L 274.875673 143.668129 
L 278.799109 143.573902 
L 282.722544 137.493676 
L 286.64598 133.099057 
L 290.569416 142.882908 
L 294.492851 138.297218 
L 298.416287 142.097687 
L 302.339723 139.396528 
L 306.263158 140.637176 
L 310.186594 136.63255 
L 314.11003 133.868573 
L 318.033465 131.968339 
L 321.956901 138.250105 
L 325.880336 145.133874 
L 329.803772 134.104139 
L 333.727208 138.030243 
L 337.650643 136.38128 
L 341.574079 143.833025 
L 345.497515 134.543863 
L 349.42095 139.098144 
L 353.344386 135.596059 
L 357.267822 133.020534 
L 361.191257 137.59052 
L 365.114693 143.526789 
L 369.038129 147.578529 
L 372.961564 149.557285 
L 376.885 150.750821 
L 380.808436 153.420571 
L 384.731871 148.269523 
L 388.655307 145.317093 
L 392.578743 146.180835 
L 396.502178 144.730794 
L 400.425614 148.248584 
L 404.34905 148.61502 
L 408.272485 151.876304 
L 412.195921 150.154053 
L 416.119357 151.509867 
L 420.042792 154.368071 
L 423.966228 153.640433 
L 427.889664 150.10694 
L 431.813099 148.316636 
L 435.736535 153.389163 
L 439.65997 154.441359 
L 443.583406 144.814551 
L 447.506842 156.658299 
L 451.430277 149.29031 
L 455.353713 149.714329 
L 459.277149 149.887078 
L 463.200584 149.918487 
L 467.12402 149.337423 
L 471.047456 150.923569 
L 474.970891 149.306014 
L 478.894327 145.505546 
L 482.817763 146.290766 
L 486.741198 143.809469 
L 490.664634 143.668129 
L 494.58807 145.050117 
L 498.511505 145.254275 
L 502.434941 136.930934 
L 506.358377 138.218696 
L 510.281812 136.883821 
L 514.205248 134.418228 
L 518.128684 130.732924 
L 522.052119 142.330636 
L 525.975555 137.480589 
L 529.898991 142.019165 
L 533.822426 135.0307 
L 537.745862 130.099513 
L 541.669298 135.70599 
L 545.592733 138.407149 
L 549.516169 132.046861 
L 553.439604 129.801129 
L 557.36304 136.428393 
L 561.286476 137.464884 
L 565.209911 137.025161 
L 573.056783 134.873656 
L 576.980218 129.549858 
L 580.903654 137.878434 
L 584.82709 131.612372 
L 588.750525 138.413431 
L 592.673961 144.657507 
L 596.597397 143.283371 
L 600.520832 139.673972 
L 604.444268 129.908443 
L 608.367704 133.939243 
L 612.291139 139.564041 
L 616.214575 134.386819 
L 620.138011 137.857495 
L 624.061446 143.338336 
L 627.984882 129.66293 
L 631.908318 137.182205 
L 635.831753 126.079182 
L 639.755189 126.95863 
L 643.678625 134.928621 
L 647.60206 129.596972 
L 651.525496 164.884795 
L 655.448932 139.820547 
L 659.372367 147.515711 
L 663.295803 137.621928 
L 667.219238 130.366488 
L 671.142674 152.352671 
L 675.06611 163.785486 
L 678.989545 141.469511 
L 678.989545 141.469511 
" clip-path="url(#p043d6c4773)" style="fill: none; stroke-dasharray: 5.55,2.4; stroke-dashoffset: 0; stroke: #808080; stroke-width: 1.5"/>
   </g>
   <g id="patch_3">
    <path d="M 44.57 246.04 
L 44.57 26.88 
" style="fill: none; stroke: #000000; stroke-width: 0.8; stroke-linejoin: miter; stroke-linecap: square"/>
   </g>
   <g id="patch_4">
    <path d="M 709.2 246.04 
L 709.2 26.88 
" style="fill: none; stroke: #000000; stroke-width: 0.8; stroke-linejoin: miter; stroke-linecap: square"/>
   </g>
   <g id="patch_5">
    <path d="M 44.57 246.04 
L 709.2 246.04 
" style="fill: none; stroke: #000000; stroke-width: 0.8; stroke-linejoin: miter; stroke-linecap: square"/>
   </g>
   <g id="patch_6">
    <path d="M 44.57 26.88 
L 709.2 26.88 
" style="fill: none; stroke: #000000; stroke-width: 0.8; stroke-linejoin: miter; stroke-linecap: square"/>
   </g>
   <g id="text_16">
    <!-- Luchtvochtigheid - v001/c00001/d001 -->
    <g transform="translate(262.595312 20.88) scale(0.12 -0.12)">
     <defs>
      <path id="DejaVuSans-4c" d="M 628 4666 
L 1259 4666 
L 1259 531 
L 3531 531 
L 3531 0 
L 628 0 
L 628 4666 
z
" transform="scale(0.015625)"/>
      <path id="DejaVuSans-75" d="M 544 1381 
L 544 3500 
L 1119 3500 
L 1119 1403 
Q 1119 906 1312 657 
Q 1506 409 1894 409 
Q 2359 409 2629 706 
Q 2900 1003 2900 1516 
L 2900 3500 
L 3475 3500 
L 3475 0 
L 2900 0 
L 2900 538 
Q 2691 219 2414 64 
Q 2138 -91 1772 -91 
Q 1169 -91 856 284 
Q 544 659 544 1381 
z
M 1991 3584 
L 1991 3584 
z
" transform="scale(0.015625)"/>
      <path id="DejaVuSans-76" d="M 191 3500 
L 800 3500 
L 1894 563 
L 2988 3500 
L 3597 3500 
L 2284 0 
L 1503 0 
L 191 3500 
z
" transform="scale(0.015625)"/>
      <path id="DejaVuSans-2f" d="M 1625 4666 
L 2156 4666 
L 531 -594 
L 0 -594 
L 1625 4666 
z
" transform="scale(0.015625)"/>
     </defs>
     <use xlink:href="#DejaVuSans-4c"/>
     <use xlink:href="#DejaVuSans-75" transform="translate(53.962891 0)"/>
     <use xlink:href="#DejaVuSans-63" transform="translate(117.341797 0)"/>
     <use xlink:href="#DejaVuSans-68" transform="translate(172.322266 0)"/>
     <use xlink:href="#DejaVuSans-74" transform="translate(235.701172 0)"/>
     <use xlink:href="#DejaVuSans-76" transform="translate(274.910156 0)"/>
     <use xlink:href="#DejaVuSans-6f" transform="translate(334.089844 0)"/>
     <use xlink:href="#DejaVuSans-63" transform="translate(395.271484 0)"/>
     <use xlink:href="#DejaVuSans-68" transform="translate(450.251953 0)"/>
     <use xlink:href="#DejaVuSans-74" transform="translate(513.630859 0)"/>
     <use xlink:href="#DejaVuSans-69" transform="translate(552.839844 0)"/>
     <use xlink:href="#DejaVuSans-67" transform="translate(580.623047 0)"/>
     <use xlink:href="#DejaVuSans-68" transform="translate(644.099609 0)"/>
     <use xlink:href="#DejaVuSans-65" transform="translate(707.478516 0)"/>
     <use xlink:href="#DejaVuSans-69" transform="translate(769.001953 0)"/>
     <use xlink:href="#DejaVuSans-64" transform="translate(796.785156 0)"/>
     <use xlink:href="#DejaVuSans-20" transform="translate(860.261719 0)"/>
     <use xlink:href="#DejaVuSans-2d" transform="translate(892.048828 0)"/>
     <use xlink:href="#DejaVuSans-20" transform="translate(928.132812 0)"/>
     <use xlink:href="#DejaVuSans-76" transform="translate(959.919922 0)"/>
     <use xlink:href="#DejaVuSans-30" transform="translate(1019.099609 0)"/>
     <use xlink:href="#DejaVuSans-30" transform="translate(1082.722656 0)"/>
     <use xlink:href="#DejaVuSans-31" transform="translate(1146.345703 0)"/>
     <use xlink:href="#DejaVuSans-2f" transform="translate(1209.96875 0)"/>
     <use xlink:href="#DejaVuSans-63" transform="translate(1243.660156 0)"/>
     <use xlink:href="#DejaVuSans-30" transform="translate(1298.640625 0)"/>
     <use xlink:href="#DejaVuSans-30" transform="translate(1362.263672 0)"/>
     <use xlink:href="#DejaVuSans-30" transform="translate(1425.886719 0)"/>
     <use xlink:href="#DejaVuSans-30" transform="translate(1489.509766 0)"/>
     <use xlink:href="#DejaVuSans-31" transform="translate(1553.132812 0)"/>
     <use xlink:href="#DejaVuSans-2f" transform="translate(1616.755859 0)"/>
     <use xlink:href="#DejaVuSans-64" transform="translate(1650.447266 0)"/>
     <use xlink:href="#DejaVuSans-30" transform="translate(1713.923828 0)"/>
     <use xlink:href="#DejaVuSans-30" transform="translate(1777.546875 0)"/>
     <use xlink:href="#DejaVuSans-31" transform="translate(1841.169922 0)"/>
    </g>
   </g>
   <g id="legend_1">
    <g id="patch_7">
     <path d="M 301.413125 78.914375 
L 452.356875 78.914375 
Q 454.356875 78.914375 454.356875 76.914375 
L 454.356875 33.88 
Q 454.356875 31.88 452.356875 31.88 
L 301.413125 31.88 
Q 299.413125 31.88 299.413125 33.88 
L 299.413125 76.914375 
Q 299.413125 78.914375 301.413125 78.914375 
z
" style="fill: #ffffff; opacity: 0.8; stroke: #cccccc; stroke-linejoin: miter"/>
    </g>
    <g id="line2d_16">
     <path d="M 303.413125 39.978438 
L 313.413125 39.978438 
L 323.413125 39.978438 
" style="fill: none; stroke: #1f77b4; stroke-width: 2; stroke-linecap: square"/>
    </g>
    <g id="text_17">
     <!-- Hive -->
     <g transform="translate(331.413125 43.478438) scale(0.1 -0.1)">
      <defs>
       <path id="DejaVuSans-48" d="M 628 4666 
L 1259 4666 
L 1259 2753 
L 3553 2753 
L 3553 4666 
L 4184 4666 
L 4184 0 
L 3553 0 
L 3553 2222 
L 1259 2222 
L 1259 0 
L 628 0 
L 628 4666 
z
" transform="scale(0.015625)"/>
      </defs>
      <use xlink:href="#DejaVuSans-48"/>
      <use xlink:href="#DejaVuSans-69" transform="translate(75.195312 0)"/>
      <use xlink:href="#DejaVuSans-76" transform="translate(102.978516 0)"/>
      <use xlink:href="#DejaVuSans-65" transform="translate(162.158203 0)"/>
     </g>
    </g>
    <g id="line2d_17">
     <path d="M 303.413125 54.656563 
L 313.413125 54.656563 
L 323.413125 54.656563 
" style="fill: none; stroke-dasharray: 5.55,2.4; stroke-dashoffset: 0; stroke: #808080; stroke-width: 1.5"/>
    </g>
    <g id="text_18">
     <!-- Gemiddelde (alle hives) -->
     <g transform="translate(331.413125 58.156563) scale(0.1 -0.1)">
      <defs>
       <path id="DejaVuSans-47" d="M 3809 666 
L 3809 1919 
L 2778 1919 
L 2778 2438 
L 4434 2438 
L 4434 434 
Q 4069 175 3628 42 
Q 3188 -91 2688 -91 
Q 1594 -91 976 548 
Q 359 1188 359 2328 
Q 359 3472 976 4111 
Q 1594 4750 2688 4750 
Q 3144 4750 3555 4637 
Q 3966 4525 4313 4306 
L 4313 3634 
Q 3963 3931 3569 4081 
Q 3175 4231 2741 4231 
Q 1884 4231 1454 3753 
Q 1025 3275 1025 2328 
Q 1025 1384 1454 906 
Q 1884 428 2741 428 
Q 3075 428 3337 486 
Q 3600 544 3809 666 
z
" transform="scale(0.015625)"/>
       <path id="DejaVuSans-6d" d="M 3328 2828 
Q 3544 3216 3844 3400 
Q 4144 3584 4550 3584 
Q 5097 3584 5394 3201 
Q 5691 2819 5691 2113 
L 5691 0 
L 5113 0 
L 5113 2094 
Q 5113 2597 4934 2840 
Q 4756 3084 4391 3084 
Q 3944 3084 3684 2787 
Q 3425 2491 3425 1978 
L 3425 0 
L 2847 0 
L 2847 2094 
Q 2847 2600 2669 2842 
Q 2491 3084 2119 3084 
Q 1678 3084 1418 2786 
Q 1159 2488 1159 1978 
L 1159 0 
L 581 0 
L 581 3500 
L 1159 3500 
L 1159 2956 
Q 1356 3278 1631 3431 
Q 1906 3584 2284 3584 
Q 2666 3584 2933 3390 
Q 3200 3197 3328 2828 
z
" transform="scale(0.015625)"/>
       <path id="DejaVuSans-61" d="M 2194 1759 
Q 1497 1759 1228 1600 
Q 959 1441 959 1056 
Q 959 750 1161 570 
Q 1363 391 1709 391 
Q 2188 391 2477 730 
Q 2766 1069 2766 1631 
L 2766 1759 
L 2194 1759 
z
M 3341 1997 
L 3341 0 
L 2766 0 
L 2766 531 
Q 2569 213 2275 61 
Q 1981 -91 1556 -91 
Q 1019 -91 701 211 
Q 384 513 384 1019 
Q 384 1609 779 1909 
Q 1175 2209 1959 2209 
L 2766 2209 
L 2766 2266 
Q 2766 2663 2505 2880 
Q 2244 3097 1772 3097 
Q 1472 3097 1187 3025 
Q 903 2953 641 2809 
L 641 3341 
Q 956 3463 1253 3523 
Q 1550 3584 1831 3584 
Q 2591 3584 2966 3190 
Q 3341 2797 3341 1997 
z
" transform="scale(0.015625)"/>
       <path id="DejaVuSans-73" d="M 2834 3397 
L 2834 2853 
Q 2591 2978 2328 3040 
Q 2066 3103 1784 3103 
Q 1356 3103 1142 2972 
Q 928 2841 928 2578 
Q 928 2378 1081 2264 
Q 1234 2150 1697 2047 
L 1894 2003 
Q 2506 1872 2764 1633 
Q 3022 1394 3022 966 
Q 3022 478 2636 193 
Q 2250 -91 1575 -91 
Q 1294 -91 989 -36 
Q 684 19 347 128 
L 347 722 
Q 666 556 975 473 
Q 1284 391 1588 391 
Q 1994 391 2212 530 
Q 2431 669 2431 922 
Q 2431 1156 2273 1281 
Q 2116 1406 1581 1522 
L 1381 1569 
Q 847 1681 609 1914 
Q 372 2147 372 2553 
Q 372 3047 722 3315 
Q 1072 3584 1716 3584 
Q 2034 3584 2315 3537 
Q 2597 3491 2834 3397 
z
" transform="scale(0.015625)"/>
      </defs>
      <use xlink:href="#DejaVuSans-47"/>
      <use xlink:href="#DejaVuSans-65" transform="translate(77.490234 0)"/>
      <use xlink:href="#DejaVuSans-6d" transform="translate(139.013672 0)"/>
      <use xlink:href="#DejaVuSans-69" transform="translate(236.425781 0)"/>
      <use xlink:href="#DejaVuSans-64" transform="translate(264.208984 0)"/>
      <use xlink:href="#DejaVuSans-64" transform="translate(327.685547 0)"/>
      <use xlink:href="#DejaVuSans-65" transform="translate(391.162109 0)"/>
      <use xlink:href="#DejaVuSans-6c" transform="translate(452.685547 0)"/>
      <use xlink:href="#DejaVuSans-64" transform="translate(480.46875 0)"/>
      <use xlink:href="#DejaVuSans-65" transform="translate(543.945312 0)"/>
      <use xlink:href="#DejaVuSans-20" transform="translate(605.46875 0)"/>
      <use xlink:href="#DejaVuSans-28" transform="translate(637.255859 0)"/>
      <use xlink:href="#DejaVuSans-61" transform="translate(676.269531 0)"/>
      <use xlink:href="#DejaVuSans-6c" transform="translate(737.548828 0)"/>
      <use xlink:href="#DejaVuSans-6c" transform="translate(765.332031 0)"/>
      <use xlink:href="#DejaVuSans-65" transform="translate(793.115234 0)"/>
      <use xlink:href="#DejaVuSans-20" transform="translate(854.638672 0)"/>
      <use xlink:href="#DejaVuSans-68" transform="translate(886.425781 0)"/>
      <use xlink:href="#DejaVuSans-69" transform="translate(949.804688 0)"/>
      <use xlink:href="#DejaVuSans-76" transform="translate(977.587891 0)"/>
      <use xlink:href="#DejaVuSans-65" transform="translate(1036.767578 0)"/>
      <use xlink:href="#DejaVuSans-73" transform="translate(1098.291016 0)"/>
      <use xlink:href="#DejaVuSans-29" transform="translate(1150.390625 0)"/>
     </g>
    </g>
    <g id="patch_8">
     <path d="M 303.413125 72.834688 
L 323.413125 72.834688 
L 323.413125 65.834688 
L 303.413125 65.834688 
z
" style="fill: #808080; fill-opacity: 0.2; stroke: #808080; stroke-opacity: 0.2; stroke-linejoin: miter"/>
    </g>
    <g id="text_19">
     <!-- ±2 Std Dev -->
     <g transform="translate(331.413125 72.834688) scale(0.1 -0.1)">
      <defs>
       <path id="DejaVuSans-b1" d="M 2944 4013 
L 2944 2803 
L 4684 2803 
L 4684 2272 
L 2944 2272 
L 2944 1063 
L 2419 1063 
L 2419 2272 
L 678 2272 
L 678 2803 
L 2419 2803 
L 2419 4013 
L 2944 4013 
z
M 678 531 
L 4684 531 
L 4684 0 
L 678 0 
L 678 531 
z
" transform="scale(0.015625)"/>
       <path id="DejaVuSans-53" d="M 3425 4513 
L 3425 3897 
Q 3066 4069 2747 4153 
Q 2428 4238 2131 4238 
Q 1616 4238 1336 4038 
Q 1056 3838 1056 3469 
Q 1056 3159 1242 3001 
Q 1428 2844 1947 2747 
L 2328 2669 
Q 3034 2534 3370 2195 
Q 3706 1856 3706 1288 
Q 3706 609 3251 259 
Q 2797 -91 1919 -91 
Q 1588 -91 1214 -16 
Q 841 59 441 206 
L 441 856 
Q 825 641 1194 531 
Q 1563 422 1919 422 
Q 2459 422 2753 634 
Q 3047 847 3047 1241 
Q 3047 1584 2836 1778 
Q 2625 1972 2144 2069 
L 1759 2144 
Q 1053 2284 737 2584 
Q 422 2884 422 3419 
Q 422 4038 858 4394 
Q 1294 4750 2059 4750 
Q 2388 4750 2728 4690 
Q 3069 4631 3425 4513 
z
" transform="scale(0.015625)"/>
       <path id="DejaVuSans-44" d="M 1259 4147 
L 1259 519 
L 2022 519 
Q 2988 519 3436 956 
Q 3884 1394 3884 2338 
Q 3884 3275 3436 3711 
Q 2988 4147 2022 4147 
L 1259 4147 
z
M 628 4666 
L 1925 4666 
Q 3281 4666 3915 4102 
Q 4550 3538 4550 2338 
Q 4550 1131 3912 565 
Q 3275 0 1925 0 
L 628 0 
L 628 4666 
z
" transform="scale(0.015625)"/>
      </defs>
      <use xlink:href="#DejaVuSans-b1"/>
      <use xlink:href="#DejaVuSans-32" transform="translate(83.789062 0)"/>
      <use xlink:href="#DejaVuSans-20" transform="translate(147.412109 0)"/>
      <use xlink:href="#DejaVuSans-53" transform="translate(179.199219 0)"/>
      <use xlink:href="#DejaVuSans-74" transform="translate(242.675781 0)"/>
      <use xlink:href="#DejaVuSans-64" transform="translate(281.884766 0)"/>
      <use xlink:href="#DejaVuSans-20" transform="translate(345.361328 0)"/>
      <use xlink:href="#DejaVuSans-44" transform="translate(377.148438 0)"/>
      <use xlink:href="#DejaVuSans-65" transform="translate(454.150391 0)"/>
      <use xlink:href="#DejaVuSans-76" transform="translate(515.673828 0)"/>
     </g>
    </g>
   </g>
  </g>
 </g>
 <defs>
  <clipPath id="p043d6c4773">
   <rect x="44.57" y="26.88" width="664.63" height="219.16"/>
  </clipPath>
 </defs>
</svg>
