<?xml version="1.0" encoding="utf-8" standalone="no"?>
<!DOCTYPE svg PUBLIC "-//W3C//DTD SVG 1.1//EN"
  "http://www.w3.org/Graphics/SVG/1.1/DTD/svg11.dtd">
<svg xmlns:xlink="http://www.w3.org/1999/xlink" width="720pt" height="288pt" viewBox="0 0 720 288" xmlns="http://www.w3.org/2000/svg" version="1.1">
 <metadata>
  <rdf:RDF xmlns:dc="http://purl.org/dc/elements/1.1/" xmlns:cc="http://creativecommons.org/ns#" xmlns:rdf="http://www.w3.org/1999/02/22-rdf-syntax-ns#">
   <cc:Work>
    <dc:type rdf:resource="http://purl.org/dc/dcmitype/StillImage"/>
    <dc:date>2025-06-03T16:22:38.859144</dc:date>
    <dc:format>image/svg+xml</dc:format>
    <dc:creator>
     <cc:Agent>
      <dc:title>Matplotlib v3.10.3, https://matplotlib.org/</dc:title>
     </cc:Agent>
    </dc:creator>
   </cc:Work>
  </rdf:RDF>
 </metadata>
 <defs>
  <style type="text/css">*{stroke-linejoin: round; stroke-linecap: butt}</style>
 </defs>
 <g id="figure_1">
  <g id="patch_1">
   <path d="M 0 288 
L 720 288 
L 720 0 
L 0 0 
z
" style="fill: #ffffff"/>
  </g>
  <g id="axes_1">
   <g id="patch_2">
    <path d="M 63.47 246.04 
L 709.2 246.04 
L 709.2 26.88 
L 63.47 26.88 
z
" style="fill: #ffffff"/>
   </g>
   <g id="FillBetweenPolyCollection_1">
    <defs>
     <path id="m88ff7ddeac" d="M 92.821364 -175.63656 
L 92.821364 -51.921818 
L 96.708961 -61.152991 
L 100.596559 -63.694914 
L 104.484157 -69.831774 
L 108.371755 -64.368396 
L 112.259353 -68.278478 
L 116.146951 -69.692239 
L 120.034548 -68.685713 
L 123.922146 -62.413615 
L 127.809744 -68.077386 
L 131.697342 -72.293242 
L 135.58494 -73.425635 
L 139.472538 -72.278629 
L 143.360135 -75.896494 
L 147.247733 -76.346767 
L 151.135331 -72.223199 
L 155.022929 -81.824223 
L 158.910527 -88.404364 
L 162.798125 -89.489687 
L 166.685722 -91.318145 
L 170.57332 -88.768248 
L 174.460918 -77.699506 
L 178.348516 -78.257269 
L 182.236114 -79.000826 
L 186.123712 -91.063171 
L 190.011309 -95.30498 
L 193.898907 -100.911133 
L 197.786505 -94.060457 
L 201.674103 -89.666829 
L 205.561701 -93.639663 
L 209.449299 -95.258964 
L 213.336896 -96.629674 
L 217.224494 -100.393079 
L 221.112092 -85.2092 
L 224.99969 -90.402225 
L 228.887288 -88.081095 
L 232.774886 -91.110004 
L 236.662483 -83.049065 
L 240.550081 -80.761318 
L 244.437679 -84.172608 
L 248.325277 -81.947017 
L 252.212875 -83.325388 
L 256.100473 -92.762039 
L 259.98807 -90.230447 
L 263.875668 -84.710783 
L 267.763266 -86.301154 
L 271.650864 -81.681076 
L 275.538462 -77.388834 
L 279.42606 -82.717551 
L 283.313657 -80.048792 
L 287.201255 -92.145102 
L 291.088853 -79.888684 
L 294.976451 -81.401665 
L 298.864049 -80.724586 
L 302.751647 -83.257794 
L 306.639244 -81.053814 
L 310.526842 -77.916095 
L 314.41444 -75.499151 
L 318.302038 -84.771397 
L 322.189636 -90.107733 
L 326.077234 -87.606476 
L 329.964831 -96.277238 
L 333.852429 -97.318541 
L 337.740027 -110.14416 
L 341.627625 -108.65482 
L 345.515223 -113.679894 
L 349.402821 -101.809178 
L 353.290418 -110.345111 
L 357.178016 -109.556312 
L 361.065614 -108.635037 
L 364.953212 -124.252626 
L 368.84081 -117.561618 
L 372.728408 -102.963373 
L 376.616005 -125.303074 
L 380.503603 -120.838379 
L 384.391201 -131.032935 
L 388.278799 -141.013943 
L 392.166397 -124.076758 
L 396.053995 -124.615131 
L 399.941592 -127.312021 
L 403.82919 -117.952409 
L 407.716788 -106.115126 
L 411.604386 -125.660523 
L 415.491984 -108.105667 
L 419.379582 -105.704495 
L 423.267179 -97.376695 
L 427.154777 -96.146927 
L 431.042375 -92.559497 
L 434.929973 -82.804985 
L 438.817571 -96.016673 
L 442.705169 -90.254794 
L 446.592766 -90.230733 
L 450.480364 -89.848721 
L 454.367962 -83.931282 
L 458.25556 -69.720684 
L 462.143158 -85.185912 
L 466.030756 -82.481814 
L 469.918353 -86.256984 
L 473.805951 -75.764849 
L 477.693549 -73.62247 
L 481.581147 -75.685583 
L 485.468745 -63.009882 
L 489.356343 -81.147629 
L 493.24394 -81.136799 
L 497.131538 -68.235255 
L 501.019136 -71.634498 
L 504.906734 -73.230514 
L 508.794332 -75.111798 
L 512.68193 -69.729225 
L 516.569527 -73.873917 
L 520.457125 -82.033814 
L 524.344723 -91.794479 
L 528.232321 -91.997568 
L 532.119919 -91.558149 
L 536.007517 -78.390214 
L 539.895114 -89.756263 
L 543.782712 -101.703496 
L 547.67031 -105.722547 
L 551.557908 -97.786479 
L 555.445506 -109.672329 
L 559.333104 -117.71173 
L 563.220701 -111.037748 
L 567.108299 -111.017172 
L 570.995897 -102.607084 
L 574.883495 -96.790868 
L 578.771093 -110.634127 
L 582.658691 -113.897206 
L 586.546288 -123.163489 
L 590.433886 -140.008733 
L 594.321484 -129.634939 
L 598.209082 -119.159164 
L 602.09668 -119.037515 
L 605.984278 -117.238216 
L 609.871875 -124.455826 
L 613.759473 -107.76472 
L 617.647071 -94.869876 
L 621.534669 -107.255322 
L 625.422267 -109.99579 
L 629.309865 -104.093719 
L 633.197462 -99.583216 
L 637.08506 -93.672513 
L 640.972658 -88.080454 
L 644.860256 -80.282517 
L 648.747854 -77.916857 
L 652.635452 -91.249672 
L 656.523049 -102.620545 
L 660.410647 -89.612931 
L 664.298245 -91.14526 
L 668.185843 -92.674787 
L 672.073441 -67.034658 
L 675.961039 -95.080164 
L 679.848636 -95.649325 
L 679.848636 -153.003508 
L 679.848636 -153.003508 
L 675.961039 -147.923864 
L 672.073441 -179.017062 
L 668.185843 -165.850573 
L 664.298245 -153.198507 
L 660.410647 -159.778744 
L 656.523049 -151.101399 
L 652.635452 -160.282773 
L 648.747854 -165.225653 
L 644.860256 -185.658108 
L 640.972658 -173.724553 
L 637.08506 -172.913137 
L 633.197462 -171.914429 
L 629.309865 -174.688529 
L 625.422267 -164.195827 
L 621.534669 -167.593282 
L 617.647071 -211.408776 
L 613.759473 -197.518329 
L 609.871875 -179.948019 
L 605.984278 -204.318619 
L 602.09668 -185.586246 
L 598.209082 -204.732553 
L 594.321484 -199.741797 
L 590.433886 -214.893444 
L 586.546288 -244.449726 
L 582.658691 -241.478848 
L 578.771093 -246.89692 
L 574.883495 -250.164886 
L 570.995897 -244.540523 
L 567.108299 -222.019002 
L 563.220701 -233.784178 
L 559.333104 -215.002392 
L 555.445506 -233.714467 
L 551.557908 -251.158182 
L 547.67031 -227.906051 
L 543.782712 -223.795264 
L 539.895114 -226.760599 
L 536.007517 -229.694234 
L 532.119919 -217.595514 
L 528.232321 -206.238507 
L 524.344723 -190.179772 
L 520.457125 -193.065991 
L 516.569527 -189.765411 
L 512.68193 -176.825664 
L 508.794332 -178.498808 
L 504.906734 -185.566981 
L 501.019136 -177.989094 
L 497.131538 -180.55192 
L 493.24394 -158.631979 
L 489.356343 -163.681518 
L 485.468745 -174.77045 
L 481.581147 -173.165083 
L 477.693549 -186.112199 
L 473.805951 -175.249704 
L 469.918353 -180.249994 
L 466.030756 -179.292829 
L 462.143158 -167.384156 
L 458.25556 -208.882595 
L 454.367962 -180.388957 
L 450.480364 -172.609133 
L 446.592766 -166.176211 
L 442.705169 -164.271361 
L 438.817571 -171.155114 
L 434.929973 -199.554809 
L 431.042375 -177.765646 
L 427.154777 -171.767881 
L 423.267179 -168.173173 
L 419.379582 -184.899389 
L 415.491984 -183.97506 
L 411.604386 -176.177482 
L 407.716788 -201.000863 
L 403.82919 -176.798595 
L 399.941592 -179.300186 
L 396.053995 -177.353535 
L 392.166397 -189.518932 
L 388.278799 -180.445356 
L 384.391201 -176.716578 
L 380.503603 -185.705736 
L 376.616005 -185.387241 
L 372.728408 -189.454358 
L 368.84081 -180.833182 
L 364.953212 -173.943882 
L 361.065614 -182.788702 
L 357.178016 -174.544868 
L 353.290418 -179.588443 
L 349.402821 -166.804485 
L 345.515223 -164.450887 
L 341.627625 -175.492827 
L 337.740027 -167.614881 
L 333.852429 -159.842006 
L 329.964831 -155.162732 
L 326.077234 -146.650599 
L 322.189636 -147.057018 
L 318.302038 -153.070585 
L 314.41444 -162.128437 
L 310.526842 -158.646878 
L 306.639244 -152.993927 
L 302.751647 -158.574882 
L 298.864049 -165.822483 
L 294.976451 -178.514733 
L 291.088853 -167.525627 
L 287.201255 -165.988044 
L 283.313657 -159.778415 
L 279.42606 -168.260273 
L 275.538462 -169.799119 
L 271.650864 -166.805209 
L 267.763266 -148.851687 
L 263.875668 -165.708279 
L 259.98807 -155.796736 
L 256.100473 -149.891412 
L 252.212875 -159.924474 
L 248.325277 -170.45497 
L 244.437679 -163.71788 
L 240.550081 -181.274187 
L 236.662483 -174.115623 
L 232.774886 -165.333745 
L 228.887288 -172.722788 
L 224.99969 -160.623677 
L 221.112092 -172.605114 
L 217.224494 -145.023585 
L 213.336896 -149.785352 
L 209.449299 -152.038947 
L 205.561701 -159.699497 
L 201.674103 -165.226466 
L 197.786505 -160.923473 
L 193.898907 -148.579037 
L 190.011309 -144.115061 
L 186.123712 -161.522846 
L 182.236114 -170.251486 
L 178.348516 -165.961818 
L 174.460918 -174.356965 
L 170.57332 -151.119383 
L 166.685722 -136.584185 
L 162.798125 -147.97396 
L 158.910527 -137.82501 
L 155.022929 -145.686921 
L 151.135331 -169.979378 
L 147.247733 -149.225926 
L 143.360135 -144.333803 
L 139.472538 -152.088667 
L 135.58494 -138.640625 
L 131.697342 -147.441094 
L 127.809744 -147.44358 
L 123.922146 -152.814744 
L 120.034548 -152.111398 
L 116.146951 -160.718146 
L 112.259353 -162.472823 
L 108.371755 -173.92262 
L 104.484157 -158.615009 
L 100.596559 -173.635925 
L 96.708961 -173.823182 
L 92.821364 -175.63656 
z
" style="stroke: #808080; stroke-opacity: 0.2"/>
    </defs>
    <g clip-path="url(#pb8be0cae67)">
     <use xlink:href="#m88ff7ddeac" x="0" y="288" style="fill: #808080; fill-opacity: 0.2; stroke: #808080; stroke-opacity: 0.2"/>
    </g>
   </g>
   <g id="matplotlib.axis_1">
    <g id="xtick_1">
     <g id="line2d_1">
      <defs>
       <path id="mca7d1493be" d="M 0 0 
L 0 3.5 
" style="stroke: #000000; stroke-width: 0.8"/>
      </defs>
      <g>
       <use xlink:href="#mca7d1493be" x="155.022929" y="246.04" style="stroke: #000000; stroke-width: 0.8"/>
      </g>
     </g>
     <g id="text_1">
      <!-- 06-01 00 -->
      <g transform="translate(132.54246 260.638438) scale(0.1 -0.1)">
       <defs>
        <path id="DejaVuSans-30" d="M 2034 4250 
Q 1547 4250 1301 3770 
Q 1056 3291 1056 2328 
Q 1056 1369 1301 889 
Q 1547 409 2034 409 
Q 2525 409 2770 889 
Q 3016 1369 3016 2328 
Q 3016 3291 2770 3770 
Q 2525 4250 2034 4250 
z
M 2034 4750 
Q 2819 4750 3233 4129 
Q 3647 3509 3647 2328 
Q 3647 1150 3233 529 
Q 2819 -91 2034 -91 
Q 1250 -91 836 529 
Q 422 1150 422 2328 
Q 422 3509 836 4129 
Q 1250 4750 2034 4750 
z
" transform="scale(0.015625)"/>
        <path id="DejaVuSans-36" d="M 2113 2584 
Q 1688 2584 1439 2293 
Q 1191 2003 1191 1497 
Q 1191 994 1439 701 
Q 1688 409 2113 409 
Q 2538 409 2786 701 
Q 3034 994 3034 1497 
Q 3034 2003 2786 2293 
Q 2538 2584 2113 2584 
z
M 3366 4563 
L 3366 3988 
Q 3128 4100 2886 4159 
Q 2644 4219 2406 4219 
Q 1781 4219 1451 3797 
Q 1122 3375 1075 2522 
Q 1259 2794 1537 2939 
Q 1816 3084 2150 3084 
Q 2853 3084 3261 2657 
Q 3669 2231 3669 1497 
Q 3669 778 3244 343 
Q 2819 -91 2113 -91 
Q 1303 -91 875 529 
Q 447 1150 447 2328 
Q 447 3434 972 4092 
Q 1497 4750 2381 4750 
Q 2619 4750 2861 4703 
Q 3103 4656 3366 4563 
z
" transform="scale(0.015625)"/>
        <path id="DejaVuSans-2d" d="M 313 2009 
L 1997 2009 
L 1997 1497 
L 313 1497 
L 313 2009 
z
" transform="scale(0.015625)"/>
        <path id="DejaVuSans-31" d="M 794 531 
L 1825 531 
L 1825 4091 
L 703 3866 
L 703 4441 
L 1819 4666 
L 2450 4666 
L 2450 531 
L 3481 531 
L 3481 0 
L 794 0 
L 794 531 
z
" transform="scale(0.015625)"/>
        <path id="DejaVuSans-20" transform="scale(0.015625)"/>
       </defs>
       <use xlink:href="#DejaVuSans-30"/>
       <use xlink:href="#DejaVuSans-36" transform="translate(63.623047 0)"/>
       <use xlink:href="#DejaVuSans-2d" transform="translate(127.246094 0)"/>
       <use xlink:href="#DejaVuSans-30" transform="translate(163.330078 0)"/>
       <use xlink:href="#DejaVuSans-31" transform="translate(226.953125 0)"/>
       <use xlink:href="#DejaVuSans-20" transform="translate(290.576172 0)"/>
       <use xlink:href="#DejaVuSans-30" transform="translate(322.363281 0)"/>
       <use xlink:href="#DejaVuSans-30" transform="translate(385.986328 0)"/>
      </g>
     </g>
    </g>
    <g id="xtick_2">
     <g id="line2d_2">
      <g>
       <use xlink:href="#mca7d1493be" x="248.325277" y="246.04" style="stroke: #000000; stroke-width: 0.8"/>
      </g>
     </g>
     <g id="text_2">
      <!-- 06-01 12 -->
      <g transform="translate(225.844808 260.638438) scale(0.1 -0.1)">
       <defs>
        <path id="DejaVuSans-32" d="M 1228 531 
L 3431 531 
L 3431 0 
L 469 0 
L 469 531 
Q 828 903 1448 1529 
Q 2069 2156 2228 2338 
Q 2531 2678 2651 2914 
Q 2772 3150 2772 3378 
Q 2772 3750 2511 3984 
Q 2250 4219 1831 4219 
Q 1534 4219 1204 4116 
Q 875 4013 500 3803 
L 500 4441 
Q 881 4594 1212 4672 
Q 1544 4750 1819 4750 
Q 2544 4750 2975 4387 
Q 3406 4025 3406 3419 
Q 3406 3131 3298 2873 
Q 3191 2616 2906 2266 
Q 2828 2175 2409 1742 
Q 1991 1309 1228 531 
z
" transform="scale(0.015625)"/>
       </defs>
       <use xlink:href="#DejaVuSans-30"/>
       <use xlink:href="#DejaVuSans-36" transform="translate(63.623047 0)"/>
       <use xlink:href="#DejaVuSans-2d" transform="translate(127.246094 0)"/>
       <use xlink:href="#DejaVuSans-30" transform="translate(163.330078 0)"/>
       <use xlink:href="#DejaVuSans-31" transform="translate(226.953125 0)"/>
       <use xlink:href="#DejaVuSans-20" transform="translate(290.576172 0)"/>
       <use xlink:href="#DejaVuSans-31" transform="translate(322.363281 0)"/>
       <use xlink:href="#DejaVuSans-32" transform="translate(385.986328 0)"/>
      </g>
     </g>
    </g>
    <g id="xtick_3">
     <g id="line2d_3">
      <g>
       <use xlink:href="#mca7d1493be" x="341.627625" y="246.04" style="stroke: #000000; stroke-width: 0.8"/>
      </g>
     </g>
     <g id="text_3">
      <!-- 06-02 00 -->
      <g transform="translate(319.147156 260.638438) scale(0.1 -0.1)">
       <use xlink:href="#DejaVuSans-30"/>
       <use xlink:href="#DejaVuSans-36" transform="translate(63.623047 0)"/>
       <use xlink:href="#DejaVuSans-2d" transform="translate(127.246094 0)"/>
       <use xlink:href="#DejaVuSans-30" transform="translate(163.330078 0)"/>
       <use xlink:href="#DejaVuSans-32" transform="translate(226.953125 0)"/>
       <use xlink:href="#DejaVuSans-20" transform="translate(290.576172 0)"/>
       <use xlink:href="#DejaVuSans-30" transform="translate(322.363281 0)"/>
       <use xlink:href="#DejaVuSans-30" transform="translate(385.986328 0)"/>
      </g>
     </g>
    </g>
    <g id="xtick_4">
     <g id="line2d_4">
      <g>
       <use xlink:href="#mca7d1493be" x="434.929973" y="246.04" style="stroke: #000000; stroke-width: 0.8"/>
      </g>
     </g>
     <g id="text_4">
      <!-- 06-02 12 -->
      <g transform="translate(412.449504 260.638438) scale(0.1 -0.1)">
       <use xlink:href="#DejaVuSans-30"/>
       <use xlink:href="#DejaVuSans-36" transform="translate(63.623047 0)"/>
       <use xlink:href="#DejaVuSans-2d" transform="translate(127.246094 0)"/>
       <use xlink:href="#DejaVuSans-30" transform="translate(163.330078 0)"/>
       <use xlink:href="#DejaVuSans-32" transform="translate(226.953125 0)"/>
       <use xlink:href="#DejaVuSans-20" transform="translate(290.576172 0)"/>
       <use xlink:href="#DejaVuSans-31" transform="translate(322.363281 0)"/>
       <use xlink:href="#DejaVuSans-32" transform="translate(385.986328 0)"/>
      </g>
     </g>
    </g>
    <g id="xtick_5">
     <g id="line2d_5">
      <g>
       <use xlink:href="#mca7d1493be" x="528.232321" y="246.04" style="stroke: #000000; stroke-width: 0.8"/>
      </g>
     </g>
     <g id="text_5">
      <!-- 06-03 00 -->
      <g transform="translate(505.751852 260.638438) scale(0.1 -0.1)">
       <defs>
        <path id="DejaVuSans-33" d="M 2597 2516 
Q 3050 2419 3304 2112 
Q 3559 1806 3559 1356 
Q 3559 666 3084 287 
Q 2609 -91 1734 -91 
Q 1441 -91 1130 -33 
Q 819 25 488 141 
L 488 750 
Q 750 597 1062 519 
Q 1375 441 1716 441 
Q 2309 441 2620 675 
Q 2931 909 2931 1356 
Q 2931 1769 2642 2001 
Q 2353 2234 1838 2234 
L 1294 2234 
L 1294 2753 
L 1863 2753 
Q 2328 2753 2575 2939 
Q 2822 3125 2822 3475 
Q 2822 3834 2567 4026 
Q 2313 4219 1838 4219 
Q 1578 4219 1281 4162 
Q 984 4106 628 3988 
L 628 4550 
Q 988 4650 1302 4700 
Q 1616 4750 1894 4750 
Q 2613 4750 3031 4423 
Q 3450 4097 3450 3541 
Q 3450 3153 3228 2886 
Q 3006 2619 2597 2516 
z
" transform="scale(0.015625)"/>
       </defs>
       <use xlink:href="#DejaVuSans-30"/>
       <use xlink:href="#DejaVuSans-36" transform="translate(63.623047 0)"/>
       <use xlink:href="#DejaVuSans-2d" transform="translate(127.246094 0)"/>
       <use xlink:href="#DejaVuSans-30" transform="translate(163.330078 0)"/>
       <use xlink:href="#DejaVuSans-33" transform="translate(226.953125 0)"/>
       <use xlink:href="#DejaVuSans-20" transform="translate(290.576172 0)"/>
       <use xlink:href="#DejaVuSans-30" transform="translate(322.363281 0)"/>
       <use xlink:href="#DejaVuSans-30" transform="translate(385.986328 0)"/>
      </g>
     </g>
    </g>
    <g id="xtick_6">
     <g id="line2d_6">
      <g>
       <use xlink:href="#mca7d1493be" x="621.534669" y="246.04" style="stroke: #000000; stroke-width: 0.8"/>
      </g>
     </g>
     <g id="text_6">
      <!-- 06-03 12 -->
      <g transform="translate(599.0542 260.638438) scale(0.1 -0.1)">
       <use xlink:href="#DejaVuSans-30"/>
       <use xlink:href="#DejaVuSans-36" transform="translate(63.623047 0)"/>
       <use xlink:href="#DejaVuSans-2d" transform="translate(127.246094 0)"/>
       <use xlink:href="#DejaVuSans-30" transform="translate(163.330078 0)"/>
       <use xlink:href="#DejaVuSans-33" transform="translate(226.953125 0)"/>
       <use xlink:href="#DejaVuSans-20" transform="translate(290.576172 0)"/>
       <use xlink:href="#DejaVuSans-31" transform="translate(322.363281 0)"/>
       <use xlink:href="#DejaVuSans-32" transform="translate(385.986328 0)"/>
      </g>
     </g>
    </g>
    <g id="text_7">
     <!-- Tijd -->
     <g transform="translate(377.485 274.316562) scale(0.1 -0.1)">
      <defs>
       <path id="DejaVuSans-54" d="M -19 4666 
L 3928 4666 
L 3928 4134 
L 2272 4134 
L 2272 0 
L 1638 0 
L 1638 4134 
L -19 4134 
L -19 4666 
z
" transform="scale(0.015625)"/>
       <path id="DejaVuSans-69" d="M 603 3500 
L 1178 3500 
L 1178 0 
L 603 0 
L 603 3500 
z
M 603 4863 
L 1178 4863 
L 1178 4134 
L 603 4134 
L 603 4863 
z
" transform="scale(0.015625)"/>
       <path id="DejaVuSans-6a" d="M 603 3500 
L 1178 3500 
L 1178 -63 
Q 1178 -731 923 -1031 
Q 669 -1331 103 -1331 
L -116 -1331 
L -116 -844 
L 38 -844 
Q 366 -844 484 -692 
Q 603 -541 603 -63 
L 603 3500 
z
M 603 4863 
L 1178 4863 
L 1178 4134 
L 603 4134 
L 603 4863 
z
" transform="scale(0.015625)"/>
       <path id="DejaVuSans-64" d="M 2906 2969 
L 2906 4863 
L 3481 4863 
L 3481 0 
L 2906 0 
L 2906 525 
Q 2725 213 2448 61 
Q 2172 -91 1784 -91 
Q 1150 -91 751 415 
Q 353 922 353 1747 
Q 353 2572 751 3078 
Q 1150 3584 1784 3584 
Q 2172 3584 2448 3432 
Q 2725 3281 2906 2969 
z
M 947 1747 
Q 947 1113 1208 752 
Q 1469 391 1925 391 
Q 2381 391 2643 752 
Q 2906 1113 2906 1747 
Q 2906 2381 2643 2742 
Q 2381 3103 1925 3103 
Q 1469 3103 1208 2742 
Q 947 2381 947 1747 
z
" transform="scale(0.015625)"/>
      </defs>
      <use xlink:href="#DejaVuSans-54"/>
      <use xlink:href="#DejaVuSans-69" transform="translate(57.958984 0)"/>
      <use xlink:href="#DejaVuSans-6a" transform="translate(85.742188 0)"/>
      <use xlink:href="#DejaVuSans-64" transform="translate(113.525391 0)"/>
     </g>
    </g>
   </g>
   <g id="matplotlib.axis_2">
    <g id="ytick_1">
     <g id="line2d_7">
      <defs>
       <path id="md60a75df5a" d="M 0 0 
L -3.5 0 
" style="stroke: #000000; stroke-width: 0.8"/>
      </defs>
      <g>
       <use xlink:href="#md60a75df5a" x="63.47" y="224.615625" style="stroke: #000000; stroke-width: 0.8"/>
      </g>
     </g>
     <g id="text_8">
      <!-- 0 -->
      <g transform="translate(50.1075 228.414844) scale(0.1 -0.1)">
       <use xlink:href="#DejaVuSans-30"/>
      </g>
     </g>
    </g>
    <g id="ytick_2">
     <g id="line2d_8">
      <g>
       <use xlink:href="#md60a75df5a" x="63.47" y="176.307713" style="stroke: #000000; stroke-width: 0.8"/>
      </g>
     </g>
     <g id="text_9">
      <!-- 5000 -->
      <g transform="translate(31.02 180.106932) scale(0.1 -0.1)">
       <defs>
        <path id="DejaVuSans-35" d="M 691 4666 
L 3169 4666 
L 3169 4134 
L 1269 4134 
L 1269 2991 
Q 1406 3038 1543 3061 
Q 1681 3084 1819 3084 
Q 2600 3084 3056 2656 
Q 3513 2228 3513 1497 
Q 3513 744 3044 326 
Q 2575 -91 1722 -91 
Q 1428 -91 1123 -41 
Q 819 9 494 109 
L 494 744 
Q 775 591 1075 516 
Q 1375 441 1709 441 
Q 2250 441 2565 725 
Q 2881 1009 2881 1497 
Q 2881 1984 2565 2268 
Q 2250 2553 1709 2553 
Q 1456 2553 1204 2497 
Q 953 2441 691 2322 
L 691 4666 
z
" transform="scale(0.015625)"/>
       </defs>
       <use xlink:href="#DejaVuSans-35"/>
       <use xlink:href="#DejaVuSans-30" transform="translate(63.623047 0)"/>
       <use xlink:href="#DejaVuSans-30" transform="translate(127.246094 0)"/>
       <use xlink:href="#DejaVuSans-30" transform="translate(190.869141 0)"/>
      </g>
     </g>
    </g>
    <g id="ytick_3">
     <g id="line2d_9">
      <g>
       <use xlink:href="#md60a75df5a" x="63.47" y="127.9998" style="stroke: #000000; stroke-width: 0.8"/>
      </g>
     </g>
     <g id="text_10">
      <!-- 10000 -->
      <g transform="translate(24.6575 131.799019) scale(0.1 -0.1)">
       <use xlink:href="#DejaVuSans-31"/>
       <use xlink:href="#DejaVuSans-30" transform="translate(63.623047 0)"/>
       <use xlink:href="#DejaVuSans-30" transform="translate(127.246094 0)"/>
       <use xlink:href="#DejaVuSans-30" transform="translate(190.869141 0)"/>
       <use xlink:href="#DejaVuSans-30" transform="translate(254.492188 0)"/>
      </g>
     </g>
    </g>
    <g id="ytick_4">
     <g id="line2d_10">
      <g>
       <use xlink:href="#md60a75df5a" x="63.47" y="79.691888" style="stroke: #000000; stroke-width: 0.8"/>
      </g>
     </g>
     <g id="text_11">
      <!-- 15000 -->
      <g transform="translate(24.6575 83.491106) scale(0.1 -0.1)">
       <use xlink:href="#DejaVuSans-31"/>
       <use xlink:href="#DejaVuSans-35" transform="translate(63.623047 0)"/>
       <use xlink:href="#DejaVuSans-30" transform="translate(127.246094 0)"/>
       <use xlink:href="#DejaVuSans-30" transform="translate(190.869141 0)"/>
       <use xlink:href="#DejaVuSans-30" transform="translate(254.492188 0)"/>
      </g>
     </g>
    </g>
    <g id="ytick_5">
     <g id="line2d_11">
      <g>
       <use xlink:href="#md60a75df5a" x="63.47" y="31.383975" style="stroke: #000000; stroke-width: 0.8"/>
      </g>
     </g>
     <g id="text_12">
      <!-- 20000 -->
      <g transform="translate(24.6575 35.183194) scale(0.1 -0.1)">
       <use xlink:href="#DejaVuSans-32"/>
       <use xlink:href="#DejaVuSans-30" transform="translate(63.623047 0)"/>
       <use xlink:href="#DejaVuSans-30" transform="translate(127.246094 0)"/>
       <use xlink:href="#DejaVuSans-30" transform="translate(190.869141 0)"/>
       <use xlink:href="#DejaVuSans-30" transform="translate(254.492188 0)"/>
      </g>
     </g>
    </g>
    <g id="text_13">
     <!-- CO2 (PPM) -->
     <g transform="translate(18.577813 162.902969) rotate(-90) scale(0.1 -0.1)">
      <defs>
       <path id="DejaVuSans-43" d="M 4122 4306 
L 4122 3641 
Q 3803 3938 3442 4084 
Q 3081 4231 2675 4231 
Q 1875 4231 1450 3742 
Q 1025 3253 1025 2328 
Q 1025 1406 1450 917 
Q 1875 428 2675 428 
Q 3081 428 3442 575 
Q 3803 722 4122 1019 
L 4122 359 
Q 3791 134 3420 21 
Q 3050 -91 2638 -91 
Q 1578 -91 968 557 
Q 359 1206 359 2328 
Q 359 3453 968 4101 
Q 1578 4750 2638 4750 
Q 3056 4750 3426 4639 
Q 3797 4528 4122 4306 
z
" transform="scale(0.015625)"/>
       <path id="DejaVuSans-4f" d="M 2522 4238 
Q 1834 4238 1429 3725 
Q 1025 3213 1025 2328 
Q 1025 1447 1429 934 
Q 1834 422 2522 422 
Q 3209 422 3611 934 
Q 4013 1447 4013 2328 
Q 4013 3213 3611 3725 
Q 3209 4238 2522 4238 
z
M 2522 4750 
Q 3503 4750 4090 4092 
Q 4678 3434 4678 2328 
Q 4678 1225 4090 567 
Q 3503 -91 2522 -91 
Q 1538 -91 948 565 
Q 359 1222 359 2328 
Q 359 3434 948 4092 
Q 1538 4750 2522 4750 
z
" transform="scale(0.015625)"/>
       <path id="DejaVuSans-28" d="M 1984 4856 
Q 1566 4138 1362 3434 
Q 1159 2731 1159 2009 
Q 1159 1288 1364 580 
Q 1569 -128 1984 -844 
L 1484 -844 
Q 1016 -109 783 600 
Q 550 1309 550 2009 
Q 550 2706 781 3412 
Q 1013 4119 1484 4856 
L 1984 4856 
z
" transform="scale(0.015625)"/>
       <path id="DejaVuSans-50" d="M 1259 4147 
L 1259 2394 
L 2053 2394 
Q 2494 2394 2734 2622 
Q 2975 2850 2975 3272 
Q 2975 3691 2734 3919 
Q 2494 4147 2053 4147 
L 1259 4147 
z
M 628 4666 
L 2053 4666 
Q 2838 4666 3239 4311 
Q 3641 3956 3641 3272 
Q 3641 2581 3239 2228 
Q 2838 1875 2053 1875 
L 1259 1875 
L 1259 0 
L 628 0 
L 628 4666 
z
" transform="scale(0.015625)"/>
       <path id="DejaVuSans-4d" d="M 628 4666 
L 1569 4666 
L 2759 1491 
L 3956 4666 
L 4897 4666 
L 4897 0 
L 4281 0 
L 4281 4097 
L 3078 897 
L 2444 897 
L 1241 4097 
L 1241 0 
L 628 0 
L 628 4666 
z
" transform="scale(0.015625)"/>
       <path id="DejaVuSans-29" d="M 513 4856 
L 1013 4856 
Q 1481 4119 1714 3412 
Q 1947 2706 1947 2009 
Q 1947 1309 1714 600 
Q 1481 -109 1013 -844 
L 513 -844 
Q 928 -128 1133 580 
Q 1338 1288 1338 2009 
Q 1338 2731 1133 3434 
Q 928 4138 513 4856 
z
" transform="scale(0.015625)"/>
      </defs>
      <use xlink:href="#DejaVuSans-43"/>
      <use xlink:href="#DejaVuSans-4f" transform="translate(69.824219 0)"/>
      <use xlink:href="#DejaVuSans-32" transform="translate(148.535156 0)"/>
      <use xlink:href="#DejaVuSans-20" transform="translate(212.158203 0)"/>
      <use xlink:href="#DejaVuSans-28" transform="translate(243.945312 0)"/>
      <use xlink:href="#DejaVuSans-50" transform="translate(282.958984 0)"/>
      <use xlink:href="#DejaVuSans-50" transform="translate(343.261719 0)"/>
      <use xlink:href="#DejaVuSans-4d" transform="translate(403.564453 0)"/>
      <use xlink:href="#DejaVuSans-29" transform="translate(489.84375 0)"/>
     </g>
    </g>
   </g>
   <g id="line2d_12">
    <path d="M 92.821364 156.01839 
L 96.708961 146.598347 
L 100.596559 146.149083 
L 104.484157 168.385215 
L 108.371755 152.675482 
L 112.259353 165.998804 
L 116.146951 162.211464 
L 120.034548 165.109939 
L 123.922146 186.233379 
L 127.809744 177.711863 
L 131.697342 179.144998 
L 135.58494 188.139931 
L 139.472538 185.138399 
L 143.360135 180.552368 
L 147.247733 184.465309 
L 151.135331 188.043315 
L 155.022929 195.244415 
L 158.910527 189.318644 
L 162.798125 180.523383 
L 166.685722 178.346307 
L 170.57332 178.784298 
L 174.460918 178.85515 
L 178.348516 176.10804 
L 182.236114 179.824529 
L 186.123712 176.34958 
L 190.011309 181.264105 
L 193.898907 165.026205 
L 197.786505 173.48331 
L 201.674103 171.544553 
L 205.561701 174.240134 
L 209.449299 174.82305 
L 213.336896 165.219437 
L 217.224494 160.269486 
L 221.112092 156.313068 
L 224.99969 166.76529 
L 228.887288 165.327324 
L 232.774886 156.897594 
L 236.662483 156.350104 
L 240.550081 143.429347 
L 244.437679 156.549777 
L 248.325277 152.079684 
L 252.212875 161.370906 
L 256.100473 163.631717 
L 259.98807 148.743218 
L 263.875668 151.752801 
L 267.763266 160.147106 
L 271.650864 155.443525 
L 275.538462 135.484306 
L 279.42606 139.071974 
L 283.313657 148.137759 
L 287.201255 147.461448 
L 291.088853 131.212276 
L 294.976451 138.968917 
L 298.864049 143.310188 
L 302.751647 146.698183 
L 306.639244 153.757579 
L 310.526842 146.604788 
L 314.41444 134.733923 
L 318.302038 143.342393 
L 322.189636 161.444978 
L 326.077234 154.002339 
L 329.964831 154.507962 
L 333.852429 156.623849 
L 337.740027 157.358129 
L 341.627625 153.522481 
L 345.515223 149.300369 
L 349.402821 154.527285 
L 353.290418 161.409553 
L 357.178016 158.552945 
L 361.065614 149.313251 
L 364.953212 154.081242 
L 368.84081 141.174978 
L 372.728408 168.571201 
L 376.616005 158.884659 
L 380.503603 149.85752 
L 384.391201 134.270167 
L 388.278799 132.144619 
L 392.166397 149.651407 
L 396.053995 150.448487 
L 399.941592 146.218324 
L 403.82919 141.337615 
L 407.716788 88.537066 
L 411.604386 125.86137 
L 415.491984 139.278088 
L 419.379582 144.371352 
L 423.267179 155.135965 
L 427.154777 133.046367 
L 431.042375 133.967438 
L 434.929973 111.304586 
L 438.817571 140.94149 
L 442.705169 159.535206 
L 446.592766 141.458385 
L 450.480364 149.834977 
L 454.367962 127.236535 
L 458.25556 136.740312 
L 466.030756 124.94674 
L 469.918353 115.671621 
L 473.805951 125.594066 
L 477.693549 127.062627 
L 481.581147 124.618246 
L 485.468745 128.109298 
L 489.356343 127.347643 
L 493.24394 146.733609 
L 497.131538 146.633772 
L 501.019136 138.405325 
L 504.906734 124.672995 
L 508.794332 142.724052 
L 512.68193 167.000388 
L 516.569527 160.346779 
L 520.457125 165.683193 
L 524.344723 157.029635 
L 528.232321 154.965277 
L 532.119919 160.78477 
L 536.007517 163.686466 
L 539.895114 156.685039 
L 543.782712 159.636652 
L 547.67031 152.47903 
L 551.557908 148.044363 
L 555.445506 156.849286 
L 559.333104 141.36821 
L 567.108299 136.051119 
L 570.995897 73.588988 
L 574.883495 78.73217 
L 578.771093 75.179928 
L 582.658691 81.368172 
L 586.546288 64.900005 
L 590.433886 85.276282 
L 594.321484 103.224282 
L 598.209082 86.661109 
L 602.09668 111.530023 
L 605.984278 87.440477 
L 609.871875 117.954975 
L 613.759473 106.976197 
L 617.647071 86.445334 
L 625.422267 139.587258 
L 629.309865 125.706785 
L 633.197462 133.207393 
L 637.08506 124.164152 
L 640.972658 134.202536 
L 644.860256 106.602615 
L 648.747854 139.951178 
L 652.635452 133.986761 
L 656.523049 155.77685 
L 660.410647 148.197338 
L 664.298245 156.147211 
L 668.185843 157.590007 
L 672.073441 157.464406 
L 675.961039 172.887513 
L 679.848636 158.134276 
L 679.848636 158.134276 
" clip-path="url(#pb8be0cae67)" style="fill: none; stroke: #1f77b4; stroke-width: 2; stroke-linecap: square"/>
   </g>
   <g id="line2d_13">
    <path d="M 92.821364 174.220811 
L 96.708961 170.511914 
L 100.596559 169.334581 
L 104.484157 173.776608 
L 108.371755 168.854492 
L 112.259353 172.62435 
L 116.146951 172.794807 
L 120.034548 177.601445 
L 123.922146 180.385821 
L 127.809744 180.239517 
L 131.697342 178.132832 
L 135.58494 181.96687 
L 139.472538 175.816352 
L 143.360135 177.884851 
L 147.247733 175.213654 
L 151.135331 166.898712 
L 155.022929 174.244428 
L 158.910527 174.885313 
L 162.798125 169.268176 
L 166.685722 174.048835 
L 174.460918 161.971765 
L 178.348516 165.890457 
L 182.236114 163.373844 
L 186.123712 161.706991 
L 190.011309 168.28998 
L 193.898907 163.254915 
L 197.786505 160.508035 
L 201.674103 160.553352 
L 205.561701 161.33042 
L 209.449299 164.351044 
L 217.224494 165.291668 
L 221.112092 159.092843 
L 224.99969 162.487049 
L 228.887288 157.598058 
L 232.774886 159.778125 
L 236.662483 159.417656 
L 240.550081 156.982247 
L 244.437679 164.054756 
L 248.325277 161.799006 
L 252.212875 166.375069 
L 256.100473 166.673275 
L 259.98807 164.986408 
L 263.875668 162.790469 
L 267.763266 170.423579 
L 271.650864 163.756857 
L 275.538462 164.406023 
L 279.42606 162.511088 
L 283.313657 168.086396 
L 287.201255 158.933427 
L 291.088853 164.292845 
L 294.976451 158.041801 
L 298.864049 164.726466 
L 302.751647 167.083662 
L 306.639244 170.97613 
L 310.526842 169.718514 
L 314.41444 169.186206 
L 318.302038 169.079009 
L 322.189636 169.417624 
L 326.077234 170.871462 
L 329.964831 162.280015 
L 333.852429 159.419727 
L 337.740027 149.12048 
L 341.627625 145.926176 
L 345.515223 148.934609 
L 349.402821 153.693169 
L 353.290418 143.033223 
L 357.178016 145.94941 
L 361.065614 142.288131 
L 364.953212 138.901746 
L 368.84081 138.8026 
L 372.728408 141.791134 
L 376.616005 132.654843 
L 380.503603 134.727942 
L 384.391201 134.125244 
L 388.278799 127.270351 
L 392.166397 131.202155 
L 396.053995 137.015667 
L 399.941592 134.693897 
L 403.82919 140.624498 
L 407.716788 134.442005 
L 411.604386 137.080998 
L 415.491984 141.959637 
L 419.379582 142.698058 
L 423.267179 155.225066 
L 431.042375 152.837428 
L 434.929973 146.820103 
L 438.817571 154.414107 
L 442.705169 160.736922 
L 446.592766 159.796528 
L 450.480364 156.771073 
L 454.367962 155.83988 
L 458.25556 148.698361 
L 462.143158 161.714966 
L 466.030756 157.112679 
L 469.918353 154.746511 
L 473.805951 162.492723 
L 477.693549 158.132666 
L 485.468745 169.109834 
L 489.356343 165.585427 
L 493.24394 168.115611 
L 497.131538 163.606412 
L 501.019136 163.188204 
L 504.906734 158.601253 
L 508.794332 161.194697 
L 512.68193 164.722555 
L 516.569527 156.180336 
L 520.457125 150.450097 
L 524.344723 147.012874 
L 528.232321 138.881963 
L 532.119919 133.423169 
L 536.007517 133.957776 
L 539.895114 129.741569 
L 543.782712 125.25062 
L 547.67031 121.185701 
L 551.557908 113.52767 
L 555.445506 116.306602 
L 559.333104 121.642939 
L 563.220701 115.589037 
L 567.108299 121.481913 
L 570.995897 114.426197 
L 574.883495 114.522123 
L 578.771093 109.234477 
L 582.658691 110.311973 
L 586.546288 104.193392 
L 590.433886 110.548912 
L 594.321484 123.311632 
L 598.209082 126.054141 
L 602.09668 135.68812 
L 605.984278 127.221583 
L 609.871875 135.798078 
L 617.647071 134.860674 
L 621.534669 150.575698 
L 625.422267 150.904192 
L 629.309865 148.608876 
L 633.197462 152.251177 
L 640.972658 157.097496 
L 644.860256 155.029688 
L 648.747854 166.428745 
L 652.635452 162.233778 
L 656.523049 161.139028 
L 660.410647 163.304162 
L 664.298245 165.828116 
L 668.185843 158.73732 
L 672.073441 164.97414 
L 675.961039 166.497986 
L 679.848636 163.673583 
L 679.848636 163.673583 
" clip-path="url(#pb8be0cae67)" style="fill: none; stroke-dasharray: 5.55,2.4; stroke-dashoffset: 0; stroke: #808080; stroke-width: 1.5"/>
   </g>
   <g id="patch_3">
    <path d="M 63.47 246.04 
L 63.47 26.88 
" style="fill: none; stroke: #000000; stroke-width: 0.8; stroke-linejoin: miter; stroke-linecap: square"/>
   </g>
   <g id="patch_4">
    <path d="M 709.2 246.04 
L 709.2 26.88 
" style="fill: none; stroke: #000000; stroke-width: 0.8; stroke-linejoin: miter; stroke-linecap: square"/>
   </g>
   <g id="patch_5">
    <path d="M 63.47 246.04 
L 709.2 246.04 
" style="fill: none; stroke: #000000; stroke-width: 0.8; stroke-linejoin: miter; stroke-linecap: square"/>
   </g>
   <g id="patch_6">
    <path d="M 63.47 26.88 
L 709.2 26.88 
" style="fill: none; stroke: #000000; stroke-width: 0.8; stroke-linejoin: miter; stroke-linecap: square"/>
   </g>
   <g id="text_14">
    <!-- CO2 - v001/c00002/d001 -->
    <g transform="translate(310.931875 20.88) scale(0.12 -0.12)">
     <defs>
      <path id="DejaVuSans-76" d="M 191 3500 
L 800 3500 
L 1894 563 
L 2988 3500 
L 3597 3500 
L 2284 0 
L 1503 0 
L 191 3500 
z
" transform="scale(0.015625)"/>
      <path id="DejaVuSans-2f" d="M 1625 4666 
L 2156 4666 
L 531 -594 
L 0 -594 
L 1625 4666 
z
" transform="scale(0.015625)"/>
      <path id="DejaVuSans-63" d="M 3122 3366 
L 3122 2828 
Q 2878 2963 2633 3030 
Q 2388 3097 2138 3097 
Q 1578 3097 1268 2742 
Q 959 2388 959 1747 
Q 959 1106 1268 751 
Q 1578 397 2138 397 
Q 2388 397 2633 464 
Q 2878 531 3122 666 
L 3122 134 
Q 2881 22 2623 -34 
Q 2366 -91 2075 -91 
Q 1284 -91 818 406 
Q 353 903 353 1747 
Q 353 2603 823 3093 
Q 1294 3584 2113 3584 
Q 2378 3584 2631 3529 
Q 2884 3475 3122 3366 
z
" transform="scale(0.015625)"/>
     </defs>
     <use xlink:href="#DejaVuSans-43"/>
     <use xlink:href="#DejaVuSans-4f" transform="translate(69.824219 0)"/>
     <use xlink:href="#DejaVuSans-32" transform="translate(148.535156 0)"/>
     <use xlink:href="#DejaVuSans-20" transform="translate(212.158203 0)"/>
     <use xlink:href="#DejaVuSans-2d" transform="translate(243.945312 0)"/>
     <use xlink:href="#DejaVuSans-20" transform="translate(280.029297 0)"/>
     <use xlink:href="#DejaVuSans-76" transform="translate(311.816406 0)"/>
     <use xlink:href="#DejaVuSans-30" transform="translate(370.996094 0)"/>
     <use xlink:href="#DejaVuSans-30" transform="translate(434.619141 0)"/>
     <use xlink:href="#DejaVuSans-31" transform="translate(498.242188 0)"/>
     <use xlink:href="#DejaVuSans-2f" transform="translate(561.865234 0)"/>
     <use xlink:href="#DejaVuSans-63" transform="translate(595.556641 0)"/>
     <use xlink:href="#DejaVuSans-30" transform="translate(650.537109 0)"/>
     <use xlink:href="#DejaVuSans-30" transform="translate(714.160156 0)"/>
     <use xlink:href="#DejaVuSans-30" transform="translate(777.783203 0)"/>
     <use xlink:href="#DejaVuSans-30" transform="translate(841.40625 0)"/>
     <use xlink:href="#DejaVuSans-32" transform="translate(905.029297 0)"/>
     <use xlink:href="#DejaVuSans-2f" transform="translate(968.652344 0)"/>
     <use xlink:href="#DejaVuSans-64" transform="translate(1002.34375 0)"/>
     <use xlink:href="#DejaVuSans-30" transform="translate(1065.820312 0)"/>
     <use xlink:href="#DejaVuSans-30" transform="translate(1129.443359 0)"/>
     <use xlink:href="#DejaVuSans-31" transform="translate(1193.066406 0)"/>
    </g>
   </g>
   <g id="legend_1">
    <g id="patch_7">
     <path d="M 70.47 78.914375 
L 221.41375 78.914375 
Q 223.41375 78.914375 223.41375 76.914375 
L 223.41375 33.88 
Q 223.41375 31.88 221.41375 31.88 
L 70.47 31.88 
Q 68.47 31.88 68.47 33.88 
L 68.47 76.914375 
Q 68.47 78.914375 70.47 78.914375 
z
" style="fill: #ffffff; opacity: 0.8; stroke: #cccccc; stroke-linejoin: miter"/>
    </g>
    <g id="line2d_14">
     <path d="M 72.47 39.978438 
L 82.47 39.978438 
L 92.47 39.978438 
" style="fill: none; stroke: #1f77b4; stroke-width: 2; stroke-linecap: square"/>
    </g>
    <g id="text_15">
     <!-- Hive -->
     <g transform="translate(100.47 43.478438) scale(0.1 -0.1)">
      <defs>
       <path id="DejaVuSans-48" d="M 628 4666 
L 1259 4666 
L 1259 2753 
L 3553 2753 
L 3553 4666 
L 4184 4666 
L 4184 0 
L 3553 0 
L 3553 2222 
L 1259 2222 
L 1259 0 
L 628 0 
L 628 4666 
z
" transform="scale(0.015625)"/>
       <path id="DejaVuSans-65" d="M 3597 1894 
L 3597 1613 
L 953 1613 
Q 991 1019 1311 708 
Q 1631 397 2203 397 
Q 2534 397 2845 478 
Q 3156 559 3463 722 
L 3463 178 
Q 3153 47 2828 -22 
Q 2503 -91 2169 -91 
Q 1331 -91 842 396 
Q 353 884 353 1716 
Q 353 2575 817 3079 
Q 1281 3584 2069 3584 
Q 2775 3584 3186 3129 
Q 3597 2675 3597 1894 
z
M 3022 2063 
Q 3016 2534 2758 2815 
Q 2500 3097 2075 3097 
Q 1594 3097 1305 2825 
Q 1016 2553 972 2059 
L 3022 2063 
z
" transform="scale(0.015625)"/>
      </defs>
      <use xlink:href="#DejaVuSans-48"/>
      <use xlink:href="#DejaVuSans-69" transform="translate(75.195312 0)"/>
      <use xlink:href="#DejaVuSans-76" transform="translate(102.978516 0)"/>
      <use xlink:href="#DejaVuSans-65" transform="translate(162.158203 0)"/>
     </g>
    </g>
    <g id="line2d_15">
     <path d="M 72.47 54.656563 
L 82.47 54.656563 
L 92.47 54.656563 
" style="fill: none; stroke-dasharray: 5.55,2.4; stroke-dashoffset: 0; stroke: #808080; stroke-width: 1.5"/>
    </g>
    <g id="text_16">
     <!-- Gemiddelde (alle hives) -->
     <g transform="translate(100.47 58.156563) scale(0.1 -0.1)">
      <defs>
       <path id="DejaVuSans-47" d="M 3809 666 
L 3809 1919 
L 2778 1919 
L 2778 2438 
L 4434 2438 
L 4434 434 
Q 4069 175 3628 42 
Q 3188 -91 2688 -91 
Q 1594 -91 976 548 
Q 359 1188 359 2328 
Q 359 3472 976 4111 
Q 1594 4750 2688 4750 
Q 3144 4750 3555 4637 
Q 3966 4525 4313 4306 
L 4313 3634 
Q 3963 3931 3569 4081 
Q 3175 4231 2741 4231 
Q 1884 4231 1454 3753 
Q 1025 3275 1025 2328 
Q 1025 1384 1454 906 
Q 1884 428 2741 428 
Q 3075 428 3337 486 
Q 3600 544 3809 666 
z
" transform="scale(0.015625)"/>
       <path id="DejaVuSans-6d" d="M 3328 2828 
Q 3544 3216 3844 3400 
Q 4144 3584 4550 3584 
Q 5097 3584 5394 3201 
Q 5691 2819 5691 2113 
L 5691 0 
L 5113 0 
L 5113 2094 
Q 5113 2597 4934 2840 
Q 4756 3084 4391 3084 
Q 3944 3084 3684 2787 
Q 3425 2491 3425 1978 
L 3425 0 
L 2847 0 
L 2847 2094 
Q 2847 2600 2669 2842 
Q 2491 3084 2119 3084 
Q 1678 3084 1418 2786 
Q 1159 2488 1159 1978 
L 1159 0 
L 581 0 
L 581 3500 
L 1159 3500 
L 1159 2956 
Q 1356 3278 1631 3431 
Q 1906 3584 2284 3584 
Q 2666 3584 2933 3390 
Q 3200 3197 3328 2828 
z
" transform="scale(0.015625)"/>
       <path id="DejaVuSans-6c" d="M 603 4863 
L 1178 4863 
L 1178 0 
L 603 0 
L 603 4863 
z
" transform="scale(0.015625)"/>
       <path id="DejaVuSans-61" d="M 2194 1759 
Q 1497 1759 1228 1600 
Q 959 1441 959 1056 
Q 959 750 1161 570 
Q 1363 391 1709 391 
Q 2188 391 2477 730 
Q 2766 1069 2766 1631 
L 2766 1759 
L 2194 1759 
z
M 3341 1997 
L 3341 0 
L 2766 0 
L 2766 531 
Q 2569 213 2275 61 
Q 1981 -91 1556 -91 
Q 1019 -91 701 211 
Q 384 513 384 1019 
Q 384 1609 779 1909 
Q 1175 2209 1959 2209 
L 2766 2209 
L 2766 2266 
Q 2766 2663 2505 2880 
Q 2244 3097 1772 3097 
Q 1472 3097 1187 3025 
Q 903 2953 641 2809 
L 641 3341 
Q 956 3463 1253 3523 
Q 1550 3584 1831 3584 
Q 2591 3584 2966 3190 
Q 3341 2797 3341 1997 
z
" transform="scale(0.015625)"/>
       <path id="DejaVuSans-68" d="M 3513 2113 
L 3513 0 
L 2938 0 
L 2938 2094 
Q 2938 2591 2744 2837 
Q 2550 3084 2163 3084 
Q 1697 3084 1428 2787 
Q 1159 2491 1159 1978 
L 1159 0 
L 581 0 
L 581 4863 
L 1159 4863 
L 1159 2956 
Q 1366 3272 1645 3428 
Q 1925 3584 2291 3584 
Q 2894 3584 3203 3211 
Q 3513 2838 3513 2113 
z
" transform="scale(0.015625)"/>
       <path id="DejaVuSans-73" d="M 2834 3397 
L 2834 2853 
Q 2591 2978 2328 3040 
Q 2066 3103 1784 3103 
Q 1356 3103 1142 2972 
Q 928 2841 928 2578 
Q 928 2378 1081 2264 
Q 1234 2150 1697 2047 
L 1894 2003 
Q 2506 1872 2764 1633 
Q 3022 1394 3022 966 
Q 3022 478 2636 193 
Q 2250 -91 1575 -91 
Q 1294 -91 989 -36 
Q 684 19 347 128 
L 347 722 
Q 666 556 975 473 
Q 1284 391 1588 391 
Q 1994 391 2212 530 
Q 2431 669 2431 922 
Q 2431 1156 2273 1281 
Q 2116 1406 1581 1522 
L 1381 1569 
Q 847 1681 609 1914 
Q 372 2147 372 2553 
Q 372 3047 722 3315 
Q 1072 3584 1716 3584 
Q 2034 3584 2315 3537 
Q 2597 3491 2834 3397 
z
" transform="scale(0.015625)"/>
      </defs>
      <use xlink:href="#DejaVuSans-47"/>
      <use xlink:href="#DejaVuSans-65" transform="translate(77.490234 0)"/>
      <use xlink:href="#DejaVuSans-6d" transform="translate(139.013672 0)"/>
      <use xlink:href="#DejaVuSans-69" transform="translate(236.425781 0)"/>
      <use xlink:href="#DejaVuSans-64" transform="translate(264.208984 0)"/>
      <use xlink:href="#DejaVuSans-64" transform="translate(327.685547 0)"/>
      <use xlink:href="#DejaVuSans-65" transform="translate(391.162109 0)"/>
      <use xlink:href="#DejaVuSans-6c" transform="translate(452.685547 0)"/>
      <use xlink:href="#DejaVuSans-64" transform="translate(480.46875 0)"/>
      <use xlink:href="#DejaVuSans-65" transform="translate(543.945312 0)"/>
      <use xlink:href="#DejaVuSans-20" transform="translate(605.46875 0)"/>
      <use xlink:href="#DejaVuSans-28" transform="translate(637.255859 0)"/>
      <use xlink:href="#DejaVuSans-61" transform="translate(676.269531 0)"/>
      <use xlink:href="#DejaVuSans-6c" transform="translate(737.548828 0)"/>
      <use xlink:href="#DejaVuSans-6c" transform="translate(765.332031 0)"/>
      <use xlink:href="#DejaVuSans-65" transform="translate(793.115234 0)"/>
      <use xlink:href="#DejaVuSans-20" transform="translate(854.638672 0)"/>
      <use xlink:href="#DejaVuSans-68" transform="translate(886.425781 0)"/>
      <use xlink:href="#DejaVuSans-69" transform="translate(949.804688 0)"/>
      <use xlink:href="#DejaVuSans-76" transform="translate(977.587891 0)"/>
      <use xlink:href="#DejaVuSans-65" transform="translate(1036.767578 0)"/>
      <use xlink:href="#DejaVuSans-73" transform="translate(1098.291016 0)"/>
      <use xlink:href="#DejaVuSans-29" transform="translate(1150.390625 0)"/>
     </g>
    </g>
    <g id="patch_8">
     <path d="M 72.47 72.834688 
L 92.47 72.834688 
L 92.47 65.834688 
L 72.47 65.834688 
z
" style="fill: #808080; fill-opacity: 0.2; stroke: #808080; stroke-opacity: 0.2; stroke-linejoin: miter"/>
    </g>
    <g id="text_17">
     <!-- ±2 Std Dev -->
     <g transform="translate(100.47 72.834688) scale(0.1 -0.1)">
      <defs>
       <path id="DejaVuSans-b1" d="M 2944 4013 
L 2944 2803 
L 4684 2803 
L 4684 2272 
L 2944 2272 
L 2944 1063 
L 2419 1063 
L 2419 2272 
L 678 2272 
L 678 2803 
L 2419 2803 
L 2419 4013 
L 2944 4013 
z
M 678 531 
L 4684 531 
L 4684 0 
L 678 0 
L 678 531 
z
" transform="scale(0.015625)"/>
       <path id="DejaVuSans-53" d="M 3425 4513 
L 3425 3897 
Q 3066 4069 2747 4153 
Q 2428 4238 2131 4238 
Q 1616 4238 1336 4038 
Q 1056 3838 1056 3469 
Q 1056 3159 1242 3001 
Q 1428 2844 1947 2747 
L 2328 2669 
Q 3034 2534 3370 2195 
Q 3706 1856 3706 1288 
Q 3706 609 3251 259 
Q 2797 -91 1919 -91 
Q 1588 -91 1214 -16 
Q 841 59 441 206 
L 441 856 
Q 825 641 1194 531 
Q 1563 422 1919 422 
Q 2459 422 2753 634 
Q 3047 847 3047 1241 
Q 3047 1584 2836 1778 
Q 2625 1972 2144 2069 
L 1759 2144 
Q 1053 2284 737 2584 
Q 422 2884 422 3419 
Q 422 4038 858 4394 
Q 1294 4750 2059 4750 
Q 2388 4750 2728 4690 
Q 3069 4631 3425 4513 
z
" transform="scale(0.015625)"/>
       <path id="DejaVuSans-74" d="M 1172 4494 
L 1172 3500 
L 2356 3500 
L 2356 3053 
L 1172 3053 
L 1172 1153 
Q 1172 725 1289 603 
Q 1406 481 1766 481 
L 2356 481 
L 2356 0 
L 1766 0 
Q 1100 0 847 248 
Q 594 497 594 1153 
L 594 3053 
L 172 3053 
L 172 3500 
L 594 3500 
L 594 4494 
L 1172 4494 
z
" transform="scale(0.015625)"/>
       <path id="DejaVuSans-44" d="M 1259 4147 
L 1259 519 
L 2022 519 
Q 2988 519 3436 956 
Q 3884 1394 3884 2338 
Q 3884 3275 3436 3711 
Q 2988 4147 2022 4147 
L 1259 4147 
z
M 628 4666 
L 1925 4666 
Q 3281 4666 3915 4102 
Q 4550 3538 4550 2338 
Q 4550 1131 3912 565 
Q 3275 0 1925 0 
L 628 0 
L 628 4666 
z
" transform="scale(0.015625)"/>
      </defs>
      <use xlink:href="#DejaVuSans-b1"/>
      <use xlink:href="#DejaVuSans-32" transform="translate(83.789062 0)"/>
      <use xlink:href="#DejaVuSans-20" transform="translate(147.412109 0)"/>
      <use xlink:href="#DejaVuSans-53" transform="translate(179.199219 0)"/>
      <use xlink:href="#DejaVuSans-74" transform="translate(242.675781 0)"/>
      <use xlink:href="#DejaVuSans-64" transform="translate(281.884766 0)"/>
      <use xlink:href="#DejaVuSans-20" transform="translate(345.361328 0)"/>
      <use xlink:href="#DejaVuSans-44" transform="translate(377.148438 0)"/>
      <use xlink:href="#DejaVuSans-65" transform="translate(454.150391 0)"/>
      <use xlink:href="#DejaVuSans-76" transform="translate(515.673828 0)"/>
     </g>
    </g>
   </g>
  </g>
 </g>
 <defs>
  <clipPath id="pb8be0cae67">
   <rect x="63.47" y="26.88" width="645.73" height="219.16"/>
  </clipPath>
 </defs>
</svg>
