<?xml version="1.0" encoding="utf-8" standalone="no"?>
<!DOCTYPE svg PUBLIC "-//W3C//DTD SVG 1.1//EN"
  "http://www.w3.org/Graphics/SVG/1.1/DTD/svg11.dtd">
<svg xmlns:xlink="http://www.w3.org/1999/xlink" width="720pt" height="288pt" viewBox="0 0 720 288" xmlns="http://www.w3.org/2000/svg" version="1.1">
 <metadata>
  <rdf:RDF xmlns:dc="http://purl.org/dc/elements/1.1/" xmlns:cc="http://creativecommons.org/ns#" xmlns:rdf="http://www.w3.org/1999/02/22-rdf-syntax-ns#">
   <cc:Work>
    <dc:type rdf:resource="http://purl.org/dc/dcmitype/StillImage"/>
    <dc:date>2025-06-05T09:18:00.524982</dc:date>
    <dc:format>image/svg+xml</dc:format>
    <dc:creator>
     <cc:Agent>
      <dc:title>Matplotlib v3.10.3, https://matplotlib.org/</dc:title>
     </cc:Agent>
    </dc:creator>
   </cc:Work>
  </rdf:RDF>
 </metadata>
 <defs>
  <style type="text/css">*{stroke-linejoin: round; stroke-linecap: butt}</style>
 </defs>
 <g id="figure_1">
  <g id="patch_1">
   <path d="M 0 288 
L 720 288 
L 720 0 
L 0 0 
z
" style="fill: #ffffff"/>
  </g>
  <g id="axes_1">
   <g id="patch_2">
    <path d="M 63.47 246.04 
L 709.2 246.04 
L 709.2 26.88 
L 63.47 26.88 
z
" style="fill: #ffffff"/>
   </g>
   <g id="FillBetweenPolyCollection_1">
    <defs>
     <path id="m5f7b93535a" d="M 92.821364 -176.089701 
L 92.821364 -107.351483 
L 96.422758 -98.344468 
L 100.024152 -95.872646 
L 103.625547 -87.299815 
L 107.226941 -86.033863 
L 110.828335 -82.34088 
L 114.42973 -72.299357 
L 118.031124 -85.899776 
L 121.632518 -79.968365 
L 125.233912 -79.943595 
L 128.835307 -79.550344 
L 132.436701 -73.458794 
L 136.038095 -58.830074 
L 139.63949 -74.750339 
L 143.240884 -71.966677 
L 146.842278 -75.852925 
L 150.443673 -65.052078 
L 154.045067 -62.846663 
L 157.646461 -64.970479 
L 161.247856 -51.921818 
L 164.84925 -70.593237 
L 168.450644 -70.582088 
L 172.052038 -57.300939 
L 175.653433 -60.800198 
L 179.254827 -62.443174 
L 182.856221 -64.379811 
L 186.457616 -58.838866 
L 190.05901 -63.105508 
L 193.660404 -71.505496 
L 197.261799 -81.553352 
L 200.863193 -81.762416 
L 204.464587 -81.310068 
L 208.065982 -67.754689 
L 211.667376 -79.455165 
L 215.26877 -91.753925 
L 218.870165 -95.891229 
L 222.471559 -87.721656 
L 226.072953 -99.957227 
L 229.674347 -108.233173 
L 233.275742 -101.362821 
L 236.877136 -101.34164 
L 240.47853 -92.684099 
L 244.079925 -86.696751 
L 247.681319 -100.947324 
L 251.282713 -104.306413 
L 254.884108 -113.845341 
L 258.485502 -131.186227 
L 262.086896 -120.507202 
L 265.688291 -109.723195 
L 269.289685 -109.597967 
L 272.891079 -107.745727 
L 276.492474 -115.175703 
L 280.093868 -97.99349 
L 283.695262 -84.719237 
L 287.296656 -97.469103 
L 290.898051 -100.290205 
L 294.499445 -94.214476 
L 298.100839 -89.571259 
L 301.702234 -83.486644 
L 305.303628 -77.730048 
L 308.905022 -69.70267 
L 312.506417 -67.267405 
L 316.107811 -80.992515 
L 319.709205 -90.598835 
L 323.3106 -75.983165 
L 326.911994 -76.989619 
L 330.513388 -76.767609 
L 334.114782 -55.368892 
L 337.716177 -73.650644 
L 341.317571 -72.336414 
L 344.918965 -78.467911 
L 348.52036 -69.714315 
L 352.121754 -54.864852 
L 355.723148 -77.679636 
L 359.324543 -73.711738 
L 362.925937 -75.380997 
L 366.527331 -82.885993 
L 370.128726 -88.649002 
L 373.73012 -92.971859 
L 377.331514 -97.341848 
L 380.932909 -101.966988 
L 384.534303 -107.5991 
L 388.135697 -99.992261 
L 391.737091 -86.61186 
L 395.338486 -88.7473 
L 398.93988 -89.165327 
L 402.541274 -97.981181 
L 406.142669 -104.417542 
L 409.744063 -93.756865 
L 413.345457 -121.214281 
L 416.946852 -83.097206 
L 420.548246 -125.609808 
L 424.14964 -116.553181 
L 427.751035 -73.639566 
L 431.352429 -80.611548 
L 434.953823 -96.494334 
L 438.555218 -104.163461 
L 442.156612 -96.762625 
L 445.758006 -98.506747 
L 449.3594 -88.871881 
L 452.960795 -87.736965 
L 456.562189 -84.37094 
L 460.163583 -83.410639 
L 463.764978 -80.396645 
L 467.366372 -87.65524 
L 470.967766 -86.999546 
L 474.569161 -90.883051 
L 478.170555 -78.707996 
L 481.771949 -88.173624 
L 485.373344 -90.936356 
L 488.974738 -76.536884 
L 492.576132 -78.618644 
L 496.177526 -85.468492 
L 499.778921 -81.077851 
L 503.380315 -62.779902 
L 506.981709 -70.690289 
L 510.583104 -59.91626 
L 514.184498 -72.517639 
L 517.785892 -69.59574 
L 521.387287 -73.491682 
L 524.988681 -62.423665 
L 528.590075 -71.422124 
L 532.19147 -73.569285 
L 535.792864 -72.94565 
L 539.394258 -81.121514 
L 542.995653 -91.633745 
L 546.597047 -111.877296 
L 550.198441 -120.332481 
L 553.799835 -115.173243 
L 557.40123 -111.948994 
L 561.002624 -97.836536 
L 564.604018 -107.01915 
L 568.205413 -100.261692 
L 571.806807 -91.519028 
L 575.408201 -103.041882 
L 579.009596 -118.526119 
L 582.61099 -114.259641 
L 586.212384 -115.404127 
L 589.813779 -104.54497 
L 593.415173 -98.115545 
L 597.016567 -128.70348 
L 600.617962 -123.183438 
L 604.219356 -120.628639 
L 607.82075 -112.153329 
L 611.422144 -104.64444 
L 615.023539 -97.308613 
L 618.624933 -102.090306 
L 622.226327 -92.867733 
L 625.827722 -115.957116 
L 629.429116 -90.500576 
L 633.03051 -92.696945 
L 636.631905 -88.745619 
L 640.233299 -80.08241 
L 643.834693 -78.503665 
L 647.436088 -115.136432 
L 651.037482 -79.124724 
L 654.638876 -130.130649 
L 654.638876 -141.781627 
L 654.638876 -141.781627 
L 651.037482 -184.935298 
L 647.436088 -144.139632 
L 643.834693 -166.947657 
L 640.233299 -156.554892 
L 636.631905 -157.342901 
L 633.03051 -148.571038 
L 629.429116 -165.318119 
L 625.827722 -142.424295 
L 622.226327 -169.52991 
L 618.624933 -150.145512 
L 615.023539 -161.628345 
L 611.422144 -158.779994 
L 607.82075 -158.368659 
L 604.219356 -164.993529 
L 600.617962 -165.298401 
L 597.016567 -157.861177 
L 593.415173 -183.86194 
L 589.813779 -199.055994 
L 586.212384 -169.340911 
L 582.61099 -161.352731 
L 579.009596 -165.562019 
L 575.408201 -172.711627 
L 571.806807 -175.820286 
L 568.205413 -170.079139 
L 564.604018 -152.375159 
L 561.002624 -154.697657 
L 557.40123 -147.442 
L 553.799835 -148.759693 
L 550.198441 -148.907123 
L 546.597047 -162.72644 
L 542.995653 -152.344169 
L 539.394258 -159.309043 
L 535.792864 -166.296141 
L 532.19147 -146.175782 
L 528.590075 -149.981534 
L 524.988681 -157.961727 
L 521.387287 -148.6205 
L 517.785892 -150.451492 
L 514.184498 -152.295554 
L 510.583104 -172.29523 
L 506.981709 -168.928971 
L 503.380315 -174.617169 
L 499.778921 -167.24214 
L 496.177526 -161.241534 
L 492.576132 -157.061109 
L 488.974738 -151.66169 
L 485.373344 -145.555168 
L 481.771949 -137.542905 
L 478.170555 -150.561415 
L 474.569161 -155.58701 
L 470.967766 -162.120376 
L 467.366372 -155.106437 
L 463.764978 -161.873423 
L 460.163583 -164.48168 
L 456.562189 -154.91395 
L 452.960795 -153.59393 
L 449.3594 -158.556298 
L 445.758006 -170.641292 
L 442.156612 -176.269666 
L 438.555218 -143.720334 
L 434.953823 -158.698245 
L 431.352429 -162.669588 
L 427.751035 -183.915312 
L 424.14964 -146.016067 
L 420.548246 -163.140806 
L 416.946852 -206.43692 
L 413.345457 -164.882447 
L 409.744063 -155.925708 
L 406.142669 -146.455692 
L 402.541274 -139.817039 
L 398.93988 -160.589236 
L 395.338486 -151.749564 
L 391.737091 -155.194542 
L 388.135697 -139.521383 
L 384.534303 -142.685908 
L 380.932909 -159.616515 
L 377.331514 -157.550303 
L 373.73012 -148.6271 
L 370.128726 -134.655262 
L 366.527331 -135.76503 
L 362.925937 -135.100214 
L 359.324543 -137.573667 
L 355.723148 -133.007123 
L 352.121754 -164.144222 
L 348.52036 -135.15838 
L 344.918965 -122.689769 
L 341.317571 -150.896334 
L 337.716177 -137.311758 
L 334.114782 -165.747757 
L 330.513388 -156.030687 
L 326.911994 -142.867221 
L 323.3106 -148.954825 
L 319.709205 -143.76096 
L 316.107811 -152.056796 
L 312.506417 -157.145112 
L 308.905022 -178.178756 
L 305.303628 -165.894077 
L 301.702234 -165.058787 
L 298.100839 -164.030693 
L 294.499445 -166.886417 
L 290.898051 -156.084984 
L 287.296656 -159.582404 
L 283.695262 -204.687093 
L 280.093868 -190.387944 
L 276.492474 -172.300657 
L 272.891079 -197.38832 
L 269.289685 -178.10478 
L 265.688291 -197.814434 
L 262.086896 -192.676833 
L 258.485502 -208.274291 
L 254.884108 -238.700216 
L 251.282713 -235.641925 
L 247.681319 -241.219415 
L 244.079925 -244.583535 
L 240.47853 -238.793684 
L 236.877136 -215.609507 
L 233.275742 -227.720852 
L 229.674347 -208.386445 
L 226.072953 -227.649091 
L 222.471559 -245.606057 
L 218.870165 -221.669772 
L 215.26877 -217.438032 
L 211.667376 -220.490617 
L 208.065982 -223.510569 
L 204.464587 -211.055865 
L 200.863193 -199.364698 
L 197.261799 -182.833462 
L 193.660404 -185.804603 
L 190.05901 -182.40691 
L 186.457616 -169.086433 
L 182.856221 -170.808806 
L 179.254827 -178.084947 
L 175.653433 -170.284095 
L 172.052038 -172.922327 
L 168.450644 -150.35743 
L 164.84925 -155.555542 
L 161.247856 -166.970747 
L 157.646461 -165.318145 
L 154.045067 -178.646208 
L 150.443673 -167.464103 
L 146.842278 -172.611518 
L 143.240884 -171.62619 
L 139.63949 -159.367125 
L 136.038095 -202.086583 
L 132.436701 -172.75457 
L 128.835307 -164.745837 
L 125.233912 -158.123638 
L 121.632518 -156.162741 
L 118.031124 -163.249036 
L 114.42973 -192.484344 
L 110.828335 -170.054072 
L 107.226941 -163.879833 
L 103.625547 -160.179357 
L 100.024152 -177.397713 
L 96.422758 -176.446187 
L 92.821364 -176.089701 
z
" style="stroke: #808080; stroke-opacity: 0.2"/>
    </defs>
    <g clip-path="url(#p0ab4d62076)">
     <use xlink:href="#m5f7b93535a" x="0" y="288" style="fill: #808080; fill-opacity: 0.2; stroke: #808080; stroke-opacity: 0.2"/>
    </g>
   </g>
   <g id="matplotlib.axis_1">
    <g id="xtick_1">
     <g id="line2d_1">
      <defs>
       <path id="md27324eee7" d="M 0 0 
L 0 3.5 
" style="stroke: #000000; stroke-width: 0.8"/>
      </defs>
      <g>
       <use xlink:href="#md27324eee7" x="114.42973" y="246.04" style="stroke: #000000; stroke-width: 0.8"/>
      </g>
     </g>
     <g id="text_1">
      <!-- 06-02 12 -->
      <g transform="translate(91.949261 260.638438) scale(0.1 -0.1)">
       <defs>
        <path id="DejaVuSans-30" d="M 2034 4250 
Q 1547 4250 1301 3770 
Q 1056 3291 1056 2328 
Q 1056 1369 1301 889 
Q 1547 409 2034 409 
Q 2525 409 2770 889 
Q 3016 1369 3016 2328 
Q 3016 3291 2770 3770 
Q 2525 4250 2034 4250 
z
M 2034 4750 
Q 2819 4750 3233 4129 
Q 3647 3509 3647 2328 
Q 3647 1150 3233 529 
Q 2819 -91 2034 -91 
Q 1250 -91 836 529 
Q 422 1150 422 2328 
Q 422 3509 836 4129 
Q 1250 4750 2034 4750 
z
" transform="scale(0.015625)"/>
        <path id="DejaVuSans-36" d="M 2113 2584 
Q 1688 2584 1439 2293 
Q 1191 2003 1191 1497 
Q 1191 994 1439 701 
Q 1688 409 2113 409 
Q 2538 409 2786 701 
Q 3034 994 3034 1497 
Q 3034 2003 2786 2293 
Q 2538 2584 2113 2584 
z
M 3366 4563 
L 3366 3988 
Q 3128 4100 2886 4159 
Q 2644 4219 2406 4219 
Q 1781 4219 1451 3797 
Q 1122 3375 1075 2522 
Q 1259 2794 1537 2939 
Q 1816 3084 2150 3084 
Q 2853 3084 3261 2657 
Q 3669 2231 3669 1497 
Q 3669 778 3244 343 
Q 2819 -91 2113 -91 
Q 1303 -91 875 529 
Q 447 1150 447 2328 
Q 447 3434 972 4092 
Q 1497 4750 2381 4750 
Q 2619 4750 2861 4703 
Q 3103 4656 3366 4563 
z
" transform="scale(0.015625)"/>
        <path id="DejaVuSans-2d" d="M 313 2009 
L 1997 2009 
L 1997 1497 
L 313 1497 
L 313 2009 
z
" transform="scale(0.015625)"/>
        <path id="DejaVuSans-32" d="M 1228 531 
L 3431 531 
L 3431 0 
L 469 0 
L 469 531 
Q 828 903 1448 1529 
Q 2069 2156 2228 2338 
Q 2531 2678 2651 2914 
Q 2772 3150 2772 3378 
Q 2772 3750 2511 3984 
Q 2250 4219 1831 4219 
Q 1534 4219 1204 4116 
Q 875 4013 500 3803 
L 500 4441 
Q 881 4594 1212 4672 
Q 1544 4750 1819 4750 
Q 2544 4750 2975 4387 
Q 3406 4025 3406 3419 
Q 3406 3131 3298 2873 
Q 3191 2616 2906 2266 
Q 2828 2175 2409 1742 
Q 1991 1309 1228 531 
z
" transform="scale(0.015625)"/>
        <path id="DejaVuSans-20" transform="scale(0.015625)"/>
        <path id="DejaVuSans-31" d="M 794 531 
L 1825 531 
L 1825 4091 
L 703 3866 
L 703 4441 
L 1819 4666 
L 2450 4666 
L 2450 531 
L 3481 531 
L 3481 0 
L 794 0 
L 794 531 
z
" transform="scale(0.015625)"/>
       </defs>
       <use xlink:href="#DejaVuSans-30"/>
       <use xlink:href="#DejaVuSans-36" transform="translate(63.623047 0)"/>
       <use xlink:href="#DejaVuSans-2d" transform="translate(127.246094 0)"/>
       <use xlink:href="#DejaVuSans-30" transform="translate(163.330078 0)"/>
       <use xlink:href="#DejaVuSans-32" transform="translate(226.953125 0)"/>
       <use xlink:href="#DejaVuSans-20" transform="translate(290.576172 0)"/>
       <use xlink:href="#DejaVuSans-31" transform="translate(322.363281 0)"/>
       <use xlink:href="#DejaVuSans-32" transform="translate(385.986328 0)"/>
      </g>
     </g>
    </g>
    <g id="xtick_2">
     <g id="line2d_2">
      <g>
       <use xlink:href="#md27324eee7" x="200.863193" y="246.04" style="stroke: #000000; stroke-width: 0.8"/>
      </g>
     </g>
     <g id="text_2">
      <!-- 06-03 00 -->
      <g transform="translate(178.382724 260.638438) scale(0.1 -0.1)">
       <defs>
        <path id="DejaVuSans-33" d="M 2597 2516 
Q 3050 2419 3304 2112 
Q 3559 1806 3559 1356 
Q 3559 666 3084 287 
Q 2609 -91 1734 -91 
Q 1441 -91 1130 -33 
Q 819 25 488 141 
L 488 750 
Q 750 597 1062 519 
Q 1375 441 1716 441 
Q 2309 441 2620 675 
Q 2931 909 2931 1356 
Q 2931 1769 2642 2001 
Q 2353 2234 1838 2234 
L 1294 2234 
L 1294 2753 
L 1863 2753 
Q 2328 2753 2575 2939 
Q 2822 3125 2822 3475 
Q 2822 3834 2567 4026 
Q 2313 4219 1838 4219 
Q 1578 4219 1281 4162 
Q 984 4106 628 3988 
L 628 4550 
Q 988 4650 1302 4700 
Q 1616 4750 1894 4750 
Q 2613 4750 3031 4423 
Q 3450 4097 3450 3541 
Q 3450 3153 3228 2886 
Q 3006 2619 2597 2516 
z
" transform="scale(0.015625)"/>
       </defs>
       <use xlink:href="#DejaVuSans-30"/>
       <use xlink:href="#DejaVuSans-36" transform="translate(63.623047 0)"/>
       <use xlink:href="#DejaVuSans-2d" transform="translate(127.246094 0)"/>
       <use xlink:href="#DejaVuSans-30" transform="translate(163.330078 0)"/>
       <use xlink:href="#DejaVuSans-33" transform="translate(226.953125 0)"/>
       <use xlink:href="#DejaVuSans-20" transform="translate(290.576172 0)"/>
       <use xlink:href="#DejaVuSans-30" transform="translate(322.363281 0)"/>
       <use xlink:href="#DejaVuSans-30" transform="translate(385.986328 0)"/>
      </g>
     </g>
    </g>
    <g id="xtick_3">
     <g id="line2d_3">
      <g>
       <use xlink:href="#md27324eee7" x="287.296656" y="246.04" style="stroke: #000000; stroke-width: 0.8"/>
      </g>
     </g>
     <g id="text_3">
      <!-- 06-03 12 -->
      <g transform="translate(264.816188 260.638438) scale(0.1 -0.1)">
       <use xlink:href="#DejaVuSans-30"/>
       <use xlink:href="#DejaVuSans-36" transform="translate(63.623047 0)"/>
       <use xlink:href="#DejaVuSans-2d" transform="translate(127.246094 0)"/>
       <use xlink:href="#DejaVuSans-30" transform="translate(163.330078 0)"/>
       <use xlink:href="#DejaVuSans-33" transform="translate(226.953125 0)"/>
       <use xlink:href="#DejaVuSans-20" transform="translate(290.576172 0)"/>
       <use xlink:href="#DejaVuSans-31" transform="translate(322.363281 0)"/>
       <use xlink:href="#DejaVuSans-32" transform="translate(385.986328 0)"/>
      </g>
     </g>
    </g>
    <g id="xtick_4">
     <g id="line2d_4">
      <g>
       <use xlink:href="#md27324eee7" x="373.73012" y="246.04" style="stroke: #000000; stroke-width: 0.8"/>
      </g>
     </g>
     <g id="text_4">
      <!-- 06-04 00 -->
      <g transform="translate(351.249651 260.638438) scale(0.1 -0.1)">
       <defs>
        <path id="DejaVuSans-34" d="M 2419 4116 
L 825 1625 
L 2419 1625 
L 2419 4116 
z
M 2253 4666 
L 3047 4666 
L 3047 1625 
L 3713 1625 
L 3713 1100 
L 3047 1100 
L 3047 0 
L 2419 0 
L 2419 1100 
L 313 1100 
L 313 1709 
L 2253 4666 
z
" transform="scale(0.015625)"/>
       </defs>
       <use xlink:href="#DejaVuSans-30"/>
       <use xlink:href="#DejaVuSans-36" transform="translate(63.623047 0)"/>
       <use xlink:href="#DejaVuSans-2d" transform="translate(127.246094 0)"/>
       <use xlink:href="#DejaVuSans-30" transform="translate(163.330078 0)"/>
       <use xlink:href="#DejaVuSans-34" transform="translate(226.953125 0)"/>
       <use xlink:href="#DejaVuSans-20" transform="translate(290.576172 0)"/>
       <use xlink:href="#DejaVuSans-30" transform="translate(322.363281 0)"/>
       <use xlink:href="#DejaVuSans-30" transform="translate(385.986328 0)"/>
      </g>
     </g>
    </g>
    <g id="xtick_5">
     <g id="line2d_5">
      <g>
       <use xlink:href="#md27324eee7" x="460.163583" y="246.04" style="stroke: #000000; stroke-width: 0.8"/>
      </g>
     </g>
     <g id="text_5">
      <!-- 06-04 12 -->
      <g transform="translate(437.683115 260.638438) scale(0.1 -0.1)">
       <use xlink:href="#DejaVuSans-30"/>
       <use xlink:href="#DejaVuSans-36" transform="translate(63.623047 0)"/>
       <use xlink:href="#DejaVuSans-2d" transform="translate(127.246094 0)"/>
       <use xlink:href="#DejaVuSans-30" transform="translate(163.330078 0)"/>
       <use xlink:href="#DejaVuSans-34" transform="translate(226.953125 0)"/>
       <use xlink:href="#DejaVuSans-20" transform="translate(290.576172 0)"/>
       <use xlink:href="#DejaVuSans-31" transform="translate(322.363281 0)"/>
       <use xlink:href="#DejaVuSans-32" transform="translate(385.986328 0)"/>
      </g>
     </g>
    </g>
    <g id="xtick_6">
     <g id="line2d_6">
      <g>
       <use xlink:href="#md27324eee7" x="546.597047" y="246.04" style="stroke: #000000; stroke-width: 0.8"/>
      </g>
     </g>
     <g id="text_6">
      <!-- 06-05 00 -->
      <g transform="translate(524.116578 260.638438) scale(0.1 -0.1)">
       <defs>
        <path id="DejaVuSans-35" d="M 691 4666 
L 3169 4666 
L 3169 4134 
L 1269 4134 
L 1269 2991 
Q 1406 3038 1543 3061 
Q 1681 3084 1819 3084 
Q 2600 3084 3056 2656 
Q 3513 2228 3513 1497 
Q 3513 744 3044 326 
Q 2575 -91 1722 -91 
Q 1428 -91 1123 -41 
Q 819 9 494 109 
L 494 744 
Q 775 591 1075 516 
Q 1375 441 1709 441 
Q 2250 441 2565 725 
Q 2881 1009 2881 1497 
Q 2881 1984 2565 2268 
Q 2250 2553 1709 2553 
Q 1456 2553 1204 2497 
Q 953 2441 691 2322 
L 691 4666 
z
" transform="scale(0.015625)"/>
       </defs>
       <use xlink:href="#DejaVuSans-30"/>
       <use xlink:href="#DejaVuSans-36" transform="translate(63.623047 0)"/>
       <use xlink:href="#DejaVuSans-2d" transform="translate(127.246094 0)"/>
       <use xlink:href="#DejaVuSans-30" transform="translate(163.330078 0)"/>
       <use xlink:href="#DejaVuSans-35" transform="translate(226.953125 0)"/>
       <use xlink:href="#DejaVuSans-20" transform="translate(290.576172 0)"/>
       <use xlink:href="#DejaVuSans-30" transform="translate(322.363281 0)"/>
       <use xlink:href="#DejaVuSans-30" transform="translate(385.986328 0)"/>
      </g>
     </g>
    </g>
    <g id="xtick_7">
     <g id="line2d_7">
      <g>
       <use xlink:href="#md27324eee7" x="633.03051" y="246.04" style="stroke: #000000; stroke-width: 0.8"/>
      </g>
     </g>
     <g id="text_7">
      <!-- 06-05 12 -->
      <g transform="translate(610.550042 260.638438) scale(0.1 -0.1)">
       <use xlink:href="#DejaVuSans-30"/>
       <use xlink:href="#DejaVuSans-36" transform="translate(63.623047 0)"/>
       <use xlink:href="#DejaVuSans-2d" transform="translate(127.246094 0)"/>
       <use xlink:href="#DejaVuSans-30" transform="translate(163.330078 0)"/>
       <use xlink:href="#DejaVuSans-35" transform="translate(226.953125 0)"/>
       <use xlink:href="#DejaVuSans-20" transform="translate(290.576172 0)"/>
       <use xlink:href="#DejaVuSans-31" transform="translate(322.363281 0)"/>
       <use xlink:href="#DejaVuSans-32" transform="translate(385.986328 0)"/>
      </g>
     </g>
    </g>
    <g id="text_8">
     <!-- Tijd -->
     <g transform="translate(377.485 274.316562) scale(0.1 -0.1)">
      <defs>
       <path id="DejaVuSans-54" d="M -19 4666 
L 3928 4666 
L 3928 4134 
L 2272 4134 
L 2272 0 
L 1638 0 
L 1638 4134 
L -19 4134 
L -19 4666 
z
" transform="scale(0.015625)"/>
       <path id="DejaVuSans-69" d="M 603 3500 
L 1178 3500 
L 1178 0 
L 603 0 
L 603 3500 
z
M 603 4863 
L 1178 4863 
L 1178 4134 
L 603 4134 
L 603 4863 
z
" transform="scale(0.015625)"/>
       <path id="DejaVuSans-6a" d="M 603 3500 
L 1178 3500 
L 1178 -63 
Q 1178 -731 923 -1031 
Q 669 -1331 103 -1331 
L -116 -1331 
L -116 -844 
L 38 -844 
Q 366 -844 484 -692 
Q 603 -541 603 -63 
L 603 3500 
z
M 603 4863 
L 1178 4863 
L 1178 4134 
L 603 4134 
L 603 4863 
z
" transform="scale(0.015625)"/>
       <path id="DejaVuSans-64" d="M 2906 2969 
L 2906 4863 
L 3481 4863 
L 3481 0 
L 2906 0 
L 2906 525 
Q 2725 213 2448 61 
Q 2172 -91 1784 -91 
Q 1150 -91 751 415 
Q 353 922 353 1747 
Q 353 2572 751 3078 
Q 1150 3584 1784 3584 
Q 2172 3584 2448 3432 
Q 2725 3281 2906 2969 
z
M 947 1747 
Q 947 1113 1208 752 
Q 1469 391 1925 391 
Q 2381 391 2643 752 
Q 2906 1113 2906 1747 
Q 2906 2381 2643 2742 
Q 2381 3103 1925 3103 
Q 1469 3103 1208 2742 
Q 947 2381 947 1747 
z
" transform="scale(0.015625)"/>
      </defs>
      <use xlink:href="#DejaVuSans-54"/>
      <use xlink:href="#DejaVuSans-69" transform="translate(57.958984 0)"/>
      <use xlink:href="#DejaVuSans-6a" transform="translate(85.742188 0)"/>
      <use xlink:href="#DejaVuSans-64" transform="translate(113.525391 0)"/>
     </g>
    </g>
   </g>
   <g id="matplotlib.axis_2">
    <g id="ytick_1">
     <g id="line2d_8">
      <defs>
       <path id="m40b4e6fb42" d="M 0 0 
L -3.5 0 
" style="stroke: #000000; stroke-width: 0.8"/>
      </defs>
      <g>
       <use xlink:href="#m40b4e6fb42" x="63.47" y="235.692671" style="stroke: #000000; stroke-width: 0.8"/>
      </g>
     </g>
     <g id="text_9">
      <!-- 0 -->
      <g transform="translate(50.1075 239.49189) scale(0.1 -0.1)">
       <use xlink:href="#DejaVuSans-30"/>
      </g>
     </g>
    </g>
    <g id="ytick_2">
     <g id="line2d_9">
      <g>
       <use xlink:href="#m40b4e6fb42" x="63.47" y="210.828026" style="stroke: #000000; stroke-width: 0.8"/>
      </g>
     </g>
     <g id="text_10">
      <!-- 2500 -->
      <g transform="translate(31.02 214.627245) scale(0.1 -0.1)">
       <use xlink:href="#DejaVuSans-32"/>
       <use xlink:href="#DejaVuSans-35" transform="translate(63.623047 0)"/>
       <use xlink:href="#DejaVuSans-30" transform="translate(127.246094 0)"/>
       <use xlink:href="#DejaVuSans-30" transform="translate(190.869141 0)"/>
      </g>
     </g>
    </g>
    <g id="ytick_3">
     <g id="line2d_10">
      <g>
       <use xlink:href="#m40b4e6fb42" x="63.47" y="185.963381" style="stroke: #000000; stroke-width: 0.8"/>
      </g>
     </g>
     <g id="text_11">
      <!-- 5000 -->
      <g transform="translate(31.02 189.7626) scale(0.1 -0.1)">
       <use xlink:href="#DejaVuSans-35"/>
       <use xlink:href="#DejaVuSans-30" transform="translate(63.623047 0)"/>
       <use xlink:href="#DejaVuSans-30" transform="translate(127.246094 0)"/>
       <use xlink:href="#DejaVuSans-30" transform="translate(190.869141 0)"/>
      </g>
     </g>
    </g>
    <g id="ytick_4">
     <g id="line2d_11">
      <g>
       <use xlink:href="#m40b4e6fb42" x="63.47" y="161.098737" style="stroke: #000000; stroke-width: 0.8"/>
      </g>
     </g>
     <g id="text_12">
      <!-- 7500 -->
      <g transform="translate(31.02 164.897955) scale(0.1 -0.1)">
       <defs>
        <path id="DejaVuSans-37" d="M 525 4666 
L 3525 4666 
L 3525 4397 
L 1831 0 
L 1172 0 
L 2766 4134 
L 525 4134 
L 525 4666 
z
" transform="scale(0.015625)"/>
       </defs>
       <use xlink:href="#DejaVuSans-37"/>
       <use xlink:href="#DejaVuSans-35" transform="translate(63.623047 0)"/>
       <use xlink:href="#DejaVuSans-30" transform="translate(127.246094 0)"/>
       <use xlink:href="#DejaVuSans-30" transform="translate(190.869141 0)"/>
      </g>
     </g>
    </g>
    <g id="ytick_5">
     <g id="line2d_12">
      <g>
       <use xlink:href="#m40b4e6fb42" x="63.47" y="136.234092" style="stroke: #000000; stroke-width: 0.8"/>
      </g>
     </g>
     <g id="text_13">
      <!-- 10000 -->
      <g transform="translate(24.6575 140.03331) scale(0.1 -0.1)">
       <use xlink:href="#DejaVuSans-31"/>
       <use xlink:href="#DejaVuSans-30" transform="translate(63.623047 0)"/>
       <use xlink:href="#DejaVuSans-30" transform="translate(127.246094 0)"/>
       <use xlink:href="#DejaVuSans-30" transform="translate(190.869141 0)"/>
       <use xlink:href="#DejaVuSans-30" transform="translate(254.492188 0)"/>
      </g>
     </g>
    </g>
    <g id="ytick_6">
     <g id="line2d_13">
      <g>
       <use xlink:href="#m40b4e6fb42" x="63.47" y="111.369447" style="stroke: #000000; stroke-width: 0.8"/>
      </g>
     </g>
     <g id="text_14">
      <!-- 12500 -->
      <g transform="translate(24.6575 115.168666) scale(0.1 -0.1)">
       <use xlink:href="#DejaVuSans-31"/>
       <use xlink:href="#DejaVuSans-32" transform="translate(63.623047 0)"/>
       <use xlink:href="#DejaVuSans-35" transform="translate(127.246094 0)"/>
       <use xlink:href="#DejaVuSans-30" transform="translate(190.869141 0)"/>
       <use xlink:href="#DejaVuSans-30" transform="translate(254.492188 0)"/>
      </g>
     </g>
    </g>
    <g id="ytick_7">
     <g id="line2d_14">
      <g>
       <use xlink:href="#m40b4e6fb42" x="63.47" y="86.504802" style="stroke: #000000; stroke-width: 0.8"/>
      </g>
     </g>
     <g id="text_15">
      <!-- 15000 -->
      <g transform="translate(24.6575 90.304021) scale(0.1 -0.1)">
       <use xlink:href="#DejaVuSans-31"/>
       <use xlink:href="#DejaVuSans-35" transform="translate(63.623047 0)"/>
       <use xlink:href="#DejaVuSans-30" transform="translate(127.246094 0)"/>
       <use xlink:href="#DejaVuSans-30" transform="translate(190.869141 0)"/>
       <use xlink:href="#DejaVuSans-30" transform="translate(254.492188 0)"/>
      </g>
     </g>
    </g>
    <g id="ytick_8">
     <g id="line2d_15">
      <g>
       <use xlink:href="#m40b4e6fb42" x="63.47" y="61.640157" style="stroke: #000000; stroke-width: 0.8"/>
      </g>
     </g>
     <g id="text_16">
      <!-- 17500 -->
      <g transform="translate(24.6575 65.439376) scale(0.1 -0.1)">
       <use xlink:href="#DejaVuSans-31"/>
       <use xlink:href="#DejaVuSans-37" transform="translate(63.623047 0)"/>
       <use xlink:href="#DejaVuSans-35" transform="translate(127.246094 0)"/>
       <use xlink:href="#DejaVuSans-30" transform="translate(190.869141 0)"/>
       <use xlink:href="#DejaVuSans-30" transform="translate(254.492188 0)"/>
      </g>
     </g>
    </g>
    <g id="ytick_9">
     <g id="line2d_16">
      <g>
       <use xlink:href="#m40b4e6fb42" x="63.47" y="36.775512" style="stroke: #000000; stroke-width: 0.8"/>
      </g>
     </g>
     <g id="text_17">
      <!-- 20000 -->
      <g transform="translate(24.6575 40.574731) scale(0.1 -0.1)">
       <use xlink:href="#DejaVuSans-32"/>
       <use xlink:href="#DejaVuSans-30" transform="translate(63.623047 0)"/>
       <use xlink:href="#DejaVuSans-30" transform="translate(127.246094 0)"/>
       <use xlink:href="#DejaVuSans-30" transform="translate(190.869141 0)"/>
       <use xlink:href="#DejaVuSans-30" transform="translate(254.492188 0)"/>
      </g>
     </g>
    </g>
    <g id="text_18">
     <!-- CO2 (PPM) -->
     <g transform="translate(18.577813 162.902969) rotate(-90) scale(0.1 -0.1)">
      <defs>
       <path id="DejaVuSans-43" d="M 4122 4306 
L 4122 3641 
Q 3803 3938 3442 4084 
Q 3081 4231 2675 4231 
Q 1875 4231 1450 3742 
Q 1025 3253 1025 2328 
Q 1025 1406 1450 917 
Q 1875 428 2675 428 
Q 3081 428 3442 575 
Q 3803 722 4122 1019 
L 4122 359 
Q 3791 134 3420 21 
Q 3050 -91 2638 -91 
Q 1578 -91 968 557 
Q 359 1206 359 2328 
Q 359 3453 968 4101 
Q 1578 4750 2638 4750 
Q 3056 4750 3426 4639 
Q 3797 4528 4122 4306 
z
" transform="scale(0.015625)"/>
       <path id="DejaVuSans-4f" d="M 2522 4238 
Q 1834 4238 1429 3725 
Q 1025 3213 1025 2328 
Q 1025 1447 1429 934 
Q 1834 422 2522 422 
Q 3209 422 3611 934 
Q 4013 1447 4013 2328 
Q 4013 3213 3611 3725 
Q 3209 4238 2522 4238 
z
M 2522 4750 
Q 3503 4750 4090 4092 
Q 4678 3434 4678 2328 
Q 4678 1225 4090 567 
Q 3503 -91 2522 -91 
Q 1538 -91 948 565 
Q 359 1222 359 2328 
Q 359 3434 948 4092 
Q 1538 4750 2522 4750 
z
" transform="scale(0.015625)"/>
       <path id="DejaVuSans-28" d="M 1984 4856 
Q 1566 4138 1362 3434 
Q 1159 2731 1159 2009 
Q 1159 1288 1364 580 
Q 1569 -128 1984 -844 
L 1484 -844 
Q 1016 -109 783 600 
Q 550 1309 550 2009 
Q 550 2706 781 3412 
Q 1013 4119 1484 4856 
L 1984 4856 
z
" transform="scale(0.015625)"/>
       <path id="DejaVuSans-50" d="M 1259 4147 
L 1259 2394 
L 2053 2394 
Q 2494 2394 2734 2622 
Q 2975 2850 2975 3272 
Q 2975 3691 2734 3919 
Q 2494 4147 2053 4147 
L 1259 4147 
z
M 628 4666 
L 2053 4666 
Q 2838 4666 3239 4311 
Q 3641 3956 3641 3272 
Q 3641 2581 3239 2228 
Q 2838 1875 2053 1875 
L 1259 1875 
L 1259 0 
L 628 0 
L 628 4666 
z
" transform="scale(0.015625)"/>
       <path id="DejaVuSans-4d" d="M 628 4666 
L 1569 4666 
L 2759 1491 
L 3956 4666 
L 4897 4666 
L 4897 0 
L 4281 0 
L 4281 4097 
L 3078 897 
L 2444 897 
L 1241 4097 
L 1241 0 
L 628 0 
L 628 4666 
z
" transform="scale(0.015625)"/>
       <path id="DejaVuSans-29" d="M 513 4856 
L 1013 4856 
Q 1481 4119 1714 3412 
Q 1947 2706 1947 2009 
Q 1947 1309 1714 600 
Q 1481 -109 1013 -844 
L 513 -844 
Q 928 -128 1133 580 
Q 1338 1288 1338 2009 
Q 1338 2731 1133 3434 
Q 928 4138 513 4856 
z
" transform="scale(0.015625)"/>
      </defs>
      <use xlink:href="#DejaVuSans-43"/>
      <use xlink:href="#DejaVuSans-4f" transform="translate(69.824219 0)"/>
      <use xlink:href="#DejaVuSans-32" transform="translate(148.535156 0)"/>
      <use xlink:href="#DejaVuSans-20" transform="translate(212.158203 0)"/>
      <use xlink:href="#DejaVuSans-28" transform="translate(243.945312 0)"/>
      <use xlink:href="#DejaVuSans-50" transform="translate(282.958984 0)"/>
      <use xlink:href="#DejaVuSans-50" transform="translate(343.261719 0)"/>
      <use xlink:href="#DejaVuSans-4d" transform="translate(403.564453 0)"/>
      <use xlink:href="#DejaVuSans-29" transform="translate(489.84375 0)"/>
     </g>
    </g>
   </g>
   <g id="line2d_17">
    <path d="M 92.821364 146.229679 
L 96.422758 114.835578 
L 103.625547 146.756809 
L 107.226941 144.827313 
L 110.828335 166.466185 
L 114.42973 142.244705 
L 118.031124 147.724873 
L 121.632518 140.951744 
L 125.233912 178.205612 
L 128.835307 141.813718 
L 132.436701 161.430265 
L 136.038095 93.675766 
L 139.63949 160.004692 
L 143.240884 148.78908 
L 146.842278 155.724658 
L 150.443673 161.804892 
L 154.045067 175.264954 
L 157.646461 174.64831 
L 164.84925 172.974091 
L 168.450644 163.409491 
L 172.052038 119.001235 
L 175.653433 135.494783 
L 179.254827 137.417649 
L 182.856221 124.882553 
L 186.457616 122.001569 
L 190.05901 105.822973 
L 193.660404 101.851261 
L 197.261799 113.643733 
L 200.863193 106.774461 
L 204.464587 89.820088 
L 208.065982 77.222001 
L 211.667376 80.301902 
L 215.26877 76.181002 
L 218.870165 71.184866 
L 222.471559 36.841818 
L 226.072953 68.482908 
L 229.674347 81.455622 
L 233.275742 58.377916 
L 236.877136 66.150604 
L 240.47853 75.186416 
L 244.079925 70.279793 
L 247.681319 79.105084 
L 251.282713 72.898868 
L 254.884108 85.046076 
L 258.485502 93.760305 
L 262.086896 150.009105 
L 265.688291 140.036725 
L 269.289685 145.487055 
L 272.891079 124.85603 
L 276.492474 147.827647 
L 280.093868 145.785431 
L 283.695262 151.915394 
L 287.296656 162.590615 
L 290.898051 167.762461 
L 294.499445 156.200402 
L 298.100839 154.166474 
L 301.702234 170.219088 
L 305.303628 173.799597 
L 308.905022 190.279884 
L 312.506417 197.082851 
L 316.107811 193.596827 
L 319.709205 171.972875 
L 323.3106 203.736629 
L 326.911994 184.660474 
L 330.513388 142.340848 
L 334.114782 196.018644 
L 337.716177 173.700139 
L 341.317571 149.163707 
L 344.918965 184.584222 
L 348.52036 170.391483 
L 352.121754 130.913058 
L 355.723148 162.816055 
L 362.925937 192.219326 
L 366.527331 158.589065 
L 370.128726 178.23545 
L 373.73012 143.275759 
L 377.331514 171.33634 
L 380.932909 160.027899 
L 384.534303 154.401859 
L 388.135697 176.037415 
L 391.737091 134.399081 
L 395.338486 135.819681 
L 398.93988 133.929968 
L 402.541274 165.176538 
L 406.142669 158.234329 
L 409.744063 172.234782 
L 413.345457 135.985445 
L 416.946852 170.421321 
L 420.548246 128.509475 
L 424.14964 149.031096 
L 427.751035 107.769046 
L 431.352429 142.420415 
L 434.953823 140.603639 
L 438.555218 175.241746 
L 442.156612 168.637697 
L 445.758006 143.92887 
L 449.3594 135.123471 
L 452.960795 165.161619 
L 456.562189 170.911983 
L 460.163583 151.699901 
L 463.764978 154.000709 
L 467.366372 153.748748 
L 470.967766 131.360621 
L 474.569161 143.544297 
L 478.170555 170.809209 
L 481.771949 163.989666 
L 485.373344 153.644316 
L 488.974738 179.085821 
L 492.576132 182.890111 
L 496.177526 168.001162 
L 499.778921 187.889562 
L 503.380315 184.100191 
L 506.981709 162.714938 
L 510.583104 186.381107 
L 514.184498 161.481652 
L 517.785892 165.335672 
L 521.387287 170.606977 
L 524.988681 145.818583 
L 528.590075 155.658352 
L 532.19147 149.249904 
L 535.792864 135.531251 
L 539.394258 131.954058 
L 542.995653 144.986447 
L 546.597047 133.803987 
L 550.198441 143.650386 
L 553.799835 144.187463 
L 557.40123 166.7082 
L 561.002624 140.172651 
L 564.604018 139.449919 
L 568.205413 133.638223 
L 571.806807 130.41908 
L 575.408201 133.200605 
L 579.009596 159.04989 
L 582.61099 137.735916 
L 586.212384 148.202274 
L 589.813779 106.346789 
L 593.415173 141.694368 
L 597.016567 151.255652 
L 600.617962 141.163922 
L 604.219356 121.54406 
L 607.82075 147.507722 
L 611.422144 169.721795 
L 615.023539 164.360978 
L 618.624933 156.029664 
L 622.226327 125.535664 
L 625.827722 160.160511 
L 629.429116 145.337867 
L 633.03051 184.367071 
L 633.03051 184.367071 
" clip-path="url(#p0ab4d62076)" style="fill: none; stroke: #1f77b4; stroke-width: 2; stroke-linecap: square"/>
   </g>
   <g id="line2d_18">
    <path d="M 92.821364 146.279408 
L 96.422758 150.604672 
L 100.024152 151.36482 
L 103.625547 164.260414 
L 110.828335 161.802524 
L 114.42973 155.608149 
L 118.031124 163.425594 
L 121.632518 169.934447 
L 125.233912 168.966384 
L 128.835307 165.851909 
L 132.436701 164.893318 
L 136.038095 157.541671 
L 139.63949 170.941268 
L 143.240884 166.203567 
L 146.842278 163.767779 
L 150.443673 171.74191 
L 154.045067 167.253565 
L 161.247856 178.553717 
L 164.84925 174.92561 
L 168.450644 177.530241 
L 172.052038 172.888367 
L 175.653433 172.457854 
L 179.254827 167.735939 
L 182.856221 170.405691 
L 186.457616 174.03735 
L 190.05901 165.243791 
L 193.660404 159.34495 
L 197.261799 155.806593 
L 200.863193 147.436443 
L 204.464587 141.817033 
L 208.065982 142.367371 
L 211.667376 138.027109 
L 215.26877 133.404022 
L 218.870165 129.219499 
L 222.471559 121.336144 
L 226.072953 124.196841 
L 229.674347 129.690191 
L 233.275742 123.458164 
L 236.877136 129.524427 
L 240.47853 122.261109 
L 244.079925 122.359857 
L 247.681319 116.916631 
L 251.282713 118.025831 
L 254.884108 111.727222 
L 258.485502 118.269741 
L 262.086896 131.407983 
L 265.688291 134.231185 
L 269.289685 144.148627 
L 272.891079 135.432977 
L 276.492474 144.26182 
L 283.695262 143.296835 
L 287.296656 159.474246 
L 290.898051 159.812406 
L 294.499445 157.449554 
L 298.100839 161.199024 
L 305.303628 166.187937 
L 308.905022 164.059287 
L 312.506417 175.793742 
L 316.107811 171.475345 
L 319.709205 170.820102 
L 323.3106 175.531005 
L 326.911994 178.07158 
L 330.513388 171.600852 
L 334.114782 177.441676 
L 337.716177 182.518799 
L 341.317571 176.383626 
L 344.918965 187.42116 
L 348.52036 185.563653 
L 352.121754 178.495463 
L 355.723148 182.65662 
L 359.324543 182.357297 
L 362.925937 182.759394 
L 366.527331 178.674488 
L 370.128726 176.347868 
L 373.73012 167.20052 
L 377.331514 160.553925 
L 380.932909 157.208248 
L 384.534303 162.857496 
L 388.135697 168.243178 
L 391.737091 167.096799 
L 395.338486 167.751568 
L 398.93988 163.122719 
L 402.541274 169.10089 
L 406.142669 162.563383 
L 409.744063 163.158713 
L 413.345457 144.951636 
L 416.946852 143.232937 
L 420.548246 143.624693 
L 424.14964 156.715376 
L 427.751035 159.222561 
L 431.352429 166.359432 
L 434.953823 160.403711 
L 438.555218 164.058103 
L 442.156612 151.483855 
L 445.758006 153.425981 
L 449.3594 164.28591 
L 452.960795 167.334553 
L 456.562189 168.357555 
L 460.163583 164.05384 
L 463.764978 166.864966 
L 467.366372 166.619161 
L 470.967766 163.440039 
L 474.569161 164.764969 
L 478.170555 173.365295 
L 481.771949 175.141735 
L 485.373344 169.754238 
L 488.974738 173.900713 
L 492.576132 170.160124 
L 496.177526 164.644987 
L 499.778921 163.840004 
L 503.380315 169.301464 
L 506.981709 168.19037 
L 514.184498 175.593404 
L 517.785892 177.976384 
L 521.387287 176.943909 
L 524.988681 177.807304 
L 528.590075 177.298171 
L 532.19147 178.127466 
L 535.792864 168.379105 
L 539.394258 167.784721 
L 542.995653 166.011043 
L 546.597047 150.698132 
L 553.799835 156.033532 
L 557.40123 158.304503 
L 561.002624 161.732903 
L 564.604018 158.302845 
L 568.205413 152.829584 
L 571.806807 154.330343 
L 579.009596 145.955931 
L 582.61099 150.193814 
L 586.212384 145.627481 
L 589.813779 136.199518 
L 593.415173 147.011258 
L 597.016567 144.717672 
L 600.617962 143.75908 
L 604.219356 145.188916 
L 607.82075 152.739006 
L 611.422144 156.287783 
L 615.023539 158.531521 
L 618.624933 161.882091 
L 622.226327 156.801179 
L 625.827722 158.809295 
L 629.429116 160.090653 
L 633.03051 167.366008 
L 636.631905 164.95574 
L 640.233299 169.681349 
L 643.834693 165.274339 
L 647.436088 158.361968 
L 651.037482 155.969989 
L 654.638876 152.043862 
L 661.841665 170.096423 
L 665.443059 169.970442 
L 669.044453 179.813526 
L 672.645848 166.474473 
L 676.247242 160.874955 
L 679.848636 178.394583 
L 679.848636 178.394583 
" clip-path="url(#p0ab4d62076)" style="fill: none; stroke-dasharray: 5.55,2.4; stroke-dashoffset: 0; stroke: #808080; stroke-width: 1.5"/>
   </g>
   <g id="patch_3">
    <path d="M 63.47 246.04 
L 63.47 26.88 
" style="fill: none; stroke: #000000; stroke-width: 0.8; stroke-linejoin: miter; stroke-linecap: square"/>
   </g>
   <g id="patch_4">
    <path d="M 709.2 246.04 
L 709.2 26.88 
" style="fill: none; stroke: #000000; stroke-width: 0.8; stroke-linejoin: miter; stroke-linecap: square"/>
   </g>
   <g id="patch_5">
    <path d="M 63.47 246.04 
L 709.2 246.04 
" style="fill: none; stroke: #000000; stroke-width: 0.8; stroke-linejoin: miter; stroke-linecap: square"/>
   </g>
   <g id="patch_6">
    <path d="M 63.47 26.88 
L 709.2 26.88 
" style="fill: none; stroke: #000000; stroke-width: 0.8; stroke-linejoin: miter; stroke-linecap: square"/>
   </g>
   <g id="text_19">
    <!-- CO2 - v001/c00001/d021 -->
    <g transform="translate(310.931875 20.88) scale(0.12 -0.12)">
     <defs>
      <path id="DejaVuSans-76" d="M 191 3500 
L 800 3500 
L 1894 563 
L 2988 3500 
L 3597 3500 
L 2284 0 
L 1503 0 
L 191 3500 
z
" transform="scale(0.015625)"/>
      <path id="DejaVuSans-2f" d="M 1625 4666 
L 2156 4666 
L 531 -594 
L 0 -594 
L 1625 4666 
z
" transform="scale(0.015625)"/>
      <path id="DejaVuSans-63" d="M 3122 3366 
L 3122 2828 
Q 2878 2963 2633 3030 
Q 2388 3097 2138 3097 
Q 1578 3097 1268 2742 
Q 959 2388 959 1747 
Q 959 1106 1268 751 
Q 1578 397 2138 397 
Q 2388 397 2633 464 
Q 2878 531 3122 666 
L 3122 134 
Q 2881 22 2623 -34 
Q 2366 -91 2075 -91 
Q 1284 -91 818 406 
Q 353 903 353 1747 
Q 353 2603 823 3093 
Q 1294 3584 2113 3584 
Q 2378 3584 2631 3529 
Q 2884 3475 3122 3366 
z
" transform="scale(0.015625)"/>
     </defs>
     <use xlink:href="#DejaVuSans-43"/>
     <use xlink:href="#DejaVuSans-4f" transform="translate(69.824219 0)"/>
     <use xlink:href="#DejaVuSans-32" transform="translate(148.535156 0)"/>
     <use xlink:href="#DejaVuSans-20" transform="translate(212.158203 0)"/>
     <use xlink:href="#DejaVuSans-2d" transform="translate(243.945312 0)"/>
     <use xlink:href="#DejaVuSans-20" transform="translate(280.029297 0)"/>
     <use xlink:href="#DejaVuSans-76" transform="translate(311.816406 0)"/>
     <use xlink:href="#DejaVuSans-30" transform="translate(370.996094 0)"/>
     <use xlink:href="#DejaVuSans-30" transform="translate(434.619141 0)"/>
     <use xlink:href="#DejaVuSans-31" transform="translate(498.242188 0)"/>
     <use xlink:href="#DejaVuSans-2f" transform="translate(561.865234 0)"/>
     <use xlink:href="#DejaVuSans-63" transform="translate(595.556641 0)"/>
     <use xlink:href="#DejaVuSans-30" transform="translate(650.537109 0)"/>
     <use xlink:href="#DejaVuSans-30" transform="translate(714.160156 0)"/>
     <use xlink:href="#DejaVuSans-30" transform="translate(777.783203 0)"/>
     <use xlink:href="#DejaVuSans-30" transform="translate(841.40625 0)"/>
     <use xlink:href="#DejaVuSans-31" transform="translate(905.029297 0)"/>
     <use xlink:href="#DejaVuSans-2f" transform="translate(968.652344 0)"/>
     <use xlink:href="#DejaVuSans-64" transform="translate(1002.34375 0)"/>
     <use xlink:href="#DejaVuSans-30" transform="translate(1065.820312 0)"/>
     <use xlink:href="#DejaVuSans-32" transform="translate(1129.443359 0)"/>
     <use xlink:href="#DejaVuSans-31" transform="translate(1193.066406 0)"/>
    </g>
   </g>
   <g id="legend_1">
    <g id="patch_7">
     <path d="M 551.25625 78.914375 
L 702.2 78.914375 
Q 704.2 78.914375 704.2 76.914375 
L 704.2 33.88 
Q 704.2 31.88 702.2 31.88 
L 551.25625 31.88 
Q 549.25625 31.88 549.25625 33.88 
L 549.25625 76.914375 
Q 549.25625 78.914375 551.25625 78.914375 
z
" style="fill: #ffffff; opacity: 0.8; stroke: #cccccc; stroke-linejoin: miter"/>
    </g>
    <g id="line2d_19">
     <path d="M 553.25625 39.978438 
L 563.25625 39.978438 
L 573.25625 39.978438 
" style="fill: none; stroke: #1f77b4; stroke-width: 2; stroke-linecap: square"/>
    </g>
    <g id="text_20">
     <!-- Hive -->
     <g transform="translate(581.25625 43.478438) scale(0.1 -0.1)">
      <defs>
       <path id="DejaVuSans-48" d="M 628 4666 
L 1259 4666 
L 1259 2753 
L 3553 2753 
L 3553 4666 
L 4184 4666 
L 4184 0 
L 3553 0 
L 3553 2222 
L 1259 2222 
L 1259 0 
L 628 0 
L 628 4666 
z
" transform="scale(0.015625)"/>
       <path id="DejaVuSans-65" d="M 3597 1894 
L 3597 1613 
L 953 1613 
Q 991 1019 1311 708 
Q 1631 397 2203 397 
Q 2534 397 2845 478 
Q 3156 559 3463 722 
L 3463 178 
Q 3153 47 2828 -22 
Q 2503 -91 2169 -91 
Q 1331 -91 842 396 
Q 353 884 353 1716 
Q 353 2575 817 3079 
Q 1281 3584 2069 3584 
Q 2775 3584 3186 3129 
Q 3597 2675 3597 1894 
z
M 3022 2063 
Q 3016 2534 2758 2815 
Q 2500 3097 2075 3097 
Q 1594 3097 1305 2825 
Q 1016 2553 972 2059 
L 3022 2063 
z
" transform="scale(0.015625)"/>
      </defs>
      <use xlink:href="#DejaVuSans-48"/>
      <use xlink:href="#DejaVuSans-69" transform="translate(75.195312 0)"/>
      <use xlink:href="#DejaVuSans-76" transform="translate(102.978516 0)"/>
      <use xlink:href="#DejaVuSans-65" transform="translate(162.158203 0)"/>
     </g>
    </g>
    <g id="line2d_20">
     <path d="M 553.25625 54.656563 
L 563.25625 54.656563 
L 573.25625 54.656563 
" style="fill: none; stroke-dasharray: 5.55,2.4; stroke-dashoffset: 0; stroke: #808080; stroke-width: 1.5"/>
    </g>
    <g id="text_21">
     <!-- Gemiddelde (alle hives) -->
     <g transform="translate(581.25625 58.156563) scale(0.1 -0.1)">
      <defs>
       <path id="DejaVuSans-47" d="M 3809 666 
L 3809 1919 
L 2778 1919 
L 2778 2438 
L 4434 2438 
L 4434 434 
Q 4069 175 3628 42 
Q 3188 -91 2688 -91 
Q 1594 -91 976 548 
Q 359 1188 359 2328 
Q 359 3472 976 4111 
Q 1594 4750 2688 4750 
Q 3144 4750 3555 4637 
Q 3966 4525 4313 4306 
L 4313 3634 
Q 3963 3931 3569 4081 
Q 3175 4231 2741 4231 
Q 1884 4231 1454 3753 
Q 1025 3275 1025 2328 
Q 1025 1384 1454 906 
Q 1884 428 2741 428 
Q 3075 428 3337 486 
Q 3600 544 3809 666 
z
" transform="scale(0.015625)"/>
       <path id="DejaVuSans-6d" d="M 3328 2828 
Q 3544 3216 3844 3400 
Q 4144 3584 4550 3584 
Q 5097 3584 5394 3201 
Q 5691 2819 5691 2113 
L 5691 0 
L 5113 0 
L 5113 2094 
Q 5113 2597 4934 2840 
Q 4756 3084 4391 3084 
Q 3944 3084 3684 2787 
Q 3425 2491 3425 1978 
L 3425 0 
L 2847 0 
L 2847 2094 
Q 2847 2600 2669 2842 
Q 2491 3084 2119 3084 
Q 1678 3084 1418 2786 
Q 1159 2488 1159 1978 
L 1159 0 
L 581 0 
L 581 3500 
L 1159 3500 
L 1159 2956 
Q 1356 3278 1631 3431 
Q 1906 3584 2284 3584 
Q 2666 3584 2933 3390 
Q 3200 3197 3328 2828 
z
" transform="scale(0.015625)"/>
       <path id="DejaVuSans-6c" d="M 603 4863 
L 1178 4863 
L 1178 0 
L 603 0 
L 603 4863 
z
" transform="scale(0.015625)"/>
       <path id="DejaVuSans-61" d="M 2194 1759 
Q 1497 1759 1228 1600 
Q 959 1441 959 1056 
Q 959 750 1161 570 
Q 1363 391 1709 391 
Q 2188 391 2477 730 
Q 2766 1069 2766 1631 
L 2766 1759 
L 2194 1759 
z
M 3341 1997 
L 3341 0 
L 2766 0 
L 2766 531 
Q 2569 213 2275 61 
Q 1981 -91 1556 -91 
Q 1019 -91 701 211 
Q 384 513 384 1019 
Q 384 1609 779 1909 
Q 1175 2209 1959 2209 
L 2766 2209 
L 2766 2266 
Q 2766 2663 2505 2880 
Q 2244 3097 1772 3097 
Q 1472 3097 1187 3025 
Q 903 2953 641 2809 
L 641 3341 
Q 956 3463 1253 3523 
Q 1550 3584 1831 3584 
Q 2591 3584 2966 3190 
Q 3341 2797 3341 1997 
z
" transform="scale(0.015625)"/>
       <path id="DejaVuSans-68" d="M 3513 2113 
L 3513 0 
L 2938 0 
L 2938 2094 
Q 2938 2591 2744 2837 
Q 2550 3084 2163 3084 
Q 1697 3084 1428 2787 
Q 1159 2491 1159 1978 
L 1159 0 
L 581 0 
L 581 4863 
L 1159 4863 
L 1159 2956 
Q 1366 3272 1645 3428 
Q 1925 3584 2291 3584 
Q 2894 3584 3203 3211 
Q 3513 2838 3513 2113 
z
" transform="scale(0.015625)"/>
       <path id="DejaVuSans-73" d="M 2834 3397 
L 2834 2853 
Q 2591 2978 2328 3040 
Q 2066 3103 1784 3103 
Q 1356 3103 1142 2972 
Q 928 2841 928 2578 
Q 928 2378 1081 2264 
Q 1234 2150 1697 2047 
L 1894 2003 
Q 2506 1872 2764 1633 
Q 3022 1394 3022 966 
Q 3022 478 2636 193 
Q 2250 -91 1575 -91 
Q 1294 -91 989 -36 
Q 684 19 347 128 
L 347 722 
Q 666 556 975 473 
Q 1284 391 1588 391 
Q 1994 391 2212 530 
Q 2431 669 2431 922 
Q 2431 1156 2273 1281 
Q 2116 1406 1581 1522 
L 1381 1569 
Q 847 1681 609 1914 
Q 372 2147 372 2553 
Q 372 3047 722 3315 
Q 1072 3584 1716 3584 
Q 2034 3584 2315 3537 
Q 2597 3491 2834 3397 
z
" transform="scale(0.015625)"/>
      </defs>
      <use xlink:href="#DejaVuSans-47"/>
      <use xlink:href="#DejaVuSans-65" transform="translate(77.490234 0)"/>
      <use xlink:href="#DejaVuSans-6d" transform="translate(139.013672 0)"/>
      <use xlink:href="#DejaVuSans-69" transform="translate(236.425781 0)"/>
      <use xlink:href="#DejaVuSans-64" transform="translate(264.208984 0)"/>
      <use xlink:href="#DejaVuSans-64" transform="translate(327.685547 0)"/>
      <use xlink:href="#DejaVuSans-65" transform="translate(391.162109 0)"/>
      <use xlink:href="#DejaVuSans-6c" transform="translate(452.685547 0)"/>
      <use xlink:href="#DejaVuSans-64" transform="translate(480.46875 0)"/>
      <use xlink:href="#DejaVuSans-65" transform="translate(543.945312 0)"/>
      <use xlink:href="#DejaVuSans-20" transform="translate(605.46875 0)"/>
      <use xlink:href="#DejaVuSans-28" transform="translate(637.255859 0)"/>
      <use xlink:href="#DejaVuSans-61" transform="translate(676.269531 0)"/>
      <use xlink:href="#DejaVuSans-6c" transform="translate(737.548828 0)"/>
      <use xlink:href="#DejaVuSans-6c" transform="translate(765.332031 0)"/>
      <use xlink:href="#DejaVuSans-65" transform="translate(793.115234 0)"/>
      <use xlink:href="#DejaVuSans-20" transform="translate(854.638672 0)"/>
      <use xlink:href="#DejaVuSans-68" transform="translate(886.425781 0)"/>
      <use xlink:href="#DejaVuSans-69" transform="translate(949.804688 0)"/>
      <use xlink:href="#DejaVuSans-76" transform="translate(977.587891 0)"/>
      <use xlink:href="#DejaVuSans-65" transform="translate(1036.767578 0)"/>
      <use xlink:href="#DejaVuSans-73" transform="translate(1098.291016 0)"/>
      <use xlink:href="#DejaVuSans-29" transform="translate(1150.390625 0)"/>
     </g>
    </g>
    <g id="patch_8">
     <path d="M 553.25625 72.834688 
L 573.25625 72.834688 
L 573.25625 65.834688 
L 553.25625 65.834688 
z
" style="fill: #808080; fill-opacity: 0.2; stroke: #808080; stroke-opacity: 0.2; stroke-linejoin: miter"/>
    </g>
    <g id="text_22">
     <!-- ±2 Std Dev -->
     <g transform="translate(581.25625 72.834688) scale(0.1 -0.1)">
      <defs>
       <path id="DejaVuSans-b1" d="M 2944 4013 
L 2944 2803 
L 4684 2803 
L 4684 2272 
L 2944 2272 
L 2944 1063 
L 2419 1063 
L 2419 2272 
L 678 2272 
L 678 2803 
L 2419 2803 
L 2419 4013 
L 2944 4013 
z
M 678 531 
L 4684 531 
L 4684 0 
L 678 0 
L 678 531 
z
" transform="scale(0.015625)"/>
       <path id="DejaVuSans-53" d="M 3425 4513 
L 3425 3897 
Q 3066 4069 2747 4153 
Q 2428 4238 2131 4238 
Q 1616 4238 1336 4038 
Q 1056 3838 1056 3469 
Q 1056 3159 1242 3001 
Q 1428 2844 1947 2747 
L 2328 2669 
Q 3034 2534 3370 2195 
Q 3706 1856 3706 1288 
Q 3706 609 3251 259 
Q 2797 -91 1919 -91 
Q 1588 -91 1214 -16 
Q 841 59 441 206 
L 441 856 
Q 825 641 1194 531 
Q 1563 422 1919 422 
Q 2459 422 2753 634 
Q 3047 847 3047 1241 
Q 3047 1584 2836 1778 
Q 2625 1972 2144 2069 
L 1759 2144 
Q 1053 2284 737 2584 
Q 422 2884 422 3419 
Q 422 4038 858 4394 
Q 1294 4750 2059 4750 
Q 2388 4750 2728 4690 
Q 3069 4631 3425 4513 
z
" transform="scale(0.015625)"/>
       <path id="DejaVuSans-74" d="M 1172 4494 
L 1172 3500 
L 2356 3500 
L 2356 3053 
L 1172 3053 
L 1172 1153 
Q 1172 725 1289 603 
Q 1406 481 1766 481 
L 2356 481 
L 2356 0 
L 1766 0 
Q 1100 0 847 248 
Q 594 497 594 1153 
L 594 3053 
L 172 3053 
L 172 3500 
L 594 3500 
L 594 4494 
L 1172 4494 
z
" transform="scale(0.015625)"/>
       <path id="DejaVuSans-44" d="M 1259 4147 
L 1259 519 
L 2022 519 
Q 2988 519 3436 956 
Q 3884 1394 3884 2338 
Q 3884 3275 3436 3711 
Q 2988 4147 2022 4147 
L 1259 4147 
z
M 628 4666 
L 1925 4666 
Q 3281 4666 3915 4102 
Q 4550 3538 4550 2338 
Q 4550 1131 3912 565 
Q 3275 0 1925 0 
L 628 0 
L 628 4666 
z
" transform="scale(0.015625)"/>
      </defs>
      <use xlink:href="#DejaVuSans-b1"/>
      <use xlink:href="#DejaVuSans-32" transform="translate(83.789062 0)"/>
      <use xlink:href="#DejaVuSans-20" transform="translate(147.412109 0)"/>
      <use xlink:href="#DejaVuSans-53" transform="translate(179.199219 0)"/>
      <use xlink:href="#DejaVuSans-74" transform="translate(242.675781 0)"/>
      <use xlink:href="#DejaVuSans-64" transform="translate(281.884766 0)"/>
      <use xlink:href="#DejaVuSans-20" transform="translate(345.361328 0)"/>
      <use xlink:href="#DejaVuSans-44" transform="translate(377.148438 0)"/>
      <use xlink:href="#DejaVuSans-65" transform="translate(454.150391 0)"/>
      <use xlink:href="#DejaVuSans-76" transform="translate(515.673828 0)"/>
     </g>
    </g>
   </g>
  </g>
 </g>
 <defs>
  <clipPath id="p0ab4d62076">
   <rect x="63.47" y="26.88" width="645.73" height="219.16"/>
  </clipPath>
 </defs>
</svg>
