<?xml version="1.0" encoding="utf-8" standalone="no"?>
<!DOCTYPE svg PUBLIC "-//W3C//DTD SVG 1.1//EN"
  "http://www.w3.org/Graphics/SVG/1.1/DTD/svg11.dtd">
<svg xmlns:xlink="http://www.w3.org/1999/xlink" width="720pt" height="288pt" viewBox="0 0 720 288" xmlns="http://www.w3.org/2000/svg" version="1.1">
 <metadata>
  <rdf:RDF xmlns:dc="http://purl.org/dc/elements/1.1/" xmlns:cc="http://creativecommons.org/ns#" xmlns:rdf="http://www.w3.org/1999/02/22-rdf-syntax-ns#">
   <cc:Work>
    <dc:type rdf:resource="http://purl.org/dc/dcmitype/StillImage"/>
    <dc:date>2025-05-19T04:24:25.399992</dc:date>
    <dc:format>image/svg+xml</dc:format>
    <dc:creator>
     <cc:Agent>
      <dc:title>Matplotlib v3.10.3, https://matplotlib.org/</dc:title>
     </cc:Agent>
    </dc:creator>
   </cc:Work>
  </rdf:RDF>
 </metadata>
 <defs>
  <style type="text/css">*{stroke-linejoin: round; stroke-linecap: butt}</style>
 </defs>
 <g id="figure_1">
  <g id="patch_1">
   <path d="M 0 288 
L 720 288 
L 720 0 
L 0 0 
z
" style="fill: #ffffff"/>
  </g>
  <g id="axes_1">
   <g id="patch_2">
    <path d="M 44.57 246.04 
L 695.835 246.04 
L 695.835 26.88 
L 44.57 26.88 
z
" style="fill: #ffffff"/>
   </g>
   <g id="FillBetweenPolyCollection_1">
    <defs>
     <path id="m04d9ab5248" d="M 74.172955 -251.158182 
L 74.172955 -66.024139 
L 77.992691 -66.777709 
L 81.812427 -72.161621 
L 85.632163 -78.650621 
L 89.451899 -87.634323 
L 93.271635 -94.078486 
L 97.091371 -106.286656 
L 100.911107 -114.760661 
L 104.730843 -113.601991 
L 108.550579 -105.235522 
L 112.370315 -90.103073 
L 116.190051 -85.537329 
L 120.009787 -76.446452 
L 123.829523 -62.375381 
L 127.64926 -51.921818 
L 131.468996 -57.261474 
L 135.288732 -67.64637 
L 139.108468 -84.408542 
L 142.928204 -95.603353 
L 146.74794 -91.326969 
L 150.567676 -108.806556 
L 154.387412 -107.160997 
L 158.207148 -111.598732 
L 162.026884 -112.320385 
L 165.84662 -111.812818 
L 169.666356 -92.661771 
L 173.486092 -105.578352 
L 177.305828 -110.68981 
L 181.125565 -123.37214 
L 184.945301 -126.431804 
L 188.765037 -126.532992 
L 192.584773 -126.640715 
L 196.404509 -128.855023 
L 200.224245 -130.707096 
L 204.043981 -135.591446 
L 207.863717 -129.067392 
L 211.683453 -125.984733 
L 215.503189 -119.145126 
L 219.322925 -125.120976 
L 223.142661 -132.587057 
L 226.962397 -119.4804 
L 230.782133 -125.549011 
L 234.60187 -126.57461 
L 238.421606 -131.449486 
L 242.241342 -123.888324 
L 246.061078 -124.317291 
L 249.880814 -127.587367 
L 253.70055 -112.555913 
L 257.520286 -121.957957 
L 261.340022 -122.749688 
L 265.159758 -123.021108 
L 268.979494 -122.846075 
L 272.79923 -120.83897 
L 276.618966 -113.142872 
L 280.438702 -120.832648 
L 284.258438 -123.430469 
L 288.078174 -119.652564 
L 291.897911 -115.01541 
L 295.717647 -111.662849 
L 299.537383 -107.742317 
L 303.357119 -112.015797 
L 307.176855 -105.792861 
L 310.996591 -107.93217 
L 314.816327 -97.86904 
L 318.636063 -100.816575 
L 322.455799 -102.826135 
L 326.275535 -106.775369 
L 330.095271 -103.850636 
L 333.915007 -104.365443 
L 337.734743 -108.228941 
L 341.554479 -105.373612 
L 345.374216 -104.845304 
L 349.193952 -116.734696 
L 353.013688 -108.454872 
L 356.833424 -117.876317 
L 360.65316 -117.415036 
L 364.472896 -120.970134 
L 368.292632 -127.414941 
L 372.112368 -124.817752 
L 375.932104 -123.404041 
L 379.75184 -122.689909 
L 383.571576 -116.363708 
L 387.391312 -132.470194 
L 391.211048 -126.691673 
L 395.030784 -122.266696 
L 398.850521 -126.657537 
L 402.670257 -125.766288 
L 406.489993 -121.682349 
L 410.309729 -120.431822 
L 414.129465 -123.670756 
L 417.949201 -127.308179 
L 421.768937 -120.461829 
L 425.588673 -122.323107 
L 429.408409 -125.775406 
L 433.228145 -123.469624 
L 437.047881 -124.57206 
L 440.867617 -118.458403 
L 444.687353 -115.841737 
L 448.507089 -116.670825 
L 452.326826 -118.820144 
L 456.146562 -112.957552 
L 459.966298 -123.528131 
L 463.786034 -120.201172 
L 467.60577 -118.828515 
L 471.425506 -110.20297 
L 475.245242 -114.940291 
L 479.064978 -116.461758 
L 482.884714 -110.084737 
L 486.70445 -109.534203 
L 490.524186 -113.560134 
L 494.343922 -114.286221 
L 498.163658 -110.062455 
L 501.983394 -119.389182 
L 505.80313 -122.092238 
L 509.622867 -115.484564 
L 513.442603 -114.682587 
L 517.262339 -118.271649 
L 521.082075 -114.049109 
L 524.901811 -117.309528 
L 528.721547 -112.05441 
L 532.541283 -113.951687 
L 536.361019 -113.695607 
L 540.180755 -110.986837 
L 544.000491 -112.503497 
L 547.820227 -115.378326 
L 551.639963 -112.831633 
L 555.459699 -121.087071 
L 559.279435 -128.756955 
L 563.099172 -122.585608 
L 566.918908 -133.442839 
L 570.738644 -137.130251 
L 574.55838 -129.845921 
L 578.378116 -121.862259 
L 582.197852 -126.654006 
L 586.017588 -124.380697 
L 589.837324 -126.04553 
L 593.65706 -119.790562 
L 597.476796 -129.065627 
L 601.296532 -126.480307 
L 605.116268 -124.200347 
L 608.936004 -129.648959 
L 612.75574 -127.284768 
L 616.575477 -121.886084 
L 620.395213 -126.21569 
L 624.214949 -124.256013 
L 628.034685 -127.287191 
L 631.854421 -128.551936 
L 635.674157 -110.54754 
L 639.493893 -135.380991 
L 643.313629 -121.047531 
L 647.133365 -139.84023 
L 650.953101 -112.197472 
L 650.953101 -189.566994 
L 650.953101 -189.566994 
L 647.133365 -147.074783 
L 643.313629 -169.277883 
L 639.493893 -168.941277 
L 635.674157 -175.976698 
L 631.854421 -162.341878 
L 628.034685 -165.129123 
L 624.214949 -160.8117 
L 620.395213 -170.565126 
L 616.575477 -172.621132 
L 612.75574 -165.151847 
L 608.936004 -167.740857 
L 605.116268 -175.09767 
L 601.296532 -167.986308 
L 597.476796 -161.584587 
L 593.65706 -170.819052 
L 589.837324 -166.228685 
L 586.017588 -170.167118 
L 582.197852 -164.970608 
L 578.378116 -171.102155 
L 574.55838 -162.671893 
L 570.738644 -159.203965 
L 566.918908 -164.880777 
L 563.099172 -172.449407 
L 559.279435 -168.145661 
L 555.459699 -168.872943 
L 551.639963 -180.335781 
L 547.820227 -184.427191 
L 544.000491 -188.27642 
L 540.180755 -191.39678 
L 536.361019 -192.829211 
L 532.541283 -186.483129 
L 528.721547 -185.355706 
L 524.901811 -188.46419 
L 521.082075 -187.055608 
L 517.262339 -185.573568 
L 513.442603 -193.588032 
L 509.622867 -188.756503 
L 505.80313 -189.223382 
L 501.983394 -180.396035 
L 498.163658 -178.537459 
L 494.343922 -186.107995 
L 490.524186 -179.343381 
L 486.70445 -173.851992 
L 482.884714 -171.833092 
L 479.064978 -168.971354 
L 475.245242 -173.192723 
L 471.425506 -170.459641 
L 467.60577 -162.727297 
L 463.786034 -161.59824 
L 459.966298 -161.032081 
L 456.146562 -165.028843 
L 452.326826 -159.995167 
L 448.507089 -167.848787 
L 444.687353 -174.686677 
L 440.867617 -158.770124 
L 437.047881 -163.134654 
L 433.228145 -167.34299 
L 429.408409 -169.422009 
L 425.588673 -153.223903 
L 421.768937 -166.121617 
L 417.949201 -164.275835 
L 414.129465 -164.218657 
L 410.309729 -169.974792 
L 406.489993 -170.673065 
L 402.670257 -169.349927 
L 398.850521 -166.306878 
L 395.030784 -174.75772 
L 391.211048 -165.176542 
L 387.391312 -164.391821 
L 383.571576 -179.483307 
L 379.75184 -167.919705 
L 375.932104 -165.419173 
L 372.112368 -164.614461 
L 368.292632 -163.478873 
L 364.472896 -170.634181 
L 360.65316 -174.920079 
L 356.833424 -172.347597 
L 353.013688 -192.913745 
L 349.193952 -181.24382 
L 345.374216 -192.821945 
L 341.554479 -184.119502 
L 337.734743 -183.903174 
L 333.915007 -189.938772 
L 330.095271 -185.256778 
L 326.275535 -183.144045 
L 322.455799 -196.471881 
L 318.636063 -196.938641 
L 314.816327 -189.543323 
L 310.996591 -163.683406 
L 307.176855 -183.334852 
L 303.357119 -170.514415 
L 299.537383 -180.025296 
L 295.717647 -176.957364 
L 291.897911 -170.681602 
L 288.078174 -176.285802 
L 284.258438 -166.539695 
L 280.438702 -171.837417 
L 276.618966 -184.500694 
L 272.79923 -173.417878 
L 268.979494 -169.563473 
L 265.159758 -167.635873 
L 261.340022 -169.494077 
L 257.520286 -174.075141 
L 253.70055 -179.711534 
L 249.880814 -168.137848 
L 246.061078 -175.907759 
L 242.241342 -171.268491 
L 238.421606 -170.196564 
L 234.60187 -172.087339 
L 230.782133 -170.176205 
L 226.962397 -174.586982 
L 223.142661 -157.454157 
L 219.322925 -167.478039 
L 215.503189 -171.180288 
L 211.683453 -165.998515 
L 207.863717 -162.679022 
L 204.043981 -158.475935 
L 200.224245 -157.960485 
L 196.404509 -158.91259 
L 192.584773 -161.742665 
L 188.765037 -166.350223 
L 184.945301 -163.277843 
L 181.125565 -168.847941 
L 177.305828 -175.49102 
L 173.486092 -179.91566 
L 169.666356 -186.485107 
L 165.84662 -167.949826 
L 162.026884 -172.676277 
L 158.207148 -170.52548 
L 154.387412 -173.548982 
L 150.567676 -171.774855 
L 146.74794 -175.754939 
L 142.928204 -173.325856 
L 139.108468 -184.825167 
L 135.288732 -199.171638 
L 131.468996 -200.177931 
L 127.64926 -197.925386 
L 123.829523 -194.556525 
L 120.009787 -186.027356 
L 116.190051 -175.799677 
L 112.370315 -167.782932 
L 108.550579 -169.560388 
L 104.730843 -157.418118 
L 100.911107 -162.552449 
L 97.091371 -172.589555 
L 93.271635 -189.23666 
L 89.451899 -208.314193 
L 85.632163 -223.266096 
L 81.812427 -237.875098 
L 77.992691 -240.883909 
L 74.172955 -251.158182 
z
" style="stroke: #808080; stroke-opacity: 0.2"/>
    </defs>
    <g clip-path="url(#pd0c44aa64d)">
     <use xlink:href="#m04d9ab5248" x="0" y="288" style="fill: #808080; fill-opacity: 0.2; stroke: #808080; stroke-opacity: 0.2"/>
    </g>
   </g>
   <g id="matplotlib.axis_1">
    <g id="xtick_1">
     <g id="line2d_1">
      <defs>
       <path id="m30a4d4b4cb" d="M 0 0 
L 0 3.5 
" style="stroke: #000000; stroke-width: 0.8"/>
      </defs>
      <g>
       <use xlink:href="#m30a4d4b4cb" x="135.288732" y="246.04" style="stroke: #000000; stroke-width: 0.8"/>
      </g>
     </g>
     <g id="text_1">
      <!-- 05-16 12 -->
      <g transform="translate(112.808263 260.638438) scale(0.1 -0.1)">
       <defs>
        <path id="DejaVuSans-30" d="M 2034 4250 
Q 1547 4250 1301 3770 
Q 1056 3291 1056 2328 
Q 1056 1369 1301 889 
Q 1547 409 2034 409 
Q 2525 409 2770 889 
Q 3016 1369 3016 2328 
Q 3016 3291 2770 3770 
Q 2525 4250 2034 4250 
z
M 2034 4750 
Q 2819 4750 3233 4129 
Q 3647 3509 3647 2328 
Q 3647 1150 3233 529 
Q 2819 -91 2034 -91 
Q 1250 -91 836 529 
Q 422 1150 422 2328 
Q 422 3509 836 4129 
Q 1250 4750 2034 4750 
z
" transform="scale(0.015625)"/>
        <path id="DejaVuSans-35" d="M 691 4666 
L 3169 4666 
L 3169 4134 
L 1269 4134 
L 1269 2991 
Q 1406 3038 1543 3061 
Q 1681 3084 1819 3084 
Q 2600 3084 3056 2656 
Q 3513 2228 3513 1497 
Q 3513 744 3044 326 
Q 2575 -91 1722 -91 
Q 1428 -91 1123 -41 
Q 819 9 494 109 
L 494 744 
Q 775 591 1075 516 
Q 1375 441 1709 441 
Q 2250 441 2565 725 
Q 2881 1009 2881 1497 
Q 2881 1984 2565 2268 
Q 2250 2553 1709 2553 
Q 1456 2553 1204 2497 
Q 953 2441 691 2322 
L 691 4666 
z
" transform="scale(0.015625)"/>
        <path id="DejaVuSans-2d" d="M 313 2009 
L 1997 2009 
L 1997 1497 
L 313 1497 
L 313 2009 
z
" transform="scale(0.015625)"/>
        <path id="DejaVuSans-31" d="M 794 531 
L 1825 531 
L 1825 4091 
L 703 3866 
L 703 4441 
L 1819 4666 
L 2450 4666 
L 2450 531 
L 3481 531 
L 3481 0 
L 794 0 
L 794 531 
z
" transform="scale(0.015625)"/>
        <path id="DejaVuSans-36" d="M 2113 2584 
Q 1688 2584 1439 2293 
Q 1191 2003 1191 1497 
Q 1191 994 1439 701 
Q 1688 409 2113 409 
Q 2538 409 2786 701 
Q 3034 994 3034 1497 
Q 3034 2003 2786 2293 
Q 2538 2584 2113 2584 
z
M 3366 4563 
L 3366 3988 
Q 3128 4100 2886 4159 
Q 2644 4219 2406 4219 
Q 1781 4219 1451 3797 
Q 1122 3375 1075 2522 
Q 1259 2794 1537 2939 
Q 1816 3084 2150 3084 
Q 2853 3084 3261 2657 
Q 3669 2231 3669 1497 
Q 3669 778 3244 343 
Q 2819 -91 2113 -91 
Q 1303 -91 875 529 
Q 447 1150 447 2328 
Q 447 3434 972 4092 
Q 1497 4750 2381 4750 
Q 2619 4750 2861 4703 
Q 3103 4656 3366 4563 
z
" transform="scale(0.015625)"/>
        <path id="DejaVuSans-20" transform="scale(0.015625)"/>
        <path id="DejaVuSans-32" d="M 1228 531 
L 3431 531 
L 3431 0 
L 469 0 
L 469 531 
Q 828 903 1448 1529 
Q 2069 2156 2228 2338 
Q 2531 2678 2651 2914 
Q 2772 3150 2772 3378 
Q 2772 3750 2511 3984 
Q 2250 4219 1831 4219 
Q 1534 4219 1204 4116 
Q 875 4013 500 3803 
L 500 4441 
Q 881 4594 1212 4672 
Q 1544 4750 1819 4750 
Q 2544 4750 2975 4387 
Q 3406 4025 3406 3419 
Q 3406 3131 3298 2873 
Q 3191 2616 2906 2266 
Q 2828 2175 2409 1742 
Q 1991 1309 1228 531 
z
" transform="scale(0.015625)"/>
       </defs>
       <use xlink:href="#DejaVuSans-30"/>
       <use xlink:href="#DejaVuSans-35" transform="translate(63.623047 0)"/>
       <use xlink:href="#DejaVuSans-2d" transform="translate(127.246094 0)"/>
       <use xlink:href="#DejaVuSans-31" transform="translate(163.330078 0)"/>
       <use xlink:href="#DejaVuSans-36" transform="translate(226.953125 0)"/>
       <use xlink:href="#DejaVuSans-20" transform="translate(290.576172 0)"/>
       <use xlink:href="#DejaVuSans-31" transform="translate(322.363281 0)"/>
       <use xlink:href="#DejaVuSans-32" transform="translate(385.986328 0)"/>
      </g>
     </g>
    </g>
    <g id="xtick_2">
     <g id="line2d_2">
      <g>
       <use xlink:href="#m30a4d4b4cb" x="226.962397" y="246.04" style="stroke: #000000; stroke-width: 0.8"/>
      </g>
     </g>
     <g id="text_2">
      <!-- 05-17 00 -->
      <g transform="translate(204.481929 260.638438) scale(0.1 -0.1)">
       <defs>
        <path id="DejaVuSans-37" d="M 525 4666 
L 3525 4666 
L 3525 4397 
L 1831 0 
L 1172 0 
L 2766 4134 
L 525 4134 
L 525 4666 
z
" transform="scale(0.015625)"/>
       </defs>
       <use xlink:href="#DejaVuSans-30"/>
       <use xlink:href="#DejaVuSans-35" transform="translate(63.623047 0)"/>
       <use xlink:href="#DejaVuSans-2d" transform="translate(127.246094 0)"/>
       <use xlink:href="#DejaVuSans-31" transform="translate(163.330078 0)"/>
       <use xlink:href="#DejaVuSans-37" transform="translate(226.953125 0)"/>
       <use xlink:href="#DejaVuSans-20" transform="translate(290.576172 0)"/>
       <use xlink:href="#DejaVuSans-30" transform="translate(322.363281 0)"/>
       <use xlink:href="#DejaVuSans-30" transform="translate(385.986328 0)"/>
      </g>
     </g>
    </g>
    <g id="xtick_3">
     <g id="line2d_3">
      <g>
       <use xlink:href="#m30a4d4b4cb" x="318.636063" y="246.04" style="stroke: #000000; stroke-width: 0.8"/>
      </g>
     </g>
     <g id="text_3">
      <!-- 05-17 12 -->
      <g transform="translate(296.155594 260.638438) scale(0.1 -0.1)">
       <use xlink:href="#DejaVuSans-30"/>
       <use xlink:href="#DejaVuSans-35" transform="translate(63.623047 0)"/>
       <use xlink:href="#DejaVuSans-2d" transform="translate(127.246094 0)"/>
       <use xlink:href="#DejaVuSans-31" transform="translate(163.330078 0)"/>
       <use xlink:href="#DejaVuSans-37" transform="translate(226.953125 0)"/>
       <use xlink:href="#DejaVuSans-20" transform="translate(290.576172 0)"/>
       <use xlink:href="#DejaVuSans-31" transform="translate(322.363281 0)"/>
       <use xlink:href="#DejaVuSans-32" transform="translate(385.986328 0)"/>
      </g>
     </g>
    </g>
    <g id="xtick_4">
     <g id="line2d_4">
      <g>
       <use xlink:href="#m30a4d4b4cb" x="410.309729" y="246.04" style="stroke: #000000; stroke-width: 0.8"/>
      </g>
     </g>
     <g id="text_4">
      <!-- 05-18 00 -->
      <g transform="translate(387.82926 260.638438) scale(0.1 -0.1)">
       <defs>
        <path id="DejaVuSans-38" d="M 2034 2216 
Q 1584 2216 1326 1975 
Q 1069 1734 1069 1313 
Q 1069 891 1326 650 
Q 1584 409 2034 409 
Q 2484 409 2743 651 
Q 3003 894 3003 1313 
Q 3003 1734 2745 1975 
Q 2488 2216 2034 2216 
z
M 1403 2484 
Q 997 2584 770 2862 
Q 544 3141 544 3541 
Q 544 4100 942 4425 
Q 1341 4750 2034 4750 
Q 2731 4750 3128 4425 
Q 3525 4100 3525 3541 
Q 3525 3141 3298 2862 
Q 3072 2584 2669 2484 
Q 3125 2378 3379 2068 
Q 3634 1759 3634 1313 
Q 3634 634 3220 271 
Q 2806 -91 2034 -91 
Q 1263 -91 848 271 
Q 434 634 434 1313 
Q 434 1759 690 2068 
Q 947 2378 1403 2484 
z
M 1172 3481 
Q 1172 3119 1398 2916 
Q 1625 2713 2034 2713 
Q 2441 2713 2670 2916 
Q 2900 3119 2900 3481 
Q 2900 3844 2670 4047 
Q 2441 4250 2034 4250 
Q 1625 4250 1398 4047 
Q 1172 3844 1172 3481 
z
" transform="scale(0.015625)"/>
       </defs>
       <use xlink:href="#DejaVuSans-30"/>
       <use xlink:href="#DejaVuSans-35" transform="translate(63.623047 0)"/>
       <use xlink:href="#DejaVuSans-2d" transform="translate(127.246094 0)"/>
       <use xlink:href="#DejaVuSans-31" transform="translate(163.330078 0)"/>
       <use xlink:href="#DejaVuSans-38" transform="translate(226.953125 0)"/>
       <use xlink:href="#DejaVuSans-20" transform="translate(290.576172 0)"/>
       <use xlink:href="#DejaVuSans-30" transform="translate(322.363281 0)"/>
       <use xlink:href="#DejaVuSans-30" transform="translate(385.986328 0)"/>
      </g>
     </g>
    </g>
    <g id="xtick_5">
     <g id="line2d_5">
      <g>
       <use xlink:href="#m30a4d4b4cb" x="501.983394" y="246.04" style="stroke: #000000; stroke-width: 0.8"/>
      </g>
     </g>
     <g id="text_5">
      <!-- 05-18 12 -->
      <g transform="translate(479.502926 260.638438) scale(0.1 -0.1)">
       <use xlink:href="#DejaVuSans-30"/>
       <use xlink:href="#DejaVuSans-35" transform="translate(63.623047 0)"/>
       <use xlink:href="#DejaVuSans-2d" transform="translate(127.246094 0)"/>
       <use xlink:href="#DejaVuSans-31" transform="translate(163.330078 0)"/>
       <use xlink:href="#DejaVuSans-38" transform="translate(226.953125 0)"/>
       <use xlink:href="#DejaVuSans-20" transform="translate(290.576172 0)"/>
       <use xlink:href="#DejaVuSans-31" transform="translate(322.363281 0)"/>
       <use xlink:href="#DejaVuSans-32" transform="translate(385.986328 0)"/>
      </g>
     </g>
    </g>
    <g id="xtick_6">
     <g id="line2d_6">
      <g>
       <use xlink:href="#m30a4d4b4cb" x="593.65706" y="246.04" style="stroke: #000000; stroke-width: 0.8"/>
      </g>
     </g>
     <g id="text_6">
      <!-- 05-19 00 -->
      <g transform="translate(571.176591 260.638438) scale(0.1 -0.1)">
       <defs>
        <path id="DejaVuSans-39" d="M 703 97 
L 703 672 
Q 941 559 1184 500 
Q 1428 441 1663 441 
Q 2288 441 2617 861 
Q 2947 1281 2994 2138 
Q 2813 1869 2534 1725 
Q 2256 1581 1919 1581 
Q 1219 1581 811 2004 
Q 403 2428 403 3163 
Q 403 3881 828 4315 
Q 1253 4750 1959 4750 
Q 2769 4750 3195 4129 
Q 3622 3509 3622 2328 
Q 3622 1225 3098 567 
Q 2575 -91 1691 -91 
Q 1453 -91 1209 -44 
Q 966 3 703 97 
z
M 1959 2075 
Q 2384 2075 2632 2365 
Q 2881 2656 2881 3163 
Q 2881 3666 2632 3958 
Q 2384 4250 1959 4250 
Q 1534 4250 1286 3958 
Q 1038 3666 1038 3163 
Q 1038 2656 1286 2365 
Q 1534 2075 1959 2075 
z
" transform="scale(0.015625)"/>
       </defs>
       <use xlink:href="#DejaVuSans-30"/>
       <use xlink:href="#DejaVuSans-35" transform="translate(63.623047 0)"/>
       <use xlink:href="#DejaVuSans-2d" transform="translate(127.246094 0)"/>
       <use xlink:href="#DejaVuSans-31" transform="translate(163.330078 0)"/>
       <use xlink:href="#DejaVuSans-39" transform="translate(226.953125 0)"/>
       <use xlink:href="#DejaVuSans-20" transform="translate(290.576172 0)"/>
       <use xlink:href="#DejaVuSans-30" transform="translate(322.363281 0)"/>
       <use xlink:href="#DejaVuSans-30" transform="translate(385.986328 0)"/>
      </g>
     </g>
    </g>
    <g id="xtick_7">
     <g id="line2d_7">
      <g>
       <use xlink:href="#m30a4d4b4cb" x="685.330726" y="246.04" style="stroke: #000000; stroke-width: 0.8"/>
      </g>
     </g>
     <g id="text_7">
      <!-- 05-19 12 -->
      <g transform="translate(662.850257 260.638438) scale(0.1 -0.1)">
       <use xlink:href="#DejaVuSans-30"/>
       <use xlink:href="#DejaVuSans-35" transform="translate(63.623047 0)"/>
       <use xlink:href="#DejaVuSans-2d" transform="translate(127.246094 0)"/>
       <use xlink:href="#DejaVuSans-31" transform="translate(163.330078 0)"/>
       <use xlink:href="#DejaVuSans-39" transform="translate(226.953125 0)"/>
       <use xlink:href="#DejaVuSans-20" transform="translate(290.576172 0)"/>
       <use xlink:href="#DejaVuSans-31" transform="translate(322.363281 0)"/>
       <use xlink:href="#DejaVuSans-32" transform="translate(385.986328 0)"/>
      </g>
     </g>
    </g>
    <g id="text_8">
     <!-- Tijd -->
     <g transform="translate(361.3525 274.316562) scale(0.1 -0.1)">
      <defs>
       <path id="DejaVuSans-54" d="M -19 4666 
L 3928 4666 
L 3928 4134 
L 2272 4134 
L 2272 0 
L 1638 0 
L 1638 4134 
L -19 4134 
L -19 4666 
z
" transform="scale(0.015625)"/>
       <path id="DejaVuSans-69" d="M 603 3500 
L 1178 3500 
L 1178 0 
L 603 0 
L 603 3500 
z
M 603 4863 
L 1178 4863 
L 1178 4134 
L 603 4134 
L 603 4863 
z
" transform="scale(0.015625)"/>
       <path id="DejaVuSans-6a" d="M 603 3500 
L 1178 3500 
L 1178 -63 
Q 1178 -731 923 -1031 
Q 669 -1331 103 -1331 
L -116 -1331 
L -116 -844 
L 38 -844 
Q 366 -844 484 -692 
Q 603 -541 603 -63 
L 603 3500 
z
M 603 4863 
L 1178 4863 
L 1178 4134 
L 603 4134 
L 603 4863 
z
" transform="scale(0.015625)"/>
       <path id="DejaVuSans-64" d="M 2906 2969 
L 2906 4863 
L 3481 4863 
L 3481 0 
L 2906 0 
L 2906 525 
Q 2725 213 2448 61 
Q 2172 -91 1784 -91 
Q 1150 -91 751 415 
Q 353 922 353 1747 
Q 353 2572 751 3078 
Q 1150 3584 1784 3584 
Q 2172 3584 2448 3432 
Q 2725 3281 2906 2969 
z
M 947 1747 
Q 947 1113 1208 752 
Q 1469 391 1925 391 
Q 2381 391 2643 752 
Q 2906 1113 2906 1747 
Q 2906 2381 2643 2742 
Q 2381 3103 1925 3103 
Q 1469 3103 1208 2742 
Q 947 2381 947 1747 
z
" transform="scale(0.015625)"/>
      </defs>
      <use xlink:href="#DejaVuSans-54"/>
      <use xlink:href="#DejaVuSans-69" transform="translate(57.958984 0)"/>
      <use xlink:href="#DejaVuSans-6a" transform="translate(85.742188 0)"/>
      <use xlink:href="#DejaVuSans-64" transform="translate(113.525391 0)"/>
     </g>
    </g>
   </g>
   <g id="matplotlib.axis_2">
    <g id="ytick_1">
     <g id="line2d_8">
      <defs>
       <path id="m05de0c4eab" d="M 0 0 
L -3.5 0 
" style="stroke: #000000; stroke-width: 0.8"/>
      </defs>
      <g>
       <use xlink:href="#m05de0c4eab" x="44.57" y="236.197016" style="stroke: #000000; stroke-width: 0.8"/>
      </g>
     </g>
     <g id="text_9">
      <!-- 30 -->
      <g transform="translate(24.845 239.996235) scale(0.1 -0.1)">
       <defs>
        <path id="DejaVuSans-33" d="M 2597 2516 
Q 3050 2419 3304 2112 
Q 3559 1806 3559 1356 
Q 3559 666 3084 287 
Q 2609 -91 1734 -91 
Q 1441 -91 1130 -33 
Q 819 25 488 141 
L 488 750 
Q 750 597 1062 519 
Q 1375 441 1716 441 
Q 2309 441 2620 675 
Q 2931 909 2931 1356 
Q 2931 1769 2642 2001 
Q 2353 2234 1838 2234 
L 1294 2234 
L 1294 2753 
L 1863 2753 
Q 2328 2753 2575 2939 
Q 2822 3125 2822 3475 
Q 2822 3834 2567 4026 
Q 2313 4219 1838 4219 
Q 1578 4219 1281 4162 
Q 984 4106 628 3988 
L 628 4550 
Q 988 4650 1302 4700 
Q 1616 4750 1894 4750 
Q 2613 4750 3031 4423 
Q 3450 4097 3450 3541 
Q 3450 3153 3228 2886 
Q 3006 2619 2597 2516 
z
" transform="scale(0.015625)"/>
       </defs>
       <use xlink:href="#DejaVuSans-33"/>
       <use xlink:href="#DejaVuSans-30" transform="translate(63.623047 0)"/>
      </g>
     </g>
    </g>
    <g id="ytick_2">
     <g id="line2d_9">
      <g>
       <use xlink:href="#m05de0c4eab" x="44.57" y="193.567006" style="stroke: #000000; stroke-width: 0.8"/>
      </g>
     </g>
     <g id="text_10">
      <!-- 40 -->
      <g transform="translate(24.845 197.366224) scale(0.1 -0.1)">
       <defs>
        <path id="DejaVuSans-34" d="M 2419 4116 
L 825 1625 
L 2419 1625 
L 2419 4116 
z
M 2253 4666 
L 3047 4666 
L 3047 1625 
L 3713 1625 
L 3713 1100 
L 3047 1100 
L 3047 0 
L 2419 0 
L 2419 1100 
L 313 1100 
L 313 1709 
L 2253 4666 
z
" transform="scale(0.015625)"/>
       </defs>
       <use xlink:href="#DejaVuSans-34"/>
       <use xlink:href="#DejaVuSans-30" transform="translate(63.623047 0)"/>
      </g>
     </g>
    </g>
    <g id="ytick_3">
     <g id="line2d_10">
      <g>
       <use xlink:href="#m05de0c4eab" x="44.57" y="150.936995" style="stroke: #000000; stroke-width: 0.8"/>
      </g>
     </g>
     <g id="text_11">
      <!-- 50 -->
      <g transform="translate(24.845 154.736214) scale(0.1 -0.1)">
       <use xlink:href="#DejaVuSans-35"/>
       <use xlink:href="#DejaVuSans-30" transform="translate(63.623047 0)"/>
      </g>
     </g>
    </g>
    <g id="ytick_4">
     <g id="line2d_11">
      <g>
       <use xlink:href="#m05de0c4eab" x="44.57" y="108.306984" style="stroke: #000000; stroke-width: 0.8"/>
      </g>
     </g>
     <g id="text_12">
      <!-- 60 -->
      <g transform="translate(24.845 112.106203) scale(0.1 -0.1)">
       <use xlink:href="#DejaVuSans-36"/>
       <use xlink:href="#DejaVuSans-30" transform="translate(63.623047 0)"/>
      </g>
     </g>
    </g>
    <g id="ytick_5">
     <g id="line2d_12">
      <g>
       <use xlink:href="#m05de0c4eab" x="44.57" y="65.676974" style="stroke: #000000; stroke-width: 0.8"/>
      </g>
     </g>
     <g id="text_13">
      <!-- 70 -->
      <g transform="translate(24.845 69.476192) scale(0.1 -0.1)">
       <use xlink:href="#DejaVuSans-37"/>
       <use xlink:href="#DejaVuSans-30" transform="translate(63.623047 0)"/>
      </g>
     </g>
    </g>
    <g id="text_14">
     <!-- (Rel.) Vochtigheid (%) -->
     <g transform="translate(18.765312 190.838125) rotate(-90) scale(0.1 -0.1)">
      <defs>
       <path id="DejaVuSans-28" d="M 1984 4856 
Q 1566 4138 1362 3434 
Q 1159 2731 1159 2009 
Q 1159 1288 1364 580 
Q 1569 -128 1984 -844 
L 1484 -844 
Q 1016 -109 783 600 
Q 550 1309 550 2009 
Q 550 2706 781 3412 
Q 1013 4119 1484 4856 
L 1984 4856 
z
" transform="scale(0.015625)"/>
       <path id="DejaVuSans-52" d="M 2841 2188 
Q 3044 2119 3236 1894 
Q 3428 1669 3622 1275 
L 4263 0 
L 3584 0 
L 2988 1197 
Q 2756 1666 2539 1819 
Q 2322 1972 1947 1972 
L 1259 1972 
L 1259 0 
L 628 0 
L 628 4666 
L 2053 4666 
Q 2853 4666 3247 4331 
Q 3641 3997 3641 3322 
Q 3641 2881 3436 2590 
Q 3231 2300 2841 2188 
z
M 1259 4147 
L 1259 2491 
L 2053 2491 
Q 2509 2491 2742 2702 
Q 2975 2913 2975 3322 
Q 2975 3731 2742 3939 
Q 2509 4147 2053 4147 
L 1259 4147 
z
" transform="scale(0.015625)"/>
       <path id="DejaVuSans-65" d="M 3597 1894 
L 3597 1613 
L 953 1613 
Q 991 1019 1311 708 
Q 1631 397 2203 397 
Q 2534 397 2845 478 
Q 3156 559 3463 722 
L 3463 178 
Q 3153 47 2828 -22 
Q 2503 -91 2169 -91 
Q 1331 -91 842 396 
Q 353 884 353 1716 
Q 353 2575 817 3079 
Q 1281 3584 2069 3584 
Q 2775 3584 3186 3129 
Q 3597 2675 3597 1894 
z
M 3022 2063 
Q 3016 2534 2758 2815 
Q 2500 3097 2075 3097 
Q 1594 3097 1305 2825 
Q 1016 2553 972 2059 
L 3022 2063 
z
" transform="scale(0.015625)"/>
       <path id="DejaVuSans-6c" d="M 603 4863 
L 1178 4863 
L 1178 0 
L 603 0 
L 603 4863 
z
" transform="scale(0.015625)"/>
       <path id="DejaVuSans-2e" d="M 684 794 
L 1344 794 
L 1344 0 
L 684 0 
L 684 794 
z
" transform="scale(0.015625)"/>
       <path id="DejaVuSans-29" d="M 513 4856 
L 1013 4856 
Q 1481 4119 1714 3412 
Q 1947 2706 1947 2009 
Q 1947 1309 1714 600 
Q 1481 -109 1013 -844 
L 513 -844 
Q 928 -128 1133 580 
Q 1338 1288 1338 2009 
Q 1338 2731 1133 3434 
Q 928 4138 513 4856 
z
" transform="scale(0.015625)"/>
       <path id="DejaVuSans-56" d="M 1831 0 
L 50 4666 
L 709 4666 
L 2188 738 
L 3669 4666 
L 4325 4666 
L 2547 0 
L 1831 0 
z
" transform="scale(0.015625)"/>
       <path id="DejaVuSans-6f" d="M 1959 3097 
Q 1497 3097 1228 2736 
Q 959 2375 959 1747 
Q 959 1119 1226 758 
Q 1494 397 1959 397 
Q 2419 397 2687 759 
Q 2956 1122 2956 1747 
Q 2956 2369 2687 2733 
Q 2419 3097 1959 3097 
z
M 1959 3584 
Q 2709 3584 3137 3096 
Q 3566 2609 3566 1747 
Q 3566 888 3137 398 
Q 2709 -91 1959 -91 
Q 1206 -91 779 398 
Q 353 888 353 1747 
Q 353 2609 779 3096 
Q 1206 3584 1959 3584 
z
" transform="scale(0.015625)"/>
       <path id="DejaVuSans-63" d="M 3122 3366 
L 3122 2828 
Q 2878 2963 2633 3030 
Q 2388 3097 2138 3097 
Q 1578 3097 1268 2742 
Q 959 2388 959 1747 
Q 959 1106 1268 751 
Q 1578 397 2138 397 
Q 2388 397 2633 464 
Q 2878 531 3122 666 
L 3122 134 
Q 2881 22 2623 -34 
Q 2366 -91 2075 -91 
Q 1284 -91 818 406 
Q 353 903 353 1747 
Q 353 2603 823 3093 
Q 1294 3584 2113 3584 
Q 2378 3584 2631 3529 
Q 2884 3475 3122 3366 
z
" transform="scale(0.015625)"/>
       <path id="DejaVuSans-68" d="M 3513 2113 
L 3513 0 
L 2938 0 
L 2938 2094 
Q 2938 2591 2744 2837 
Q 2550 3084 2163 3084 
Q 1697 3084 1428 2787 
Q 1159 2491 1159 1978 
L 1159 0 
L 581 0 
L 581 4863 
L 1159 4863 
L 1159 2956 
Q 1366 3272 1645 3428 
Q 1925 3584 2291 3584 
Q 2894 3584 3203 3211 
Q 3513 2838 3513 2113 
z
" transform="scale(0.015625)"/>
       <path id="DejaVuSans-74" d="M 1172 4494 
L 1172 3500 
L 2356 3500 
L 2356 3053 
L 1172 3053 
L 1172 1153 
Q 1172 725 1289 603 
Q 1406 481 1766 481 
L 2356 481 
L 2356 0 
L 1766 0 
Q 1100 0 847 248 
Q 594 497 594 1153 
L 594 3053 
L 172 3053 
L 172 3500 
L 594 3500 
L 594 4494 
L 1172 4494 
z
" transform="scale(0.015625)"/>
       <path id="DejaVuSans-67" d="M 2906 1791 
Q 2906 2416 2648 2759 
Q 2391 3103 1925 3103 
Q 1463 3103 1205 2759 
Q 947 2416 947 1791 
Q 947 1169 1205 825 
Q 1463 481 1925 481 
Q 2391 481 2648 825 
Q 2906 1169 2906 1791 
z
M 3481 434 
Q 3481 -459 3084 -895 
Q 2688 -1331 1869 -1331 
Q 1566 -1331 1297 -1286 
Q 1028 -1241 775 -1147 
L 775 -588 
Q 1028 -725 1275 -790 
Q 1522 -856 1778 -856 
Q 2344 -856 2625 -561 
Q 2906 -266 2906 331 
L 2906 616 
Q 2728 306 2450 153 
Q 2172 0 1784 0 
Q 1141 0 747 490 
Q 353 981 353 1791 
Q 353 2603 747 3093 
Q 1141 3584 1784 3584 
Q 2172 3584 2450 3431 
Q 2728 3278 2906 2969 
L 2906 3500 
L 3481 3500 
L 3481 434 
z
" transform="scale(0.015625)"/>
       <path id="DejaVuSans-25" d="M 4653 2053 
Q 4381 2053 4226 1822 
Q 4072 1591 4072 1178 
Q 4072 772 4226 539 
Q 4381 306 4653 306 
Q 4919 306 5073 539 
Q 5228 772 5228 1178 
Q 5228 1588 5073 1820 
Q 4919 2053 4653 2053 
z
M 4653 2450 
Q 5147 2450 5437 2106 
Q 5728 1763 5728 1178 
Q 5728 594 5436 251 
Q 5144 -91 4653 -91 
Q 4153 -91 3862 251 
Q 3572 594 3572 1178 
Q 3572 1766 3864 2108 
Q 4156 2450 4653 2450 
z
M 1428 4353 
Q 1159 4353 1004 4120 
Q 850 3888 850 3481 
Q 850 3069 1003 2837 
Q 1156 2606 1428 2606 
Q 1700 2606 1854 2837 
Q 2009 3069 2009 3481 
Q 2009 3884 1853 4118 
Q 1697 4353 1428 4353 
z
M 4250 4750 
L 4750 4750 
L 1831 -91 
L 1331 -91 
L 4250 4750 
z
M 1428 4750 
Q 1922 4750 2215 4408 
Q 2509 4066 2509 3481 
Q 2509 2891 2217 2550 
Q 1925 2209 1428 2209 
Q 931 2209 642 2551 
Q 353 2894 353 3481 
Q 353 4063 643 4406 
Q 934 4750 1428 4750 
z
" transform="scale(0.015625)"/>
      </defs>
      <use xlink:href="#DejaVuSans-28"/>
      <use xlink:href="#DejaVuSans-52" transform="translate(39.013672 0)"/>
      <use xlink:href="#DejaVuSans-65" transform="translate(103.996094 0)"/>
      <use xlink:href="#DejaVuSans-6c" transform="translate(165.519531 0)"/>
      <use xlink:href="#DejaVuSans-2e" transform="translate(193.302734 0)"/>
      <use xlink:href="#DejaVuSans-29" transform="translate(225.089844 0)"/>
      <use xlink:href="#DejaVuSans-20" transform="translate(264.103516 0)"/>
      <use xlink:href="#DejaVuSans-56" transform="translate(295.890625 0)"/>
      <use xlink:href="#DejaVuSans-6f" transform="translate(356.548828 0)"/>
      <use xlink:href="#DejaVuSans-63" transform="translate(417.730469 0)"/>
      <use xlink:href="#DejaVuSans-68" transform="translate(472.710938 0)"/>
      <use xlink:href="#DejaVuSans-74" transform="translate(536.089844 0)"/>
      <use xlink:href="#DejaVuSans-69" transform="translate(575.298828 0)"/>
      <use xlink:href="#DejaVuSans-67" transform="translate(603.082031 0)"/>
      <use xlink:href="#DejaVuSans-68" transform="translate(666.558594 0)"/>
      <use xlink:href="#DejaVuSans-65" transform="translate(729.9375 0)"/>
      <use xlink:href="#DejaVuSans-69" transform="translate(791.460938 0)"/>
      <use xlink:href="#DejaVuSans-64" transform="translate(819.244141 0)"/>
      <use xlink:href="#DejaVuSans-20" transform="translate(882.720703 0)"/>
      <use xlink:href="#DejaVuSans-28" transform="translate(914.507812 0)"/>
      <use xlink:href="#DejaVuSans-25" transform="translate(953.521484 0)"/>
      <use xlink:href="#DejaVuSans-29" transform="translate(1048.541016 0)"/>
     </g>
    </g>
   </g>
   <g id="line2d_13">
    <path d="M 74.172955 147.100294 
L 77.992691 155.910496 
L 81.812427 159.605097 
L 85.632163 154.063196 
L 89.451899 154.347396 
L 93.271635 155.484196 
L 97.091371 145.395094 
L 100.911107 150.936995 
L 104.730843 151.363295 
L 108.550579 137.863792 
L 112.370315 138.147992 
L 116.190051 141.132093 
L 120.009787 136.442791 
L 123.829523 137.153292 
L 127.64926 133.458691 
L 131.468996 127.916789 
L 135.288732 130.04829 
L 139.108468 126.922089 
L 142.928204 133.032391 
L 146.74794 132.03769 
L 150.567676 136.300691 
L 154.387412 139.426892 
L 158.207148 141.274193 
L 162.026884 141.558393 
L 165.84662 144.116193 
L 169.666356 146.816094 
L 173.486092 148.379194 
L 177.305828 149.800195 
L 181.125565 152.357995 
L 184.945301 152.357995 
L 188.765037 154.773696 
L 192.584773 158.184097 
L 196.404509 150.936995 
L 200.224245 151.363295 
L 204.043981 142.837293 
L 207.863717 149.231795 
L 211.683453 147.242394 
L 215.503189 146.816094 
L 219.322925 145.110894 
L 223.142661 145.252994 
L 226.962397 146.389794 
L 230.782133 143.547793 
L 234.60187 140.137392 
L 238.421606 142.979393 
L 242.241342 137.153292 
L 246.061078 138.290092 
L 249.880814 142.268893 
L 253.70055 144.400393 
L 257.520286 144.542493 
L 261.340022 151.221195 
L 265.159758 151.789595 
L 268.979494 148.805494 
L 272.79923 148.805494 
L 276.618966 149.942295 
L 280.438702 138.858492 
L 284.258438 132.46399 
L 288.078174 132.32189 
L 291.897911 127.490489 
L 295.717647 122.943288 
L 299.537383 122.516988 
L 303.357119 121.735438 
L 307.176855 114.275186 
L 314.816327 111.504235 
L 318.636063 108.733284 
L 322.455799 112.143685 
L 326.275535 110.651635 
L 330.095271 110.296385 
L 333.915007 111.859485 
L 337.734743 113.848886 
L 341.554479 118.822387 
L 349.193952 125.927389 
L 356.833424 138.432192 
L 360.65316 135.448091 
L 364.472896 134.453391 
L 368.292632 133.884991 
L 372.112368 143.974093 
L 375.932104 136.442791 
L 379.75184 144.542493 
L 383.571576 142.268893 
L 387.391312 138.574292 
L 391.211048 135.448091 
L 395.030784 139.142692 
L 398.850521 140.421592 
L 402.670257 134.879691 
L 406.489993 136.016491 
L 410.309729 136.158591 
L 414.129465 133.458691 
L 417.949201 140.847893 
L 421.768937 136.726991 
L 429.408409 135.163891 
L 433.228145 136.300691 
L 437.047881 134.524441 
L 440.867617 143.689893 
L 444.687353 144.542493 
L 448.507089 140.705792 
L 452.326826 147.952894 
L 456.146562 150.794895 
L 459.966298 145.395094 
L 463.786034 143.405693 
L 467.60577 141.132093 
L 471.425506 134.027091 
L 475.245242 128.91149 
L 479.064978 131.75349 
L 482.884714 124.790588 
L 486.70445 121.380188 
L 490.524186 115.696186 
L 494.343922 116.548786 
L 498.163658 116.548786 
L 505.80313 109.870085 
L 509.622867 111.859485 
L 513.442603 110.438485 
L 517.262339 107.738584 
L 521.082075 107.738584 
L 524.901811 108.449084 
L 528.721547 111.433185 
L 532.541283 109.017485 
L 536.361019 112.001585 
L 540.180755 111.291085 
L 544.000491 117.401387 
L 547.820227 119.248687 
L 551.639963 124.364288 
L 555.459699 130.61669 
L 559.279435 134.595491 
L 563.099172 128.200989 
L 566.918908 134.027091 
L 570.738644 132.32189 
L 574.55838 135.874391 
L 578.378116 139.711092 
L 582.197852 132.74819 
L 586.017588 133.458691 
L 589.837324 129.47989 
L 593.65706 138.858492 
L 597.476796 141.274193 
L 601.296532 140.705792 
L 605.116268 133.032391 
L 612.75574 136.442791 
L 616.575477 139.711092 
L 620.395213 139.426892 
L 624.214949 141.558393 
L 628.034685 144.968794 
L 628.034685 144.968794 
" clip-path="url(#pd0c44aa64d)" style="fill: none; stroke: #1f77b4; stroke-width: 2; stroke-linecap: square"/>
   </g>
   <g id="line2d_14">
    <path d="M 74.172955 129.40884 
L 77.992691 134.169191 
L 81.812427 132.981641 
L 85.632163 137.041642 
L 89.451899 140.025742 
L 93.271635 146.342427 
L 97.091371 148.561894 
L 100.911107 149.343445 
L 104.730843 152.489945 
L 108.550579 150.602045 
L 112.370315 159.056997 
L 116.190051 157.331497 
L 120.009787 156.763096 
L 123.829523 159.534047 
L 127.64926 163.076398 
L 131.468996 159.280297 
L 135.288732 154.590996 
L 139.108468 153.383146 
L 142.928204 153.535396 
L 146.74794 154.459046 
L 150.567676 147.709294 
L 154.387412 147.645011 
L 158.207148 146.937894 
L 162.026884 145.501669 
L 165.84662 148.118678 
L 169.666356 148.426561 
L 173.486092 145.252994 
L 177.305828 144.909585 
L 181.125565 141.889959 
L 184.945301 143.145176 
L 188.765037 141.558393 
L 192.584773 143.80831 
L 196.404509 144.116193 
L 200.224245 143.66621 
L 204.043981 140.966309 
L 207.863717 142.126793 
L 211.683453 142.008376 
L 215.503189 142.837293 
L 219.322925 141.700493 
L 223.142661 142.979393 
L 226.962397 140.966309 
L 230.782133 140.137392 
L 238.421606 137.176975 
L 242.241342 140.421592 
L 246.061078 137.887475 
L 249.880814 140.137392 
L 253.70055 141.866276 
L 257.520286 139.983451 
L 261.340022 141.878118 
L 265.159758 142.67151 
L 272.79923 140.871576 
L 276.618966 139.178217 
L 280.438702 141.664968 
L 284.258438 143.014918 
L 288.078174 140.030817 
L 291.897911 145.151494 
L 295.717647 143.689893 
L 299.537383 144.116193 
L 303.357119 146.734894 
L 307.176855 143.436143 
L 310.996591 152.192212 
L 314.816327 144.293818 
L 318.636063 139.122392 
L 322.455799 138.350992 
L 326.275535 143.040293 
L 330.095271 143.446293 
L 333.915007 140.847893 
L 337.734743 141.933943 
L 341.554479 143.253443 
L 345.374216 139.166375 
L 349.193952 139.010742 
L 353.013688 137.315692 
L 356.833424 142.888043 
L 360.65316 141.832443 
L 368.292632 142.553093 
L 372.112368 143.283893 
L 375.932104 143.588393 
L 379.75184 142.695193 
L 383.571576 140.076492 
L 387.391312 139.568992 
L 391.211048 142.065893 
L 395.030784 139.487792 
L 398.850521 141.517793 
L 402.670257 140.441892 
L 406.489993 141.822293 
L 410.309729 142.796693 
L 414.129465 144.055293 
L 417.949201 142.207993 
L 421.768937 144.708277 
L 425.588673 150.226495 
L 429.408409 140.401292 
L 433.228145 142.593693 
L 437.047881 144.146643 
L 440.867617 149.385736 
L 444.687353 142.735793 
L 448.507089 145.740194 
L 452.326826 148.592344 
L 456.146562 149.006803 
L 459.966298 145.719894 
L 463.786034 147.100294 
L 467.60577 147.222094 
L 471.425506 147.668694 
L 475.245242 143.933493 
L 479.064978 145.283444 
L 482.884714 147.041086 
L 486.70445 146.306902 
L 490.524186 141.548243 
L 494.343922 137.802892 
L 498.163658 143.700043 
L 505.80313 132.34219 
L 509.622867 135.879466 
L 513.442603 133.864691 
L 517.262339 136.077391 
L 521.082075 137.447642 
L 524.901811 135.113141 
L 528.721547 139.294942 
L 532.541283 137.782592 
L 536.361019 134.737591 
L 540.180755 136.808191 
L 544.000491 137.610042 
L 547.820227 138.097242 
L 551.639963 141.416293 
L 555.459699 143.019993 
L 559.279435 139.548692 
L 563.099172 140.482492 
L 566.918908 138.838192 
L 570.738644 139.832892 
L 574.55838 141.741093 
L 578.378116 141.517793 
L 582.197852 142.187693 
L 586.017588 140.726092 
L 589.837324 141.862893 
L 593.65706 142.695193 
L 597.476796 142.674893 
L 601.296532 140.766692 
L 605.116268 138.350992 
L 608.936004 139.305092 
L 612.75574 141.781693 
L 620.395213 139.609592 
L 624.214949 145.466144 
L 628.034685 141.791843 
L 631.854421 142.553093 
L 635.674157 144.737881 
L 639.493893 135.838866 
L 643.313629 142.837293 
L 647.133365 144.542493 
L 650.953101 137.117767 
L 654.772837 136.016491 
L 658.592573 124.719538 
L 662.412309 143.405693 
L 666.232045 131.32719 
L 666.232045 131.32719 
" clip-path="url(#pd0c44aa64d)" style="fill: none; stroke-dasharray: 5.55,2.4; stroke-dashoffset: 0; stroke: #808080; stroke-width: 1.5"/>
   </g>
   <g id="patch_3">
    <path d="M 44.57 246.04 
L 44.57 26.88 
" style="fill: none; stroke: #000000; stroke-width: 0.8; stroke-linejoin: miter; stroke-linecap: square"/>
   </g>
   <g id="patch_4">
    <path d="M 695.835 246.04 
L 695.835 26.88 
" style="fill: none; stroke: #000000; stroke-width: 0.8; stroke-linejoin: miter; stroke-linecap: square"/>
   </g>
   <g id="patch_5">
    <path d="M 44.57 246.04 
L 695.835 246.04 
" style="fill: none; stroke: #000000; stroke-width: 0.8; stroke-linejoin: miter; stroke-linecap: square"/>
   </g>
   <g id="patch_6">
    <path d="M 44.57 26.88 
L 695.835 26.88 
" style="fill: none; stroke: #000000; stroke-width: 0.8; stroke-linejoin: miter; stroke-linecap: square"/>
   </g>
   <g id="text_15">
    <!-- Luchtvochtigheid - v001/c00001/d031 -->
    <g transform="translate(255.912812 20.88) scale(0.12 -0.12)">
     <defs>
      <path id="DejaVuSans-4c" d="M 628 4666 
L 1259 4666 
L 1259 531 
L 3531 531 
L 3531 0 
L 628 0 
L 628 4666 
z
" transform="scale(0.015625)"/>
      <path id="DejaVuSans-75" d="M 544 1381 
L 544 3500 
L 1119 3500 
L 1119 1403 
Q 1119 906 1312 657 
Q 1506 409 1894 409 
Q 2359 409 2629 706 
Q 2900 1003 2900 1516 
L 2900 3500 
L 3475 3500 
L 3475 0 
L 2900 0 
L 2900 538 
Q 2691 219 2414 64 
Q 2138 -91 1772 -91 
Q 1169 -91 856 284 
Q 544 659 544 1381 
z
M 1991 3584 
L 1991 3584 
z
" transform="scale(0.015625)"/>
      <path id="DejaVuSans-76" d="M 191 3500 
L 800 3500 
L 1894 563 
L 2988 3500 
L 3597 3500 
L 2284 0 
L 1503 0 
L 191 3500 
z
" transform="scale(0.015625)"/>
      <path id="DejaVuSans-2f" d="M 1625 4666 
L 2156 4666 
L 531 -594 
L 0 -594 
L 1625 4666 
z
" transform="scale(0.015625)"/>
     </defs>
     <use xlink:href="#DejaVuSans-4c"/>
     <use xlink:href="#DejaVuSans-75" transform="translate(53.962891 0)"/>
     <use xlink:href="#DejaVuSans-63" transform="translate(117.341797 0)"/>
     <use xlink:href="#DejaVuSans-68" transform="translate(172.322266 0)"/>
     <use xlink:href="#DejaVuSans-74" transform="translate(235.701172 0)"/>
     <use xlink:href="#DejaVuSans-76" transform="translate(274.910156 0)"/>
     <use xlink:href="#DejaVuSans-6f" transform="translate(334.089844 0)"/>
     <use xlink:href="#DejaVuSans-63" transform="translate(395.271484 0)"/>
     <use xlink:href="#DejaVuSans-68" transform="translate(450.251953 0)"/>
     <use xlink:href="#DejaVuSans-74" transform="translate(513.630859 0)"/>
     <use xlink:href="#DejaVuSans-69" transform="translate(552.839844 0)"/>
     <use xlink:href="#DejaVuSans-67" transform="translate(580.623047 0)"/>
     <use xlink:href="#DejaVuSans-68" transform="translate(644.099609 0)"/>
     <use xlink:href="#DejaVuSans-65" transform="translate(707.478516 0)"/>
     <use xlink:href="#DejaVuSans-69" transform="translate(769.001953 0)"/>
     <use xlink:href="#DejaVuSans-64" transform="translate(796.785156 0)"/>
     <use xlink:href="#DejaVuSans-20" transform="translate(860.261719 0)"/>
     <use xlink:href="#DejaVuSans-2d" transform="translate(892.048828 0)"/>
     <use xlink:href="#DejaVuSans-20" transform="translate(928.132812 0)"/>
     <use xlink:href="#DejaVuSans-76" transform="translate(959.919922 0)"/>
     <use xlink:href="#DejaVuSans-30" transform="translate(1019.099609 0)"/>
     <use xlink:href="#DejaVuSans-30" transform="translate(1082.722656 0)"/>
     <use xlink:href="#DejaVuSans-31" transform="translate(1146.345703 0)"/>
     <use xlink:href="#DejaVuSans-2f" transform="translate(1209.96875 0)"/>
     <use xlink:href="#DejaVuSans-63" transform="translate(1243.660156 0)"/>
     <use xlink:href="#DejaVuSans-30" transform="translate(1298.640625 0)"/>
     <use xlink:href="#DejaVuSans-30" transform="translate(1362.263672 0)"/>
     <use xlink:href="#DejaVuSans-30" transform="translate(1425.886719 0)"/>
     <use xlink:href="#DejaVuSans-30" transform="translate(1489.509766 0)"/>
     <use xlink:href="#DejaVuSans-31" transform="translate(1553.132812 0)"/>
     <use xlink:href="#DejaVuSans-2f" transform="translate(1616.755859 0)"/>
     <use xlink:href="#DejaVuSans-64" transform="translate(1650.447266 0)"/>
     <use xlink:href="#DejaVuSans-30" transform="translate(1713.923828 0)"/>
     <use xlink:href="#DejaVuSans-33" transform="translate(1777.546875 0)"/>
     <use xlink:href="#DejaVuSans-31" transform="translate(1841.169922 0)"/>
    </g>
   </g>
   <g id="legend_1">
    <g id="patch_7">
     <path d="M 537.89125 78.914375 
L 688.835 78.914375 
Q 690.835 78.914375 690.835 76.914375 
L 690.835 33.88 
Q 690.835 31.88 688.835 31.88 
L 537.89125 31.88 
Q 535.89125 31.88 535.89125 33.88 
L 535.89125 76.914375 
Q 535.89125 78.914375 537.89125 78.914375 
z
" style="fill: #ffffff; opacity: 0.8; stroke: #cccccc; stroke-linejoin: miter"/>
    </g>
    <g id="line2d_15">
     <path d="M 539.89125 39.978438 
L 549.89125 39.978438 
L 559.89125 39.978438 
" style="fill: none; stroke: #1f77b4; stroke-width: 2; stroke-linecap: square"/>
    </g>
    <g id="text_16">
     <!-- Hive -->
     <g transform="translate(567.89125 43.478438) scale(0.1 -0.1)">
      <defs>
       <path id="DejaVuSans-48" d="M 628 4666 
L 1259 4666 
L 1259 2753 
L 3553 2753 
L 3553 4666 
L 4184 4666 
L 4184 0 
L 3553 0 
L 3553 2222 
L 1259 2222 
L 1259 0 
L 628 0 
L 628 4666 
z
" transform="scale(0.015625)"/>
      </defs>
      <use xlink:href="#DejaVuSans-48"/>
      <use xlink:href="#DejaVuSans-69" transform="translate(75.195312 0)"/>
      <use xlink:href="#DejaVuSans-76" transform="translate(102.978516 0)"/>
      <use xlink:href="#DejaVuSans-65" transform="translate(162.158203 0)"/>
     </g>
    </g>
    <g id="line2d_16">
     <path d="M 539.89125 54.656563 
L 549.89125 54.656563 
L 559.89125 54.656563 
" style="fill: none; stroke-dasharray: 5.55,2.4; stroke-dashoffset: 0; stroke: #808080; stroke-width: 1.5"/>
    </g>
    <g id="text_17">
     <!-- Gemiddelde (alle hives) -->
     <g transform="translate(567.89125 58.156563) scale(0.1 -0.1)">
      <defs>
       <path id="DejaVuSans-47" d="M 3809 666 
L 3809 1919 
L 2778 1919 
L 2778 2438 
L 4434 2438 
L 4434 434 
Q 4069 175 3628 42 
Q 3188 -91 2688 -91 
Q 1594 -91 976 548 
Q 359 1188 359 2328 
Q 359 3472 976 4111 
Q 1594 4750 2688 4750 
Q 3144 4750 3555 4637 
Q 3966 4525 4313 4306 
L 4313 3634 
Q 3963 3931 3569 4081 
Q 3175 4231 2741 4231 
Q 1884 4231 1454 3753 
Q 1025 3275 1025 2328 
Q 1025 1384 1454 906 
Q 1884 428 2741 428 
Q 3075 428 3337 486 
Q 3600 544 3809 666 
z
" transform="scale(0.015625)"/>
       <path id="DejaVuSans-6d" d="M 3328 2828 
Q 3544 3216 3844 3400 
Q 4144 3584 4550 3584 
Q 5097 3584 5394 3201 
Q 5691 2819 5691 2113 
L 5691 0 
L 5113 0 
L 5113 2094 
Q 5113 2597 4934 2840 
Q 4756 3084 4391 3084 
Q 3944 3084 3684 2787 
Q 3425 2491 3425 1978 
L 3425 0 
L 2847 0 
L 2847 2094 
Q 2847 2600 2669 2842 
Q 2491 3084 2119 3084 
Q 1678 3084 1418 2786 
Q 1159 2488 1159 1978 
L 1159 0 
L 581 0 
L 581 3500 
L 1159 3500 
L 1159 2956 
Q 1356 3278 1631 3431 
Q 1906 3584 2284 3584 
Q 2666 3584 2933 3390 
Q 3200 3197 3328 2828 
z
" transform="scale(0.015625)"/>
       <path id="DejaVuSans-61" d="M 2194 1759 
Q 1497 1759 1228 1600 
Q 959 1441 959 1056 
Q 959 750 1161 570 
Q 1363 391 1709 391 
Q 2188 391 2477 730 
Q 2766 1069 2766 1631 
L 2766 1759 
L 2194 1759 
z
M 3341 1997 
L 3341 0 
L 2766 0 
L 2766 531 
Q 2569 213 2275 61 
Q 1981 -91 1556 -91 
Q 1019 -91 701 211 
Q 384 513 384 1019 
Q 384 1609 779 1909 
Q 1175 2209 1959 2209 
L 2766 2209 
L 2766 2266 
Q 2766 2663 2505 2880 
Q 2244 3097 1772 3097 
Q 1472 3097 1187 3025 
Q 903 2953 641 2809 
L 641 3341 
Q 956 3463 1253 3523 
Q 1550 3584 1831 3584 
Q 2591 3584 2966 3190 
Q 3341 2797 3341 1997 
z
" transform="scale(0.015625)"/>
       <path id="DejaVuSans-73" d="M 2834 3397 
L 2834 2853 
Q 2591 2978 2328 3040 
Q 2066 3103 1784 3103 
Q 1356 3103 1142 2972 
Q 928 2841 928 2578 
Q 928 2378 1081 2264 
Q 1234 2150 1697 2047 
L 1894 2003 
Q 2506 1872 2764 1633 
Q 3022 1394 3022 966 
Q 3022 478 2636 193 
Q 2250 -91 1575 -91 
Q 1294 -91 989 -36 
Q 684 19 347 128 
L 347 722 
Q 666 556 975 473 
Q 1284 391 1588 391 
Q 1994 391 2212 530 
Q 2431 669 2431 922 
Q 2431 1156 2273 1281 
Q 2116 1406 1581 1522 
L 1381 1569 
Q 847 1681 609 1914 
Q 372 2147 372 2553 
Q 372 3047 722 3315 
Q 1072 3584 1716 3584 
Q 2034 3584 2315 3537 
Q 2597 3491 2834 3397 
z
" transform="scale(0.015625)"/>
      </defs>
      <use xlink:href="#DejaVuSans-47"/>
      <use xlink:href="#DejaVuSans-65" transform="translate(77.490234 0)"/>
      <use xlink:href="#DejaVuSans-6d" transform="translate(139.013672 0)"/>
      <use xlink:href="#DejaVuSans-69" transform="translate(236.425781 0)"/>
      <use xlink:href="#DejaVuSans-64" transform="translate(264.208984 0)"/>
      <use xlink:href="#DejaVuSans-64" transform="translate(327.685547 0)"/>
      <use xlink:href="#DejaVuSans-65" transform="translate(391.162109 0)"/>
      <use xlink:href="#DejaVuSans-6c" transform="translate(452.685547 0)"/>
      <use xlink:href="#DejaVuSans-64" transform="translate(480.46875 0)"/>
      <use xlink:href="#DejaVuSans-65" transform="translate(543.945312 0)"/>
      <use xlink:href="#DejaVuSans-20" transform="translate(605.46875 0)"/>
      <use xlink:href="#DejaVuSans-28" transform="translate(637.255859 0)"/>
      <use xlink:href="#DejaVuSans-61" transform="translate(676.269531 0)"/>
      <use xlink:href="#DejaVuSans-6c" transform="translate(737.548828 0)"/>
      <use xlink:href="#DejaVuSans-6c" transform="translate(765.332031 0)"/>
      <use xlink:href="#DejaVuSans-65" transform="translate(793.115234 0)"/>
      <use xlink:href="#DejaVuSans-20" transform="translate(854.638672 0)"/>
      <use xlink:href="#DejaVuSans-68" transform="translate(886.425781 0)"/>
      <use xlink:href="#DejaVuSans-69" transform="translate(949.804688 0)"/>
      <use xlink:href="#DejaVuSans-76" transform="translate(977.587891 0)"/>
      <use xlink:href="#DejaVuSans-65" transform="translate(1036.767578 0)"/>
      <use xlink:href="#DejaVuSans-73" transform="translate(1098.291016 0)"/>
      <use xlink:href="#DejaVuSans-29" transform="translate(1150.390625 0)"/>
     </g>
    </g>
    <g id="patch_8">
     <path d="M 539.89125 72.834688 
L 559.89125 72.834688 
L 559.89125 65.834688 
L 539.89125 65.834688 
z
" style="fill: #808080; fill-opacity: 0.2; stroke: #808080; stroke-opacity: 0.2; stroke-linejoin: miter"/>
    </g>
    <g id="text_18">
     <!-- 2 Std Dev -->
     <g transform="translate(567.89125 72.834688) scale(0.1 -0.1)">
      <defs>
       <path id="DejaVuSans-b1" d="M 2944 4013 
L 2944 2803 
L 4684 2803 
L 4684 2272 
L 2944 2272 
L 2944 1063 
L 2419 1063 
L 2419 2272 
L 678 2272 
L 678 2803 
L 2419 2803 
L 2419 4013 
L 2944 4013 
z
M 678 531 
L 4684 531 
L 4684 0 
L 678 0 
L 678 531 
z
" transform="scale(0.015625)"/>
       <path id="DejaVuSans-53" d="M 3425 4513 
L 3425 3897 
Q 3066 4069 2747 4153 
Q 2428 4238 2131 4238 
Q 1616 4238 1336 4038 
Q 1056 3838 1056 3469 
Q 1056 3159 1242 3001 
Q 1428 2844 1947 2747 
L 2328 2669 
Q 3034 2534 3370 2195 
Q 3706 1856 3706 1288 
Q 3706 609 3251 259 
Q 2797 -91 1919 -91 
Q 1588 -91 1214 -16 
Q 841 59 441 206 
L 441 856 
Q 825 641 1194 531 
Q 1563 422 1919 422 
Q 2459 422 2753 634 
Q 3047 847 3047 1241 
Q 3047 1584 2836 1778 
Q 2625 1972 2144 2069 
L 1759 2144 
Q 1053 2284 737 2584 
Q 422 2884 422 3419 
Q 422 4038 858 4394 
Q 1294 4750 2059 4750 
Q 2388 4750 2728 4690 
Q 3069 4631 3425 4513 
z
" transform="scale(0.015625)"/>
       <path id="DejaVuSans-44" d="M 1259 4147 
L 1259 519 
L 2022 519 
Q 2988 519 3436 956 
Q 3884 1394 3884 2338 
Q 3884 3275 3436 3711 
Q 2988 4147 2022 4147 
L 1259 4147 
z
M 628 4666 
L 1925 4666 
Q 3281 4666 3915 4102 
Q 4550 3538 4550 2338 
Q 4550 1131 3912 565 
Q 3275 0 1925 0 
L 628 0 
L 628 4666 
z
" transform="scale(0.015625)"/>
      </defs>
      <use xlink:href="#DejaVuSans-b1"/>
      <use xlink:href="#DejaVuSans-32" transform="translate(83.789062 0)"/>
      <use xlink:href="#DejaVuSans-20" transform="translate(147.412109 0)"/>
      <use xlink:href="#DejaVuSans-53" transform="translate(179.199219 0)"/>
      <use xlink:href="#DejaVuSans-74" transform="translate(242.675781 0)"/>
      <use xlink:href="#DejaVuSans-64" transform="translate(281.884766 0)"/>
      <use xlink:href="#DejaVuSans-20" transform="translate(345.361328 0)"/>
      <use xlink:href="#DejaVuSans-44" transform="translate(377.148438 0)"/>
      <use xlink:href="#DejaVuSans-65" transform="translate(454.150391 0)"/>
      <use xlink:href="#DejaVuSans-76" transform="translate(515.673828 0)"/>
     </g>
    </g>
   </g>
  </g>
 </g>
 <defs>
  <clipPath id="pd0c44aa64d">
   <rect x="44.57" y="26.88" width="651.265" height="219.16"/>
  </clipPath>
 </defs>
</svg>
