<?xml version="1.0" encoding="utf-8" standalone="no"?>
<!DOCTYPE svg PUBLIC "-//W3C//DTD SVG 1.1//EN"
  "http://www.w3.org/Graphics/SVG/1.1/DTD/svg11.dtd">
<svg xmlns:xlink="http://www.w3.org/1999/xlink" width="720pt" height="288pt" viewBox="0 0 720 288" xmlns="http://www.w3.org/2000/svg" version="1.1">
 <metadata>
  <rdf:RDF xmlns:dc="http://purl.org/dc/elements/1.1/" xmlns:cc="http://creativecommons.org/ns#" xmlns:rdf="http://www.w3.org/1999/02/22-rdf-syntax-ns#">
   <cc:Work>
    <dc:type rdf:resource="http://purl.org/dc/dcmitype/StillImage"/>
    <dc:date>2025-05-27T11:14:11.980784</dc:date>
    <dc:format>image/svg+xml</dc:format>
    <dc:creator>
     <cc:Agent>
      <dc:title>Matplotlib v3.10.3, https://matplotlib.org/</dc:title>
     </cc:Agent>
    </dc:creator>
   </cc:Work>
  </rdf:RDF>
 </metadata>
 <defs>
  <style type="text/css">*{stroke-linejoin: round; stroke-linecap: butt}</style>
 </defs>
 <g id="figure_1">
  <g id="patch_1">
   <path d="M 0 288 
L 720 288 
L 720 0 
L 0 0 
z
" style="fill: #ffffff"/>
  </g>
  <g id="axes_1">
   <g id="patch_2">
    <path d="M 71.84 246.04 
L 709.2 246.04 
L 709.2 26.88 
L 71.84 26.88 
z
" style="fill: #ffffff"/>
   </g>
   <g id="FillBetweenPolyCollection_1">
    <defs>
     <path id="m5d6ec9dd20" d="M 100.810909 -141.768503 
L 100.810909 -112.384074 
L 104.455049 -110.416331 
L 108.099188 -113.522825 
L 111.743328 -112.319724 
L 115.387467 -108.790377 
L 119.031607 -114.914311 
L 122.675746 -112.744091 
L 126.319886 -112.368331 
L 129.964025 -111.774992 
L 133.608165 -110.990466 
L 137.252304 -105.40555 
L 140.896444 -106.421341 
L 144.540583 -112.31431 
L 148.184723 -107.606837 
L 151.828862 -108.024711 
L 155.473002 -112.249628 
L 159.117141 -113.6542 
L 162.761281 -113.694219 
L 166.40542 -111.952579 
L 170.04956 -111.325656 
L 173.693699 -113.168264 
L 177.337839 -112.022264 
L 180.981978 -113.03788 
L 184.626118 -115.310069 
L 188.270257 -115.651708 
L 191.914397 -116.163743 
L 195.558536 -116.886946 
L 199.202676 -117.212675 
L 202.846815 -117.041979 
L 206.490955 -117.227584 
L 210.135094 -117.940749 
L 213.779234 -118.043688 
L 217.423373 -118.053225 
L 221.067513 -118.053225 
L 224.711652 -118.053225 
L 228.355792 -118.048721 
L 231.999931 -118.000753 
L 235.644071 -117.924956 
L 239.28821 -117.755859 
L 242.93235 -117.752252 
L 246.576489 -117.336202 
L 250.220629 -116.929394 
L 253.864768 -116.627643 
L 257.508908 -116.552304 
L 261.153047 -116.340988 
L 264.797187 -115.443227 
L 268.441326 -114.800685 
L 272.085466 -115.266674 
L 275.729605 -114.95623 
L 279.373745 -118.124855 
L 283.017885 -114.826302 
L 286.662024 -118.014294 
L 290.306164 -117.617122 
L 293.950303 -113.314337 
L 297.594443 -118.616125 
L 301.238582 -121.536488 
L 304.882722 -114.656296 
L 308.526861 -115.820296 
L 312.171001 -123.508289 
L 315.81514 -96.756135 
L 319.45928 -105.463087 
L 323.103419 -64.417244 
L 326.747559 -107.975485 
L 330.391698 -110.059559 
L 334.035838 -68.061335 
L 337.679977 -110.659982 
L 341.324117 -97.794843 
L 344.968256 -92.420642 
L 348.612396 -91.388595 
L 352.256535 -96.585759 
L 355.900675 -91.864154 
L 359.544814 -108.740262 
L 363.188954 -110.511908 
L 366.833093 -109.44644 
L 370.477233 -114.033373 
L 374.121372 -114.442554 
L 377.765512 -115.761863 
L 381.409651 -118.053225 
L 385.053791 -118.053225 
L 388.69793 -118.014991 
L 392.34207 -118.053225 
L 395.986209 -118.053225 
L 399.630349 -118.052518 
L 403.274488 -118.027441 
L 406.918628 -117.853313 
L 410.562767 -117.498238 
L 414.206907 -117.409447 
L 417.851046 -117.011397 
L 421.495186 -116.327678 
L 425.139325 -115.745646 
L 428.783465 -114.732343 
L 432.427604 -114.612871 
L 436.071744 -116.084383 
L 439.715883 -115.659945 
L 443.360023 -114.581248 
L 447.004162 -115.914109 
L 450.648302 -114.098789 
L 454.292441 -114.967613 
L 457.936581 -115.335002 
L 461.58072 -119.638013 
L 465.22486 -119.053129 
L 468.868999 -98.033067 
L 472.513139 -102.802318 
L 476.157278 -115.549454 
L 479.801418 -76.633431 
L 483.445557 -87.391685 
L 487.089697 -72.978723 
L 490.733836 -107.844553 
L 494.377976 -95.751533 
L 498.022115 -66.473601 
L 501.666255 -67.674329 
L 505.310395 -69.387376 
L 508.954534 -67.406048 
L 512.598674 -107.201032 
L 516.242813 -51.921818 
L 519.886953 -90.098185 
L 523.531092 -89.647002 
L 527.175232 -82.791489 
L 530.819371 -86.661241 
L 534.463511 -99.220728 
L 538.10765 -109.380689 
L 541.75179 -110.178106 
L 545.395929 -110.705092 
L 549.040069 -113.531567 
L 552.684208 -115.145182 
L 556.328348 -116.400763 
L 559.972487 -118.053225 
L 563.616627 -117.978877 
L 567.260766 -118.047397 
L 570.904906 -118.053225 
L 574.549045 -118.053225 
L 578.193185 -118.036669 
L 581.837324 -117.991052 
L 585.481464 -117.882788 
L 589.125603 -117.541408 
L 592.769743 -117.676599 
L 596.413882 -117.074299 
L 600.058022 -116.796094 
L 603.702161 -116.91523 
L 607.346301 -116.992599 
L 610.99044 -115.295743 
L 614.63458 -115.941993 
L 618.278719 -116.15868 
L 621.922859 -115.798216 
L 625.566998 -114.087568 
L 629.211138 -114.526784 
L 632.855277 -114.673626 
L 636.499417 -117.046269 
L 640.143556 -119.750122 
L 643.787696 -110.956161 
L 647.431835 -126.461105 
L 651.075975 -127.360639 
L 654.720114 -124.626055 
L 658.364254 -126.879104 
L 658.364254 -129.510403 
L 658.364254 -129.510403 
L 654.720114 -128.757576 
L 651.075975 -128.167727 
L 647.431835 -127.483032 
L 643.787696 -150.893289 
L 640.143556 -134.94421 
L 636.499417 -137.436 
L 632.855277 -138.268711 
L 629.211138 -138.866268 
L 625.566998 -137.606981 
L 621.922859 -129.809665 
L 618.278719 -125.594502 
L 614.63458 -125.040386 
L 610.99044 -125.755527 
L 607.346301 -121.728414 
L 603.702161 -121.225212 
L 600.058022 -121.247374 
L 596.413882 -120.874846 
L 592.769743 -119.095822 
L 589.125603 -119.08905 
L 585.481464 -118.347607 
L 581.837324 -118.148439 
L 578.193185 -118.078273 
L 574.549045 -118.053225 
L 570.904906 -118.053225 
L 567.260766 -118.062042 
L 563.616627 -118.16571 
L 559.972487 -118.053225 
L 556.328348 -120.657528 
L 552.684208 -122.452961 
L 549.040069 -124.900021 
L 545.395929 -129.219956 
L 541.75179 -130.151231 
L 538.10765 -131.651376 
L 534.463511 -147.666601 
L 530.819371 -167.775463 
L 527.175232 -174.675663 
L 523.531092 -166.716212 
L 519.886953 -170.348188 
L 516.242813 -236.78621 
L 512.598674 -155.297542 
L 508.954534 -238.298977 
L 505.310395 -224.757133 
L 501.666255 -251.104125 
L 498.022115 -240.446556 
L 494.377976 -204.142525 
L 490.733836 -179.565252 
L 487.089697 -242.241411 
L 483.445557 -241.523758 
L 479.801418 -228.59821 
L 476.157278 -152.21333 
L 472.513139 -184.442868 
L 468.868999 -178.891783 
L 465.22486 -139.460256 
L 461.58072 -134.260945 
L 457.936581 -138.321817 
L 454.292441 -136.510071 
L 450.648302 -136.563635 
L 447.004162 -131.288825 
L 443.360023 -132.673479 
L 439.715883 -129.177222 
L 436.071744 -126.9593 
L 432.427604 -128.343803 
L 428.783465 -127.706074 
L 425.139325 -125.405858 
L 421.495186 -123.248407 
L 417.851046 -121.522826 
L 414.206907 -119.831241 
L 410.562767 -119.09507 
L 406.918628 -118.369767 
L 403.274488 -118.092234 
L 399.630349 -118.054293 
L 395.986209 -118.053225 
L 392.34207 -118.053225 
L 388.69793 -118.11107 
L 385.053791 -118.053225 
L 381.409651 -118.053225 
L 377.765512 -121.519951 
L 374.121372 -123.517167 
L 370.477233 -124.184882 
L 366.833093 -131.342581 
L 363.188954 -130.186888 
L 359.544814 -133.277751 
L 355.900675 -160.181373 
L 352.256535 -153.564283 
L 348.612396 -164.792631 
L 344.968256 -166.494043 
L 341.324117 -167.369249 
L 337.679977 -146.315781 
L 334.035838 -212.844899 
L 330.391698 -159.739207 
L 326.747559 -161.122342 
L 323.103419 -230.159817 
L 319.45928 -164.600374 
L 315.81514 -188.149192 
L 312.171001 -153.74102 
L 308.526861 -173.34882 
L 304.882722 -164.191532 
L 301.238582 -137.898097 
L 297.594443 -150.14832 
L 293.950303 -154.948913 
L 290.306164 -138.580975 
L 286.662024 -139.088471 
L 283.017885 -143.344166 
L 279.373745 -132.618282 
L 275.729605 -132.96533 
L 272.085466 -129.50047 
L 268.441326 -131.359345 
L 264.797187 -129.574502 
L 261.153047 -125.181334 
L 257.508908 -123.53263 
L 253.864768 -122.064609 
L 250.220629 -121.363097 
L 246.576489 -120.04485 
L 242.93235 -119.13834 
L 239.28821 -118.835389 
L 235.644071 -118.298101 
L 231.999931 -118.137039 
L 228.355792 -118.060038 
L 224.711652 -118.053225 
L 221.067513 -118.053225 
L 217.423373 -118.053225 
L 213.779234 -118.067653 
L 210.135094 -118.230488 
L 206.490955 -119.354447 
L 202.846815 -119.646962 
L 199.202676 -119.377943 
L 195.558536 -119.826797 
L 191.914397 -120.978432 
L 188.270257 -121.98036 
L 184.626118 -122.587373 
L 180.981978 -126.176424 
L 177.337839 -128.457675 
L 173.693699 -126.898281 
L 170.04956 -130.504435 
L 166.40542 -130.059795 
L 162.761281 -128.631835 
L 159.117141 -130.208841 
L 155.473002 -131.67907 
L 151.828862 -138.372045 
L 148.184723 -140.441227 
L 144.540583 -136.242015 
L 140.896444 -145.344159 
L 137.252304 -146.939955 
L 133.608165 -139.973906 
L 129.964025 -138.44419 
L 126.319886 -140.662917 
L 122.675746 -140.278393 
L 119.031607 -137.059222 
L 115.387467 -146.110901 
L 111.743328 -145.041558 
L 108.099188 -141.973224 
L 104.455049 -142.094337 
L 100.810909 -141.768503 
z
" style="stroke: #808080; stroke-opacity: 0.2"/>
    </defs>
    <g clip-path="url(#pb5b0911ae9)">
     <use xlink:href="#m5d6ec9dd20" x="0" y="288" style="fill: #808080; fill-opacity: 0.2; stroke: #808080; stroke-opacity: 0.2"/>
    </g>
   </g>
   <g id="matplotlib.axis_1">
    <g id="xtick_1">
     <g id="line2d_1">
      <defs>
       <path id="m5e75d297f7" d="M 0 0 
L 0 3.5 
" style="stroke: #000000; stroke-width: 0.8"/>
      </defs>
      <g>
       <use xlink:href="#m5e75d297f7" x="108.099188" y="246.04" style="stroke: #000000; stroke-width: 0.8"/>
      </g>
     </g>
     <g id="text_1">
      <!-- 05-24 12 -->
      <g transform="translate(85.618719 260.638438) scale(0.1 -0.1)">
       <defs>
        <path id="DejaVuSans-30" d="M 2034 4250 
Q 1547 4250 1301 3770 
Q 1056 3291 1056 2328 
Q 1056 1369 1301 889 
Q 1547 409 2034 409 
Q 2525 409 2770 889 
Q 3016 1369 3016 2328 
Q 3016 3291 2770 3770 
Q 2525 4250 2034 4250 
z
M 2034 4750 
Q 2819 4750 3233 4129 
Q 3647 3509 3647 2328 
Q 3647 1150 3233 529 
Q 2819 -91 2034 -91 
Q 1250 -91 836 529 
Q 422 1150 422 2328 
Q 422 3509 836 4129 
Q 1250 4750 2034 4750 
z
" transform="scale(0.015625)"/>
        <path id="DejaVuSans-35" d="M 691 4666 
L 3169 4666 
L 3169 4134 
L 1269 4134 
L 1269 2991 
Q 1406 3038 1543 3061 
Q 1681 3084 1819 3084 
Q 2600 3084 3056 2656 
Q 3513 2228 3513 1497 
Q 3513 744 3044 326 
Q 2575 -91 1722 -91 
Q 1428 -91 1123 -41 
Q 819 9 494 109 
L 494 744 
Q 775 591 1075 516 
Q 1375 441 1709 441 
Q 2250 441 2565 725 
Q 2881 1009 2881 1497 
Q 2881 1984 2565 2268 
Q 2250 2553 1709 2553 
Q 1456 2553 1204 2497 
Q 953 2441 691 2322 
L 691 4666 
z
" transform="scale(0.015625)"/>
        <path id="DejaVuSans-2d" d="M 313 2009 
L 1997 2009 
L 1997 1497 
L 313 1497 
L 313 2009 
z
" transform="scale(0.015625)"/>
        <path id="DejaVuSans-32" d="M 1228 531 
L 3431 531 
L 3431 0 
L 469 0 
L 469 531 
Q 828 903 1448 1529 
Q 2069 2156 2228 2338 
Q 2531 2678 2651 2914 
Q 2772 3150 2772 3378 
Q 2772 3750 2511 3984 
Q 2250 4219 1831 4219 
Q 1534 4219 1204 4116 
Q 875 4013 500 3803 
L 500 4441 
Q 881 4594 1212 4672 
Q 1544 4750 1819 4750 
Q 2544 4750 2975 4387 
Q 3406 4025 3406 3419 
Q 3406 3131 3298 2873 
Q 3191 2616 2906 2266 
Q 2828 2175 2409 1742 
Q 1991 1309 1228 531 
z
" transform="scale(0.015625)"/>
        <path id="DejaVuSans-34" d="M 2419 4116 
L 825 1625 
L 2419 1625 
L 2419 4116 
z
M 2253 4666 
L 3047 4666 
L 3047 1625 
L 3713 1625 
L 3713 1100 
L 3047 1100 
L 3047 0 
L 2419 0 
L 2419 1100 
L 313 1100 
L 313 1709 
L 2253 4666 
z
" transform="scale(0.015625)"/>
        <path id="DejaVuSans-20" transform="scale(0.015625)"/>
        <path id="DejaVuSans-31" d="M 794 531 
L 1825 531 
L 1825 4091 
L 703 3866 
L 703 4441 
L 1819 4666 
L 2450 4666 
L 2450 531 
L 3481 531 
L 3481 0 
L 794 0 
L 794 531 
z
" transform="scale(0.015625)"/>
       </defs>
       <use xlink:href="#DejaVuSans-30"/>
       <use xlink:href="#DejaVuSans-35" transform="translate(63.623047 0)"/>
       <use xlink:href="#DejaVuSans-2d" transform="translate(127.246094 0)"/>
       <use xlink:href="#DejaVuSans-32" transform="translate(163.330078 0)"/>
       <use xlink:href="#DejaVuSans-34" transform="translate(226.953125 0)"/>
       <use xlink:href="#DejaVuSans-20" transform="translate(290.576172 0)"/>
       <use xlink:href="#DejaVuSans-31" transform="translate(322.363281 0)"/>
       <use xlink:href="#DejaVuSans-32" transform="translate(385.986328 0)"/>
      </g>
     </g>
    </g>
    <g id="xtick_2">
     <g id="line2d_2">
      <g>
       <use xlink:href="#m5e75d297f7" x="195.558536" y="246.04" style="stroke: #000000; stroke-width: 0.8"/>
      </g>
     </g>
     <g id="text_2">
      <!-- 05-25 00 -->
      <g transform="translate(173.078068 260.638438) scale(0.1 -0.1)">
       <use xlink:href="#DejaVuSans-30"/>
       <use xlink:href="#DejaVuSans-35" transform="translate(63.623047 0)"/>
       <use xlink:href="#DejaVuSans-2d" transform="translate(127.246094 0)"/>
       <use xlink:href="#DejaVuSans-32" transform="translate(163.330078 0)"/>
       <use xlink:href="#DejaVuSans-35" transform="translate(226.953125 0)"/>
       <use xlink:href="#DejaVuSans-20" transform="translate(290.576172 0)"/>
       <use xlink:href="#DejaVuSans-30" transform="translate(322.363281 0)"/>
       <use xlink:href="#DejaVuSans-30" transform="translate(385.986328 0)"/>
      </g>
     </g>
    </g>
    <g id="xtick_3">
     <g id="line2d_3">
      <g>
       <use xlink:href="#m5e75d297f7" x="283.017885" y="246.04" style="stroke: #000000; stroke-width: 0.8"/>
      </g>
     </g>
     <g id="text_3">
      <!-- 05-25 12 -->
      <g transform="translate(260.537416 260.638438) scale(0.1 -0.1)">
       <use xlink:href="#DejaVuSans-30"/>
       <use xlink:href="#DejaVuSans-35" transform="translate(63.623047 0)"/>
       <use xlink:href="#DejaVuSans-2d" transform="translate(127.246094 0)"/>
       <use xlink:href="#DejaVuSans-32" transform="translate(163.330078 0)"/>
       <use xlink:href="#DejaVuSans-35" transform="translate(226.953125 0)"/>
       <use xlink:href="#DejaVuSans-20" transform="translate(290.576172 0)"/>
       <use xlink:href="#DejaVuSans-31" transform="translate(322.363281 0)"/>
       <use xlink:href="#DejaVuSans-32" transform="translate(385.986328 0)"/>
      </g>
     </g>
    </g>
    <g id="xtick_4">
     <g id="line2d_4">
      <g>
       <use xlink:href="#m5e75d297f7" x="370.477233" y="246.04" style="stroke: #000000; stroke-width: 0.8"/>
      </g>
     </g>
     <g id="text_4">
      <!-- 05-26 00 -->
      <g transform="translate(347.996764 260.638438) scale(0.1 -0.1)">
       <defs>
        <path id="DejaVuSans-36" d="M 2113 2584 
Q 1688 2584 1439 2293 
Q 1191 2003 1191 1497 
Q 1191 994 1439 701 
Q 1688 409 2113 409 
Q 2538 409 2786 701 
Q 3034 994 3034 1497 
Q 3034 2003 2786 2293 
Q 2538 2584 2113 2584 
z
M 3366 4563 
L 3366 3988 
Q 3128 4100 2886 4159 
Q 2644 4219 2406 4219 
Q 1781 4219 1451 3797 
Q 1122 3375 1075 2522 
Q 1259 2794 1537 2939 
Q 1816 3084 2150 3084 
Q 2853 3084 3261 2657 
Q 3669 2231 3669 1497 
Q 3669 778 3244 343 
Q 2819 -91 2113 -91 
Q 1303 -91 875 529 
Q 447 1150 447 2328 
Q 447 3434 972 4092 
Q 1497 4750 2381 4750 
Q 2619 4750 2861 4703 
Q 3103 4656 3366 4563 
z
" transform="scale(0.015625)"/>
       </defs>
       <use xlink:href="#DejaVuSans-30"/>
       <use xlink:href="#DejaVuSans-35" transform="translate(63.623047 0)"/>
       <use xlink:href="#DejaVuSans-2d" transform="translate(127.246094 0)"/>
       <use xlink:href="#DejaVuSans-32" transform="translate(163.330078 0)"/>
       <use xlink:href="#DejaVuSans-36" transform="translate(226.953125 0)"/>
       <use xlink:href="#DejaVuSans-20" transform="translate(290.576172 0)"/>
       <use xlink:href="#DejaVuSans-30" transform="translate(322.363281 0)"/>
       <use xlink:href="#DejaVuSans-30" transform="translate(385.986328 0)"/>
      </g>
     </g>
    </g>
    <g id="xtick_5">
     <g id="line2d_5">
      <g>
       <use xlink:href="#m5e75d297f7" x="457.936581" y="246.04" style="stroke: #000000; stroke-width: 0.8"/>
      </g>
     </g>
     <g id="text_5">
      <!-- 05-26 12 -->
      <g transform="translate(435.456112 260.638438) scale(0.1 -0.1)">
       <use xlink:href="#DejaVuSans-30"/>
       <use xlink:href="#DejaVuSans-35" transform="translate(63.623047 0)"/>
       <use xlink:href="#DejaVuSans-2d" transform="translate(127.246094 0)"/>
       <use xlink:href="#DejaVuSans-32" transform="translate(163.330078 0)"/>
       <use xlink:href="#DejaVuSans-36" transform="translate(226.953125 0)"/>
       <use xlink:href="#DejaVuSans-20" transform="translate(290.576172 0)"/>
       <use xlink:href="#DejaVuSans-31" transform="translate(322.363281 0)"/>
       <use xlink:href="#DejaVuSans-32" transform="translate(385.986328 0)"/>
      </g>
     </g>
    </g>
    <g id="xtick_6">
     <g id="line2d_6">
      <g>
       <use xlink:href="#m5e75d297f7" x="545.395929" y="246.04" style="stroke: #000000; stroke-width: 0.8"/>
      </g>
     </g>
     <g id="text_6">
      <!-- 05-27 00 -->
      <g transform="translate(522.91546 260.638438) scale(0.1 -0.1)">
       <defs>
        <path id="DejaVuSans-37" d="M 525 4666 
L 3525 4666 
L 3525 4397 
L 1831 0 
L 1172 0 
L 2766 4134 
L 525 4134 
L 525 4666 
z
" transform="scale(0.015625)"/>
       </defs>
       <use xlink:href="#DejaVuSans-30"/>
       <use xlink:href="#DejaVuSans-35" transform="translate(63.623047 0)"/>
       <use xlink:href="#DejaVuSans-2d" transform="translate(127.246094 0)"/>
       <use xlink:href="#DejaVuSans-32" transform="translate(163.330078 0)"/>
       <use xlink:href="#DejaVuSans-37" transform="translate(226.953125 0)"/>
       <use xlink:href="#DejaVuSans-20" transform="translate(290.576172 0)"/>
       <use xlink:href="#DejaVuSans-30" transform="translate(322.363281 0)"/>
       <use xlink:href="#DejaVuSans-30" transform="translate(385.986328 0)"/>
      </g>
     </g>
    </g>
    <g id="xtick_7">
     <g id="line2d_7">
      <g>
       <use xlink:href="#m5e75d297f7" x="632.855277" y="246.04" style="stroke: #000000; stroke-width: 0.8"/>
      </g>
     </g>
     <g id="text_7">
      <!-- 05-27 12 -->
      <g transform="translate(610.374809 260.638438) scale(0.1 -0.1)">
       <use xlink:href="#DejaVuSans-30"/>
       <use xlink:href="#DejaVuSans-35" transform="translate(63.623047 0)"/>
       <use xlink:href="#DejaVuSans-2d" transform="translate(127.246094 0)"/>
       <use xlink:href="#DejaVuSans-32" transform="translate(163.330078 0)"/>
       <use xlink:href="#DejaVuSans-37" transform="translate(226.953125 0)"/>
       <use xlink:href="#DejaVuSans-20" transform="translate(290.576172 0)"/>
       <use xlink:href="#DejaVuSans-31" transform="translate(322.363281 0)"/>
       <use xlink:href="#DejaVuSans-32" transform="translate(385.986328 0)"/>
      </g>
     </g>
    </g>
    <g id="text_8">
     <!-- Tijd -->
     <g transform="translate(381.67 274.316562) scale(0.1 -0.1)">
      <defs>
       <path id="DejaVuSans-54" d="M -19 4666 
L 3928 4666 
L 3928 4134 
L 2272 4134 
L 2272 0 
L 1638 0 
L 1638 4134 
L -19 4134 
L -19 4666 
z
" transform="scale(0.015625)"/>
       <path id="DejaVuSans-69" d="M 603 3500 
L 1178 3500 
L 1178 0 
L 603 0 
L 603 3500 
z
M 603 4863 
L 1178 4863 
L 1178 4134 
L 603 4134 
L 603 4863 
z
" transform="scale(0.015625)"/>
       <path id="DejaVuSans-6a" d="M 603 3500 
L 1178 3500 
L 1178 -63 
Q 1178 -731 923 -1031 
Q 669 -1331 103 -1331 
L -116 -1331 
L -116 -844 
L 38 -844 
Q 366 -844 484 -692 
Q 603 -541 603 -63 
L 603 3500 
z
M 603 4863 
L 1178 4863 
L 1178 4134 
L 603 4134 
L 603 4863 
z
" transform="scale(0.015625)"/>
       <path id="DejaVuSans-64" d="M 2906 2969 
L 2906 4863 
L 3481 4863 
L 3481 0 
L 2906 0 
L 2906 525 
Q 2725 213 2448 61 
Q 2172 -91 1784 -91 
Q 1150 -91 751 415 
Q 353 922 353 1747 
Q 353 2572 751 3078 
Q 1150 3584 1784 3584 
Q 2172 3584 2448 3432 
Q 2725 3281 2906 2969 
z
M 947 1747 
Q 947 1113 1208 752 
Q 1469 391 1925 391 
Q 2381 391 2643 752 
Q 2906 1113 2906 1747 
Q 2906 2381 2643 2742 
Q 2381 3103 1925 3103 
Q 1469 3103 1208 2742 
Q 947 2381 947 1747 
z
" transform="scale(0.015625)"/>
      </defs>
      <use xlink:href="#DejaVuSans-54"/>
      <use xlink:href="#DejaVuSans-69" transform="translate(57.958984 0)"/>
      <use xlink:href="#DejaVuSans-6a" transform="translate(85.742188 0)"/>
      <use xlink:href="#DejaVuSans-64" transform="translate(113.525391 0)"/>
     </g>
    </g>
   </g>
   <g id="matplotlib.axis_2">
    <g id="ytick_1">
     <g id="line2d_8">
      <defs>
       <path id="m99f9604d53" d="M 0 0 
L -3.5 0 
" style="stroke: #000000; stroke-width: 0.8"/>
      </defs>
      <g>
       <use xlink:href="#m99f9604d53" x="71.84" y="210.710869" style="stroke: #000000; stroke-width: 0.8"/>
      </g>
     </g>
     <g id="text_9">
      <!-- −10000 -->
      <g transform="translate(24.647813 214.510088) scale(0.1 -0.1)">
       <defs>
        <path id="DejaVuSans-2212" d="M 678 2272 
L 4684 2272 
L 4684 1741 
L 678 1741 
L 678 2272 
z
" transform="scale(0.015625)"/>
       </defs>
       <use xlink:href="#DejaVuSans-2212"/>
       <use xlink:href="#DejaVuSans-31" transform="translate(83.789062 0)"/>
       <use xlink:href="#DejaVuSans-30" transform="translate(147.412109 0)"/>
       <use xlink:href="#DejaVuSans-30" transform="translate(211.035156 0)"/>
       <use xlink:href="#DejaVuSans-30" transform="translate(274.658203 0)"/>
       <use xlink:href="#DejaVuSans-30" transform="translate(338.28125 0)"/>
      </g>
     </g>
    </g>
    <g id="ytick_2">
     <g id="line2d_9">
      <g>
       <use xlink:href="#m99f9604d53" x="71.84" y="169.946775" style="stroke: #000000; stroke-width: 0.8"/>
      </g>
     </g>
     <g id="text_10">
      <!-- 0 -->
      <g transform="translate(58.4775 173.745994) scale(0.1 -0.1)">
       <use xlink:href="#DejaVuSans-30"/>
      </g>
     </g>
    </g>
    <g id="ytick_3">
     <g id="line2d_10">
      <g>
       <use xlink:href="#m99f9604d53" x="71.84" y="129.182682" style="stroke: #000000; stroke-width: 0.8"/>
      </g>
     </g>
     <g id="text_11">
      <!-- 10000 -->
      <g transform="translate(33.0275 132.9819) scale(0.1 -0.1)">
       <use xlink:href="#DejaVuSans-31"/>
       <use xlink:href="#DejaVuSans-30" transform="translate(63.623047 0)"/>
       <use xlink:href="#DejaVuSans-30" transform="translate(127.246094 0)"/>
       <use xlink:href="#DejaVuSans-30" transform="translate(190.869141 0)"/>
       <use xlink:href="#DejaVuSans-30" transform="translate(254.492188 0)"/>
      </g>
     </g>
    </g>
    <g id="ytick_4">
     <g id="line2d_11">
      <g>
       <use xlink:href="#m99f9604d53" x="71.84" y="88.418588" style="stroke: #000000; stroke-width: 0.8"/>
      </g>
     </g>
     <g id="text_12">
      <!-- 20000 -->
      <g transform="translate(33.0275 92.217807) scale(0.1 -0.1)">
       <use xlink:href="#DejaVuSans-32"/>
       <use xlink:href="#DejaVuSans-30" transform="translate(63.623047 0)"/>
       <use xlink:href="#DejaVuSans-30" transform="translate(127.246094 0)"/>
       <use xlink:href="#DejaVuSans-30" transform="translate(190.869141 0)"/>
       <use xlink:href="#DejaVuSans-30" transform="translate(254.492188 0)"/>
      </g>
     </g>
    </g>
    <g id="ytick_5">
     <g id="line2d_12">
      <g>
       <use xlink:href="#m99f9604d53" x="71.84" y="47.654494" style="stroke: #000000; stroke-width: 0.8"/>
      </g>
     </g>
     <g id="text_13">
      <!-- 30000 -->
      <g transform="translate(33.0275 51.453713) scale(0.1 -0.1)">
       <defs>
        <path id="DejaVuSans-33" d="M 2597 2516 
Q 3050 2419 3304 2112 
Q 3559 1806 3559 1356 
Q 3559 666 3084 287 
Q 2609 -91 1734 -91 
Q 1441 -91 1130 -33 
Q 819 25 488 141 
L 488 750 
Q 750 597 1062 519 
Q 1375 441 1716 441 
Q 2309 441 2620 675 
Q 2931 909 2931 1356 
Q 2931 1769 2642 2001 
Q 2353 2234 1838 2234 
L 1294 2234 
L 1294 2753 
L 1863 2753 
Q 2328 2753 2575 2939 
Q 2822 3125 2822 3475 
Q 2822 3834 2567 4026 
Q 2313 4219 1838 4219 
Q 1578 4219 1281 4162 
Q 984 4106 628 3988 
L 628 4550 
Q 988 4650 1302 4700 
Q 1616 4750 1894 4750 
Q 2613 4750 3031 4423 
Q 3450 4097 3450 3541 
Q 3450 3153 3228 2886 
Q 3006 2619 2597 2516 
z
" transform="scale(0.015625)"/>
       </defs>
       <use xlink:href="#DejaVuSans-33"/>
       <use xlink:href="#DejaVuSans-30" transform="translate(63.623047 0)"/>
       <use xlink:href="#DejaVuSans-30" transform="translate(127.246094 0)"/>
       <use xlink:href="#DejaVuSans-30" transform="translate(190.869141 0)"/>
       <use xlink:href="#DejaVuSans-30" transform="translate(254.492188 0)"/>
      </g>
     </g>
    </g>
    <g id="text_14">
     <!-- Lichtintensiteit -->
     <g transform="translate(18.568125 173.656094) rotate(-90) scale(0.1 -0.1)">
      <defs>
       <path id="DejaVuSans-4c" d="M 628 4666 
L 1259 4666 
L 1259 531 
L 3531 531 
L 3531 0 
L 628 0 
L 628 4666 
z
" transform="scale(0.015625)"/>
       <path id="DejaVuSans-63" d="M 3122 3366 
L 3122 2828 
Q 2878 2963 2633 3030 
Q 2388 3097 2138 3097 
Q 1578 3097 1268 2742 
Q 959 2388 959 1747 
Q 959 1106 1268 751 
Q 1578 397 2138 397 
Q 2388 397 2633 464 
Q 2878 531 3122 666 
L 3122 134 
Q 2881 22 2623 -34 
Q 2366 -91 2075 -91 
Q 1284 -91 818 406 
Q 353 903 353 1747 
Q 353 2603 823 3093 
Q 1294 3584 2113 3584 
Q 2378 3584 2631 3529 
Q 2884 3475 3122 3366 
z
" transform="scale(0.015625)"/>
       <path id="DejaVuSans-68" d="M 3513 2113 
L 3513 0 
L 2938 0 
L 2938 2094 
Q 2938 2591 2744 2837 
Q 2550 3084 2163 3084 
Q 1697 3084 1428 2787 
Q 1159 2491 1159 1978 
L 1159 0 
L 581 0 
L 581 4863 
L 1159 4863 
L 1159 2956 
Q 1366 3272 1645 3428 
Q 1925 3584 2291 3584 
Q 2894 3584 3203 3211 
Q 3513 2838 3513 2113 
z
" transform="scale(0.015625)"/>
       <path id="DejaVuSans-74" d="M 1172 4494 
L 1172 3500 
L 2356 3500 
L 2356 3053 
L 1172 3053 
L 1172 1153 
Q 1172 725 1289 603 
Q 1406 481 1766 481 
L 2356 481 
L 2356 0 
L 1766 0 
Q 1100 0 847 248 
Q 594 497 594 1153 
L 594 3053 
L 172 3053 
L 172 3500 
L 594 3500 
L 594 4494 
L 1172 4494 
z
" transform="scale(0.015625)"/>
       <path id="DejaVuSans-6e" d="M 3513 2113 
L 3513 0 
L 2938 0 
L 2938 2094 
Q 2938 2591 2744 2837 
Q 2550 3084 2163 3084 
Q 1697 3084 1428 2787 
Q 1159 2491 1159 1978 
L 1159 0 
L 581 0 
L 581 3500 
L 1159 3500 
L 1159 2956 
Q 1366 3272 1645 3428 
Q 1925 3584 2291 3584 
Q 2894 3584 3203 3211 
Q 3513 2838 3513 2113 
z
" transform="scale(0.015625)"/>
       <path id="DejaVuSans-65" d="M 3597 1894 
L 3597 1613 
L 953 1613 
Q 991 1019 1311 708 
Q 1631 397 2203 397 
Q 2534 397 2845 478 
Q 3156 559 3463 722 
L 3463 178 
Q 3153 47 2828 -22 
Q 2503 -91 2169 -91 
Q 1331 -91 842 396 
Q 353 884 353 1716 
Q 353 2575 817 3079 
Q 1281 3584 2069 3584 
Q 2775 3584 3186 3129 
Q 3597 2675 3597 1894 
z
M 3022 2063 
Q 3016 2534 2758 2815 
Q 2500 3097 2075 3097 
Q 1594 3097 1305 2825 
Q 1016 2553 972 2059 
L 3022 2063 
z
" transform="scale(0.015625)"/>
       <path id="DejaVuSans-73" d="M 2834 3397 
L 2834 2853 
Q 2591 2978 2328 3040 
Q 2066 3103 1784 3103 
Q 1356 3103 1142 2972 
Q 928 2841 928 2578 
Q 928 2378 1081 2264 
Q 1234 2150 1697 2047 
L 1894 2003 
Q 2506 1872 2764 1633 
Q 3022 1394 3022 966 
Q 3022 478 2636 193 
Q 2250 -91 1575 -91 
Q 1294 -91 989 -36 
Q 684 19 347 128 
L 347 722 
Q 666 556 975 473 
Q 1284 391 1588 391 
Q 1994 391 2212 530 
Q 2431 669 2431 922 
Q 2431 1156 2273 1281 
Q 2116 1406 1581 1522 
L 1381 1569 
Q 847 1681 609 1914 
Q 372 2147 372 2553 
Q 372 3047 722 3315 
Q 1072 3584 1716 3584 
Q 2034 3584 2315 3537 
Q 2597 3491 2834 3397 
z
" transform="scale(0.015625)"/>
      </defs>
      <use xlink:href="#DejaVuSans-4c"/>
      <use xlink:href="#DejaVuSans-69" transform="translate(55.712891 0)"/>
      <use xlink:href="#DejaVuSans-63" transform="translate(83.496094 0)"/>
      <use xlink:href="#DejaVuSans-68" transform="translate(138.476562 0)"/>
      <use xlink:href="#DejaVuSans-74" transform="translate(201.855469 0)"/>
      <use xlink:href="#DejaVuSans-69" transform="translate(241.064453 0)"/>
      <use xlink:href="#DejaVuSans-6e" transform="translate(268.847656 0)"/>
      <use xlink:href="#DejaVuSans-74" transform="translate(332.226562 0)"/>
      <use xlink:href="#DejaVuSans-65" transform="translate(371.435547 0)"/>
      <use xlink:href="#DejaVuSans-6e" transform="translate(432.958984 0)"/>
      <use xlink:href="#DejaVuSans-73" transform="translate(496.337891 0)"/>
      <use xlink:href="#DejaVuSans-69" transform="translate(548.4375 0)"/>
      <use xlink:href="#DejaVuSans-74" transform="translate(576.220703 0)"/>
      <use xlink:href="#DejaVuSans-65" transform="translate(615.429688 0)"/>
      <use xlink:href="#DejaVuSans-69" transform="translate(676.953125 0)"/>
      <use xlink:href="#DejaVuSans-74" transform="translate(704.736328 0)"/>
     </g>
    </g>
   </g>
   <g id="line2d_13">
    <path d="M 100.810909 147.14436 
L 104.455049 146.333087 
L 108.099188 147.577479 
L 111.743328 145.017358 
L 115.387467 142.682255 
L 119.031607 153.903794 
L 122.675746 153.533656 
L 126.319886 151.963016 
L 129.964025 160.360419 
L 133.608165 156.690564 
L 137.252304 160.252802 
L 140.896444 162.406505 
L 144.540583 164.375682 
L 151.828862 167.531503 
L 155.473002 168.100977 
L 159.117141 167.816851 
L 162.761281 167.735323 
L 166.40542 168.784999 
L 173.693699 169.75994 
L 180.981978 169.942291 
L 231.999931 169.941204 
L 235.644071 169.895956 
L 239.28821 169.387356 
L 242.93235 169.39877 
L 246.576489 169.152963 
L 250.220629 168.66488 
L 253.864768 167.645914 
L 257.508908 165.454708 
L 261.153047 164.736988 
L 264.797187 160.815618 
L 268.441326 161.454256 
L 272.085466 163.517462 
L 275.729605 161.800886 
L 279.373745 159.47842 
L 283.017885 145.782636 
L 286.662024 152.691063 
L 290.306164 150.983455 
L 293.950303 152.953855 
L 297.594443 147.335204 
L 301.238582 150.510184 
L 304.882722 128.256385 
L 308.526861 127.257665 
L 312.171001 144.317574 
L 315.81514 155.304585 
L 319.45928 162.919589 
L 323.103419 155.923927 
L 326.747559 165.229554 
L 330.391698 164.194418 
L 334.035838 166.30396 
L 337.679977 164.833192 
L 341.324117 165.915614 
L 344.968256 166.836203 
L 352.256535 169.410048 
L 355.900675 169.899217 
L 366.833093 169.946775 
L 406.918628 169.936584 
L 410.562767 169.776925 
L 414.206907 169.167638 
L 417.851046 167.906261 
L 421.495186 166.879277 
L 425.139325 165.701738 
L 428.783465 162.908311 
L 432.427604 164.529635 
L 436.071744 164.949913 
L 439.715883 161.775749 
L 443.360023 157.74812 
L 447.004162 159.222422 
L 450.648302 152.710494 
L 454.292441 152.408024 
L 457.936581 150.221438 
L 461.58072 154.99899 
L 465.22486 150.887727 
L 468.868999 151.912061 
L 472.513139 138.833581 
L 476.157278 138.240871 
L 479.801418 121.902894 
L 487.089697 92.781433 
L 490.733836 120.4059 
L 494.377976 139.515292 
L 498.022115 148.398332 
L 501.666255 153.09653 
L 505.310395 158.37548 
L 508.954534 158.369773 
L 512.598674 159.595005 
L 516.242813 164.280566 
L 519.886953 165.624558 
L 523.531092 167.956129 
L 527.175232 169.125786 
L 530.819371 169.842555 
L 538.10765 169.946775 
L 585.481464 169.927616 
L 589.125603 169.724883 
L 592.769743 169.13258 
L 596.413882 167.691298 
L 603.702161 167.268846 
L 607.346301 167.593736 
L 610.99044 163.655653 
L 614.63458 164.317797 
L 618.278719 164.297551 
L 621.922859 161.324082 
L 625.566998 153.984236 
L 629.211138 155.050896 
L 632.855277 153.129413 
L 636.499417 155.364508 
L 640.143556 159.584679 
L 643.787696 142.994983 
L 643.787696 142.994983 
" clip-path="url(#pb5b0911ae9)" style="fill: none; stroke: #1f77b4; stroke-width: 2; stroke-linecap: square"/>
   </g>
   <g id="line2d_14">
    <path d="M 100.810909 160.923711 
L 104.455049 161.744666 
L 108.099188 160.251975 
L 111.743328 159.319359 
L 115.387467 160.549361 
L 119.031607 162.013233 
L 122.675746 161.488758 
L 126.319886 161.484376 
L 129.964025 162.890409 
L 133.608165 162.517814 
L 137.252304 161.827247 
L 140.896444 162.11725 
L 144.540583 163.721838 
L 148.184723 163.975968 
L 151.828862 164.801622 
L 155.473002 166.035651 
L 159.117141 166.068479 
L 162.761281 166.836973 
L 170.04956 167.084955 
L 173.693699 167.966727 
L 177.337839 167.760031 
L 184.626118 169.051279 
L 188.270257 169.183966 
L 195.558536 169.643128 
L 202.846815 169.655529 
L 206.490955 169.708985 
L 210.135094 169.914381 
L 224.711652 169.946775 
L 235.644071 169.888471 
L 246.576489 169.309474 
L 250.220629 168.853754 
L 253.864768 168.653874 
L 261.153047 167.238839 
L 264.797187 165.491135 
L 268.441326 164.919985 
L 272.085466 165.616428 
L 275.729605 164.03922 
L 279.373745 162.628432 
L 283.017885 158.914766 
L 290.306164 159.900951 
L 293.950303 153.868375 
L 297.594443 153.617778 
L 301.238582 158.282707 
L 304.882722 148.576086 
L 308.526861 143.415442 
L 312.171001 149.375345 
L 315.81514 145.547336 
L 319.45928 152.96827 
L 323.103419 140.711469 
L 326.747559 153.451087 
L 330.391698 153.100617 
L 334.035838 147.546883 
L 337.679977 159.512118 
L 341.324117 155.417954 
L 344.968256 158.542658 
L 348.612396 159.909387 
L 352.256535 162.924979 
L 355.900675 161.977236 
L 359.544814 166.990994 
L 363.188954 167.650602 
L 366.833093 167.60549 
L 370.477233 168.890872 
L 374.121372 169.02014 
L 377.765512 169.359093 
L 381.409651 169.946775 
L 406.918628 169.88846 
L 410.562767 169.703346 
L 414.206907 169.379656 
L 417.851046 168.732889 
L 421.495186 168.211957 
L 425.139325 167.424248 
L 428.783465 166.780791 
L 432.427604 166.521663 
L 436.071744 166.478159 
L 439.715883 165.581416 
L 443.360023 164.372637 
L 447.004162 164.398533 
L 450.648302 162.668788 
L 454.292441 162.261158 
L 457.936581 161.171591 
L 461.58072 161.050521 
L 465.22486 158.743308 
L 468.868999 149.537575 
L 472.513139 144.377407 
L 476.157278 154.118608 
L 479.801418 135.38418 
L 483.445557 123.542278 
L 487.089697 130.389933 
L 490.733836 144.295097 
L 494.377976 138.052971 
L 498.022115 134.539921 
L 501.666255 128.610773 
L 505.310395 140.927745 
L 508.954534 135.147488 
L 512.598674 156.750713 
L 516.242813 143.645986 
L 519.886953 157.776814 
L 523.531092 159.818393 
L 527.175232 159.266424 
L 530.819371 160.781648 
L 534.463511 164.556335 
L 538.10765 167.483967 
L 541.75179 167.835331 
L 545.395929 168.037476 
L 549.040069 168.784206 
L 552.684208 169.200928 
L 556.328348 169.470855 
L 559.972487 169.946775 
L 589.125603 169.684771 
L 592.769743 169.613789 
L 596.413882 169.025428 
L 603.702161 168.929779 
L 607.346301 168.639493 
L 610.99044 167.474365 
L 614.63458 167.508811 
L 618.278719 167.123409 
L 621.922859 165.19606 
L 625.566998 162.152726 
L 629.211138 161.303474 
L 632.855277 161.528831 
L 636.499417 160.758866 
L 640.143556 160.652834 
L 643.787696 157.075275 
L 647.431835 161.027931 
L 651.075975 160.235817 
L 654.720114 161.308184 
L 658.364254 159.805246 
L 662.008393 159.23601 
L 665.652533 150.367509 
L 669.296672 146.898145 
L 672.940812 153.017175 
L 676.584951 132.664615 
L 680.229091 36.841818 
L 680.229091 36.841818 
" clip-path="url(#pb5b0911ae9)" style="fill: none; stroke-dasharray: 5.55,2.4; stroke-dashoffset: 0; stroke: #808080; stroke-width: 1.5"/>
   </g>
   <g id="patch_3">
    <path d="M 71.84 246.04 
L 71.84 26.88 
" style="fill: none; stroke: #000000; stroke-width: 0.8; stroke-linejoin: miter; stroke-linecap: square"/>
   </g>
   <g id="patch_4">
    <path d="M 709.2 246.04 
L 709.2 26.88 
" style="fill: none; stroke: #000000; stroke-width: 0.8; stroke-linejoin: miter; stroke-linecap: square"/>
   </g>
   <g id="patch_5">
    <path d="M 71.84 246.04 
L 709.2 246.04 
" style="fill: none; stroke: #000000; stroke-width: 0.8; stroke-linejoin: miter; stroke-linecap: square"/>
   </g>
   <g id="patch_6">
    <path d="M 71.84 26.88 
L 709.2 26.88 
" style="fill: none; stroke: #000000; stroke-width: 0.8; stroke-linejoin: miter; stroke-linecap: square"/>
   </g>
   <g id="text_15">
    <!-- Licht - v001/c00004/d001 -->
    <g transform="translate(313.383438 20.88) scale(0.12 -0.12)">
     <defs>
      <path id="DejaVuSans-76" d="M 191 3500 
L 800 3500 
L 1894 563 
L 2988 3500 
L 3597 3500 
L 2284 0 
L 1503 0 
L 191 3500 
z
" transform="scale(0.015625)"/>
      <path id="DejaVuSans-2f" d="M 1625 4666 
L 2156 4666 
L 531 -594 
L 0 -594 
L 1625 4666 
z
" transform="scale(0.015625)"/>
     </defs>
     <use xlink:href="#DejaVuSans-4c"/>
     <use xlink:href="#DejaVuSans-69" transform="translate(55.712891 0)"/>
     <use xlink:href="#DejaVuSans-63" transform="translate(83.496094 0)"/>
     <use xlink:href="#DejaVuSans-68" transform="translate(138.476562 0)"/>
     <use xlink:href="#DejaVuSans-74" transform="translate(201.855469 0)"/>
     <use xlink:href="#DejaVuSans-20" transform="translate(241.064453 0)"/>
     <use xlink:href="#DejaVuSans-2d" transform="translate(272.851562 0)"/>
     <use xlink:href="#DejaVuSans-20" transform="translate(308.935547 0)"/>
     <use xlink:href="#DejaVuSans-76" transform="translate(340.722656 0)"/>
     <use xlink:href="#DejaVuSans-30" transform="translate(399.902344 0)"/>
     <use xlink:href="#DejaVuSans-30" transform="translate(463.525391 0)"/>
     <use xlink:href="#DejaVuSans-31" transform="translate(527.148438 0)"/>
     <use xlink:href="#DejaVuSans-2f" transform="translate(590.771484 0)"/>
     <use xlink:href="#DejaVuSans-63" transform="translate(624.462891 0)"/>
     <use xlink:href="#DejaVuSans-30" transform="translate(679.443359 0)"/>
     <use xlink:href="#DejaVuSans-30" transform="translate(743.066406 0)"/>
     <use xlink:href="#DejaVuSans-30" transform="translate(806.689453 0)"/>
     <use xlink:href="#DejaVuSans-30" transform="translate(870.3125 0)"/>
     <use xlink:href="#DejaVuSans-34" transform="translate(933.935547 0)"/>
     <use xlink:href="#DejaVuSans-2f" transform="translate(997.558594 0)"/>
     <use xlink:href="#DejaVuSans-64" transform="translate(1031.25 0)"/>
     <use xlink:href="#DejaVuSans-30" transform="translate(1094.726562 0)"/>
     <use xlink:href="#DejaVuSans-30" transform="translate(1158.349609 0)"/>
     <use xlink:href="#DejaVuSans-31" transform="translate(1221.972656 0)"/>
    </g>
   </g>
   <g id="legend_1">
    <g id="patch_7">
     <path d="M 78.84 78.914375 
L 229.78375 78.914375 
Q 231.78375 78.914375 231.78375 76.914375 
L 231.78375 33.88 
Q 231.78375 31.88 229.78375 31.88 
L 78.84 31.88 
Q 76.84 31.88 76.84 33.88 
L 76.84 76.914375 
Q 76.84 78.914375 78.84 78.914375 
z
" style="fill: #ffffff; opacity: 0.8; stroke: #cccccc; stroke-linejoin: miter"/>
    </g>
    <g id="line2d_15">
     <path d="M 80.84 39.978438 
L 90.84 39.978438 
L 100.84 39.978438 
" style="fill: none; stroke: #1f77b4; stroke-width: 2; stroke-linecap: square"/>
    </g>
    <g id="text_16">
     <!-- Hive -->
     <g transform="translate(108.84 43.478438) scale(0.1 -0.1)">
      <defs>
       <path id="DejaVuSans-48" d="M 628 4666 
L 1259 4666 
L 1259 2753 
L 3553 2753 
L 3553 4666 
L 4184 4666 
L 4184 0 
L 3553 0 
L 3553 2222 
L 1259 2222 
L 1259 0 
L 628 0 
L 628 4666 
z
" transform="scale(0.015625)"/>
      </defs>
      <use xlink:href="#DejaVuSans-48"/>
      <use xlink:href="#DejaVuSans-69" transform="translate(75.195312 0)"/>
      <use xlink:href="#DejaVuSans-76" transform="translate(102.978516 0)"/>
      <use xlink:href="#DejaVuSans-65" transform="translate(162.158203 0)"/>
     </g>
    </g>
    <g id="line2d_16">
     <path d="M 80.84 54.656563 
L 90.84 54.656563 
L 100.84 54.656563 
" style="fill: none; stroke-dasharray: 5.55,2.4; stroke-dashoffset: 0; stroke: #808080; stroke-width: 1.5"/>
    </g>
    <g id="text_17">
     <!-- Gemiddelde (alle hives) -->
     <g transform="translate(108.84 58.156563) scale(0.1 -0.1)">
      <defs>
       <path id="DejaVuSans-47" d="M 3809 666 
L 3809 1919 
L 2778 1919 
L 2778 2438 
L 4434 2438 
L 4434 434 
Q 4069 175 3628 42 
Q 3188 -91 2688 -91 
Q 1594 -91 976 548 
Q 359 1188 359 2328 
Q 359 3472 976 4111 
Q 1594 4750 2688 4750 
Q 3144 4750 3555 4637 
Q 3966 4525 4313 4306 
L 4313 3634 
Q 3963 3931 3569 4081 
Q 3175 4231 2741 4231 
Q 1884 4231 1454 3753 
Q 1025 3275 1025 2328 
Q 1025 1384 1454 906 
Q 1884 428 2741 428 
Q 3075 428 3337 486 
Q 3600 544 3809 666 
z
" transform="scale(0.015625)"/>
       <path id="DejaVuSans-6d" d="M 3328 2828 
Q 3544 3216 3844 3400 
Q 4144 3584 4550 3584 
Q 5097 3584 5394 3201 
Q 5691 2819 5691 2113 
L 5691 0 
L 5113 0 
L 5113 2094 
Q 5113 2597 4934 2840 
Q 4756 3084 4391 3084 
Q 3944 3084 3684 2787 
Q 3425 2491 3425 1978 
L 3425 0 
L 2847 0 
L 2847 2094 
Q 2847 2600 2669 2842 
Q 2491 3084 2119 3084 
Q 1678 3084 1418 2786 
Q 1159 2488 1159 1978 
L 1159 0 
L 581 0 
L 581 3500 
L 1159 3500 
L 1159 2956 
Q 1356 3278 1631 3431 
Q 1906 3584 2284 3584 
Q 2666 3584 2933 3390 
Q 3200 3197 3328 2828 
z
" transform="scale(0.015625)"/>
       <path id="DejaVuSans-6c" d="M 603 4863 
L 1178 4863 
L 1178 0 
L 603 0 
L 603 4863 
z
" transform="scale(0.015625)"/>
       <path id="DejaVuSans-28" d="M 1984 4856 
Q 1566 4138 1362 3434 
Q 1159 2731 1159 2009 
Q 1159 1288 1364 580 
Q 1569 -128 1984 -844 
L 1484 -844 
Q 1016 -109 783 600 
Q 550 1309 550 2009 
Q 550 2706 781 3412 
Q 1013 4119 1484 4856 
L 1984 4856 
z
" transform="scale(0.015625)"/>
       <path id="DejaVuSans-61" d="M 2194 1759 
Q 1497 1759 1228 1600 
Q 959 1441 959 1056 
Q 959 750 1161 570 
Q 1363 391 1709 391 
Q 2188 391 2477 730 
Q 2766 1069 2766 1631 
L 2766 1759 
L 2194 1759 
z
M 3341 1997 
L 3341 0 
L 2766 0 
L 2766 531 
Q 2569 213 2275 61 
Q 1981 -91 1556 -91 
Q 1019 -91 701 211 
Q 384 513 384 1019 
Q 384 1609 779 1909 
Q 1175 2209 1959 2209 
L 2766 2209 
L 2766 2266 
Q 2766 2663 2505 2880 
Q 2244 3097 1772 3097 
Q 1472 3097 1187 3025 
Q 903 2953 641 2809 
L 641 3341 
Q 956 3463 1253 3523 
Q 1550 3584 1831 3584 
Q 2591 3584 2966 3190 
Q 3341 2797 3341 1997 
z
" transform="scale(0.015625)"/>
       <path id="DejaVuSans-29" d="M 513 4856 
L 1013 4856 
Q 1481 4119 1714 3412 
Q 1947 2706 1947 2009 
Q 1947 1309 1714 600 
Q 1481 -109 1013 -844 
L 513 -844 
Q 928 -128 1133 580 
Q 1338 1288 1338 2009 
Q 1338 2731 1133 3434 
Q 928 4138 513 4856 
z
" transform="scale(0.015625)"/>
      </defs>
      <use xlink:href="#DejaVuSans-47"/>
      <use xlink:href="#DejaVuSans-65" transform="translate(77.490234 0)"/>
      <use xlink:href="#DejaVuSans-6d" transform="translate(139.013672 0)"/>
      <use xlink:href="#DejaVuSans-69" transform="translate(236.425781 0)"/>
      <use xlink:href="#DejaVuSans-64" transform="translate(264.208984 0)"/>
      <use xlink:href="#DejaVuSans-64" transform="translate(327.685547 0)"/>
      <use xlink:href="#DejaVuSans-65" transform="translate(391.162109 0)"/>
      <use xlink:href="#DejaVuSans-6c" transform="translate(452.685547 0)"/>
      <use xlink:href="#DejaVuSans-64" transform="translate(480.46875 0)"/>
      <use xlink:href="#DejaVuSans-65" transform="translate(543.945312 0)"/>
      <use xlink:href="#DejaVuSans-20" transform="translate(605.46875 0)"/>
      <use xlink:href="#DejaVuSans-28" transform="translate(637.255859 0)"/>
      <use xlink:href="#DejaVuSans-61" transform="translate(676.269531 0)"/>
      <use xlink:href="#DejaVuSans-6c" transform="translate(737.548828 0)"/>
      <use xlink:href="#DejaVuSans-6c" transform="translate(765.332031 0)"/>
      <use xlink:href="#DejaVuSans-65" transform="translate(793.115234 0)"/>
      <use xlink:href="#DejaVuSans-20" transform="translate(854.638672 0)"/>
      <use xlink:href="#DejaVuSans-68" transform="translate(886.425781 0)"/>
      <use xlink:href="#DejaVuSans-69" transform="translate(949.804688 0)"/>
      <use xlink:href="#DejaVuSans-76" transform="translate(977.587891 0)"/>
      <use xlink:href="#DejaVuSans-65" transform="translate(1036.767578 0)"/>
      <use xlink:href="#DejaVuSans-73" transform="translate(1098.291016 0)"/>
      <use xlink:href="#DejaVuSans-29" transform="translate(1150.390625 0)"/>
     </g>
    </g>
    <g id="patch_8">
     <path d="M 80.84 72.834688 
L 100.84 72.834688 
L 100.84 65.834688 
L 80.84 65.834688 
z
" style="fill: #808080; fill-opacity: 0.2; stroke: #808080; stroke-opacity: 0.2; stroke-linejoin: miter"/>
    </g>
    <g id="text_18">
     <!-- ±2 Std Dev -->
     <g transform="translate(108.84 72.834688) scale(0.1 -0.1)">
      <defs>
       <path id="DejaVuSans-b1" d="M 2944 4013 
L 2944 2803 
L 4684 2803 
L 4684 2272 
L 2944 2272 
L 2944 1063 
L 2419 1063 
L 2419 2272 
L 678 2272 
L 678 2803 
L 2419 2803 
L 2419 4013 
L 2944 4013 
z
M 678 531 
L 4684 531 
L 4684 0 
L 678 0 
L 678 531 
z
" transform="scale(0.015625)"/>
       <path id="DejaVuSans-53" d="M 3425 4513 
L 3425 3897 
Q 3066 4069 2747 4153 
Q 2428 4238 2131 4238 
Q 1616 4238 1336 4038 
Q 1056 3838 1056 3469 
Q 1056 3159 1242 3001 
Q 1428 2844 1947 2747 
L 2328 2669 
Q 3034 2534 3370 2195 
Q 3706 1856 3706 1288 
Q 3706 609 3251 259 
Q 2797 -91 1919 -91 
Q 1588 -91 1214 -16 
Q 841 59 441 206 
L 441 856 
Q 825 641 1194 531 
Q 1563 422 1919 422 
Q 2459 422 2753 634 
Q 3047 847 3047 1241 
Q 3047 1584 2836 1778 
Q 2625 1972 2144 2069 
L 1759 2144 
Q 1053 2284 737 2584 
Q 422 2884 422 3419 
Q 422 4038 858 4394 
Q 1294 4750 2059 4750 
Q 2388 4750 2728 4690 
Q 3069 4631 3425 4513 
z
" transform="scale(0.015625)"/>
       <path id="DejaVuSans-44" d="M 1259 4147 
L 1259 519 
L 2022 519 
Q 2988 519 3436 956 
Q 3884 1394 3884 2338 
Q 3884 3275 3436 3711 
Q 2988 4147 2022 4147 
L 1259 4147 
z
M 628 4666 
L 1925 4666 
Q 3281 4666 3915 4102 
Q 4550 3538 4550 2338 
Q 4550 1131 3912 565 
Q 3275 0 1925 0 
L 628 0 
L 628 4666 
z
" transform="scale(0.015625)"/>
      </defs>
      <use xlink:href="#DejaVuSans-b1"/>
      <use xlink:href="#DejaVuSans-32" transform="translate(83.789062 0)"/>
      <use xlink:href="#DejaVuSans-20" transform="translate(147.412109 0)"/>
      <use xlink:href="#DejaVuSans-53" transform="translate(179.199219 0)"/>
      <use xlink:href="#DejaVuSans-74" transform="translate(242.675781 0)"/>
      <use xlink:href="#DejaVuSans-64" transform="translate(281.884766 0)"/>
      <use xlink:href="#DejaVuSans-20" transform="translate(345.361328 0)"/>
      <use xlink:href="#DejaVuSans-44" transform="translate(377.148438 0)"/>
      <use xlink:href="#DejaVuSans-65" transform="translate(454.150391 0)"/>
      <use xlink:href="#DejaVuSans-76" transform="translate(515.673828 0)"/>
     </g>
    </g>
   </g>
  </g>
 </g>
 <defs>
  <clipPath id="pb5b0911ae9">
   <rect x="71.84" y="26.88" width="637.36" height="219.16"/>
  </clipPath>
 </defs>
</svg>
