<?xml version="1.0" encoding="utf-8" standalone="no"?>
<!DOCTYPE svg PUBLIC "-//W3C//DTD SVG 1.1//EN"
  "http://www.w3.org/Graphics/SVG/1.1/DTD/svg11.dtd">
<svg xmlns:xlink="http://www.w3.org/1999/xlink" width="720pt" height="288pt" viewBox="0 0 720 288" xmlns="http://www.w3.org/2000/svg" version="1.1">
 <metadata>
  <rdf:RDF xmlns:dc="http://purl.org/dc/elements/1.1/" xmlns:cc="http://creativecommons.org/ns#" xmlns:rdf="http://www.w3.org/1999/02/22-rdf-syntax-ns#">
   <cc:Work>
    <dc:type rdf:resource="http://purl.org/dc/dcmitype/StillImage"/>
    <dc:date>2025-05-31T23:15:28.626832</dc:date>
    <dc:format>image/svg+xml</dc:format>
    <dc:creator>
     <cc:Agent>
      <dc:title>Matplotlib v3.10.3, https://matplotlib.org/</dc:title>
     </cc:Agent>
    </dc:creator>
   </cc:Work>
  </rdf:RDF>
 </metadata>
 <defs>
  <style type="text/css">*{stroke-linejoin: round; stroke-linecap: butt}</style>
 </defs>
 <g id="figure_1">
  <g id="patch_1">
   <path d="M 0 288 
L 720 288 
L 720 0 
L 0 0 
z
" style="fill: #ffffff"/>
  </g>
  <g id="axes_1">
   <g id="patch_2">
    <path d="M 44.57 246.04 
L 709.2 246.04 
L 709.2 26.88 
L 44.57 26.88 
z
" style="fill: #ffffff"/>
   </g>
   <g id="FillBetweenPolyCollection_1">
    <defs>
     <path id="m5944680592" d="M 74.780455 -183.316195 
L 74.780455 -103.096461 
L 78.533306 -88.2253 
L 82.286158 -94.069955 
L 86.039009 -96.877405 
L 89.791861 -80.422663 
L 93.544712 -90.72787 
L 97.297564 -100.151444 
L 101.050415 -96.286004 
L 104.803267 -98.191142 
L 108.556118 -99.722001 
L 112.30897 -98.920859 
L 116.061821 -102.858597 
L 119.814673 -109.768496 
L 123.567524 -105.502032 
L 127.320375 -106.445727 
L 131.073227 -110.349364 
L 134.826078 -112.414977 
L 138.57893 -105.982143 
L 142.331781 -106.398006 
L 146.084633 -111.75521 
L 149.837484 -115.807941 
L 153.590336 -113.455813 
L 157.343187 -106.106678 
L 161.096039 -98.909481 
L 164.84889 -103.124211 
L 168.601742 -103.203799 
L 172.354593 -101.568392 
L 176.107445 -108.002297 
L 179.860296 -111.478166 
L 183.613148 -115.22996 
L 187.365999 -114.978266 
L 191.118851 -96.258144 
L 194.871702 -105.911751 
L 198.624554 -126.818006 
L 202.377405 -113.144657 
L 206.130257 -111.528588 
L 209.883108 -116.361603 
L 213.63596 -101.891415 
L 217.388811 -111.866126 
L 221.141663 -106.518128 
L 224.894514 -94.348158 
L 228.647366 -96.230814 
L 232.400217 -95.144509 
L 236.153069 -88.713367 
L 239.90592 -80.041696 
L 243.658772 -82.524163 
L 247.411623 -84.278886 
L 251.164475 -103.488581 
L 254.917326 -112.662408 
L 258.670178 -106.426719 
L 262.423029 -114.887837 
L 266.175881 -112.095578 
L 269.928732 -122.19098 
L 273.681584 -119.65097 
L 277.434435 -119.336761 
L 281.187287 -113.187478 
L 284.940138 -122.097239 
L 288.69299 -122.718984 
L 292.445841 -119.71672 
L 296.198693 -117.162658 
L 299.951544 -124.063887 
L 303.704396 -107.958185 
L 307.457247 -111.969583 
L 311.210099 -108.74872 
L 314.96295 -109.595084 
L 318.715802 -114.832518 
L 322.468653 -117.921058 
L 326.221505 -119.673633 
L 329.974356 -112.249274 
L 333.727208 -116.348015 
L 337.480059 -110.761991 
L 341.232911 -108.672477 
L 344.985762 -93.148222 
L 348.738614 -99.881319 
L 352.491465 -92.850754 
L 356.244317 -106.065858 
L 359.997168 -125.485548 
L 363.75002 -125.630173 
L 367.502871 -135.837189 
L 371.255723 -150.512393 
L 375.008574 -144.31298 
L 378.761426 -135.959959 
L 382.514277 -115.831594 
L 386.267129 -100.477768 
L 390.01998 -102.095695 
L 393.772832 -81.200739 
L 397.525683 -79.087424 
L 401.278535 -98.754132 
L 405.031386 -80.194088 
L 408.784238 -56.000178 
L 412.537089 -62.702326 
L 416.289941 -55.742401 
L 420.042792 -65.829529 
L 423.795644 -68.180546 
L 427.548495 -63.546675 
L 431.301347 -73.250365 
L 435.054198 -76.920817 
L 438.80705 -87.229551 
L 442.559901 -78.771264 
L 446.312753 -94.735229 
L 450.065604 -91.086839 
L 453.818456 -90.171829 
L 457.571307 -97.738675 
L 461.324159 -100.092032 
L 465.07701 -82.220484 
L 468.829862 -86.642511 
L 472.582713 -80.607042 
L 476.335565 -90.125415 
L 480.088416 -85.031736 
L 483.841268 -93.759951 
L 487.594119 -82.971894 
L 491.346971 -77.493833 
L 495.099822 -86.506757 
L 498.852674 -84.853659 
L 502.605525 -77.666957 
L 506.358377 -73.46295 
L 510.111228 -82.941712 
L 513.86408 -82.984918 
L 517.616931 -93.590592 
L 521.369783 -85.235333 
L 525.122634 -105.305532 
L 528.875486 -105.040006 
L 532.628337 -99.82655 
L 536.381189 -98.807186 
L 540.13404 -103.17066 
L 543.886892 -105.484096 
L 547.639743 -98.494608 
L 551.392595 -107.414476 
L 555.145446 -115.311346 
L 558.898298 -108.467842 
L 562.651149 -97.325096 
L 566.404001 -96.981611 
L 570.156852 -94.896832 
L 573.909704 -95.302625 
L 577.662555 -95.668127 
L 581.415407 -95.742952 
L 585.168258 -82.765082 
L 588.92111 -70.716785 
L 592.673961 -51.921818 
L 596.426813 -54.511684 
L 600.179664 -60.546044 
L 603.932516 -60.368337 
L 607.685367 -63.818866 
L 611.438219 -55.375968 
L 615.19107 -53.049088 
L 618.943922 -69.51484 
L 622.696773 -85.07826 
L 626.449625 -78.460178 
L 630.202476 -92.818826 
L 633.955327 -80.12866 
L 637.708179 -85.935194 
L 641.46103 -106.865711 
L 645.213882 -90.742759 
L 648.966733 -85.548056 
L 652.719585 -65.082718 
L 656.472436 -59.328667 
L 656.472436 -192.526464 
L 656.472436 -192.526464 
L 652.719585 -206.629094 
L 648.966733 -194.079594 
L 645.213882 -220.145746 
L 641.46103 -186.379865 
L 637.708179 -193.424123 
L 633.955327 -206.565106 
L 630.202476 -201.500085 
L 626.449625 -203.448307 
L 622.696773 -192.402722 
L 618.943922 -215.103814 
L 615.19107 -236.077569 
L 611.438219 -237.614692 
L 607.685367 -241.944469 
L 603.932516 -224.250317 
L 600.179664 -241.997289 
L 596.426813 -251.144318 
L 592.673961 -251.158182 
L 588.92111 -236.434218 
L 585.168258 -239.297597 
L 581.415407 -224.594727 
L 577.662555 -233.371224 
L 573.909704 -232.050058 
L 570.156852 -236.864188 
L 566.404001 -230.946073 
L 562.651149 -238.03926 
L 558.898298 -223.791511 
L 555.145446 -229.674683 
L 551.392595 -227.183213 
L 547.639743 -230.238077 
L 543.886892 -225.395257 
L 540.13404 -222.725356 
L 536.381189 -222.258826 
L 532.628337 -206.749453 
L 528.875486 -212.384338 
L 525.122634 -205.25714 
L 521.369783 -208.920661 
L 517.616931 -202.367069 
L 513.86408 -207.797741 
L 510.111228 -207.189279 
L 506.358377 -212.489705 
L 502.605525 -193.105687 
L 498.852674 -198.108994 
L 495.099822 -192.545893 
L 491.346971 -203.935485 
L 487.594119 -198.610758 
L 483.841268 -185.331033 
L 480.088416 -186.469242 
L 476.335565 -184.710565 
L 472.582713 -188.402268 
L 468.829862 -191.336805 
L 465.07701 -195.758832 
L 461.324159 -177.657284 
L 457.571307 -189.13398 
L 453.818456 -191.870823 
L 450.065604 -194.252482 
L 446.312753 -202.180767 
L 442.559901 -210.01806 
L 438.80705 -193.893101 
L 435.054198 -208.801838 
L 431.301347 -213.16229 
L 427.548495 -226.162649 
L 423.795644 -223.752113 
L 420.042792 -226.56313 
L 416.289941 -232.356922 
L 412.537089 -233.140336 
L 408.784238 -228.84081 
L 405.031386 -215.955241 
L 401.278535 -208.703537 
L 397.525683 -218.135239 
L 393.772832 -220.161926 
L 390.01998 -203.560307 
L 386.267129 -211.119904 
L 382.514277 -201.861083 
L 378.761426 -191.354391 
L 375.008574 -197.836381 
L 371.255723 -197.386971 
L 367.502871 -213.978844 
L 363.75002 -200.495843 
L 359.997168 -195.963798 
L 356.244317 -200.663478 
L 352.491465 -204.985243 
L 348.738614 -188.984672 
L 344.985762 -204.381108 
L 341.232911 -189.85352 
L 337.480059 -184.314003 
L 333.727208 -172.594642 
L 329.974356 -180.795052 
L 326.221505 -172.776526 
L 322.468653 -173.704934 
L 318.715802 -182.850144 
L 314.96295 -177.277571 
L 311.210099 -180.11727 
L 307.457247 -177.931408 
L 303.704396 -180.294471 
L 299.951544 -165.262103 
L 296.198693 -177.83667 
L 292.445841 -172.599272 
L 288.69299 -173.047011 
L 284.940138 -172.250421 
L 281.187287 -173.327399 
L 277.434435 -180.569237 
L 273.681584 -180.101694 
L 269.928732 -179.797797 
L 266.175881 -191.5032 
L 262.423029 -188.966497 
L 258.670178 -194.475946 
L 254.917326 -187.243589 
L 251.164475 -199.841863 
L 247.411623 -197.584877 
L 243.658772 -204.437937 
L 239.90592 -208.262072 
L 236.153069 -211.345965 
L 232.400217 -200.314819 
L 228.647366 -193.548788 
L 224.894514 -225.261186 
L 221.141663 -193.541204 
L 217.388811 -203.00266 
L 213.63596 -197.637638 
L 209.883108 -192.016067 
L 206.130257 -192.964635 
L 202.377405 -197.494681 
L 198.624554 -170.481324 
L 194.871702 -198.325916 
L 191.118851 -198.262017 
L 187.365999 -186.429122 
L 183.613148 -169.093527 
L 179.860296 -174.972822 
L 176.107445 -167.421461 
L 172.354593 -171.93231 
L 168.601742 -177.094685 
L 164.84889 -168.095656 
L 161.096039 -177.536501 
L 157.343187 -170.569303 
L 153.590336 -172.611842 
L 149.837484 -167.998046 
L 146.084633 -176.88078 
L 142.331781 -168.514642 
L 138.57893 -161.455499 
L 134.826078 -170.011009 
L 131.073227 -160.499948 
L 127.320375 -149.530241 
L 123.567524 -161.283942 
L 119.814673 -158.276091 
L 116.061821 -168.763771 
L 112.30897 -169.896784 
L 108.556118 -173.542312 
L 104.803267 -184.388177 
L 101.050415 -170.691638 
L 97.297564 -172.767869 
L 93.544712 -174.678103 
L 89.791861 -193.927762 
L 86.039009 -181.676911 
L 82.286158 -187.89603 
L 78.533306 -195.96402 
L 74.780455 -183.316195 
z
" style="stroke: #808080; stroke-opacity: 0.2"/>
    </defs>
    <g clip-path="url(#pd5b2fba6da)">
     <use xlink:href="#m5944680592" x="0" y="288" style="fill: #808080; fill-opacity: 0.2; stroke: #808080; stroke-opacity: 0.2"/>
    </g>
   </g>
   <g id="matplotlib.axis_1">
    <g id="xtick_1">
     <g id="line2d_1">
      <defs>
       <path id="m1b63d1e668" d="M 0 0 
L 0 3.5 
" style="stroke: #000000; stroke-width: 0.8"/>
      </defs>
      <g>
       <use xlink:href="#m1b63d1e668" x="82.286158" y="246.04" style="stroke: #000000; stroke-width: 0.8"/>
      </g>
     </g>
     <g id="text_1">
      <!-- 05-29 00 -->
      <g transform="translate(59.805689 260.638438) scale(0.1 -0.1)">
       <defs>
        <path id="DejaVuSans-30" d="M 2034 4250 
Q 1547 4250 1301 3770 
Q 1056 3291 1056 2328 
Q 1056 1369 1301 889 
Q 1547 409 2034 409 
Q 2525 409 2770 889 
Q 3016 1369 3016 2328 
Q 3016 3291 2770 3770 
Q 2525 4250 2034 4250 
z
M 2034 4750 
Q 2819 4750 3233 4129 
Q 3647 3509 3647 2328 
Q 3647 1150 3233 529 
Q 2819 -91 2034 -91 
Q 1250 -91 836 529 
Q 422 1150 422 2328 
Q 422 3509 836 4129 
Q 1250 4750 2034 4750 
z
" transform="scale(0.015625)"/>
        <path id="DejaVuSans-35" d="M 691 4666 
L 3169 4666 
L 3169 4134 
L 1269 4134 
L 1269 2991 
Q 1406 3038 1543 3061 
Q 1681 3084 1819 3084 
Q 2600 3084 3056 2656 
Q 3513 2228 3513 1497 
Q 3513 744 3044 326 
Q 2575 -91 1722 -91 
Q 1428 -91 1123 -41 
Q 819 9 494 109 
L 494 744 
Q 775 591 1075 516 
Q 1375 441 1709 441 
Q 2250 441 2565 725 
Q 2881 1009 2881 1497 
Q 2881 1984 2565 2268 
Q 2250 2553 1709 2553 
Q 1456 2553 1204 2497 
Q 953 2441 691 2322 
L 691 4666 
z
" transform="scale(0.015625)"/>
        <path id="DejaVuSans-2d" d="M 313 2009 
L 1997 2009 
L 1997 1497 
L 313 1497 
L 313 2009 
z
" transform="scale(0.015625)"/>
        <path id="DejaVuSans-32" d="M 1228 531 
L 3431 531 
L 3431 0 
L 469 0 
L 469 531 
Q 828 903 1448 1529 
Q 2069 2156 2228 2338 
Q 2531 2678 2651 2914 
Q 2772 3150 2772 3378 
Q 2772 3750 2511 3984 
Q 2250 4219 1831 4219 
Q 1534 4219 1204 4116 
Q 875 4013 500 3803 
L 500 4441 
Q 881 4594 1212 4672 
Q 1544 4750 1819 4750 
Q 2544 4750 2975 4387 
Q 3406 4025 3406 3419 
Q 3406 3131 3298 2873 
Q 3191 2616 2906 2266 
Q 2828 2175 2409 1742 
Q 1991 1309 1228 531 
z
" transform="scale(0.015625)"/>
        <path id="DejaVuSans-39" d="M 703 97 
L 703 672 
Q 941 559 1184 500 
Q 1428 441 1663 441 
Q 2288 441 2617 861 
Q 2947 1281 2994 2138 
Q 2813 1869 2534 1725 
Q 2256 1581 1919 1581 
Q 1219 1581 811 2004 
Q 403 2428 403 3163 
Q 403 3881 828 4315 
Q 1253 4750 1959 4750 
Q 2769 4750 3195 4129 
Q 3622 3509 3622 2328 
Q 3622 1225 3098 567 
Q 2575 -91 1691 -91 
Q 1453 -91 1209 -44 
Q 966 3 703 97 
z
M 1959 2075 
Q 2384 2075 2632 2365 
Q 2881 2656 2881 3163 
Q 2881 3666 2632 3958 
Q 2384 4250 1959 4250 
Q 1534 4250 1286 3958 
Q 1038 3666 1038 3163 
Q 1038 2656 1286 2365 
Q 1534 2075 1959 2075 
z
" transform="scale(0.015625)"/>
        <path id="DejaVuSans-20" transform="scale(0.015625)"/>
       </defs>
       <use xlink:href="#DejaVuSans-30"/>
       <use xlink:href="#DejaVuSans-35" transform="translate(63.623047 0)"/>
       <use xlink:href="#DejaVuSans-2d" transform="translate(127.246094 0)"/>
       <use xlink:href="#DejaVuSans-32" transform="translate(163.330078 0)"/>
       <use xlink:href="#DejaVuSans-39" transform="translate(226.953125 0)"/>
       <use xlink:href="#DejaVuSans-20" transform="translate(290.576172 0)"/>
       <use xlink:href="#DejaVuSans-30" transform="translate(322.363281 0)"/>
       <use xlink:href="#DejaVuSans-30" transform="translate(385.986328 0)"/>
      </g>
     </g>
    </g>
    <g id="xtick_2">
     <g id="line2d_2">
      <g>
       <use xlink:href="#m1b63d1e668" x="172.354593" y="246.04" style="stroke: #000000; stroke-width: 0.8"/>
      </g>
     </g>
     <g id="text_2">
      <!-- 05-29 12 -->
      <g transform="translate(149.874125 260.638438) scale(0.1 -0.1)">
       <defs>
        <path id="DejaVuSans-31" d="M 794 531 
L 1825 531 
L 1825 4091 
L 703 3866 
L 703 4441 
L 1819 4666 
L 2450 4666 
L 2450 531 
L 3481 531 
L 3481 0 
L 794 0 
L 794 531 
z
" transform="scale(0.015625)"/>
       </defs>
       <use xlink:href="#DejaVuSans-30"/>
       <use xlink:href="#DejaVuSans-35" transform="translate(63.623047 0)"/>
       <use xlink:href="#DejaVuSans-2d" transform="translate(127.246094 0)"/>
       <use xlink:href="#DejaVuSans-32" transform="translate(163.330078 0)"/>
       <use xlink:href="#DejaVuSans-39" transform="translate(226.953125 0)"/>
       <use xlink:href="#DejaVuSans-20" transform="translate(290.576172 0)"/>
       <use xlink:href="#DejaVuSans-31" transform="translate(322.363281 0)"/>
       <use xlink:href="#DejaVuSans-32" transform="translate(385.986328 0)"/>
      </g>
     </g>
    </g>
    <g id="xtick_3">
     <g id="line2d_3">
      <g>
       <use xlink:href="#m1b63d1e668" x="262.423029" y="246.04" style="stroke: #000000; stroke-width: 0.8"/>
      </g>
     </g>
     <g id="text_3">
      <!-- 05-30 00 -->
      <g transform="translate(239.942561 260.638438) scale(0.1 -0.1)">
       <defs>
        <path id="DejaVuSans-33" d="M 2597 2516 
Q 3050 2419 3304 2112 
Q 3559 1806 3559 1356 
Q 3559 666 3084 287 
Q 2609 -91 1734 -91 
Q 1441 -91 1130 -33 
Q 819 25 488 141 
L 488 750 
Q 750 597 1062 519 
Q 1375 441 1716 441 
Q 2309 441 2620 675 
Q 2931 909 2931 1356 
Q 2931 1769 2642 2001 
Q 2353 2234 1838 2234 
L 1294 2234 
L 1294 2753 
L 1863 2753 
Q 2328 2753 2575 2939 
Q 2822 3125 2822 3475 
Q 2822 3834 2567 4026 
Q 2313 4219 1838 4219 
Q 1578 4219 1281 4162 
Q 984 4106 628 3988 
L 628 4550 
Q 988 4650 1302 4700 
Q 1616 4750 1894 4750 
Q 2613 4750 3031 4423 
Q 3450 4097 3450 3541 
Q 3450 3153 3228 2886 
Q 3006 2619 2597 2516 
z
" transform="scale(0.015625)"/>
       </defs>
       <use xlink:href="#DejaVuSans-30"/>
       <use xlink:href="#DejaVuSans-35" transform="translate(63.623047 0)"/>
       <use xlink:href="#DejaVuSans-2d" transform="translate(127.246094 0)"/>
       <use xlink:href="#DejaVuSans-33" transform="translate(163.330078 0)"/>
       <use xlink:href="#DejaVuSans-30" transform="translate(226.953125 0)"/>
       <use xlink:href="#DejaVuSans-20" transform="translate(290.576172 0)"/>
       <use xlink:href="#DejaVuSans-30" transform="translate(322.363281 0)"/>
       <use xlink:href="#DejaVuSans-30" transform="translate(385.986328 0)"/>
      </g>
     </g>
    </g>
    <g id="xtick_4">
     <g id="line2d_4">
      <g>
       <use xlink:href="#m1b63d1e668" x="352.491465" y="246.04" style="stroke: #000000; stroke-width: 0.8"/>
      </g>
     </g>
     <g id="text_4">
      <!-- 05-30 12 -->
      <g transform="translate(330.010997 260.638438) scale(0.1 -0.1)">
       <use xlink:href="#DejaVuSans-30"/>
       <use xlink:href="#DejaVuSans-35" transform="translate(63.623047 0)"/>
       <use xlink:href="#DejaVuSans-2d" transform="translate(127.246094 0)"/>
       <use xlink:href="#DejaVuSans-33" transform="translate(163.330078 0)"/>
       <use xlink:href="#DejaVuSans-30" transform="translate(226.953125 0)"/>
       <use xlink:href="#DejaVuSans-20" transform="translate(290.576172 0)"/>
       <use xlink:href="#DejaVuSans-31" transform="translate(322.363281 0)"/>
       <use xlink:href="#DejaVuSans-32" transform="translate(385.986328 0)"/>
      </g>
     </g>
    </g>
    <g id="xtick_5">
     <g id="line2d_5">
      <g>
       <use xlink:href="#m1b63d1e668" x="442.559901" y="246.04" style="stroke: #000000; stroke-width: 0.8"/>
      </g>
     </g>
     <g id="text_5">
      <!-- 05-31 00 -->
      <g transform="translate(420.079432 260.638438) scale(0.1 -0.1)">
       <use xlink:href="#DejaVuSans-30"/>
       <use xlink:href="#DejaVuSans-35" transform="translate(63.623047 0)"/>
       <use xlink:href="#DejaVuSans-2d" transform="translate(127.246094 0)"/>
       <use xlink:href="#DejaVuSans-33" transform="translate(163.330078 0)"/>
       <use xlink:href="#DejaVuSans-31" transform="translate(226.953125 0)"/>
       <use xlink:href="#DejaVuSans-20" transform="translate(290.576172 0)"/>
       <use xlink:href="#DejaVuSans-30" transform="translate(322.363281 0)"/>
       <use xlink:href="#DejaVuSans-30" transform="translate(385.986328 0)"/>
      </g>
     </g>
    </g>
    <g id="xtick_6">
     <g id="line2d_6">
      <g>
       <use xlink:href="#m1b63d1e668" x="532.628337" y="246.04" style="stroke: #000000; stroke-width: 0.8"/>
      </g>
     </g>
     <g id="text_6">
      <!-- 05-31 12 -->
      <g transform="translate(510.147868 260.638438) scale(0.1 -0.1)">
       <use xlink:href="#DejaVuSans-30"/>
       <use xlink:href="#DejaVuSans-35" transform="translate(63.623047 0)"/>
       <use xlink:href="#DejaVuSans-2d" transform="translate(127.246094 0)"/>
       <use xlink:href="#DejaVuSans-33" transform="translate(163.330078 0)"/>
       <use xlink:href="#DejaVuSans-31" transform="translate(226.953125 0)"/>
       <use xlink:href="#DejaVuSans-20" transform="translate(290.576172 0)"/>
       <use xlink:href="#DejaVuSans-31" transform="translate(322.363281 0)"/>
       <use xlink:href="#DejaVuSans-32" transform="translate(385.986328 0)"/>
      </g>
     </g>
    </g>
    <g id="xtick_7">
     <g id="line2d_7">
      <g>
       <use xlink:href="#m1b63d1e668" x="622.696773" y="246.04" style="stroke: #000000; stroke-width: 0.8"/>
      </g>
     </g>
     <g id="text_7">
      <!-- 06-01 00 -->
      <g transform="translate(600.216304 260.638438) scale(0.1 -0.1)">
       <defs>
        <path id="DejaVuSans-36" d="M 2113 2584 
Q 1688 2584 1439 2293 
Q 1191 2003 1191 1497 
Q 1191 994 1439 701 
Q 1688 409 2113 409 
Q 2538 409 2786 701 
Q 3034 994 3034 1497 
Q 3034 2003 2786 2293 
Q 2538 2584 2113 2584 
z
M 3366 4563 
L 3366 3988 
Q 3128 4100 2886 4159 
Q 2644 4219 2406 4219 
Q 1781 4219 1451 3797 
Q 1122 3375 1075 2522 
Q 1259 2794 1537 2939 
Q 1816 3084 2150 3084 
Q 2853 3084 3261 2657 
Q 3669 2231 3669 1497 
Q 3669 778 3244 343 
Q 2819 -91 2113 -91 
Q 1303 -91 875 529 
Q 447 1150 447 2328 
Q 447 3434 972 4092 
Q 1497 4750 2381 4750 
Q 2619 4750 2861 4703 
Q 3103 4656 3366 4563 
z
" transform="scale(0.015625)"/>
       </defs>
       <use xlink:href="#DejaVuSans-30"/>
       <use xlink:href="#DejaVuSans-36" transform="translate(63.623047 0)"/>
       <use xlink:href="#DejaVuSans-2d" transform="translate(127.246094 0)"/>
       <use xlink:href="#DejaVuSans-30" transform="translate(163.330078 0)"/>
       <use xlink:href="#DejaVuSans-31" transform="translate(226.953125 0)"/>
       <use xlink:href="#DejaVuSans-20" transform="translate(290.576172 0)"/>
       <use xlink:href="#DejaVuSans-30" transform="translate(322.363281 0)"/>
       <use xlink:href="#DejaVuSans-30" transform="translate(385.986328 0)"/>
      </g>
     </g>
    </g>
    <g id="text_8">
     <!-- Tijd -->
     <g transform="translate(368.035 274.316562) scale(0.1 -0.1)">
      <defs>
       <path id="DejaVuSans-54" d="M -19 4666 
L 3928 4666 
L 3928 4134 
L 2272 4134 
L 2272 0 
L 1638 0 
L 1638 4134 
L -19 4134 
L -19 4666 
z
" transform="scale(0.015625)"/>
       <path id="DejaVuSans-69" d="M 603 3500 
L 1178 3500 
L 1178 0 
L 603 0 
L 603 3500 
z
M 603 4863 
L 1178 4863 
L 1178 4134 
L 603 4134 
L 603 4863 
z
" transform="scale(0.015625)"/>
       <path id="DejaVuSans-6a" d="M 603 3500 
L 1178 3500 
L 1178 -63 
Q 1178 -731 923 -1031 
Q 669 -1331 103 -1331 
L -116 -1331 
L -116 -844 
L 38 -844 
Q 366 -844 484 -692 
Q 603 -541 603 -63 
L 603 3500 
z
M 603 4863 
L 1178 4863 
L 1178 4134 
L 603 4134 
L 603 4863 
z
" transform="scale(0.015625)"/>
       <path id="DejaVuSans-64" d="M 2906 2969 
L 2906 4863 
L 3481 4863 
L 3481 0 
L 2906 0 
L 2906 525 
Q 2725 213 2448 61 
Q 2172 -91 1784 -91 
Q 1150 -91 751 415 
Q 353 922 353 1747 
Q 353 2572 751 3078 
Q 1150 3584 1784 3584 
Q 2172 3584 2448 3432 
Q 2725 3281 2906 2969 
z
M 947 1747 
Q 947 1113 1208 752 
Q 1469 391 1925 391 
Q 2381 391 2643 752 
Q 2906 1113 2906 1747 
Q 2906 2381 2643 2742 
Q 2381 3103 1925 3103 
Q 1469 3103 1208 2742 
Q 947 2381 947 1747 
z
" transform="scale(0.015625)"/>
      </defs>
      <use xlink:href="#DejaVuSans-54"/>
      <use xlink:href="#DejaVuSans-69" transform="translate(57.958984 0)"/>
      <use xlink:href="#DejaVuSans-6a" transform="translate(85.742188 0)"/>
      <use xlink:href="#DejaVuSans-64" transform="translate(113.525391 0)"/>
     </g>
    </g>
   </g>
   <g id="matplotlib.axis_2">
    <g id="ytick_1">
     <g id="line2d_8">
      <defs>
       <path id="m06e4c9fc4e" d="M 0 0 
L -3.5 0 
" style="stroke: #000000; stroke-width: 0.8"/>
      </defs>
      <g>
       <use xlink:href="#m06e4c9fc4e" x="44.57" y="216.208722" style="stroke: #000000; stroke-width: 0.8"/>
      </g>
     </g>
     <g id="text_9">
      <!-- 45 -->
      <g transform="translate(24.845 220.00794) scale(0.1 -0.1)">
       <defs>
        <path id="DejaVuSans-34" d="M 2419 4116 
L 825 1625 
L 2419 1625 
L 2419 4116 
z
M 2253 4666 
L 3047 4666 
L 3047 1625 
L 3713 1625 
L 3713 1100 
L 3047 1100 
L 3047 0 
L 2419 0 
L 2419 1100 
L 313 1100 
L 313 1709 
L 2253 4666 
z
" transform="scale(0.015625)"/>
       </defs>
       <use xlink:href="#DejaVuSans-34"/>
       <use xlink:href="#DejaVuSans-35" transform="translate(63.623047 0)"/>
      </g>
     </g>
    </g>
    <g id="ytick_2">
     <g id="line2d_9">
      <g>
       <use xlink:href="#m06e4c9fc4e" x="44.57" y="175.958694" style="stroke: #000000; stroke-width: 0.8"/>
      </g>
     </g>
     <g id="text_10">
      <!-- 50 -->
      <g transform="translate(24.845 179.757913) scale(0.1 -0.1)">
       <use xlink:href="#DejaVuSans-35"/>
       <use xlink:href="#DejaVuSans-30" transform="translate(63.623047 0)"/>
      </g>
     </g>
    </g>
    <g id="ytick_3">
     <g id="line2d_10">
      <g>
       <use xlink:href="#m06e4c9fc4e" x="44.57" y="135.708666" style="stroke: #000000; stroke-width: 0.8"/>
      </g>
     </g>
     <g id="text_11">
      <!-- 55 -->
      <g transform="translate(24.845 139.507885) scale(0.1 -0.1)">
       <use xlink:href="#DejaVuSans-35"/>
       <use xlink:href="#DejaVuSans-35" transform="translate(63.623047 0)"/>
      </g>
     </g>
    </g>
    <g id="ytick_4">
     <g id="line2d_11">
      <g>
       <use xlink:href="#m06e4c9fc4e" x="44.57" y="95.458638" style="stroke: #000000; stroke-width: 0.8"/>
      </g>
     </g>
     <g id="text_12">
      <!-- 60 -->
      <g transform="translate(24.845 99.257857) scale(0.1 -0.1)">
       <use xlink:href="#DejaVuSans-36"/>
       <use xlink:href="#DejaVuSans-30" transform="translate(63.623047 0)"/>
      </g>
     </g>
    </g>
    <g id="ytick_5">
     <g id="line2d_12">
      <g>
       <use xlink:href="#m06e4c9fc4e" x="44.57" y="55.208611" style="stroke: #000000; stroke-width: 0.8"/>
      </g>
     </g>
     <g id="text_13">
      <!-- 65 -->
      <g transform="translate(24.845 59.007829) scale(0.1 -0.1)">
       <use xlink:href="#DejaVuSans-36"/>
       <use xlink:href="#DejaVuSans-35" transform="translate(63.623047 0)"/>
      </g>
     </g>
    </g>
    <g id="text_14">
     <!-- (Rel.) Vochtigheid (%) -->
     <g transform="translate(18.765312 190.838125) rotate(-90) scale(0.1 -0.1)">
      <defs>
       <path id="DejaVuSans-28" d="M 1984 4856 
Q 1566 4138 1362 3434 
Q 1159 2731 1159 2009 
Q 1159 1288 1364 580 
Q 1569 -128 1984 -844 
L 1484 -844 
Q 1016 -109 783 600 
Q 550 1309 550 2009 
Q 550 2706 781 3412 
Q 1013 4119 1484 4856 
L 1984 4856 
z
" transform="scale(0.015625)"/>
       <path id="DejaVuSans-52" d="M 2841 2188 
Q 3044 2119 3236 1894 
Q 3428 1669 3622 1275 
L 4263 0 
L 3584 0 
L 2988 1197 
Q 2756 1666 2539 1819 
Q 2322 1972 1947 1972 
L 1259 1972 
L 1259 0 
L 628 0 
L 628 4666 
L 2053 4666 
Q 2853 4666 3247 4331 
Q 3641 3997 3641 3322 
Q 3641 2881 3436 2590 
Q 3231 2300 2841 2188 
z
M 1259 4147 
L 1259 2491 
L 2053 2491 
Q 2509 2491 2742 2702 
Q 2975 2913 2975 3322 
Q 2975 3731 2742 3939 
Q 2509 4147 2053 4147 
L 1259 4147 
z
" transform="scale(0.015625)"/>
       <path id="DejaVuSans-65" d="M 3597 1894 
L 3597 1613 
L 953 1613 
Q 991 1019 1311 708 
Q 1631 397 2203 397 
Q 2534 397 2845 478 
Q 3156 559 3463 722 
L 3463 178 
Q 3153 47 2828 -22 
Q 2503 -91 2169 -91 
Q 1331 -91 842 396 
Q 353 884 353 1716 
Q 353 2575 817 3079 
Q 1281 3584 2069 3584 
Q 2775 3584 3186 3129 
Q 3597 2675 3597 1894 
z
M 3022 2063 
Q 3016 2534 2758 2815 
Q 2500 3097 2075 3097 
Q 1594 3097 1305 2825 
Q 1016 2553 972 2059 
L 3022 2063 
z
" transform="scale(0.015625)"/>
       <path id="DejaVuSans-6c" d="M 603 4863 
L 1178 4863 
L 1178 0 
L 603 0 
L 603 4863 
z
" transform="scale(0.015625)"/>
       <path id="DejaVuSans-2e" d="M 684 794 
L 1344 794 
L 1344 0 
L 684 0 
L 684 794 
z
" transform="scale(0.015625)"/>
       <path id="DejaVuSans-29" d="M 513 4856 
L 1013 4856 
Q 1481 4119 1714 3412 
Q 1947 2706 1947 2009 
Q 1947 1309 1714 600 
Q 1481 -109 1013 -844 
L 513 -844 
Q 928 -128 1133 580 
Q 1338 1288 1338 2009 
Q 1338 2731 1133 3434 
Q 928 4138 513 4856 
z
" transform="scale(0.015625)"/>
       <path id="DejaVuSans-56" d="M 1831 0 
L 50 4666 
L 709 4666 
L 2188 738 
L 3669 4666 
L 4325 4666 
L 2547 0 
L 1831 0 
z
" transform="scale(0.015625)"/>
       <path id="DejaVuSans-6f" d="M 1959 3097 
Q 1497 3097 1228 2736 
Q 959 2375 959 1747 
Q 959 1119 1226 758 
Q 1494 397 1959 397 
Q 2419 397 2687 759 
Q 2956 1122 2956 1747 
Q 2956 2369 2687 2733 
Q 2419 3097 1959 3097 
z
M 1959 3584 
Q 2709 3584 3137 3096 
Q 3566 2609 3566 1747 
Q 3566 888 3137 398 
Q 2709 -91 1959 -91 
Q 1206 -91 779 398 
Q 353 888 353 1747 
Q 353 2609 779 3096 
Q 1206 3584 1959 3584 
z
" transform="scale(0.015625)"/>
       <path id="DejaVuSans-63" d="M 3122 3366 
L 3122 2828 
Q 2878 2963 2633 3030 
Q 2388 3097 2138 3097 
Q 1578 3097 1268 2742 
Q 959 2388 959 1747 
Q 959 1106 1268 751 
Q 1578 397 2138 397 
Q 2388 397 2633 464 
Q 2878 531 3122 666 
L 3122 134 
Q 2881 22 2623 -34 
Q 2366 -91 2075 -91 
Q 1284 -91 818 406 
Q 353 903 353 1747 
Q 353 2603 823 3093 
Q 1294 3584 2113 3584 
Q 2378 3584 2631 3529 
Q 2884 3475 3122 3366 
z
" transform="scale(0.015625)"/>
       <path id="DejaVuSans-68" d="M 3513 2113 
L 3513 0 
L 2938 0 
L 2938 2094 
Q 2938 2591 2744 2837 
Q 2550 3084 2163 3084 
Q 1697 3084 1428 2787 
Q 1159 2491 1159 1978 
L 1159 0 
L 581 0 
L 581 4863 
L 1159 4863 
L 1159 2956 
Q 1366 3272 1645 3428 
Q 1925 3584 2291 3584 
Q 2894 3584 3203 3211 
Q 3513 2838 3513 2113 
z
" transform="scale(0.015625)"/>
       <path id="DejaVuSans-74" d="M 1172 4494 
L 1172 3500 
L 2356 3500 
L 2356 3053 
L 1172 3053 
L 1172 1153 
Q 1172 725 1289 603 
Q 1406 481 1766 481 
L 2356 481 
L 2356 0 
L 1766 0 
Q 1100 0 847 248 
Q 594 497 594 1153 
L 594 3053 
L 172 3053 
L 172 3500 
L 594 3500 
L 594 4494 
L 1172 4494 
z
" transform="scale(0.015625)"/>
       <path id="DejaVuSans-67" d="M 2906 1791 
Q 2906 2416 2648 2759 
Q 2391 3103 1925 3103 
Q 1463 3103 1205 2759 
Q 947 2416 947 1791 
Q 947 1169 1205 825 
Q 1463 481 1925 481 
Q 2391 481 2648 825 
Q 2906 1169 2906 1791 
z
M 3481 434 
Q 3481 -459 3084 -895 
Q 2688 -1331 1869 -1331 
Q 1566 -1331 1297 -1286 
Q 1028 -1241 775 -1147 
L 775 -588 
Q 1028 -725 1275 -790 
Q 1522 -856 1778 -856 
Q 2344 -856 2625 -561 
Q 2906 -266 2906 331 
L 2906 616 
Q 2728 306 2450 153 
Q 2172 0 1784 0 
Q 1141 0 747 490 
Q 353 981 353 1791 
Q 353 2603 747 3093 
Q 1141 3584 1784 3584 
Q 2172 3584 2450 3431 
Q 2728 3278 2906 2969 
L 2906 3500 
L 3481 3500 
L 3481 434 
z
" transform="scale(0.015625)"/>
       <path id="DejaVuSans-25" d="M 4653 2053 
Q 4381 2053 4226 1822 
Q 4072 1591 4072 1178 
Q 4072 772 4226 539 
Q 4381 306 4653 306 
Q 4919 306 5073 539 
Q 5228 772 5228 1178 
Q 5228 1588 5073 1820 
Q 4919 2053 4653 2053 
z
M 4653 2450 
Q 5147 2450 5437 2106 
Q 5728 1763 5728 1178 
Q 5728 594 5436 251 
Q 5144 -91 4653 -91 
Q 4153 -91 3862 251 
Q 3572 594 3572 1178 
Q 3572 1766 3864 2108 
Q 4156 2450 4653 2450 
z
M 1428 4353 
Q 1159 4353 1004 4120 
Q 850 3888 850 3481 
Q 850 3069 1003 2837 
Q 1156 2606 1428 2606 
Q 1700 2606 1854 2837 
Q 2009 3069 2009 3481 
Q 2009 3884 1853 4118 
Q 1697 4353 1428 4353 
z
M 4250 4750 
L 4750 4750 
L 1831 -91 
L 1331 -91 
L 4250 4750 
z
M 1428 4750 
Q 1922 4750 2215 4408 
Q 2509 4066 2509 3481 
Q 2509 2891 2217 2550 
Q 1925 2209 1428 2209 
Q 931 2209 642 2551 
Q 353 2894 353 3481 
Q 353 4063 643 4406 
Q 934 4750 1428 4750 
z
" transform="scale(0.015625)"/>
      </defs>
      <use xlink:href="#DejaVuSans-28"/>
      <use xlink:href="#DejaVuSans-52" transform="translate(39.013672 0)"/>
      <use xlink:href="#DejaVuSans-65" transform="translate(103.996094 0)"/>
      <use xlink:href="#DejaVuSans-6c" transform="translate(165.519531 0)"/>
      <use xlink:href="#DejaVuSans-2e" transform="translate(193.302734 0)"/>
      <use xlink:href="#DejaVuSans-29" transform="translate(225.089844 0)"/>
      <use xlink:href="#DejaVuSans-20" transform="translate(264.103516 0)"/>
      <use xlink:href="#DejaVuSans-56" transform="translate(295.890625 0)"/>
      <use xlink:href="#DejaVuSans-6f" transform="translate(356.548828 0)"/>
      <use xlink:href="#DejaVuSans-63" transform="translate(417.730469 0)"/>
      <use xlink:href="#DejaVuSans-68" transform="translate(472.710938 0)"/>
      <use xlink:href="#DejaVuSans-74" transform="translate(536.089844 0)"/>
      <use xlink:href="#DejaVuSans-69" transform="translate(575.298828 0)"/>
      <use xlink:href="#DejaVuSans-67" transform="translate(603.082031 0)"/>
      <use xlink:href="#DejaVuSans-68" transform="translate(666.558594 0)"/>
      <use xlink:href="#DejaVuSans-65" transform="translate(729.9375 0)"/>
      <use xlink:href="#DejaVuSans-69" transform="translate(791.460938 0)"/>
      <use xlink:href="#DejaVuSans-64" transform="translate(819.244141 0)"/>
      <use xlink:href="#DejaVuSans-20" transform="translate(882.720703 0)"/>
      <use xlink:href="#DejaVuSans-28" transform="translate(914.507812 0)"/>
      <use xlink:href="#DejaVuSans-25" transform="translate(953.521484 0)"/>
      <use xlink:href="#DejaVuSans-29" transform="translate(1048.541016 0)"/>
     </g>
    </g>
   </g>
   <g id="line2d_13">
    <path d="M 74.780455 145.368673 
L 78.533306 129.536995 
L 82.286158 130.610329 
L 86.039009 135.171999 
L 89.791861 156.907014 
L 93.544712 140.538669 
L 97.297564 144.563672 
L 101.050415 136.111166 
L 104.803267 122.29199 
L 108.556118 144.563672 
L 112.30897 144.027005 
L 116.061821 133.025331 
L 119.814673 147.783674 
L 123.567524 133.561998 
L 127.320375 149.125342 
L 131.073227 144.563672 
L 134.826078 137.318667 
L 138.57893 137.318667 
L 142.331781 148.052008 
L 146.084633 123.365324 
L 149.837484 138.123668 
L 153.590336 137.318667 
L 157.343187 132.488664 
L 161.096039 130.073662 
L 164.84889 129.268662 
L 172.354593 122.023657 
L 176.107445 133.293664 
L 179.860296 163.078685 
L 183.613148 127.658661 
L 187.365999 118.803654 
L 191.118851 118.535321 
L 194.871702 104.313644 
L 198.624554 135.708666 
L 202.377405 97.068639 
L 206.130257 122.023657 
L 209.883108 120.011155 
L 213.63596 137.587001 
L 217.388811 112.36365 
L 221.141663 127.658661 
L 224.894514 118.803654 
L 228.647366 121.218656 
L 232.400217 131.683663 
L 236.153069 122.29199 
L 239.90592 133.025331 
L 243.658772 144.563672 
L 247.411623 133.830332 
L 251.164475 133.293664 
L 254.917326 137.318667 
L 258.670178 153.418678 
L 262.423029 148.186175 
L 277.434435 153.418678 
L 281.187287 163.883686 
L 284.940138 148.320342 
L 288.69299 134.635332 
L 292.445841 150.735343 
L 296.198693 137.318667 
L 299.951544 146.442007 
L 303.704396 137.050334 
L 307.457247 148.857009 
L 311.210099 156.907014 
L 314.96295 174.617026 
L 318.715802 146.978674 
L 326.221505 143.222005 
L 329.974356 139.465335 
L 333.727208 151.808677 
L 337.480059 140.002002 
L 341.232911 130.341996 
L 344.985762 128.463661 
L 348.738614 143.490338 
L 352.491465 133.561998 
L 356.244317 118.535321 
L 359.997168 118.803654 
L 363.75002 117.998654 
L 367.502871 91.701969 
L 371.255723 104.313644 
L 375.008574 113.705318 
L 378.761426 126.048659 
L 382.514277 151.540344 
L 386.267129 158.517015 
L 390.01998 162.273684 
L 393.772832 169.787023 
L 397.525683 177.568695 
L 401.278535 149.125342 
L 405.031386 148.320342 
L 408.784238 170.32369 
L 412.537089 150.735343 
L 416.289941 164.95702 
L 420.042792 148.857009 
L 423.795644 145.637006 
L 427.548495 156.907014 
L 431.301347 143.222005 
L 435.054198 139.733669 
L 438.80705 150.735343 
L 442.559901 141.34367 
L 446.312753 142.685338 
L 450.065604 155.565347 
L 457.571307 159.858683 
L 461.324159 165.76202 
L 465.07701 161.20035 
L 468.829862 134.635332 
L 472.582713 148.052008 
L 476.335565 151.003677 
L 480.088416 163.078685 
L 483.841268 151.003677 
L 487.594119 160.39535 
L 491.346971 161.20035 
L 495.099822 165.493687 
L 498.852674 159.858683 
L 502.605525 162.273684 
L 506.358377 168.982022 
L 510.111228 153.150345 
L 513.86408 145.90534 
L 517.616931 151.27201 
L 521.369783 165.225353 
L 525.122634 141.880337 
L 528.875486 123.901991 
L 532.628337 133.293664 
L 536.381189 132.488664 
L 540.13404 135.977 
L 543.886892 140.002002 
L 547.639743 155.297013 
L 551.392595 140.807003 
L 555.145446 130.341996 
L 558.898298 145.90534 
L 562.651149 149.125342 
L 566.404001 164.286186 
L 570.156852 163.883686 
L 573.909704 174.348693 
L 577.662555 163.078685 
L 581.415407 163.883686 
L 585.168258 167.372021 
L 588.92111 175.958694 
L 592.673961 178.105362 
L 596.426813 163.883686 
L 600.179664 164.152019 
L 603.932516 179.178696 
L 607.685367 163.078685 
L 611.438219 171.397024 
L 615.19107 169.250356 
L 618.943922 153.418678 
L 618.943922 153.418678 
" clip-path="url(#pd5b2fba6da)" style="fill: none; stroke: #1f77b4; stroke-width: 2; stroke-linecap: square"/>
   </g>
   <g id="line2d_14">
    <path d="M 74.780455 144.793672 
L 82.286158 147.017007 
L 86.039009 148.722842 
L 89.791861 150.824788 
L 93.544712 155.297013 
L 97.297564 151.540344 
L 101.050415 154.511179 
L 104.803267 146.71034 
L 108.556118 151.367844 
L 112.30897 153.591178 
L 116.061821 152.188816 
L 119.814673 153.977707 
L 123.567524 154.607013 
L 127.320375 160.012016 
L 131.073227 152.575344 
L 134.826078 146.787007 
L 138.57893 154.281179 
L 142.331781 150.543676 
L 146.084633 143.682005 
L 149.837484 146.097007 
L 153.590336 144.966173 
L 157.343187 149.662009 
L 161.096039 149.777009 
L 164.84889 152.390067 
L 168.601742 147.850758 
L 172.354593 151.249649 
L 176.107445 150.288121 
L 179.860296 144.774506 
L 183.613148 145.838256 
L 187.365999 137.296306 
L 191.118851 140.73992 
L 194.871702 135.881166 
L 198.624554 139.350335 
L 202.377405 132.680331 
L 206.130257 135.753388 
L 209.883108 133.811165 
L 213.63596 138.235473 
L 217.388811 130.565607 
L 221.141663 137.970334 
L 224.894514 128.195328 
L 228.647366 143.110199 
L 232.400217 140.270336 
L 236.153069 137.970334 
L 239.90592 143.848116 
L 243.658772 144.51895 
L 247.411623 147.068118 
L 251.164475 136.334778 
L 254.917326 138.047001 
L 258.670178 137.548667 
L 262.423029 136.072833 
L 266.175881 136.200611 
L 269.928732 137.005611 
L 273.681584 138.123668 
L 277.434435 138.047001 
L 281.187287 144.742561 
L 284.940138 140.82617 
L 288.69299 140.117003 
L 292.445841 141.842004 
L 296.198693 140.500336 
L 299.951544 143.337005 
L 303.704396 143.873672 
L 307.457247 143.049505 
L 311.210099 143.567005 
L 314.96295 144.563672 
L 318.715802 139.158669 
L 322.468653 142.187004 
L 326.221505 141.77492 
L 329.974356 141.477837 
L 333.727208 143.528672 
L 337.480059 140.462003 
L 341.232911 138.737002 
L 344.985762 139.235335 
L 348.738614 143.567005 
L 356.244317 134.635332 
L 359.997168 127.275327 
L 363.75002 124.936992 
L 367.502871 113.091984 
L 371.255723 114.050318 
L 375.008574 116.92532 
L 378.761426 124.342825 
L 382.514277 129.153662 
L 390.01998 135.171999 
L 397.525683 139.388669 
L 401.278535 134.271165 
L 408.784238 145.579506 
L 412.537089 140.078669 
L 416.289941 143.950339 
L 420.042792 141.80367 
L 423.795644 142.033671 
L 427.548495 143.145338 
L 431.301347 144.793672 
L 435.054198 145.138673 
L 438.80705 147.438674 
L 442.559901 143.605338 
L 446.312753 139.542002 
L 450.065604 145.330339 
L 453.818456 146.978674 
L 457.571307 144.563672 
L 461.324159 149.125342 
L 465.07701 149.010342 
L 468.829862 149.010342 
L 472.582713 153.495345 
L 476.335565 150.58201 
L 480.088416 152.249511 
L 483.841268 148.454508 
L 487.594119 147.208674 
L 491.346971 147.285341 
L 495.099822 148.473675 
L 498.852674 146.518674 
L 502.605525 152.613678 
L 506.358377 145.023673 
L 510.111228 142.934504 
L 513.86408 142.608671 
L 517.616931 140.021169 
L 521.369783 140.922003 
L 525.122634 132.718664 
L 528.875486 129.287828 
L 532.628337 134.711999 
L 536.381189 127.466994 
L 543.886892 122.560324 
L 547.639743 123.633658 
L 551.392595 120.701156 
L 555.145446 115.506986 
L 558.898298 121.870323 
L 562.651149 120.317822 
L 566.404001 124.036158 
L 570.156852 122.11949 
L 573.909704 124.323658 
L 577.662555 123.480324 
L 581.415407 127.831161 
L 585.168258 126.96866 
L 588.92111 134.424499 
L 592.673961 136.46 
L 596.426813 135.171999 
L 600.179664 136.728334 
L 603.932516 145.690673 
L 607.685367 135.118332 
L 611.438219 141.50467 
L 615.19107 143.436671 
L 618.943922 145.690673 
L 622.696773 149.259509 
L 626.449625 147.045757 
L 630.202476 140.840545 
L 637.708179 148.320342 
L 641.46103 141.377212 
L 645.213882 132.555747 
L 648.966733 148.186175 
L 652.719585 152.144094 
L 656.472436 162.072434 
L 660.225288 132.756997 
L 663.978139 130.341996 
L 667.730991 136.513667 
L 671.483842 136.782 
L 675.236694 131.683663 
L 678.989545 130.878663 
L 678.989545 130.878663 
" clip-path="url(#pd5b2fba6da)" style="fill: none; stroke-dasharray: 5.55,2.4; stroke-dashoffset: 0; stroke: #808080; stroke-width: 1.5"/>
   </g>
   <g id="patch_3">
    <path d="M 44.57 246.04 
L 44.57 26.88 
" style="fill: none; stroke: #000000; stroke-width: 0.8; stroke-linejoin: miter; stroke-linecap: square"/>
   </g>
   <g id="patch_4">
    <path d="M 709.2 246.04 
L 709.2 26.88 
" style="fill: none; stroke: #000000; stroke-width: 0.8; stroke-linejoin: miter; stroke-linecap: square"/>
   </g>
   <g id="patch_5">
    <path d="M 44.57 246.04 
L 709.2 246.04 
" style="fill: none; stroke: #000000; stroke-width: 0.8; stroke-linejoin: miter; stroke-linecap: square"/>
   </g>
   <g id="patch_6">
    <path d="M 44.57 26.88 
L 709.2 26.88 
" style="fill: none; stroke: #000000; stroke-width: 0.8; stroke-linejoin: miter; stroke-linecap: square"/>
   </g>
   <g id="text_15">
    <!-- Luchtvochtigheid - v001/c00001/d021 -->
    <g transform="translate(262.595312 20.88) scale(0.12 -0.12)">
     <defs>
      <path id="DejaVuSans-4c" d="M 628 4666 
L 1259 4666 
L 1259 531 
L 3531 531 
L 3531 0 
L 628 0 
L 628 4666 
z
" transform="scale(0.015625)"/>
      <path id="DejaVuSans-75" d="M 544 1381 
L 544 3500 
L 1119 3500 
L 1119 1403 
Q 1119 906 1312 657 
Q 1506 409 1894 409 
Q 2359 409 2629 706 
Q 2900 1003 2900 1516 
L 2900 3500 
L 3475 3500 
L 3475 0 
L 2900 0 
L 2900 538 
Q 2691 219 2414 64 
Q 2138 -91 1772 -91 
Q 1169 -91 856 284 
Q 544 659 544 1381 
z
M 1991 3584 
L 1991 3584 
z
" transform="scale(0.015625)"/>
      <path id="DejaVuSans-76" d="M 191 3500 
L 800 3500 
L 1894 563 
L 2988 3500 
L 3597 3500 
L 2284 0 
L 1503 0 
L 191 3500 
z
" transform="scale(0.015625)"/>
      <path id="DejaVuSans-2f" d="M 1625 4666 
L 2156 4666 
L 531 -594 
L 0 -594 
L 1625 4666 
z
" transform="scale(0.015625)"/>
     </defs>
     <use xlink:href="#DejaVuSans-4c"/>
     <use xlink:href="#DejaVuSans-75" transform="translate(53.962891 0)"/>
     <use xlink:href="#DejaVuSans-63" transform="translate(117.341797 0)"/>
     <use xlink:href="#DejaVuSans-68" transform="translate(172.322266 0)"/>
     <use xlink:href="#DejaVuSans-74" transform="translate(235.701172 0)"/>
     <use xlink:href="#DejaVuSans-76" transform="translate(274.910156 0)"/>
     <use xlink:href="#DejaVuSans-6f" transform="translate(334.089844 0)"/>
     <use xlink:href="#DejaVuSans-63" transform="translate(395.271484 0)"/>
     <use xlink:href="#DejaVuSans-68" transform="translate(450.251953 0)"/>
     <use xlink:href="#DejaVuSans-74" transform="translate(513.630859 0)"/>
     <use xlink:href="#DejaVuSans-69" transform="translate(552.839844 0)"/>
     <use xlink:href="#DejaVuSans-67" transform="translate(580.623047 0)"/>
     <use xlink:href="#DejaVuSans-68" transform="translate(644.099609 0)"/>
     <use xlink:href="#DejaVuSans-65" transform="translate(707.478516 0)"/>
     <use xlink:href="#DejaVuSans-69" transform="translate(769.001953 0)"/>
     <use xlink:href="#DejaVuSans-64" transform="translate(796.785156 0)"/>
     <use xlink:href="#DejaVuSans-20" transform="translate(860.261719 0)"/>
     <use xlink:href="#DejaVuSans-2d" transform="translate(892.048828 0)"/>
     <use xlink:href="#DejaVuSans-20" transform="translate(928.132812 0)"/>
     <use xlink:href="#DejaVuSans-76" transform="translate(959.919922 0)"/>
     <use xlink:href="#DejaVuSans-30" transform="translate(1019.099609 0)"/>
     <use xlink:href="#DejaVuSans-30" transform="translate(1082.722656 0)"/>
     <use xlink:href="#DejaVuSans-31" transform="translate(1146.345703 0)"/>
     <use xlink:href="#DejaVuSans-2f" transform="translate(1209.96875 0)"/>
     <use xlink:href="#DejaVuSans-63" transform="translate(1243.660156 0)"/>
     <use xlink:href="#DejaVuSans-30" transform="translate(1298.640625 0)"/>
     <use xlink:href="#DejaVuSans-30" transform="translate(1362.263672 0)"/>
     <use xlink:href="#DejaVuSans-30" transform="translate(1425.886719 0)"/>
     <use xlink:href="#DejaVuSans-30" transform="translate(1489.509766 0)"/>
     <use xlink:href="#DejaVuSans-31" transform="translate(1553.132812 0)"/>
     <use xlink:href="#DejaVuSans-2f" transform="translate(1616.755859 0)"/>
     <use xlink:href="#DejaVuSans-64" transform="translate(1650.447266 0)"/>
     <use xlink:href="#DejaVuSans-30" transform="translate(1713.923828 0)"/>
     <use xlink:href="#DejaVuSans-32" transform="translate(1777.546875 0)"/>
     <use xlink:href="#DejaVuSans-31" transform="translate(1841.169922 0)"/>
    </g>
   </g>
   <g id="legend_1">
    <g id="patch_7">
     <path d="M 51.57 78.914375 
L 202.51375 78.914375 
Q 204.51375 78.914375 204.51375 76.914375 
L 204.51375 33.88 
Q 204.51375 31.88 202.51375 31.88 
L 51.57 31.88 
Q 49.57 31.88 49.57 33.88 
L 49.57 76.914375 
Q 49.57 78.914375 51.57 78.914375 
z
" style="fill: #ffffff; opacity: 0.8; stroke: #cccccc; stroke-linejoin: miter"/>
    </g>
    <g id="line2d_15">
     <path d="M 53.57 39.978438 
L 63.57 39.978438 
L 73.57 39.978438 
" style="fill: none; stroke: #1f77b4; stroke-width: 2; stroke-linecap: square"/>
    </g>
    <g id="text_16">
     <!-- Hive -->
     <g transform="translate(81.57 43.478438) scale(0.1 -0.1)">
      <defs>
       <path id="DejaVuSans-48" d="M 628 4666 
L 1259 4666 
L 1259 2753 
L 3553 2753 
L 3553 4666 
L 4184 4666 
L 4184 0 
L 3553 0 
L 3553 2222 
L 1259 2222 
L 1259 0 
L 628 0 
L 628 4666 
z
" transform="scale(0.015625)"/>
      </defs>
      <use xlink:href="#DejaVuSans-48"/>
      <use xlink:href="#DejaVuSans-69" transform="translate(75.195312 0)"/>
      <use xlink:href="#DejaVuSans-76" transform="translate(102.978516 0)"/>
      <use xlink:href="#DejaVuSans-65" transform="translate(162.158203 0)"/>
     </g>
    </g>
    <g id="line2d_16">
     <path d="M 53.57 54.656563 
L 63.57 54.656563 
L 73.57 54.656563 
" style="fill: none; stroke-dasharray: 5.55,2.4; stroke-dashoffset: 0; stroke: #808080; stroke-width: 1.5"/>
    </g>
    <g id="text_17">
     <!-- Gemiddelde (alle hives) -->
     <g transform="translate(81.57 58.156563) scale(0.1 -0.1)">
      <defs>
       <path id="DejaVuSans-47" d="M 3809 666 
L 3809 1919 
L 2778 1919 
L 2778 2438 
L 4434 2438 
L 4434 434 
Q 4069 175 3628 42 
Q 3188 -91 2688 -91 
Q 1594 -91 976 548 
Q 359 1188 359 2328 
Q 359 3472 976 4111 
Q 1594 4750 2688 4750 
Q 3144 4750 3555 4637 
Q 3966 4525 4313 4306 
L 4313 3634 
Q 3963 3931 3569 4081 
Q 3175 4231 2741 4231 
Q 1884 4231 1454 3753 
Q 1025 3275 1025 2328 
Q 1025 1384 1454 906 
Q 1884 428 2741 428 
Q 3075 428 3337 486 
Q 3600 544 3809 666 
z
" transform="scale(0.015625)"/>
       <path id="DejaVuSans-6d" d="M 3328 2828 
Q 3544 3216 3844 3400 
Q 4144 3584 4550 3584 
Q 5097 3584 5394 3201 
Q 5691 2819 5691 2113 
L 5691 0 
L 5113 0 
L 5113 2094 
Q 5113 2597 4934 2840 
Q 4756 3084 4391 3084 
Q 3944 3084 3684 2787 
Q 3425 2491 3425 1978 
L 3425 0 
L 2847 0 
L 2847 2094 
Q 2847 2600 2669 2842 
Q 2491 3084 2119 3084 
Q 1678 3084 1418 2786 
Q 1159 2488 1159 1978 
L 1159 0 
L 581 0 
L 581 3500 
L 1159 3500 
L 1159 2956 
Q 1356 3278 1631 3431 
Q 1906 3584 2284 3584 
Q 2666 3584 2933 3390 
Q 3200 3197 3328 2828 
z
" transform="scale(0.015625)"/>
       <path id="DejaVuSans-61" d="M 2194 1759 
Q 1497 1759 1228 1600 
Q 959 1441 959 1056 
Q 959 750 1161 570 
Q 1363 391 1709 391 
Q 2188 391 2477 730 
Q 2766 1069 2766 1631 
L 2766 1759 
L 2194 1759 
z
M 3341 1997 
L 3341 0 
L 2766 0 
L 2766 531 
Q 2569 213 2275 61 
Q 1981 -91 1556 -91 
Q 1019 -91 701 211 
Q 384 513 384 1019 
Q 384 1609 779 1909 
Q 1175 2209 1959 2209 
L 2766 2209 
L 2766 2266 
Q 2766 2663 2505 2880 
Q 2244 3097 1772 3097 
Q 1472 3097 1187 3025 
Q 903 2953 641 2809 
L 641 3341 
Q 956 3463 1253 3523 
Q 1550 3584 1831 3584 
Q 2591 3584 2966 3190 
Q 3341 2797 3341 1997 
z
" transform="scale(0.015625)"/>
       <path id="DejaVuSans-73" d="M 2834 3397 
L 2834 2853 
Q 2591 2978 2328 3040 
Q 2066 3103 1784 3103 
Q 1356 3103 1142 2972 
Q 928 2841 928 2578 
Q 928 2378 1081 2264 
Q 1234 2150 1697 2047 
L 1894 2003 
Q 2506 1872 2764 1633 
Q 3022 1394 3022 966 
Q 3022 478 2636 193 
Q 2250 -91 1575 -91 
Q 1294 -91 989 -36 
Q 684 19 347 128 
L 347 722 
Q 666 556 975 473 
Q 1284 391 1588 391 
Q 1994 391 2212 530 
Q 2431 669 2431 922 
Q 2431 1156 2273 1281 
Q 2116 1406 1581 1522 
L 1381 1569 
Q 847 1681 609 1914 
Q 372 2147 372 2553 
Q 372 3047 722 3315 
Q 1072 3584 1716 3584 
Q 2034 3584 2315 3537 
Q 2597 3491 2834 3397 
z
" transform="scale(0.015625)"/>
      </defs>
      <use xlink:href="#DejaVuSans-47"/>
      <use xlink:href="#DejaVuSans-65" transform="translate(77.490234 0)"/>
      <use xlink:href="#DejaVuSans-6d" transform="translate(139.013672 0)"/>
      <use xlink:href="#DejaVuSans-69" transform="translate(236.425781 0)"/>
      <use xlink:href="#DejaVuSans-64" transform="translate(264.208984 0)"/>
      <use xlink:href="#DejaVuSans-64" transform="translate(327.685547 0)"/>
      <use xlink:href="#DejaVuSans-65" transform="translate(391.162109 0)"/>
      <use xlink:href="#DejaVuSans-6c" transform="translate(452.685547 0)"/>
      <use xlink:href="#DejaVuSans-64" transform="translate(480.46875 0)"/>
      <use xlink:href="#DejaVuSans-65" transform="translate(543.945312 0)"/>
      <use xlink:href="#DejaVuSans-20" transform="translate(605.46875 0)"/>
      <use xlink:href="#DejaVuSans-28" transform="translate(637.255859 0)"/>
      <use xlink:href="#DejaVuSans-61" transform="translate(676.269531 0)"/>
      <use xlink:href="#DejaVuSans-6c" transform="translate(737.548828 0)"/>
      <use xlink:href="#DejaVuSans-6c" transform="translate(765.332031 0)"/>
      <use xlink:href="#DejaVuSans-65" transform="translate(793.115234 0)"/>
      <use xlink:href="#DejaVuSans-20" transform="translate(854.638672 0)"/>
      <use xlink:href="#DejaVuSans-68" transform="translate(886.425781 0)"/>
      <use xlink:href="#DejaVuSans-69" transform="translate(949.804688 0)"/>
      <use xlink:href="#DejaVuSans-76" transform="translate(977.587891 0)"/>
      <use xlink:href="#DejaVuSans-65" transform="translate(1036.767578 0)"/>
      <use xlink:href="#DejaVuSans-73" transform="translate(1098.291016 0)"/>
      <use xlink:href="#DejaVuSans-29" transform="translate(1150.390625 0)"/>
     </g>
    </g>
    <g id="patch_8">
     <path d="M 53.57 72.834688 
L 73.57 72.834688 
L 73.57 65.834688 
L 53.57 65.834688 
z
" style="fill: #808080; fill-opacity: 0.2; stroke: #808080; stroke-opacity: 0.2; stroke-linejoin: miter"/>
    </g>
    <g id="text_18">
     <!-- ±2 Std Dev -->
     <g transform="translate(81.57 72.834688) scale(0.1 -0.1)">
      <defs>
       <path id="DejaVuSans-b1" d="M 2944 4013 
L 2944 2803 
L 4684 2803 
L 4684 2272 
L 2944 2272 
L 2944 1063 
L 2419 1063 
L 2419 2272 
L 678 2272 
L 678 2803 
L 2419 2803 
L 2419 4013 
L 2944 4013 
z
M 678 531 
L 4684 531 
L 4684 0 
L 678 0 
L 678 531 
z
" transform="scale(0.015625)"/>
       <path id="DejaVuSans-53" d="M 3425 4513 
L 3425 3897 
Q 3066 4069 2747 4153 
Q 2428 4238 2131 4238 
Q 1616 4238 1336 4038 
Q 1056 3838 1056 3469 
Q 1056 3159 1242 3001 
Q 1428 2844 1947 2747 
L 2328 2669 
Q 3034 2534 3370 2195 
Q 3706 1856 3706 1288 
Q 3706 609 3251 259 
Q 2797 -91 1919 -91 
Q 1588 -91 1214 -16 
Q 841 59 441 206 
L 441 856 
Q 825 641 1194 531 
Q 1563 422 1919 422 
Q 2459 422 2753 634 
Q 3047 847 3047 1241 
Q 3047 1584 2836 1778 
Q 2625 1972 2144 2069 
L 1759 2144 
Q 1053 2284 737 2584 
Q 422 2884 422 3419 
Q 422 4038 858 4394 
Q 1294 4750 2059 4750 
Q 2388 4750 2728 4690 
Q 3069 4631 3425 4513 
z
" transform="scale(0.015625)"/>
       <path id="DejaVuSans-44" d="M 1259 4147 
L 1259 519 
L 2022 519 
Q 2988 519 3436 956 
Q 3884 1394 3884 2338 
Q 3884 3275 3436 3711 
Q 2988 4147 2022 4147 
L 1259 4147 
z
M 628 4666 
L 1925 4666 
Q 3281 4666 3915 4102 
Q 4550 3538 4550 2338 
Q 4550 1131 3912 565 
Q 3275 0 1925 0 
L 628 0 
L 628 4666 
z
" transform="scale(0.015625)"/>
      </defs>
      <use xlink:href="#DejaVuSans-b1"/>
      <use xlink:href="#DejaVuSans-32" transform="translate(83.789062 0)"/>
      <use xlink:href="#DejaVuSans-20" transform="translate(147.412109 0)"/>
      <use xlink:href="#DejaVuSans-53" transform="translate(179.199219 0)"/>
      <use xlink:href="#DejaVuSans-74" transform="translate(242.675781 0)"/>
      <use xlink:href="#DejaVuSans-64" transform="translate(281.884766 0)"/>
      <use xlink:href="#DejaVuSans-20" transform="translate(345.361328 0)"/>
      <use xlink:href="#DejaVuSans-44" transform="translate(377.148438 0)"/>
      <use xlink:href="#DejaVuSans-65" transform="translate(454.150391 0)"/>
      <use xlink:href="#DejaVuSans-76" transform="translate(515.673828 0)"/>
     </g>
    </g>
   </g>
  </g>
 </g>
 <defs>
  <clipPath id="pd5b2fba6da">
   <rect x="44.57" y="26.88" width="664.63" height="219.16"/>
  </clipPath>
 </defs>
</svg>
