<?xml version="1.0" encoding="utf-8" standalone="no"?>
<!DOCTYPE svg PUBLIC "-//W3C//DTD SVG 1.1//EN"
  "http://www.w3.org/Graphics/SVG/1.1/DTD/svg11.dtd">
<svg xmlns:xlink="http://www.w3.org/1999/xlink" width="720pt" height="288pt" viewBox="0 0 720 288" xmlns="http://www.w3.org/2000/svg" version="1.1">
 <metadata>
  <rdf:RDF xmlns:dc="http://purl.org/dc/elements/1.1/" xmlns:cc="http://creativecommons.org/ns#" xmlns:rdf="http://www.w3.org/1999/02/22-rdf-syntax-ns#">
   <cc:Work>
    <dc:type rdf:resource="http://purl.org/dc/dcmitype/StillImage"/>
    <dc:date>2025-05-21T20:18:08.807723</dc:date>
    <dc:format>image/svg+xml</dc:format>
    <dc:creator>
     <cc:Agent>
      <dc:title>Matplotlib v3.10.3, https://matplotlib.org/</dc:title>
     </cc:Agent>
    </dc:creator>
   </cc:Work>
  </rdf:RDF>
 </metadata>
 <defs>
  <style type="text/css">*{stroke-linejoin: round; stroke-linecap: butt}</style>
 </defs>
 <g id="figure_1">
  <g id="patch_1">
   <path d="M 0 288 
L 720 288 
L 720 0 
L 0 0 
z
" style="fill: #ffffff"/>
  </g>
  <g id="axes_1">
   <g id="patch_2">
    <path d="M 63.47 246.04 
L 695.079462 246.04 
L 695.079462 26.88 
L 63.47 26.88 
z
" style="fill: #ffffff"/>
   </g>
   <g id="FillBetweenPolyCollection_1">
    <defs>
     <path id="md1d6d6a245" d="M 92.179521 -201.557887 
L 92.179521 -61.578612 
L 96.085578 -79.209339 
L 99.991636 -87.775889 
L 103.897693 -84.829397 
L 107.80375 -81.095261 
L 111.709807 -93.549843 
L 115.615865 -87.183974 
L 119.521922 -91.374103 
L 123.427979 -89.809069 
L 127.334037 -97.475029 
L 131.240094 -99.892313 
L 135.146151 -106.174549 
L 139.052208 -87.253784 
L 142.958266 -86.296757 
L 146.864323 -94.209255 
L 150.77038 -82.092723 
L 154.676437 -82.581486 
L 158.582495 -78.580769 
L 162.488552 -82.147719 
L 166.394609 -72.136822 
L 170.300667 -76.141794 
L 174.206724 -68.441484 
L 178.112781 -88.714537 
L 182.018838 -89.42446 
L 185.924896 -86.488071 
L 189.830953 -73.146414 
L 193.73701 -69.780335 
L 197.643068 -90.231545 
L 201.549125 -86.000372 
L 205.455182 -86.339228 
L 209.361239 -85.080157 
L 213.267297 -86.954335 
L 217.173354 -81.518003 
L 221.079411 -74.172313 
L 224.985468 -79.349448 
L 228.891526 -73.9087 
L 232.797583 -67.546089 
L 236.70364 -61.050822 
L 240.609698 -84.072006 
L 244.515755 -84.424531 
L 248.421812 -83.59326 
L 252.327869 -74.729978 
L 256.233927 -77.698483 
L 260.139984 -67.581049 
L 264.046041 -81.086978 
L 267.952099 -73.909459 
L 271.858156 -61.09393 
L 275.764213 -69.449317 
L 279.67027 -72.015362 
L 283.576328 -51.921818 
L 287.482385 -60.006959 
L 291.388442 -66.600715 
L 295.294499 -58.593039 
L 299.200557 -81.57199 
L 303.106614 -60.355606 
L 307.012671 -65.53099 
L 310.918729 -85.867935 
L 314.824786 -89.541159 
L 318.730843 -83.178285 
L 322.6369 -62.540776 
L 326.542958 -55.208325 
L 330.449015 -70.12943 
L 334.355072 -81.447221 
L 338.26113 -74.806486 
L 342.167187 -73.416527 
L 346.073244 -65.348153 
L 349.979301 -66.471559 
L 353.885359 -66.679673 
L 357.791416 -106.562163 
L 361.697473 -88.341104 
L 365.603531 -93.890903 
L 369.509588 -85.511291 
L 373.415645 -82.473149 
L 377.321702 -86.340112 
L 381.22776 -89.597929 
L 385.133817 -76.427658 
L 389.039874 -76.088829 
L 392.945931 -93.656338 
L 396.851989 -88.178844 
L 400.758046 -83.485786 
L 404.664103 -94.19574 
L 408.570161 -98.363994 
L 412.476218 -99.318184 
L 416.382275 -94.810642 
L 420.288332 -90.654627 
L 424.19439 -96.176946 
L 428.100447 -94.947646 
L 432.006504 -82.832695 
L 435.912562 -82.634781 
L 439.818619 -84.902127 
L 443.724676 -91.534213 
L 447.630733 -84.144236 
L 451.536791 -76.372672 
L 455.442848 -82.382484 
L 459.348905 -85.145056 
L 463.254962 -74.478329 
L 467.16102 -80.531923 
L 471.067077 -77.147632 
L 474.973134 -67.971351 
L 478.879192 -73.995733 
L 482.785249 -74.087441 
L 486.691306 -85.326735 
L 490.597363 -82.117072 
L 494.503421 -75.7155 
L 498.409478 -94.560764 
L 502.315535 -90.39643 
L 506.221593 -95.426304 
L 510.12765 -103.976096 
L 514.033707 -82.947378 
L 517.939764 -89.728688 
L 521.845822 -72.810854 
L 525.751879 -91.27107 
L 529.657936 -86.479855 
L 533.563993 -85.539016 
L 537.470051 -73.820353 
L 541.376108 -78.064284 
L 545.282165 -83.925902 
L 549.188223 -96.824185 
L 553.09428 -102.758133 
L 557.000337 -104.578071 
L 560.906394 -105.464966 
L 564.812452 -91.040521 
L 568.718509 -92.908 
L 572.624566 -95.242152 
L 576.530624 -105.082251 
L 580.436681 -89.592908 
L 584.342738 -88.851668 
L 588.248795 -90.853238 
L 592.154853 -91.894742 
L 596.06091 -90.086885 
L 599.966967 -86.062786 
L 603.873025 -85.451545 
L 607.779082 -91.18856 
L 611.685139 -87.582243 
L 615.591196 -91.369776 
L 619.497254 -82.476092 
L 623.403311 -78.258689 
L 627.309368 -83.213093 
L 631.215425 -76.554442 
L 635.121483 -86.333712 
L 639.02754 -84.486604 
L 642.933597 -85.50124 
L 642.933597 -141.528386 
L 642.933597 -141.528386 
L 639.02754 -144.584949 
L 635.121483 -145.337433 
L 631.215425 -153.119421 
L 627.309368 -155.437783 
L 623.403311 -159.706269 
L 619.497254 -136.650855 
L 615.591196 -140.022943 
L 611.685139 -144.064144 
L 607.779082 -142.916582 
L 603.873025 -164.194326 
L 599.966967 -162.846839 
L 596.06091 -156.34775 
L 592.154853 -158.743074 
L 588.248795 -168.380075 
L 584.342738 -158.222617 
L 580.436681 -169.051489 
L 576.530624 -152.829552 
L 572.624566 -166.507549 
L 568.718509 -173.663427 
L 564.812452 -181.343764 
L 560.906394 -175.069983 
L 557.000337 -188.270339 
L 553.09428 -190.257293 
L 549.188223 -200.997137 
L 545.282165 -206.087309 
L 541.376108 -207.968162 
L 537.470051 -226.904963 
L 533.563993 -193.141923 
L 529.657936 -196.615722 
L 525.751879 -193.402932 
L 521.845822 -251.158182 
L 517.939764 -220.485037 
L 514.033707 -222.189735 
L 510.12765 -187.751101 
L 506.221593 -184.380516 
L 502.315535 -194.090061 
L 498.409478 -176.170822 
L 494.503421 -198.083645 
L 490.597363 -184.672713 
L 486.691306 -174.437455 
L 482.785249 -173.772606 
L 478.879192 -179.361407 
L 474.973134 -171.440124 
L 471.067077 -160.707742 
L 467.16102 -141.087061 
L 463.254962 -153.766062 
L 459.348905 -137.804367 
L 455.442848 -137.699067 
L 451.536791 -145.843751 
L 447.630733 -137.917956 
L 443.724676 -141.121977 
L 439.818619 -143.701865 
L 435.912562 -149.464556 
L 432.006504 -153.880563 
L 428.100447 -147.001324 
L 424.19439 -166.498949 
L 420.288332 -163.045878 
L 416.382275 -152.998753 
L 412.476218 -162.313004 
L 408.570161 -175.865777 
L 404.664103 -166.332701 
L 400.758046 -174.541283 
L 396.851989 -185.610154 
L 392.945931 -189.28988 
L 389.039874 -203.765477 
L 385.133817 -187.355854 
L 381.22776 -197.811632 
L 377.321702 -202.426675 
L 373.415645 -210.209058 
L 369.509588 -214.903129 
L 365.603531 -208.320706 
L 361.697473 -223.208336 
L 357.791416 -188.123008 
L 353.885359 -238.030953 
L 349.979301 -229.453137 
L 346.073244 -234.466393 
L 342.167187 -209.884176 
L 338.26113 -214.027675 
L 334.355072 -208.035519 
L 330.449015 -221.267795 
L 326.542958 -238.396747 
L 322.6369 -234.66744 
L 318.730843 -186.664935 
L 314.824786 -175.232267 
L 310.918729 -177.16756 
L 307.012671 -184.266677 
L 303.106614 -192.147584 
L 299.200557 -168.948124 
L 295.294499 -190.741126 
L 291.388442 -177.664956 
L 287.482385 -181.794274 
L 283.576328 -182.842456 
L 279.67027 -157.124377 
L 275.764213 -155.81356 
L 271.858156 -165.222583 
L 267.952099 -138.535259 
L 264.046041 -136.334623 
L 260.139984 -161.748753 
L 256.233927 -147.170353 
L 252.327869 -156.538255 
L 248.421812 -147.678452 
L 244.515755 -154.017845 
L 240.609698 -166.227083 
L 236.70364 -196.411626 
L 232.797583 -191.265468 
L 228.891526 -193.789304 
L 224.985468 -196.5314 
L 221.079411 -196.644506 
L 217.173354 -188.457622 
L 213.267297 -191.358422 
L 209.361239 -212.550812 
L 205.455182 -201.130633 
L 201.549125 -231.193026 
L 197.643068 -208.488313 
L 193.73701 -231.091558 
L 189.830953 -230.780282 
L 185.924896 -233.457468 
L 182.018838 -224.22918 
L 178.112781 -208.994359 
L 174.206724 -228.600859 
L 170.300667 -243.563007 
L 166.394609 -250.977627 
L 162.488552 -230.11089 
L 158.582495 -244.14335 
L 154.676437 -240.996698 
L 150.77038 -236.191651 
L 146.864323 -226.628616 
L 142.958266 -221.498104 
L 139.052208 -215.916255 
L 135.146151 -202.192935 
L 131.240094 -200.746495 
L 127.334037 -188.539269 
L 123.427979 -191.16851 
L 119.521922 -185.065627 
L 115.615865 -190.288287 
L 111.709807 -173.070404 
L 107.80375 -182.807982 
L 103.897693 -181.971057 
L 99.991636 -174.550727 
L 96.085578 -181.364618 
L 92.179521 -201.557887 
z
" style="stroke: #808080; stroke-opacity: 0.2"/>
    </defs>
    <g clip-path="url(#p6a4850733d)">
     <use xlink:href="#md1d6d6a245" x="0" y="288" style="fill: #808080; fill-opacity: 0.2; stroke: #808080; stroke-opacity: 0.2"/>
    </g>
   </g>
   <g id="matplotlib.axis_1">
    <g id="xtick_1">
     <g id="line2d_1">
      <defs>
       <path id="m3c4f93f4fa" d="M 0 0 
L 0 3.5 
" style="stroke: #000000; stroke-width: 0.8"/>
      </defs>
      <g>
       <use xlink:href="#m3c4f93f4fa" x="123.427979" y="246.04" style="stroke: #000000; stroke-width: 0.8"/>
      </g>
     </g>
     <g id="text_1">
      <!-- 05-19 00 -->
      <g transform="translate(100.94751 260.638438) scale(0.1 -0.1)">
       <defs>
        <path id="DejaVuSans-30" d="M 2034 4250 
Q 1547 4250 1301 3770 
Q 1056 3291 1056 2328 
Q 1056 1369 1301 889 
Q 1547 409 2034 409 
Q 2525 409 2770 889 
Q 3016 1369 3016 2328 
Q 3016 3291 2770 3770 
Q 2525 4250 2034 4250 
z
M 2034 4750 
Q 2819 4750 3233 4129 
Q 3647 3509 3647 2328 
Q 3647 1150 3233 529 
Q 2819 -91 2034 -91 
Q 1250 -91 836 529 
Q 422 1150 422 2328 
Q 422 3509 836 4129 
Q 1250 4750 2034 4750 
z
" transform="scale(0.015625)"/>
        <path id="DejaVuSans-35" d="M 691 4666 
L 3169 4666 
L 3169 4134 
L 1269 4134 
L 1269 2991 
Q 1406 3038 1543 3061 
Q 1681 3084 1819 3084 
Q 2600 3084 3056 2656 
Q 3513 2228 3513 1497 
Q 3513 744 3044 326 
Q 2575 -91 1722 -91 
Q 1428 -91 1123 -41 
Q 819 9 494 109 
L 494 744 
Q 775 591 1075 516 
Q 1375 441 1709 441 
Q 2250 441 2565 725 
Q 2881 1009 2881 1497 
Q 2881 1984 2565 2268 
Q 2250 2553 1709 2553 
Q 1456 2553 1204 2497 
Q 953 2441 691 2322 
L 691 4666 
z
" transform="scale(0.015625)"/>
        <path id="DejaVuSans-2d" d="M 313 2009 
L 1997 2009 
L 1997 1497 
L 313 1497 
L 313 2009 
z
" transform="scale(0.015625)"/>
        <path id="DejaVuSans-31" d="M 794 531 
L 1825 531 
L 1825 4091 
L 703 3866 
L 703 4441 
L 1819 4666 
L 2450 4666 
L 2450 531 
L 3481 531 
L 3481 0 
L 794 0 
L 794 531 
z
" transform="scale(0.015625)"/>
        <path id="DejaVuSans-39" d="M 703 97 
L 703 672 
Q 941 559 1184 500 
Q 1428 441 1663 441 
Q 2288 441 2617 861 
Q 2947 1281 2994 2138 
Q 2813 1869 2534 1725 
Q 2256 1581 1919 1581 
Q 1219 1581 811 2004 
Q 403 2428 403 3163 
Q 403 3881 828 4315 
Q 1253 4750 1959 4750 
Q 2769 4750 3195 4129 
Q 3622 3509 3622 2328 
Q 3622 1225 3098 567 
Q 2575 -91 1691 -91 
Q 1453 -91 1209 -44 
Q 966 3 703 97 
z
M 1959 2075 
Q 2384 2075 2632 2365 
Q 2881 2656 2881 3163 
Q 2881 3666 2632 3958 
Q 2384 4250 1959 4250 
Q 1534 4250 1286 3958 
Q 1038 3666 1038 3163 
Q 1038 2656 1286 2365 
Q 1534 2075 1959 2075 
z
" transform="scale(0.015625)"/>
        <path id="DejaVuSans-20" transform="scale(0.015625)"/>
       </defs>
       <use xlink:href="#DejaVuSans-30"/>
       <use xlink:href="#DejaVuSans-35" transform="translate(63.623047 0)"/>
       <use xlink:href="#DejaVuSans-2d" transform="translate(127.246094 0)"/>
       <use xlink:href="#DejaVuSans-31" transform="translate(163.330078 0)"/>
       <use xlink:href="#DejaVuSans-39" transform="translate(226.953125 0)"/>
       <use xlink:href="#DejaVuSans-20" transform="translate(290.576172 0)"/>
       <use xlink:href="#DejaVuSans-30" transform="translate(322.363281 0)"/>
       <use xlink:href="#DejaVuSans-30" transform="translate(385.986328 0)"/>
      </g>
     </g>
    </g>
    <g id="xtick_2">
     <g id="line2d_2">
      <g>
       <use xlink:href="#m3c4f93f4fa" x="217.173354" y="246.04" style="stroke: #000000; stroke-width: 0.8"/>
      </g>
     </g>
     <g id="text_2">
      <!-- 05-19 12 -->
      <g transform="translate(194.692885 260.638438) scale(0.1 -0.1)">
       <defs>
        <path id="DejaVuSans-32" d="M 1228 531 
L 3431 531 
L 3431 0 
L 469 0 
L 469 531 
Q 828 903 1448 1529 
Q 2069 2156 2228 2338 
Q 2531 2678 2651 2914 
Q 2772 3150 2772 3378 
Q 2772 3750 2511 3984 
Q 2250 4219 1831 4219 
Q 1534 4219 1204 4116 
Q 875 4013 500 3803 
L 500 4441 
Q 881 4594 1212 4672 
Q 1544 4750 1819 4750 
Q 2544 4750 2975 4387 
Q 3406 4025 3406 3419 
Q 3406 3131 3298 2873 
Q 3191 2616 2906 2266 
Q 2828 2175 2409 1742 
Q 1991 1309 1228 531 
z
" transform="scale(0.015625)"/>
       </defs>
       <use xlink:href="#DejaVuSans-30"/>
       <use xlink:href="#DejaVuSans-35" transform="translate(63.623047 0)"/>
       <use xlink:href="#DejaVuSans-2d" transform="translate(127.246094 0)"/>
       <use xlink:href="#DejaVuSans-31" transform="translate(163.330078 0)"/>
       <use xlink:href="#DejaVuSans-39" transform="translate(226.953125 0)"/>
       <use xlink:href="#DejaVuSans-20" transform="translate(290.576172 0)"/>
       <use xlink:href="#DejaVuSans-31" transform="translate(322.363281 0)"/>
       <use xlink:href="#DejaVuSans-32" transform="translate(385.986328 0)"/>
      </g>
     </g>
    </g>
    <g id="xtick_3">
     <g id="line2d_3">
      <g>
       <use xlink:href="#m3c4f93f4fa" x="310.918729" y="246.04" style="stroke: #000000; stroke-width: 0.8"/>
      </g>
     </g>
     <g id="text_3">
      <!-- 05-20 00 -->
      <g transform="translate(288.43826 260.638438) scale(0.1 -0.1)">
       <use xlink:href="#DejaVuSans-30"/>
       <use xlink:href="#DejaVuSans-35" transform="translate(63.623047 0)"/>
       <use xlink:href="#DejaVuSans-2d" transform="translate(127.246094 0)"/>
       <use xlink:href="#DejaVuSans-32" transform="translate(163.330078 0)"/>
       <use xlink:href="#DejaVuSans-30" transform="translate(226.953125 0)"/>
       <use xlink:href="#DejaVuSans-20" transform="translate(290.576172 0)"/>
       <use xlink:href="#DejaVuSans-30" transform="translate(322.363281 0)"/>
       <use xlink:href="#DejaVuSans-30" transform="translate(385.986328 0)"/>
      </g>
     </g>
    </g>
    <g id="xtick_4">
     <g id="line2d_4">
      <g>
       <use xlink:href="#m3c4f93f4fa" x="404.664103" y="246.04" style="stroke: #000000; stroke-width: 0.8"/>
      </g>
     </g>
     <g id="text_4">
      <!-- 05-20 12 -->
      <g transform="translate(382.183635 260.638438) scale(0.1 -0.1)">
       <use xlink:href="#DejaVuSans-30"/>
       <use xlink:href="#DejaVuSans-35" transform="translate(63.623047 0)"/>
       <use xlink:href="#DejaVuSans-2d" transform="translate(127.246094 0)"/>
       <use xlink:href="#DejaVuSans-32" transform="translate(163.330078 0)"/>
       <use xlink:href="#DejaVuSans-30" transform="translate(226.953125 0)"/>
       <use xlink:href="#DejaVuSans-20" transform="translate(290.576172 0)"/>
       <use xlink:href="#DejaVuSans-31" transform="translate(322.363281 0)"/>
       <use xlink:href="#DejaVuSans-32" transform="translate(385.986328 0)"/>
      </g>
     </g>
    </g>
    <g id="xtick_5">
     <g id="line2d_5">
      <g>
       <use xlink:href="#m3c4f93f4fa" x="498.409478" y="246.04" style="stroke: #000000; stroke-width: 0.8"/>
      </g>
     </g>
     <g id="text_5">
      <!-- 05-21 00 -->
      <g transform="translate(475.929009 260.638438) scale(0.1 -0.1)">
       <use xlink:href="#DejaVuSans-30"/>
       <use xlink:href="#DejaVuSans-35" transform="translate(63.623047 0)"/>
       <use xlink:href="#DejaVuSans-2d" transform="translate(127.246094 0)"/>
       <use xlink:href="#DejaVuSans-32" transform="translate(163.330078 0)"/>
       <use xlink:href="#DejaVuSans-31" transform="translate(226.953125 0)"/>
       <use xlink:href="#DejaVuSans-20" transform="translate(290.576172 0)"/>
       <use xlink:href="#DejaVuSans-30" transform="translate(322.363281 0)"/>
       <use xlink:href="#DejaVuSans-30" transform="translate(385.986328 0)"/>
      </g>
     </g>
    </g>
    <g id="xtick_6">
     <g id="line2d_6">
      <g>
       <use xlink:href="#m3c4f93f4fa" x="592.154853" y="246.04" style="stroke: #000000; stroke-width: 0.8"/>
      </g>
     </g>
     <g id="text_6">
      <!-- 05-21 12 -->
      <g transform="translate(569.674384 260.638438) scale(0.1 -0.1)">
       <use xlink:href="#DejaVuSans-30"/>
       <use xlink:href="#DejaVuSans-35" transform="translate(63.623047 0)"/>
       <use xlink:href="#DejaVuSans-2d" transform="translate(127.246094 0)"/>
       <use xlink:href="#DejaVuSans-32" transform="translate(163.330078 0)"/>
       <use xlink:href="#DejaVuSans-31" transform="translate(226.953125 0)"/>
       <use xlink:href="#DejaVuSans-20" transform="translate(290.576172 0)"/>
       <use xlink:href="#DejaVuSans-31" transform="translate(322.363281 0)"/>
       <use xlink:href="#DejaVuSans-32" transform="translate(385.986328 0)"/>
      </g>
     </g>
    </g>
    <g id="xtick_7">
     <g id="line2d_7">
      <g>
       <use xlink:href="#m3c4f93f4fa" x="685.900227" y="246.04" style="stroke: #000000; stroke-width: 0.8"/>
      </g>
     </g>
     <g id="text_7">
      <!-- 05-22 00 -->
      <g transform="translate(663.419759 260.638438) scale(0.1 -0.1)">
       <use xlink:href="#DejaVuSans-30"/>
       <use xlink:href="#DejaVuSans-35" transform="translate(63.623047 0)"/>
       <use xlink:href="#DejaVuSans-2d" transform="translate(127.246094 0)"/>
       <use xlink:href="#DejaVuSans-32" transform="translate(163.330078 0)"/>
       <use xlink:href="#DejaVuSans-32" transform="translate(226.953125 0)"/>
       <use xlink:href="#DejaVuSans-20" transform="translate(290.576172 0)"/>
       <use xlink:href="#DejaVuSans-30" transform="translate(322.363281 0)"/>
       <use xlink:href="#DejaVuSans-30" transform="translate(385.986328 0)"/>
      </g>
     </g>
    </g>
    <g id="text_8">
     <!-- Tijd -->
     <g transform="translate(370.424731 274.316562) scale(0.1 -0.1)">
      <defs>
       <path id="DejaVuSans-54" d="M -19 4666 
L 3928 4666 
L 3928 4134 
L 2272 4134 
L 2272 0 
L 1638 0 
L 1638 4134 
L -19 4134 
L -19 4666 
z
" transform="scale(0.015625)"/>
       <path id="DejaVuSans-69" d="M 603 3500 
L 1178 3500 
L 1178 0 
L 603 0 
L 603 3500 
z
M 603 4863 
L 1178 4863 
L 1178 4134 
L 603 4134 
L 603 4863 
z
" transform="scale(0.015625)"/>
       <path id="DejaVuSans-6a" d="M 603 3500 
L 1178 3500 
L 1178 -63 
Q 1178 -731 923 -1031 
Q 669 -1331 103 -1331 
L -116 -1331 
L -116 -844 
L 38 -844 
Q 366 -844 484 -692 
Q 603 -541 603 -63 
L 603 3500 
z
M 603 4863 
L 1178 4863 
L 1178 4134 
L 603 4134 
L 603 4863 
z
" transform="scale(0.015625)"/>
       <path id="DejaVuSans-64" d="M 2906 2969 
L 2906 4863 
L 3481 4863 
L 3481 0 
L 2906 0 
L 2906 525 
Q 2725 213 2448 61 
Q 2172 -91 1784 -91 
Q 1150 -91 751 415 
Q 353 922 353 1747 
Q 353 2572 751 3078 
Q 1150 3584 1784 3584 
Q 2172 3584 2448 3432 
Q 2725 3281 2906 2969 
z
M 947 1747 
Q 947 1113 1208 752 
Q 1469 391 1925 391 
Q 2381 391 2643 752 
Q 2906 1113 2906 1747 
Q 2906 2381 2643 2742 
Q 2381 3103 1925 3103 
Q 1469 3103 1208 2742 
Q 947 2381 947 1747 
z
" transform="scale(0.015625)"/>
      </defs>
      <use xlink:href="#DejaVuSans-54"/>
      <use xlink:href="#DejaVuSans-69" transform="translate(57.958984 0)"/>
      <use xlink:href="#DejaVuSans-6a" transform="translate(85.742188 0)"/>
      <use xlink:href="#DejaVuSans-64" transform="translate(113.525391 0)"/>
     </g>
    </g>
   </g>
   <g id="matplotlib.axis_2">
    <g id="ytick_1">
     <g id="line2d_8">
      <defs>
       <path id="m64dc6e18bf" d="M 0 0 
L -3.5 0 
" style="stroke: #000000; stroke-width: 0.8"/>
      </defs>
      <g>
       <use xlink:href="#m64dc6e18bf" x="63.47" y="217.213671" style="stroke: #000000; stroke-width: 0.8"/>
      </g>
     </g>
     <g id="text_9">
      <!-- 0 -->
      <g transform="translate(50.1075 221.012889) scale(0.1 -0.1)">
       <use xlink:href="#DejaVuSans-30"/>
      </g>
     </g>
    </g>
    <g id="ytick_2">
     <g id="line2d_9">
      <g>
       <use xlink:href="#m64dc6e18bf" x="63.47" y="180.685447" style="stroke: #000000; stroke-width: 0.8"/>
      </g>
     </g>
     <g id="text_10">
      <!-- 5000 -->
      <g transform="translate(31.02 184.484666) scale(0.1 -0.1)">
       <use xlink:href="#DejaVuSans-35"/>
       <use xlink:href="#DejaVuSans-30" transform="translate(63.623047 0)"/>
       <use xlink:href="#DejaVuSans-30" transform="translate(127.246094 0)"/>
       <use xlink:href="#DejaVuSans-30" transform="translate(190.869141 0)"/>
      </g>
     </g>
    </g>
    <g id="ytick_3">
     <g id="line2d_10">
      <g>
       <use xlink:href="#m64dc6e18bf" x="63.47" y="144.157224" style="stroke: #000000; stroke-width: 0.8"/>
      </g>
     </g>
     <g id="text_11">
      <!-- 10000 -->
      <g transform="translate(24.6575 147.956443) scale(0.1 -0.1)">
       <use xlink:href="#DejaVuSans-31"/>
       <use xlink:href="#DejaVuSans-30" transform="translate(63.623047 0)"/>
       <use xlink:href="#DejaVuSans-30" transform="translate(127.246094 0)"/>
       <use xlink:href="#DejaVuSans-30" transform="translate(190.869141 0)"/>
       <use xlink:href="#DejaVuSans-30" transform="translate(254.492188 0)"/>
      </g>
     </g>
    </g>
    <g id="ytick_4">
     <g id="line2d_11">
      <g>
       <use xlink:href="#m64dc6e18bf" x="63.47" y="107.629001" style="stroke: #000000; stroke-width: 0.8"/>
      </g>
     </g>
     <g id="text_12">
      <!-- 15000 -->
      <g transform="translate(24.6575 111.42822) scale(0.1 -0.1)">
       <use xlink:href="#DejaVuSans-31"/>
       <use xlink:href="#DejaVuSans-35" transform="translate(63.623047 0)"/>
       <use xlink:href="#DejaVuSans-30" transform="translate(127.246094 0)"/>
       <use xlink:href="#DejaVuSans-30" transform="translate(190.869141 0)"/>
       <use xlink:href="#DejaVuSans-30" transform="translate(254.492188 0)"/>
      </g>
     </g>
    </g>
    <g id="ytick_5">
     <g id="line2d_12">
      <g>
       <use xlink:href="#m64dc6e18bf" x="63.47" y="71.100778" style="stroke: #000000; stroke-width: 0.8"/>
      </g>
     </g>
     <g id="text_13">
      <!-- 20000 -->
      <g transform="translate(24.6575 74.899996) scale(0.1 -0.1)">
       <use xlink:href="#DejaVuSans-32"/>
       <use xlink:href="#DejaVuSans-30" transform="translate(63.623047 0)"/>
       <use xlink:href="#DejaVuSans-30" transform="translate(127.246094 0)"/>
       <use xlink:href="#DejaVuSans-30" transform="translate(190.869141 0)"/>
       <use xlink:href="#DejaVuSans-30" transform="translate(254.492188 0)"/>
      </g>
     </g>
    </g>
    <g id="ytick_6">
     <g id="line2d_13">
      <g>
       <use xlink:href="#m64dc6e18bf" x="63.47" y="34.572554" style="stroke: #000000; stroke-width: 0.8"/>
      </g>
     </g>
     <g id="text_14">
      <!-- 25000 -->
      <g transform="translate(24.6575 38.371773) scale(0.1 -0.1)">
       <use xlink:href="#DejaVuSans-32"/>
       <use xlink:href="#DejaVuSans-35" transform="translate(63.623047 0)"/>
       <use xlink:href="#DejaVuSans-30" transform="translate(127.246094 0)"/>
       <use xlink:href="#DejaVuSans-30" transform="translate(190.869141 0)"/>
       <use xlink:href="#DejaVuSans-30" transform="translate(254.492188 0)"/>
      </g>
     </g>
    </g>
    <g id="text_15">
     <!-- CO2 (PPM) -->
     <g transform="translate(18.577813 162.902969) rotate(-90) scale(0.1 -0.1)">
      <defs>
       <path id="DejaVuSans-43" d="M 4122 4306 
L 4122 3641 
Q 3803 3938 3442 4084 
Q 3081 4231 2675 4231 
Q 1875 4231 1450 3742 
Q 1025 3253 1025 2328 
Q 1025 1406 1450 917 
Q 1875 428 2675 428 
Q 3081 428 3442 575 
Q 3803 722 4122 1019 
L 4122 359 
Q 3791 134 3420 21 
Q 3050 -91 2638 -91 
Q 1578 -91 968 557 
Q 359 1206 359 2328 
Q 359 3453 968 4101 
Q 1578 4750 2638 4750 
Q 3056 4750 3426 4639 
Q 3797 4528 4122 4306 
z
" transform="scale(0.015625)"/>
       <path id="DejaVuSans-4f" d="M 2522 4238 
Q 1834 4238 1429 3725 
Q 1025 3213 1025 2328 
Q 1025 1447 1429 934 
Q 1834 422 2522 422 
Q 3209 422 3611 934 
Q 4013 1447 4013 2328 
Q 4013 3213 3611 3725 
Q 3209 4238 2522 4238 
z
M 2522 4750 
Q 3503 4750 4090 4092 
Q 4678 3434 4678 2328 
Q 4678 1225 4090 567 
Q 3503 -91 2522 -91 
Q 1538 -91 948 565 
Q 359 1222 359 2328 
Q 359 3434 948 4092 
Q 1538 4750 2522 4750 
z
" transform="scale(0.015625)"/>
       <path id="DejaVuSans-28" d="M 1984 4856 
Q 1566 4138 1362 3434 
Q 1159 2731 1159 2009 
Q 1159 1288 1364 580 
Q 1569 -128 1984 -844 
L 1484 -844 
Q 1016 -109 783 600 
Q 550 1309 550 2009 
Q 550 2706 781 3412 
Q 1013 4119 1484 4856 
L 1984 4856 
z
" transform="scale(0.015625)"/>
       <path id="DejaVuSans-50" d="M 1259 4147 
L 1259 2394 
L 2053 2394 
Q 2494 2394 2734 2622 
Q 2975 2850 2975 3272 
Q 2975 3691 2734 3919 
Q 2494 4147 2053 4147 
L 1259 4147 
z
M 628 4666 
L 2053 4666 
Q 2838 4666 3239 4311 
Q 3641 3956 3641 3272 
Q 3641 2581 3239 2228 
Q 2838 1875 2053 1875 
L 1259 1875 
L 1259 0 
L 628 0 
L 628 4666 
z
" transform="scale(0.015625)"/>
       <path id="DejaVuSans-4d" d="M 628 4666 
L 1569 4666 
L 2759 1491 
L 3956 4666 
L 4897 4666 
L 4897 0 
L 4281 0 
L 4281 4097 
L 3078 897 
L 2444 897 
L 1241 4097 
L 1241 0 
L 628 0 
L 628 4666 
z
" transform="scale(0.015625)"/>
       <path id="DejaVuSans-29" d="M 513 4856 
L 1013 4856 
Q 1481 4119 1714 3412 
Q 1947 2706 1947 2009 
Q 1947 1309 1714 600 
Q 1481 -109 1013 -844 
L 513 -844 
Q 928 -128 1133 580 
Q 1338 1288 1338 2009 
Q 1338 2731 1133 3434 
Q 928 4138 513 4856 
z
" transform="scale(0.015625)"/>
      </defs>
      <use xlink:href="#DejaVuSans-43"/>
      <use xlink:href="#DejaVuSans-4f" transform="translate(69.824219 0)"/>
      <use xlink:href="#DejaVuSans-32" transform="translate(148.535156 0)"/>
      <use xlink:href="#DejaVuSans-20" transform="translate(212.158203 0)"/>
      <use xlink:href="#DejaVuSans-28" transform="translate(243.945312 0)"/>
      <use xlink:href="#DejaVuSans-50" transform="translate(282.958984 0)"/>
      <use xlink:href="#DejaVuSans-50" transform="translate(343.261719 0)"/>
      <use xlink:href="#DejaVuSans-4d" transform="translate(403.564453 0)"/>
      <use xlink:href="#DejaVuSans-29" transform="translate(489.84375 0)"/>
     </g>
    </g>
   </g>
   <g id="line2d_14">
    <path d="M 92.179521 86.070044 
L 96.085578 106.798593 
L 99.991636 115.178167 
L 103.897693 109.628312 
L 107.80375 105.320417 
L 111.709807 117.311415 
L 115.615865 103.216392 
L 123.427979 99.612273 
L 127.334037 104.139338 
L 131.240094 99.057045 
L 135.146151 96.750896 
L 139.052208 90.178251 
L 142.958266 67.94961 
L 146.864323 75.316135 
L 150.77038 61.778775 
L 154.676437 77.862152 
L 158.582495 59.43001 
L 162.488552 80.868425 
L 166.394609 49.631923 
L 170.300667 64.60606 
L 174.206724 90.032138 
L 178.112781 123.674632 
L 182.018838 103.131159 
L 185.924896 104.395036 
L 189.830953 128.761796 
L 193.73701 109.399402 
L 197.643068 130.481057 
L 201.549125 105.598032 
L 205.455182 137.976649 
L 209.361239 117.279757 
L 213.267297 149.735084 
L 217.173354 144.159659 
L 221.079411 140.935435 
L 224.985468 132.252676 
L 228.891526 128.890862 
L 232.797583 117.357684 
L 236.70364 95.421269 
L 240.609698 135.263819 
L 244.515755 154.470359 
L 248.421812 145.921537 
L 252.327869 129.823549 
L 256.233927 137.092666 
L 260.139984 123.713595 
L 264.046041 152.578197 
L 267.952099 149.465993 
L 271.858156 125.121149 
L 275.764213 134.029165 
L 279.67027 135.565786 
L 283.576328 105.400779 
L 287.482385 108.40827 
L 291.388442 112.604145 
L 295.294499 98.920672 
L 299.200557 123.781781 
L 303.106614 95.964322 
L 307.012671 103.910428 
L 310.918729 113.566055 
L 314.824786 114.187035 
L 318.730843 109.757379 
L 322.6369 66.230348 
L 326.542958 63.970468 
L 330.449015 73.475112 
L 334.355072 90.731045 
L 338.26113 79.563149 
L 342.167187 94.256018 
L 346.073244 62.969595 
L 349.979301 71.020416 
L 353.885359 65.648332 
L 357.791416 126.360674 
L 361.697473 80.729617 
L 365.603531 108.663967 
L 369.509588 98.109746 
L 373.415645 98.445806 
L 377.321702 130.758672 
L 381.22776 133.478807 
L 385.133817 158.987683 
L 389.039874 162.32271 
L 392.945931 130.159609 
L 396.851989 141.647735 
L 400.758046 156.839823 
L 404.664103 155.272762 
L 408.570161 116.132771 
L 412.476218 140.898907 
L 416.382275 163.992049 
L 420.288332 138.2153 
L 424.19439 127.416339 
L 428.100447 161.157459 
L 432.006504 147.890409 
L 435.912562 151.801364 
L 439.818619 159.32009 
L 443.724676 164.613029 
L 447.630733 156.511069 
L 451.536791 145.779077 
L 455.442848 154.512975 
L 459.348905 154.275542 
L 463.254962 135.541434 
L 467.16102 148.560093 
L 471.067077 134.779212 
L 474.973134 123.774476 
L 478.879192 119.585906 
L 482.785249 125.101668 
L 486.691306 123.126708 
L 494.503421 94.598166 
L 498.409478 116.534582 
L 502.315535 97.405969 
L 506.221593 109.840176 
L 510.12765 112.185288 
L 514.033707 70.384824 
L 517.939764 71.29803 
L 521.845822 49.191149 
L 525.751879 104.699437 
L 529.657936 101.521482 
L 533.563993 116.432303 
L 537.470051 92.589114 
L 541.376108 102.622199 
L 545.282165 100.747084 
L 549.188223 110.445327 
L 553.09428 107.064031 
L 557.000337 132.772595 
L 560.906394 143.178268 
L 564.812452 141.422478 
L 568.718509 150.637331 
L 572.624566 150.084537 
L 576.530624 159.031517 
L 580.436681 168.320644 
L 584.342738 173.555138 
L 588.248795 136.705467 
L 592.154853 154.353469 
L 596.06091 162.396984 
L 599.966967 149.114104 
L 603.873025 140.750358 
L 607.779082 162.815841 
L 611.685139 171.098006 
L 615.591196 165.879341 
L 619.497254 176.758663 
L 623.403311 161.646937 
L 627.309368 158.856181 
L 635.121483 151.090281 
L 639.02754 157.660491 
L 642.933597 165.652866 
L 646.839655 163.71687 
L 650.745712 153.837203 
L 654.651769 159.684154 
L 658.557826 155.753717 
L 662.463884 149.953036 
L 666.369941 131.544029 
L 666.369941 131.544029 
" clip-path="url(#p6a4850733d)" style="fill: none; stroke: #1f77b4; stroke-width: 2; stroke-linecap: square"/>
   </g>
   <g id="line2d_15">
    <path d="M 92.179521 156.431751 
L 96.085578 157.713022 
L 99.991636 156.836692 
L 103.897693 154.599773 
L 107.80375 156.048378 
L 111.709807 154.689876 
L 115.615865 149.26387 
L 119.521922 149.780135 
L 123.427979 147.511211 
L 127.334037 144.992851 
L 131.240094 137.680596 
L 135.146151 133.816258 
L 139.052208 136.41498 
L 142.958266 134.10257 
L 146.864323 127.581064 
L 150.77038 128.857813 
L 154.676437 126.210908 
L 158.582495 126.63794 
L 162.488552 131.870695 
L 166.394609 126.442775 
L 170.300667 128.1476 
L 174.206724 139.478828 
L 178.112781 139.145552 
L 182.018838 131.17318 
L 185.924896 128.02723 
L 189.830953 136.036652 
L 193.73701 137.564054 
L 197.643068 138.640071 
L 201.549125 129.403301 
L 205.455182 144.265069 
L 209.361239 139.184515 
L 213.267297 148.843621 
L 217.173354 153.012187 
L 221.079411 152.591591 
L 224.985468 150.059576 
L 228.891526 154.150998 
L 232.797583 158.594222 
L 236.70364 159.268776 
L 240.609698 162.850455 
L 244.515755 168.778812 
L 248.421812 172.364144 
L 252.327869 172.365884 
L 256.233927 175.565582 
L 260.139984 173.335099 
L 264.046041 179.2892 
L 267.952099 181.777641 
L 271.858156 174.841743 
L 275.764213 175.368562 
L 279.67027 173.43013 
L 283.576328 170.617863 
L 287.482385 167.099384 
L 291.388442 165.867165 
L 295.294499 163.332918 
L 299.200557 162.739943 
L 303.106614 161.748405 
L 307.012671 163.101167 
L 310.918729 156.482253 
L 314.824786 155.613287 
L 318.730843 153.07839 
L 322.6369 139.395892 
L 326.542958 141.197464 
L 330.449015 142.301387 
L 334.355072 143.25863 
L 338.26113 143.582919 
L 342.167187 146.349648 
L 346.073244 138.092727 
L 349.979301 140.037652 
L 353.885359 135.644687 
L 357.791416 140.657414 
L 361.697473 132.22528 
L 365.603531 136.894196 
L 369.509588 137.79279 
L 373.415645 141.658897 
L 377.321702 143.616606 
L 381.22776 144.29522 
L 385.133817 156.108244 
L 389.039874 148.072847 
L 392.945931 146.526891 
L 396.851989 151.105501 
L 400.758046 158.986465 
L 404.664103 157.735779 
L 408.570161 150.885114 
L 412.476218 157.184406 
L 416.382275 164.095302 
L 420.288332 161.149748 
L 424.19439 156.662053 
L 428.100447 167.025515 
L 432.006504 169.643371 
L 435.912562 171.950332 
L 439.818619 173.698004 
L 443.724676 171.671905 
L 447.630733 176.968904 
L 451.536791 176.891788 
L 455.442848 177.959224 
L 459.348905 176.525289 
L 463.254962 173.877804 
L 467.16102 177.190508 
L 471.067077 169.072313 
L 474.973134 168.294262 
L 478.879192 161.32143 
L 482.785249 164.069976 
L 486.691306 158.117905 
L 494.503421 151.100428 
L 498.409478 152.634207 
L 502.315535 145.756754 
L 506.221593 148.09659 
L 510.12765 142.136402 
L 514.033707 135.431443 
L 517.939764 132.893138 
L 521.845822 126.015482 
L 525.751879 145.662999 
L 529.657936 146.452211 
L 533.563993 148.659531 
L 537.470051 137.637342 
L 541.376108 144.983777 
L 545.282165 142.993394 
L 549.188223 139.089339 
L 553.09428 141.492287 
L 557.000337 141.575795 
L 560.906394 147.732525 
L 564.812452 151.807858 
L 568.718509 154.714287 
L 572.624566 157.125149 
L 576.530624 159.044099 
L 580.436681 158.677802 
L 584.342738 164.462858 
L 588.248795 158.383344 
L 592.154853 162.681092 
L 596.06091 164.782682 
L 599.966967 163.545187 
L 603.873025 163.177064 
L 607.779082 170.947429 
L 611.685139 172.176807 
L 615.591196 172.303641 
L 619.497254 178.436526 
L 623.403311 169.017521 
L 627.309368 168.674562 
L 631.215425 173.163069 
L 635.121483 172.164428 
L 639.02754 173.464223 
L 642.933597 174.485187 
L 646.839655 163.71687 
L 650.745712 153.837203 
L 654.651769 159.684154 
L 658.557826 155.753717 
L 662.463884 149.953036 
L 666.369941 131.544029 
L 666.369941 131.544029 
" clip-path="url(#p6a4850733d)" style="fill: none; stroke-dasharray: 5.55,2.4; stroke-dashoffset: 0; stroke: #808080; stroke-width: 1.5"/>
   </g>
   <g id="patch_3">
    <path d="M 63.47 246.04 
L 63.47 26.88 
" style="fill: none; stroke: #000000; stroke-width: 0.8; stroke-linejoin: miter; stroke-linecap: square"/>
   </g>
   <g id="patch_4">
    <path d="M 695.079462 246.04 
L 695.079462 26.88 
" style="fill: none; stroke: #000000; stroke-width: 0.8; stroke-linejoin: miter; stroke-linecap: square"/>
   </g>
   <g id="patch_5">
    <path d="M 63.47 246.04 
L 695.079462 246.04 
" style="fill: none; stroke: #000000; stroke-width: 0.8; stroke-linejoin: miter; stroke-linecap: square"/>
   </g>
   <g id="patch_6">
    <path d="M 63.47 26.88 
L 695.079462 26.88 
" style="fill: none; stroke: #000000; stroke-width: 0.8; stroke-linejoin: miter; stroke-linecap: square"/>
   </g>
   <g id="text_16">
    <!-- CO2 - v001/c00001/d021 -->
    <g transform="translate(303.871606 20.88) scale(0.12 -0.12)">
     <defs>
      <path id="DejaVuSans-76" d="M 191 3500 
L 800 3500 
L 1894 563 
L 2988 3500 
L 3597 3500 
L 2284 0 
L 1503 0 
L 191 3500 
z
" transform="scale(0.015625)"/>
      <path id="DejaVuSans-2f" d="M 1625 4666 
L 2156 4666 
L 531 -594 
L 0 -594 
L 1625 4666 
z
" transform="scale(0.015625)"/>
      <path id="DejaVuSans-63" d="M 3122 3366 
L 3122 2828 
Q 2878 2963 2633 3030 
Q 2388 3097 2138 3097 
Q 1578 3097 1268 2742 
Q 959 2388 959 1747 
Q 959 1106 1268 751 
Q 1578 397 2138 397 
Q 2388 397 2633 464 
Q 2878 531 3122 666 
L 3122 134 
Q 2881 22 2623 -34 
Q 2366 -91 2075 -91 
Q 1284 -91 818 406 
Q 353 903 353 1747 
Q 353 2603 823 3093 
Q 1294 3584 2113 3584 
Q 2378 3584 2631 3529 
Q 2884 3475 3122 3366 
z
" transform="scale(0.015625)"/>
     </defs>
     <use xlink:href="#DejaVuSans-43"/>
     <use xlink:href="#DejaVuSans-4f" transform="translate(69.824219 0)"/>
     <use xlink:href="#DejaVuSans-32" transform="translate(148.535156 0)"/>
     <use xlink:href="#DejaVuSans-20" transform="translate(212.158203 0)"/>
     <use xlink:href="#DejaVuSans-2d" transform="translate(243.945312 0)"/>
     <use xlink:href="#DejaVuSans-20" transform="translate(280.029297 0)"/>
     <use xlink:href="#DejaVuSans-76" transform="translate(311.816406 0)"/>
     <use xlink:href="#DejaVuSans-30" transform="translate(370.996094 0)"/>
     <use xlink:href="#DejaVuSans-30" transform="translate(434.619141 0)"/>
     <use xlink:href="#DejaVuSans-31" transform="translate(498.242188 0)"/>
     <use xlink:href="#DejaVuSans-2f" transform="translate(561.865234 0)"/>
     <use xlink:href="#DejaVuSans-63" transform="translate(595.556641 0)"/>
     <use xlink:href="#DejaVuSans-30" transform="translate(650.537109 0)"/>
     <use xlink:href="#DejaVuSans-30" transform="translate(714.160156 0)"/>
     <use xlink:href="#DejaVuSans-30" transform="translate(777.783203 0)"/>
     <use xlink:href="#DejaVuSans-30" transform="translate(841.40625 0)"/>
     <use xlink:href="#DejaVuSans-31" transform="translate(905.029297 0)"/>
     <use xlink:href="#DejaVuSans-2f" transform="translate(968.652344 0)"/>
     <use xlink:href="#DejaVuSans-64" transform="translate(1002.34375 0)"/>
     <use xlink:href="#DejaVuSans-30" transform="translate(1065.820312 0)"/>
     <use xlink:href="#DejaVuSans-32" transform="translate(1129.443359 0)"/>
     <use xlink:href="#DejaVuSans-31" transform="translate(1193.066406 0)"/>
    </g>
   </g>
   <g id="legend_1">
    <g id="patch_7">
     <path d="M 537.135712 78.914375 
L 688.079462 78.914375 
Q 690.079462 78.914375 690.079462 76.914375 
L 690.079462 33.88 
Q 690.079462 31.88 688.079462 31.88 
L 537.135712 31.88 
Q 535.135712 31.88 535.135712 33.88 
L 535.135712 76.914375 
Q 535.135712 78.914375 537.135712 78.914375 
z
" style="fill: #ffffff; opacity: 0.8; stroke: #cccccc; stroke-linejoin: miter"/>
    </g>
    <g id="line2d_16">
     <path d="M 539.135712 39.978438 
L 549.135712 39.978438 
L 559.135712 39.978438 
" style="fill: none; stroke: #1f77b4; stroke-width: 2; stroke-linecap: square"/>
    </g>
    <g id="text_17">
     <!-- Hive -->
     <g transform="translate(567.135712 43.478438) scale(0.1 -0.1)">
      <defs>
       <path id="DejaVuSans-48" d="M 628 4666 
L 1259 4666 
L 1259 2753 
L 3553 2753 
L 3553 4666 
L 4184 4666 
L 4184 0 
L 3553 0 
L 3553 2222 
L 1259 2222 
L 1259 0 
L 628 0 
L 628 4666 
z
" transform="scale(0.015625)"/>
       <path id="DejaVuSans-65" d="M 3597 1894 
L 3597 1613 
L 953 1613 
Q 991 1019 1311 708 
Q 1631 397 2203 397 
Q 2534 397 2845 478 
Q 3156 559 3463 722 
L 3463 178 
Q 3153 47 2828 -22 
Q 2503 -91 2169 -91 
Q 1331 -91 842 396 
Q 353 884 353 1716 
Q 353 2575 817 3079 
Q 1281 3584 2069 3584 
Q 2775 3584 3186 3129 
Q 3597 2675 3597 1894 
z
M 3022 2063 
Q 3016 2534 2758 2815 
Q 2500 3097 2075 3097 
Q 1594 3097 1305 2825 
Q 1016 2553 972 2059 
L 3022 2063 
z
" transform="scale(0.015625)"/>
      </defs>
      <use xlink:href="#DejaVuSans-48"/>
      <use xlink:href="#DejaVuSans-69" transform="translate(75.195312 0)"/>
      <use xlink:href="#DejaVuSans-76" transform="translate(102.978516 0)"/>
      <use xlink:href="#DejaVuSans-65" transform="translate(162.158203 0)"/>
     </g>
    </g>
    <g id="line2d_17">
     <path d="M 539.135712 54.656563 
L 549.135712 54.656563 
L 559.135712 54.656563 
" style="fill: none; stroke-dasharray: 5.55,2.4; stroke-dashoffset: 0; stroke: #808080; stroke-width: 1.5"/>
    </g>
    <g id="text_18">
     <!-- Gemiddelde (alle hives) -->
     <g transform="translate(567.135712 58.156563) scale(0.1 -0.1)">
      <defs>
       <path id="DejaVuSans-47" d="M 3809 666 
L 3809 1919 
L 2778 1919 
L 2778 2438 
L 4434 2438 
L 4434 434 
Q 4069 175 3628 42 
Q 3188 -91 2688 -91 
Q 1594 -91 976 548 
Q 359 1188 359 2328 
Q 359 3472 976 4111 
Q 1594 4750 2688 4750 
Q 3144 4750 3555 4637 
Q 3966 4525 4313 4306 
L 4313 3634 
Q 3963 3931 3569 4081 
Q 3175 4231 2741 4231 
Q 1884 4231 1454 3753 
Q 1025 3275 1025 2328 
Q 1025 1384 1454 906 
Q 1884 428 2741 428 
Q 3075 428 3337 486 
Q 3600 544 3809 666 
z
" transform="scale(0.015625)"/>
       <path id="DejaVuSans-6d" d="M 3328 2828 
Q 3544 3216 3844 3400 
Q 4144 3584 4550 3584 
Q 5097 3584 5394 3201 
Q 5691 2819 5691 2113 
L 5691 0 
L 5113 0 
L 5113 2094 
Q 5113 2597 4934 2840 
Q 4756 3084 4391 3084 
Q 3944 3084 3684 2787 
Q 3425 2491 3425 1978 
L 3425 0 
L 2847 0 
L 2847 2094 
Q 2847 2600 2669 2842 
Q 2491 3084 2119 3084 
Q 1678 3084 1418 2786 
Q 1159 2488 1159 1978 
L 1159 0 
L 581 0 
L 581 3500 
L 1159 3500 
L 1159 2956 
Q 1356 3278 1631 3431 
Q 1906 3584 2284 3584 
Q 2666 3584 2933 3390 
Q 3200 3197 3328 2828 
z
" transform="scale(0.015625)"/>
       <path id="DejaVuSans-6c" d="M 603 4863 
L 1178 4863 
L 1178 0 
L 603 0 
L 603 4863 
z
" transform="scale(0.015625)"/>
       <path id="DejaVuSans-61" d="M 2194 1759 
Q 1497 1759 1228 1600 
Q 959 1441 959 1056 
Q 959 750 1161 570 
Q 1363 391 1709 391 
Q 2188 391 2477 730 
Q 2766 1069 2766 1631 
L 2766 1759 
L 2194 1759 
z
M 3341 1997 
L 3341 0 
L 2766 0 
L 2766 531 
Q 2569 213 2275 61 
Q 1981 -91 1556 -91 
Q 1019 -91 701 211 
Q 384 513 384 1019 
Q 384 1609 779 1909 
Q 1175 2209 1959 2209 
L 2766 2209 
L 2766 2266 
Q 2766 2663 2505 2880 
Q 2244 3097 1772 3097 
Q 1472 3097 1187 3025 
Q 903 2953 641 2809 
L 641 3341 
Q 956 3463 1253 3523 
Q 1550 3584 1831 3584 
Q 2591 3584 2966 3190 
Q 3341 2797 3341 1997 
z
" transform="scale(0.015625)"/>
       <path id="DejaVuSans-68" d="M 3513 2113 
L 3513 0 
L 2938 0 
L 2938 2094 
Q 2938 2591 2744 2837 
Q 2550 3084 2163 3084 
Q 1697 3084 1428 2787 
Q 1159 2491 1159 1978 
L 1159 0 
L 581 0 
L 581 4863 
L 1159 4863 
L 1159 2956 
Q 1366 3272 1645 3428 
Q 1925 3584 2291 3584 
Q 2894 3584 3203 3211 
Q 3513 2838 3513 2113 
z
" transform="scale(0.015625)"/>
       <path id="DejaVuSans-73" d="M 2834 3397 
L 2834 2853 
Q 2591 2978 2328 3040 
Q 2066 3103 1784 3103 
Q 1356 3103 1142 2972 
Q 928 2841 928 2578 
Q 928 2378 1081 2264 
Q 1234 2150 1697 2047 
L 1894 2003 
Q 2506 1872 2764 1633 
Q 3022 1394 3022 966 
Q 3022 478 2636 193 
Q 2250 -91 1575 -91 
Q 1294 -91 989 -36 
Q 684 19 347 128 
L 347 722 
Q 666 556 975 473 
Q 1284 391 1588 391 
Q 1994 391 2212 530 
Q 2431 669 2431 922 
Q 2431 1156 2273 1281 
Q 2116 1406 1581 1522 
L 1381 1569 
Q 847 1681 609 1914 
Q 372 2147 372 2553 
Q 372 3047 722 3315 
Q 1072 3584 1716 3584 
Q 2034 3584 2315 3537 
Q 2597 3491 2834 3397 
z
" transform="scale(0.015625)"/>
      </defs>
      <use xlink:href="#DejaVuSans-47"/>
      <use xlink:href="#DejaVuSans-65" transform="translate(77.490234 0)"/>
      <use xlink:href="#DejaVuSans-6d" transform="translate(139.013672 0)"/>
      <use xlink:href="#DejaVuSans-69" transform="translate(236.425781 0)"/>
      <use xlink:href="#DejaVuSans-64" transform="translate(264.208984 0)"/>
      <use xlink:href="#DejaVuSans-64" transform="translate(327.685547 0)"/>
      <use xlink:href="#DejaVuSans-65" transform="translate(391.162109 0)"/>
      <use xlink:href="#DejaVuSans-6c" transform="translate(452.685547 0)"/>
      <use xlink:href="#DejaVuSans-64" transform="translate(480.46875 0)"/>
      <use xlink:href="#DejaVuSans-65" transform="translate(543.945312 0)"/>
      <use xlink:href="#DejaVuSans-20" transform="translate(605.46875 0)"/>
      <use xlink:href="#DejaVuSans-28" transform="translate(637.255859 0)"/>
      <use xlink:href="#DejaVuSans-61" transform="translate(676.269531 0)"/>
      <use xlink:href="#DejaVuSans-6c" transform="translate(737.548828 0)"/>
      <use xlink:href="#DejaVuSans-6c" transform="translate(765.332031 0)"/>
      <use xlink:href="#DejaVuSans-65" transform="translate(793.115234 0)"/>
      <use xlink:href="#DejaVuSans-20" transform="translate(854.638672 0)"/>
      <use xlink:href="#DejaVuSans-68" transform="translate(886.425781 0)"/>
      <use xlink:href="#DejaVuSans-69" transform="translate(949.804688 0)"/>
      <use xlink:href="#DejaVuSans-76" transform="translate(977.587891 0)"/>
      <use xlink:href="#DejaVuSans-65" transform="translate(1036.767578 0)"/>
      <use xlink:href="#DejaVuSans-73" transform="translate(1098.291016 0)"/>
      <use xlink:href="#DejaVuSans-29" transform="translate(1150.390625 0)"/>
     </g>
    </g>
    <g id="patch_8">
     <path d="M 539.135712 72.834688 
L 559.135712 72.834688 
L 559.135712 65.834688 
L 539.135712 65.834688 
z
" style="fill: #808080; fill-opacity: 0.2; stroke: #808080; stroke-opacity: 0.2; stroke-linejoin: miter"/>
    </g>
    <g id="text_19">
     <!-- ±2 Std Dev -->
     <g transform="translate(567.135712 72.834688) scale(0.1 -0.1)">
      <defs>
       <path id="DejaVuSans-b1" d="M 2944 4013 
L 2944 2803 
L 4684 2803 
L 4684 2272 
L 2944 2272 
L 2944 1063 
L 2419 1063 
L 2419 2272 
L 678 2272 
L 678 2803 
L 2419 2803 
L 2419 4013 
L 2944 4013 
z
M 678 531 
L 4684 531 
L 4684 0 
L 678 0 
L 678 531 
z
" transform="scale(0.015625)"/>
       <path id="DejaVuSans-53" d="M 3425 4513 
L 3425 3897 
Q 3066 4069 2747 4153 
Q 2428 4238 2131 4238 
Q 1616 4238 1336 4038 
Q 1056 3838 1056 3469 
Q 1056 3159 1242 3001 
Q 1428 2844 1947 2747 
L 2328 2669 
Q 3034 2534 3370 2195 
Q 3706 1856 3706 1288 
Q 3706 609 3251 259 
Q 2797 -91 1919 -91 
Q 1588 -91 1214 -16 
Q 841 59 441 206 
L 441 856 
Q 825 641 1194 531 
Q 1563 422 1919 422 
Q 2459 422 2753 634 
Q 3047 847 3047 1241 
Q 3047 1584 2836 1778 
Q 2625 1972 2144 2069 
L 1759 2144 
Q 1053 2284 737 2584 
Q 422 2884 422 3419 
Q 422 4038 858 4394 
Q 1294 4750 2059 4750 
Q 2388 4750 2728 4690 
Q 3069 4631 3425 4513 
z
" transform="scale(0.015625)"/>
       <path id="DejaVuSans-74" d="M 1172 4494 
L 1172 3500 
L 2356 3500 
L 2356 3053 
L 1172 3053 
L 1172 1153 
Q 1172 725 1289 603 
Q 1406 481 1766 481 
L 2356 481 
L 2356 0 
L 1766 0 
Q 1100 0 847 248 
Q 594 497 594 1153 
L 594 3053 
L 172 3053 
L 172 3500 
L 594 3500 
L 594 4494 
L 1172 4494 
z
" transform="scale(0.015625)"/>
       <path id="DejaVuSans-44" d="M 1259 4147 
L 1259 519 
L 2022 519 
Q 2988 519 3436 956 
Q 3884 1394 3884 2338 
Q 3884 3275 3436 3711 
Q 2988 4147 2022 4147 
L 1259 4147 
z
M 628 4666 
L 1925 4666 
Q 3281 4666 3915 4102 
Q 4550 3538 4550 2338 
Q 4550 1131 3912 565 
Q 3275 0 1925 0 
L 628 0 
L 628 4666 
z
" transform="scale(0.015625)"/>
      </defs>
      <use xlink:href="#DejaVuSans-b1"/>
      <use xlink:href="#DejaVuSans-32" transform="translate(83.789062 0)"/>
      <use xlink:href="#DejaVuSans-20" transform="translate(147.412109 0)"/>
      <use xlink:href="#DejaVuSans-53" transform="translate(179.199219 0)"/>
      <use xlink:href="#DejaVuSans-74" transform="translate(242.675781 0)"/>
      <use xlink:href="#DejaVuSans-64" transform="translate(281.884766 0)"/>
      <use xlink:href="#DejaVuSans-20" transform="translate(345.361328 0)"/>
      <use xlink:href="#DejaVuSans-44" transform="translate(377.148438 0)"/>
      <use xlink:href="#DejaVuSans-65" transform="translate(454.150391 0)"/>
      <use xlink:href="#DejaVuSans-76" transform="translate(515.673828 0)"/>
     </g>
    </g>
   </g>
  </g>
 </g>
 <defs>
  <clipPath id="p6a4850733d">
   <rect x="63.47" y="26.88" width="631.609462" height="219.16"/>
  </clipPath>
 </defs>
</svg>
