<?xml version="1.0" encoding="utf-8" standalone="no"?>
<!DOCTYPE svg PUBLIC "-//W3C//DTD SVG 1.1//EN"
  "http://www.w3.org/Graphics/SVG/1.1/DTD/svg11.dtd">
<svg xmlns:xlink="http://www.w3.org/1999/xlink" width="720pt" height="288pt" viewBox="0 0 720 288" xmlns="http://www.w3.org/2000/svg" version="1.1">
 <metadata>
  <rdf:RDF xmlns:dc="http://purl.org/dc/elements/1.1/" xmlns:cc="http://creativecommons.org/ns#" xmlns:rdf="http://www.w3.org/1999/02/22-rdf-syntax-ns#">
   <cc:Work>
    <dc:type rdf:resource="http://purl.org/dc/dcmitype/StillImage"/>
    <dc:date>2025-06-14T14:13:50.540078</dc:date>
    <dc:format>image/svg+xml</dc:format>
    <dc:creator>
     <cc:Agent>
      <dc:title>Matplotlib v3.10.3, https://matplotlib.org/</dc:title>
     </cc:Agent>
    </dc:creator>
   </cc:Work>
  </rdf:RDF>
 </metadata>
 <defs>
  <style type="text/css">*{stroke-linejoin: round; stroke-linecap: butt}</style>
 </defs>
 <g id="figure_1">
  <g id="patch_1">
   <path d="M 0 288 
L 720 288 
L 720 0 
L 0 0 
z
" style="fill: #ffffff"/>
  </g>
  <g id="axes_1">
   <g id="patch_2">
    <path d="M 44.57 246.04 
L 709.2 246.04 
L 709.2 26.88 
L 44.57 26.88 
z
" style="fill: #ffffff"/>
   </g>
   <g id="FillBetweenPolyCollection_1">
    <defs>
     <path id="m6e74432dc2" d="M 74.780455 -191.110016 
L 74.780455 -51.921818 
L 78.376937 -68.297134 
L 81.97342 -75.936871 
L 85.569903 -77.111891 
L 89.166385 -78.352085 
L 92.762868 -71.593354 
L 96.359351 -65.329945 
L 99.955833 -67.576103 
L 103.552316 -77.360149 
L 107.148799 -104.468878 
L 110.745281 -97.939889 
L 114.341764 -88.931511 
L 117.938247 -81.422157 
L 121.534729 -93.928979 
L 125.131212 -91.621789 
L 128.727695 -93.334494 
L 132.324177 -99.064793 
L 135.92066 -94.658017 
L 139.517143 -80.44068 
L 143.113626 -78.360869 
L 146.710108 -74.645269 
L 150.306591 -70.523499 
L 153.903074 -69.674673 
L 157.499556 -70.829419 
L 161.096039 -68.886303 
L 164.692522 -70.929264 
L 168.289004 -78.46506 
L 171.885487 -81.570374 
L 175.48197 -85.360175 
L 179.078452 -85.981489 
L 182.674935 -86.847208 
L 186.271418 -87.731543 
L 189.8679 -89.015305 
L 193.464383 -90.593583 
L 197.060866 -91.548447 
L 200.657348 -93.214653 
L 204.253831 -94.076889 
L 207.850314 -96.295982 
L 211.446797 -96.871604 
L 215.043279 -96.105295 
L 218.639762 -94.733544 
L 222.236245 -93.818158 
L 225.832727 -92.713409 
L 229.42921 -92.121286 
L 233.025693 -91.319381 
L 236.622175 -98.666774 
L 240.218658 -89.896976 
L 243.815141 -89.223433 
L 247.411623 -90.417335 
L 251.008106 -86.118845 
L 254.604589 -94.057072 
L 258.201071 -96.656391 
L 261.797554 -99.628327 
L 265.394037 -90.749096 
L 268.990519 -86.480956 
L 272.587002 -86.660724 
L 276.183485 -98.114461 
L 279.779968 -116.771191 
L 283.37645 -118.123166 
L 286.972933 -104.318499 
L 290.569416 -111.998845 
L 294.165898 -114.721643 
L 297.762381 -125.460182 
L 301.358864 -123.414776 
L 304.955346 -126.768058 
L 308.551829 -129.769826 
L 312.148312 -107.599521 
L 315.744794 -102.348248 
L 319.341277 -100.797047 
L 322.93776 -98.759056 
L 326.534242 -119.448935 
L 330.130725 -117.624372 
L 333.727208 -93.27601 
L 337.32369 -98.734577 
L 340.920173 -100.561802 
L 344.516656 -100.345992 
L 348.113139 -101.782669 
L 351.709621 -101.014887 
L 355.306104 -98.541924 
L 358.902587 -100.808029 
L 362.499069 -101.381629 
L 366.095552 -102.73948 
L 369.692035 -105.822184 
L 373.288517 -106.14885 
L 376.885 -106.869817 
L 380.481483 -107.524059 
L 384.077965 -108.20096 
L 387.674448 -108.673102 
L 391.270931 -109.683693 
L 394.867413 -109.62109 
L 398.463896 -109.73665 
L 402.060379 -109.942043 
L 405.656861 -110.722875 
L 409.253344 -109.973741 
L 412.849827 -108.989967 
L 416.44631 -107.910644 
L 420.042792 -110.166911 
L 423.639275 -114.796961 
L 427.235758 -115.095251 
L 430.83224 -114.029644 
L 434.428723 -114.554641 
L 438.025206 -115.505943 
L 441.621688 -107.638994 
L 445.218171 -104.282201 
L 448.814654 -116.863238 
L 452.411136 -133.912419 
L 456.007619 -161.230486 
L 459.604102 -144.002532 
L 463.200584 -127.450124 
L 466.797067 -134.146233 
L 470.39355 -136.11666 
L 473.990032 -138.88615 
L 477.586515 -142.047646 
L 481.182998 -138.375408 
L 484.779481 -112.919709 
L 488.375963 -103.420334 
L 491.972446 -97.631735 
L 495.568929 -94.305125 
L 499.165411 -92.378127 
L 502.761894 -111.334655 
L 506.358377 -111.061023 
L 509.954859 -102.82158 
L 513.551342 -97.79034 
L 517.147825 -102.981207 
L 520.744307 -109.221588 
L 524.34079 -110.044063 
L 527.937273 -111.142907 
L 531.533755 -111.93582 
L 535.130238 -111.76032 
L 538.726721 -111.752664 
L 542.323203 -113.250902 
L 545.919686 -122.890596 
L 549.516169 -114.978762 
L 553.112652 -115.497563 
L 556.709134 -114.34489 
L 560.305617 -114.827121 
L 563.9021 -114.568116 
L 567.498582 -117.754727 
L 571.095065 -115.209306 
L 574.691548 -116.851143 
L 578.28803 -117.602118 
L 581.884513 -115.668415 
L 585.480996 -121.213542 
L 589.077478 -122.857209 
L 592.673961 -125.970031 
L 596.270444 -119.832311 
L 599.866926 -122.51119 
L 603.463409 -121.340489 
L 607.059892 -121.780499 
L 610.656374 -121.861694 
L 614.252857 -120.353316 
L 617.84934 -122.343519 
L 621.445823 -130.428104 
L 625.042305 -131.097284 
L 628.638788 -132.663594 
L 632.235271 -147.13727 
L 632.235271 -155.371115 
L 632.235271 -155.371115 
L 628.638788 -170.177347 
L 625.042305 -172.639003 
L 621.445823 -177.247706 
L 617.84934 -185.45167 
L 614.252857 -187.335284 
L 610.656374 -182.906373 
L 607.059892 -182.3054 
L 603.463409 -178.567129 
L 599.866926 -172.877062 
L 596.270444 -175.641213 
L 592.673961 -166.519006 
L 589.077478 -165.965174 
L 585.480996 -163.963504 
L 581.884513 -166.809802 
L 578.28803 -159.197048 
L 574.691548 -158.694538 
L 571.095065 -153.403841 
L 567.498582 -153.032831 
L 563.9021 -146.293893 
L 560.305617 -149.117436 
L 556.709134 -150.303153 
L 553.112652 -152.731863 
L 549.516169 -154.742907 
L 545.919686 -142.371399 
L 542.323203 -163.249815 
L 538.726721 -167.817811 
L 535.130238 -174.61052 
L 531.533755 -175.394319 
L 527.937273 -176.997307 
L 524.34079 -180.398469 
L 520.744307 -182.265514 
L 517.147825 -193.60084 
L 513.551342 -206.636643 
L 509.954859 -199.772075 
L 506.358377 -194.696188 
L 502.761894 -203.27369 
L 499.165411 -232.343363 
L 495.568929 -238.048123 
L 491.972446 -239.752504 
L 488.375963 -235.797234 
L 484.779481 -229.239709 
L 481.182998 -204.551449 
L 477.586515 -203.565249 
L 473.990032 -210.009681 
L 470.39355 -216.275283 
L 466.797067 -228.478235 
L 463.200584 -238.926269 
L 459.604102 -227.831207 
L 456.007619 -200.370729 
L 452.411136 -214.51442 
L 448.814654 -238.598463 
L 445.218171 -251.158182 
L 441.621688 -236.329388 
L 438.025206 -218.065463 
L 434.428723 -206.262654 
L 430.83224 -201.52521 
L 427.235758 -191.743684 
L 423.639275 -178.95896 
L 420.042792 -184.502629 
L 416.44631 -182.647613 
L 412.849827 -174.131437 
L 409.253344 -165.7839 
L 405.656861 -157.049743 
L 402.060379 -150.594718 
L 398.463896 -146.560921 
L 394.867413 -140.701419 
L 391.270931 -136.417898 
L 387.674448 -134.450094 
L 384.077965 -134.660332 
L 380.481483 -133.296819 
L 376.885 -134.718501 
L 373.288517 -137.175342 
L 369.692035 -139.018615 
L 366.095552 -144.403637 
L 362.499069 -148.611977 
L 358.902587 -153.315131 
L 355.306104 -159.646838 
L 351.709621 -158.6448 
L 348.113139 -161.257405 
L 344.516656 -167.408353 
L 340.920173 -171.559638 
L 337.32369 -179.946643 
L 333.727208 -193.073513 
L 330.130725 -153.316674 
L 326.534242 -156.14791 
L 322.93776 -205.028395 
L 319.341277 -210.299349 
L 315.744794 -214.412582 
L 312.148312 -214.971922 
L 308.551829 -191.303282 
L 304.955346 -197.192084 
L 301.358864 -201.312806 
L 297.762381 -199.779025 
L 294.165898 -218.082324 
L 290.569416 -223.472888 
L 286.972933 -229.96553 
L 283.37645 -203.662564 
L 279.779968 -203.187303 
L 276.183485 -228.531719 
L 272.587002 -241.319338 
L 268.990519 -232.582191 
L 265.394037 -214.975225 
L 261.797554 -190.710662 
L 258.201071 -185.66103 
L 254.604589 -180.476321 
L 251.008106 -186.185319 
L 247.411623 -168.748998 
L 243.815141 -162.45123 
L 240.218658 -153.335854 
L 236.622175 -141.849564 
L 233.025693 -135.486593 
L 229.42921 -128.344176 
L 225.832727 -122.197255 
L 222.236245 -116.761954 
L 218.639762 -112.776812 
L 215.043279 -108.243941 
L 211.446797 -105.778303 
L 207.850314 -105.16622 
L 204.253831 -107.427949 
L 200.657348 -110.093058 
L 197.060866 -114.262578 
L 193.464383 -116.971589 
L 189.8679 -121.27245 
L 186.271418 -126.17414 
L 182.674935 -130.475408 
L 179.078452 -134.666698 
L 175.48197 -137.754781 
L 171.885487 -146.478121 
L 168.289004 -154.717969 
L 164.692522 -169.608392 
L 161.096039 -176.298625 
L 157.499556 -179.328638 
L 153.903074 -185.910276 
L 150.306591 -191.018241 
L 146.710108 -193.584157 
L 143.113626 -192.134331 
L 139.517143 -196.15749 
L 135.92066 -184.790642 
L 132.324177 -187.144641 
L 128.727695 -192.436403 
L 125.131212 -200.288623 
L 121.534729 -200.356841 
L 117.938247 -222.136888 
L 114.341764 -205.463944 
L 110.745281 -190.919039 
L 107.148799 -169.495026 
L 103.552316 -209.628907 
L 99.955833 -223.974953 
L 96.359351 -223.035628 
L 92.762868 -203.670933 
L 89.166385 -162.556501 
L 85.569903 -162.551737 
L 81.97342 -157.99228 
L 78.376937 -176.602137 
L 74.780455 -191.110016 
z
" style="stroke: #808080; stroke-opacity: 0.2"/>
    </defs>
    <g clip-path="url(#pf660e6af50)">
     <use xlink:href="#m6e74432dc2" x="0" y="288" style="fill: #808080; fill-opacity: 0.2; stroke: #808080; stroke-opacity: 0.2"/>
    </g>
   </g>
   <g id="matplotlib.axis_1">
    <g id="xtick_1">
     <g id="line2d_1">
      <defs>
       <path id="m5c61cd3a5a" d="M 0 0 
L 0 3.5 
" style="stroke: #000000; stroke-width: 0.8"/>
      </defs>
      <g>
       <use xlink:href="#m5c61cd3a5a" x="60.394524" y="246.04" style="stroke: #000000; stroke-width: 0.8"/>
      </g>
     </g>
     <g id="text_1">
      <!-- 06-11 12 -->
      <g transform="translate(37.914055 260.638438) scale(0.1 -0.1)">
       <defs>
        <path id="DejaVuSans-30" d="M 2034 4250 
Q 1547 4250 1301 3770 
Q 1056 3291 1056 2328 
Q 1056 1369 1301 889 
Q 1547 409 2034 409 
Q 2525 409 2770 889 
Q 3016 1369 3016 2328 
Q 3016 3291 2770 3770 
Q 2525 4250 2034 4250 
z
M 2034 4750 
Q 2819 4750 3233 4129 
Q 3647 3509 3647 2328 
Q 3647 1150 3233 529 
Q 2819 -91 2034 -91 
Q 1250 -91 836 529 
Q 422 1150 422 2328 
Q 422 3509 836 4129 
Q 1250 4750 2034 4750 
z
" transform="scale(0.015625)"/>
        <path id="DejaVuSans-36" d="M 2113 2584 
Q 1688 2584 1439 2293 
Q 1191 2003 1191 1497 
Q 1191 994 1439 701 
Q 1688 409 2113 409 
Q 2538 409 2786 701 
Q 3034 994 3034 1497 
Q 3034 2003 2786 2293 
Q 2538 2584 2113 2584 
z
M 3366 4563 
L 3366 3988 
Q 3128 4100 2886 4159 
Q 2644 4219 2406 4219 
Q 1781 4219 1451 3797 
Q 1122 3375 1075 2522 
Q 1259 2794 1537 2939 
Q 1816 3084 2150 3084 
Q 2853 3084 3261 2657 
Q 3669 2231 3669 1497 
Q 3669 778 3244 343 
Q 2819 -91 2113 -91 
Q 1303 -91 875 529 
Q 447 1150 447 2328 
Q 447 3434 972 4092 
Q 1497 4750 2381 4750 
Q 2619 4750 2861 4703 
Q 3103 4656 3366 4563 
z
" transform="scale(0.015625)"/>
        <path id="DejaVuSans-2d" d="M 313 2009 
L 1997 2009 
L 1997 1497 
L 313 1497 
L 313 2009 
z
" transform="scale(0.015625)"/>
        <path id="DejaVuSans-31" d="M 794 531 
L 1825 531 
L 1825 4091 
L 703 3866 
L 703 4441 
L 1819 4666 
L 2450 4666 
L 2450 531 
L 3481 531 
L 3481 0 
L 794 0 
L 794 531 
z
" transform="scale(0.015625)"/>
        <path id="DejaVuSans-20" transform="scale(0.015625)"/>
        <path id="DejaVuSans-32" d="M 1228 531 
L 3431 531 
L 3431 0 
L 469 0 
L 469 531 
Q 828 903 1448 1529 
Q 2069 2156 2228 2338 
Q 2531 2678 2651 2914 
Q 2772 3150 2772 3378 
Q 2772 3750 2511 3984 
Q 2250 4219 1831 4219 
Q 1534 4219 1204 4116 
Q 875 4013 500 3803 
L 500 4441 
Q 881 4594 1212 4672 
Q 1544 4750 1819 4750 
Q 2544 4750 2975 4387 
Q 3406 4025 3406 3419 
Q 3406 3131 3298 2873 
Q 3191 2616 2906 2266 
Q 2828 2175 2409 1742 
Q 1991 1309 1228 531 
z
" transform="scale(0.015625)"/>
       </defs>
       <use xlink:href="#DejaVuSans-30"/>
       <use xlink:href="#DejaVuSans-36" transform="translate(63.623047 0)"/>
       <use xlink:href="#DejaVuSans-2d" transform="translate(127.246094 0)"/>
       <use xlink:href="#DejaVuSans-31" transform="translate(163.330078 0)"/>
       <use xlink:href="#DejaVuSans-31" transform="translate(226.953125 0)"/>
       <use xlink:href="#DejaVuSans-20" transform="translate(290.576172 0)"/>
       <use xlink:href="#DejaVuSans-31" transform="translate(322.363281 0)"/>
       <use xlink:href="#DejaVuSans-32" transform="translate(385.986328 0)"/>
      </g>
     </g>
    </g>
    <g id="xtick_2">
     <g id="line2d_2">
      <g>
       <use xlink:href="#m5c61cd3a5a" x="146.710108" y="246.04" style="stroke: #000000; stroke-width: 0.8"/>
      </g>
     </g>
     <g id="text_2">
      <!-- 06-12 00 -->
      <g transform="translate(124.229639 260.638438) scale(0.1 -0.1)">
       <use xlink:href="#DejaVuSans-30"/>
       <use xlink:href="#DejaVuSans-36" transform="translate(63.623047 0)"/>
       <use xlink:href="#DejaVuSans-2d" transform="translate(127.246094 0)"/>
       <use xlink:href="#DejaVuSans-31" transform="translate(163.330078 0)"/>
       <use xlink:href="#DejaVuSans-32" transform="translate(226.953125 0)"/>
       <use xlink:href="#DejaVuSans-20" transform="translate(290.576172 0)"/>
       <use xlink:href="#DejaVuSans-30" transform="translate(322.363281 0)"/>
       <use xlink:href="#DejaVuSans-30" transform="translate(385.986328 0)"/>
      </g>
     </g>
    </g>
    <g id="xtick_3">
     <g id="line2d_3">
      <g>
       <use xlink:href="#m5c61cd3a5a" x="233.025693" y="246.04" style="stroke: #000000; stroke-width: 0.8"/>
      </g>
     </g>
     <g id="text_3">
      <!-- 06-12 12 -->
      <g transform="translate(210.545224 260.638438) scale(0.1 -0.1)">
       <use xlink:href="#DejaVuSans-30"/>
       <use xlink:href="#DejaVuSans-36" transform="translate(63.623047 0)"/>
       <use xlink:href="#DejaVuSans-2d" transform="translate(127.246094 0)"/>
       <use xlink:href="#DejaVuSans-31" transform="translate(163.330078 0)"/>
       <use xlink:href="#DejaVuSans-32" transform="translate(226.953125 0)"/>
       <use xlink:href="#DejaVuSans-20" transform="translate(290.576172 0)"/>
       <use xlink:href="#DejaVuSans-31" transform="translate(322.363281 0)"/>
       <use xlink:href="#DejaVuSans-32" transform="translate(385.986328 0)"/>
      </g>
     </g>
    </g>
    <g id="xtick_4">
     <g id="line2d_4">
      <g>
       <use xlink:href="#m5c61cd3a5a" x="319.341277" y="246.04" style="stroke: #000000; stroke-width: 0.8"/>
      </g>
     </g>
     <g id="text_4">
      <!-- 06-13 00 -->
      <g transform="translate(296.860808 260.638438) scale(0.1 -0.1)">
       <defs>
        <path id="DejaVuSans-33" d="M 2597 2516 
Q 3050 2419 3304 2112 
Q 3559 1806 3559 1356 
Q 3559 666 3084 287 
Q 2609 -91 1734 -91 
Q 1441 -91 1130 -33 
Q 819 25 488 141 
L 488 750 
Q 750 597 1062 519 
Q 1375 441 1716 441 
Q 2309 441 2620 675 
Q 2931 909 2931 1356 
Q 2931 1769 2642 2001 
Q 2353 2234 1838 2234 
L 1294 2234 
L 1294 2753 
L 1863 2753 
Q 2328 2753 2575 2939 
Q 2822 3125 2822 3475 
Q 2822 3834 2567 4026 
Q 2313 4219 1838 4219 
Q 1578 4219 1281 4162 
Q 984 4106 628 3988 
L 628 4550 
Q 988 4650 1302 4700 
Q 1616 4750 1894 4750 
Q 2613 4750 3031 4423 
Q 3450 4097 3450 3541 
Q 3450 3153 3228 2886 
Q 3006 2619 2597 2516 
z
" transform="scale(0.015625)"/>
       </defs>
       <use xlink:href="#DejaVuSans-30"/>
       <use xlink:href="#DejaVuSans-36" transform="translate(63.623047 0)"/>
       <use xlink:href="#DejaVuSans-2d" transform="translate(127.246094 0)"/>
       <use xlink:href="#DejaVuSans-31" transform="translate(163.330078 0)"/>
       <use xlink:href="#DejaVuSans-33" transform="translate(226.953125 0)"/>
       <use xlink:href="#DejaVuSans-20" transform="translate(290.576172 0)"/>
       <use xlink:href="#DejaVuSans-30" transform="translate(322.363281 0)"/>
       <use xlink:href="#DejaVuSans-30" transform="translate(385.986328 0)"/>
      </g>
     </g>
    </g>
    <g id="xtick_5">
     <g id="line2d_5">
      <g>
       <use xlink:href="#m5c61cd3a5a" x="405.656861" y="246.04" style="stroke: #000000; stroke-width: 0.8"/>
      </g>
     </g>
     <g id="text_5">
      <!-- 06-13 12 -->
      <g transform="translate(383.176393 260.638438) scale(0.1 -0.1)">
       <use xlink:href="#DejaVuSans-30"/>
       <use xlink:href="#DejaVuSans-36" transform="translate(63.623047 0)"/>
       <use xlink:href="#DejaVuSans-2d" transform="translate(127.246094 0)"/>
       <use xlink:href="#DejaVuSans-31" transform="translate(163.330078 0)"/>
       <use xlink:href="#DejaVuSans-33" transform="translate(226.953125 0)"/>
       <use xlink:href="#DejaVuSans-20" transform="translate(290.576172 0)"/>
       <use xlink:href="#DejaVuSans-31" transform="translate(322.363281 0)"/>
       <use xlink:href="#DejaVuSans-32" transform="translate(385.986328 0)"/>
      </g>
     </g>
    </g>
    <g id="xtick_6">
     <g id="line2d_6">
      <g>
       <use xlink:href="#m5c61cd3a5a" x="491.972446" y="246.04" style="stroke: #000000; stroke-width: 0.8"/>
      </g>
     </g>
     <g id="text_6">
      <!-- 06-14 00 -->
      <g transform="translate(469.491977 260.638438) scale(0.1 -0.1)">
       <defs>
        <path id="DejaVuSans-34" d="M 2419 4116 
L 825 1625 
L 2419 1625 
L 2419 4116 
z
M 2253 4666 
L 3047 4666 
L 3047 1625 
L 3713 1625 
L 3713 1100 
L 3047 1100 
L 3047 0 
L 2419 0 
L 2419 1100 
L 313 1100 
L 313 1709 
L 2253 4666 
z
" transform="scale(0.015625)"/>
       </defs>
       <use xlink:href="#DejaVuSans-30"/>
       <use xlink:href="#DejaVuSans-36" transform="translate(63.623047 0)"/>
       <use xlink:href="#DejaVuSans-2d" transform="translate(127.246094 0)"/>
       <use xlink:href="#DejaVuSans-31" transform="translate(163.330078 0)"/>
       <use xlink:href="#DejaVuSans-34" transform="translate(226.953125 0)"/>
       <use xlink:href="#DejaVuSans-20" transform="translate(290.576172 0)"/>
       <use xlink:href="#DejaVuSans-30" transform="translate(322.363281 0)"/>
       <use xlink:href="#DejaVuSans-30" transform="translate(385.986328 0)"/>
      </g>
     </g>
    </g>
    <g id="xtick_7">
     <g id="line2d_7">
      <g>
       <use xlink:href="#m5c61cd3a5a" x="578.28803" y="246.04" style="stroke: #000000; stroke-width: 0.8"/>
      </g>
     </g>
     <g id="text_7">
      <!-- 06-14 12 -->
      <g transform="translate(555.807562 260.638438) scale(0.1 -0.1)">
       <use xlink:href="#DejaVuSans-30"/>
       <use xlink:href="#DejaVuSans-36" transform="translate(63.623047 0)"/>
       <use xlink:href="#DejaVuSans-2d" transform="translate(127.246094 0)"/>
       <use xlink:href="#DejaVuSans-31" transform="translate(163.330078 0)"/>
       <use xlink:href="#DejaVuSans-34" transform="translate(226.953125 0)"/>
       <use xlink:href="#DejaVuSans-20" transform="translate(290.576172 0)"/>
       <use xlink:href="#DejaVuSans-31" transform="translate(322.363281 0)"/>
       <use xlink:href="#DejaVuSans-32" transform="translate(385.986328 0)"/>
      </g>
     </g>
    </g>
    <g id="xtick_8">
     <g id="line2d_8">
      <g>
       <use xlink:href="#m5c61cd3a5a" x="664.603615" y="246.04" style="stroke: #000000; stroke-width: 0.8"/>
      </g>
     </g>
     <g id="text_8">
      <!-- 06-15 00 -->
      <g transform="translate(642.123146 260.638438) scale(0.1 -0.1)">
       <defs>
        <path id="DejaVuSans-35" d="M 691 4666 
L 3169 4666 
L 3169 4134 
L 1269 4134 
L 1269 2991 
Q 1406 3038 1543 3061 
Q 1681 3084 1819 3084 
Q 2600 3084 3056 2656 
Q 3513 2228 3513 1497 
Q 3513 744 3044 326 
Q 2575 -91 1722 -91 
Q 1428 -91 1123 -41 
Q 819 9 494 109 
L 494 744 
Q 775 591 1075 516 
Q 1375 441 1709 441 
Q 2250 441 2565 725 
Q 2881 1009 2881 1497 
Q 2881 1984 2565 2268 
Q 2250 2553 1709 2553 
Q 1456 2553 1204 2497 
Q 953 2441 691 2322 
L 691 4666 
z
" transform="scale(0.015625)"/>
       </defs>
       <use xlink:href="#DejaVuSans-30"/>
       <use xlink:href="#DejaVuSans-36" transform="translate(63.623047 0)"/>
       <use xlink:href="#DejaVuSans-2d" transform="translate(127.246094 0)"/>
       <use xlink:href="#DejaVuSans-31" transform="translate(163.330078 0)"/>
       <use xlink:href="#DejaVuSans-35" transform="translate(226.953125 0)"/>
       <use xlink:href="#DejaVuSans-20" transform="translate(290.576172 0)"/>
       <use xlink:href="#DejaVuSans-30" transform="translate(322.363281 0)"/>
       <use xlink:href="#DejaVuSans-30" transform="translate(385.986328 0)"/>
      </g>
     </g>
    </g>
    <g id="text_9">
     <!-- Tijd -->
     <g transform="translate(368.035 274.316562) scale(0.1 -0.1)">
      <defs>
       <path id="DejaVuSans-54" d="M -19 4666 
L 3928 4666 
L 3928 4134 
L 2272 4134 
L 2272 0 
L 1638 0 
L 1638 4134 
L -19 4134 
L -19 4666 
z
" transform="scale(0.015625)"/>
       <path id="DejaVuSans-69" d="M 603 3500 
L 1178 3500 
L 1178 0 
L 603 0 
L 603 3500 
z
M 603 4863 
L 1178 4863 
L 1178 4134 
L 603 4134 
L 603 4863 
z
" transform="scale(0.015625)"/>
       <path id="DejaVuSans-6a" d="M 603 3500 
L 1178 3500 
L 1178 -63 
Q 1178 -731 923 -1031 
Q 669 -1331 103 -1331 
L -116 -1331 
L -116 -844 
L 38 -844 
Q 366 -844 484 -692 
Q 603 -541 603 -63 
L 603 3500 
z
M 603 4863 
L 1178 4863 
L 1178 4134 
L 603 4134 
L 603 4863 
z
" transform="scale(0.015625)"/>
       <path id="DejaVuSans-64" d="M 2906 2969 
L 2906 4863 
L 3481 4863 
L 3481 0 
L 2906 0 
L 2906 525 
Q 2725 213 2448 61 
Q 2172 -91 1784 -91 
Q 1150 -91 751 415 
Q 353 922 353 1747 
Q 353 2572 751 3078 
Q 1150 3584 1784 3584 
Q 2172 3584 2448 3432 
Q 2725 3281 2906 2969 
z
M 947 1747 
Q 947 1113 1208 752 
Q 1469 391 1925 391 
Q 2381 391 2643 752 
Q 2906 1113 2906 1747 
Q 2906 2381 2643 2742 
Q 2381 3103 1925 3103 
Q 1469 3103 1208 2742 
Q 947 2381 947 1747 
z
" transform="scale(0.015625)"/>
      </defs>
      <use xlink:href="#DejaVuSans-54"/>
      <use xlink:href="#DejaVuSans-69" transform="translate(57.958984 0)"/>
      <use xlink:href="#DejaVuSans-6a" transform="translate(85.742188 0)"/>
      <use xlink:href="#DejaVuSans-64" transform="translate(113.525391 0)"/>
     </g>
    </g>
   </g>
   <g id="matplotlib.axis_2">
    <g id="ytick_1">
     <g id="line2d_9">
      <defs>
       <path id="m769fce29e8" d="M 0 0 
L -3.5 0 
" style="stroke: #000000; stroke-width: 0.8"/>
      </defs>
      <g>
       <use xlink:href="#m769fce29e8" x="44.57" y="235.745485" style="stroke: #000000; stroke-width: 0.8"/>
      </g>
     </g>
     <g id="text_10">
      <!-- 0 -->
      <g transform="translate(31.2075 239.544704) scale(0.1 -0.1)">
       <use xlink:href="#DejaVuSans-30"/>
      </g>
     </g>
    </g>
    <g id="ytick_2">
     <g id="line2d_10">
      <g>
       <use xlink:href="#m769fce29e8" x="44.57" y="197.373517" style="stroke: #000000; stroke-width: 0.8"/>
      </g>
     </g>
     <g id="text_11">
      <!-- 10 -->
      <g transform="translate(24.845 201.172736) scale(0.1 -0.1)">
       <use xlink:href="#DejaVuSans-31"/>
       <use xlink:href="#DejaVuSans-30" transform="translate(63.623047 0)"/>
      </g>
     </g>
    </g>
    <g id="ytick_3">
     <g id="line2d_11">
      <g>
       <use xlink:href="#m769fce29e8" x="44.57" y="159.001549" style="stroke: #000000; stroke-width: 0.8"/>
      </g>
     </g>
     <g id="text_12">
      <!-- 20 -->
      <g transform="translate(24.845 162.800768) scale(0.1 -0.1)">
       <use xlink:href="#DejaVuSans-32"/>
       <use xlink:href="#DejaVuSans-30" transform="translate(63.623047 0)"/>
      </g>
     </g>
    </g>
    <g id="ytick_4">
     <g id="line2d_12">
      <g>
       <use xlink:href="#m769fce29e8" x="44.57" y="120.629581" style="stroke: #000000; stroke-width: 0.8"/>
      </g>
     </g>
     <g id="text_13">
      <!-- 30 -->
      <g transform="translate(24.845 124.4288) scale(0.1 -0.1)">
       <use xlink:href="#DejaVuSans-33"/>
       <use xlink:href="#DejaVuSans-30" transform="translate(63.623047 0)"/>
      </g>
     </g>
    </g>
    <g id="ytick_5">
     <g id="line2d_13">
      <g>
       <use xlink:href="#m769fce29e8" x="44.57" y="82.257613" style="stroke: #000000; stroke-width: 0.8"/>
      </g>
     </g>
     <g id="text_14">
      <!-- 40 -->
      <g transform="translate(24.845 86.056832) scale(0.1 -0.1)">
       <use xlink:href="#DejaVuSans-34"/>
       <use xlink:href="#DejaVuSans-30" transform="translate(63.623047 0)"/>
      </g>
     </g>
    </g>
    <g id="ytick_6">
     <g id="line2d_14">
      <g>
       <use xlink:href="#m769fce29e8" x="44.57" y="43.885645" style="stroke: #000000; stroke-width: 0.8"/>
      </g>
     </g>
     <g id="text_15">
      <!-- 50 -->
      <g transform="translate(24.845 47.684864) scale(0.1 -0.1)">
       <use xlink:href="#DejaVuSans-35"/>
       <use xlink:href="#DejaVuSans-30" transform="translate(63.623047 0)"/>
      </g>
     </g>
    </g>
    <g id="text_16">
     <!-- Buiten temperatuur (°C) -->
     <g transform="translate(18.765312 197.355312) rotate(-90) scale(0.1 -0.1)">
      <defs>
       <path id="DejaVuSans-42" d="M 1259 2228 
L 1259 519 
L 2272 519 
Q 2781 519 3026 730 
Q 3272 941 3272 1375 
Q 3272 1813 3026 2020 
Q 2781 2228 2272 2228 
L 1259 2228 
z
M 1259 4147 
L 1259 2741 
L 2194 2741 
Q 2656 2741 2882 2914 
Q 3109 3088 3109 3444 
Q 3109 3797 2882 3972 
Q 2656 4147 2194 4147 
L 1259 4147 
z
M 628 4666 
L 2241 4666 
Q 2963 4666 3353 4366 
Q 3744 4066 3744 3513 
Q 3744 3084 3544 2831 
Q 3344 2578 2956 2516 
Q 3422 2416 3680 2098 
Q 3938 1781 3938 1306 
Q 3938 681 3513 340 
Q 3088 0 2303 0 
L 628 0 
L 628 4666 
z
" transform="scale(0.015625)"/>
       <path id="DejaVuSans-75" d="M 544 1381 
L 544 3500 
L 1119 3500 
L 1119 1403 
Q 1119 906 1312 657 
Q 1506 409 1894 409 
Q 2359 409 2629 706 
Q 2900 1003 2900 1516 
L 2900 3500 
L 3475 3500 
L 3475 0 
L 2900 0 
L 2900 538 
Q 2691 219 2414 64 
Q 2138 -91 1772 -91 
Q 1169 -91 856 284 
Q 544 659 544 1381 
z
M 1991 3584 
L 1991 3584 
z
" transform="scale(0.015625)"/>
       <path id="DejaVuSans-74" d="M 1172 4494 
L 1172 3500 
L 2356 3500 
L 2356 3053 
L 1172 3053 
L 1172 1153 
Q 1172 725 1289 603 
Q 1406 481 1766 481 
L 2356 481 
L 2356 0 
L 1766 0 
Q 1100 0 847 248 
Q 594 497 594 1153 
L 594 3053 
L 172 3053 
L 172 3500 
L 594 3500 
L 594 4494 
L 1172 4494 
z
" transform="scale(0.015625)"/>
       <path id="DejaVuSans-65" d="M 3597 1894 
L 3597 1613 
L 953 1613 
Q 991 1019 1311 708 
Q 1631 397 2203 397 
Q 2534 397 2845 478 
Q 3156 559 3463 722 
L 3463 178 
Q 3153 47 2828 -22 
Q 2503 -91 2169 -91 
Q 1331 -91 842 396 
Q 353 884 353 1716 
Q 353 2575 817 3079 
Q 1281 3584 2069 3584 
Q 2775 3584 3186 3129 
Q 3597 2675 3597 1894 
z
M 3022 2063 
Q 3016 2534 2758 2815 
Q 2500 3097 2075 3097 
Q 1594 3097 1305 2825 
Q 1016 2553 972 2059 
L 3022 2063 
z
" transform="scale(0.015625)"/>
       <path id="DejaVuSans-6e" d="M 3513 2113 
L 3513 0 
L 2938 0 
L 2938 2094 
Q 2938 2591 2744 2837 
Q 2550 3084 2163 3084 
Q 1697 3084 1428 2787 
Q 1159 2491 1159 1978 
L 1159 0 
L 581 0 
L 581 3500 
L 1159 3500 
L 1159 2956 
Q 1366 3272 1645 3428 
Q 1925 3584 2291 3584 
Q 2894 3584 3203 3211 
Q 3513 2838 3513 2113 
z
" transform="scale(0.015625)"/>
       <path id="DejaVuSans-6d" d="M 3328 2828 
Q 3544 3216 3844 3400 
Q 4144 3584 4550 3584 
Q 5097 3584 5394 3201 
Q 5691 2819 5691 2113 
L 5691 0 
L 5113 0 
L 5113 2094 
Q 5113 2597 4934 2840 
Q 4756 3084 4391 3084 
Q 3944 3084 3684 2787 
Q 3425 2491 3425 1978 
L 3425 0 
L 2847 0 
L 2847 2094 
Q 2847 2600 2669 2842 
Q 2491 3084 2119 3084 
Q 1678 3084 1418 2786 
Q 1159 2488 1159 1978 
L 1159 0 
L 581 0 
L 581 3500 
L 1159 3500 
L 1159 2956 
Q 1356 3278 1631 3431 
Q 1906 3584 2284 3584 
Q 2666 3584 2933 3390 
Q 3200 3197 3328 2828 
z
" transform="scale(0.015625)"/>
       <path id="DejaVuSans-70" d="M 1159 525 
L 1159 -1331 
L 581 -1331 
L 581 3500 
L 1159 3500 
L 1159 2969 
Q 1341 3281 1617 3432 
Q 1894 3584 2278 3584 
Q 2916 3584 3314 3078 
Q 3713 2572 3713 1747 
Q 3713 922 3314 415 
Q 2916 -91 2278 -91 
Q 1894 -91 1617 61 
Q 1341 213 1159 525 
z
M 3116 1747 
Q 3116 2381 2855 2742 
Q 2594 3103 2138 3103 
Q 1681 3103 1420 2742 
Q 1159 2381 1159 1747 
Q 1159 1113 1420 752 
Q 1681 391 2138 391 
Q 2594 391 2855 752 
Q 3116 1113 3116 1747 
z
" transform="scale(0.015625)"/>
       <path id="DejaVuSans-72" d="M 2631 2963 
Q 2534 3019 2420 3045 
Q 2306 3072 2169 3072 
Q 1681 3072 1420 2755 
Q 1159 2438 1159 1844 
L 1159 0 
L 581 0 
L 581 3500 
L 1159 3500 
L 1159 2956 
Q 1341 3275 1631 3429 
Q 1922 3584 2338 3584 
Q 2397 3584 2469 3576 
Q 2541 3569 2628 3553 
L 2631 2963 
z
" transform="scale(0.015625)"/>
       <path id="DejaVuSans-61" d="M 2194 1759 
Q 1497 1759 1228 1600 
Q 959 1441 959 1056 
Q 959 750 1161 570 
Q 1363 391 1709 391 
Q 2188 391 2477 730 
Q 2766 1069 2766 1631 
L 2766 1759 
L 2194 1759 
z
M 3341 1997 
L 3341 0 
L 2766 0 
L 2766 531 
Q 2569 213 2275 61 
Q 1981 -91 1556 -91 
Q 1019 -91 701 211 
Q 384 513 384 1019 
Q 384 1609 779 1909 
Q 1175 2209 1959 2209 
L 2766 2209 
L 2766 2266 
Q 2766 2663 2505 2880 
Q 2244 3097 1772 3097 
Q 1472 3097 1187 3025 
Q 903 2953 641 2809 
L 641 3341 
Q 956 3463 1253 3523 
Q 1550 3584 1831 3584 
Q 2591 3584 2966 3190 
Q 3341 2797 3341 1997 
z
" transform="scale(0.015625)"/>
       <path id="DejaVuSans-28" d="M 1984 4856 
Q 1566 4138 1362 3434 
Q 1159 2731 1159 2009 
Q 1159 1288 1364 580 
Q 1569 -128 1984 -844 
L 1484 -844 
Q 1016 -109 783 600 
Q 550 1309 550 2009 
Q 550 2706 781 3412 
Q 1013 4119 1484 4856 
L 1984 4856 
z
" transform="scale(0.015625)"/>
       <path id="DejaVuSans-b0" d="M 1600 4347 
Q 1350 4347 1178 4173 
Q 1006 4000 1006 3750 
Q 1006 3503 1178 3333 
Q 1350 3163 1600 3163 
Q 1850 3163 2022 3333 
Q 2194 3503 2194 3750 
Q 2194 3997 2020 4172 
Q 1847 4347 1600 4347 
z
M 1600 4750 
Q 1800 4750 1984 4673 
Q 2169 4597 2303 4453 
Q 2447 4313 2519 4134 
Q 2591 3956 2591 3750 
Q 2591 3338 2302 3052 
Q 2013 2766 1594 2766 
Q 1172 2766 890 3047 
Q 609 3328 609 3750 
Q 609 4169 896 4459 
Q 1184 4750 1600 4750 
z
" transform="scale(0.015625)"/>
       <path id="DejaVuSans-43" d="M 4122 4306 
L 4122 3641 
Q 3803 3938 3442 4084 
Q 3081 4231 2675 4231 
Q 1875 4231 1450 3742 
Q 1025 3253 1025 2328 
Q 1025 1406 1450 917 
Q 1875 428 2675 428 
Q 3081 428 3442 575 
Q 3803 722 4122 1019 
L 4122 359 
Q 3791 134 3420 21 
Q 3050 -91 2638 -91 
Q 1578 -91 968 557 
Q 359 1206 359 2328 
Q 359 3453 968 4101 
Q 1578 4750 2638 4750 
Q 3056 4750 3426 4639 
Q 3797 4528 4122 4306 
z
" transform="scale(0.015625)"/>
       <path id="DejaVuSans-29" d="M 513 4856 
L 1013 4856 
Q 1481 4119 1714 3412 
Q 1947 2706 1947 2009 
Q 1947 1309 1714 600 
Q 1481 -109 1013 -844 
L 513 -844 
Q 928 -128 1133 580 
Q 1338 1288 1338 2009 
Q 1338 2731 1133 3434 
Q 928 4138 513 4856 
z
" transform="scale(0.015625)"/>
      </defs>
      <use xlink:href="#DejaVuSans-42"/>
      <use xlink:href="#DejaVuSans-75" transform="translate(68.603516 0)"/>
      <use xlink:href="#DejaVuSans-69" transform="translate(131.982422 0)"/>
      <use xlink:href="#DejaVuSans-74" transform="translate(159.765625 0)"/>
      <use xlink:href="#DejaVuSans-65" transform="translate(198.974609 0)"/>
      <use xlink:href="#DejaVuSans-6e" transform="translate(260.498047 0)"/>
      <use xlink:href="#DejaVuSans-20" transform="translate(323.876953 0)"/>
      <use xlink:href="#DejaVuSans-74" transform="translate(355.664062 0)"/>
      <use xlink:href="#DejaVuSans-65" transform="translate(394.873047 0)"/>
      <use xlink:href="#DejaVuSans-6d" transform="translate(456.396484 0)"/>
      <use xlink:href="#DejaVuSans-70" transform="translate(553.808594 0)"/>
      <use xlink:href="#DejaVuSans-65" transform="translate(617.285156 0)"/>
      <use xlink:href="#DejaVuSans-72" transform="translate(678.808594 0)"/>
      <use xlink:href="#DejaVuSans-61" transform="translate(719.921875 0)"/>
      <use xlink:href="#DejaVuSans-74" transform="translate(781.201172 0)"/>
      <use xlink:href="#DejaVuSans-75" transform="translate(820.410156 0)"/>
      <use xlink:href="#DejaVuSans-75" transform="translate(883.789062 0)"/>
      <use xlink:href="#DejaVuSans-72" transform="translate(947.167969 0)"/>
      <use xlink:href="#DejaVuSans-20" transform="translate(988.28125 0)"/>
      <use xlink:href="#DejaVuSans-28" transform="translate(1020.068359 0)"/>
      <use xlink:href="#DejaVuSans-b0" transform="translate(1059.082031 0)"/>
      <use xlink:href="#DejaVuSans-43" transform="translate(1109.082031 0)"/>
      <use xlink:href="#DejaVuSans-29" transform="translate(1178.90625 0)"/>
     </g>
    </g>
   </g>
   <g id="line2d_15">
    <path d="M 74.780455 170.12942 
L 78.376937 169.36198 
L 81.97342 169.617794 
L 85.569903 169.36198 
L 89.166385 166.164316 
L 92.762868 162.710839 
L 96.359351 163.478279 
L 99.955833 158.106203 
L 103.552316 151.838782 
L 107.148799 149.920183 
L 110.745281 150.943436 
L 114.341764 153.501567 
L 117.938247 152.862034 
L 121.534729 153.501567 
L 125.131212 154.908539 
L 128.727695 155.931792 
L 132.324177 156.827138 
L 135.92066 157.85039 
L 139.517143 159.385269 
L 143.113626 161.431774 
L 146.710108 164.117811 
L 150.306591 167.187569 
L 153.903074 169.873607 
L 157.499556 172.175925 
L 161.096039 174.094523 
L 164.692522 176.141028 
L 168.289004 177.548 
L 171.885487 179.210786 
L 175.48197 180.234038 
L 179.078452 181.768917 
L 182.674935 182.792169 
L 186.271418 183.943328 
L 189.8679 184.582861 
L 193.464383 186.245646 
L 197.060866 186.501459 
L 200.657348 188.164245 
L 204.253831 189.44331 
L 207.850314 190.082843 
L 215.043279 188.036338 
L 218.639762 186.245646 
L 222.236245 183.815422 
L 225.832727 179.338692 
L 229.42921 176.013122 
L 233.025693 172.431738 
L 240.218658 166.164316 
L 243.815141 163.478279 
L 247.411623 159.768988 
L 251.008106 155.548072 
L 254.604589 150.943436 
L 258.201071 144.931828 
L 261.797554 140.710911 
L 265.394037 137.129527 
L 268.990519 134.571396 
L 272.587002 132.269078 
L 276.183485 130.35048 
L 279.779968 128.559788 
L 283.37645 128.687694 
L 286.972933 129.327227 
L 290.569416 130.094667 
L 294.165898 132.396985 
L 297.762381 132.908611 
L 301.358864 133.803957 
L 304.955346 135.083022 
L 308.551829 136.617901 
L 312.148312 138.664406 
L 315.744794 141.606257 
L 319.341277 144.292295 
L 322.93776 146.722519 
L 326.534242 150.04809 
L 330.130725 151.838782 
L 333.727208 153.501567 
L 337.32369 155.036446 
L 340.920173 156.955044 
L 344.516656 158.23411 
L 348.113139 159.385269 
L 351.709621 160.408521 
L 355.306104 161.048054 
L 362.499069 163.094559 
L 366.095552 163.861998 
L 369.692035 164.501531 
L 376.885 166.292223 
L 380.481483 166.803849 
L 384.077965 166.931756 
L 387.674448 166.548036 
L 391.270931 165.013157 
L 394.867413 162.32712 
L 398.463896 158.745736 
L 402.060379 155.675979 
L 405.656861 152.094595 
L 412.849827 147.617865 
L 416.44631 144.676014 
L 420.042792 141.47835 
L 423.639275 137.513247 
L 430.83224 125.106311 
L 434.428723 119.478422 
L 438.025206 115.897038 
L 441.621688 111.804029 
L 445.218171 108.734271 
L 448.814654 107.455206 
L 452.411136 106.048233 
L 456.007619 105.920327 
L 459.604102 106.815673 
L 463.200584 109.117991 
L 466.797067 111.036589 
L 473.990032 115.129599 
L 477.586515 116.792384 
L 481.182998 118.966796 
L 484.779481 120.757488 
L 488.375963 123.443526 
L 491.972446 127.152816 
L 495.568929 131.245826 
L 499.165411 134.699303 
L 502.761894 137.513247 
L 506.358377 139.687659 
L 509.954859 141.350444 
L 513.551342 142.757416 
L 517.147825 144.420201 
L 520.744307 146.210893 
L 524.34079 147.234146 
L 531.533755 150.303903 
L 535.130238 151.710875 
L 538.726721 152.606221 
L 542.323203 153.629474 
L 545.919686 155.292259 
L 549.516169 155.803885 
L 553.112652 155.803885 
L 556.709134 156.059698 
L 560.305617 156.059698 
L 563.9021 155.675979 
L 567.498582 154.269006 
L 571.095065 153.629474 
L 574.691548 149.792277 
L 578.28803 146.3388 
L 581.884513 142.117883 
L 592.673961 133.67605 
L 596.270444 130.222573 
L 599.866926 125.745844 
L 603.463409 119.734235 
L 607.059892 117.048198 
L 610.656374 113.722627 
L 614.252857 108.734271 
L 617.84934 106.55986 
L 621.445823 116.152852 
L 625.042305 120.117955 
L 628.638788 120.629581 
L 628.638788 120.629581 
" clip-path="url(#pf660e6af50)" style="fill: none; stroke: #1f77b4; stroke-width: 2; stroke-linecap: square"/>
   </g>
   <g id="line2d_16">
    <path d="M 74.780455 166.484083 
L 78.376937 165.550365 
L 81.97342 171.035425 
L 85.569903 168.168186 
L 89.166385 167.545707 
L 92.762868 150.367856 
L 96.359351 143.817213 
L 99.955833 142.224472 
L 103.552316 144.505472 
L 107.148799 151.018048 
L 110.745281 143.570536 
L 114.341764 140.802273 
L 117.938247 136.220477 
L 121.534729 140.85709 
L 125.131212 142.044794 
L 128.727695 145.114551 
L 132.324177 144.895283 
L 135.92066 148.27567 
L 139.517143 149.700915 
L 143.113626 152.7524 
L 146.710108 153.885287 
L 150.306591 157.22913 
L 153.903074 160.207525 
L 157.499556 162.920972 
L 161.096039 165.407536 
L 164.692522 167.731172 
L 168.289004 171.408485 
L 175.48197 176.442522 
L 179.078452 177.675907 
L 186.271418 181.047158 
L 189.8679 182.856122 
L 193.464383 184.217414 
L 197.060866 185.094487 
L 200.657348 186.346144 
L 204.253831 187.247581 
L 207.850314 187.268899 
L 211.446797 186.675047 
L 215.043279 185.825382 
L 222.236245 182.709944 
L 225.832727 180.544668 
L 229.42921 177.767269 
L 233.025693 174.597013 
L 236.622175 167.741831 
L 240.218658 166.383585 
L 243.815141 162.162668 
L 247.411623 158.416833 
L 251.008106 151.847918 
L 254.604589 150.733304 
L 261.797554 142.830505 
L 265.394037 135.13784 
L 268.990519 128.468426 
L 272.587002 124.009969 
L 276.183485 124.67691 
L 279.779968 128.020753 
L 283.37645 127.107135 
L 286.972933 120.857986 
L 290.569416 120.264134 
L 294.165898 121.598017 
L 297.762381 125.380396 
L 301.358864 125.636209 
L 304.955346 126.019929 
L 308.551829 127.463446 
L 312.148312 126.714279 
L 319.341277 132.451802 
L 322.93776 136.106275 
L 326.534242 150.201578 
L 330.130725 152.529477 
L 333.727208 144.825239 
L 337.32369 148.65939 
L 340.920173 151.93928 
L 344.516656 154.122827 
L 348.113139 156.479963 
L 351.709621 158.170156 
L 355.306104 158.905619 
L 362.499069 163.003197 
L 366.095552 164.428442 
L 369.692035 165.579601 
L 376.885 167.205841 
L 380.481483 167.589561 
L 384.077965 166.569354 
L 387.674448 166.438402 
L 391.270931 164.949204 
L 394.867413 162.838746 
L 398.463896 159.851214 
L 402.060379 157.73162 
L 405.656861 154.113691 
L 409.253344 150.121179 
L 416.44631 142.720871 
L 420.042792 140.66523 
L 423.639275 141.122039 
L 427.235758 134.580532 
L 430.83224 130.222573 
L 434.428723 127.591353 
L 438.025206 121.214297 
L 441.621688 116.015809 
L 445.218171 110.279809 
L 448.814654 110.26915 
L 452.411136 113.78658 
L 456.007619 107.199392 
L 459.604102 102.08313 
L 463.200584 104.811803 
L 466.797067 106.687766 
L 470.39355 111.804029 
L 477.586515 115.193552 
L 481.182998 116.536571 
L 484.779481 116.920291 
L 488.375963 118.391216 
L 491.972446 119.30788 
L 495.568929 121.823376 
L 499.165411 125.639255 
L 502.761894 130.695827 
L 506.358377 135.121394 
L 509.954859 136.703172 
L 513.551342 135.786509 
L 517.147825 139.708976 
L 520.744307 142.256449 
L 524.34079 142.778734 
L 527.937273 143.929893 
L 535.130238 144.81458 
L 538.726721 148.214763 
L 542.323203 149.749641 
L 545.919686 155.369003 
L 549.516169 153.139165 
L 553.112652 153.885287 
L 556.709134 155.675979 
L 560.305617 156.027722 
L 563.9021 157.568996 
L 567.498582 152.606221 
L 571.095065 153.693427 
L 574.691548 150.227159 
L 578.28803 149.600417 
L 581.884513 146.760891 
L 585.480996 145.411477 
L 592.673961 141.755481 
L 596.270444 140.263238 
L 599.866926 140.305874 
L 603.463409 138.046191 
L 607.059892 135.957051 
L 610.656374 135.615966 
L 614.252857 134.1557 
L 617.84934 134.102405 
L 621.445823 134.162095 
L 625.042305 136.131856 
L 628.638788 136.579529 
L 635.831753 136.873714 
L 639.428236 132.908611 
L 643.024719 127.280722 
L 646.621201 125.49003 
L 650.217684 122.931899 
L 653.814167 129.96676 
L 657.410649 128.431881 
L 661.007132 127.408629 
L 664.603615 123.699339 
L 668.200097 135.722555 
L 671.79658 140.966724 
L 678.989545 135.722555 
L 678.989545 135.722555 
" clip-path="url(#pf660e6af50)" style="fill: none; stroke-dasharray: 5.55,2.4; stroke-dashoffset: 0; stroke: #808080; stroke-width: 1.5"/>
   </g>
   <g id="patch_3">
    <path d="M 44.57 246.04 
L 44.57 26.88 
" style="fill: none; stroke: #000000; stroke-width: 0.8; stroke-linejoin: miter; stroke-linecap: square"/>
   </g>
   <g id="patch_4">
    <path d="M 709.2 246.04 
L 709.2 26.88 
" style="fill: none; stroke: #000000; stroke-width: 0.8; stroke-linejoin: miter; stroke-linecap: square"/>
   </g>
   <g id="patch_5">
    <path d="M 44.57 246.04 
L 709.2 246.04 
" style="fill: none; stroke: #000000; stroke-width: 0.8; stroke-linejoin: miter; stroke-linecap: square"/>
   </g>
   <g id="patch_6">
    <path d="M 44.57 26.88 
L 709.2 26.88 
" style="fill: none; stroke: #000000; stroke-width: 0.8; stroke-linejoin: miter; stroke-linecap: square"/>
   </g>
   <g id="text_17">
    <!-- Buiten temperatuur - v001/c00004/d001 -->
    <g transform="translate(254.91625 20.88) scale(0.12 -0.12)">
     <defs>
      <path id="DejaVuSans-76" d="M 191 3500 
L 800 3500 
L 1894 563 
L 2988 3500 
L 3597 3500 
L 2284 0 
L 1503 0 
L 191 3500 
z
" transform="scale(0.015625)"/>
      <path id="DejaVuSans-2f" d="M 1625 4666 
L 2156 4666 
L 531 -594 
L 0 -594 
L 1625 4666 
z
" transform="scale(0.015625)"/>
      <path id="DejaVuSans-63" d="M 3122 3366 
L 3122 2828 
Q 2878 2963 2633 3030 
Q 2388 3097 2138 3097 
Q 1578 3097 1268 2742 
Q 959 2388 959 1747 
Q 959 1106 1268 751 
Q 1578 397 2138 397 
Q 2388 397 2633 464 
Q 2878 531 3122 666 
L 3122 134 
Q 2881 22 2623 -34 
Q 2366 -91 2075 -91 
Q 1284 -91 818 406 
Q 353 903 353 1747 
Q 353 2603 823 3093 
Q 1294 3584 2113 3584 
Q 2378 3584 2631 3529 
Q 2884 3475 3122 3366 
z
" transform="scale(0.015625)"/>
     </defs>
     <use xlink:href="#DejaVuSans-42"/>
     <use xlink:href="#DejaVuSans-75" transform="translate(68.603516 0)"/>
     <use xlink:href="#DejaVuSans-69" transform="translate(131.982422 0)"/>
     <use xlink:href="#DejaVuSans-74" transform="translate(159.765625 0)"/>
     <use xlink:href="#DejaVuSans-65" transform="translate(198.974609 0)"/>
     <use xlink:href="#DejaVuSans-6e" transform="translate(260.498047 0)"/>
     <use xlink:href="#DejaVuSans-20" transform="translate(323.876953 0)"/>
     <use xlink:href="#DejaVuSans-74" transform="translate(355.664062 0)"/>
     <use xlink:href="#DejaVuSans-65" transform="translate(394.873047 0)"/>
     <use xlink:href="#DejaVuSans-6d" transform="translate(456.396484 0)"/>
     <use xlink:href="#DejaVuSans-70" transform="translate(553.808594 0)"/>
     <use xlink:href="#DejaVuSans-65" transform="translate(617.285156 0)"/>
     <use xlink:href="#DejaVuSans-72" transform="translate(678.808594 0)"/>
     <use xlink:href="#DejaVuSans-61" transform="translate(719.921875 0)"/>
     <use xlink:href="#DejaVuSans-74" transform="translate(781.201172 0)"/>
     <use xlink:href="#DejaVuSans-75" transform="translate(820.410156 0)"/>
     <use xlink:href="#DejaVuSans-75" transform="translate(883.789062 0)"/>
     <use xlink:href="#DejaVuSans-72" transform="translate(947.167969 0)"/>
     <use xlink:href="#DejaVuSans-20" transform="translate(988.28125 0)"/>
     <use xlink:href="#DejaVuSans-2d" transform="translate(1020.068359 0)"/>
     <use xlink:href="#DejaVuSans-20" transform="translate(1056.152344 0)"/>
     <use xlink:href="#DejaVuSans-76" transform="translate(1087.939453 0)"/>
     <use xlink:href="#DejaVuSans-30" transform="translate(1147.119141 0)"/>
     <use xlink:href="#DejaVuSans-30" transform="translate(1210.742188 0)"/>
     <use xlink:href="#DejaVuSans-31" transform="translate(1274.365234 0)"/>
     <use xlink:href="#DejaVuSans-2f" transform="translate(1337.988281 0)"/>
     <use xlink:href="#DejaVuSans-63" transform="translate(1371.679688 0)"/>
     <use xlink:href="#DejaVuSans-30" transform="translate(1426.660156 0)"/>
     <use xlink:href="#DejaVuSans-30" transform="translate(1490.283203 0)"/>
     <use xlink:href="#DejaVuSans-30" transform="translate(1553.90625 0)"/>
     <use xlink:href="#DejaVuSans-30" transform="translate(1617.529297 0)"/>
     <use xlink:href="#DejaVuSans-34" transform="translate(1681.152344 0)"/>
     <use xlink:href="#DejaVuSans-2f" transform="translate(1744.775391 0)"/>
     <use xlink:href="#DejaVuSans-64" transform="translate(1778.466797 0)"/>
     <use xlink:href="#DejaVuSans-30" transform="translate(1841.943359 0)"/>
     <use xlink:href="#DejaVuSans-30" transform="translate(1905.566406 0)"/>
     <use xlink:href="#DejaVuSans-31" transform="translate(1969.189453 0)"/>
    </g>
   </g>
   <g id="legend_1">
    <g id="patch_7">
     <path d="M 551.25625 78.914375 
L 702.2 78.914375 
Q 704.2 78.914375 704.2 76.914375 
L 704.2 33.88 
Q 704.2 31.88 702.2 31.88 
L 551.25625 31.88 
Q 549.25625 31.88 549.25625 33.88 
L 549.25625 76.914375 
Q 549.25625 78.914375 551.25625 78.914375 
z
" style="fill: #ffffff; opacity: 0.8; stroke: #cccccc; stroke-linejoin: miter"/>
    </g>
    <g id="line2d_17">
     <path d="M 553.25625 39.978438 
L 563.25625 39.978438 
L 573.25625 39.978438 
" style="fill: none; stroke: #1f77b4; stroke-width: 2; stroke-linecap: square"/>
    </g>
    <g id="text_18">
     <!-- Hive -->
     <g transform="translate(581.25625 43.478438) scale(0.1 -0.1)">
      <defs>
       <path id="DejaVuSans-48" d="M 628 4666 
L 1259 4666 
L 1259 2753 
L 3553 2753 
L 3553 4666 
L 4184 4666 
L 4184 0 
L 3553 0 
L 3553 2222 
L 1259 2222 
L 1259 0 
L 628 0 
L 628 4666 
z
" transform="scale(0.015625)"/>
      </defs>
      <use xlink:href="#DejaVuSans-48"/>
      <use xlink:href="#DejaVuSans-69" transform="translate(75.195312 0)"/>
      <use xlink:href="#DejaVuSans-76" transform="translate(102.978516 0)"/>
      <use xlink:href="#DejaVuSans-65" transform="translate(162.158203 0)"/>
     </g>
    </g>
    <g id="line2d_18">
     <path d="M 553.25625 54.656563 
L 563.25625 54.656563 
L 573.25625 54.656563 
" style="fill: none; stroke-dasharray: 5.55,2.4; stroke-dashoffset: 0; stroke: #808080; stroke-width: 1.5"/>
    </g>
    <g id="text_19">
     <!-- Gemiddelde (alle hives) -->
     <g transform="translate(581.25625 58.156563) scale(0.1 -0.1)">
      <defs>
       <path id="DejaVuSans-47" d="M 3809 666 
L 3809 1919 
L 2778 1919 
L 2778 2438 
L 4434 2438 
L 4434 434 
Q 4069 175 3628 42 
Q 3188 -91 2688 -91 
Q 1594 -91 976 548 
Q 359 1188 359 2328 
Q 359 3472 976 4111 
Q 1594 4750 2688 4750 
Q 3144 4750 3555 4637 
Q 3966 4525 4313 4306 
L 4313 3634 
Q 3963 3931 3569 4081 
Q 3175 4231 2741 4231 
Q 1884 4231 1454 3753 
Q 1025 3275 1025 2328 
Q 1025 1384 1454 906 
Q 1884 428 2741 428 
Q 3075 428 3337 486 
Q 3600 544 3809 666 
z
" transform="scale(0.015625)"/>
       <path id="DejaVuSans-6c" d="M 603 4863 
L 1178 4863 
L 1178 0 
L 603 0 
L 603 4863 
z
" transform="scale(0.015625)"/>
       <path id="DejaVuSans-68" d="M 3513 2113 
L 3513 0 
L 2938 0 
L 2938 2094 
Q 2938 2591 2744 2837 
Q 2550 3084 2163 3084 
Q 1697 3084 1428 2787 
Q 1159 2491 1159 1978 
L 1159 0 
L 581 0 
L 581 4863 
L 1159 4863 
L 1159 2956 
Q 1366 3272 1645 3428 
Q 1925 3584 2291 3584 
Q 2894 3584 3203 3211 
Q 3513 2838 3513 2113 
z
" transform="scale(0.015625)"/>
       <path id="DejaVuSans-73" d="M 2834 3397 
L 2834 2853 
Q 2591 2978 2328 3040 
Q 2066 3103 1784 3103 
Q 1356 3103 1142 2972 
Q 928 2841 928 2578 
Q 928 2378 1081 2264 
Q 1234 2150 1697 2047 
L 1894 2003 
Q 2506 1872 2764 1633 
Q 3022 1394 3022 966 
Q 3022 478 2636 193 
Q 2250 -91 1575 -91 
Q 1294 -91 989 -36 
Q 684 19 347 128 
L 347 722 
Q 666 556 975 473 
Q 1284 391 1588 391 
Q 1994 391 2212 530 
Q 2431 669 2431 922 
Q 2431 1156 2273 1281 
Q 2116 1406 1581 1522 
L 1381 1569 
Q 847 1681 609 1914 
Q 372 2147 372 2553 
Q 372 3047 722 3315 
Q 1072 3584 1716 3584 
Q 2034 3584 2315 3537 
Q 2597 3491 2834 3397 
z
" transform="scale(0.015625)"/>
      </defs>
      <use xlink:href="#DejaVuSans-47"/>
      <use xlink:href="#DejaVuSans-65" transform="translate(77.490234 0)"/>
      <use xlink:href="#DejaVuSans-6d" transform="translate(139.013672 0)"/>
      <use xlink:href="#DejaVuSans-69" transform="translate(236.425781 0)"/>
      <use xlink:href="#DejaVuSans-64" transform="translate(264.208984 0)"/>
      <use xlink:href="#DejaVuSans-64" transform="translate(327.685547 0)"/>
      <use xlink:href="#DejaVuSans-65" transform="translate(391.162109 0)"/>
      <use xlink:href="#DejaVuSans-6c" transform="translate(452.685547 0)"/>
      <use xlink:href="#DejaVuSans-64" transform="translate(480.46875 0)"/>
      <use xlink:href="#DejaVuSans-65" transform="translate(543.945312 0)"/>
      <use xlink:href="#DejaVuSans-20" transform="translate(605.46875 0)"/>
      <use xlink:href="#DejaVuSans-28" transform="translate(637.255859 0)"/>
      <use xlink:href="#DejaVuSans-61" transform="translate(676.269531 0)"/>
      <use xlink:href="#DejaVuSans-6c" transform="translate(737.548828 0)"/>
      <use xlink:href="#DejaVuSans-6c" transform="translate(765.332031 0)"/>
      <use xlink:href="#DejaVuSans-65" transform="translate(793.115234 0)"/>
      <use xlink:href="#DejaVuSans-20" transform="translate(854.638672 0)"/>
      <use xlink:href="#DejaVuSans-68" transform="translate(886.425781 0)"/>
      <use xlink:href="#DejaVuSans-69" transform="translate(949.804688 0)"/>
      <use xlink:href="#DejaVuSans-76" transform="translate(977.587891 0)"/>
      <use xlink:href="#DejaVuSans-65" transform="translate(1036.767578 0)"/>
      <use xlink:href="#DejaVuSans-73" transform="translate(1098.291016 0)"/>
      <use xlink:href="#DejaVuSans-29" transform="translate(1150.390625 0)"/>
     </g>
    </g>
    <g id="patch_8">
     <path d="M 553.25625 72.834688 
L 573.25625 72.834688 
L 573.25625 65.834688 
L 553.25625 65.834688 
z
" style="fill: #808080; fill-opacity: 0.2; stroke: #808080; stroke-opacity: 0.2; stroke-linejoin: miter"/>
    </g>
    <g id="text_20">
     <!-- ±2 Std Dev -->
     <g transform="translate(581.25625 72.834688) scale(0.1 -0.1)">
      <defs>
       <path id="DejaVuSans-b1" d="M 2944 4013 
L 2944 2803 
L 4684 2803 
L 4684 2272 
L 2944 2272 
L 2944 1063 
L 2419 1063 
L 2419 2272 
L 678 2272 
L 678 2803 
L 2419 2803 
L 2419 4013 
L 2944 4013 
z
M 678 531 
L 4684 531 
L 4684 0 
L 678 0 
L 678 531 
z
" transform="scale(0.015625)"/>
       <path id="DejaVuSans-53" d="M 3425 4513 
L 3425 3897 
Q 3066 4069 2747 4153 
Q 2428 4238 2131 4238 
Q 1616 4238 1336 4038 
Q 1056 3838 1056 3469 
Q 1056 3159 1242 3001 
Q 1428 2844 1947 2747 
L 2328 2669 
Q 3034 2534 3370 2195 
Q 3706 1856 3706 1288 
Q 3706 609 3251 259 
Q 2797 -91 1919 -91 
Q 1588 -91 1214 -16 
Q 841 59 441 206 
L 441 856 
Q 825 641 1194 531 
Q 1563 422 1919 422 
Q 2459 422 2753 634 
Q 3047 847 3047 1241 
Q 3047 1584 2836 1778 
Q 2625 1972 2144 2069 
L 1759 2144 
Q 1053 2284 737 2584 
Q 422 2884 422 3419 
Q 422 4038 858 4394 
Q 1294 4750 2059 4750 
Q 2388 4750 2728 4690 
Q 3069 4631 3425 4513 
z
" transform="scale(0.015625)"/>
       <path id="DejaVuSans-44" d="M 1259 4147 
L 1259 519 
L 2022 519 
Q 2988 519 3436 956 
Q 3884 1394 3884 2338 
Q 3884 3275 3436 3711 
Q 2988 4147 2022 4147 
L 1259 4147 
z
M 628 4666 
L 1925 4666 
Q 3281 4666 3915 4102 
Q 4550 3538 4550 2338 
Q 4550 1131 3912 565 
Q 3275 0 1925 0 
L 628 0 
L 628 4666 
z
" transform="scale(0.015625)"/>
      </defs>
      <use xlink:href="#DejaVuSans-b1"/>
      <use xlink:href="#DejaVuSans-32" transform="translate(83.789062 0)"/>
      <use xlink:href="#DejaVuSans-20" transform="translate(147.412109 0)"/>
      <use xlink:href="#DejaVuSans-53" transform="translate(179.199219 0)"/>
      <use xlink:href="#DejaVuSans-74" transform="translate(242.675781 0)"/>
      <use xlink:href="#DejaVuSans-64" transform="translate(281.884766 0)"/>
      <use xlink:href="#DejaVuSans-20" transform="translate(345.361328 0)"/>
      <use xlink:href="#DejaVuSans-44" transform="translate(377.148438 0)"/>
      <use xlink:href="#DejaVuSans-65" transform="translate(454.150391 0)"/>
      <use xlink:href="#DejaVuSans-76" transform="translate(515.673828 0)"/>
     </g>
    </g>
   </g>
  </g>
 </g>
 <defs>
  <clipPath id="pf660e6af50">
   <rect x="44.57" y="26.88" width="664.63" height="219.16"/>
  </clipPath>
 </defs>
</svg>
