<?xml version="1.0" encoding="utf-8" standalone="no"?>
<!DOCTYPE svg PUBLIC "-//W3C//DTD SVG 1.1//EN"
  "http://www.w3.org/Graphics/SVG/1.1/DTD/svg11.dtd">
<svg xmlns:xlink="http://www.w3.org/1999/xlink" width="720pt" height="288pt" viewBox="0 0 720 288" xmlns="http://www.w3.org/2000/svg" version="1.1">
 <metadata>
  <rdf:RDF xmlns:dc="http://purl.org/dc/elements/1.1/" xmlns:cc="http://creativecommons.org/ns#" xmlns:rdf="http://www.w3.org/1999/02/22-rdf-syntax-ns#">
   <cc:Work>
    <dc:type rdf:resource="http://purl.org/dc/dcmitype/StillImage"/>
    <dc:date>2025-06-02T03:18:22.029503</dc:date>
    <dc:format>image/svg+xml</dc:format>
    <dc:creator>
     <cc:Agent>
      <dc:title>Matplotlib v3.10.3, https://matplotlib.org/</dc:title>
     </cc:Agent>
    </dc:creator>
   </cc:Work>
  </rdf:RDF>
 </metadata>
 <defs>
  <style type="text/css">*{stroke-linejoin: round; stroke-linecap: butt}</style>
 </defs>
 <g id="figure_1">
  <g id="patch_1">
   <path d="M 0 288 
L 720 288 
L 720 0 
L 0 0 
z
" style="fill: #ffffff"/>
  </g>
  <g id="axes_1">
   <g id="patch_2">
    <path d="M 44.57 246.04 
L 709.092874 246.04 
L 709.092874 26.88 
L 44.57 26.88 
z
" style="fill: #ffffff"/>
   </g>
   <g id="FillBetweenPolyCollection_1">
    <defs>
     <path id="m5f6b1dab8b" d="M 74.775585 -192.64598 
L 74.775585 -140.999584 
L 78.527832 -141.350946 
L 82.280078 -138.671189 
L 86.032325 -136.391487 
L 89.784572 -142.551379 
L 93.536818 -128.175769 
L 97.289065 -131.756257 
L 101.041311 -128.881384 
L 104.793558 -129.63683 
L 108.545805 -134.311653 
L 112.298051 -137.068418 
L 116.050298 -138.63273 
L 119.802544 -132.005904 
L 123.554791 -135.664354 
L 127.307038 -130.678387 
L 131.059284 -128.813331 
L 134.811531 -114.956707 
L 138.563778 -120.966528 
L 142.316024 -114.691194 
L 146.068271 -126.486717 
L 149.820517 -143.820323 
L 153.572764 -143.949412 
L 157.325011 -153.059979 
L 161.077257 -166.158757 
L 164.829504 -160.625291 
L 168.58175 -153.169561 
L 172.333997 -135.203407 
L 176.086244 -121.498906 
L 179.83849 -122.943034 
L 183.590737 -104.292637 
L 187.342983 -102.406336 
L 191.09523 -119.960425 
L 194.847477 -103.394121 
L 198.599723 -81.799147 
L 202.35197 -87.781343 
L 206.104216 -81.569061 
L 209.856463 -90.572619 
L 213.60871 -92.671087 
L 217.360956 -88.534991 
L 221.113203 -97.1963 
L 224.865449 -100.472468 
L 228.617696 -109.673827 
L 232.369943 -102.124138 
L 236.122189 -116.373237 
L 239.874436 -113.116761 
L 243.626682 -112.300042 
L 247.378929 -119.05405 
L 251.131176 -121.154606 
L 254.883422 -105.20284 
L 258.635669 -109.149848 
L 262.387916 -103.762715 
L 266.140162 -112.258614 
L 269.892409 -107.712103 
L 273.644655 -115.502724 
L 277.396902 -105.873532 
L 281.149149 -100.98393 
L 284.901395 -109.028676 
L 288.653642 -107.553156 
L 292.405888 -101.138457 
L 296.158135 -97.386049 
L 299.910382 -105.846592 
L 303.662628 -105.885157 
L 307.414875 -115.351558 
L 311.167121 -107.89383 
L 314.919368 -125.808067 
L 318.671615 -125.571063 
L 322.423861 -120.917642 
L 326.176108 -120.00778 
L 329.928354 -123.902524 
L 333.680601 -125.967448 
L 337.432848 -119.728779 
L 341.185094 -127.690465 
L 344.937341 -134.739045 
L 348.689587 -128.630678 
L 352.441834 -118.684898 
L 356.194081 -118.37831 
L 359.946327 -116.51748 
L 363.698574 -116.879683 
L 367.450821 -117.205922 
L 371.203067 -117.272709 
L 374.955314 -105.688936 
L 378.70756 -94.93488 
L 382.459807 -87.619715 
L 386.212054 -88.071314 
L 389.9643 -87.526544 
L 393.716547 -86.841093 
L 397.468793 -82.866553 
L 401.22104 -80.119072 
L 404.973287 -86.873882 
L 408.725533 -102.106811 
L 412.47778 -113.774127 
L 416.230026 -107.663735 
L 419.982273 -110.279849 
L 423.73452 -98.233539 
L 427.486766 -98.277143 
L 431.239013 -93.781425 
L 434.991259 -87.879055 
L 438.743506 -106.722189 
L 442.495753 -105.340253 
L 446.247999 -98.581178 
L 450.000246 -105.608499 
L 453.752492 -90.769142 
L 457.504739 -83.599678 
L 461.256986 -86.563372 
L 465.009232 -93.588428 
L 468.761479 -86.055754 
L 472.513726 -80.583081 
L 476.265972 -88.627564 
L 480.018219 -91.413813 
L 483.770465 -96.805105 
L 487.522712 -103.544964 
L 491.274959 -98.022086 
L 495.027205 -96.742374 
L 498.779452 -95.842512 
L 502.531698 -92.322621 
L 506.283945 -97.689113 
L 510.036192 -101.998919 
L 513.788438 -103.669446 
L 517.540685 -92.128766 
L 521.292931 -86.864594 
L 525.045178 -86.365476 
L 528.797425 -84.682732 
L 532.549671 -95.542001 
L 536.301918 -77.634928 
L 540.054164 -89.898411 
L 543.806411 -75.4387 
L 547.558658 -80.770535 
L 551.310904 -74.808239 
L 555.063151 -63.519716 
L 558.815397 -69.026531 
L 562.567644 -58.944815 
L 566.319891 -51.921818 
L 570.072137 -61.527123 
L 573.824384 -66.247532 
L 577.576631 -62.353117 
L 581.328877 -79.121083 
L 585.081124 -84.247975 
L 588.83337 -89.828392 
L 592.585617 -98.846912 
L 596.337864 -99.562756 
L 600.09011 -88.883167 
L 603.842357 -115.104962 
L 607.594603 -95.602409 
L 611.34685 -100.364457 
L 615.099097 -108.509994 
L 618.851343 -105.150069 
L 622.60359 -105.173764 
L 626.355836 -107.681089 
L 630.108083 -109.968765 
L 633.86033 -116.480708 
L 637.612576 -114.773026 
L 641.364823 -118.43174 
L 645.117069 -116.138921 
L 648.869316 -116.103139 
L 652.621563 -120.088776 
L 656.373809 -149.701555 
L 656.373809 -158.846905 
L 656.373809 -158.846905 
L 652.621563 -159.718623 
L 648.869316 -174.362403 
L 645.117069 -199.075867 
L 641.364823 -192.631563 
L 637.612576 -188.817601 
L 633.86033 -186.576156 
L 630.108083 -180.051975 
L 626.355836 -184.18729 
L 622.60359 -176.66946 
L 618.851343 -189.48977 
L 615.099097 -189.175029 
L 611.34685 -190.203732 
L 607.594603 -186.320651 
L 603.842357 -189.867973 
L 600.09011 -197.887096 
L 596.337864 -198.703931 
L 592.585617 -201.814863 
L 588.83337 -207.822416 
L 585.081124 -205.464825 
L 581.328877 -205.80154 
L 577.576631 -215.31581 
L 573.824384 -213.405897 
L 570.072137 -223.190207 
L 566.319891 -230.742579 
L 562.567644 -224.540755 
L 558.815397 -227.392516 
L 555.063151 -238.989699 
L 551.310904 -232.867724 
L 547.558658 -236.177842 
L 543.806411 -235.658818 
L 540.054164 -230.060934 
L 536.301918 -233.188866 
L 532.549671 -228.283701 
L 528.797425 -240.203652 
L 525.045178 -231.096134 
L 521.292931 -225.396252 
L 517.540685 -232.962911 
L 513.788438 -218.411263 
L 510.036192 -217.652486 
L 506.283945 -208.943276 
L 502.531698 -220.656752 
L 498.779452 -215.494515 
L 495.027205 -215.689551 
L 491.274959 -214.991503 
L 487.522712 -211.487342 
L 483.770465 -211.589385 
L 480.018219 -215.543623 
L 476.265972 -218.295657 
L 472.513726 -215.083225 
L 468.761479 -203.93077 
L 465.009232 -205.123062 
L 461.256986 -212.866644 
L 457.504739 -211.929765 
L 453.752492 -205.444613 
L 450.000246 -194.711121 
L 446.247999 -190.447311 
L 442.495753 -197.511318 
L 438.743506 -195.37664 
L 434.991259 -215.519965 
L 431.239013 -211.738958 
L 427.486766 -204.243678 
L 423.73452 -217.524137 
L 419.982273 -210.323889 
L 416.230026 -209.946143 
L 412.47778 -202.398697 
L 408.725533 -219.905467 
L 404.973287 -230.074494 
L 401.22104 -236.144994 
L 397.468793 -243.662177 
L 393.716547 -229.970421 
L 389.9643 -246.187452 
L 386.212054 -247.011303 
L 382.459807 -251.158182 
L 378.70756 -242.850766 
L 374.955314 -245.406558 
L 371.203067 -232.283086 
L 367.450821 -240.116802 
L 363.698574 -238.937557 
L 359.946327 -243.234547 
L 356.194081 -237.952163 
L 352.441834 -244.283392 
L 348.689587 -231.566152 
L 344.937341 -236.817347 
L 341.185094 -234.593513 
L 337.432848 -237.32022 
L 333.680601 -232.997622 
L 329.928354 -230.614525 
L 326.176108 -230.19811 
L 322.423861 -216.35477 
L 318.671615 -221.38435 
L 314.919368 -215.022763 
L 311.167121 -218.292745 
L 307.414875 -212.443147 
L 303.662628 -217.29045 
L 299.910382 -216.74735 
L 296.158135 -221.478398 
L 292.405888 -204.176633 
L 288.653642 -208.642479 
L 284.901395 -203.676973 
L 281.149149 -213.843082 
L 277.396902 -209.090343 
L 273.644655 -197.23714 
L 269.892409 -198.253082 
L 266.140162 -196.683324 
L 262.387916 -199.97846 
L 258.635669 -202.597766 
L 254.883422 -206.544774 
L 251.131176 -190.387714 
L 247.378929 -200.631571 
L 243.626682 -203.074419 
L 239.874436 -205.200238 
L 236.122189 -212.276857 
L 232.369943 -219.27226 
L 228.617696 -204.879462 
L 224.865449 -218.186686 
L 221.113203 -222.078734 
L 217.360956 -233.68258 
L 213.60871 -231.530986 
L 209.856463 -234.040041 
L 206.104216 -239.211457 
L 202.35197 -239.910716 
L 198.599723 -236.073049 
L 194.847477 -224.571663 
L 191.09523 -218.098945 
L 187.342983 -226.517483 
L 183.590737 -228.326461 
L 179.83849 -213.508206 
L 176.086244 -220.255743 
L 172.333997 -211.991514 
L 168.58175 -202.613463 
L 164.829504 -208.39915 
L 161.077257 -207.998017 
L 157.325011 -222.807572 
L 153.572764 -210.77293 
L 149.820517 -206.727722 
L 146.068271 -210.922557 
L 142.316024 -214.780073 
L 138.563778 -200.498301 
L 134.811531 -214.240835 
L 131.059284 -201.273817 
L 127.307038 -196.329361 
L 123.554791 -185.868906 
L 119.802544 -193.18842 
L 116.050298 -186.031253 
L 112.298051 -186.85993 
L 108.545805 -195.022752 
L 104.793558 -190.04879 
L 101.041311 -192.583445 
L 97.289065 -190.632392 
L 93.536818 -192.741612 
L 89.784572 -179.324037 
L 86.032325 -190.54783 
L 82.280078 -185.873039 
L 78.527832 -186.272682 
L 74.775585 -192.64598 
z
" style="stroke: #808080; stroke-opacity: 0.2"/>
    </defs>
    <g clip-path="url(#pce8114a1fe)">
     <use xlink:href="#m5f6b1dab8b" x="0" y="288" style="fill: #808080; fill-opacity: 0.2; stroke: #808080; stroke-opacity: 0.2"/>
    </g>
   </g>
   <g id="matplotlib.axis_1">
    <g id="xtick_1">
     <g id="line2d_1">
      <defs>
       <path id="m1f8cc9f450" d="M 0 0 
L 0 3.5 
" style="stroke: #000000; stroke-width: 0.8"/>
      </defs>
      <g>
       <use xlink:href="#m1f8cc9f450" x="52.262106" y="246.04" style="stroke: #000000; stroke-width: 0.8"/>
      </g>
     </g>
     <g id="text_1">
      <!-- 05-30 00 -->
      <g transform="translate(29.781637 260.638438) scale(0.1 -0.1)">
       <defs>
        <path id="DejaVuSans-30" d="M 2034 4250 
Q 1547 4250 1301 3770 
Q 1056 3291 1056 2328 
Q 1056 1369 1301 889 
Q 1547 409 2034 409 
Q 2525 409 2770 889 
Q 3016 1369 3016 2328 
Q 3016 3291 2770 3770 
Q 2525 4250 2034 4250 
z
M 2034 4750 
Q 2819 4750 3233 4129 
Q 3647 3509 3647 2328 
Q 3647 1150 3233 529 
Q 2819 -91 2034 -91 
Q 1250 -91 836 529 
Q 422 1150 422 2328 
Q 422 3509 836 4129 
Q 1250 4750 2034 4750 
z
" transform="scale(0.015625)"/>
        <path id="DejaVuSans-35" d="M 691 4666 
L 3169 4666 
L 3169 4134 
L 1269 4134 
L 1269 2991 
Q 1406 3038 1543 3061 
Q 1681 3084 1819 3084 
Q 2600 3084 3056 2656 
Q 3513 2228 3513 1497 
Q 3513 744 3044 326 
Q 2575 -91 1722 -91 
Q 1428 -91 1123 -41 
Q 819 9 494 109 
L 494 744 
Q 775 591 1075 516 
Q 1375 441 1709 441 
Q 2250 441 2565 725 
Q 2881 1009 2881 1497 
Q 2881 1984 2565 2268 
Q 2250 2553 1709 2553 
Q 1456 2553 1204 2497 
Q 953 2441 691 2322 
L 691 4666 
z
" transform="scale(0.015625)"/>
        <path id="DejaVuSans-2d" d="M 313 2009 
L 1997 2009 
L 1997 1497 
L 313 1497 
L 313 2009 
z
" transform="scale(0.015625)"/>
        <path id="DejaVuSans-33" d="M 2597 2516 
Q 3050 2419 3304 2112 
Q 3559 1806 3559 1356 
Q 3559 666 3084 287 
Q 2609 -91 1734 -91 
Q 1441 -91 1130 -33 
Q 819 25 488 141 
L 488 750 
Q 750 597 1062 519 
Q 1375 441 1716 441 
Q 2309 441 2620 675 
Q 2931 909 2931 1356 
Q 2931 1769 2642 2001 
Q 2353 2234 1838 2234 
L 1294 2234 
L 1294 2753 
L 1863 2753 
Q 2328 2753 2575 2939 
Q 2822 3125 2822 3475 
Q 2822 3834 2567 4026 
Q 2313 4219 1838 4219 
Q 1578 4219 1281 4162 
Q 984 4106 628 3988 
L 628 4550 
Q 988 4650 1302 4700 
Q 1616 4750 1894 4750 
Q 2613 4750 3031 4423 
Q 3450 4097 3450 3541 
Q 3450 3153 3228 2886 
Q 3006 2619 2597 2516 
z
" transform="scale(0.015625)"/>
        <path id="DejaVuSans-20" transform="scale(0.015625)"/>
       </defs>
       <use xlink:href="#DejaVuSans-30"/>
       <use xlink:href="#DejaVuSans-35" transform="translate(63.623047 0)"/>
       <use xlink:href="#DejaVuSans-2d" transform="translate(127.246094 0)"/>
       <use xlink:href="#DejaVuSans-33" transform="translate(163.330078 0)"/>
       <use xlink:href="#DejaVuSans-30" transform="translate(226.953125 0)"/>
       <use xlink:href="#DejaVuSans-20" transform="translate(290.576172 0)"/>
       <use xlink:href="#DejaVuSans-30" transform="translate(322.363281 0)"/>
       <use xlink:href="#DejaVuSans-30" transform="translate(385.986328 0)"/>
      </g>
     </g>
    </g>
    <g id="xtick_2">
     <g id="line2d_2">
      <g>
       <use xlink:href="#m1f8cc9f450" x="142.316024" y="246.04" style="stroke: #000000; stroke-width: 0.8"/>
      </g>
     </g>
     <g id="text_2">
      <!-- 05-30 12 -->
      <g transform="translate(119.835555 260.638438) scale(0.1 -0.1)">
       <defs>
        <path id="DejaVuSans-31" d="M 794 531 
L 1825 531 
L 1825 4091 
L 703 3866 
L 703 4441 
L 1819 4666 
L 2450 4666 
L 2450 531 
L 3481 531 
L 3481 0 
L 794 0 
L 794 531 
z
" transform="scale(0.015625)"/>
        <path id="DejaVuSans-32" d="M 1228 531 
L 3431 531 
L 3431 0 
L 469 0 
L 469 531 
Q 828 903 1448 1529 
Q 2069 2156 2228 2338 
Q 2531 2678 2651 2914 
Q 2772 3150 2772 3378 
Q 2772 3750 2511 3984 
Q 2250 4219 1831 4219 
Q 1534 4219 1204 4116 
Q 875 4013 500 3803 
L 500 4441 
Q 881 4594 1212 4672 
Q 1544 4750 1819 4750 
Q 2544 4750 2975 4387 
Q 3406 4025 3406 3419 
Q 3406 3131 3298 2873 
Q 3191 2616 2906 2266 
Q 2828 2175 2409 1742 
Q 1991 1309 1228 531 
z
" transform="scale(0.015625)"/>
       </defs>
       <use xlink:href="#DejaVuSans-30"/>
       <use xlink:href="#DejaVuSans-35" transform="translate(63.623047 0)"/>
       <use xlink:href="#DejaVuSans-2d" transform="translate(127.246094 0)"/>
       <use xlink:href="#DejaVuSans-33" transform="translate(163.330078 0)"/>
       <use xlink:href="#DejaVuSans-30" transform="translate(226.953125 0)"/>
       <use xlink:href="#DejaVuSans-20" transform="translate(290.576172 0)"/>
       <use xlink:href="#DejaVuSans-31" transform="translate(322.363281 0)"/>
       <use xlink:href="#DejaVuSans-32" transform="translate(385.986328 0)"/>
      </g>
     </g>
    </g>
    <g id="xtick_3">
     <g id="line2d_3">
      <g>
       <use xlink:href="#m1f8cc9f450" x="232.369943" y="246.04" style="stroke: #000000; stroke-width: 0.8"/>
      </g>
     </g>
     <g id="text_3">
      <!-- 05-31 00 -->
      <g transform="translate(209.889474 260.638438) scale(0.1 -0.1)">
       <use xlink:href="#DejaVuSans-30"/>
       <use xlink:href="#DejaVuSans-35" transform="translate(63.623047 0)"/>
       <use xlink:href="#DejaVuSans-2d" transform="translate(127.246094 0)"/>
       <use xlink:href="#DejaVuSans-33" transform="translate(163.330078 0)"/>
       <use xlink:href="#DejaVuSans-31" transform="translate(226.953125 0)"/>
       <use xlink:href="#DejaVuSans-20" transform="translate(290.576172 0)"/>
       <use xlink:href="#DejaVuSans-30" transform="translate(322.363281 0)"/>
       <use xlink:href="#DejaVuSans-30" transform="translate(385.986328 0)"/>
      </g>
     </g>
    </g>
    <g id="xtick_4">
     <g id="line2d_4">
      <g>
       <use xlink:href="#m1f8cc9f450" x="322.423861" y="246.04" style="stroke: #000000; stroke-width: 0.8"/>
      </g>
     </g>
     <g id="text_4">
      <!-- 05-31 12 -->
      <g transform="translate(299.943392 260.638438) scale(0.1 -0.1)">
       <use xlink:href="#DejaVuSans-30"/>
       <use xlink:href="#DejaVuSans-35" transform="translate(63.623047 0)"/>
       <use xlink:href="#DejaVuSans-2d" transform="translate(127.246094 0)"/>
       <use xlink:href="#DejaVuSans-33" transform="translate(163.330078 0)"/>
       <use xlink:href="#DejaVuSans-31" transform="translate(226.953125 0)"/>
       <use xlink:href="#DejaVuSans-20" transform="translate(290.576172 0)"/>
       <use xlink:href="#DejaVuSans-31" transform="translate(322.363281 0)"/>
       <use xlink:href="#DejaVuSans-32" transform="translate(385.986328 0)"/>
      </g>
     </g>
    </g>
    <g id="xtick_5">
     <g id="line2d_5">
      <g>
       <use xlink:href="#m1f8cc9f450" x="412.47778" y="246.04" style="stroke: #000000; stroke-width: 0.8"/>
      </g>
     </g>
     <g id="text_5">
      <!-- 06-01 00 -->
      <g transform="translate(389.997311 260.638438) scale(0.1 -0.1)">
       <defs>
        <path id="DejaVuSans-36" d="M 2113 2584 
Q 1688 2584 1439 2293 
Q 1191 2003 1191 1497 
Q 1191 994 1439 701 
Q 1688 409 2113 409 
Q 2538 409 2786 701 
Q 3034 994 3034 1497 
Q 3034 2003 2786 2293 
Q 2538 2584 2113 2584 
z
M 3366 4563 
L 3366 3988 
Q 3128 4100 2886 4159 
Q 2644 4219 2406 4219 
Q 1781 4219 1451 3797 
Q 1122 3375 1075 2522 
Q 1259 2794 1537 2939 
Q 1816 3084 2150 3084 
Q 2853 3084 3261 2657 
Q 3669 2231 3669 1497 
Q 3669 778 3244 343 
Q 2819 -91 2113 -91 
Q 1303 -91 875 529 
Q 447 1150 447 2328 
Q 447 3434 972 4092 
Q 1497 4750 2381 4750 
Q 2619 4750 2861 4703 
Q 3103 4656 3366 4563 
z
" transform="scale(0.015625)"/>
       </defs>
       <use xlink:href="#DejaVuSans-30"/>
       <use xlink:href="#DejaVuSans-36" transform="translate(63.623047 0)"/>
       <use xlink:href="#DejaVuSans-2d" transform="translate(127.246094 0)"/>
       <use xlink:href="#DejaVuSans-30" transform="translate(163.330078 0)"/>
       <use xlink:href="#DejaVuSans-31" transform="translate(226.953125 0)"/>
       <use xlink:href="#DejaVuSans-20" transform="translate(290.576172 0)"/>
       <use xlink:href="#DejaVuSans-30" transform="translate(322.363281 0)"/>
       <use xlink:href="#DejaVuSans-30" transform="translate(385.986328 0)"/>
      </g>
     </g>
    </g>
    <g id="xtick_6">
     <g id="line2d_6">
      <g>
       <use xlink:href="#m1f8cc9f450" x="502.531698" y="246.04" style="stroke: #000000; stroke-width: 0.8"/>
      </g>
     </g>
     <g id="text_6">
      <!-- 06-01 12 -->
      <g transform="translate(480.05123 260.638438) scale(0.1 -0.1)">
       <use xlink:href="#DejaVuSans-30"/>
       <use xlink:href="#DejaVuSans-36" transform="translate(63.623047 0)"/>
       <use xlink:href="#DejaVuSans-2d" transform="translate(127.246094 0)"/>
       <use xlink:href="#DejaVuSans-30" transform="translate(163.330078 0)"/>
       <use xlink:href="#DejaVuSans-31" transform="translate(226.953125 0)"/>
       <use xlink:href="#DejaVuSans-20" transform="translate(290.576172 0)"/>
       <use xlink:href="#DejaVuSans-31" transform="translate(322.363281 0)"/>
       <use xlink:href="#DejaVuSans-32" transform="translate(385.986328 0)"/>
      </g>
     </g>
    </g>
    <g id="xtick_7">
     <g id="line2d_7">
      <g>
       <use xlink:href="#m1f8cc9f450" x="592.585617" y="246.04" style="stroke: #000000; stroke-width: 0.8"/>
      </g>
     </g>
     <g id="text_7">
      <!-- 06-02 00 -->
      <g transform="translate(570.105148 260.638438) scale(0.1 -0.1)">
       <use xlink:href="#DejaVuSans-30"/>
       <use xlink:href="#DejaVuSans-36" transform="translate(63.623047 0)"/>
       <use xlink:href="#DejaVuSans-2d" transform="translate(127.246094 0)"/>
       <use xlink:href="#DejaVuSans-30" transform="translate(163.330078 0)"/>
       <use xlink:href="#DejaVuSans-32" transform="translate(226.953125 0)"/>
       <use xlink:href="#DejaVuSans-20" transform="translate(290.576172 0)"/>
       <use xlink:href="#DejaVuSans-30" transform="translate(322.363281 0)"/>
       <use xlink:href="#DejaVuSans-30" transform="translate(385.986328 0)"/>
      </g>
     </g>
    </g>
    <g id="xtick_8">
     <g id="line2d_8">
      <g>
       <use xlink:href="#m1f8cc9f450" x="682.639536" y="246.04" style="stroke: #000000; stroke-width: 0.8"/>
      </g>
     </g>
     <g id="text_8">
      <!-- 06-02 12 -->
      <g transform="translate(660.159067 260.638438) scale(0.1 -0.1)">
       <use xlink:href="#DejaVuSans-30"/>
       <use xlink:href="#DejaVuSans-36" transform="translate(63.623047 0)"/>
       <use xlink:href="#DejaVuSans-2d" transform="translate(127.246094 0)"/>
       <use xlink:href="#DejaVuSans-30" transform="translate(163.330078 0)"/>
       <use xlink:href="#DejaVuSans-32" transform="translate(226.953125 0)"/>
       <use xlink:href="#DejaVuSans-20" transform="translate(290.576172 0)"/>
       <use xlink:href="#DejaVuSans-31" transform="translate(322.363281 0)"/>
       <use xlink:href="#DejaVuSans-32" transform="translate(385.986328 0)"/>
      </g>
     </g>
    </g>
    <g id="text_9">
     <!-- Tijd -->
     <g transform="translate(367.981437 274.316562) scale(0.1 -0.1)">
      <defs>
       <path id="DejaVuSans-54" d="M -19 4666 
L 3928 4666 
L 3928 4134 
L 2272 4134 
L 2272 0 
L 1638 0 
L 1638 4134 
L -19 4134 
L -19 4666 
z
" transform="scale(0.015625)"/>
       <path id="DejaVuSans-69" d="M 603 3500 
L 1178 3500 
L 1178 0 
L 603 0 
L 603 3500 
z
M 603 4863 
L 1178 4863 
L 1178 4134 
L 603 4134 
L 603 4863 
z
" transform="scale(0.015625)"/>
       <path id="DejaVuSans-6a" d="M 603 3500 
L 1178 3500 
L 1178 -63 
Q 1178 -731 923 -1031 
Q 669 -1331 103 -1331 
L -116 -1331 
L -116 -844 
L 38 -844 
Q 366 -844 484 -692 
Q 603 -541 603 -63 
L 603 3500 
z
M 603 4863 
L 1178 4863 
L 1178 4134 
L 603 4134 
L 603 4863 
z
" transform="scale(0.015625)"/>
       <path id="DejaVuSans-64" d="M 2906 2969 
L 2906 4863 
L 3481 4863 
L 3481 0 
L 2906 0 
L 2906 525 
Q 2725 213 2448 61 
Q 2172 -91 1784 -91 
Q 1150 -91 751 415 
Q 353 922 353 1747 
Q 353 2572 751 3078 
Q 1150 3584 1784 3584 
Q 2172 3584 2448 3432 
Q 2725 3281 2906 2969 
z
M 947 1747 
Q 947 1113 1208 752 
Q 1469 391 1925 391 
Q 2381 391 2643 752 
Q 2906 1113 2906 1747 
Q 2906 2381 2643 2742 
Q 2381 3103 1925 3103 
Q 1469 3103 1208 2742 
Q 947 2381 947 1747 
z
" transform="scale(0.015625)"/>
      </defs>
      <use xlink:href="#DejaVuSans-54"/>
      <use xlink:href="#DejaVuSans-69" transform="translate(57.958984 0)"/>
      <use xlink:href="#DejaVuSans-6a" transform="translate(85.742188 0)"/>
      <use xlink:href="#DejaVuSans-64" transform="translate(113.525391 0)"/>
     </g>
    </g>
   </g>
   <g id="matplotlib.axis_2">
    <g id="ytick_1">
     <g id="line2d_9">
      <defs>
       <path id="m2534eaee1a" d="M 0 0 
L -3.5 0 
" style="stroke: #000000; stroke-width: 0.8"/>
      </defs>
      <g>
       <use xlink:href="#m2534eaee1a" x="44.57" y="228.032375" style="stroke: #000000; stroke-width: 0.8"/>
      </g>
     </g>
     <g id="text_10">
      <!-- 40 -->
      <g transform="translate(24.845 231.831594) scale(0.1 -0.1)">
       <defs>
        <path id="DejaVuSans-34" d="M 2419 4116 
L 825 1625 
L 2419 1625 
L 2419 4116 
z
M 2253 4666 
L 3047 4666 
L 3047 1625 
L 3713 1625 
L 3713 1100 
L 3047 1100 
L 3047 0 
L 2419 0 
L 2419 1100 
L 313 1100 
L 313 1709 
L 2253 4666 
z
" transform="scale(0.015625)"/>
       </defs>
       <use xlink:href="#DejaVuSans-34"/>
       <use xlink:href="#DejaVuSans-30" transform="translate(63.623047 0)"/>
      </g>
     </g>
    </g>
    <g id="ytick_2">
     <g id="line2d_10">
      <g>
       <use xlink:href="#m2534eaee1a" x="44.57" y="192.10605" style="stroke: #000000; stroke-width: 0.8"/>
      </g>
     </g>
     <g id="text_11">
      <!-- 45 -->
      <g transform="translate(24.845 195.905268) scale(0.1 -0.1)">
       <use xlink:href="#DejaVuSans-34"/>
       <use xlink:href="#DejaVuSans-35" transform="translate(63.623047 0)"/>
      </g>
     </g>
    </g>
    <g id="ytick_3">
     <g id="line2d_11">
      <g>
       <use xlink:href="#m2534eaee1a" x="44.57" y="156.179724" style="stroke: #000000; stroke-width: 0.8"/>
      </g>
     </g>
     <g id="text_12">
      <!-- 50 -->
      <g transform="translate(24.845 159.978943) scale(0.1 -0.1)">
       <use xlink:href="#DejaVuSans-35"/>
       <use xlink:href="#DejaVuSans-30" transform="translate(63.623047 0)"/>
      </g>
     </g>
    </g>
    <g id="ytick_4">
     <g id="line2d_12">
      <g>
       <use xlink:href="#m2534eaee1a" x="44.57" y="120.253398" style="stroke: #000000; stroke-width: 0.8"/>
      </g>
     </g>
     <g id="text_13">
      <!-- 55 -->
      <g transform="translate(24.845 124.052617) scale(0.1 -0.1)">
       <use xlink:href="#DejaVuSans-35"/>
       <use xlink:href="#DejaVuSans-35" transform="translate(63.623047 0)"/>
      </g>
     </g>
    </g>
    <g id="ytick_5">
     <g id="line2d_13">
      <g>
       <use xlink:href="#m2534eaee1a" x="44.57" y="84.327072" style="stroke: #000000; stroke-width: 0.8"/>
      </g>
     </g>
     <g id="text_14">
      <!-- 60 -->
      <g transform="translate(24.845 88.126291) scale(0.1 -0.1)">
       <use xlink:href="#DejaVuSans-36"/>
       <use xlink:href="#DejaVuSans-30" transform="translate(63.623047 0)"/>
      </g>
     </g>
    </g>
    <g id="ytick_6">
     <g id="line2d_14">
      <g>
       <use xlink:href="#m2534eaee1a" x="44.57" y="48.400746" style="stroke: #000000; stroke-width: 0.8"/>
      </g>
     </g>
     <g id="text_15">
      <!-- 65 -->
      <g transform="translate(24.845 52.199965) scale(0.1 -0.1)">
       <use xlink:href="#DejaVuSans-36"/>
       <use xlink:href="#DejaVuSans-35" transform="translate(63.623047 0)"/>
      </g>
     </g>
    </g>
    <g id="text_16">
     <!-- (Rel.) Vochtigheid (%) -->
     <g transform="translate(18.765312 190.838125) rotate(-90) scale(0.1 -0.1)">
      <defs>
       <path id="DejaVuSans-28" d="M 1984 4856 
Q 1566 4138 1362 3434 
Q 1159 2731 1159 2009 
Q 1159 1288 1364 580 
Q 1569 -128 1984 -844 
L 1484 -844 
Q 1016 -109 783 600 
Q 550 1309 550 2009 
Q 550 2706 781 3412 
Q 1013 4119 1484 4856 
L 1984 4856 
z
" transform="scale(0.015625)"/>
       <path id="DejaVuSans-52" d="M 2841 2188 
Q 3044 2119 3236 1894 
Q 3428 1669 3622 1275 
L 4263 0 
L 3584 0 
L 2988 1197 
Q 2756 1666 2539 1819 
Q 2322 1972 1947 1972 
L 1259 1972 
L 1259 0 
L 628 0 
L 628 4666 
L 2053 4666 
Q 2853 4666 3247 4331 
Q 3641 3997 3641 3322 
Q 3641 2881 3436 2590 
Q 3231 2300 2841 2188 
z
M 1259 4147 
L 1259 2491 
L 2053 2491 
Q 2509 2491 2742 2702 
Q 2975 2913 2975 3322 
Q 2975 3731 2742 3939 
Q 2509 4147 2053 4147 
L 1259 4147 
z
" transform="scale(0.015625)"/>
       <path id="DejaVuSans-65" d="M 3597 1894 
L 3597 1613 
L 953 1613 
Q 991 1019 1311 708 
Q 1631 397 2203 397 
Q 2534 397 2845 478 
Q 3156 559 3463 722 
L 3463 178 
Q 3153 47 2828 -22 
Q 2503 -91 2169 -91 
Q 1331 -91 842 396 
Q 353 884 353 1716 
Q 353 2575 817 3079 
Q 1281 3584 2069 3584 
Q 2775 3584 3186 3129 
Q 3597 2675 3597 1894 
z
M 3022 2063 
Q 3016 2534 2758 2815 
Q 2500 3097 2075 3097 
Q 1594 3097 1305 2825 
Q 1016 2553 972 2059 
L 3022 2063 
z
" transform="scale(0.015625)"/>
       <path id="DejaVuSans-6c" d="M 603 4863 
L 1178 4863 
L 1178 0 
L 603 0 
L 603 4863 
z
" transform="scale(0.015625)"/>
       <path id="DejaVuSans-2e" d="M 684 794 
L 1344 794 
L 1344 0 
L 684 0 
L 684 794 
z
" transform="scale(0.015625)"/>
       <path id="DejaVuSans-29" d="M 513 4856 
L 1013 4856 
Q 1481 4119 1714 3412 
Q 1947 2706 1947 2009 
Q 1947 1309 1714 600 
Q 1481 -109 1013 -844 
L 513 -844 
Q 928 -128 1133 580 
Q 1338 1288 1338 2009 
Q 1338 2731 1133 3434 
Q 928 4138 513 4856 
z
" transform="scale(0.015625)"/>
       <path id="DejaVuSans-56" d="M 1831 0 
L 50 4666 
L 709 4666 
L 2188 738 
L 3669 4666 
L 4325 4666 
L 2547 0 
L 1831 0 
z
" transform="scale(0.015625)"/>
       <path id="DejaVuSans-6f" d="M 1959 3097 
Q 1497 3097 1228 2736 
Q 959 2375 959 1747 
Q 959 1119 1226 758 
Q 1494 397 1959 397 
Q 2419 397 2687 759 
Q 2956 1122 2956 1747 
Q 2956 2369 2687 2733 
Q 2419 3097 1959 3097 
z
M 1959 3584 
Q 2709 3584 3137 3096 
Q 3566 2609 3566 1747 
Q 3566 888 3137 398 
Q 2709 -91 1959 -91 
Q 1206 -91 779 398 
Q 353 888 353 1747 
Q 353 2609 779 3096 
Q 1206 3584 1959 3584 
z
" transform="scale(0.015625)"/>
       <path id="DejaVuSans-63" d="M 3122 3366 
L 3122 2828 
Q 2878 2963 2633 3030 
Q 2388 3097 2138 3097 
Q 1578 3097 1268 2742 
Q 959 2388 959 1747 
Q 959 1106 1268 751 
Q 1578 397 2138 397 
Q 2388 397 2633 464 
Q 2878 531 3122 666 
L 3122 134 
Q 2881 22 2623 -34 
Q 2366 -91 2075 -91 
Q 1284 -91 818 406 
Q 353 903 353 1747 
Q 353 2603 823 3093 
Q 1294 3584 2113 3584 
Q 2378 3584 2631 3529 
Q 2884 3475 3122 3366 
z
" transform="scale(0.015625)"/>
       <path id="DejaVuSans-68" d="M 3513 2113 
L 3513 0 
L 2938 0 
L 2938 2094 
Q 2938 2591 2744 2837 
Q 2550 3084 2163 3084 
Q 1697 3084 1428 2787 
Q 1159 2491 1159 1978 
L 1159 0 
L 581 0 
L 581 4863 
L 1159 4863 
L 1159 2956 
Q 1366 3272 1645 3428 
Q 1925 3584 2291 3584 
Q 2894 3584 3203 3211 
Q 3513 2838 3513 2113 
z
" transform="scale(0.015625)"/>
       <path id="DejaVuSans-74" d="M 1172 4494 
L 1172 3500 
L 2356 3500 
L 2356 3053 
L 1172 3053 
L 1172 1153 
Q 1172 725 1289 603 
Q 1406 481 1766 481 
L 2356 481 
L 2356 0 
L 1766 0 
Q 1100 0 847 248 
Q 594 497 594 1153 
L 594 3053 
L 172 3053 
L 172 3500 
L 594 3500 
L 594 4494 
L 1172 4494 
z
" transform="scale(0.015625)"/>
       <path id="DejaVuSans-67" d="M 2906 1791 
Q 2906 2416 2648 2759 
Q 2391 3103 1925 3103 
Q 1463 3103 1205 2759 
Q 947 2416 947 1791 
Q 947 1169 1205 825 
Q 1463 481 1925 481 
Q 2391 481 2648 825 
Q 2906 1169 2906 1791 
z
M 3481 434 
Q 3481 -459 3084 -895 
Q 2688 -1331 1869 -1331 
Q 1566 -1331 1297 -1286 
Q 1028 -1241 775 -1147 
L 775 -588 
Q 1028 -725 1275 -790 
Q 1522 -856 1778 -856 
Q 2344 -856 2625 -561 
Q 2906 -266 2906 331 
L 2906 616 
Q 2728 306 2450 153 
Q 2172 0 1784 0 
Q 1141 0 747 490 
Q 353 981 353 1791 
Q 353 2603 747 3093 
Q 1141 3584 1784 3584 
Q 2172 3584 2450 3431 
Q 2728 3278 2906 2969 
L 2906 3500 
L 3481 3500 
L 3481 434 
z
" transform="scale(0.015625)"/>
       <path id="DejaVuSans-25" d="M 4653 2053 
Q 4381 2053 4226 1822 
Q 4072 1591 4072 1178 
Q 4072 772 4226 539 
Q 4381 306 4653 306 
Q 4919 306 5073 539 
Q 5228 772 5228 1178 
Q 5228 1588 5073 1820 
Q 4919 2053 4653 2053 
z
M 4653 2450 
Q 5147 2450 5437 2106 
Q 5728 1763 5728 1178 
Q 5728 594 5436 251 
Q 5144 -91 4653 -91 
Q 4153 -91 3862 251 
Q 3572 594 3572 1178 
Q 3572 1766 3864 2108 
Q 4156 2450 4653 2450 
z
M 1428 4353 
Q 1159 4353 1004 4120 
Q 850 3888 850 3481 
Q 850 3069 1003 2837 
Q 1156 2606 1428 2606 
Q 1700 2606 1854 2837 
Q 2009 3069 2009 3481 
Q 2009 3884 1853 4118 
Q 1697 4353 1428 4353 
z
M 4250 4750 
L 4750 4750 
L 1831 -91 
L 1331 -91 
L 4250 4750 
z
M 1428 4750 
Q 1922 4750 2215 4408 
Q 2509 4066 2509 3481 
Q 2509 2891 2217 2550 
Q 1925 2209 1428 2209 
Q 931 2209 642 2551 
Q 353 2894 353 3481 
Q 353 4063 643 4406 
Q 934 4750 1428 4750 
z
" transform="scale(0.015625)"/>
      </defs>
      <use xlink:href="#DejaVuSans-28"/>
      <use xlink:href="#DejaVuSans-52" transform="translate(39.013672 0)"/>
      <use xlink:href="#DejaVuSans-65" transform="translate(103.996094 0)"/>
      <use xlink:href="#DejaVuSans-6c" transform="translate(165.519531 0)"/>
      <use xlink:href="#DejaVuSans-2e" transform="translate(193.302734 0)"/>
      <use xlink:href="#DejaVuSans-29" transform="translate(225.089844 0)"/>
      <use xlink:href="#DejaVuSans-20" transform="translate(264.103516 0)"/>
      <use xlink:href="#DejaVuSans-56" transform="translate(295.890625 0)"/>
      <use xlink:href="#DejaVuSans-6f" transform="translate(356.548828 0)"/>
      <use xlink:href="#DejaVuSans-63" transform="translate(417.730469 0)"/>
      <use xlink:href="#DejaVuSans-68" transform="translate(472.710938 0)"/>
      <use xlink:href="#DejaVuSans-74" transform="translate(536.089844 0)"/>
      <use xlink:href="#DejaVuSans-69" transform="translate(575.298828 0)"/>
      <use xlink:href="#DejaVuSans-67" transform="translate(603.082031 0)"/>
      <use xlink:href="#DejaVuSans-68" transform="translate(666.558594 0)"/>
      <use xlink:href="#DejaVuSans-65" transform="translate(729.9375 0)"/>
      <use xlink:href="#DejaVuSans-69" transform="translate(791.460938 0)"/>
      <use xlink:href="#DejaVuSans-64" transform="translate(819.244141 0)"/>
      <use xlink:href="#DejaVuSans-20" transform="translate(882.720703 0)"/>
      <use xlink:href="#DejaVuSans-28" transform="translate(914.507812 0)"/>
      <use xlink:href="#DejaVuSans-25" transform="translate(953.521484 0)"/>
      <use xlink:href="#DejaVuSans-29" transform="translate(1048.541016 0)"/>
     </g>
    </g>
   </g>
   <g id="line2d_15">
    <path d="M 74.775585 99.416129 
L 78.527832 123.846031 
L 82.280078 103.008762 
L 86.032325 98.697603 
L 89.784572 112.110098 
L 93.536818 103.727288 
L 97.289065 109.954518 
L 101.041311 118.576836 
L 104.793558 126.241119 
L 108.545805 119.534872 
L 112.298051 120.013889 
L 116.050298 112.828624 
L 119.802544 119.534872 
L 123.554791 115.223712 
L 127.307038 132.947367 
L 131.059284 128.15719 
L 134.811531 125.283084 
L 138.563778 135.342455 
L 142.316024 126.480628 
L 146.068271 137.019017 
L 149.820517 120.253398 
L 153.572764 119.055854 
L 157.325011 115.942239 
L 161.077257 99.895147 
L 164.829504 100.613673 
L 168.58175 93.907426 
L 172.333997 105.882868 
L 176.086244 102.649498 
L 179.83849 95.10497 
L 183.590737 77.141807 
L 187.342983 76.662789 
L 191.09523 87.440687 
L 194.847477 88.398723 
L 198.599723 81.213457 
L 202.35197 64.447839 
L 206.104216 61.334224 
L 209.856463 71.633104 
L 213.60871 72.830648 
L 217.360956 71.872613 
L 221.113203 74.986228 
L 224.865449 85.524616 
L 228.617696 89.117249 
L 232.369943 78.099842 
L 236.122189 81.931984 
L 239.874436 89.356758 
L 243.626682 98.218585 
L 247.378929 99.416129 
L 251.131176 115.463221 
L 254.883422 97.739567 
L 258.635669 107.319921 
L 262.387916 126.480628 
L 266.140162 118.816345 
L 269.892409 114.864449 
L 273.644655 120.612661 
L 277.396902 96.302514 
L 281.149149 85.764125 
L 284.901395 110.194027 
L 288.653642 97.021041 
L 292.405888 103.727288 
L 296.158135 94.745707 
L 299.910382 102.290235 
L 303.662628 103.008762 
L 307.414875 100.134656 
L 311.167121 101.571709 
L 314.919368 105.882868 
L 318.671615 117.379292 
L 322.423861 123.486767 
L 326.176108 102.290235 
L 329.928354 96.542023 
L 333.680601 114.505186 
L 337.432848 112.349606 
L 341.185094 124.205294 
L 344.937341 119.175608 
L 348.689587 118.816345 
L 352.441834 111.391571 
L 356.194081 92.470373 
L 359.946327 83.967809 
L 363.698574 94.02718 
L 367.450821 77.860334 
L 371.203067 87.919705 
L 374.955314 74.986228 
L 378.70756 73.189911 
L 382.459807 68.758998 
L 386.212054 67.082436 
L 389.9643 70.43556 
L 393.716547 85.524616 
L 397.468793 62.771277 
L 401.22104 64.687347 
L 404.973287 66.363909 
L 408.725533 82.411002 
L 412.47778 112.828624 
L 416.230026 106.361885 
L 419.982273 103.727288 
L 423.73452 96.063005 
L 427.486766 103.966797 
L 431.239013 107.798938 
L 434.991259 97.021041 
L 438.743506 114.265677 
L 442.495753 112.589115 
L 446.247999 122.768241 
L 450.000246 117.618801 
L 453.752492 115.463221 
L 457.504739 120.971925 
L 461.256986 121.211433 
L 465.009232 116.660765 
L 468.761479 120.013889 
L 472.513726 106.601394 
L 476.265972 95.10497 
L 480.018219 109.4755 
L 483.770465 111.63108 
L 487.522712 100.853182 
L 491.274959 98.937111 
L 495.027205 101.811217 
L 498.779452 115.942239 
L 502.531698 99.655638 
L 506.283945 104.805078 
L 510.036192 108.517465 
L 513.788438 96.542023 
L 517.540685 96.542023 
L 521.292931 114.744695 
L 525.045178 115.942239 
L 528.797425 91.512337 
L 532.549671 102.050726 
L 536.301918 103.248271 
L 540.054164 99.655638 
L 543.806411 88.997495 
L 547.558658 95.583988 
L 551.310904 96.063005 
L 555.063151 88.87774 
L 558.815397 102.649498 
L 562.567644 93.428408 
L 566.319891 82.411002 
L 570.072137 85.764125 
L 573.824384 102.529744 
L 577.576631 88.398723 
L 581.328877 104.206306 
L 585.081124 98.937111 
L 588.83337 101.3322 
L 592.585617 104.685324 
L 596.337864 101.092691 
L 600.09011 107.798938 
L 603.842357 118.337327 
L 607.594603 131.270805 
L 611.34685 126.00161 
L 615.099097 129.594243 
L 618.851343 121.690451 
L 622.60359 150.790775 
L 626.355836 158.814321 
L 630.108083 152.8266 
L 633.86033 130.07326 
L 637.612576 120.013889 
L 641.364823 138.575824 
L 645.117069 148.994459 
L 648.869316 153.066109 
L 652.621563 155.101934 
L 656.373809 135.342455 
L 660.126056 141.809194 
L 663.878302 140.611649 
L 667.630549 148.994459 
L 671.382796 162.646463 
L 675.135042 145.880844 
L 678.887289 140.372141 
L 678.887289 140.372141 
" clip-path="url(#pce8114a1fe)" style="fill: none; stroke: #1f77b4; stroke-width: 2; stroke-linecap: square"/>
   </g>
   <g id="line2d_16">
    <path d="M 74.775585 121.177218 
L 78.527832 124.188186 
L 82.280078 125.727886 
L 86.032325 124.530342 
L 89.784572 127.062292 
L 93.536818 127.54131 
L 97.289065 126.805676 
L 101.041311 127.267585 
L 104.793558 128.15719 
L 108.545805 123.332797 
L 112.298051 126.035826 
L 119.802544 125.402838 
L 123.554791 127.23337 
L 127.307038 124.496126 
L 131.059284 122.956426 
L 134.811531 123.401229 
L 138.563778 127.267585 
L 146.068271 119.295363 
L 149.820517 112.725977 
L 153.572764 110.638829 
L 157.325011 100.066225 
L 161.077257 100.921613 
L 164.829504 103.487779 
L 168.58175 110.108488 
L 172.333997 114.402539 
L 179.83849 119.77438 
L 187.342983 123.538091 
L 191.09523 118.970315 
L 198.599723 129.063902 
L 202.35197 124.153971 
L 206.104216 127.609741 
L 209.856463 125.69367 
L 213.60871 125.898964 
L 217.360956 126.891214 
L 221.113203 128.362483 
L 224.865449 128.670423 
L 228.617696 130.723356 
L 232.369943 127.301801 
L 236.122189 123.674953 
L 239.874436 128.841501 
L 243.626682 130.312769 
L 247.378929 128.15719 
L 251.131176 132.22884 
L 258.635669 132.126193 
L 262.387916 136.129413 
L 266.140162 133.529031 
L 269.892409 135.017407 
L 273.644655 131.630068 
L 277.396902 130.518063 
L 281.149149 130.586494 
L 284.901395 131.647176 
L 288.653642 129.902183 
L 292.405888 135.342455 
L 296.158135 128.567776 
L 299.910382 126.703029 
L 303.662628 126.412197 
L 307.414875 124.102647 
L 311.167121 124.906713 
L 314.919368 117.584585 
L 318.671615 114.522294 
L 322.423861 119.363794 
L 326.176108 112.897055 
L 333.680601 108.517465 
L 337.432848 109.4755 
L 341.185094 106.858011 
L 344.937341 102.221804 
L 348.689587 107.901585 
L 352.441834 106.515855 
L 356.194081 109.834764 
L 359.946327 108.123986 
L 363.698574 110.09138 
L 367.450821 109.338638 
L 371.203067 113.222103 
L 374.955314 112.452253 
L 378.70756 119.107177 
L 382.459807 118.611052 
L 386.212054 120.458691 
L 389.9643 121.143002 
L 393.716547 129.594243 
L 397.468793 124.735635 
L 401.22104 129.867967 
L 404.973287 129.525812 
L 408.725533 126.993861 
L 412.47778 129.913588 
L 416.230026 129.195061 
L 419.982273 127.698131 
L 423.73452 130.121162 
L 427.486766 136.73959 
L 431.239013 135.239808 
L 434.991259 136.30049 
L 438.743506 136.950586 
L 442.495753 136.574215 
L 446.247999 143.485755 
L 450.000246 137.84019 
L 453.752492 139.893123 
L 457.504739 140.235278 
L 461.256986 138.284992 
L 465.009232 138.644255 
L 468.761479 143.006738 
L 472.513726 140.166847 
L 476.265972 134.53839 
L 480.018219 134.521282 
L 483.770465 133.802755 
L 487.522712 130.483847 
L 491.274959 131.493206 
L 495.027205 131.784038 
L 498.779452 132.331487 
L 502.531698 131.510313 
L 506.283945 134.683806 
L 510.036192 128.174298 
L 513.788438 126.959646 
L 517.540685 125.454161 
L 521.292931 131.869577 
L 525.045178 129.269195 
L 528.797425 125.556808 
L 532.549671 126.087149 
L 536.301918 132.588103 
L 540.054164 128.020328 
L 543.806411 132.451241 
L 547.558658 129.525812 
L 551.310904 134.162018 
L 555.063151 136.745292 
L 558.815397 139.790476 
L 562.567644 146.257215 
L 566.319891 146.667801 
L 570.072137 145.641335 
L 573.824384 148.173286 
L 577.576631 149.165536 
L 581.328877 145.538688 
L 585.081124 143.1436 
L 588.83337 139.174596 
L 592.585617 137.669112 
L 596.337864 138.866656 
L 600.09011 144.614869 
L 603.842357 135.513533 
L 607.594603 147.03847 
L 611.34685 142.715906 
L 615.099097 139.157489 
L 618.851343 140.68008 
L 622.60359 147.078388 
L 626.355836 142.06581 
L 630.108083 142.98963 
L 633.86033 136.471568 
L 637.612576 136.204687 
L 641.364823 132.468349 
L 645.117069 130.392606 
L 648.869316 142.767229 
L 652.621563 148.096301 
L 656.373809 133.72577 
L 660.126056 141.809194 
L 663.878302 140.611649 
L 667.630549 148.994459 
L 671.382796 162.646463 
L 675.135042 145.880844 
L 678.887289 140.372141 
L 678.887289 140.372141 
" clip-path="url(#pce8114a1fe)" style="fill: none; stroke-dasharray: 5.55,2.4; stroke-dashoffset: 0; stroke: #808080; stroke-width: 1.5"/>
   </g>
   <g id="patch_3">
    <path d="M 44.57 246.04 
L 44.57 26.88 
" style="fill: none; stroke: #000000; stroke-width: 0.8; stroke-linejoin: miter; stroke-linecap: square"/>
   </g>
   <g id="patch_4">
    <path d="M 709.092874 246.04 
L 709.092874 26.88 
" style="fill: none; stroke: #000000; stroke-width: 0.8; stroke-linejoin: miter; stroke-linecap: square"/>
   </g>
   <g id="patch_5">
    <path d="M 44.57 246.04 
L 709.092874 246.04 
" style="fill: none; stroke: #000000; stroke-width: 0.8; stroke-linejoin: miter; stroke-linecap: square"/>
   </g>
   <g id="patch_6">
    <path d="M 44.57 26.88 
L 709.092874 26.88 
" style="fill: none; stroke: #000000; stroke-width: 0.8; stroke-linejoin: miter; stroke-linecap: square"/>
   </g>
   <g id="text_17">
    <!-- Luchtvochtigheid - v001/c00002/d001 -->
    <g transform="translate(262.54175 20.88) scale(0.12 -0.12)">
     <defs>
      <path id="DejaVuSans-4c" d="M 628 4666 
L 1259 4666 
L 1259 531 
L 3531 531 
L 3531 0 
L 628 0 
L 628 4666 
z
" transform="scale(0.015625)"/>
      <path id="DejaVuSans-75" d="M 544 1381 
L 544 3500 
L 1119 3500 
L 1119 1403 
Q 1119 906 1312 657 
Q 1506 409 1894 409 
Q 2359 409 2629 706 
Q 2900 1003 2900 1516 
L 2900 3500 
L 3475 3500 
L 3475 0 
L 2900 0 
L 2900 538 
Q 2691 219 2414 64 
Q 2138 -91 1772 -91 
Q 1169 -91 856 284 
Q 544 659 544 1381 
z
M 1991 3584 
L 1991 3584 
z
" transform="scale(0.015625)"/>
      <path id="DejaVuSans-76" d="M 191 3500 
L 800 3500 
L 1894 563 
L 2988 3500 
L 3597 3500 
L 2284 0 
L 1503 0 
L 191 3500 
z
" transform="scale(0.015625)"/>
      <path id="DejaVuSans-2f" d="M 1625 4666 
L 2156 4666 
L 531 -594 
L 0 -594 
L 1625 4666 
z
" transform="scale(0.015625)"/>
     </defs>
     <use xlink:href="#DejaVuSans-4c"/>
     <use xlink:href="#DejaVuSans-75" transform="translate(53.962891 0)"/>
     <use xlink:href="#DejaVuSans-63" transform="translate(117.341797 0)"/>
     <use xlink:href="#DejaVuSans-68" transform="translate(172.322266 0)"/>
     <use xlink:href="#DejaVuSans-74" transform="translate(235.701172 0)"/>
     <use xlink:href="#DejaVuSans-76" transform="translate(274.910156 0)"/>
     <use xlink:href="#DejaVuSans-6f" transform="translate(334.089844 0)"/>
     <use xlink:href="#DejaVuSans-63" transform="translate(395.271484 0)"/>
     <use xlink:href="#DejaVuSans-68" transform="translate(450.251953 0)"/>
     <use xlink:href="#DejaVuSans-74" transform="translate(513.630859 0)"/>
     <use xlink:href="#DejaVuSans-69" transform="translate(552.839844 0)"/>
     <use xlink:href="#DejaVuSans-67" transform="translate(580.623047 0)"/>
     <use xlink:href="#DejaVuSans-68" transform="translate(644.099609 0)"/>
     <use xlink:href="#DejaVuSans-65" transform="translate(707.478516 0)"/>
     <use xlink:href="#DejaVuSans-69" transform="translate(769.001953 0)"/>
     <use xlink:href="#DejaVuSans-64" transform="translate(796.785156 0)"/>
     <use xlink:href="#DejaVuSans-20" transform="translate(860.261719 0)"/>
     <use xlink:href="#DejaVuSans-2d" transform="translate(892.048828 0)"/>
     <use xlink:href="#DejaVuSans-20" transform="translate(928.132812 0)"/>
     <use xlink:href="#DejaVuSans-76" transform="translate(959.919922 0)"/>
     <use xlink:href="#DejaVuSans-30" transform="translate(1019.099609 0)"/>
     <use xlink:href="#DejaVuSans-30" transform="translate(1082.722656 0)"/>
     <use xlink:href="#DejaVuSans-31" transform="translate(1146.345703 0)"/>
     <use xlink:href="#DejaVuSans-2f" transform="translate(1209.96875 0)"/>
     <use xlink:href="#DejaVuSans-63" transform="translate(1243.660156 0)"/>
     <use xlink:href="#DejaVuSans-30" transform="translate(1298.640625 0)"/>
     <use xlink:href="#DejaVuSans-30" transform="translate(1362.263672 0)"/>
     <use xlink:href="#DejaVuSans-30" transform="translate(1425.886719 0)"/>
     <use xlink:href="#DejaVuSans-30" transform="translate(1489.509766 0)"/>
     <use xlink:href="#DejaVuSans-32" transform="translate(1553.132812 0)"/>
     <use xlink:href="#DejaVuSans-2f" transform="translate(1616.755859 0)"/>
     <use xlink:href="#DejaVuSans-64" transform="translate(1650.447266 0)"/>
     <use xlink:href="#DejaVuSans-30" transform="translate(1713.923828 0)"/>
     <use xlink:href="#DejaVuSans-30" transform="translate(1777.546875 0)"/>
     <use xlink:href="#DejaVuSans-31" transform="translate(1841.169922 0)"/>
    </g>
   </g>
   <g id="legend_1">
    <g id="patch_7">
     <path d="M 51.57 241.04 
L 202.51375 241.04 
Q 204.51375 241.04 204.51375 239.04 
L 204.51375 196.005625 
Q 204.51375 194.005625 202.51375 194.005625 
L 51.57 194.005625 
Q 49.57 194.005625 49.57 196.005625 
L 49.57 239.04 
Q 49.57 241.04 51.57 241.04 
z
" style="fill: #ffffff; opacity: 0.8; stroke: #cccccc; stroke-linejoin: miter"/>
    </g>
    <g id="line2d_17">
     <path d="M 53.57 202.104062 
L 63.57 202.104062 
L 73.57 202.104062 
" style="fill: none; stroke: #1f77b4; stroke-width: 2; stroke-linecap: square"/>
    </g>
    <g id="text_18">
     <!-- Hive -->
     <g transform="translate(81.57 205.604062) scale(0.1 -0.1)">
      <defs>
       <path id="DejaVuSans-48" d="M 628 4666 
L 1259 4666 
L 1259 2753 
L 3553 2753 
L 3553 4666 
L 4184 4666 
L 4184 0 
L 3553 0 
L 3553 2222 
L 1259 2222 
L 1259 0 
L 628 0 
L 628 4666 
z
" transform="scale(0.015625)"/>
      </defs>
      <use xlink:href="#DejaVuSans-48"/>
      <use xlink:href="#DejaVuSans-69" transform="translate(75.195312 0)"/>
      <use xlink:href="#DejaVuSans-76" transform="translate(102.978516 0)"/>
      <use xlink:href="#DejaVuSans-65" transform="translate(162.158203 0)"/>
     </g>
    </g>
    <g id="line2d_18">
     <path d="M 53.57 216.782187 
L 63.57 216.782187 
L 73.57 216.782187 
" style="fill: none; stroke-dasharray: 5.55,2.4; stroke-dashoffset: 0; stroke: #808080; stroke-width: 1.5"/>
    </g>
    <g id="text_19">
     <!-- Gemiddelde (alle hives) -->
     <g transform="translate(81.57 220.282187) scale(0.1 -0.1)">
      <defs>
       <path id="DejaVuSans-47" d="M 3809 666 
L 3809 1919 
L 2778 1919 
L 2778 2438 
L 4434 2438 
L 4434 434 
Q 4069 175 3628 42 
Q 3188 -91 2688 -91 
Q 1594 -91 976 548 
Q 359 1188 359 2328 
Q 359 3472 976 4111 
Q 1594 4750 2688 4750 
Q 3144 4750 3555 4637 
Q 3966 4525 4313 4306 
L 4313 3634 
Q 3963 3931 3569 4081 
Q 3175 4231 2741 4231 
Q 1884 4231 1454 3753 
Q 1025 3275 1025 2328 
Q 1025 1384 1454 906 
Q 1884 428 2741 428 
Q 3075 428 3337 486 
Q 3600 544 3809 666 
z
" transform="scale(0.015625)"/>
       <path id="DejaVuSans-6d" d="M 3328 2828 
Q 3544 3216 3844 3400 
Q 4144 3584 4550 3584 
Q 5097 3584 5394 3201 
Q 5691 2819 5691 2113 
L 5691 0 
L 5113 0 
L 5113 2094 
Q 5113 2597 4934 2840 
Q 4756 3084 4391 3084 
Q 3944 3084 3684 2787 
Q 3425 2491 3425 1978 
L 3425 0 
L 2847 0 
L 2847 2094 
Q 2847 2600 2669 2842 
Q 2491 3084 2119 3084 
Q 1678 3084 1418 2786 
Q 1159 2488 1159 1978 
L 1159 0 
L 581 0 
L 581 3500 
L 1159 3500 
L 1159 2956 
Q 1356 3278 1631 3431 
Q 1906 3584 2284 3584 
Q 2666 3584 2933 3390 
Q 3200 3197 3328 2828 
z
" transform="scale(0.015625)"/>
       <path id="DejaVuSans-61" d="M 2194 1759 
Q 1497 1759 1228 1600 
Q 959 1441 959 1056 
Q 959 750 1161 570 
Q 1363 391 1709 391 
Q 2188 391 2477 730 
Q 2766 1069 2766 1631 
L 2766 1759 
L 2194 1759 
z
M 3341 1997 
L 3341 0 
L 2766 0 
L 2766 531 
Q 2569 213 2275 61 
Q 1981 -91 1556 -91 
Q 1019 -91 701 211 
Q 384 513 384 1019 
Q 384 1609 779 1909 
Q 1175 2209 1959 2209 
L 2766 2209 
L 2766 2266 
Q 2766 2663 2505 2880 
Q 2244 3097 1772 3097 
Q 1472 3097 1187 3025 
Q 903 2953 641 2809 
L 641 3341 
Q 956 3463 1253 3523 
Q 1550 3584 1831 3584 
Q 2591 3584 2966 3190 
Q 3341 2797 3341 1997 
z
" transform="scale(0.015625)"/>
       <path id="DejaVuSans-73" d="M 2834 3397 
L 2834 2853 
Q 2591 2978 2328 3040 
Q 2066 3103 1784 3103 
Q 1356 3103 1142 2972 
Q 928 2841 928 2578 
Q 928 2378 1081 2264 
Q 1234 2150 1697 2047 
L 1894 2003 
Q 2506 1872 2764 1633 
Q 3022 1394 3022 966 
Q 3022 478 2636 193 
Q 2250 -91 1575 -91 
Q 1294 -91 989 -36 
Q 684 19 347 128 
L 347 722 
Q 666 556 975 473 
Q 1284 391 1588 391 
Q 1994 391 2212 530 
Q 2431 669 2431 922 
Q 2431 1156 2273 1281 
Q 2116 1406 1581 1522 
L 1381 1569 
Q 847 1681 609 1914 
Q 372 2147 372 2553 
Q 372 3047 722 3315 
Q 1072 3584 1716 3584 
Q 2034 3584 2315 3537 
Q 2597 3491 2834 3397 
z
" transform="scale(0.015625)"/>
      </defs>
      <use xlink:href="#DejaVuSans-47"/>
      <use xlink:href="#DejaVuSans-65" transform="translate(77.490234 0)"/>
      <use xlink:href="#DejaVuSans-6d" transform="translate(139.013672 0)"/>
      <use xlink:href="#DejaVuSans-69" transform="translate(236.425781 0)"/>
      <use xlink:href="#DejaVuSans-64" transform="translate(264.208984 0)"/>
      <use xlink:href="#DejaVuSans-64" transform="translate(327.685547 0)"/>
      <use xlink:href="#DejaVuSans-65" transform="translate(391.162109 0)"/>
      <use xlink:href="#DejaVuSans-6c" transform="translate(452.685547 0)"/>
      <use xlink:href="#DejaVuSans-64" transform="translate(480.46875 0)"/>
      <use xlink:href="#DejaVuSans-65" transform="translate(543.945312 0)"/>
      <use xlink:href="#DejaVuSans-20" transform="translate(605.46875 0)"/>
      <use xlink:href="#DejaVuSans-28" transform="translate(637.255859 0)"/>
      <use xlink:href="#DejaVuSans-61" transform="translate(676.269531 0)"/>
      <use xlink:href="#DejaVuSans-6c" transform="translate(737.548828 0)"/>
      <use xlink:href="#DejaVuSans-6c" transform="translate(765.332031 0)"/>
      <use xlink:href="#DejaVuSans-65" transform="translate(793.115234 0)"/>
      <use xlink:href="#DejaVuSans-20" transform="translate(854.638672 0)"/>
      <use xlink:href="#DejaVuSans-68" transform="translate(886.425781 0)"/>
      <use xlink:href="#DejaVuSans-69" transform="translate(949.804688 0)"/>
      <use xlink:href="#DejaVuSans-76" transform="translate(977.587891 0)"/>
      <use xlink:href="#DejaVuSans-65" transform="translate(1036.767578 0)"/>
      <use xlink:href="#DejaVuSans-73" transform="translate(1098.291016 0)"/>
      <use xlink:href="#DejaVuSans-29" transform="translate(1150.390625 0)"/>
     </g>
    </g>
    <g id="patch_8">
     <path d="M 53.57 234.960312 
L 73.57 234.960312 
L 73.57 227.960312 
L 53.57 227.960312 
z
" style="fill: #808080; fill-opacity: 0.2; stroke: #808080; stroke-opacity: 0.2; stroke-linejoin: miter"/>
    </g>
    <g id="text_20">
     <!-- 2 Std Dev -->
     <g transform="translate(81.57 234.960312) scale(0.1 -0.1)">
      <defs>
       <path id="DejaVuSans-b1" d="M 2944 4013 
L 2944 2803 
L 4684 2803 
L 4684 2272 
L 2944 2272 
L 2944 1063 
L 2419 1063 
L 2419 2272 
L 678 2272 
L 678 2803 
L 2419 2803 
L 2419 4013 
L 2944 4013 
z
M 678 531 
L 4684 531 
L 4684 0 
L 678 0 
L 678 531 
z
" transform="scale(0.015625)"/>
       <path id="DejaVuSans-53" d="M 3425 4513 
L 3425 3897 
Q 3066 4069 2747 4153 
Q 2428 4238 2131 4238 
Q 1616 4238 1336 4038 
Q 1056 3838 1056 3469 
Q 1056 3159 1242 3001 
Q 1428 2844 1947 2747 
L 2328 2669 
Q 3034 2534 3370 2195 
Q 3706 1856 3706 1288 
Q 3706 609 3251 259 
Q 2797 -91 1919 -91 
Q 1588 -91 1214 -16 
Q 841 59 441 206 
L 441 856 
Q 825 641 1194 531 
Q 1563 422 1919 422 
Q 2459 422 2753 634 
Q 3047 847 3047 1241 
Q 3047 1584 2836 1778 
Q 2625 1972 2144 2069 
L 1759 2144 
Q 1053 2284 737 2584 
Q 422 2884 422 3419 
Q 422 4038 858 4394 
Q 1294 4750 2059 4750 
Q 2388 4750 2728 4690 
Q 3069 4631 3425 4513 
z
" transform="scale(0.015625)"/>
       <path id="DejaVuSans-44" d="M 1259 4147 
L 1259 519 
L 2022 519 
Q 2988 519 3436 956 
Q 3884 1394 3884 2338 
Q 3884 3275 3436 3711 
Q 2988 4147 2022 4147 
L 1259 4147 
z
M 628 4666 
L 1925 4666 
Q 3281 4666 3915 4102 
Q 4550 3538 4550 2338 
Q 4550 1131 3912 565 
Q 3275 0 1925 0 
L 628 0 
L 628 4666 
z
" transform="scale(0.015625)"/>
      </defs>
      <use xlink:href="#DejaVuSans-b1"/>
      <use xlink:href="#DejaVuSans-32" transform="translate(83.789062 0)"/>
      <use xlink:href="#DejaVuSans-20" transform="translate(147.412109 0)"/>
      <use xlink:href="#DejaVuSans-53" transform="translate(179.199219 0)"/>
      <use xlink:href="#DejaVuSans-74" transform="translate(242.675781 0)"/>
      <use xlink:href="#DejaVuSans-64" transform="translate(281.884766 0)"/>
      <use xlink:href="#DejaVuSans-20" transform="translate(345.361328 0)"/>
      <use xlink:href="#DejaVuSans-44" transform="translate(377.148438 0)"/>
      <use xlink:href="#DejaVuSans-65" transform="translate(454.150391 0)"/>
      <use xlink:href="#DejaVuSans-76" transform="translate(515.673828 0)"/>
     </g>
    </g>
   </g>
  </g>
 </g>
 <defs>
  <clipPath id="pce8114a1fe">
   <rect x="44.57" y="26.88" width="664.522874" height="219.16"/>
  </clipPath>
 </defs>
</svg>
