<?xml version="1.0" encoding="utf-8" standalone="no"?>
<!DOCTYPE svg PUBLIC "-//W3C//DTD SVG 1.1//EN"
  "http://www.w3.org/Graphics/SVG/1.1/DTD/svg11.dtd">
<svg xmlns:xlink="http://www.w3.org/1999/xlink" width="720pt" height="288pt" viewBox="0 0 720 288" xmlns="http://www.w3.org/2000/svg" version="1.1">
 <metadata>
  <rdf:RDF xmlns:dc="http://purl.org/dc/elements/1.1/" xmlns:cc="http://creativecommons.org/ns#" xmlns:rdf="http://www.w3.org/1999/02/22-rdf-syntax-ns#">
   <cc:Work>
    <dc:type rdf:resource="http://purl.org/dc/dcmitype/StillImage"/>
    <dc:date>2025-05-23T08:22:02.689798</dc:date>
    <dc:format>image/svg+xml</dc:format>
    <dc:creator>
     <cc:Agent>
      <dc:title>Matplotlib v3.10.3, https://matplotlib.org/</dc:title>
     </cc:Agent>
    </dc:creator>
   </cc:Work>
  </rdf:RDF>
 </metadata>
 <defs>
  <style type="text/css">*{stroke-linejoin: round; stroke-linecap: butt}</style>
 </defs>
 <g id="figure_1">
  <g id="patch_1">
   <path d="M 0 288 
L 720 288 
L 720 0 
L 0 0 
z
" style="fill: #ffffff"/>
  </g>
  <g id="axes_1">
   <g id="patch_2">
    <path d="M 44.57 246.04 
L 709.2 246.04 
L 709.2 26.88 
L 44.57 26.88 
z
" style="fill: #ffffff"/>
   </g>
   <g id="FillBetweenPolyCollection_1">
    <defs>
     <path id="mef12d40e7a" d="M 74.780455 -125.227077 
L 74.780455 -58.793698 
L 78.62892 -68.365706 
L 82.477386 -69.02582 
L 86.325851 -68.61749 
L 90.174317 -68.639675 
L 94.022782 -71.538019 
L 97.871248 -79.5751 
L 101.719713 -85.72841 
L 105.568179 -92.115042 
L 109.416644 -97.976701 
L 113.26511 -85.2689 
L 117.113576 -66.638264 
L 120.962041 -69.31421 
L 124.810507 -65.633306 
L 128.658972 -68.489468 
L 132.507438 -79.657309 
L 136.355903 -101.383283 
L 140.204369 -101.956832 
L 144.052834 -68.716323 
L 147.9013 -58.10873 
L 151.749765 -55.795192 
L 155.598231 -54.394066 
L 159.446697 -58.240952 
L 163.295162 -55.857436 
L 167.143628 -53.708326 
L 170.992093 -53.696657 
L 174.840559 -54.891862 
L 178.689024 -59.570994 
L 182.53749 -65.120425 
L 186.385955 -66.95505 
L 190.234421 -67.34156 
L 194.082887 -68.059185 
L 197.931352 -69.791169 
L 201.779818 -70.989366 
L 205.628283 -70.998373 
L 209.476749 -70.918039 
L 213.325214 -70.87302 
L 217.17368 -70.954739 
L 221.022145 -70.860873 
L 224.870611 -71.83711 
L 228.719076 -73.007179 
L 232.567542 -73.970431 
L 236.416008 -74.301412 
L 240.264473 -73.696492 
L 244.112939 -75.513676 
L 247.961404 -76.018472 
L 251.80987 -75.5669 
L 255.658335 -74.828858 
L 259.506801 -75.314465 
L 263.355266 -75.529722 
L 267.203732 -76.10358 
L 271.052197 -78.35354 
L 274.900663 -78.877165 
L 278.749129 -81.177717 
L 282.597594 -83.201565 
L 286.44606 -83.26001 
L 290.294525 -88.869586 
L 294.142991 -95.486045 
L 297.991456 -97.198069 
L 301.839922 -98.3685 
L 305.688387 -90.844948 
L 309.536853 -88.987036 
L 313.385318 -99.877598 
L 317.233784 -99.332326 
L 321.08225 -91.61849 
L 324.930715 -84.51623 
L 328.779181 -71.612668 
L 332.627646 -59.761319 
L 336.476112 -53.488521 
L 340.324577 -73.29417 
L 344.173043 -70.411952 
L 348.021508 -68.00507 
L 351.869974 -72.15883 
L 355.718439 -68.1661 
L 359.566905 -65.940642 
L 363.415371 -61.64261 
L 367.263836 -70.851679 
L 371.112302 -74.230764 
L 374.960767 -74.892947 
L 378.809233 -74.234936 
L 382.657698 -81.463408 
L 386.506164 -79.722641 
L 390.354629 -78.801998 
L 394.203095 -77.638723 
L 398.051561 -76.550712 
L 401.900026 -79.585896 
L 405.748492 -81.07975 
L 409.596957 -80.923927 
L 413.445423 -80.192511 
L 417.293888 -78.835905 
L 421.142354 -77.680921 
L 424.990819 -77.44138 
L 428.839285 -76.163049 
L 432.68775 -75.475889 
L 436.536216 -74.760087 
L 440.384682 -74.509141 
L 444.233147 -75.209249 
L 448.081613 -77.513498 
L 451.930078 -77.494382 
L 455.778544 -77.773118 
L 459.627009 -79.534139 
L 463.475475 -80.302534 
L 467.32394 -80.651884 
L 471.172406 -81.009366 
L 475.020871 -83.148369 
L 478.869337 -84.302657 
L 482.717803 -77.00166 
L 486.566268 -51.921818 
L 490.414734 -77.654984 
L 494.263199 -70.725852 
L 498.111665 -82.561438 
L 501.96013 -66.351505 
L 505.808596 -73.237681 
L 509.657061 -90.531022 
L 513.505527 -88.403833 
L 517.353992 -88.610582 
L 521.202458 -67.830533 
L 525.050924 -60.464006 
L 528.899389 -64.614208 
L 532.747855 -62.66394 
L 536.59632 -65.999945 
L 540.444786 -59.727086 
L 544.293251 -54.129361 
L 548.141717 -60.621423 
L 551.990182 -60.952722 
L 555.838648 -68.612915 
L 559.687113 -65.743153 
L 563.535579 -66.810142 
L 567.384045 -67.597126 
L 571.23251 -70.001333 
L 575.080976 -70.450802 
L 578.929441 -69.24699 
L 582.777907 -68.648929 
L 586.626372 -69.107986 
L 590.474838 -67.4711 
L 594.323303 -67.332856 
L 598.171769 -68.795163 
L 602.020235 -68.428892 
L 605.8687 -68.80505 
L 609.717166 -69.213649 
L 613.565631 -71.106908 
L 617.414097 -71.815345 
L 621.262562 -70.23626 
L 625.111028 -69.260258 
L 628.959493 -68.063177 
L 632.807959 -66.32326 
L 636.656424 -65.921981 
L 640.50489 -62.788362 
L 644.353356 -61.437326 
L 648.201821 -59.378332 
L 652.050287 -64.172317 
L 655.898752 -61.551128 
L 659.747218 -67.962805 
L 663.595683 -70.79672 
L 663.595683 -99.241193 
L 663.595683 -99.241193 
L 659.747218 -98.355529 
L 655.898752 -98.567908 
L 652.050287 -92.227139 
L 648.201821 -92.888259 
L 644.353356 -106.327511 
L 640.50489 -102.510531 
L 636.656424 -99.477939 
L 632.807959 -95.678526 
L 628.959493 -91.022642 
L 625.111028 -86.840714 
L 621.262562 -84.165645 
L 617.414097 -78.660338 
L 613.565631 -79.575418 
L 609.717166 -79.631847 
L 605.8687 -79.673081 
L 602.020235 -80.439564 
L 598.171769 -80.968748 
L 594.323303 -84.795973 
L 590.474838 -84.497006 
L 586.626372 -83.962217 
L 582.777907 -85.821857 
L 578.929441 -86.371814 
L 575.080976 -86.086416 
L 571.23251 -89.107447 
L 567.384045 -93.899532 
L 563.535579 -97.533601 
L 559.687113 -101.677278 
L 555.838648 -99.312645 
L 551.990182 -115.376331 
L 548.141717 -118.141429 
L 544.293251 -134.093161 
L 540.444786 -129.689375 
L 536.59632 -128.421876 
L 532.747855 -143.05438 
L 528.899389 -145.833947 
L 525.050924 -167.319225 
L 521.202458 -158.115868 
L 517.353992 -127.899109 
L 513.505527 -134.259236 
L 509.657061 -126.62156 
L 505.808596 -168.092165 
L 501.96013 -179.409691 
L 498.111665 -148.160719 
L 494.263199 -166.080802 
L 490.414734 -142.206921 
L 486.566268 -181.280058 
L 482.717803 -144.283787 
L 478.869337 -123.987223 
L 475.020871 -120.113192 
L 471.172406 -119.47399 
L 467.32394 -113.609214 
L 463.475475 -107.874068 
L 459.627009 -105.060646 
L 455.778544 -103.905701 
L 451.930078 -102.714973 
L 448.081613 -101.249354 
L 444.233147 -98.892649 
L 440.384682 -95.620614 
L 436.536216 -93.578759 
L 432.68775 -92.311909 
L 428.839285 -91.509946 
L 424.990819 -89.014716 
L 421.142354 -88.361889 
L 417.293888 -87.574271 
L 413.445423 -87.067198 
L 409.596957 -86.106178 
L 405.748492 -85.077861 
L 401.900026 -86.84724 
L 398.051561 -88.321119 
L 394.203095 -88.018352 
L 390.354629 -87.406126 
L 386.506164 -88.689679 
L 382.657698 -89.593945 
L 378.809233 -103.907986 
L 374.960767 -104.880161 
L 371.112302 -108.619032 
L 367.263836 -118.472941 
L 363.415371 -134.570119 
L 359.566905 -129.445514 
L 355.718439 -128.184391 
L 351.869974 -127.497954 
L 348.021508 -138.402061 
L 344.173043 -137.097276 
L 340.324577 -136.488135 
L 336.476112 -171.700188 
L 332.627646 -171.351164 
L 328.779181 -166.727738 
L 324.930715 -144.437979 
L 321.08225 -133.799823 
L 317.233784 -130.466824 
L 313.385318 -140.35015 
L 309.536853 -165.682782 
L 305.688387 -160.610419 
L 301.839922 -138.690718 
L 297.991456 -133.822573 
L 294.142991 -136.31525 
L 290.294525 -137.007934 
L 286.44606 -138.346882 
L 282.597594 -135.282718 
L 278.749129 -132.898176 
L 274.900663 -128.655024 
L 271.052197 -122.359421 
L 267.203732 -120.981643 
L 263.355266 -118.708415 
L 259.506801 -113.482067 
L 255.658335 -109.054155 
L 251.80987 -102.093855 
L 247.961404 -95.397063 
L 244.112939 -90.804658 
L 240.264473 -88.603778 
L 236.416008 -87.195246 
L 232.567542 -87.480306 
L 228.719076 -87.042976 
L 224.870611 -87.225749 
L 221.022145 -89.235202 
L 217.17368 -91.184809 
L 213.325214 -93.608484 
L 209.476749 -96.686075 
L 205.628283 -100.463083 
L 201.779818 -104.421272 
L 197.931352 -109.155366 
L 194.082887 -113.918118 
L 190.234421 -118.171639 
L 186.385955 -122.41549 
L 182.53749 -129.806523 
L 178.689024 -143.667606 
L 174.840559 -156.887994 
L 170.992093 -165.154992 
L 167.143628 -173.133529 
L 163.295162 -181.408425 
L 159.446697 -192.571524 
L 155.598231 -215.222949 
L 151.749765 -222.133475 
L 147.9013 -225.835553 
L 144.052834 -214.768752 
L 140.204369 -170.59911 
L 136.355903 -173.904942 
L 132.507438 -225.43347 
L 128.658972 -251.158182 
L 124.810507 -249.445232 
L 120.962041 -231.919227 
L 117.113576 -217.163664 
L 113.26511 -188.297298 
L 109.416644 -159.310598 
L 105.568179 -158.215267 
L 101.719713 -154.705981 
L 97.871248 -150.733771 
L 94.022782 -149.173419 
L 90.174317 -141.509995 
L 86.325851 -135.585446 
L 82.477386 -129.528866 
L 78.62892 -124.081523 
L 74.780455 -125.227077 
z
" style="stroke: #808080; stroke-opacity: 0.2"/>
    </defs>
    <g clip-path="url(#p500c1d13d0)">
     <use xlink:href="#mef12d40e7a" x="0" y="288" style="fill: #808080; fill-opacity: 0.2; stroke: #808080; stroke-opacity: 0.2"/>
    </g>
   </g>
   <g id="matplotlib.axis_1">
    <g id="xtick_1">
     <g id="line2d_1">
      <defs>
       <path id="mb2327c6017" d="M 0 0 
L 0 3.5 
" style="stroke: #000000; stroke-width: 0.8"/>
      </defs>
      <g>
       <use xlink:href="#mb2327c6017" x="105.568179" y="246.04" style="stroke: #000000; stroke-width: 0.8"/>
      </g>
     </g>
     <g id="text_1">
      <!-- 05-20 12 -->
      <g transform="translate(83.08771 260.638438) scale(0.1 -0.1)">
       <defs>
        <path id="DejaVuSans-30" d="M 2034 4250 
Q 1547 4250 1301 3770 
Q 1056 3291 1056 2328 
Q 1056 1369 1301 889 
Q 1547 409 2034 409 
Q 2525 409 2770 889 
Q 3016 1369 3016 2328 
Q 3016 3291 2770 3770 
Q 2525 4250 2034 4250 
z
M 2034 4750 
Q 2819 4750 3233 4129 
Q 3647 3509 3647 2328 
Q 3647 1150 3233 529 
Q 2819 -91 2034 -91 
Q 1250 -91 836 529 
Q 422 1150 422 2328 
Q 422 3509 836 4129 
Q 1250 4750 2034 4750 
z
" transform="scale(0.015625)"/>
        <path id="DejaVuSans-35" d="M 691 4666 
L 3169 4666 
L 3169 4134 
L 1269 4134 
L 1269 2991 
Q 1406 3038 1543 3061 
Q 1681 3084 1819 3084 
Q 2600 3084 3056 2656 
Q 3513 2228 3513 1497 
Q 3513 744 3044 326 
Q 2575 -91 1722 -91 
Q 1428 -91 1123 -41 
Q 819 9 494 109 
L 494 744 
Q 775 591 1075 516 
Q 1375 441 1709 441 
Q 2250 441 2565 725 
Q 2881 1009 2881 1497 
Q 2881 1984 2565 2268 
Q 2250 2553 1709 2553 
Q 1456 2553 1204 2497 
Q 953 2441 691 2322 
L 691 4666 
z
" transform="scale(0.015625)"/>
        <path id="DejaVuSans-2d" d="M 313 2009 
L 1997 2009 
L 1997 1497 
L 313 1497 
L 313 2009 
z
" transform="scale(0.015625)"/>
        <path id="DejaVuSans-32" d="M 1228 531 
L 3431 531 
L 3431 0 
L 469 0 
L 469 531 
Q 828 903 1448 1529 
Q 2069 2156 2228 2338 
Q 2531 2678 2651 2914 
Q 2772 3150 2772 3378 
Q 2772 3750 2511 3984 
Q 2250 4219 1831 4219 
Q 1534 4219 1204 4116 
Q 875 4013 500 3803 
L 500 4441 
Q 881 4594 1212 4672 
Q 1544 4750 1819 4750 
Q 2544 4750 2975 4387 
Q 3406 4025 3406 3419 
Q 3406 3131 3298 2873 
Q 3191 2616 2906 2266 
Q 2828 2175 2409 1742 
Q 1991 1309 1228 531 
z
" transform="scale(0.015625)"/>
        <path id="DejaVuSans-20" transform="scale(0.015625)"/>
        <path id="DejaVuSans-31" d="M 794 531 
L 1825 531 
L 1825 4091 
L 703 3866 
L 703 4441 
L 1819 4666 
L 2450 4666 
L 2450 531 
L 3481 531 
L 3481 0 
L 794 0 
L 794 531 
z
" transform="scale(0.015625)"/>
       </defs>
       <use xlink:href="#DejaVuSans-30"/>
       <use xlink:href="#DejaVuSans-35" transform="translate(63.623047 0)"/>
       <use xlink:href="#DejaVuSans-2d" transform="translate(127.246094 0)"/>
       <use xlink:href="#DejaVuSans-32" transform="translate(163.330078 0)"/>
       <use xlink:href="#DejaVuSans-30" transform="translate(226.953125 0)"/>
       <use xlink:href="#DejaVuSans-20" transform="translate(290.576172 0)"/>
       <use xlink:href="#DejaVuSans-31" transform="translate(322.363281 0)"/>
       <use xlink:href="#DejaVuSans-32" transform="translate(385.986328 0)"/>
      </g>
     </g>
    </g>
    <g id="xtick_2">
     <g id="line2d_2">
      <g>
       <use xlink:href="#mb2327c6017" x="197.931352" y="246.04" style="stroke: #000000; stroke-width: 0.8"/>
      </g>
     </g>
     <g id="text_2">
      <!-- 05-21 00 -->
      <g transform="translate(175.450883 260.638438) scale(0.1 -0.1)">
       <use xlink:href="#DejaVuSans-30"/>
       <use xlink:href="#DejaVuSans-35" transform="translate(63.623047 0)"/>
       <use xlink:href="#DejaVuSans-2d" transform="translate(127.246094 0)"/>
       <use xlink:href="#DejaVuSans-32" transform="translate(163.330078 0)"/>
       <use xlink:href="#DejaVuSans-31" transform="translate(226.953125 0)"/>
       <use xlink:href="#DejaVuSans-20" transform="translate(290.576172 0)"/>
       <use xlink:href="#DejaVuSans-30" transform="translate(322.363281 0)"/>
       <use xlink:href="#DejaVuSans-30" transform="translate(385.986328 0)"/>
      </g>
     </g>
    </g>
    <g id="xtick_3">
     <g id="line2d_3">
      <g>
       <use xlink:href="#mb2327c6017" x="290.294525" y="246.04" style="stroke: #000000; stroke-width: 0.8"/>
      </g>
     </g>
     <g id="text_3">
      <!-- 05-21 12 -->
      <g transform="translate(267.814056 260.638438) scale(0.1 -0.1)">
       <use xlink:href="#DejaVuSans-30"/>
       <use xlink:href="#DejaVuSans-35" transform="translate(63.623047 0)"/>
       <use xlink:href="#DejaVuSans-2d" transform="translate(127.246094 0)"/>
       <use xlink:href="#DejaVuSans-32" transform="translate(163.330078 0)"/>
       <use xlink:href="#DejaVuSans-31" transform="translate(226.953125 0)"/>
       <use xlink:href="#DejaVuSans-20" transform="translate(290.576172 0)"/>
       <use xlink:href="#DejaVuSans-31" transform="translate(322.363281 0)"/>
       <use xlink:href="#DejaVuSans-32" transform="translate(385.986328 0)"/>
      </g>
     </g>
    </g>
    <g id="xtick_4">
     <g id="line2d_4">
      <g>
       <use xlink:href="#mb2327c6017" x="382.657698" y="246.04" style="stroke: #000000; stroke-width: 0.8"/>
      </g>
     </g>
     <g id="text_4">
      <!-- 05-22 00 -->
      <g transform="translate(360.17723 260.638438) scale(0.1 -0.1)">
       <use xlink:href="#DejaVuSans-30"/>
       <use xlink:href="#DejaVuSans-35" transform="translate(63.623047 0)"/>
       <use xlink:href="#DejaVuSans-2d" transform="translate(127.246094 0)"/>
       <use xlink:href="#DejaVuSans-32" transform="translate(163.330078 0)"/>
       <use xlink:href="#DejaVuSans-32" transform="translate(226.953125 0)"/>
       <use xlink:href="#DejaVuSans-20" transform="translate(290.576172 0)"/>
       <use xlink:href="#DejaVuSans-30" transform="translate(322.363281 0)"/>
       <use xlink:href="#DejaVuSans-30" transform="translate(385.986328 0)"/>
      </g>
     </g>
    </g>
    <g id="xtick_5">
     <g id="line2d_5">
      <g>
       <use xlink:href="#mb2327c6017" x="475.020871" y="246.04" style="stroke: #000000; stroke-width: 0.8"/>
      </g>
     </g>
     <g id="text_5">
      <!-- 05-22 12 -->
      <g transform="translate(452.540403 260.638438) scale(0.1 -0.1)">
       <use xlink:href="#DejaVuSans-30"/>
       <use xlink:href="#DejaVuSans-35" transform="translate(63.623047 0)"/>
       <use xlink:href="#DejaVuSans-2d" transform="translate(127.246094 0)"/>
       <use xlink:href="#DejaVuSans-32" transform="translate(163.330078 0)"/>
       <use xlink:href="#DejaVuSans-32" transform="translate(226.953125 0)"/>
       <use xlink:href="#DejaVuSans-20" transform="translate(290.576172 0)"/>
       <use xlink:href="#DejaVuSans-31" transform="translate(322.363281 0)"/>
       <use xlink:href="#DejaVuSans-32" transform="translate(385.986328 0)"/>
      </g>
     </g>
    </g>
    <g id="xtick_6">
     <g id="line2d_6">
      <g>
       <use xlink:href="#mb2327c6017" x="567.384045" y="246.04" style="stroke: #000000; stroke-width: 0.8"/>
      </g>
     </g>
     <g id="text_6">
      <!-- 05-23 00 -->
      <g transform="translate(544.903576 260.638438) scale(0.1 -0.1)">
       <defs>
        <path id="DejaVuSans-33" d="M 2597 2516 
Q 3050 2419 3304 2112 
Q 3559 1806 3559 1356 
Q 3559 666 3084 287 
Q 2609 -91 1734 -91 
Q 1441 -91 1130 -33 
Q 819 25 488 141 
L 488 750 
Q 750 597 1062 519 
Q 1375 441 1716 441 
Q 2309 441 2620 675 
Q 2931 909 2931 1356 
Q 2931 1769 2642 2001 
Q 2353 2234 1838 2234 
L 1294 2234 
L 1294 2753 
L 1863 2753 
Q 2328 2753 2575 2939 
Q 2822 3125 2822 3475 
Q 2822 3834 2567 4026 
Q 2313 4219 1838 4219 
Q 1578 4219 1281 4162 
Q 984 4106 628 3988 
L 628 4550 
Q 988 4650 1302 4700 
Q 1616 4750 1894 4750 
Q 2613 4750 3031 4423 
Q 3450 4097 3450 3541 
Q 3450 3153 3228 2886 
Q 3006 2619 2597 2516 
z
" transform="scale(0.015625)"/>
       </defs>
       <use xlink:href="#DejaVuSans-30"/>
       <use xlink:href="#DejaVuSans-35" transform="translate(63.623047 0)"/>
       <use xlink:href="#DejaVuSans-2d" transform="translate(127.246094 0)"/>
       <use xlink:href="#DejaVuSans-32" transform="translate(163.330078 0)"/>
       <use xlink:href="#DejaVuSans-33" transform="translate(226.953125 0)"/>
       <use xlink:href="#DejaVuSans-20" transform="translate(290.576172 0)"/>
       <use xlink:href="#DejaVuSans-30" transform="translate(322.363281 0)"/>
       <use xlink:href="#DejaVuSans-30" transform="translate(385.986328 0)"/>
      </g>
     </g>
    </g>
    <g id="xtick_7">
     <g id="line2d_7">
      <g>
       <use xlink:href="#mb2327c6017" x="659.747218" y="246.04" style="stroke: #000000; stroke-width: 0.8"/>
      </g>
     </g>
     <g id="text_7">
      <!-- 05-23 12 -->
      <g transform="translate(637.266749 260.638438) scale(0.1 -0.1)">
       <use xlink:href="#DejaVuSans-30"/>
       <use xlink:href="#DejaVuSans-35" transform="translate(63.623047 0)"/>
       <use xlink:href="#DejaVuSans-2d" transform="translate(127.246094 0)"/>
       <use xlink:href="#DejaVuSans-32" transform="translate(163.330078 0)"/>
       <use xlink:href="#DejaVuSans-33" transform="translate(226.953125 0)"/>
       <use xlink:href="#DejaVuSans-20" transform="translate(290.576172 0)"/>
       <use xlink:href="#DejaVuSans-31" transform="translate(322.363281 0)"/>
       <use xlink:href="#DejaVuSans-32" transform="translate(385.986328 0)"/>
      </g>
     </g>
    </g>
    <g id="text_8">
     <!-- Tijd -->
     <g transform="translate(368.035 274.316562) scale(0.1 -0.1)">
      <defs>
       <path id="DejaVuSans-54" d="M -19 4666 
L 3928 4666 
L 3928 4134 
L 2272 4134 
L 2272 0 
L 1638 0 
L 1638 4134 
L -19 4134 
L -19 4666 
z
" transform="scale(0.015625)"/>
       <path id="DejaVuSans-69" d="M 603 3500 
L 1178 3500 
L 1178 0 
L 603 0 
L 603 3500 
z
M 603 4863 
L 1178 4863 
L 1178 4134 
L 603 4134 
L 603 4863 
z
" transform="scale(0.015625)"/>
       <path id="DejaVuSans-6a" d="M 603 3500 
L 1178 3500 
L 1178 -63 
Q 1178 -731 923 -1031 
Q 669 -1331 103 -1331 
L -116 -1331 
L -116 -844 
L 38 -844 
Q 366 -844 484 -692 
Q 603 -541 603 -63 
L 603 3500 
z
M 603 4863 
L 1178 4863 
L 1178 4134 
L 603 4134 
L 603 4863 
z
" transform="scale(0.015625)"/>
       <path id="DejaVuSans-64" d="M 2906 2969 
L 2906 4863 
L 3481 4863 
L 3481 0 
L 2906 0 
L 2906 525 
Q 2725 213 2448 61 
Q 2172 -91 1784 -91 
Q 1150 -91 751 415 
Q 353 922 353 1747 
Q 353 2572 751 3078 
Q 1150 3584 1784 3584 
Q 2172 3584 2448 3432 
Q 2725 3281 2906 2969 
z
M 947 1747 
Q 947 1113 1208 752 
Q 1469 391 1925 391 
Q 2381 391 2643 752 
Q 2906 1113 2906 1747 
Q 2906 2381 2643 2742 
Q 2381 3103 1925 3103 
Q 1469 3103 1208 2742 
Q 947 2381 947 1747 
z
" transform="scale(0.015625)"/>
      </defs>
      <use xlink:href="#DejaVuSans-54"/>
      <use xlink:href="#DejaVuSans-69" transform="translate(57.958984 0)"/>
      <use xlink:href="#DejaVuSans-6a" transform="translate(85.742188 0)"/>
      <use xlink:href="#DejaVuSans-64" transform="translate(113.525391 0)"/>
     </g>
    </g>
   </g>
   <g id="matplotlib.axis_2">
    <g id="ytick_1">
     <g id="line2d_8">
      <defs>
       <path id="m8ee29898e5" d="M 0 0 
L -3.5 0 
" style="stroke: #000000; stroke-width: 0.8"/>
      </defs>
      <g>
       <use xlink:href="#m8ee29898e5" x="44.57" y="207.871601" style="stroke: #000000; stroke-width: 0.8"/>
      </g>
     </g>
     <g id="text_9">
      <!-- 10 -->
      <g transform="translate(24.845 211.67082) scale(0.1 -0.1)">
       <use xlink:href="#DejaVuSans-31"/>
       <use xlink:href="#DejaVuSans-30" transform="translate(63.623047 0)"/>
      </g>
     </g>
    </g>
    <g id="ytick_2">
     <g id="line2d_9">
      <g>
       <use xlink:href="#m8ee29898e5" x="44.57" y="166.542945" style="stroke: #000000; stroke-width: 0.8"/>
      </g>
     </g>
     <g id="text_10">
      <!-- 20 -->
      <g transform="translate(24.845 170.342163) scale(0.1 -0.1)">
       <use xlink:href="#DejaVuSans-32"/>
       <use xlink:href="#DejaVuSans-30" transform="translate(63.623047 0)"/>
      </g>
     </g>
    </g>
    <g id="ytick_3">
     <g id="line2d_10">
      <g>
       <use xlink:href="#m8ee29898e5" x="44.57" y="125.214288" style="stroke: #000000; stroke-width: 0.8"/>
      </g>
     </g>
     <g id="text_11">
      <!-- 30 -->
      <g transform="translate(24.845 129.013507) scale(0.1 -0.1)">
       <use xlink:href="#DejaVuSans-33"/>
       <use xlink:href="#DejaVuSans-30" transform="translate(63.623047 0)"/>
      </g>
     </g>
    </g>
    <g id="ytick_4">
     <g id="line2d_11">
      <g>
       <use xlink:href="#m8ee29898e5" x="44.57" y="83.885632" style="stroke: #000000; stroke-width: 0.8"/>
      </g>
     </g>
     <g id="text_12">
      <!-- 40 -->
      <g transform="translate(24.845 87.68485) scale(0.1 -0.1)">
       <defs>
        <path id="DejaVuSans-34" d="M 2419 4116 
L 825 1625 
L 2419 1625 
L 2419 4116 
z
M 2253 4666 
L 3047 4666 
L 3047 1625 
L 3713 1625 
L 3713 1100 
L 3047 1100 
L 3047 0 
L 2419 0 
L 2419 1100 
L 313 1100 
L 313 1709 
L 2253 4666 
z
" transform="scale(0.015625)"/>
       </defs>
       <use xlink:href="#DejaVuSans-34"/>
       <use xlink:href="#DejaVuSans-30" transform="translate(63.623047 0)"/>
      </g>
     </g>
    </g>
    <g id="ytick_5">
     <g id="line2d_12">
      <g>
       <use xlink:href="#m8ee29898e5" x="44.57" y="42.556975" style="stroke: #000000; stroke-width: 0.8"/>
      </g>
     </g>
     <g id="text_13">
      <!-- 50 -->
      <g transform="translate(24.845 46.356194) scale(0.1 -0.1)">
       <use xlink:href="#DejaVuSans-35"/>
       <use xlink:href="#DejaVuSans-30" transform="translate(63.623047 0)"/>
      </g>
     </g>
    </g>
    <g id="text_14">
     <!-- Buiten temperatuur (°C) -->
     <g transform="translate(18.765312 197.355312) rotate(-90) scale(0.1 -0.1)">
      <defs>
       <path id="DejaVuSans-42" d="M 1259 2228 
L 1259 519 
L 2272 519 
Q 2781 519 3026 730 
Q 3272 941 3272 1375 
Q 3272 1813 3026 2020 
Q 2781 2228 2272 2228 
L 1259 2228 
z
M 1259 4147 
L 1259 2741 
L 2194 2741 
Q 2656 2741 2882 2914 
Q 3109 3088 3109 3444 
Q 3109 3797 2882 3972 
Q 2656 4147 2194 4147 
L 1259 4147 
z
M 628 4666 
L 2241 4666 
Q 2963 4666 3353 4366 
Q 3744 4066 3744 3513 
Q 3744 3084 3544 2831 
Q 3344 2578 2956 2516 
Q 3422 2416 3680 2098 
Q 3938 1781 3938 1306 
Q 3938 681 3513 340 
Q 3088 0 2303 0 
L 628 0 
L 628 4666 
z
" transform="scale(0.015625)"/>
       <path id="DejaVuSans-75" d="M 544 1381 
L 544 3500 
L 1119 3500 
L 1119 1403 
Q 1119 906 1312 657 
Q 1506 409 1894 409 
Q 2359 409 2629 706 
Q 2900 1003 2900 1516 
L 2900 3500 
L 3475 3500 
L 3475 0 
L 2900 0 
L 2900 538 
Q 2691 219 2414 64 
Q 2138 -91 1772 -91 
Q 1169 -91 856 284 
Q 544 659 544 1381 
z
M 1991 3584 
L 1991 3584 
z
" transform="scale(0.015625)"/>
       <path id="DejaVuSans-74" d="M 1172 4494 
L 1172 3500 
L 2356 3500 
L 2356 3053 
L 1172 3053 
L 1172 1153 
Q 1172 725 1289 603 
Q 1406 481 1766 481 
L 2356 481 
L 2356 0 
L 1766 0 
Q 1100 0 847 248 
Q 594 497 594 1153 
L 594 3053 
L 172 3053 
L 172 3500 
L 594 3500 
L 594 4494 
L 1172 4494 
z
" transform="scale(0.015625)"/>
       <path id="DejaVuSans-65" d="M 3597 1894 
L 3597 1613 
L 953 1613 
Q 991 1019 1311 708 
Q 1631 397 2203 397 
Q 2534 397 2845 478 
Q 3156 559 3463 722 
L 3463 178 
Q 3153 47 2828 -22 
Q 2503 -91 2169 -91 
Q 1331 -91 842 396 
Q 353 884 353 1716 
Q 353 2575 817 3079 
Q 1281 3584 2069 3584 
Q 2775 3584 3186 3129 
Q 3597 2675 3597 1894 
z
M 3022 2063 
Q 3016 2534 2758 2815 
Q 2500 3097 2075 3097 
Q 1594 3097 1305 2825 
Q 1016 2553 972 2059 
L 3022 2063 
z
" transform="scale(0.015625)"/>
       <path id="DejaVuSans-6e" d="M 3513 2113 
L 3513 0 
L 2938 0 
L 2938 2094 
Q 2938 2591 2744 2837 
Q 2550 3084 2163 3084 
Q 1697 3084 1428 2787 
Q 1159 2491 1159 1978 
L 1159 0 
L 581 0 
L 581 3500 
L 1159 3500 
L 1159 2956 
Q 1366 3272 1645 3428 
Q 1925 3584 2291 3584 
Q 2894 3584 3203 3211 
Q 3513 2838 3513 2113 
z
" transform="scale(0.015625)"/>
       <path id="DejaVuSans-6d" d="M 3328 2828 
Q 3544 3216 3844 3400 
Q 4144 3584 4550 3584 
Q 5097 3584 5394 3201 
Q 5691 2819 5691 2113 
L 5691 0 
L 5113 0 
L 5113 2094 
Q 5113 2597 4934 2840 
Q 4756 3084 4391 3084 
Q 3944 3084 3684 2787 
Q 3425 2491 3425 1978 
L 3425 0 
L 2847 0 
L 2847 2094 
Q 2847 2600 2669 2842 
Q 2491 3084 2119 3084 
Q 1678 3084 1418 2786 
Q 1159 2488 1159 1978 
L 1159 0 
L 581 0 
L 581 3500 
L 1159 3500 
L 1159 2956 
Q 1356 3278 1631 3431 
Q 1906 3584 2284 3584 
Q 2666 3584 2933 3390 
Q 3200 3197 3328 2828 
z
" transform="scale(0.015625)"/>
       <path id="DejaVuSans-70" d="M 1159 525 
L 1159 -1331 
L 581 -1331 
L 581 3500 
L 1159 3500 
L 1159 2969 
Q 1341 3281 1617 3432 
Q 1894 3584 2278 3584 
Q 2916 3584 3314 3078 
Q 3713 2572 3713 1747 
Q 3713 922 3314 415 
Q 2916 -91 2278 -91 
Q 1894 -91 1617 61 
Q 1341 213 1159 525 
z
M 3116 1747 
Q 3116 2381 2855 2742 
Q 2594 3103 2138 3103 
Q 1681 3103 1420 2742 
Q 1159 2381 1159 1747 
Q 1159 1113 1420 752 
Q 1681 391 2138 391 
Q 2594 391 2855 752 
Q 3116 1113 3116 1747 
z
" transform="scale(0.015625)"/>
       <path id="DejaVuSans-72" d="M 2631 2963 
Q 2534 3019 2420 3045 
Q 2306 3072 2169 3072 
Q 1681 3072 1420 2755 
Q 1159 2438 1159 1844 
L 1159 0 
L 581 0 
L 581 3500 
L 1159 3500 
L 1159 2956 
Q 1341 3275 1631 3429 
Q 1922 3584 2338 3584 
Q 2397 3584 2469 3576 
Q 2541 3569 2628 3553 
L 2631 2963 
z
" transform="scale(0.015625)"/>
       <path id="DejaVuSans-61" d="M 2194 1759 
Q 1497 1759 1228 1600 
Q 959 1441 959 1056 
Q 959 750 1161 570 
Q 1363 391 1709 391 
Q 2188 391 2477 730 
Q 2766 1069 2766 1631 
L 2766 1759 
L 2194 1759 
z
M 3341 1997 
L 3341 0 
L 2766 0 
L 2766 531 
Q 2569 213 2275 61 
Q 1981 -91 1556 -91 
Q 1019 -91 701 211 
Q 384 513 384 1019 
Q 384 1609 779 1909 
Q 1175 2209 1959 2209 
L 2766 2209 
L 2766 2266 
Q 2766 2663 2505 2880 
Q 2244 3097 1772 3097 
Q 1472 3097 1187 3025 
Q 903 2953 641 2809 
L 641 3341 
Q 956 3463 1253 3523 
Q 1550 3584 1831 3584 
Q 2591 3584 2966 3190 
Q 3341 2797 3341 1997 
z
" transform="scale(0.015625)"/>
       <path id="DejaVuSans-28" d="M 1984 4856 
Q 1566 4138 1362 3434 
Q 1159 2731 1159 2009 
Q 1159 1288 1364 580 
Q 1569 -128 1984 -844 
L 1484 -844 
Q 1016 -109 783 600 
Q 550 1309 550 2009 
Q 550 2706 781 3412 
Q 1013 4119 1484 4856 
L 1984 4856 
z
" transform="scale(0.015625)"/>
       <path id="DejaVuSans-b0" d="M 1600 4347 
Q 1350 4347 1178 4173 
Q 1006 4000 1006 3750 
Q 1006 3503 1178 3333 
Q 1350 3163 1600 3163 
Q 1850 3163 2022 3333 
Q 2194 3503 2194 3750 
Q 2194 3997 2020 4172 
Q 1847 4347 1600 4347 
z
M 1600 4750 
Q 1800 4750 1984 4673 
Q 2169 4597 2303 4453 
Q 2447 4313 2519 4134 
Q 2591 3956 2591 3750 
Q 2591 3338 2302 3052 
Q 2013 2766 1594 2766 
Q 1172 2766 890 3047 
Q 609 3328 609 3750 
Q 609 4169 896 4459 
Q 1184 4750 1600 4750 
z
" transform="scale(0.015625)"/>
       <path id="DejaVuSans-43" d="M 4122 4306 
L 4122 3641 
Q 3803 3938 3442 4084 
Q 3081 4231 2675 4231 
Q 1875 4231 1450 3742 
Q 1025 3253 1025 2328 
Q 1025 1406 1450 917 
Q 1875 428 2675 428 
Q 3081 428 3442 575 
Q 3803 722 4122 1019 
L 4122 359 
Q 3791 134 3420 21 
Q 3050 -91 2638 -91 
Q 1578 -91 968 557 
Q 359 1206 359 2328 
Q 359 3453 968 4101 
Q 1578 4750 2638 4750 
Q 3056 4750 3426 4639 
Q 3797 4528 4122 4306 
z
" transform="scale(0.015625)"/>
       <path id="DejaVuSans-29" d="M 513 4856 
L 1013 4856 
Q 1481 4119 1714 3412 
Q 1947 2706 1947 2009 
Q 1947 1309 1714 600 
Q 1481 -109 1013 -844 
L 513 -844 
Q 928 -128 1133 580 
Q 1338 1288 1338 2009 
Q 1338 2731 1133 3434 
Q 928 4138 513 4856 
z
" transform="scale(0.015625)"/>
      </defs>
      <use xlink:href="#DejaVuSans-42"/>
      <use xlink:href="#DejaVuSans-75" transform="translate(68.603516 0)"/>
      <use xlink:href="#DejaVuSans-69" transform="translate(131.982422 0)"/>
      <use xlink:href="#DejaVuSans-74" transform="translate(159.765625 0)"/>
      <use xlink:href="#DejaVuSans-65" transform="translate(198.974609 0)"/>
      <use xlink:href="#DejaVuSans-6e" transform="translate(260.498047 0)"/>
      <use xlink:href="#DejaVuSans-20" transform="translate(323.876953 0)"/>
      <use xlink:href="#DejaVuSans-74" transform="translate(355.664062 0)"/>
      <use xlink:href="#DejaVuSans-65" transform="translate(394.873047 0)"/>
      <use xlink:href="#DejaVuSans-6d" transform="translate(456.396484 0)"/>
      <use xlink:href="#DejaVuSans-70" transform="translate(553.808594 0)"/>
      <use xlink:href="#DejaVuSans-65" transform="translate(617.285156 0)"/>
      <use xlink:href="#DejaVuSans-72" transform="translate(678.808594 0)"/>
      <use xlink:href="#DejaVuSans-61" transform="translate(719.921875 0)"/>
      <use xlink:href="#DejaVuSans-74" transform="translate(781.201172 0)"/>
      <use xlink:href="#DejaVuSans-75" transform="translate(820.410156 0)"/>
      <use xlink:href="#DejaVuSans-75" transform="translate(883.789062 0)"/>
      <use xlink:href="#DejaVuSans-72" transform="translate(947.167969 0)"/>
      <use xlink:href="#DejaVuSans-20" transform="translate(988.28125 0)"/>
      <use xlink:href="#DejaVuSans-28" transform="translate(1020.068359 0)"/>
      <use xlink:href="#DejaVuSans-b0" transform="translate(1059.082031 0)"/>
      <use xlink:href="#DejaVuSans-43" transform="translate(1109.082031 0)"/>
      <use xlink:href="#DejaVuSans-29" transform="translate(1178.90625 0)"/>
     </g>
    </g>
   </g>
   <g id="line2d_13">
    <path d="M 74.780455 181.007974 
L 78.62892 179.217066 
L 82.477386 176.32406 
L 86.325851 171.91567 
L 90.174317 166.680707 
L 94.022782 156.486305 
L 97.871248 149.87372 
L 101.719713 142.434562 
L 105.568179 138.852745 
L 109.416644 136.786312 
L 113.26511 136.373025 
L 117.113576 138.852745 
L 120.962041 138.990507 
L 128.658972 142.847848 
L 132.507438 149.735958 
L 136.355903 153.04225 
L 140.204369 158.483857 
L 144.052834 162.272317 
L 147.9013 164.33875 
L 151.749765 167.093993 
L 155.598231 169.573713 
L 159.446697 173.017767 
L 167.143628 181.97231 
L 170.992093 184.589791 
L 174.840559 187.896084 
L 178.689024 190.375803 
L 182.53749 191.615663 
L 186.385955 193.406571 
L 190.234421 195.335242 
L 194.082887 196.437339 
L 197.931352 196.712864 
L 201.779818 197.952724 
L 205.628283 198.641535 
L 209.476749 199.743632 
L 213.325214 200.983492 
L 217.17368 201.810065 
L 221.022145 202.361114 
L 224.870611 203.325449 
L 228.719076 204.152022 
L 232.567542 203.738735 
L 236.416008 202.7744 
L 240.264473 201.121254 
L 244.112939 198.503772 
L 247.961404 194.646431 
L 251.80987 189.273706 
L 255.658335 185.554127 
L 259.506801 184.52091 
L 263.355266 182.385596 
L 267.203732 180.870212 
L 271.052197 179.768115 
L 274.900663 174.808676 
L 278.749129 170.813572 
L 282.597594 165.854134 
L 286.44606 158.001689 
L 290.294525 156.21078 
L 294.142991 155.384207 
L 297.991456 155.659732 
L 301.839922 163.030009 
L 305.688387 159.93036 
L 309.536853 162.547841 
L 313.385318 166.542945 
L 317.233784 165.578609 
L 321.08225 170.400286 
L 324.930715 173.293292 
L 328.779181 179.354828 
L 332.627646 181.834548 
L 336.476112 181.696785 
L 340.324577 183.349932 
L 344.173043 186.656224 
L 348.021508 189.135944 
L 351.869974 191.477901 
L 355.718439 192.166712 
L 359.566905 192.71776 
L 363.415371 194.095382 
L 367.263836 195.335242 
L 371.112302 197.539437 
L 374.960767 199.192583 
L 378.809233 201.810065 
L 382.657698 202.7744 
L 386.506164 204.840833 
L 390.354629 206.769504 
L 394.203095 208.009363 
L 398.051561 208.284888 
L 401.900026 206.356217 
L 405.748492 205.942931 
L 413.445423 204.289784 
L 417.293888 203.738735 
L 421.142354 203.738735 
L 424.990819 204.152022 
L 428.839285 204.840833 
L 432.68775 204.289784 
L 436.536216 201.672303 
L 440.384682 198.779297 
L 444.233147 195.059718 
L 448.081613 195.886291 
L 451.930078 198.36601 
L 455.778544 197.263913 
L 459.627009 195.610766 
L 463.475475 192.304474 
L 467.32394 191.202376 
L 471.172406 184.038743 
L 475.020871 182.385596 
L 478.869337 178.803779 
L 482.717803 172.466719 
L 486.566268 185.554127 
L 490.414734 178.666017 
L 494.263199 177.977206 
L 498.111665 178.390493 
L 501.96013 181.421261 
L 505.808596 181.214618 
L 509.657061 185.14084 
L 513.505527 183.763218 
L 517.353992 185.829651 
L 521.202458 188.722657 
L 525.050924 190.651328 
L 528.899389 194.370907 
L 532.747855 194.233144 
L 536.59632 197.263913 
L 540.444786 200.983492 
L 544.293251 203.876498 
L 548.141717 205.391882 
L 551.990182 204.289784 
L 555.838648 205.805168 
L 559.687113 206.218455 
L 563.535579 208.284888 
L 567.384045 209.524747 
L 571.23251 211.177894 
L 575.080976 212.142229 
L 578.929441 212.693278 
L 582.777907 213.519851 
L 586.626372 213.795375 
L 590.474838 213.933137 
L 594.323303 214.346424 
L 598.171769 214.484186 
L 609.717166 215.724046 
L 613.565631 214.0709 
L 617.414097 212.555516 
L 621.262562 211.315656 
L 625.111028 209.66251 
L 628.959493 204.427546 
L 632.807959 201.810065 
L 636.656424 202.912162 
L 640.50489 199.812513 
L 640.50489 199.812513 
" clip-path="url(#p500c1d13d0)" style="fill: none; stroke: #1f77b4; stroke-width: 2; stroke-linecap: square"/>
   </g>
   <g id="line2d_14">
    <path d="M 74.780455 195.989612 
L 78.62892 191.776385 
L 82.477386 188.722657 
L 86.325851 185.898532 
L 90.174317 182.925165 
L 94.022782 177.644281 
L 97.871248 172.845565 
L 105.568179 162.834846 
L 109.416644 159.35635 
L 113.26511 151.216901 
L 117.113576 146.099036 
L 120.962041 137.383281 
L 124.810507 130.460731 
L 128.658972 128.176175 
L 132.507438 135.454611 
L 136.355903 150.355887 
L 140.204369 151.722029 
L 144.052834 146.257462 
L 147.9013 146.027859 
L 151.749765 149.035666 
L 155.598231 153.191493 
L 159.446697 162.593762 
L 163.295162 169.367069 
L 167.143628 174.579072 
L 170.992093 178.574176 
L 174.840559 182.110072 
L 182.53749 190.536526 
L 186.385955 193.31473 
L 190.234421 195.243401 
L 194.082887 197.011349 
L 197.931352 198.526733 
L 201.779818 200.294681 
L 209.476749 204.197943 
L 213.325214 205.759248 
L 217.17368 206.930226 
L 221.022145 207.951962 
L 224.870611 208.468571 
L 228.719076 207.974923 
L 232.567542 207.274632 
L 236.416008 207.251671 
L 240.264473 206.849865 
L 244.112939 204.840833 
L 247.961404 202.292233 
L 255.658335 196.058493 
L 259.506801 193.601734 
L 263.355266 190.880931 
L 267.203732 189.457389 
L 271.052197 187.64352 
L 278.749129 180.962054 
L 282.597594 178.757859 
L 286.44606 177.196554 
L 290.294525 175.06124 
L 294.142991 172.099353 
L 297.991456 172.489679 
L 301.839922 169.470391 
L 305.688387 162.272317 
L 309.536853 160.665091 
L 313.385318 167.886126 
L 317.233784 173.100425 
L 321.08225 175.290844 
L 324.930715 173.522895 
L 328.779181 168.829797 
L 332.627646 172.443758 
L 336.476112 175.405645 
L 340.324577 183.108848 
L 344.173043 184.245386 
L 348.021508 184.796435 
L 351.869974 188.171608 
L 355.718439 189.824754 
L 359.566905 190.306922 
L 363.415371 189.893636 
L 367.263836 193.33769 
L 371.112302 196.575102 
L 374.960767 198.113446 
L 378.809233 198.928539 
L 382.657698 202.471323 
L 386.506164 203.79384 
L 390.354629 204.895938 
L 394.203095 205.171462 
L 398.051561 205.564084 
L 401.900026 204.783432 
L 405.748492 204.921194 
L 409.596957 204.484947 
L 413.445423 204.370146 
L 417.293888 204.794912 
L 421.142354 204.978595 
L 424.990819 204.771952 
L 428.839285 204.163502 
L 432.68775 204.106101 
L 436.536216 203.830577 
L 440.384682 202.935123 
L 444.233147 200.949051 
L 448.081613 198.618574 
L 455.778544 197.160591 
L 459.627009 195.702608 
L 463.475475 193.911699 
L 471.172406 187.758322 
L 475.020871 186.36922 
L 478.869337 183.85506 
L 482.717803 177.357276 
L 486.566268 171.399062 
L 490.414734 178.069048 
L 494.263199 169.596673 
L 498.111665 172.638921 
L 501.96013 165.119402 
L 505.808596 167.335077 
L 509.657061 179.423709 
L 513.505527 176.668465 
L 517.353992 179.745154 
L 521.202458 175.026799 
L 525.050924 174.108385 
L 528.899389 182.775922 
L 532.747855 185.14084 
L 536.59632 190.78909 
L 540.444786 193.29177 
L 544.293251 193.888739 
L 548.141717 198.618574 
L 551.990182 199.835473 
L 555.838648 204.03722 
L 559.687113 204.289784 
L 567.384045 207.251671 
L 575.080976 209.731391 
L 578.929441 210.190598 
L 582.777907 210.764607 
L 586.626372 211.464898 
L 590.474838 212.015947 
L 594.323303 211.935586 
L 598.171769 213.118044 
L 602.020235 213.565772 
L 605.8687 213.760935 
L 609.717166 213.577252 
L 613.565631 212.658837 
L 617.414097 212.762159 
L 621.262562 210.799048 
L 625.111028 209.949514 
L 632.807959 206.999107 
L 636.656424 205.30004 
L 640.50489 205.350553 
L 644.353356 204.117582 
L 648.201821 211.866705 
L 652.050287 209.800272 
L 655.898752 207.940482 
L 659.747218 204.840833 
L 663.595683 202.981043 
L 667.444149 201.947827 
L 671.292614 197.12615 
L 675.14108 201.53454 
L 678.989545 200.019156 
L 678.989545 200.019156 
" clip-path="url(#p500c1d13d0)" style="fill: none; stroke-dasharray: 5.55,2.4; stroke-dashoffset: 0; stroke: #808080; stroke-width: 1.5"/>
   </g>
   <g id="patch_3">
    <path d="M 44.57 246.04 
L 44.57 26.88 
" style="fill: none; stroke: #000000; stroke-width: 0.8; stroke-linejoin: miter; stroke-linecap: square"/>
   </g>
   <g id="patch_4">
    <path d="M 709.2 246.04 
L 709.2 26.88 
" style="fill: none; stroke: #000000; stroke-width: 0.8; stroke-linejoin: miter; stroke-linecap: square"/>
   </g>
   <g id="patch_5">
    <path d="M 44.57 246.04 
L 709.2 246.04 
" style="fill: none; stroke: #000000; stroke-width: 0.8; stroke-linejoin: miter; stroke-linecap: square"/>
   </g>
   <g id="patch_6">
    <path d="M 44.57 26.88 
L 709.2 26.88 
" style="fill: none; stroke: #000000; stroke-width: 0.8; stroke-linejoin: miter; stroke-linecap: square"/>
   </g>
   <g id="text_15">
    <!-- Buiten temperatuur - v001/c00004/d001 -->
    <g transform="translate(254.91625 20.88) scale(0.12 -0.12)">
     <defs>
      <path id="DejaVuSans-76" d="M 191 3500 
L 800 3500 
L 1894 563 
L 2988 3500 
L 3597 3500 
L 2284 0 
L 1503 0 
L 191 3500 
z
" transform="scale(0.015625)"/>
      <path id="DejaVuSans-2f" d="M 1625 4666 
L 2156 4666 
L 531 -594 
L 0 -594 
L 1625 4666 
z
" transform="scale(0.015625)"/>
      <path id="DejaVuSans-63" d="M 3122 3366 
L 3122 2828 
Q 2878 2963 2633 3030 
Q 2388 3097 2138 3097 
Q 1578 3097 1268 2742 
Q 959 2388 959 1747 
Q 959 1106 1268 751 
Q 1578 397 2138 397 
Q 2388 397 2633 464 
Q 2878 531 3122 666 
L 3122 134 
Q 2881 22 2623 -34 
Q 2366 -91 2075 -91 
Q 1284 -91 818 406 
Q 353 903 353 1747 
Q 353 2603 823 3093 
Q 1294 3584 2113 3584 
Q 2378 3584 2631 3529 
Q 2884 3475 3122 3366 
z
" transform="scale(0.015625)"/>
     </defs>
     <use xlink:href="#DejaVuSans-42"/>
     <use xlink:href="#DejaVuSans-75" transform="translate(68.603516 0)"/>
     <use xlink:href="#DejaVuSans-69" transform="translate(131.982422 0)"/>
     <use xlink:href="#DejaVuSans-74" transform="translate(159.765625 0)"/>
     <use xlink:href="#DejaVuSans-65" transform="translate(198.974609 0)"/>
     <use xlink:href="#DejaVuSans-6e" transform="translate(260.498047 0)"/>
     <use xlink:href="#DejaVuSans-20" transform="translate(323.876953 0)"/>
     <use xlink:href="#DejaVuSans-74" transform="translate(355.664062 0)"/>
     <use xlink:href="#DejaVuSans-65" transform="translate(394.873047 0)"/>
     <use xlink:href="#DejaVuSans-6d" transform="translate(456.396484 0)"/>
     <use xlink:href="#DejaVuSans-70" transform="translate(553.808594 0)"/>
     <use xlink:href="#DejaVuSans-65" transform="translate(617.285156 0)"/>
     <use xlink:href="#DejaVuSans-72" transform="translate(678.808594 0)"/>
     <use xlink:href="#DejaVuSans-61" transform="translate(719.921875 0)"/>
     <use xlink:href="#DejaVuSans-74" transform="translate(781.201172 0)"/>
     <use xlink:href="#DejaVuSans-75" transform="translate(820.410156 0)"/>
     <use xlink:href="#DejaVuSans-75" transform="translate(883.789062 0)"/>
     <use xlink:href="#DejaVuSans-72" transform="translate(947.167969 0)"/>
     <use xlink:href="#DejaVuSans-20" transform="translate(988.28125 0)"/>
     <use xlink:href="#DejaVuSans-2d" transform="translate(1020.068359 0)"/>
     <use xlink:href="#DejaVuSans-20" transform="translate(1056.152344 0)"/>
     <use xlink:href="#DejaVuSans-76" transform="translate(1087.939453 0)"/>
     <use xlink:href="#DejaVuSans-30" transform="translate(1147.119141 0)"/>
     <use xlink:href="#DejaVuSans-30" transform="translate(1210.742188 0)"/>
     <use xlink:href="#DejaVuSans-31" transform="translate(1274.365234 0)"/>
     <use xlink:href="#DejaVuSans-2f" transform="translate(1337.988281 0)"/>
     <use xlink:href="#DejaVuSans-63" transform="translate(1371.679688 0)"/>
     <use xlink:href="#DejaVuSans-30" transform="translate(1426.660156 0)"/>
     <use xlink:href="#DejaVuSans-30" transform="translate(1490.283203 0)"/>
     <use xlink:href="#DejaVuSans-30" transform="translate(1553.90625 0)"/>
     <use xlink:href="#DejaVuSans-30" transform="translate(1617.529297 0)"/>
     <use xlink:href="#DejaVuSans-34" transform="translate(1681.152344 0)"/>
     <use xlink:href="#DejaVuSans-2f" transform="translate(1744.775391 0)"/>
     <use xlink:href="#DejaVuSans-64" transform="translate(1778.466797 0)"/>
     <use xlink:href="#DejaVuSans-30" transform="translate(1841.943359 0)"/>
     <use xlink:href="#DejaVuSans-30" transform="translate(1905.566406 0)"/>
     <use xlink:href="#DejaVuSans-31" transform="translate(1969.189453 0)"/>
    </g>
   </g>
   <g id="legend_1">
    <g id="patch_7">
     <path d="M 551.25625 78.914375 
L 702.2 78.914375 
Q 704.2 78.914375 704.2 76.914375 
L 704.2 33.88 
Q 704.2 31.88 702.2 31.88 
L 551.25625 31.88 
Q 549.25625 31.88 549.25625 33.88 
L 549.25625 76.914375 
Q 549.25625 78.914375 551.25625 78.914375 
z
" style="fill: #ffffff; opacity: 0.8; stroke: #cccccc; stroke-linejoin: miter"/>
    </g>
    <g id="line2d_15">
     <path d="M 553.25625 39.978438 
L 563.25625 39.978438 
L 573.25625 39.978438 
" style="fill: none; stroke: #1f77b4; stroke-width: 2; stroke-linecap: square"/>
    </g>
    <g id="text_16">
     <!-- Hive -->
     <g transform="translate(581.25625 43.478438) scale(0.1 -0.1)">
      <defs>
       <path id="DejaVuSans-48" d="M 628 4666 
L 1259 4666 
L 1259 2753 
L 3553 2753 
L 3553 4666 
L 4184 4666 
L 4184 0 
L 3553 0 
L 3553 2222 
L 1259 2222 
L 1259 0 
L 628 0 
L 628 4666 
z
" transform="scale(0.015625)"/>
      </defs>
      <use xlink:href="#DejaVuSans-48"/>
      <use xlink:href="#DejaVuSans-69" transform="translate(75.195312 0)"/>
      <use xlink:href="#DejaVuSans-76" transform="translate(102.978516 0)"/>
      <use xlink:href="#DejaVuSans-65" transform="translate(162.158203 0)"/>
     </g>
    </g>
    <g id="line2d_16">
     <path d="M 553.25625 54.656563 
L 563.25625 54.656563 
L 573.25625 54.656563 
" style="fill: none; stroke-dasharray: 5.55,2.4; stroke-dashoffset: 0; stroke: #808080; stroke-width: 1.5"/>
    </g>
    <g id="text_17">
     <!-- Gemiddelde (alle hives) -->
     <g transform="translate(581.25625 58.156563) scale(0.1 -0.1)">
      <defs>
       <path id="DejaVuSans-47" d="M 3809 666 
L 3809 1919 
L 2778 1919 
L 2778 2438 
L 4434 2438 
L 4434 434 
Q 4069 175 3628 42 
Q 3188 -91 2688 -91 
Q 1594 -91 976 548 
Q 359 1188 359 2328 
Q 359 3472 976 4111 
Q 1594 4750 2688 4750 
Q 3144 4750 3555 4637 
Q 3966 4525 4313 4306 
L 4313 3634 
Q 3963 3931 3569 4081 
Q 3175 4231 2741 4231 
Q 1884 4231 1454 3753 
Q 1025 3275 1025 2328 
Q 1025 1384 1454 906 
Q 1884 428 2741 428 
Q 3075 428 3337 486 
Q 3600 544 3809 666 
z
" transform="scale(0.015625)"/>
       <path id="DejaVuSans-6c" d="M 603 4863 
L 1178 4863 
L 1178 0 
L 603 0 
L 603 4863 
z
" transform="scale(0.015625)"/>
       <path id="DejaVuSans-68" d="M 3513 2113 
L 3513 0 
L 2938 0 
L 2938 2094 
Q 2938 2591 2744 2837 
Q 2550 3084 2163 3084 
Q 1697 3084 1428 2787 
Q 1159 2491 1159 1978 
L 1159 0 
L 581 0 
L 581 4863 
L 1159 4863 
L 1159 2956 
Q 1366 3272 1645 3428 
Q 1925 3584 2291 3584 
Q 2894 3584 3203 3211 
Q 3513 2838 3513 2113 
z
" transform="scale(0.015625)"/>
       <path id="DejaVuSans-73" d="M 2834 3397 
L 2834 2853 
Q 2591 2978 2328 3040 
Q 2066 3103 1784 3103 
Q 1356 3103 1142 2972 
Q 928 2841 928 2578 
Q 928 2378 1081 2264 
Q 1234 2150 1697 2047 
L 1894 2003 
Q 2506 1872 2764 1633 
Q 3022 1394 3022 966 
Q 3022 478 2636 193 
Q 2250 -91 1575 -91 
Q 1294 -91 989 -36 
Q 684 19 347 128 
L 347 722 
Q 666 556 975 473 
Q 1284 391 1588 391 
Q 1994 391 2212 530 
Q 2431 669 2431 922 
Q 2431 1156 2273 1281 
Q 2116 1406 1581 1522 
L 1381 1569 
Q 847 1681 609 1914 
Q 372 2147 372 2553 
Q 372 3047 722 3315 
Q 1072 3584 1716 3584 
Q 2034 3584 2315 3537 
Q 2597 3491 2834 3397 
z
" transform="scale(0.015625)"/>
      </defs>
      <use xlink:href="#DejaVuSans-47"/>
      <use xlink:href="#DejaVuSans-65" transform="translate(77.490234 0)"/>
      <use xlink:href="#DejaVuSans-6d" transform="translate(139.013672 0)"/>
      <use xlink:href="#DejaVuSans-69" transform="translate(236.425781 0)"/>
      <use xlink:href="#DejaVuSans-64" transform="translate(264.208984 0)"/>
      <use xlink:href="#DejaVuSans-64" transform="translate(327.685547 0)"/>
      <use xlink:href="#DejaVuSans-65" transform="translate(391.162109 0)"/>
      <use xlink:href="#DejaVuSans-6c" transform="translate(452.685547 0)"/>
      <use xlink:href="#DejaVuSans-64" transform="translate(480.46875 0)"/>
      <use xlink:href="#DejaVuSans-65" transform="translate(543.945312 0)"/>
      <use xlink:href="#DejaVuSans-20" transform="translate(605.46875 0)"/>
      <use xlink:href="#DejaVuSans-28" transform="translate(637.255859 0)"/>
      <use xlink:href="#DejaVuSans-61" transform="translate(676.269531 0)"/>
      <use xlink:href="#DejaVuSans-6c" transform="translate(737.548828 0)"/>
      <use xlink:href="#DejaVuSans-6c" transform="translate(765.332031 0)"/>
      <use xlink:href="#DejaVuSans-65" transform="translate(793.115234 0)"/>
      <use xlink:href="#DejaVuSans-20" transform="translate(854.638672 0)"/>
      <use xlink:href="#DejaVuSans-68" transform="translate(886.425781 0)"/>
      <use xlink:href="#DejaVuSans-69" transform="translate(949.804688 0)"/>
      <use xlink:href="#DejaVuSans-76" transform="translate(977.587891 0)"/>
      <use xlink:href="#DejaVuSans-65" transform="translate(1036.767578 0)"/>
      <use xlink:href="#DejaVuSans-73" transform="translate(1098.291016 0)"/>
      <use xlink:href="#DejaVuSans-29" transform="translate(1150.390625 0)"/>
     </g>
    </g>
    <g id="patch_8">
     <path d="M 553.25625 72.834688 
L 573.25625 72.834688 
L 573.25625 65.834688 
L 553.25625 65.834688 
z
" style="fill: #808080; fill-opacity: 0.2; stroke: #808080; stroke-opacity: 0.2; stroke-linejoin: miter"/>
    </g>
    <g id="text_18">
     <!-- ±2 Std Dev -->
     <g transform="translate(581.25625 72.834688) scale(0.1 -0.1)">
      <defs>
       <path id="DejaVuSans-b1" d="M 2944 4013 
L 2944 2803 
L 4684 2803 
L 4684 2272 
L 2944 2272 
L 2944 1063 
L 2419 1063 
L 2419 2272 
L 678 2272 
L 678 2803 
L 2419 2803 
L 2419 4013 
L 2944 4013 
z
M 678 531 
L 4684 531 
L 4684 0 
L 678 0 
L 678 531 
z
" transform="scale(0.015625)"/>
       <path id="DejaVuSans-53" d="M 3425 4513 
L 3425 3897 
Q 3066 4069 2747 4153 
Q 2428 4238 2131 4238 
Q 1616 4238 1336 4038 
Q 1056 3838 1056 3469 
Q 1056 3159 1242 3001 
Q 1428 2844 1947 2747 
L 2328 2669 
Q 3034 2534 3370 2195 
Q 3706 1856 3706 1288 
Q 3706 609 3251 259 
Q 2797 -91 1919 -91 
Q 1588 -91 1214 -16 
Q 841 59 441 206 
L 441 856 
Q 825 641 1194 531 
Q 1563 422 1919 422 
Q 2459 422 2753 634 
Q 3047 847 3047 1241 
Q 3047 1584 2836 1778 
Q 2625 1972 2144 2069 
L 1759 2144 
Q 1053 2284 737 2584 
Q 422 2884 422 3419 
Q 422 4038 858 4394 
Q 1294 4750 2059 4750 
Q 2388 4750 2728 4690 
Q 3069 4631 3425 4513 
z
" transform="scale(0.015625)"/>
       <path id="DejaVuSans-44" d="M 1259 4147 
L 1259 519 
L 2022 519 
Q 2988 519 3436 956 
Q 3884 1394 3884 2338 
Q 3884 3275 3436 3711 
Q 2988 4147 2022 4147 
L 1259 4147 
z
M 628 4666 
L 1925 4666 
Q 3281 4666 3915 4102 
Q 4550 3538 4550 2338 
Q 4550 1131 3912 565 
Q 3275 0 1925 0 
L 628 0 
L 628 4666 
z
" transform="scale(0.015625)"/>
      </defs>
      <use xlink:href="#DejaVuSans-b1"/>
      <use xlink:href="#DejaVuSans-32" transform="translate(83.789062 0)"/>
      <use xlink:href="#DejaVuSans-20" transform="translate(147.412109 0)"/>
      <use xlink:href="#DejaVuSans-53" transform="translate(179.199219 0)"/>
      <use xlink:href="#DejaVuSans-74" transform="translate(242.675781 0)"/>
      <use xlink:href="#DejaVuSans-64" transform="translate(281.884766 0)"/>
      <use xlink:href="#DejaVuSans-20" transform="translate(345.361328 0)"/>
      <use xlink:href="#DejaVuSans-44" transform="translate(377.148438 0)"/>
      <use xlink:href="#DejaVuSans-65" transform="translate(454.150391 0)"/>
      <use xlink:href="#DejaVuSans-76" transform="translate(515.673828 0)"/>
     </g>
    </g>
   </g>
  </g>
 </g>
 <defs>
  <clipPath id="p500c1d13d0">
   <rect x="44.57" y="26.88" width="664.63" height="219.16"/>
  </clipPath>
 </defs>
</svg>
