<?xml version="1.0" encoding="utf-8" standalone="no"?>
<!DOCTYPE svg PUBLIC "-//W3C//DTD SVG 1.1//EN"
  "http://www.w3.org/Graphics/SVG/1.1/DTD/svg11.dtd">
<svg xmlns:xlink="http://www.w3.org/1999/xlink" width="720pt" height="288pt" viewBox="0 0 720 288" xmlns="http://www.w3.org/2000/svg" version="1.1">
 <metadata>
  <rdf:RDF xmlns:dc="http://purl.org/dc/elements/1.1/" xmlns:cc="http://creativecommons.org/ns#" xmlns:rdf="http://www.w3.org/1999/02/22-rdf-syntax-ns#">
   <cc:Work>
    <dc:type rdf:resource="http://purl.org/dc/dcmitype/StillImage"/>
    <dc:date>2025-05-12T23:15:07.531674</dc:date>
    <dc:format>image/svg+xml</dc:format>
    <dc:creator>
     <cc:Agent>
      <dc:title>Matplotlib v3.10.3, https://matplotlib.org/</dc:title>
     </cc:Agent>
    </dc:creator>
   </cc:Work>
  </rdf:RDF>
 </metadata>
 <defs>
  <style type="text/css">*{stroke-linejoin: round; stroke-linecap: butt}</style>
 </defs>
 <g id="figure_1">
  <g id="patch_1">
   <path d="M 0 288 
L 720 288 
L 720 0 
L 0 0 
z
" style="fill: #ffffff"/>
  </g>
  <g id="axes_1">
   <g id="patch_2">
    <path d="M 44.57 246.04 
L 709.2 246.04 
L 709.2 26.88 
L 44.57 26.88 
z
" style="fill: #ffffff"/>
   </g>
   <g id="FillBetweenPolyCollection_1">
    <path d="M 74.780455 200.785373 
L 74.780455 213.841869 
L 78.781839 214.058947 
L 82.783224 214.733918 
L 86.784609 216.071507 
L 90.785993 217.897076 
L 94.787378 219.096696 
L 98.788763 219.072832 
L 102.790148 220.366744 
L 106.791532 220.314451 
L 110.792917 223.539154 
L 114.794302 223.925455 
L 118.795686 224.478925 
L 122.797071 223.571363 
L 126.798456 224.607161 
L 130.79984 227.421565 
L 134.801225 229.639964 
L 138.80261 230.462482 
L 142.803995 232.342335 
L 146.805379 227.719193 
L 150.806764 224.476991 
L 154.808149 228.972218 
L 158.809533 228.12356 
L 162.810918 203.273515 
L 166.812303 213.667953 
L 170.813688 209.866357 
L 174.815072 232.120917 
L 178.816457 236.078182 
L 182.817842 229.18413 
L 186.819226 219.584595 
L 190.820611 212.969932 
L 194.821996 198.873143 
L 198.82338 192.837715 
L 202.824765 188.307225 
L 206.82615 198.987608 
L 210.827535 208.656974 
L 214.828919 208.465277 
L 218.830304 212.734826 
L 222.831689 211.165309 
L 226.833073 212.802975 
L 230.834458 197.519458 
L 234.835843 202.094519 
L 238.837228 204.137742 
L 242.838612 207.167573 
L 246.839997 208.504043 
L 250.841382 207.232199 
L 254.842766 207.309379 
L 258.844151 207.639135 
L 262.845536 207.905438 
L 266.846921 208.427964 
L 270.848305 210.737484 
L 274.84969 211.898541 
L 278.851075 212.336151 
L 282.852459 213.053334 
L 286.853844 213.538188 
L 290.855229 212.176373 
L 294.856613 212.921101 
L 298.857998 216.487046 
L 302.859383 218.244468 
L 306.860768 219.689221 
L 310.862152 217.433399 
L 314.863537 219.006022 
L 318.864922 218.297062 
L 322.866306 219.940122 
L 326.867691 222.112158 
L 330.869076 226.997736 
L 334.870461 228.557171 
L 338.871845 227.540878 
L 342.87323 218.572007 
L 346.874615 225.560969 
L 350.875999 223.25372 
L 354.877384 214.141577 
L 358.878769 212.534241 
L 362.880154 206.090523 
L 366.881538 209.142339 
L 370.882923 218.603845 
L 374.884308 223.448989 
L 378.885692 224.0002 
L 382.887077 219.13833 
L 386.888462 195.203605 
L 390.889846 175.955352 
L 394.891231 165.079696 
L 398.892616 160.839555 
L 402.894001 178.462649 
L 406.895385 191.286554 
L 410.89677 197.027851 
L 414.898155 191.123656 
L 418.899539 196.164517 
L 422.900924 197.865596 
L 426.902309 199.214784 
L 430.903694 201.473396 
L 434.905078 210.191068 
L 438.906463 213.10587 
L 442.907848 214.468831 
L 446.909232 214.099941 
L 450.910617 211.188722 
L 454.912002 209.092981 
L 458.913387 208.360182 
L 462.914771 208.513659 
L 466.916156 209.444207 
L 470.917541 209.603904 
L 474.918925 209.239639 
L 478.92031 208.45555 
L 482.921695 203.355038 
L 482.921695 200.821375 
L 482.921695 200.821375 
L 478.92031 196.981598 
L 474.918925 195.981857 
L 470.917541 194.522743 
L 466.916156 193.48806 
L 462.914771 191.581954 
L 458.913387 188.251821 
L 454.912002 182.940563 
L 450.910617 176.017535 
L 446.909232 168.030198 
L 442.907848 160.893152 
L 438.906463 154.592173 
L 434.905078 151.161828 
L 430.903694 146.003121 
L 426.902309 142.331302 
L 422.900924 132.383641 
L 418.899539 101.877918 
L 414.898155 99.022597 
L 410.89677 100.848698 
L 406.895385 100.692741 
L 402.894001 105.778056 
L 398.892616 118.424564 
L 394.891231 118.06616 
L 390.889846 69.617285 
L 386.888462 49.821608 
L 382.887077 42.657975 
L 378.885692 47.127202 
L 374.884308 61.811916 
L 370.882923 95.994031 
L 366.881538 145.367752 
L 362.880154 142.646729 
L 358.878769 152.625743 
L 354.877384 155.447568 
L 350.875999 163.405113 
L 346.874615 167.368362 
L 342.87323 202.12667 
L 338.871845 185.712827 
L 334.870461 194.779095 
L 330.869076 199.623078 
L 326.867691 204.558421 
L 322.866306 208.123901 
L 318.864922 210.04565 
L 314.863537 210.351913 
L 310.862152 212.853498 
L 306.860768 206.782295 
L 302.859383 206.91323 
L 298.857998 206.127616 
L 294.856613 209.917507 
L 290.855229 208.32324 
L 286.853844 202.064465 
L 282.852459 200.897093 
L 278.851075 199.663454 
L 274.84969 198.030805 
L 270.848305 196.365161 
L 266.846921 194.972102 
L 262.845536 192.349425 
L 258.844151 188.47521 
L 254.842766 183.868193 
L 250.841382 178.570661 
L 246.839997 170.570473 
L 242.838612 165.735977 
L 238.837228 164.266975 
L 234.835843 159.542042 
L 230.834458 140.402015 
L 226.833073 120.506862 
L 222.831689 114.659743 
L 218.830304 96.985997 
L 214.828919 109.636115 
L 210.827535 86.001383 
L 206.82615 112.325721 
L 202.824765 111.599771 
L 198.82338 84.734366 
L 194.821996 72.687222 
L 190.820611 72.564685 
L 186.819226 74.649093 
L 182.817842 88.101102 
L 178.816457 85.735743 
L 174.815072 95.416081 
L 170.813688 158.040702 
L 166.812303 163.853869 
L 162.810918 173.183317 
L 158.809533 157.400611 
L 154.808149 165.450087 
L 150.806764 193.813018 
L 146.805379 208.805025 
L 142.803995 201.414901 
L 138.80261 207.873213 
L 134.801225 209.472079 
L 130.79984 212.785327 
L 126.798456 214.280936 
L 122.797071 213.749108 
L 118.795686 212.045293 
L 114.794302 212.001573 
L 110.792917 209.675634 
L 106.791532 208.711712 
L 102.790148 206.735139 
L 98.788763 205.441227 
L 94.787378 205.33442 
L 90.785993 204.692703 
L 86.784609 204.686889 
L 82.783224 203.436653 
L 78.781839 202.001552 
L 74.780455 200.785373 
z
" clip-path="url(#p4f33041d13)" style="fill: #808080; fill-opacity: 0.2; stroke: #808080; stroke-opacity: 0.2"/>
    <path d="M 490.924464 200.909792 
L 490.924464 212.149826 
L 494.925849 213.563441 
L 498.927234 216.518462 
L 502.928618 215.384737 
L 506.930003 213.36489 
L 510.931388 209.612771 
L 514.932772 213.086209 
L 518.934157 216.296764 
L 522.935542 220.316989 
L 526.936927 221.74635 
L 530.938311 223.136371 
L 534.939696 221.601863 
L 538.941081 224.886159 
L 542.942465 217.547075 
L 546.94385 211.40413 
L 550.945235 208.279246 
L 554.94662 209.889165 
L 558.948004 208.895713 
L 562.949389 231.087281 
L 566.950774 222.304568 
L 570.952158 226.315634 
L 574.953543 222.242248 
L 578.954928 203.973542 
L 582.956312 184.684546 
L 586.957697 162.629691 
L 590.959082 175.171916 
L 594.960467 177.531371 
L 598.961851 182.325621 
L 602.963236 191.081782 
L 606.964621 201.463909 
L 610.966005 194.64602 
L 614.96739 195.660679 
L 618.968775 202.230136 
L 622.97016 203.021033 
L 622.97016 150.095614 
L 622.97016 150.095614 
L 618.968775 136.354881 
L 614.96739 131.527958 
L 610.966005 97.424513 
L 606.964621 94.571303 
L 602.963236 97.861796 
L 598.961851 89.374089 
L 594.960467 86.802992 
L 590.959082 102.325516 
L 586.957697 102.45116 
L 582.956312 67.108822 
L 578.954928 66.133661 
L 574.953543 36.841818 
L 570.952158 44.115047 
L 566.950774 66.340415 
L 562.949389 88.188585 
L 558.948004 141.135451 
L 554.94662 141.68474 
L 550.945235 151.506025 
L 546.94385 162.415112 
L 542.942465 166.291692 
L 538.941081 169.536147 
L 534.939696 173.840642 
L 530.938311 178.72593 
L 526.936927 186.685043 
L 522.935542 191.150122 
L 518.934157 198.405127 
L 514.932772 203.233073 
L 510.931388 206.606979 
L 506.930003 205.674925 
L 502.928618 202.800764 
L 498.927234 200.049649 
L 494.925849 199.570826 
L 490.924464 200.909792 
z
" clip-path="url(#p4f33041d13)" style="fill: #808080; fill-opacity: 0.2; stroke: #808080; stroke-opacity: 0.2"/>
   </g>
   <g id="matplotlib.axis_1">
    <g id="xtick_1">
     <g id="line2d_1">
      <defs>
       <path id="mdd4d6bc12d" d="M 0 0 
L 0 3.5 
" style="stroke: #000000; stroke-width: 0.8"/>
      </defs>
      <g>
       <use xlink:href="#mdd4d6bc12d" x="82.783224" y="246.04" style="stroke: #000000; stroke-width: 0.8"/>
      </g>
     </g>
     <g id="text_1">
      <!-- 05-10 00 -->
      <g transform="translate(60.302755 260.638438) scale(0.1 -0.1)">
       <defs>
        <path id="DejaVuSans-30" d="M 2034 4250 
Q 1547 4250 1301 3770 
Q 1056 3291 1056 2328 
Q 1056 1369 1301 889 
Q 1547 409 2034 409 
Q 2525 409 2770 889 
Q 3016 1369 3016 2328 
Q 3016 3291 2770 3770 
Q 2525 4250 2034 4250 
z
M 2034 4750 
Q 2819 4750 3233 4129 
Q 3647 3509 3647 2328 
Q 3647 1150 3233 529 
Q 2819 -91 2034 -91 
Q 1250 -91 836 529 
Q 422 1150 422 2328 
Q 422 3509 836 4129 
Q 1250 4750 2034 4750 
z
" transform="scale(0.015625)"/>
        <path id="DejaVuSans-35" d="M 691 4666 
L 3169 4666 
L 3169 4134 
L 1269 4134 
L 1269 2991 
Q 1406 3038 1543 3061 
Q 1681 3084 1819 3084 
Q 2600 3084 3056 2656 
Q 3513 2228 3513 1497 
Q 3513 744 3044 326 
Q 2575 -91 1722 -91 
Q 1428 -91 1123 -41 
Q 819 9 494 109 
L 494 744 
Q 775 591 1075 516 
Q 1375 441 1709 441 
Q 2250 441 2565 725 
Q 2881 1009 2881 1497 
Q 2881 1984 2565 2268 
Q 2250 2553 1709 2553 
Q 1456 2553 1204 2497 
Q 953 2441 691 2322 
L 691 4666 
z
" transform="scale(0.015625)"/>
        <path id="DejaVuSans-2d" d="M 313 2009 
L 1997 2009 
L 1997 1497 
L 313 1497 
L 313 2009 
z
" transform="scale(0.015625)"/>
        <path id="DejaVuSans-31" d="M 794 531 
L 1825 531 
L 1825 4091 
L 703 3866 
L 703 4441 
L 1819 4666 
L 2450 4666 
L 2450 531 
L 3481 531 
L 3481 0 
L 794 0 
L 794 531 
z
" transform="scale(0.015625)"/>
        <path id="DejaVuSans-20" transform="scale(0.015625)"/>
       </defs>
       <use xlink:href="#DejaVuSans-30"/>
       <use xlink:href="#DejaVuSans-35" transform="translate(63.623047 0)"/>
       <use xlink:href="#DejaVuSans-2d" transform="translate(127.246094 0)"/>
       <use xlink:href="#DejaVuSans-31" transform="translate(163.330078 0)"/>
       <use xlink:href="#DejaVuSans-30" transform="translate(226.953125 0)"/>
       <use xlink:href="#DejaVuSans-20" transform="translate(290.576172 0)"/>
       <use xlink:href="#DejaVuSans-30" transform="translate(322.363281 0)"/>
       <use xlink:href="#DejaVuSans-30" transform="translate(385.986328 0)"/>
      </g>
     </g>
    </g>
    <g id="xtick_2">
     <g id="line2d_2">
      <g>
       <use xlink:href="#mdd4d6bc12d" x="178.816457" y="246.04" style="stroke: #000000; stroke-width: 0.8"/>
      </g>
     </g>
     <g id="text_2">
      <!-- 05-10 12 -->
      <g transform="translate(156.335988 260.638438) scale(0.1 -0.1)">
       <defs>
        <path id="DejaVuSans-32" d="M 1228 531 
L 3431 531 
L 3431 0 
L 469 0 
L 469 531 
Q 828 903 1448 1529 
Q 2069 2156 2228 2338 
Q 2531 2678 2651 2914 
Q 2772 3150 2772 3378 
Q 2772 3750 2511 3984 
Q 2250 4219 1831 4219 
Q 1534 4219 1204 4116 
Q 875 4013 500 3803 
L 500 4441 
Q 881 4594 1212 4672 
Q 1544 4750 1819 4750 
Q 2544 4750 2975 4387 
Q 3406 4025 3406 3419 
Q 3406 3131 3298 2873 
Q 3191 2616 2906 2266 
Q 2828 2175 2409 1742 
Q 1991 1309 1228 531 
z
" transform="scale(0.015625)"/>
       </defs>
       <use xlink:href="#DejaVuSans-30"/>
       <use xlink:href="#DejaVuSans-35" transform="translate(63.623047 0)"/>
       <use xlink:href="#DejaVuSans-2d" transform="translate(127.246094 0)"/>
       <use xlink:href="#DejaVuSans-31" transform="translate(163.330078 0)"/>
       <use xlink:href="#DejaVuSans-30" transform="translate(226.953125 0)"/>
       <use xlink:href="#DejaVuSans-20" transform="translate(290.576172 0)"/>
       <use xlink:href="#DejaVuSans-31" transform="translate(322.363281 0)"/>
       <use xlink:href="#DejaVuSans-32" transform="translate(385.986328 0)"/>
      </g>
     </g>
    </g>
    <g id="xtick_3">
     <g id="line2d_3">
      <g>
       <use xlink:href="#mdd4d6bc12d" x="274.84969" y="246.04" style="stroke: #000000; stroke-width: 0.8"/>
      </g>
     </g>
     <g id="text_3">
      <!-- 05-11 00 -->
      <g transform="translate(252.369221 260.638438) scale(0.1 -0.1)">
       <use xlink:href="#DejaVuSans-30"/>
       <use xlink:href="#DejaVuSans-35" transform="translate(63.623047 0)"/>
       <use xlink:href="#DejaVuSans-2d" transform="translate(127.246094 0)"/>
       <use xlink:href="#DejaVuSans-31" transform="translate(163.330078 0)"/>
       <use xlink:href="#DejaVuSans-31" transform="translate(226.953125 0)"/>
       <use xlink:href="#DejaVuSans-20" transform="translate(290.576172 0)"/>
       <use xlink:href="#DejaVuSans-30" transform="translate(322.363281 0)"/>
       <use xlink:href="#DejaVuSans-30" transform="translate(385.986328 0)"/>
      </g>
     </g>
    </g>
    <g id="xtick_4">
     <g id="line2d_4">
      <g>
       <use xlink:href="#mdd4d6bc12d" x="370.882923" y="246.04" style="stroke: #000000; stroke-width: 0.8"/>
      </g>
     </g>
     <g id="text_4">
      <!-- 05-11 12 -->
      <g transform="translate(348.402454 260.638438) scale(0.1 -0.1)">
       <use xlink:href="#DejaVuSans-30"/>
       <use xlink:href="#DejaVuSans-35" transform="translate(63.623047 0)"/>
       <use xlink:href="#DejaVuSans-2d" transform="translate(127.246094 0)"/>
       <use xlink:href="#DejaVuSans-31" transform="translate(163.330078 0)"/>
       <use xlink:href="#DejaVuSans-31" transform="translate(226.953125 0)"/>
       <use xlink:href="#DejaVuSans-20" transform="translate(290.576172 0)"/>
       <use xlink:href="#DejaVuSans-31" transform="translate(322.363281 0)"/>
       <use xlink:href="#DejaVuSans-32" transform="translate(385.986328 0)"/>
      </g>
     </g>
    </g>
    <g id="xtick_5">
     <g id="line2d_5">
      <g>
       <use xlink:href="#mdd4d6bc12d" x="466.916156" y="246.04" style="stroke: #000000; stroke-width: 0.8"/>
      </g>
     </g>
     <g id="text_5">
      <!-- 05-12 00 -->
      <g transform="translate(444.435687 260.638438) scale(0.1 -0.1)">
       <use xlink:href="#DejaVuSans-30"/>
       <use xlink:href="#DejaVuSans-35" transform="translate(63.623047 0)"/>
       <use xlink:href="#DejaVuSans-2d" transform="translate(127.246094 0)"/>
       <use xlink:href="#DejaVuSans-31" transform="translate(163.330078 0)"/>
       <use xlink:href="#DejaVuSans-32" transform="translate(226.953125 0)"/>
       <use xlink:href="#DejaVuSans-20" transform="translate(290.576172 0)"/>
       <use xlink:href="#DejaVuSans-30" transform="translate(322.363281 0)"/>
       <use xlink:href="#DejaVuSans-30" transform="translate(385.986328 0)"/>
      </g>
     </g>
    </g>
    <g id="xtick_6">
     <g id="line2d_6">
      <g>
       <use xlink:href="#mdd4d6bc12d" x="562.949389" y="246.04" style="stroke: #000000; stroke-width: 0.8"/>
      </g>
     </g>
     <g id="text_6">
      <!-- 05-12 12 -->
      <g transform="translate(540.46892 260.638438) scale(0.1 -0.1)">
       <use xlink:href="#DejaVuSans-30"/>
       <use xlink:href="#DejaVuSans-35" transform="translate(63.623047 0)"/>
       <use xlink:href="#DejaVuSans-2d" transform="translate(127.246094 0)"/>
       <use xlink:href="#DejaVuSans-31" transform="translate(163.330078 0)"/>
       <use xlink:href="#DejaVuSans-32" transform="translate(226.953125 0)"/>
       <use xlink:href="#DejaVuSans-20" transform="translate(290.576172 0)"/>
       <use xlink:href="#DejaVuSans-31" transform="translate(322.363281 0)"/>
       <use xlink:href="#DejaVuSans-32" transform="translate(385.986328 0)"/>
      </g>
     </g>
    </g>
    <g id="xtick_7">
     <g id="line2d_7">
      <g>
       <use xlink:href="#mdd4d6bc12d" x="658.982622" y="246.04" style="stroke: #000000; stroke-width: 0.8"/>
      </g>
     </g>
     <g id="text_7">
      <!-- 05-13 00 -->
      <g transform="translate(636.502153 260.638438) scale(0.1 -0.1)">
       <defs>
        <path id="DejaVuSans-33" d="M 2597 2516 
Q 3050 2419 3304 2112 
Q 3559 1806 3559 1356 
Q 3559 666 3084 287 
Q 2609 -91 1734 -91 
Q 1441 -91 1130 -33 
Q 819 25 488 141 
L 488 750 
Q 750 597 1062 519 
Q 1375 441 1716 441 
Q 2309 441 2620 675 
Q 2931 909 2931 1356 
Q 2931 1769 2642 2001 
Q 2353 2234 1838 2234 
L 1294 2234 
L 1294 2753 
L 1863 2753 
Q 2328 2753 2575 2939 
Q 2822 3125 2822 3475 
Q 2822 3834 2567 4026 
Q 2313 4219 1838 4219 
Q 1578 4219 1281 4162 
Q 984 4106 628 3988 
L 628 4550 
Q 988 4650 1302 4700 
Q 1616 4750 1894 4750 
Q 2613 4750 3031 4423 
Q 3450 4097 3450 3541 
Q 3450 3153 3228 2886 
Q 3006 2619 2597 2516 
z
" transform="scale(0.015625)"/>
       </defs>
       <use xlink:href="#DejaVuSans-30"/>
       <use xlink:href="#DejaVuSans-35" transform="translate(63.623047 0)"/>
       <use xlink:href="#DejaVuSans-2d" transform="translate(127.246094 0)"/>
       <use xlink:href="#DejaVuSans-31" transform="translate(163.330078 0)"/>
       <use xlink:href="#DejaVuSans-33" transform="translate(226.953125 0)"/>
       <use xlink:href="#DejaVuSans-20" transform="translate(290.576172 0)"/>
       <use xlink:href="#DejaVuSans-30" transform="translate(322.363281 0)"/>
       <use xlink:href="#DejaVuSans-30" transform="translate(385.986328 0)"/>
      </g>
     </g>
    </g>
    <g id="text_8">
     <!-- Tijd -->
     <g transform="translate(368.035 274.316562) scale(0.1 -0.1)">
      <defs>
       <path id="DejaVuSans-54" d="M -19 4666 
L 3928 4666 
L 3928 4134 
L 2272 4134 
L 2272 0 
L 1638 0 
L 1638 4134 
L -19 4134 
L -19 4666 
z
" transform="scale(0.015625)"/>
       <path id="DejaVuSans-69" d="M 603 3500 
L 1178 3500 
L 1178 0 
L 603 0 
L 603 3500 
z
M 603 4863 
L 1178 4863 
L 1178 4134 
L 603 4134 
L 603 4863 
z
" transform="scale(0.015625)"/>
       <path id="DejaVuSans-6a" d="M 603 3500 
L 1178 3500 
L 1178 -63 
Q 1178 -731 923 -1031 
Q 669 -1331 103 -1331 
L -116 -1331 
L -116 -844 
L 38 -844 
Q 366 -844 484 -692 
Q 603 -541 603 -63 
L 603 3500 
z
M 603 4863 
L 1178 4863 
L 1178 4134 
L 603 4134 
L 603 4863 
z
" transform="scale(0.015625)"/>
       <path id="DejaVuSans-64" d="M 2906 2969 
L 2906 4863 
L 3481 4863 
L 3481 0 
L 2906 0 
L 2906 525 
Q 2725 213 2448 61 
Q 2172 -91 1784 -91 
Q 1150 -91 751 415 
Q 353 922 353 1747 
Q 353 2572 751 3078 
Q 1150 3584 1784 3584 
Q 2172 3584 2448 3432 
Q 2725 3281 2906 2969 
z
M 947 1747 
Q 947 1113 1208 752 
Q 1469 391 1925 391 
Q 2381 391 2643 752 
Q 2906 1113 2906 1747 
Q 2906 2381 2643 2742 
Q 2381 3103 1925 3103 
Q 1469 3103 1208 2742 
Q 947 2381 947 1747 
z
" transform="scale(0.015625)"/>
      </defs>
      <use xlink:href="#DejaVuSans-54"/>
      <use xlink:href="#DejaVuSans-69" transform="translate(57.958984 0)"/>
      <use xlink:href="#DejaVuSans-6a" transform="translate(85.742188 0)"/>
      <use xlink:href="#DejaVuSans-64" transform="translate(113.525391 0)"/>
     </g>
    </g>
   </g>
   <g id="matplotlib.axis_2">
    <g id="ytick_1">
     <g id="line2d_8">
      <defs>
       <path id="m97686c03f8" d="M 0 0 
L -3.5 0 
" style="stroke: #000000; stroke-width: 0.8"/>
      </defs>
      <g>
       <use xlink:href="#m97686c03f8" x="44.57" y="217.764451" style="stroke: #000000; stroke-width: 0.8"/>
      </g>
     </g>
     <g id="text_9">
      <!-- 10 -->
      <g transform="translate(24.845 221.563669) scale(0.1 -0.1)">
       <use xlink:href="#DejaVuSans-31"/>
       <use xlink:href="#DejaVuSans-30" transform="translate(63.623047 0)"/>
      </g>
     </g>
    </g>
    <g id="ytick_2">
     <g id="line2d_9">
      <g>
       <use xlink:href="#m97686c03f8" x="44.57" y="187.904938" style="stroke: #000000; stroke-width: 0.8"/>
      </g>
     </g>
     <g id="text_10">
      <!-- 20 -->
      <g transform="translate(24.845 191.704157) scale(0.1 -0.1)">
       <use xlink:href="#DejaVuSans-32"/>
       <use xlink:href="#DejaVuSans-30" transform="translate(63.623047 0)"/>
      </g>
     </g>
    </g>
    <g id="ytick_3">
     <g id="line2d_10">
      <g>
       <use xlink:href="#m97686c03f8" x="44.57" y="158.045426" style="stroke: #000000; stroke-width: 0.8"/>
      </g>
     </g>
     <g id="text_11">
      <!-- 30 -->
      <g transform="translate(24.845 161.844645) scale(0.1 -0.1)">
       <use xlink:href="#DejaVuSans-33"/>
       <use xlink:href="#DejaVuSans-30" transform="translate(63.623047 0)"/>
      </g>
     </g>
    </g>
    <g id="ytick_4">
     <g id="line2d_11">
      <g>
       <use xlink:href="#m97686c03f8" x="44.57" y="128.185913" style="stroke: #000000; stroke-width: 0.8"/>
      </g>
     </g>
     <g id="text_12">
      <!-- 40 -->
      <g transform="translate(24.845 131.985132) scale(0.1 -0.1)">
       <defs>
        <path id="DejaVuSans-34" d="M 2419 4116 
L 825 1625 
L 2419 1625 
L 2419 4116 
z
M 2253 4666 
L 3047 4666 
L 3047 1625 
L 3713 1625 
L 3713 1100 
L 3047 1100 
L 3047 0 
L 2419 0 
L 2419 1100 
L 313 1100 
L 313 1709 
L 2253 4666 
z
" transform="scale(0.015625)"/>
       </defs>
       <use xlink:href="#DejaVuSans-34"/>
       <use xlink:href="#DejaVuSans-30" transform="translate(63.623047 0)"/>
      </g>
     </g>
    </g>
    <g id="ytick_5">
     <g id="line2d_12">
      <g>
       <use xlink:href="#m97686c03f8" x="44.57" y="98.326401" style="stroke: #000000; stroke-width: 0.8"/>
      </g>
     </g>
     <g id="text_13">
      <!-- 50 -->
      <g transform="translate(24.845 102.12562) scale(0.1 -0.1)">
       <use xlink:href="#DejaVuSans-35"/>
       <use xlink:href="#DejaVuSans-30" transform="translate(63.623047 0)"/>
      </g>
     </g>
    </g>
    <g id="ytick_6">
     <g id="line2d_13">
      <g>
       <use xlink:href="#m97686c03f8" x="44.57" y="68.466889" style="stroke: #000000; stroke-width: 0.8"/>
      </g>
     </g>
     <g id="text_14">
      <!-- 60 -->
      <g transform="translate(24.845 72.266107) scale(0.1 -0.1)">
       <defs>
        <path id="DejaVuSans-36" d="M 2113 2584 
Q 1688 2584 1439 2293 
Q 1191 2003 1191 1497 
Q 1191 994 1439 701 
Q 1688 409 2113 409 
Q 2538 409 2786 701 
Q 3034 994 3034 1497 
Q 3034 2003 2786 2293 
Q 2538 2584 2113 2584 
z
M 3366 4563 
L 3366 3988 
Q 3128 4100 2886 4159 
Q 2644 4219 2406 4219 
Q 1781 4219 1451 3797 
Q 1122 3375 1075 2522 
Q 1259 2794 1537 2939 
Q 1816 3084 2150 3084 
Q 2853 3084 3261 2657 
Q 3669 2231 3669 1497 
Q 3669 778 3244 343 
Q 2819 -91 2113 -91 
Q 1303 -91 875 529 
Q 447 1150 447 2328 
Q 447 3434 972 4092 
Q 1497 4750 2381 4750 
Q 2619 4750 2861 4703 
Q 3103 4656 3366 4563 
z
" transform="scale(0.015625)"/>
       </defs>
       <use xlink:href="#DejaVuSans-36"/>
       <use xlink:href="#DejaVuSans-30" transform="translate(63.623047 0)"/>
      </g>
     </g>
    </g>
    <g id="ytick_7">
     <g id="line2d_14">
      <g>
       <use xlink:href="#m97686c03f8" x="44.57" y="38.607376" style="stroke: #000000; stroke-width: 0.8"/>
      </g>
     </g>
     <g id="text_15">
      <!-- 70 -->
      <g transform="translate(24.845 42.406595) scale(0.1 -0.1)">
       <defs>
        <path id="DejaVuSans-37" d="M 525 4666 
L 3525 4666 
L 3525 4397 
L 1831 0 
L 1172 0 
L 2766 4134 
L 525 4134 
L 525 4666 
z
" transform="scale(0.015625)"/>
       </defs>
       <use xlink:href="#DejaVuSans-37"/>
       <use xlink:href="#DejaVuSans-30" transform="translate(63.623047 0)"/>
      </g>
     </g>
    </g>
    <g id="text_16">
     <!-- Buiten temperatuur (°C) -->
     <g transform="translate(18.765312 197.355312) rotate(-90) scale(0.1 -0.1)">
      <defs>
       <path id="DejaVuSans-42" d="M 1259 2228 
L 1259 519 
L 2272 519 
Q 2781 519 3026 730 
Q 3272 941 3272 1375 
Q 3272 1813 3026 2020 
Q 2781 2228 2272 2228 
L 1259 2228 
z
M 1259 4147 
L 1259 2741 
L 2194 2741 
Q 2656 2741 2882 2914 
Q 3109 3088 3109 3444 
Q 3109 3797 2882 3972 
Q 2656 4147 2194 4147 
L 1259 4147 
z
M 628 4666 
L 2241 4666 
Q 2963 4666 3353 4366 
Q 3744 4066 3744 3513 
Q 3744 3084 3544 2831 
Q 3344 2578 2956 2516 
Q 3422 2416 3680 2098 
Q 3938 1781 3938 1306 
Q 3938 681 3513 340 
Q 3088 0 2303 0 
L 628 0 
L 628 4666 
z
" transform="scale(0.015625)"/>
       <path id="DejaVuSans-75" d="M 544 1381 
L 544 3500 
L 1119 3500 
L 1119 1403 
Q 1119 906 1312 657 
Q 1506 409 1894 409 
Q 2359 409 2629 706 
Q 2900 1003 2900 1516 
L 2900 3500 
L 3475 3500 
L 3475 0 
L 2900 0 
L 2900 538 
Q 2691 219 2414 64 
Q 2138 -91 1772 -91 
Q 1169 -91 856 284 
Q 544 659 544 1381 
z
M 1991 3584 
L 1991 3584 
z
" transform="scale(0.015625)"/>
       <path id="DejaVuSans-74" d="M 1172 4494 
L 1172 3500 
L 2356 3500 
L 2356 3053 
L 1172 3053 
L 1172 1153 
Q 1172 725 1289 603 
Q 1406 481 1766 481 
L 2356 481 
L 2356 0 
L 1766 0 
Q 1100 0 847 248 
Q 594 497 594 1153 
L 594 3053 
L 172 3053 
L 172 3500 
L 594 3500 
L 594 4494 
L 1172 4494 
z
" transform="scale(0.015625)"/>
       <path id="DejaVuSans-65" d="M 3597 1894 
L 3597 1613 
L 953 1613 
Q 991 1019 1311 708 
Q 1631 397 2203 397 
Q 2534 397 2845 478 
Q 3156 559 3463 722 
L 3463 178 
Q 3153 47 2828 -22 
Q 2503 -91 2169 -91 
Q 1331 -91 842 396 
Q 353 884 353 1716 
Q 353 2575 817 3079 
Q 1281 3584 2069 3584 
Q 2775 3584 3186 3129 
Q 3597 2675 3597 1894 
z
M 3022 2063 
Q 3016 2534 2758 2815 
Q 2500 3097 2075 3097 
Q 1594 3097 1305 2825 
Q 1016 2553 972 2059 
L 3022 2063 
z
" transform="scale(0.015625)"/>
       <path id="DejaVuSans-6e" d="M 3513 2113 
L 3513 0 
L 2938 0 
L 2938 2094 
Q 2938 2591 2744 2837 
Q 2550 3084 2163 3084 
Q 1697 3084 1428 2787 
Q 1159 2491 1159 1978 
L 1159 0 
L 581 0 
L 581 3500 
L 1159 3500 
L 1159 2956 
Q 1366 3272 1645 3428 
Q 1925 3584 2291 3584 
Q 2894 3584 3203 3211 
Q 3513 2838 3513 2113 
z
" transform="scale(0.015625)"/>
       <path id="DejaVuSans-6d" d="M 3328 2828 
Q 3544 3216 3844 3400 
Q 4144 3584 4550 3584 
Q 5097 3584 5394 3201 
Q 5691 2819 5691 2113 
L 5691 0 
L 5113 0 
L 5113 2094 
Q 5113 2597 4934 2840 
Q 4756 3084 4391 3084 
Q 3944 3084 3684 2787 
Q 3425 2491 3425 1978 
L 3425 0 
L 2847 0 
L 2847 2094 
Q 2847 2600 2669 2842 
Q 2491 3084 2119 3084 
Q 1678 3084 1418 2786 
Q 1159 2488 1159 1978 
L 1159 0 
L 581 0 
L 581 3500 
L 1159 3500 
L 1159 2956 
Q 1356 3278 1631 3431 
Q 1906 3584 2284 3584 
Q 2666 3584 2933 3390 
Q 3200 3197 3328 2828 
z
" transform="scale(0.015625)"/>
       <path id="DejaVuSans-70" d="M 1159 525 
L 1159 -1331 
L 581 -1331 
L 581 3500 
L 1159 3500 
L 1159 2969 
Q 1341 3281 1617 3432 
Q 1894 3584 2278 3584 
Q 2916 3584 3314 3078 
Q 3713 2572 3713 1747 
Q 3713 922 3314 415 
Q 2916 -91 2278 -91 
Q 1894 -91 1617 61 
Q 1341 213 1159 525 
z
M 3116 1747 
Q 3116 2381 2855 2742 
Q 2594 3103 2138 3103 
Q 1681 3103 1420 2742 
Q 1159 2381 1159 1747 
Q 1159 1113 1420 752 
Q 1681 391 2138 391 
Q 2594 391 2855 752 
Q 3116 1113 3116 1747 
z
" transform="scale(0.015625)"/>
       <path id="DejaVuSans-72" d="M 2631 2963 
Q 2534 3019 2420 3045 
Q 2306 3072 2169 3072 
Q 1681 3072 1420 2755 
Q 1159 2438 1159 1844 
L 1159 0 
L 581 0 
L 581 3500 
L 1159 3500 
L 1159 2956 
Q 1341 3275 1631 3429 
Q 1922 3584 2338 3584 
Q 2397 3584 2469 3576 
Q 2541 3569 2628 3553 
L 2631 2963 
z
" transform="scale(0.015625)"/>
       <path id="DejaVuSans-61" d="M 2194 1759 
Q 1497 1759 1228 1600 
Q 959 1441 959 1056 
Q 959 750 1161 570 
Q 1363 391 1709 391 
Q 2188 391 2477 730 
Q 2766 1069 2766 1631 
L 2766 1759 
L 2194 1759 
z
M 3341 1997 
L 3341 0 
L 2766 0 
L 2766 531 
Q 2569 213 2275 61 
Q 1981 -91 1556 -91 
Q 1019 -91 701 211 
Q 384 513 384 1019 
Q 384 1609 779 1909 
Q 1175 2209 1959 2209 
L 2766 2209 
L 2766 2266 
Q 2766 2663 2505 2880 
Q 2244 3097 1772 3097 
Q 1472 3097 1187 3025 
Q 903 2953 641 2809 
L 641 3341 
Q 956 3463 1253 3523 
Q 1550 3584 1831 3584 
Q 2591 3584 2966 3190 
Q 3341 2797 3341 1997 
z
" transform="scale(0.015625)"/>
       <path id="DejaVuSans-28" d="M 1984 4856 
Q 1566 4138 1362 3434 
Q 1159 2731 1159 2009 
Q 1159 1288 1364 580 
Q 1569 -128 1984 -844 
L 1484 -844 
Q 1016 -109 783 600 
Q 550 1309 550 2009 
Q 550 2706 781 3412 
Q 1013 4119 1484 4856 
L 1984 4856 
z
" transform="scale(0.015625)"/>
       <path id="DejaVuSans-b0" d="M 1600 4347 
Q 1350 4347 1178 4173 
Q 1006 4000 1006 3750 
Q 1006 3503 1178 3333 
Q 1350 3163 1600 3163 
Q 1850 3163 2022 3333 
Q 2194 3503 2194 3750 
Q 2194 3997 2020 4172 
Q 1847 4347 1600 4347 
z
M 1600 4750 
Q 1800 4750 1984 4673 
Q 2169 4597 2303 4453 
Q 2447 4313 2519 4134 
Q 2591 3956 2591 3750 
Q 2591 3338 2302 3052 
Q 2013 2766 1594 2766 
Q 1172 2766 890 3047 
Q 609 3328 609 3750 
Q 609 4169 896 4459 
Q 1184 4750 1600 4750 
z
" transform="scale(0.015625)"/>
       <path id="DejaVuSans-43" d="M 4122 4306 
L 4122 3641 
Q 3803 3938 3442 4084 
Q 3081 4231 2675 4231 
Q 1875 4231 1450 3742 
Q 1025 3253 1025 2328 
Q 1025 1406 1450 917 
Q 1875 428 2675 428 
Q 3081 428 3442 575 
Q 3803 722 4122 1019 
L 4122 359 
Q 3791 134 3420 21 
Q 3050 -91 2638 -91 
Q 1578 -91 968 557 
Q 359 1206 359 2328 
Q 359 3453 968 4101 
Q 1578 4750 2638 4750 
Q 3056 4750 3426 4639 
Q 3797 4528 4122 4306 
z
" transform="scale(0.015625)"/>
       <path id="DejaVuSans-29" d="M 513 4856 
L 1013 4856 
Q 1481 4119 1714 3412 
Q 1947 2706 1947 2009 
Q 1947 1309 1714 600 
Q 1481 -109 1013 -844 
L 513 -844 
Q 928 -128 1133 580 
Q 1338 1288 1338 2009 
Q 1338 2731 1133 3434 
Q 928 4138 513 4856 
z
" transform="scale(0.015625)"/>
      </defs>
      <use xlink:href="#DejaVuSans-42"/>
      <use xlink:href="#DejaVuSans-75" transform="translate(68.603516 0)"/>
      <use xlink:href="#DejaVuSans-69" transform="translate(131.982422 0)"/>
      <use xlink:href="#DejaVuSans-74" transform="translate(159.765625 0)"/>
      <use xlink:href="#DejaVuSans-65" transform="translate(198.974609 0)"/>
      <use xlink:href="#DejaVuSans-6e" transform="translate(260.498047 0)"/>
      <use xlink:href="#DejaVuSans-20" transform="translate(323.876953 0)"/>
      <use xlink:href="#DejaVuSans-74" transform="translate(355.664062 0)"/>
      <use xlink:href="#DejaVuSans-65" transform="translate(394.873047 0)"/>
      <use xlink:href="#DejaVuSans-6d" transform="translate(456.396484 0)"/>
      <use xlink:href="#DejaVuSans-70" transform="translate(553.808594 0)"/>
      <use xlink:href="#DejaVuSans-65" transform="translate(617.285156 0)"/>
      <use xlink:href="#DejaVuSans-72" transform="translate(678.808594 0)"/>
      <use xlink:href="#DejaVuSans-61" transform="translate(719.921875 0)"/>
      <use xlink:href="#DejaVuSans-74" transform="translate(781.201172 0)"/>
      <use xlink:href="#DejaVuSans-75" transform="translate(820.410156 0)"/>
      <use xlink:href="#DejaVuSans-75" transform="translate(883.789062 0)"/>
      <use xlink:href="#DejaVuSans-72" transform="translate(947.167969 0)"/>
      <use xlink:href="#DejaVuSans-20" transform="translate(988.28125 0)"/>
      <use xlink:href="#DejaVuSans-28" transform="translate(1020.068359 0)"/>
      <use xlink:href="#DejaVuSans-b0" transform="translate(1059.082031 0)"/>
      <use xlink:href="#DejaVuSans-43" transform="translate(1109.082031 0)"/>
      <use xlink:href="#DejaVuSans-29" transform="translate(1178.90625 0)"/>
     </g>
    </g>
   </g>
   <g id="line2d_15">
    <path d="M 74.780455 203.133289 
L 78.781839 204.029075 
L 82.783224 205.52205 
L 86.784609 206.915494 
L 90.785993 207.612216 
L 94.787378 208.010343 
L 98.788763 209.105192 
L 102.790148 210.399104 
L 106.791532 211.792548 
L 110.792917 212.688333 
L 114.794302 213.882714 
L 118.795686 214.479904 
L 122.797071 215.97288 
L 126.798456 217.615153 
L 130.79984 218.958831 
L 134.801225 220.601104 
L 138.80261 220.750402 
L 142.803995 219.705319 
L 146.805379 217.465855 
L 150.806764 215.37569 
L 154.808149 213.882714 
L 158.809533 211.195358 
L 166.812303 201.739846 
L 170.813688 195.369816 
L 174.815072 187.606343 
L 178.816457 183.426011 
L 182.817842 178.648489 
L 186.819226 172.079397 
L 190.820611 170.287826 
L 194.821996 167.899065 
L 198.82338 165.211709 
L 202.824765 156.104558 
L 210.827535 125.199962 
L 214.828919 124.602772 
L 218.830304 118.033679 
L 222.831689 126.54364 
L 226.833073 130.574674 
L 230.834458 159.836997 
L 234.835843 169.690636 
L 238.837228 172.377992 
L 242.838612 173.373309 
L 246.839997 178.250363 
L 250.841382 185.715241 
L 254.842766 188.60166 
L 258.844151 191.786675 
L 262.845536 194.573563 
L 266.846921 196.663728 
L 270.848305 198.355767 
L 274.84969 199.251553 
L 278.851075 200.644997 
L 282.852459 202.038441 
L 286.853844 202.983992 
L 298.857998 207.612216 
L 302.859383 207.910811 
L 306.860768 208.806597 
L 314.863537 210.896763 
L 318.864922 212.190675 
L 322.866306 214.032011 
L 326.867691 214.977563 
L 330.869076 216.420772 
L 334.870461 215.97288 
L 338.871845 214.479904 
L 342.87323 210.598168 
L 346.874615 208.657299 
L 350.875999 205.721114 
L 354.877384 201.938909 
L 358.878769 196.464665 
L 366.881538 182.978119 
L 370.882923 178.349894 
L 374.884308 173.870967 
L 378.885692 168.595787 
L 382.887077 165.510304 
L 386.888462 165.361006 
L 390.889846 156.253855 
L 394.891231 149.883826 
L 398.892616 130.87327 
L 402.894001 120.870333 
L 406.895385 119.82525 
L 410.89677 116.839299 
L 414.898155 119.82525 
L 418.899539 123.507923 
L 422.900924 149.83406 
L 426.902309 160.135592 
L 430.903694 166.903748 
L 434.905078 167.700001 
L 438.906463 170.984548 
L 442.907848 178.051299 
L 446.909232 183.625075 
L 450.910617 188.402597 
L 454.912002 192.582928 
L 458.913387 196.365133 
L 462.914771 199.251553 
L 466.916156 201.341719 
L 470.917541 201.242187 
L 474.918925 200.943592 
L 478.92031 201.640314 
L 482.921695 202.536099 
L 486.923079 203.73048 
L 490.924464 204.32767 
L 494.925849 204.775563 
L 502.928618 205.969943 
L 510.931388 208.209407 
L 518.934157 211.195358 
L 522.935542 211.64325 
L 526.936927 211.04606 
L 530.938311 209.702382 
L 534.939696 206.417836 
L 538.941081 203.581182 
L 542.942465 200.147338 
L 546.94385 195.967007 
L 550.945235 194.175436 
L 554.94662 189.995104 
L 558.948004 180.738655 
L 562.949389 176.259728 
L 566.950774 172.825884 
L 570.952158 169.541338 
L 574.953543 162.375055 
L 578.954928 160.931845 
L 582.956312 158.791914 
L 586.957697 148.191787 
L 590.959082 133.560626 
L 594.960467 119.82525 
L 598.961851 119.078762 
L 602.963236 116.690001 
L 606.964621 114.151943 
L 610.966005 122.313543 
L 614.96739 148.888509 
" clip-path="url(#p4f33041d13)" style="fill: none; stroke: #1f77b4; stroke-width: 2; stroke-linecap: square"/>
   </g>
   <g id="line2d_16">
    <path d="M 74.780455 207.313621 
L 78.781839 208.03025 
L 82.783224 209.085286 
L 86.784609 210.379198 
L 94.787378 212.215558 
L 98.788763 212.257029 
L 102.790148 213.550942 
L 106.791532 214.513081 
L 110.792917 216.607394 
L 114.794302 217.963514 
L 122.797071 218.660236 
L 126.798456 219.444048 
L 130.79984 220.103446 
L 134.801225 219.556021 
L 138.80261 219.167848 
L 142.803995 216.878618 
L 146.805379 218.262109 
L 150.806764 209.145005 
L 154.808149 197.211153 
L 162.810918 188.228416 
L 166.812303 188.760911 
L 170.813688 183.953529 
L 174.815072 163.768499 
L 178.816457 160.906962 
L 182.817842 158.642616 
L 186.819226 147.116844 
L 190.820611 142.767309 
L 194.821996 135.780183 
L 198.82338 138.78604 
L 202.824765 149.953498 
L 206.82615 155.656665 
L 210.827535 147.329179 
L 214.828919 159.050696 
L 218.830304 154.860411 
L 222.831689 162.912526 
L 226.833073 166.654919 
L 230.834458 168.960736 
L 234.835843 180.818281 
L 238.837228 184.202359 
L 242.838612 186.451775 
L 246.839997 189.537258 
L 250.841382 192.90143 
L 254.842766 195.588786 
L 258.844151 198.057172 
L 262.845536 200.127432 
L 266.846921 201.700033 
L 270.848305 203.551323 
L 274.84969 204.964673 
L 282.852459 206.975213 
L 286.853844 207.801327 
L 290.855229 210.249807 
L 294.856613 211.419304 
L 298.857998 211.307331 
L 302.859383 212.578849 
L 306.860768 213.235758 
L 310.862152 215.143449 
L 318.864922 214.171356 
L 322.866306 214.032011 
L 326.867691 213.33529 
L 330.869076 213.310407 
L 334.870461 211.668133 
L 338.871845 206.626852 
L 342.87323 210.349338 
L 346.874615 196.464665 
L 350.875999 193.329416 
L 354.877384 184.794572 
L 358.878769 182.579992 
L 362.880154 174.368626 
L 366.881538 177.255045 
L 370.882923 157.298938 
L 374.884308 142.630453 
L 378.885692 135.563701 
L 382.887077 130.898152 
L 386.888462 122.512606 
L 390.889846 122.786318 
L 394.891231 141.572928 
L 398.892616 139.63206 
L 402.894001 142.120353 
L 406.895385 145.989648 
L 410.89677 148.938275 
L 414.898155 145.073127 
L 418.899539 149.021218 
L 422.900924 165.124619 
L 426.902309 170.773043 
L 430.903694 173.738258 
L 434.905078 180.676448 
L 438.906463 183.849021 
L 442.907848 187.680992 
L 446.909232 191.06507 
L 454.912002 196.016772 
L 458.913387 198.306002 
L 462.914771 200.047807 
L 466.916156 201.466133 
L 474.918925 202.610748 
L 478.92031 202.718574 
L 482.921695 202.088207 
L 486.923079 203.73048 
L 490.924464 206.529809 
L 494.925849 206.567133 
L 498.927234 208.284055 
L 502.928618 209.09275 
L 506.930003 209.519907 
L 510.931388 208.109875 
L 514.932772 208.159641 
L 518.934157 207.350946 
L 526.936927 204.215697 
L 534.939696 197.721253 
L 538.941081 197.211153 
L 542.942465 191.919384 
L 546.94385 186.909621 
L 550.945235 179.892636 
L 554.94662 175.786953 
L 558.948004 175.015582 
L 566.950774 144.322492 
L 570.952158 135.21534 
L 574.953543 129.542033 
L 578.954928 135.053601 
L 582.956312 125.896684 
L 586.957697 132.540426 
L 590.959082 138.748716 
L 594.960467 132.167182 
L 598.961851 135.849855 
L 602.963236 144.471789 
L 606.964621 148.017606 
L 610.966005 146.035266 
L 614.96739 163.594319 
L 618.968775 169.292509 
L 622.97016 176.558323 
L 626.971544 172.377992 
L 630.972929 175.463475 
L 634.974314 178.847553 
L 642.977083 187.009153 
L 646.978468 190.691826 
L 650.979852 194.075904 
L 654.981237 196.862792 
L 658.982622 199.251553 
L 662.984007 200.943592 
L 666.985391 202.834694 
L 670.986776 203.929543 
L 674.988161 205.322987 
L 678.989545 206.517368 
L 678.989545 206.517368 
" clip-path="url(#p4f33041d13)" style="fill: none; stroke-dasharray: 5.55,2.4; stroke-dashoffset: 0; stroke: #808080; stroke-width: 1.5"/>
   </g>
   <g id="patch_3">
    <path d="M 44.57 246.04 
L 44.57 26.88 
" style="fill: none; stroke: #000000; stroke-width: 0.8; stroke-linejoin: miter; stroke-linecap: square"/>
   </g>
   <g id="patch_4">
    <path d="M 709.2 246.04 
L 709.2 26.88 
" style="fill: none; stroke: #000000; stroke-width: 0.8; stroke-linejoin: miter; stroke-linecap: square"/>
   </g>
   <g id="patch_5">
    <path d="M 44.57 246.04 
L 709.2 246.04 
" style="fill: none; stroke: #000000; stroke-width: 0.8; stroke-linejoin: miter; stroke-linecap: square"/>
   </g>
   <g id="patch_6">
    <path d="M 44.57 26.88 
L 709.2 26.88 
" style="fill: none; stroke: #000000; stroke-width: 0.8; stroke-linejoin: miter; stroke-linecap: square"/>
   </g>
   <g id="text_17">
    <!-- Buiten temperatuur - v001/c00001/d001 -->
    <g transform="translate(254.91625 20.88) scale(0.12 -0.12)">
     <defs>
      <path id="DejaVuSans-76" d="M 191 3500 
L 800 3500 
L 1894 563 
L 2988 3500 
L 3597 3500 
L 2284 0 
L 1503 0 
L 191 3500 
z
" transform="scale(0.015625)"/>
      <path id="DejaVuSans-2f" d="M 1625 4666 
L 2156 4666 
L 531 -594 
L 0 -594 
L 1625 4666 
z
" transform="scale(0.015625)"/>
      <path id="DejaVuSans-63" d="M 3122 3366 
L 3122 2828 
Q 2878 2963 2633 3030 
Q 2388 3097 2138 3097 
Q 1578 3097 1268 2742 
Q 959 2388 959 1747 
Q 959 1106 1268 751 
Q 1578 397 2138 397 
Q 2388 397 2633 464 
Q 2878 531 3122 666 
L 3122 134 
Q 2881 22 2623 -34 
Q 2366 -91 2075 -91 
Q 1284 -91 818 406 
Q 353 903 353 1747 
Q 353 2603 823 3093 
Q 1294 3584 2113 3584 
Q 2378 3584 2631 3529 
Q 2884 3475 3122 3366 
z
" transform="scale(0.015625)"/>
     </defs>
     <use xlink:href="#DejaVuSans-42"/>
     <use xlink:href="#DejaVuSans-75" transform="translate(68.603516 0)"/>
     <use xlink:href="#DejaVuSans-69" transform="translate(131.982422 0)"/>
     <use xlink:href="#DejaVuSans-74" transform="translate(159.765625 0)"/>
     <use xlink:href="#DejaVuSans-65" transform="translate(198.974609 0)"/>
     <use xlink:href="#DejaVuSans-6e" transform="translate(260.498047 0)"/>
     <use xlink:href="#DejaVuSans-20" transform="translate(323.876953 0)"/>
     <use xlink:href="#DejaVuSans-74" transform="translate(355.664062 0)"/>
     <use xlink:href="#DejaVuSans-65" transform="translate(394.873047 0)"/>
     <use xlink:href="#DejaVuSans-6d" transform="translate(456.396484 0)"/>
     <use xlink:href="#DejaVuSans-70" transform="translate(553.808594 0)"/>
     <use xlink:href="#DejaVuSans-65" transform="translate(617.285156 0)"/>
     <use xlink:href="#DejaVuSans-72" transform="translate(678.808594 0)"/>
     <use xlink:href="#DejaVuSans-61" transform="translate(719.921875 0)"/>
     <use xlink:href="#DejaVuSans-74" transform="translate(781.201172 0)"/>
     <use xlink:href="#DejaVuSans-75" transform="translate(820.410156 0)"/>
     <use xlink:href="#DejaVuSans-75" transform="translate(883.789062 0)"/>
     <use xlink:href="#DejaVuSans-72" transform="translate(947.167969 0)"/>
     <use xlink:href="#DejaVuSans-20" transform="translate(988.28125 0)"/>
     <use xlink:href="#DejaVuSans-2d" transform="translate(1020.068359 0)"/>
     <use xlink:href="#DejaVuSans-20" transform="translate(1056.152344 0)"/>
     <use xlink:href="#DejaVuSans-76" transform="translate(1087.939453 0)"/>
     <use xlink:href="#DejaVuSans-30" transform="translate(1147.119141 0)"/>
     <use xlink:href="#DejaVuSans-30" transform="translate(1210.742188 0)"/>
     <use xlink:href="#DejaVuSans-31" transform="translate(1274.365234 0)"/>
     <use xlink:href="#DejaVuSans-2f" transform="translate(1337.988281 0)"/>
     <use xlink:href="#DejaVuSans-63" transform="translate(1371.679688 0)"/>
     <use xlink:href="#DejaVuSans-30" transform="translate(1426.660156 0)"/>
     <use xlink:href="#DejaVuSans-30" transform="translate(1490.283203 0)"/>
     <use xlink:href="#DejaVuSans-30" transform="translate(1553.90625 0)"/>
     <use xlink:href="#DejaVuSans-30" transform="translate(1617.529297 0)"/>
     <use xlink:href="#DejaVuSans-31" transform="translate(1681.152344 0)"/>
     <use xlink:href="#DejaVuSans-2f" transform="translate(1744.775391 0)"/>
     <use xlink:href="#DejaVuSans-64" transform="translate(1778.466797 0)"/>
     <use xlink:href="#DejaVuSans-30" transform="translate(1841.943359 0)"/>
     <use xlink:href="#DejaVuSans-30" transform="translate(1905.566406 0)"/>
     <use xlink:href="#DejaVuSans-31" transform="translate(1969.189453 0)"/>
    </g>
   </g>
   <g id="legend_1">
    <g id="patch_7">
     <path d="M 51.57 78.914375 
L 202.51375 78.914375 
Q 204.51375 78.914375 204.51375 76.914375 
L 204.51375 33.88 
Q 204.51375 31.88 202.51375 31.88 
L 51.57 31.88 
Q 49.57 31.88 49.57 33.88 
L 49.57 76.914375 
Q 49.57 78.914375 51.57 78.914375 
z
" style="fill: #ffffff; opacity: 0.8; stroke: #cccccc; stroke-linejoin: miter"/>
    </g>
    <g id="line2d_17">
     <path d="M 53.57 39.978438 
L 63.57 39.978438 
L 73.57 39.978438 
" style="fill: none; stroke: #1f77b4; stroke-width: 2; stroke-linecap: square"/>
    </g>
    <g id="text_18">
     <!-- Hive -->
     <g transform="translate(81.57 43.478438) scale(0.1 -0.1)">
      <defs>
       <path id="DejaVuSans-48" d="M 628 4666 
L 1259 4666 
L 1259 2753 
L 3553 2753 
L 3553 4666 
L 4184 4666 
L 4184 0 
L 3553 0 
L 3553 2222 
L 1259 2222 
L 1259 0 
L 628 0 
L 628 4666 
z
" transform="scale(0.015625)"/>
      </defs>
      <use xlink:href="#DejaVuSans-48"/>
      <use xlink:href="#DejaVuSans-69" transform="translate(75.195312 0)"/>
      <use xlink:href="#DejaVuSans-76" transform="translate(102.978516 0)"/>
      <use xlink:href="#DejaVuSans-65" transform="translate(162.158203 0)"/>
     </g>
    </g>
    <g id="line2d_18">
     <path d="M 53.57 54.656563 
L 63.57 54.656563 
L 73.57 54.656563 
" style="fill: none; stroke-dasharray: 5.55,2.4; stroke-dashoffset: 0; stroke: #808080; stroke-width: 1.5"/>
    </g>
    <g id="text_19">
     <!-- Gemiddelde (alle hives) -->
     <g transform="translate(81.57 58.156563) scale(0.1 -0.1)">
      <defs>
       <path id="DejaVuSans-47" d="M 3809 666 
L 3809 1919 
L 2778 1919 
L 2778 2438 
L 4434 2438 
L 4434 434 
Q 4069 175 3628 42 
Q 3188 -91 2688 -91 
Q 1594 -91 976 548 
Q 359 1188 359 2328 
Q 359 3472 976 4111 
Q 1594 4750 2688 4750 
Q 3144 4750 3555 4637 
Q 3966 4525 4313 4306 
L 4313 3634 
Q 3963 3931 3569 4081 
Q 3175 4231 2741 4231 
Q 1884 4231 1454 3753 
Q 1025 3275 1025 2328 
Q 1025 1384 1454 906 
Q 1884 428 2741 428 
Q 3075 428 3337 486 
Q 3600 544 3809 666 
z
" transform="scale(0.015625)"/>
       <path id="DejaVuSans-6c" d="M 603 4863 
L 1178 4863 
L 1178 0 
L 603 0 
L 603 4863 
z
" transform="scale(0.015625)"/>
       <path id="DejaVuSans-68" d="M 3513 2113 
L 3513 0 
L 2938 0 
L 2938 2094 
Q 2938 2591 2744 2837 
Q 2550 3084 2163 3084 
Q 1697 3084 1428 2787 
Q 1159 2491 1159 1978 
L 1159 0 
L 581 0 
L 581 4863 
L 1159 4863 
L 1159 2956 
Q 1366 3272 1645 3428 
Q 1925 3584 2291 3584 
Q 2894 3584 3203 3211 
Q 3513 2838 3513 2113 
z
" transform="scale(0.015625)"/>
       <path id="DejaVuSans-73" d="M 2834 3397 
L 2834 2853 
Q 2591 2978 2328 3040 
Q 2066 3103 1784 3103 
Q 1356 3103 1142 2972 
Q 928 2841 928 2578 
Q 928 2378 1081 2264 
Q 1234 2150 1697 2047 
L 1894 2003 
Q 2506 1872 2764 1633 
Q 3022 1394 3022 966 
Q 3022 478 2636 193 
Q 2250 -91 1575 -91 
Q 1294 -91 989 -36 
Q 684 19 347 128 
L 347 722 
Q 666 556 975 473 
Q 1284 391 1588 391 
Q 1994 391 2212 530 
Q 2431 669 2431 922 
Q 2431 1156 2273 1281 
Q 2116 1406 1581 1522 
L 1381 1569 
Q 847 1681 609 1914 
Q 372 2147 372 2553 
Q 372 3047 722 3315 
Q 1072 3584 1716 3584 
Q 2034 3584 2315 3537 
Q 2597 3491 2834 3397 
z
" transform="scale(0.015625)"/>
      </defs>
      <use xlink:href="#DejaVuSans-47"/>
      <use xlink:href="#DejaVuSans-65" transform="translate(77.490234 0)"/>
      <use xlink:href="#DejaVuSans-6d" transform="translate(139.013672 0)"/>
      <use xlink:href="#DejaVuSans-69" transform="translate(236.425781 0)"/>
      <use xlink:href="#DejaVuSans-64" transform="translate(264.208984 0)"/>
      <use xlink:href="#DejaVuSans-64" transform="translate(327.685547 0)"/>
      <use xlink:href="#DejaVuSans-65" transform="translate(391.162109 0)"/>
      <use xlink:href="#DejaVuSans-6c" transform="translate(452.685547 0)"/>
      <use xlink:href="#DejaVuSans-64" transform="translate(480.46875 0)"/>
      <use xlink:href="#DejaVuSans-65" transform="translate(543.945312 0)"/>
      <use xlink:href="#DejaVuSans-20" transform="translate(605.46875 0)"/>
      <use xlink:href="#DejaVuSans-28" transform="translate(637.255859 0)"/>
      <use xlink:href="#DejaVuSans-61" transform="translate(676.269531 0)"/>
      <use xlink:href="#DejaVuSans-6c" transform="translate(737.548828 0)"/>
      <use xlink:href="#DejaVuSans-6c" transform="translate(765.332031 0)"/>
      <use xlink:href="#DejaVuSans-65" transform="translate(793.115234 0)"/>
      <use xlink:href="#DejaVuSans-20" transform="translate(854.638672 0)"/>
      <use xlink:href="#DejaVuSans-68" transform="translate(886.425781 0)"/>
      <use xlink:href="#DejaVuSans-69" transform="translate(949.804688 0)"/>
      <use xlink:href="#DejaVuSans-76" transform="translate(977.587891 0)"/>
      <use xlink:href="#DejaVuSans-65" transform="translate(1036.767578 0)"/>
      <use xlink:href="#DejaVuSans-73" transform="translate(1098.291016 0)"/>
      <use xlink:href="#DejaVuSans-29" transform="translate(1150.390625 0)"/>
     </g>
    </g>
    <g id="patch_8">
     <path d="M 53.57 72.834688 
L 73.57 72.834688 
L 73.57 65.834688 
L 53.57 65.834688 
z
" style="fill: #808080; fill-opacity: 0.2; stroke: #808080; stroke-opacity: 0.2; stroke-linejoin: miter"/>
    </g>
    <g id="text_20">
     <!-- ±2 Std Dev -->
     <g transform="translate(81.57 72.834688) scale(0.1 -0.1)">
      <defs>
       <path id="DejaVuSans-b1" d="M 2944 4013 
L 2944 2803 
L 4684 2803 
L 4684 2272 
L 2944 2272 
L 2944 1063 
L 2419 1063 
L 2419 2272 
L 678 2272 
L 678 2803 
L 2419 2803 
L 2419 4013 
L 2944 4013 
z
M 678 531 
L 4684 531 
L 4684 0 
L 678 0 
L 678 531 
z
" transform="scale(0.015625)"/>
       <path id="DejaVuSans-53" d="M 3425 4513 
L 3425 3897 
Q 3066 4069 2747 4153 
Q 2428 4238 2131 4238 
Q 1616 4238 1336 4038 
Q 1056 3838 1056 3469 
Q 1056 3159 1242 3001 
Q 1428 2844 1947 2747 
L 2328 2669 
Q 3034 2534 3370 2195 
Q 3706 1856 3706 1288 
Q 3706 609 3251 259 
Q 2797 -91 1919 -91 
Q 1588 -91 1214 -16 
Q 841 59 441 206 
L 441 856 
Q 825 641 1194 531 
Q 1563 422 1919 422 
Q 2459 422 2753 634 
Q 3047 847 3047 1241 
Q 3047 1584 2836 1778 
Q 2625 1972 2144 2069 
L 1759 2144 
Q 1053 2284 737 2584 
Q 422 2884 422 3419 
Q 422 4038 858 4394 
Q 1294 4750 2059 4750 
Q 2388 4750 2728 4690 
Q 3069 4631 3425 4513 
z
" transform="scale(0.015625)"/>
       <path id="DejaVuSans-44" d="M 1259 4147 
L 1259 519 
L 2022 519 
Q 2988 519 3436 956 
Q 3884 1394 3884 2338 
Q 3884 3275 3436 3711 
Q 2988 4147 2022 4147 
L 1259 4147 
z
M 628 4666 
L 1925 4666 
Q 3281 4666 3915 4102 
Q 4550 3538 4550 2338 
Q 4550 1131 3912 565 
Q 3275 0 1925 0 
L 628 0 
L 628 4666 
z
" transform="scale(0.015625)"/>
      </defs>
      <use xlink:href="#DejaVuSans-b1"/>
      <use xlink:href="#DejaVuSans-32" transform="translate(83.789062 0)"/>
      <use xlink:href="#DejaVuSans-20" transform="translate(147.412109 0)"/>
      <use xlink:href="#DejaVuSans-53" transform="translate(179.199219 0)"/>
      <use xlink:href="#DejaVuSans-74" transform="translate(242.675781 0)"/>
      <use xlink:href="#DejaVuSans-64" transform="translate(281.884766 0)"/>
      <use xlink:href="#DejaVuSans-20" transform="translate(345.361328 0)"/>
      <use xlink:href="#DejaVuSans-44" transform="translate(377.148438 0)"/>
      <use xlink:href="#DejaVuSans-65" transform="translate(454.150391 0)"/>
      <use xlink:href="#DejaVuSans-76" transform="translate(515.673828 0)"/>
     </g>
    </g>
   </g>
  </g>
 </g>
 <defs>
  <clipPath id="p4f33041d13">
   <rect x="44.57" y="26.88" width="664.63" height="219.16"/>
  </clipPath>
 </defs>
</svg>
