<?xml version="1.0" encoding="utf-8" standalone="no"?>
<!DOCTYPE svg PUBLIC "-//W3C//DTD SVG 1.1//EN"
  "http://www.w3.org/Graphics/SVG/1.1/DTD/svg11.dtd">
<svg xmlns:xlink="http://www.w3.org/1999/xlink" width="720pt" height="288pt" viewBox="0 0 720 288" xmlns="http://www.w3.org/2000/svg" version="1.1">
 <metadata>
  <rdf:RDF xmlns:dc="http://purl.org/dc/elements/1.1/" xmlns:cc="http://creativecommons.org/ns#" xmlns:rdf="http://www.w3.org/1999/02/22-rdf-syntax-ns#">
   <cc:Work>
    <dc:type rdf:resource="http://purl.org/dc/dcmitype/StillImage"/>
    <dc:date>2025-05-31T10:16:01.103824</dc:date>
    <dc:format>image/svg+xml</dc:format>
    <dc:creator>
     <cc:Agent>
      <dc:title>Matplotlib v3.10.3, https://matplotlib.org/</dc:title>
     </cc:Agent>
    </dc:creator>
   </cc:Work>
  </rdf:RDF>
 </metadata>
 <defs>
  <style type="text/css">*{stroke-linejoin: round; stroke-linecap: butt}</style>
 </defs>
 <g id="figure_1">
  <g id="patch_1">
   <path d="M 0 288 
L 720 288 
L 720 0 
L 0 0 
z
" style="fill: #ffffff"/>
  </g>
  <g id="axes_1">
   <g id="patch_2">
    <path d="M 71.84 246.04 
L 709.2 246.04 
L 709.2 26.88 
L 71.84 26.88 
z
" style="fill: #ffffff"/>
   </g>
   <g id="FillBetweenPolyCollection_1">
    <defs>
     <path id="m1159012a6b" d="M 100.810909 -174.942786 
L 100.810909 -108.703562 
L 104.40978 -118.563034 
L 108.00865 -109.852588 
L 111.607521 -112.181001 
L 115.206392 -102.200908 
L 118.805263 -111.178387 
L 122.404133 -117.201476 
L 126.003004 -113.268437 
L 129.601875 -110.151501 
L 133.200745 -116.220817 
L 136.799616 -110.147979 
L 140.398487 -121.775319 
L 143.997357 -116.064737 
L 147.596228 -113.821337 
L 151.195099 -123.95232 
L 154.79397 -115.497363 
L 158.39284 -116.305942 
L 161.991711 -117.247537 
L 165.590582 -114.18747 
L 169.189452 -112.666118 
L 172.788323 -116.941201 
L 176.387194 -116.258557 
L 179.986064 -106.818897 
L 183.584935 -116.677376 
L 187.183806 -120.532405 
L 190.782676 -119.622983 
L 194.381547 -132.757478 
L 197.980418 -128.096128 
L 201.579289 -125.944053 
L 205.178159 -125.058606 
L 208.77703 -133.09404 
L 212.375901 -135.553016 
L 215.974771 -136.473429 
L 219.573642 -137.256384 
L 223.172513 -136.105014 
L 226.771383 -137.841295 
L 230.370254 -134.267681 
L 233.969125 -139.640976 
L 237.567995 -132.930044 
L 241.166866 -115.988149 
L 244.765737 -118.075839 
L 248.364608 -124.420964 
L 251.963478 -127.91752 
L 255.562349 -124.398034 
L 259.16122 -139.371308 
L 262.76009 -123.928713 
L 266.358961 -120.059081 
L 269.957832 -115.763018 
L 273.556702 -108.144879 
L 277.155573 -102.511498 
L 280.754444 -112.240345 
L 284.353315 -124.264529 
L 287.952185 -116.241277 
L 291.551056 -118.933625 
L 295.149927 -116.036383 
L 298.748797 -117.615468 
L 302.347668 -119.990065 
L 305.946539 -119.971741 
L 309.545409 -114.187759 
L 313.14428 -124.128454 
L 316.743151 -119.871409 
L 320.342021 -114.89915 
L 323.940892 -119.544838 
L 327.539763 -120.852244 
L 331.138634 -117.920556 
L 334.737504 -117.674393 
L 338.336375 -116.719547 
L 341.935246 -109.397379 
L 345.534116 -112.583997 
L 349.132987 -111.022937 
L 352.731858 -102.652119 
L 356.330728 -97.248448 
L 359.929599 -97.964871 
L 363.52847 -99.914087 
L 367.12734 -98.09056 
L 370.726211 -103.424114 
L 374.325082 -99.534958 
L 377.923953 -101.28941 
L 381.522823 -102.273573 
L 385.121694 -100.970757 
L 388.720565 -101.797479 
L 392.319435 -98.866662 
L 395.918306 -103.092528 
L 399.517177 -102.016484 
L 403.116047 -101.900409 
L 406.714918 -101.716597 
L 410.313789 -96.95457 
L 413.91266 -96.551964 
L 417.51153 -97.307164 
L 421.110401 -98.313334 
L 424.709272 -97.387126 
L 428.308142 -131.471561 
L 431.907013 -131.918416 
L 435.505884 -127.775646 
L 439.104754 -123.225661 
L 442.703625 -120.060523 
L 446.302496 -122.980703 
L 449.901366 -121.711411 
L 453.500237 -129.002758 
L 457.099108 -125.586712 
L 460.697979 -122.558091 
L 464.296849 -125.560437 
L 467.89572 -115.898224 
L 471.494591 -112.042042 
L 475.093461 -120.672095 
L 478.692332 -119.476911 
L 482.291203 -117.373287 
L 485.890073 -117.084279 
L 489.488944 -119.500869 
L 493.087815 -118.920786 
L 496.686685 -111.930401 
L 500.285556 -107.483855 
L 503.884427 -105.875273 
L 507.483298 -108.276594 
L 511.082168 -106.811018 
L 514.681039 -100.277673 
L 518.27991 -98.31713 
L 521.87878 -105.408288 
L 525.477651 -110.59291 
L 529.076522 -115.185612 
L 532.675392 -113.249447 
L 536.274263 -113.636457 
L 539.873134 -111.533241 
L 543.472005 -118.444666 
L 547.070875 -118.181387 
L 550.669746 -118.558483 
L 554.268617 -127.961728 
L 557.867487 -127.672608 
L 561.466358 -127.184895 
L 565.065229 -135.754109 
L 568.664099 -134.268216 
L 572.26297 -129.26177 
L 575.861841 -130.632649 
L 579.460711 -134.570928 
L 583.059582 -129.689819 
L 586.658453 -136.329323 
L 590.257324 -130.75791 
L 593.856194 -136.889072 
L 597.455065 -147.011676 
L 601.053936 -141.648232 
L 604.652806 -130.075869 
L 608.251677 -121.822211 
L 611.850548 -116.019925 
L 615.449418 -95.448792 
L 619.048289 -79.537932 
L 622.64716 -105.234961 
L 626.24603 -84.096109 
L 629.844901 -94.707508 
L 633.443772 -97.718508 
L 637.042643 -51.921818 
L 640.641513 -65.193323 
L 644.240384 -86.946773 
L 644.240384 -191.878832 
L 644.240384 -191.878832 
L 640.641513 -239.181042 
L 637.042643 -251.158182 
L 633.443772 -174.790565 
L 629.844901 -195.398785 
L 626.24603 -222.154807 
L 622.64716 -179.393901 
L 619.048289 -231.452793 
L 615.449418 -215.132657 
L 611.850548 -184.158516 
L 608.251677 -197.00935 
L 604.652806 -186.334418 
L 601.053936 -175.069012 
L 597.455065 -161.122499 
L 593.856194 -171.214492 
L 590.257324 -178.219141 
L 586.658453 -165.427517 
L 583.059582 -173.977538 
L 579.460711 -166.545998 
L 575.861841 -166.227967 
L 572.26297 -158.177935 
L 568.664099 -162.978193 
L 565.065229 -157.369341 
L 561.466358 -157.621349 
L 557.867487 -154.26199 
L 554.268617 -153.605527 
L 550.669746 -174.623675 
L 547.070875 -174.917741 
L 543.472005 -153.363689 
L 539.873134 -148.838012 
L 536.274263 -143.361618 
L 532.675392 -137.257232 
L 529.076522 -136.582444 
L 525.477651 -134.361695 
L 521.87878 -144.320094 
L 518.27991 -152.432766 
L 514.681039 -147.598061 
L 511.082168 -143.585794 
L 507.483298 -148.434652 
L 503.884427 -152.593011 
L 500.285556 -155.528407 
L 496.686685 -152.803674 
L 493.087815 -144.682745 
L 489.488944 -145.681061 
L 485.890073 -149.175778 
L 482.291203 -152.501068 
L 478.692332 -155.271862 
L 475.093461 -161.714552 
L 471.494591 -159.211105 
L 467.89572 -156.175993 
L 464.296849 -144.111796 
L 460.697979 -148.345327 
L 457.099108 -144.147164 
L 453.500237 -140.433805 
L 449.901366 -146.470694 
L 446.302496 -151.506401 
L 442.703625 -157.689053 
L 439.104754 -151.361246 
L 435.505884 -156.365523 
L 431.907013 -150.954666 
L 428.308142 -157.434578 
L 424.709272 -174.035436 
L 421.110401 -179.098086 
L 417.51153 -176.645533 
L 413.91266 -177.922728 
L 410.313789 -174.372717 
L 406.714918 -172.984371 
L 403.116047 -171.170442 
L 399.517177 -163.19536 
L 395.918306 -161.801735 
L 392.319435 -162.892945 
L 388.720565 -167.388038 
L 385.121694 -162.127609 
L 381.522823 -159.97381 
L 377.923953 -159.962179 
L 374.325082 -174.053559 
L 370.726211 -161.643157 
L 367.12734 -169.154408 
L 363.52847 -165.628118 
L 359.929599 -156.801951 
L 356.330728 -159.920359 
L 352.731858 -164.092276 
L 349.132987 -157.515518 
L 345.534116 -155.442622 
L 341.935246 -155.909515 
L 338.336375 -156.083245 
L 334.737504 -154.928553 
L 331.138634 -160.167288 
L 327.539763 -154.62171 
L 323.940892 -166.908577 
L 320.342021 -164.48921 
L 316.743151 -164.643214 
L 313.14428 -157.869884 
L 309.545409 -176.057815 
L 305.946539 -170.940385 
L 302.347668 -184.97669 
L 298.748797 -180.805375 
L 295.149927 -181.20152 
L 291.551056 -183.117872 
L 287.952185 -187.909999 
L 284.353315 -176.320673 
L 280.754444 -200.781388 
L 277.155573 -228.303626 
L 273.556702 -222.083407 
L 269.957832 -212.103062 
L 266.358961 -212.705379 
L 262.76009 -204.11349 
L 259.16122 -184.018607 
L 255.562349 -203.354225 
L 251.963478 -212.386928 
L 248.364608 -205.783121 
L 244.765737 -210.786834 
L 241.166866 -223.785054 
L 237.567995 -207.834441 
L 233.969125 -201.49197 
L 230.370254 -212.215695 
L 226.771383 -204.981115 
L 223.172513 -200.008182 
L 219.573642 -188.376167 
L 215.974771 -189.241472 
L 212.375901 -193.099843 
L 208.77703 -175.564311 
L 205.178159 -192.524437 
L 201.579289 -195.121756 
L 197.980418 -188.038711 
L 194.381547 -172.51236 
L 190.782676 -190.489164 
L 187.183806 -188.796653 
L 183.584935 -179.36265 
L 179.986064 -180.758112 
L 176.387194 -162.344078 
L 172.788323 -161.311824 
L 169.189452 -170.533931 
L 165.590582 -164.196629 
L 161.991711 -161.209168 
L 158.39284 -165.517471 
L 154.79397 -168.572039 
L 151.195099 -164.467204 
L 147.596228 -180.3156 
L 143.997357 -174.580409 
L 140.398487 -167.446225 
L 136.799616 -170.953928 
L 133.200745 -163.532969 
L 129.601875 -173.358141 
L 126.003004 -170.288411 
L 122.404133 -166.364957 
L 118.805263 -169.000011 
L 115.206392 -186.481723 
L 111.607521 -173.694283 
L 108.00865 -180.623983 
L 104.40978 -179.468382 
L 100.810909 -174.942786 
z
" style="stroke: #808080; stroke-opacity: 0.2"/>
    </defs>
    <g clip-path="url(#p38071f9970)">
     <use xlink:href="#m1159012a6b" x="0" y="288" style="fill: #808080; fill-opacity: 0.2; stroke: #808080; stroke-opacity: 0.2"/>
    </g>
   </g>
   <g id="matplotlib.axis_1">
    <g id="xtick_1">
     <g id="line2d_1">
      <defs>
       <path id="m29b02aaf75" d="M 0 0 
L 0 3.5 
" style="stroke: #000000; stroke-width: 0.8"/>
      </defs>
      <g>
       <use xlink:href="#m29b02aaf75" x="115.206392" y="246.04" style="stroke: #000000; stroke-width: 0.8"/>
      </g>
     </g>
     <g id="text_1">
      <!-- 05-28 12 -->
      <g transform="translate(92.725923 260.638438) scale(0.1 -0.1)">
       <defs>
        <path id="DejaVuSans-30" d="M 2034 4250 
Q 1547 4250 1301 3770 
Q 1056 3291 1056 2328 
Q 1056 1369 1301 889 
Q 1547 409 2034 409 
Q 2525 409 2770 889 
Q 3016 1369 3016 2328 
Q 3016 3291 2770 3770 
Q 2525 4250 2034 4250 
z
M 2034 4750 
Q 2819 4750 3233 4129 
Q 3647 3509 3647 2328 
Q 3647 1150 3233 529 
Q 2819 -91 2034 -91 
Q 1250 -91 836 529 
Q 422 1150 422 2328 
Q 422 3509 836 4129 
Q 1250 4750 2034 4750 
z
" transform="scale(0.015625)"/>
        <path id="DejaVuSans-35" d="M 691 4666 
L 3169 4666 
L 3169 4134 
L 1269 4134 
L 1269 2991 
Q 1406 3038 1543 3061 
Q 1681 3084 1819 3084 
Q 2600 3084 3056 2656 
Q 3513 2228 3513 1497 
Q 3513 744 3044 326 
Q 2575 -91 1722 -91 
Q 1428 -91 1123 -41 
Q 819 9 494 109 
L 494 744 
Q 775 591 1075 516 
Q 1375 441 1709 441 
Q 2250 441 2565 725 
Q 2881 1009 2881 1497 
Q 2881 1984 2565 2268 
Q 2250 2553 1709 2553 
Q 1456 2553 1204 2497 
Q 953 2441 691 2322 
L 691 4666 
z
" transform="scale(0.015625)"/>
        <path id="DejaVuSans-2d" d="M 313 2009 
L 1997 2009 
L 1997 1497 
L 313 1497 
L 313 2009 
z
" transform="scale(0.015625)"/>
        <path id="DejaVuSans-32" d="M 1228 531 
L 3431 531 
L 3431 0 
L 469 0 
L 469 531 
Q 828 903 1448 1529 
Q 2069 2156 2228 2338 
Q 2531 2678 2651 2914 
Q 2772 3150 2772 3378 
Q 2772 3750 2511 3984 
Q 2250 4219 1831 4219 
Q 1534 4219 1204 4116 
Q 875 4013 500 3803 
L 500 4441 
Q 881 4594 1212 4672 
Q 1544 4750 1819 4750 
Q 2544 4750 2975 4387 
Q 3406 4025 3406 3419 
Q 3406 3131 3298 2873 
Q 3191 2616 2906 2266 
Q 2828 2175 2409 1742 
Q 1991 1309 1228 531 
z
" transform="scale(0.015625)"/>
        <path id="DejaVuSans-38" d="M 2034 2216 
Q 1584 2216 1326 1975 
Q 1069 1734 1069 1313 
Q 1069 891 1326 650 
Q 1584 409 2034 409 
Q 2484 409 2743 651 
Q 3003 894 3003 1313 
Q 3003 1734 2745 1975 
Q 2488 2216 2034 2216 
z
M 1403 2484 
Q 997 2584 770 2862 
Q 544 3141 544 3541 
Q 544 4100 942 4425 
Q 1341 4750 2034 4750 
Q 2731 4750 3128 4425 
Q 3525 4100 3525 3541 
Q 3525 3141 3298 2862 
Q 3072 2584 2669 2484 
Q 3125 2378 3379 2068 
Q 3634 1759 3634 1313 
Q 3634 634 3220 271 
Q 2806 -91 2034 -91 
Q 1263 -91 848 271 
Q 434 634 434 1313 
Q 434 1759 690 2068 
Q 947 2378 1403 2484 
z
M 1172 3481 
Q 1172 3119 1398 2916 
Q 1625 2713 2034 2713 
Q 2441 2713 2670 2916 
Q 2900 3119 2900 3481 
Q 2900 3844 2670 4047 
Q 2441 4250 2034 4250 
Q 1625 4250 1398 4047 
Q 1172 3844 1172 3481 
z
" transform="scale(0.015625)"/>
        <path id="DejaVuSans-20" transform="scale(0.015625)"/>
        <path id="DejaVuSans-31" d="M 794 531 
L 1825 531 
L 1825 4091 
L 703 3866 
L 703 4441 
L 1819 4666 
L 2450 4666 
L 2450 531 
L 3481 531 
L 3481 0 
L 794 0 
L 794 531 
z
" transform="scale(0.015625)"/>
       </defs>
       <use xlink:href="#DejaVuSans-30"/>
       <use xlink:href="#DejaVuSans-35" transform="translate(63.623047 0)"/>
       <use xlink:href="#DejaVuSans-2d" transform="translate(127.246094 0)"/>
       <use xlink:href="#DejaVuSans-32" transform="translate(163.330078 0)"/>
       <use xlink:href="#DejaVuSans-38" transform="translate(226.953125 0)"/>
       <use xlink:href="#DejaVuSans-20" transform="translate(290.576172 0)"/>
       <use xlink:href="#DejaVuSans-31" transform="translate(322.363281 0)"/>
       <use xlink:href="#DejaVuSans-32" transform="translate(385.986328 0)"/>
      </g>
     </g>
    </g>
    <g id="xtick_2">
     <g id="line2d_2">
      <g>
       <use xlink:href="#m29b02aaf75" x="201.579289" y="246.04" style="stroke: #000000; stroke-width: 0.8"/>
      </g>
     </g>
     <g id="text_2">
      <!-- 05-29 00 -->
      <g transform="translate(179.09882 260.638438) scale(0.1 -0.1)">
       <defs>
        <path id="DejaVuSans-39" d="M 703 97 
L 703 672 
Q 941 559 1184 500 
Q 1428 441 1663 441 
Q 2288 441 2617 861 
Q 2947 1281 2994 2138 
Q 2813 1869 2534 1725 
Q 2256 1581 1919 1581 
Q 1219 1581 811 2004 
Q 403 2428 403 3163 
Q 403 3881 828 4315 
Q 1253 4750 1959 4750 
Q 2769 4750 3195 4129 
Q 3622 3509 3622 2328 
Q 3622 1225 3098 567 
Q 2575 -91 1691 -91 
Q 1453 -91 1209 -44 
Q 966 3 703 97 
z
M 1959 2075 
Q 2384 2075 2632 2365 
Q 2881 2656 2881 3163 
Q 2881 3666 2632 3958 
Q 2384 4250 1959 4250 
Q 1534 4250 1286 3958 
Q 1038 3666 1038 3163 
Q 1038 2656 1286 2365 
Q 1534 2075 1959 2075 
z
" transform="scale(0.015625)"/>
       </defs>
       <use xlink:href="#DejaVuSans-30"/>
       <use xlink:href="#DejaVuSans-35" transform="translate(63.623047 0)"/>
       <use xlink:href="#DejaVuSans-2d" transform="translate(127.246094 0)"/>
       <use xlink:href="#DejaVuSans-32" transform="translate(163.330078 0)"/>
       <use xlink:href="#DejaVuSans-39" transform="translate(226.953125 0)"/>
       <use xlink:href="#DejaVuSans-20" transform="translate(290.576172 0)"/>
       <use xlink:href="#DejaVuSans-30" transform="translate(322.363281 0)"/>
       <use xlink:href="#DejaVuSans-30" transform="translate(385.986328 0)"/>
      </g>
     </g>
    </g>
    <g id="xtick_3">
     <g id="line2d_3">
      <g>
       <use xlink:href="#m29b02aaf75" x="287.952185" y="246.04" style="stroke: #000000; stroke-width: 0.8"/>
      </g>
     </g>
     <g id="text_3">
      <!-- 05-29 12 -->
      <g transform="translate(265.471716 260.638438) scale(0.1 -0.1)">
       <use xlink:href="#DejaVuSans-30"/>
       <use xlink:href="#DejaVuSans-35" transform="translate(63.623047 0)"/>
       <use xlink:href="#DejaVuSans-2d" transform="translate(127.246094 0)"/>
       <use xlink:href="#DejaVuSans-32" transform="translate(163.330078 0)"/>
       <use xlink:href="#DejaVuSans-39" transform="translate(226.953125 0)"/>
       <use xlink:href="#DejaVuSans-20" transform="translate(290.576172 0)"/>
       <use xlink:href="#DejaVuSans-31" transform="translate(322.363281 0)"/>
       <use xlink:href="#DejaVuSans-32" transform="translate(385.986328 0)"/>
      </g>
     </g>
    </g>
    <g id="xtick_4">
     <g id="line2d_4">
      <g>
       <use xlink:href="#m29b02aaf75" x="374.325082" y="246.04" style="stroke: #000000; stroke-width: 0.8"/>
      </g>
     </g>
     <g id="text_4">
      <!-- 05-30 00 -->
      <g transform="translate(351.844613 260.638438) scale(0.1 -0.1)">
       <defs>
        <path id="DejaVuSans-33" d="M 2597 2516 
Q 3050 2419 3304 2112 
Q 3559 1806 3559 1356 
Q 3559 666 3084 287 
Q 2609 -91 1734 -91 
Q 1441 -91 1130 -33 
Q 819 25 488 141 
L 488 750 
Q 750 597 1062 519 
Q 1375 441 1716 441 
Q 2309 441 2620 675 
Q 2931 909 2931 1356 
Q 2931 1769 2642 2001 
Q 2353 2234 1838 2234 
L 1294 2234 
L 1294 2753 
L 1863 2753 
Q 2328 2753 2575 2939 
Q 2822 3125 2822 3475 
Q 2822 3834 2567 4026 
Q 2313 4219 1838 4219 
Q 1578 4219 1281 4162 
Q 984 4106 628 3988 
L 628 4550 
Q 988 4650 1302 4700 
Q 1616 4750 1894 4750 
Q 2613 4750 3031 4423 
Q 3450 4097 3450 3541 
Q 3450 3153 3228 2886 
Q 3006 2619 2597 2516 
z
" transform="scale(0.015625)"/>
       </defs>
       <use xlink:href="#DejaVuSans-30"/>
       <use xlink:href="#DejaVuSans-35" transform="translate(63.623047 0)"/>
       <use xlink:href="#DejaVuSans-2d" transform="translate(127.246094 0)"/>
       <use xlink:href="#DejaVuSans-33" transform="translate(163.330078 0)"/>
       <use xlink:href="#DejaVuSans-30" transform="translate(226.953125 0)"/>
       <use xlink:href="#DejaVuSans-20" transform="translate(290.576172 0)"/>
       <use xlink:href="#DejaVuSans-30" transform="translate(322.363281 0)"/>
       <use xlink:href="#DejaVuSans-30" transform="translate(385.986328 0)"/>
      </g>
     </g>
    </g>
    <g id="xtick_5">
     <g id="line2d_5">
      <g>
       <use xlink:href="#m29b02aaf75" x="460.697979" y="246.04" style="stroke: #000000; stroke-width: 0.8"/>
      </g>
     </g>
     <g id="text_5">
      <!-- 05-30 12 -->
      <g transform="translate(438.21751 260.638438) scale(0.1 -0.1)">
       <use xlink:href="#DejaVuSans-30"/>
       <use xlink:href="#DejaVuSans-35" transform="translate(63.623047 0)"/>
       <use xlink:href="#DejaVuSans-2d" transform="translate(127.246094 0)"/>
       <use xlink:href="#DejaVuSans-33" transform="translate(163.330078 0)"/>
       <use xlink:href="#DejaVuSans-30" transform="translate(226.953125 0)"/>
       <use xlink:href="#DejaVuSans-20" transform="translate(290.576172 0)"/>
       <use xlink:href="#DejaVuSans-31" transform="translate(322.363281 0)"/>
       <use xlink:href="#DejaVuSans-32" transform="translate(385.986328 0)"/>
      </g>
     </g>
    </g>
    <g id="xtick_6">
     <g id="line2d_6">
      <g>
       <use xlink:href="#m29b02aaf75" x="547.070875" y="246.04" style="stroke: #000000; stroke-width: 0.8"/>
      </g>
     </g>
     <g id="text_6">
      <!-- 05-31 00 -->
      <g transform="translate(524.590406 260.638438) scale(0.1 -0.1)">
       <use xlink:href="#DejaVuSans-30"/>
       <use xlink:href="#DejaVuSans-35" transform="translate(63.623047 0)"/>
       <use xlink:href="#DejaVuSans-2d" transform="translate(127.246094 0)"/>
       <use xlink:href="#DejaVuSans-33" transform="translate(163.330078 0)"/>
       <use xlink:href="#DejaVuSans-31" transform="translate(226.953125 0)"/>
       <use xlink:href="#DejaVuSans-20" transform="translate(290.576172 0)"/>
       <use xlink:href="#DejaVuSans-30" transform="translate(322.363281 0)"/>
       <use xlink:href="#DejaVuSans-30" transform="translate(385.986328 0)"/>
      </g>
     </g>
    </g>
    <g id="xtick_7">
     <g id="line2d_7">
      <g>
       <use xlink:href="#m29b02aaf75" x="633.443772" y="246.04" style="stroke: #000000; stroke-width: 0.8"/>
      </g>
     </g>
     <g id="text_7">
      <!-- 05-31 12 -->
      <g transform="translate(610.963303 260.638438) scale(0.1 -0.1)">
       <use xlink:href="#DejaVuSans-30"/>
       <use xlink:href="#DejaVuSans-35" transform="translate(63.623047 0)"/>
       <use xlink:href="#DejaVuSans-2d" transform="translate(127.246094 0)"/>
       <use xlink:href="#DejaVuSans-33" transform="translate(163.330078 0)"/>
       <use xlink:href="#DejaVuSans-31" transform="translate(226.953125 0)"/>
       <use xlink:href="#DejaVuSans-20" transform="translate(290.576172 0)"/>
       <use xlink:href="#DejaVuSans-31" transform="translate(322.363281 0)"/>
       <use xlink:href="#DejaVuSans-32" transform="translate(385.986328 0)"/>
      </g>
     </g>
    </g>
    <g id="text_8">
     <!-- Tijd -->
     <g transform="translate(381.67 274.316562) scale(0.1 -0.1)">
      <defs>
       <path id="DejaVuSans-54" d="M -19 4666 
L 3928 4666 
L 3928 4134 
L 2272 4134 
L 2272 0 
L 1638 0 
L 1638 4134 
L -19 4134 
L -19 4666 
z
" transform="scale(0.015625)"/>
       <path id="DejaVuSans-69" d="M 603 3500 
L 1178 3500 
L 1178 0 
L 603 0 
L 603 3500 
z
M 603 4863 
L 1178 4863 
L 1178 4134 
L 603 4134 
L 603 4863 
z
" transform="scale(0.015625)"/>
       <path id="DejaVuSans-6a" d="M 603 3500 
L 1178 3500 
L 1178 -63 
Q 1178 -731 923 -1031 
Q 669 -1331 103 -1331 
L -116 -1331 
L -116 -844 
L 38 -844 
Q 366 -844 484 -692 
Q 603 -541 603 -63 
L 603 3500 
z
M 603 4863 
L 1178 4863 
L 1178 4134 
L 603 4134 
L 603 4863 
z
" transform="scale(0.015625)"/>
       <path id="DejaVuSans-64" d="M 2906 2969 
L 2906 4863 
L 3481 4863 
L 3481 0 
L 2906 0 
L 2906 525 
Q 2725 213 2448 61 
Q 2172 -91 1784 -91 
Q 1150 -91 751 415 
Q 353 922 353 1747 
Q 353 2572 751 3078 
Q 1150 3584 1784 3584 
Q 2172 3584 2448 3432 
Q 2725 3281 2906 2969 
z
M 947 1747 
Q 947 1113 1208 752 
Q 1469 391 1925 391 
Q 2381 391 2643 752 
Q 2906 1113 2906 1747 
Q 2906 2381 2643 2742 
Q 2381 3103 1925 3103 
Q 1469 3103 1208 2742 
Q 947 2381 947 1747 
z
" transform="scale(0.015625)"/>
      </defs>
      <use xlink:href="#DejaVuSans-54"/>
      <use xlink:href="#DejaVuSans-69" transform="translate(57.958984 0)"/>
      <use xlink:href="#DejaVuSans-6a" transform="translate(85.742188 0)"/>
      <use xlink:href="#DejaVuSans-64" transform="translate(113.525391 0)"/>
     </g>
    </g>
   </g>
   <g id="matplotlib.axis_2">
    <g id="ytick_1">
     <g id="line2d_8">
      <defs>
       <path id="m3c62b3ed48" d="M 0 0 
L -3.5 0 
" style="stroke: #000000; stroke-width: 0.8"/>
      </defs>
      <g>
       <use xlink:href="#m3c62b3ed48" x="71.84" y="234.54662" style="stroke: #000000; stroke-width: 0.8"/>
      </g>
     </g>
     <g id="text_9">
      <!-- −10000 -->
      <g transform="translate(24.647813 238.345839) scale(0.1 -0.1)">
       <defs>
        <path id="DejaVuSans-2212" d="M 678 2272 
L 4684 2272 
L 4684 1741 
L 678 1741 
L 678 2272 
z
" transform="scale(0.015625)"/>
       </defs>
       <use xlink:href="#DejaVuSans-2212"/>
       <use xlink:href="#DejaVuSans-31" transform="translate(83.789062 0)"/>
       <use xlink:href="#DejaVuSans-30" transform="translate(147.412109 0)"/>
       <use xlink:href="#DejaVuSans-30" transform="translate(211.035156 0)"/>
       <use xlink:href="#DejaVuSans-30" transform="translate(274.658203 0)"/>
       <use xlink:href="#DejaVuSans-30" transform="translate(338.28125 0)"/>
      </g>
     </g>
    </g>
    <g id="ytick_2">
     <g id="line2d_9">
      <g>
       <use xlink:href="#m3c62b3ed48" x="71.84" y="209.386169" style="stroke: #000000; stroke-width: 0.8"/>
      </g>
     </g>
     <g id="text_10">
      <!-- −5000 -->
      <g transform="translate(31.010313 213.185388) scale(0.1 -0.1)">
       <use xlink:href="#DejaVuSans-2212"/>
       <use xlink:href="#DejaVuSans-35" transform="translate(83.789062 0)"/>
       <use xlink:href="#DejaVuSans-30" transform="translate(147.412109 0)"/>
       <use xlink:href="#DejaVuSans-30" transform="translate(211.035156 0)"/>
       <use xlink:href="#DejaVuSans-30" transform="translate(274.658203 0)"/>
      </g>
     </g>
    </g>
    <g id="ytick_3">
     <g id="line2d_10">
      <g>
       <use xlink:href="#m3c62b3ed48" x="71.84" y="184.225718" style="stroke: #000000; stroke-width: 0.8"/>
      </g>
     </g>
     <g id="text_11">
      <!-- 0 -->
      <g transform="translate(58.4775 188.024937) scale(0.1 -0.1)">
       <use xlink:href="#DejaVuSans-30"/>
      </g>
     </g>
    </g>
    <g id="ytick_4">
     <g id="line2d_11">
      <g>
       <use xlink:href="#m3c62b3ed48" x="71.84" y="159.065267" style="stroke: #000000; stroke-width: 0.8"/>
      </g>
     </g>
     <g id="text_12">
      <!-- 5000 -->
      <g transform="translate(39.39 162.864486) scale(0.1 -0.1)">
       <use xlink:href="#DejaVuSans-35"/>
       <use xlink:href="#DejaVuSans-30" transform="translate(63.623047 0)"/>
       <use xlink:href="#DejaVuSans-30" transform="translate(127.246094 0)"/>
       <use xlink:href="#DejaVuSans-30" transform="translate(190.869141 0)"/>
      </g>
     </g>
    </g>
    <g id="ytick_5">
     <g id="line2d_12">
      <g>
       <use xlink:href="#m3c62b3ed48" x="71.84" y="133.904816" style="stroke: #000000; stroke-width: 0.8"/>
      </g>
     </g>
     <g id="text_13">
      <!-- 10000 -->
      <g transform="translate(33.0275 137.704035) scale(0.1 -0.1)">
       <use xlink:href="#DejaVuSans-31"/>
       <use xlink:href="#DejaVuSans-30" transform="translate(63.623047 0)"/>
       <use xlink:href="#DejaVuSans-30" transform="translate(127.246094 0)"/>
       <use xlink:href="#DejaVuSans-30" transform="translate(190.869141 0)"/>
       <use xlink:href="#DejaVuSans-30" transform="translate(254.492188 0)"/>
      </g>
     </g>
    </g>
    <g id="ytick_6">
     <g id="line2d_13">
      <g>
       <use xlink:href="#m3c62b3ed48" x="71.84" y="108.744365" style="stroke: #000000; stroke-width: 0.8"/>
      </g>
     </g>
     <g id="text_14">
      <!-- 15000 -->
      <g transform="translate(33.0275 112.543584) scale(0.1 -0.1)">
       <use xlink:href="#DejaVuSans-31"/>
       <use xlink:href="#DejaVuSans-35" transform="translate(63.623047 0)"/>
       <use xlink:href="#DejaVuSans-30" transform="translate(127.246094 0)"/>
       <use xlink:href="#DejaVuSans-30" transform="translate(190.869141 0)"/>
       <use xlink:href="#DejaVuSans-30" transform="translate(254.492188 0)"/>
      </g>
     </g>
    </g>
    <g id="ytick_7">
     <g id="line2d_14">
      <g>
       <use xlink:href="#m3c62b3ed48" x="71.84" y="83.583914" style="stroke: #000000; stroke-width: 0.8"/>
      </g>
     </g>
     <g id="text_15">
      <!-- 20000 -->
      <g transform="translate(33.0275 87.383133) scale(0.1 -0.1)">
       <use xlink:href="#DejaVuSans-32"/>
       <use xlink:href="#DejaVuSans-30" transform="translate(63.623047 0)"/>
       <use xlink:href="#DejaVuSans-30" transform="translate(127.246094 0)"/>
       <use xlink:href="#DejaVuSans-30" transform="translate(190.869141 0)"/>
       <use xlink:href="#DejaVuSans-30" transform="translate(254.492188 0)"/>
      </g>
     </g>
    </g>
    <g id="ytick_8">
     <g id="line2d_15">
      <g>
       <use xlink:href="#m3c62b3ed48" x="71.84" y="58.423463" style="stroke: #000000; stroke-width: 0.8"/>
      </g>
     </g>
     <g id="text_16">
      <!-- 25000 -->
      <g transform="translate(33.0275 62.222682) scale(0.1 -0.1)">
       <use xlink:href="#DejaVuSans-32"/>
       <use xlink:href="#DejaVuSans-35" transform="translate(63.623047 0)"/>
       <use xlink:href="#DejaVuSans-30" transform="translate(127.246094 0)"/>
       <use xlink:href="#DejaVuSans-30" transform="translate(190.869141 0)"/>
       <use xlink:href="#DejaVuSans-30" transform="translate(254.492188 0)"/>
      </g>
     </g>
    </g>
    <g id="ytick_9">
     <g id="line2d_16">
      <g>
       <use xlink:href="#m3c62b3ed48" x="71.84" y="33.263012" style="stroke: #000000; stroke-width: 0.8"/>
      </g>
     </g>
     <g id="text_17">
      <!-- 30000 -->
      <g transform="translate(33.0275 37.062231) scale(0.1 -0.1)">
       <use xlink:href="#DejaVuSans-33"/>
       <use xlink:href="#DejaVuSans-30" transform="translate(63.623047 0)"/>
       <use xlink:href="#DejaVuSans-30" transform="translate(127.246094 0)"/>
       <use xlink:href="#DejaVuSans-30" transform="translate(190.869141 0)"/>
       <use xlink:href="#DejaVuSans-30" transform="translate(254.492188 0)"/>
      </g>
     </g>
    </g>
    <g id="text_18">
     <!-- CO2 (PPM) -->
     <g transform="translate(18.568125 162.902969) rotate(-90) scale(0.1 -0.1)">
      <defs>
       <path id="DejaVuSans-43" d="M 4122 4306 
L 4122 3641 
Q 3803 3938 3442 4084 
Q 3081 4231 2675 4231 
Q 1875 4231 1450 3742 
Q 1025 3253 1025 2328 
Q 1025 1406 1450 917 
Q 1875 428 2675 428 
Q 3081 428 3442 575 
Q 3803 722 4122 1019 
L 4122 359 
Q 3791 134 3420 21 
Q 3050 -91 2638 -91 
Q 1578 -91 968 557 
Q 359 1206 359 2328 
Q 359 3453 968 4101 
Q 1578 4750 2638 4750 
Q 3056 4750 3426 4639 
Q 3797 4528 4122 4306 
z
" transform="scale(0.015625)"/>
       <path id="DejaVuSans-4f" d="M 2522 4238 
Q 1834 4238 1429 3725 
Q 1025 3213 1025 2328 
Q 1025 1447 1429 934 
Q 1834 422 2522 422 
Q 3209 422 3611 934 
Q 4013 1447 4013 2328 
Q 4013 3213 3611 3725 
Q 3209 4238 2522 4238 
z
M 2522 4750 
Q 3503 4750 4090 4092 
Q 4678 3434 4678 2328 
Q 4678 1225 4090 567 
Q 3503 -91 2522 -91 
Q 1538 -91 948 565 
Q 359 1222 359 2328 
Q 359 3434 948 4092 
Q 1538 4750 2522 4750 
z
" transform="scale(0.015625)"/>
       <path id="DejaVuSans-28" d="M 1984 4856 
Q 1566 4138 1362 3434 
Q 1159 2731 1159 2009 
Q 1159 1288 1364 580 
Q 1569 -128 1984 -844 
L 1484 -844 
Q 1016 -109 783 600 
Q 550 1309 550 2009 
Q 550 2706 781 3412 
Q 1013 4119 1484 4856 
L 1984 4856 
z
" transform="scale(0.015625)"/>
       <path id="DejaVuSans-50" d="M 1259 4147 
L 1259 2394 
L 2053 2394 
Q 2494 2394 2734 2622 
Q 2975 2850 2975 3272 
Q 2975 3691 2734 3919 
Q 2494 4147 2053 4147 
L 1259 4147 
z
M 628 4666 
L 2053 4666 
Q 2838 4666 3239 4311 
Q 3641 3956 3641 3272 
Q 3641 2581 3239 2228 
Q 2838 1875 2053 1875 
L 1259 1875 
L 1259 0 
L 628 0 
L 628 4666 
z
" transform="scale(0.015625)"/>
       <path id="DejaVuSans-4d" d="M 628 4666 
L 1569 4666 
L 2759 1491 
L 3956 4666 
L 4897 4666 
L 4897 0 
L 4281 0 
L 4281 4097 
L 3078 897 
L 2444 897 
L 1241 4097 
L 1241 0 
L 628 0 
L 628 4666 
z
" transform="scale(0.015625)"/>
       <path id="DejaVuSans-29" d="M 513 4856 
L 1013 4856 
Q 1481 4119 1714 3412 
Q 1947 2706 1947 2009 
Q 1947 1309 1714 600 
Q 1481 -109 1013 -844 
L 513 -844 
Q 928 -128 1133 580 
Q 1338 1288 1338 2009 
Q 1338 2731 1133 3434 
Q 928 4138 513 4856 
z
" transform="scale(0.015625)"/>
      </defs>
      <use xlink:href="#DejaVuSans-43"/>
      <use xlink:href="#DejaVuSans-4f" transform="translate(69.824219 0)"/>
      <use xlink:href="#DejaVuSans-32" transform="translate(148.535156 0)"/>
      <use xlink:href="#DejaVuSans-20" transform="translate(212.158203 0)"/>
      <use xlink:href="#DejaVuSans-28" transform="translate(243.945312 0)"/>
      <use xlink:href="#DejaVuSans-50" transform="translate(282.958984 0)"/>
      <use xlink:href="#DejaVuSans-50" transform="translate(343.261719 0)"/>
      <use xlink:href="#DejaVuSans-4d" transform="translate(403.564453 0)"/>
      <use xlink:href="#DejaVuSans-29" transform="translate(489.84375 0)"/>
     </g>
    </g>
   </g>
   <g id="line2d_17">
    <path d="M 104.40978 141.475596 
L 108.00865 146.414593 
L 111.607521 147.258306 
L 115.206392 149.717321 
L 118.805263 149.053085 
L 122.404133 155.526031 
L 126.003004 152.045502 
L 129.601875 155.373391 
L 133.200745 150.025956 
L 136.799616 156.513998 
L 143.997357 146.584006 
L 147.596228 146.003639 
L 151.195099 142.798197 
L 154.79397 148.881994 
L 158.39284 154.623609 
L 161.991711 154.563224 
L 165.590582 158.530189 
L 169.189452 154.759476 
L 172.788323 158.515092 
L 176.387194 154.118723 
L 179.986064 156.11143 
L 183.584935 150.995472 
L 187.183806 141.006773 
L 190.782676 137.120322 
L 194.381547 127.331229 
L 197.980418 116.27405 
L 201.579289 112.25341 
L 205.178159 113.164218 
L 208.77703 125.793087 
L 212.375901 121.072986 
L 215.974771 117.057378 
L 219.573642 108.482697 
L 223.172513 107.083776 
L 226.771383 101.734664 
L 230.370254 99.579252 
L 233.969125 103.901817 
L 237.567995 93.490423 
L 241.166866 74.692211 
L 244.765737 90.110535 
L 248.364608 91.977441 
L 251.963478 88.983347 
L 255.562349 95.270105 
L 259.16122 120.50436 
L 262.76009 119.554973 
L 266.358961 113.544979 
L 269.957832 119.79819 
L 273.556702 126.849826 
L 277.155573 127.798375 
L 280.754444 145.877836 
L 284.353315 139.99113 
L 287.952185 150.222208 
L 291.551056 148.029894 
L 295.149927 153.529968 
L 298.748797 155.117593 
L 302.347668 150.114856 
L 305.946539 153.001599 
L 309.545409 157.961562 
L 313.14428 155.799441 
L 316.743151 153.454487 
L 320.342021 149.398622 
L 323.940892 147.263339 
L 327.539763 157.346809 
L 331.138634 153.016695 
L 334.737504 147.345529 
L 338.336375 149.101729 
L 341.935246 154.913793 
L 345.534116 156.378131 
L 349.132987 156.312714 
L 352.731858 161.470607 
L 356.330728 160.029751 
L 359.929599 163.840721 
L 363.52847 155.893373 
L 367.12734 145.010639 
L 370.726211 144.353113 
L 374.325082 134.149711 
L 377.923953 142.870324 
L 381.522823 147.202953 
L 385.121694 148.415687 
L 388.720565 146.196535 
L 392.319435 145.574234 
L 395.918306 146.681293 
L 399.517177 145.58262 
L 403.116047 144.754003 
L 406.714918 142.648912 
L 410.313789 145.936544 
L 413.91266 139.980227 
L 417.51153 149.363398 
L 421.110401 140.948065 
L 424.709272 143.975706 
L 428.308142 139.295862 
L 431.907013 141.957838 
L 435.505884 148.194275 
L 439.104754 154.023113 
L 442.703625 151.528874 
L 446.302496 159.12733 
L 449.901366 160.958591 
L 453.500237 156.629736 
L 457.099108 153.150884 
L 460.697979 158.305422 
L 464.296849 155.747443 
L 467.89572 159.030043 
L 471.494591 159.285002 
L 475.093461 157.082624 
L 478.692332 152.73993 
L 482.291203 152.255172 
L 485.890073 155.250943 
L 489.488944 155.764216 
L 493.087815 161.267646 
L 496.686685 157.315777 
L 500.285556 161.7675 
L 503.884427 158.112525 
L 507.483298 162.688372 
L 511.082168 166.4876 
L 514.681039 171.559947 
L 518.27991 172.089994 
L 521.87878 167.522534 
L 525.477651 167.103193 
L 529.076522 167.138417 
L 532.675392 170.605528 
L 536.274263 169.129448 
L 539.873134 167.054549 
L 543.472005 153.342104 
L 547.070875 127.888114 
L 550.669746 124.338813 
L 554.268617 140.151318 
L 557.867487 151.008891 
L 561.466358 147.538426 
L 565.065229 138.225705 
L 568.664099 138.621562 
L 572.26297 148.363689 
L 575.861841 128.366162 
L 579.460711 131.368643 
L 583.059582 132.002686 
L 586.658453 130.863757 
L 590.257324 117.337498 
L 593.856194 142.076931 
L 597.455065 135.471474 
L 601.053936 140.43647 
L 604.652806 145.173344 
L 608.251677 134.782916 
L 611.850548 143.814679 
L 615.449418 150.782447 
L 619.048289 150.599614 
L 622.64716 154.182463 
L 626.24603 153.362232 
L 629.844901 155.229137 
L 637.042643 168.849328 
L 640.641513 166.569791 
L 644.240384 167.13674 
L 644.240384 167.13674 
" clip-path="url(#p38071f9970)" style="fill: none; stroke: #1f77b4; stroke-width: 2; stroke-linecap: square"/>
   </g>
   <g id="line2d_18">
    <path d="M 100.810909 146.176826 
L 104.40978 138.984292 
L 108.00865 142.761715 
L 111.607521 145.062358 
L 115.206392 143.658685 
L 118.805263 147.910801 
L 122.404133 146.216784 
L 129.601875 146.245179 
L 133.200745 148.123107 
L 136.799616 147.449047 
L 140.398487 143.389228 
L 143.997357 142.677427 
L 147.596228 140.931531 
L 151.195099 143.790238 
L 154.79397 145.965299 
L 158.39284 147.088294 
L 161.991711 148.771648 
L 165.590582 148.807951 
L 169.189452 146.399976 
L 172.788323 148.873488 
L 176.387194 148.698682 
L 179.986064 144.211496 
L 183.584935 139.979987 
L 187.183806 133.335471 
L 190.782676 132.943927 
L 194.381547 135.365081 
L 197.980418 129.93258 
L 201.579289 127.467096 
L 205.178159 129.208478 
L 208.77703 133.670824 
L 212.375901 123.673571 
L 215.974771 125.14255 
L 219.573642 125.183725 
L 223.172513 119.943402 
L 226.771383 116.588795 
L 230.370254 114.758312 
L 233.969125 117.433527 
L 237.567995 117.617758 
L 241.166866 118.113398 
L 244.765737 123.568664 
L 248.364608 122.897958 
L 251.963478 117.847776 
L 255.562349 124.123871 
L 259.16122 126.305042 
L 266.358961 121.61777 
L 269.957832 124.06696 
L 273.556702 122.885857 
L 277.155573 122.592438 
L 280.754444 131.489134 
L 284.353315 137.707399 
L 287.952185 135.924362 
L 291.551056 136.974252 
L 295.149927 139.381048 
L 298.748797 138.789578 
L 302.347668 135.516623 
L 305.946539 142.543937 
L 309.545409 142.877213 
L 313.14428 147.000831 
L 316.743151 145.742689 
L 320.342021 148.30582 
L 323.940892 144.773293 
L 327.539763 150.263023 
L 331.138634 148.956078 
L 334.737504 151.698527 
L 338.336375 151.598604 
L 341.935246 155.346553 
L 345.534116 153.98669 
L 349.132987 153.730773 
L 352.731858 154.627803 
L 356.330728 159.415597 
L 359.929599 160.616589 
L 363.52847 155.228898 
L 367.12734 154.377516 
L 370.726211 155.466364 
L 374.325082 151.205742 
L 377.923953 157.374206 
L 385.121694 156.450817 
L 388.720565 153.407241 
L 392.319435 157.120197 
L 395.918306 155.552868 
L 399.517177 155.394078 
L 403.116047 151.464575 
L 406.714918 150.649516 
L 410.313789 152.336356 
L 413.91266 150.762654 
L 417.51153 151.023652 
L 421.110401 149.29429 
L 424.709272 152.288719 
L 428.308142 143.54693 
L 431.907013 146.563459 
L 435.505884 145.929415 
L 439.104754 150.706546 
L 442.703625 149.125212 
L 446.302496 150.756448 
L 449.901366 153.908948 
L 453.500237 153.281718 
L 457.099108 153.133062 
L 460.697979 152.548291 
L 464.296849 153.163884 
L 467.89572 151.962891 
L 471.494591 152.373426 
L 475.093461 146.806676 
L 478.692332 150.625613 
L 482.291203 153.062823 
L 485.890073 154.869972 
L 489.488944 155.409035 
L 493.087815 156.198234 
L 496.686685 155.632963 
L 500.285556 156.493869 
L 503.884427 158.765858 
L 507.483298 159.644377 
L 511.082168 162.801594 
L 514.681039 164.062133 
L 518.27991 162.625052 
L 521.87878 163.135809 
L 525.477651 165.522697 
L 529.076522 162.115972 
L 532.675392 162.746661 
L 536.274263 159.500963 
L 539.873134 157.814374 
L 543.472005 152.095823 
L 547.070875 141.450436 
L 550.669746 141.408921 
L 554.268617 147.216372 
L 557.867487 147.032701 
L 561.466358 145.596878 
L 565.065229 141.438275 
L 568.664099 139.376795 
L 572.26297 144.280148 
L 575.861841 139.569692 
L 579.460711 137.441537 
L 583.059582 136.166322 
L 586.658453 137.12158 
L 590.257324 133.511475 
L 593.856194 133.948218 
L 597.455065 133.932912 
L 601.053936 129.641378 
L 604.652806 129.794857 
L 608.251677 128.58422 
L 611.850548 137.91078 
L 615.449418 132.709276 
L 619.048289 132.504637 
L 622.64716 145.685569 
L 626.24603 134.874542 
L 629.844901 142.946854 
L 633.443772 151.745463 
L 637.042643 136.46 
L 640.641513 135.812817 
L 644.240384 148.587198 
L 647.839255 135.070584 
L 651.438125 137.530437 
L 655.036996 144.147636 
L 658.635867 136.590275 
L 662.234737 143.363469 
L 665.833608 143.59159 
L 669.432479 143.357598 
L 673.03135 154.938953 
L 676.63022 146.756775 
L 680.229091 153.696027 
L 680.229091 153.696027 
" clip-path="url(#p38071f9970)" style="fill: none; stroke-dasharray: 5.55,2.4; stroke-dashoffset: 0; stroke: #808080; stroke-width: 1.5"/>
   </g>
   <g id="patch_3">
    <path d="M 71.84 246.04 
L 71.84 26.88 
" style="fill: none; stroke: #000000; stroke-width: 0.8; stroke-linejoin: miter; stroke-linecap: square"/>
   </g>
   <g id="patch_4">
    <path d="M 709.2 246.04 
L 709.2 26.88 
" style="fill: none; stroke: #000000; stroke-width: 0.8; stroke-linejoin: miter; stroke-linecap: square"/>
   </g>
   <g id="patch_5">
    <path d="M 71.84 246.04 
L 709.2 246.04 
" style="fill: none; stroke: #000000; stroke-width: 0.8; stroke-linejoin: miter; stroke-linecap: square"/>
   </g>
   <g id="patch_6">
    <path d="M 71.84 26.88 
L 709.2 26.88 
" style="fill: none; stroke: #000000; stroke-width: 0.8; stroke-linejoin: miter; stroke-linecap: square"/>
   </g>
   <g id="text_19">
    <!-- CO2 - v001/c00004/d001 -->
    <g transform="translate(315.116875 20.88) scale(0.12 -0.12)">
     <defs>
      <path id="DejaVuSans-76" d="M 191 3500 
L 800 3500 
L 1894 563 
L 2988 3500 
L 3597 3500 
L 2284 0 
L 1503 0 
L 191 3500 
z
" transform="scale(0.015625)"/>
      <path id="DejaVuSans-2f" d="M 1625 4666 
L 2156 4666 
L 531 -594 
L 0 -594 
L 1625 4666 
z
" transform="scale(0.015625)"/>
      <path id="DejaVuSans-63" d="M 3122 3366 
L 3122 2828 
Q 2878 2963 2633 3030 
Q 2388 3097 2138 3097 
Q 1578 3097 1268 2742 
Q 959 2388 959 1747 
Q 959 1106 1268 751 
Q 1578 397 2138 397 
Q 2388 397 2633 464 
Q 2878 531 3122 666 
L 3122 134 
Q 2881 22 2623 -34 
Q 2366 -91 2075 -91 
Q 1284 -91 818 406 
Q 353 903 353 1747 
Q 353 2603 823 3093 
Q 1294 3584 2113 3584 
Q 2378 3584 2631 3529 
Q 2884 3475 3122 3366 
z
" transform="scale(0.015625)"/>
      <path id="DejaVuSans-34" d="M 2419 4116 
L 825 1625 
L 2419 1625 
L 2419 4116 
z
M 2253 4666 
L 3047 4666 
L 3047 1625 
L 3713 1625 
L 3713 1100 
L 3047 1100 
L 3047 0 
L 2419 0 
L 2419 1100 
L 313 1100 
L 313 1709 
L 2253 4666 
z
" transform="scale(0.015625)"/>
     </defs>
     <use xlink:href="#DejaVuSans-43"/>
     <use xlink:href="#DejaVuSans-4f" transform="translate(69.824219 0)"/>
     <use xlink:href="#DejaVuSans-32" transform="translate(148.535156 0)"/>
     <use xlink:href="#DejaVuSans-20" transform="translate(212.158203 0)"/>
     <use xlink:href="#DejaVuSans-2d" transform="translate(243.945312 0)"/>
     <use xlink:href="#DejaVuSans-20" transform="translate(280.029297 0)"/>
     <use xlink:href="#DejaVuSans-76" transform="translate(311.816406 0)"/>
     <use xlink:href="#DejaVuSans-30" transform="translate(370.996094 0)"/>
     <use xlink:href="#DejaVuSans-30" transform="translate(434.619141 0)"/>
     <use xlink:href="#DejaVuSans-31" transform="translate(498.242188 0)"/>
     <use xlink:href="#DejaVuSans-2f" transform="translate(561.865234 0)"/>
     <use xlink:href="#DejaVuSans-63" transform="translate(595.556641 0)"/>
     <use xlink:href="#DejaVuSans-30" transform="translate(650.537109 0)"/>
     <use xlink:href="#DejaVuSans-30" transform="translate(714.160156 0)"/>
     <use xlink:href="#DejaVuSans-30" transform="translate(777.783203 0)"/>
     <use xlink:href="#DejaVuSans-30" transform="translate(841.40625 0)"/>
     <use xlink:href="#DejaVuSans-34" transform="translate(905.029297 0)"/>
     <use xlink:href="#DejaVuSans-2f" transform="translate(968.652344 0)"/>
     <use xlink:href="#DejaVuSans-64" transform="translate(1002.34375 0)"/>
     <use xlink:href="#DejaVuSans-30" transform="translate(1065.820312 0)"/>
     <use xlink:href="#DejaVuSans-30" transform="translate(1129.443359 0)"/>
     <use xlink:href="#DejaVuSans-31" transform="translate(1193.066406 0)"/>
    </g>
   </g>
   <g id="legend_1">
    <g id="patch_7">
     <path d="M 78.84 241.04 
L 229.78375 241.04 
Q 231.78375 241.04 231.78375 239.04 
L 231.78375 196.005625 
Q 231.78375 194.005625 229.78375 194.005625 
L 78.84 194.005625 
Q 76.84 194.005625 76.84 196.005625 
L 76.84 239.04 
Q 76.84 241.04 78.84 241.04 
z
" style="fill: #ffffff; opacity: 0.8; stroke: #cccccc; stroke-linejoin: miter"/>
    </g>
    <g id="line2d_19">
     <path d="M 80.84 202.104062 
L 90.84 202.104062 
L 100.84 202.104062 
" style="fill: none; stroke: #1f77b4; stroke-width: 2; stroke-linecap: square"/>
    </g>
    <g id="text_20">
     <!-- Hive -->
     <g transform="translate(108.84 205.604062) scale(0.1 -0.1)">
      <defs>
       <path id="DejaVuSans-48" d="M 628 4666 
L 1259 4666 
L 1259 2753 
L 3553 2753 
L 3553 4666 
L 4184 4666 
L 4184 0 
L 3553 0 
L 3553 2222 
L 1259 2222 
L 1259 0 
L 628 0 
L 628 4666 
z
" transform="scale(0.015625)"/>
       <path id="DejaVuSans-65" d="M 3597 1894 
L 3597 1613 
L 953 1613 
Q 991 1019 1311 708 
Q 1631 397 2203 397 
Q 2534 397 2845 478 
Q 3156 559 3463 722 
L 3463 178 
Q 3153 47 2828 -22 
Q 2503 -91 2169 -91 
Q 1331 -91 842 396 
Q 353 884 353 1716 
Q 353 2575 817 3079 
Q 1281 3584 2069 3584 
Q 2775 3584 3186 3129 
Q 3597 2675 3597 1894 
z
M 3022 2063 
Q 3016 2534 2758 2815 
Q 2500 3097 2075 3097 
Q 1594 3097 1305 2825 
Q 1016 2553 972 2059 
L 3022 2063 
z
" transform="scale(0.015625)"/>
      </defs>
      <use xlink:href="#DejaVuSans-48"/>
      <use xlink:href="#DejaVuSans-69" transform="translate(75.195312 0)"/>
      <use xlink:href="#DejaVuSans-76" transform="translate(102.978516 0)"/>
      <use xlink:href="#DejaVuSans-65" transform="translate(162.158203 0)"/>
     </g>
    </g>
    <g id="line2d_20">
     <path d="M 80.84 216.782187 
L 90.84 216.782187 
L 100.84 216.782187 
" style="fill: none; stroke-dasharray: 5.55,2.4; stroke-dashoffset: 0; stroke: #808080; stroke-width: 1.5"/>
    </g>
    <g id="text_21">
     <!-- Gemiddelde (alle hives) -->
     <g transform="translate(108.84 220.282187) scale(0.1 -0.1)">
      <defs>
       <path id="DejaVuSans-47" d="M 3809 666 
L 3809 1919 
L 2778 1919 
L 2778 2438 
L 4434 2438 
L 4434 434 
Q 4069 175 3628 42 
Q 3188 -91 2688 -91 
Q 1594 -91 976 548 
Q 359 1188 359 2328 
Q 359 3472 976 4111 
Q 1594 4750 2688 4750 
Q 3144 4750 3555 4637 
Q 3966 4525 4313 4306 
L 4313 3634 
Q 3963 3931 3569 4081 
Q 3175 4231 2741 4231 
Q 1884 4231 1454 3753 
Q 1025 3275 1025 2328 
Q 1025 1384 1454 906 
Q 1884 428 2741 428 
Q 3075 428 3337 486 
Q 3600 544 3809 666 
z
" transform="scale(0.015625)"/>
       <path id="DejaVuSans-6d" d="M 3328 2828 
Q 3544 3216 3844 3400 
Q 4144 3584 4550 3584 
Q 5097 3584 5394 3201 
Q 5691 2819 5691 2113 
L 5691 0 
L 5113 0 
L 5113 2094 
Q 5113 2597 4934 2840 
Q 4756 3084 4391 3084 
Q 3944 3084 3684 2787 
Q 3425 2491 3425 1978 
L 3425 0 
L 2847 0 
L 2847 2094 
Q 2847 2600 2669 2842 
Q 2491 3084 2119 3084 
Q 1678 3084 1418 2786 
Q 1159 2488 1159 1978 
L 1159 0 
L 581 0 
L 581 3500 
L 1159 3500 
L 1159 2956 
Q 1356 3278 1631 3431 
Q 1906 3584 2284 3584 
Q 2666 3584 2933 3390 
Q 3200 3197 3328 2828 
z
" transform="scale(0.015625)"/>
       <path id="DejaVuSans-6c" d="M 603 4863 
L 1178 4863 
L 1178 0 
L 603 0 
L 603 4863 
z
" transform="scale(0.015625)"/>
       <path id="DejaVuSans-61" d="M 2194 1759 
Q 1497 1759 1228 1600 
Q 959 1441 959 1056 
Q 959 750 1161 570 
Q 1363 391 1709 391 
Q 2188 391 2477 730 
Q 2766 1069 2766 1631 
L 2766 1759 
L 2194 1759 
z
M 3341 1997 
L 3341 0 
L 2766 0 
L 2766 531 
Q 2569 213 2275 61 
Q 1981 -91 1556 -91 
Q 1019 -91 701 211 
Q 384 513 384 1019 
Q 384 1609 779 1909 
Q 1175 2209 1959 2209 
L 2766 2209 
L 2766 2266 
Q 2766 2663 2505 2880 
Q 2244 3097 1772 3097 
Q 1472 3097 1187 3025 
Q 903 2953 641 2809 
L 641 3341 
Q 956 3463 1253 3523 
Q 1550 3584 1831 3584 
Q 2591 3584 2966 3190 
Q 3341 2797 3341 1997 
z
" transform="scale(0.015625)"/>
       <path id="DejaVuSans-68" d="M 3513 2113 
L 3513 0 
L 2938 0 
L 2938 2094 
Q 2938 2591 2744 2837 
Q 2550 3084 2163 3084 
Q 1697 3084 1428 2787 
Q 1159 2491 1159 1978 
L 1159 0 
L 581 0 
L 581 4863 
L 1159 4863 
L 1159 2956 
Q 1366 3272 1645 3428 
Q 1925 3584 2291 3584 
Q 2894 3584 3203 3211 
Q 3513 2838 3513 2113 
z
" transform="scale(0.015625)"/>
       <path id="DejaVuSans-73" d="M 2834 3397 
L 2834 2853 
Q 2591 2978 2328 3040 
Q 2066 3103 1784 3103 
Q 1356 3103 1142 2972 
Q 928 2841 928 2578 
Q 928 2378 1081 2264 
Q 1234 2150 1697 2047 
L 1894 2003 
Q 2506 1872 2764 1633 
Q 3022 1394 3022 966 
Q 3022 478 2636 193 
Q 2250 -91 1575 -91 
Q 1294 -91 989 -36 
Q 684 19 347 128 
L 347 722 
Q 666 556 975 473 
Q 1284 391 1588 391 
Q 1994 391 2212 530 
Q 2431 669 2431 922 
Q 2431 1156 2273 1281 
Q 2116 1406 1581 1522 
L 1381 1569 
Q 847 1681 609 1914 
Q 372 2147 372 2553 
Q 372 3047 722 3315 
Q 1072 3584 1716 3584 
Q 2034 3584 2315 3537 
Q 2597 3491 2834 3397 
z
" transform="scale(0.015625)"/>
      </defs>
      <use xlink:href="#DejaVuSans-47"/>
      <use xlink:href="#DejaVuSans-65" transform="translate(77.490234 0)"/>
      <use xlink:href="#DejaVuSans-6d" transform="translate(139.013672 0)"/>
      <use xlink:href="#DejaVuSans-69" transform="translate(236.425781 0)"/>
      <use xlink:href="#DejaVuSans-64" transform="translate(264.208984 0)"/>
      <use xlink:href="#DejaVuSans-64" transform="translate(327.685547 0)"/>
      <use xlink:href="#DejaVuSans-65" transform="translate(391.162109 0)"/>
      <use xlink:href="#DejaVuSans-6c" transform="translate(452.685547 0)"/>
      <use xlink:href="#DejaVuSans-64" transform="translate(480.46875 0)"/>
      <use xlink:href="#DejaVuSans-65" transform="translate(543.945312 0)"/>
      <use xlink:href="#DejaVuSans-20" transform="translate(605.46875 0)"/>
      <use xlink:href="#DejaVuSans-28" transform="translate(637.255859 0)"/>
      <use xlink:href="#DejaVuSans-61" transform="translate(676.269531 0)"/>
      <use xlink:href="#DejaVuSans-6c" transform="translate(737.548828 0)"/>
      <use xlink:href="#DejaVuSans-6c" transform="translate(765.332031 0)"/>
      <use xlink:href="#DejaVuSans-65" transform="translate(793.115234 0)"/>
      <use xlink:href="#DejaVuSans-20" transform="translate(854.638672 0)"/>
      <use xlink:href="#DejaVuSans-68" transform="translate(886.425781 0)"/>
      <use xlink:href="#DejaVuSans-69" transform="translate(949.804688 0)"/>
      <use xlink:href="#DejaVuSans-76" transform="translate(977.587891 0)"/>
      <use xlink:href="#DejaVuSans-65" transform="translate(1036.767578 0)"/>
      <use xlink:href="#DejaVuSans-73" transform="translate(1098.291016 0)"/>
      <use xlink:href="#DejaVuSans-29" transform="translate(1150.390625 0)"/>
     </g>
    </g>
    <g id="patch_8">
     <path d="M 80.84 234.960312 
L 100.84 234.960312 
L 100.84 227.960312 
L 80.84 227.960312 
z
" style="fill: #808080; fill-opacity: 0.2; stroke: #808080; stroke-opacity: 0.2; stroke-linejoin: miter"/>
    </g>
    <g id="text_22">
     <!-- ±2 Std Dev -->
     <g transform="translate(108.84 234.960312) scale(0.1 -0.1)">
      <defs>
       <path id="DejaVuSans-b1" d="M 2944 4013 
L 2944 2803 
L 4684 2803 
L 4684 2272 
L 2944 2272 
L 2944 1063 
L 2419 1063 
L 2419 2272 
L 678 2272 
L 678 2803 
L 2419 2803 
L 2419 4013 
L 2944 4013 
z
M 678 531 
L 4684 531 
L 4684 0 
L 678 0 
L 678 531 
z
" transform="scale(0.015625)"/>
       <path id="DejaVuSans-53" d="M 3425 4513 
L 3425 3897 
Q 3066 4069 2747 4153 
Q 2428 4238 2131 4238 
Q 1616 4238 1336 4038 
Q 1056 3838 1056 3469 
Q 1056 3159 1242 3001 
Q 1428 2844 1947 2747 
L 2328 2669 
Q 3034 2534 3370 2195 
Q 3706 1856 3706 1288 
Q 3706 609 3251 259 
Q 2797 -91 1919 -91 
Q 1588 -91 1214 -16 
Q 841 59 441 206 
L 441 856 
Q 825 641 1194 531 
Q 1563 422 1919 422 
Q 2459 422 2753 634 
Q 3047 847 3047 1241 
Q 3047 1584 2836 1778 
Q 2625 1972 2144 2069 
L 1759 2144 
Q 1053 2284 737 2584 
Q 422 2884 422 3419 
Q 422 4038 858 4394 
Q 1294 4750 2059 4750 
Q 2388 4750 2728 4690 
Q 3069 4631 3425 4513 
z
" transform="scale(0.015625)"/>
       <path id="DejaVuSans-74" d="M 1172 4494 
L 1172 3500 
L 2356 3500 
L 2356 3053 
L 1172 3053 
L 1172 1153 
Q 1172 725 1289 603 
Q 1406 481 1766 481 
L 2356 481 
L 2356 0 
L 1766 0 
Q 1100 0 847 248 
Q 594 497 594 1153 
L 594 3053 
L 172 3053 
L 172 3500 
L 594 3500 
L 594 4494 
L 1172 4494 
z
" transform="scale(0.015625)"/>
       <path id="DejaVuSans-44" d="M 1259 4147 
L 1259 519 
L 2022 519 
Q 2988 519 3436 956 
Q 3884 1394 3884 2338 
Q 3884 3275 3436 3711 
Q 2988 4147 2022 4147 
L 1259 4147 
z
M 628 4666 
L 1925 4666 
Q 3281 4666 3915 4102 
Q 4550 3538 4550 2338 
Q 4550 1131 3912 565 
Q 3275 0 1925 0 
L 628 0 
L 628 4666 
z
" transform="scale(0.015625)"/>
      </defs>
      <use xlink:href="#DejaVuSans-b1"/>
      <use xlink:href="#DejaVuSans-32" transform="translate(83.789062 0)"/>
      <use xlink:href="#DejaVuSans-20" transform="translate(147.412109 0)"/>
      <use xlink:href="#DejaVuSans-53" transform="translate(179.199219 0)"/>
      <use xlink:href="#DejaVuSans-74" transform="translate(242.675781 0)"/>
      <use xlink:href="#DejaVuSans-64" transform="translate(281.884766 0)"/>
      <use xlink:href="#DejaVuSans-20" transform="translate(345.361328 0)"/>
      <use xlink:href="#DejaVuSans-44" transform="translate(377.148438 0)"/>
      <use xlink:href="#DejaVuSans-65" transform="translate(454.150391 0)"/>
      <use xlink:href="#DejaVuSans-76" transform="translate(515.673828 0)"/>
     </g>
    </g>
   </g>
  </g>
 </g>
 <defs>
  <clipPath id="p38071f9970">
   <rect x="71.84" y="26.88" width="637.36" height="219.16"/>
  </clipPath>
 </defs>
</svg>
