<?xml version="1.0" encoding="utf-8" standalone="no"?>
<!DOCTYPE svg PUBLIC "-//W3C//DTD SVG 1.1//EN"
  "http://www.w3.org/Graphics/SVG/1.1/DTD/svg11.dtd">
<svg xmlns:xlink="http://www.w3.org/1999/xlink" width="720pt" height="288pt" viewBox="0 0 720 288" xmlns="http://www.w3.org/2000/svg" version="1.1">
 <metadata>
  <rdf:RDF xmlns:dc="http://purl.org/dc/elements/1.1/" xmlns:cc="http://creativecommons.org/ns#" xmlns:rdf="http://www.w3.org/1999/02/22-rdf-syntax-ns#">
   <cc:Work>
    <dc:type rdf:resource="http://purl.org/dc/dcmitype/StillImage"/>
    <dc:date>2025-06-16T18:23:55.374592</dc:date>
    <dc:format>image/svg+xml</dc:format>
    <dc:creator>
     <cc:Agent>
      <dc:title>Matplotlib v3.10.3, https://matplotlib.org/</dc:title>
     </cc:Agent>
    </dc:creator>
   </cc:Work>
  </rdf:RDF>
 </metadata>
 <defs>
  <style type="text/css">*{stroke-linejoin: round; stroke-linecap: butt}</style>
 </defs>
 <g id="figure_1">
  <g id="patch_1">
   <path d="M 0 288 
L 720 288 
L 720 0 
L 0 0 
z
" style="fill: #ffffff"/>
  </g>
  <g id="axes_1">
   <g id="patch_2">
    <path d="M 52.85 246.04 
L 709.2 246.04 
L 709.2 26.88 
L 52.85 26.88 
z
" style="fill: #ffffff"/>
   </g>
   <g id="FillBetweenPolyCollection_1">
    <defs>
     <path id="m49c8f266f7" d="M 82.684091 -197.6063 
L 82.684091 -117.948878 
L 86.173458 -128.867623 
L 89.662826 -129.218711 
L 93.152193 -114.376574 
L 96.64156 -106.598746 
L 100.130928 -105.307746 
L 103.620295 -112.761545 
L 107.109662 -115.893456 
L 110.59903 -119.28463 
L 114.088397 -121.792822 
L 117.577764 -115.552627 
L 121.067132 -114.950826 
L 124.556499 -115.999771 
L 128.045867 -116.430493 
L 131.535234 -117.937097 
L 135.024601 -122.571188 
L 138.513969 -134.347025 
L 142.003336 -137.063933 
L 145.492703 -129.672384 
L 148.982071 -137.722026 
L 152.471438 -135.3794 
L 155.960805 -137.937026 
L 159.450173 -143.593238 
L 162.93954 -145.224175 
L 166.428907 -146.232238 
L 169.918275 -145.070375 
L 173.407642 -148.325347 
L 176.89701 -168.475093 
L 180.386377 -154.44109 
L 183.875744 -155.334328 
L 187.365112 -161.263681 
L 190.854479 -165.147444 
L 194.343846 -182.594059 
L 197.833214 -157.676787 
L 201.322581 -160.572333 
L 204.811948 -149.46373 
L 208.301316 -151.763655 
L 211.790683 -144.855495 
L 215.280051 -144.024751 
L 218.769418 -141.686858 
L 222.258785 -135.59484 
L 225.748153 -129.53386 
L 229.23752 -145.728758 
L 232.726887 -140.128242 
L 236.216255 -136.35816 
L 239.705622 -133.960649 
L 243.194989 -126.814001 
L 246.684357 -132.868137 
L 250.173724 -141.344876 
L 253.663091 -154.060527 
L 257.152459 -155.840148 
L 260.641826 -154.279084 
L 264.131194 -161.460852 
L 267.620561 -158.288169 
L 271.109928 -152.652995 
L 274.599296 -149.613626 
L 278.088663 -139.083317 
L 281.57803 -143.695551 
L 285.067398 -148.229936 
L 288.556765 -150.368677 
L 292.046132 -147.046451 
L 295.5355 -149.531105 
L 299.024867 -142.459466 
L 302.514234 -143.200221 
L 306.003602 -149.865796 
L 309.492969 -154.595086 
L 312.982337 -159.778816 
L 316.471704 -159.53295 
L 319.961071 -158.442969 
L 323.450439 -162.083549 
L 326.939806 -159.813832 
L 330.429173 -163.621433 
L 333.918541 -166.763702 
L 337.407908 -167.066523 
L 340.897275 -167.276933 
L 344.386643 -167.072181 
L 347.87601 -166.999959 
L 351.365377 -167.190854 
L 354.854745 -168.181516 
L 358.344112 -168.326436 
L 361.83348 -171.444801 
L 365.322847 -172.946259 
L 368.812214 -176.19438 
L 372.301582 -177.251952 
L 375.790949 -178.803381 
L 379.280316 -175.066733 
L 382.769684 -168.242393 
L 386.259051 -161.121933 
L 389.748418 -154.213397 
L 393.237786 -149.120498 
L 396.727153 -146.438987 
L 400.21652 -145.32422 
L 403.705888 -143.385117 
L 407.195255 -141.824543 
L 410.684623 -123.645087 
L 414.17399 -119.460984 
L 417.663357 -123.777666 
L 421.152725 -130.075594 
L 424.642092 -141.364297 
L 428.131459 -139.701185 
L 431.620827 -126.987234 
L 435.110194 -119.080813 
L 438.599561 -127.165855 
L 442.088929 -127.594005 
L 445.578296 -139.495549 
L 449.067663 -142.101036 
L 452.557031 -147.375721 
L 456.046398 -146.996394 
L 459.535766 -141.826231 
L 463.025133 -142.059131 
L 466.5145 -135.125806 
L 470.003868 -143.590946 
L 473.493235 -142.944634 
L 476.982602 -149.941393 
L 480.47197 -149.355477 
L 483.961337 -154.185938 
L 487.450704 -157.686448 
L 490.940072 -162.695755 
L 494.429439 -157.95239 
L 497.918806 -156.775811 
L 501.408174 -161.718536 
L 504.897541 -163.744174 
L 508.386909 -167.732128 
L 511.876276 -172.373761 
L 515.365643 -176.747439 
L 518.855011 -181.628287 
L 522.344378 -184.194202 
L 525.833745 -186.871146 
L 529.323113 -189.188304 
L 532.81248 -190.535777 
L 536.301847 -188.523985 
L 539.791215 -187.483169 
L 543.280582 -184.044321 
L 546.769949 -175.261341 
L 550.259317 -161.438981 
L 553.748684 -154.838506 
L 557.238052 -148.405767 
L 560.727419 -139.038796 
L 564.216786 -125.930434 
L 567.706154 -130.099906 
L 571.195521 -128.915602 
L 574.684888 -122.924154 
L 578.174256 -111.083506 
L 581.663623 -106.587595 
L 585.15299 -106.755918 
L 588.642358 -110.363627 
L 592.131725 -122.898042 
L 595.621093 -126.324674 
L 599.11046 -106.489504 
L 602.599827 -73.280061 
L 606.089195 -51.921818 
L 609.578562 -64.939265 
L 613.067929 -73.183669 
L 616.557297 -92.572827 
L 620.046664 -147.407012 
L 623.536031 -155.792075 
L 627.025399 -106.688543 
L 630.514766 -106.525539 
L 634.004133 -91.230686 
L 637.493501 -93.188387 
L 640.982868 -101.220296 
L 640.982868 -221.2987 
L 640.982868 -221.2987 
L 637.493501 -223.233772 
L 634.004133 -221.276072 
L 630.514766 -206.037154 
L 627.025399 -206.041952 
L 623.536031 -177.466306 
L 620.046664 -180.313874 
L 616.557297 -211.543788 
L 613.067929 -226.010728 
L 609.578562 -229.948192 
L 606.089195 -250.628637 
L 602.599827 -245.882878 
L 599.11046 -234.320005 
L 595.621093 -201.755789 
L 592.131725 -205.238356 
L 588.642358 -212.15537 
L 585.15299 -216.809849 
L 581.663623 -218.863957 
L 578.174256 -221.351842 
L 574.684888 -217.853393 
L 571.195521 -216.680285 
L 567.706154 -223.44664 
L 564.216786 -233.888744 
L 560.727419 -232.718358 
L 557.238052 -232.061155 
L 553.748684 -230.598578 
L 550.259317 -230.60634 
L 546.769949 -228.801861 
L 543.280582 -229.104208 
L 539.791215 -230.691455 
L 536.301847 -232.51128 
L 532.81248 -234.326991 
L 529.323113 -238.766831 
L 525.833745 -241.419594 
L 522.344378 -242.274679 
L 518.855011 -241.420612 
L 515.365643 -242.330125 
L 511.876276 -241.885464 
L 508.386909 -242.108287 
L 504.897541 -241.725376 
L 501.408174 -240.059351 
L 497.918806 -240.727098 
L 494.429439 -238.26403 
L 490.940072 -236.740882 
L 487.450704 -237.18755 
L 483.961337 -238.490641 
L 480.47197 -239.845185 
L 476.982602 -238.380302 
L 473.493235 -239.304195 
L 470.003868 -234.071271 
L 466.5145 -235.648503 
L 463.025133 -226.989206 
L 459.535766 -221.80447 
L 456.046398 -212.383301 
L 452.557031 -204.508778 
L 449.067663 -203.61471 
L 445.578296 -204.062732 
L 442.088929 -204.521718 
L 438.599561 -203.191933 
L 435.110194 -203.334305 
L 431.620827 -200.461971 
L 428.131459 -192.925937 
L 424.642092 -193.516178 
L 421.152725 -199.467152 
L 417.663357 -203.479764 
L 414.17399 -205.215478 
L 410.684623 -205.5221 
L 407.195255 -199.192722 
L 403.705888 -204.847672 
L 400.21652 -209.141248 
L 396.727153 -211.678191 
L 393.237786 -212.983995 
L 389.748418 -212.661492 
L 386.259051 -211.026761 
L 382.769684 -210.754256 
L 379.280316 -209.331571 
L 375.790949 -210.828774 
L 372.301582 -213.64272 
L 368.812214 -213.797353 
L 365.322847 -215.69506 
L 361.83348 -216.093814 
L 358.344112 -217.166582 
L 354.854745 -215.425717 
L 351.365377 -213.204153 
L 347.87601 -212.100568 
L 344.386643 -208.248786 
L 340.897275 -209.530288 
L 337.407908 -207.047862 
L 333.918541 -204.96948 
L 330.429173 -207.520443 
L 326.939806 -207.180916 
L 323.450439 -202.969481 
L 319.961071 -199.370565 
L 316.471704 -197.513485 
L 312.982337 -194.822492 
L 309.492969 -197.784831 
L 306.003602 -201.97076 
L 302.514234 -203.295942 
L 299.024867 -207.547239 
L 295.5355 -196.600153 
L 292.046132 -198.445558 
L 288.556765 -199.550132 
L 285.067398 -199.115896 
L 281.57803 -198.999744 
L 278.088663 -202.365442 
L 274.599296 -203.900958 
L 271.109928 -203.466529 
L 267.620561 -196.377064 
L 264.131194 -193.412137 
L 260.641826 -200.314233 
L 257.152459 -205.209585 
L 253.663091 -206.501778 
L 250.173724 -216.109081 
L 246.684357 -223.778768 
L 243.194989 -225.182367 
L 239.705622 -224.188491 
L 236.216255 -220.360661 
L 232.726887 -222.168026 
L 229.23752 -223.942846 
L 225.748153 -237.69528 
L 222.258785 -231.072293 
L 218.769418 -233.610138 
L 215.280051 -234.636293 
L 211.790683 -249.110236 
L 208.301316 -245.707291 
L 204.811948 -251.158182 
L 201.322581 -248.269256 
L 197.833214 -249.321634 
L 194.343846 -242.321979 
L 190.854479 -247.337864 
L 187.365112 -250.262754 
L 183.875744 -246.395615 
L 180.386377 -244.604007 
L 176.89701 -238.019919 
L 173.407642 -241.546527 
L 169.918275 -241.013948 
L 166.428907 -224.278381 
L 162.93954 -220.571982 
L 159.450173 -223.840994 
L 155.960805 -228.905901 
L 152.471438 -233.796786 
L 148.982071 -233.124198 
L 145.492703 -237.538111 
L 142.003336 -229.275585 
L 138.513969 -228.192957 
L 135.024601 -231.261689 
L 131.535234 -234.059271 
L 128.045867 -229.732727 
L 124.556499 -224.234415 
L 121.067132 -218.10779 
L 117.577764 -209.819018 
L 114.088397 -197.202315 
L 110.59903 -193.701565 
L 107.109662 -195.079105 
L 103.620295 -194.471409 
L 100.130928 -193.61497 
L 96.64156 -192.563689 
L 93.152193 -182.962669 
L 89.662826 -173.20123 
L 86.173458 -180.554759 
L 82.684091 -197.6063 
z
" style="stroke: #808080; stroke-opacity: 0.2"/>
    </defs>
    <g clip-path="url(#p12f59c148f)">
     <use xlink:href="#m49c8f266f7" x="0" y="288" style="fill: #808080; fill-opacity: 0.2; stroke: #808080; stroke-opacity: 0.2"/>
    </g>
   </g>
   <g id="matplotlib.axis_1">
    <g id="xtick_1">
     <g id="line2d_1">
      <defs>
       <path id="m43bb49f153" d="M 0 0 
L 0 3.5 
" style="stroke: #000000; stroke-width: 0.8"/>
      </defs>
      <g>
       <use xlink:href="#m43bb49f153" x="124.556499" y="246.04" style="stroke: #000000; stroke-width: 0.8"/>
      </g>
     </g>
     <g id="text_1">
      <!-- 06-14 00 -->
      <g transform="translate(102.07603 260.638438) scale(0.1 -0.1)">
       <defs>
        <path id="DejaVuSans-30" d="M 2034 4250 
Q 1547 4250 1301 3770 
Q 1056 3291 1056 2328 
Q 1056 1369 1301 889 
Q 1547 409 2034 409 
Q 2525 409 2770 889 
Q 3016 1369 3016 2328 
Q 3016 3291 2770 3770 
Q 2525 4250 2034 4250 
z
M 2034 4750 
Q 2819 4750 3233 4129 
Q 3647 3509 3647 2328 
Q 3647 1150 3233 529 
Q 2819 -91 2034 -91 
Q 1250 -91 836 529 
Q 422 1150 422 2328 
Q 422 3509 836 4129 
Q 1250 4750 2034 4750 
z
" transform="scale(0.015625)"/>
        <path id="DejaVuSans-36" d="M 2113 2584 
Q 1688 2584 1439 2293 
Q 1191 2003 1191 1497 
Q 1191 994 1439 701 
Q 1688 409 2113 409 
Q 2538 409 2786 701 
Q 3034 994 3034 1497 
Q 3034 2003 2786 2293 
Q 2538 2584 2113 2584 
z
M 3366 4563 
L 3366 3988 
Q 3128 4100 2886 4159 
Q 2644 4219 2406 4219 
Q 1781 4219 1451 3797 
Q 1122 3375 1075 2522 
Q 1259 2794 1537 2939 
Q 1816 3084 2150 3084 
Q 2853 3084 3261 2657 
Q 3669 2231 3669 1497 
Q 3669 778 3244 343 
Q 2819 -91 2113 -91 
Q 1303 -91 875 529 
Q 447 1150 447 2328 
Q 447 3434 972 4092 
Q 1497 4750 2381 4750 
Q 2619 4750 2861 4703 
Q 3103 4656 3366 4563 
z
" transform="scale(0.015625)"/>
        <path id="DejaVuSans-2d" d="M 313 2009 
L 1997 2009 
L 1997 1497 
L 313 1497 
L 313 2009 
z
" transform="scale(0.015625)"/>
        <path id="DejaVuSans-31" d="M 794 531 
L 1825 531 
L 1825 4091 
L 703 3866 
L 703 4441 
L 1819 4666 
L 2450 4666 
L 2450 531 
L 3481 531 
L 3481 0 
L 794 0 
L 794 531 
z
" transform="scale(0.015625)"/>
        <path id="DejaVuSans-34" d="M 2419 4116 
L 825 1625 
L 2419 1625 
L 2419 4116 
z
M 2253 4666 
L 3047 4666 
L 3047 1625 
L 3713 1625 
L 3713 1100 
L 3047 1100 
L 3047 0 
L 2419 0 
L 2419 1100 
L 313 1100 
L 313 1709 
L 2253 4666 
z
" transform="scale(0.015625)"/>
        <path id="DejaVuSans-20" transform="scale(0.015625)"/>
       </defs>
       <use xlink:href="#DejaVuSans-30"/>
       <use xlink:href="#DejaVuSans-36" transform="translate(63.623047 0)"/>
       <use xlink:href="#DejaVuSans-2d" transform="translate(127.246094 0)"/>
       <use xlink:href="#DejaVuSans-31" transform="translate(163.330078 0)"/>
       <use xlink:href="#DejaVuSans-34" transform="translate(226.953125 0)"/>
       <use xlink:href="#DejaVuSans-20" transform="translate(290.576172 0)"/>
       <use xlink:href="#DejaVuSans-30" transform="translate(322.363281 0)"/>
       <use xlink:href="#DejaVuSans-30" transform="translate(385.986328 0)"/>
      </g>
     </g>
    </g>
    <g id="xtick_2">
     <g id="line2d_2">
      <g>
       <use xlink:href="#m43bb49f153" x="208.301316" y="246.04" style="stroke: #000000; stroke-width: 0.8"/>
      </g>
     </g>
     <g id="text_2">
      <!-- 06-14 12 -->
      <g transform="translate(185.820847 260.638438) scale(0.1 -0.1)">
       <defs>
        <path id="DejaVuSans-32" d="M 1228 531 
L 3431 531 
L 3431 0 
L 469 0 
L 469 531 
Q 828 903 1448 1529 
Q 2069 2156 2228 2338 
Q 2531 2678 2651 2914 
Q 2772 3150 2772 3378 
Q 2772 3750 2511 3984 
Q 2250 4219 1831 4219 
Q 1534 4219 1204 4116 
Q 875 4013 500 3803 
L 500 4441 
Q 881 4594 1212 4672 
Q 1544 4750 1819 4750 
Q 2544 4750 2975 4387 
Q 3406 4025 3406 3419 
Q 3406 3131 3298 2873 
Q 3191 2616 2906 2266 
Q 2828 2175 2409 1742 
Q 1991 1309 1228 531 
z
" transform="scale(0.015625)"/>
       </defs>
       <use xlink:href="#DejaVuSans-30"/>
       <use xlink:href="#DejaVuSans-36" transform="translate(63.623047 0)"/>
       <use xlink:href="#DejaVuSans-2d" transform="translate(127.246094 0)"/>
       <use xlink:href="#DejaVuSans-31" transform="translate(163.330078 0)"/>
       <use xlink:href="#DejaVuSans-34" transform="translate(226.953125 0)"/>
       <use xlink:href="#DejaVuSans-20" transform="translate(290.576172 0)"/>
       <use xlink:href="#DejaVuSans-31" transform="translate(322.363281 0)"/>
       <use xlink:href="#DejaVuSans-32" transform="translate(385.986328 0)"/>
      </g>
     </g>
    </g>
    <g id="xtick_3">
     <g id="line2d_3">
      <g>
       <use xlink:href="#m43bb49f153" x="292.046132" y="246.04" style="stroke: #000000; stroke-width: 0.8"/>
      </g>
     </g>
     <g id="text_3">
      <!-- 06-15 00 -->
      <g transform="translate(269.565664 260.638438) scale(0.1 -0.1)">
       <defs>
        <path id="DejaVuSans-35" d="M 691 4666 
L 3169 4666 
L 3169 4134 
L 1269 4134 
L 1269 2991 
Q 1406 3038 1543 3061 
Q 1681 3084 1819 3084 
Q 2600 3084 3056 2656 
Q 3513 2228 3513 1497 
Q 3513 744 3044 326 
Q 2575 -91 1722 -91 
Q 1428 -91 1123 -41 
Q 819 9 494 109 
L 494 744 
Q 775 591 1075 516 
Q 1375 441 1709 441 
Q 2250 441 2565 725 
Q 2881 1009 2881 1497 
Q 2881 1984 2565 2268 
Q 2250 2553 1709 2553 
Q 1456 2553 1204 2497 
Q 953 2441 691 2322 
L 691 4666 
z
" transform="scale(0.015625)"/>
       </defs>
       <use xlink:href="#DejaVuSans-30"/>
       <use xlink:href="#DejaVuSans-36" transform="translate(63.623047 0)"/>
       <use xlink:href="#DejaVuSans-2d" transform="translate(127.246094 0)"/>
       <use xlink:href="#DejaVuSans-31" transform="translate(163.330078 0)"/>
       <use xlink:href="#DejaVuSans-35" transform="translate(226.953125 0)"/>
       <use xlink:href="#DejaVuSans-20" transform="translate(290.576172 0)"/>
       <use xlink:href="#DejaVuSans-30" transform="translate(322.363281 0)"/>
       <use xlink:href="#DejaVuSans-30" transform="translate(385.986328 0)"/>
      </g>
     </g>
    </g>
    <g id="xtick_4">
     <g id="line2d_4">
      <g>
       <use xlink:href="#m43bb49f153" x="375.790949" y="246.04" style="stroke: #000000; stroke-width: 0.8"/>
      </g>
     </g>
     <g id="text_4">
      <!-- 06-15 12 -->
      <g transform="translate(353.31048 260.638438) scale(0.1 -0.1)">
       <use xlink:href="#DejaVuSans-30"/>
       <use xlink:href="#DejaVuSans-36" transform="translate(63.623047 0)"/>
       <use xlink:href="#DejaVuSans-2d" transform="translate(127.246094 0)"/>
       <use xlink:href="#DejaVuSans-31" transform="translate(163.330078 0)"/>
       <use xlink:href="#DejaVuSans-35" transform="translate(226.953125 0)"/>
       <use xlink:href="#DejaVuSans-20" transform="translate(290.576172 0)"/>
       <use xlink:href="#DejaVuSans-31" transform="translate(322.363281 0)"/>
       <use xlink:href="#DejaVuSans-32" transform="translate(385.986328 0)"/>
      </g>
     </g>
    </g>
    <g id="xtick_5">
     <g id="line2d_5">
      <g>
       <use xlink:href="#m43bb49f153" x="459.535766" y="246.04" style="stroke: #000000; stroke-width: 0.8"/>
      </g>
     </g>
     <g id="text_5">
      <!-- 06-16 00 -->
      <g transform="translate(437.055297 260.638438) scale(0.1 -0.1)">
       <use xlink:href="#DejaVuSans-30"/>
       <use xlink:href="#DejaVuSans-36" transform="translate(63.623047 0)"/>
       <use xlink:href="#DejaVuSans-2d" transform="translate(127.246094 0)"/>
       <use xlink:href="#DejaVuSans-31" transform="translate(163.330078 0)"/>
       <use xlink:href="#DejaVuSans-36" transform="translate(226.953125 0)"/>
       <use xlink:href="#DejaVuSans-20" transform="translate(290.576172 0)"/>
       <use xlink:href="#DejaVuSans-30" transform="translate(322.363281 0)"/>
       <use xlink:href="#DejaVuSans-30" transform="translate(385.986328 0)"/>
      </g>
     </g>
    </g>
    <g id="xtick_6">
     <g id="line2d_6">
      <g>
       <use xlink:href="#m43bb49f153" x="543.280582" y="246.04" style="stroke: #000000; stroke-width: 0.8"/>
      </g>
     </g>
     <g id="text_6">
      <!-- 06-16 12 -->
      <g transform="translate(520.800113 260.638438) scale(0.1 -0.1)">
       <use xlink:href="#DejaVuSans-30"/>
       <use xlink:href="#DejaVuSans-36" transform="translate(63.623047 0)"/>
       <use xlink:href="#DejaVuSans-2d" transform="translate(127.246094 0)"/>
       <use xlink:href="#DejaVuSans-31" transform="translate(163.330078 0)"/>
       <use xlink:href="#DejaVuSans-36" transform="translate(226.953125 0)"/>
       <use xlink:href="#DejaVuSans-20" transform="translate(290.576172 0)"/>
       <use xlink:href="#DejaVuSans-31" transform="translate(322.363281 0)"/>
       <use xlink:href="#DejaVuSans-32" transform="translate(385.986328 0)"/>
      </g>
     </g>
    </g>
    <g id="xtick_7">
     <g id="line2d_7">
      <g>
       <use xlink:href="#m43bb49f153" x="627.025399" y="246.04" style="stroke: #000000; stroke-width: 0.8"/>
      </g>
     </g>
     <g id="text_7">
      <!-- 06-17 00 -->
      <g transform="translate(604.54493 260.638438) scale(0.1 -0.1)">
       <defs>
        <path id="DejaVuSans-37" d="M 525 4666 
L 3525 4666 
L 3525 4397 
L 1831 0 
L 1172 0 
L 2766 4134 
L 525 4134 
L 525 4666 
z
" transform="scale(0.015625)"/>
       </defs>
       <use xlink:href="#DejaVuSans-30"/>
       <use xlink:href="#DejaVuSans-36" transform="translate(63.623047 0)"/>
       <use xlink:href="#DejaVuSans-2d" transform="translate(127.246094 0)"/>
       <use xlink:href="#DejaVuSans-31" transform="translate(163.330078 0)"/>
       <use xlink:href="#DejaVuSans-37" transform="translate(226.953125 0)"/>
       <use xlink:href="#DejaVuSans-20" transform="translate(290.576172 0)"/>
       <use xlink:href="#DejaVuSans-30" transform="translate(322.363281 0)"/>
       <use xlink:href="#DejaVuSans-30" transform="translate(385.986328 0)"/>
      </g>
     </g>
    </g>
    <g id="text_8">
     <!-- Tijd -->
     <g transform="translate(372.175 274.316562) scale(0.1 -0.1)">
      <defs>
       <path id="DejaVuSans-54" d="M -19 4666 
L 3928 4666 
L 3928 4134 
L 2272 4134 
L 2272 0 
L 1638 0 
L 1638 4134 
L -19 4134 
L -19 4666 
z
" transform="scale(0.015625)"/>
       <path id="DejaVuSans-69" d="M 603 3500 
L 1178 3500 
L 1178 0 
L 603 0 
L 603 3500 
z
M 603 4863 
L 1178 4863 
L 1178 4134 
L 603 4134 
L 603 4863 
z
" transform="scale(0.015625)"/>
       <path id="DejaVuSans-6a" d="M 603 3500 
L 1178 3500 
L 1178 -63 
Q 1178 -731 923 -1031 
Q 669 -1331 103 -1331 
L -116 -1331 
L -116 -844 
L 38 -844 
Q 366 -844 484 -692 
Q 603 -541 603 -63 
L 603 3500 
z
M 603 4863 
L 1178 4863 
L 1178 4134 
L 603 4134 
L 603 4863 
z
" transform="scale(0.015625)"/>
       <path id="DejaVuSans-64" d="M 2906 2969 
L 2906 4863 
L 3481 4863 
L 3481 0 
L 2906 0 
L 2906 525 
Q 2725 213 2448 61 
Q 2172 -91 1784 -91 
Q 1150 -91 751 415 
Q 353 922 353 1747 
Q 353 2572 751 3078 
Q 1150 3584 1784 3584 
Q 2172 3584 2448 3432 
Q 2725 3281 2906 2969 
z
M 947 1747 
Q 947 1113 1208 752 
Q 1469 391 1925 391 
Q 2381 391 2643 752 
Q 2906 1113 2906 1747 
Q 2906 2381 2643 2742 
Q 2381 3103 1925 3103 
Q 1469 3103 1208 2742 
Q 947 2381 947 1747 
z
" transform="scale(0.015625)"/>
      </defs>
      <use xlink:href="#DejaVuSans-54"/>
      <use xlink:href="#DejaVuSans-69" transform="translate(57.958984 0)"/>
      <use xlink:href="#DejaVuSans-6a" transform="translate(85.742188 0)"/>
      <use xlink:href="#DejaVuSans-64" transform="translate(113.525391 0)"/>
     </g>
    </g>
   </g>
   <g id="matplotlib.axis_2">
    <g id="ytick_1">
     <g id="line2d_8">
      <defs>
       <path id="m20d47dcfb8" d="M 0 0 
L -3.5 0 
" style="stroke: #000000; stroke-width: 0.8"/>
      </defs>
      <g>
       <use xlink:href="#m20d47dcfb8" x="52.85" y="244.286414" style="stroke: #000000; stroke-width: 0.8"/>
      </g>
     </g>
     <g id="text_9">
      <!-- −20 -->
      <g transform="translate(24.745313 248.085633) scale(0.1 -0.1)">
       <defs>
        <path id="DejaVuSans-2212" d="M 678 2272 
L 4684 2272 
L 4684 1741 
L 678 1741 
L 678 2272 
z
" transform="scale(0.015625)"/>
       </defs>
       <use xlink:href="#DejaVuSans-2212"/>
       <use xlink:href="#DejaVuSans-32" transform="translate(83.789062 0)"/>
       <use xlink:href="#DejaVuSans-30" transform="translate(147.412109 0)"/>
      </g>
     </g>
    </g>
    <g id="ytick_2">
     <g id="line2d_9">
      <g>
       <use xlink:href="#m20d47dcfb8" x="52.85" y="210.725839" style="stroke: #000000; stroke-width: 0.8"/>
      </g>
     </g>
     <g id="text_10">
      <!-- 0 -->
      <g transform="translate(39.4875 214.525058) scale(0.1 -0.1)">
       <use xlink:href="#DejaVuSans-30"/>
      </g>
     </g>
    </g>
    <g id="ytick_3">
     <g id="line2d_10">
      <g>
       <use xlink:href="#m20d47dcfb8" x="52.85" y="177.165265" style="stroke: #000000; stroke-width: 0.8"/>
      </g>
     </g>
     <g id="text_11">
      <!-- 20 -->
      <g transform="translate(33.125 180.964484) scale(0.1 -0.1)">
       <use xlink:href="#DejaVuSans-32"/>
       <use xlink:href="#DejaVuSans-30" transform="translate(63.623047 0)"/>
      </g>
     </g>
    </g>
    <g id="ytick_4">
     <g id="line2d_11">
      <g>
       <use xlink:href="#m20d47dcfb8" x="52.85" y="143.60469" style="stroke: #000000; stroke-width: 0.8"/>
      </g>
     </g>
     <g id="text_12">
      <!-- 40 -->
      <g transform="translate(33.125 147.403909) scale(0.1 -0.1)">
       <use xlink:href="#DejaVuSans-34"/>
       <use xlink:href="#DejaVuSans-30" transform="translate(63.623047 0)"/>
      </g>
     </g>
    </g>
    <g id="ytick_5">
     <g id="line2d_12">
      <g>
       <use xlink:href="#m20d47dcfb8" x="52.85" y="110.044116" style="stroke: #000000; stroke-width: 0.8"/>
      </g>
     </g>
     <g id="text_13">
      <!-- 60 -->
      <g transform="translate(33.125 113.843335) scale(0.1 -0.1)">
       <use xlink:href="#DejaVuSans-36"/>
       <use xlink:href="#DejaVuSans-30" transform="translate(63.623047 0)"/>
      </g>
     </g>
    </g>
    <g id="ytick_6">
     <g id="line2d_13">
      <g>
       <use xlink:href="#m20d47dcfb8" x="52.85" y="76.483541" style="stroke: #000000; stroke-width: 0.8"/>
      </g>
     </g>
     <g id="text_14">
      <!-- 80 -->
      <g transform="translate(33.125 80.28276) scale(0.1 -0.1)">
       <defs>
        <path id="DejaVuSans-38" d="M 2034 2216 
Q 1584 2216 1326 1975 
Q 1069 1734 1069 1313 
Q 1069 891 1326 650 
Q 1584 409 2034 409 
Q 2484 409 2743 651 
Q 3003 894 3003 1313 
Q 3003 1734 2745 1975 
Q 2488 2216 2034 2216 
z
M 1403 2484 
Q 997 2584 770 2862 
Q 544 3141 544 3541 
Q 544 4100 942 4425 
Q 1341 4750 2034 4750 
Q 2731 4750 3128 4425 
Q 3525 4100 3525 3541 
Q 3525 3141 3298 2862 
Q 3072 2584 2669 2484 
Q 3125 2378 3379 2068 
Q 3634 1759 3634 1313 
Q 3634 634 3220 271 
Q 2806 -91 2034 -91 
Q 1263 -91 848 271 
Q 434 634 434 1313 
Q 434 1759 690 2068 
Q 947 2378 1403 2484 
z
M 1172 3481 
Q 1172 3119 1398 2916 
Q 1625 2713 2034 2713 
Q 2441 2713 2670 2916 
Q 2900 3119 2900 3481 
Q 2900 3844 2670 4047 
Q 2441 4250 2034 4250 
Q 1625 4250 1398 4047 
Q 1172 3844 1172 3481 
z
" transform="scale(0.015625)"/>
       </defs>
       <use xlink:href="#DejaVuSans-38"/>
       <use xlink:href="#DejaVuSans-30" transform="translate(63.623047 0)"/>
      </g>
     </g>
    </g>
    <g id="ytick_7">
     <g id="line2d_14">
      <g>
       <use xlink:href="#m20d47dcfb8" x="52.85" y="42.922967" style="stroke: #000000; stroke-width: 0.8"/>
      </g>
     </g>
     <g id="text_15">
      <!-- 100 -->
      <g transform="translate(26.7625 46.722185) scale(0.1 -0.1)">
       <use xlink:href="#DejaVuSans-31"/>
       <use xlink:href="#DejaVuSans-30" transform="translate(63.623047 0)"/>
       <use xlink:href="#DejaVuSans-30" transform="translate(127.246094 0)"/>
      </g>
     </g>
    </g>
    <g id="text_16">
     <!-- (Rel.) Buiten Vochtigheid (%) -->
     <g transform="translate(18.665625 208.620937) rotate(-90) scale(0.1 -0.1)">
      <defs>
       <path id="DejaVuSans-28" d="M 1984 4856 
Q 1566 4138 1362 3434 
Q 1159 2731 1159 2009 
Q 1159 1288 1364 580 
Q 1569 -128 1984 -844 
L 1484 -844 
Q 1016 -109 783 600 
Q 550 1309 550 2009 
Q 550 2706 781 3412 
Q 1013 4119 1484 4856 
L 1984 4856 
z
" transform="scale(0.015625)"/>
       <path id="DejaVuSans-52" d="M 2841 2188 
Q 3044 2119 3236 1894 
Q 3428 1669 3622 1275 
L 4263 0 
L 3584 0 
L 2988 1197 
Q 2756 1666 2539 1819 
Q 2322 1972 1947 1972 
L 1259 1972 
L 1259 0 
L 628 0 
L 628 4666 
L 2053 4666 
Q 2853 4666 3247 4331 
Q 3641 3997 3641 3322 
Q 3641 2881 3436 2590 
Q 3231 2300 2841 2188 
z
M 1259 4147 
L 1259 2491 
L 2053 2491 
Q 2509 2491 2742 2702 
Q 2975 2913 2975 3322 
Q 2975 3731 2742 3939 
Q 2509 4147 2053 4147 
L 1259 4147 
z
" transform="scale(0.015625)"/>
       <path id="DejaVuSans-65" d="M 3597 1894 
L 3597 1613 
L 953 1613 
Q 991 1019 1311 708 
Q 1631 397 2203 397 
Q 2534 397 2845 478 
Q 3156 559 3463 722 
L 3463 178 
Q 3153 47 2828 -22 
Q 2503 -91 2169 -91 
Q 1331 -91 842 396 
Q 353 884 353 1716 
Q 353 2575 817 3079 
Q 1281 3584 2069 3584 
Q 2775 3584 3186 3129 
Q 3597 2675 3597 1894 
z
M 3022 2063 
Q 3016 2534 2758 2815 
Q 2500 3097 2075 3097 
Q 1594 3097 1305 2825 
Q 1016 2553 972 2059 
L 3022 2063 
z
" transform="scale(0.015625)"/>
       <path id="DejaVuSans-6c" d="M 603 4863 
L 1178 4863 
L 1178 0 
L 603 0 
L 603 4863 
z
" transform="scale(0.015625)"/>
       <path id="DejaVuSans-2e" d="M 684 794 
L 1344 794 
L 1344 0 
L 684 0 
L 684 794 
z
" transform="scale(0.015625)"/>
       <path id="DejaVuSans-29" d="M 513 4856 
L 1013 4856 
Q 1481 4119 1714 3412 
Q 1947 2706 1947 2009 
Q 1947 1309 1714 600 
Q 1481 -109 1013 -844 
L 513 -844 
Q 928 -128 1133 580 
Q 1338 1288 1338 2009 
Q 1338 2731 1133 3434 
Q 928 4138 513 4856 
z
" transform="scale(0.015625)"/>
       <path id="DejaVuSans-42" d="M 1259 2228 
L 1259 519 
L 2272 519 
Q 2781 519 3026 730 
Q 3272 941 3272 1375 
Q 3272 1813 3026 2020 
Q 2781 2228 2272 2228 
L 1259 2228 
z
M 1259 4147 
L 1259 2741 
L 2194 2741 
Q 2656 2741 2882 2914 
Q 3109 3088 3109 3444 
Q 3109 3797 2882 3972 
Q 2656 4147 2194 4147 
L 1259 4147 
z
M 628 4666 
L 2241 4666 
Q 2963 4666 3353 4366 
Q 3744 4066 3744 3513 
Q 3744 3084 3544 2831 
Q 3344 2578 2956 2516 
Q 3422 2416 3680 2098 
Q 3938 1781 3938 1306 
Q 3938 681 3513 340 
Q 3088 0 2303 0 
L 628 0 
L 628 4666 
z
" transform="scale(0.015625)"/>
       <path id="DejaVuSans-75" d="M 544 1381 
L 544 3500 
L 1119 3500 
L 1119 1403 
Q 1119 906 1312 657 
Q 1506 409 1894 409 
Q 2359 409 2629 706 
Q 2900 1003 2900 1516 
L 2900 3500 
L 3475 3500 
L 3475 0 
L 2900 0 
L 2900 538 
Q 2691 219 2414 64 
Q 2138 -91 1772 -91 
Q 1169 -91 856 284 
Q 544 659 544 1381 
z
M 1991 3584 
L 1991 3584 
z
" transform="scale(0.015625)"/>
       <path id="DejaVuSans-74" d="M 1172 4494 
L 1172 3500 
L 2356 3500 
L 2356 3053 
L 1172 3053 
L 1172 1153 
Q 1172 725 1289 603 
Q 1406 481 1766 481 
L 2356 481 
L 2356 0 
L 1766 0 
Q 1100 0 847 248 
Q 594 497 594 1153 
L 594 3053 
L 172 3053 
L 172 3500 
L 594 3500 
L 594 4494 
L 1172 4494 
z
" transform="scale(0.015625)"/>
       <path id="DejaVuSans-6e" d="M 3513 2113 
L 3513 0 
L 2938 0 
L 2938 2094 
Q 2938 2591 2744 2837 
Q 2550 3084 2163 3084 
Q 1697 3084 1428 2787 
Q 1159 2491 1159 1978 
L 1159 0 
L 581 0 
L 581 3500 
L 1159 3500 
L 1159 2956 
Q 1366 3272 1645 3428 
Q 1925 3584 2291 3584 
Q 2894 3584 3203 3211 
Q 3513 2838 3513 2113 
z
" transform="scale(0.015625)"/>
       <path id="DejaVuSans-56" d="M 1831 0 
L 50 4666 
L 709 4666 
L 2188 738 
L 3669 4666 
L 4325 4666 
L 2547 0 
L 1831 0 
z
" transform="scale(0.015625)"/>
       <path id="DejaVuSans-6f" d="M 1959 3097 
Q 1497 3097 1228 2736 
Q 959 2375 959 1747 
Q 959 1119 1226 758 
Q 1494 397 1959 397 
Q 2419 397 2687 759 
Q 2956 1122 2956 1747 
Q 2956 2369 2687 2733 
Q 2419 3097 1959 3097 
z
M 1959 3584 
Q 2709 3584 3137 3096 
Q 3566 2609 3566 1747 
Q 3566 888 3137 398 
Q 2709 -91 1959 -91 
Q 1206 -91 779 398 
Q 353 888 353 1747 
Q 353 2609 779 3096 
Q 1206 3584 1959 3584 
z
" transform="scale(0.015625)"/>
       <path id="DejaVuSans-63" d="M 3122 3366 
L 3122 2828 
Q 2878 2963 2633 3030 
Q 2388 3097 2138 3097 
Q 1578 3097 1268 2742 
Q 959 2388 959 1747 
Q 959 1106 1268 751 
Q 1578 397 2138 397 
Q 2388 397 2633 464 
Q 2878 531 3122 666 
L 3122 134 
Q 2881 22 2623 -34 
Q 2366 -91 2075 -91 
Q 1284 -91 818 406 
Q 353 903 353 1747 
Q 353 2603 823 3093 
Q 1294 3584 2113 3584 
Q 2378 3584 2631 3529 
Q 2884 3475 3122 3366 
z
" transform="scale(0.015625)"/>
       <path id="DejaVuSans-68" d="M 3513 2113 
L 3513 0 
L 2938 0 
L 2938 2094 
Q 2938 2591 2744 2837 
Q 2550 3084 2163 3084 
Q 1697 3084 1428 2787 
Q 1159 2491 1159 1978 
L 1159 0 
L 581 0 
L 581 4863 
L 1159 4863 
L 1159 2956 
Q 1366 3272 1645 3428 
Q 1925 3584 2291 3584 
Q 2894 3584 3203 3211 
Q 3513 2838 3513 2113 
z
" transform="scale(0.015625)"/>
       <path id="DejaVuSans-67" d="M 2906 1791 
Q 2906 2416 2648 2759 
Q 2391 3103 1925 3103 
Q 1463 3103 1205 2759 
Q 947 2416 947 1791 
Q 947 1169 1205 825 
Q 1463 481 1925 481 
Q 2391 481 2648 825 
Q 2906 1169 2906 1791 
z
M 3481 434 
Q 3481 -459 3084 -895 
Q 2688 -1331 1869 -1331 
Q 1566 -1331 1297 -1286 
Q 1028 -1241 775 -1147 
L 775 -588 
Q 1028 -725 1275 -790 
Q 1522 -856 1778 -856 
Q 2344 -856 2625 -561 
Q 2906 -266 2906 331 
L 2906 616 
Q 2728 306 2450 153 
Q 2172 0 1784 0 
Q 1141 0 747 490 
Q 353 981 353 1791 
Q 353 2603 747 3093 
Q 1141 3584 1784 3584 
Q 2172 3584 2450 3431 
Q 2728 3278 2906 2969 
L 2906 3500 
L 3481 3500 
L 3481 434 
z
" transform="scale(0.015625)"/>
       <path id="DejaVuSans-25" d="M 4653 2053 
Q 4381 2053 4226 1822 
Q 4072 1591 4072 1178 
Q 4072 772 4226 539 
Q 4381 306 4653 306 
Q 4919 306 5073 539 
Q 5228 772 5228 1178 
Q 5228 1588 5073 1820 
Q 4919 2053 4653 2053 
z
M 4653 2450 
Q 5147 2450 5437 2106 
Q 5728 1763 5728 1178 
Q 5728 594 5436 251 
Q 5144 -91 4653 -91 
Q 4153 -91 3862 251 
Q 3572 594 3572 1178 
Q 3572 1766 3864 2108 
Q 4156 2450 4653 2450 
z
M 1428 4353 
Q 1159 4353 1004 4120 
Q 850 3888 850 3481 
Q 850 3069 1003 2837 
Q 1156 2606 1428 2606 
Q 1700 2606 1854 2837 
Q 2009 3069 2009 3481 
Q 2009 3884 1853 4118 
Q 1697 4353 1428 4353 
z
M 4250 4750 
L 4750 4750 
L 1831 -91 
L 1331 -91 
L 4250 4750 
z
M 1428 4750 
Q 1922 4750 2215 4408 
Q 2509 4066 2509 3481 
Q 2509 2891 2217 2550 
Q 1925 2209 1428 2209 
Q 931 2209 642 2551 
Q 353 2894 353 3481 
Q 353 4063 643 4406 
Q 934 4750 1428 4750 
z
" transform="scale(0.015625)"/>
      </defs>
      <use xlink:href="#DejaVuSans-28"/>
      <use xlink:href="#DejaVuSans-52" transform="translate(39.013672 0)"/>
      <use xlink:href="#DejaVuSans-65" transform="translate(103.996094 0)"/>
      <use xlink:href="#DejaVuSans-6c" transform="translate(165.519531 0)"/>
      <use xlink:href="#DejaVuSans-2e" transform="translate(193.302734 0)"/>
      <use xlink:href="#DejaVuSans-29" transform="translate(225.089844 0)"/>
      <use xlink:href="#DejaVuSans-20" transform="translate(264.103516 0)"/>
      <use xlink:href="#DejaVuSans-42" transform="translate(295.890625 0)"/>
      <use xlink:href="#DejaVuSans-75" transform="translate(364.494141 0)"/>
      <use xlink:href="#DejaVuSans-69" transform="translate(427.873047 0)"/>
      <use xlink:href="#DejaVuSans-74" transform="translate(455.65625 0)"/>
      <use xlink:href="#DejaVuSans-65" transform="translate(494.865234 0)"/>
      <use xlink:href="#DejaVuSans-6e" transform="translate(556.388672 0)"/>
      <use xlink:href="#DejaVuSans-20" transform="translate(619.767578 0)"/>
      <use xlink:href="#DejaVuSans-56" transform="translate(651.554688 0)"/>
      <use xlink:href="#DejaVuSans-6f" transform="translate(712.212891 0)"/>
      <use xlink:href="#DejaVuSans-63" transform="translate(773.394531 0)"/>
      <use xlink:href="#DejaVuSans-68" transform="translate(828.375 0)"/>
      <use xlink:href="#DejaVuSans-74" transform="translate(891.753906 0)"/>
      <use xlink:href="#DejaVuSans-69" transform="translate(930.962891 0)"/>
      <use xlink:href="#DejaVuSans-67" transform="translate(958.746094 0)"/>
      <use xlink:href="#DejaVuSans-68" transform="translate(1022.222656 0)"/>
      <use xlink:href="#DejaVuSans-65" transform="translate(1085.601562 0)"/>
      <use xlink:href="#DejaVuSans-69" transform="translate(1147.125 0)"/>
      <use xlink:href="#DejaVuSans-64" transform="translate(1174.908203 0)"/>
      <use xlink:href="#DejaVuSans-20" transform="translate(1238.384766 0)"/>
      <use xlink:href="#DejaVuSans-28" transform="translate(1270.171875 0)"/>
      <use xlink:href="#DejaVuSans-25" transform="translate(1309.185547 0)"/>
      <use xlink:href="#DejaVuSans-29" transform="translate(1404.205078 0)"/>
     </g>
    </g>
   </g>
   <g id="line2d_15">
    <path d="M 82.684091 120.112288 
L 86.173458 122.461528 
L 89.662826 125.817586 
L 93.152193 133.536518 
L 96.64156 133.592452 
L 100.130928 132.809372 
L 103.620295 126.376929 
L 107.109662 119.049537 
L 110.59903 118.490194 
L 114.088397 108.366087 
L 117.577764 102.828592 
L 121.067132 97.682638 
L 124.556499 96.172412 
L 128.045867 94.270646 
L 131.535234 94.774054 
L 135.024601 91.473931 
L 138.513969 87.306827 
L 142.003336 89.460297 
L 145.492703 87.502597 
L 148.982071 89.795903 
L 152.471438 88.061939 
L 155.960805 83.754999 
L 159.450173 86.216108 
L 162.93954 93.93504 
L 166.428907 84.202473 
L 169.918275 75.81233 
L 173.407642 75.364855 
L 176.89701 71.393521 
L 180.386377 71.785061 
L 183.875744 70.778244 
L 187.365112 72.288469 
L 190.854479 85.544896 
L 194.343846 86.663582 
L 197.833214 95.89274 
L 201.322581 100.031878 
L 204.811948 111.722145 
L 208.301316 117.511344 
L 211.790683 128.670235 
L 215.280051 124.810769 
L 218.769418 119.385142 
L 222.258785 119.385142 
L 225.748153 115.329906 
L 229.23752 111.610276 
L 232.726887 116.532494 
L 236.216255 108.422021 
L 239.705622 94.354547 
L 243.194989 96.116477 
L 246.684357 97.123295 
L 250.173724 96.116477 
L 253.663091 97.123295 
L 257.152459 92.033274 
L 260.641826 91.641734 
L 264.131194 97.235163 
L 267.620561 91.809537 
L 271.109928 94.606252 
L 274.599296 93.263829 
L 278.088663 92.201077 
L 281.57803 95.221529 
L 285.067398 98.969126 
L 288.556765 98.857258 
L 292.046132 103.611672 
L 295.5355 113.176436 
L 299.024867 109.484773 
L 302.514234 108.310153 
L 306.003602 111.722145 
L 309.492969 106.855861 
L 312.982337 102.940461 
L 316.471704 100.759024 
L 319.961071 98.353849 
L 323.450439 90.131508 
L 326.939806 86.383911 
L 330.429173 90.578983 
L 333.918541 90.578983 
L 337.407908 88.061939 
L 340.897275 84.817751 
L 344.386643 85.600831 
L 347.87601 83.25159 
L 351.365377 84.202473 
L 354.854745 84.705882 
L 358.344112 86.160174 
L 361.83348 84.090605 
L 365.322847 83.363459 
L 368.812214 83.810933 
L 372.301582 82.580379 
L 375.790949 89.851837 
L 379.280316 98.186046 
L 382.769684 99.360666 
L 386.259051 103.108264 
L 389.748418 107.862678 
L 393.237786 114.686662 
L 396.727153 108.198284 
L 400.21652 110.155984 
L 403.705888 116.420625 
L 407.195255 123.803951 
L 410.684623 124.027689 
L 414.17399 121.734383 
L 417.663357 114.742596 
L 421.152725 117.035902 
L 424.642092 112.225553 
L 428.131459 114.295122 
L 431.620827 113.679845 
L 435.110194 111.610276 
L 438.599561 107.415204 
L 442.088929 103.891344 
L 445.578296 98.24198 
L 449.067663 96.508017 
L 452.557031 90.187443 
L 456.046398 85.153356 
L 459.535766 80.90235 
L 463.025133 74.973315 
L 466.5145 72.120667 
L 470.003868 70.162966 
L 473.493235 65.017012 
L 476.982602 62.555903 
L 480.47197 61.660954 
L 483.961337 59.283747 
L 487.450704 59.535451 
L 490.940072 58.640502 
L 494.429439 58.248962 
L 497.918806 56.962474 
L 504.897541 54.836971 
L 508.386909 54.948839 
L 511.876276 54.501365 
L 515.365643 53.718285 
L 518.855011 54.165759 
L 522.344378 54.053891 
L 525.833745 56.347197 
L 529.323113 63.227114 
L 536.301847 84.286375 
L 539.791215 87.838202 
L 543.280582 92.984157 
L 546.769949 94.046909 
L 550.259317 96.172412 
L 553.748684 95.389332 
L 557.238052 97.626703 
L 560.727419 100.311549 
L 567.706154 116.588428 
L 571.195521 116.812165 
L 574.684888 115.861282 
L 581.663623 120.112288 
L 585.15299 119.60888 
L 588.642358 113.62391 
L 592.131725 115.190071 
L 595.621093 110.967032 
L 595.621093 110.967032 
" clip-path="url(#p12f59c148f)" style="fill: none; stroke: #1f77b4; stroke-width: 2; stroke-linecap: square"/>
   </g>
   <g id="line2d_16">
    <path d="M 82.684091 130.222411 
L 86.173458 133.288809 
L 89.662826 136.790029 
L 93.152193 139.330378 
L 96.64156 138.418783 
L 100.130928 138.538642 
L 103.620295 134.383523 
L 107.109662 132.51372 
L 110.59903 131.506902 
L 114.088397 128.502432 
L 117.577764 125.314177 
L 121.067132 121.470692 
L 124.556499 117.882907 
L 131.535234 112.001816 
L 135.024601 111.083561 
L 138.513969 106.730009 
L 142.003336 104.830241 
L 145.492703 104.394752 
L 148.982071 102.576888 
L 152.471438 103.411907 
L 155.960805 104.578537 
L 159.450173 104.282884 
L 162.93954 105.101922 
L 166.428907 102.744691 
L 169.918275 94.957839 
L 173.407642 93.064063 
L 176.89701 84.752494 
L 180.386377 88.477451 
L 183.875744 87.135028 
L 187.365112 82.236783 
L 190.854479 81.757346 
L 194.343846 75.541981 
L 197.833214 84.50079 
L 201.322581 83.579206 
L 204.811948 87.689044 
L 208.301316 89.264527 
L 211.790683 91.017135 
L 215.280051 98.669478 
L 218.769418 100.351502 
L 222.258785 104.666433 
L 225.748153 104.38543 
L 229.23752 103.164198 
L 232.726887 106.851866 
L 236.216255 109.64059 
L 239.705622 108.92543 
L 243.194989 112.001816 
L 246.684357 109.676548 
L 250.173724 109.273022 
L 253.663091 107.718847 
L 257.152459 107.475134 
L 260.641826 110.703341 
L 264.131194 110.563506 
L 267.620561 110.667384 
L 271.109928 109.940238 
L 274.599296 111.242708 
L 278.088663 117.275621 
L 281.57803 116.652353 
L 285.067398 114.327084 
L 288.556765 113.040596 
L 292.046132 115.253995 
L 295.5355 114.934371 
L 299.024867 112.996647 
L 302.514234 114.751919 
L 306.003602 112.081722 
L 309.492969 111.810041 
L 316.471704 109.476782 
L 319.961071 109.093233 
L 323.450439 105.473485 
L 326.939806 104.502626 
L 330.429173 102.429062 
L 333.918541 102.133409 
L 337.407908 100.942808 
L 340.897275 99.596389 
L 344.386643 100.339516 
L 347.87601 98.449736 
L 351.365377 97.802497 
L 354.854745 96.196384 
L 361.83348 94.230693 
L 365.322847 93.67934 
L 368.812214 93.004134 
L 372.301582 92.552664 
L 375.790949 93.183922 
L 382.769684 98.501675 
L 386.259051 101.925653 
L 389.748418 104.562555 
L 393.237786 106.947753 
L 396.727153 108.941411 
L 400.21652 110.767266 
L 403.705888 113.883605 
L 407.195255 117.491367 
L 410.684623 123.416407 
L 414.17399 125.661769 
L 417.663357 124.371285 
L 421.152725 123.228627 
L 424.642092 120.559763 
L 428.131459 121.686439 
L 435.110194 126.792441 
L 438.599561 122.821106 
L 442.088929 121.942139 
L 445.578296 116.22086 
L 449.067663 115.142127 
L 452.557031 112.05775 
L 456.046398 108.310153 
L 459.535766 106.18465 
L 463.025133 103.475832 
L 466.5145 102.612846 
L 470.003868 99.168892 
L 473.493235 96.875586 
L 476.982602 93.839153 
L 480.47197 93.399669 
L 483.961337 91.661711 
L 487.450704 90.563001 
L 490.940072 88.281681 
L 494.429439 89.89179 
L 497.918806 89.248546 
L 501.408174 87.111057 
L 504.897541 85.265225 
L 511.876276 80.870388 
L 515.365643 78.461218 
L 518.855011 76.475551 
L 522.344378 74.765559 
L 525.833745 73.85463 
L 529.323113 74.022432 
L 532.81248 75.568616 
L 536.301847 77.482368 
L 539.791215 78.912688 
L 543.280582 81.425735 
L 546.769949 85.968399 
L 550.259317 91.97734 
L 553.748684 95.281458 
L 557.238052 97.766539 
L 560.727419 102.121423 
L 564.216786 108.090411 
L 567.706154 111.226727 
L 571.195521 115.202057 
L 574.684888 117.611226 
L 578.174256 121.782326 
L 581.663623 125.274224 
L 585.15299 126.217117 
L 588.642358 126.740502 
L 592.131725 123.931801 
L 595.621093 123.959768 
L 599.11046 117.595245 
L 602.599827 128.41853 
L 606.089195 136.724773 
L 609.578562 140.556272 
L 613.067929 138.402801 
L 616.557297 135.941693 
L 620.046664 124.139557 
L 623.536031 121.37081 
L 627.025399 131.634752 
L 634.004133 131.746621 
L 637.493501 129.788921 
L 640.982868 126.740502 
L 644.472236 141.25545 
L 647.961603 134.123828 
L 651.45097 137.395984 
L 654.940338 143.716559 
L 658.429705 125.929454 
L 661.919072 131.243212 
L 665.40844 128.054958 
L 668.897807 126.041323 
L 672.387174 125.929454 
L 675.876542 124.810769 
L 679.365909 122.964937 
L 679.365909 122.964937 
" clip-path="url(#p12f59c148f)" style="fill: none; stroke-dasharray: 5.55,2.4; stroke-dashoffset: 0; stroke: #808080; stroke-width: 1.5"/>
   </g>
   <g id="patch_3">
    <path d="M 52.85 246.04 
L 52.85 26.88 
" style="fill: none; stroke: #000000; stroke-width: 0.8; stroke-linejoin: miter; stroke-linecap: square"/>
   </g>
   <g id="patch_4">
    <path d="M 709.2 246.04 
L 709.2 26.88 
" style="fill: none; stroke: #000000; stroke-width: 0.8; stroke-linejoin: miter; stroke-linecap: square"/>
   </g>
   <g id="patch_5">
    <path d="M 52.85 246.04 
L 709.2 246.04 
" style="fill: none; stroke: #000000; stroke-width: 0.8; stroke-linejoin: miter; stroke-linecap: square"/>
   </g>
   <g id="patch_6">
    <path d="M 52.85 26.88 
L 709.2 26.88 
" style="fill: none; stroke: #000000; stroke-width: 0.8; stroke-linejoin: miter; stroke-linecap: square"/>
   </g>
   <g id="text_17">
    <!-- Luchtvochtigheid - v001/c00001/d031 -->
    <g transform="translate(266.735313 20.88) scale(0.12 -0.12)">
     <defs>
      <path id="DejaVuSans-4c" d="M 628 4666 
L 1259 4666 
L 1259 531 
L 3531 531 
L 3531 0 
L 628 0 
L 628 4666 
z
" transform="scale(0.015625)"/>
      <path id="DejaVuSans-76" d="M 191 3500 
L 800 3500 
L 1894 563 
L 2988 3500 
L 3597 3500 
L 2284 0 
L 1503 0 
L 191 3500 
z
" transform="scale(0.015625)"/>
      <path id="DejaVuSans-2f" d="M 1625 4666 
L 2156 4666 
L 531 -594 
L 0 -594 
L 1625 4666 
z
" transform="scale(0.015625)"/>
      <path id="DejaVuSans-33" d="M 2597 2516 
Q 3050 2419 3304 2112 
Q 3559 1806 3559 1356 
Q 3559 666 3084 287 
Q 2609 -91 1734 -91 
Q 1441 -91 1130 -33 
Q 819 25 488 141 
L 488 750 
Q 750 597 1062 519 
Q 1375 441 1716 441 
Q 2309 441 2620 675 
Q 2931 909 2931 1356 
Q 2931 1769 2642 2001 
Q 2353 2234 1838 2234 
L 1294 2234 
L 1294 2753 
L 1863 2753 
Q 2328 2753 2575 2939 
Q 2822 3125 2822 3475 
Q 2822 3834 2567 4026 
Q 2313 4219 1838 4219 
Q 1578 4219 1281 4162 
Q 984 4106 628 3988 
L 628 4550 
Q 988 4650 1302 4700 
Q 1616 4750 1894 4750 
Q 2613 4750 3031 4423 
Q 3450 4097 3450 3541 
Q 3450 3153 3228 2886 
Q 3006 2619 2597 2516 
z
" transform="scale(0.015625)"/>
     </defs>
     <use xlink:href="#DejaVuSans-4c"/>
     <use xlink:href="#DejaVuSans-75" transform="translate(53.962891 0)"/>
     <use xlink:href="#DejaVuSans-63" transform="translate(117.341797 0)"/>
     <use xlink:href="#DejaVuSans-68" transform="translate(172.322266 0)"/>
     <use xlink:href="#DejaVuSans-74" transform="translate(235.701172 0)"/>
     <use xlink:href="#DejaVuSans-76" transform="translate(274.910156 0)"/>
     <use xlink:href="#DejaVuSans-6f" transform="translate(334.089844 0)"/>
     <use xlink:href="#DejaVuSans-63" transform="translate(395.271484 0)"/>
     <use xlink:href="#DejaVuSans-68" transform="translate(450.251953 0)"/>
     <use xlink:href="#DejaVuSans-74" transform="translate(513.630859 0)"/>
     <use xlink:href="#DejaVuSans-69" transform="translate(552.839844 0)"/>
     <use xlink:href="#DejaVuSans-67" transform="translate(580.623047 0)"/>
     <use xlink:href="#DejaVuSans-68" transform="translate(644.099609 0)"/>
     <use xlink:href="#DejaVuSans-65" transform="translate(707.478516 0)"/>
     <use xlink:href="#DejaVuSans-69" transform="translate(769.001953 0)"/>
     <use xlink:href="#DejaVuSans-64" transform="translate(796.785156 0)"/>
     <use xlink:href="#DejaVuSans-20" transform="translate(860.261719 0)"/>
     <use xlink:href="#DejaVuSans-2d" transform="translate(892.048828 0)"/>
     <use xlink:href="#DejaVuSans-20" transform="translate(928.132812 0)"/>
     <use xlink:href="#DejaVuSans-76" transform="translate(959.919922 0)"/>
     <use xlink:href="#DejaVuSans-30" transform="translate(1019.099609 0)"/>
     <use xlink:href="#DejaVuSans-30" transform="translate(1082.722656 0)"/>
     <use xlink:href="#DejaVuSans-31" transform="translate(1146.345703 0)"/>
     <use xlink:href="#DejaVuSans-2f" transform="translate(1209.96875 0)"/>
     <use xlink:href="#DejaVuSans-63" transform="translate(1243.660156 0)"/>
     <use xlink:href="#DejaVuSans-30" transform="translate(1298.640625 0)"/>
     <use xlink:href="#DejaVuSans-30" transform="translate(1362.263672 0)"/>
     <use xlink:href="#DejaVuSans-30" transform="translate(1425.886719 0)"/>
     <use xlink:href="#DejaVuSans-30" transform="translate(1489.509766 0)"/>
     <use xlink:href="#DejaVuSans-31" transform="translate(1553.132812 0)"/>
     <use xlink:href="#DejaVuSans-2f" transform="translate(1616.755859 0)"/>
     <use xlink:href="#DejaVuSans-64" transform="translate(1650.447266 0)"/>
     <use xlink:href="#DejaVuSans-30" transform="translate(1713.923828 0)"/>
     <use xlink:href="#DejaVuSans-33" transform="translate(1777.546875 0)"/>
     <use xlink:href="#DejaVuSans-31" transform="translate(1841.169922 0)"/>
    </g>
   </g>
   <g id="legend_1">
    <g id="patch_7">
     <path d="M 59.85 241.04 
L 210.79375 241.04 
Q 212.79375 241.04 212.79375 239.04 
L 212.79375 196.005625 
Q 212.79375 194.005625 210.79375 194.005625 
L 59.85 194.005625 
Q 57.85 194.005625 57.85 196.005625 
L 57.85 239.04 
Q 57.85 241.04 59.85 241.04 
z
" style="fill: #ffffff; opacity: 0.8; stroke: #cccccc; stroke-linejoin: miter"/>
    </g>
    <g id="line2d_17">
     <path d="M 61.85 202.104062 
L 71.85 202.104062 
L 81.85 202.104062 
" style="fill: none; stroke: #1f77b4; stroke-width: 2; stroke-linecap: square"/>
    </g>
    <g id="text_18">
     <!-- Hive -->
     <g transform="translate(89.85 205.604062) scale(0.1 -0.1)">
      <defs>
       <path id="DejaVuSans-48" d="M 628 4666 
L 1259 4666 
L 1259 2753 
L 3553 2753 
L 3553 4666 
L 4184 4666 
L 4184 0 
L 3553 0 
L 3553 2222 
L 1259 2222 
L 1259 0 
L 628 0 
L 628 4666 
z
" transform="scale(0.015625)"/>
      </defs>
      <use xlink:href="#DejaVuSans-48"/>
      <use xlink:href="#DejaVuSans-69" transform="translate(75.195312 0)"/>
      <use xlink:href="#DejaVuSans-76" transform="translate(102.978516 0)"/>
      <use xlink:href="#DejaVuSans-65" transform="translate(162.158203 0)"/>
     </g>
    </g>
    <g id="line2d_18">
     <path d="M 61.85 216.782187 
L 71.85 216.782187 
L 81.85 216.782187 
" style="fill: none; stroke-dasharray: 5.55,2.4; stroke-dashoffset: 0; stroke: #808080; stroke-width: 1.5"/>
    </g>
    <g id="text_19">
     <!-- Gemiddelde (alle hives) -->
     <g transform="translate(89.85 220.282187) scale(0.1 -0.1)">
      <defs>
       <path id="DejaVuSans-47" d="M 3809 666 
L 3809 1919 
L 2778 1919 
L 2778 2438 
L 4434 2438 
L 4434 434 
Q 4069 175 3628 42 
Q 3188 -91 2688 -91 
Q 1594 -91 976 548 
Q 359 1188 359 2328 
Q 359 3472 976 4111 
Q 1594 4750 2688 4750 
Q 3144 4750 3555 4637 
Q 3966 4525 4313 4306 
L 4313 3634 
Q 3963 3931 3569 4081 
Q 3175 4231 2741 4231 
Q 1884 4231 1454 3753 
Q 1025 3275 1025 2328 
Q 1025 1384 1454 906 
Q 1884 428 2741 428 
Q 3075 428 3337 486 
Q 3600 544 3809 666 
z
" transform="scale(0.015625)"/>
       <path id="DejaVuSans-6d" d="M 3328 2828 
Q 3544 3216 3844 3400 
Q 4144 3584 4550 3584 
Q 5097 3584 5394 3201 
Q 5691 2819 5691 2113 
L 5691 0 
L 5113 0 
L 5113 2094 
Q 5113 2597 4934 2840 
Q 4756 3084 4391 3084 
Q 3944 3084 3684 2787 
Q 3425 2491 3425 1978 
L 3425 0 
L 2847 0 
L 2847 2094 
Q 2847 2600 2669 2842 
Q 2491 3084 2119 3084 
Q 1678 3084 1418 2786 
Q 1159 2488 1159 1978 
L 1159 0 
L 581 0 
L 581 3500 
L 1159 3500 
L 1159 2956 
Q 1356 3278 1631 3431 
Q 1906 3584 2284 3584 
Q 2666 3584 2933 3390 
Q 3200 3197 3328 2828 
z
" transform="scale(0.015625)"/>
       <path id="DejaVuSans-61" d="M 2194 1759 
Q 1497 1759 1228 1600 
Q 959 1441 959 1056 
Q 959 750 1161 570 
Q 1363 391 1709 391 
Q 2188 391 2477 730 
Q 2766 1069 2766 1631 
L 2766 1759 
L 2194 1759 
z
M 3341 1997 
L 3341 0 
L 2766 0 
L 2766 531 
Q 2569 213 2275 61 
Q 1981 -91 1556 -91 
Q 1019 -91 701 211 
Q 384 513 384 1019 
Q 384 1609 779 1909 
Q 1175 2209 1959 2209 
L 2766 2209 
L 2766 2266 
Q 2766 2663 2505 2880 
Q 2244 3097 1772 3097 
Q 1472 3097 1187 3025 
Q 903 2953 641 2809 
L 641 3341 
Q 956 3463 1253 3523 
Q 1550 3584 1831 3584 
Q 2591 3584 2966 3190 
Q 3341 2797 3341 1997 
z
" transform="scale(0.015625)"/>
       <path id="DejaVuSans-73" d="M 2834 3397 
L 2834 2853 
Q 2591 2978 2328 3040 
Q 2066 3103 1784 3103 
Q 1356 3103 1142 2972 
Q 928 2841 928 2578 
Q 928 2378 1081 2264 
Q 1234 2150 1697 2047 
L 1894 2003 
Q 2506 1872 2764 1633 
Q 3022 1394 3022 966 
Q 3022 478 2636 193 
Q 2250 -91 1575 -91 
Q 1294 -91 989 -36 
Q 684 19 347 128 
L 347 722 
Q 666 556 975 473 
Q 1284 391 1588 391 
Q 1994 391 2212 530 
Q 2431 669 2431 922 
Q 2431 1156 2273 1281 
Q 2116 1406 1581 1522 
L 1381 1569 
Q 847 1681 609 1914 
Q 372 2147 372 2553 
Q 372 3047 722 3315 
Q 1072 3584 1716 3584 
Q 2034 3584 2315 3537 
Q 2597 3491 2834 3397 
z
" transform="scale(0.015625)"/>
      </defs>
      <use xlink:href="#DejaVuSans-47"/>
      <use xlink:href="#DejaVuSans-65" transform="translate(77.490234 0)"/>
      <use xlink:href="#DejaVuSans-6d" transform="translate(139.013672 0)"/>
      <use xlink:href="#DejaVuSans-69" transform="translate(236.425781 0)"/>
      <use xlink:href="#DejaVuSans-64" transform="translate(264.208984 0)"/>
      <use xlink:href="#DejaVuSans-64" transform="translate(327.685547 0)"/>
      <use xlink:href="#DejaVuSans-65" transform="translate(391.162109 0)"/>
      <use xlink:href="#DejaVuSans-6c" transform="translate(452.685547 0)"/>
      <use xlink:href="#DejaVuSans-64" transform="translate(480.46875 0)"/>
      <use xlink:href="#DejaVuSans-65" transform="translate(543.945312 0)"/>
      <use xlink:href="#DejaVuSans-20" transform="translate(605.46875 0)"/>
      <use xlink:href="#DejaVuSans-28" transform="translate(637.255859 0)"/>
      <use xlink:href="#DejaVuSans-61" transform="translate(676.269531 0)"/>
      <use xlink:href="#DejaVuSans-6c" transform="translate(737.548828 0)"/>
      <use xlink:href="#DejaVuSans-6c" transform="translate(765.332031 0)"/>
      <use xlink:href="#DejaVuSans-65" transform="translate(793.115234 0)"/>
      <use xlink:href="#DejaVuSans-20" transform="translate(854.638672 0)"/>
      <use xlink:href="#DejaVuSans-68" transform="translate(886.425781 0)"/>
      <use xlink:href="#DejaVuSans-69" transform="translate(949.804688 0)"/>
      <use xlink:href="#DejaVuSans-76" transform="translate(977.587891 0)"/>
      <use xlink:href="#DejaVuSans-65" transform="translate(1036.767578 0)"/>
      <use xlink:href="#DejaVuSans-73" transform="translate(1098.291016 0)"/>
      <use xlink:href="#DejaVuSans-29" transform="translate(1150.390625 0)"/>
     </g>
    </g>
    <g id="patch_8">
     <path d="M 61.85 234.960312 
L 81.85 234.960312 
L 81.85 227.960312 
L 61.85 227.960312 
z
" style="fill: #808080; fill-opacity: 0.2; stroke: #808080; stroke-opacity: 0.2; stroke-linejoin: miter"/>
    </g>
    <g id="text_20">
     <!-- ±2 Std Dev -->
     <g transform="translate(89.85 234.960312) scale(0.1 -0.1)">
      <defs>
       <path id="DejaVuSans-b1" d="M 2944 4013 
L 2944 2803 
L 4684 2803 
L 4684 2272 
L 2944 2272 
L 2944 1063 
L 2419 1063 
L 2419 2272 
L 678 2272 
L 678 2803 
L 2419 2803 
L 2419 4013 
L 2944 4013 
z
M 678 531 
L 4684 531 
L 4684 0 
L 678 0 
L 678 531 
z
" transform="scale(0.015625)"/>
       <path id="DejaVuSans-53" d="M 3425 4513 
L 3425 3897 
Q 3066 4069 2747 4153 
Q 2428 4238 2131 4238 
Q 1616 4238 1336 4038 
Q 1056 3838 1056 3469 
Q 1056 3159 1242 3001 
Q 1428 2844 1947 2747 
L 2328 2669 
Q 3034 2534 3370 2195 
Q 3706 1856 3706 1288 
Q 3706 609 3251 259 
Q 2797 -91 1919 -91 
Q 1588 -91 1214 -16 
Q 841 59 441 206 
L 441 856 
Q 825 641 1194 531 
Q 1563 422 1919 422 
Q 2459 422 2753 634 
Q 3047 847 3047 1241 
Q 3047 1584 2836 1778 
Q 2625 1972 2144 2069 
L 1759 2144 
Q 1053 2284 737 2584 
Q 422 2884 422 3419 
Q 422 4038 858 4394 
Q 1294 4750 2059 4750 
Q 2388 4750 2728 4690 
Q 3069 4631 3425 4513 
z
" transform="scale(0.015625)"/>
       <path id="DejaVuSans-44" d="M 1259 4147 
L 1259 519 
L 2022 519 
Q 2988 519 3436 956 
Q 3884 1394 3884 2338 
Q 3884 3275 3436 3711 
Q 2988 4147 2022 4147 
L 1259 4147 
z
M 628 4666 
L 1925 4666 
Q 3281 4666 3915 4102 
Q 4550 3538 4550 2338 
Q 4550 1131 3912 565 
Q 3275 0 1925 0 
L 628 0 
L 628 4666 
z
" transform="scale(0.015625)"/>
      </defs>
      <use xlink:href="#DejaVuSans-b1"/>
      <use xlink:href="#DejaVuSans-32" transform="translate(83.789062 0)"/>
      <use xlink:href="#DejaVuSans-20" transform="translate(147.412109 0)"/>
      <use xlink:href="#DejaVuSans-53" transform="translate(179.199219 0)"/>
      <use xlink:href="#DejaVuSans-74" transform="translate(242.675781 0)"/>
      <use xlink:href="#DejaVuSans-64" transform="translate(281.884766 0)"/>
      <use xlink:href="#DejaVuSans-20" transform="translate(345.361328 0)"/>
      <use xlink:href="#DejaVuSans-44" transform="translate(377.148438 0)"/>
      <use xlink:href="#DejaVuSans-65" transform="translate(454.150391 0)"/>
      <use xlink:href="#DejaVuSans-76" transform="translate(515.673828 0)"/>
     </g>
    </g>
   </g>
  </g>
 </g>
 <defs>
  <clipPath id="p12f59c148f">
   <rect x="52.85" y="26.88" width="656.35" height="219.16"/>
  </clipPath>
 </defs>
</svg>
