<?xml version="1.0" encoding="utf-8" standalone="no"?>
<!DOCTYPE svg PUBLIC "-//W3C//DTD SVG 1.1//EN"
  "http://www.w3.org/Graphics/SVG/1.1/DTD/svg11.dtd">
<svg xmlns:xlink="http://www.w3.org/1999/xlink" width="720pt" height="288pt" viewBox="0 0 720 288" xmlns="http://www.w3.org/2000/svg" version="1.1">
 <metadata>
  <rdf:RDF xmlns:dc="http://purl.org/dc/elements/1.1/" xmlns:cc="http://creativecommons.org/ns#" xmlns:rdf="http://www.w3.org/1999/02/22-rdf-syntax-ns#">
   <cc:Work>
    <dc:type rdf:resource="http://purl.org/dc/dcmitype/StillImage"/>
    <dc:date>2025-06-05T07:16:22.251190</dc:date>
    <dc:format>image/svg+xml</dc:format>
    <dc:creator>
     <cc:Agent>
      <dc:title>Matplotlib v3.10.3, https://matplotlib.org/</dc:title>
     </cc:Agent>
    </dc:creator>
   </cc:Work>
  </rdf:RDF>
 </metadata>
 <defs>
  <style type="text/css">*{stroke-linejoin: round; stroke-linecap: butt}</style>
 </defs>
 <g id="figure_1">
  <g id="patch_1">
   <path d="M 0 288 
L 720 288 
L 720 0 
L 0 0 
z
" style="fill: #ffffff"/>
  </g>
  <g id="axes_1">
   <g id="patch_2">
    <path d="M 71.84 246.04 
L 709.2 246.04 
L 709.2 26.88 
L 71.84 26.88 
z
" style="fill: #ffffff"/>
   </g>
   <g id="FillBetweenPolyCollection_1">
    <defs>
     <path id="m01ba74693d" d="M 100.810909 -120.028465 
L 100.810909 -115.718217 
L 104.365622 -115.631509 
L 107.920335 -115.705749 
L 111.475047 -115.296362 
L 115.02976 -114.742883 
L 118.584473 -114.661802 
L 122.139186 -113.743578 
L 125.693898 -113.790201 
L 129.248611 -114.767196 
L 132.803324 -114.609421 
L 136.358037 -113.493994 
L 139.91275 -83.909166 
L 143.467462 -114.768665 
L 147.022175 -113.027237 
L 150.576888 -116.335147 
L 154.131601 -89.031803 
L 157.686313 -92.453593 
L 161.241026 -78.601362 
L 164.795739 -77.618524 
L 168.350452 -111.748223 
L 171.905165 -110.666915 
L 175.459877 -76.762011 
L 179.01459 -70.550118 
L 182.569303 -53.676464 
L 186.124016 -69.71447 
L 189.678728 -51.921818 
L 193.233441 -56.990492 
L 196.788154 -55.078206 
L 200.342867 -73.092778 
L 203.897579 -55.511697 
L 207.452292 -63.145252 
L 211.007005 -66.465955 
L 214.561718 -80.051154 
L 218.116431 -72.497154 
L 221.671143 -89.465945 
L 225.225856 -98.287948 
L 228.780569 -111.013043 
L 232.335282 -112.861848 
L 235.889994 -113.867406 
L 239.444707 -114.449878 
L 242.99942 -115.206571 
L 246.554133 -115.715065 
L 250.108846 -116.47442 
L 253.663558 -117.041823 
L 257.218271 -117.163057 
L 260.772984 -117.10499 
L 264.327697 -116.818008 
L 267.882409 -116.489581 
L 271.437122 -116.327098 
L 274.991835 -116.335267 
L 278.546548 -116.21064 
L 282.10126 -116.08838 
L 285.655973 -115.400134 
L 289.210686 -115.257374 
L 292.765399 -114.74799 
L 296.320112 -114.318744 
L 299.874824 -114.281407 
L 303.429537 -114.473689 
L 306.98425 -118.237015 
L 310.538963 -109.88559 
L 314.093675 -111.037057 
L 317.648388 -113.678857 
L 321.203101 -116.298061 
L 324.757814 -111.749695 
L 328.312526 -100.526599 
L 331.867239 -108.359566 
L 335.421952 -113.920988 
L 338.976665 -113.103802 
L 342.531378 -105.759557 
L 346.08609 -111.607075 
L 349.640803 -107.794789 
L 353.195516 -102.504394 
L 356.750229 -109.069516 
L 360.304941 -106.534164 
L 363.859654 -95.682444 
L 367.414367 -85.375667 
L 370.96908 -82.984326 
L 374.523793 -78.844942 
L 378.078505 -88.910087 
L 381.633218 -91.258586 
L 385.187931 -96.614913 
L 388.742644 -100.073286 
L 392.297356 -107.581976 
L 395.852069 -105.783115 
L 399.406782 -106.137649 
L 402.961495 -108.569269 
L 406.516207 -109.724953 
L 410.07092 -111.830064 
L 413.625633 -113.87431 
L 417.180346 -115.571497 
L 420.735059 -116.465448 
L 424.289771 -116.805108 
L 427.844484 -117.114974 
L 431.399197 -117.161335 
L 434.95391 -117.073864 
L 438.508622 -116.76749 
L 442.063335 -116.905147 
L 445.618048 -116.623201 
L 449.172761 -116.462652 
L 452.727474 -116.177043 
L 456.282186 -115.378665 
L 459.836899 -115.512205 
L 463.391612 -115.205487 
L 466.946325 -114.518322 
L 470.501037 -115.410124 
L 474.05575 -116.056633 
L 477.610463 -115.081322 
L 481.165176 -114.984669 
L 484.719888 -114.962526 
L 488.274601 -115.829026 
L 491.829314 -115.376666 
L 495.384027 -100.327345 
L 498.93874 -82.229857 
L 502.493452 -80.980018 
L 506.048165 -81.82529 
L 509.602878 -96.850175 
L 513.157591 -85.774418 
L 516.712303 -74.615345 
L 520.267016 -92.651853 
L 523.821729 -87.605401 
L 527.376442 -70.134181 
L 530.931154 -77.953639 
L 534.485867 -85.665048 
L 538.04058 -73.502767 
L 541.595293 -67.842101 
L 545.150006 -65.920617 
L 548.704718 -94.641681 
L 552.259431 -106.620596 
L 555.814144 -89.973898 
L 559.368857 -91.80775 
L 562.923569 -84.664617 
L 566.478282 -103.871329 
L 570.032995 -103.99465 
L 573.587708 -106.563062 
L 577.142421 -111.069195 
L 580.697133 -110.87824 
L 584.251846 -112.20081 
L 587.806559 -113.763736 
L 591.361272 -115.202737 
L 594.915984 -116.409202 
L 598.470697 -116.976336 
L 602.02541 -117.151232 
L 605.580123 -117.071287 
L 609.134835 -116.770291 
L 612.689548 -116.274397 
L 616.244261 -115.706139 
L 619.798974 -114.829386 
L 623.353687 -114.622062 
L 626.908399 -115.156136 
L 630.463112 -115.570956 
L 634.017825 -114.973458 
L 637.572538 -114.806138 
L 641.12725 -112.155 
L 644.681963 -115.417964 
L 648.236676 -114.772903 
L 651.791389 -113.290492 
L 655.346102 -112.257912 
L 655.346102 -128.502399 
L 655.346102 -128.502399 
L 651.791389 -125.479341 
L 648.236676 -122.210952 
L 644.681963 -120.857204 
L 641.12725 -131.063484 
L 637.572538 -125.811935 
L 634.017825 -125.048626 
L 630.463112 -124.44804 
L 626.908399 -123.455706 
L 623.353687 -122.888654 
L 619.798974 -121.953309 
L 616.244261 -119.978897 
L 612.689548 -118.707527 
L 609.134835 -117.842205 
L 605.580123 -117.336211 
L 602.02541 -117.221244 
L 598.470697 -117.469257 
L 594.915984 -118.300286 
L 591.361272 -120.069009 
L 587.806559 -122.178638 
L 584.251846 -124.703371 
L 580.697133 -126.70436 
L 577.142421 -126.130168 
L 573.587708 -133.233028 
L 570.032995 -137.118921 
L 566.478282 -137.307573 
L 562.923569 -166.411017 
L 559.368857 -156.079458 
L 555.814144 -160.220412 
L 552.259431 -137.215577 
L 548.704718 -156.47284 
L 545.150006 -205.616004 
L 541.595293 -206.774743 
L 538.04058 -202.291875 
L 534.485867 -196.358722 
L 530.931154 -199.687338 
L 527.376442 -215.704569 
L 523.821729 -189.741091 
L 520.267016 -200.10579 
L 516.712303 -226.659036 
L 513.157591 -208.800055 
L 509.602878 -177.164744 
L 506.048165 -193.66654 
L 502.493452 -191.87824 
L 498.93874 -192.775124 
L 495.384027 -165.907935 
L 491.829314 -138.81093 
L 488.274601 -136.105108 
L 484.719888 -135.472826 
L 481.165176 -132.50197 
L 477.610463 -131.018605 
L 474.05575 -129.277393 
L 470.501037 -128.433642 
L 466.946325 -129.452381 
L 463.391612 -127.124024 
L 459.836899 -126.650116 
L 456.282186 -123.829277 
L 452.727474 -121.098618 
L 449.172761 -119.495896 
L 445.618048 -118.355376 
L 442.063335 -117.699574 
L 438.508622 -117.82539 
L 434.95391 -117.336278 
L 431.399197 -117.201528 
L 427.844484 -117.266008 
L 424.289771 -117.719874 
L 420.735059 -118.217828 
L 417.180346 -119.528392 
L 413.625633 -122.016531 
L 410.07092 -125.013473 
L 406.516207 -128.100261 
L 402.961495 -130.197728 
L 399.406782 -133.87666 
L 395.852069 -134.413556 
L 392.297356 -131.715515 
L 388.742644 -143.278731 
L 385.187931 -148.481323 
L 381.633218 -157.254937 
L 378.078505 -162.953145 
L 374.523793 -179.859976 
L 370.96908 -175.789385 
L 367.414367 -175.427832 
L 363.859654 -165.001338 
L 360.304941 -149.138795 
L 356.750229 -156.084042 
L 353.195516 -171.027101 
L 349.640803 -162.557334 
L 346.08609 -156.950583 
L 342.531378 -173.842273 
L 338.976665 -158.469199 
L 335.421952 -158.447968 
L 331.867239 -169.01025 
L 328.312526 -173.617131 
L 324.757814 -151.319148 
L 321.203101 -143.264297 
L 317.648388 -142.4254 
L 314.093675 -146.546598 
L 310.538963 -145.220679 
L 306.98425 -133.698295 
L 303.429537 -132.447333 
L 299.874824 -132.180172 
L 296.320112 -129.299348 
L 292.765399 -127.56569 
L 289.210686 -125.317072 
L 285.655973 -123.938442 
L 282.10126 -121.782255 
L 278.546548 -120.725436 
L 274.991835 -119.82458 
L 271.437122 -118.955868 
L 267.882409 -118.390852 
L 264.327697 -117.730577 
L 260.772984 -117.281102 
L 257.218271 -117.197377 
L 253.663558 -117.37284 
L 250.108846 -118.204675 
L 246.554133 -119.386462 
L 242.99942 -120.063388 
L 239.444707 -121.300633 
L 235.889994 -122.02835 
L 232.335282 -123.746526 
L 228.780569 -126.723443 
L 225.225856 -146.357719 
L 221.671143 -160.338363 
L 218.116431 -183.83162 
L 214.561718 -174.399747 
L 211.007005 -195.612759 
L 207.452292 -204.480135 
L 203.897579 -214.915954 
L 200.342867 -195.419656 
L 196.788154 -248.043689 
L 193.233441 -244.508581 
L 189.678728 -240.237635 
L 186.124016 -211.308523 
L 182.569303 -251.158182 
L 179.01459 -221.505163 
L 175.459877 -205.84316 
L 171.905165 -150.960625 
L 168.350452 -163.799123 
L 164.795739 -214.655428 
L 161.241026 -205.022104 
L 157.686313 -176.954429 
L 154.131601 -178.935366 
L 150.576888 -140.609006 
L 147.022175 -140.908275 
L 143.467462 -136.40525 
L 139.91275 -186.025289 
L 136.358037 -138.907928 
L 132.803324 -134.164299 
L 129.248611 -132.824759 
L 125.693898 -131.094113 
L 122.139186 -128.017564 
L 118.584473 -126.887603 
L 115.02976 -125.035626 
L 111.475047 -123.146018 
L 107.920335 -121.423964 
L 104.365622 -120.665262 
L 100.810909 -120.028465 
z
" style="stroke: #808080; stroke-opacity: 0.2"/>
    </defs>
    <g clip-path="url(#pe01491f608)">
     <use xlink:href="#m01ba74693d" x="0" y="288" style="fill: #808080; fill-opacity: 0.2; stroke: #808080; stroke-opacity: 0.2"/>
    </g>
   </g>
   <g id="matplotlib.axis_1">
    <g id="xtick_1">
     <g id="line2d_1">
      <defs>
       <path id="m1b4373631f" d="M 0 0 
L 0 3.5 
" style="stroke: #000000; stroke-width: 0.8"/>
      </defs>
      <g>
       <use xlink:href="#m1b4373631f" x="136.358037" y="246.04" style="stroke: #000000; stroke-width: 0.8"/>
      </g>
     </g>
     <g id="text_1">
      <!-- 06-02 12 -->
      <g transform="translate(113.877568 260.638438) scale(0.1 -0.1)">
       <defs>
        <path id="DejaVuSans-30" d="M 2034 4250 
Q 1547 4250 1301 3770 
Q 1056 3291 1056 2328 
Q 1056 1369 1301 889 
Q 1547 409 2034 409 
Q 2525 409 2770 889 
Q 3016 1369 3016 2328 
Q 3016 3291 2770 3770 
Q 2525 4250 2034 4250 
z
M 2034 4750 
Q 2819 4750 3233 4129 
Q 3647 3509 3647 2328 
Q 3647 1150 3233 529 
Q 2819 -91 2034 -91 
Q 1250 -91 836 529 
Q 422 1150 422 2328 
Q 422 3509 836 4129 
Q 1250 4750 2034 4750 
z
" transform="scale(0.015625)"/>
        <path id="DejaVuSans-36" d="M 2113 2584 
Q 1688 2584 1439 2293 
Q 1191 2003 1191 1497 
Q 1191 994 1439 701 
Q 1688 409 2113 409 
Q 2538 409 2786 701 
Q 3034 994 3034 1497 
Q 3034 2003 2786 2293 
Q 2538 2584 2113 2584 
z
M 3366 4563 
L 3366 3988 
Q 3128 4100 2886 4159 
Q 2644 4219 2406 4219 
Q 1781 4219 1451 3797 
Q 1122 3375 1075 2522 
Q 1259 2794 1537 2939 
Q 1816 3084 2150 3084 
Q 2853 3084 3261 2657 
Q 3669 2231 3669 1497 
Q 3669 778 3244 343 
Q 2819 -91 2113 -91 
Q 1303 -91 875 529 
Q 447 1150 447 2328 
Q 447 3434 972 4092 
Q 1497 4750 2381 4750 
Q 2619 4750 2861 4703 
Q 3103 4656 3366 4563 
z
" transform="scale(0.015625)"/>
        <path id="DejaVuSans-2d" d="M 313 2009 
L 1997 2009 
L 1997 1497 
L 313 1497 
L 313 2009 
z
" transform="scale(0.015625)"/>
        <path id="DejaVuSans-32" d="M 1228 531 
L 3431 531 
L 3431 0 
L 469 0 
L 469 531 
Q 828 903 1448 1529 
Q 2069 2156 2228 2338 
Q 2531 2678 2651 2914 
Q 2772 3150 2772 3378 
Q 2772 3750 2511 3984 
Q 2250 4219 1831 4219 
Q 1534 4219 1204 4116 
Q 875 4013 500 3803 
L 500 4441 
Q 881 4594 1212 4672 
Q 1544 4750 1819 4750 
Q 2544 4750 2975 4387 
Q 3406 4025 3406 3419 
Q 3406 3131 3298 2873 
Q 3191 2616 2906 2266 
Q 2828 2175 2409 1742 
Q 1991 1309 1228 531 
z
" transform="scale(0.015625)"/>
        <path id="DejaVuSans-20" transform="scale(0.015625)"/>
        <path id="DejaVuSans-31" d="M 794 531 
L 1825 531 
L 1825 4091 
L 703 3866 
L 703 4441 
L 1819 4666 
L 2450 4666 
L 2450 531 
L 3481 531 
L 3481 0 
L 794 0 
L 794 531 
z
" transform="scale(0.015625)"/>
       </defs>
       <use xlink:href="#DejaVuSans-30"/>
       <use xlink:href="#DejaVuSans-36" transform="translate(63.623047 0)"/>
       <use xlink:href="#DejaVuSans-2d" transform="translate(127.246094 0)"/>
       <use xlink:href="#DejaVuSans-30" transform="translate(163.330078 0)"/>
       <use xlink:href="#DejaVuSans-32" transform="translate(226.953125 0)"/>
       <use xlink:href="#DejaVuSans-20" transform="translate(290.576172 0)"/>
       <use xlink:href="#DejaVuSans-31" transform="translate(322.363281 0)"/>
       <use xlink:href="#DejaVuSans-32" transform="translate(385.986328 0)"/>
      </g>
     </g>
    </g>
    <g id="xtick_2">
     <g id="line2d_2">
      <g>
       <use xlink:href="#m1b4373631f" x="221.671143" y="246.04" style="stroke: #000000; stroke-width: 0.8"/>
      </g>
     </g>
     <g id="text_2">
      <!-- 06-03 00 -->
      <g transform="translate(199.190675 260.638438) scale(0.1 -0.1)">
       <defs>
        <path id="DejaVuSans-33" d="M 2597 2516 
Q 3050 2419 3304 2112 
Q 3559 1806 3559 1356 
Q 3559 666 3084 287 
Q 2609 -91 1734 -91 
Q 1441 -91 1130 -33 
Q 819 25 488 141 
L 488 750 
Q 750 597 1062 519 
Q 1375 441 1716 441 
Q 2309 441 2620 675 
Q 2931 909 2931 1356 
Q 2931 1769 2642 2001 
Q 2353 2234 1838 2234 
L 1294 2234 
L 1294 2753 
L 1863 2753 
Q 2328 2753 2575 2939 
Q 2822 3125 2822 3475 
Q 2822 3834 2567 4026 
Q 2313 4219 1838 4219 
Q 1578 4219 1281 4162 
Q 984 4106 628 3988 
L 628 4550 
Q 988 4650 1302 4700 
Q 1616 4750 1894 4750 
Q 2613 4750 3031 4423 
Q 3450 4097 3450 3541 
Q 3450 3153 3228 2886 
Q 3006 2619 2597 2516 
z
" transform="scale(0.015625)"/>
       </defs>
       <use xlink:href="#DejaVuSans-30"/>
       <use xlink:href="#DejaVuSans-36" transform="translate(63.623047 0)"/>
       <use xlink:href="#DejaVuSans-2d" transform="translate(127.246094 0)"/>
       <use xlink:href="#DejaVuSans-30" transform="translate(163.330078 0)"/>
       <use xlink:href="#DejaVuSans-33" transform="translate(226.953125 0)"/>
       <use xlink:href="#DejaVuSans-20" transform="translate(290.576172 0)"/>
       <use xlink:href="#DejaVuSans-30" transform="translate(322.363281 0)"/>
       <use xlink:href="#DejaVuSans-30" transform="translate(385.986328 0)"/>
      </g>
     </g>
    </g>
    <g id="xtick_3">
     <g id="line2d_3">
      <g>
       <use xlink:href="#m1b4373631f" x="306.98425" y="246.04" style="stroke: #000000; stroke-width: 0.8"/>
      </g>
     </g>
     <g id="text_3">
      <!-- 06-03 12 -->
      <g transform="translate(284.503781 260.638438) scale(0.1 -0.1)">
       <use xlink:href="#DejaVuSans-30"/>
       <use xlink:href="#DejaVuSans-36" transform="translate(63.623047 0)"/>
       <use xlink:href="#DejaVuSans-2d" transform="translate(127.246094 0)"/>
       <use xlink:href="#DejaVuSans-30" transform="translate(163.330078 0)"/>
       <use xlink:href="#DejaVuSans-33" transform="translate(226.953125 0)"/>
       <use xlink:href="#DejaVuSans-20" transform="translate(290.576172 0)"/>
       <use xlink:href="#DejaVuSans-31" transform="translate(322.363281 0)"/>
       <use xlink:href="#DejaVuSans-32" transform="translate(385.986328 0)"/>
      </g>
     </g>
    </g>
    <g id="xtick_4">
     <g id="line2d_4">
      <g>
       <use xlink:href="#m1b4373631f" x="392.297356" y="246.04" style="stroke: #000000; stroke-width: 0.8"/>
      </g>
     </g>
     <g id="text_4">
      <!-- 06-04 00 -->
      <g transform="translate(369.816888 260.638438) scale(0.1 -0.1)">
       <defs>
        <path id="DejaVuSans-34" d="M 2419 4116 
L 825 1625 
L 2419 1625 
L 2419 4116 
z
M 2253 4666 
L 3047 4666 
L 3047 1625 
L 3713 1625 
L 3713 1100 
L 3047 1100 
L 3047 0 
L 2419 0 
L 2419 1100 
L 313 1100 
L 313 1709 
L 2253 4666 
z
" transform="scale(0.015625)"/>
       </defs>
       <use xlink:href="#DejaVuSans-30"/>
       <use xlink:href="#DejaVuSans-36" transform="translate(63.623047 0)"/>
       <use xlink:href="#DejaVuSans-2d" transform="translate(127.246094 0)"/>
       <use xlink:href="#DejaVuSans-30" transform="translate(163.330078 0)"/>
       <use xlink:href="#DejaVuSans-34" transform="translate(226.953125 0)"/>
       <use xlink:href="#DejaVuSans-20" transform="translate(290.576172 0)"/>
       <use xlink:href="#DejaVuSans-30" transform="translate(322.363281 0)"/>
       <use xlink:href="#DejaVuSans-30" transform="translate(385.986328 0)"/>
      </g>
     </g>
    </g>
    <g id="xtick_5">
     <g id="line2d_5">
      <g>
       <use xlink:href="#m1b4373631f" x="477.610463" y="246.04" style="stroke: #000000; stroke-width: 0.8"/>
      </g>
     </g>
     <g id="text_5">
      <!-- 06-04 12 -->
      <g transform="translate(455.129994 260.638438) scale(0.1 -0.1)">
       <use xlink:href="#DejaVuSans-30"/>
       <use xlink:href="#DejaVuSans-36" transform="translate(63.623047 0)"/>
       <use xlink:href="#DejaVuSans-2d" transform="translate(127.246094 0)"/>
       <use xlink:href="#DejaVuSans-30" transform="translate(163.330078 0)"/>
       <use xlink:href="#DejaVuSans-34" transform="translate(226.953125 0)"/>
       <use xlink:href="#DejaVuSans-20" transform="translate(290.576172 0)"/>
       <use xlink:href="#DejaVuSans-31" transform="translate(322.363281 0)"/>
       <use xlink:href="#DejaVuSans-32" transform="translate(385.986328 0)"/>
      </g>
     </g>
    </g>
    <g id="xtick_6">
     <g id="line2d_6">
      <g>
       <use xlink:href="#m1b4373631f" x="562.923569" y="246.04" style="stroke: #000000; stroke-width: 0.8"/>
      </g>
     </g>
     <g id="text_6">
      <!-- 06-05 00 -->
      <g transform="translate(540.443101 260.638438) scale(0.1 -0.1)">
       <defs>
        <path id="DejaVuSans-35" d="M 691 4666 
L 3169 4666 
L 3169 4134 
L 1269 4134 
L 1269 2991 
Q 1406 3038 1543 3061 
Q 1681 3084 1819 3084 
Q 2600 3084 3056 2656 
Q 3513 2228 3513 1497 
Q 3513 744 3044 326 
Q 2575 -91 1722 -91 
Q 1428 -91 1123 -41 
Q 819 9 494 109 
L 494 744 
Q 775 591 1075 516 
Q 1375 441 1709 441 
Q 2250 441 2565 725 
Q 2881 1009 2881 1497 
Q 2881 1984 2565 2268 
Q 2250 2553 1709 2553 
Q 1456 2553 1204 2497 
Q 953 2441 691 2322 
L 691 4666 
z
" transform="scale(0.015625)"/>
       </defs>
       <use xlink:href="#DejaVuSans-30"/>
       <use xlink:href="#DejaVuSans-36" transform="translate(63.623047 0)"/>
       <use xlink:href="#DejaVuSans-2d" transform="translate(127.246094 0)"/>
       <use xlink:href="#DejaVuSans-30" transform="translate(163.330078 0)"/>
       <use xlink:href="#DejaVuSans-35" transform="translate(226.953125 0)"/>
       <use xlink:href="#DejaVuSans-20" transform="translate(290.576172 0)"/>
       <use xlink:href="#DejaVuSans-30" transform="translate(322.363281 0)"/>
       <use xlink:href="#DejaVuSans-30" transform="translate(385.986328 0)"/>
      </g>
     </g>
    </g>
    <g id="xtick_7">
     <g id="line2d_7">
      <g>
       <use xlink:href="#m1b4373631f" x="648.236676" y="246.04" style="stroke: #000000; stroke-width: 0.8"/>
      </g>
     </g>
     <g id="text_7">
      <!-- 06-05 12 -->
      <g transform="translate(625.756207 260.638438) scale(0.1 -0.1)">
       <use xlink:href="#DejaVuSans-30"/>
       <use xlink:href="#DejaVuSans-36" transform="translate(63.623047 0)"/>
       <use xlink:href="#DejaVuSans-2d" transform="translate(127.246094 0)"/>
       <use xlink:href="#DejaVuSans-30" transform="translate(163.330078 0)"/>
       <use xlink:href="#DejaVuSans-35" transform="translate(226.953125 0)"/>
       <use xlink:href="#DejaVuSans-20" transform="translate(290.576172 0)"/>
       <use xlink:href="#DejaVuSans-31" transform="translate(322.363281 0)"/>
       <use xlink:href="#DejaVuSans-32" transform="translate(385.986328 0)"/>
      </g>
     </g>
    </g>
    <g id="text_8">
     <!-- Tijd -->
     <g transform="translate(381.67 274.316562) scale(0.1 -0.1)">
      <defs>
       <path id="DejaVuSans-54" d="M -19 4666 
L 3928 4666 
L 3928 4134 
L 2272 4134 
L 2272 0 
L 1638 0 
L 1638 4134 
L -19 4134 
L -19 4666 
z
" transform="scale(0.015625)"/>
       <path id="DejaVuSans-69" d="M 603 3500 
L 1178 3500 
L 1178 0 
L 603 0 
L 603 3500 
z
M 603 4863 
L 1178 4863 
L 1178 4134 
L 603 4134 
L 603 4863 
z
" transform="scale(0.015625)"/>
       <path id="DejaVuSans-6a" d="M 603 3500 
L 1178 3500 
L 1178 -63 
Q 1178 -731 923 -1031 
Q 669 -1331 103 -1331 
L -116 -1331 
L -116 -844 
L 38 -844 
Q 366 -844 484 -692 
Q 603 -541 603 -63 
L 603 3500 
z
M 603 4863 
L 1178 4863 
L 1178 4134 
L 603 4134 
L 603 4863 
z
" transform="scale(0.015625)"/>
       <path id="DejaVuSans-64" d="M 2906 2969 
L 2906 4863 
L 3481 4863 
L 3481 0 
L 2906 0 
L 2906 525 
Q 2725 213 2448 61 
Q 2172 -91 1784 -91 
Q 1150 -91 751 415 
Q 353 922 353 1747 
Q 353 2572 751 3078 
Q 1150 3584 1784 3584 
Q 2172 3584 2448 3432 
Q 2725 3281 2906 2969 
z
M 947 1747 
Q 947 1113 1208 752 
Q 1469 391 1925 391 
Q 2381 391 2643 752 
Q 2906 1113 2906 1747 
Q 2906 2381 2643 2742 
Q 2381 3103 1925 3103 
Q 1469 3103 1208 2742 
Q 947 2381 947 1747 
z
" transform="scale(0.015625)"/>
      </defs>
      <use xlink:href="#DejaVuSans-54"/>
      <use xlink:href="#DejaVuSans-69" transform="translate(57.958984 0)"/>
      <use xlink:href="#DejaVuSans-6a" transform="translate(85.742188 0)"/>
      <use xlink:href="#DejaVuSans-64" transform="translate(113.525391 0)"/>
     </g>
    </g>
   </g>
   <g id="matplotlib.axis_2">
    <g id="ytick_1">
     <g id="line2d_8">
      <defs>
       <path id="m4540704439" d="M 0 0 
L -3.5 0 
" style="stroke: #000000; stroke-width: 0.8"/>
      </defs>
      <g>
       <use xlink:href="#m4540704439" x="71.84" y="245.870251" style="stroke: #000000; stroke-width: 0.8"/>
      </g>
     </g>
     <g id="text_9">
      <!-- −20000 -->
      <g transform="translate(24.647813 249.66947) scale(0.1 -0.1)">
       <defs>
        <path id="DejaVuSans-2212" d="M 678 2272 
L 4684 2272 
L 4684 1741 
L 678 1741 
L 678 2272 
z
" transform="scale(0.015625)"/>
       </defs>
       <use xlink:href="#DejaVuSans-2212"/>
       <use xlink:href="#DejaVuSans-32" transform="translate(83.789062 0)"/>
       <use xlink:href="#DejaVuSans-30" transform="translate(147.412109 0)"/>
       <use xlink:href="#DejaVuSans-30" transform="translate(211.035156 0)"/>
       <use xlink:href="#DejaVuSans-30" transform="translate(274.658203 0)"/>
       <use xlink:href="#DejaVuSans-30" transform="translate(338.28125 0)"/>
      </g>
     </g>
    </g>
    <g id="ytick_2">
     <g id="line2d_9">
      <g>
       <use xlink:href="#m4540704439" x="71.84" y="208.347099" style="stroke: #000000; stroke-width: 0.8"/>
      </g>
     </g>
     <g id="text_10">
      <!-- −10000 -->
      <g transform="translate(24.647813 212.146318) scale(0.1 -0.1)">
       <use xlink:href="#DejaVuSans-2212"/>
       <use xlink:href="#DejaVuSans-31" transform="translate(83.789062 0)"/>
       <use xlink:href="#DejaVuSans-30" transform="translate(147.412109 0)"/>
       <use xlink:href="#DejaVuSans-30" transform="translate(211.035156 0)"/>
       <use xlink:href="#DejaVuSans-30" transform="translate(274.658203 0)"/>
       <use xlink:href="#DejaVuSans-30" transform="translate(338.28125 0)"/>
      </g>
     </g>
    </g>
    <g id="ytick_3">
     <g id="line2d_10">
      <g>
       <use xlink:href="#m4540704439" x="71.84" y="170.823947" style="stroke: #000000; stroke-width: 0.8"/>
      </g>
     </g>
     <g id="text_11">
      <!-- 0 -->
      <g transform="translate(58.4775 174.623165) scale(0.1 -0.1)">
       <use xlink:href="#DejaVuSans-30"/>
      </g>
     </g>
    </g>
    <g id="ytick_4">
     <g id="line2d_11">
      <g>
       <use xlink:href="#m4540704439" x="71.84" y="133.300794" style="stroke: #000000; stroke-width: 0.8"/>
      </g>
     </g>
     <g id="text_12">
      <!-- 10000 -->
      <g transform="translate(33.0275 137.100013) scale(0.1 -0.1)">
       <use xlink:href="#DejaVuSans-31"/>
       <use xlink:href="#DejaVuSans-30" transform="translate(63.623047 0)"/>
       <use xlink:href="#DejaVuSans-30" transform="translate(127.246094 0)"/>
       <use xlink:href="#DejaVuSans-30" transform="translate(190.869141 0)"/>
       <use xlink:href="#DejaVuSans-30" transform="translate(254.492188 0)"/>
      </g>
     </g>
    </g>
    <g id="ytick_5">
     <g id="line2d_12">
      <g>
       <use xlink:href="#m4540704439" x="71.84" y="95.777642" style="stroke: #000000; stroke-width: 0.8"/>
      </g>
     </g>
     <g id="text_13">
      <!-- 20000 -->
      <g transform="translate(33.0275 99.576861) scale(0.1 -0.1)">
       <use xlink:href="#DejaVuSans-32"/>
       <use xlink:href="#DejaVuSans-30" transform="translate(63.623047 0)"/>
       <use xlink:href="#DejaVuSans-30" transform="translate(127.246094 0)"/>
       <use xlink:href="#DejaVuSans-30" transform="translate(190.869141 0)"/>
       <use xlink:href="#DejaVuSans-30" transform="translate(254.492188 0)"/>
      </g>
     </g>
    </g>
    <g id="ytick_6">
     <g id="line2d_13">
      <g>
       <use xlink:href="#m4540704439" x="71.84" y="58.25449" style="stroke: #000000; stroke-width: 0.8"/>
      </g>
     </g>
     <g id="text_14">
      <!-- 30000 -->
      <g transform="translate(33.0275 62.053709) scale(0.1 -0.1)">
       <use xlink:href="#DejaVuSans-33"/>
       <use xlink:href="#DejaVuSans-30" transform="translate(63.623047 0)"/>
       <use xlink:href="#DejaVuSans-30" transform="translate(127.246094 0)"/>
       <use xlink:href="#DejaVuSans-30" transform="translate(190.869141 0)"/>
       <use xlink:href="#DejaVuSans-30" transform="translate(254.492188 0)"/>
      </g>
     </g>
    </g>
    <g id="text_15">
     <!-- Lichtintensiteit -->
     <g transform="translate(18.568125 173.656094) rotate(-90) scale(0.1 -0.1)">
      <defs>
       <path id="DejaVuSans-4c" d="M 628 4666 
L 1259 4666 
L 1259 531 
L 3531 531 
L 3531 0 
L 628 0 
L 628 4666 
z
" transform="scale(0.015625)"/>
       <path id="DejaVuSans-63" d="M 3122 3366 
L 3122 2828 
Q 2878 2963 2633 3030 
Q 2388 3097 2138 3097 
Q 1578 3097 1268 2742 
Q 959 2388 959 1747 
Q 959 1106 1268 751 
Q 1578 397 2138 397 
Q 2388 397 2633 464 
Q 2878 531 3122 666 
L 3122 134 
Q 2881 22 2623 -34 
Q 2366 -91 2075 -91 
Q 1284 -91 818 406 
Q 353 903 353 1747 
Q 353 2603 823 3093 
Q 1294 3584 2113 3584 
Q 2378 3584 2631 3529 
Q 2884 3475 3122 3366 
z
" transform="scale(0.015625)"/>
       <path id="DejaVuSans-68" d="M 3513 2113 
L 3513 0 
L 2938 0 
L 2938 2094 
Q 2938 2591 2744 2837 
Q 2550 3084 2163 3084 
Q 1697 3084 1428 2787 
Q 1159 2491 1159 1978 
L 1159 0 
L 581 0 
L 581 4863 
L 1159 4863 
L 1159 2956 
Q 1366 3272 1645 3428 
Q 1925 3584 2291 3584 
Q 2894 3584 3203 3211 
Q 3513 2838 3513 2113 
z
" transform="scale(0.015625)"/>
       <path id="DejaVuSans-74" d="M 1172 4494 
L 1172 3500 
L 2356 3500 
L 2356 3053 
L 1172 3053 
L 1172 1153 
Q 1172 725 1289 603 
Q 1406 481 1766 481 
L 2356 481 
L 2356 0 
L 1766 0 
Q 1100 0 847 248 
Q 594 497 594 1153 
L 594 3053 
L 172 3053 
L 172 3500 
L 594 3500 
L 594 4494 
L 1172 4494 
z
" transform="scale(0.015625)"/>
       <path id="DejaVuSans-6e" d="M 3513 2113 
L 3513 0 
L 2938 0 
L 2938 2094 
Q 2938 2591 2744 2837 
Q 2550 3084 2163 3084 
Q 1697 3084 1428 2787 
Q 1159 2491 1159 1978 
L 1159 0 
L 581 0 
L 581 3500 
L 1159 3500 
L 1159 2956 
Q 1366 3272 1645 3428 
Q 1925 3584 2291 3584 
Q 2894 3584 3203 3211 
Q 3513 2838 3513 2113 
z
" transform="scale(0.015625)"/>
       <path id="DejaVuSans-65" d="M 3597 1894 
L 3597 1613 
L 953 1613 
Q 991 1019 1311 708 
Q 1631 397 2203 397 
Q 2534 397 2845 478 
Q 3156 559 3463 722 
L 3463 178 
Q 3153 47 2828 -22 
Q 2503 -91 2169 -91 
Q 1331 -91 842 396 
Q 353 884 353 1716 
Q 353 2575 817 3079 
Q 1281 3584 2069 3584 
Q 2775 3584 3186 3129 
Q 3597 2675 3597 1894 
z
M 3022 2063 
Q 3016 2534 2758 2815 
Q 2500 3097 2075 3097 
Q 1594 3097 1305 2825 
Q 1016 2553 972 2059 
L 3022 2063 
z
" transform="scale(0.015625)"/>
       <path id="DejaVuSans-73" d="M 2834 3397 
L 2834 2853 
Q 2591 2978 2328 3040 
Q 2066 3103 1784 3103 
Q 1356 3103 1142 2972 
Q 928 2841 928 2578 
Q 928 2378 1081 2264 
Q 1234 2150 1697 2047 
L 1894 2003 
Q 2506 1872 2764 1633 
Q 3022 1394 3022 966 
Q 3022 478 2636 193 
Q 2250 -91 1575 -91 
Q 1294 -91 989 -36 
Q 684 19 347 128 
L 347 722 
Q 666 556 975 473 
Q 1284 391 1588 391 
Q 1994 391 2212 530 
Q 2431 669 2431 922 
Q 2431 1156 2273 1281 
Q 2116 1406 1581 1522 
L 1381 1569 
Q 847 1681 609 1914 
Q 372 2147 372 2553 
Q 372 3047 722 3315 
Q 1072 3584 1716 3584 
Q 2034 3584 2315 3537 
Q 2597 3491 2834 3397 
z
" transform="scale(0.015625)"/>
      </defs>
      <use xlink:href="#DejaVuSans-4c"/>
      <use xlink:href="#DejaVuSans-69" transform="translate(55.712891 0)"/>
      <use xlink:href="#DejaVuSans-63" transform="translate(83.496094 0)"/>
      <use xlink:href="#DejaVuSans-68" transform="translate(138.476562 0)"/>
      <use xlink:href="#DejaVuSans-74" transform="translate(201.855469 0)"/>
      <use xlink:href="#DejaVuSans-69" transform="translate(241.064453 0)"/>
      <use xlink:href="#DejaVuSans-6e" transform="translate(268.847656 0)"/>
      <use xlink:href="#DejaVuSans-74" transform="translate(332.226562 0)"/>
      <use xlink:href="#DejaVuSans-65" transform="translate(371.435547 0)"/>
      <use xlink:href="#DejaVuSans-6e" transform="translate(432.958984 0)"/>
      <use xlink:href="#DejaVuSans-73" transform="translate(496.337891 0)"/>
      <use xlink:href="#DejaVuSans-69" transform="translate(548.4375 0)"/>
      <use xlink:href="#DejaVuSans-74" transform="translate(576.220703 0)"/>
      <use xlink:href="#DejaVuSans-65" transform="translate(615.429688 0)"/>
      <use xlink:href="#DejaVuSans-69" transform="translate(676.953125 0)"/>
      <use xlink:href="#DejaVuSans-74" transform="translate(704.736328 0)"/>
     </g>
    </g>
   </g>
   <g id="line2d_14">
    <path d="M 100.810909 167.79095 
L 107.920335 166.731922 
L 111.475047 165.217362 
L 115.02976 163.40687 
L 118.584473 162.114323 
L 122.139186 159.943233 
L 125.693898 158.978138 
L 129.248611 159.042677 
L 132.803324 161.211891 
L 136.358037 160.057929 
L 139.91275 161.308701 
L 143.467462 163.326571 
L 147.022175 162.385365 
L 150.576888 151.573569 
L 154.131601 164.398107 
L 157.686313 164.82437 
L 161.241026 156.39642 
L 164.795739 147.62013 
L 168.350452 138.191187 
L 171.905165 164.48466 
L 175.459877 162.753342 
L 179.01459 164.402234 
L 182.569303 165.518673 
L 186.124016 167.093645 
L 189.678728 167.519783 
L 193.233441 167.719031 
L 196.788154 167.603084 
L 200.342867 169.184435 
L 203.897579 170.022452 
L 207.452292 170.656093 
L 211.007005 170.813565 
L 250.108846 170.823947 
L 257.218271 170.817693 
L 260.772984 170.707125 
L 264.327697 170.211194 
L 267.882409 169.541906 
L 274.991835 168.49551 
L 278.546548 167.633478 
L 282.10126 166.89865 
L 285.655973 164.732688 
L 289.210686 163.578851 
L 292.765399 161.30032 
L 296.320112 159.618032 
L 303.429537 157.640938 
L 306.98425 160.365369 
L 310.538963 160.91796 
L 314.093675 161.120084 
L 317.648388 158.596089 
L 321.203101 154.539899 
L 324.757814 158.468323 
L 328.312526 157.836808 
L 331.867239 157.832681 
L 335.421952 155.264346 
L 338.976665 157.143568 
L 342.531378 162.017826 
L 346.08609 162.915942 
L 349.640803 162.177987 
L 353.195516 163.488045 
L 356.750229 163.969717 
L 360.304941 165.810353 
L 363.859654 166.697526 
L 367.414367 168.425717 
L 370.96908 169.850346 
L 374.523793 170.507126 
L 378.078505 170.742646 
L 385.187931 170.823947 
L 431.399197 170.798931 
L 434.95391 170.661346 
L 438.508622 170.166291 
L 442.063335 170.35178 
L 445.618048 170.3434 
L 449.172761 169.431337 
L 452.727474 168.084757 
L 456.282186 164.893287 
L 459.836899 162.277048 
L 463.391612 163.161344 
L 466.946325 159.948361 
L 470.501037 165.942935 
L 474.05575 162.167606 
L 477.610463 165.897532 
L 481.165176 165.210108 
L 484.719888 162.237524 
L 488.274601 161.375492 
L 491.829314 151.391206 
L 495.384027 159.145991 
L 498.93874 161.15348 
L 502.493452 162.510567 
L 506.048165 160.777123 
L 509.602878 157.724239 
L 513.157591 160.055803 
L 520.267016 162.909563 
L 523.821729 163.258341 
L 530.931154 164.930685 
L 534.485867 165.015112 
L 538.04058 166.939175 
L 541.595293 168.25261 
L 545.150006 169.919263 
L 548.704718 170.574918 
L 552.259431 170.793803 
L 566.478282 170.823947 
L 602.02541 170.791677 
L 605.580123 170.646712 
L 609.134835 170.153783 
L 612.689548 169.186436 
L 616.244261 167.882507 
L 619.798974 165.759322 
L 623.353687 164.84851 
L 626.908399 164.758704 
L 630.463112 165.042379 
L 630.463112 165.042379 
" clip-path="url(#pe01491f608)" style="fill: none; stroke: #1f77b4; stroke-width: 2; stroke-linecap: square"/>
   </g>
   <g id="line2d_15">
    <path d="M 100.810909 170.126659 
L 104.365622 169.851615 
L 107.920335 169.435143 
L 115.02976 168.110746 
L 118.584473 167.225298 
L 122.139186 167.119429 
L 125.693898 165.557843 
L 129.248611 164.204023 
L 132.803324 163.61314 
L 136.358037 161.799039 
L 139.91275 153.032773 
L 143.467462 162.413043 
L 147.022175 161.032244 
L 150.576888 159.527923 
L 154.131601 154.016415 
L 157.686313 153.295989 
L 161.241026 146.188267 
L 164.795739 141.863024 
L 168.350452 150.226327 
L 171.905165 157.18623 
L 175.459877 146.697414 
L 179.01459 141.972359 
L 182.569303 135.582677 
L 186.124016 147.488504 
L 189.678728 141.920273 
L 193.233441 137.250464 
L 196.788154 136.439052 
L 200.342867 153.743783 
L 203.897579 152.786174 
L 207.452292 154.187307 
L 211.007005 156.960643 
L 214.561718 160.77455 
L 218.116431 159.835613 
L 221.671143 163.097846 
L 225.225856 165.677167 
L 228.780569 169.131757 
L 232.335282 169.695813 
L 235.889994 170.052122 
L 239.444707 170.124744 
L 242.99942 170.365021 
L 246.554133 170.449236 
L 253.663558 170.792668 
L 260.772984 170.806954 
L 267.882409 170.559784 
L 271.437122 170.358517 
L 282.10126 169.064683 
L 285.655973 168.330712 
L 289.210686 167.712777 
L 292.765399 166.84316 
L 296.320112 166.190954 
L 299.874824 164.769211 
L 303.429537 164.539489 
L 306.98425 162.032345 
L 310.538963 160.446865 
L 314.093675 159.208172 
L 317.648388 159.947871 
L 324.757814 156.465578 
L 328.312526 150.928135 
L 331.867239 149.315092 
L 335.421952 151.815522 
L 338.976665 152.213499 
L 342.531378 148.199085 
L 346.08609 153.721171 
L 349.640803 152.823939 
L 353.195516 151.234252 
L 356.750229 155.423221 
L 360.304941 160.163521 
L 363.859654 157.658109 
L 367.414367 157.59825 
L 370.96908 158.613145 
L 374.523793 158.647541 
L 378.078505 162.068384 
L 385.187931 165.451882 
L 388.742644 166.323992 
L 392.297356 168.351254 
L 395.852069 167.901664 
L 399.406782 167.992846 
L 402.961495 168.616501 
L 417.180346 170.450055 
L 420.735059 170.658362 
L 431.399197 170.818568 
L 442.063335 170.69764 
L 445.618048 170.510712 
L 449.172761 170.020726 
L 452.727474 169.36217 
L 456.282186 168.396029 
L 459.836899 166.918839 
L 463.391612 166.835244 
L 466.946325 166.014649 
L 470.501037 166.078117 
L 474.05575 165.332987 
L 477.610463 164.950037 
L 481.165176 164.25668 
L 484.719888 162.782324 
L 488.274601 162.032933 
L 491.829314 160.906202 
L 495.384027 154.88236 
L 498.93874 150.497509 
L 502.493452 151.570871 
L 506.048165 150.254085 
L 509.602878 150.992541 
L 513.157591 140.712763 
L 516.712303 137.36281 
L 520.267016 141.621178 
L 523.821729 149.326754 
L 527.376442 145.080625 
L 530.931154 149.179511 
L 534.485867 146.988115 
L 538.04058 150.102679 
L 541.595293 150.691578 
L 545.150006 152.231689 
L 548.704718 162.44274 
L 552.259431 166.081914 
L 555.814144 162.902845 
L 559.368857 164.056396 
L 562.923569 162.462183 
L 566.478282 167.410549 
L 570.032995 167.443215 
L 573.587708 168.101955 
L 577.142421 169.400318 
L 580.697133 169.2087 
L 584.251846 169.547909 
L 587.806559 170.028813 
L 594.915984 170.645256 
L 602.02541 170.813762 
L 609.134835 170.693752 
L 612.689548 170.509038 
L 616.244261 170.157482 
L 619.798974 169.608652 
L 623.353687 169.244642 
L 626.908399 168.694079 
L 630.463112 167.990502 
L 634.017825 167.988958 
L 637.572538 167.690964 
L 641.12725 166.390758 
L 644.681963 169.862416 
L 648.236676 169.508072 
L 655.346102 167.619845 
L 658.900814 169.437279 
L 662.455527 168.625715 
L 666.01024 166.274264 
L 669.564953 163.740451 
L 676.674378 161.343222 
L 680.229091 160.942975 
L 680.229091 160.942975 
" clip-path="url(#pe01491f608)" style="fill: none; stroke-dasharray: 5.55,2.4; stroke-dashoffset: 0; stroke: #808080; stroke-width: 1.5"/>
   </g>
   <g id="patch_3">
    <path d="M 71.84 246.04 
L 71.84 26.88 
" style="fill: none; stroke: #000000; stroke-width: 0.8; stroke-linejoin: miter; stroke-linecap: square"/>
   </g>
   <g id="patch_4">
    <path d="M 709.2 246.04 
L 709.2 26.88 
" style="fill: none; stroke: #000000; stroke-width: 0.8; stroke-linejoin: miter; stroke-linecap: square"/>
   </g>
   <g id="patch_5">
    <path d="M 71.84 246.04 
L 709.2 246.04 
" style="fill: none; stroke: #000000; stroke-width: 0.8; stroke-linejoin: miter; stroke-linecap: square"/>
   </g>
   <g id="patch_6">
    <path d="M 71.84 26.88 
L 709.2 26.88 
" style="fill: none; stroke: #000000; stroke-width: 0.8; stroke-linejoin: miter; stroke-linecap: square"/>
   </g>
   <g id="text_16">
    <!-- Licht - v001/c00001/d031 -->
    <g transform="translate(313.383438 20.88) scale(0.12 -0.12)">
     <defs>
      <path id="DejaVuSans-76" d="M 191 3500 
L 800 3500 
L 1894 563 
L 2988 3500 
L 3597 3500 
L 2284 0 
L 1503 0 
L 191 3500 
z
" transform="scale(0.015625)"/>
      <path id="DejaVuSans-2f" d="M 1625 4666 
L 2156 4666 
L 531 -594 
L 0 -594 
L 1625 4666 
z
" transform="scale(0.015625)"/>
     </defs>
     <use xlink:href="#DejaVuSans-4c"/>
     <use xlink:href="#DejaVuSans-69" transform="translate(55.712891 0)"/>
     <use xlink:href="#DejaVuSans-63" transform="translate(83.496094 0)"/>
     <use xlink:href="#DejaVuSans-68" transform="translate(138.476562 0)"/>
     <use xlink:href="#DejaVuSans-74" transform="translate(201.855469 0)"/>
     <use xlink:href="#DejaVuSans-20" transform="translate(241.064453 0)"/>
     <use xlink:href="#DejaVuSans-2d" transform="translate(272.851562 0)"/>
     <use xlink:href="#DejaVuSans-20" transform="translate(308.935547 0)"/>
     <use xlink:href="#DejaVuSans-76" transform="translate(340.722656 0)"/>
     <use xlink:href="#DejaVuSans-30" transform="translate(399.902344 0)"/>
     <use xlink:href="#DejaVuSans-30" transform="translate(463.525391 0)"/>
     <use xlink:href="#DejaVuSans-31" transform="translate(527.148438 0)"/>
     <use xlink:href="#DejaVuSans-2f" transform="translate(590.771484 0)"/>
     <use xlink:href="#DejaVuSans-63" transform="translate(624.462891 0)"/>
     <use xlink:href="#DejaVuSans-30" transform="translate(679.443359 0)"/>
     <use xlink:href="#DejaVuSans-30" transform="translate(743.066406 0)"/>
     <use xlink:href="#DejaVuSans-30" transform="translate(806.689453 0)"/>
     <use xlink:href="#DejaVuSans-30" transform="translate(870.3125 0)"/>
     <use xlink:href="#DejaVuSans-31" transform="translate(933.935547 0)"/>
     <use xlink:href="#DejaVuSans-2f" transform="translate(997.558594 0)"/>
     <use xlink:href="#DejaVuSans-64" transform="translate(1031.25 0)"/>
     <use xlink:href="#DejaVuSans-30" transform="translate(1094.726562 0)"/>
     <use xlink:href="#DejaVuSans-33" transform="translate(1158.349609 0)"/>
     <use xlink:href="#DejaVuSans-31" transform="translate(1221.972656 0)"/>
    </g>
   </g>
   <g id="legend_1">
    <g id="patch_7">
     <path d="M 551.25625 78.914375 
L 702.2 78.914375 
Q 704.2 78.914375 704.2 76.914375 
L 704.2 33.88 
Q 704.2 31.88 702.2 31.88 
L 551.25625 31.88 
Q 549.25625 31.88 549.25625 33.88 
L 549.25625 76.914375 
Q 549.25625 78.914375 551.25625 78.914375 
z
" style="fill: #ffffff; opacity: 0.8; stroke: #cccccc; stroke-linejoin: miter"/>
    </g>
    <g id="line2d_16">
     <path d="M 553.25625 39.978438 
L 563.25625 39.978438 
L 573.25625 39.978438 
" style="fill: none; stroke: #1f77b4; stroke-width: 2; stroke-linecap: square"/>
    </g>
    <g id="text_17">
     <!-- Hive -->
     <g transform="translate(581.25625 43.478438) scale(0.1 -0.1)">
      <defs>
       <path id="DejaVuSans-48" d="M 628 4666 
L 1259 4666 
L 1259 2753 
L 3553 2753 
L 3553 4666 
L 4184 4666 
L 4184 0 
L 3553 0 
L 3553 2222 
L 1259 2222 
L 1259 0 
L 628 0 
L 628 4666 
z
" transform="scale(0.015625)"/>
      </defs>
      <use xlink:href="#DejaVuSans-48"/>
      <use xlink:href="#DejaVuSans-69" transform="translate(75.195312 0)"/>
      <use xlink:href="#DejaVuSans-76" transform="translate(102.978516 0)"/>
      <use xlink:href="#DejaVuSans-65" transform="translate(162.158203 0)"/>
     </g>
    </g>
    <g id="line2d_17">
     <path d="M 553.25625 54.656563 
L 563.25625 54.656563 
L 573.25625 54.656563 
" style="fill: none; stroke-dasharray: 5.55,2.4; stroke-dashoffset: 0; stroke: #808080; stroke-width: 1.5"/>
    </g>
    <g id="text_18">
     <!-- Gemiddelde (alle hives) -->
     <g transform="translate(581.25625 58.156563) scale(0.1 -0.1)">
      <defs>
       <path id="DejaVuSans-47" d="M 3809 666 
L 3809 1919 
L 2778 1919 
L 2778 2438 
L 4434 2438 
L 4434 434 
Q 4069 175 3628 42 
Q 3188 -91 2688 -91 
Q 1594 -91 976 548 
Q 359 1188 359 2328 
Q 359 3472 976 4111 
Q 1594 4750 2688 4750 
Q 3144 4750 3555 4637 
Q 3966 4525 4313 4306 
L 4313 3634 
Q 3963 3931 3569 4081 
Q 3175 4231 2741 4231 
Q 1884 4231 1454 3753 
Q 1025 3275 1025 2328 
Q 1025 1384 1454 906 
Q 1884 428 2741 428 
Q 3075 428 3337 486 
Q 3600 544 3809 666 
z
" transform="scale(0.015625)"/>
       <path id="DejaVuSans-6d" d="M 3328 2828 
Q 3544 3216 3844 3400 
Q 4144 3584 4550 3584 
Q 5097 3584 5394 3201 
Q 5691 2819 5691 2113 
L 5691 0 
L 5113 0 
L 5113 2094 
Q 5113 2597 4934 2840 
Q 4756 3084 4391 3084 
Q 3944 3084 3684 2787 
Q 3425 2491 3425 1978 
L 3425 0 
L 2847 0 
L 2847 2094 
Q 2847 2600 2669 2842 
Q 2491 3084 2119 3084 
Q 1678 3084 1418 2786 
Q 1159 2488 1159 1978 
L 1159 0 
L 581 0 
L 581 3500 
L 1159 3500 
L 1159 2956 
Q 1356 3278 1631 3431 
Q 1906 3584 2284 3584 
Q 2666 3584 2933 3390 
Q 3200 3197 3328 2828 
z
" transform="scale(0.015625)"/>
       <path id="DejaVuSans-6c" d="M 603 4863 
L 1178 4863 
L 1178 0 
L 603 0 
L 603 4863 
z
" transform="scale(0.015625)"/>
       <path id="DejaVuSans-28" d="M 1984 4856 
Q 1566 4138 1362 3434 
Q 1159 2731 1159 2009 
Q 1159 1288 1364 580 
Q 1569 -128 1984 -844 
L 1484 -844 
Q 1016 -109 783 600 
Q 550 1309 550 2009 
Q 550 2706 781 3412 
Q 1013 4119 1484 4856 
L 1984 4856 
z
" transform="scale(0.015625)"/>
       <path id="DejaVuSans-61" d="M 2194 1759 
Q 1497 1759 1228 1600 
Q 959 1441 959 1056 
Q 959 750 1161 570 
Q 1363 391 1709 391 
Q 2188 391 2477 730 
Q 2766 1069 2766 1631 
L 2766 1759 
L 2194 1759 
z
M 3341 1997 
L 3341 0 
L 2766 0 
L 2766 531 
Q 2569 213 2275 61 
Q 1981 -91 1556 -91 
Q 1019 -91 701 211 
Q 384 513 384 1019 
Q 384 1609 779 1909 
Q 1175 2209 1959 2209 
L 2766 2209 
L 2766 2266 
Q 2766 2663 2505 2880 
Q 2244 3097 1772 3097 
Q 1472 3097 1187 3025 
Q 903 2953 641 2809 
L 641 3341 
Q 956 3463 1253 3523 
Q 1550 3584 1831 3584 
Q 2591 3584 2966 3190 
Q 3341 2797 3341 1997 
z
" transform="scale(0.015625)"/>
       <path id="DejaVuSans-29" d="M 513 4856 
L 1013 4856 
Q 1481 4119 1714 3412 
Q 1947 2706 1947 2009 
Q 1947 1309 1714 600 
Q 1481 -109 1013 -844 
L 513 -844 
Q 928 -128 1133 580 
Q 1338 1288 1338 2009 
Q 1338 2731 1133 3434 
Q 928 4138 513 4856 
z
" transform="scale(0.015625)"/>
      </defs>
      <use xlink:href="#DejaVuSans-47"/>
      <use xlink:href="#DejaVuSans-65" transform="translate(77.490234 0)"/>
      <use xlink:href="#DejaVuSans-6d" transform="translate(139.013672 0)"/>
      <use xlink:href="#DejaVuSans-69" transform="translate(236.425781 0)"/>
      <use xlink:href="#DejaVuSans-64" transform="translate(264.208984 0)"/>
      <use xlink:href="#DejaVuSans-64" transform="translate(327.685547 0)"/>
      <use xlink:href="#DejaVuSans-65" transform="translate(391.162109 0)"/>
      <use xlink:href="#DejaVuSans-6c" transform="translate(452.685547 0)"/>
      <use xlink:href="#DejaVuSans-64" transform="translate(480.46875 0)"/>
      <use xlink:href="#DejaVuSans-65" transform="translate(543.945312 0)"/>
      <use xlink:href="#DejaVuSans-20" transform="translate(605.46875 0)"/>
      <use xlink:href="#DejaVuSans-28" transform="translate(637.255859 0)"/>
      <use xlink:href="#DejaVuSans-61" transform="translate(676.269531 0)"/>
      <use xlink:href="#DejaVuSans-6c" transform="translate(737.548828 0)"/>
      <use xlink:href="#DejaVuSans-6c" transform="translate(765.332031 0)"/>
      <use xlink:href="#DejaVuSans-65" transform="translate(793.115234 0)"/>
      <use xlink:href="#DejaVuSans-20" transform="translate(854.638672 0)"/>
      <use xlink:href="#DejaVuSans-68" transform="translate(886.425781 0)"/>
      <use xlink:href="#DejaVuSans-69" transform="translate(949.804688 0)"/>
      <use xlink:href="#DejaVuSans-76" transform="translate(977.587891 0)"/>
      <use xlink:href="#DejaVuSans-65" transform="translate(1036.767578 0)"/>
      <use xlink:href="#DejaVuSans-73" transform="translate(1098.291016 0)"/>
      <use xlink:href="#DejaVuSans-29" transform="translate(1150.390625 0)"/>
     </g>
    </g>
    <g id="patch_8">
     <path d="M 553.25625 72.834688 
L 573.25625 72.834688 
L 573.25625 65.834688 
L 553.25625 65.834688 
z
" style="fill: #808080; fill-opacity: 0.2; stroke: #808080; stroke-opacity: 0.2; stroke-linejoin: miter"/>
    </g>
    <g id="text_19">
     <!-- ±2 Std Dev -->
     <g transform="translate(581.25625 72.834688) scale(0.1 -0.1)">
      <defs>
       <path id="DejaVuSans-b1" d="M 2944 4013 
L 2944 2803 
L 4684 2803 
L 4684 2272 
L 2944 2272 
L 2944 1063 
L 2419 1063 
L 2419 2272 
L 678 2272 
L 678 2803 
L 2419 2803 
L 2419 4013 
L 2944 4013 
z
M 678 531 
L 4684 531 
L 4684 0 
L 678 0 
L 678 531 
z
" transform="scale(0.015625)"/>
       <path id="DejaVuSans-53" d="M 3425 4513 
L 3425 3897 
Q 3066 4069 2747 4153 
Q 2428 4238 2131 4238 
Q 1616 4238 1336 4038 
Q 1056 3838 1056 3469 
Q 1056 3159 1242 3001 
Q 1428 2844 1947 2747 
L 2328 2669 
Q 3034 2534 3370 2195 
Q 3706 1856 3706 1288 
Q 3706 609 3251 259 
Q 2797 -91 1919 -91 
Q 1588 -91 1214 -16 
Q 841 59 441 206 
L 441 856 
Q 825 641 1194 531 
Q 1563 422 1919 422 
Q 2459 422 2753 634 
Q 3047 847 3047 1241 
Q 3047 1584 2836 1778 
Q 2625 1972 2144 2069 
L 1759 2144 
Q 1053 2284 737 2584 
Q 422 2884 422 3419 
Q 422 4038 858 4394 
Q 1294 4750 2059 4750 
Q 2388 4750 2728 4690 
Q 3069 4631 3425 4513 
z
" transform="scale(0.015625)"/>
       <path id="DejaVuSans-44" d="M 1259 4147 
L 1259 519 
L 2022 519 
Q 2988 519 3436 956 
Q 3884 1394 3884 2338 
Q 3884 3275 3436 3711 
Q 2988 4147 2022 4147 
L 1259 4147 
z
M 628 4666 
L 1925 4666 
Q 3281 4666 3915 4102 
Q 4550 3538 4550 2338 
Q 4550 1131 3912 565 
Q 3275 0 1925 0 
L 628 0 
L 628 4666 
z
" transform="scale(0.015625)"/>
      </defs>
      <use xlink:href="#DejaVuSans-b1"/>
      <use xlink:href="#DejaVuSans-32" transform="translate(83.789062 0)"/>
      <use xlink:href="#DejaVuSans-20" transform="translate(147.412109 0)"/>
      <use xlink:href="#DejaVuSans-53" transform="translate(179.199219 0)"/>
      <use xlink:href="#DejaVuSans-74" transform="translate(242.675781 0)"/>
      <use xlink:href="#DejaVuSans-64" transform="translate(281.884766 0)"/>
      <use xlink:href="#DejaVuSans-20" transform="translate(345.361328 0)"/>
      <use xlink:href="#DejaVuSans-44" transform="translate(377.148438 0)"/>
      <use xlink:href="#DejaVuSans-65" transform="translate(454.150391 0)"/>
      <use xlink:href="#DejaVuSans-76" transform="translate(515.673828 0)"/>
     </g>
    </g>
   </g>
  </g>
 </g>
 <defs>
  <clipPath id="pe01491f608">
   <rect x="71.84" y="26.88" width="637.36" height="219.16"/>
  </clipPath>
 </defs>
</svg>
