<?xml version="1.0" encoding="utf-8" standalone="no"?>
<!DOCTYPE svg PUBLIC "-//W3C//DTD SVG 1.1//EN"
  "http://www.w3.org/Graphics/SVG/1.1/DTD/svg11.dtd">
<svg xmlns:xlink="http://www.w3.org/1999/xlink" width="720pt" height="288pt" viewBox="0 0 720 288" xmlns="http://www.w3.org/2000/svg" version="1.1">
 <metadata>
  <rdf:RDF xmlns:dc="http://purl.org/dc/elements/1.1/" xmlns:cc="http://creativecommons.org/ns#" xmlns:rdf="http://www.w3.org/1999/02/22-rdf-syntax-ns#">
   <cc:Work>
    <dc:type rdf:resource="http://purl.org/dc/dcmitype/StillImage"/>
    <dc:date>2025-06-16T05:18:30.924883</dc:date>
    <dc:format>image/svg+xml</dc:format>
    <dc:creator>
     <cc:Agent>
      <dc:title>Matplotlib v3.10.3, https://matplotlib.org/</dc:title>
     </cc:Agent>
    </dc:creator>
   </cc:Work>
  </rdf:RDF>
 </metadata>
 <defs>
  <style type="text/css">*{stroke-linejoin: round; stroke-linecap: butt}</style>
 </defs>
 <g id="figure_1">
  <g id="patch_1">
   <path d="M 0 288 
L 720 288 
L 720 0 
L 0 0 
z
" style="fill: #ffffff"/>
  </g>
  <g id="axes_1">
   <g id="patch_2">
    <path d="M 44.57 246.04 
L 709.2 246.04 
L 709.2 26.88 
L 44.57 26.88 
z
" style="fill: #ffffff"/>
   </g>
   <g id="FillBetweenPolyCollection_1">
    <defs>
     <path id="mf16367c6ef" d="M 74.780455 -153.721946 
L 74.780455 -79.910672 
L 78.334626 -84.347525 
L 81.888797 -84.983923 
L 85.442968 -86.490433 
L 88.997139 -89.910635 
L 92.55131 -90.273066 
L 96.105481 -91.072964 
L 99.659652 -91.798834 
L 103.213824 -92.549843 
L 106.767995 -93.073675 
L 110.322166 -94.194907 
L 113.876337 -94.125449 
L 117.430508 -94.253662 
L 120.984679 -94.481541 
L 124.53885 -95.347859 
L 128.093021 -94.51671 
L 131.647193 -93.425231 
L 135.201364 -92.227743 
L 138.755535 -94.731028 
L 142.309706 -99.867981 
L 145.863877 -100.198928 
L 149.418048 -99.016657 
L 152.972219 -99.599131 
L 156.52639 -100.654583 
L 160.080561 -91.926352 
L 163.634733 -88.202053 
L 167.188904 -102.160476 
L 170.743075 -121.076221 
L 174.297246 -151.385101 
L 177.851417 -132.271011 
L 181.405588 -113.906427 
L 184.959759 -121.335633 
L 188.51393 -123.521784 
L 192.068102 -126.594481 
L 195.622273 -130.102101 
L 199.176444 -126.027823 
L 202.730615 -97.785205 
L 206.284786 -87.245828 
L 209.838957 -80.823487 
L 213.393128 -77.132676 
L 216.947299 -74.994708 
L 220.501471 -96.026618 
L 224.055642 -95.723029 
L 227.609813 -86.581522 
L 231.163984 -80.999456 
L 234.718155 -86.758625 
L 238.272326 -93.68221 
L 241.826497 -94.594731 
L 245.380668 -95.813878 
L 248.93484 -96.693599 
L 252.489011 -96.498885 
L 256.043182 -96.490391 
L 259.597353 -98.152658 
L 263.151524 -108.847716 
L 266.705695 -100.069686 
L 270.259866 -100.645286 
L 273.814037 -99.366417 
L 277.368209 -99.901443 
L 280.92238 -99.614081 
L 284.476551 -103.149567 
L 288.030722 -100.32547 
L 291.584893 -102.147058 
L 295.139064 -102.98025 
L 298.693235 -100.834843 
L 302.247406 -106.987056 
L 305.801578 -108.810674 
L 309.355749 -112.264291 
L 312.90992 -105.454607 
L 316.464091 -108.426773 
L 320.018262 -107.127902 
L 323.572433 -107.616084 
L 327.126604 -107.706169 
L 330.680775 -106.032652 
L 334.234947 -108.22101 
L 337.789118 -118.300353 
L 341.343289 -118.885623 
L 344.89746 -120.80985 
L 348.451631 -127.055365 
L 352.005802 -122.46922 
L 355.559973 -120.669275 
L 359.114144 -116.714607 
L 362.668316 -114.678939 
L 366.222487 -108.185783 
L 369.776658 -111.968028 
L 373.330829 -108.996596 
L 376.885 -104.046979 
L 380.439171 -99.723967 
L 383.993342 -103.823313 
L 387.547513 -102.443933 
L 391.101684 -102.705222 
L 394.655856 -95.778655 
L 398.210027 -90.845617 
L 401.764198 -90.920404 
L 405.318369 -87.684368 
L 408.87254 -79.695578 
L 412.426711 -83.080899 
L 415.980882 -84.967043 
L 419.535053 -87.858161 
L 423.089225 -90.790963 
L 426.643396 -92.410732 
L 430.197567 -93.943806 
L 433.751738 -94.062128 
L 437.305909 -94.157863 
L 440.86008 -95.236979 
L 444.414251 -96.350658 
L 447.968422 -96.650191 
L 451.522594 -97.099858 
L 455.076765 -97.376812 
L 458.630936 -97.697074 
L 462.185107 -96.254795 
L 465.739278 -94.131502 
L 469.293449 -94.908962 
L 472.84762 -95.331811 
L 476.401791 -96.458673 
L 479.955963 -97.520548 
L 483.510134 -97.483825 
L 487.064305 -97.323805 
L 490.618476 -96.977271 
L 494.172647 -98.202983 
L 497.726818 -97.889079 
L 501.280989 -78.012442 
L 504.83516 -73.313378 
L 508.389332 -80.928317 
L 511.943503 -88.345076 
L 515.497674 -103.109237 
L 519.051845 -103.118426 
L 522.606016 -89.493 
L 526.160187 -88.042172 
L 529.714358 -97.05707 
L 533.268529 -90.573867 
L 536.822701 -98.635595 
L 540.376872 -97.092525 
L 543.931043 -97.523536 
L 547.485214 -80.645936 
L 551.039385 -59.042917 
L 554.593556 -64.286899 
L 558.147727 -51.921818 
L 561.701898 -61.021972 
L 565.25607 -56.313076 
L 568.810241 -60.456909 
L 572.364412 -62.588406 
L 575.918583 -67.961797 
L 579.472754 -70.962784 
L 583.026925 -77.897665 
L 586.581096 -81.077105 
L 590.135267 -82.907354 
L 593.689439 -83.037319 
L 597.24361 -83.885046 
L 600.797781 -83.487825 
L 604.351952 -83.235869 
L 607.906123 -83.773921 
L 611.460294 -86.060715 
L 615.014465 -88.136595 
L 618.568636 -91.001836 
L 622.122807 -90.937393 
L 625.676979 -94.728893 
L 629.23115 -91.592038 
L 632.785321 -91.308616 
L 636.339492 -93.627154 
L 639.893663 -87.899676 
L 639.893663 -109.574296 
L 639.893663 -109.574296 
L 636.339492 -107.678386 
L 632.785321 -106.63839 
L 629.23115 -104.08441 
L 625.676979 -100.935728 
L 622.122807 -106.593343 
L 618.568636 -106.018024 
L 615.014465 -107.445245 
L 611.460294 -110.01781 
L 607.906123 -113.983872 
L 604.351952 -116.839785 
L 600.797781 -119.023949 
L 597.24361 -121.583186 
L 593.689439 -124.606864 
L 590.135267 -127.031039 
L 586.581096 -131.013589 
L 583.026925 -136.227071 
L 579.472754 -147.135429 
L 575.918583 -152.170459 
L 572.364412 -161.99036 
L 568.810241 -166.487023 
L 565.25607 -175.739612 
L 561.701898 -174.436555 
L 558.147727 -191.43636 
L 554.593556 -179.497009 
L 551.039385 -189.755141 
L 547.485214 -162.381119 
L 543.931043 -147.206438 
L 540.376872 -154.212608 
L 536.822701 -153.520998 
L 533.268529 -173.408552 
L 529.714358 -167.445685 
L 526.160187 -187.340343 
L 522.606016 -181.963341 
L 519.051845 -159.019165 
L 515.497674 -155.244089 
L 511.943503 -175.921163 
L 508.389332 -185.277357 
L 504.83516 -198.355828 
L 501.280989 -186.01728 
L 497.726818 -148.78033 
L 494.172647 -141.276324 
L 490.618476 -138.362997 
L 487.064305 -134.918096 
L 483.510134 -129.956791 
L 479.955963 -126.159455 
L 476.401791 -123.862796 
L 472.84762 -121.891292 
L 469.293449 -119.783413 
L 465.739278 -118.716045 
L 462.185107 -113.257869 
L 458.630936 -110.82222 
L 455.076765 -111.047876 
L 451.522594 -111.726908 
L 447.968422 -112.318485 
L 444.414251 -113.398522 
L 440.86008 -115.50557 
L 437.305909 -118.263954 
L 433.751738 -120.038956 
L 430.197567 -122.593399 
L 426.643396 -124.883325 
L 423.089225 -129.837977 
L 419.535053 -135.183248 
L 415.980882 -141.432901 
L 412.426711 -146.914096 
L 408.87254 -154.769579 
L 405.318369 -144.179107 
L 401.764198 -142.598687 
L 398.210027 -146.859816 
L 394.655856 -143.747956 
L 391.101684 -132.062676 
L 387.547513 -141.907615 
L 383.993342 -147.434517 
L 380.439171 -158.014415 
L 376.885 -154.77938 
L 373.330829 -153.945151 
L 369.776658 -160.292469 
L 366.222487 -175.19099 
L 362.668316 -162.690315 
L 359.114144 -162.121049 
L 355.559973 -157.125708 
L 352.005802 -158.116659 
L 348.451631 -158.828484 
L 344.89746 -158.664401 
L 341.343289 -161.17992 
L 337.789118 -165.92788 
L 334.234947 -178.25413 
L 330.680775 -180.347881 
L 327.126604 -175.434088 
L 323.572433 -174.76732 
L 320.018262 -170.619778 
L 316.464091 -164.306757 
L 312.90992 -167.37353 
L 309.355749 -157.252614 
L 305.801578 -156.638147 
L 302.247406 -154.417332 
L 298.693235 -157.575247 
L 295.139064 -149.12904 
L 291.584893 -148.571515 
L 288.030722 -142.701585 
L 284.476551 -142.289957 
L 280.92238 -134.813233 
L 277.368209 -137.9459 
L 273.814037 -139.261431 
L 270.259866 -141.956039 
L 266.705695 -144.187255 
L 263.151524 -130.461299 
L 259.597353 -153.625508 
L 256.043182 -158.693614 
L 252.489011 -166.229996 
L 248.93484 -167.099606 
L 245.380668 -168.878091 
L 241.826497 -172.651616 
L 238.272326 -174.723068 
L 234.718155 -187.299397 
L 231.163984 -201.762375 
L 227.609813 -194.146266 
L 224.055642 -188.514665 
L 220.501471 -198.031242 
L 216.947299 -230.283496 
L 213.393128 -236.612819 
L 209.838957 -238.503798 
L 206.284786 -234.1155 
L 202.730615 -226.84005 
L 199.176444 -199.448891 
L 195.622273 -198.354722 
L 192.068102 -205.504696 
L 188.51393 -212.456264 
L 184.959759 -225.995209 
L 181.405588 -237.587106 
L 177.851417 -225.277344 
L 174.297246 -194.810462 
L 170.743075 -210.50262 
L 167.188904 -237.223411 
L 163.634733 -251.158182 
L 160.080561 -234.705915 
L 156.52639 -214.442435 
L 152.972219 -201.347441 
L 149.418048 -196.091336 
L 145.863877 -185.238918 
L 142.309706 -171.054508 
L 138.755535 -177.205104 
L 135.201364 -175.146999 
L 131.647193 -165.698462 
L 128.093021 -156.437027 
L 124.53885 -146.746645 
L 120.984679 -139.584917 
L 117.430508 -135.109496 
L 113.876337 -128.608488 
L 110.322166 -123.856003 
L 106.767995 -121.672761 
L 103.213824 -121.906016 
L 99.659652 -120.393224 
L 96.105481 -121.970553 
L 92.55131 -124.696372 
L 88.997139 -126.741449 
L 85.442968 -132.716029 
L 81.888797 -137.385103 
L 78.334626 -142.603164 
L 74.780455 -153.721946 
z
" style="stroke: #808080; stroke-opacity: 0.2"/>
    </defs>
    <g clip-path="url(#p658da44f15)">
     <use xlink:href="#mf16367c6ef" x="0" y="288" style="fill: #808080; fill-opacity: 0.2; stroke: #808080; stroke-opacity: 0.2"/>
    </g>
   </g>
   <g id="matplotlib.axis_1">
    <g id="xtick_1">
     <g id="line2d_1">
      <defs>
       <path id="m9455ad42e8" d="M 0 0 
L 0 3.5 
" style="stroke: #000000; stroke-width: 0.8"/>
      </defs>
      <g>
       <use xlink:href="#m9455ad42e8" x="124.53885" y="246.04" style="stroke: #000000; stroke-width: 0.8"/>
      </g>
     </g>
     <g id="text_1">
      <!-- 06-13 12 -->
      <g transform="translate(102.058382 260.638438) scale(0.1 -0.1)">
       <defs>
        <path id="DejaVuSans-30" d="M 2034 4250 
Q 1547 4250 1301 3770 
Q 1056 3291 1056 2328 
Q 1056 1369 1301 889 
Q 1547 409 2034 409 
Q 2525 409 2770 889 
Q 3016 1369 3016 2328 
Q 3016 3291 2770 3770 
Q 2525 4250 2034 4250 
z
M 2034 4750 
Q 2819 4750 3233 4129 
Q 3647 3509 3647 2328 
Q 3647 1150 3233 529 
Q 2819 -91 2034 -91 
Q 1250 -91 836 529 
Q 422 1150 422 2328 
Q 422 3509 836 4129 
Q 1250 4750 2034 4750 
z
" transform="scale(0.015625)"/>
        <path id="DejaVuSans-36" d="M 2113 2584 
Q 1688 2584 1439 2293 
Q 1191 2003 1191 1497 
Q 1191 994 1439 701 
Q 1688 409 2113 409 
Q 2538 409 2786 701 
Q 3034 994 3034 1497 
Q 3034 2003 2786 2293 
Q 2538 2584 2113 2584 
z
M 3366 4563 
L 3366 3988 
Q 3128 4100 2886 4159 
Q 2644 4219 2406 4219 
Q 1781 4219 1451 3797 
Q 1122 3375 1075 2522 
Q 1259 2794 1537 2939 
Q 1816 3084 2150 3084 
Q 2853 3084 3261 2657 
Q 3669 2231 3669 1497 
Q 3669 778 3244 343 
Q 2819 -91 2113 -91 
Q 1303 -91 875 529 
Q 447 1150 447 2328 
Q 447 3434 972 4092 
Q 1497 4750 2381 4750 
Q 2619 4750 2861 4703 
Q 3103 4656 3366 4563 
z
" transform="scale(0.015625)"/>
        <path id="DejaVuSans-2d" d="M 313 2009 
L 1997 2009 
L 1997 1497 
L 313 1497 
L 313 2009 
z
" transform="scale(0.015625)"/>
        <path id="DejaVuSans-31" d="M 794 531 
L 1825 531 
L 1825 4091 
L 703 3866 
L 703 4441 
L 1819 4666 
L 2450 4666 
L 2450 531 
L 3481 531 
L 3481 0 
L 794 0 
L 794 531 
z
" transform="scale(0.015625)"/>
        <path id="DejaVuSans-33" d="M 2597 2516 
Q 3050 2419 3304 2112 
Q 3559 1806 3559 1356 
Q 3559 666 3084 287 
Q 2609 -91 1734 -91 
Q 1441 -91 1130 -33 
Q 819 25 488 141 
L 488 750 
Q 750 597 1062 519 
Q 1375 441 1716 441 
Q 2309 441 2620 675 
Q 2931 909 2931 1356 
Q 2931 1769 2642 2001 
Q 2353 2234 1838 2234 
L 1294 2234 
L 1294 2753 
L 1863 2753 
Q 2328 2753 2575 2939 
Q 2822 3125 2822 3475 
Q 2822 3834 2567 4026 
Q 2313 4219 1838 4219 
Q 1578 4219 1281 4162 
Q 984 4106 628 3988 
L 628 4550 
Q 988 4650 1302 4700 
Q 1616 4750 1894 4750 
Q 2613 4750 3031 4423 
Q 3450 4097 3450 3541 
Q 3450 3153 3228 2886 
Q 3006 2619 2597 2516 
z
" transform="scale(0.015625)"/>
        <path id="DejaVuSans-20" transform="scale(0.015625)"/>
        <path id="DejaVuSans-32" d="M 1228 531 
L 3431 531 
L 3431 0 
L 469 0 
L 469 531 
Q 828 903 1448 1529 
Q 2069 2156 2228 2338 
Q 2531 2678 2651 2914 
Q 2772 3150 2772 3378 
Q 2772 3750 2511 3984 
Q 2250 4219 1831 4219 
Q 1534 4219 1204 4116 
Q 875 4013 500 3803 
L 500 4441 
Q 881 4594 1212 4672 
Q 1544 4750 1819 4750 
Q 2544 4750 2975 4387 
Q 3406 4025 3406 3419 
Q 3406 3131 3298 2873 
Q 3191 2616 2906 2266 
Q 2828 2175 2409 1742 
Q 1991 1309 1228 531 
z
" transform="scale(0.015625)"/>
       </defs>
       <use xlink:href="#DejaVuSans-30"/>
       <use xlink:href="#DejaVuSans-36" transform="translate(63.623047 0)"/>
       <use xlink:href="#DejaVuSans-2d" transform="translate(127.246094 0)"/>
       <use xlink:href="#DejaVuSans-31" transform="translate(163.330078 0)"/>
       <use xlink:href="#DejaVuSans-33" transform="translate(226.953125 0)"/>
       <use xlink:href="#DejaVuSans-20" transform="translate(290.576172 0)"/>
       <use xlink:href="#DejaVuSans-31" transform="translate(322.363281 0)"/>
       <use xlink:href="#DejaVuSans-32" transform="translate(385.986328 0)"/>
      </g>
     </g>
    </g>
    <g id="xtick_2">
     <g id="line2d_2">
      <g>
       <use xlink:href="#m9455ad42e8" x="209.838957" y="246.04" style="stroke: #000000; stroke-width: 0.8"/>
      </g>
     </g>
     <g id="text_2">
      <!-- 06-14 00 -->
      <g transform="translate(187.358488 260.638438) scale(0.1 -0.1)">
       <defs>
        <path id="DejaVuSans-34" d="M 2419 4116 
L 825 1625 
L 2419 1625 
L 2419 4116 
z
M 2253 4666 
L 3047 4666 
L 3047 1625 
L 3713 1625 
L 3713 1100 
L 3047 1100 
L 3047 0 
L 2419 0 
L 2419 1100 
L 313 1100 
L 313 1709 
L 2253 4666 
z
" transform="scale(0.015625)"/>
       </defs>
       <use xlink:href="#DejaVuSans-30"/>
       <use xlink:href="#DejaVuSans-36" transform="translate(63.623047 0)"/>
       <use xlink:href="#DejaVuSans-2d" transform="translate(127.246094 0)"/>
       <use xlink:href="#DejaVuSans-31" transform="translate(163.330078 0)"/>
       <use xlink:href="#DejaVuSans-34" transform="translate(226.953125 0)"/>
       <use xlink:href="#DejaVuSans-20" transform="translate(290.576172 0)"/>
       <use xlink:href="#DejaVuSans-30" transform="translate(322.363281 0)"/>
       <use xlink:href="#DejaVuSans-30" transform="translate(385.986328 0)"/>
      </g>
     </g>
    </g>
    <g id="xtick_3">
     <g id="line2d_3">
      <g>
       <use xlink:href="#m9455ad42e8" x="295.139064" y="246.04" style="stroke: #000000; stroke-width: 0.8"/>
      </g>
     </g>
     <g id="text_3">
      <!-- 06-14 12 -->
      <g transform="translate(272.658595 260.638438) scale(0.1 -0.1)">
       <use xlink:href="#DejaVuSans-30"/>
       <use xlink:href="#DejaVuSans-36" transform="translate(63.623047 0)"/>
       <use xlink:href="#DejaVuSans-2d" transform="translate(127.246094 0)"/>
       <use xlink:href="#DejaVuSans-31" transform="translate(163.330078 0)"/>
       <use xlink:href="#DejaVuSans-34" transform="translate(226.953125 0)"/>
       <use xlink:href="#DejaVuSans-20" transform="translate(290.576172 0)"/>
       <use xlink:href="#DejaVuSans-31" transform="translate(322.363281 0)"/>
       <use xlink:href="#DejaVuSans-32" transform="translate(385.986328 0)"/>
      </g>
     </g>
    </g>
    <g id="xtick_4">
     <g id="line2d_4">
      <g>
       <use xlink:href="#m9455ad42e8" x="380.439171" y="246.04" style="stroke: #000000; stroke-width: 0.8"/>
      </g>
     </g>
     <g id="text_4">
      <!-- 06-15 00 -->
      <g transform="translate(357.958702 260.638438) scale(0.1 -0.1)">
       <defs>
        <path id="DejaVuSans-35" d="M 691 4666 
L 3169 4666 
L 3169 4134 
L 1269 4134 
L 1269 2991 
Q 1406 3038 1543 3061 
Q 1681 3084 1819 3084 
Q 2600 3084 3056 2656 
Q 3513 2228 3513 1497 
Q 3513 744 3044 326 
Q 2575 -91 1722 -91 
Q 1428 -91 1123 -41 
Q 819 9 494 109 
L 494 744 
Q 775 591 1075 516 
Q 1375 441 1709 441 
Q 2250 441 2565 725 
Q 2881 1009 2881 1497 
Q 2881 1984 2565 2268 
Q 2250 2553 1709 2553 
Q 1456 2553 1204 2497 
Q 953 2441 691 2322 
L 691 4666 
z
" transform="scale(0.015625)"/>
       </defs>
       <use xlink:href="#DejaVuSans-30"/>
       <use xlink:href="#DejaVuSans-36" transform="translate(63.623047 0)"/>
       <use xlink:href="#DejaVuSans-2d" transform="translate(127.246094 0)"/>
       <use xlink:href="#DejaVuSans-31" transform="translate(163.330078 0)"/>
       <use xlink:href="#DejaVuSans-35" transform="translate(226.953125 0)"/>
       <use xlink:href="#DejaVuSans-20" transform="translate(290.576172 0)"/>
       <use xlink:href="#DejaVuSans-30" transform="translate(322.363281 0)"/>
       <use xlink:href="#DejaVuSans-30" transform="translate(385.986328 0)"/>
      </g>
     </g>
    </g>
    <g id="xtick_5">
     <g id="line2d_5">
      <g>
       <use xlink:href="#m9455ad42e8" x="465.739278" y="246.04" style="stroke: #000000; stroke-width: 0.8"/>
      </g>
     </g>
     <g id="text_5">
      <!-- 06-15 12 -->
      <g transform="translate(443.258809 260.638438) scale(0.1 -0.1)">
       <use xlink:href="#DejaVuSans-30"/>
       <use xlink:href="#DejaVuSans-36" transform="translate(63.623047 0)"/>
       <use xlink:href="#DejaVuSans-2d" transform="translate(127.246094 0)"/>
       <use xlink:href="#DejaVuSans-31" transform="translate(163.330078 0)"/>
       <use xlink:href="#DejaVuSans-35" transform="translate(226.953125 0)"/>
       <use xlink:href="#DejaVuSans-20" transform="translate(290.576172 0)"/>
       <use xlink:href="#DejaVuSans-31" transform="translate(322.363281 0)"/>
       <use xlink:href="#DejaVuSans-32" transform="translate(385.986328 0)"/>
      </g>
     </g>
    </g>
    <g id="xtick_6">
     <g id="line2d_6">
      <g>
       <use xlink:href="#m9455ad42e8" x="551.039385" y="246.04" style="stroke: #000000; stroke-width: 0.8"/>
      </g>
     </g>
     <g id="text_6">
      <!-- 06-16 00 -->
      <g transform="translate(528.558916 260.638438) scale(0.1 -0.1)">
       <use xlink:href="#DejaVuSans-30"/>
       <use xlink:href="#DejaVuSans-36" transform="translate(63.623047 0)"/>
       <use xlink:href="#DejaVuSans-2d" transform="translate(127.246094 0)"/>
       <use xlink:href="#DejaVuSans-31" transform="translate(163.330078 0)"/>
       <use xlink:href="#DejaVuSans-36" transform="translate(226.953125 0)"/>
       <use xlink:href="#DejaVuSans-20" transform="translate(290.576172 0)"/>
       <use xlink:href="#DejaVuSans-30" transform="translate(322.363281 0)"/>
       <use xlink:href="#DejaVuSans-30" transform="translate(385.986328 0)"/>
      </g>
     </g>
    </g>
    <g id="xtick_7">
     <g id="line2d_7">
      <g>
       <use xlink:href="#m9455ad42e8" x="636.339492" y="246.04" style="stroke: #000000; stroke-width: 0.8"/>
      </g>
     </g>
     <g id="text_7">
      <!-- 06-16 12 -->
      <g transform="translate(613.859023 260.638438) scale(0.1 -0.1)">
       <use xlink:href="#DejaVuSans-30"/>
       <use xlink:href="#DejaVuSans-36" transform="translate(63.623047 0)"/>
       <use xlink:href="#DejaVuSans-2d" transform="translate(127.246094 0)"/>
       <use xlink:href="#DejaVuSans-31" transform="translate(163.330078 0)"/>
       <use xlink:href="#DejaVuSans-36" transform="translate(226.953125 0)"/>
       <use xlink:href="#DejaVuSans-20" transform="translate(290.576172 0)"/>
       <use xlink:href="#DejaVuSans-31" transform="translate(322.363281 0)"/>
       <use xlink:href="#DejaVuSans-32" transform="translate(385.986328 0)"/>
      </g>
     </g>
    </g>
    <g id="text_8">
     <!-- Tijd -->
     <g transform="translate(368.035 274.316562) scale(0.1 -0.1)">
      <defs>
       <path id="DejaVuSans-54" d="M -19 4666 
L 3928 4666 
L 3928 4134 
L 2272 4134 
L 2272 0 
L 1638 0 
L 1638 4134 
L -19 4134 
L -19 4666 
z
" transform="scale(0.015625)"/>
       <path id="DejaVuSans-69" d="M 603 3500 
L 1178 3500 
L 1178 0 
L 603 0 
L 603 3500 
z
M 603 4863 
L 1178 4863 
L 1178 4134 
L 603 4134 
L 603 4863 
z
" transform="scale(0.015625)"/>
       <path id="DejaVuSans-6a" d="M 603 3500 
L 1178 3500 
L 1178 -63 
Q 1178 -731 923 -1031 
Q 669 -1331 103 -1331 
L -116 -1331 
L -116 -844 
L 38 -844 
Q 366 -844 484 -692 
Q 603 -541 603 -63 
L 603 3500 
z
M 603 4863 
L 1178 4863 
L 1178 4134 
L 603 4134 
L 603 4863 
z
" transform="scale(0.015625)"/>
       <path id="DejaVuSans-64" d="M 2906 2969 
L 2906 4863 
L 3481 4863 
L 3481 0 
L 2906 0 
L 2906 525 
Q 2725 213 2448 61 
Q 2172 -91 1784 -91 
Q 1150 -91 751 415 
Q 353 922 353 1747 
Q 353 2572 751 3078 
Q 1150 3584 1784 3584 
Q 2172 3584 2448 3432 
Q 2725 3281 2906 2969 
z
M 947 1747 
Q 947 1113 1208 752 
Q 1469 391 1925 391 
Q 2381 391 2643 752 
Q 2906 1113 2906 1747 
Q 2906 2381 2643 2742 
Q 2381 3103 1925 3103 
Q 1469 3103 1208 2742 
Q 947 2381 947 1747 
z
" transform="scale(0.015625)"/>
      </defs>
      <use xlink:href="#DejaVuSans-54"/>
      <use xlink:href="#DejaVuSans-69" transform="translate(57.958984 0)"/>
      <use xlink:href="#DejaVuSans-6a" transform="translate(85.742188 0)"/>
      <use xlink:href="#DejaVuSans-64" transform="translate(113.525391 0)"/>
     </g>
    </g>
   </g>
   <g id="matplotlib.axis_2">
    <g id="ytick_1">
     <g id="line2d_8">
      <defs>
       <path id="ma5bfc68037" d="M 0 0 
L -3.5 0 
" style="stroke: #000000; stroke-width: 0.8"/>
      </defs>
      <g>
       <use xlink:href="#ma5bfc68037" x="44.57" y="214.948708" style="stroke: #000000; stroke-width: 0.8"/>
      </g>
     </g>
     <g id="text_9">
      <!-- 10 -->
      <g transform="translate(24.845 218.747927) scale(0.1 -0.1)">
       <use xlink:href="#DejaVuSans-31"/>
       <use xlink:href="#DejaVuSans-30" transform="translate(63.623047 0)"/>
      </g>
     </g>
    </g>
    <g id="ytick_2">
     <g id="line2d_9">
      <g>
       <use xlink:href="#ma5bfc68037" x="44.57" y="172.375734" style="stroke: #000000; stroke-width: 0.8"/>
      </g>
     </g>
     <g id="text_10">
      <!-- 20 -->
      <g transform="translate(24.845 176.174953) scale(0.1 -0.1)">
       <use xlink:href="#DejaVuSans-32"/>
       <use xlink:href="#DejaVuSans-30" transform="translate(63.623047 0)"/>
      </g>
     </g>
    </g>
    <g id="ytick_3">
     <g id="line2d_10">
      <g>
       <use xlink:href="#ma5bfc68037" x="44.57" y="129.80276" style="stroke: #000000; stroke-width: 0.8"/>
      </g>
     </g>
     <g id="text_11">
      <!-- 30 -->
      <g transform="translate(24.845 133.601979) scale(0.1 -0.1)">
       <use xlink:href="#DejaVuSans-33"/>
       <use xlink:href="#DejaVuSans-30" transform="translate(63.623047 0)"/>
      </g>
     </g>
    </g>
    <g id="ytick_4">
     <g id="line2d_11">
      <g>
       <use xlink:href="#ma5bfc68037" x="44.57" y="87.229786" style="stroke: #000000; stroke-width: 0.8"/>
      </g>
     </g>
     <g id="text_12">
      <!-- 40 -->
      <g transform="translate(24.845 91.029004) scale(0.1 -0.1)">
       <use xlink:href="#DejaVuSans-34"/>
       <use xlink:href="#DejaVuSans-30" transform="translate(63.623047 0)"/>
      </g>
     </g>
    </g>
    <g id="ytick_5">
     <g id="line2d_12">
      <g>
       <use xlink:href="#ma5bfc68037" x="44.57" y="44.656812" style="stroke: #000000; stroke-width: 0.8"/>
      </g>
     </g>
     <g id="text_13">
      <!-- 50 -->
      <g transform="translate(24.845 48.45603) scale(0.1 -0.1)">
       <use xlink:href="#DejaVuSans-35"/>
       <use xlink:href="#DejaVuSans-30" transform="translate(63.623047 0)"/>
      </g>
     </g>
    </g>
    <g id="text_14">
     <!-- Buiten temperatuur (°C) -->
     <g transform="translate(18.765312 197.355312) rotate(-90) scale(0.1 -0.1)">
      <defs>
       <path id="DejaVuSans-42" d="M 1259 2228 
L 1259 519 
L 2272 519 
Q 2781 519 3026 730 
Q 3272 941 3272 1375 
Q 3272 1813 3026 2020 
Q 2781 2228 2272 2228 
L 1259 2228 
z
M 1259 4147 
L 1259 2741 
L 2194 2741 
Q 2656 2741 2882 2914 
Q 3109 3088 3109 3444 
Q 3109 3797 2882 3972 
Q 2656 4147 2194 4147 
L 1259 4147 
z
M 628 4666 
L 2241 4666 
Q 2963 4666 3353 4366 
Q 3744 4066 3744 3513 
Q 3744 3084 3544 2831 
Q 3344 2578 2956 2516 
Q 3422 2416 3680 2098 
Q 3938 1781 3938 1306 
Q 3938 681 3513 340 
Q 3088 0 2303 0 
L 628 0 
L 628 4666 
z
" transform="scale(0.015625)"/>
       <path id="DejaVuSans-75" d="M 544 1381 
L 544 3500 
L 1119 3500 
L 1119 1403 
Q 1119 906 1312 657 
Q 1506 409 1894 409 
Q 2359 409 2629 706 
Q 2900 1003 2900 1516 
L 2900 3500 
L 3475 3500 
L 3475 0 
L 2900 0 
L 2900 538 
Q 2691 219 2414 64 
Q 2138 -91 1772 -91 
Q 1169 -91 856 284 
Q 544 659 544 1381 
z
M 1991 3584 
L 1991 3584 
z
" transform="scale(0.015625)"/>
       <path id="DejaVuSans-74" d="M 1172 4494 
L 1172 3500 
L 2356 3500 
L 2356 3053 
L 1172 3053 
L 1172 1153 
Q 1172 725 1289 603 
Q 1406 481 1766 481 
L 2356 481 
L 2356 0 
L 1766 0 
Q 1100 0 847 248 
Q 594 497 594 1153 
L 594 3053 
L 172 3053 
L 172 3500 
L 594 3500 
L 594 4494 
L 1172 4494 
z
" transform="scale(0.015625)"/>
       <path id="DejaVuSans-65" d="M 3597 1894 
L 3597 1613 
L 953 1613 
Q 991 1019 1311 708 
Q 1631 397 2203 397 
Q 2534 397 2845 478 
Q 3156 559 3463 722 
L 3463 178 
Q 3153 47 2828 -22 
Q 2503 -91 2169 -91 
Q 1331 -91 842 396 
Q 353 884 353 1716 
Q 353 2575 817 3079 
Q 1281 3584 2069 3584 
Q 2775 3584 3186 3129 
Q 3597 2675 3597 1894 
z
M 3022 2063 
Q 3016 2534 2758 2815 
Q 2500 3097 2075 3097 
Q 1594 3097 1305 2825 
Q 1016 2553 972 2059 
L 3022 2063 
z
" transform="scale(0.015625)"/>
       <path id="DejaVuSans-6e" d="M 3513 2113 
L 3513 0 
L 2938 0 
L 2938 2094 
Q 2938 2591 2744 2837 
Q 2550 3084 2163 3084 
Q 1697 3084 1428 2787 
Q 1159 2491 1159 1978 
L 1159 0 
L 581 0 
L 581 3500 
L 1159 3500 
L 1159 2956 
Q 1366 3272 1645 3428 
Q 1925 3584 2291 3584 
Q 2894 3584 3203 3211 
Q 3513 2838 3513 2113 
z
" transform="scale(0.015625)"/>
       <path id="DejaVuSans-6d" d="M 3328 2828 
Q 3544 3216 3844 3400 
Q 4144 3584 4550 3584 
Q 5097 3584 5394 3201 
Q 5691 2819 5691 2113 
L 5691 0 
L 5113 0 
L 5113 2094 
Q 5113 2597 4934 2840 
Q 4756 3084 4391 3084 
Q 3944 3084 3684 2787 
Q 3425 2491 3425 1978 
L 3425 0 
L 2847 0 
L 2847 2094 
Q 2847 2600 2669 2842 
Q 2491 3084 2119 3084 
Q 1678 3084 1418 2786 
Q 1159 2488 1159 1978 
L 1159 0 
L 581 0 
L 581 3500 
L 1159 3500 
L 1159 2956 
Q 1356 3278 1631 3431 
Q 1906 3584 2284 3584 
Q 2666 3584 2933 3390 
Q 3200 3197 3328 2828 
z
" transform="scale(0.015625)"/>
       <path id="DejaVuSans-70" d="M 1159 525 
L 1159 -1331 
L 581 -1331 
L 581 3500 
L 1159 3500 
L 1159 2969 
Q 1341 3281 1617 3432 
Q 1894 3584 2278 3584 
Q 2916 3584 3314 3078 
Q 3713 2572 3713 1747 
Q 3713 922 3314 415 
Q 2916 -91 2278 -91 
Q 1894 -91 1617 61 
Q 1341 213 1159 525 
z
M 3116 1747 
Q 3116 2381 2855 2742 
Q 2594 3103 2138 3103 
Q 1681 3103 1420 2742 
Q 1159 2381 1159 1747 
Q 1159 1113 1420 752 
Q 1681 391 2138 391 
Q 2594 391 2855 752 
Q 3116 1113 3116 1747 
z
" transform="scale(0.015625)"/>
       <path id="DejaVuSans-72" d="M 2631 2963 
Q 2534 3019 2420 3045 
Q 2306 3072 2169 3072 
Q 1681 3072 1420 2755 
Q 1159 2438 1159 1844 
L 1159 0 
L 581 0 
L 581 3500 
L 1159 3500 
L 1159 2956 
Q 1341 3275 1631 3429 
Q 1922 3584 2338 3584 
Q 2397 3584 2469 3576 
Q 2541 3569 2628 3553 
L 2631 2963 
z
" transform="scale(0.015625)"/>
       <path id="DejaVuSans-61" d="M 2194 1759 
Q 1497 1759 1228 1600 
Q 959 1441 959 1056 
Q 959 750 1161 570 
Q 1363 391 1709 391 
Q 2188 391 2477 730 
Q 2766 1069 2766 1631 
L 2766 1759 
L 2194 1759 
z
M 3341 1997 
L 3341 0 
L 2766 0 
L 2766 531 
Q 2569 213 2275 61 
Q 1981 -91 1556 -91 
Q 1019 -91 701 211 
Q 384 513 384 1019 
Q 384 1609 779 1909 
Q 1175 2209 1959 2209 
L 2766 2209 
L 2766 2266 
Q 2766 2663 2505 2880 
Q 2244 3097 1772 3097 
Q 1472 3097 1187 3025 
Q 903 2953 641 2809 
L 641 3341 
Q 956 3463 1253 3523 
Q 1550 3584 1831 3584 
Q 2591 3584 2966 3190 
Q 3341 2797 3341 1997 
z
" transform="scale(0.015625)"/>
       <path id="DejaVuSans-28" d="M 1984 4856 
Q 1566 4138 1362 3434 
Q 1159 2731 1159 2009 
Q 1159 1288 1364 580 
Q 1569 -128 1984 -844 
L 1484 -844 
Q 1016 -109 783 600 
Q 550 1309 550 2009 
Q 550 2706 781 3412 
Q 1013 4119 1484 4856 
L 1984 4856 
z
" transform="scale(0.015625)"/>
       <path id="DejaVuSans-b0" d="M 1600 4347 
Q 1350 4347 1178 4173 
Q 1006 4000 1006 3750 
Q 1006 3503 1178 3333 
Q 1350 3163 1600 3163 
Q 1850 3163 2022 3333 
Q 2194 3503 2194 3750 
Q 2194 3997 2020 4172 
Q 1847 4347 1600 4347 
z
M 1600 4750 
Q 1800 4750 1984 4673 
Q 2169 4597 2303 4453 
Q 2447 4313 2519 4134 
Q 2591 3956 2591 3750 
Q 2591 3338 2302 3052 
Q 2013 2766 1594 2766 
Q 1172 2766 890 3047 
Q 609 3328 609 3750 
Q 609 4169 896 4459 
Q 1184 4750 1600 4750 
z
" transform="scale(0.015625)"/>
       <path id="DejaVuSans-43" d="M 4122 4306 
L 4122 3641 
Q 3803 3938 3442 4084 
Q 3081 4231 2675 4231 
Q 1875 4231 1450 3742 
Q 1025 3253 1025 2328 
Q 1025 1406 1450 917 
Q 1875 428 2675 428 
Q 3081 428 3442 575 
Q 3803 722 4122 1019 
L 4122 359 
Q 3791 134 3420 21 
Q 3050 -91 2638 -91 
Q 1578 -91 968 557 
Q 359 1206 359 2328 
Q 359 3453 968 4101 
Q 1578 4750 2638 4750 
Q 3056 4750 3426 4639 
Q 3797 4528 4122 4306 
z
" transform="scale(0.015625)"/>
       <path id="DejaVuSans-29" d="M 513 4856 
L 1013 4856 
Q 1481 4119 1714 3412 
Q 1947 2706 1947 2009 
Q 1947 1309 1714 600 
Q 1481 -109 1013 -844 
L 513 -844 
Q 928 -128 1133 580 
Q 1338 1288 1338 2009 
Q 1338 2731 1133 3434 
Q 928 4138 513 4856 
z
" transform="scale(0.015625)"/>
      </defs>
      <use xlink:href="#DejaVuSans-42"/>
      <use xlink:href="#DejaVuSans-75" transform="translate(68.603516 0)"/>
      <use xlink:href="#DejaVuSans-69" transform="translate(131.982422 0)"/>
      <use xlink:href="#DejaVuSans-74" transform="translate(159.765625 0)"/>
      <use xlink:href="#DejaVuSans-65" transform="translate(198.974609 0)"/>
      <use xlink:href="#DejaVuSans-6e" transform="translate(260.498047 0)"/>
      <use xlink:href="#DejaVuSans-20" transform="translate(323.876953 0)"/>
      <use xlink:href="#DejaVuSans-74" transform="translate(355.664062 0)"/>
      <use xlink:href="#DejaVuSans-65" transform="translate(394.873047 0)"/>
      <use xlink:href="#DejaVuSans-6d" transform="translate(456.396484 0)"/>
      <use xlink:href="#DejaVuSans-70" transform="translate(553.808594 0)"/>
      <use xlink:href="#DejaVuSans-65" transform="translate(617.285156 0)"/>
      <use xlink:href="#DejaVuSans-72" transform="translate(678.808594 0)"/>
      <use xlink:href="#DejaVuSans-61" transform="translate(719.921875 0)"/>
      <use xlink:href="#DejaVuSans-74" transform="translate(781.201172 0)"/>
      <use xlink:href="#DejaVuSans-75" transform="translate(820.410156 0)"/>
      <use xlink:href="#DejaVuSans-75" transform="translate(883.789062 0)"/>
      <use xlink:href="#DejaVuSans-72" transform="translate(947.167969 0)"/>
      <use xlink:href="#DejaVuSans-20" transform="translate(988.28125 0)"/>
      <use xlink:href="#DejaVuSans-28" transform="translate(1020.068359 0)"/>
      <use xlink:href="#DejaVuSans-b0" transform="translate(1059.082031 0)"/>
      <use xlink:href="#DejaVuSans-43" transform="translate(1109.082031 0)"/>
      <use xlink:href="#DejaVuSans-29" transform="translate(1178.90625 0)"/>
     </g>
    </g>
   </g>
   <g id="line2d_13">
    <path d="M 78.334626 180.180779 
L 81.888797 182.167518 
L 85.442968 183.302797 
L 92.55131 185.289536 
L 96.105481 185.573356 
L 99.659652 185.147626 
L 103.213824 183.586617 
L 106.767995 181.103194 
L 110.322166 177.058761 
L 113.876337 172.091914 
L 117.430508 165.776923 
L 120.984679 163.435409 
L 128.093021 153.359805 
L 131.647193 148.818688 
L 135.201364 142.290832 
L 138.755535 140.871733 
L 142.309706 145.55476 
L 145.863877 134.769607 
L 149.418048 126.964562 
L 152.972219 121.004345 
L 156.52639 91.345173 
L 160.080561 60.550722 
L 163.634733 45.295406 
L 167.188904 56.577244 
L 170.743075 87.371696 
L 174.297246 112.48975 
L 177.851417 121.288165 
L 181.405588 130.512309 
L 184.959759 135.621066 
L 188.51393 136.472526 
L 192.068102 137.891625 
L 195.622273 136.898255 
L 199.176444 137.749715 
L 202.730615 144.987121 
L 206.284786 149.812058 
L 209.838957 154.069355 
L 213.393128 157.475193 
L 216.947299 159.887662 
L 224.055642 160.029571 
L 227.609813 160.455301 
L 231.163984 161.448671 
L 234.718155 162.15822 
L 238.272326 162.371085 
L 245.380668 163.435409 
L 248.93484 164.286869 
L 252.489011 163.435409 
L 256.043182 174.078653 
L 259.597353 176.207302 
L 263.151524 177.200671 
L 266.705695 177.058761 
L 270.259866 176.633031 
L 273.814037 176.065392 
L 280.92238 172.375734 
L 284.476551 168.544166 
L 288.030722 168.827986 
L 291.584893 165.564058 
L 295.139064 160.242436 
L 298.693235 157.759013 
L 302.247406 153.217896 
L 305.801578 149.173463 
L 309.355749 143.709931 
L 312.90992 139.026904 
L 316.464091 144.703301 
L 320.018262 147.257679 
L 323.572433 139.878364 
L 327.126604 142.574652 
L 330.680775 139.736454 
L 334.234947 146.1224 
L 337.789118 144.916166 
L 341.343289 156.623734 
L 344.89746 152.508346 
L 348.451631 140.446003 
L 352.005802 145.41285 
L 355.559973 154.495085 
L 359.114144 159.036202 
L 362.668316 159.461932 
L 366.222487 158.752382 
L 369.776658 159.603842 
L 373.330829 163.577319 
L 376.885 168.118437 
L 380.439171 170.814725 
L 383.993342 173.652923 
L 387.547513 175.497752 
L 391.101684 176.207302 
L 394.655856 177.058761 
L 398.210027 177.342581 
L 405.318369 178.76168 
L 408.87254 180.677464 
L 412.426711 180.606509 
L 415.980882 181.954653 
L 419.535053 183.444707 
L 423.089225 183.728527 
L 426.643396 184.721896 
L 430.197567 184.721896 
L 433.751738 184.934761 
L 437.305909 185.573356 
L 440.86008 186.566725 
L 444.414251 187.276275 
L 447.968422 187.418185 
L 451.522594 187.134365 
L 455.076765 185.147626 
L 458.630936 183.018977 
L 462.185107 181.883698 
L 465.739278 179.0455 
L 469.293449 177.484491 
L 472.84762 174.930112 
L 476.401791 170.247085 
L 479.955963 167.550797 
L 483.510134 164.996418 
L 487.064305 160.171481 
L 490.618476 157.191373 
L 494.172647 153.359805 
L 497.726818 145.83858 
L 501.280989 105.110435 
L 504.83516 92.764272 
L 508.389332 105.819984 
L 511.943503 115.753678 
L 515.497674 143.426112 
L 519.051845 152.508346 
L 522.606016 157.759013 
L 526.160187 162.30013 
L 533.268529 169.679446 
L 536.822701 170.247085 
L 540.376872 167.976527 
L 543.931043 169.537536 
L 547.485214 176.207302 
L 554.593556 181.316059 
L 558.147727 181.741788 
L 561.701898 181.741788 
L 565.25607 181.599878 
L 568.810241 180.464599 
L 572.364412 179.61314 
L 575.918583 179.32932 
L 579.472754 180.038869 
L 586.581096 179.47123 
L 590.135267 180.038869 
L 593.689439 181.883698 
L 597.24361 184.154257 
L 600.797781 186.282905 
L 604.351952 186.850545 
L 607.906123 187.702005 
L 611.460294 187.985824 
L 615.014465 186.850545 
L 618.568636 185.147626 
L 622.122807 183.302797 
L 622.122807 183.302797 
" clip-path="url(#p658da44f15)" style="fill: none; stroke: #1f77b4; stroke-width: 2; stroke-linecap: square"/>
   </g>
   <g id="line2d_14">
    <path d="M 74.780455 171.183691 
L 78.334626 174.524655 
L 81.888797 176.815487 
L 85.442968 178.396769 
L 88.997139 179.673958 
L 92.55131 180.515281 
L 96.105481 181.478241 
L 99.659652 181.903971 
L 103.213824 180.772071 
L 106.767995 180.626782 
L 110.322166 178.974545 
L 113.876337 176.633031 
L 117.430508 173.318421 
L 120.984679 170.966771 
L 124.53885 166.952748 
L 128.093021 162.523131 
L 135.201364 154.312629 
L 138.755535 152.031934 
L 142.309706 152.538755 
L 145.863877 145.281077 
L 149.418048 140.446003 
L 152.972219 137.526714 
L 156.52639 130.451491 
L 160.080561 124.683866 
L 163.634733 118.319883 
L 167.188904 118.308057 
L 170.743075 122.210579 
L 174.297246 114.902219 
L 177.851417 109.225822 
L 181.405588 112.253234 
L 184.959759 114.334579 
L 188.51393 120.010976 
L 195.622273 123.771588 
L 199.176444 125.261643 
L 202.730615 125.687372 
L 206.284786 127.319336 
L 209.838957 128.336357 
L 213.393128 131.127252 
L 216.947299 135.360898 
L 220.501471 140.97107 
L 224.055642 145.881153 
L 227.609813 147.636106 
L 231.163984 146.619085 
L 234.718155 150.970989 
L 238.272326 153.797361 
L 241.826497 154.376827 
L 245.380668 155.654016 
L 252.489011 156.635559 
L 256.043182 160.407998 
L 259.597353 162.110917 
L 263.151524 168.345492 
L 266.705695 165.87153 
L 270.259866 166.699337 
L 273.814037 168.686076 
L 277.368209 169.076328 
L 280.92238 170.786343 
L 284.476551 165.280238 
L 288.030722 166.486473 
L 291.584893 162.640714 
L 295.139064 161.945355 
L 298.693235 158.794955 
L 302.247406 157.297806 
L 309.355749 153.241547 
L 312.90992 151.585932 
L 316.464091 151.633235 
L 320.018262 149.12616 
L 323.572433 146.808298 
L 327.126604 146.429871 
L 330.680775 144.809733 
L 334.234947 144.76243 
L 337.789118 145.885883 
L 341.343289 147.967229 
L 344.89746 148.262874 
L 348.451631 145.058076 
L 352.005802 147.707061 
L 355.559973 149.102508 
L 359.114144 148.582172 
L 362.668316 149.315373 
L 366.222487 146.311613 
L 369.776658 151.869751 
L 373.330829 156.529127 
L 376.885 158.586821 
L 380.439171 159.130809 
L 383.993342 162.371085 
L 387.547513 165.824226 
L 391.101684 170.616051 
L 394.655856 168.236695 
L 398.210027 169.147283 
L 401.764198 171.240455 
L 405.318369 172.068262 
L 408.87254 170.767422 
L 412.426711 173.002503 
L 419.535053 176.479296 
L 423.089225 177.68553 
L 426.643396 179.352971 
L 430.197567 179.731398 
L 433.751738 180.949458 
L 440.86008 182.628725 
L 447.968422 183.515662 
L 451.522594 183.586617 
L 455.076765 183.787656 
L 458.630936 183.740353 
L 462.185107 183.243668 
L 465.739278 181.576227 
L 469.293449 180.653812 
L 472.84762 179.388449 
L 476.401791 177.839266 
L 479.955963 176.159998 
L 483.510134 174.279692 
L 487.064305 171.879049 
L 490.618476 170.329866 
L 494.172647 168.260346 
L 497.726818 164.665295 
L 501.280989 155.985139 
L 504.83516 152.165397 
L 508.389332 154.897163 
L 511.943503 155.866881 
L 515.497674 158.823337 
L 519.051845 156.931205 
L 522.606016 152.271829 
L 526.160187 150.308742 
L 529.714358 155.748622 
L 533.268529 156.008791 
L 536.822701 161.921704 
L 540.376872 162.347433 
L 543.931043 165.635013 
L 547.485214 166.486473 
L 551.039385 163.600971 
L 554.593556 166.108046 
L 558.147727 166.320911 
L 561.701898 170.270737 
L 565.25607 171.973656 
L 568.810241 174.528034 
L 572.364412 175.710617 
L 575.918583 177.933872 
L 579.472754 178.950893 
L 583.026925 180.937632 
L 590.135267 183.030803 
L 597.24361 185.265884 
L 600.797781 186.744113 
L 607.906123 189.121104 
L 611.460294 189.960737 
L 615.014465 190.20908 
L 618.568636 189.49007 
L 622.122807 189.234632 
L 625.676979 190.167689 
L 629.23115 190.161776 
L 632.785321 189.026497 
L 636.339492 187.34723 
L 639.893663 189.263014 
L 643.447834 191.959302 
L 647.002005 191.817392 
L 650.556176 193.875086 
L 654.110348 194.087951 
L 657.664519 193.662221 
L 661.21869 193.662221 
L 664.772861 194.087951 
L 668.327032 192.810762 
L 671.881203 191.391662 
L 675.435374 189.546834 
L 678.989545 187.06341 
L 678.989545 187.06341 
" clip-path="url(#p658da44f15)" style="fill: none; stroke-dasharray: 5.55,2.4; stroke-dashoffset: 0; stroke: #808080; stroke-width: 1.5"/>
   </g>
   <g id="patch_3">
    <path d="M 44.57 246.04 
L 44.57 26.88 
" style="fill: none; stroke: #000000; stroke-width: 0.8; stroke-linejoin: miter; stroke-linecap: square"/>
   </g>
   <g id="patch_4">
    <path d="M 709.2 246.04 
L 709.2 26.88 
" style="fill: none; stroke: #000000; stroke-width: 0.8; stroke-linejoin: miter; stroke-linecap: square"/>
   </g>
   <g id="patch_5">
    <path d="M 44.57 246.04 
L 709.2 246.04 
" style="fill: none; stroke: #000000; stroke-width: 0.8; stroke-linejoin: miter; stroke-linecap: square"/>
   </g>
   <g id="patch_6">
    <path d="M 44.57 26.88 
L 709.2 26.88 
" style="fill: none; stroke: #000000; stroke-width: 0.8; stroke-linejoin: miter; stroke-linecap: square"/>
   </g>
   <g id="text_15">
    <!-- Buiten temperatuur - v001/c00001/d021 -->
    <g transform="translate(254.91625 20.88) scale(0.12 -0.12)">
     <defs>
      <path id="DejaVuSans-76" d="M 191 3500 
L 800 3500 
L 1894 563 
L 2988 3500 
L 3597 3500 
L 2284 0 
L 1503 0 
L 191 3500 
z
" transform="scale(0.015625)"/>
      <path id="DejaVuSans-2f" d="M 1625 4666 
L 2156 4666 
L 531 -594 
L 0 -594 
L 1625 4666 
z
" transform="scale(0.015625)"/>
      <path id="DejaVuSans-63" d="M 3122 3366 
L 3122 2828 
Q 2878 2963 2633 3030 
Q 2388 3097 2138 3097 
Q 1578 3097 1268 2742 
Q 959 2388 959 1747 
Q 959 1106 1268 751 
Q 1578 397 2138 397 
Q 2388 397 2633 464 
Q 2878 531 3122 666 
L 3122 134 
Q 2881 22 2623 -34 
Q 2366 -91 2075 -91 
Q 1284 -91 818 406 
Q 353 903 353 1747 
Q 353 2603 823 3093 
Q 1294 3584 2113 3584 
Q 2378 3584 2631 3529 
Q 2884 3475 3122 3366 
z
" transform="scale(0.015625)"/>
     </defs>
     <use xlink:href="#DejaVuSans-42"/>
     <use xlink:href="#DejaVuSans-75" transform="translate(68.603516 0)"/>
     <use xlink:href="#DejaVuSans-69" transform="translate(131.982422 0)"/>
     <use xlink:href="#DejaVuSans-74" transform="translate(159.765625 0)"/>
     <use xlink:href="#DejaVuSans-65" transform="translate(198.974609 0)"/>
     <use xlink:href="#DejaVuSans-6e" transform="translate(260.498047 0)"/>
     <use xlink:href="#DejaVuSans-20" transform="translate(323.876953 0)"/>
     <use xlink:href="#DejaVuSans-74" transform="translate(355.664062 0)"/>
     <use xlink:href="#DejaVuSans-65" transform="translate(394.873047 0)"/>
     <use xlink:href="#DejaVuSans-6d" transform="translate(456.396484 0)"/>
     <use xlink:href="#DejaVuSans-70" transform="translate(553.808594 0)"/>
     <use xlink:href="#DejaVuSans-65" transform="translate(617.285156 0)"/>
     <use xlink:href="#DejaVuSans-72" transform="translate(678.808594 0)"/>
     <use xlink:href="#DejaVuSans-61" transform="translate(719.921875 0)"/>
     <use xlink:href="#DejaVuSans-74" transform="translate(781.201172 0)"/>
     <use xlink:href="#DejaVuSans-75" transform="translate(820.410156 0)"/>
     <use xlink:href="#DejaVuSans-75" transform="translate(883.789062 0)"/>
     <use xlink:href="#DejaVuSans-72" transform="translate(947.167969 0)"/>
     <use xlink:href="#DejaVuSans-20" transform="translate(988.28125 0)"/>
     <use xlink:href="#DejaVuSans-2d" transform="translate(1020.068359 0)"/>
     <use xlink:href="#DejaVuSans-20" transform="translate(1056.152344 0)"/>
     <use xlink:href="#DejaVuSans-76" transform="translate(1087.939453 0)"/>
     <use xlink:href="#DejaVuSans-30" transform="translate(1147.119141 0)"/>
     <use xlink:href="#DejaVuSans-30" transform="translate(1210.742188 0)"/>
     <use xlink:href="#DejaVuSans-31" transform="translate(1274.365234 0)"/>
     <use xlink:href="#DejaVuSans-2f" transform="translate(1337.988281 0)"/>
     <use xlink:href="#DejaVuSans-63" transform="translate(1371.679688 0)"/>
     <use xlink:href="#DejaVuSans-30" transform="translate(1426.660156 0)"/>
     <use xlink:href="#DejaVuSans-30" transform="translate(1490.283203 0)"/>
     <use xlink:href="#DejaVuSans-30" transform="translate(1553.90625 0)"/>
     <use xlink:href="#DejaVuSans-30" transform="translate(1617.529297 0)"/>
     <use xlink:href="#DejaVuSans-31" transform="translate(1681.152344 0)"/>
     <use xlink:href="#DejaVuSans-2f" transform="translate(1744.775391 0)"/>
     <use xlink:href="#DejaVuSans-64" transform="translate(1778.466797 0)"/>
     <use xlink:href="#DejaVuSans-30" transform="translate(1841.943359 0)"/>
     <use xlink:href="#DejaVuSans-32" transform="translate(1905.566406 0)"/>
     <use xlink:href="#DejaVuSans-31" transform="translate(1969.189453 0)"/>
    </g>
   </g>
   <g id="legend_1">
    <g id="patch_7">
     <path d="M 551.25625 78.914375 
L 702.2 78.914375 
Q 704.2 78.914375 704.2 76.914375 
L 704.2 33.88 
Q 704.2 31.88 702.2 31.88 
L 551.25625 31.88 
Q 549.25625 31.88 549.25625 33.88 
L 549.25625 76.914375 
Q 549.25625 78.914375 551.25625 78.914375 
z
" style="fill: #ffffff; opacity: 0.8; stroke: #cccccc; stroke-linejoin: miter"/>
    </g>
    <g id="line2d_15">
     <path d="M 553.25625 39.978438 
L 563.25625 39.978438 
L 573.25625 39.978438 
" style="fill: none; stroke: #1f77b4; stroke-width: 2; stroke-linecap: square"/>
    </g>
    <g id="text_16">
     <!-- Hive -->
     <g transform="translate(581.25625 43.478438) scale(0.1 -0.1)">
      <defs>
       <path id="DejaVuSans-48" d="M 628 4666 
L 1259 4666 
L 1259 2753 
L 3553 2753 
L 3553 4666 
L 4184 4666 
L 4184 0 
L 3553 0 
L 3553 2222 
L 1259 2222 
L 1259 0 
L 628 0 
L 628 4666 
z
" transform="scale(0.015625)"/>
      </defs>
      <use xlink:href="#DejaVuSans-48"/>
      <use xlink:href="#DejaVuSans-69" transform="translate(75.195312 0)"/>
      <use xlink:href="#DejaVuSans-76" transform="translate(102.978516 0)"/>
      <use xlink:href="#DejaVuSans-65" transform="translate(162.158203 0)"/>
     </g>
    </g>
    <g id="line2d_16">
     <path d="M 553.25625 54.656563 
L 563.25625 54.656563 
L 573.25625 54.656563 
" style="fill: none; stroke-dasharray: 5.55,2.4; stroke-dashoffset: 0; stroke: #808080; stroke-width: 1.5"/>
    </g>
    <g id="text_17">
     <!-- Gemiddelde (alle hives) -->
     <g transform="translate(581.25625 58.156563) scale(0.1 -0.1)">
      <defs>
       <path id="DejaVuSans-47" d="M 3809 666 
L 3809 1919 
L 2778 1919 
L 2778 2438 
L 4434 2438 
L 4434 434 
Q 4069 175 3628 42 
Q 3188 -91 2688 -91 
Q 1594 -91 976 548 
Q 359 1188 359 2328 
Q 359 3472 976 4111 
Q 1594 4750 2688 4750 
Q 3144 4750 3555 4637 
Q 3966 4525 4313 4306 
L 4313 3634 
Q 3963 3931 3569 4081 
Q 3175 4231 2741 4231 
Q 1884 4231 1454 3753 
Q 1025 3275 1025 2328 
Q 1025 1384 1454 906 
Q 1884 428 2741 428 
Q 3075 428 3337 486 
Q 3600 544 3809 666 
z
" transform="scale(0.015625)"/>
       <path id="DejaVuSans-6c" d="M 603 4863 
L 1178 4863 
L 1178 0 
L 603 0 
L 603 4863 
z
" transform="scale(0.015625)"/>
       <path id="DejaVuSans-68" d="M 3513 2113 
L 3513 0 
L 2938 0 
L 2938 2094 
Q 2938 2591 2744 2837 
Q 2550 3084 2163 3084 
Q 1697 3084 1428 2787 
Q 1159 2491 1159 1978 
L 1159 0 
L 581 0 
L 581 4863 
L 1159 4863 
L 1159 2956 
Q 1366 3272 1645 3428 
Q 1925 3584 2291 3584 
Q 2894 3584 3203 3211 
Q 3513 2838 3513 2113 
z
" transform="scale(0.015625)"/>
       <path id="DejaVuSans-73" d="M 2834 3397 
L 2834 2853 
Q 2591 2978 2328 3040 
Q 2066 3103 1784 3103 
Q 1356 3103 1142 2972 
Q 928 2841 928 2578 
Q 928 2378 1081 2264 
Q 1234 2150 1697 2047 
L 1894 2003 
Q 2506 1872 2764 1633 
Q 3022 1394 3022 966 
Q 3022 478 2636 193 
Q 2250 -91 1575 -91 
Q 1294 -91 989 -36 
Q 684 19 347 128 
L 347 722 
Q 666 556 975 473 
Q 1284 391 1588 391 
Q 1994 391 2212 530 
Q 2431 669 2431 922 
Q 2431 1156 2273 1281 
Q 2116 1406 1581 1522 
L 1381 1569 
Q 847 1681 609 1914 
Q 372 2147 372 2553 
Q 372 3047 722 3315 
Q 1072 3584 1716 3584 
Q 2034 3584 2315 3537 
Q 2597 3491 2834 3397 
z
" transform="scale(0.015625)"/>
      </defs>
      <use xlink:href="#DejaVuSans-47"/>
      <use xlink:href="#DejaVuSans-65" transform="translate(77.490234 0)"/>
      <use xlink:href="#DejaVuSans-6d" transform="translate(139.013672 0)"/>
      <use xlink:href="#DejaVuSans-69" transform="translate(236.425781 0)"/>
      <use xlink:href="#DejaVuSans-64" transform="translate(264.208984 0)"/>
      <use xlink:href="#DejaVuSans-64" transform="translate(327.685547 0)"/>
      <use xlink:href="#DejaVuSans-65" transform="translate(391.162109 0)"/>
      <use xlink:href="#DejaVuSans-6c" transform="translate(452.685547 0)"/>
      <use xlink:href="#DejaVuSans-64" transform="translate(480.46875 0)"/>
      <use xlink:href="#DejaVuSans-65" transform="translate(543.945312 0)"/>
      <use xlink:href="#DejaVuSans-20" transform="translate(605.46875 0)"/>
      <use xlink:href="#DejaVuSans-28" transform="translate(637.255859 0)"/>
      <use xlink:href="#DejaVuSans-61" transform="translate(676.269531 0)"/>
      <use xlink:href="#DejaVuSans-6c" transform="translate(737.548828 0)"/>
      <use xlink:href="#DejaVuSans-6c" transform="translate(765.332031 0)"/>
      <use xlink:href="#DejaVuSans-65" transform="translate(793.115234 0)"/>
      <use xlink:href="#DejaVuSans-20" transform="translate(854.638672 0)"/>
      <use xlink:href="#DejaVuSans-68" transform="translate(886.425781 0)"/>
      <use xlink:href="#DejaVuSans-69" transform="translate(949.804688 0)"/>
      <use xlink:href="#DejaVuSans-76" transform="translate(977.587891 0)"/>
      <use xlink:href="#DejaVuSans-65" transform="translate(1036.767578 0)"/>
      <use xlink:href="#DejaVuSans-73" transform="translate(1098.291016 0)"/>
      <use xlink:href="#DejaVuSans-29" transform="translate(1150.390625 0)"/>
     </g>
    </g>
    <g id="patch_8">
     <path d="M 553.25625 72.834688 
L 573.25625 72.834688 
L 573.25625 65.834688 
L 553.25625 65.834688 
z
" style="fill: #808080; fill-opacity: 0.2; stroke: #808080; stroke-opacity: 0.2; stroke-linejoin: miter"/>
    </g>
    <g id="text_18">
     <!-- ±2 Std Dev -->
     <g transform="translate(581.25625 72.834688) scale(0.1 -0.1)">
      <defs>
       <path id="DejaVuSans-b1" d="M 2944 4013 
L 2944 2803 
L 4684 2803 
L 4684 2272 
L 2944 2272 
L 2944 1063 
L 2419 1063 
L 2419 2272 
L 678 2272 
L 678 2803 
L 2419 2803 
L 2419 4013 
L 2944 4013 
z
M 678 531 
L 4684 531 
L 4684 0 
L 678 0 
L 678 531 
z
" transform="scale(0.015625)"/>
       <path id="DejaVuSans-53" d="M 3425 4513 
L 3425 3897 
Q 3066 4069 2747 4153 
Q 2428 4238 2131 4238 
Q 1616 4238 1336 4038 
Q 1056 3838 1056 3469 
Q 1056 3159 1242 3001 
Q 1428 2844 1947 2747 
L 2328 2669 
Q 3034 2534 3370 2195 
Q 3706 1856 3706 1288 
Q 3706 609 3251 259 
Q 2797 -91 1919 -91 
Q 1588 -91 1214 -16 
Q 841 59 441 206 
L 441 856 
Q 825 641 1194 531 
Q 1563 422 1919 422 
Q 2459 422 2753 634 
Q 3047 847 3047 1241 
Q 3047 1584 2836 1778 
Q 2625 1972 2144 2069 
L 1759 2144 
Q 1053 2284 737 2584 
Q 422 2884 422 3419 
Q 422 4038 858 4394 
Q 1294 4750 2059 4750 
Q 2388 4750 2728 4690 
Q 3069 4631 3425 4513 
z
" transform="scale(0.015625)"/>
       <path id="DejaVuSans-44" d="M 1259 4147 
L 1259 519 
L 2022 519 
Q 2988 519 3436 956 
Q 3884 1394 3884 2338 
Q 3884 3275 3436 3711 
Q 2988 4147 2022 4147 
L 1259 4147 
z
M 628 4666 
L 1925 4666 
Q 3281 4666 3915 4102 
Q 4550 3538 4550 2338 
Q 4550 1131 3912 565 
Q 3275 0 1925 0 
L 628 0 
L 628 4666 
z
" transform="scale(0.015625)"/>
      </defs>
      <use xlink:href="#DejaVuSans-b1"/>
      <use xlink:href="#DejaVuSans-32" transform="translate(83.789062 0)"/>
      <use xlink:href="#DejaVuSans-20" transform="translate(147.412109 0)"/>
      <use xlink:href="#DejaVuSans-53" transform="translate(179.199219 0)"/>
      <use xlink:href="#DejaVuSans-74" transform="translate(242.675781 0)"/>
      <use xlink:href="#DejaVuSans-64" transform="translate(281.884766 0)"/>
      <use xlink:href="#DejaVuSans-20" transform="translate(345.361328 0)"/>
      <use xlink:href="#DejaVuSans-44" transform="translate(377.148438 0)"/>
      <use xlink:href="#DejaVuSans-65" transform="translate(454.150391 0)"/>
      <use xlink:href="#DejaVuSans-76" transform="translate(515.673828 0)"/>
     </g>
    </g>
   </g>
  </g>
 </g>
 <defs>
  <clipPath id="p658da44f15">
   <rect x="44.57" y="26.88" width="664.63" height="219.16"/>
  </clipPath>
 </defs>
</svg>
