<?xml version="1.0" encoding="utf-8" standalone="no"?>
<!DOCTYPE svg PUBLIC "-//W3C//DTD SVG 1.1//EN"
  "http://www.w3.org/Graphics/SVG/1.1/DTD/svg11.dtd">
<svg xmlns:xlink="http://www.w3.org/1999/xlink" width="720pt" height="288pt" viewBox="0 0 720 288" xmlns="http://www.w3.org/2000/svg" version="1.1">
 <metadata>
  <rdf:RDF xmlns:dc="http://purl.org/dc/elements/1.1/" xmlns:cc="http://creativecommons.org/ns#" xmlns:rdf="http://www.w3.org/1999/02/22-rdf-syntax-ns#">
   <cc:Work>
    <dc:type rdf:resource="http://purl.org/dc/dcmitype/StillImage"/>
    <dc:date>2025-06-05T15:17:57.360856</dc:date>
    <dc:format>image/svg+xml</dc:format>
    <dc:creator>
     <cc:Agent>
      <dc:title>Matplotlib v3.10.3, https://matplotlib.org/</dc:title>
     </cc:Agent>
    </dc:creator>
   </cc:Work>
  </rdf:RDF>
 </metadata>
 <defs>
  <style type="text/css">*{stroke-linejoin: round; stroke-linecap: butt}</style>
 </defs>
 <g id="figure_1">
  <g id="patch_1">
   <path d="M 0 288 
L 720 288 
L 720 0 
L 0 0 
z
" style="fill: #ffffff"/>
  </g>
  <g id="axes_1">
   <g id="patch_2">
    <path d="M 63.47 246.04 
L 709.2 246.04 
L 709.2 26.88 
L 63.47 26.88 
z
" style="fill: #ffffff"/>
   </g>
   <g id="FillBetweenPolyCollection_1">
    <defs>
     <path id="mb6a2baa844" d="M 92.821364 -190.914855 
L 92.821364 -69.893193 
L 96.658143 -75.404738 
L 100.494923 -72.541281 
L 104.331702 -76.538931 
L 108.168482 -65.428468 
L 112.005261 -63.159833 
L 115.842041 -65.34453 
L 119.678821 -51.921818 
L 123.5156 -71.128469 
L 127.35238 -71.117001 
L 131.189159 -57.455136 
L 135.025939 -61.054705 
L 138.862718 -62.744778 
L 142.699498 -64.73693 
L 146.536277 -59.037149 
L 150.373057 -63.426098 
L 154.209837 -72.066879 
L 158.046616 -82.402765 
L 161.883396 -82.617822 
L 165.720175 -82.152507 
L 169.556955 -68.208552 
L 173.393734 -80.244432 
L 177.230514 -92.895746 
L 181.067294 -97.15165 
L 184.904073 -88.747889 
L 188.740853 -101.334203 
L 192.577632 -109.847386 
L 196.414412 -102.780089 
L 200.251191 -102.758301 
L 204.087971 -93.852584 
L 207.92475 -87.693605 
L 211.76153 -102.352682 
L 215.59831 -105.808063 
L 219.435089 -115.620432 
L 223.271869 -133.458409 
L 227.108648 -122.473261 
L 230.945428 -111.380122 
L 234.782207 -111.251304 
L 238.618987 -109.345967 
L 242.455766 -116.98893 
L 246.292546 -99.314174 
L 250.129326 -85.659404 
L 253.966105 -98.774755 
L 257.802885 -101.676726 
L 261.639664 -95.426831 
L 265.476444 -90.650512 
L 269.313223 -84.391477 
L 273.150003 -78.469863 
L 276.986783 -70.212373 
L 280.823562 -67.707299 
L 284.660342 -81.825851 
L 288.497121 -91.707545 
L 292.333901 -76.672904 
L 296.17068 -77.708209 
L 300.00746 -77.479835 
L 303.844239 -55.467705 
L 307.681019 -74.273519 
L 311.517799 -72.921616 
L 315.354578 -79.228877 
L 319.191358 -70.224352 
L 323.028137 -54.949217 
L 326.864917 -78.418006 
L 330.701696 -74.336365 
L 334.538476 -76.053475 
L 338.375255 -83.773608 
L 342.212035 -89.701818 
L 346.048815 -94.148594 
L 349.885594 -98.643852 
L 353.722374 -103.401576 
L 357.559153 -109.195137 
L 361.395933 -101.370242 
L 365.232712 -87.60628 
L 369.069492 -89.802934 
L 372.906272 -90.232944 
L 376.743051 -99.301513 
L 380.579831 -105.922378 
L 384.41661 -94.956103 
L 388.25339 -123.200609 
L 392.090169 -83.990876 
L 395.926949 -127.722138 
L 399.763728 -118.405895 
L 403.600508 -74.262124 
L 407.437288 -81.433963 
L 411.274067 -97.772043 
L 415.110847 -105.661012 
L 418.947626 -98.048025 
L 422.784406 -99.842144 
L 426.621185 -89.931086 
L 430.457965 -88.763637 
L 434.294745 -85.301122 
L 438.131524 -84.313293 
L 441.968304 -81.212901 
L 445.805083 -88.679569 
L 449.641863 -88.00508 
L 453.478642 -91.999908 
L 457.315422 -79.475844 
L 461.152201 -89.212814 
L 464.988981 -92.054742 
L 468.825761 -77.242496 
L 472.66254 -79.383931 
L 476.49932 -86.430136 
L 480.336099 -81.913634 
L 484.172879 -63.091158 
L 488.009658 -71.228304 
L 491.846438 -60.145428 
L 495.683217 -73.108036 
L 499.519997 -70.102378 
L 503.356777 -74.11 
L 507.193556 -62.724709 
L 511.030336 -71.981117 
L 514.867115 -74.189829 
L 518.703895 -73.548316 
L 522.540674 -81.958549 
L 526.377454 -92.772122 
L 530.214234 -113.595972 
L 534.051013 -122.293531 
L 537.887793 -116.986399 
L 541.724572 -113.669724 
L 545.561352 -99.152721 
L 549.398131 -108.598563 
L 553.234911 -101.647396 
L 557.07169 -92.654116 
L 560.90847 -104.507283 
L 564.74525 -120.435388 
L 568.582029 -116.046608 
L 572.418809 -117.223902 
L 576.255588 -106.053458 
L 580.092368 -99.439728 
L 583.929147 -130.904492 
L 587.765927 -125.226214 
L 591.602706 -122.598179 
L 595.439486 -113.879917 
L 599.276266 -106.155779 
L 603.113045 -98.609665 
L 606.949825 -103.528429 
L 610.786604 -94.041483 
L 614.623384 -117.792743 
L 618.460163 -91.606469 
L 622.296943 -94.256883 
L 626.133723 -85.251764 
L 629.970502 -83.222127 
L 633.807282 -77.38822 
L 637.644061 -76.274673 
L 641.480841 -84.316519 
L 645.31762 -86.941495 
L 649.1544 -78.436395 
L 652.991179 -66.213756 
L 656.827959 -86.556571 
L 660.664739 -80.729549 
L 664.501518 -83.583357 
L 668.338298 -83.166729 
L 672.175077 -77.613283 
L 676.011857 -66.37871 
L 679.848636 -85.714765 
L 679.848636 -142.721781 
L 679.848636 -142.721781 
L 676.011857 -166.053028 
L 672.175077 -160.461173 
L 668.338298 -180.539362 
L 664.501518 -151.827053 
L 660.664739 -150.925122 
L 656.827959 -159.863331 
L 652.991179 -166.340753 
L 649.1544 -161.511122 
L 645.31762 -159.614333 
L 641.480841 -165.934148 
L 637.644061 -167.927546 
L 633.807282 -175.470369 
L 629.970502 -151.381011 
L 626.133723 -155.972269 
L 622.296943 -149.216501 
L 618.460163 -168.568721 
L 614.623384 -145.018626 
L 610.786604 -172.901247 
L 606.949825 -152.961178 
L 603.113045 -164.773176 
L 599.276266 -161.843176 
L 595.439486 -161.420049 
L 591.602706 -168.234827 
L 587.765927 -168.548438 
L 583.929147 -160.898019 
L 580.092368 -187.644117 
L 576.255588 -203.273722 
L 572.418809 -172.706831 
L 568.582029 -164.489663 
L 564.74525 -168.819613 
L 560.90847 -176.17417 
L 557.07169 -179.371942 
L 553.234911 -173.46622 
L 549.398131 -155.25474 
L 545.561352 -157.643815 
L 541.724572 -150.180168 
L 537.887793 -151.535634 
L 534.051013 -151.68729 
L 530.214234 -165.90275 
L 526.377454 -155.222862 
L 522.540674 -162.38739 
L 518.703895 -169.574779 
L 514.867115 -148.877653 
L 511.030336 -152.7925 
L 507.193556 -161.001452 
L 503.356777 -151.392451 
L 499.519997 -153.27593 
L 495.683217 -155.172853 
L 491.846438 -175.745837 
L 488.009658 -172.283081 
L 484.172879 -178.134337 
L 480.336099 -170.547896 
L 476.49932 -164.375277 
L 472.66254 -160.075018 
L 468.825761 -154.520819 
L 464.988981 -148.239249 
L 461.152201 -139.997307 
L 457.315422 -153.389004 
L 453.478642 -158.558662 
L 449.641863 -165.279312 
L 445.805083 -158.064313 
L 441.968304 -165.02528 
L 438.131524 -167.708305 
L 434.294745 -157.866308 
L 430.457965 -156.508448 
L 426.621185 -161.613067 
L 422.784406 -174.044488 
L 418.947626 -179.834204 
L 415.110847 -146.351817 
L 411.274067 -161.759083 
L 407.437288 -165.844268 
L 403.600508 -187.699019 
L 399.763728 -148.713359 
L 395.926949 -166.328994 
L 392.090169 -210.866229 
L 388.25339 -168.12056 
L 384.41661 -158.907069 
L 380.579831 -149.165587 
L 376.743051 -142.336631 
L 372.906272 -163.704281 
L 369.069492 -154.611212 
L 365.232712 -158.154943 
L 361.395933 -142.0325 
L 357.559153 -145.287739 
L 353.722374 -162.703676 
L 349.885594 -160.578234 
L 346.048815 -151.39924 
L 342.212035 -137.026887 
L 338.375255 -138.168468 
L 334.538476 -137.484594 
L 330.701696 -140.028951 
L 326.864917 -135.331503 
L 323.028137 -167.361174 
L 319.191358 -137.544427 
L 315.354578 -124.718394 
L 311.517799 -153.733524 
L 307.681019 -139.759534 
L 303.844239 -169.010675 
L 300.00746 -159.015057 
L 296.17068 -145.474249 
L 292.333901 -151.73636 
L 288.497121 -146.393608 
L 284.660342 -154.927251 
L 280.823562 -160.161428 
L 276.986783 -181.79802 
L 273.150003 -169.16119 
L 269.313223 -168.301955 
L 265.476444 -167.244391 
L 261.639664 -170.181976 
L 257.802885 -159.070911 
L 253.966105 -162.668587 
L 250.129326 -209.066241 
L 246.292546 -194.357194 
L 242.455766 -175.75142 
L 238.618987 -201.558243 
L 234.782207 -181.721923 
L 230.945428 -201.996571 
L 227.108648 -196.711697 
L 223.271869 -212.756269 
L 219.435089 -244.05438 
L 215.59831 -240.90842 
L 211.76153 -246.645793 
L 207.92475 -250.106349 
L 204.087971 -244.150527 
L 200.251191 -220.301756 
L 196.414412 -232.760283 
L 192.577632 -212.871638 
L 188.740853 -232.686464 
L 184.904073 -251.158182 
L 181.067294 -226.535743 
L 177.230514 -222.182697 
L 173.393734 -225.322787 
L 169.556955 -228.429308 
L 165.720175 -215.61758 
L 161.883396 -203.591275 
L 158.046616 -186.586157 
L 154.209837 -189.642468 
L 150.373057 -186.147377 
L 146.536277 -172.445057 
L 142.699498 -174.216803 
L 138.862718 -181.701522 
L 135.025939 -173.677051 
L 131.189159 -176.390911 
L 127.35238 -153.179171 
L 123.5156 -158.526292 
L 119.678821 -170.268724 
L 115.842041 -168.568748 
L 112.005261 -182.278871 
L 108.168482 -170.776222 
L 104.331702 -176.071192 
L 100.494923 -175.057618 
L 96.658143 -162.447137 
L 92.821364 -190.914855 
z
" style="stroke: #808080; stroke-opacity: 0.2"/>
    </defs>
    <g clip-path="url(#p20616056e6)">
     <use xlink:href="#mb6a2baa844" x="0" y="288" style="fill: #808080; fill-opacity: 0.2; stroke: #808080; stroke-opacity: 0.2"/>
    </g>
   </g>
   <g id="matplotlib.axis_1">
    <g id="xtick_1">
     <g id="line2d_1">
      <defs>
       <path id="m7b225ad2a2" d="M 0 0 
L 0 3.5 
" style="stroke: #000000; stroke-width: 0.8"/>
      </defs>
      <g>
       <use xlink:href="#m7b225ad2a2" x="69.800686" y="246.04" style="stroke: #000000; stroke-width: 0.8"/>
      </g>
     </g>
     <g id="text_1">
      <!-- 06-02 12 -->
      <g transform="translate(47.320218 260.638438) scale(0.1 -0.1)">
       <defs>
        <path id="DejaVuSans-30" d="M 2034 4250 
Q 1547 4250 1301 3770 
Q 1056 3291 1056 2328 
Q 1056 1369 1301 889 
Q 1547 409 2034 409 
Q 2525 409 2770 889 
Q 3016 1369 3016 2328 
Q 3016 3291 2770 3770 
Q 2525 4250 2034 4250 
z
M 2034 4750 
Q 2819 4750 3233 4129 
Q 3647 3509 3647 2328 
Q 3647 1150 3233 529 
Q 2819 -91 2034 -91 
Q 1250 -91 836 529 
Q 422 1150 422 2328 
Q 422 3509 836 4129 
Q 1250 4750 2034 4750 
z
" transform="scale(0.015625)"/>
        <path id="DejaVuSans-36" d="M 2113 2584 
Q 1688 2584 1439 2293 
Q 1191 2003 1191 1497 
Q 1191 994 1439 701 
Q 1688 409 2113 409 
Q 2538 409 2786 701 
Q 3034 994 3034 1497 
Q 3034 2003 2786 2293 
Q 2538 2584 2113 2584 
z
M 3366 4563 
L 3366 3988 
Q 3128 4100 2886 4159 
Q 2644 4219 2406 4219 
Q 1781 4219 1451 3797 
Q 1122 3375 1075 2522 
Q 1259 2794 1537 2939 
Q 1816 3084 2150 3084 
Q 2853 3084 3261 2657 
Q 3669 2231 3669 1497 
Q 3669 778 3244 343 
Q 2819 -91 2113 -91 
Q 1303 -91 875 529 
Q 447 1150 447 2328 
Q 447 3434 972 4092 
Q 1497 4750 2381 4750 
Q 2619 4750 2861 4703 
Q 3103 4656 3366 4563 
z
" transform="scale(0.015625)"/>
        <path id="DejaVuSans-2d" d="M 313 2009 
L 1997 2009 
L 1997 1497 
L 313 1497 
L 313 2009 
z
" transform="scale(0.015625)"/>
        <path id="DejaVuSans-32" d="M 1228 531 
L 3431 531 
L 3431 0 
L 469 0 
L 469 531 
Q 828 903 1448 1529 
Q 2069 2156 2228 2338 
Q 2531 2678 2651 2914 
Q 2772 3150 2772 3378 
Q 2772 3750 2511 3984 
Q 2250 4219 1831 4219 
Q 1534 4219 1204 4116 
Q 875 4013 500 3803 
L 500 4441 
Q 881 4594 1212 4672 
Q 1544 4750 1819 4750 
Q 2544 4750 2975 4387 
Q 3406 4025 3406 3419 
Q 3406 3131 3298 2873 
Q 3191 2616 2906 2266 
Q 2828 2175 2409 1742 
Q 1991 1309 1228 531 
z
" transform="scale(0.015625)"/>
        <path id="DejaVuSans-20" transform="scale(0.015625)"/>
        <path id="DejaVuSans-31" d="M 794 531 
L 1825 531 
L 1825 4091 
L 703 3866 
L 703 4441 
L 1819 4666 
L 2450 4666 
L 2450 531 
L 3481 531 
L 3481 0 
L 794 0 
L 794 531 
z
" transform="scale(0.015625)"/>
       </defs>
       <use xlink:href="#DejaVuSans-30"/>
       <use xlink:href="#DejaVuSans-36" transform="translate(63.623047 0)"/>
       <use xlink:href="#DejaVuSans-2d" transform="translate(127.246094 0)"/>
       <use xlink:href="#DejaVuSans-30" transform="translate(163.330078 0)"/>
       <use xlink:href="#DejaVuSans-32" transform="translate(226.953125 0)"/>
       <use xlink:href="#DejaVuSans-20" transform="translate(290.576172 0)"/>
       <use xlink:href="#DejaVuSans-31" transform="translate(322.363281 0)"/>
       <use xlink:href="#DejaVuSans-32" transform="translate(385.986328 0)"/>
      </g>
     </g>
    </g>
    <g id="xtick_2">
     <g id="line2d_2">
      <g>
       <use xlink:href="#m7b225ad2a2" x="161.883396" y="246.04" style="stroke: #000000; stroke-width: 0.8"/>
      </g>
     </g>
     <g id="text_2">
      <!-- 06-03 00 -->
      <g transform="translate(139.402927 260.638438) scale(0.1 -0.1)">
       <defs>
        <path id="DejaVuSans-33" d="M 2597 2516 
Q 3050 2419 3304 2112 
Q 3559 1806 3559 1356 
Q 3559 666 3084 287 
Q 2609 -91 1734 -91 
Q 1441 -91 1130 -33 
Q 819 25 488 141 
L 488 750 
Q 750 597 1062 519 
Q 1375 441 1716 441 
Q 2309 441 2620 675 
Q 2931 909 2931 1356 
Q 2931 1769 2642 2001 
Q 2353 2234 1838 2234 
L 1294 2234 
L 1294 2753 
L 1863 2753 
Q 2328 2753 2575 2939 
Q 2822 3125 2822 3475 
Q 2822 3834 2567 4026 
Q 2313 4219 1838 4219 
Q 1578 4219 1281 4162 
Q 984 4106 628 3988 
L 628 4550 
Q 988 4650 1302 4700 
Q 1616 4750 1894 4750 
Q 2613 4750 3031 4423 
Q 3450 4097 3450 3541 
Q 3450 3153 3228 2886 
Q 3006 2619 2597 2516 
z
" transform="scale(0.015625)"/>
       </defs>
       <use xlink:href="#DejaVuSans-30"/>
       <use xlink:href="#DejaVuSans-36" transform="translate(63.623047 0)"/>
       <use xlink:href="#DejaVuSans-2d" transform="translate(127.246094 0)"/>
       <use xlink:href="#DejaVuSans-30" transform="translate(163.330078 0)"/>
       <use xlink:href="#DejaVuSans-33" transform="translate(226.953125 0)"/>
       <use xlink:href="#DejaVuSans-20" transform="translate(290.576172 0)"/>
       <use xlink:href="#DejaVuSans-30" transform="translate(322.363281 0)"/>
       <use xlink:href="#DejaVuSans-30" transform="translate(385.986328 0)"/>
      </g>
     </g>
    </g>
    <g id="xtick_3">
     <g id="line2d_3">
      <g>
       <use xlink:href="#m7b225ad2a2" x="253.966105" y="246.04" style="stroke: #000000; stroke-width: 0.8"/>
      </g>
     </g>
     <g id="text_3">
      <!-- 06-03 12 -->
      <g transform="translate(231.485636 260.638438) scale(0.1 -0.1)">
       <use xlink:href="#DejaVuSans-30"/>
       <use xlink:href="#DejaVuSans-36" transform="translate(63.623047 0)"/>
       <use xlink:href="#DejaVuSans-2d" transform="translate(127.246094 0)"/>
       <use xlink:href="#DejaVuSans-30" transform="translate(163.330078 0)"/>
       <use xlink:href="#DejaVuSans-33" transform="translate(226.953125 0)"/>
       <use xlink:href="#DejaVuSans-20" transform="translate(290.576172 0)"/>
       <use xlink:href="#DejaVuSans-31" transform="translate(322.363281 0)"/>
       <use xlink:href="#DejaVuSans-32" transform="translate(385.986328 0)"/>
      </g>
     </g>
    </g>
    <g id="xtick_4">
     <g id="line2d_4">
      <g>
       <use xlink:href="#m7b225ad2a2" x="346.048815" y="246.04" style="stroke: #000000; stroke-width: 0.8"/>
      </g>
     </g>
     <g id="text_4">
      <!-- 06-04 00 -->
      <g transform="translate(323.568346 260.638438) scale(0.1 -0.1)">
       <defs>
        <path id="DejaVuSans-34" d="M 2419 4116 
L 825 1625 
L 2419 1625 
L 2419 4116 
z
M 2253 4666 
L 3047 4666 
L 3047 1625 
L 3713 1625 
L 3713 1100 
L 3047 1100 
L 3047 0 
L 2419 0 
L 2419 1100 
L 313 1100 
L 313 1709 
L 2253 4666 
z
" transform="scale(0.015625)"/>
       </defs>
       <use xlink:href="#DejaVuSans-30"/>
       <use xlink:href="#DejaVuSans-36" transform="translate(63.623047 0)"/>
       <use xlink:href="#DejaVuSans-2d" transform="translate(127.246094 0)"/>
       <use xlink:href="#DejaVuSans-30" transform="translate(163.330078 0)"/>
       <use xlink:href="#DejaVuSans-34" transform="translate(226.953125 0)"/>
       <use xlink:href="#DejaVuSans-20" transform="translate(290.576172 0)"/>
       <use xlink:href="#DejaVuSans-30" transform="translate(322.363281 0)"/>
       <use xlink:href="#DejaVuSans-30" transform="translate(385.986328 0)"/>
      </g>
     </g>
    </g>
    <g id="xtick_5">
     <g id="line2d_5">
      <g>
       <use xlink:href="#m7b225ad2a2" x="438.131524" y="246.04" style="stroke: #000000; stroke-width: 0.8"/>
      </g>
     </g>
     <g id="text_5">
      <!-- 06-04 12 -->
      <g transform="translate(415.651055 260.638438) scale(0.1 -0.1)">
       <use xlink:href="#DejaVuSans-30"/>
       <use xlink:href="#DejaVuSans-36" transform="translate(63.623047 0)"/>
       <use xlink:href="#DejaVuSans-2d" transform="translate(127.246094 0)"/>
       <use xlink:href="#DejaVuSans-30" transform="translate(163.330078 0)"/>
       <use xlink:href="#DejaVuSans-34" transform="translate(226.953125 0)"/>
       <use xlink:href="#DejaVuSans-20" transform="translate(290.576172 0)"/>
       <use xlink:href="#DejaVuSans-31" transform="translate(322.363281 0)"/>
       <use xlink:href="#DejaVuSans-32" transform="translate(385.986328 0)"/>
      </g>
     </g>
    </g>
    <g id="xtick_6">
     <g id="line2d_6">
      <g>
       <use xlink:href="#m7b225ad2a2" x="530.214234" y="246.04" style="stroke: #000000; stroke-width: 0.8"/>
      </g>
     </g>
     <g id="text_6">
      <!-- 06-05 00 -->
      <g transform="translate(507.733765 260.638438) scale(0.1 -0.1)">
       <defs>
        <path id="DejaVuSans-35" d="M 691 4666 
L 3169 4666 
L 3169 4134 
L 1269 4134 
L 1269 2991 
Q 1406 3038 1543 3061 
Q 1681 3084 1819 3084 
Q 2600 3084 3056 2656 
Q 3513 2228 3513 1497 
Q 3513 744 3044 326 
Q 2575 -91 1722 -91 
Q 1428 -91 1123 -41 
Q 819 9 494 109 
L 494 744 
Q 775 591 1075 516 
Q 1375 441 1709 441 
Q 2250 441 2565 725 
Q 2881 1009 2881 1497 
Q 2881 1984 2565 2268 
Q 2250 2553 1709 2553 
Q 1456 2553 1204 2497 
Q 953 2441 691 2322 
L 691 4666 
z
" transform="scale(0.015625)"/>
       </defs>
       <use xlink:href="#DejaVuSans-30"/>
       <use xlink:href="#DejaVuSans-36" transform="translate(63.623047 0)"/>
       <use xlink:href="#DejaVuSans-2d" transform="translate(127.246094 0)"/>
       <use xlink:href="#DejaVuSans-30" transform="translate(163.330078 0)"/>
       <use xlink:href="#DejaVuSans-35" transform="translate(226.953125 0)"/>
       <use xlink:href="#DejaVuSans-20" transform="translate(290.576172 0)"/>
       <use xlink:href="#DejaVuSans-30" transform="translate(322.363281 0)"/>
       <use xlink:href="#DejaVuSans-30" transform="translate(385.986328 0)"/>
      </g>
     </g>
    </g>
    <g id="xtick_7">
     <g id="line2d_7">
      <g>
       <use xlink:href="#m7b225ad2a2" x="622.296943" y="246.04" style="stroke: #000000; stroke-width: 0.8"/>
      </g>
     </g>
     <g id="text_7">
      <!-- 06-05 12 -->
      <g transform="translate(599.816474 260.638438) scale(0.1 -0.1)">
       <use xlink:href="#DejaVuSans-30"/>
       <use xlink:href="#DejaVuSans-36" transform="translate(63.623047 0)"/>
       <use xlink:href="#DejaVuSans-2d" transform="translate(127.246094 0)"/>
       <use xlink:href="#DejaVuSans-30" transform="translate(163.330078 0)"/>
       <use xlink:href="#DejaVuSans-35" transform="translate(226.953125 0)"/>
       <use xlink:href="#DejaVuSans-20" transform="translate(290.576172 0)"/>
       <use xlink:href="#DejaVuSans-31" transform="translate(322.363281 0)"/>
       <use xlink:href="#DejaVuSans-32" transform="translate(385.986328 0)"/>
      </g>
     </g>
    </g>
    <g id="text_8">
     <!-- Tijd -->
     <g transform="translate(377.485 274.316562) scale(0.1 -0.1)">
      <defs>
       <path id="DejaVuSans-54" d="M -19 4666 
L 3928 4666 
L 3928 4134 
L 2272 4134 
L 2272 0 
L 1638 0 
L 1638 4134 
L -19 4134 
L -19 4666 
z
" transform="scale(0.015625)"/>
       <path id="DejaVuSans-69" d="M 603 3500 
L 1178 3500 
L 1178 0 
L 603 0 
L 603 3500 
z
M 603 4863 
L 1178 4863 
L 1178 4134 
L 603 4134 
L 603 4863 
z
" transform="scale(0.015625)"/>
       <path id="DejaVuSans-6a" d="M 603 3500 
L 1178 3500 
L 1178 -63 
Q 1178 -731 923 -1031 
Q 669 -1331 103 -1331 
L -116 -1331 
L -116 -844 
L 38 -844 
Q 366 -844 484 -692 
Q 603 -541 603 -63 
L 603 3500 
z
M 603 4863 
L 1178 4863 
L 1178 4134 
L 603 4134 
L 603 4863 
z
" transform="scale(0.015625)"/>
       <path id="DejaVuSans-64" d="M 2906 2969 
L 2906 4863 
L 3481 4863 
L 3481 0 
L 2906 0 
L 2906 525 
Q 2725 213 2448 61 
Q 2172 -91 1784 -91 
Q 1150 -91 751 415 
Q 353 922 353 1747 
Q 353 2572 751 3078 
Q 1150 3584 1784 3584 
Q 2172 3584 2448 3432 
Q 2725 3281 2906 2969 
z
M 947 1747 
Q 947 1113 1208 752 
Q 1469 391 1925 391 
Q 2381 391 2643 752 
Q 2906 1113 2906 1747 
Q 2906 2381 2643 2742 
Q 2381 3103 1925 3103 
Q 1469 3103 1208 2742 
Q 947 2381 947 1747 
z
" transform="scale(0.015625)"/>
      </defs>
      <use xlink:href="#DejaVuSans-54"/>
      <use xlink:href="#DejaVuSans-69" transform="translate(57.958984 0)"/>
      <use xlink:href="#DejaVuSans-6a" transform="translate(85.742188 0)"/>
      <use xlink:href="#DejaVuSans-64" transform="translate(113.525391 0)"/>
     </g>
    </g>
   </g>
   <g id="matplotlib.axis_2">
    <g id="ytick_1">
     <g id="line2d_8">
      <defs>
       <path id="m253d2a4181" d="M 0 0 
L -3.5 0 
" style="stroke: #000000; stroke-width: 0.8"/>
      </defs>
      <g>
       <use xlink:href="#m253d2a4181" x="63.47" y="235.68162" style="stroke: #000000; stroke-width: 0.8"/>
      </g>
     </g>
     <g id="text_9">
      <!-- 0 -->
      <g transform="translate(50.1075 239.480839) scale(0.1 -0.1)">
       <use xlink:href="#DejaVuSans-30"/>
      </g>
     </g>
    </g>
    <g id="ytick_2">
     <g id="line2d_9">
      <g>
       <use xlink:href="#m253d2a4181" x="63.47" y="210.104209" style="stroke: #000000; stroke-width: 0.8"/>
      </g>
     </g>
     <g id="text_10">
      <!-- 2500 -->
      <g transform="translate(31.02 213.903427) scale(0.1 -0.1)">
       <use xlink:href="#DejaVuSans-32"/>
       <use xlink:href="#DejaVuSans-35" transform="translate(63.623047 0)"/>
       <use xlink:href="#DejaVuSans-30" transform="translate(127.246094 0)"/>
       <use xlink:href="#DejaVuSans-30" transform="translate(190.869141 0)"/>
      </g>
     </g>
    </g>
    <g id="ytick_3">
     <g id="line2d_10">
      <g>
       <use xlink:href="#m253d2a4181" x="63.47" y="184.526798" style="stroke: #000000; stroke-width: 0.8"/>
      </g>
     </g>
     <g id="text_11">
      <!-- 5000 -->
      <g transform="translate(31.02 188.326016) scale(0.1 -0.1)">
       <use xlink:href="#DejaVuSans-35"/>
       <use xlink:href="#DejaVuSans-30" transform="translate(63.623047 0)"/>
       <use xlink:href="#DejaVuSans-30" transform="translate(127.246094 0)"/>
       <use xlink:href="#DejaVuSans-30" transform="translate(190.869141 0)"/>
      </g>
     </g>
    </g>
    <g id="ytick_4">
     <g id="line2d_11">
      <g>
       <use xlink:href="#m253d2a4181" x="63.47" y="158.949386" style="stroke: #000000; stroke-width: 0.8"/>
      </g>
     </g>
     <g id="text_12">
      <!-- 7500 -->
      <g transform="translate(31.02 162.748605) scale(0.1 -0.1)">
       <defs>
        <path id="DejaVuSans-37" d="M 525 4666 
L 3525 4666 
L 3525 4397 
L 1831 0 
L 1172 0 
L 2766 4134 
L 525 4134 
L 525 4666 
z
" transform="scale(0.015625)"/>
       </defs>
       <use xlink:href="#DejaVuSans-37"/>
       <use xlink:href="#DejaVuSans-35" transform="translate(63.623047 0)"/>
       <use xlink:href="#DejaVuSans-30" transform="translate(127.246094 0)"/>
       <use xlink:href="#DejaVuSans-30" transform="translate(190.869141 0)"/>
      </g>
     </g>
    </g>
    <g id="ytick_5">
     <g id="line2d_12">
      <g>
       <use xlink:href="#m253d2a4181" x="63.47" y="133.371975" style="stroke: #000000; stroke-width: 0.8"/>
      </g>
     </g>
     <g id="text_13">
      <!-- 10000 -->
      <g transform="translate(24.6575 137.171194) scale(0.1 -0.1)">
       <use xlink:href="#DejaVuSans-31"/>
       <use xlink:href="#DejaVuSans-30" transform="translate(63.623047 0)"/>
       <use xlink:href="#DejaVuSans-30" transform="translate(127.246094 0)"/>
       <use xlink:href="#DejaVuSans-30" transform="translate(190.869141 0)"/>
       <use xlink:href="#DejaVuSans-30" transform="translate(254.492188 0)"/>
      </g>
     </g>
    </g>
    <g id="ytick_6">
     <g id="line2d_13">
      <g>
       <use xlink:href="#m253d2a4181" x="63.47" y="107.794564" style="stroke: #000000; stroke-width: 0.8"/>
      </g>
     </g>
     <g id="text_14">
      <!-- 12500 -->
      <g transform="translate(24.6575 111.593783) scale(0.1 -0.1)">
       <use xlink:href="#DejaVuSans-31"/>
       <use xlink:href="#DejaVuSans-32" transform="translate(63.623047 0)"/>
       <use xlink:href="#DejaVuSans-35" transform="translate(127.246094 0)"/>
       <use xlink:href="#DejaVuSans-30" transform="translate(190.869141 0)"/>
       <use xlink:href="#DejaVuSans-30" transform="translate(254.492188 0)"/>
      </g>
     </g>
    </g>
    <g id="ytick_7">
     <g id="line2d_14">
      <g>
       <use xlink:href="#m253d2a4181" x="63.47" y="82.217153" style="stroke: #000000; stroke-width: 0.8"/>
      </g>
     </g>
     <g id="text_15">
      <!-- 15000 -->
      <g transform="translate(24.6575 86.016371) scale(0.1 -0.1)">
       <use xlink:href="#DejaVuSans-31"/>
       <use xlink:href="#DejaVuSans-35" transform="translate(63.623047 0)"/>
       <use xlink:href="#DejaVuSans-30" transform="translate(127.246094 0)"/>
       <use xlink:href="#DejaVuSans-30" transform="translate(190.869141 0)"/>
       <use xlink:href="#DejaVuSans-30" transform="translate(254.492188 0)"/>
      </g>
     </g>
    </g>
    <g id="ytick_8">
     <g id="line2d_15">
      <g>
       <use xlink:href="#m253d2a4181" x="63.47" y="56.639741" style="stroke: #000000; stroke-width: 0.8"/>
      </g>
     </g>
     <g id="text_16">
      <!-- 17500 -->
      <g transform="translate(24.6575 60.43896) scale(0.1 -0.1)">
       <use xlink:href="#DejaVuSans-31"/>
       <use xlink:href="#DejaVuSans-37" transform="translate(63.623047 0)"/>
       <use xlink:href="#DejaVuSans-35" transform="translate(127.246094 0)"/>
       <use xlink:href="#DejaVuSans-30" transform="translate(190.869141 0)"/>
       <use xlink:href="#DejaVuSans-30" transform="translate(254.492188 0)"/>
      </g>
     </g>
    </g>
    <g id="ytick_9">
     <g id="line2d_16">
      <g>
       <use xlink:href="#m253d2a4181" x="63.47" y="31.06233" style="stroke: #000000; stroke-width: 0.8"/>
      </g>
     </g>
     <g id="text_17">
      <!-- 20000 -->
      <g transform="translate(24.6575 34.861549) scale(0.1 -0.1)">
       <use xlink:href="#DejaVuSans-32"/>
       <use xlink:href="#DejaVuSans-30" transform="translate(63.623047 0)"/>
       <use xlink:href="#DejaVuSans-30" transform="translate(127.246094 0)"/>
       <use xlink:href="#DejaVuSans-30" transform="translate(190.869141 0)"/>
       <use xlink:href="#DejaVuSans-30" transform="translate(254.492188 0)"/>
      </g>
     </g>
    </g>
    <g id="text_18">
     <!-- CO2 (PPM) -->
     <g transform="translate(18.577813 162.902969) rotate(-90) scale(0.1 -0.1)">
      <defs>
       <path id="DejaVuSans-43" d="M 4122 4306 
L 4122 3641 
Q 3803 3938 3442 4084 
Q 3081 4231 2675 4231 
Q 1875 4231 1450 3742 
Q 1025 3253 1025 2328 
Q 1025 1406 1450 917 
Q 1875 428 2675 428 
Q 3081 428 3442 575 
Q 3803 722 4122 1019 
L 4122 359 
Q 3791 134 3420 21 
Q 3050 -91 2638 -91 
Q 1578 -91 968 557 
Q 359 1206 359 2328 
Q 359 3453 968 4101 
Q 1578 4750 2638 4750 
Q 3056 4750 3426 4639 
Q 3797 4528 4122 4306 
z
" transform="scale(0.015625)"/>
       <path id="DejaVuSans-4f" d="M 2522 4238 
Q 1834 4238 1429 3725 
Q 1025 3213 1025 2328 
Q 1025 1447 1429 934 
Q 1834 422 2522 422 
Q 3209 422 3611 934 
Q 4013 1447 4013 2328 
Q 4013 3213 3611 3725 
Q 3209 4238 2522 4238 
z
M 2522 4750 
Q 3503 4750 4090 4092 
Q 4678 3434 4678 2328 
Q 4678 1225 4090 567 
Q 3503 -91 2522 -91 
Q 1538 -91 948 565 
Q 359 1222 359 2328 
Q 359 3434 948 4092 
Q 1538 4750 2522 4750 
z
" transform="scale(0.015625)"/>
       <path id="DejaVuSans-28" d="M 1984 4856 
Q 1566 4138 1362 3434 
Q 1159 2731 1159 2009 
Q 1159 1288 1364 580 
Q 1569 -128 1984 -844 
L 1484 -844 
Q 1016 -109 783 600 
Q 550 1309 550 2009 
Q 550 2706 781 3412 
Q 1013 4119 1484 4856 
L 1984 4856 
z
" transform="scale(0.015625)"/>
       <path id="DejaVuSans-50" d="M 1259 4147 
L 1259 2394 
L 2053 2394 
Q 2494 2394 2734 2622 
Q 2975 2850 2975 3272 
Q 2975 3691 2734 3919 
Q 2494 4147 2053 4147 
L 1259 4147 
z
M 628 4666 
L 2053 4666 
Q 2838 4666 3239 4311 
Q 3641 3956 3641 3272 
Q 3641 2581 3239 2228 
Q 2838 1875 2053 1875 
L 1259 1875 
L 1259 0 
L 628 0 
L 628 4666 
z
" transform="scale(0.015625)"/>
       <path id="DejaVuSans-4d" d="M 628 4666 
L 1569 4666 
L 2759 1491 
L 3956 4666 
L 4897 4666 
L 4897 0 
L 4281 0 
L 4281 4097 
L 3078 897 
L 2444 897 
L 1241 4097 
L 1241 0 
L 628 0 
L 628 4666 
z
" transform="scale(0.015625)"/>
       <path id="DejaVuSans-29" d="M 513 4856 
L 1013 4856 
Q 1481 4119 1714 3412 
Q 1947 2706 1947 2009 
Q 1947 1309 1714 600 
Q 1481 -109 1013 -844 
L 513 -844 
Q 928 -128 1133 580 
Q 1338 1288 1338 2009 
Q 1338 2731 1133 3434 
Q 928 4138 513 4856 
z
" transform="scale(0.015625)"/>
      </defs>
      <use xlink:href="#DejaVuSans-43"/>
      <use xlink:href="#DejaVuSans-4f" transform="translate(69.824219 0)"/>
      <use xlink:href="#DejaVuSans-32" transform="translate(148.535156 0)"/>
      <use xlink:href="#DejaVuSans-20" transform="translate(212.158203 0)"/>
      <use xlink:href="#DejaVuSans-28" transform="translate(243.945312 0)"/>
      <use xlink:href="#DejaVuSans-50" transform="translate(282.958984 0)"/>
      <use xlink:href="#DejaVuSans-50" transform="translate(343.261719 0)"/>
      <use xlink:href="#DejaVuSans-4d" transform="translate(403.564453 0)"/>
      <use xlink:href="#DejaVuSans-29" transform="translate(489.84375 0)"/>
     </g>
    </g>
   </g>
   <g id="line2d_17">
    <path d="M 92.821364 156.074485 
L 96.658143 149.622157 
L 100.494923 146.651767 
L 104.331702 153.087044 
L 115.842041 174.5823 
L 123.5156 164.197871 
L 127.35238 157.445434 
L 131.189159 167.553627 
L 135.025939 146.928003 
L 138.862718 138.709128 
L 142.699498 153.840725 
L 146.536277 154.843359 
L 150.373057 148.442186 
L 154.209837 152.981324 
L 158.046616 148.015896 
L 177.230514 121.882602 
L 184.904073 116.368112 
L 192.577632 150.253066 
L 196.414412 125.289513 
L 200.251191 136.170144 
L 204.087971 103.344094 
L 207.92475 132.804157 
L 211.76153 118.178993 
L 215.59831 126.645116 
L 223.271869 113.401132 
L 227.108648 108.541424 
L 230.945428 123.263782 
L 234.782207 127.397092 
L 238.618987 125.171857 
L 242.455766 135.281755 
L 246.292546 125.591327 
L 250.129326 127.557377 
L 253.966105 137.232459 
L 257.802885 150.583868 
L 261.639664 143.374448 
L 269.313223 146.26299 
L 273.150003 150.534418 
L 276.986783 146.242528 
L 284.660342 162.980386 
L 288.497121 154.096499 
L 292.333901 164.034176 
L 296.17068 171.451625 
L 300.00746 160.105485 
L 303.844239 151.925829 
L 307.681019 158.478762 
L 311.517799 162.540455 
L 315.354578 179.939915 
L 319.191358 158.550379 
L 323.028137 151.733146 
L 326.864917 170.800253 
L 330.701696 153.353049 
L 334.538476 151.903662 
L 338.375255 167.028438 
L 342.212035 157.322663 
L 346.048815 161.452562 
L 349.885594 167.969687 
L 353.722374 151.388704 
L 357.559153 173.531921 
L 361.395933 160.545417 
L 365.232712 170.329629 
L 369.069492 167.717323 
L 372.906272 151.849097 
L 376.743051 149.744929 
L 380.579831 143.725711 
L 384.41661 139.41336 
L 388.25339 138.293069 
L 392.090169 158.238334 
L 395.926949 142.830502 
L 399.763728 152.974503 
L 403.600508 162.294912 
L 411.274067 157.5 
L 415.110847 162.27445 
L 418.947626 114.137762 
L 422.784406 135.960409 
L 426.621185 144.285004 
L 430.457965 133.542491 
L 434.294745 143.93033 
L 438.131524 129.238665 
L 441.968304 143.705249 
L 445.805083 140.410879 
L 449.641863 148.769577 
L 453.478642 158.87777 
L 457.315422 136.843682 
L 464.988981 151.934355 
L 468.825761 144.544188 
L 472.66254 152.549918 
L 476.49932 150.621381 
L 480.336099 157.701209 
L 484.172879 165.45628 
L 488.009658 169.354277 
L 491.846438 164.126254 
L 495.683217 172.935115 
L 499.519997 157.094171 
L 503.356777 164.003483 
L 507.193556 149.8677 
L 511.030336 147.770352 
L 514.867115 173.603538 
L 518.703895 144.13836 
L 522.540674 147.831738 
L 526.377454 149.635798 
L 530.214234 137.334769 
L 534.051013 144.7795 
L 537.887793 144.714704 
L 541.724572 146.453968 
L 545.561352 159.931559 
L 557.07169 185.754513 
L 560.90847 170.315988 
L 564.74525 126.189838 
L 568.582029 144.24749 
L 572.418809 143.60294 
L 576.255588 133.10597 
L 583.929147 142.155258 
L 587.765927 127.550556 
L 591.602706 151.987215 
L 595.439486 142.211528 
L 599.276266 154.406838 
L 603.113045 130.527767 
L 606.949825 144.457225 
L 610.786604 132.454599 
L 614.623384 145.335383 
L 618.460163 135.104418 
L 622.296943 142.559381 
L 626.133723 137.075584 
L 629.970502 135.097598 
L 633.807282 139.428706 
L 637.644061 166.806767 
L 641.480841 134.661077 
L 645.31762 158.768639 
L 649.1544 148.91281 
L 656.827959 137.801983 
L 660.664739 149.407307 
L 664.501518 147.940868 
L 668.338298 138.712539 
L 672.175077 158.366221 
L 679.848636 166.244064 
L 679.848636 166.244064 
" clip-path="url(#p20616056e6)" style="fill: none; stroke: #1f77b4; stroke-width: 2; stroke-linecap: square"/>
   </g>
   <g id="line2d_18">
    <path d="M 92.821364 157.595976 
L 96.658143 169.074062 
L 100.494923 164.200551 
L 104.331702 161.694939 
L 108.168482 169.897655 
L 112.005261 165.280648 
L 119.678821 176.904729 
L 123.5156 173.172619 
L 127.35238 175.851914 
L 131.189159 171.076977 
L 135.025939 170.634122 
L 138.862718 165.77685 
L 142.699498 168.523133 
L 146.536277 172.258897 
L 150.373057 163.213263 
L 154.209837 157.145326 
L 158.046616 153.505539 
L 161.883396 144.895451 
L 165.720175 139.114956 
L 169.556955 139.68107 
L 173.393734 135.216391 
L 177.230514 130.460778 
L 181.067294 126.156303 
L 184.904073 118.046965 
L 188.740853 120.989666 
L 192.577632 126.640488 
L 196.414412 120.229814 
L 200.251191 126.469972 
L 204.087971 118.998444 
L 207.92475 119.100023 
L 211.76153 113.500762 
L 215.59831 114.641759 
L 219.435089 108.162594 
L 223.271869 114.892661 
L 227.108648 128.407521 
L 230.945428 131.311654 
L 234.782207 141.513387 
L 238.618987 132.547895 
L 242.455766 141.629825 
L 250.129326 140.637178 
L 253.966105 157.278329 
L 257.802885 157.626182 
L 261.639664 155.195597 
L 265.476444 159.052548 
L 273.150003 164.184473 
L 276.986783 161.994803 
L 280.823562 174.065636 
L 284.660342 169.623449 
L 288.497121 168.949423 
L 292.333901 173.795368 
L 296.17068 176.408771 
L 300.00746 169.752554 
L 303.844239 175.76081 
L 307.681019 180.983473 
L 311.517799 174.67243 
L 315.354578 186.026365 
L 319.191358 184.11561 
L 323.028137 176.844805 
L 326.864917 181.125245 
L 330.701696 180.817342 
L 334.538476 181.230965 
L 338.375255 177.028962 
L 342.212035 174.635647 
L 346.048815 165.226083 
L 349.885594 158.388957 
L 353.722374 154.947374 
L 357.559153 160.758562 
L 361.395933 166.298629 
L 365.232712 165.119389 
L 369.069492 165.792927 
L 372.906272 161.031388 
L 376.743051 167.180928 
L 380.579831 160.456018 
L 384.41661 161.068414 
L 388.25339 142.339415 
L 392.090169 140.571448 
L 395.926949 140.974434 
L 399.763728 154.440373 
L 403.600508 157.019428 
L 407.437288 164.360884 
L 411.274067 158.234437 
L 415.110847 161.993585 
L 418.947626 149.058886 
L 422.784406 151.056684 
L 426.621185 162.227923 
L 430.457965 165.363957 
L 434.294745 166.416285 
L 438.131524 161.989201 
L 441.968304 164.88091 
L 445.805083 164.628059 
L 449.641863 161.357804 
L 453.478642 162.720715 
L 457.315422 171.567576 
L 461.152201 173.39494 
L 464.988981 167.853005 
L 468.825761 172.118343 
L 472.66254 168.270526 
L 476.49932 162.597294 
L 480.336099 161.769235 
L 484.172879 167.387252 
L 488.009658 166.244308 
L 495.683217 173.859555 
L 499.519997 176.310846 
L 503.356777 175.248774 
L 507.193556 176.136919 
L 511.030336 175.613191 
L 514.867115 176.466259 
L 518.703895 166.438452 
L 522.540674 165.82703 
L 526.377454 164.002508 
L 530.214234 148.250639 
L 537.887793 153.738983 
L 541.724572 156.075054 
L 545.561352 159.601732 
L 549.398131 156.073348 
L 553.234911 150.443192 
L 557.07169 151.986971 
L 564.74525 143.372499 
L 568.582029 147.731864 
L 572.418809 143.034634 
L 576.255588 133.33641 
L 580.092368 144.458078 
L 583.929147 142.098744 
L 587.765927 141.112674 
L 591.602706 142.583497 
L 595.439486 150.350017 
L 599.276266 154.000523 
L 603.113045 156.308579 
L 606.949825 159.755197 
L 610.786604 154.528635 
L 614.623384 156.594316 
L 618.460163 157.912405 
L 622.296943 166.263308 
L 626.133723 167.387983 
L 629.970502 170.698431 
L 633.807282 161.570706 
L 637.644061 165.898891 
L 641.480841 162.874666 
L 645.31762 164.722086 
L 649.1544 168.026241 
L 652.991179 171.722745 
L 656.827959 164.790049 
L 660.664739 172.172664 
L 664.501518 170.294795 
L 668.338298 156.146955 
L 672.175077 168.962772 
L 676.011857 171.784131 
L 679.848636 173.781727 
L 679.848636 173.781727 
" clip-path="url(#p20616056e6)" style="fill: none; stroke-dasharray: 5.55,2.4; stroke-dashoffset: 0; stroke: #808080; stroke-width: 1.5"/>
   </g>
   <g id="patch_3">
    <path d="M 63.47 246.04 
L 63.47 26.88 
" style="fill: none; stroke: #000000; stroke-width: 0.8; stroke-linejoin: miter; stroke-linecap: square"/>
   </g>
   <g id="patch_4">
    <path d="M 709.2 246.04 
L 709.2 26.88 
" style="fill: none; stroke: #000000; stroke-width: 0.8; stroke-linejoin: miter; stroke-linecap: square"/>
   </g>
   <g id="patch_5">
    <path d="M 63.47 246.04 
L 709.2 246.04 
" style="fill: none; stroke: #000000; stroke-width: 0.8; stroke-linejoin: miter; stroke-linecap: square"/>
   </g>
   <g id="patch_6">
    <path d="M 63.47 26.88 
L 709.2 26.88 
" style="fill: none; stroke: #000000; stroke-width: 0.8; stroke-linejoin: miter; stroke-linecap: square"/>
   </g>
   <g id="text_19">
    <!-- CO2 - v001/c00001/d011 -->
    <g transform="translate(310.931875 20.88) scale(0.12 -0.12)">
     <defs>
      <path id="DejaVuSans-76" d="M 191 3500 
L 800 3500 
L 1894 563 
L 2988 3500 
L 3597 3500 
L 2284 0 
L 1503 0 
L 191 3500 
z
" transform="scale(0.015625)"/>
      <path id="DejaVuSans-2f" d="M 1625 4666 
L 2156 4666 
L 531 -594 
L 0 -594 
L 1625 4666 
z
" transform="scale(0.015625)"/>
      <path id="DejaVuSans-63" d="M 3122 3366 
L 3122 2828 
Q 2878 2963 2633 3030 
Q 2388 3097 2138 3097 
Q 1578 3097 1268 2742 
Q 959 2388 959 1747 
Q 959 1106 1268 751 
Q 1578 397 2138 397 
Q 2388 397 2633 464 
Q 2878 531 3122 666 
L 3122 134 
Q 2881 22 2623 -34 
Q 2366 -91 2075 -91 
Q 1284 -91 818 406 
Q 353 903 353 1747 
Q 353 2603 823 3093 
Q 1294 3584 2113 3584 
Q 2378 3584 2631 3529 
Q 2884 3475 3122 3366 
z
" transform="scale(0.015625)"/>
     </defs>
     <use xlink:href="#DejaVuSans-43"/>
     <use xlink:href="#DejaVuSans-4f" transform="translate(69.824219 0)"/>
     <use xlink:href="#DejaVuSans-32" transform="translate(148.535156 0)"/>
     <use xlink:href="#DejaVuSans-20" transform="translate(212.158203 0)"/>
     <use xlink:href="#DejaVuSans-2d" transform="translate(243.945312 0)"/>
     <use xlink:href="#DejaVuSans-20" transform="translate(280.029297 0)"/>
     <use xlink:href="#DejaVuSans-76" transform="translate(311.816406 0)"/>
     <use xlink:href="#DejaVuSans-30" transform="translate(370.996094 0)"/>
     <use xlink:href="#DejaVuSans-30" transform="translate(434.619141 0)"/>
     <use xlink:href="#DejaVuSans-31" transform="translate(498.242188 0)"/>
     <use xlink:href="#DejaVuSans-2f" transform="translate(561.865234 0)"/>
     <use xlink:href="#DejaVuSans-63" transform="translate(595.556641 0)"/>
     <use xlink:href="#DejaVuSans-30" transform="translate(650.537109 0)"/>
     <use xlink:href="#DejaVuSans-30" transform="translate(714.160156 0)"/>
     <use xlink:href="#DejaVuSans-30" transform="translate(777.783203 0)"/>
     <use xlink:href="#DejaVuSans-30" transform="translate(841.40625 0)"/>
     <use xlink:href="#DejaVuSans-31" transform="translate(905.029297 0)"/>
     <use xlink:href="#DejaVuSans-2f" transform="translate(968.652344 0)"/>
     <use xlink:href="#DejaVuSans-64" transform="translate(1002.34375 0)"/>
     <use xlink:href="#DejaVuSans-30" transform="translate(1065.820312 0)"/>
     <use xlink:href="#DejaVuSans-31" transform="translate(1129.443359 0)"/>
     <use xlink:href="#DejaVuSans-31" transform="translate(1193.066406 0)"/>
    </g>
   </g>
   <g id="legend_1">
    <g id="patch_7">
     <path d="M 551.25625 78.914375 
L 702.2 78.914375 
Q 704.2 78.914375 704.2 76.914375 
L 704.2 33.88 
Q 704.2 31.88 702.2 31.88 
L 551.25625 31.88 
Q 549.25625 31.88 549.25625 33.88 
L 549.25625 76.914375 
Q 549.25625 78.914375 551.25625 78.914375 
z
" style="fill: #ffffff; opacity: 0.8; stroke: #cccccc; stroke-linejoin: miter"/>
    </g>
    <g id="line2d_19">
     <path d="M 553.25625 39.978438 
L 563.25625 39.978438 
L 573.25625 39.978438 
" style="fill: none; stroke: #1f77b4; stroke-width: 2; stroke-linecap: square"/>
    </g>
    <g id="text_20">
     <!-- Hive -->
     <g transform="translate(581.25625 43.478438) scale(0.1 -0.1)">
      <defs>
       <path id="DejaVuSans-48" d="M 628 4666 
L 1259 4666 
L 1259 2753 
L 3553 2753 
L 3553 4666 
L 4184 4666 
L 4184 0 
L 3553 0 
L 3553 2222 
L 1259 2222 
L 1259 0 
L 628 0 
L 628 4666 
z
" transform="scale(0.015625)"/>
       <path id="DejaVuSans-65" d="M 3597 1894 
L 3597 1613 
L 953 1613 
Q 991 1019 1311 708 
Q 1631 397 2203 397 
Q 2534 397 2845 478 
Q 3156 559 3463 722 
L 3463 178 
Q 3153 47 2828 -22 
Q 2503 -91 2169 -91 
Q 1331 -91 842 396 
Q 353 884 353 1716 
Q 353 2575 817 3079 
Q 1281 3584 2069 3584 
Q 2775 3584 3186 3129 
Q 3597 2675 3597 1894 
z
M 3022 2063 
Q 3016 2534 2758 2815 
Q 2500 3097 2075 3097 
Q 1594 3097 1305 2825 
Q 1016 2553 972 2059 
L 3022 2063 
z
" transform="scale(0.015625)"/>
      </defs>
      <use xlink:href="#DejaVuSans-48"/>
      <use xlink:href="#DejaVuSans-69" transform="translate(75.195312 0)"/>
      <use xlink:href="#DejaVuSans-76" transform="translate(102.978516 0)"/>
      <use xlink:href="#DejaVuSans-65" transform="translate(162.158203 0)"/>
     </g>
    </g>
    <g id="line2d_20">
     <path d="M 553.25625 54.656563 
L 563.25625 54.656563 
L 573.25625 54.656563 
" style="fill: none; stroke-dasharray: 5.55,2.4; stroke-dashoffset: 0; stroke: #808080; stroke-width: 1.5"/>
    </g>
    <g id="text_21">
     <!-- Gemiddelde (alle hives) -->
     <g transform="translate(581.25625 58.156563) scale(0.1 -0.1)">
      <defs>
       <path id="DejaVuSans-47" d="M 3809 666 
L 3809 1919 
L 2778 1919 
L 2778 2438 
L 4434 2438 
L 4434 434 
Q 4069 175 3628 42 
Q 3188 -91 2688 -91 
Q 1594 -91 976 548 
Q 359 1188 359 2328 
Q 359 3472 976 4111 
Q 1594 4750 2688 4750 
Q 3144 4750 3555 4637 
Q 3966 4525 4313 4306 
L 4313 3634 
Q 3963 3931 3569 4081 
Q 3175 4231 2741 4231 
Q 1884 4231 1454 3753 
Q 1025 3275 1025 2328 
Q 1025 1384 1454 906 
Q 1884 428 2741 428 
Q 3075 428 3337 486 
Q 3600 544 3809 666 
z
" transform="scale(0.015625)"/>
       <path id="DejaVuSans-6d" d="M 3328 2828 
Q 3544 3216 3844 3400 
Q 4144 3584 4550 3584 
Q 5097 3584 5394 3201 
Q 5691 2819 5691 2113 
L 5691 0 
L 5113 0 
L 5113 2094 
Q 5113 2597 4934 2840 
Q 4756 3084 4391 3084 
Q 3944 3084 3684 2787 
Q 3425 2491 3425 1978 
L 3425 0 
L 2847 0 
L 2847 2094 
Q 2847 2600 2669 2842 
Q 2491 3084 2119 3084 
Q 1678 3084 1418 2786 
Q 1159 2488 1159 1978 
L 1159 0 
L 581 0 
L 581 3500 
L 1159 3500 
L 1159 2956 
Q 1356 3278 1631 3431 
Q 1906 3584 2284 3584 
Q 2666 3584 2933 3390 
Q 3200 3197 3328 2828 
z
" transform="scale(0.015625)"/>
       <path id="DejaVuSans-6c" d="M 603 4863 
L 1178 4863 
L 1178 0 
L 603 0 
L 603 4863 
z
" transform="scale(0.015625)"/>
       <path id="DejaVuSans-61" d="M 2194 1759 
Q 1497 1759 1228 1600 
Q 959 1441 959 1056 
Q 959 750 1161 570 
Q 1363 391 1709 391 
Q 2188 391 2477 730 
Q 2766 1069 2766 1631 
L 2766 1759 
L 2194 1759 
z
M 3341 1997 
L 3341 0 
L 2766 0 
L 2766 531 
Q 2569 213 2275 61 
Q 1981 -91 1556 -91 
Q 1019 -91 701 211 
Q 384 513 384 1019 
Q 384 1609 779 1909 
Q 1175 2209 1959 2209 
L 2766 2209 
L 2766 2266 
Q 2766 2663 2505 2880 
Q 2244 3097 1772 3097 
Q 1472 3097 1187 3025 
Q 903 2953 641 2809 
L 641 3341 
Q 956 3463 1253 3523 
Q 1550 3584 1831 3584 
Q 2591 3584 2966 3190 
Q 3341 2797 3341 1997 
z
" transform="scale(0.015625)"/>
       <path id="DejaVuSans-68" d="M 3513 2113 
L 3513 0 
L 2938 0 
L 2938 2094 
Q 2938 2591 2744 2837 
Q 2550 3084 2163 3084 
Q 1697 3084 1428 2787 
Q 1159 2491 1159 1978 
L 1159 0 
L 581 0 
L 581 4863 
L 1159 4863 
L 1159 2956 
Q 1366 3272 1645 3428 
Q 1925 3584 2291 3584 
Q 2894 3584 3203 3211 
Q 3513 2838 3513 2113 
z
" transform="scale(0.015625)"/>
       <path id="DejaVuSans-73" d="M 2834 3397 
L 2834 2853 
Q 2591 2978 2328 3040 
Q 2066 3103 1784 3103 
Q 1356 3103 1142 2972 
Q 928 2841 928 2578 
Q 928 2378 1081 2264 
Q 1234 2150 1697 2047 
L 1894 2003 
Q 2506 1872 2764 1633 
Q 3022 1394 3022 966 
Q 3022 478 2636 193 
Q 2250 -91 1575 -91 
Q 1294 -91 989 -36 
Q 684 19 347 128 
L 347 722 
Q 666 556 975 473 
Q 1284 391 1588 391 
Q 1994 391 2212 530 
Q 2431 669 2431 922 
Q 2431 1156 2273 1281 
Q 2116 1406 1581 1522 
L 1381 1569 
Q 847 1681 609 1914 
Q 372 2147 372 2553 
Q 372 3047 722 3315 
Q 1072 3584 1716 3584 
Q 2034 3584 2315 3537 
Q 2597 3491 2834 3397 
z
" transform="scale(0.015625)"/>
      </defs>
      <use xlink:href="#DejaVuSans-47"/>
      <use xlink:href="#DejaVuSans-65" transform="translate(77.490234 0)"/>
      <use xlink:href="#DejaVuSans-6d" transform="translate(139.013672 0)"/>
      <use xlink:href="#DejaVuSans-69" transform="translate(236.425781 0)"/>
      <use xlink:href="#DejaVuSans-64" transform="translate(264.208984 0)"/>
      <use xlink:href="#DejaVuSans-64" transform="translate(327.685547 0)"/>
      <use xlink:href="#DejaVuSans-65" transform="translate(391.162109 0)"/>
      <use xlink:href="#DejaVuSans-6c" transform="translate(452.685547 0)"/>
      <use xlink:href="#DejaVuSans-64" transform="translate(480.46875 0)"/>
      <use xlink:href="#DejaVuSans-65" transform="translate(543.945312 0)"/>
      <use xlink:href="#DejaVuSans-20" transform="translate(605.46875 0)"/>
      <use xlink:href="#DejaVuSans-28" transform="translate(637.255859 0)"/>
      <use xlink:href="#DejaVuSans-61" transform="translate(676.269531 0)"/>
      <use xlink:href="#DejaVuSans-6c" transform="translate(737.548828 0)"/>
      <use xlink:href="#DejaVuSans-6c" transform="translate(765.332031 0)"/>
      <use xlink:href="#DejaVuSans-65" transform="translate(793.115234 0)"/>
      <use xlink:href="#DejaVuSans-20" transform="translate(854.638672 0)"/>
      <use xlink:href="#DejaVuSans-68" transform="translate(886.425781 0)"/>
      <use xlink:href="#DejaVuSans-69" transform="translate(949.804688 0)"/>
      <use xlink:href="#DejaVuSans-76" transform="translate(977.587891 0)"/>
      <use xlink:href="#DejaVuSans-65" transform="translate(1036.767578 0)"/>
      <use xlink:href="#DejaVuSans-73" transform="translate(1098.291016 0)"/>
      <use xlink:href="#DejaVuSans-29" transform="translate(1150.390625 0)"/>
     </g>
    </g>
    <g id="patch_8">
     <path d="M 553.25625 72.834688 
L 573.25625 72.834688 
L 573.25625 65.834688 
L 553.25625 65.834688 
z
" style="fill: #808080; fill-opacity: 0.2; stroke: #808080; stroke-opacity: 0.2; stroke-linejoin: miter"/>
    </g>
    <g id="text_22">
     <!-- ±2 Std Dev -->
     <g transform="translate(581.25625 72.834688) scale(0.1 -0.1)">
      <defs>
       <path id="DejaVuSans-b1" d="M 2944 4013 
L 2944 2803 
L 4684 2803 
L 4684 2272 
L 2944 2272 
L 2944 1063 
L 2419 1063 
L 2419 2272 
L 678 2272 
L 678 2803 
L 2419 2803 
L 2419 4013 
L 2944 4013 
z
M 678 531 
L 4684 531 
L 4684 0 
L 678 0 
L 678 531 
z
" transform="scale(0.015625)"/>
       <path id="DejaVuSans-53" d="M 3425 4513 
L 3425 3897 
Q 3066 4069 2747 4153 
Q 2428 4238 2131 4238 
Q 1616 4238 1336 4038 
Q 1056 3838 1056 3469 
Q 1056 3159 1242 3001 
Q 1428 2844 1947 2747 
L 2328 2669 
Q 3034 2534 3370 2195 
Q 3706 1856 3706 1288 
Q 3706 609 3251 259 
Q 2797 -91 1919 -91 
Q 1588 -91 1214 -16 
Q 841 59 441 206 
L 441 856 
Q 825 641 1194 531 
Q 1563 422 1919 422 
Q 2459 422 2753 634 
Q 3047 847 3047 1241 
Q 3047 1584 2836 1778 
Q 2625 1972 2144 2069 
L 1759 2144 
Q 1053 2284 737 2584 
Q 422 2884 422 3419 
Q 422 4038 858 4394 
Q 1294 4750 2059 4750 
Q 2388 4750 2728 4690 
Q 3069 4631 3425 4513 
z
" transform="scale(0.015625)"/>
       <path id="DejaVuSans-74" d="M 1172 4494 
L 1172 3500 
L 2356 3500 
L 2356 3053 
L 1172 3053 
L 1172 1153 
Q 1172 725 1289 603 
Q 1406 481 1766 481 
L 2356 481 
L 2356 0 
L 1766 0 
Q 1100 0 847 248 
Q 594 497 594 1153 
L 594 3053 
L 172 3053 
L 172 3500 
L 594 3500 
L 594 4494 
L 1172 4494 
z
" transform="scale(0.015625)"/>
       <path id="DejaVuSans-44" d="M 1259 4147 
L 1259 519 
L 2022 519 
Q 2988 519 3436 956 
Q 3884 1394 3884 2338 
Q 3884 3275 3436 3711 
Q 2988 4147 2022 4147 
L 1259 4147 
z
M 628 4666 
L 1925 4666 
Q 3281 4666 3915 4102 
Q 4550 3538 4550 2338 
Q 4550 1131 3912 565 
Q 3275 0 1925 0 
L 628 0 
L 628 4666 
z
" transform="scale(0.015625)"/>
      </defs>
      <use xlink:href="#DejaVuSans-b1"/>
      <use xlink:href="#DejaVuSans-32" transform="translate(83.789062 0)"/>
      <use xlink:href="#DejaVuSans-20" transform="translate(147.412109 0)"/>
      <use xlink:href="#DejaVuSans-53" transform="translate(179.199219 0)"/>
      <use xlink:href="#DejaVuSans-74" transform="translate(242.675781 0)"/>
      <use xlink:href="#DejaVuSans-64" transform="translate(281.884766 0)"/>
      <use xlink:href="#DejaVuSans-20" transform="translate(345.361328 0)"/>
      <use xlink:href="#DejaVuSans-44" transform="translate(377.148438 0)"/>
      <use xlink:href="#DejaVuSans-65" transform="translate(454.150391 0)"/>
      <use xlink:href="#DejaVuSans-76" transform="translate(515.673828 0)"/>
     </g>
    </g>
   </g>
  </g>
 </g>
 <defs>
  <clipPath id="p20616056e6">
   <rect x="63.47" y="26.88" width="645.73" height="219.16"/>
  </clipPath>
 </defs>
</svg>
