<?xml version="1.0" encoding="utf-8" standalone="no"?>
<!DOCTYPE svg PUBLIC "-//W3C//DTD SVG 1.1//EN"
  "http://www.w3.org/Graphics/SVG/1.1/DTD/svg11.dtd">
<svg xmlns:xlink="http://www.w3.org/1999/xlink" width="720pt" height="288pt" viewBox="0 0 720 288" xmlns="http://www.w3.org/2000/svg" version="1.1">
 <metadata>
  <rdf:RDF xmlns:dc="http://purl.org/dc/elements/1.1/" xmlns:cc="http://creativecommons.org/ns#" xmlns:rdf="http://www.w3.org/1999/02/22-rdf-syntax-ns#">
   <cc:Work>
    <dc:type rdf:resource="http://purl.org/dc/dcmitype/StillImage"/>
    <dc:date>2025-05-05T19:11:29.983807</dc:date>
    <dc:format>image/svg+xml</dc:format>
    <dc:creator>
     <cc:Agent>
      <dc:title>Matplotlib v3.10.1, https://matplotlib.org/</dc:title>
     </cc:Agent>
    </dc:creator>
   </cc:Work>
  </rdf:RDF>
 </metadata>
 <defs>
  <style type="text/css">*{stroke-linejoin: round; stroke-linecap: butt}</style>
 </defs>
 <g id="figure_1">
  <g id="patch_1">
   <path d="M 0 288 
L 720 288 
L 720 0 
L 0 0 
z
" style="fill: #ffffff"/>
  </g>
  <g id="axes_1">
   <g id="patch_2">
    <path d="M 44.48 246.04 
L 709.2 246.04 
L 709.2 26.88 
L 44.48 26.88 
z
" style="fill: #ffffff"/>
   </g>
   <g id="FillBetweenPolyCollection_1">
    <defs>
     <path id="md32b9adae0" d="M 74.694545 -189.590874 
L 74.694545 -166.737055 
L 78.920356 -161.497966 
L 83.146167 -153.276814 
L 87.371977 -146.581869 
L 91.597788 -141.725157 
L 95.823598 -136.212045 
L 100.049409 -130.268806 
L 104.275219 -125.398957 
L 108.50103 -120.507684 
L 112.72684 -117.749127 
L 116.952651 -113.16467 
L 121.178462 -111.315758 
L 125.404272 -106.750166 
L 129.630083 -106.159964 
L 133.855893 -101.531128 
L 138.081704 -101.027905 
L 142.307514 -99.471091 
L 146.533325 -96.794441 
L 150.759135 -95.876147 
L 154.984946 -92.641406 
L 159.210757 -93.205947 
L 163.436567 -73.728305 
L 167.662378 -88.818617 
L 171.888188 -87.8803 
L 176.113999 -86.659204 
L 180.339809 -101.057552 
L 184.56562 -89.709541 
L 188.79143 -106.939867 
L 193.017241 -101.75731 
L 197.243051 -115.302438 
L 201.468862 -118.374907 
L 205.694673 -122.354304 
L 209.920483 -124.955319 
L 214.146294 -132.403309 
L 218.372104 -125.254225 
L 222.597915 -142.590096 
L 226.823725 -150.032371 
L 231.049536 -158.333857 
L 235.275346 -163.034281 
L 239.501157 -162.514538 
L 243.726968 -167.215881 
L 247.952778 -160.569354 
L 252.178589 -157.319841 
L 256.404399 -163.134186 
L 260.63021 -163.708636 
L 264.85602 -170.771842 
L 269.081831 -167.460516 
L 273.307641 -150.130583 
L 277.533452 -141.45384 
L 281.759263 -133.636937 
L 285.985073 -127.896535 
L 290.210884 -123.6503 
L 294.436694 -116.279492 
L 298.662505 -110.473351 
L 302.888315 -106.157573 
L 307.114126 -102.47623 
L 311.339936 -99.737277 
L 315.565747 -96.915625 
L 319.791558 -95.724925 
L 324.017368 -103.046705 
L 328.243179 -98.770097 
L 332.468989 -96.335822 
L 336.6948 -96.515704 
L 340.92061 -96.203287 
L 345.146421 -98.671206 
L 349.372231 -111.1718 
L 353.598042 -124.318257 
L 357.823853 -122.42531 
L 362.049663 -117.013118 
L 366.275474 -115.744527 
L 370.501284 -105.77973 
L 374.727095 -120.458258 
L 378.952905 -121.953418 
L 383.178716 -124.096813 
L 387.404526 -131.841266 
L 391.630337 -137.393948 
L 395.856147 -136.479578 
L 400.081958 -140.34907 
L 404.307769 -139.742047 
L 408.533579 -138.820462 
L 412.75939 -138.768811 
L 416.9852 -139.657605 
L 421.211011 -140.98275 
L 425.436821 -144.092035 
L 429.662632 -146.025786 
L 433.888442 -137.386815 
L 438.114253 -144.454706 
L 442.340064 -150.515223 
L 446.565874 -148.321234 
L 450.791685 -152.576521 
L 455.017495 -145.579025 
L 459.243306 -144.48998 
L 463.469116 -135.835837 
L 467.694927 -129.611455 
L 471.920737 -122.599304 
L 476.146548 -127.828972 
L 480.372359 -123.992693 
L 484.598169 -123.608114 
L 488.82398 -122.652637 
L 493.04979 -114.953371 
L 497.275601 -107.623249 
L 501.501411 -103.897199 
L 505.727222 -102.942711 
L 509.953032 -99.688735 
L 514.178843 -94.151036 
L 518.404654 -94.703419 
L 522.630464 -97.173592 
L 526.856275 -75.67383 
L 531.082085 -65.230945 
L 535.307896 -58.840221 
L 539.533706 -59.857359 
L 543.759517 -60.819562 
L 547.985327 -62.825943 
L 552.211138 -76.682946 
L 556.436949 -54.469414 
L 560.662759 -53.710166 
L 564.88857 -51.921818 
L 569.11438 -71.699716 
L 573.340191 -52.318107 
L 577.566001 -72.188219 
L 581.791812 -57.508855 
L 586.017622 -57.567962 
L 590.243433 -62.689536 
L 594.469243 -73.143303 
L 598.695054 -104.623078 
L 602.920865 -110.133507 
L 607.146675 -117.341212 
L 611.372486 -132.08654 
L 615.598296 -133.137277 
L 619.824107 -130.577148 
L 624.049917 -115.72074 
L 628.275728 -124.5385 
L 632.501538 -140.046748 
L 636.727349 -148.36514 
L 640.95316 -144.916879 
L 645.17897 -151.048585 
L 649.404781 -152.731414 
L 653.630591 -171.051595 
L 657.856402 -169.271968 
L 662.082212 -164.139671 
L 666.308023 -162.133634 
L 670.533833 -158.395694 
L 674.759644 -160.008147 
L 678.985455 -153.892705 
L 678.985455 -195.556013 
L 678.985455 -195.556013 
L 674.759644 -192.423592 
L 670.533833 -193.143168 
L 666.308023 -190.72425 
L 662.082212 -189.631382 
L 657.856402 -186.447181 
L 653.630591 -183.490579 
L 649.404781 -191.502092 
L 645.17897 -195.477991 
L 640.95316 -196.800338 
L 636.727349 -196.639487 
L 632.501538 -202.401004 
L 628.275728 -208.331118 
L 624.049917 -213.577371 
L 619.824107 -208.278804 
L 615.598296 -207.788526 
L 611.372486 -208.29136 
L 607.146675 -213.255629 
L 602.920865 -217.054167 
L 598.695054 -224.248887 
L 594.469243 -236.511517 
L 590.243433 -242.095048 
L 586.017622 -246.242574 
L 581.791812 -246.464022 
L 577.566001 -244.812543 
L 573.340191 -250.843064 
L 569.11438 -245.361924 
L 564.88857 -251.158182 
L 560.662759 -250.262711 
L 556.436949 -249.09761 
L 552.211138 -242.5703 
L 547.985327 -245.043124 
L 543.759517 -245.588433 
L 539.533706 -246.875319 
L 535.307896 -247.243092 
L 531.082085 -242.962804 
L 526.856275 -237.390157 
L 522.630464 -229.6894 
L 518.404654 -231.307282 
L 514.178843 -231.250885 
L 509.953032 -227.417769 
L 505.727222 -225.868376 
L 501.501411 -225.035644 
L 497.275601 -222.283642 
L 493.04979 -217.388638 
L 488.82398 -212.611515 
L 484.598169 -211.777794 
L 480.372359 -211.271459 
L 476.146548 -209.383274 
L 471.920737 -208.646902 
L 467.694927 -205.530941 
L 463.469116 -203.040407 
L 459.243306 -200.514647 
L 455.017495 -200.521404 
L 450.791685 -196.20254 
L 446.565874 -196.723978 
L 442.340064 -197.28979 
L 438.114253 -200.671676 
L 433.888442 -203.924548 
L 429.662632 -201.048692 
L 425.436821 -202.860686 
L 421.211011 -204.326267 
L 416.9852 -204.981753 
L 412.75939 -205.50528 
L 408.533579 -205.027483 
L 404.307769 -204.166776 
L 400.081958 -203.681509 
L 395.856147 -205.846417 
L 391.630337 -205.358193 
L 387.404526 -208.901903 
L 383.178716 -214.332993 
L 378.952905 -215.989365 
L 374.727095 -216.753988 
L 370.501284 -223.599552 
L 366.275474 -220.371916 
L 362.049663 -219.346837 
L 357.823853 -216.49152 
L 353.598042 -215.085597 
L 349.372231 -223.361816 
L 345.146421 -230.870417 
L 340.92061 -232.668678 
L 336.6948 -232.356262 
L 332.468989 -231.622974 
L 328.243179 -230.162746 
L 324.017368 -227.347209 
L 319.791558 -231.990359 
L 315.565747 -231.530195 
L 311.339936 -229.317322 
L 307.114126 -227.674172 
L 302.888315 -225.210389 
L 298.662505 -222.355682 
L 294.436694 -218.619392 
L 290.210884 -213.927214 
L 285.985073 -211.507319 
L 281.759263 -208.323791 
L 277.533452 -204.037811 
L 273.307641 -198.344088 
L 269.081831 -188.867412 
L 264.85602 -184.906721 
L 260.63021 -191.888757 
L 256.404399 -193.619888 
L 252.178589 -196.004775 
L 247.952778 -193.89165 
L 243.726968 -190.390485 
L 239.501157 -192.839343 
L 235.275346 -193.537159 
L 231.049536 -196.045976 
L 226.823725 -197.407374 
L 222.597915 -205.093161 
L 218.372104 -216.462991 
L 214.146294 -212.844829 
L 209.920483 -217.188043 
L 205.694673 -217.962719 
L 201.468862 -219.44612 
L 197.243051 -220.509616 
L 193.017241 -222.995247 
L 188.79143 -223.514926 
L 184.56562 -230.984484 
L 180.339809 -227.510023 
L 176.113999 -236.8555 
L 171.888188 -236.304062 
L 167.662378 -236.400671 
L 163.436567 -239.416852 
L 159.210757 -234.083191 
L 154.984946 -234.221587 
L 150.759135 -232.995818 
L 146.533325 -232.442792 
L 142.307514 -231.227214 
L 138.081704 -230.096545 
L 133.855893 -230.445614 
L 129.630083 -227.277848 
L 125.404272 -227.052915 
L 121.178462 -224.313661 
L 116.952651 -223.073529 
L 112.72684 -220.193655 
L 108.50103 -218.409146 
L 104.275219 -215.344211 
L 100.049409 -212.422458 
L 95.823598 -207.696778 
L 91.597788 -204.253517 
L 87.371977 -201.466656 
L 83.146167 -197.450341 
L 78.920356 -192.273088 
L 74.694545 -189.590874 
z
" style="stroke: #808080; stroke-opacity: 0.2"/>
    </defs>
    <g clip-path="url(#pde8cfcf5dc)">
     <use xlink:href="#md32b9adae0" x="0" y="288" style="fill: #808080; fill-opacity: 0.2; stroke: #808080; stroke-opacity: 0.2"/>
    </g>
   </g>
   <g id="matplotlib.axis_1">
    <g id="xtick_1">
     <g id="line2d_1">
      <defs>
       <path id="m7fc49ad7f7" d="M 0 0 
L 0 3.5 
" style="stroke: #000000; stroke-width: 0.8"/>
      </defs>
      <g>
       <use xlink:href="#m7fc49ad7f7" x="116.952651" y="246.04" style="stroke: #000000; stroke-width: 0.8"/>
      </g>
     </g>
     <g id="text_1">
      <!-- 05-03 00 -->
      <g transform="translate(94.472182 260.638438) scale(0.1 -0.1)">
       <defs>
        <path id="DejaVuSans-30" d="M 2034 4250 
Q 1547 4250 1301 3770 
Q 1056 3291 1056 2328 
Q 1056 1369 1301 889 
Q 1547 409 2034 409 
Q 2525 409 2770 889 
Q 3016 1369 3016 2328 
Q 3016 3291 2770 3770 
Q 2525 4250 2034 4250 
z
M 2034 4750 
Q 2819 4750 3233 4129 
Q 3647 3509 3647 2328 
Q 3647 1150 3233 529 
Q 2819 -91 2034 -91 
Q 1250 -91 836 529 
Q 422 1150 422 2328 
Q 422 3509 836 4129 
Q 1250 4750 2034 4750 
z
" transform="scale(0.015625)"/>
        <path id="DejaVuSans-35" d="M 691 4666 
L 3169 4666 
L 3169 4134 
L 1269 4134 
L 1269 2991 
Q 1406 3038 1543 3061 
Q 1681 3084 1819 3084 
Q 2600 3084 3056 2656 
Q 3513 2228 3513 1497 
Q 3513 744 3044 326 
Q 2575 -91 1722 -91 
Q 1428 -91 1123 -41 
Q 819 9 494 109 
L 494 744 
Q 775 591 1075 516 
Q 1375 441 1709 441 
Q 2250 441 2565 725 
Q 2881 1009 2881 1497 
Q 2881 1984 2565 2268 
Q 2250 2553 1709 2553 
Q 1456 2553 1204 2497 
Q 953 2441 691 2322 
L 691 4666 
z
" transform="scale(0.015625)"/>
        <path id="DejaVuSans-2d" d="M 313 2009 
L 1997 2009 
L 1997 1497 
L 313 1497 
L 313 2009 
z
" transform="scale(0.015625)"/>
        <path id="DejaVuSans-33" d="M 2597 2516 
Q 3050 2419 3304 2112 
Q 3559 1806 3559 1356 
Q 3559 666 3084 287 
Q 2609 -91 1734 -91 
Q 1441 -91 1130 -33 
Q 819 25 488 141 
L 488 750 
Q 750 597 1062 519 
Q 1375 441 1716 441 
Q 2309 441 2620 675 
Q 2931 909 2931 1356 
Q 2931 1769 2642 2001 
Q 2353 2234 1838 2234 
L 1294 2234 
L 1294 2753 
L 1863 2753 
Q 2328 2753 2575 2939 
Q 2822 3125 2822 3475 
Q 2822 3834 2567 4026 
Q 2313 4219 1838 4219 
Q 1578 4219 1281 4162 
Q 984 4106 628 3988 
L 628 4550 
Q 988 4650 1302 4700 
Q 1616 4750 1894 4750 
Q 2613 4750 3031 4423 
Q 3450 4097 3450 3541 
Q 3450 3153 3228 2886 
Q 3006 2619 2597 2516 
z
" transform="scale(0.015625)"/>
        <path id="DejaVuSans-20" transform="scale(0.015625)"/>
       </defs>
       <use xlink:href="#DejaVuSans-30"/>
       <use xlink:href="#DejaVuSans-35" transform="translate(63.623047 0)"/>
       <use xlink:href="#DejaVuSans-2d" transform="translate(127.246094 0)"/>
       <use xlink:href="#DejaVuSans-30" transform="translate(163.330078 0)"/>
       <use xlink:href="#DejaVuSans-33" transform="translate(226.953125 0)"/>
       <use xlink:href="#DejaVuSans-20" transform="translate(290.576172 0)"/>
       <use xlink:href="#DejaVuSans-30" transform="translate(322.363281 0)"/>
       <use xlink:href="#DejaVuSans-30" transform="translate(385.986328 0)"/>
      </g>
     </g>
    </g>
    <g id="xtick_2">
     <g id="line2d_2">
      <g>
       <use xlink:href="#m7fc49ad7f7" x="218.372104" y="246.04" style="stroke: #000000; stroke-width: 0.8"/>
      </g>
     </g>
     <g id="text_2">
      <!-- 05-03 12 -->
      <g transform="translate(195.891636 260.638438) scale(0.1 -0.1)">
       <defs>
        <path id="DejaVuSans-31" d="M 794 531 
L 1825 531 
L 1825 4091 
L 703 3866 
L 703 4441 
L 1819 4666 
L 2450 4666 
L 2450 531 
L 3481 531 
L 3481 0 
L 794 0 
L 794 531 
z
" transform="scale(0.015625)"/>
        <path id="DejaVuSans-32" d="M 1228 531 
L 3431 531 
L 3431 0 
L 469 0 
L 469 531 
Q 828 903 1448 1529 
Q 2069 2156 2228 2338 
Q 2531 2678 2651 2914 
Q 2772 3150 2772 3378 
Q 2772 3750 2511 3984 
Q 2250 4219 1831 4219 
Q 1534 4219 1204 4116 
Q 875 4013 500 3803 
L 500 4441 
Q 881 4594 1212 4672 
Q 1544 4750 1819 4750 
Q 2544 4750 2975 4387 
Q 3406 4025 3406 3419 
Q 3406 3131 3298 2873 
Q 3191 2616 2906 2266 
Q 2828 2175 2409 1742 
Q 1991 1309 1228 531 
z
" transform="scale(0.015625)"/>
       </defs>
       <use xlink:href="#DejaVuSans-30"/>
       <use xlink:href="#DejaVuSans-35" transform="translate(63.623047 0)"/>
       <use xlink:href="#DejaVuSans-2d" transform="translate(127.246094 0)"/>
       <use xlink:href="#DejaVuSans-30" transform="translate(163.330078 0)"/>
       <use xlink:href="#DejaVuSans-33" transform="translate(226.953125 0)"/>
       <use xlink:href="#DejaVuSans-20" transform="translate(290.576172 0)"/>
       <use xlink:href="#DejaVuSans-31" transform="translate(322.363281 0)"/>
       <use xlink:href="#DejaVuSans-32" transform="translate(385.986328 0)"/>
      </g>
     </g>
    </g>
    <g id="xtick_3">
     <g id="line2d_3">
      <g>
       <use xlink:href="#m7fc49ad7f7" x="319.791558" y="246.04" style="stroke: #000000; stroke-width: 0.8"/>
      </g>
     </g>
     <g id="text_3">
      <!-- 05-04 00 -->
      <g transform="translate(297.311089 260.638438) scale(0.1 -0.1)">
       <defs>
        <path id="DejaVuSans-34" d="M 2419 4116 
L 825 1625 
L 2419 1625 
L 2419 4116 
z
M 2253 4666 
L 3047 4666 
L 3047 1625 
L 3713 1625 
L 3713 1100 
L 3047 1100 
L 3047 0 
L 2419 0 
L 2419 1100 
L 313 1100 
L 313 1709 
L 2253 4666 
z
" transform="scale(0.015625)"/>
       </defs>
       <use xlink:href="#DejaVuSans-30"/>
       <use xlink:href="#DejaVuSans-35" transform="translate(63.623047 0)"/>
       <use xlink:href="#DejaVuSans-2d" transform="translate(127.246094 0)"/>
       <use xlink:href="#DejaVuSans-30" transform="translate(163.330078 0)"/>
       <use xlink:href="#DejaVuSans-34" transform="translate(226.953125 0)"/>
       <use xlink:href="#DejaVuSans-20" transform="translate(290.576172 0)"/>
       <use xlink:href="#DejaVuSans-30" transform="translate(322.363281 0)"/>
       <use xlink:href="#DejaVuSans-30" transform="translate(385.986328 0)"/>
      </g>
     </g>
    </g>
    <g id="xtick_4">
     <g id="line2d_4">
      <g>
       <use xlink:href="#m7fc49ad7f7" x="421.211011" y="246.04" style="stroke: #000000; stroke-width: 0.8"/>
      </g>
     </g>
     <g id="text_4">
      <!-- 05-04 12 -->
      <g transform="translate(398.730542 260.638438) scale(0.1 -0.1)">
       <use xlink:href="#DejaVuSans-30"/>
       <use xlink:href="#DejaVuSans-35" transform="translate(63.623047 0)"/>
       <use xlink:href="#DejaVuSans-2d" transform="translate(127.246094 0)"/>
       <use xlink:href="#DejaVuSans-30" transform="translate(163.330078 0)"/>
       <use xlink:href="#DejaVuSans-34" transform="translate(226.953125 0)"/>
       <use xlink:href="#DejaVuSans-20" transform="translate(290.576172 0)"/>
       <use xlink:href="#DejaVuSans-31" transform="translate(322.363281 0)"/>
       <use xlink:href="#DejaVuSans-32" transform="translate(385.986328 0)"/>
      </g>
     </g>
    </g>
    <g id="xtick_5">
     <g id="line2d_5">
      <g>
       <use xlink:href="#m7fc49ad7f7" x="522.630464" y="246.04" style="stroke: #000000; stroke-width: 0.8"/>
      </g>
     </g>
     <g id="text_5">
      <!-- 05-05 00 -->
      <g transform="translate(500.149995 260.638438) scale(0.1 -0.1)">
       <use xlink:href="#DejaVuSans-30"/>
       <use xlink:href="#DejaVuSans-35" transform="translate(63.623047 0)"/>
       <use xlink:href="#DejaVuSans-2d" transform="translate(127.246094 0)"/>
       <use xlink:href="#DejaVuSans-30" transform="translate(163.330078 0)"/>
       <use xlink:href="#DejaVuSans-35" transform="translate(226.953125 0)"/>
       <use xlink:href="#DejaVuSans-20" transform="translate(290.576172 0)"/>
       <use xlink:href="#DejaVuSans-30" transform="translate(322.363281 0)"/>
       <use xlink:href="#DejaVuSans-30" transform="translate(385.986328 0)"/>
      </g>
     </g>
    </g>
    <g id="xtick_6">
     <g id="line2d_6">
      <g>
       <use xlink:href="#m7fc49ad7f7" x="624.049917" y="246.04" style="stroke: #000000; stroke-width: 0.8"/>
      </g>
     </g>
     <g id="text_6">
      <!-- 05-05 12 -->
      <g transform="translate(601.569449 260.638438) scale(0.1 -0.1)">
       <use xlink:href="#DejaVuSans-30"/>
       <use xlink:href="#DejaVuSans-35" transform="translate(63.623047 0)"/>
       <use xlink:href="#DejaVuSans-2d" transform="translate(127.246094 0)"/>
       <use xlink:href="#DejaVuSans-30" transform="translate(163.330078 0)"/>
       <use xlink:href="#DejaVuSans-35" transform="translate(226.953125 0)"/>
       <use xlink:href="#DejaVuSans-20" transform="translate(290.576172 0)"/>
       <use xlink:href="#DejaVuSans-31" transform="translate(322.363281 0)"/>
       <use xlink:href="#DejaVuSans-32" transform="translate(385.986328 0)"/>
      </g>
     </g>
    </g>
    <g id="text_7">
     <!-- Tijd -->
     <g transform="translate(367.99 274.316562) scale(0.1 -0.1)">
      <defs>
       <path id="DejaVuSans-54" d="M -19 4666 
L 3928 4666 
L 3928 4134 
L 2272 4134 
L 2272 0 
L 1638 0 
L 1638 4134 
L -19 4134 
L -19 4666 
z
" transform="scale(0.015625)"/>
       <path id="DejaVuSans-69" d="M 603 3500 
L 1178 3500 
L 1178 0 
L 603 0 
L 603 3500 
z
M 603 4863 
L 1178 4863 
L 1178 4134 
L 603 4134 
L 603 4863 
z
" transform="scale(0.015625)"/>
       <path id="DejaVuSans-6a" d="M 603 3500 
L 1178 3500 
L 1178 -63 
Q 1178 -731 923 -1031 
Q 669 -1331 103 -1331 
L -116 -1331 
L -116 -844 
L 38 -844 
Q 366 -844 484 -692 
Q 603 -541 603 -63 
L 603 3500 
z
M 603 4863 
L 1178 4863 
L 1178 4134 
L 603 4134 
L 603 4863 
z
" transform="scale(0.015625)"/>
       <path id="DejaVuSans-64" d="M 2906 2969 
L 2906 4863 
L 3481 4863 
L 3481 0 
L 2906 0 
L 2906 525 
Q 2725 213 2448 61 
Q 2172 -91 1784 -91 
Q 1150 -91 751 415 
Q 353 922 353 1747 
Q 353 2572 751 3078 
Q 1150 3584 1784 3584 
Q 2172 3584 2448 3432 
Q 2725 3281 2906 2969 
z
M 947 1747 
Q 947 1113 1208 752 
Q 1469 391 1925 391 
Q 2381 391 2643 752 
Q 2906 1113 2906 1747 
Q 2906 2381 2643 2742 
Q 2381 3103 1925 3103 
Q 1469 3103 1208 2742 
Q 947 2381 947 1747 
z
" transform="scale(0.015625)"/>
      </defs>
      <use xlink:href="#DejaVuSans-54"/>
      <use xlink:href="#DejaVuSans-69" transform="translate(57.958984 0)"/>
      <use xlink:href="#DejaVuSans-6a" transform="translate(85.742188 0)"/>
      <use xlink:href="#DejaVuSans-64" transform="translate(113.525391 0)"/>
     </g>
    </g>
   </g>
   <g id="matplotlib.axis_2">
    <g id="ytick_1">
     <g id="line2d_7">
      <defs>
       <path id="m0c67a25a8e" d="M 0 0 
L -3.5 0 
" style="stroke: #000000; stroke-width: 0.8"/>
      </defs>
      <g>
       <use xlink:href="#m0c67a25a8e" x="44.48" y="217.590037" style="stroke: #000000; stroke-width: 0.8"/>
      </g>
     </g>
     <g id="text_8">
      <!-- 20 -->
      <g transform="translate(24.755 221.389256) scale(0.1 -0.1)">
       <use xlink:href="#DejaVuSans-32"/>
       <use xlink:href="#DejaVuSans-30" transform="translate(63.623047 0)"/>
      </g>
     </g>
    </g>
    <g id="ytick_2">
     <g id="line2d_8">
      <g>
       <use xlink:href="#m0c67a25a8e" x="44.48" y="181.063257" style="stroke: #000000; stroke-width: 0.8"/>
      </g>
     </g>
     <g id="text_9">
      <!-- 25 -->
      <g transform="translate(24.755 184.862476) scale(0.1 -0.1)">
       <use xlink:href="#DejaVuSans-32"/>
       <use xlink:href="#DejaVuSans-35" transform="translate(63.623047 0)"/>
      </g>
     </g>
    </g>
    <g id="ytick_3">
     <g id="line2d_9">
      <g>
       <use xlink:href="#m0c67a25a8e" x="44.48" y="144.536477" style="stroke: #000000; stroke-width: 0.8"/>
      </g>
     </g>
     <g id="text_10">
      <!-- 30 -->
      <g transform="translate(24.755 148.335696) scale(0.1 -0.1)">
       <use xlink:href="#DejaVuSans-33"/>
       <use xlink:href="#DejaVuSans-30" transform="translate(63.623047 0)"/>
      </g>
     </g>
    </g>
    <g id="ytick_4">
     <g id="line2d_10">
      <g>
       <use xlink:href="#m0c67a25a8e" x="44.48" y="108.009697" style="stroke: #000000; stroke-width: 0.8"/>
      </g>
     </g>
     <g id="text_11">
      <!-- 35 -->
      <g transform="translate(24.755 111.808916) scale(0.1 -0.1)">
       <use xlink:href="#DejaVuSans-33"/>
       <use xlink:href="#DejaVuSans-35" transform="translate(63.623047 0)"/>
      </g>
     </g>
    </g>
    <g id="ytick_5">
     <g id="line2d_11">
      <g>
       <use xlink:href="#m0c67a25a8e" x="44.48" y="71.482917" style="stroke: #000000; stroke-width: 0.8"/>
      </g>
     </g>
     <g id="text_12">
      <!-- 40 -->
      <g transform="translate(24.755 75.282136) scale(0.1 -0.1)">
       <use xlink:href="#DejaVuSans-34"/>
       <use xlink:href="#DejaVuSans-30" transform="translate(63.623047 0)"/>
      </g>
     </g>
    </g>
    <g id="ytick_6">
     <g id="line2d_12">
      <g>
       <use xlink:href="#m0c67a25a8e" x="44.48" y="34.956137" style="stroke: #000000; stroke-width: 0.8"/>
      </g>
     </g>
     <g id="text_13">
      <!-- 45 -->
      <g transform="translate(24.755 38.755356) scale(0.1 -0.1)">
       <use xlink:href="#DejaVuSans-34"/>
       <use xlink:href="#DejaVuSans-35" transform="translate(63.623047 0)"/>
      </g>
     </g>
    </g>
    <g id="text_14">
     <!-- Temperatuur (°C) -->
     <g transform="translate(18.675313 179.81625) rotate(-90) scale(0.1 -0.1)">
      <defs>
       <path id="DejaVuSans-65" d="M 3597 1894 
L 3597 1613 
L 953 1613 
Q 991 1019 1311 708 
Q 1631 397 2203 397 
Q 2534 397 2845 478 
Q 3156 559 3463 722 
L 3463 178 
Q 3153 47 2828 -22 
Q 2503 -91 2169 -91 
Q 1331 -91 842 396 
Q 353 884 353 1716 
Q 353 2575 817 3079 
Q 1281 3584 2069 3584 
Q 2775 3584 3186 3129 
Q 3597 2675 3597 1894 
z
M 3022 2063 
Q 3016 2534 2758 2815 
Q 2500 3097 2075 3097 
Q 1594 3097 1305 2825 
Q 1016 2553 972 2059 
L 3022 2063 
z
" transform="scale(0.015625)"/>
       <path id="DejaVuSans-6d" d="M 3328 2828 
Q 3544 3216 3844 3400 
Q 4144 3584 4550 3584 
Q 5097 3584 5394 3201 
Q 5691 2819 5691 2113 
L 5691 0 
L 5113 0 
L 5113 2094 
Q 5113 2597 4934 2840 
Q 4756 3084 4391 3084 
Q 3944 3084 3684 2787 
Q 3425 2491 3425 1978 
L 3425 0 
L 2847 0 
L 2847 2094 
Q 2847 2600 2669 2842 
Q 2491 3084 2119 3084 
Q 1678 3084 1418 2786 
Q 1159 2488 1159 1978 
L 1159 0 
L 581 0 
L 581 3500 
L 1159 3500 
L 1159 2956 
Q 1356 3278 1631 3431 
Q 1906 3584 2284 3584 
Q 2666 3584 2933 3390 
Q 3200 3197 3328 2828 
z
" transform="scale(0.015625)"/>
       <path id="DejaVuSans-70" d="M 1159 525 
L 1159 -1331 
L 581 -1331 
L 581 3500 
L 1159 3500 
L 1159 2969 
Q 1341 3281 1617 3432 
Q 1894 3584 2278 3584 
Q 2916 3584 3314 3078 
Q 3713 2572 3713 1747 
Q 3713 922 3314 415 
Q 2916 -91 2278 -91 
Q 1894 -91 1617 61 
Q 1341 213 1159 525 
z
M 3116 1747 
Q 3116 2381 2855 2742 
Q 2594 3103 2138 3103 
Q 1681 3103 1420 2742 
Q 1159 2381 1159 1747 
Q 1159 1113 1420 752 
Q 1681 391 2138 391 
Q 2594 391 2855 752 
Q 3116 1113 3116 1747 
z
" transform="scale(0.015625)"/>
       <path id="DejaVuSans-72" d="M 2631 2963 
Q 2534 3019 2420 3045 
Q 2306 3072 2169 3072 
Q 1681 3072 1420 2755 
Q 1159 2438 1159 1844 
L 1159 0 
L 581 0 
L 581 3500 
L 1159 3500 
L 1159 2956 
Q 1341 3275 1631 3429 
Q 1922 3584 2338 3584 
Q 2397 3584 2469 3576 
Q 2541 3569 2628 3553 
L 2631 2963 
z
" transform="scale(0.015625)"/>
       <path id="DejaVuSans-61" d="M 2194 1759 
Q 1497 1759 1228 1600 
Q 959 1441 959 1056 
Q 959 750 1161 570 
Q 1363 391 1709 391 
Q 2188 391 2477 730 
Q 2766 1069 2766 1631 
L 2766 1759 
L 2194 1759 
z
M 3341 1997 
L 3341 0 
L 2766 0 
L 2766 531 
Q 2569 213 2275 61 
Q 1981 -91 1556 -91 
Q 1019 -91 701 211 
Q 384 513 384 1019 
Q 384 1609 779 1909 
Q 1175 2209 1959 2209 
L 2766 2209 
L 2766 2266 
Q 2766 2663 2505 2880 
Q 2244 3097 1772 3097 
Q 1472 3097 1187 3025 
Q 903 2953 641 2809 
L 641 3341 
Q 956 3463 1253 3523 
Q 1550 3584 1831 3584 
Q 2591 3584 2966 3190 
Q 3341 2797 3341 1997 
z
" transform="scale(0.015625)"/>
       <path id="DejaVuSans-74" d="M 1172 4494 
L 1172 3500 
L 2356 3500 
L 2356 3053 
L 1172 3053 
L 1172 1153 
Q 1172 725 1289 603 
Q 1406 481 1766 481 
L 2356 481 
L 2356 0 
L 1766 0 
Q 1100 0 847 248 
Q 594 497 594 1153 
L 594 3053 
L 172 3053 
L 172 3500 
L 594 3500 
L 594 4494 
L 1172 4494 
z
" transform="scale(0.015625)"/>
       <path id="DejaVuSans-75" d="M 544 1381 
L 544 3500 
L 1119 3500 
L 1119 1403 
Q 1119 906 1312 657 
Q 1506 409 1894 409 
Q 2359 409 2629 706 
Q 2900 1003 2900 1516 
L 2900 3500 
L 3475 3500 
L 3475 0 
L 2900 0 
L 2900 538 
Q 2691 219 2414 64 
Q 2138 -91 1772 -91 
Q 1169 -91 856 284 
Q 544 659 544 1381 
z
M 1991 3584 
L 1991 3584 
z
" transform="scale(0.015625)"/>
       <path id="DejaVuSans-28" d="M 1984 4856 
Q 1566 4138 1362 3434 
Q 1159 2731 1159 2009 
Q 1159 1288 1364 580 
Q 1569 -128 1984 -844 
L 1484 -844 
Q 1016 -109 783 600 
Q 550 1309 550 2009 
Q 550 2706 781 3412 
Q 1013 4119 1484 4856 
L 1984 4856 
z
" transform="scale(0.015625)"/>
       <path id="DejaVuSans-b0" d="M 1600 4347 
Q 1350 4347 1178 4173 
Q 1006 4000 1006 3750 
Q 1006 3503 1178 3333 
Q 1350 3163 1600 3163 
Q 1850 3163 2022 3333 
Q 2194 3503 2194 3750 
Q 2194 3997 2020 4172 
Q 1847 4347 1600 4347 
z
M 1600 4750 
Q 1800 4750 1984 4673 
Q 2169 4597 2303 4453 
Q 2447 4313 2519 4134 
Q 2591 3956 2591 3750 
Q 2591 3338 2302 3052 
Q 2013 2766 1594 2766 
Q 1172 2766 890 3047 
Q 609 3328 609 3750 
Q 609 4169 896 4459 
Q 1184 4750 1600 4750 
z
" transform="scale(0.015625)"/>
       <path id="DejaVuSans-43" d="M 4122 4306 
L 4122 3641 
Q 3803 3938 3442 4084 
Q 3081 4231 2675 4231 
Q 1875 4231 1450 3742 
Q 1025 3253 1025 2328 
Q 1025 1406 1450 917 
Q 1875 428 2675 428 
Q 3081 428 3442 575 
Q 3803 722 4122 1019 
L 4122 359 
Q 3791 134 3420 21 
Q 3050 -91 2638 -91 
Q 1578 -91 968 557 
Q 359 1206 359 2328 
Q 359 3453 968 4101 
Q 1578 4750 2638 4750 
Q 3056 4750 3426 4639 
Q 3797 4528 4122 4306 
z
" transform="scale(0.015625)"/>
       <path id="DejaVuSans-29" d="M 513 4856 
L 1013 4856 
Q 1481 4119 1714 3412 
Q 1947 2706 1947 2009 
Q 1947 1309 1714 600 
Q 1481 -109 1013 -844 
L 513 -844 
Q 928 -128 1133 580 
Q 1338 1288 1338 2009 
Q 1338 2731 1133 3434 
Q 928 4138 513 4856 
z
" transform="scale(0.015625)"/>
      </defs>
      <use xlink:href="#DejaVuSans-54"/>
      <use xlink:href="#DejaVuSans-65" transform="translate(44.083984 0)"/>
      <use xlink:href="#DejaVuSans-6d" transform="translate(105.607422 0)"/>
      <use xlink:href="#DejaVuSans-70" transform="translate(203.019531 0)"/>
      <use xlink:href="#DejaVuSans-65" transform="translate(266.496094 0)"/>
      <use xlink:href="#DejaVuSans-72" transform="translate(328.019531 0)"/>
      <use xlink:href="#DejaVuSans-61" transform="translate(369.132812 0)"/>
      <use xlink:href="#DejaVuSans-74" transform="translate(430.412109 0)"/>
      <use xlink:href="#DejaVuSans-75" transform="translate(469.621094 0)"/>
      <use xlink:href="#DejaVuSans-75" transform="translate(533 0)"/>
      <use xlink:href="#DejaVuSans-72" transform="translate(596.378906 0)"/>
      <use xlink:href="#DejaVuSans-20" transform="translate(637.492188 0)"/>
      <use xlink:href="#DejaVuSans-28" transform="translate(669.279297 0)"/>
      <use xlink:href="#DejaVuSans-b0" transform="translate(708.292969 0)"/>
      <use xlink:href="#DejaVuSans-43" transform="translate(758.292969 0)"/>
      <use xlink:href="#DejaVuSans-29" transform="translate(828.117188 0)"/>
     </g>
    </g>
   </g>
   <g id="line2d_13">
    <path d="M 74.694545 105.452822 
L 78.920356 106.548626 
L 83.146167 107.522673 
L 91.597788 107.522673 
L 95.823598 108.009697 
L 100.049409 106.792138 
L 104.275219 106.792138 
L 108.50103 106.548626 
L 112.72684 106.548626 
L 116.952651 106.305114 
L 125.404272 106.305114 
L 129.630083 106.548626 
L 138.081704 106.548626 
L 142.307514 106.913894 
L 146.533325 106.913894 
L 150.759135 107.279161 
L 154.984946 107.279161 
L 159.210757 107.766185 
L 163.436567 108.740233 
L 167.662378 108.740233 
L 171.888188 108.374965 
L 176.113999 108.740233 
L 180.339809 109.470768 
L 188.79143 109.1055 
L 193.017241 107.279161 
L 197.243051 106.061602 
L 201.468862 105.574578 
L 205.694673 104.600531 
L 209.920483 104.113507 
L 214.146294 104.357019 
L 218.372104 102.895948 
L 222.597915 104.357019 
L 231.049536 104.357019 
L 235.275346 103.869995 
L 239.501157 103.991751 
L 243.726968 104.722287 
L 247.952778 104.357019 
L 252.178589 104.357019 
L 256.404399 103.626483 
L 260.63021 105.087555 
L 269.081831 105.087555 
L 273.307641 106.183358 
L 277.533452 106.305114 
L 281.759263 107.766185 
L 285.985073 108.009697 
L 294.436694 108.983744 
L 298.662505 108.496721 
L 302.888315 108.740233 
L 307.114126 108.253209 
L 311.339936 108.253209 
L 315.565747 108.009697 
L 324.017368 108.983744 
L 328.243179 108.496721 
L 332.468989 108.496721 
L 336.6948 107.766185 
L 340.92061 107.279161 
L 345.146421 108.009697 
L 349.372231 107.279161 
L 353.598042 107.279161 
L 357.823853 108.009697 
L 362.049663 108.253209 
L 366.275474 108.253209 
L 374.727095 107.766185 
L 378.952905 107.766185 
L 383.178716 108.009697 
L 387.404526 108.740233 
L 391.630337 108.009697 
L 395.856147 108.740233 
L 400.081958 108.253209 
L 404.307769 108.496721 
L 408.533579 108.009697 
L 412.75939 107.279161 
L 416.9852 106.792138 
L 421.211011 107.035649 
L 425.436821 106.305114 
L 429.662632 106.548626 
L 433.888442 106.548626 
L 438.114253 108.009697 
L 455.017495 108.009697 
L 459.243306 108.740233 
L 463.469116 108.983744 
L 467.694927 109.470768 
L 476.146548 110.931839 
L 480.372359 110.444816 
L 484.598169 111.175351 
L 488.82398 111.175351 
L 493.04979 111.905887 
L 497.275601 111.175351 
L 501.501411 110.688327 
L 505.727222 110.688327 
L 509.953032 110.444816 
L 514.178843 109.71428 
L 526.856275 108.983744 
L 531.082085 108.983744 
L 535.307896 108.253209 
L 539.533706 108.496721 
L 543.759517 108.983744 
L 547.985327 108.253209 
L 552.211138 109.1055 
L 556.436949 109.227256 
L 560.662759 108.009697 
L 569.11438 108.740233 
L 573.340191 108.253209 
L 577.566001 108.009697 
L 581.791812 108.740233 
L 586.017622 108.740233 
L 590.243433 110.201304 
L 594.469243 109.470768 
L 598.695054 109.1055 
L 602.920865 108.009697 
L 607.146675 108.253209 
L 611.372486 108.374965 
L 615.598296 107.766185 
L 624.049917 108.983744 
L 628.275728 109.470768 
L 632.501538 108.740233 
L 645.17897 108.740233 
L 649.404781 109.227256 
L 653.630591 108.253209 
L 657.856402 108.496721 
L 662.082212 107.766185 
L 666.308023 107.279161 
L 674.759644 106.548626 
L 678.985455 107.522673 
L 678.985455 107.522673 
" clip-path="url(#pde8cfcf5dc)" style="fill: none; stroke: #1f77b4; stroke-width: 2; stroke-linecap: square"/>
   </g>
   <g id="line2d_14">
    <path d="M 74.694545 109.836036 
L 78.920356 111.114473 
L 83.146167 112.636422 
L 87.371977 113.975738 
L 95.823598 116.045589 
L 100.049409 116.654368 
L 108.50103 118.541585 
L 112.72684 119.028609 
L 116.952651 119.8809 
L 121.178462 120.18529 
L 125.404272 121.09846 
L 129.630083 121.281094 
L 133.855893 122.011629 
L 138.081704 122.437775 
L 142.307514 122.650848 
L 146.533325 123.381383 
L 150.759135 123.564017 
L 154.984946 124.568504 
L 159.210757 124.355431 
L 163.436567 131.427421 
L 167.662378 125.390356 
L 171.888188 125.907819 
L 176.113999 126.242648 
L 180.339809 123.716212 
L 184.56562 127.652987 
L 188.79143 122.772604 
L 193.017241 125.623722 
L 197.243051 120.093973 
L 201.468862 119.089487 
L 205.694673 117.841489 
L 209.920483 116.928319 
L 214.146294 115.375931 
L 218.372104 117.141392 
L 222.597915 114.158372 
L 226.823725 114.280127 
L 231.049536 110.810083 
L 235.275346 109.71428 
L 239.501157 110.32306 
L 243.726968 109.196817 
L 247.952778 110.769498 
L 252.178589 111.337692 
L 256.404399 109.622963 
L 260.63021 110.201304 
L 264.85602 110.160718 
L 269.081831 109.836036 
L 273.307641 113.762665 
L 277.533452 115.254175 
L 281.759263 117.019636 
L 285.985073 118.298073 
L 290.210884 119.211243 
L 294.436694 120.550558 
L 298.662505 121.585483 
L 302.888315 122.316019 
L 311.339936 123.4727 
L 319.791558 124.142358 
L 324.017368 122.803043 
L 328.243179 123.533578 
L 332.468989 124.020602 
L 336.6948 123.564017 
L 340.92061 123.564017 
L 345.146421 123.229189 
L 353.598042 118.298073 
L 357.823853 118.541585 
L 362.049663 119.820022 
L 366.275474 119.941778 
L 370.501284 123.310359 
L 374.727095 119.393877 
L 378.952905 119.028609 
L 383.178716 118.785097 
L 387.404526 117.628416 
L 391.630337 116.623929 
L 395.856147 116.837002 
L 400.081958 115.984711 
L 408.533579 116.076027 
L 421.211011 115.345492 
L 425.436821 114.523639 
L 429.662632 114.462761 
L 433.888442 117.344318 
L 438.114253 115.436809 
L 442.340064 114.097494 
L 446.565874 115.477394 
L 450.791685 113.61047 
L 455.017495 114.949785 
L 459.243306 115.497687 
L 463.469116 118.561878 
L 471.920737 122.376897 
L 476.146548 119.393877 
L 480.372359 120.367924 
L 484.598169 120.307046 
L 488.82398 120.367924 
L 493.04979 121.828995 
L 497.275601 123.046555 
L 501.501411 123.533578 
L 505.727222 123.594456 
L 514.178843 125.299039 
L 518.404654 124.99465 
L 522.630464 124.568504 
L 526.856275 131.468007 
L 531.082085 133.903125 
L 535.307896 134.958343 
L 539.533706 134.633661 
L 543.759517 134.796002 
L 547.985327 134.065467 
L 552.211138 128.373377 
L 556.436949 136.216488 
L 560.662759 136.013562 
L 564.88857 136.46 
L 569.11438 129.46918 
L 573.340191 136.419415 
L 577.566001 129.499619 
L 581.791812 136.013562 
L 586.017622 136.094732 
L 590.243433 135.607708 
L 594.469243 133.17259 
L 598.695054 123.564017 
L 602.920865 124.406163 
L 607.146675 122.70158 
L 611.372486 117.81105 
L 615.598296 117.537099 
L 619.824107 118.572024 
L 624.049917 123.350945 
L 628.275728 121.565191 
L 632.501538 116.776124 
L 636.727349 115.497687 
L 640.95316 117.141392 
L 645.17897 114.736712 
L 649.404781 115.883247 
L 653.630591 110.728913 
L 657.856402 110.140426 
L 662.082212 111.114473 
L 666.308023 111.571058 
L 670.533833 112.230569 
L 674.759644 111.784131 
L 678.985455 113.275641 
L 678.985455 113.275641 
" clip-path="url(#pde8cfcf5dc)" style="fill: none; stroke-dasharray: 5.55,2.4; stroke-dashoffset: 0; stroke: #808080; stroke-width: 1.5"/>
   </g>
   <g id="patch_3">
    <path d="M 44.48 246.04 
L 44.48 26.88 
" style="fill: none; stroke: #000000; stroke-width: 0.8; stroke-linejoin: miter; stroke-linecap: square"/>
   </g>
   <g id="patch_4">
    <path d="M 709.2 246.04 
L 709.2 26.88 
" style="fill: none; stroke: #000000; stroke-width: 0.8; stroke-linejoin: miter; stroke-linecap: square"/>
   </g>
   <g id="patch_5">
    <path d="M 44.48 246.04 
L 709.2 246.04 
" style="fill: none; stroke: #000000; stroke-width: 0.8; stroke-linejoin: miter; stroke-linecap: square"/>
   </g>
   <g id="patch_6">
    <path d="M 44.48 26.88 
L 709.2 26.88 
" style="fill: none; stroke: #000000; stroke-width: 0.8; stroke-linejoin: miter; stroke-linecap: square"/>
   </g>
   <g id="text_15">
    <!-- Temperatuur - v001/c00001/d001 -->
    <g transform="translate(275.918125 20.88) scale(0.12 -0.12)">
     <defs>
      <path id="DejaVuSans-76" d="M 191 3500 
L 800 3500 
L 1894 563 
L 2988 3500 
L 3597 3500 
L 2284 0 
L 1503 0 
L 191 3500 
z
" transform="scale(0.015625)"/>
      <path id="DejaVuSans-2f" d="M 1625 4666 
L 2156 4666 
L 531 -594 
L 0 -594 
L 1625 4666 
z
" transform="scale(0.015625)"/>
      <path id="DejaVuSans-63" d="M 3122 3366 
L 3122 2828 
Q 2878 2963 2633 3030 
Q 2388 3097 2138 3097 
Q 1578 3097 1268 2742 
Q 959 2388 959 1747 
Q 959 1106 1268 751 
Q 1578 397 2138 397 
Q 2388 397 2633 464 
Q 2878 531 3122 666 
L 3122 134 
Q 2881 22 2623 -34 
Q 2366 -91 2075 -91 
Q 1284 -91 818 406 
Q 353 903 353 1747 
Q 353 2603 823 3093 
Q 1294 3584 2113 3584 
Q 2378 3584 2631 3529 
Q 2884 3475 3122 3366 
z
" transform="scale(0.015625)"/>
     </defs>
     <use xlink:href="#DejaVuSans-54"/>
     <use xlink:href="#DejaVuSans-65" transform="translate(44.083984 0)"/>
     <use xlink:href="#DejaVuSans-6d" transform="translate(105.607422 0)"/>
     <use xlink:href="#DejaVuSans-70" transform="translate(203.019531 0)"/>
     <use xlink:href="#DejaVuSans-65" transform="translate(266.496094 0)"/>
     <use xlink:href="#DejaVuSans-72" transform="translate(328.019531 0)"/>
     <use xlink:href="#DejaVuSans-61" transform="translate(369.132812 0)"/>
     <use xlink:href="#DejaVuSans-74" transform="translate(430.412109 0)"/>
     <use xlink:href="#DejaVuSans-75" transform="translate(469.621094 0)"/>
     <use xlink:href="#DejaVuSans-75" transform="translate(533 0)"/>
     <use xlink:href="#DejaVuSans-72" transform="translate(596.378906 0)"/>
     <use xlink:href="#DejaVuSans-20" transform="translate(637.492188 0)"/>
     <use xlink:href="#DejaVuSans-2d" transform="translate(669.279297 0)"/>
     <use xlink:href="#DejaVuSans-20" transform="translate(705.363281 0)"/>
     <use xlink:href="#DejaVuSans-76" transform="translate(737.150391 0)"/>
     <use xlink:href="#DejaVuSans-30" transform="translate(796.330078 0)"/>
     <use xlink:href="#DejaVuSans-30" transform="translate(859.953125 0)"/>
     <use xlink:href="#DejaVuSans-31" transform="translate(923.576172 0)"/>
     <use xlink:href="#DejaVuSans-2f" transform="translate(987.199219 0)"/>
     <use xlink:href="#DejaVuSans-63" transform="translate(1020.890625 0)"/>
     <use xlink:href="#DejaVuSans-30" transform="translate(1075.871094 0)"/>
     <use xlink:href="#DejaVuSans-30" transform="translate(1139.494141 0)"/>
     <use xlink:href="#DejaVuSans-30" transform="translate(1203.117188 0)"/>
     <use xlink:href="#DejaVuSans-30" transform="translate(1266.740234 0)"/>
     <use xlink:href="#DejaVuSans-31" transform="translate(1330.363281 0)"/>
     <use xlink:href="#DejaVuSans-2f" transform="translate(1393.986328 0)"/>
     <use xlink:href="#DejaVuSans-64" transform="translate(1427.677734 0)"/>
     <use xlink:href="#DejaVuSans-30" transform="translate(1491.154297 0)"/>
     <use xlink:href="#DejaVuSans-30" transform="translate(1554.777344 0)"/>
     <use xlink:href="#DejaVuSans-31" transform="translate(1618.400391 0)"/>
    </g>
   </g>
   <g id="legend_1">
    <g id="patch_7">
     <path d="M 301.368125 241.04 
L 452.311875 241.04 
Q 454.311875 241.04 454.311875 239.04 
L 454.311875 196.005625 
Q 454.311875 194.005625 452.311875 194.005625 
L 301.368125 194.005625 
Q 299.368125 194.005625 299.368125 196.005625 
L 299.368125 239.04 
Q 299.368125 241.04 301.368125 241.04 
z
" style="fill: #ffffff; opacity: 0.8; stroke: #cccccc; stroke-linejoin: miter"/>
    </g>
    <g id="line2d_15">
     <path d="M 303.368125 202.104062 
L 313.368125 202.104062 
L 323.368125 202.104062 
" style="fill: none; stroke: #1f77b4; stroke-width: 2; stroke-linecap: square"/>
    </g>
    <g id="text_16">
     <!-- Hive -->
     <g transform="translate(331.368125 205.604062) scale(0.1 -0.1)">
      <defs>
       <path id="DejaVuSans-48" d="M 628 4666 
L 1259 4666 
L 1259 2753 
L 3553 2753 
L 3553 4666 
L 4184 4666 
L 4184 0 
L 3553 0 
L 3553 2222 
L 1259 2222 
L 1259 0 
L 628 0 
L 628 4666 
z
" transform="scale(0.015625)"/>
      </defs>
      <use xlink:href="#DejaVuSans-48"/>
      <use xlink:href="#DejaVuSans-69" transform="translate(75.195312 0)"/>
      <use xlink:href="#DejaVuSans-76" transform="translate(102.978516 0)"/>
      <use xlink:href="#DejaVuSans-65" transform="translate(162.158203 0)"/>
     </g>
    </g>
    <g id="line2d_16">
     <path d="M 303.368125 216.782187 
L 313.368125 216.782187 
L 323.368125 216.782187 
" style="fill: none; stroke-dasharray: 5.55,2.4; stroke-dashoffset: 0; stroke: #808080; stroke-width: 1.5"/>
    </g>
    <g id="text_17">
     <!-- Gemiddelde (alle hives) -->
     <g transform="translate(331.368125 220.282187) scale(0.1 -0.1)">
      <defs>
       <path id="DejaVuSans-47" d="M 3809 666 
L 3809 1919 
L 2778 1919 
L 2778 2438 
L 4434 2438 
L 4434 434 
Q 4069 175 3628 42 
Q 3188 -91 2688 -91 
Q 1594 -91 976 548 
Q 359 1188 359 2328 
Q 359 3472 976 4111 
Q 1594 4750 2688 4750 
Q 3144 4750 3555 4637 
Q 3966 4525 4313 4306 
L 4313 3634 
Q 3963 3931 3569 4081 
Q 3175 4231 2741 4231 
Q 1884 4231 1454 3753 
Q 1025 3275 1025 2328 
Q 1025 1384 1454 906 
Q 1884 428 2741 428 
Q 3075 428 3337 486 
Q 3600 544 3809 666 
z
" transform="scale(0.015625)"/>
       <path id="DejaVuSans-6c" d="M 603 4863 
L 1178 4863 
L 1178 0 
L 603 0 
L 603 4863 
z
" transform="scale(0.015625)"/>
       <path id="DejaVuSans-68" d="M 3513 2113 
L 3513 0 
L 2938 0 
L 2938 2094 
Q 2938 2591 2744 2837 
Q 2550 3084 2163 3084 
Q 1697 3084 1428 2787 
Q 1159 2491 1159 1978 
L 1159 0 
L 581 0 
L 581 4863 
L 1159 4863 
L 1159 2956 
Q 1366 3272 1645 3428 
Q 1925 3584 2291 3584 
Q 2894 3584 3203 3211 
Q 3513 2838 3513 2113 
z
" transform="scale(0.015625)"/>
       <path id="DejaVuSans-73" d="M 2834 3397 
L 2834 2853 
Q 2591 2978 2328 3040 
Q 2066 3103 1784 3103 
Q 1356 3103 1142 2972 
Q 928 2841 928 2578 
Q 928 2378 1081 2264 
Q 1234 2150 1697 2047 
L 1894 2003 
Q 2506 1872 2764 1633 
Q 3022 1394 3022 966 
Q 3022 478 2636 193 
Q 2250 -91 1575 -91 
Q 1294 -91 989 -36 
Q 684 19 347 128 
L 347 722 
Q 666 556 975 473 
Q 1284 391 1588 391 
Q 1994 391 2212 530 
Q 2431 669 2431 922 
Q 2431 1156 2273 1281 
Q 2116 1406 1581 1522 
L 1381 1569 
Q 847 1681 609 1914 
Q 372 2147 372 2553 
Q 372 3047 722 3315 
Q 1072 3584 1716 3584 
Q 2034 3584 2315 3537 
Q 2597 3491 2834 3397 
z
" transform="scale(0.015625)"/>
      </defs>
      <use xlink:href="#DejaVuSans-47"/>
      <use xlink:href="#DejaVuSans-65" transform="translate(77.490234 0)"/>
      <use xlink:href="#DejaVuSans-6d" transform="translate(139.013672 0)"/>
      <use xlink:href="#DejaVuSans-69" transform="translate(236.425781 0)"/>
      <use xlink:href="#DejaVuSans-64" transform="translate(264.208984 0)"/>
      <use xlink:href="#DejaVuSans-64" transform="translate(327.685547 0)"/>
      <use xlink:href="#DejaVuSans-65" transform="translate(391.162109 0)"/>
      <use xlink:href="#DejaVuSans-6c" transform="translate(452.685547 0)"/>
      <use xlink:href="#DejaVuSans-64" transform="translate(480.46875 0)"/>
      <use xlink:href="#DejaVuSans-65" transform="translate(543.945312 0)"/>
      <use xlink:href="#DejaVuSans-20" transform="translate(605.46875 0)"/>
      <use xlink:href="#DejaVuSans-28" transform="translate(637.255859 0)"/>
      <use xlink:href="#DejaVuSans-61" transform="translate(676.269531 0)"/>
      <use xlink:href="#DejaVuSans-6c" transform="translate(737.548828 0)"/>
      <use xlink:href="#DejaVuSans-6c" transform="translate(765.332031 0)"/>
      <use xlink:href="#DejaVuSans-65" transform="translate(793.115234 0)"/>
      <use xlink:href="#DejaVuSans-20" transform="translate(854.638672 0)"/>
      <use xlink:href="#DejaVuSans-68" transform="translate(886.425781 0)"/>
      <use xlink:href="#DejaVuSans-69" transform="translate(949.804688 0)"/>
      <use xlink:href="#DejaVuSans-76" transform="translate(977.587891 0)"/>
      <use xlink:href="#DejaVuSans-65" transform="translate(1036.767578 0)"/>
      <use xlink:href="#DejaVuSans-73" transform="translate(1098.291016 0)"/>
      <use xlink:href="#DejaVuSans-29" transform="translate(1150.390625 0)"/>
     </g>
    </g>
    <g id="patch_8">
     <path d="M 303.368125 234.960312 
L 323.368125 234.960312 
L 323.368125 227.960312 
L 303.368125 227.960312 
z
" style="fill: #808080; fill-opacity: 0.2; stroke: #808080; stroke-opacity: 0.2; stroke-linejoin: miter"/>
    </g>
    <g id="text_18">
     <!-- ±2 Std Dev -->
     <g transform="translate(331.368125 234.960312) scale(0.1 -0.1)">
      <defs>
       <path id="DejaVuSans-b1" d="M 2944 4013 
L 2944 2803 
L 4684 2803 
L 4684 2272 
L 2944 2272 
L 2944 1063 
L 2419 1063 
L 2419 2272 
L 678 2272 
L 678 2803 
L 2419 2803 
L 2419 4013 
L 2944 4013 
z
M 678 531 
L 4684 531 
L 4684 0 
L 678 0 
L 678 531 
z
" transform="scale(0.015625)"/>
       <path id="DejaVuSans-53" d="M 3425 4513 
L 3425 3897 
Q 3066 4069 2747 4153 
Q 2428 4238 2131 4238 
Q 1616 4238 1336 4038 
Q 1056 3838 1056 3469 
Q 1056 3159 1242 3001 
Q 1428 2844 1947 2747 
L 2328 2669 
Q 3034 2534 3370 2195 
Q 3706 1856 3706 1288 
Q 3706 609 3251 259 
Q 2797 -91 1919 -91 
Q 1588 -91 1214 -16 
Q 841 59 441 206 
L 441 856 
Q 825 641 1194 531 
Q 1563 422 1919 422 
Q 2459 422 2753 634 
Q 3047 847 3047 1241 
Q 3047 1584 2836 1778 
Q 2625 1972 2144 2069 
L 1759 2144 
Q 1053 2284 737 2584 
Q 422 2884 422 3419 
Q 422 4038 858 4394 
Q 1294 4750 2059 4750 
Q 2388 4750 2728 4690 
Q 3069 4631 3425 4513 
z
" transform="scale(0.015625)"/>
       <path id="DejaVuSans-44" d="M 1259 4147 
L 1259 519 
L 2022 519 
Q 2988 519 3436 956 
Q 3884 1394 3884 2338 
Q 3884 3275 3436 3711 
Q 2988 4147 2022 4147 
L 1259 4147 
z
M 628 4666 
L 1925 4666 
Q 3281 4666 3915 4102 
Q 4550 3538 4550 2338 
Q 4550 1131 3912 565 
Q 3275 0 1925 0 
L 628 0 
L 628 4666 
z
" transform="scale(0.015625)"/>
      </defs>
      <use xlink:href="#DejaVuSans-b1"/>
      <use xlink:href="#DejaVuSans-32" transform="translate(83.789062 0)"/>
      <use xlink:href="#DejaVuSans-20" transform="translate(147.412109 0)"/>
      <use xlink:href="#DejaVuSans-53" transform="translate(179.199219 0)"/>
      <use xlink:href="#DejaVuSans-74" transform="translate(242.675781 0)"/>
      <use xlink:href="#DejaVuSans-64" transform="translate(281.884766 0)"/>
      <use xlink:href="#DejaVuSans-20" transform="translate(345.361328 0)"/>
      <use xlink:href="#DejaVuSans-44" transform="translate(377.148438 0)"/>
      <use xlink:href="#DejaVuSans-65" transform="translate(454.150391 0)"/>
      <use xlink:href="#DejaVuSans-76" transform="translate(515.673828 0)"/>
     </g>
    </g>
   </g>
  </g>
 </g>
 <defs>
  <clipPath id="pde8cfcf5dc">
   <rect x="44.48" y="26.88" width="664.72" height="219.16"/>
  </clipPath>
 </defs>
</svg>
