<?xml version="1.0" encoding="utf-8" standalone="no"?>
<!DOCTYPE svg PUBLIC "-//W3C//DTD SVG 1.1//EN"
  "http://www.w3.org/Graphics/SVG/1.1/DTD/svg11.dtd">
<svg xmlns:xlink="http://www.w3.org/1999/xlink" width="720pt" height="288pt" viewBox="0 0 720 288" xmlns="http://www.w3.org/2000/svg" version="1.1">
 <metadata>
  <rdf:RDF xmlns:dc="http://purl.org/dc/elements/1.1/" xmlns:cc="http://creativecommons.org/ns#" xmlns:rdf="http://www.w3.org/1999/02/22-rdf-syntax-ns#">
   <cc:Work>
    <dc:type rdf:resource="http://purl.org/dc/dcmitype/StillImage"/>
    <dc:date>2025-06-13T07:15:55.543999</dc:date>
    <dc:format>image/svg+xml</dc:format>
    <dc:creator>
     <cc:Agent>
      <dc:title>Matplotlib v3.10.3, https://matplotlib.org/</dc:title>
     </cc:Agent>
    </dc:creator>
   </cc:Work>
  </rdf:RDF>
 </metadata>
 <defs>
  <style type="text/css">*{stroke-linejoin: round; stroke-linecap: butt}</style>
 </defs>
 <g id="figure_1">
  <g id="patch_1">
   <path d="M 0 288 
L 720 288 
L 720 0 
L 0 0 
z
" style="fill: #ffffff"/>
  </g>
  <g id="axes_1">
   <g id="patch_2">
    <path d="M 65.45 246.04 
L 709.2 246.04 
L 709.2 26.88 
L 65.45 26.88 
z
" style="fill: #ffffff"/>
   </g>
   <g id="FillBetweenPolyCollection_1">
    <defs>
     <path id="mcfdbb76c2f" d="M 94.711364 -153.235739 
L 94.711364 -108.61492 
L 98.215719 -111.500749 
L 101.720073 -119.965572 
L 105.224428 -109.49367 
L 108.728783 -108.138541 
L 112.233138 -115.424638 
L 115.737493 -105.656665 
L 119.241848 -107.450281 
L 122.746203 -105.892552 
L 126.250558 -104.691712 
L 129.754913 -100.75713 
L 133.259268 -101.395309 
L 136.763623 -98.007989 
L 140.267978 -107.34255 
L 143.772333 -112.953168 
L 147.276688 -108.596609 
L 150.781042 -101.781165 
L 154.285397 -109.017484 
L 157.789752 -106.128009 
L 161.294107 -111.036789 
L 164.798462 -90.120007 
L 168.302817 -97.075789 
L 171.807172 -95.622362 
L 175.311527 -97.275812 
L 178.815882 -91.740928 
L 182.320237 -95.82978 
L 185.824592 -91.153401 
L 189.328947 -90.253652 
L 192.833302 -100.96515 
L 196.337657 -98.222729 
L 199.842011 -93.379511 
L 203.346366 -97.933713 
L 206.850721 -90.638304 
L 210.355076 -97.666545 
L 213.859431 -106.683556 
L 217.363786 -111.088896 
L 220.868141 -116.275497 
L 224.372496 -121.078645 
L 227.876851 -121.43673 
L 231.381206 -124.172675 
L 234.885561 -123.780583 
L 238.389916 -123.364043 
L 241.894271 -116.415902 
L 245.398625 -123.534247 
L 248.90298 -121.497752 
L 252.407335 -114.366711 
L 255.91169 -117.800964 
L 259.416045 -108.665609 
L 262.9204 -107.971955 
L 266.424755 -120.616405 
L 269.92911 -133.315605 
L 273.433465 -113.282245 
L 276.93782 -126.200068 
L 280.442175 -128.178758 
L 283.94653 -128.191302 
L 287.450885 -110.650934 
L 290.95524 -118.141523 
L 294.459594 -103.22334 
L 297.963949 -92.495663 
L 301.468304 -69.696117 
L 304.972659 -64.665522 
L 308.477014 -62.23856 
L 311.981369 -79.956515 
L 315.485724 -55.01098 
L 318.990079 -78.392113 
L 322.494434 -77.546087 
L 325.998789 -73.176703 
L 329.503144 -51.921818 
L 333.007499 -75.00463 
L 336.511854 -85.092147 
L 340.016208 -83.055317 
L 343.520563 -77.42054 
L 347.024918 -83.581555 
L 350.529273 -79.598465 
L 354.033628 -84.281491 
L 357.537983 -77.422063 
L 361.042338 -79.649672 
L 364.546693 -75.800511 
L 368.051048 -79.687042 
L 371.555403 -73.107994 
L 375.059758 -75.015101 
L 378.564113 -77.903919 
L 382.068468 -81.676436 
L 385.572823 -93.07608 
L 389.077177 -108.818654 
L 392.581532 -115.347994 
L 396.085887 -111.600118 
L 399.590242 -106.133673 
L 403.094597 -108.563091 
L 406.598952 -110.633553 
L 410.103307 -107.65478 
L 413.607662 -98.771068 
L 417.112017 -101.798832 
L 420.616372 -98.973164 
L 424.120727 -103.653656 
L 427.625082 -111.755807 
L 431.129437 -113.401277 
L 434.633792 -124.785219 
L 438.138146 -111.067643 
L 441.642501 -113.334296 
L 445.146856 -113.804146 
L 448.651211 -112.537578 
L 452.155566 -114.496817 
L 455.659921 -111.3291 
L 459.164276 -113.606609 
L 462.668631 -103.820535 
L 466.172986 -102.283723 
L 469.677341 -92.008065 
L 473.181696 -92.876087 
L 476.686051 -90.092819 
L 480.190406 -85.402311 
L 483.69476 -90.636295 
L 487.199115 -93.378294 
L 490.70347 -87.521929 
L 494.207825 -85.631742 
L 497.71218 -80.745848 
L 501.216535 -83.662807 
L 504.72089 -85.271364 
L 508.225245 -85.357482 
L 511.7296 -88.765624 
L 515.233955 -86.880783 
L 518.73831 -80.733004 
L 522.242665 -87.516782 
L 525.74702 -84.634742 
L 529.251375 -86.926053 
L 532.755729 -88.957266 
L 536.260084 -88.186354 
L 539.764439 -89.28468 
L 543.268794 -93.45497 
L 546.773149 -93.007689 
L 550.277504 -93.256664 
L 553.781859 -92.583437 
L 557.286214 -98.587152 
L 560.790569 -92.006198 
L 564.294924 -89.045565 
L 567.799279 -89.425989 
L 571.303634 -79.298404 
L 574.807989 -86.19724 
L 578.312343 -91.507595 
L 581.816698 -91.632329 
L 585.321053 -94.238739 
L 588.825408 -81.874919 
L 592.329763 -83.370897 
L 595.834118 -89.256718 
L 599.338473 -86.230593 
L 602.842828 -79.94409 
L 606.347183 -90.668235 
L 609.851538 -85.754198 
L 613.355893 -105.295051 
L 616.860248 -90.015666 
L 620.364603 -94.269078 
L 623.868958 -87.77112 
L 627.373312 -88.338896 
L 630.877667 -83.891701 
L 634.382022 -98.95484 
L 637.886377 -108.708173 
L 641.390732 -119.191674 
L 644.895087 -106.481384 
L 648.399442 -91.208369 
L 651.903797 -110.687725 
L 651.903797 -133.207324 
L 651.903797 -133.207324 
L 648.399442 -154.513361 
L 644.895087 -160.66818 
L 641.390732 -140.872056 
L 637.886377 -162.850672 
L 634.382022 -162.001074 
L 630.877667 -165.706081 
L 627.373312 -162.949158 
L 623.868958 -166.76272 
L 620.364603 -166.778278 
L 616.860248 -172.97097 
L 613.355893 -144.252385 
L 609.851538 -169.291356 
L 606.347183 -158.229212 
L 602.842828 -175.182866 
L 599.338473 -168.870902 
L 595.834118 -174.722867 
L 592.329763 -162.918489 
L 588.825408 -173.16705 
L 585.321053 -154.546611 
L 581.816698 -163.295965 
L 578.312343 -155.156165 
L 574.807989 -152.812672 
L 571.303634 -156.110499 
L 567.799279 -152.105203 
L 564.294924 -142.997567 
L 560.790569 -133.291766 
L 557.286214 -114.23494 
L 553.781859 -122.78934 
L 550.277504 -122.046546 
L 546.773149 -121.006731 
L 543.268794 -122.863781 
L 539.764439 -129.185639 
L 536.260084 -134.143162 
L 532.755729 -134.72487 
L 529.251375 -140.628907 
L 525.74702 -144.772718 
L 522.242665 -141.182812 
L 518.73831 -149.661412 
L 515.233955 -141.977413 
L 511.7296 -140.53641 
L 508.225245 -140.227563 
L 504.72089 -140.64287 
L 501.216535 -143.903833 
L 497.71218 -159.84977 
L 494.207825 -153.591483 
L 490.70347 -153.787088 
L 487.199115 -151.447923 
L 483.69476 -157.178758 
L 480.190406 -173.069771 
L 476.686051 -174.82444 
L 473.181696 -174.231777 
L 469.677341 -175.935069 
L 466.172986 -171.913868 
L 462.668631 -174.824656 
L 459.164276 -158.313084 
L 455.659921 -164.585135 
L 452.155566 -163.812114 
L 448.651211 -164.189336 
L 445.146856 -170.282977 
L 441.642501 -171.022695 
L 438.138146 -162.359481 
L 434.633792 -148.82069 
L 431.129437 -161.241688 
L 427.625082 -158.555742 
L 424.120727 -168.29739 
L 420.616372 -171.347299 
L 417.112017 -162.873764 
L 413.607662 -168.582689 
L 410.103307 -162.036196 
L 406.598952 -151.156554 
L 403.094597 -154.719591 
L 399.590242 -147.270234 
L 396.085887 -141.106323 
L 392.581532 -144.490641 
L 389.077177 -145.647514 
L 385.572823 -157.707217 
L 382.068468 -168.565895 
L 378.564113 -174.712514 
L 375.059758 -179.681591 
L 371.555403 -174.726424 
L 368.051048 -170.891549 
L 364.546693 -171.30975 
L 361.042338 -170.341232 
L 357.537983 -175.571817 
L 354.033628 -175.903239 
L 350.529273 -184.232252 
L 347.024918 -182.799693 
L 343.520563 -192.859556 
L 340.016208 -190.711755 
L 336.511854 -193.347415 
L 333.007499 -212.212718 
L 329.503144 -248.519687 
L 325.998789 -212.055792 
L 322.494434 -218.57435 
L 318.990079 -228.282487 
L 315.485724 -238.042038 
L 311.981369 -227.745818 
L 308.477014 -235.054482 
L 304.972659 -244.946399 
L 301.468304 -251.158182 
L 297.963949 -220.424326 
L 294.459594 -201.002774 
L 290.95524 -181.959419 
L 287.450885 -196.606024 
L 283.94653 -185.353256 
L 280.442175 -207.193774 
L 276.93782 -199.542656 
L 273.433465 -204.683787 
L 269.92911 -187.857187 
L 266.424755 -186.425498 
L 262.9204 -197.905642 
L 259.416045 -196.319087 
L 255.91169 -181.487915 
L 252.407335 -186.628669 
L 248.90298 -191.54334 
L 245.398625 -178.943359 
L 241.894271 -191.816434 
L 238.389916 -180.768325 
L 234.885561 -173.107453 
L 231.381206 -178.161595 
L 227.876851 -165.482472 
L 224.372496 -169.463799 
L 220.868141 -163.301323 
L 217.363786 -160.362985 
L 213.859431 -150.655879 
L 210.355076 -150.837318 
L 206.850721 -150.454941 
L 203.346366 -139.493874 
L 199.842011 -137.759348 
L 196.337657 -132.230701 
L 192.833302 -131.363219 
L 189.328947 -139.393248 
L 185.824592 -147.417592 
L 182.320237 -136.262121 
L 178.815882 -146.22619 
L 175.311527 -139.748919 
L 171.807172 -141.964646 
L 168.302817 -139.938902 
L 164.798462 -154.752315 
L 161.294107 -141.346046 
L 157.789752 -138.513788 
L 154.285397 -141.375457 
L 150.781042 -143.241306 
L 147.276688 -141.663549 
L 143.772333 -141.074079 
L 140.267978 -143.1217 
L 136.763623 -147.344747 
L 133.259268 -140.861935 
L 129.754913 -146.812338 
L 126.250558 -142.599588 
L 122.746203 -138.370261 
L 119.241848 -146.003728 
L 115.737493 -144.326556 
L 112.233138 -143.480523 
L 108.728783 -145.540152 
L 105.224428 -141.504476 
L 101.720073 -146.010259 
L 98.215719 -147.397036 
L 94.711364 -153.235739 
z
" style="stroke: #808080; stroke-opacity: 0.2"/>
    </defs>
    <g clip-path="url(#p57f24e51e1)">
     <use xlink:href="#mcfdbb76c2f" x="0" y="288" style="fill: #808080; fill-opacity: 0.2; stroke: #808080; stroke-opacity: 0.2"/>
    </g>
   </g>
   <g id="matplotlib.axis_1">
    <g id="xtick_1">
     <g id="line2d_1">
      <defs>
       <path id="m8493d53f3b" d="M 0 0 
L 0 3.5 
" style="stroke: #000000; stroke-width: 0.8"/>
      </defs>
      <g>
       <use xlink:href="#m8493d53f3b" x="129.754913" y="246.04" style="stroke: #000000; stroke-width: 0.8"/>
      </g>
     </g>
     <g id="text_1">
      <!-- 06-10 12 -->
      <g transform="translate(107.274444 260.638438) scale(0.1 -0.1)">
       <defs>
        <path id="DejaVuSans-30" d="M 2034 4250 
Q 1547 4250 1301 3770 
Q 1056 3291 1056 2328 
Q 1056 1369 1301 889 
Q 1547 409 2034 409 
Q 2525 409 2770 889 
Q 3016 1369 3016 2328 
Q 3016 3291 2770 3770 
Q 2525 4250 2034 4250 
z
M 2034 4750 
Q 2819 4750 3233 4129 
Q 3647 3509 3647 2328 
Q 3647 1150 3233 529 
Q 2819 -91 2034 -91 
Q 1250 -91 836 529 
Q 422 1150 422 2328 
Q 422 3509 836 4129 
Q 1250 4750 2034 4750 
z
" transform="scale(0.015625)"/>
        <path id="DejaVuSans-36" d="M 2113 2584 
Q 1688 2584 1439 2293 
Q 1191 2003 1191 1497 
Q 1191 994 1439 701 
Q 1688 409 2113 409 
Q 2538 409 2786 701 
Q 3034 994 3034 1497 
Q 3034 2003 2786 2293 
Q 2538 2584 2113 2584 
z
M 3366 4563 
L 3366 3988 
Q 3128 4100 2886 4159 
Q 2644 4219 2406 4219 
Q 1781 4219 1451 3797 
Q 1122 3375 1075 2522 
Q 1259 2794 1537 2939 
Q 1816 3084 2150 3084 
Q 2853 3084 3261 2657 
Q 3669 2231 3669 1497 
Q 3669 778 3244 343 
Q 2819 -91 2113 -91 
Q 1303 -91 875 529 
Q 447 1150 447 2328 
Q 447 3434 972 4092 
Q 1497 4750 2381 4750 
Q 2619 4750 2861 4703 
Q 3103 4656 3366 4563 
z
" transform="scale(0.015625)"/>
        <path id="DejaVuSans-2d" d="M 313 2009 
L 1997 2009 
L 1997 1497 
L 313 1497 
L 313 2009 
z
" transform="scale(0.015625)"/>
        <path id="DejaVuSans-31" d="M 794 531 
L 1825 531 
L 1825 4091 
L 703 3866 
L 703 4441 
L 1819 4666 
L 2450 4666 
L 2450 531 
L 3481 531 
L 3481 0 
L 794 0 
L 794 531 
z
" transform="scale(0.015625)"/>
        <path id="DejaVuSans-20" transform="scale(0.015625)"/>
        <path id="DejaVuSans-32" d="M 1228 531 
L 3431 531 
L 3431 0 
L 469 0 
L 469 531 
Q 828 903 1448 1529 
Q 2069 2156 2228 2338 
Q 2531 2678 2651 2914 
Q 2772 3150 2772 3378 
Q 2772 3750 2511 3984 
Q 2250 4219 1831 4219 
Q 1534 4219 1204 4116 
Q 875 4013 500 3803 
L 500 4441 
Q 881 4594 1212 4672 
Q 1544 4750 1819 4750 
Q 2544 4750 2975 4387 
Q 3406 4025 3406 3419 
Q 3406 3131 3298 2873 
Q 3191 2616 2906 2266 
Q 2828 2175 2409 1742 
Q 1991 1309 1228 531 
z
" transform="scale(0.015625)"/>
       </defs>
       <use xlink:href="#DejaVuSans-30"/>
       <use xlink:href="#DejaVuSans-36" transform="translate(63.623047 0)"/>
       <use xlink:href="#DejaVuSans-2d" transform="translate(127.246094 0)"/>
       <use xlink:href="#DejaVuSans-31" transform="translate(163.330078 0)"/>
       <use xlink:href="#DejaVuSans-30" transform="translate(226.953125 0)"/>
       <use xlink:href="#DejaVuSans-20" transform="translate(290.576172 0)"/>
       <use xlink:href="#DejaVuSans-31" transform="translate(322.363281 0)"/>
       <use xlink:href="#DejaVuSans-32" transform="translate(385.986328 0)"/>
      </g>
     </g>
    </g>
    <g id="xtick_2">
     <g id="line2d_2">
      <g>
       <use xlink:href="#m8493d53f3b" x="213.859431" y="246.04" style="stroke: #000000; stroke-width: 0.8"/>
      </g>
     </g>
     <g id="text_2">
      <!-- 06-11 00 -->
      <g transform="translate(191.378962 260.638438) scale(0.1 -0.1)">
       <use xlink:href="#DejaVuSans-30"/>
       <use xlink:href="#DejaVuSans-36" transform="translate(63.623047 0)"/>
       <use xlink:href="#DejaVuSans-2d" transform="translate(127.246094 0)"/>
       <use xlink:href="#DejaVuSans-31" transform="translate(163.330078 0)"/>
       <use xlink:href="#DejaVuSans-31" transform="translate(226.953125 0)"/>
       <use xlink:href="#DejaVuSans-20" transform="translate(290.576172 0)"/>
       <use xlink:href="#DejaVuSans-30" transform="translate(322.363281 0)"/>
       <use xlink:href="#DejaVuSans-30" transform="translate(385.986328 0)"/>
      </g>
     </g>
    </g>
    <g id="xtick_3">
     <g id="line2d_3">
      <g>
       <use xlink:href="#m8493d53f3b" x="297.963949" y="246.04" style="stroke: #000000; stroke-width: 0.8"/>
      </g>
     </g>
     <g id="text_3">
      <!-- 06-11 12 -->
      <g transform="translate(275.483481 260.638438) scale(0.1 -0.1)">
       <use xlink:href="#DejaVuSans-30"/>
       <use xlink:href="#DejaVuSans-36" transform="translate(63.623047 0)"/>
       <use xlink:href="#DejaVuSans-2d" transform="translate(127.246094 0)"/>
       <use xlink:href="#DejaVuSans-31" transform="translate(163.330078 0)"/>
       <use xlink:href="#DejaVuSans-31" transform="translate(226.953125 0)"/>
       <use xlink:href="#DejaVuSans-20" transform="translate(290.576172 0)"/>
       <use xlink:href="#DejaVuSans-31" transform="translate(322.363281 0)"/>
       <use xlink:href="#DejaVuSans-32" transform="translate(385.986328 0)"/>
      </g>
     </g>
    </g>
    <g id="xtick_4">
     <g id="line2d_4">
      <g>
       <use xlink:href="#m8493d53f3b" x="382.068468" y="246.04" style="stroke: #000000; stroke-width: 0.8"/>
      </g>
     </g>
     <g id="text_4">
      <!-- 06-12 00 -->
      <g transform="translate(359.587999 260.638438) scale(0.1 -0.1)">
       <use xlink:href="#DejaVuSans-30"/>
       <use xlink:href="#DejaVuSans-36" transform="translate(63.623047 0)"/>
       <use xlink:href="#DejaVuSans-2d" transform="translate(127.246094 0)"/>
       <use xlink:href="#DejaVuSans-31" transform="translate(163.330078 0)"/>
       <use xlink:href="#DejaVuSans-32" transform="translate(226.953125 0)"/>
       <use xlink:href="#DejaVuSans-20" transform="translate(290.576172 0)"/>
       <use xlink:href="#DejaVuSans-30" transform="translate(322.363281 0)"/>
       <use xlink:href="#DejaVuSans-30" transform="translate(385.986328 0)"/>
      </g>
     </g>
    </g>
    <g id="xtick_5">
     <g id="line2d_5">
      <g>
       <use xlink:href="#m8493d53f3b" x="466.172986" y="246.04" style="stroke: #000000; stroke-width: 0.8"/>
      </g>
     </g>
     <g id="text_5">
      <!-- 06-12 12 -->
      <g transform="translate(443.692517 260.638438) scale(0.1 -0.1)">
       <use xlink:href="#DejaVuSans-30"/>
       <use xlink:href="#DejaVuSans-36" transform="translate(63.623047 0)"/>
       <use xlink:href="#DejaVuSans-2d" transform="translate(127.246094 0)"/>
       <use xlink:href="#DejaVuSans-31" transform="translate(163.330078 0)"/>
       <use xlink:href="#DejaVuSans-32" transform="translate(226.953125 0)"/>
       <use xlink:href="#DejaVuSans-20" transform="translate(290.576172 0)"/>
       <use xlink:href="#DejaVuSans-31" transform="translate(322.363281 0)"/>
       <use xlink:href="#DejaVuSans-32" transform="translate(385.986328 0)"/>
      </g>
     </g>
    </g>
    <g id="xtick_6">
     <g id="line2d_6">
      <g>
       <use xlink:href="#m8493d53f3b" x="550.277504" y="246.04" style="stroke: #000000; stroke-width: 0.8"/>
      </g>
     </g>
     <g id="text_6">
      <!-- 06-13 00 -->
      <g transform="translate(527.797035 260.638438) scale(0.1 -0.1)">
       <defs>
        <path id="DejaVuSans-33" d="M 2597 2516 
Q 3050 2419 3304 2112 
Q 3559 1806 3559 1356 
Q 3559 666 3084 287 
Q 2609 -91 1734 -91 
Q 1441 -91 1130 -33 
Q 819 25 488 141 
L 488 750 
Q 750 597 1062 519 
Q 1375 441 1716 441 
Q 2309 441 2620 675 
Q 2931 909 2931 1356 
Q 2931 1769 2642 2001 
Q 2353 2234 1838 2234 
L 1294 2234 
L 1294 2753 
L 1863 2753 
Q 2328 2753 2575 2939 
Q 2822 3125 2822 3475 
Q 2822 3834 2567 4026 
Q 2313 4219 1838 4219 
Q 1578 4219 1281 4162 
Q 984 4106 628 3988 
L 628 4550 
Q 988 4650 1302 4700 
Q 1616 4750 1894 4750 
Q 2613 4750 3031 4423 
Q 3450 4097 3450 3541 
Q 3450 3153 3228 2886 
Q 3006 2619 2597 2516 
z
" transform="scale(0.015625)"/>
       </defs>
       <use xlink:href="#DejaVuSans-30"/>
       <use xlink:href="#DejaVuSans-36" transform="translate(63.623047 0)"/>
       <use xlink:href="#DejaVuSans-2d" transform="translate(127.246094 0)"/>
       <use xlink:href="#DejaVuSans-31" transform="translate(163.330078 0)"/>
       <use xlink:href="#DejaVuSans-33" transform="translate(226.953125 0)"/>
       <use xlink:href="#DejaVuSans-20" transform="translate(290.576172 0)"/>
       <use xlink:href="#DejaVuSans-30" transform="translate(322.363281 0)"/>
       <use xlink:href="#DejaVuSans-30" transform="translate(385.986328 0)"/>
      </g>
     </g>
    </g>
    <g id="xtick_7">
     <g id="line2d_7">
      <g>
       <use xlink:href="#m8493d53f3b" x="634.382022" y="246.04" style="stroke: #000000; stroke-width: 0.8"/>
      </g>
     </g>
     <g id="text_7">
      <!-- 06-13 12 -->
      <g transform="translate(611.901554 260.638438) scale(0.1 -0.1)">
       <use xlink:href="#DejaVuSans-30"/>
       <use xlink:href="#DejaVuSans-36" transform="translate(63.623047 0)"/>
       <use xlink:href="#DejaVuSans-2d" transform="translate(127.246094 0)"/>
       <use xlink:href="#DejaVuSans-31" transform="translate(163.330078 0)"/>
       <use xlink:href="#DejaVuSans-33" transform="translate(226.953125 0)"/>
       <use xlink:href="#DejaVuSans-20" transform="translate(290.576172 0)"/>
       <use xlink:href="#DejaVuSans-31" transform="translate(322.363281 0)"/>
       <use xlink:href="#DejaVuSans-32" transform="translate(385.986328 0)"/>
      </g>
     </g>
    </g>
    <g id="text_8">
     <!-- Tijd -->
     <g transform="translate(378.475 274.316562) scale(0.1 -0.1)">
      <defs>
       <path id="DejaVuSans-54" d="M -19 4666 
L 3928 4666 
L 3928 4134 
L 2272 4134 
L 2272 0 
L 1638 0 
L 1638 4134 
L -19 4134 
L -19 4666 
z
" transform="scale(0.015625)"/>
       <path id="DejaVuSans-69" d="M 603 3500 
L 1178 3500 
L 1178 0 
L 603 0 
L 603 3500 
z
M 603 4863 
L 1178 4863 
L 1178 4134 
L 603 4134 
L 603 4863 
z
" transform="scale(0.015625)"/>
       <path id="DejaVuSans-6a" d="M 603 3500 
L 1178 3500 
L 1178 -63 
Q 1178 -731 923 -1031 
Q 669 -1331 103 -1331 
L -116 -1331 
L -116 -844 
L 38 -844 
Q 366 -844 484 -692 
Q 603 -541 603 -63 
L 603 3500 
z
M 603 4863 
L 1178 4863 
L 1178 4134 
L 603 4134 
L 603 4863 
z
" transform="scale(0.015625)"/>
       <path id="DejaVuSans-64" d="M 2906 2969 
L 2906 4863 
L 3481 4863 
L 3481 0 
L 2906 0 
L 2906 525 
Q 2725 213 2448 61 
Q 2172 -91 1784 -91 
Q 1150 -91 751 415 
Q 353 922 353 1747 
Q 353 2572 751 3078 
Q 1150 3584 1784 3584 
Q 2172 3584 2448 3432 
Q 2725 3281 2906 2969 
z
M 947 1747 
Q 947 1113 1208 752 
Q 1469 391 1925 391 
Q 2381 391 2643 752 
Q 2906 1113 2906 1747 
Q 2906 2381 2643 2742 
Q 2381 3103 1925 3103 
Q 1469 3103 1208 2742 
Q 947 2381 947 1747 
z
" transform="scale(0.015625)"/>
      </defs>
      <use xlink:href="#DejaVuSans-54"/>
      <use xlink:href="#DejaVuSans-69" transform="translate(57.958984 0)"/>
      <use xlink:href="#DejaVuSans-6a" transform="translate(85.742188 0)"/>
      <use xlink:href="#DejaVuSans-64" transform="translate(113.525391 0)"/>
     </g>
    </g>
   </g>
   <g id="matplotlib.axis_2">
    <g id="ytick_1">
     <g id="line2d_8">
      <defs>
       <path id="m324e1a420f" d="M 0 0 
L -3.5 0 
" style="stroke: #000000; stroke-width: 0.8"/>
      </defs>
      <g>
       <use xlink:href="#m324e1a420f" x="65.45" y="239.047137" style="stroke: #000000; stroke-width: 0.8"/>
      </g>
     </g>
     <g id="text_9">
      <!-- −5000 -->
      <g transform="translate(24.620313 242.846356) scale(0.1 -0.1)">
       <defs>
        <path id="DejaVuSans-2212" d="M 678 2272 
L 4684 2272 
L 4684 1741 
L 678 1741 
L 678 2272 
z
" transform="scale(0.015625)"/>
        <path id="DejaVuSans-35" d="M 691 4666 
L 3169 4666 
L 3169 4134 
L 1269 4134 
L 1269 2991 
Q 1406 3038 1543 3061 
Q 1681 3084 1819 3084 
Q 2600 3084 3056 2656 
Q 3513 2228 3513 1497 
Q 3513 744 3044 326 
Q 2575 -91 1722 -91 
Q 1428 -91 1123 -41 
Q 819 9 494 109 
L 494 744 
Q 775 591 1075 516 
Q 1375 441 1709 441 
Q 2250 441 2565 725 
Q 2881 1009 2881 1497 
Q 2881 1984 2565 2268 
Q 2250 2553 1709 2553 
Q 1456 2553 1204 2497 
Q 953 2441 691 2322 
L 691 4666 
z
" transform="scale(0.015625)"/>
       </defs>
       <use xlink:href="#DejaVuSans-2212"/>
       <use xlink:href="#DejaVuSans-35" transform="translate(83.789062 0)"/>
       <use xlink:href="#DejaVuSans-30" transform="translate(147.412109 0)"/>
       <use xlink:href="#DejaVuSans-30" transform="translate(211.035156 0)"/>
       <use xlink:href="#DejaVuSans-30" transform="translate(274.658203 0)"/>
      </g>
     </g>
    </g>
    <g id="ytick_2">
     <g id="line2d_9">
      <g>
       <use xlink:href="#m324e1a420f" x="65.45" y="206.773605" style="stroke: #000000; stroke-width: 0.8"/>
      </g>
     </g>
     <g id="text_10">
      <!-- 0 -->
      <g transform="translate(52.0875 210.572823) scale(0.1 -0.1)">
       <use xlink:href="#DejaVuSans-30"/>
      </g>
     </g>
    </g>
    <g id="ytick_3">
     <g id="line2d_10">
      <g>
       <use xlink:href="#m324e1a420f" x="65.45" y="174.500073" style="stroke: #000000; stroke-width: 0.8"/>
      </g>
     </g>
     <g id="text_11">
      <!-- 5000 -->
      <g transform="translate(33 178.299291) scale(0.1 -0.1)">
       <use xlink:href="#DejaVuSans-35"/>
       <use xlink:href="#DejaVuSans-30" transform="translate(63.623047 0)"/>
       <use xlink:href="#DejaVuSans-30" transform="translate(127.246094 0)"/>
       <use xlink:href="#DejaVuSans-30" transform="translate(190.869141 0)"/>
      </g>
     </g>
    </g>
    <g id="ytick_4">
     <g id="line2d_11">
      <g>
       <use xlink:href="#m324e1a420f" x="65.45" y="142.22654" style="stroke: #000000; stroke-width: 0.8"/>
      </g>
     </g>
     <g id="text_12">
      <!-- 10000 -->
      <g transform="translate(26.6375 146.025759) scale(0.1 -0.1)">
       <use xlink:href="#DejaVuSans-31"/>
       <use xlink:href="#DejaVuSans-30" transform="translate(63.623047 0)"/>
       <use xlink:href="#DejaVuSans-30" transform="translate(127.246094 0)"/>
       <use xlink:href="#DejaVuSans-30" transform="translate(190.869141 0)"/>
       <use xlink:href="#DejaVuSans-30" transform="translate(254.492188 0)"/>
      </g>
     </g>
    </g>
    <g id="ytick_5">
     <g id="line2d_12">
      <g>
       <use xlink:href="#m324e1a420f" x="65.45" y="109.953008" style="stroke: #000000; stroke-width: 0.8"/>
      </g>
     </g>
     <g id="text_13">
      <!-- 15000 -->
      <g transform="translate(26.6375 113.752227) scale(0.1 -0.1)">
       <use xlink:href="#DejaVuSans-31"/>
       <use xlink:href="#DejaVuSans-35" transform="translate(63.623047 0)"/>
       <use xlink:href="#DejaVuSans-30" transform="translate(127.246094 0)"/>
       <use xlink:href="#DejaVuSans-30" transform="translate(190.869141 0)"/>
       <use xlink:href="#DejaVuSans-30" transform="translate(254.492188 0)"/>
      </g>
     </g>
    </g>
    <g id="ytick_6">
     <g id="line2d_13">
      <g>
       <use xlink:href="#m324e1a420f" x="65.45" y="77.679476" style="stroke: #000000; stroke-width: 0.8"/>
      </g>
     </g>
     <g id="text_14">
      <!-- 20000 -->
      <g transform="translate(26.6375 81.478695) scale(0.1 -0.1)">
       <use xlink:href="#DejaVuSans-32"/>
       <use xlink:href="#DejaVuSans-30" transform="translate(63.623047 0)"/>
       <use xlink:href="#DejaVuSans-30" transform="translate(127.246094 0)"/>
       <use xlink:href="#DejaVuSans-30" transform="translate(190.869141 0)"/>
       <use xlink:href="#DejaVuSans-30" transform="translate(254.492188 0)"/>
      </g>
     </g>
    </g>
    <g id="ytick_7">
     <g id="line2d_14">
      <g>
       <use xlink:href="#m324e1a420f" x="65.45" y="45.405944" style="stroke: #000000; stroke-width: 0.8"/>
      </g>
     </g>
     <g id="text_15">
      <!-- 25000 -->
      <g transform="translate(26.6375 49.205163) scale(0.1 -0.1)">
       <use xlink:href="#DejaVuSans-32"/>
       <use xlink:href="#DejaVuSans-35" transform="translate(63.623047 0)"/>
       <use xlink:href="#DejaVuSans-30" transform="translate(127.246094 0)"/>
       <use xlink:href="#DejaVuSans-30" transform="translate(190.869141 0)"/>
       <use xlink:href="#DejaVuSans-30" transform="translate(254.492188 0)"/>
      </g>
     </g>
    </g>
    <g id="text_16">
     <!-- CO2 (PPM) -->
     <g transform="translate(18.540625 162.902969) rotate(-90) scale(0.1 -0.1)">
      <defs>
       <path id="DejaVuSans-43" d="M 4122 4306 
L 4122 3641 
Q 3803 3938 3442 4084 
Q 3081 4231 2675 4231 
Q 1875 4231 1450 3742 
Q 1025 3253 1025 2328 
Q 1025 1406 1450 917 
Q 1875 428 2675 428 
Q 3081 428 3442 575 
Q 3803 722 4122 1019 
L 4122 359 
Q 3791 134 3420 21 
Q 3050 -91 2638 -91 
Q 1578 -91 968 557 
Q 359 1206 359 2328 
Q 359 3453 968 4101 
Q 1578 4750 2638 4750 
Q 3056 4750 3426 4639 
Q 3797 4528 4122 4306 
z
" transform="scale(0.015625)"/>
       <path id="DejaVuSans-4f" d="M 2522 4238 
Q 1834 4238 1429 3725 
Q 1025 3213 1025 2328 
Q 1025 1447 1429 934 
Q 1834 422 2522 422 
Q 3209 422 3611 934 
Q 4013 1447 4013 2328 
Q 4013 3213 3611 3725 
Q 3209 4238 2522 4238 
z
M 2522 4750 
Q 3503 4750 4090 4092 
Q 4678 3434 4678 2328 
Q 4678 1225 4090 567 
Q 3503 -91 2522 -91 
Q 1538 -91 948 565 
Q 359 1222 359 2328 
Q 359 3434 948 4092 
Q 1538 4750 2522 4750 
z
" transform="scale(0.015625)"/>
       <path id="DejaVuSans-28" d="M 1984 4856 
Q 1566 4138 1362 3434 
Q 1159 2731 1159 2009 
Q 1159 1288 1364 580 
Q 1569 -128 1984 -844 
L 1484 -844 
Q 1016 -109 783 600 
Q 550 1309 550 2009 
Q 550 2706 781 3412 
Q 1013 4119 1484 4856 
L 1984 4856 
z
" transform="scale(0.015625)"/>
       <path id="DejaVuSans-50" d="M 1259 4147 
L 1259 2394 
L 2053 2394 
Q 2494 2394 2734 2622 
Q 2975 2850 2975 3272 
Q 2975 3691 2734 3919 
Q 2494 4147 2053 4147 
L 1259 4147 
z
M 628 4666 
L 2053 4666 
Q 2838 4666 3239 4311 
Q 3641 3956 3641 3272 
Q 3641 2581 3239 2228 
Q 2838 1875 2053 1875 
L 1259 1875 
L 1259 0 
L 628 0 
L 628 4666 
z
" transform="scale(0.015625)"/>
       <path id="DejaVuSans-4d" d="M 628 4666 
L 1569 4666 
L 2759 1491 
L 3956 4666 
L 4897 4666 
L 4897 0 
L 4281 0 
L 4281 4097 
L 3078 897 
L 2444 897 
L 1241 4097 
L 1241 0 
L 628 0 
L 628 4666 
z
" transform="scale(0.015625)"/>
       <path id="DejaVuSans-29" d="M 513 4856 
L 1013 4856 
Q 1481 4119 1714 3412 
Q 1947 2706 1947 2009 
Q 1947 1309 1714 600 
Q 1481 -109 1013 -844 
L 513 -844 
Q 928 -128 1133 580 
Q 1338 1288 1338 2009 
Q 1338 2731 1133 3434 
Q 928 4138 513 4856 
z
" transform="scale(0.015625)"/>
      </defs>
      <use xlink:href="#DejaVuSans-43"/>
      <use xlink:href="#DejaVuSans-4f" transform="translate(69.824219 0)"/>
      <use xlink:href="#DejaVuSans-32" transform="translate(148.535156 0)"/>
      <use xlink:href="#DejaVuSans-20" transform="translate(212.158203 0)"/>
      <use xlink:href="#DejaVuSans-28" transform="translate(243.945312 0)"/>
      <use xlink:href="#DejaVuSans-50" transform="translate(282.958984 0)"/>
      <use xlink:href="#DejaVuSans-50" transform="translate(343.261719 0)"/>
      <use xlink:href="#DejaVuSans-4d" transform="translate(403.564453 0)"/>
      <use xlink:href="#DejaVuSans-29" transform="translate(489.84375 0)"/>
     </g>
    </g>
   </g>
   <g id="line2d_15">
    <path d="M 94.711364 153.025264 
L 98.215719 157.81896 
L 101.720073 152.898322 
L 105.224428 154.854098 
L 108.728783 153.434062 
L 112.233138 150.572476 
L 115.737493 147.08048 
L 119.241848 146.163911 
L 122.746203 150.301378 
L 126.250558 153.227512 
L 129.754913 145.959512 
L 133.259268 152.330307 
L 136.763623 143.450783 
L 140.267978 149.843094 
L 143.772333 151.590168 
L 147.276688 155.949246 
L 150.781042 151.626744 
L 154.285397 151.721414 
L 157.789752 151.33198 
L 161.294107 152.734802 
L 164.798462 139.102462 
L 185.824592 142.742917 
L 189.328947 150.981274 
L 192.833302 158.369761 
L 196.337657 163.197882 
L 199.842011 162.679353 
L 203.346366 154.712094 
L 206.850721 157.199308 
L 210.355076 161.319562 
L 213.859431 159.372392 
L 217.363786 148.911465 
L 220.868141 145.404407 
L 224.372496 136.830406 
L 227.876851 141.245425 
L 231.381206 135.528707 
L 234.885561 135.907383 
L 238.389916 145.518441 
L 248.90298 126.63197 
L 252.407335 135.111302 
L 255.91169 136.673341 
L 259.416045 134.848811 
L 262.9204 130.676919 
L 266.424755 137.607122 
L 269.92911 130.73286 
L 273.433465 146.131638 
L 276.93782 130.958775 
L 280.442175 131.128748 
L 283.94653 134.21625 
L 287.450885 139.887785 
L 290.95524 123.581045 
L 294.459594 121.715635 
L 297.963949 125.211934 
L 311.981369 120.422542 
L 318.990079 123.233567 
L 322.494434 119.325242 
L 329.503144 138.844274 
L 333.007499 132.796214 
L 347.024918 146.719016 
L 350.529273 152.883261 
L 354.033628 154.583 
L 357.537983 155.79003 
L 361.042338 156.609778 
L 364.546693 161.715451 
L 368.051048 149.113712 
L 371.555403 155.57057 
L 375.059758 154.408723 
L 378.564113 152.246396 
L 382.068468 158.524674 
L 385.572823 155.820152 
L 389.077177 151.613835 
L 392.581532 153.657825 
L 403.094597 140.157807 
L 406.598952 148.607018 
L 410.103307 149.336399 
L 413.607662 135.455553 
L 417.112017 152.750939 
L 420.616372 140.328857 
L 424.120727 141.987716 
L 427.625082 139.291801 
L 431.129437 136.352758 
L 434.633792 144.346911 
L 441.642501 134.677761 
L 445.146856 147.148254 
L 448.651211 147.248302 
L 452.155566 142.194267 
L 455.659921 134.029063 
L 459.164276 141.464885 
L 462.668631 124.388959 
L 466.172986 130.675843 
L 469.677341 132.454115 
L 476.686051 135.53301 
L 480.190406 136.348454 
L 483.69476 144.276985 
L 487.199115 145.800296 
L 490.70347 160.451404 
L 494.207825 164.015478 
L 497.71218 164.639433 
L 501.216535 162.365224 
L 504.72089 163.439933 
L 508.225245 169.139439 
L 511.7296 171.066169 
L 515.233955 169.807501 
L 518.73831 175.311214 
L 522.242665 169.676255 
L 525.74702 167.896908 
L 529.251375 168.152945 
L 532.755729 171.604061 
L 536.260084 170.508912 
L 539.764439 173.409227 
L 543.268794 168.953328 
L 546.773149 170.468033 
L 550.277504 169.043694 
L 553.781859 166.233745 
L 567.799279 150.675751 
L 571.303634 134.756293 
L 574.807989 137.450058 
L 578.312343 136.236573 
L 581.816698 132.599346 
L 588.825408 121.539206 
L 592.329763 125.637945 
L 595.834118 115.820336 
L 599.338473 121.519842 
L 602.842828 113.761285 
L 606.347183 131.531092 
L 609.851538 119.04769 
L 616.860248 117.71802 
L 620.364603 126.548058 
L 623.868958 128.807206 
L 627.373312 130.666161 
L 630.877667 128.578064 
L 634.382022 136.872361 
L 637.886377 144.524416 
L 641.390732 155.867487 
L 644.895087 146.021908 
L 644.895087 146.021908 
" clip-path="url(#p57f24e51e1)" style="fill: none; stroke: #1f77b4; stroke-width: 2; stroke-linecap: square"/>
   </g>
   <g id="line2d_16">
    <path d="M 94.711364 157.07467 
L 98.215719 158.551108 
L 101.720073 155.012084 
L 105.224428 162.500927 
L 108.728783 161.160653 
L 112.233138 158.547419 
L 115.737493 163.00839 
L 119.241848 161.272996 
L 122.746203 165.868593 
L 126.250558 164.35435 
L 129.754913 164.215266 
L 133.259268 166.871378 
L 136.763623 165.323632 
L 140.267978 162.767875 
L 143.772333 160.986376 
L 147.276688 162.869921 
L 150.781042 165.488764 
L 154.285397 162.80353 
L 157.789752 165.679101 
L 161.294107 161.808583 
L 164.798462 165.563839 
L 168.302817 169.492655 
L 171.807172 169.206496 
L 175.311527 169.487634 
L 178.815882 169.016441 
L 182.320237 171.954049 
L 185.824592 168.714504 
L 189.328947 173.17655 
L 192.833302 171.835816 
L 196.337657 172.773285 
L 199.842011 172.430571 
L 203.346366 169.286207 
L 206.850721 167.453377 
L 210.355076 163.748068 
L 213.859431 159.330283 
L 217.363786 152.274059 
L 220.868141 148.21159 
L 224.372496 142.728778 
L 227.876851 144.540399 
L 231.381206 136.832865 
L 234.885561 139.555982 
L 238.389916 135.933816 
L 241.894271 133.883832 
L 245.398625 136.761197 
L 248.90298 131.479454 
L 252.407335 137.50231 
L 255.91169 138.355561 
L 259.416045 135.507652 
L 262.9204 135.061201 
L 266.424755 134.479048 
L 269.92911 127.413604 
L 273.433465 129.016984 
L 276.93782 125.128638 
L 280.442175 120.313734 
L 283.94653 131.227721 
L 287.450885 134.371521 
L 290.95524 137.949529 
L 294.459594 135.886943 
L 297.963949 131.540005 
L 301.468304 127.572851 
L 304.972659 133.194039 
L 308.477014 139.353479 
L 311.981369 134.148834 
L 315.485724 141.473491 
L 318.990079 134.6627 
L 325.998789 145.383752 
L 329.503144 137.779248 
L 333.007499 144.391326 
L 336.511854 148.780219 
L 340.016208 151.116464 
L 343.520563 152.859952 
L 347.024918 154.809376 
L 350.529273 156.084641 
L 354.033628 157.907635 
L 357.537983 161.50306 
L 364.546693 164.444869 
L 368.051048 162.710705 
L 371.555403 164.082791 
L 375.059758 160.651654 
L 378.564113 161.691783 
L 382.068468 162.878835 
L 385.572823 162.608352 
L 389.077177 160.766916 
L 392.581532 158.080683 
L 396.085887 161.64678 
L 399.590242 161.298046 
L 403.094597 156.358659 
L 406.598952 157.104946 
L 410.103307 153.154512 
L 413.607662 154.323121 
L 417.112017 155.663702 
L 420.616372 152.839768 
L 424.120727 152.024477 
L 427.625082 152.844225 
L 431.129437 150.678517 
L 434.633792 151.197045 
L 438.138146 151.286438 
L 441.642501 145.821504 
L 445.146856 145.956439 
L 448.651211 149.636543 
L 452.155566 148.845534 
L 455.659921 150.042882 
L 459.164276 152.040153 
L 462.668631 148.677405 
L 466.172986 150.901205 
L 469.677341 154.028433 
L 473.181696 154.446068 
L 476.686051 155.54137 
L 480.190406 158.763959 
L 483.69476 164.092473 
L 487.199115 165.586891 
L 490.70347 167.345491 
L 494.207825 168.388388 
L 497.71218 167.702191 
L 501.216535 174.21668 
L 504.72089 175.042883 
L 508.225245 175.207478 
L 511.7296 173.348983 
L 515.233955 173.570902 
L 518.73831 172.802792 
L 522.242665 173.650203 
L 525.74702 173.29627 
L 529.251375 174.22252 
L 532.755729 176.158932 
L 536.260084 176.835242 
L 539.764439 178.764841 
L 546.773149 180.99279 
L 550.277504 180.348395 
L 553.781859 180.313611 
L 557.286214 181.588954 
L 560.790569 175.351018 
L 564.294924 171.978434 
L 567.799279 167.234404 
L 571.303634 170.295548 
L 574.807989 168.495044 
L 578.312343 164.66812 
L 581.816698 160.535853 
L 585.321053 163.607325 
L 588.825408 160.479016 
L 592.329763 164.855307 
L 595.834118 156.010207 
L 599.338473 160.449252 
L 602.842828 160.436522 
L 606.347183 163.551277 
L 609.851538 160.477223 
L 613.355893 163.226282 
L 616.860248 156.506682 
L 620.364603 157.476322 
L 623.868958 160.73308 
L 627.373312 162.355973 
L 630.877667 163.201109 
L 634.382022 157.522043 
L 637.886377 152.220577 
L 641.390732 157.968135 
L 644.895087 154.425218 
L 648.399442 165.139135 
L 651.903797 166.052475 
L 655.408152 167.212709 
L 658.912507 167.356864 
L 662.416862 162.859009 
L 665.921217 171.221082 
L 669.425572 167.280483 
L 672.929927 171.238294 
L 676.434281 171.304993 
L 679.938636 170.940302 
L 679.938636 170.940302 
" clip-path="url(#p57f24e51e1)" style="fill: none; stroke-dasharray: 5.55,2.4; stroke-dashoffset: 0; stroke: #808080; stroke-width: 1.5"/>
   </g>
   <g id="patch_3">
    <path d="M 65.45 246.04 
L 65.45 26.88 
" style="fill: none; stroke: #000000; stroke-width: 0.8; stroke-linejoin: miter; stroke-linecap: square"/>
   </g>
   <g id="patch_4">
    <path d="M 709.2 246.04 
L 709.2 26.88 
" style="fill: none; stroke: #000000; stroke-width: 0.8; stroke-linejoin: miter; stroke-linecap: square"/>
   </g>
   <g id="patch_5">
    <path d="M 65.45 246.04 
L 709.2 246.04 
" style="fill: none; stroke: #000000; stroke-width: 0.8; stroke-linejoin: miter; stroke-linecap: square"/>
   </g>
   <g id="patch_6">
    <path d="M 65.45 26.88 
L 709.2 26.88 
" style="fill: none; stroke: #000000; stroke-width: 0.8; stroke-linejoin: miter; stroke-linecap: square"/>
   </g>
   <g id="text_17">
    <!-- CO2 - v001/c00001/d011 -->
    <g transform="translate(311.921875 20.88) scale(0.12 -0.12)">
     <defs>
      <path id="DejaVuSans-76" d="M 191 3500 
L 800 3500 
L 1894 563 
L 2988 3500 
L 3597 3500 
L 2284 0 
L 1503 0 
L 191 3500 
z
" transform="scale(0.015625)"/>
      <path id="DejaVuSans-2f" d="M 1625 4666 
L 2156 4666 
L 531 -594 
L 0 -594 
L 1625 4666 
z
" transform="scale(0.015625)"/>
      <path id="DejaVuSans-63" d="M 3122 3366 
L 3122 2828 
Q 2878 2963 2633 3030 
Q 2388 3097 2138 3097 
Q 1578 3097 1268 2742 
Q 959 2388 959 1747 
Q 959 1106 1268 751 
Q 1578 397 2138 397 
Q 2388 397 2633 464 
Q 2878 531 3122 666 
L 3122 134 
Q 2881 22 2623 -34 
Q 2366 -91 2075 -91 
Q 1284 -91 818 406 
Q 353 903 353 1747 
Q 353 2603 823 3093 
Q 1294 3584 2113 3584 
Q 2378 3584 2631 3529 
Q 2884 3475 3122 3366 
z
" transform="scale(0.015625)"/>
     </defs>
     <use xlink:href="#DejaVuSans-43"/>
     <use xlink:href="#DejaVuSans-4f" transform="translate(69.824219 0)"/>
     <use xlink:href="#DejaVuSans-32" transform="translate(148.535156 0)"/>
     <use xlink:href="#DejaVuSans-20" transform="translate(212.158203 0)"/>
     <use xlink:href="#DejaVuSans-2d" transform="translate(243.945312 0)"/>
     <use xlink:href="#DejaVuSans-20" transform="translate(280.029297 0)"/>
     <use xlink:href="#DejaVuSans-76" transform="translate(311.816406 0)"/>
     <use xlink:href="#DejaVuSans-30" transform="translate(370.996094 0)"/>
     <use xlink:href="#DejaVuSans-30" transform="translate(434.619141 0)"/>
     <use xlink:href="#DejaVuSans-31" transform="translate(498.242188 0)"/>
     <use xlink:href="#DejaVuSans-2f" transform="translate(561.865234 0)"/>
     <use xlink:href="#DejaVuSans-63" transform="translate(595.556641 0)"/>
     <use xlink:href="#DejaVuSans-30" transform="translate(650.537109 0)"/>
     <use xlink:href="#DejaVuSans-30" transform="translate(714.160156 0)"/>
     <use xlink:href="#DejaVuSans-30" transform="translate(777.783203 0)"/>
     <use xlink:href="#DejaVuSans-30" transform="translate(841.40625 0)"/>
     <use xlink:href="#DejaVuSans-31" transform="translate(905.029297 0)"/>
     <use xlink:href="#DejaVuSans-2f" transform="translate(968.652344 0)"/>
     <use xlink:href="#DejaVuSans-64" transform="translate(1002.34375 0)"/>
     <use xlink:href="#DejaVuSans-30" transform="translate(1065.820312 0)"/>
     <use xlink:href="#DejaVuSans-31" transform="translate(1129.443359 0)"/>
     <use xlink:href="#DejaVuSans-31" transform="translate(1193.066406 0)"/>
    </g>
   </g>
   <g id="legend_1">
    <g id="patch_7">
     <path d="M 551.25625 78.914375 
L 702.2 78.914375 
Q 704.2 78.914375 704.2 76.914375 
L 704.2 33.88 
Q 704.2 31.88 702.2 31.88 
L 551.25625 31.88 
Q 549.25625 31.88 549.25625 33.88 
L 549.25625 76.914375 
Q 549.25625 78.914375 551.25625 78.914375 
z
" style="fill: #ffffff; opacity: 0.8; stroke: #cccccc; stroke-linejoin: miter"/>
    </g>
    <g id="line2d_17">
     <path d="M 553.25625 39.978438 
L 563.25625 39.978438 
L 573.25625 39.978438 
" style="fill: none; stroke: #1f77b4; stroke-width: 2; stroke-linecap: square"/>
    </g>
    <g id="text_18">
     <!-- Hive -->
     <g transform="translate(581.25625 43.478438) scale(0.1 -0.1)">
      <defs>
       <path id="DejaVuSans-48" d="M 628 4666 
L 1259 4666 
L 1259 2753 
L 3553 2753 
L 3553 4666 
L 4184 4666 
L 4184 0 
L 3553 0 
L 3553 2222 
L 1259 2222 
L 1259 0 
L 628 0 
L 628 4666 
z
" transform="scale(0.015625)"/>
       <path id="DejaVuSans-65" d="M 3597 1894 
L 3597 1613 
L 953 1613 
Q 991 1019 1311 708 
Q 1631 397 2203 397 
Q 2534 397 2845 478 
Q 3156 559 3463 722 
L 3463 178 
Q 3153 47 2828 -22 
Q 2503 -91 2169 -91 
Q 1331 -91 842 396 
Q 353 884 353 1716 
Q 353 2575 817 3079 
Q 1281 3584 2069 3584 
Q 2775 3584 3186 3129 
Q 3597 2675 3597 1894 
z
M 3022 2063 
Q 3016 2534 2758 2815 
Q 2500 3097 2075 3097 
Q 1594 3097 1305 2825 
Q 1016 2553 972 2059 
L 3022 2063 
z
" transform="scale(0.015625)"/>
      </defs>
      <use xlink:href="#DejaVuSans-48"/>
      <use xlink:href="#DejaVuSans-69" transform="translate(75.195312 0)"/>
      <use xlink:href="#DejaVuSans-76" transform="translate(102.978516 0)"/>
      <use xlink:href="#DejaVuSans-65" transform="translate(162.158203 0)"/>
     </g>
    </g>
    <g id="line2d_18">
     <path d="M 553.25625 54.656563 
L 563.25625 54.656563 
L 573.25625 54.656563 
" style="fill: none; stroke-dasharray: 5.55,2.4; stroke-dashoffset: 0; stroke: #808080; stroke-width: 1.5"/>
    </g>
    <g id="text_19">
     <!-- Gemiddelde (alle hives) -->
     <g transform="translate(581.25625 58.156563) scale(0.1 -0.1)">
      <defs>
       <path id="DejaVuSans-47" d="M 3809 666 
L 3809 1919 
L 2778 1919 
L 2778 2438 
L 4434 2438 
L 4434 434 
Q 4069 175 3628 42 
Q 3188 -91 2688 -91 
Q 1594 -91 976 548 
Q 359 1188 359 2328 
Q 359 3472 976 4111 
Q 1594 4750 2688 4750 
Q 3144 4750 3555 4637 
Q 3966 4525 4313 4306 
L 4313 3634 
Q 3963 3931 3569 4081 
Q 3175 4231 2741 4231 
Q 1884 4231 1454 3753 
Q 1025 3275 1025 2328 
Q 1025 1384 1454 906 
Q 1884 428 2741 428 
Q 3075 428 3337 486 
Q 3600 544 3809 666 
z
" transform="scale(0.015625)"/>
       <path id="DejaVuSans-6d" d="M 3328 2828 
Q 3544 3216 3844 3400 
Q 4144 3584 4550 3584 
Q 5097 3584 5394 3201 
Q 5691 2819 5691 2113 
L 5691 0 
L 5113 0 
L 5113 2094 
Q 5113 2597 4934 2840 
Q 4756 3084 4391 3084 
Q 3944 3084 3684 2787 
Q 3425 2491 3425 1978 
L 3425 0 
L 2847 0 
L 2847 2094 
Q 2847 2600 2669 2842 
Q 2491 3084 2119 3084 
Q 1678 3084 1418 2786 
Q 1159 2488 1159 1978 
L 1159 0 
L 581 0 
L 581 3500 
L 1159 3500 
L 1159 2956 
Q 1356 3278 1631 3431 
Q 1906 3584 2284 3584 
Q 2666 3584 2933 3390 
Q 3200 3197 3328 2828 
z
" transform="scale(0.015625)"/>
       <path id="DejaVuSans-6c" d="M 603 4863 
L 1178 4863 
L 1178 0 
L 603 0 
L 603 4863 
z
" transform="scale(0.015625)"/>
       <path id="DejaVuSans-61" d="M 2194 1759 
Q 1497 1759 1228 1600 
Q 959 1441 959 1056 
Q 959 750 1161 570 
Q 1363 391 1709 391 
Q 2188 391 2477 730 
Q 2766 1069 2766 1631 
L 2766 1759 
L 2194 1759 
z
M 3341 1997 
L 3341 0 
L 2766 0 
L 2766 531 
Q 2569 213 2275 61 
Q 1981 -91 1556 -91 
Q 1019 -91 701 211 
Q 384 513 384 1019 
Q 384 1609 779 1909 
Q 1175 2209 1959 2209 
L 2766 2209 
L 2766 2266 
Q 2766 2663 2505 2880 
Q 2244 3097 1772 3097 
Q 1472 3097 1187 3025 
Q 903 2953 641 2809 
L 641 3341 
Q 956 3463 1253 3523 
Q 1550 3584 1831 3584 
Q 2591 3584 2966 3190 
Q 3341 2797 3341 1997 
z
" transform="scale(0.015625)"/>
       <path id="DejaVuSans-68" d="M 3513 2113 
L 3513 0 
L 2938 0 
L 2938 2094 
Q 2938 2591 2744 2837 
Q 2550 3084 2163 3084 
Q 1697 3084 1428 2787 
Q 1159 2491 1159 1978 
L 1159 0 
L 581 0 
L 581 4863 
L 1159 4863 
L 1159 2956 
Q 1366 3272 1645 3428 
Q 1925 3584 2291 3584 
Q 2894 3584 3203 3211 
Q 3513 2838 3513 2113 
z
" transform="scale(0.015625)"/>
       <path id="DejaVuSans-73" d="M 2834 3397 
L 2834 2853 
Q 2591 2978 2328 3040 
Q 2066 3103 1784 3103 
Q 1356 3103 1142 2972 
Q 928 2841 928 2578 
Q 928 2378 1081 2264 
Q 1234 2150 1697 2047 
L 1894 2003 
Q 2506 1872 2764 1633 
Q 3022 1394 3022 966 
Q 3022 478 2636 193 
Q 2250 -91 1575 -91 
Q 1294 -91 989 -36 
Q 684 19 347 128 
L 347 722 
Q 666 556 975 473 
Q 1284 391 1588 391 
Q 1994 391 2212 530 
Q 2431 669 2431 922 
Q 2431 1156 2273 1281 
Q 2116 1406 1581 1522 
L 1381 1569 
Q 847 1681 609 1914 
Q 372 2147 372 2553 
Q 372 3047 722 3315 
Q 1072 3584 1716 3584 
Q 2034 3584 2315 3537 
Q 2597 3491 2834 3397 
z
" transform="scale(0.015625)"/>
      </defs>
      <use xlink:href="#DejaVuSans-47"/>
      <use xlink:href="#DejaVuSans-65" transform="translate(77.490234 0)"/>
      <use xlink:href="#DejaVuSans-6d" transform="translate(139.013672 0)"/>
      <use xlink:href="#DejaVuSans-69" transform="translate(236.425781 0)"/>
      <use xlink:href="#DejaVuSans-64" transform="translate(264.208984 0)"/>
      <use xlink:href="#DejaVuSans-64" transform="translate(327.685547 0)"/>
      <use xlink:href="#DejaVuSans-65" transform="translate(391.162109 0)"/>
      <use xlink:href="#DejaVuSans-6c" transform="translate(452.685547 0)"/>
      <use xlink:href="#DejaVuSans-64" transform="translate(480.46875 0)"/>
      <use xlink:href="#DejaVuSans-65" transform="translate(543.945312 0)"/>
      <use xlink:href="#DejaVuSans-20" transform="translate(605.46875 0)"/>
      <use xlink:href="#DejaVuSans-28" transform="translate(637.255859 0)"/>
      <use xlink:href="#DejaVuSans-61" transform="translate(676.269531 0)"/>
      <use xlink:href="#DejaVuSans-6c" transform="translate(737.548828 0)"/>
      <use xlink:href="#DejaVuSans-6c" transform="translate(765.332031 0)"/>
      <use xlink:href="#DejaVuSans-65" transform="translate(793.115234 0)"/>
      <use xlink:href="#DejaVuSans-20" transform="translate(854.638672 0)"/>
      <use xlink:href="#DejaVuSans-68" transform="translate(886.425781 0)"/>
      <use xlink:href="#DejaVuSans-69" transform="translate(949.804688 0)"/>
      <use xlink:href="#DejaVuSans-76" transform="translate(977.587891 0)"/>
      <use xlink:href="#DejaVuSans-65" transform="translate(1036.767578 0)"/>
      <use xlink:href="#DejaVuSans-73" transform="translate(1098.291016 0)"/>
      <use xlink:href="#DejaVuSans-29" transform="translate(1150.390625 0)"/>
     </g>
    </g>
    <g id="patch_8">
     <path d="M 553.25625 72.834688 
L 573.25625 72.834688 
L 573.25625 65.834688 
L 553.25625 65.834688 
z
" style="fill: #808080; fill-opacity: 0.2; stroke: #808080; stroke-opacity: 0.2; stroke-linejoin: miter"/>
    </g>
    <g id="text_20">
     <!-- ±2 Std Dev -->
     <g transform="translate(581.25625 72.834688) scale(0.1 -0.1)">
      <defs>
       <path id="DejaVuSans-b1" d="M 2944 4013 
L 2944 2803 
L 4684 2803 
L 4684 2272 
L 2944 2272 
L 2944 1063 
L 2419 1063 
L 2419 2272 
L 678 2272 
L 678 2803 
L 2419 2803 
L 2419 4013 
L 2944 4013 
z
M 678 531 
L 4684 531 
L 4684 0 
L 678 0 
L 678 531 
z
" transform="scale(0.015625)"/>
       <path id="DejaVuSans-53" d="M 3425 4513 
L 3425 3897 
Q 3066 4069 2747 4153 
Q 2428 4238 2131 4238 
Q 1616 4238 1336 4038 
Q 1056 3838 1056 3469 
Q 1056 3159 1242 3001 
Q 1428 2844 1947 2747 
L 2328 2669 
Q 3034 2534 3370 2195 
Q 3706 1856 3706 1288 
Q 3706 609 3251 259 
Q 2797 -91 1919 -91 
Q 1588 -91 1214 -16 
Q 841 59 441 206 
L 441 856 
Q 825 641 1194 531 
Q 1563 422 1919 422 
Q 2459 422 2753 634 
Q 3047 847 3047 1241 
Q 3047 1584 2836 1778 
Q 2625 1972 2144 2069 
L 1759 2144 
Q 1053 2284 737 2584 
Q 422 2884 422 3419 
Q 422 4038 858 4394 
Q 1294 4750 2059 4750 
Q 2388 4750 2728 4690 
Q 3069 4631 3425 4513 
z
" transform="scale(0.015625)"/>
       <path id="DejaVuSans-74" d="M 1172 4494 
L 1172 3500 
L 2356 3500 
L 2356 3053 
L 1172 3053 
L 1172 1153 
Q 1172 725 1289 603 
Q 1406 481 1766 481 
L 2356 481 
L 2356 0 
L 1766 0 
Q 1100 0 847 248 
Q 594 497 594 1153 
L 594 3053 
L 172 3053 
L 172 3500 
L 594 3500 
L 594 4494 
L 1172 4494 
z
" transform="scale(0.015625)"/>
       <path id="DejaVuSans-44" d="M 1259 4147 
L 1259 519 
L 2022 519 
Q 2988 519 3436 956 
Q 3884 1394 3884 2338 
Q 3884 3275 3436 3711 
Q 2988 4147 2022 4147 
L 1259 4147 
z
M 628 4666 
L 1925 4666 
Q 3281 4666 3915 4102 
Q 4550 3538 4550 2338 
Q 4550 1131 3912 565 
Q 3275 0 1925 0 
L 628 0 
L 628 4666 
z
" transform="scale(0.015625)"/>
      </defs>
      <use xlink:href="#DejaVuSans-b1"/>
      <use xlink:href="#DejaVuSans-32" transform="translate(83.789062 0)"/>
      <use xlink:href="#DejaVuSans-20" transform="translate(147.412109 0)"/>
      <use xlink:href="#DejaVuSans-53" transform="translate(179.199219 0)"/>
      <use xlink:href="#DejaVuSans-74" transform="translate(242.675781 0)"/>
      <use xlink:href="#DejaVuSans-64" transform="translate(281.884766 0)"/>
      <use xlink:href="#DejaVuSans-20" transform="translate(345.361328 0)"/>
      <use xlink:href="#DejaVuSans-44" transform="translate(377.148438 0)"/>
      <use xlink:href="#DejaVuSans-65" transform="translate(454.150391 0)"/>
      <use xlink:href="#DejaVuSans-76" transform="translate(515.673828 0)"/>
     </g>
    </g>
   </g>
  </g>
 </g>
 <defs>
  <clipPath id="p57f24e51e1">
   <rect x="65.45" y="26.88" width="643.75" height="219.16"/>
  </clipPath>
 </defs>
</svg>
