<?xml version="1.0" encoding="utf-8" standalone="no"?>
<!DOCTYPE svg PUBLIC "-//W3C//DTD SVG 1.1//EN"
  "http://www.w3.org/Graphics/SVG/1.1/DTD/svg11.dtd">
<svg xmlns:xlink="http://www.w3.org/1999/xlink" width="720pt" height="288pt" viewBox="0 0 720 288" xmlns="http://www.w3.org/2000/svg" version="1.1">
 <metadata>
  <rdf:RDF xmlns:dc="http://purl.org/dc/elements/1.1/" xmlns:cc="http://creativecommons.org/ns#" xmlns:rdf="http://www.w3.org/1999/02/22-rdf-syntax-ns#">
   <cc:Work>
    <dc:type rdf:resource="http://purl.org/dc/dcmitype/StillImage"/>
    <dc:date>2025-04-27T04:18:08.276991</dc:date>
    <dc:format>image/svg+xml</dc:format>
    <dc:creator>
     <cc:Agent>
      <dc:title>Matplotlib v3.10.1, https://matplotlib.org/</dc:title>
     </cc:Agent>
    </dc:creator>
   </cc:Work>
  </rdf:RDF>
 </metadata>
 <defs>
  <style type="text/css">*{stroke-linejoin: round; stroke-linecap: butt}</style>
 </defs>
 <g id="figure_1">
  <g id="patch_1">
   <path d="M 0 288 
L 720 288 
L 720 0 
L 0 0 
z
" style="fill: #ffffff"/>
  </g>
  <g id="axes_1">
   <g id="patch_2">
    <path d="M 50.87 246.04 
L 709.2 246.04 
L 709.2 26.88 
L 50.87 26.88 
z
" style="fill: #ffffff"/>
   </g>
   <g id="FillBetweenPolyCollection_1">
    <defs>
     <path id="ma7e7562999" d="M 80.794091 -213.679205 
L 80.794091 -177.896058 
L 84.865396 -178.450577 
L 88.936701 -178.435523 
L 93.008006 -179.192922 
L 97.07931 -177.851985 
L 101.150615 -176.902233 
L 105.22192 -175.620568 
L 109.293225 -173.128895 
L 113.36453 -169.982236 
L 117.435835 -165.915871 
L 121.50714 -157.489651 
L 125.578445 -149.500572 
L 129.64975 -149.46121 
L 133.721054 -147.720531 
L 137.792359 -144.570854 
L 141.863664 -146.745493 
L 145.934969 -143.131451 
L 150.006274 -144.545971 
L 154.077579 -151.31215 
L 158.148884 -153.610701 
L 162.220189 -157.018319 
L 166.291494 -163.233024 
L 170.362798 -168.255447 
L 174.434103 -162.113788 
L 178.505408 -161.36041 
L 182.576713 -167.935024 
L 186.648018 -169.589106 
L 190.719323 -170.014872 
L 194.790628 -170.676032 
L 198.861933 -171.837893 
L 202.933237 -173.130649 
L 207.004542 -173.927311 
L 211.075847 -173.518913 
L 215.147152 -169.630388 
L 219.218457 -170.619357 
L 223.289762 -170.598185 
L 227.361067 -171.986049 
L 231.432372 -172.862302 
L 235.503677 -173.481928 
L 239.574981 -173.718239 
L 243.646286 -172.041061 
L 247.717591 -171.150606 
L 251.788896 -169.949948 
L 255.860201 -170.893965 
L 259.931506 -171.71655 
L 264.002811 -171.312091 
L 268.074116 -170.935931 
L 272.145421 -171.258848 
L 276.216725 -172.406924 
L 280.28803 -173.887482 
L 284.359335 -172.256552 
L 288.43064 -168.879581 
L 292.501945 -162.725658 
L 296.57325 -159.644539 
L 300.644555 -156.66374 
L 304.71586 -152.211608 
L 308.787165 -141.396007 
L 312.858469 -129.933905 
L 316.929774 -116.44095 
L 321.001079 -105.692689 
L 325.072384 -75.968483 
L 329.143689 -90.431475 
L 333.214994 -96.087966 
L 337.286299 -101.078092 
L 341.357604 -106.978023 
L 345.428908 -77.401519 
L 349.500213 -60.99666 
L 353.571518 -57.647064 
L 357.642823 -60.676484 
L 361.714128 -58.366537 
L 365.785433 -54.924657 
L 369.856738 -54.537961 
L 373.928043 -69.599803 
L 377.999348 -77.977488 
L 382.070652 -97.815718 
L 386.141957 -125.848618 
L 390.213262 -124.89386 
L 394.284567 -135.974762 
L 398.355872 -159.486401 
L 402.427177 -163.583532 
L 406.498482 -164.105888 
L 410.569787 -163.848438 
L 414.641092 -165.076209 
L 418.712396 -164.308661 
L 422.783701 -164.759613 
L 426.855006 -166.43744 
L 430.926311 -166.408366 
L 434.997616 -167.13379 
L 439.068921 -167.342219 
L 443.140226 -166.453961 
L 447.211531 -169.296389 
L 451.282835 -173.323508 
L 455.35414 -174.149564 
L 459.425445 -171.739643 
L 463.49675 -171.865308 
L 467.568055 -171.45129 
L 471.63936 -171.074402 
L 475.710665 -170.538852 
L 479.78197 -171.28535 
L 483.853275 -173.281546 
L 487.924579 -173.215988 
L 491.995884 -174.153565 
L 496.067189 -159.042094 
L 500.138494 -149.985152 
L 504.209799 -141.291386 
L 508.281104 -109.495057 
L 512.352409 -108.037419 
L 516.423714 -109.825647 
L 520.495019 -105.00877 
L 524.566323 -78.923765 
L 528.637628 -91.571448 
L 532.708933 -104.22175 
L 536.780238 -112.977421 
L 540.851543 -85.644156 
L 544.922848 -70.84106 
L 548.994153 -68.322288 
L 553.065458 -60.618728 
L 557.136763 -63.353273 
L 561.208067 -51.921818 
L 565.279372 -65.935173 
L 569.350677 -53.64388 
L 573.421982 -64.733774 
L 577.493287 -82.340336 
L 581.564592 -81.726763 
L 585.635897 -96.894745 
L 589.707202 -108.436903 
L 593.778506 -109.287316 
L 597.849811 -115.543156 
L 601.921116 -107.043127 
L 605.992421 -150.284766 
L 610.063726 -151.856753 
L 614.135031 -98.870412 
L 618.206336 -99.087733 
L 622.277641 -100.13244 
L 626.348946 -99.185219 
L 630.42025 -98.58972 
L 634.491555 -97.612185 
L 638.56286 -96.90029 
L 642.634165 -95.626156 
L 646.70547 -95.012694 
L 650.776775 -94.718312 
L 654.84808 -94.652643 
L 658.919385 -94.611095 
L 662.99069 -94.421329 
L 667.061994 -94.236327 
L 671.133299 -158.618081 
L 675.204604 -191.690585 
L 675.204604 -208.360271 
L 675.204604 -208.360271 
L 671.133299 -223.770613 
L 667.061994 -251.158182 
L 662.99069 -250.39785 
L 658.919385 -249.674851 
L 654.84808 -249.240395 
L 650.776775 -248.613429 
L 646.70547 -247.70162 
L 642.634165 -247.312677 
L 638.56286 -245.898218 
L 634.491555 -244.119858 
L 630.42025 -241.823274 
L 626.348946 -238.730001 
L 622.277641 -233.881762 
L 618.206336 -229.98705 
L 614.135031 -225.770121 
L 610.063726 -195.899883 
L 605.992421 -189.688545 
L 601.921116 -201.810913 
L 597.849811 -187.627746 
L 593.778506 -183.667972 
L 589.707202 -188.728116 
L 585.635897 -178.473221 
L 581.564592 -197.813514 
L 577.493287 -184.140418 
L 573.421982 -197.032081 
L 569.350677 -180.899045 
L 565.279372 -160.132159 
L 561.208067 -181.105604 
L 557.136763 -158.261099 
L 553.065458 -154.484593 
L 548.994153 -133.272472 
L 544.922848 -142.391269 
L 540.851543 -146.223251 
L 536.780238 -122.070672 
L 532.708933 -151.182733 
L 528.637628 -193.020507 
L 524.566323 -208.063059 
L 520.495019 -195.617584 
L 516.423714 -201.858269 
L 512.352409 -220.223483 
L 508.281104 -230.646643 
L 504.209799 -218.065399 
L 500.138494 -212.851678 
L 496.067189 -221.456898 
L 491.995884 -216.673301 
L 487.924579 -218.508954 
L 483.853275 -218.817595 
L 479.78197 -219.766036 
L 475.710665 -220.512534 
L 471.63936 -219.677625 
L 467.568055 -219.151057 
L 463.49675 -218.512521 
L 459.425445 -218.301407 
L 455.35414 -215.816647 
L 451.282835 -216.268504 
L 447.211531 -217.751074 
L 443.140226 -219.957365 
L 439.068921 -217.497474 
L 434.997616 -216.695567 
L 430.926311 -215.549999 
L 426.855006 -214.847369 
L 422.783701 -213.34451 
L 418.712396 -211.063813 
L 414.641092 -206.853641 
L 410.569787 -202.842635 
L 406.498482 -194.914118 
L 402.427177 -184.921501 
L 398.355872 -176.333308 
L 394.284567 -186.748004 
L 390.213262 -186.266177 
L 386.141957 -182.205573 
L 382.070652 -202.455147 
L 377.999348 -218.064937 
L 373.928043 -210.239833 
L 369.856738 -209.996962 
L 365.785433 -210.88254 
L 361.714128 -214.887208 
L 357.642823 -201.426149 
L 353.571518 -184.099179 
L 349.500213 -176.259204 
L 345.428908 -164.625373 
L 341.357604 -152.692321 
L 337.286299 -173.335668 
L 333.214994 -199.729939 
L 329.143689 -214.142672 
L 325.072384 -221.271375 
L 321.001079 -215.739093 
L 316.929774 -214.439341 
L 312.858469 -214.492366 
L 308.787165 -214.405894 
L 304.71586 -214.198816 
L 300.644555 -215.153851 
L 296.57325 -217.243439 
L 292.501945 -217.623655 
L 288.43064 -217.924653 
L 284.359335 -218.439345 
L 280.28803 -217.463262 
L 276.216725 -218.86898 
L 272.145421 -218.370584 
L 268.074116 -218.581242 
L 264.002811 -218.017982 
L 259.931506 -216.902546 
L 255.860201 -216.527696 
L 251.788896 -217.097515 
L 247.717591 -217.131712 
L 243.646286 -216.503195 
L 239.574981 -215.836353 
L 235.503677 -216.521702 
L 231.432372 -215.756794 
L 227.361067 -215.622712 
L 223.289762 -216.18734 
L 219.218457 -215.455191 
L 215.147152 -217.716434 
L 211.075847 -215.624061 
L 207.004542 -214.691786 
L 202.933237 -214.029074 
L 198.861933 -214.330204 
L 194.790628 -212.704288 
L 190.719323 -211.980913 
L 186.648018 -213.267336 
L 182.576713 -211.347823 
L 178.505408 -211.729454 
L 174.434103 -214.605801 
L 170.362798 -208.408012 
L 166.291494 -206.900673 
L 162.220189 -210.795349 
L 158.148884 -211.583579 
L 154.077579 -211.094351 
L 150.006274 -212.546914 
L 145.934969 -218.208585 
L 141.863664 -215.922948 
L 137.792359 -217.947907 
L 133.721054 -214.143384 
L 129.64975 -213.993047 
L 125.578445 -216.198875 
L 121.50714 -217.134427 
L 117.435835 -213.703755 
L 113.36453 -213.398083 
L 109.293225 -213.731469 
L 105.22192 -213.335307 
L 101.150615 -213.438175 
L 97.07931 -214.247156 
L 93.008006 -213.579776 
L 88.936701 -213.513939 
L 84.865396 -212.918877 
L 80.794091 -213.679205 
z
" style="stroke: #808080; stroke-opacity: 0.2"/>
    </defs>
    <g clip-path="url(#p1f078b0e3f)">
     <use xlink:href="#ma7e7562999" x="0" y="288" style="fill: #808080; fill-opacity: 0.2; stroke: #808080; stroke-opacity: 0.2"/>
    </g>
   </g>
   <g id="matplotlib.axis_1">
    <g id="xtick_1">
     <g id="line2d_1">
      <defs>
       <path id="m53b13f2a22" d="M 0 0 
L 0 3.5 
" style="stroke: #000000; stroke-width: 0.8"/>
      </defs>
      <g>
       <use xlink:href="#m53b13f2a22" x="145.934969" y="246.04" style="stroke: #000000; stroke-width: 0.8"/>
      </g>
     </g>
     <g id="text_1">
      <!-- 04-24 12 -->
      <g transform="translate(123.4545 260.638438) scale(0.1 -0.1)">
       <defs>
        <path id="DejaVuSans-30" d="M 2034 4250 
Q 1547 4250 1301 3770 
Q 1056 3291 1056 2328 
Q 1056 1369 1301 889 
Q 1547 409 2034 409 
Q 2525 409 2770 889 
Q 3016 1369 3016 2328 
Q 3016 3291 2770 3770 
Q 2525 4250 2034 4250 
z
M 2034 4750 
Q 2819 4750 3233 4129 
Q 3647 3509 3647 2328 
Q 3647 1150 3233 529 
Q 2819 -91 2034 -91 
Q 1250 -91 836 529 
Q 422 1150 422 2328 
Q 422 3509 836 4129 
Q 1250 4750 2034 4750 
z
" transform="scale(0.015625)"/>
        <path id="DejaVuSans-34" d="M 2419 4116 
L 825 1625 
L 2419 1625 
L 2419 4116 
z
M 2253 4666 
L 3047 4666 
L 3047 1625 
L 3713 1625 
L 3713 1100 
L 3047 1100 
L 3047 0 
L 2419 0 
L 2419 1100 
L 313 1100 
L 313 1709 
L 2253 4666 
z
" transform="scale(0.015625)"/>
        <path id="DejaVuSans-2d" d="M 313 2009 
L 1997 2009 
L 1997 1497 
L 313 1497 
L 313 2009 
z
" transform="scale(0.015625)"/>
        <path id="DejaVuSans-32" d="M 1228 531 
L 3431 531 
L 3431 0 
L 469 0 
L 469 531 
Q 828 903 1448 1529 
Q 2069 2156 2228 2338 
Q 2531 2678 2651 2914 
Q 2772 3150 2772 3378 
Q 2772 3750 2511 3984 
Q 2250 4219 1831 4219 
Q 1534 4219 1204 4116 
Q 875 4013 500 3803 
L 500 4441 
Q 881 4594 1212 4672 
Q 1544 4750 1819 4750 
Q 2544 4750 2975 4387 
Q 3406 4025 3406 3419 
Q 3406 3131 3298 2873 
Q 3191 2616 2906 2266 
Q 2828 2175 2409 1742 
Q 1991 1309 1228 531 
z
" transform="scale(0.015625)"/>
        <path id="DejaVuSans-20" transform="scale(0.015625)"/>
        <path id="DejaVuSans-31" d="M 794 531 
L 1825 531 
L 1825 4091 
L 703 3866 
L 703 4441 
L 1819 4666 
L 2450 4666 
L 2450 531 
L 3481 531 
L 3481 0 
L 794 0 
L 794 531 
z
" transform="scale(0.015625)"/>
       </defs>
       <use xlink:href="#DejaVuSans-30"/>
       <use xlink:href="#DejaVuSans-34" transform="translate(63.623047 0)"/>
       <use xlink:href="#DejaVuSans-2d" transform="translate(127.246094 0)"/>
       <use xlink:href="#DejaVuSans-32" transform="translate(163.330078 0)"/>
       <use xlink:href="#DejaVuSans-34" transform="translate(226.953125 0)"/>
       <use xlink:href="#DejaVuSans-20" transform="translate(290.576172 0)"/>
       <use xlink:href="#DejaVuSans-31" transform="translate(322.363281 0)"/>
       <use xlink:href="#DejaVuSans-32" transform="translate(385.986328 0)"/>
      </g>
     </g>
    </g>
    <g id="xtick_2">
     <g id="line2d_2">
      <g>
       <use xlink:href="#m53b13f2a22" x="243.646286" y="246.04" style="stroke: #000000; stroke-width: 0.8"/>
      </g>
     </g>
     <g id="text_2">
      <!-- 04-25 00 -->
      <g transform="translate(221.165818 260.638438) scale(0.1 -0.1)">
       <defs>
        <path id="DejaVuSans-35" d="M 691 4666 
L 3169 4666 
L 3169 4134 
L 1269 4134 
L 1269 2991 
Q 1406 3038 1543 3061 
Q 1681 3084 1819 3084 
Q 2600 3084 3056 2656 
Q 3513 2228 3513 1497 
Q 3513 744 3044 326 
Q 2575 -91 1722 -91 
Q 1428 -91 1123 -41 
Q 819 9 494 109 
L 494 744 
Q 775 591 1075 516 
Q 1375 441 1709 441 
Q 2250 441 2565 725 
Q 2881 1009 2881 1497 
Q 2881 1984 2565 2268 
Q 2250 2553 1709 2553 
Q 1456 2553 1204 2497 
Q 953 2441 691 2322 
L 691 4666 
z
" transform="scale(0.015625)"/>
       </defs>
       <use xlink:href="#DejaVuSans-30"/>
       <use xlink:href="#DejaVuSans-34" transform="translate(63.623047 0)"/>
       <use xlink:href="#DejaVuSans-2d" transform="translate(127.246094 0)"/>
       <use xlink:href="#DejaVuSans-32" transform="translate(163.330078 0)"/>
       <use xlink:href="#DejaVuSans-35" transform="translate(226.953125 0)"/>
       <use xlink:href="#DejaVuSans-20" transform="translate(290.576172 0)"/>
       <use xlink:href="#DejaVuSans-30" transform="translate(322.363281 0)"/>
       <use xlink:href="#DejaVuSans-30" transform="translate(385.986328 0)"/>
      </g>
     </g>
    </g>
    <g id="xtick_3">
     <g id="line2d_3">
      <g>
       <use xlink:href="#m53b13f2a22" x="341.357604" y="246.04" style="stroke: #000000; stroke-width: 0.8"/>
      </g>
     </g>
     <g id="text_3">
      <!-- 04-25 12 -->
      <g transform="translate(318.877135 260.638438) scale(0.1 -0.1)">
       <use xlink:href="#DejaVuSans-30"/>
       <use xlink:href="#DejaVuSans-34" transform="translate(63.623047 0)"/>
       <use xlink:href="#DejaVuSans-2d" transform="translate(127.246094 0)"/>
       <use xlink:href="#DejaVuSans-32" transform="translate(163.330078 0)"/>
       <use xlink:href="#DejaVuSans-35" transform="translate(226.953125 0)"/>
       <use xlink:href="#DejaVuSans-20" transform="translate(290.576172 0)"/>
       <use xlink:href="#DejaVuSans-31" transform="translate(322.363281 0)"/>
       <use xlink:href="#DejaVuSans-32" transform="translate(385.986328 0)"/>
      </g>
     </g>
    </g>
    <g id="xtick_4">
     <g id="line2d_4">
      <g>
       <use xlink:href="#m53b13f2a22" x="439.068921" y="246.04" style="stroke: #000000; stroke-width: 0.8"/>
      </g>
     </g>
     <g id="text_4">
      <!-- 04-26 00 -->
      <g transform="translate(416.588452 260.638438) scale(0.1 -0.1)">
       <defs>
        <path id="DejaVuSans-36" d="M 2113 2584 
Q 1688 2584 1439 2293 
Q 1191 2003 1191 1497 
Q 1191 994 1439 701 
Q 1688 409 2113 409 
Q 2538 409 2786 701 
Q 3034 994 3034 1497 
Q 3034 2003 2786 2293 
Q 2538 2584 2113 2584 
z
M 3366 4563 
L 3366 3988 
Q 3128 4100 2886 4159 
Q 2644 4219 2406 4219 
Q 1781 4219 1451 3797 
Q 1122 3375 1075 2522 
Q 1259 2794 1537 2939 
Q 1816 3084 2150 3084 
Q 2853 3084 3261 2657 
Q 3669 2231 3669 1497 
Q 3669 778 3244 343 
Q 2819 -91 2113 -91 
Q 1303 -91 875 529 
Q 447 1150 447 2328 
Q 447 3434 972 4092 
Q 1497 4750 2381 4750 
Q 2619 4750 2861 4703 
Q 3103 4656 3366 4563 
z
" transform="scale(0.015625)"/>
       </defs>
       <use xlink:href="#DejaVuSans-30"/>
       <use xlink:href="#DejaVuSans-34" transform="translate(63.623047 0)"/>
       <use xlink:href="#DejaVuSans-2d" transform="translate(127.246094 0)"/>
       <use xlink:href="#DejaVuSans-32" transform="translate(163.330078 0)"/>
       <use xlink:href="#DejaVuSans-36" transform="translate(226.953125 0)"/>
       <use xlink:href="#DejaVuSans-20" transform="translate(290.576172 0)"/>
       <use xlink:href="#DejaVuSans-30" transform="translate(322.363281 0)"/>
       <use xlink:href="#DejaVuSans-30" transform="translate(385.986328 0)"/>
      </g>
     </g>
    </g>
    <g id="xtick_5">
     <g id="line2d_5">
      <g>
       <use xlink:href="#m53b13f2a22" x="536.780238" y="246.04" style="stroke: #000000; stroke-width: 0.8"/>
      </g>
     </g>
     <g id="text_5">
      <!-- 04-26 12 -->
      <g transform="translate(514.299769 260.638438) scale(0.1 -0.1)">
       <use xlink:href="#DejaVuSans-30"/>
       <use xlink:href="#DejaVuSans-34" transform="translate(63.623047 0)"/>
       <use xlink:href="#DejaVuSans-2d" transform="translate(127.246094 0)"/>
       <use xlink:href="#DejaVuSans-32" transform="translate(163.330078 0)"/>
       <use xlink:href="#DejaVuSans-36" transform="translate(226.953125 0)"/>
       <use xlink:href="#DejaVuSans-20" transform="translate(290.576172 0)"/>
       <use xlink:href="#DejaVuSans-31" transform="translate(322.363281 0)"/>
       <use xlink:href="#DejaVuSans-32" transform="translate(385.986328 0)"/>
      </g>
     </g>
    </g>
    <g id="xtick_6">
     <g id="line2d_6">
      <g>
       <use xlink:href="#m53b13f2a22" x="634.491555" y="246.04" style="stroke: #000000; stroke-width: 0.8"/>
      </g>
     </g>
     <g id="text_6">
      <!-- 04-27 00 -->
      <g transform="translate(612.011087 260.638438) scale(0.1 -0.1)">
       <defs>
        <path id="DejaVuSans-37" d="M 525 4666 
L 3525 4666 
L 3525 4397 
L 1831 0 
L 1172 0 
L 2766 4134 
L 525 4134 
L 525 4666 
z
" transform="scale(0.015625)"/>
       </defs>
       <use xlink:href="#DejaVuSans-30"/>
       <use xlink:href="#DejaVuSans-34" transform="translate(63.623047 0)"/>
       <use xlink:href="#DejaVuSans-2d" transform="translate(127.246094 0)"/>
       <use xlink:href="#DejaVuSans-32" transform="translate(163.330078 0)"/>
       <use xlink:href="#DejaVuSans-37" transform="translate(226.953125 0)"/>
       <use xlink:href="#DejaVuSans-20" transform="translate(290.576172 0)"/>
       <use xlink:href="#DejaVuSans-30" transform="translate(322.363281 0)"/>
       <use xlink:href="#DejaVuSans-30" transform="translate(385.986328 0)"/>
      </g>
     </g>
    </g>
    <g id="text_7">
     <!-- Tijd -->
     <g transform="translate(371.185 274.316562) scale(0.1 -0.1)">
      <defs>
       <path id="DejaVuSans-54" d="M -19 4666 
L 3928 4666 
L 3928 4134 
L 2272 4134 
L 2272 0 
L 1638 0 
L 1638 4134 
L -19 4134 
L -19 4666 
z
" transform="scale(0.015625)"/>
       <path id="DejaVuSans-69" d="M 603 3500 
L 1178 3500 
L 1178 0 
L 603 0 
L 603 3500 
z
M 603 4863 
L 1178 4863 
L 1178 4134 
L 603 4134 
L 603 4863 
z
" transform="scale(0.015625)"/>
       <path id="DejaVuSans-6a" d="M 603 3500 
L 1178 3500 
L 1178 -63 
Q 1178 -731 923 -1031 
Q 669 -1331 103 -1331 
L -116 -1331 
L -116 -844 
L 38 -844 
Q 366 -844 484 -692 
Q 603 -541 603 -63 
L 603 3500 
z
M 603 4863 
L 1178 4863 
L 1178 4134 
L 603 4134 
L 603 4863 
z
" transform="scale(0.015625)"/>
       <path id="DejaVuSans-64" d="M 2906 2969 
L 2906 4863 
L 3481 4863 
L 3481 0 
L 2906 0 
L 2906 525 
Q 2725 213 2448 61 
Q 2172 -91 1784 -91 
Q 1150 -91 751 415 
Q 353 922 353 1747 
Q 353 2572 751 3078 
Q 1150 3584 1784 3584 
Q 2172 3584 2448 3432 
Q 2725 3281 2906 2969 
z
M 947 1747 
Q 947 1113 1208 752 
Q 1469 391 1925 391 
Q 2381 391 2643 752 
Q 2906 1113 2906 1747 
Q 2906 2381 2643 2742 
Q 2381 3103 1925 3103 
Q 1469 3103 1208 2742 
Q 947 2381 947 1747 
z
" transform="scale(0.015625)"/>
      </defs>
      <use xlink:href="#DejaVuSans-54"/>
      <use xlink:href="#DejaVuSans-69" transform="translate(57.958984 0)"/>
      <use xlink:href="#DejaVuSans-6a" transform="translate(85.742188 0)"/>
      <use xlink:href="#DejaVuSans-64" transform="translate(113.525391 0)"/>
     </g>
    </g>
   </g>
   <g id="matplotlib.axis_2">
    <g id="ytick_1">
     <g id="line2d_7">
      <defs>
       <path id="m654ab68d03" d="M 0 0 
L -3.5 0 
" style="stroke: #000000; stroke-width: 0.8"/>
      </defs>
      <g>
       <use xlink:href="#m654ab68d03" x="50.87" y="241.124602" style="stroke: #000000; stroke-width: 0.8"/>
      </g>
     </g>
     <g id="text_8">
      <!-- 0 -->
      <g transform="translate(37.5075 244.923821) scale(0.1 -0.1)">
       <use xlink:href="#DejaVuSans-30"/>
      </g>
     </g>
    </g>
    <g id="ytick_2">
     <g id="line2d_8">
      <g>
       <use xlink:href="#m654ab68d03" x="50.87" y="207.446751" style="stroke: #000000; stroke-width: 0.8"/>
      </g>
     </g>
     <g id="text_9">
      <!-- 20 -->
      <g transform="translate(31.145 211.245969) scale(0.1 -0.1)">
       <use xlink:href="#DejaVuSans-32"/>
       <use xlink:href="#DejaVuSans-30" transform="translate(63.623047 0)"/>
      </g>
     </g>
    </g>
    <g id="ytick_3">
     <g id="line2d_9">
      <g>
       <use xlink:href="#m654ab68d03" x="50.87" y="173.768899" style="stroke: #000000; stroke-width: 0.8"/>
      </g>
     </g>
     <g id="text_10">
      <!-- 40 -->
      <g transform="translate(31.145 177.568118) scale(0.1 -0.1)">
       <use xlink:href="#DejaVuSans-34"/>
       <use xlink:href="#DejaVuSans-30" transform="translate(63.623047 0)"/>
      </g>
     </g>
    </g>
    <g id="ytick_4">
     <g id="line2d_10">
      <g>
       <use xlink:href="#m654ab68d03" x="50.87" y="140.091047" style="stroke: #000000; stroke-width: 0.8"/>
      </g>
     </g>
     <g id="text_11">
      <!-- 60 -->
      <g transform="translate(31.145 143.890266) scale(0.1 -0.1)">
       <use xlink:href="#DejaVuSans-36"/>
       <use xlink:href="#DejaVuSans-30" transform="translate(63.623047 0)"/>
      </g>
     </g>
    </g>
    <g id="ytick_5">
     <g id="line2d_11">
      <g>
       <use xlink:href="#m654ab68d03" x="50.87" y="106.413196" style="stroke: #000000; stroke-width: 0.8"/>
      </g>
     </g>
     <g id="text_12">
      <!-- 80 -->
      <g transform="translate(31.145 110.212415) scale(0.1 -0.1)">
       <defs>
        <path id="DejaVuSans-38" d="M 2034 2216 
Q 1584 2216 1326 1975 
Q 1069 1734 1069 1313 
Q 1069 891 1326 650 
Q 1584 409 2034 409 
Q 2484 409 2743 651 
Q 3003 894 3003 1313 
Q 3003 1734 2745 1975 
Q 2488 2216 2034 2216 
z
M 1403 2484 
Q 997 2584 770 2862 
Q 544 3141 544 3541 
Q 544 4100 942 4425 
Q 1341 4750 2034 4750 
Q 2731 4750 3128 4425 
Q 3525 4100 3525 3541 
Q 3525 3141 3298 2862 
Q 3072 2584 2669 2484 
Q 3125 2378 3379 2068 
Q 3634 1759 3634 1313 
Q 3634 634 3220 271 
Q 2806 -91 2034 -91 
Q 1263 -91 848 271 
Q 434 634 434 1313 
Q 434 1759 690 2068 
Q 947 2378 1403 2484 
z
M 1172 3481 
Q 1172 3119 1398 2916 
Q 1625 2713 2034 2713 
Q 2441 2713 2670 2916 
Q 2900 3119 2900 3481 
Q 2900 3844 2670 4047 
Q 2441 4250 2034 4250 
Q 1625 4250 1398 4047 
Q 1172 3844 1172 3481 
z
" transform="scale(0.015625)"/>
       </defs>
       <use xlink:href="#DejaVuSans-38"/>
       <use xlink:href="#DejaVuSans-30" transform="translate(63.623047 0)"/>
      </g>
     </g>
    </g>
    <g id="ytick_6">
     <g id="line2d_12">
      <g>
       <use xlink:href="#m654ab68d03" x="50.87" y="72.735344" style="stroke: #000000; stroke-width: 0.8"/>
      </g>
     </g>
     <g id="text_13">
      <!-- 100 -->
      <g transform="translate(24.7825 76.534563) scale(0.1 -0.1)">
       <use xlink:href="#DejaVuSans-31"/>
       <use xlink:href="#DejaVuSans-30" transform="translate(63.623047 0)"/>
       <use xlink:href="#DejaVuSans-30" transform="translate(127.246094 0)"/>
      </g>
     </g>
    </g>
    <g id="ytick_7">
     <g id="line2d_13">
      <g>
       <use xlink:href="#m654ab68d03" x="50.87" y="39.057493" style="stroke: #000000; stroke-width: 0.8"/>
      </g>
     </g>
     <g id="text_14">
      <!-- 120 -->
      <g transform="translate(24.7825 42.856711) scale(0.1 -0.1)">
       <use xlink:href="#DejaVuSans-31"/>
       <use xlink:href="#DejaVuSans-32" transform="translate(63.623047 0)"/>
       <use xlink:href="#DejaVuSans-30" transform="translate(127.246094 0)"/>
      </g>
     </g>
    </g>
    <g id="text_15">
     <!-- (Rel.) Buiten Vochtigheid (%) -->
     <g transform="translate(18.702813 208.620937) rotate(-90) scale(0.1 -0.1)">
      <defs>
       <path id="DejaVuSans-28" d="M 1984 4856 
Q 1566 4138 1362 3434 
Q 1159 2731 1159 2009 
Q 1159 1288 1364 580 
Q 1569 -128 1984 -844 
L 1484 -844 
Q 1016 -109 783 600 
Q 550 1309 550 2009 
Q 550 2706 781 3412 
Q 1013 4119 1484 4856 
L 1984 4856 
z
" transform="scale(0.015625)"/>
       <path id="DejaVuSans-52" d="M 2841 2188 
Q 3044 2119 3236 1894 
Q 3428 1669 3622 1275 
L 4263 0 
L 3584 0 
L 2988 1197 
Q 2756 1666 2539 1819 
Q 2322 1972 1947 1972 
L 1259 1972 
L 1259 0 
L 628 0 
L 628 4666 
L 2053 4666 
Q 2853 4666 3247 4331 
Q 3641 3997 3641 3322 
Q 3641 2881 3436 2590 
Q 3231 2300 2841 2188 
z
M 1259 4147 
L 1259 2491 
L 2053 2491 
Q 2509 2491 2742 2702 
Q 2975 2913 2975 3322 
Q 2975 3731 2742 3939 
Q 2509 4147 2053 4147 
L 1259 4147 
z
" transform="scale(0.015625)"/>
       <path id="DejaVuSans-65" d="M 3597 1894 
L 3597 1613 
L 953 1613 
Q 991 1019 1311 708 
Q 1631 397 2203 397 
Q 2534 397 2845 478 
Q 3156 559 3463 722 
L 3463 178 
Q 3153 47 2828 -22 
Q 2503 -91 2169 -91 
Q 1331 -91 842 396 
Q 353 884 353 1716 
Q 353 2575 817 3079 
Q 1281 3584 2069 3584 
Q 2775 3584 3186 3129 
Q 3597 2675 3597 1894 
z
M 3022 2063 
Q 3016 2534 2758 2815 
Q 2500 3097 2075 3097 
Q 1594 3097 1305 2825 
Q 1016 2553 972 2059 
L 3022 2063 
z
" transform="scale(0.015625)"/>
       <path id="DejaVuSans-6c" d="M 603 4863 
L 1178 4863 
L 1178 0 
L 603 0 
L 603 4863 
z
" transform="scale(0.015625)"/>
       <path id="DejaVuSans-2e" d="M 684 794 
L 1344 794 
L 1344 0 
L 684 0 
L 684 794 
z
" transform="scale(0.015625)"/>
       <path id="DejaVuSans-29" d="M 513 4856 
L 1013 4856 
Q 1481 4119 1714 3412 
Q 1947 2706 1947 2009 
Q 1947 1309 1714 600 
Q 1481 -109 1013 -844 
L 513 -844 
Q 928 -128 1133 580 
Q 1338 1288 1338 2009 
Q 1338 2731 1133 3434 
Q 928 4138 513 4856 
z
" transform="scale(0.015625)"/>
       <path id="DejaVuSans-42" d="M 1259 2228 
L 1259 519 
L 2272 519 
Q 2781 519 3026 730 
Q 3272 941 3272 1375 
Q 3272 1813 3026 2020 
Q 2781 2228 2272 2228 
L 1259 2228 
z
M 1259 4147 
L 1259 2741 
L 2194 2741 
Q 2656 2741 2882 2914 
Q 3109 3088 3109 3444 
Q 3109 3797 2882 3972 
Q 2656 4147 2194 4147 
L 1259 4147 
z
M 628 4666 
L 2241 4666 
Q 2963 4666 3353 4366 
Q 3744 4066 3744 3513 
Q 3744 3084 3544 2831 
Q 3344 2578 2956 2516 
Q 3422 2416 3680 2098 
Q 3938 1781 3938 1306 
Q 3938 681 3513 340 
Q 3088 0 2303 0 
L 628 0 
L 628 4666 
z
" transform="scale(0.015625)"/>
       <path id="DejaVuSans-75" d="M 544 1381 
L 544 3500 
L 1119 3500 
L 1119 1403 
Q 1119 906 1312 657 
Q 1506 409 1894 409 
Q 2359 409 2629 706 
Q 2900 1003 2900 1516 
L 2900 3500 
L 3475 3500 
L 3475 0 
L 2900 0 
L 2900 538 
Q 2691 219 2414 64 
Q 2138 -91 1772 -91 
Q 1169 -91 856 284 
Q 544 659 544 1381 
z
M 1991 3584 
L 1991 3584 
z
" transform="scale(0.015625)"/>
       <path id="DejaVuSans-74" d="M 1172 4494 
L 1172 3500 
L 2356 3500 
L 2356 3053 
L 1172 3053 
L 1172 1153 
Q 1172 725 1289 603 
Q 1406 481 1766 481 
L 2356 481 
L 2356 0 
L 1766 0 
Q 1100 0 847 248 
Q 594 497 594 1153 
L 594 3053 
L 172 3053 
L 172 3500 
L 594 3500 
L 594 4494 
L 1172 4494 
z
" transform="scale(0.015625)"/>
       <path id="DejaVuSans-6e" d="M 3513 2113 
L 3513 0 
L 2938 0 
L 2938 2094 
Q 2938 2591 2744 2837 
Q 2550 3084 2163 3084 
Q 1697 3084 1428 2787 
Q 1159 2491 1159 1978 
L 1159 0 
L 581 0 
L 581 3500 
L 1159 3500 
L 1159 2956 
Q 1366 3272 1645 3428 
Q 1925 3584 2291 3584 
Q 2894 3584 3203 3211 
Q 3513 2838 3513 2113 
z
" transform="scale(0.015625)"/>
       <path id="DejaVuSans-56" d="M 1831 0 
L 50 4666 
L 709 4666 
L 2188 738 
L 3669 4666 
L 4325 4666 
L 2547 0 
L 1831 0 
z
" transform="scale(0.015625)"/>
       <path id="DejaVuSans-6f" d="M 1959 3097 
Q 1497 3097 1228 2736 
Q 959 2375 959 1747 
Q 959 1119 1226 758 
Q 1494 397 1959 397 
Q 2419 397 2687 759 
Q 2956 1122 2956 1747 
Q 2956 2369 2687 2733 
Q 2419 3097 1959 3097 
z
M 1959 3584 
Q 2709 3584 3137 3096 
Q 3566 2609 3566 1747 
Q 3566 888 3137 398 
Q 2709 -91 1959 -91 
Q 1206 -91 779 398 
Q 353 888 353 1747 
Q 353 2609 779 3096 
Q 1206 3584 1959 3584 
z
" transform="scale(0.015625)"/>
       <path id="DejaVuSans-63" d="M 3122 3366 
L 3122 2828 
Q 2878 2963 2633 3030 
Q 2388 3097 2138 3097 
Q 1578 3097 1268 2742 
Q 959 2388 959 1747 
Q 959 1106 1268 751 
Q 1578 397 2138 397 
Q 2388 397 2633 464 
Q 2878 531 3122 666 
L 3122 134 
Q 2881 22 2623 -34 
Q 2366 -91 2075 -91 
Q 1284 -91 818 406 
Q 353 903 353 1747 
Q 353 2603 823 3093 
Q 1294 3584 2113 3584 
Q 2378 3584 2631 3529 
Q 2884 3475 3122 3366 
z
" transform="scale(0.015625)"/>
       <path id="DejaVuSans-68" d="M 3513 2113 
L 3513 0 
L 2938 0 
L 2938 2094 
Q 2938 2591 2744 2837 
Q 2550 3084 2163 3084 
Q 1697 3084 1428 2787 
Q 1159 2491 1159 1978 
L 1159 0 
L 581 0 
L 581 4863 
L 1159 4863 
L 1159 2956 
Q 1366 3272 1645 3428 
Q 1925 3584 2291 3584 
Q 2894 3584 3203 3211 
Q 3513 2838 3513 2113 
z
" transform="scale(0.015625)"/>
       <path id="DejaVuSans-67" d="M 2906 1791 
Q 2906 2416 2648 2759 
Q 2391 3103 1925 3103 
Q 1463 3103 1205 2759 
Q 947 2416 947 1791 
Q 947 1169 1205 825 
Q 1463 481 1925 481 
Q 2391 481 2648 825 
Q 2906 1169 2906 1791 
z
M 3481 434 
Q 3481 -459 3084 -895 
Q 2688 -1331 1869 -1331 
Q 1566 -1331 1297 -1286 
Q 1028 -1241 775 -1147 
L 775 -588 
Q 1028 -725 1275 -790 
Q 1522 -856 1778 -856 
Q 2344 -856 2625 -561 
Q 2906 -266 2906 331 
L 2906 616 
Q 2728 306 2450 153 
Q 2172 0 1784 0 
Q 1141 0 747 490 
Q 353 981 353 1791 
Q 353 2603 747 3093 
Q 1141 3584 1784 3584 
Q 2172 3584 2450 3431 
Q 2728 3278 2906 2969 
L 2906 3500 
L 3481 3500 
L 3481 434 
z
" transform="scale(0.015625)"/>
       <path id="DejaVuSans-25" d="M 4653 2053 
Q 4381 2053 4226 1822 
Q 4072 1591 4072 1178 
Q 4072 772 4226 539 
Q 4381 306 4653 306 
Q 4919 306 5073 539 
Q 5228 772 5228 1178 
Q 5228 1588 5073 1820 
Q 4919 2053 4653 2053 
z
M 4653 2450 
Q 5147 2450 5437 2106 
Q 5728 1763 5728 1178 
Q 5728 594 5436 251 
Q 5144 -91 4653 -91 
Q 4153 -91 3862 251 
Q 3572 594 3572 1178 
Q 3572 1766 3864 2108 
Q 4156 2450 4653 2450 
z
M 1428 4353 
Q 1159 4353 1004 4120 
Q 850 3888 850 3481 
Q 850 3069 1003 2837 
Q 1156 2606 1428 2606 
Q 1700 2606 1854 2837 
Q 2009 3069 2009 3481 
Q 2009 3884 1853 4118 
Q 1697 4353 1428 4353 
z
M 4250 4750 
L 4750 4750 
L 1831 -91 
L 1331 -91 
L 4250 4750 
z
M 1428 4750 
Q 1922 4750 2215 4408 
Q 2509 4066 2509 3481 
Q 2509 2891 2217 2550 
Q 1925 2209 1428 2209 
Q 931 2209 642 2551 
Q 353 2894 353 3481 
Q 353 4063 643 4406 
Q 934 4750 1428 4750 
z
" transform="scale(0.015625)"/>
      </defs>
      <use xlink:href="#DejaVuSans-28"/>
      <use xlink:href="#DejaVuSans-52" transform="translate(39.013672 0)"/>
      <use xlink:href="#DejaVuSans-65" transform="translate(103.996094 0)"/>
      <use xlink:href="#DejaVuSans-6c" transform="translate(165.519531 0)"/>
      <use xlink:href="#DejaVuSans-2e" transform="translate(193.302734 0)"/>
      <use xlink:href="#DejaVuSans-29" transform="translate(225.089844 0)"/>
      <use xlink:href="#DejaVuSans-20" transform="translate(264.103516 0)"/>
      <use xlink:href="#DejaVuSans-42" transform="translate(295.890625 0)"/>
      <use xlink:href="#DejaVuSans-75" transform="translate(364.494141 0)"/>
      <use xlink:href="#DejaVuSans-69" transform="translate(427.873047 0)"/>
      <use xlink:href="#DejaVuSans-74" transform="translate(455.65625 0)"/>
      <use xlink:href="#DejaVuSans-65" transform="translate(494.865234 0)"/>
      <use xlink:href="#DejaVuSans-6e" transform="translate(556.388672 0)"/>
      <use xlink:href="#DejaVuSans-20" transform="translate(619.767578 0)"/>
      <use xlink:href="#DejaVuSans-56" transform="translate(651.554688 0)"/>
      <use xlink:href="#DejaVuSans-6f" transform="translate(712.212891 0)"/>
      <use xlink:href="#DejaVuSans-63" transform="translate(773.394531 0)"/>
      <use xlink:href="#DejaVuSans-68" transform="translate(828.375 0)"/>
      <use xlink:href="#DejaVuSans-74" transform="translate(891.753906 0)"/>
      <use xlink:href="#DejaVuSans-69" transform="translate(930.962891 0)"/>
      <use xlink:href="#DejaVuSans-67" transform="translate(958.746094 0)"/>
      <use xlink:href="#DejaVuSans-68" transform="translate(1022.222656 0)"/>
      <use xlink:href="#DejaVuSans-65" transform="translate(1085.601562 0)"/>
      <use xlink:href="#DejaVuSans-69" transform="translate(1147.125 0)"/>
      <use xlink:href="#DejaVuSans-64" transform="translate(1174.908203 0)"/>
      <use xlink:href="#DejaVuSans-20" transform="translate(1238.384766 0)"/>
      <use xlink:href="#DejaVuSans-28" transform="translate(1270.171875 0)"/>
      <use xlink:href="#DejaVuSans-25" transform="translate(1309.185547 0)"/>
      <use xlink:href="#DejaVuSans-29" transform="translate(1404.205078 0)"/>
     </g>
    </g>
   </g>
   <g id="line2d_14">
    <path d="M 80.794091 102.540243 
L 84.865396 102.259594 
L 88.936701 102.147335 
L 93.008006 101.529907 
L 105.22192 104.111876 
L 109.293225 105.795769 
L 113.36453 107.928699 
L 117.435835 110.510668 
L 121.50714 116.572681 
L 125.578445 121.063061 
L 129.64975 122.073397 
L 133.721054 121.792748 
L 137.792359 124.599236 
L 141.863664 120.810477 
L 145.934969 125.553441 
L 150.006274 122.859213 
L 158.148884 119.547558 
L 162.220189 117.639146 
L 170.362798 110.847446 
L 174.434103 114.383621 
L 178.505408 112.868117 
L 182.576713 108.995164 
L 194.790628 107.535791 
L 198.861933 106.357066 
L 202.933237 105.346731 
L 207.004542 104.841563 
L 211.075847 105.178341 
L 215.147152 107.81644 
L 219.218457 106.918364 
L 223.289762 107.030623 
L 227.361067 106.020288 
L 231.432372 105.40286 
L 235.503677 105.009952 
L 239.574981 104.785433 
L 243.646286 105.851898 
L 247.717591 106.413196 
L 251.788896 107.086753 
L 255.860201 106.357066 
L 259.931506 105.908028 
L 268.074116 106.525455 
L 272.145421 106.300936 
L 276.216725 105.51512 
L 280.28803 104.504784 
L 284.359335 105.627379 
L 288.43064 107.81644 
L 292.501945 111.464874 
L 296.57325 113.541674 
L 300.644555 116.628811 
L 304.71586 119.547558 
L 308.787165 127.630242 
L 312.858469 137.22843 
L 321.001079 154.404134 
L 325.072384 180.167691 
L 329.143689 167.875275 
L 333.214994 164.45136 
L 337.286299 171.130801 
L 341.357604 166.528161 
L 345.428908 170.232725 
L 349.500213 168.099794 
L 353.571518 164.732009 
L 357.642823 158.389347 
L 361.714128 150.475052 
L 365.785433 149.127938 
L 369.856738 147.107267 
L 373.928043 144.525298 
L 377.999348 142.729146 
L 382.070652 138.351025 
L 386.141957 135.432278 
L 390.213262 130.661249 
L 394.284567 127.742502 
L 398.355872 124.374717 
L 402.427177 119.715947 
L 406.498482 116.7972 
L 410.569787 115.169437 
L 414.641092 113.261026 
L 422.783701 111.913912 
L 426.855006 110.398408 
L 430.926311 110.566798 
L 434.997616 110.0055 
L 439.068921 109.668721 
L 443.140226 109.724851 
L 447.211531 107.984829 
L 451.282835 104.953822 
L 455.35414 104.504784 
L 459.425445 105.795769 
L 463.49675 105.683509 
L 475.710665 106.300936 
L 479.78197 105.964158 
L 483.853275 104.673173 
L 487.924579 104.897692 
L 491.995884 104.673173 
L 496.067189 115.450086 
L 500.138494 120.670153 
L 504.209799 130.32447 
L 508.281104 152.888631 
L 512.352409 156.200286 
L 516.423714 158.277087 
L 520.495019 162.655208 
L 524.566323 180.672859 
L 528.637628 171.916617 
L 532.708933 173.095342 
L 536.780238 172.983083 
L 540.851543 176.968295 
L 544.922848 179.606393 
L 548.994153 180.223821 
L 553.065458 176.912165 
L 557.136763 175.116013 
L 561.208067 174.498586 
L 565.279372 171.972747 
L 569.350677 164.956528 
L 573.421982 163.581349 
L 577.493287 162.711338 
L 581.564592 161.083575 
L 589.707202 146.602099 
L 593.778506 141.382032 
L 597.849811 135.881316 
L 601.921116 131.110287 
L 605.992421 129.314135 
L 610.063726 126.732166 
L 614.135031 124.374717 
L 618.206336 122.354046 
L 626.348946 116.067513 
L 630.42025 114.776529 
L 634.491555 114.888788 
L 638.56286 114.49588 
L 642.634165 115.786865 
L 646.70547 116.179773 
L 650.776775 116.067513 
L 654.84808 116.460422 
L 658.919385 116.460422 
L 662.99069 116.123643 
L 667.061994 115.618475 
L 671.133299 115.253632 
L 671.133299 115.253632 
" clip-path="url(#p1f078b0e3f)" style="fill: none; stroke: #1f77b4; stroke-width: 2; stroke-linecap: square"/>
   </g>
   <g id="line2d_15">
    <path d="M 80.794091 92.212368 
L 84.865396 92.315273 
L 88.936701 92.025269 
L 93.008006 91.613651 
L 97.07931 91.95043 
L 101.150615 92.829796 
L 105.22192 93.522063 
L 109.293225 94.569818 
L 113.36453 96.30984 
L 117.435835 98.190187 
L 121.50714 100.687961 
L 125.578445 105.150276 
L 129.64975 106.272871 
L 133.721054 107.068043 
L 137.792359 106.740619 
L 141.863664 106.66578 
L 145.934969 107.329982 
L 150.006274 109.453557 
L 154.077579 106.796749 
L 162.220189 104.093166 
L 166.291494 102.933151 
L 170.362798 99.668271 
L 174.434103 99.640206 
L 178.505408 101.455068 
L 182.576713 98.358576 
L 186.648018 96.571779 
L 190.719323 97.002107 
L 194.790628 96.30984 
L 198.861933 94.915951 
L 202.933237 94.420139 
L 207.004542 93.690452 
L 211.075847 93.428513 
L 215.147152 94.326589 
L 219.218457 94.962726 
L 227.361067 94.19562 
L 231.432372 93.690452 
L 235.503677 92.998185 
L 239.574981 93.222704 
L 243.646286 93.727872 
L 247.717591 93.858841 
L 251.788896 94.476268 
L 255.860201 94.289169 
L 259.931506 93.690452 
L 264.002811 93.334963 
L 272.145421 93.185284 
L 276.216725 92.362048 
L 280.28803 92.324628 
L 284.359335 92.652051 
L 288.43064 94.597883 
L 292.501945 97.825344 
L 296.57325 99.556011 
L 300.644555 102.091205 
L 304.71586 104.794788 
L 308.787165 110.09905 
L 312.858469 115.786865 
L 316.929774 122.559855 
L 321.001079 127.284109 
L 325.072384 139.380071 
L 329.143689 135.712927 
L 333.214994 140.091047 
L 337.286299 150.79312 
L 341.357604 158.164828 
L 345.428908 166.986554 
L 349.500213 169.372068 
L 353.571518 167.126878 
L 357.642823 156.948683 
L 361.714128 151.373128 
L 365.785433 155.096401 
L 369.856738 155.732539 
L 373.928043 148.080182 
L 377.999348 139.978788 
L 382.070652 137.864567 
L 386.141957 133.972904 
L 390.213262 132.419981 
L 394.284567 126.638617 
L 402.427177 113.747484 
L 406.498482 108.489997 
L 410.569787 104.654464 
L 414.641092 102.035075 
L 418.712396 100.313763 
L 422.783701 98.947939 
L 426.855006 97.357596 
L 430.926311 97.020817 
L 434.997616 96.085321 
L 439.068921 95.580154 
L 443.140226 94.794337 
L 447.211531 94.476268 
L 451.282835 93.203994 
L 455.35414 93.016895 
L 459.425445 92.979475 
L 467.568055 92.698826 
L 479.78197 92.474307 
L 483.853275 91.95043 
L 487.924579 92.137529 
L 491.995884 92.586567 
L 496.067189 97.750504 
L 500.138494 106.581585 
L 504.209799 108.321607 
L 508.281104 117.92915 
L 512.352409 123.869549 
L 516.423714 132.158042 
L 520.495019 137.686823 
L 524.566323 144.506588 
L 528.637628 145.704023 
L 532.708933 160.297758 
L 536.780238 170.475954 
L 540.851543 172.066297 
L 544.922848 181.383836 
L 548.994153 187.20262 
L 553.065458 180.44834 
L 557.136763 177.192814 
L 561.208067 171.486289 
L 565.279372 174.966334 
L 569.350677 170.728537 
L 573.421982 157.117072 
L 577.493287 154.759623 
L 581.564592 148.229862 
L 585.635897 150.316017 
L 589.707202 139.41749 
L 593.778506 141.522356 
L 597.849811 136.414549 
L 601.921116 133.57298 
L 605.992421 118.013345 
L 610.063726 114.121682 
L 614.135031 125.679733 
L 618.206336 123.462608 
L 622.277641 120.992899 
L 626.348946 119.04239 
L 630.42025 117.793503 
L 634.491555 117.133979 
L 638.56286 116.600746 
L 642.634165 116.530584 
L 646.70547 116.642843 
L 654.84808 116.053481 
L 662.99069 115.59041 
L 667.061994 115.302745 
L 671.133299 96.805653 
L 675.204604 87.974572 
L 679.275909 90.921384 
L 679.275909 90.921384 
" clip-path="url(#p1f078b0e3f)" style="fill: none; stroke-dasharray: 5.55,2.4; stroke-dashoffset: 0; stroke: #808080; stroke-width: 1.5"/>
   </g>
   <g id="patch_3">
    <path d="M 50.87 246.04 
L 50.87 26.88 
" style="fill: none; stroke: #000000; stroke-width: 0.8; stroke-linejoin: miter; stroke-linecap: square"/>
   </g>
   <g id="patch_4">
    <path d="M 709.2 246.04 
L 709.2 26.88 
" style="fill: none; stroke: #000000; stroke-width: 0.8; stroke-linejoin: miter; stroke-linecap: square"/>
   </g>
   <g id="patch_5">
    <path d="M 50.87 246.04 
L 709.2 246.04 
" style="fill: none; stroke: #000000; stroke-width: 0.8; stroke-linejoin: miter; stroke-linecap: square"/>
   </g>
   <g id="patch_6">
    <path d="M 50.87 26.88 
L 709.2 26.88 
" style="fill: none; stroke: #000000; stroke-width: 0.8; stroke-linejoin: miter; stroke-linecap: square"/>
   </g>
   <g id="text_16">
    <!-- Luchtvochtigheid - v001/c00003/d001 -->
    <g transform="translate(265.745313 20.88) scale(0.12 -0.12)">
     <defs>
      <path id="DejaVuSans-4c" d="M 628 4666 
L 1259 4666 
L 1259 531 
L 3531 531 
L 3531 0 
L 628 0 
L 628 4666 
z
" transform="scale(0.015625)"/>
      <path id="DejaVuSans-76" d="M 191 3500 
L 800 3500 
L 1894 563 
L 2988 3500 
L 3597 3500 
L 2284 0 
L 1503 0 
L 191 3500 
z
" transform="scale(0.015625)"/>
      <path id="DejaVuSans-2f" d="M 1625 4666 
L 2156 4666 
L 531 -594 
L 0 -594 
L 1625 4666 
z
" transform="scale(0.015625)"/>
      <path id="DejaVuSans-33" d="M 2597 2516 
Q 3050 2419 3304 2112 
Q 3559 1806 3559 1356 
Q 3559 666 3084 287 
Q 2609 -91 1734 -91 
Q 1441 -91 1130 -33 
Q 819 25 488 141 
L 488 750 
Q 750 597 1062 519 
Q 1375 441 1716 441 
Q 2309 441 2620 675 
Q 2931 909 2931 1356 
Q 2931 1769 2642 2001 
Q 2353 2234 1838 2234 
L 1294 2234 
L 1294 2753 
L 1863 2753 
Q 2328 2753 2575 2939 
Q 2822 3125 2822 3475 
Q 2822 3834 2567 4026 
Q 2313 4219 1838 4219 
Q 1578 4219 1281 4162 
Q 984 4106 628 3988 
L 628 4550 
Q 988 4650 1302 4700 
Q 1616 4750 1894 4750 
Q 2613 4750 3031 4423 
Q 3450 4097 3450 3541 
Q 3450 3153 3228 2886 
Q 3006 2619 2597 2516 
z
" transform="scale(0.015625)"/>
     </defs>
     <use xlink:href="#DejaVuSans-4c"/>
     <use xlink:href="#DejaVuSans-75" transform="translate(53.962891 0)"/>
     <use xlink:href="#DejaVuSans-63" transform="translate(117.341797 0)"/>
     <use xlink:href="#DejaVuSans-68" transform="translate(172.322266 0)"/>
     <use xlink:href="#DejaVuSans-74" transform="translate(235.701172 0)"/>
     <use xlink:href="#DejaVuSans-76" transform="translate(274.910156 0)"/>
     <use xlink:href="#DejaVuSans-6f" transform="translate(334.089844 0)"/>
     <use xlink:href="#DejaVuSans-63" transform="translate(395.271484 0)"/>
     <use xlink:href="#DejaVuSans-68" transform="translate(450.251953 0)"/>
     <use xlink:href="#DejaVuSans-74" transform="translate(513.630859 0)"/>
     <use xlink:href="#DejaVuSans-69" transform="translate(552.839844 0)"/>
     <use xlink:href="#DejaVuSans-67" transform="translate(580.623047 0)"/>
     <use xlink:href="#DejaVuSans-68" transform="translate(644.099609 0)"/>
     <use xlink:href="#DejaVuSans-65" transform="translate(707.478516 0)"/>
     <use xlink:href="#DejaVuSans-69" transform="translate(769.001953 0)"/>
     <use xlink:href="#DejaVuSans-64" transform="translate(796.785156 0)"/>
     <use xlink:href="#DejaVuSans-20" transform="translate(860.261719 0)"/>
     <use xlink:href="#DejaVuSans-2d" transform="translate(892.048828 0)"/>
     <use xlink:href="#DejaVuSans-20" transform="translate(928.132812 0)"/>
     <use xlink:href="#DejaVuSans-76" transform="translate(959.919922 0)"/>
     <use xlink:href="#DejaVuSans-30" transform="translate(1019.099609 0)"/>
     <use xlink:href="#DejaVuSans-30" transform="translate(1082.722656 0)"/>
     <use xlink:href="#DejaVuSans-31" transform="translate(1146.345703 0)"/>
     <use xlink:href="#DejaVuSans-2f" transform="translate(1209.96875 0)"/>
     <use xlink:href="#DejaVuSans-63" transform="translate(1243.660156 0)"/>
     <use xlink:href="#DejaVuSans-30" transform="translate(1298.640625 0)"/>
     <use xlink:href="#DejaVuSans-30" transform="translate(1362.263672 0)"/>
     <use xlink:href="#DejaVuSans-30" transform="translate(1425.886719 0)"/>
     <use xlink:href="#DejaVuSans-30" transform="translate(1489.509766 0)"/>
     <use xlink:href="#DejaVuSans-33" transform="translate(1553.132812 0)"/>
     <use xlink:href="#DejaVuSans-2f" transform="translate(1616.755859 0)"/>
     <use xlink:href="#DejaVuSans-64" transform="translate(1650.447266 0)"/>
     <use xlink:href="#DejaVuSans-30" transform="translate(1713.923828 0)"/>
     <use xlink:href="#DejaVuSans-30" transform="translate(1777.546875 0)"/>
     <use xlink:href="#DejaVuSans-31" transform="translate(1841.169922 0)"/>
    </g>
   </g>
   <g id="legend_1">
    <g id="patch_7">
     <path d="M 57.87 241.04 
L 208.81375 241.04 
Q 210.81375 241.04 210.81375 239.04 
L 210.81375 196.005625 
Q 210.81375 194.005625 208.81375 194.005625 
L 57.87 194.005625 
Q 55.87 194.005625 55.87 196.005625 
L 55.87 239.04 
Q 55.87 241.04 57.87 241.04 
z
" style="fill: #ffffff; opacity: 0.8; stroke: #cccccc; stroke-linejoin: miter"/>
    </g>
    <g id="line2d_16">
     <path d="M 59.87 202.104062 
L 69.87 202.104062 
L 79.87 202.104062 
" style="fill: none; stroke: #1f77b4; stroke-width: 2; stroke-linecap: square"/>
    </g>
    <g id="text_17">
     <!-- Hive -->
     <g transform="translate(87.87 205.604062) scale(0.1 -0.1)">
      <defs>
       <path id="DejaVuSans-48" d="M 628 4666 
L 1259 4666 
L 1259 2753 
L 3553 2753 
L 3553 4666 
L 4184 4666 
L 4184 0 
L 3553 0 
L 3553 2222 
L 1259 2222 
L 1259 0 
L 628 0 
L 628 4666 
z
" transform="scale(0.015625)"/>
      </defs>
      <use xlink:href="#DejaVuSans-48"/>
      <use xlink:href="#DejaVuSans-69" transform="translate(75.195312 0)"/>
      <use xlink:href="#DejaVuSans-76" transform="translate(102.978516 0)"/>
      <use xlink:href="#DejaVuSans-65" transform="translate(162.158203 0)"/>
     </g>
    </g>
    <g id="line2d_17">
     <path d="M 59.87 216.782187 
L 69.87 216.782187 
L 79.87 216.782187 
" style="fill: none; stroke-dasharray: 5.55,2.4; stroke-dashoffset: 0; stroke: #808080; stroke-width: 1.5"/>
    </g>
    <g id="text_18">
     <!-- Gemiddelde (alle hives) -->
     <g transform="translate(87.87 220.282187) scale(0.1 -0.1)">
      <defs>
       <path id="DejaVuSans-47" d="M 3809 666 
L 3809 1919 
L 2778 1919 
L 2778 2438 
L 4434 2438 
L 4434 434 
Q 4069 175 3628 42 
Q 3188 -91 2688 -91 
Q 1594 -91 976 548 
Q 359 1188 359 2328 
Q 359 3472 976 4111 
Q 1594 4750 2688 4750 
Q 3144 4750 3555 4637 
Q 3966 4525 4313 4306 
L 4313 3634 
Q 3963 3931 3569 4081 
Q 3175 4231 2741 4231 
Q 1884 4231 1454 3753 
Q 1025 3275 1025 2328 
Q 1025 1384 1454 906 
Q 1884 428 2741 428 
Q 3075 428 3337 486 
Q 3600 544 3809 666 
z
" transform="scale(0.015625)"/>
       <path id="DejaVuSans-6d" d="M 3328 2828 
Q 3544 3216 3844 3400 
Q 4144 3584 4550 3584 
Q 5097 3584 5394 3201 
Q 5691 2819 5691 2113 
L 5691 0 
L 5113 0 
L 5113 2094 
Q 5113 2597 4934 2840 
Q 4756 3084 4391 3084 
Q 3944 3084 3684 2787 
Q 3425 2491 3425 1978 
L 3425 0 
L 2847 0 
L 2847 2094 
Q 2847 2600 2669 2842 
Q 2491 3084 2119 3084 
Q 1678 3084 1418 2786 
Q 1159 2488 1159 1978 
L 1159 0 
L 581 0 
L 581 3500 
L 1159 3500 
L 1159 2956 
Q 1356 3278 1631 3431 
Q 1906 3584 2284 3584 
Q 2666 3584 2933 3390 
Q 3200 3197 3328 2828 
z
" transform="scale(0.015625)"/>
       <path id="DejaVuSans-61" d="M 2194 1759 
Q 1497 1759 1228 1600 
Q 959 1441 959 1056 
Q 959 750 1161 570 
Q 1363 391 1709 391 
Q 2188 391 2477 730 
Q 2766 1069 2766 1631 
L 2766 1759 
L 2194 1759 
z
M 3341 1997 
L 3341 0 
L 2766 0 
L 2766 531 
Q 2569 213 2275 61 
Q 1981 -91 1556 -91 
Q 1019 -91 701 211 
Q 384 513 384 1019 
Q 384 1609 779 1909 
Q 1175 2209 1959 2209 
L 2766 2209 
L 2766 2266 
Q 2766 2663 2505 2880 
Q 2244 3097 1772 3097 
Q 1472 3097 1187 3025 
Q 903 2953 641 2809 
L 641 3341 
Q 956 3463 1253 3523 
Q 1550 3584 1831 3584 
Q 2591 3584 2966 3190 
Q 3341 2797 3341 1997 
z
" transform="scale(0.015625)"/>
       <path id="DejaVuSans-73" d="M 2834 3397 
L 2834 2853 
Q 2591 2978 2328 3040 
Q 2066 3103 1784 3103 
Q 1356 3103 1142 2972 
Q 928 2841 928 2578 
Q 928 2378 1081 2264 
Q 1234 2150 1697 2047 
L 1894 2003 
Q 2506 1872 2764 1633 
Q 3022 1394 3022 966 
Q 3022 478 2636 193 
Q 2250 -91 1575 -91 
Q 1294 -91 989 -36 
Q 684 19 347 128 
L 347 722 
Q 666 556 975 473 
Q 1284 391 1588 391 
Q 1994 391 2212 530 
Q 2431 669 2431 922 
Q 2431 1156 2273 1281 
Q 2116 1406 1581 1522 
L 1381 1569 
Q 847 1681 609 1914 
Q 372 2147 372 2553 
Q 372 3047 722 3315 
Q 1072 3584 1716 3584 
Q 2034 3584 2315 3537 
Q 2597 3491 2834 3397 
z
" transform="scale(0.015625)"/>
      </defs>
      <use xlink:href="#DejaVuSans-47"/>
      <use xlink:href="#DejaVuSans-65" transform="translate(77.490234 0)"/>
      <use xlink:href="#DejaVuSans-6d" transform="translate(139.013672 0)"/>
      <use xlink:href="#DejaVuSans-69" transform="translate(236.425781 0)"/>
      <use xlink:href="#DejaVuSans-64" transform="translate(264.208984 0)"/>
      <use xlink:href="#DejaVuSans-64" transform="translate(327.685547 0)"/>
      <use xlink:href="#DejaVuSans-65" transform="translate(391.162109 0)"/>
      <use xlink:href="#DejaVuSans-6c" transform="translate(452.685547 0)"/>
      <use xlink:href="#DejaVuSans-64" transform="translate(480.46875 0)"/>
      <use xlink:href="#DejaVuSans-65" transform="translate(543.945312 0)"/>
      <use xlink:href="#DejaVuSans-20" transform="translate(605.46875 0)"/>
      <use xlink:href="#DejaVuSans-28" transform="translate(637.255859 0)"/>
      <use xlink:href="#DejaVuSans-61" transform="translate(676.269531 0)"/>
      <use xlink:href="#DejaVuSans-6c" transform="translate(737.548828 0)"/>
      <use xlink:href="#DejaVuSans-6c" transform="translate(765.332031 0)"/>
      <use xlink:href="#DejaVuSans-65" transform="translate(793.115234 0)"/>
      <use xlink:href="#DejaVuSans-20" transform="translate(854.638672 0)"/>
      <use xlink:href="#DejaVuSans-68" transform="translate(886.425781 0)"/>
      <use xlink:href="#DejaVuSans-69" transform="translate(949.804688 0)"/>
      <use xlink:href="#DejaVuSans-76" transform="translate(977.587891 0)"/>
      <use xlink:href="#DejaVuSans-65" transform="translate(1036.767578 0)"/>
      <use xlink:href="#DejaVuSans-73" transform="translate(1098.291016 0)"/>
      <use xlink:href="#DejaVuSans-29" transform="translate(1150.390625 0)"/>
     </g>
    </g>
    <g id="patch_8">
     <path d="M 59.87 234.960312 
L 79.87 234.960312 
L 79.87 227.960312 
L 59.87 227.960312 
z
" style="fill: #808080; fill-opacity: 0.2; stroke: #808080; stroke-opacity: 0.2; stroke-linejoin: miter"/>
    </g>
    <g id="text_19">
     <!-- 2 Std Dev -->
     <g transform="translate(87.87 234.960312) scale(0.1 -0.1)">
      <defs>
       <path id="DejaVuSans-b1" d="M 2944 4013 
L 2944 2803 
L 4684 2803 
L 4684 2272 
L 2944 2272 
L 2944 1063 
L 2419 1063 
L 2419 2272 
L 678 2272 
L 678 2803 
L 2419 2803 
L 2419 4013 
L 2944 4013 
z
M 678 531 
L 4684 531 
L 4684 0 
L 678 0 
L 678 531 
z
" transform="scale(0.015625)"/>
       <path id="DejaVuSans-53" d="M 3425 4513 
L 3425 3897 
Q 3066 4069 2747 4153 
Q 2428 4238 2131 4238 
Q 1616 4238 1336 4038 
Q 1056 3838 1056 3469 
Q 1056 3159 1242 3001 
Q 1428 2844 1947 2747 
L 2328 2669 
Q 3034 2534 3370 2195 
Q 3706 1856 3706 1288 
Q 3706 609 3251 259 
Q 2797 -91 1919 -91 
Q 1588 -91 1214 -16 
Q 841 59 441 206 
L 441 856 
Q 825 641 1194 531 
Q 1563 422 1919 422 
Q 2459 422 2753 634 
Q 3047 847 3047 1241 
Q 3047 1584 2836 1778 
Q 2625 1972 2144 2069 
L 1759 2144 
Q 1053 2284 737 2584 
Q 422 2884 422 3419 
Q 422 4038 858 4394 
Q 1294 4750 2059 4750 
Q 2388 4750 2728 4690 
Q 3069 4631 3425 4513 
z
" transform="scale(0.015625)"/>
       <path id="DejaVuSans-44" d="M 1259 4147 
L 1259 519 
L 2022 519 
Q 2988 519 3436 956 
Q 3884 1394 3884 2338 
Q 3884 3275 3436 3711 
Q 2988 4147 2022 4147 
L 1259 4147 
z
M 628 4666 
L 1925 4666 
Q 3281 4666 3915 4102 
Q 4550 3538 4550 2338 
Q 4550 1131 3912 565 
Q 3275 0 1925 0 
L 628 0 
L 628 4666 
z
" transform="scale(0.015625)"/>
      </defs>
      <use xlink:href="#DejaVuSans-b1"/>
      <use xlink:href="#DejaVuSans-32" transform="translate(83.789062 0)"/>
      <use xlink:href="#DejaVuSans-20" transform="translate(147.412109 0)"/>
      <use xlink:href="#DejaVuSans-53" transform="translate(179.199219 0)"/>
      <use xlink:href="#DejaVuSans-74" transform="translate(242.675781 0)"/>
      <use xlink:href="#DejaVuSans-64" transform="translate(281.884766 0)"/>
      <use xlink:href="#DejaVuSans-20" transform="translate(345.361328 0)"/>
      <use xlink:href="#DejaVuSans-44" transform="translate(377.148438 0)"/>
      <use xlink:href="#DejaVuSans-65" transform="translate(454.150391 0)"/>
      <use xlink:href="#DejaVuSans-76" transform="translate(515.673828 0)"/>
     </g>
    </g>
   </g>
  </g>
 </g>
 <defs>
  <clipPath id="p1f078b0e3f">
   <rect x="50.87" y="26.88" width="658.33" height="219.16"/>
  </clipPath>
 </defs>
</svg>
