<?xml version="1.0" encoding="utf-8" standalone="no"?>
<!DOCTYPE svg PUBLIC "-//W3C//DTD SVG 1.1//EN"
  "http://www.w3.org/Graphics/SVG/1.1/DTD/svg11.dtd">
<svg xmlns:xlink="http://www.w3.org/1999/xlink" width="720pt" height="288pt" viewBox="0 0 720 288" xmlns="http://www.w3.org/2000/svg" version="1.1">
 <metadata>
  <rdf:RDF xmlns:dc="http://purl.org/dc/elements/1.1/" xmlns:cc="http://creativecommons.org/ns#" xmlns:rdf="http://www.w3.org/1999/02/22-rdf-syntax-ns#">
   <cc:Work>
    <dc:type rdf:resource="http://purl.org/dc/dcmitype/StillImage"/>
    <dc:date>2025-05-28T18:21:49.747829</dc:date>
    <dc:format>image/svg+xml</dc:format>
    <dc:creator>
     <cc:Agent>
      <dc:title>Matplotlib v3.10.3, https://matplotlib.org/</dc:title>
     </cc:Agent>
    </dc:creator>
   </cc:Work>
  </rdf:RDF>
 </metadata>
 <defs>
  <style type="text/css">*{stroke-linejoin: round; stroke-linecap: butt}</style>
 </defs>
 <g id="figure_1">
  <g id="patch_1">
   <path d="M 0 288 
L 720 288 
L 720 0 
L 0 0 
z
" style="fill: #ffffff"/>
  </g>
  <g id="axes_1">
   <g id="patch_2">
    <path d="M 71.84 246.04 
L 709.2 246.04 
L 709.2 26.88 
L 71.84 26.88 
z
" style="fill: #ffffff"/>
   </g>
   <g id="FillBetweenPolyCollection_1">
    <defs>
     <path id="mae2d8bda37" d="M 100.810909 -174.253032 
L 100.810909 -92.048927 
L 104.752529 -108.04169 
L 108.69415 -67.501158 
L 112.63577 -108.621274 
L 116.57739 -96.202663 
L 120.519011 -91.014992 
L 124.460631 -90.018765 
L 128.402251 -95.035544 
L 132.343871 -90.477819 
L 136.285492 -106.768184 
L 140.227112 -108.478339 
L 144.168732 -107.449852 
L 148.110353 -111.87758 
L 152.051973 -112.272558 
L 155.993593 -113.546077 
L 159.935213 -115.757909 
L 163.876834 -115.757909 
L 167.818454 -115.721002 
L 171.760074 -115.757909 
L 175.701694 -115.757909 
L 179.643315 -115.757227 
L 183.584935 -115.73302 
L 187.526555 -115.564935 
L 191.468176 -115.222185 
L 195.409796 -115.136475 
L 199.351416 -114.752241 
L 203.293036 -114.092253 
L 207.234657 -113.530422 
L 211.176277 -112.55229 
L 215.117897 -112.436964 
L 219.059518 -113.857402 
L 223.001138 -113.447696 
L 226.942758 -112.406438 
L 230.884378 -113.693038 
L 234.825999 -111.940725 
L 238.767619 -112.779393 
L 242.709239 -113.134031 
L 246.65086 -117.287691 
L 250.59248 -116.723107 
L 254.5341 -96.432618 
L 258.47572 -101.036336 
L 262.417341 -113.34104 
L 266.358961 -75.77573 
L 270.300581 -86.160582 
L 274.242202 -72.247872 
L 278.183822 -105.903564 
L 282.125442 -94.230273 
L 286.067062 -65.968532 
L 290.008683 -67.127585 
L 293.950303 -68.781174 
L 297.891923 -66.868615 
L 301.833544 -105.282378 
L 305.775164 -51.921818 
L 309.716784 -88.773144 
L 313.658404 -88.337621 
L 317.600025 -81.720052 
L 321.541645 -85.455491 
L 325.483265 -97.579058 
L 329.424886 -107.386383 
L 333.366506 -108.156123 
L 337.308126 -108.664818 
L 341.249746 -111.39319 
L 345.191367 -112.9508 
L 349.132987 -114.162801 
L 353.074607 -115.757909 
L 357.016228 -115.686141 
L 360.957848 -115.752283 
L 364.899468 -115.757909 
L 368.841088 -115.757909 
L 372.782709 -115.741927 
L 376.724329 -115.697894 
L 380.665949 -115.593387 
L 384.60757 -115.263856 
L 388.54919 -115.394355 
L 392.49081 -114.81296 
L 396.43243 -114.544411 
L 400.374051 -114.659411 
L 404.315671 -114.734096 
L 408.257291 -113.096135 
L 412.198912 -113.719954 
L 416.140532 -113.929121 
L 420.082152 -113.581167 
L 424.023772 -111.929893 
L 427.965393 -112.353865 
L 431.907013 -112.49561 
L 435.848633 -115.054091 
L 439.790254 -118.036752 
L 443.731874 -113.806345 
L 447.673494 -114.82804 
L 451.615114 -111.805142 
L 455.556735 -100.301155 
L 459.498355 -94.43462 
L 463.439975 -90.691252 
L 467.381596 -111.892706 
L 471.323216 -108.453475 
L 475.264836 -110.63084 
L 479.206456 -96.851225 
L 483.148077 -61.10313 
L 487.089697 -82.617137 
L 491.031317 -87.356091 
L 494.972938 -89.83614 
L 498.914558 -82.77601 
L 502.856178 -103.756633 
L 506.797798 -107.61146 
L 510.739419 -111.413035 
L 514.681039 -110.577501 
L 518.622659 -113.302608 
L 522.56428 -112.808562 
L 526.5059 -113.100076 
L 530.44752 -114.406884 
L 534.38914 -113.516245 
L 538.330761 -114.387084 
L 542.272381 -115.206783 
L 546.214001 -115.547635 
L 550.155622 -115.714553 
L 554.097242 -115.757909 
L 558.038862 -115.757909 
L 561.980482 -115.755631 
L 565.922103 -115.704722 
L 569.863723 -115.498097 
L 573.805343 -115.174751 
L 577.746964 -115.25641 
L 581.688584 -113.408621 
L 585.630204 -113.740326 
L 589.571824 -114.684867 
L 593.513445 -114.306035 
L 597.455065 -112.883241 
L 601.396685 -111.558439 
L 605.338306 -111.663024 
L 609.279926 -112.115015 
L 613.221546 -114.227591 
L 617.163166 -113.792713 
L 621.104787 -112.803824 
L 625.046407 -113.62175 
L 628.988027 -116.97671 
L 632.929647 -112.972671 
L 636.871268 -121.315541 
L 640.812888 -116.468237 
L 644.754508 -116.39152 
L 648.696129 -115.430421 
L 652.637749 -99.511995 
L 656.579369 -92.44702 
L 660.520989 -78.415964 
L 664.46261 -108.089037 
L 668.40423 -109.397721 
L 672.34585 -80.240328 
L 676.287471 -52.772648 
L 680.229091 -85.183091 
L 680.229091 -181.622936 
L 680.229091 -181.622936 
L 676.287471 -251.158182 
L 672.34585 -208.672516 
L 668.40423 -146.077846 
L 664.46261 -150.72374 
L 660.520989 -210.710087 
L 656.579369 -192.710901 
L 652.637749 -181.0749 
L 648.696129 -149.758178 
L 644.754508 -135.477778 
L 640.812888 -130.768344 
L 636.871268 -126.996542 
L 632.929647 -140.894824 
L 628.988027 -134.060863 
L 625.046407 -137.763765 
L 621.104787 -135.270437 
L 617.163166 -131.070453 
L 613.221546 -130.421165 
L 609.279926 -131.285037 
L 605.338306 -129.787929 
L 601.396685 -127.269122 
L 597.455065 -125.250549 
L 593.513445 -121.831831 
L 589.571824 -120.179176 
L 585.630204 -120.733439 
L 581.688584 -120.410385 
L 577.746964 -116.974558 
L 573.805343 -116.737116 
L 569.863723 -116.179892 
L 565.922103 -115.838377 
L 561.980482 -115.761497 
L 558.038862 -115.757909 
L 554.097242 -115.757909 
L 550.155622 -115.826238 
L 546.214001 -116.076042 
L 542.272381 -116.591736 
L 538.330761 -117.831904 
L 534.38914 -119.149445 
L 530.44752 -117.80524 
L 526.5059 -119.802059 
L 522.56428 -120.298669 
L 518.622659 -119.662966 
L 514.681039 -124.008999 
L 510.739419 -122.948388 
L 506.797798 -128.968823 
L 502.856178 -135.317167 
L 498.914558 -167.948006 
L 494.972938 -157.988843 
L 491.031317 -162.527119 
L 487.089697 -170.23071 
L 483.148077 -209.079504 
L 479.206456 -151.306696 
L 475.264836 -133.828625 
L 471.323216 -141.059131 
L 467.381596 -138.635133 
L 463.439975 -171.352643 
L 459.498355 -168.580152 
L 455.556735 -163.861718 
L 451.615114 -145.999638 
L 447.673494 -140.937073 
L 443.731874 -145.790639 
L 439.790254 -131.199994 
L 435.848633 -133.829212 
L 431.907013 -135.271748 
L 427.965393 -135.848564 
L 424.023772 -134.632985 
L 420.082152 -127.106301 
L 416.140532 -123.03744 
L 412.198912 -122.502557 
L 408.257291 -123.192876 
L 404.315671 -119.305538 
L 400.374051 -118.819801 
L 396.43243 -118.841194 
L 392.49081 -118.481596 
L 388.54919 -116.764319 
L 384.60757 -116.757782 
L 380.665949 -116.042073 
L 376.724329 -115.849818 
L 372.782709 -115.782088 
L 368.841088 -115.757909 
L 364.899468 -115.757909 
L 360.957848 -115.76642 
L 357.016228 -115.866489 
L 353.074607 -115.757909 
L 349.132987 -118.271821 
L 345.191367 -120.004937 
L 341.249746 -122.367064 
L 337.308126 -126.537061 
L 333.366506 -127.436013 
L 329.424886 -128.88409 
L 325.483265 -144.343452 
L 321.541645 -163.754367 
L 317.600025 -170.415072 
L 313.658404 -162.731881 
L 309.716784 -166.237796 
L 305.775164 -230.369861 
L 301.833544 -151.709534 
L 297.891923 -231.830122 
L 293.950303 -218.758294 
L 290.008683 -244.190824 
L 286.067062 -233.903162 
L 282.125442 -198.859186 
L 278.183822 -175.134951 
L 274.242202 -235.63572 
L 270.300581 -234.942976 
L 266.358961 -222.466053 
L 262.417341 -148.732371 
L 258.47572 -179.843273 
L 254.5341 -174.484857 
L 250.59248 -136.421936 
L 246.65086 -131.403084 
L 242.709239 -135.32301 
L 238.767619 -133.574147 
L 234.825999 -133.625852 
L 230.884378 -128.534122 
L 226.942758 -129.870717 
L 223.001138 -126.49581 
L 219.059518 -124.354868 
L 215.117897 -125.691317 
L 211.176277 -125.075723 
L 207.234657 -122.855344 
L 203.293036 -120.772775 
L 199.351416 -119.107085 
L 195.409796 -117.474213 
L 191.468176 -116.763593 
L 187.526555 -116.063465 
L 183.584935 -115.795564 
L 179.643315 -115.75894 
L 175.701694 -115.757909 
L 171.760074 -115.757909 
L 167.818454 -115.813746 
L 163.876834 -115.757909 
L 159.935213 -115.757909 
L 155.993593 -119.10431 
L 152.051973 -121.032206 
L 148.110353 -121.676746 
L 144.168732 -128.586012 
L 140.227112 -127.470432 
L 136.285492 -130.454016 
L 132.343871 -156.423856 
L 128.402251 -150.036435 
L 124.460631 -160.875064 
L 120.519011 -162.517423 
L 116.57739 -163.362252 
L 112.63577 -143.039516 
L 108.69415 -207.259514 
L 104.752529 -155.997036 
L 100.810909 -174.253032 
z
" style="stroke: #808080; stroke-opacity: 0.2"/>
    </defs>
    <g clip-path="url(#p9ea8baa3af)">
     <use xlink:href="#mae2d8bda37" x="0" y="288" style="fill: #808080; fill-opacity: 0.2; stroke: #808080; stroke-opacity: 0.2"/>
    </g>
   </g>
   <g id="matplotlib.axis_1">
    <g id="xtick_1">
     <g id="line2d_1">
      <defs>
       <path id="mde64ef66e4" d="M 0 0 
L 0 3.5 
" style="stroke: #000000; stroke-width: 0.8"/>
      </defs>
      <g>
       <use xlink:href="#mde64ef66e4" x="148.110353" y="246.04" style="stroke: #000000; stroke-width: 0.8"/>
      </g>
     </g>
     <g id="text_1">
      <!-- 05-26 00 -->
      <g transform="translate(125.629884 260.638438) scale(0.1 -0.1)">
       <defs>
        <path id="DejaVuSans-30" d="M 2034 4250 
Q 1547 4250 1301 3770 
Q 1056 3291 1056 2328 
Q 1056 1369 1301 889 
Q 1547 409 2034 409 
Q 2525 409 2770 889 
Q 3016 1369 3016 2328 
Q 3016 3291 2770 3770 
Q 2525 4250 2034 4250 
z
M 2034 4750 
Q 2819 4750 3233 4129 
Q 3647 3509 3647 2328 
Q 3647 1150 3233 529 
Q 2819 -91 2034 -91 
Q 1250 -91 836 529 
Q 422 1150 422 2328 
Q 422 3509 836 4129 
Q 1250 4750 2034 4750 
z
" transform="scale(0.015625)"/>
        <path id="DejaVuSans-35" d="M 691 4666 
L 3169 4666 
L 3169 4134 
L 1269 4134 
L 1269 2991 
Q 1406 3038 1543 3061 
Q 1681 3084 1819 3084 
Q 2600 3084 3056 2656 
Q 3513 2228 3513 1497 
Q 3513 744 3044 326 
Q 2575 -91 1722 -91 
Q 1428 -91 1123 -41 
Q 819 9 494 109 
L 494 744 
Q 775 591 1075 516 
Q 1375 441 1709 441 
Q 2250 441 2565 725 
Q 2881 1009 2881 1497 
Q 2881 1984 2565 2268 
Q 2250 2553 1709 2553 
Q 1456 2553 1204 2497 
Q 953 2441 691 2322 
L 691 4666 
z
" transform="scale(0.015625)"/>
        <path id="DejaVuSans-2d" d="M 313 2009 
L 1997 2009 
L 1997 1497 
L 313 1497 
L 313 2009 
z
" transform="scale(0.015625)"/>
        <path id="DejaVuSans-32" d="M 1228 531 
L 3431 531 
L 3431 0 
L 469 0 
L 469 531 
Q 828 903 1448 1529 
Q 2069 2156 2228 2338 
Q 2531 2678 2651 2914 
Q 2772 3150 2772 3378 
Q 2772 3750 2511 3984 
Q 2250 4219 1831 4219 
Q 1534 4219 1204 4116 
Q 875 4013 500 3803 
L 500 4441 
Q 881 4594 1212 4672 
Q 1544 4750 1819 4750 
Q 2544 4750 2975 4387 
Q 3406 4025 3406 3419 
Q 3406 3131 3298 2873 
Q 3191 2616 2906 2266 
Q 2828 2175 2409 1742 
Q 1991 1309 1228 531 
z
" transform="scale(0.015625)"/>
        <path id="DejaVuSans-36" d="M 2113 2584 
Q 1688 2584 1439 2293 
Q 1191 2003 1191 1497 
Q 1191 994 1439 701 
Q 1688 409 2113 409 
Q 2538 409 2786 701 
Q 3034 994 3034 1497 
Q 3034 2003 2786 2293 
Q 2538 2584 2113 2584 
z
M 3366 4563 
L 3366 3988 
Q 3128 4100 2886 4159 
Q 2644 4219 2406 4219 
Q 1781 4219 1451 3797 
Q 1122 3375 1075 2522 
Q 1259 2794 1537 2939 
Q 1816 3084 2150 3084 
Q 2853 3084 3261 2657 
Q 3669 2231 3669 1497 
Q 3669 778 3244 343 
Q 2819 -91 2113 -91 
Q 1303 -91 875 529 
Q 447 1150 447 2328 
Q 447 3434 972 4092 
Q 1497 4750 2381 4750 
Q 2619 4750 2861 4703 
Q 3103 4656 3366 4563 
z
" transform="scale(0.015625)"/>
        <path id="DejaVuSans-20" transform="scale(0.015625)"/>
       </defs>
       <use xlink:href="#DejaVuSans-30"/>
       <use xlink:href="#DejaVuSans-35" transform="translate(63.623047 0)"/>
       <use xlink:href="#DejaVuSans-2d" transform="translate(127.246094 0)"/>
       <use xlink:href="#DejaVuSans-32" transform="translate(163.330078 0)"/>
       <use xlink:href="#DejaVuSans-36" transform="translate(226.953125 0)"/>
       <use xlink:href="#DejaVuSans-20" transform="translate(290.576172 0)"/>
       <use xlink:href="#DejaVuSans-30" transform="translate(322.363281 0)"/>
       <use xlink:href="#DejaVuSans-30" transform="translate(385.986328 0)"/>
      </g>
     </g>
    </g>
    <g id="xtick_2">
     <g id="line2d_2">
      <g>
       <use xlink:href="#mde64ef66e4" x="242.709239" y="246.04" style="stroke: #000000; stroke-width: 0.8"/>
      </g>
     </g>
     <g id="text_2">
      <!-- 05-26 12 -->
      <g transform="translate(220.228771 260.638438) scale(0.1 -0.1)">
       <defs>
        <path id="DejaVuSans-31" d="M 794 531 
L 1825 531 
L 1825 4091 
L 703 3866 
L 703 4441 
L 1819 4666 
L 2450 4666 
L 2450 531 
L 3481 531 
L 3481 0 
L 794 0 
L 794 531 
z
" transform="scale(0.015625)"/>
       </defs>
       <use xlink:href="#DejaVuSans-30"/>
       <use xlink:href="#DejaVuSans-35" transform="translate(63.623047 0)"/>
       <use xlink:href="#DejaVuSans-2d" transform="translate(127.246094 0)"/>
       <use xlink:href="#DejaVuSans-32" transform="translate(163.330078 0)"/>
       <use xlink:href="#DejaVuSans-36" transform="translate(226.953125 0)"/>
       <use xlink:href="#DejaVuSans-20" transform="translate(290.576172 0)"/>
       <use xlink:href="#DejaVuSans-31" transform="translate(322.363281 0)"/>
       <use xlink:href="#DejaVuSans-32" transform="translate(385.986328 0)"/>
      </g>
     </g>
    </g>
    <g id="xtick_3">
     <g id="line2d_3">
      <g>
       <use xlink:href="#mde64ef66e4" x="337.308126" y="246.04" style="stroke: #000000; stroke-width: 0.8"/>
      </g>
     </g>
     <g id="text_3">
      <!-- 05-27 00 -->
      <g transform="translate(314.827657 260.638438) scale(0.1 -0.1)">
       <defs>
        <path id="DejaVuSans-37" d="M 525 4666 
L 3525 4666 
L 3525 4397 
L 1831 0 
L 1172 0 
L 2766 4134 
L 525 4134 
L 525 4666 
z
" transform="scale(0.015625)"/>
       </defs>
       <use xlink:href="#DejaVuSans-30"/>
       <use xlink:href="#DejaVuSans-35" transform="translate(63.623047 0)"/>
       <use xlink:href="#DejaVuSans-2d" transform="translate(127.246094 0)"/>
       <use xlink:href="#DejaVuSans-32" transform="translate(163.330078 0)"/>
       <use xlink:href="#DejaVuSans-37" transform="translate(226.953125 0)"/>
       <use xlink:href="#DejaVuSans-20" transform="translate(290.576172 0)"/>
       <use xlink:href="#DejaVuSans-30" transform="translate(322.363281 0)"/>
       <use xlink:href="#DejaVuSans-30" transform="translate(385.986328 0)"/>
      </g>
     </g>
    </g>
    <g id="xtick_4">
     <g id="line2d_4">
      <g>
       <use xlink:href="#mde64ef66e4" x="431.907013" y="246.04" style="stroke: #000000; stroke-width: 0.8"/>
      </g>
     </g>
     <g id="text_4">
      <!-- 05-27 12 -->
      <g transform="translate(409.426544 260.638438) scale(0.1 -0.1)">
       <use xlink:href="#DejaVuSans-30"/>
       <use xlink:href="#DejaVuSans-35" transform="translate(63.623047 0)"/>
       <use xlink:href="#DejaVuSans-2d" transform="translate(127.246094 0)"/>
       <use xlink:href="#DejaVuSans-32" transform="translate(163.330078 0)"/>
       <use xlink:href="#DejaVuSans-37" transform="translate(226.953125 0)"/>
       <use xlink:href="#DejaVuSans-20" transform="translate(290.576172 0)"/>
       <use xlink:href="#DejaVuSans-31" transform="translate(322.363281 0)"/>
       <use xlink:href="#DejaVuSans-32" transform="translate(385.986328 0)"/>
      </g>
     </g>
    </g>
    <g id="xtick_5">
     <g id="line2d_5">
      <g>
       <use xlink:href="#mde64ef66e4" x="526.5059" y="246.04" style="stroke: #000000; stroke-width: 0.8"/>
      </g>
     </g>
     <g id="text_5">
      <!-- 05-28 00 -->
      <g transform="translate(504.025431 260.638438) scale(0.1 -0.1)">
       <defs>
        <path id="DejaVuSans-38" d="M 2034 2216 
Q 1584 2216 1326 1975 
Q 1069 1734 1069 1313 
Q 1069 891 1326 650 
Q 1584 409 2034 409 
Q 2484 409 2743 651 
Q 3003 894 3003 1313 
Q 3003 1734 2745 1975 
Q 2488 2216 2034 2216 
z
M 1403 2484 
Q 997 2584 770 2862 
Q 544 3141 544 3541 
Q 544 4100 942 4425 
Q 1341 4750 2034 4750 
Q 2731 4750 3128 4425 
Q 3525 4100 3525 3541 
Q 3525 3141 3298 2862 
Q 3072 2584 2669 2484 
Q 3125 2378 3379 2068 
Q 3634 1759 3634 1313 
Q 3634 634 3220 271 
Q 2806 -91 2034 -91 
Q 1263 -91 848 271 
Q 434 634 434 1313 
Q 434 1759 690 2068 
Q 947 2378 1403 2484 
z
M 1172 3481 
Q 1172 3119 1398 2916 
Q 1625 2713 2034 2713 
Q 2441 2713 2670 2916 
Q 2900 3119 2900 3481 
Q 2900 3844 2670 4047 
Q 2441 4250 2034 4250 
Q 1625 4250 1398 4047 
Q 1172 3844 1172 3481 
z
" transform="scale(0.015625)"/>
       </defs>
       <use xlink:href="#DejaVuSans-30"/>
       <use xlink:href="#DejaVuSans-35" transform="translate(63.623047 0)"/>
       <use xlink:href="#DejaVuSans-2d" transform="translate(127.246094 0)"/>
       <use xlink:href="#DejaVuSans-32" transform="translate(163.330078 0)"/>
       <use xlink:href="#DejaVuSans-38" transform="translate(226.953125 0)"/>
       <use xlink:href="#DejaVuSans-20" transform="translate(290.576172 0)"/>
       <use xlink:href="#DejaVuSans-30" transform="translate(322.363281 0)"/>
       <use xlink:href="#DejaVuSans-30" transform="translate(385.986328 0)"/>
      </g>
     </g>
    </g>
    <g id="xtick_6">
     <g id="line2d_6">
      <g>
       <use xlink:href="#mde64ef66e4" x="621.104787" y="246.04" style="stroke: #000000; stroke-width: 0.8"/>
      </g>
     </g>
     <g id="text_6">
      <!-- 05-28 12 -->
      <g transform="translate(598.624318 260.638438) scale(0.1 -0.1)">
       <use xlink:href="#DejaVuSans-30"/>
       <use xlink:href="#DejaVuSans-35" transform="translate(63.623047 0)"/>
       <use xlink:href="#DejaVuSans-2d" transform="translate(127.246094 0)"/>
       <use xlink:href="#DejaVuSans-32" transform="translate(163.330078 0)"/>
       <use xlink:href="#DejaVuSans-38" transform="translate(226.953125 0)"/>
       <use xlink:href="#DejaVuSans-20" transform="translate(290.576172 0)"/>
       <use xlink:href="#DejaVuSans-31" transform="translate(322.363281 0)"/>
       <use xlink:href="#DejaVuSans-32" transform="translate(385.986328 0)"/>
      </g>
     </g>
    </g>
    <g id="text_7">
     <!-- Tijd -->
     <g transform="translate(381.67 274.316562) scale(0.1 -0.1)">
      <defs>
       <path id="DejaVuSans-54" d="M -19 4666 
L 3928 4666 
L 3928 4134 
L 2272 4134 
L 2272 0 
L 1638 0 
L 1638 4134 
L -19 4134 
L -19 4666 
z
" transform="scale(0.015625)"/>
       <path id="DejaVuSans-69" d="M 603 3500 
L 1178 3500 
L 1178 0 
L 603 0 
L 603 3500 
z
M 603 4863 
L 1178 4863 
L 1178 4134 
L 603 4134 
L 603 4863 
z
" transform="scale(0.015625)"/>
       <path id="DejaVuSans-6a" d="M 603 3500 
L 1178 3500 
L 1178 -63 
Q 1178 -731 923 -1031 
Q 669 -1331 103 -1331 
L -116 -1331 
L -116 -844 
L 38 -844 
Q 366 -844 484 -692 
Q 603 -541 603 -63 
L 603 3500 
z
M 603 4863 
L 1178 4863 
L 1178 4134 
L 603 4134 
L 603 4863 
z
" transform="scale(0.015625)"/>
       <path id="DejaVuSans-64" d="M 2906 2969 
L 2906 4863 
L 3481 4863 
L 3481 0 
L 2906 0 
L 2906 525 
Q 2725 213 2448 61 
Q 2172 -91 1784 -91 
Q 1150 -91 751 415 
Q 353 922 353 1747 
Q 353 2572 751 3078 
Q 1150 3584 1784 3584 
Q 2172 3584 2448 3432 
Q 2725 3281 2906 2969 
z
M 947 1747 
Q 947 1113 1208 752 
Q 1469 391 1925 391 
Q 2381 391 2643 752 
Q 2906 1113 2906 1747 
Q 2906 2381 2643 2742 
Q 2381 3103 1925 3103 
Q 1469 3103 1208 2742 
Q 947 2381 947 1747 
z
" transform="scale(0.015625)"/>
      </defs>
      <use xlink:href="#DejaVuSans-54"/>
      <use xlink:href="#DejaVuSans-69" transform="translate(57.958984 0)"/>
      <use xlink:href="#DejaVuSans-6a" transform="translate(85.742188 0)"/>
      <use xlink:href="#DejaVuSans-64" transform="translate(113.525391 0)"/>
     </g>
    </g>
   </g>
   <g id="matplotlib.axis_2">
    <g id="ytick_1">
     <g id="line2d_7">
      <defs>
       <path id="m95418b2805" d="M 0 0 
L -3.5 0 
" style="stroke: #000000; stroke-width: 0.8"/>
      </defs>
      <g>
       <use xlink:href="#m95418b2805" x="71.84" y="211.591328" style="stroke: #000000; stroke-width: 0.8"/>
      </g>
     </g>
     <g id="text_8">
      <!-- −10000 -->
      <g transform="translate(24.647813 215.390547) scale(0.1 -0.1)">
       <defs>
        <path id="DejaVuSans-2212" d="M 678 2272 
L 4684 2272 
L 4684 1741 
L 678 1741 
L 678 2272 
z
" transform="scale(0.015625)"/>
       </defs>
       <use xlink:href="#DejaVuSans-2212"/>
       <use xlink:href="#DejaVuSans-31" transform="translate(83.789062 0)"/>
       <use xlink:href="#DejaVuSans-30" transform="translate(147.412109 0)"/>
       <use xlink:href="#DejaVuSans-30" transform="translate(211.035156 0)"/>
       <use xlink:href="#DejaVuSans-30" transform="translate(274.658203 0)"/>
       <use xlink:href="#DejaVuSans-30" transform="translate(338.28125 0)"/>
      </g>
     </g>
    </g>
    <g id="ytick_2">
     <g id="line2d_8">
      <g>
       <use xlink:href="#m95418b2805" x="71.84" y="172.242091" style="stroke: #000000; stroke-width: 0.8"/>
      </g>
     </g>
     <g id="text_9">
      <!-- 0 -->
      <g transform="translate(58.4775 176.04131) scale(0.1 -0.1)">
       <use xlink:href="#DejaVuSans-30"/>
      </g>
     </g>
    </g>
    <g id="ytick_3">
     <g id="line2d_9">
      <g>
       <use xlink:href="#m95418b2805" x="71.84" y="132.892855" style="stroke: #000000; stroke-width: 0.8"/>
      </g>
     </g>
     <g id="text_10">
      <!-- 10000 -->
      <g transform="translate(33.0275 136.692073) scale(0.1 -0.1)">
       <use xlink:href="#DejaVuSans-31"/>
       <use xlink:href="#DejaVuSans-30" transform="translate(63.623047 0)"/>
       <use xlink:href="#DejaVuSans-30" transform="translate(127.246094 0)"/>
       <use xlink:href="#DejaVuSans-30" transform="translate(190.869141 0)"/>
       <use xlink:href="#DejaVuSans-30" transform="translate(254.492188 0)"/>
      </g>
     </g>
    </g>
    <g id="ytick_4">
     <g id="line2d_10">
      <g>
       <use xlink:href="#m95418b2805" x="71.84" y="93.543618" style="stroke: #000000; stroke-width: 0.8"/>
      </g>
     </g>
     <g id="text_11">
      <!-- 20000 -->
      <g transform="translate(33.0275 97.342837) scale(0.1 -0.1)">
       <use xlink:href="#DejaVuSans-32"/>
       <use xlink:href="#DejaVuSans-30" transform="translate(63.623047 0)"/>
       <use xlink:href="#DejaVuSans-30" transform="translate(127.246094 0)"/>
       <use xlink:href="#DejaVuSans-30" transform="translate(190.869141 0)"/>
       <use xlink:href="#DejaVuSans-30" transform="translate(254.492188 0)"/>
      </g>
     </g>
    </g>
    <g id="ytick_5">
     <g id="line2d_11">
      <g>
       <use xlink:href="#m95418b2805" x="71.84" y="54.194381" style="stroke: #000000; stroke-width: 0.8"/>
      </g>
     </g>
     <g id="text_12">
      <!-- 30000 -->
      <g transform="translate(33.0275 57.9936) scale(0.1 -0.1)">
       <defs>
        <path id="DejaVuSans-33" d="M 2597 2516 
Q 3050 2419 3304 2112 
Q 3559 1806 3559 1356 
Q 3559 666 3084 287 
Q 2609 -91 1734 -91 
Q 1441 -91 1130 -33 
Q 819 25 488 141 
L 488 750 
Q 750 597 1062 519 
Q 1375 441 1716 441 
Q 2309 441 2620 675 
Q 2931 909 2931 1356 
Q 2931 1769 2642 2001 
Q 2353 2234 1838 2234 
L 1294 2234 
L 1294 2753 
L 1863 2753 
Q 2328 2753 2575 2939 
Q 2822 3125 2822 3475 
Q 2822 3834 2567 4026 
Q 2313 4219 1838 4219 
Q 1578 4219 1281 4162 
Q 984 4106 628 3988 
L 628 4550 
Q 988 4650 1302 4700 
Q 1616 4750 1894 4750 
Q 2613 4750 3031 4423 
Q 3450 4097 3450 3541 
Q 3450 3153 3228 2886 
Q 3006 2619 2597 2516 
z
" transform="scale(0.015625)"/>
       </defs>
       <use xlink:href="#DejaVuSans-33"/>
       <use xlink:href="#DejaVuSans-30" transform="translate(63.623047 0)"/>
       <use xlink:href="#DejaVuSans-30" transform="translate(127.246094 0)"/>
       <use xlink:href="#DejaVuSans-30" transform="translate(190.869141 0)"/>
       <use xlink:href="#DejaVuSans-30" transform="translate(254.492188 0)"/>
      </g>
     </g>
    </g>
    <g id="text_13">
     <!-- Lichtintensiteit -->
     <g transform="translate(18.568125 173.656094) rotate(-90) scale(0.1 -0.1)">
      <defs>
       <path id="DejaVuSans-4c" d="M 628 4666 
L 1259 4666 
L 1259 531 
L 3531 531 
L 3531 0 
L 628 0 
L 628 4666 
z
" transform="scale(0.015625)"/>
       <path id="DejaVuSans-63" d="M 3122 3366 
L 3122 2828 
Q 2878 2963 2633 3030 
Q 2388 3097 2138 3097 
Q 1578 3097 1268 2742 
Q 959 2388 959 1747 
Q 959 1106 1268 751 
Q 1578 397 2138 397 
Q 2388 397 2633 464 
Q 2878 531 3122 666 
L 3122 134 
Q 2881 22 2623 -34 
Q 2366 -91 2075 -91 
Q 1284 -91 818 406 
Q 353 903 353 1747 
Q 353 2603 823 3093 
Q 1294 3584 2113 3584 
Q 2378 3584 2631 3529 
Q 2884 3475 3122 3366 
z
" transform="scale(0.015625)"/>
       <path id="DejaVuSans-68" d="M 3513 2113 
L 3513 0 
L 2938 0 
L 2938 2094 
Q 2938 2591 2744 2837 
Q 2550 3084 2163 3084 
Q 1697 3084 1428 2787 
Q 1159 2491 1159 1978 
L 1159 0 
L 581 0 
L 581 4863 
L 1159 4863 
L 1159 2956 
Q 1366 3272 1645 3428 
Q 1925 3584 2291 3584 
Q 2894 3584 3203 3211 
Q 3513 2838 3513 2113 
z
" transform="scale(0.015625)"/>
       <path id="DejaVuSans-74" d="M 1172 4494 
L 1172 3500 
L 2356 3500 
L 2356 3053 
L 1172 3053 
L 1172 1153 
Q 1172 725 1289 603 
Q 1406 481 1766 481 
L 2356 481 
L 2356 0 
L 1766 0 
Q 1100 0 847 248 
Q 594 497 594 1153 
L 594 3053 
L 172 3053 
L 172 3500 
L 594 3500 
L 594 4494 
L 1172 4494 
z
" transform="scale(0.015625)"/>
       <path id="DejaVuSans-6e" d="M 3513 2113 
L 3513 0 
L 2938 0 
L 2938 2094 
Q 2938 2591 2744 2837 
Q 2550 3084 2163 3084 
Q 1697 3084 1428 2787 
Q 1159 2491 1159 1978 
L 1159 0 
L 581 0 
L 581 3500 
L 1159 3500 
L 1159 2956 
Q 1366 3272 1645 3428 
Q 1925 3584 2291 3584 
Q 2894 3584 3203 3211 
Q 3513 2838 3513 2113 
z
" transform="scale(0.015625)"/>
       <path id="DejaVuSans-65" d="M 3597 1894 
L 3597 1613 
L 953 1613 
Q 991 1019 1311 708 
Q 1631 397 2203 397 
Q 2534 397 2845 478 
Q 3156 559 3463 722 
L 3463 178 
Q 3153 47 2828 -22 
Q 2503 -91 2169 -91 
Q 1331 -91 842 396 
Q 353 884 353 1716 
Q 353 2575 817 3079 
Q 1281 3584 2069 3584 
Q 2775 3584 3186 3129 
Q 3597 2675 3597 1894 
z
M 3022 2063 
Q 3016 2534 2758 2815 
Q 2500 3097 2075 3097 
Q 1594 3097 1305 2825 
Q 1016 2553 972 2059 
L 3022 2063 
z
" transform="scale(0.015625)"/>
       <path id="DejaVuSans-73" d="M 2834 3397 
L 2834 2853 
Q 2591 2978 2328 3040 
Q 2066 3103 1784 3103 
Q 1356 3103 1142 2972 
Q 928 2841 928 2578 
Q 928 2378 1081 2264 
Q 1234 2150 1697 2047 
L 1894 2003 
Q 2506 1872 2764 1633 
Q 3022 1394 3022 966 
Q 3022 478 2636 193 
Q 2250 -91 1575 -91 
Q 1294 -91 989 -36 
Q 684 19 347 128 
L 347 722 
Q 666 556 975 473 
Q 1284 391 1588 391 
Q 1994 391 2212 530 
Q 2431 669 2431 922 
Q 2431 1156 2273 1281 
Q 2116 1406 1581 1522 
L 1381 1569 
Q 847 1681 609 1914 
Q 372 2147 372 2553 
Q 372 3047 722 3315 
Q 1072 3584 1716 3584 
Q 2034 3584 2315 3537 
Q 2597 3491 2834 3397 
z
" transform="scale(0.015625)"/>
      </defs>
      <use xlink:href="#DejaVuSans-4c"/>
      <use xlink:href="#DejaVuSans-69" transform="translate(55.712891 0)"/>
      <use xlink:href="#DejaVuSans-63" transform="translate(83.496094 0)"/>
      <use xlink:href="#DejaVuSans-68" transform="translate(138.476562 0)"/>
      <use xlink:href="#DejaVuSans-74" transform="translate(201.855469 0)"/>
      <use xlink:href="#DejaVuSans-69" transform="translate(241.064453 0)"/>
      <use xlink:href="#DejaVuSans-6e" transform="translate(268.847656 0)"/>
      <use xlink:href="#DejaVuSans-74" transform="translate(332.226562 0)"/>
      <use xlink:href="#DejaVuSans-65" transform="translate(371.435547 0)"/>
      <use xlink:href="#DejaVuSans-6e" transform="translate(432.958984 0)"/>
      <use xlink:href="#DejaVuSans-73" transform="translate(496.337891 0)"/>
      <use xlink:href="#DejaVuSans-69" transform="translate(548.4375 0)"/>
      <use xlink:href="#DejaVuSans-74" transform="translate(576.220703 0)"/>
      <use xlink:href="#DejaVuSans-65" transform="translate(615.429688 0)"/>
      <use xlink:href="#DejaVuSans-69" transform="translate(676.953125 0)"/>
      <use xlink:href="#DejaVuSans-74" transform="translate(704.736328 0)"/>
     </g>
    </g>
   </g>
   <g id="line2d_12">
    <path d="M 100.810909 165.034492 
L 104.752529 165.405162 
L 108.69415 165.916702 
L 112.63577 165.918931 
L 116.57739 167.940958 
L 120.519011 170.814632 
L 124.460631 171.729502 
L 128.402251 172.148047 
L 136.285492 172.242091 
L 187.526555 172.225565 
L 191.468176 172.063971 
L 195.409796 171.646344 
L 199.351416 170.877853 
L 203.293036 170.57152 
L 207.234657 169.661437 
L 215.117897 169.681243 
L 219.059518 168.499454 
L 226.942758 167.870981 
L 230.884378 166.386794 
L 234.825999 165.094696 
L 238.767619 165.370141 
L 242.709239 163.176421 
L 246.65086 162.054968 
L 250.59248 160.735719 
L 254.5341 113.472957 
L 258.47572 110.609775 
L 266.358961 69.433947 
L 270.300581 89.3322 
L 274.242202 153.401415 
L 278.183822 154.18735 
L 282.125442 155.223547 
L 286.067062 154.875962 
L 290.008683 162.548013 
L 293.950303 165.821673 
L 297.891923 166.72664 
L 301.833544 168.362912 
L 305.775164 170.19921 
L 309.716784 171.316335 
L 313.658404 171.883489 
L 317.600025 172.14162 
L 325.483265 172.242091 
L 380.665949 172.197824 
L 388.54919 171.951891 
L 392.49081 171.633752 
L 396.43243 171.768851 
L 400.374051 171.262689 
L 408.257291 170.708652 
L 412.198912 170.23528 
L 416.140532 169.053229 
L 420.082152 164.654378 
L 427.965393 161.758799 
L 431.907013 161.665804 
L 435.848633 164.010034 
L 439.790254 159.545404 
L 443.731874 158.964872 
L 447.673494 162.868316 
L 451.615114 163.676943 
L 455.556735 162.880252 
L 459.498355 167.12892 
L 463.439975 167.512444 
L 467.381596 168.467909 
L 471.323216 169.921536 
L 475.264836 170.085622 
L 483.148077 171.193828 
L 487.089697 171.498784 
L 491.031317 170.91071 
L 498.914558 171.84309 
L 506.797798 172.193954 
L 518.622659 172.242091 
L 569.863723 172.225696 
L 573.805343 172.120699 
L 577.746964 171.36762 
L 581.688584 171.458386 
L 585.630204 170.600441 
L 589.571824 169.592707 
L 593.513445 169.040638 
L 597.455065 169.361858 
L 601.396685 168.744928 
L 605.338306 167.391249 
L 609.279926 165.771372 
L 613.221546 161.47673 
L 617.163166 163.118577 
L 625.046407 161.772046 
L 628.988027 160.308255 
L 632.929647 163.414746 
L 636.871268 161.380653 
L 640.812888 167.503787 
L 644.754508 166.422864 
L 648.696129 155.370057 
L 652.637749 137.322923 
L 656.579369 150.430547 
L 660.520989 156.754822 
L 664.46261 155.546997 
L 668.40423 168.84822 
L 672.34585 167.354129 
L 676.287471 162.658454 
L 680.229091 166.594427 
L 680.229091 166.594427 
" clip-path="url(#p9ea8baa3af)" style="fill: none; stroke: #1f77b4; stroke-width: 2; stroke-linecap: square"/>
   </g>
   <g id="line2d_13">
    <path d="M 100.810909 154.84902 
L 104.752529 155.980637 
L 108.69415 150.619664 
L 112.63577 162.169605 
L 116.57739 158.217542 
L 120.519011 161.233793 
L 124.460631 162.553085 
L 128.402251 165.46401 
L 132.343871 164.549163 
L 136.285492 169.3889 
L 140.227112 170.025614 
L 144.168732 169.982068 
L 148.110353 171.222837 
L 152.051973 171.347618 
L 155.993593 171.674807 
L 159.935213 172.242091 
L 187.526555 172.1858 
L 191.468176 172.007111 
L 195.409796 171.694656 
L 199.351416 171.070337 
L 203.293036 170.567486 
L 207.234657 169.807117 
L 211.176277 169.185994 
L 215.117897 168.935859 
L 219.059518 168.893865 
L 223.001138 168.028247 
L 226.942758 166.861422 
L 230.884378 166.88642 
L 234.825999 165.216711 
L 238.767619 164.82323 
L 242.709239 163.77148 
L 246.65086 163.654612 
L 250.59248 161.427478 
L 254.5341 152.541262 
L 258.47572 147.560195 
L 262.417341 156.963294 
L 266.358961 138.879109 
L 270.300581 127.448221 
L 274.242202 134.058204 
L 278.183822 147.480743 
L 282.125442 141.45527 
L 286.067062 138.064153 
L 290.008683 132.340796 
L 293.950303 144.230266 
L 297.891923 138.650632 
L 301.833544 159.504044 
L 305.775164 146.854161 
L 309.716784 160.49453 
L 313.658404 162.465249 
L 317.600025 161.932438 
L 321.541645 163.395071 
L 325.483265 167.038745 
L 329.424886 169.864764 
L 333.366506 170.203932 
L 337.308126 170.399061 
L 341.249746 171.119873 
L 345.191367 171.522132 
L 349.132987 171.782689 
L 353.074607 172.242091 
L 384.60757 171.989181 
L 388.54919 171.920663 
L 392.49081 171.352722 
L 400.374051 171.260394 
L 404.315671 170.980183 
L 408.257291 169.855495 
L 412.198912 169.888745 
L 416.140532 169.51672 
L 420.082152 167.656266 
L 424.023772 164.718561 
L 427.965393 163.898785 
L 431.907013 164.116321 
L 435.848633 163.558349 
L 439.790254 163.381627 
L 443.731874 158.201508 
L 447.673494 160.117444 
L 451.615114 159.09761 
L 455.556735 155.918563 
L 463.439975 156.978052 
L 467.381596 162.736081 
L 471.323216 163.243697 
L 475.264836 165.770268 
L 479.206456 163.921039 
L 483.148077 152.908683 
L 487.089697 161.576076 
L 491.031317 163.058395 
L 494.972938 164.087509 
L 498.914558 162.637992 
L 502.856178 168.4631 
L 506.797798 169.709859 
L 510.739419 170.819289 
L 514.681039 170.70675 
L 518.622659 171.517213 
L 522.56428 171.446384 
L 526.5059 171.548933 
L 530.44752 171.893938 
L 534.38914 171.667155 
L 542.272381 172.10074 
L 550.155622 172.229605 
L 565.922103 172.22845 
L 573.805343 172.044066 
L 577.746964 171.884516 
L 581.688584 171.090497 
L 585.630204 170.763118 
L 589.571824 170.567978 
L 593.513445 169.931067 
L 597.455065 168.933105 
L 601.396685 168.586219 
L 605.338306 167.274524 
L 609.279926 166.299974 
L 613.221546 165.675622 
L 617.163166 165.568417 
L 625.046407 162.307243 
L 628.988027 162.481213 
L 632.929647 161.066252 
L 636.871268 163.843959 
L 640.812888 164.38171 
L 644.754508 162.065351 
L 648.696129 155.405701 
L 652.637749 147.706553 
L 656.579369 145.42104 
L 660.520989 143.436974 
L 664.46261 158.593612 
L 668.40423 160.262216 
L 672.34585 143.543578 
L 676.287471 136.034585 
L 680.229091 154.596986 
L 680.229091 154.596986 
" clip-path="url(#p9ea8baa3af)" style="fill: none; stroke-dasharray: 5.55,2.4; stroke-dashoffset: 0; stroke: #808080; stroke-width: 1.5"/>
   </g>
   <g id="patch_3">
    <path d="M 71.84 246.04 
L 71.84 26.88 
" style="fill: none; stroke: #000000; stroke-width: 0.8; stroke-linejoin: miter; stroke-linecap: square"/>
   </g>
   <g id="patch_4">
    <path d="M 709.2 246.04 
L 709.2 26.88 
" style="fill: none; stroke: #000000; stroke-width: 0.8; stroke-linejoin: miter; stroke-linecap: square"/>
   </g>
   <g id="patch_5">
    <path d="M 71.84 246.04 
L 709.2 246.04 
" style="fill: none; stroke: #000000; stroke-width: 0.8; stroke-linejoin: miter; stroke-linecap: square"/>
   </g>
   <g id="patch_6">
    <path d="M 71.84 26.88 
L 709.2 26.88 
" style="fill: none; stroke: #000000; stroke-width: 0.8; stroke-linejoin: miter; stroke-linecap: square"/>
   </g>
   <g id="text_14">
    <!-- Licht - v001/c00001/d021 -->
    <g transform="translate(313.383438 20.88) scale(0.12 -0.12)">
     <defs>
      <path id="DejaVuSans-76" d="M 191 3500 
L 800 3500 
L 1894 563 
L 2988 3500 
L 3597 3500 
L 2284 0 
L 1503 0 
L 191 3500 
z
" transform="scale(0.015625)"/>
      <path id="DejaVuSans-2f" d="M 1625 4666 
L 2156 4666 
L 531 -594 
L 0 -594 
L 1625 4666 
z
" transform="scale(0.015625)"/>
     </defs>
     <use xlink:href="#DejaVuSans-4c"/>
     <use xlink:href="#DejaVuSans-69" transform="translate(55.712891 0)"/>
     <use xlink:href="#DejaVuSans-63" transform="translate(83.496094 0)"/>
     <use xlink:href="#DejaVuSans-68" transform="translate(138.476562 0)"/>
     <use xlink:href="#DejaVuSans-74" transform="translate(201.855469 0)"/>
     <use xlink:href="#DejaVuSans-20" transform="translate(241.064453 0)"/>
     <use xlink:href="#DejaVuSans-2d" transform="translate(272.851562 0)"/>
     <use xlink:href="#DejaVuSans-20" transform="translate(308.935547 0)"/>
     <use xlink:href="#DejaVuSans-76" transform="translate(340.722656 0)"/>
     <use xlink:href="#DejaVuSans-30" transform="translate(399.902344 0)"/>
     <use xlink:href="#DejaVuSans-30" transform="translate(463.525391 0)"/>
     <use xlink:href="#DejaVuSans-31" transform="translate(527.148438 0)"/>
     <use xlink:href="#DejaVuSans-2f" transform="translate(590.771484 0)"/>
     <use xlink:href="#DejaVuSans-63" transform="translate(624.462891 0)"/>
     <use xlink:href="#DejaVuSans-30" transform="translate(679.443359 0)"/>
     <use xlink:href="#DejaVuSans-30" transform="translate(743.066406 0)"/>
     <use xlink:href="#DejaVuSans-30" transform="translate(806.689453 0)"/>
     <use xlink:href="#DejaVuSans-30" transform="translate(870.3125 0)"/>
     <use xlink:href="#DejaVuSans-31" transform="translate(933.935547 0)"/>
     <use xlink:href="#DejaVuSans-2f" transform="translate(997.558594 0)"/>
     <use xlink:href="#DejaVuSans-64" transform="translate(1031.25 0)"/>
     <use xlink:href="#DejaVuSans-30" transform="translate(1094.726562 0)"/>
     <use xlink:href="#DejaVuSans-32" transform="translate(1158.349609 0)"/>
     <use xlink:href="#DejaVuSans-31" transform="translate(1221.972656 0)"/>
    </g>
   </g>
   <g id="legend_1">
    <g id="patch_7">
     <path d="M 78.84 78.914375 
L 229.78375 78.914375 
Q 231.78375 78.914375 231.78375 76.914375 
L 231.78375 33.88 
Q 231.78375 31.88 229.78375 31.88 
L 78.84 31.88 
Q 76.84 31.88 76.84 33.88 
L 76.84 76.914375 
Q 76.84 78.914375 78.84 78.914375 
z
" style="fill: #ffffff; opacity: 0.8; stroke: #cccccc; stroke-linejoin: miter"/>
    </g>
    <g id="line2d_14">
     <path d="M 80.84 39.978438 
L 90.84 39.978438 
L 100.84 39.978438 
" style="fill: none; stroke: #1f77b4; stroke-width: 2; stroke-linecap: square"/>
    </g>
    <g id="text_15">
     <!-- Hive -->
     <g transform="translate(108.84 43.478438) scale(0.1 -0.1)">
      <defs>
       <path id="DejaVuSans-48" d="M 628 4666 
L 1259 4666 
L 1259 2753 
L 3553 2753 
L 3553 4666 
L 4184 4666 
L 4184 0 
L 3553 0 
L 3553 2222 
L 1259 2222 
L 1259 0 
L 628 0 
L 628 4666 
z
" transform="scale(0.015625)"/>
      </defs>
      <use xlink:href="#DejaVuSans-48"/>
      <use xlink:href="#DejaVuSans-69" transform="translate(75.195312 0)"/>
      <use xlink:href="#DejaVuSans-76" transform="translate(102.978516 0)"/>
      <use xlink:href="#DejaVuSans-65" transform="translate(162.158203 0)"/>
     </g>
    </g>
    <g id="line2d_15">
     <path d="M 80.84 54.656563 
L 90.84 54.656563 
L 100.84 54.656563 
" style="fill: none; stroke-dasharray: 5.55,2.4; stroke-dashoffset: 0; stroke: #808080; stroke-width: 1.5"/>
    </g>
    <g id="text_16">
     <!-- Gemiddelde (alle hives) -->
     <g transform="translate(108.84 58.156563) scale(0.1 -0.1)">
      <defs>
       <path id="DejaVuSans-47" d="M 3809 666 
L 3809 1919 
L 2778 1919 
L 2778 2438 
L 4434 2438 
L 4434 434 
Q 4069 175 3628 42 
Q 3188 -91 2688 -91 
Q 1594 -91 976 548 
Q 359 1188 359 2328 
Q 359 3472 976 4111 
Q 1594 4750 2688 4750 
Q 3144 4750 3555 4637 
Q 3966 4525 4313 4306 
L 4313 3634 
Q 3963 3931 3569 4081 
Q 3175 4231 2741 4231 
Q 1884 4231 1454 3753 
Q 1025 3275 1025 2328 
Q 1025 1384 1454 906 
Q 1884 428 2741 428 
Q 3075 428 3337 486 
Q 3600 544 3809 666 
z
" transform="scale(0.015625)"/>
       <path id="DejaVuSans-6d" d="M 3328 2828 
Q 3544 3216 3844 3400 
Q 4144 3584 4550 3584 
Q 5097 3584 5394 3201 
Q 5691 2819 5691 2113 
L 5691 0 
L 5113 0 
L 5113 2094 
Q 5113 2597 4934 2840 
Q 4756 3084 4391 3084 
Q 3944 3084 3684 2787 
Q 3425 2491 3425 1978 
L 3425 0 
L 2847 0 
L 2847 2094 
Q 2847 2600 2669 2842 
Q 2491 3084 2119 3084 
Q 1678 3084 1418 2786 
Q 1159 2488 1159 1978 
L 1159 0 
L 581 0 
L 581 3500 
L 1159 3500 
L 1159 2956 
Q 1356 3278 1631 3431 
Q 1906 3584 2284 3584 
Q 2666 3584 2933 3390 
Q 3200 3197 3328 2828 
z
" transform="scale(0.015625)"/>
       <path id="DejaVuSans-6c" d="M 603 4863 
L 1178 4863 
L 1178 0 
L 603 0 
L 603 4863 
z
" transform="scale(0.015625)"/>
       <path id="DejaVuSans-28" d="M 1984 4856 
Q 1566 4138 1362 3434 
Q 1159 2731 1159 2009 
Q 1159 1288 1364 580 
Q 1569 -128 1984 -844 
L 1484 -844 
Q 1016 -109 783 600 
Q 550 1309 550 2009 
Q 550 2706 781 3412 
Q 1013 4119 1484 4856 
L 1984 4856 
z
" transform="scale(0.015625)"/>
       <path id="DejaVuSans-61" d="M 2194 1759 
Q 1497 1759 1228 1600 
Q 959 1441 959 1056 
Q 959 750 1161 570 
Q 1363 391 1709 391 
Q 2188 391 2477 730 
Q 2766 1069 2766 1631 
L 2766 1759 
L 2194 1759 
z
M 3341 1997 
L 3341 0 
L 2766 0 
L 2766 531 
Q 2569 213 2275 61 
Q 1981 -91 1556 -91 
Q 1019 -91 701 211 
Q 384 513 384 1019 
Q 384 1609 779 1909 
Q 1175 2209 1959 2209 
L 2766 2209 
L 2766 2266 
Q 2766 2663 2505 2880 
Q 2244 3097 1772 3097 
Q 1472 3097 1187 3025 
Q 903 2953 641 2809 
L 641 3341 
Q 956 3463 1253 3523 
Q 1550 3584 1831 3584 
Q 2591 3584 2966 3190 
Q 3341 2797 3341 1997 
z
" transform="scale(0.015625)"/>
       <path id="DejaVuSans-29" d="M 513 4856 
L 1013 4856 
Q 1481 4119 1714 3412 
Q 1947 2706 1947 2009 
Q 1947 1309 1714 600 
Q 1481 -109 1013 -844 
L 513 -844 
Q 928 -128 1133 580 
Q 1338 1288 1338 2009 
Q 1338 2731 1133 3434 
Q 928 4138 513 4856 
z
" transform="scale(0.015625)"/>
      </defs>
      <use xlink:href="#DejaVuSans-47"/>
      <use xlink:href="#DejaVuSans-65" transform="translate(77.490234 0)"/>
      <use xlink:href="#DejaVuSans-6d" transform="translate(139.013672 0)"/>
      <use xlink:href="#DejaVuSans-69" transform="translate(236.425781 0)"/>
      <use xlink:href="#DejaVuSans-64" transform="translate(264.208984 0)"/>
      <use xlink:href="#DejaVuSans-64" transform="translate(327.685547 0)"/>
      <use xlink:href="#DejaVuSans-65" transform="translate(391.162109 0)"/>
      <use xlink:href="#DejaVuSans-6c" transform="translate(452.685547 0)"/>
      <use xlink:href="#DejaVuSans-64" transform="translate(480.46875 0)"/>
      <use xlink:href="#DejaVuSans-65" transform="translate(543.945312 0)"/>
      <use xlink:href="#DejaVuSans-20" transform="translate(605.46875 0)"/>
      <use xlink:href="#DejaVuSans-28" transform="translate(637.255859 0)"/>
      <use xlink:href="#DejaVuSans-61" transform="translate(676.269531 0)"/>
      <use xlink:href="#DejaVuSans-6c" transform="translate(737.548828 0)"/>
      <use xlink:href="#DejaVuSans-6c" transform="translate(765.332031 0)"/>
      <use xlink:href="#DejaVuSans-65" transform="translate(793.115234 0)"/>
      <use xlink:href="#DejaVuSans-20" transform="translate(854.638672 0)"/>
      <use xlink:href="#DejaVuSans-68" transform="translate(886.425781 0)"/>
      <use xlink:href="#DejaVuSans-69" transform="translate(949.804688 0)"/>
      <use xlink:href="#DejaVuSans-76" transform="translate(977.587891 0)"/>
      <use xlink:href="#DejaVuSans-65" transform="translate(1036.767578 0)"/>
      <use xlink:href="#DejaVuSans-73" transform="translate(1098.291016 0)"/>
      <use xlink:href="#DejaVuSans-29" transform="translate(1150.390625 0)"/>
     </g>
    </g>
    <g id="patch_8">
     <path d="M 80.84 72.834688 
L 100.84 72.834688 
L 100.84 65.834688 
L 80.84 65.834688 
z
" style="fill: #808080; fill-opacity: 0.2; stroke: #808080; stroke-opacity: 0.2; stroke-linejoin: miter"/>
    </g>
    <g id="text_17">
     <!-- ±2 Std Dev -->
     <g transform="translate(108.84 72.834688) scale(0.1 -0.1)">
      <defs>
       <path id="DejaVuSans-b1" d="M 2944 4013 
L 2944 2803 
L 4684 2803 
L 4684 2272 
L 2944 2272 
L 2944 1063 
L 2419 1063 
L 2419 2272 
L 678 2272 
L 678 2803 
L 2419 2803 
L 2419 4013 
L 2944 4013 
z
M 678 531 
L 4684 531 
L 4684 0 
L 678 0 
L 678 531 
z
" transform="scale(0.015625)"/>
       <path id="DejaVuSans-53" d="M 3425 4513 
L 3425 3897 
Q 3066 4069 2747 4153 
Q 2428 4238 2131 4238 
Q 1616 4238 1336 4038 
Q 1056 3838 1056 3469 
Q 1056 3159 1242 3001 
Q 1428 2844 1947 2747 
L 2328 2669 
Q 3034 2534 3370 2195 
Q 3706 1856 3706 1288 
Q 3706 609 3251 259 
Q 2797 -91 1919 -91 
Q 1588 -91 1214 -16 
Q 841 59 441 206 
L 441 856 
Q 825 641 1194 531 
Q 1563 422 1919 422 
Q 2459 422 2753 634 
Q 3047 847 3047 1241 
Q 3047 1584 2836 1778 
Q 2625 1972 2144 2069 
L 1759 2144 
Q 1053 2284 737 2584 
Q 422 2884 422 3419 
Q 422 4038 858 4394 
Q 1294 4750 2059 4750 
Q 2388 4750 2728 4690 
Q 3069 4631 3425 4513 
z
" transform="scale(0.015625)"/>
       <path id="DejaVuSans-44" d="M 1259 4147 
L 1259 519 
L 2022 519 
Q 2988 519 3436 956 
Q 3884 1394 3884 2338 
Q 3884 3275 3436 3711 
Q 2988 4147 2022 4147 
L 1259 4147 
z
M 628 4666 
L 1925 4666 
Q 3281 4666 3915 4102 
Q 4550 3538 4550 2338 
Q 4550 1131 3912 565 
Q 3275 0 1925 0 
L 628 0 
L 628 4666 
z
" transform="scale(0.015625)"/>
      </defs>
      <use xlink:href="#DejaVuSans-b1"/>
      <use xlink:href="#DejaVuSans-32" transform="translate(83.789062 0)"/>
      <use xlink:href="#DejaVuSans-20" transform="translate(147.412109 0)"/>
      <use xlink:href="#DejaVuSans-53" transform="translate(179.199219 0)"/>
      <use xlink:href="#DejaVuSans-74" transform="translate(242.675781 0)"/>
      <use xlink:href="#DejaVuSans-64" transform="translate(281.884766 0)"/>
      <use xlink:href="#DejaVuSans-20" transform="translate(345.361328 0)"/>
      <use xlink:href="#DejaVuSans-44" transform="translate(377.148438 0)"/>
      <use xlink:href="#DejaVuSans-65" transform="translate(454.150391 0)"/>
      <use xlink:href="#DejaVuSans-76" transform="translate(515.673828 0)"/>
     </g>
    </g>
   </g>
  </g>
 </g>
 <defs>
  <clipPath id="p9ea8baa3af">
   <rect x="71.84" y="26.88" width="637.36" height="219.16"/>
  </clipPath>
 </defs>
</svg>
