<?xml version="1.0" encoding="utf-8" standalone="no"?>
<!DOCTYPE svg PUBLIC "-//W3C//DTD SVG 1.1//EN"
  "http://www.w3.org/Graphics/SVG/1.1/DTD/svg11.dtd">
<svg xmlns:xlink="http://www.w3.org/1999/xlink" width="720pt" height="288pt" viewBox="0 0 720 288" xmlns="http://www.w3.org/2000/svg" version="1.1">
 <metadata>
  <rdf:RDF xmlns:dc="http://purl.org/dc/elements/1.1/" xmlns:cc="http://creativecommons.org/ns#" xmlns:rdf="http://www.w3.org/1999/02/22-rdf-syntax-ns#">
   <cc:Work>
    <dc:type rdf:resource="http://purl.org/dc/dcmitype/StillImage"/>
    <dc:date>2025-06-03T23:15:30.598805</dc:date>
    <dc:format>image/svg+xml</dc:format>
    <dc:creator>
     <cc:Agent>
      <dc:title>Matplotlib v3.10.3, https://matplotlib.org/</dc:title>
     </cc:Agent>
    </dc:creator>
   </cc:Work>
  </rdf:RDF>
 </metadata>
 <defs>
  <style type="text/css">*{stroke-linejoin: round; stroke-linecap: butt}</style>
 </defs>
 <g id="figure_1">
  <g id="patch_1">
   <path d="M 0 288 
L 720 288 
L 720 0 
L 0 0 
z
" style="fill: #ffffff"/>
  </g>
  <g id="axes_1">
   <g id="patch_2">
    <path d="M 44.57 246.04 
L 690.458918 246.04 
L 690.458918 26.88 
L 44.57 26.88 
z
" style="fill: #ffffff"/>
   </g>
   <g id="FillBetweenPolyCollection_1">
    <defs>
     <path id="m78b465ecf4" d="M 73.928587 -217.059592 
L 73.928587 -88.949824 
L 77.530868 -103.619716 
L 81.133148 -114.171632 
L 84.735429 -108.645396 
L 88.33771 -111.011409 
L 91.93999 -100.11673 
L 95.542271 -100.156166 
L 99.144552 -96.09024 
L 102.746832 -90.752139 
L 106.349113 -107.793862 
L 109.951394 -106.54404 
L 113.553674 -100.431135 
L 117.155955 -106.786641 
L 120.758235 -93.365932 
L 124.360516 -86.881872 
L 127.962797 -89.562235 
L 131.565077 -95.915693 
L 135.167358 -89.103146 
L 138.769639 -84.153662 
L 142.371919 -91.42909 
L 145.9742 -93.948973 
L 149.576481 -98.824855 
L 153.178761 -104.920381 
L 156.781042 -99.925492 
L 160.383322 -98.768121 
L 163.985603 -97.954286 
L 167.587884 -94.770898 
L 171.190164 -99.624351 
L 174.792445 -103.522138 
L 178.394726 -105.032963 
L 181.997006 -94.595576 
L 185.599287 -89.834661 
L 189.201568 -89.383258 
L 192.803848 -87.861385 
L 196.406129 -97.682504 
L 200.008409 -81.487354 
L 203.61069 -92.578444 
L 207.212971 -79.501086 
L 210.815251 -84.323196 
L 214.417532 -78.930898 
L 218.019813 -68.721562 
L 221.622093 -73.701924 
L 225.224374 -64.584023 
L 228.826655 -58.232427 
L 232.428935 -66.919461 
L 236.031216 -71.188597 
L 239.633496 -67.66649 
L 243.235777 -82.831432 
L 246.838058 -87.468192 
L 250.440338 -92.515118 
L 254.042619 -100.671465 
L 257.6449 -101.318873 
L 261.24718 -91.660258 
L 264.849461 -115.375239 
L 268.451742 -97.737137 
L 272.054022 -102.043931 
L 275.656303 -109.410752 
L 279.258583 -106.372038 
L 282.860864 -106.393468 
L 286.463145 -108.661091 
L 290.065425 -110.730064 
L 293.667706 -118.137076 
L 297.269987 -115.396485 
L 300.872267 -99.926615 
L 304.474548 -106.698108 
L 308.076829 -102.474252 
L 311.679109 -95.862288 
L 315.28139 -101.110977 
L 318.88367 -103.210232 
L 322.485951 -109.222993 
L 326.088232 -103.78094 
L 329.690512 -97.677489 
L 333.292793 -95.430636 
L 336.895074 -88.887866 
L 340.497354 -96.045748 
L 344.099635 -97.573739 
L 347.701916 -91.522516 
L 351.304196 -88.424433 
L 354.906477 -102.558944 
L 358.508757 -84.027576 
L 362.111038 -104.860204 
L 365.713319 -87.616032 
L 369.315599 -94.383781 
L 372.91788 -96.267422 
L 376.520161 -77.970722 
L 380.122441 -74.298916 
L 383.724722 -84.67742 
L 387.327003 -68.579663 
L 390.929283 -76.567827 
L 394.531564 -81.206808 
L 398.133844 -96.708473 
L 401.736125 -90.187978 
L 405.338406 -80.090796 
L 408.940686 -83.386296 
L 412.542967 -91.210089 
L 416.145248 -97.776863 
L 419.747528 -106.842645 
L 423.349809 -106.112949 
L 426.952089 -106.239209 
L 430.55437 -117.572076 
L 434.156651 -115.330125 
L 437.758931 -113.10662 
L 441.361212 -116.278384 
L 444.963493 -116.123508 
L 448.565773 -120.317349 
L 452.168054 -120.545091 
L 455.770335 -118.297266 
L 459.372615 -118.749142 
L 462.974896 -120.391057 
L 466.577176 -108.882021 
L 470.179457 -113.748959 
L 473.781738 -105.587394 
L 477.384018 -113.956098 
L 480.986299 -108.852976 
L 484.58858 -112.29044 
L 488.19086 -105.752432 
L 491.793141 -109.095966 
L 495.395422 -104.188695 
L 498.997702 -112.688958 
L 502.599983 -102.896238 
L 506.202263 -102.834631 
L 509.804544 -102.325512 
L 513.406825 -92.306934 
L 517.009105 -88.97407 
L 520.611386 -102.317793 
L 524.213667 -92.664231 
L 527.815947 -84.103171 
L 531.418228 -82.888961 
L 535.020509 -78.497117 
L 538.622789 -63.140928 
L 542.22507 -72.642097 
L 545.82735 -84.147101 
L 549.429631 -66.6943 
L 553.031912 -74.36948 
L 556.634192 -91.932992 
L 560.236473 -51.921818 
L 563.838754 -66.462823 
L 567.441034 -84.279183 
L 571.043315 -67.083542 
L 574.645596 -63.743026 
L 578.247876 -92.595757 
L 581.850157 -81.807867 
L 585.452437 -63.184161 
L 589.054718 -61.697592 
L 592.656999 -79.498435 
L 596.259279 -73.810625 
L 599.86156 -95.078385 
L 603.463841 -73.240385 
L 607.066121 -73.144804 
L 610.668402 -95.562406 
L 614.270683 -87.719406 
L 617.872963 -133.408974 
L 621.475244 -135.088959 
L 625.077524 -112.546768 
L 628.679805 -127.628334 
L 632.282086 -130.583654 
L 635.884366 -125.060329 
L 635.884366 -188.778052 
L 635.884366 -188.778052 
L 632.282086 -183.579645 
L 628.679805 -176.029297 
L 625.077524 -192.193922 
L 621.475244 -170.626484 
L 617.872963 -173.281221 
L 614.270683 -210.306321 
L 610.668402 -191.416124 
L 607.066121 -217.191207 
L 603.463841 -210.272357 
L 599.86156 -197.315438 
L 596.259279 -203.810279 
L 592.656999 -207.220161 
L 589.054718 -214.883576 
L 585.452437 -214.956611 
L 581.850157 -195.206525 
L 578.247876 -194.469418 
L 574.645596 -202.787359 
L 571.043315 -209.410982 
L 567.441034 -214.576888 
L 563.838754 -226.653039 
L 560.236473 -251.158182 
L 556.634192 -226.273725 
L 553.031912 -238.060925 
L 549.429631 -242.847949 
L 545.82735 -225.080545 
L 542.22507 -229.251696 
L 538.622789 -230.696973 
L 535.020509 -229.307081 
L 531.418228 -226.771909 
L 527.815947 -228.621207 
L 524.213667 -200.451631 
L 520.611386 -203.227455 
L 517.009105 -215.580953 
L 513.406825 -206.729648 
L 509.804544 -202.724623 
L 506.202263 -196.459822 
L 502.599983 -193.458485 
L 498.997702 -187.843276 
L 495.395422 -179.447826 
L 491.793141 -185.680585 
L 488.19086 -180.978542 
L 484.58858 -187.746681 
L 480.986299 -187.151041 
L 477.384018 -184.564742 
L 473.781738 -189.405769 
L 470.179457 -178.737697 
L 466.577176 -182.738188 
L 462.974896 -171.538598 
L 459.372615 -176.058354 
L 455.770335 -182.296857 
L 452.168054 -168.888372 
L 448.565773 -187.177404 
L 444.963493 -177.606086 
L 441.361212 -183.758737 
L 437.758931 -179.503814 
L 434.156651 -184.284087 
L 430.55437 -179.948224 
L 426.952089 -191.786518 
L 423.349809 -196.152178 
L 419.747528 -195.484371 
L 416.145248 -200.217919 
L 412.542967 -198.305893 
L 408.940686 -215.908156 
L 405.338406 -220.131992 
L 401.736125 -213.500598 
L 398.133844 -209.827 
L 394.531564 -217.035531 
L 390.929283 -226.904137 
L 387.327003 -235.814448 
L 383.724722 -221.115383 
L 380.122441 -228.961594 
L 376.520161 -224.134526 
L 372.91788 -223.636087 
L 369.315599 -225.210283 
L 365.713319 -222.467747 
L 362.111038 -217.116589 
L 358.508757 -222.26034 
L 354.906477 -200.63452 
L 351.304196 -204.773948 
L 347.701916 -200.654695 
L 344.099635 -198.997595 
L 340.497354 -197.431133 
L 336.895074 -197.874052 
L 333.292793 -186.225435 
L 329.690512 -175.437892 
L 326.088232 -193.099839 
L 322.485951 -187.255508 
L 318.88367 -191.721042 
L 315.28139 -189.797508 
L 311.679109 -189.352404 
L 308.076829 -187.908176 
L 304.474548 -180.899312 
L 300.872267 -196.644719 
L 297.269987 -186.156919 
L 293.667706 -176.206252 
L 290.065425 -174.113293 
L 286.463145 -177.853271 
L 282.860864 -171.054147 
L 279.258583 -182.648831 
L 275.656303 -182.36418 
L 272.054022 -183.294539 
L 268.451742 -179.782682 
L 264.849461 -182.990878 
L 261.24718 -190.24337 
L 257.6449 -190.982116 
L 254.042619 -193.795641 
L 250.440338 -199.228869 
L 246.838058 -197.096665 
L 243.235777 -197.401191 
L 239.633496 -206.005892 
L 236.031216 -204.278568 
L 232.428935 -213.127494 
L 228.826655 -219.957856 
L 225.224374 -214.348929 
L 221.622093 -216.928061 
L 218.019813 -227.416549 
L 214.417532 -221.879837 
L 210.815251 -224.873506 
L 207.212971 -224.404101 
L 203.61069 -219.341377 
L 200.008409 -222.170277 
L 196.406129 -217.734048 
L 192.803848 -228.514447 
L 189.201568 -220.277612 
L 185.599287 -215.122641 
L 181.997006 -221.965924 
L 178.394726 -208.805419 
L 174.792445 -208.119182 
L 171.190164 -200.242575 
L 167.587884 -210.836238 
L 163.985603 -206.167513 
L 160.383322 -206.343903 
L 156.781042 -205.712589 
L 153.178761 -202.543428 
L 149.576481 -202.635715 
L 145.9742 -206.211926 
L 142.371919 -208.700865 
L 138.769639 -205.795542 
L 135.167358 -195.709267 
L 131.565077 -196.787575 
L 127.962797 -203.790868 
L 124.360516 -202.943555 
L 120.758235 -197.078385 
L 117.155955 -187.37102 
L 113.553674 -183.514831 
L 109.951394 -189.903516 
L 106.349113 -187.972914 
L 102.746832 -206.19053 
L 99.144552 -202.770989 
L 95.542271 -195.99226 
L 91.93999 -208.003102 
L 88.33771 -201.4912 
L 84.735429 -201.149567 
L 81.133148 -194.323661 
L 77.530868 -210.156776 
L 73.928587 -217.059592 
z
" style="stroke: #808080; stroke-opacity: 0.2"/>
    </defs>
    <g clip-path="url(#pd3acbd289e)">
     <use xlink:href="#m78b465ecf4" x="0" y="288" style="fill: #808080; fill-opacity: 0.2; stroke: #808080; stroke-opacity: 0.2"/>
    </g>
   </g>
   <g id="matplotlib.axis_1">
    <g id="xtick_1">
     <g id="line2d_1">
      <defs>
       <path id="me957167106" d="M 0 0 
L 0 3.5 
" style="stroke: #000000; stroke-width: 0.8"/>
      </defs>
      <g>
       <use xlink:href="#me957167106" x="81.133148" y="246.04" style="stroke: #000000; stroke-width: 0.8"/>
      </g>
     </g>
     <g id="text_1">
      <!-- 06-01 00 -->
      <g transform="translate(58.65268 260.638438) scale(0.1 -0.1)">
       <defs>
        <path id="DejaVuSans-30" d="M 2034 4250 
Q 1547 4250 1301 3770 
Q 1056 3291 1056 2328 
Q 1056 1369 1301 889 
Q 1547 409 2034 409 
Q 2525 409 2770 889 
Q 3016 1369 3016 2328 
Q 3016 3291 2770 3770 
Q 2525 4250 2034 4250 
z
M 2034 4750 
Q 2819 4750 3233 4129 
Q 3647 3509 3647 2328 
Q 3647 1150 3233 529 
Q 2819 -91 2034 -91 
Q 1250 -91 836 529 
Q 422 1150 422 2328 
Q 422 3509 836 4129 
Q 1250 4750 2034 4750 
z
" transform="scale(0.015625)"/>
        <path id="DejaVuSans-36" d="M 2113 2584 
Q 1688 2584 1439 2293 
Q 1191 2003 1191 1497 
Q 1191 994 1439 701 
Q 1688 409 2113 409 
Q 2538 409 2786 701 
Q 3034 994 3034 1497 
Q 3034 2003 2786 2293 
Q 2538 2584 2113 2584 
z
M 3366 4563 
L 3366 3988 
Q 3128 4100 2886 4159 
Q 2644 4219 2406 4219 
Q 1781 4219 1451 3797 
Q 1122 3375 1075 2522 
Q 1259 2794 1537 2939 
Q 1816 3084 2150 3084 
Q 2853 3084 3261 2657 
Q 3669 2231 3669 1497 
Q 3669 778 3244 343 
Q 2819 -91 2113 -91 
Q 1303 -91 875 529 
Q 447 1150 447 2328 
Q 447 3434 972 4092 
Q 1497 4750 2381 4750 
Q 2619 4750 2861 4703 
Q 3103 4656 3366 4563 
z
" transform="scale(0.015625)"/>
        <path id="DejaVuSans-2d" d="M 313 2009 
L 1997 2009 
L 1997 1497 
L 313 1497 
L 313 2009 
z
" transform="scale(0.015625)"/>
        <path id="DejaVuSans-31" d="M 794 531 
L 1825 531 
L 1825 4091 
L 703 3866 
L 703 4441 
L 1819 4666 
L 2450 4666 
L 2450 531 
L 3481 531 
L 3481 0 
L 794 0 
L 794 531 
z
" transform="scale(0.015625)"/>
        <path id="DejaVuSans-20" transform="scale(0.015625)"/>
       </defs>
       <use xlink:href="#DejaVuSans-30"/>
       <use xlink:href="#DejaVuSans-36" transform="translate(63.623047 0)"/>
       <use xlink:href="#DejaVuSans-2d" transform="translate(127.246094 0)"/>
       <use xlink:href="#DejaVuSans-30" transform="translate(163.330078 0)"/>
       <use xlink:href="#DejaVuSans-31" transform="translate(226.953125 0)"/>
       <use xlink:href="#DejaVuSans-20" transform="translate(290.576172 0)"/>
       <use xlink:href="#DejaVuSans-30" transform="translate(322.363281 0)"/>
       <use xlink:href="#DejaVuSans-30" transform="translate(385.986328 0)"/>
      </g>
     </g>
    </g>
    <g id="xtick_2">
     <g id="line2d_2">
      <g>
       <use xlink:href="#me957167106" x="167.587884" y="246.04" style="stroke: #000000; stroke-width: 0.8"/>
      </g>
     </g>
     <g id="text_2">
      <!-- 06-01 12 -->
      <g transform="translate(145.107415 260.638438) scale(0.1 -0.1)">
       <defs>
        <path id="DejaVuSans-32" d="M 1228 531 
L 3431 531 
L 3431 0 
L 469 0 
L 469 531 
Q 828 903 1448 1529 
Q 2069 2156 2228 2338 
Q 2531 2678 2651 2914 
Q 2772 3150 2772 3378 
Q 2772 3750 2511 3984 
Q 2250 4219 1831 4219 
Q 1534 4219 1204 4116 
Q 875 4013 500 3803 
L 500 4441 
Q 881 4594 1212 4672 
Q 1544 4750 1819 4750 
Q 2544 4750 2975 4387 
Q 3406 4025 3406 3419 
Q 3406 3131 3298 2873 
Q 3191 2616 2906 2266 
Q 2828 2175 2409 1742 
Q 1991 1309 1228 531 
z
" transform="scale(0.015625)"/>
       </defs>
       <use xlink:href="#DejaVuSans-30"/>
       <use xlink:href="#DejaVuSans-36" transform="translate(63.623047 0)"/>
       <use xlink:href="#DejaVuSans-2d" transform="translate(127.246094 0)"/>
       <use xlink:href="#DejaVuSans-30" transform="translate(163.330078 0)"/>
       <use xlink:href="#DejaVuSans-31" transform="translate(226.953125 0)"/>
       <use xlink:href="#DejaVuSans-20" transform="translate(290.576172 0)"/>
       <use xlink:href="#DejaVuSans-31" transform="translate(322.363281 0)"/>
       <use xlink:href="#DejaVuSans-32" transform="translate(385.986328 0)"/>
      </g>
     </g>
    </g>
    <g id="xtick_3">
     <g id="line2d_3">
      <g>
       <use xlink:href="#me957167106" x="254.042619" y="246.04" style="stroke: #000000; stroke-width: 0.8"/>
      </g>
     </g>
     <g id="text_3">
      <!-- 06-02 00 -->
      <g transform="translate(231.56215 260.638438) scale(0.1 -0.1)">
       <use xlink:href="#DejaVuSans-30"/>
       <use xlink:href="#DejaVuSans-36" transform="translate(63.623047 0)"/>
       <use xlink:href="#DejaVuSans-2d" transform="translate(127.246094 0)"/>
       <use xlink:href="#DejaVuSans-30" transform="translate(163.330078 0)"/>
       <use xlink:href="#DejaVuSans-32" transform="translate(226.953125 0)"/>
       <use xlink:href="#DejaVuSans-20" transform="translate(290.576172 0)"/>
       <use xlink:href="#DejaVuSans-30" transform="translate(322.363281 0)"/>
       <use xlink:href="#DejaVuSans-30" transform="translate(385.986328 0)"/>
      </g>
     </g>
    </g>
    <g id="xtick_4">
     <g id="line2d_4">
      <g>
       <use xlink:href="#me957167106" x="340.497354" y="246.04" style="stroke: #000000; stroke-width: 0.8"/>
      </g>
     </g>
     <g id="text_4">
      <!-- 06-02 12 -->
      <g transform="translate(318.016885 260.638438) scale(0.1 -0.1)">
       <use xlink:href="#DejaVuSans-30"/>
       <use xlink:href="#DejaVuSans-36" transform="translate(63.623047 0)"/>
       <use xlink:href="#DejaVuSans-2d" transform="translate(127.246094 0)"/>
       <use xlink:href="#DejaVuSans-30" transform="translate(163.330078 0)"/>
       <use xlink:href="#DejaVuSans-32" transform="translate(226.953125 0)"/>
       <use xlink:href="#DejaVuSans-20" transform="translate(290.576172 0)"/>
       <use xlink:href="#DejaVuSans-31" transform="translate(322.363281 0)"/>
       <use xlink:href="#DejaVuSans-32" transform="translate(385.986328 0)"/>
      </g>
     </g>
    </g>
    <g id="xtick_5">
     <g id="line2d_5">
      <g>
       <use xlink:href="#me957167106" x="426.952089" y="246.04" style="stroke: #000000; stroke-width: 0.8"/>
      </g>
     </g>
     <g id="text_5">
      <!-- 06-03 00 -->
      <g transform="translate(404.471621 260.638438) scale(0.1 -0.1)">
       <defs>
        <path id="DejaVuSans-33" d="M 2597 2516 
Q 3050 2419 3304 2112 
Q 3559 1806 3559 1356 
Q 3559 666 3084 287 
Q 2609 -91 1734 -91 
Q 1441 -91 1130 -33 
Q 819 25 488 141 
L 488 750 
Q 750 597 1062 519 
Q 1375 441 1716 441 
Q 2309 441 2620 675 
Q 2931 909 2931 1356 
Q 2931 1769 2642 2001 
Q 2353 2234 1838 2234 
L 1294 2234 
L 1294 2753 
L 1863 2753 
Q 2328 2753 2575 2939 
Q 2822 3125 2822 3475 
Q 2822 3834 2567 4026 
Q 2313 4219 1838 4219 
Q 1578 4219 1281 4162 
Q 984 4106 628 3988 
L 628 4550 
Q 988 4650 1302 4700 
Q 1616 4750 1894 4750 
Q 2613 4750 3031 4423 
Q 3450 4097 3450 3541 
Q 3450 3153 3228 2886 
Q 3006 2619 2597 2516 
z
" transform="scale(0.015625)"/>
       </defs>
       <use xlink:href="#DejaVuSans-30"/>
       <use xlink:href="#DejaVuSans-36" transform="translate(63.623047 0)"/>
       <use xlink:href="#DejaVuSans-2d" transform="translate(127.246094 0)"/>
       <use xlink:href="#DejaVuSans-30" transform="translate(163.330078 0)"/>
       <use xlink:href="#DejaVuSans-33" transform="translate(226.953125 0)"/>
       <use xlink:href="#DejaVuSans-20" transform="translate(290.576172 0)"/>
       <use xlink:href="#DejaVuSans-30" transform="translate(322.363281 0)"/>
       <use xlink:href="#DejaVuSans-30" transform="translate(385.986328 0)"/>
      </g>
     </g>
    </g>
    <g id="xtick_6">
     <g id="line2d_6">
      <g>
       <use xlink:href="#me957167106" x="513.406825" y="246.04" style="stroke: #000000; stroke-width: 0.8"/>
      </g>
     </g>
     <g id="text_6">
      <!-- 06-03 12 -->
      <g transform="translate(490.926356 260.638438) scale(0.1 -0.1)">
       <use xlink:href="#DejaVuSans-30"/>
       <use xlink:href="#DejaVuSans-36" transform="translate(63.623047 0)"/>
       <use xlink:href="#DejaVuSans-2d" transform="translate(127.246094 0)"/>
       <use xlink:href="#DejaVuSans-30" transform="translate(163.330078 0)"/>
       <use xlink:href="#DejaVuSans-33" transform="translate(226.953125 0)"/>
       <use xlink:href="#DejaVuSans-20" transform="translate(290.576172 0)"/>
       <use xlink:href="#DejaVuSans-31" transform="translate(322.363281 0)"/>
       <use xlink:href="#DejaVuSans-32" transform="translate(385.986328 0)"/>
      </g>
     </g>
    </g>
    <g id="xtick_7">
     <g id="line2d_7">
      <g>
       <use xlink:href="#me957167106" x="599.86156" y="246.04" style="stroke: #000000; stroke-width: 0.8"/>
      </g>
     </g>
     <g id="text_7">
      <!-- 06-04 00 -->
      <g transform="translate(577.381091 260.638438) scale(0.1 -0.1)">
       <defs>
        <path id="DejaVuSans-34" d="M 2419 4116 
L 825 1625 
L 2419 1625 
L 2419 4116 
z
M 2253 4666 
L 3047 4666 
L 3047 1625 
L 3713 1625 
L 3713 1100 
L 3047 1100 
L 3047 0 
L 2419 0 
L 2419 1100 
L 313 1100 
L 313 1709 
L 2253 4666 
z
" transform="scale(0.015625)"/>
       </defs>
       <use xlink:href="#DejaVuSans-30"/>
       <use xlink:href="#DejaVuSans-36" transform="translate(63.623047 0)"/>
       <use xlink:href="#DejaVuSans-2d" transform="translate(127.246094 0)"/>
       <use xlink:href="#DejaVuSans-30" transform="translate(163.330078 0)"/>
       <use xlink:href="#DejaVuSans-34" transform="translate(226.953125 0)"/>
       <use xlink:href="#DejaVuSans-20" transform="translate(290.576172 0)"/>
       <use xlink:href="#DejaVuSans-30" transform="translate(322.363281 0)"/>
       <use xlink:href="#DejaVuSans-30" transform="translate(385.986328 0)"/>
      </g>
     </g>
    </g>
    <g id="xtick_8">
     <g id="line2d_8">
      <g>
       <use xlink:href="#me957167106" x="686.316295" y="246.04" style="stroke: #000000; stroke-width: 0.8"/>
      </g>
     </g>
     <g id="text_8">
      <!-- 06-04 12 -->
      <g transform="translate(663.835827 260.638438) scale(0.1 -0.1)">
       <use xlink:href="#DejaVuSans-30"/>
       <use xlink:href="#DejaVuSans-36" transform="translate(63.623047 0)"/>
       <use xlink:href="#DejaVuSans-2d" transform="translate(127.246094 0)"/>
       <use xlink:href="#DejaVuSans-30" transform="translate(163.330078 0)"/>
       <use xlink:href="#DejaVuSans-34" transform="translate(226.953125 0)"/>
       <use xlink:href="#DejaVuSans-20" transform="translate(290.576172 0)"/>
       <use xlink:href="#DejaVuSans-31" transform="translate(322.363281 0)"/>
       <use xlink:href="#DejaVuSans-32" transform="translate(385.986328 0)"/>
      </g>
     </g>
    </g>
    <g id="text_9">
     <!-- Tijd -->
     <g transform="translate(358.664459 274.316562) scale(0.1 -0.1)">
      <defs>
       <path id="DejaVuSans-54" d="M -19 4666 
L 3928 4666 
L 3928 4134 
L 2272 4134 
L 2272 0 
L 1638 0 
L 1638 4134 
L -19 4134 
L -19 4666 
z
" transform="scale(0.015625)"/>
       <path id="DejaVuSans-69" d="M 603 3500 
L 1178 3500 
L 1178 0 
L 603 0 
L 603 3500 
z
M 603 4863 
L 1178 4863 
L 1178 4134 
L 603 4134 
L 603 4863 
z
" transform="scale(0.015625)"/>
       <path id="DejaVuSans-6a" d="M 603 3500 
L 1178 3500 
L 1178 -63 
Q 1178 -731 923 -1031 
Q 669 -1331 103 -1331 
L -116 -1331 
L -116 -844 
L 38 -844 
Q 366 -844 484 -692 
Q 603 -541 603 -63 
L 603 3500 
z
M 603 4863 
L 1178 4863 
L 1178 4134 
L 603 4134 
L 603 4863 
z
" transform="scale(0.015625)"/>
       <path id="DejaVuSans-64" d="M 2906 2969 
L 2906 4863 
L 3481 4863 
L 3481 0 
L 2906 0 
L 2906 525 
Q 2725 213 2448 61 
Q 2172 -91 1784 -91 
Q 1150 -91 751 415 
Q 353 922 353 1747 
Q 353 2572 751 3078 
Q 1150 3584 1784 3584 
Q 2172 3584 2448 3432 
Q 2725 3281 2906 2969 
z
M 947 1747 
Q 947 1113 1208 752 
Q 1469 391 1925 391 
Q 2381 391 2643 752 
Q 2906 1113 2906 1747 
Q 2906 2381 2643 2742 
Q 2381 3103 1925 3103 
Q 1469 3103 1208 2742 
Q 947 2381 947 1747 
z
" transform="scale(0.015625)"/>
      </defs>
      <use xlink:href="#DejaVuSans-54"/>
      <use xlink:href="#DejaVuSans-69" transform="translate(57.958984 0)"/>
      <use xlink:href="#DejaVuSans-6a" transform="translate(85.742188 0)"/>
      <use xlink:href="#DejaVuSans-64" transform="translate(113.525391 0)"/>
     </g>
    </g>
   </g>
   <g id="matplotlib.axis_2">
    <g id="ytick_1">
     <g id="line2d_9">
      <defs>
       <path id="med5d6d28b5" d="M 0 0 
L -3.5 0 
" style="stroke: #000000; stroke-width: 0.8"/>
      </defs>
      <g>
       <use xlink:href="#med5d6d28b5" x="44.57" y="222.490949" style="stroke: #000000; stroke-width: 0.8"/>
      </g>
     </g>
     <g id="text_10">
      <!-- 40 -->
      <g transform="translate(24.845 226.290167) scale(0.1 -0.1)">
       <use xlink:href="#DejaVuSans-34"/>
       <use xlink:href="#DejaVuSans-30" transform="translate(63.623047 0)"/>
      </g>
     </g>
    </g>
    <g id="ytick_2">
     <g id="line2d_10">
      <g>
       <use xlink:href="#med5d6d28b5" x="44.57" y="189.999193" style="stroke: #000000; stroke-width: 0.8"/>
      </g>
     </g>
     <g id="text_11">
      <!-- 45 -->
      <g transform="translate(24.845 193.798412) scale(0.1 -0.1)">
       <defs>
        <path id="DejaVuSans-35" d="M 691 4666 
L 3169 4666 
L 3169 4134 
L 1269 4134 
L 1269 2991 
Q 1406 3038 1543 3061 
Q 1681 3084 1819 3084 
Q 2600 3084 3056 2656 
Q 3513 2228 3513 1497 
Q 3513 744 3044 326 
Q 2575 -91 1722 -91 
Q 1428 -91 1123 -41 
Q 819 9 494 109 
L 494 744 
Q 775 591 1075 516 
Q 1375 441 1709 441 
Q 2250 441 2565 725 
Q 2881 1009 2881 1497 
Q 2881 1984 2565 2268 
Q 2250 2553 1709 2553 
Q 1456 2553 1204 2497 
Q 953 2441 691 2322 
L 691 4666 
z
" transform="scale(0.015625)"/>
       </defs>
       <use xlink:href="#DejaVuSans-34"/>
       <use xlink:href="#DejaVuSans-35" transform="translate(63.623047 0)"/>
      </g>
     </g>
    </g>
    <g id="ytick_3">
     <g id="line2d_11">
      <g>
       <use xlink:href="#med5d6d28b5" x="44.57" y="157.507437" style="stroke: #000000; stroke-width: 0.8"/>
      </g>
     </g>
     <g id="text_12">
      <!-- 50 -->
      <g transform="translate(24.845 161.306656) scale(0.1 -0.1)">
       <use xlink:href="#DejaVuSans-35"/>
       <use xlink:href="#DejaVuSans-30" transform="translate(63.623047 0)"/>
      </g>
     </g>
    </g>
    <g id="ytick_4">
     <g id="line2d_12">
      <g>
       <use xlink:href="#med5d6d28b5" x="44.57" y="125.015682" style="stroke: #000000; stroke-width: 0.8"/>
      </g>
     </g>
     <g id="text_13">
      <!-- 55 -->
      <g transform="translate(24.845 128.8149) scale(0.1 -0.1)">
       <use xlink:href="#DejaVuSans-35"/>
       <use xlink:href="#DejaVuSans-35" transform="translate(63.623047 0)"/>
      </g>
     </g>
    </g>
    <g id="ytick_5">
     <g id="line2d_13">
      <g>
       <use xlink:href="#med5d6d28b5" x="44.57" y="92.523926" style="stroke: #000000; stroke-width: 0.8"/>
      </g>
     </g>
     <g id="text_14">
      <!-- 60 -->
      <g transform="translate(24.845 96.323145) scale(0.1 -0.1)">
       <use xlink:href="#DejaVuSans-36"/>
       <use xlink:href="#DejaVuSans-30" transform="translate(63.623047 0)"/>
      </g>
     </g>
    </g>
    <g id="ytick_6">
     <g id="line2d_14">
      <g>
       <use xlink:href="#med5d6d28b5" x="44.57" y="60.03217" style="stroke: #000000; stroke-width: 0.8"/>
      </g>
     </g>
     <g id="text_15">
      <!-- 65 -->
      <g transform="translate(24.845 63.831389) scale(0.1 -0.1)">
       <use xlink:href="#DejaVuSans-36"/>
       <use xlink:href="#DejaVuSans-35" transform="translate(63.623047 0)"/>
      </g>
     </g>
    </g>
    <g id="ytick_7">
     <g id="line2d_15">
      <g>
       <use xlink:href="#med5d6d28b5" x="44.57" y="27.540415" style="stroke: #000000; stroke-width: 0.8"/>
      </g>
     </g>
     <g id="text_16">
      <!-- 70 -->
      <g transform="translate(24.845 31.339633) scale(0.1 -0.1)">
       <defs>
        <path id="DejaVuSans-37" d="M 525 4666 
L 3525 4666 
L 3525 4397 
L 1831 0 
L 1172 0 
L 2766 4134 
L 525 4134 
L 525 4666 
z
" transform="scale(0.015625)"/>
       </defs>
       <use xlink:href="#DejaVuSans-37"/>
       <use xlink:href="#DejaVuSans-30" transform="translate(63.623047 0)"/>
      </g>
     </g>
    </g>
    <g id="text_17">
     <!-- (Rel.) Vochtigheid (%) -->
     <g transform="translate(18.765312 190.838125) rotate(-90) scale(0.1 -0.1)">
      <defs>
       <path id="DejaVuSans-28" d="M 1984 4856 
Q 1566 4138 1362 3434 
Q 1159 2731 1159 2009 
Q 1159 1288 1364 580 
Q 1569 -128 1984 -844 
L 1484 -844 
Q 1016 -109 783 600 
Q 550 1309 550 2009 
Q 550 2706 781 3412 
Q 1013 4119 1484 4856 
L 1984 4856 
z
" transform="scale(0.015625)"/>
       <path id="DejaVuSans-52" d="M 2841 2188 
Q 3044 2119 3236 1894 
Q 3428 1669 3622 1275 
L 4263 0 
L 3584 0 
L 2988 1197 
Q 2756 1666 2539 1819 
Q 2322 1972 1947 1972 
L 1259 1972 
L 1259 0 
L 628 0 
L 628 4666 
L 2053 4666 
Q 2853 4666 3247 4331 
Q 3641 3997 3641 3322 
Q 3641 2881 3436 2590 
Q 3231 2300 2841 2188 
z
M 1259 4147 
L 1259 2491 
L 2053 2491 
Q 2509 2491 2742 2702 
Q 2975 2913 2975 3322 
Q 2975 3731 2742 3939 
Q 2509 4147 2053 4147 
L 1259 4147 
z
" transform="scale(0.015625)"/>
       <path id="DejaVuSans-65" d="M 3597 1894 
L 3597 1613 
L 953 1613 
Q 991 1019 1311 708 
Q 1631 397 2203 397 
Q 2534 397 2845 478 
Q 3156 559 3463 722 
L 3463 178 
Q 3153 47 2828 -22 
Q 2503 -91 2169 -91 
Q 1331 -91 842 396 
Q 353 884 353 1716 
Q 353 2575 817 3079 
Q 1281 3584 2069 3584 
Q 2775 3584 3186 3129 
Q 3597 2675 3597 1894 
z
M 3022 2063 
Q 3016 2534 2758 2815 
Q 2500 3097 2075 3097 
Q 1594 3097 1305 2825 
Q 1016 2553 972 2059 
L 3022 2063 
z
" transform="scale(0.015625)"/>
       <path id="DejaVuSans-6c" d="M 603 4863 
L 1178 4863 
L 1178 0 
L 603 0 
L 603 4863 
z
" transform="scale(0.015625)"/>
       <path id="DejaVuSans-2e" d="M 684 794 
L 1344 794 
L 1344 0 
L 684 0 
L 684 794 
z
" transform="scale(0.015625)"/>
       <path id="DejaVuSans-29" d="M 513 4856 
L 1013 4856 
Q 1481 4119 1714 3412 
Q 1947 2706 1947 2009 
Q 1947 1309 1714 600 
Q 1481 -109 1013 -844 
L 513 -844 
Q 928 -128 1133 580 
Q 1338 1288 1338 2009 
Q 1338 2731 1133 3434 
Q 928 4138 513 4856 
z
" transform="scale(0.015625)"/>
       <path id="DejaVuSans-56" d="M 1831 0 
L 50 4666 
L 709 4666 
L 2188 738 
L 3669 4666 
L 4325 4666 
L 2547 0 
L 1831 0 
z
" transform="scale(0.015625)"/>
       <path id="DejaVuSans-6f" d="M 1959 3097 
Q 1497 3097 1228 2736 
Q 959 2375 959 1747 
Q 959 1119 1226 758 
Q 1494 397 1959 397 
Q 2419 397 2687 759 
Q 2956 1122 2956 1747 
Q 2956 2369 2687 2733 
Q 2419 3097 1959 3097 
z
M 1959 3584 
Q 2709 3584 3137 3096 
Q 3566 2609 3566 1747 
Q 3566 888 3137 398 
Q 2709 -91 1959 -91 
Q 1206 -91 779 398 
Q 353 888 353 1747 
Q 353 2609 779 3096 
Q 1206 3584 1959 3584 
z
" transform="scale(0.015625)"/>
       <path id="DejaVuSans-63" d="M 3122 3366 
L 3122 2828 
Q 2878 2963 2633 3030 
Q 2388 3097 2138 3097 
Q 1578 3097 1268 2742 
Q 959 2388 959 1747 
Q 959 1106 1268 751 
Q 1578 397 2138 397 
Q 2388 397 2633 464 
Q 2878 531 3122 666 
L 3122 134 
Q 2881 22 2623 -34 
Q 2366 -91 2075 -91 
Q 1284 -91 818 406 
Q 353 903 353 1747 
Q 353 2603 823 3093 
Q 1294 3584 2113 3584 
Q 2378 3584 2631 3529 
Q 2884 3475 3122 3366 
z
" transform="scale(0.015625)"/>
       <path id="DejaVuSans-68" d="M 3513 2113 
L 3513 0 
L 2938 0 
L 2938 2094 
Q 2938 2591 2744 2837 
Q 2550 3084 2163 3084 
Q 1697 3084 1428 2787 
Q 1159 2491 1159 1978 
L 1159 0 
L 581 0 
L 581 4863 
L 1159 4863 
L 1159 2956 
Q 1366 3272 1645 3428 
Q 1925 3584 2291 3584 
Q 2894 3584 3203 3211 
Q 3513 2838 3513 2113 
z
" transform="scale(0.015625)"/>
       <path id="DejaVuSans-74" d="M 1172 4494 
L 1172 3500 
L 2356 3500 
L 2356 3053 
L 1172 3053 
L 1172 1153 
Q 1172 725 1289 603 
Q 1406 481 1766 481 
L 2356 481 
L 2356 0 
L 1766 0 
Q 1100 0 847 248 
Q 594 497 594 1153 
L 594 3053 
L 172 3053 
L 172 3500 
L 594 3500 
L 594 4494 
L 1172 4494 
z
" transform="scale(0.015625)"/>
       <path id="DejaVuSans-67" d="M 2906 1791 
Q 2906 2416 2648 2759 
Q 2391 3103 1925 3103 
Q 1463 3103 1205 2759 
Q 947 2416 947 1791 
Q 947 1169 1205 825 
Q 1463 481 1925 481 
Q 2391 481 2648 825 
Q 2906 1169 2906 1791 
z
M 3481 434 
Q 3481 -459 3084 -895 
Q 2688 -1331 1869 -1331 
Q 1566 -1331 1297 -1286 
Q 1028 -1241 775 -1147 
L 775 -588 
Q 1028 -725 1275 -790 
Q 1522 -856 1778 -856 
Q 2344 -856 2625 -561 
Q 2906 -266 2906 331 
L 2906 616 
Q 2728 306 2450 153 
Q 2172 0 1784 0 
Q 1141 0 747 490 
Q 353 981 353 1791 
Q 353 2603 747 3093 
Q 1141 3584 1784 3584 
Q 2172 3584 2450 3431 
Q 2728 3278 2906 2969 
L 2906 3500 
L 3481 3500 
L 3481 434 
z
" transform="scale(0.015625)"/>
       <path id="DejaVuSans-25" d="M 4653 2053 
Q 4381 2053 4226 1822 
Q 4072 1591 4072 1178 
Q 4072 772 4226 539 
Q 4381 306 4653 306 
Q 4919 306 5073 539 
Q 5228 772 5228 1178 
Q 5228 1588 5073 1820 
Q 4919 2053 4653 2053 
z
M 4653 2450 
Q 5147 2450 5437 2106 
Q 5728 1763 5728 1178 
Q 5728 594 5436 251 
Q 5144 -91 4653 -91 
Q 4153 -91 3862 251 
Q 3572 594 3572 1178 
Q 3572 1766 3864 2108 
Q 4156 2450 4653 2450 
z
M 1428 4353 
Q 1159 4353 1004 4120 
Q 850 3888 850 3481 
Q 850 3069 1003 2837 
Q 1156 2606 1428 2606 
Q 1700 2606 1854 2837 
Q 2009 3069 2009 3481 
Q 2009 3884 1853 4118 
Q 1697 4353 1428 4353 
z
M 4250 4750 
L 4750 4750 
L 1831 -91 
L 1331 -91 
L 4250 4750 
z
M 1428 4750 
Q 1922 4750 2215 4408 
Q 2509 4066 2509 3481 
Q 2509 2891 2217 2550 
Q 1925 2209 1428 2209 
Q 931 2209 642 2551 
Q 353 2894 353 3481 
Q 353 4063 643 4406 
Q 934 4750 1428 4750 
z
" transform="scale(0.015625)"/>
      </defs>
      <use xlink:href="#DejaVuSans-28"/>
      <use xlink:href="#DejaVuSans-52" transform="translate(39.013672 0)"/>
      <use xlink:href="#DejaVuSans-65" transform="translate(103.996094 0)"/>
      <use xlink:href="#DejaVuSans-6c" transform="translate(165.519531 0)"/>
      <use xlink:href="#DejaVuSans-2e" transform="translate(193.302734 0)"/>
      <use xlink:href="#DejaVuSans-29" transform="translate(225.089844 0)"/>
      <use xlink:href="#DejaVuSans-20" transform="translate(264.103516 0)"/>
      <use xlink:href="#DejaVuSans-56" transform="translate(295.890625 0)"/>
      <use xlink:href="#DejaVuSans-6f" transform="translate(356.548828 0)"/>
      <use xlink:href="#DejaVuSans-63" transform="translate(417.730469 0)"/>
      <use xlink:href="#DejaVuSans-68" transform="translate(472.710938 0)"/>
      <use xlink:href="#DejaVuSans-74" transform="translate(536.089844 0)"/>
      <use xlink:href="#DejaVuSans-69" transform="translate(575.298828 0)"/>
      <use xlink:href="#DejaVuSans-67" transform="translate(603.082031 0)"/>
      <use xlink:href="#DejaVuSans-68" transform="translate(666.558594 0)"/>
      <use xlink:href="#DejaVuSans-65" transform="translate(729.9375 0)"/>
      <use xlink:href="#DejaVuSans-69" transform="translate(791.460938 0)"/>
      <use xlink:href="#DejaVuSans-64" transform="translate(819.244141 0)"/>
      <use xlink:href="#DejaVuSans-20" transform="translate(882.720703 0)"/>
      <use xlink:href="#DejaVuSans-28" transform="translate(914.507812 0)"/>
      <use xlink:href="#DejaVuSans-25" transform="translate(953.521484 0)"/>
      <use xlink:href="#DejaVuSans-29" transform="translate(1048.541016 0)"/>
     </g>
    </g>
   </g>
   <g id="line2d_16">
    <path d="M 73.928587 164.655624 
L 77.530868 172.020421 
L 81.133148 158.590496 
L 84.735429 152.525368 
L 88.33771 142.344618 
L 91.93999 142.777841 
L 95.542271 145.377182 
L 99.144552 144.510735 
L 102.746832 147.543299 
L 106.349113 143.644288 
L 109.951394 146.243629 
L 113.553674 144.294123 
L 117.155955 137.57916 
L 120.758235 146.893464 
L 124.360516 145.377182 
L 127.962797 146.46024 
L 131.565077 142.994453 
L 135.167358 143.644288 
L 138.769639 152.74198 
L 142.371919 151.009086 
L 145.9742 146.027017 
L 149.576481 143.211065 
L 153.178761 144.510735 
L 156.781042 146.676852 
L 160.383322 140.395113 
L 163.985603 147.326687 
L 167.587884 158.590496 
L 171.190164 152.092145 
L 174.792445 147.326687 
L 178.394726 149.059581 
L 181.997006 148.842969 
L 185.599287 146.893464 
L 189.201568 137.57916 
L 192.803848 145.810405 
L 196.406129 147.434993 
L 200.008409 177.652326 
L 203.61069 149.492804 
L 207.212971 148.626357 
L 210.815251 142.994453 
L 214.417532 157.290826 
L 218.019813 157.074214 
L 221.622093 158.807107 
L 225.224374 167.254964 
L 228.826655 167.038352 
L 232.428935 168.987858 
L 236.031216 164.005788 
L 239.633496 162.272895 
L 243.235777 158.157272 
L 246.838058 147.976522 
L 250.440338 143.427676 
L 254.042619 148.193134 
L 257.6449 147.543299 
L 261.24718 159.456943 
L 264.849461 145.810405 
L 268.451742 149.709416 
L 272.054022 152.092145 
L 275.656303 146.243629 
L 279.258583 146.027017 
L 282.860864 146.027017 
L 286.463145 144.727347 
L 290.065425 149.276193 
L 293.667706 151.875533 
L 297.269987 155.774544 
L 300.872267 152.308756 
L 304.474548 154.691485 
L 308.076829 150.142639 
L 311.679109 157.074214 
L 315.28139 160.323389 
L 318.88367 147.543299 
L 322.485951 155.991155 
L 326.088232 149.709416 
L 333.292793 149.276193 
L 336.895074 151.009086 
L 340.497354 144.510735 
L 344.099635 151.658921 
L 347.701916 151.44231 
L 351.304196 151.44231 
L 354.906477 150.142639 
L 358.508757 161.62306 
L 362.111038 149.709416 
L 365.713319 154.04165 
L 369.315599 149.926028 
L 372.91788 142.994453 
L 380.122441 156.207767 
L 383.724722 151.009086 
L 387.327003 166.605129 
L 390.929283 157.507437 
L 394.531564 167.038352 
L 398.133844 174.40315 
L 401.736125 171.370586 
L 405.338406 166.605129 
L 408.940686 162.056283 
L 412.542967 172.886868 
L 416.145248 165.738682 
L 419.747528 155.991155 
L 423.349809 157.724049 
L 426.952089 137.145937 
L 430.55437 140.178501 
L 434.156651 140.178501 
L 437.758931 136.27949 
L 441.361212 135.629655 
L 444.963493 145.377182 
L 448.565773 138.878831 
L 452.168054 144.943958 
L 455.770335 147.543299 
L 459.372615 146.676852 
L 462.974896 142.344618 
L 466.577176 160.973225 
L 470.179457 135.629655 
L 473.781738 136.062879 
L 477.384018 125.990434 
L 480.986299 144.294123 
L 484.58858 136.929325 
L 488.19086 145.16057 
L 491.793141 144.943958 
L 495.395422 141.044948 
L 498.997702 141.911395 
L 502.599983 147.976522 
L 506.202263 133.030315 
L 509.804544 129.564527 
L 513.406825 143.8609 
L 517.009105 127.831634 
L 520.611386 135.196432 
L 524.213667 145.16057 
L 527.815947 142.994453 
L 531.418228 142.994453 
L 535.020509 141.261559 
L 538.622789 145.16057 
L 542.22507 140.828336 
L 545.82735 140.178501 
L 549.429631 134.97982 
L 553.031912 153.391815 
L 556.634192 154.908097 
L 560.236473 155.557932 
L 563.838754 147.976522 
L 567.441034 152.525368 
L 571.043315 154.474873 
L 574.645596 167.038352 
L 578.247876 161.62306 
L 581.850157 165.088847 
L 585.452437 170.937363 
L 589.054718 159.673554 
L 592.656999 157.507437 
L 596.259279 161.406448 
L 599.86156 153.391815 
L 603.463841 147.110075 
L 607.066121 143.211065 
L 610.668402 143.8609 
L 614.270683 146.243629 
L 617.872963 149.276193 
L 621.475244 145.810405 
L 621.475244 145.810405 
" clip-path="url(#pd3acbd289e)" style="fill: none; stroke: #1f77b4; stroke-width: 2; stroke-linecap: square"/>
   </g>
   <g id="line2d_17">
    <path d="M 73.928587 134.995292 
L 77.530868 131.111754 
L 81.133148 133.752354 
L 84.735429 133.102519 
L 88.33771 131.748695 
L 91.93999 133.940084 
L 95.542271 139.925787 
L 99.144552 138.569385 
L 102.746832 139.528666 
L 106.349113 140.116612 
L 109.951394 139.776222 
L 113.553674 146.027017 
L 117.155955 140.92117 
L 120.758235 142.777841 
L 124.360516 143.087287 
L 127.962797 141.323449 
L 131.565077 141.648366 
L 135.167358 145.593794 
L 138.769639 143.025398 
L 142.371919 137.935023 
L 145.9742 137.91955 
L 149.576481 137.269715 
L 153.178761 134.268096 
L 156.781042 135.180959 
L 160.383322 135.443988 
L 163.985603 135.9391 
L 167.587884 135.196432 
L 171.190164 138.066537 
L 174.792445 132.17934 
L 178.394726 131.080809 
L 181.997006 129.71925 
L 185.599287 135.521349 
L 189.201568 133.169565 
L 192.803848 129.812084 
L 196.406129 130.291724 
L 200.008409 136.171184 
L 203.61069 132.04009 
L 207.212971 136.047406 
L 210.815251 133.401649 
L 214.417532 137.594633 
L 218.019813 139.930945 
L 221.622093 142.685008 
L 225.224374 148.533524 
L 228.826655 148.904858 
L 232.428935 147.976522 
L 236.031216 150.266417 
L 239.633496 151.163809 
L 243.235777 147.883689 
L 246.838058 145.717572 
L 250.440338 142.128006 
L 254.042619 140.766447 
L 257.6449 141.849505 
L 261.24718 147.048186 
L 264.849461 138.816942 
L 268.451742 149.240091 
L 272.054022 145.330765 
L 275.656303 142.112534 
L 279.258583 143.489566 
L 282.860864 149.276193 
L 286.463145 144.742819 
L 290.065425 145.578321 
L 293.667706 140.828336 
L 297.269987 137.223298 
L 300.872267 139.714333 
L 304.474548 144.20129 
L 308.076829 142.808786 
L 311.679109 145.392654 
L 315.28139 142.545757 
L 318.88367 140.534363 
L 322.485951 139.76075 
L 326.088232 139.55961 
L 329.690512 151.44231 
L 333.292793 147.171965 
L 336.895074 144.619041 
L 340.497354 141.261559 
L 344.099635 139.714333 
L 347.701916 141.911395 
L 351.304196 141.40081 
L 354.906477 136.403268 
L 358.508757 134.856042 
L 362.111038 127.011604 
L 365.713319 132.958111 
L 369.315599 128.202968 
L 372.91788 128.048245 
L 376.520161 136.947376 
L 380.122441 136.369745 
L 383.724722 135.103598 
L 387.327003 135.802944 
L 390.929283 136.264018 
L 394.531564 138.878831 
L 398.133844 134.732264 
L 401.736125 136.155712 
L 405.338406 137.888606 
L 408.940686 138.352774 
L 412.542967 143.242009 
L 416.145248 139.002609 
L 419.747528 136.836492 
L 423.349809 136.867436 
L 426.952089 138.987137 
L 430.55437 139.23985 
L 434.156651 138.192894 
L 437.758931 141.694783 
L 441.361212 137.981439 
L 444.963493 141.135203 
L 448.565773 134.252624 
L 452.168054 143.283269 
L 455.770335 137.702939 
L 459.372615 140.596252 
L 462.974896 142.035173 
L 466.577176 142.189895 
L 470.179457 141.756672 
L 473.781738 140.503418 
L 477.384018 138.73958 
L 480.986299 139.997991 
L 484.58858 137.981439 
L 488.19086 144.634513 
L 491.793141 140.611724 
L 495.395422 146.18174 
L 498.997702 137.733883 
L 502.599983 139.822639 
L 506.202263 138.352774 
L 509.804544 135.474932 
L 513.406825 138.481709 
L 517.009105 135.722489 
L 520.611386 135.227376 
L 524.213667 141.442069 
L 527.815947 131.637811 
L 531.418228 133.169565 
L 535.020509 134.097901 
L 538.622789 141.08105 
L 542.22507 137.053103 
L 545.82735 133.386177 
L 549.429631 133.228875 
L 553.031912 131.784797 
L 556.634192 128.896641 
L 560.236473 136.46 
L 563.838754 141.442069 
L 567.441034 138.571964 
L 571.043315 149.752738 
L 574.645596 154.734807 
L 578.247876 144.467413 
L 581.850157 149.492804 
L 585.452437 148.929614 
L 589.054718 149.709416 
L 592.656999 144.640702 
L 596.259279 149.189548 
L 599.86156 141.803089 
L 603.463841 146.243629 
L 607.066121 142.831994 
L 610.668402 144.510735 
L 614.270683 138.987137 
L 617.872963 134.654902 
L 628.679805 136.171184 
L 632.282086 130.918351 
L 635.884366 131.080809 
L 639.486647 134.329985 
L 643.088928 124.365847 
L 646.691208 127.615022 
L 650.293489 120.250224 
L 653.89577 134.763208 
L 657.49805 156.64099 
L 661.100331 175.70282 
L 661.100331 175.70282 
" clip-path="url(#pd3acbd289e)" style="fill: none; stroke-dasharray: 5.55,2.4; stroke-dashoffset: 0; stroke: #808080; stroke-width: 1.5"/>
   </g>
   <g id="patch_3">
    <path d="M 44.57 246.04 
L 44.57 26.88 
" style="fill: none; stroke: #000000; stroke-width: 0.8; stroke-linejoin: miter; stroke-linecap: square"/>
   </g>
   <g id="patch_4">
    <path d="M 690.458918 246.04 
L 690.458918 26.88 
" style="fill: none; stroke: #000000; stroke-width: 0.8; stroke-linejoin: miter; stroke-linecap: square"/>
   </g>
   <g id="patch_5">
    <path d="M 44.57 246.04 
L 690.458918 246.04 
" style="fill: none; stroke: #000000; stroke-width: 0.8; stroke-linejoin: miter; stroke-linecap: square"/>
   </g>
   <g id="patch_6">
    <path d="M 44.57 26.88 
L 690.458918 26.88 
" style="fill: none; stroke: #000000; stroke-width: 0.8; stroke-linejoin: miter; stroke-linecap: square"/>
   </g>
   <g id="text_18">
    <!-- Luchtvochtigheid - v001/c00004/d001 -->
    <g transform="translate(253.224772 20.88) scale(0.12 -0.12)">
     <defs>
      <path id="DejaVuSans-4c" d="M 628 4666 
L 1259 4666 
L 1259 531 
L 3531 531 
L 3531 0 
L 628 0 
L 628 4666 
z
" transform="scale(0.015625)"/>
      <path id="DejaVuSans-75" d="M 544 1381 
L 544 3500 
L 1119 3500 
L 1119 1403 
Q 1119 906 1312 657 
Q 1506 409 1894 409 
Q 2359 409 2629 706 
Q 2900 1003 2900 1516 
L 2900 3500 
L 3475 3500 
L 3475 0 
L 2900 0 
L 2900 538 
Q 2691 219 2414 64 
Q 2138 -91 1772 -91 
Q 1169 -91 856 284 
Q 544 659 544 1381 
z
M 1991 3584 
L 1991 3584 
z
" transform="scale(0.015625)"/>
      <path id="DejaVuSans-76" d="M 191 3500 
L 800 3500 
L 1894 563 
L 2988 3500 
L 3597 3500 
L 2284 0 
L 1503 0 
L 191 3500 
z
" transform="scale(0.015625)"/>
      <path id="DejaVuSans-2f" d="M 1625 4666 
L 2156 4666 
L 531 -594 
L 0 -594 
L 1625 4666 
z
" transform="scale(0.015625)"/>
     </defs>
     <use xlink:href="#DejaVuSans-4c"/>
     <use xlink:href="#DejaVuSans-75" transform="translate(53.962891 0)"/>
     <use xlink:href="#DejaVuSans-63" transform="translate(117.341797 0)"/>
     <use xlink:href="#DejaVuSans-68" transform="translate(172.322266 0)"/>
     <use xlink:href="#DejaVuSans-74" transform="translate(235.701172 0)"/>
     <use xlink:href="#DejaVuSans-76" transform="translate(274.910156 0)"/>
     <use xlink:href="#DejaVuSans-6f" transform="translate(334.089844 0)"/>
     <use xlink:href="#DejaVuSans-63" transform="translate(395.271484 0)"/>
     <use xlink:href="#DejaVuSans-68" transform="translate(450.251953 0)"/>
     <use xlink:href="#DejaVuSans-74" transform="translate(513.630859 0)"/>
     <use xlink:href="#DejaVuSans-69" transform="translate(552.839844 0)"/>
     <use xlink:href="#DejaVuSans-67" transform="translate(580.623047 0)"/>
     <use xlink:href="#DejaVuSans-68" transform="translate(644.099609 0)"/>
     <use xlink:href="#DejaVuSans-65" transform="translate(707.478516 0)"/>
     <use xlink:href="#DejaVuSans-69" transform="translate(769.001953 0)"/>
     <use xlink:href="#DejaVuSans-64" transform="translate(796.785156 0)"/>
     <use xlink:href="#DejaVuSans-20" transform="translate(860.261719 0)"/>
     <use xlink:href="#DejaVuSans-2d" transform="translate(892.048828 0)"/>
     <use xlink:href="#DejaVuSans-20" transform="translate(928.132812 0)"/>
     <use xlink:href="#DejaVuSans-76" transform="translate(959.919922 0)"/>
     <use xlink:href="#DejaVuSans-30" transform="translate(1019.099609 0)"/>
     <use xlink:href="#DejaVuSans-30" transform="translate(1082.722656 0)"/>
     <use xlink:href="#DejaVuSans-31" transform="translate(1146.345703 0)"/>
     <use xlink:href="#DejaVuSans-2f" transform="translate(1209.96875 0)"/>
     <use xlink:href="#DejaVuSans-63" transform="translate(1243.660156 0)"/>
     <use xlink:href="#DejaVuSans-30" transform="translate(1298.640625 0)"/>
     <use xlink:href="#DejaVuSans-30" transform="translate(1362.263672 0)"/>
     <use xlink:href="#DejaVuSans-30" transform="translate(1425.886719 0)"/>
     <use xlink:href="#DejaVuSans-30" transform="translate(1489.509766 0)"/>
     <use xlink:href="#DejaVuSans-34" transform="translate(1553.132812 0)"/>
     <use xlink:href="#DejaVuSans-2f" transform="translate(1616.755859 0)"/>
     <use xlink:href="#DejaVuSans-64" transform="translate(1650.447266 0)"/>
     <use xlink:href="#DejaVuSans-30" transform="translate(1713.923828 0)"/>
     <use xlink:href="#DejaVuSans-30" transform="translate(1777.546875 0)"/>
     <use xlink:href="#DejaVuSans-31" transform="translate(1841.169922 0)"/>
    </g>
   </g>
   <g id="legend_1">
    <g id="patch_7">
     <path d="M 51.57 78.914375 
L 202.51375 78.914375 
Q 204.51375 78.914375 204.51375 76.914375 
L 204.51375 33.88 
Q 204.51375 31.88 202.51375 31.88 
L 51.57 31.88 
Q 49.57 31.88 49.57 33.88 
L 49.57 76.914375 
Q 49.57 78.914375 51.57 78.914375 
z
" style="fill: #ffffff; opacity: 0.8; stroke: #cccccc; stroke-linejoin: miter"/>
    </g>
    <g id="line2d_18">
     <path d="M 53.57 39.978438 
L 63.57 39.978438 
L 73.57 39.978438 
" style="fill: none; stroke: #1f77b4; stroke-width: 2; stroke-linecap: square"/>
    </g>
    <g id="text_19">
     <!-- Hive -->
     <g transform="translate(81.57 43.478438) scale(0.1 -0.1)">
      <defs>
       <path id="DejaVuSans-48" d="M 628 4666 
L 1259 4666 
L 1259 2753 
L 3553 2753 
L 3553 4666 
L 4184 4666 
L 4184 0 
L 3553 0 
L 3553 2222 
L 1259 2222 
L 1259 0 
L 628 0 
L 628 4666 
z
" transform="scale(0.015625)"/>
      </defs>
      <use xlink:href="#DejaVuSans-48"/>
      <use xlink:href="#DejaVuSans-69" transform="translate(75.195312 0)"/>
      <use xlink:href="#DejaVuSans-76" transform="translate(102.978516 0)"/>
      <use xlink:href="#DejaVuSans-65" transform="translate(162.158203 0)"/>
     </g>
    </g>
    <g id="line2d_19">
     <path d="M 53.57 54.656563 
L 63.57 54.656563 
L 73.57 54.656563 
" style="fill: none; stroke-dasharray: 5.55,2.4; stroke-dashoffset: 0; stroke: #808080; stroke-width: 1.5"/>
    </g>
    <g id="text_20">
     <!-- Gemiddelde (alle hives) -->
     <g transform="translate(81.57 58.156563) scale(0.1 -0.1)">
      <defs>
       <path id="DejaVuSans-47" d="M 3809 666 
L 3809 1919 
L 2778 1919 
L 2778 2438 
L 4434 2438 
L 4434 434 
Q 4069 175 3628 42 
Q 3188 -91 2688 -91 
Q 1594 -91 976 548 
Q 359 1188 359 2328 
Q 359 3472 976 4111 
Q 1594 4750 2688 4750 
Q 3144 4750 3555 4637 
Q 3966 4525 4313 4306 
L 4313 3634 
Q 3963 3931 3569 4081 
Q 3175 4231 2741 4231 
Q 1884 4231 1454 3753 
Q 1025 3275 1025 2328 
Q 1025 1384 1454 906 
Q 1884 428 2741 428 
Q 3075 428 3337 486 
Q 3600 544 3809 666 
z
" transform="scale(0.015625)"/>
       <path id="DejaVuSans-6d" d="M 3328 2828 
Q 3544 3216 3844 3400 
Q 4144 3584 4550 3584 
Q 5097 3584 5394 3201 
Q 5691 2819 5691 2113 
L 5691 0 
L 5113 0 
L 5113 2094 
Q 5113 2597 4934 2840 
Q 4756 3084 4391 3084 
Q 3944 3084 3684 2787 
Q 3425 2491 3425 1978 
L 3425 0 
L 2847 0 
L 2847 2094 
Q 2847 2600 2669 2842 
Q 2491 3084 2119 3084 
Q 1678 3084 1418 2786 
Q 1159 2488 1159 1978 
L 1159 0 
L 581 0 
L 581 3500 
L 1159 3500 
L 1159 2956 
Q 1356 3278 1631 3431 
Q 1906 3584 2284 3584 
Q 2666 3584 2933 3390 
Q 3200 3197 3328 2828 
z
" transform="scale(0.015625)"/>
       <path id="DejaVuSans-61" d="M 2194 1759 
Q 1497 1759 1228 1600 
Q 959 1441 959 1056 
Q 959 750 1161 570 
Q 1363 391 1709 391 
Q 2188 391 2477 730 
Q 2766 1069 2766 1631 
L 2766 1759 
L 2194 1759 
z
M 3341 1997 
L 3341 0 
L 2766 0 
L 2766 531 
Q 2569 213 2275 61 
Q 1981 -91 1556 -91 
Q 1019 -91 701 211 
Q 384 513 384 1019 
Q 384 1609 779 1909 
Q 1175 2209 1959 2209 
L 2766 2209 
L 2766 2266 
Q 2766 2663 2505 2880 
Q 2244 3097 1772 3097 
Q 1472 3097 1187 3025 
Q 903 2953 641 2809 
L 641 3341 
Q 956 3463 1253 3523 
Q 1550 3584 1831 3584 
Q 2591 3584 2966 3190 
Q 3341 2797 3341 1997 
z
" transform="scale(0.015625)"/>
       <path id="DejaVuSans-73" d="M 2834 3397 
L 2834 2853 
Q 2591 2978 2328 3040 
Q 2066 3103 1784 3103 
Q 1356 3103 1142 2972 
Q 928 2841 928 2578 
Q 928 2378 1081 2264 
Q 1234 2150 1697 2047 
L 1894 2003 
Q 2506 1872 2764 1633 
Q 3022 1394 3022 966 
Q 3022 478 2636 193 
Q 2250 -91 1575 -91 
Q 1294 -91 989 -36 
Q 684 19 347 128 
L 347 722 
Q 666 556 975 473 
Q 1284 391 1588 391 
Q 1994 391 2212 530 
Q 2431 669 2431 922 
Q 2431 1156 2273 1281 
Q 2116 1406 1581 1522 
L 1381 1569 
Q 847 1681 609 1914 
Q 372 2147 372 2553 
Q 372 3047 722 3315 
Q 1072 3584 1716 3584 
Q 2034 3584 2315 3537 
Q 2597 3491 2834 3397 
z
" transform="scale(0.015625)"/>
      </defs>
      <use xlink:href="#DejaVuSans-47"/>
      <use xlink:href="#DejaVuSans-65" transform="translate(77.490234 0)"/>
      <use xlink:href="#DejaVuSans-6d" transform="translate(139.013672 0)"/>
      <use xlink:href="#DejaVuSans-69" transform="translate(236.425781 0)"/>
      <use xlink:href="#DejaVuSans-64" transform="translate(264.208984 0)"/>
      <use xlink:href="#DejaVuSans-64" transform="translate(327.685547 0)"/>
      <use xlink:href="#DejaVuSans-65" transform="translate(391.162109 0)"/>
      <use xlink:href="#DejaVuSans-6c" transform="translate(452.685547 0)"/>
      <use xlink:href="#DejaVuSans-64" transform="translate(480.46875 0)"/>
      <use xlink:href="#DejaVuSans-65" transform="translate(543.945312 0)"/>
      <use xlink:href="#DejaVuSans-20" transform="translate(605.46875 0)"/>
      <use xlink:href="#DejaVuSans-28" transform="translate(637.255859 0)"/>
      <use xlink:href="#DejaVuSans-61" transform="translate(676.269531 0)"/>
      <use xlink:href="#DejaVuSans-6c" transform="translate(737.548828 0)"/>
      <use xlink:href="#DejaVuSans-6c" transform="translate(765.332031 0)"/>
      <use xlink:href="#DejaVuSans-65" transform="translate(793.115234 0)"/>
      <use xlink:href="#DejaVuSans-20" transform="translate(854.638672 0)"/>
      <use xlink:href="#DejaVuSans-68" transform="translate(886.425781 0)"/>
      <use xlink:href="#DejaVuSans-69" transform="translate(949.804688 0)"/>
      <use xlink:href="#DejaVuSans-76" transform="translate(977.587891 0)"/>
      <use xlink:href="#DejaVuSans-65" transform="translate(1036.767578 0)"/>
      <use xlink:href="#DejaVuSans-73" transform="translate(1098.291016 0)"/>
      <use xlink:href="#DejaVuSans-29" transform="translate(1150.390625 0)"/>
     </g>
    </g>
    <g id="patch_8">
     <path d="M 53.57 72.834688 
L 73.57 72.834688 
L 73.57 65.834688 
L 53.57 65.834688 
z
" style="fill: #808080; fill-opacity: 0.2; stroke: #808080; stroke-opacity: 0.2; stroke-linejoin: miter"/>
    </g>
    <g id="text_21">
     <!-- 2 Std Dev -->
     <g transform="translate(81.57 72.834688) scale(0.1 -0.1)">
      <defs>
       <path id="DejaVuSans-b1" d="M 2944 4013 
L 2944 2803 
L 4684 2803 
L 4684 2272 
L 2944 2272 
L 2944 1063 
L 2419 1063 
L 2419 2272 
L 678 2272 
L 678 2803 
L 2419 2803 
L 2419 4013 
L 2944 4013 
z
M 678 531 
L 4684 531 
L 4684 0 
L 678 0 
L 678 531 
z
" transform="scale(0.015625)"/>
       <path id="DejaVuSans-53" d="M 3425 4513 
L 3425 3897 
Q 3066 4069 2747 4153 
Q 2428 4238 2131 4238 
Q 1616 4238 1336 4038 
Q 1056 3838 1056 3469 
Q 1056 3159 1242 3001 
Q 1428 2844 1947 2747 
L 2328 2669 
Q 3034 2534 3370 2195 
Q 3706 1856 3706 1288 
Q 3706 609 3251 259 
Q 2797 -91 1919 -91 
Q 1588 -91 1214 -16 
Q 841 59 441 206 
L 441 856 
Q 825 641 1194 531 
Q 1563 422 1919 422 
Q 2459 422 2753 634 
Q 3047 847 3047 1241 
Q 3047 1584 2836 1778 
Q 2625 1972 2144 2069 
L 1759 2144 
Q 1053 2284 737 2584 
Q 422 2884 422 3419 
Q 422 4038 858 4394 
Q 1294 4750 2059 4750 
Q 2388 4750 2728 4690 
Q 3069 4631 3425 4513 
z
" transform="scale(0.015625)"/>
       <path id="DejaVuSans-44" d="M 1259 4147 
L 1259 519 
L 2022 519 
Q 2988 519 3436 956 
Q 3884 1394 3884 2338 
Q 3884 3275 3436 3711 
Q 2988 4147 2022 4147 
L 1259 4147 
z
M 628 4666 
L 1925 4666 
Q 3281 4666 3915 4102 
Q 4550 3538 4550 2338 
Q 4550 1131 3912 565 
Q 3275 0 1925 0 
L 628 0 
L 628 4666 
z
" transform="scale(0.015625)"/>
      </defs>
      <use xlink:href="#DejaVuSans-b1"/>
      <use xlink:href="#DejaVuSans-32" transform="translate(83.789062 0)"/>
      <use xlink:href="#DejaVuSans-20" transform="translate(147.412109 0)"/>
      <use xlink:href="#DejaVuSans-53" transform="translate(179.199219 0)"/>
      <use xlink:href="#DejaVuSans-74" transform="translate(242.675781 0)"/>
      <use xlink:href="#DejaVuSans-64" transform="translate(281.884766 0)"/>
      <use xlink:href="#DejaVuSans-20" transform="translate(345.361328 0)"/>
      <use xlink:href="#DejaVuSans-44" transform="translate(377.148438 0)"/>
      <use xlink:href="#DejaVuSans-65" transform="translate(454.150391 0)"/>
      <use xlink:href="#DejaVuSans-76" transform="translate(515.673828 0)"/>
     </g>
    </g>
   </g>
  </g>
 </g>
 <defs>
  <clipPath id="pd3acbd289e">
   <rect x="44.57" y="26.88" width="645.888918" height="219.16"/>
  </clipPath>
 </defs>
</svg>
