<?xml version="1.0" encoding="utf-8" standalone="no"?>
<!DOCTYPE svg PUBLIC "-//W3C//DTD SVG 1.1//EN"
  "http://www.w3.org/Graphics/SVG/1.1/DTD/svg11.dtd">
<svg xmlns:xlink="http://www.w3.org/1999/xlink" width="720pt" height="288pt" viewBox="0 0 720 288" xmlns="http://www.w3.org/2000/svg" version="1.1">
 <metadata>
  <rdf:RDF xmlns:dc="http://purl.org/dc/elements/1.1/" xmlns:cc="http://creativecommons.org/ns#" xmlns:rdf="http://www.w3.org/1999/02/22-rdf-syntax-ns#">
   <cc:Work>
    <dc:type rdf:resource="http://purl.org/dc/dcmitype/StillImage"/>
    <dc:date>2025-05-22T16:20:41.116732</dc:date>
    <dc:format>image/svg+xml</dc:format>
    <dc:creator>
     <cc:Agent>
      <dc:title>Matplotlib v3.10.3, https://matplotlib.org/</dc:title>
     </cc:Agent>
    </dc:creator>
   </cc:Work>
  </rdf:RDF>
 </metadata>
 <defs>
  <style type="text/css">*{stroke-linejoin: round; stroke-linecap: butt}</style>
 </defs>
 <g id="figure_1">
  <g id="patch_1">
   <path d="M 0 288 
L 720 288 
L 720 0 
L 0 0 
z
" style="fill: #ffffff"/>
  </g>
  <g id="axes_1">
   <g id="patch_2">
    <path d="M 44.57 246.04 
L 709.2 246.04 
L 709.2 26.88 
L 44.57 26.88 
z
" style="fill: #ffffff"/>
   </g>
   <g id="FillBetweenPolyCollection_1">
    <defs>
     <path id="m012276ee95" d="M 74.780455 -221.812283 
L 74.780455 -108.219221 
L 78.835549 -83.06229 
L 82.890644 -80.131558 
L 86.945738 -86.410215 
L 91.000833 -88.475129 
L 95.055927 -69.555723 
L 99.111022 -87.785809 
L 103.166117 -87.454902 
L 107.221211 -92.454415 
L 111.276306 -95.693289 
L 115.3314 -116.854909 
L 119.386495 -106.75382 
L 123.441589 -111.163849 
L 127.496684 -106.714786 
L 131.551779 -101.128623 
L 135.606873 -96.775115 
L 139.661968 -107.954844 
L 143.717062 -112.484053 
L 147.772157 -92.710813 
L 151.827251 -119.516416 
L 155.882346 -113.148623 
L 159.937441 -107.221631 
L 163.992535 -100.201714 
L 168.04763 -100.173086 
L 172.102724 -91.871124 
L 176.157819 -94.685268 
L 180.212913 -88.412724 
L 184.268008 -91.445765 
L 188.323103 -93.690869 
L 192.378197 -99.43334 
L 196.433292 -89.893917 
L 200.488386 -86.073408 
L 204.543481 -80.809126 
L 208.598575 -77.647193 
L 212.65367 -71.774066 
L 216.708764 -60.110623 
L 220.763859 -51.921818 
L 224.818954 -67.595348 
L 228.874048 -62.961404 
L 232.929143 -69.703027 
L 236.984237 -87.761921 
L 241.039332 -82.29113 
L 245.094426 -87.785588 
L 249.149521 -66.505575 
L 253.204616 -90.414239 
L 257.25971 -98.843327 
L 261.314805 -98.403354 
L 265.369899 -69.542096 
L 269.424994 -80.943762 
L 273.480088 -77.318221 
L 277.535183 -67.174388 
L 281.590278 -78.267259 
L 285.645372 -79.321461 
L 289.700467 -88.339936 
L 293.755561 -88.68557 
L 297.810656 -103.711136 
L 301.86575 -106.904323 
L 305.920845 -126.411579 
L 309.97594 -113.952808 
L 314.031034 -116.522841 
L 318.086129 -121.193963 
L 322.141223 -121.387026 
L 326.196318 -121.720959 
L 330.251412 -122.823327 
L 334.306507 -115.325719 
L 338.361602 -104.79036 
L 342.416696 -110.539342 
L 346.471791 -107.821434 
L 350.526885 -128.649023 
L 354.58198 -125.130187 
L 358.637074 -131.400992 
L 362.692169 -135.577687 
L 366.747264 -115.502006 
L 370.802358 -112.992744 
L 374.857453 -114.679317 
L 378.912547 -109.805568 
L 382.967642 -119.460789 
L 387.022736 -118.496194 
L 391.077831 -121.391992 
L 395.132926 -112.899358 
L 399.18802 -105.051987 
L 403.243115 -108.982205 
L 407.298209 -88.227196 
L 411.353304 -87.888642 
L 415.408398 -102.803952 
L 419.463493 -88.642468 
L 423.518588 -90.452047 
L 427.573682 -99.862212 
L 431.628777 -103.989332 
L 435.683871 -97.066035 
L 439.738966 -97.411955 
L 443.79406 -93.985369 
L 447.849155 -107.935379 
L 451.90425 -106.198891 
L 455.959344 -100.298657 
L 460.014439 -89.790502 
L 464.069533 -96.004943 
L 468.124628 -97.593817 
L 472.179722 -92.600094 
L 476.234817 -99.563615 
L 480.289912 -97.331435 
L 484.345006 -97.800498 
L 488.400101 -92.278203 
L 492.455195 -97.644066 
L 496.51029 -101.26579 
L 500.565384 -97.749245 
L 504.620479 -102.086763 
L 508.675574 -115.392687 
L 512.730668 -113.664444 
L 516.785763 -91.370605 
L 520.840857 -119.108001 
L 524.895952 -107.660781 
L 528.951046 -102.606773 
L 533.006141 -123.791631 
L 537.061236 -116.469172 
L 541.11633 -117.929718 
L 545.171425 -104.628766 
L 549.226519 -105.204114 
L 553.281614 -117.301328 
L 557.336708 -115.212155 
L 561.391803 -99.964728 
L 565.446897 -87.755957 
L 569.501992 -92.242321 
L 573.557087 -98.718046 
L 577.612181 -96.354903 
L 581.667276 -100.812451 
L 585.72237 -99.994628 
L 589.777465 -116.676271 
L 593.832559 -115.590554 
L 597.887654 -117.080958 
L 601.942749 -81.759616 
L 605.997843 -108.164007 
L 610.052938 -87.91002 
L 614.108032 -77.497277 
L 618.163127 -86.337567 
L 622.218221 -106.709086 
L 626.273316 -107.835681 
L 630.328411 -125.941748 
L 634.383505 -107.271652 
L 638.4386 -90.047017 
L 642.493694 -105.516974 
L 646.548789 -101.662008 
L 650.603883 -92.343967 
L 654.658978 -102.935864 
L 658.714073 -100.421682 
L 662.769167 -104.549237 
L 666.824262 -108.622832 
L 670.879356 -95.091934 
L 674.934451 -113.200096 
L 678.989545 -107.475695 
L 678.989545 -195.989122 
L 678.989545 -195.989122 
L 674.934451 -200.696128 
L 670.879356 -194.584241 
L 666.824262 -182.73196 
L 662.769167 -194.159498 
L 658.714073 -201.844123 
L 654.658978 -196.012673 
L 650.603883 -205.605393 
L 646.548789 -190.092455 
L 642.493694 -190.793736 
L 638.4386 -192.554985 
L 634.383505 -178.168013 
L 630.328411 -180.280797 
L 626.273316 -187.076181 
L 622.218221 -184.166101 
L 618.163127 -200.820682 
L 614.108032 -201.907359 
L 610.052938 -199.128327 
L 605.997843 -187.547197 
L 601.942749 -200.802419 
L 597.887654 -184.18567 
L 593.832559 -182.518674 
L 589.777465 -174.118982 
L 585.72237 -186.803917 
L 581.667276 -188.703856 
L 577.612181 -200.715182 
L 573.557087 -204.786738 
L 569.501992 -204.787796 
L 565.446897 -199.122523 
L 561.391803 -211.0139 
L 557.336708 -196.166144 
L 553.281614 -186.802962 
L 549.226519 -198.420571 
L 545.171425 -188.404643 
L 541.11633 -176.062901 
L 537.061236 -179.441867 
L 533.006141 -175.956248 
L 528.951046 -183.424404 
L 524.895952 -177.13941 
L 520.840857 -183.19777 
L 516.785763 -206.538788 
L 512.730668 -198.553163 
L 508.675574 -194.9065 
L 504.620479 -198.540392 
L 500.565384 -194.085153 
L 496.51029 -195.604459 
L 492.455195 -208.898216 
L 488.400101 -202.114087 
L 484.345006 -196.911529 
L 480.289912 -206.812823 
L 476.234817 -202.262552 
L 472.179722 -212.51936 
L 468.124628 -201.434655 
L 464.069533 -208.05938 
L 460.014439 -201.084685 
L 455.959344 -203.206127 
L 451.90425 -200.663128 
L 447.849155 -206.72022 
L 443.79406 -221.749341 
L 439.738966 -219.082129 
L 435.683871 -214.032493 
L 431.628777 -209.747024 
L 427.573682 -218.110655 
L 423.518588 -207.057675 
L 419.463493 -207.908044 
L 415.408398 -199.541786 
L 411.353304 -213.657756 
L 407.298209 -203.767069 
L 403.243115 -194.202843 
L 399.18802 -186.502641 
L 395.132926 -190.885196 
L 391.077831 -192.024628 
L 387.022736 -190.48408 
L 382.967642 -189.159781 
L 378.912547 -193.659249 
L 374.857453 -182.470702 
L 370.802358 -199.704468 
L 366.747264 -183.886169 
L 362.692169 -175.440908 
L 358.637074 -193.60608 
L 354.58198 -194.801066 
L 350.526885 -180.21135 
L 346.471791 -185.29191 
L 342.416696 -180.495714 
L 338.361602 -188.322984 
L 334.306507 -192.255707 
L 330.251412 -184.598231 
L 326.196318 -187.778887 
L 322.141223 -188.272688 
L 318.086129 -180.232533 
L 314.031034 -190.57898 
L 309.97594 -179.959877 
L 305.920845 -179.49123 
L 301.86575 -189.08665 
L 297.810656 -211.783771 
L 293.755561 -208.664284 
L 289.700467 -217.243136 
L 285.645372 -220.426418 
L 281.590278 -225.637196 
L 277.535183 -251.158182 
L 273.480088 -240.85448 
L 269.424994 -235.59029 
L 265.369899 -239.078474 
L 261.314805 -228.761941 
L 257.25971 -233.677555 
L 253.204616 -236.27145 
L 249.149521 -242.930323 
L 245.094426 -238.940068 
L 241.039332 -233.483547 
L 236.984237 -217.301579 
L 232.929143 -223.730053 
L 228.874048 -228.51329 
L 224.818954 -235.469798 
L 220.763859 -246.027542 
L 216.708764 -226.528054 
L 212.65367 -227.694043 
L 208.598575 -230.333903 
L 204.543481 -215.021979 
L 200.488386 -203.243064 
L 196.433292 -205.217781 
L 192.378197 -205.829996 
L 188.323103 -191.189257 
L 184.268008 -185.952524 
L 180.212913 -202.50243 
L 176.157819 -200.426429 
L 172.102724 -173.728883 
L 168.04763 -206.928735 
L 163.992535 -189.194691 
L 159.937441 -203.637096 
L 155.882346 -182.762416 
L 151.827251 -183.684618 
L 147.772157 -189.771288 
L 143.717062 -195.896715 
L 139.661968 -197.628228 
L 135.606873 -198.416517 
L 131.551779 -205.25379 
L 127.496684 -195.590986 
L 123.441589 -192.82054 
L 119.386495 -195.31215 
L 115.3314 -183.132772 
L 111.276306 -200.377619 
L 107.221211 -205.534913 
L 103.166117 -215.410408 
L 99.111022 -215.079502 
L 95.055927 -214.12539 
L 91.000833 -218.980686 
L 86.945738 -222.107582 
L 82.890644 -229.927826 
L 78.835549 -227.20264 
L 74.780455 -221.812283 
z
" style="stroke: #808080; stroke-opacity: 0.2"/>
    </defs>
    <g clip-path="url(#p0a4e9cce4f)">
     <use xlink:href="#m012276ee95" x="0" y="288" style="fill: #808080; fill-opacity: 0.2; stroke: #808080; stroke-opacity: 0.2"/>
    </g>
   </g>
   <g id="matplotlib.axis_1">
    <g id="xtick_1">
     <g id="line2d_1">
      <defs>
       <path id="m6956f9a097" d="M 0 0 
L 0 3.5 
" style="stroke: #000000; stroke-width: 0.8"/>
      </defs>
      <g>
       <use xlink:href="#m6956f9a097" x="139.661968" y="246.04" style="stroke: #000000; stroke-width: 0.8"/>
      </g>
     </g>
     <g id="text_1">
      <!-- 05-20 00 -->
      <g transform="translate(117.181499 260.638438) scale(0.1 -0.1)">
       <defs>
        <path id="DejaVuSans-30" d="M 2034 4250 
Q 1547 4250 1301 3770 
Q 1056 3291 1056 2328 
Q 1056 1369 1301 889 
Q 1547 409 2034 409 
Q 2525 409 2770 889 
Q 3016 1369 3016 2328 
Q 3016 3291 2770 3770 
Q 2525 4250 2034 4250 
z
M 2034 4750 
Q 2819 4750 3233 4129 
Q 3647 3509 3647 2328 
Q 3647 1150 3233 529 
Q 2819 -91 2034 -91 
Q 1250 -91 836 529 
Q 422 1150 422 2328 
Q 422 3509 836 4129 
Q 1250 4750 2034 4750 
z
" transform="scale(0.015625)"/>
        <path id="DejaVuSans-35" d="M 691 4666 
L 3169 4666 
L 3169 4134 
L 1269 4134 
L 1269 2991 
Q 1406 3038 1543 3061 
Q 1681 3084 1819 3084 
Q 2600 3084 3056 2656 
Q 3513 2228 3513 1497 
Q 3513 744 3044 326 
Q 2575 -91 1722 -91 
Q 1428 -91 1123 -41 
Q 819 9 494 109 
L 494 744 
Q 775 591 1075 516 
Q 1375 441 1709 441 
Q 2250 441 2565 725 
Q 2881 1009 2881 1497 
Q 2881 1984 2565 2268 
Q 2250 2553 1709 2553 
Q 1456 2553 1204 2497 
Q 953 2441 691 2322 
L 691 4666 
z
" transform="scale(0.015625)"/>
        <path id="DejaVuSans-2d" d="M 313 2009 
L 1997 2009 
L 1997 1497 
L 313 1497 
L 313 2009 
z
" transform="scale(0.015625)"/>
        <path id="DejaVuSans-32" d="M 1228 531 
L 3431 531 
L 3431 0 
L 469 0 
L 469 531 
Q 828 903 1448 1529 
Q 2069 2156 2228 2338 
Q 2531 2678 2651 2914 
Q 2772 3150 2772 3378 
Q 2772 3750 2511 3984 
Q 2250 4219 1831 4219 
Q 1534 4219 1204 4116 
Q 875 4013 500 3803 
L 500 4441 
Q 881 4594 1212 4672 
Q 1544 4750 1819 4750 
Q 2544 4750 2975 4387 
Q 3406 4025 3406 3419 
Q 3406 3131 3298 2873 
Q 3191 2616 2906 2266 
Q 2828 2175 2409 1742 
Q 1991 1309 1228 531 
z
" transform="scale(0.015625)"/>
        <path id="DejaVuSans-20" transform="scale(0.015625)"/>
       </defs>
       <use xlink:href="#DejaVuSans-30"/>
       <use xlink:href="#DejaVuSans-35" transform="translate(63.623047 0)"/>
       <use xlink:href="#DejaVuSans-2d" transform="translate(127.246094 0)"/>
       <use xlink:href="#DejaVuSans-32" transform="translate(163.330078 0)"/>
       <use xlink:href="#DejaVuSans-30" transform="translate(226.953125 0)"/>
       <use xlink:href="#DejaVuSans-20" transform="translate(290.576172 0)"/>
       <use xlink:href="#DejaVuSans-30" transform="translate(322.363281 0)"/>
       <use xlink:href="#DejaVuSans-30" transform="translate(385.986328 0)"/>
      </g>
     </g>
    </g>
    <g id="xtick_2">
     <g id="line2d_2">
      <g>
       <use xlink:href="#m6956f9a097" x="236.984237" y="246.04" style="stroke: #000000; stroke-width: 0.8"/>
      </g>
     </g>
     <g id="text_2">
      <!-- 05-20 12 -->
      <g transform="translate(214.503769 260.638438) scale(0.1 -0.1)">
       <defs>
        <path id="DejaVuSans-31" d="M 794 531 
L 1825 531 
L 1825 4091 
L 703 3866 
L 703 4441 
L 1819 4666 
L 2450 4666 
L 2450 531 
L 3481 531 
L 3481 0 
L 794 0 
L 794 531 
z
" transform="scale(0.015625)"/>
       </defs>
       <use xlink:href="#DejaVuSans-30"/>
       <use xlink:href="#DejaVuSans-35" transform="translate(63.623047 0)"/>
       <use xlink:href="#DejaVuSans-2d" transform="translate(127.246094 0)"/>
       <use xlink:href="#DejaVuSans-32" transform="translate(163.330078 0)"/>
       <use xlink:href="#DejaVuSans-30" transform="translate(226.953125 0)"/>
       <use xlink:href="#DejaVuSans-20" transform="translate(290.576172 0)"/>
       <use xlink:href="#DejaVuSans-31" transform="translate(322.363281 0)"/>
       <use xlink:href="#DejaVuSans-32" transform="translate(385.986328 0)"/>
      </g>
     </g>
    </g>
    <g id="xtick_3">
     <g id="line2d_3">
      <g>
       <use xlink:href="#m6956f9a097" x="334.306507" y="246.04" style="stroke: #000000; stroke-width: 0.8"/>
      </g>
     </g>
     <g id="text_3">
      <!-- 05-21 00 -->
      <g transform="translate(311.826038 260.638438) scale(0.1 -0.1)">
       <use xlink:href="#DejaVuSans-30"/>
       <use xlink:href="#DejaVuSans-35" transform="translate(63.623047 0)"/>
       <use xlink:href="#DejaVuSans-2d" transform="translate(127.246094 0)"/>
       <use xlink:href="#DejaVuSans-32" transform="translate(163.330078 0)"/>
       <use xlink:href="#DejaVuSans-31" transform="translate(226.953125 0)"/>
       <use xlink:href="#DejaVuSans-20" transform="translate(290.576172 0)"/>
       <use xlink:href="#DejaVuSans-30" transform="translate(322.363281 0)"/>
       <use xlink:href="#DejaVuSans-30" transform="translate(385.986328 0)"/>
      </g>
     </g>
    </g>
    <g id="xtick_4">
     <g id="line2d_4">
      <g>
       <use xlink:href="#m6956f9a097" x="431.628777" y="246.04" style="stroke: #000000; stroke-width: 0.8"/>
      </g>
     </g>
     <g id="text_4">
      <!-- 05-21 12 -->
      <g transform="translate(409.148308 260.638438) scale(0.1 -0.1)">
       <use xlink:href="#DejaVuSans-30"/>
       <use xlink:href="#DejaVuSans-35" transform="translate(63.623047 0)"/>
       <use xlink:href="#DejaVuSans-2d" transform="translate(127.246094 0)"/>
       <use xlink:href="#DejaVuSans-32" transform="translate(163.330078 0)"/>
       <use xlink:href="#DejaVuSans-31" transform="translate(226.953125 0)"/>
       <use xlink:href="#DejaVuSans-20" transform="translate(290.576172 0)"/>
       <use xlink:href="#DejaVuSans-31" transform="translate(322.363281 0)"/>
       <use xlink:href="#DejaVuSans-32" transform="translate(385.986328 0)"/>
      </g>
     </g>
    </g>
    <g id="xtick_5">
     <g id="line2d_5">
      <g>
       <use xlink:href="#m6956f9a097" x="528.951046" y="246.04" style="stroke: #000000; stroke-width: 0.8"/>
      </g>
     </g>
     <g id="text_5">
      <!-- 05-22 00 -->
      <g transform="translate(506.470578 260.638438) scale(0.1 -0.1)">
       <use xlink:href="#DejaVuSans-30"/>
       <use xlink:href="#DejaVuSans-35" transform="translate(63.623047 0)"/>
       <use xlink:href="#DejaVuSans-2d" transform="translate(127.246094 0)"/>
       <use xlink:href="#DejaVuSans-32" transform="translate(163.330078 0)"/>
       <use xlink:href="#DejaVuSans-32" transform="translate(226.953125 0)"/>
       <use xlink:href="#DejaVuSans-20" transform="translate(290.576172 0)"/>
       <use xlink:href="#DejaVuSans-30" transform="translate(322.363281 0)"/>
       <use xlink:href="#DejaVuSans-30" transform="translate(385.986328 0)"/>
      </g>
     </g>
    </g>
    <g id="xtick_6">
     <g id="line2d_6">
      <g>
       <use xlink:href="#m6956f9a097" x="626.273316" y="246.04" style="stroke: #000000; stroke-width: 0.8"/>
      </g>
     </g>
     <g id="text_6">
      <!-- 05-22 12 -->
      <g transform="translate(603.792847 260.638438) scale(0.1 -0.1)">
       <use xlink:href="#DejaVuSans-30"/>
       <use xlink:href="#DejaVuSans-35" transform="translate(63.623047 0)"/>
       <use xlink:href="#DejaVuSans-2d" transform="translate(127.246094 0)"/>
       <use xlink:href="#DejaVuSans-32" transform="translate(163.330078 0)"/>
       <use xlink:href="#DejaVuSans-32" transform="translate(226.953125 0)"/>
       <use xlink:href="#DejaVuSans-20" transform="translate(290.576172 0)"/>
       <use xlink:href="#DejaVuSans-31" transform="translate(322.363281 0)"/>
       <use xlink:href="#DejaVuSans-32" transform="translate(385.986328 0)"/>
      </g>
     </g>
    </g>
    <g id="text_7">
     <!-- Tijd -->
     <g transform="translate(368.035 274.316562) scale(0.1 -0.1)">
      <defs>
       <path id="DejaVuSans-54" d="M -19 4666 
L 3928 4666 
L 3928 4134 
L 2272 4134 
L 2272 0 
L 1638 0 
L 1638 4134 
L -19 4134 
L -19 4666 
z
" transform="scale(0.015625)"/>
       <path id="DejaVuSans-69" d="M 603 3500 
L 1178 3500 
L 1178 0 
L 603 0 
L 603 3500 
z
M 603 4863 
L 1178 4863 
L 1178 4134 
L 603 4134 
L 603 4863 
z
" transform="scale(0.015625)"/>
       <path id="DejaVuSans-6a" d="M 603 3500 
L 1178 3500 
L 1178 -63 
Q 1178 -731 923 -1031 
Q 669 -1331 103 -1331 
L -116 -1331 
L -116 -844 
L 38 -844 
Q 366 -844 484 -692 
Q 603 -541 603 -63 
L 603 3500 
z
M 603 4863 
L 1178 4863 
L 1178 4134 
L 603 4134 
L 603 4863 
z
" transform="scale(0.015625)"/>
       <path id="DejaVuSans-64" d="M 2906 2969 
L 2906 4863 
L 3481 4863 
L 3481 0 
L 2906 0 
L 2906 525 
Q 2725 213 2448 61 
Q 2172 -91 1784 -91 
Q 1150 -91 751 415 
Q 353 922 353 1747 
Q 353 2572 751 3078 
Q 1150 3584 1784 3584 
Q 2172 3584 2448 3432 
Q 2725 3281 2906 2969 
z
M 947 1747 
Q 947 1113 1208 752 
Q 1469 391 1925 391 
Q 2381 391 2643 752 
Q 2906 1113 2906 1747 
Q 2906 2381 2643 2742 
Q 2381 3103 1925 3103 
Q 1469 3103 1208 2742 
Q 947 2381 947 1747 
z
" transform="scale(0.015625)"/>
      </defs>
      <use xlink:href="#DejaVuSans-54"/>
      <use xlink:href="#DejaVuSans-69" transform="translate(57.958984 0)"/>
      <use xlink:href="#DejaVuSans-6a" transform="translate(85.742188 0)"/>
      <use xlink:href="#DejaVuSans-64" transform="translate(113.525391 0)"/>
     </g>
    </g>
   </g>
   <g id="matplotlib.axis_2">
    <g id="ytick_1">
     <g id="line2d_7">
      <defs>
       <path id="m0938aa463a" d="M 0 0 
L -3.5 0 
" style="stroke: #000000; stroke-width: 0.8"/>
      </defs>
      <g>
       <use xlink:href="#m0938aa463a" x="44.57" y="220.61811" style="stroke: #000000; stroke-width: 0.8"/>
      </g>
     </g>
     <g id="text_8">
      <!-- 40 -->
      <g transform="translate(24.845 224.417329) scale(0.1 -0.1)">
       <defs>
        <path id="DejaVuSans-34" d="M 2419 4116 
L 825 1625 
L 2419 1625 
L 2419 4116 
z
M 2253 4666 
L 3047 4666 
L 3047 1625 
L 3713 1625 
L 3713 1100 
L 3047 1100 
L 3047 0 
L 2419 0 
L 2419 1100 
L 313 1100 
L 313 1709 
L 2253 4666 
z
" transform="scale(0.015625)"/>
       </defs>
       <use xlink:href="#DejaVuSans-34"/>
       <use xlink:href="#DejaVuSans-30" transform="translate(63.623047 0)"/>
      </g>
     </g>
    </g>
    <g id="ytick_2">
     <g id="line2d_8">
      <g>
       <use xlink:href="#m0938aa463a" x="44.57" y="184.64774" style="stroke: #000000; stroke-width: 0.8"/>
      </g>
     </g>
     <g id="text_9">
      <!-- 45 -->
      <g transform="translate(24.845 188.446959) scale(0.1 -0.1)">
       <use xlink:href="#DejaVuSans-34"/>
       <use xlink:href="#DejaVuSans-35" transform="translate(63.623047 0)"/>
      </g>
     </g>
    </g>
    <g id="ytick_3">
     <g id="line2d_9">
      <g>
       <use xlink:href="#m0938aa463a" x="44.57" y="148.677369" style="stroke: #000000; stroke-width: 0.8"/>
      </g>
     </g>
     <g id="text_10">
      <!-- 50 -->
      <g transform="translate(24.845 152.476588) scale(0.1 -0.1)">
       <use xlink:href="#DejaVuSans-35"/>
       <use xlink:href="#DejaVuSans-30" transform="translate(63.623047 0)"/>
      </g>
     </g>
    </g>
    <g id="ytick_4">
     <g id="line2d_10">
      <g>
       <use xlink:href="#m0938aa463a" x="44.57" y="112.706999" style="stroke: #000000; stroke-width: 0.8"/>
      </g>
     </g>
     <g id="text_11">
      <!-- 55 -->
      <g transform="translate(24.845 116.506218) scale(0.1 -0.1)">
       <use xlink:href="#DejaVuSans-35"/>
       <use xlink:href="#DejaVuSans-35" transform="translate(63.623047 0)"/>
      </g>
     </g>
    </g>
    <g id="ytick_5">
     <g id="line2d_11">
      <g>
       <use xlink:href="#m0938aa463a" x="44.57" y="76.736628" style="stroke: #000000; stroke-width: 0.8"/>
      </g>
     </g>
     <g id="text_12">
      <!-- 60 -->
      <g transform="translate(24.845 80.535847) scale(0.1 -0.1)">
       <defs>
        <path id="DejaVuSans-36" d="M 2113 2584 
Q 1688 2584 1439 2293 
Q 1191 2003 1191 1497 
Q 1191 994 1439 701 
Q 1688 409 2113 409 
Q 2538 409 2786 701 
Q 3034 994 3034 1497 
Q 3034 2003 2786 2293 
Q 2538 2584 2113 2584 
z
M 3366 4563 
L 3366 3988 
Q 3128 4100 2886 4159 
Q 2644 4219 2406 4219 
Q 1781 4219 1451 3797 
Q 1122 3375 1075 2522 
Q 1259 2794 1537 2939 
Q 1816 3084 2150 3084 
Q 2853 3084 3261 2657 
Q 3669 2231 3669 1497 
Q 3669 778 3244 343 
Q 2819 -91 2113 -91 
Q 1303 -91 875 529 
Q 447 1150 447 2328 
Q 447 3434 972 4092 
Q 1497 4750 2381 4750 
Q 2619 4750 2861 4703 
Q 3103 4656 3366 4563 
z
" transform="scale(0.015625)"/>
       </defs>
       <use xlink:href="#DejaVuSans-36"/>
       <use xlink:href="#DejaVuSans-30" transform="translate(63.623047 0)"/>
      </g>
     </g>
    </g>
    <g id="ytick_6">
     <g id="line2d_12">
      <g>
       <use xlink:href="#m0938aa463a" x="44.57" y="40.766258" style="stroke: #000000; stroke-width: 0.8"/>
      </g>
     </g>
     <g id="text_13">
      <!-- 65 -->
      <g transform="translate(24.845 44.565477) scale(0.1 -0.1)">
       <use xlink:href="#DejaVuSans-36"/>
       <use xlink:href="#DejaVuSans-35" transform="translate(63.623047 0)"/>
      </g>
     </g>
    </g>
    <g id="text_14">
     <!-- (Rel.) Vochtigheid (%) -->
     <g transform="translate(18.765312 190.838125) rotate(-90) scale(0.1 -0.1)">
      <defs>
       <path id="DejaVuSans-28" d="M 1984 4856 
Q 1566 4138 1362 3434 
Q 1159 2731 1159 2009 
Q 1159 1288 1364 580 
Q 1569 -128 1984 -844 
L 1484 -844 
Q 1016 -109 783 600 
Q 550 1309 550 2009 
Q 550 2706 781 3412 
Q 1013 4119 1484 4856 
L 1984 4856 
z
" transform="scale(0.015625)"/>
       <path id="DejaVuSans-52" d="M 2841 2188 
Q 3044 2119 3236 1894 
Q 3428 1669 3622 1275 
L 4263 0 
L 3584 0 
L 2988 1197 
Q 2756 1666 2539 1819 
Q 2322 1972 1947 1972 
L 1259 1972 
L 1259 0 
L 628 0 
L 628 4666 
L 2053 4666 
Q 2853 4666 3247 4331 
Q 3641 3997 3641 3322 
Q 3641 2881 3436 2590 
Q 3231 2300 2841 2188 
z
M 1259 4147 
L 1259 2491 
L 2053 2491 
Q 2509 2491 2742 2702 
Q 2975 2913 2975 3322 
Q 2975 3731 2742 3939 
Q 2509 4147 2053 4147 
L 1259 4147 
z
" transform="scale(0.015625)"/>
       <path id="DejaVuSans-65" d="M 3597 1894 
L 3597 1613 
L 953 1613 
Q 991 1019 1311 708 
Q 1631 397 2203 397 
Q 2534 397 2845 478 
Q 3156 559 3463 722 
L 3463 178 
Q 3153 47 2828 -22 
Q 2503 -91 2169 -91 
Q 1331 -91 842 396 
Q 353 884 353 1716 
Q 353 2575 817 3079 
Q 1281 3584 2069 3584 
Q 2775 3584 3186 3129 
Q 3597 2675 3597 1894 
z
M 3022 2063 
Q 3016 2534 2758 2815 
Q 2500 3097 2075 3097 
Q 1594 3097 1305 2825 
Q 1016 2553 972 2059 
L 3022 2063 
z
" transform="scale(0.015625)"/>
       <path id="DejaVuSans-6c" d="M 603 4863 
L 1178 4863 
L 1178 0 
L 603 0 
L 603 4863 
z
" transform="scale(0.015625)"/>
       <path id="DejaVuSans-2e" d="M 684 794 
L 1344 794 
L 1344 0 
L 684 0 
L 684 794 
z
" transform="scale(0.015625)"/>
       <path id="DejaVuSans-29" d="M 513 4856 
L 1013 4856 
Q 1481 4119 1714 3412 
Q 1947 2706 1947 2009 
Q 1947 1309 1714 600 
Q 1481 -109 1013 -844 
L 513 -844 
Q 928 -128 1133 580 
Q 1338 1288 1338 2009 
Q 1338 2731 1133 3434 
Q 928 4138 513 4856 
z
" transform="scale(0.015625)"/>
       <path id="DejaVuSans-56" d="M 1831 0 
L 50 4666 
L 709 4666 
L 2188 738 
L 3669 4666 
L 4325 4666 
L 2547 0 
L 1831 0 
z
" transform="scale(0.015625)"/>
       <path id="DejaVuSans-6f" d="M 1959 3097 
Q 1497 3097 1228 2736 
Q 959 2375 959 1747 
Q 959 1119 1226 758 
Q 1494 397 1959 397 
Q 2419 397 2687 759 
Q 2956 1122 2956 1747 
Q 2956 2369 2687 2733 
Q 2419 3097 1959 3097 
z
M 1959 3584 
Q 2709 3584 3137 3096 
Q 3566 2609 3566 1747 
Q 3566 888 3137 398 
Q 2709 -91 1959 -91 
Q 1206 -91 779 398 
Q 353 888 353 1747 
Q 353 2609 779 3096 
Q 1206 3584 1959 3584 
z
" transform="scale(0.015625)"/>
       <path id="DejaVuSans-63" d="M 3122 3366 
L 3122 2828 
Q 2878 2963 2633 3030 
Q 2388 3097 2138 3097 
Q 1578 3097 1268 2742 
Q 959 2388 959 1747 
Q 959 1106 1268 751 
Q 1578 397 2138 397 
Q 2388 397 2633 464 
Q 2878 531 3122 666 
L 3122 134 
Q 2881 22 2623 -34 
Q 2366 -91 2075 -91 
Q 1284 -91 818 406 
Q 353 903 353 1747 
Q 353 2603 823 3093 
Q 1294 3584 2113 3584 
Q 2378 3584 2631 3529 
Q 2884 3475 3122 3366 
z
" transform="scale(0.015625)"/>
       <path id="DejaVuSans-68" d="M 3513 2113 
L 3513 0 
L 2938 0 
L 2938 2094 
Q 2938 2591 2744 2837 
Q 2550 3084 2163 3084 
Q 1697 3084 1428 2787 
Q 1159 2491 1159 1978 
L 1159 0 
L 581 0 
L 581 4863 
L 1159 4863 
L 1159 2956 
Q 1366 3272 1645 3428 
Q 1925 3584 2291 3584 
Q 2894 3584 3203 3211 
Q 3513 2838 3513 2113 
z
" transform="scale(0.015625)"/>
       <path id="DejaVuSans-74" d="M 1172 4494 
L 1172 3500 
L 2356 3500 
L 2356 3053 
L 1172 3053 
L 1172 1153 
Q 1172 725 1289 603 
Q 1406 481 1766 481 
L 2356 481 
L 2356 0 
L 1766 0 
Q 1100 0 847 248 
Q 594 497 594 1153 
L 594 3053 
L 172 3053 
L 172 3500 
L 594 3500 
L 594 4494 
L 1172 4494 
z
" transform="scale(0.015625)"/>
       <path id="DejaVuSans-67" d="M 2906 1791 
Q 2906 2416 2648 2759 
Q 2391 3103 1925 3103 
Q 1463 3103 1205 2759 
Q 947 2416 947 1791 
Q 947 1169 1205 825 
Q 1463 481 1925 481 
Q 2391 481 2648 825 
Q 2906 1169 2906 1791 
z
M 3481 434 
Q 3481 -459 3084 -895 
Q 2688 -1331 1869 -1331 
Q 1566 -1331 1297 -1286 
Q 1028 -1241 775 -1147 
L 775 -588 
Q 1028 -725 1275 -790 
Q 1522 -856 1778 -856 
Q 2344 -856 2625 -561 
Q 2906 -266 2906 331 
L 2906 616 
Q 2728 306 2450 153 
Q 2172 0 1784 0 
Q 1141 0 747 490 
Q 353 981 353 1791 
Q 353 2603 747 3093 
Q 1141 3584 1784 3584 
Q 2172 3584 2450 3431 
Q 2728 3278 2906 2969 
L 2906 3500 
L 3481 3500 
L 3481 434 
z
" transform="scale(0.015625)"/>
       <path id="DejaVuSans-25" d="M 4653 2053 
Q 4381 2053 4226 1822 
Q 4072 1591 4072 1178 
Q 4072 772 4226 539 
Q 4381 306 4653 306 
Q 4919 306 5073 539 
Q 5228 772 5228 1178 
Q 5228 1588 5073 1820 
Q 4919 2053 4653 2053 
z
M 4653 2450 
Q 5147 2450 5437 2106 
Q 5728 1763 5728 1178 
Q 5728 594 5436 251 
Q 5144 -91 4653 -91 
Q 4153 -91 3862 251 
Q 3572 594 3572 1178 
Q 3572 1766 3864 2108 
Q 4156 2450 4653 2450 
z
M 1428 4353 
Q 1159 4353 1004 4120 
Q 850 3888 850 3481 
Q 850 3069 1003 2837 
Q 1156 2606 1428 2606 
Q 1700 2606 1854 2837 
Q 2009 3069 2009 3481 
Q 2009 3884 1853 4118 
Q 1697 4353 1428 4353 
z
M 4250 4750 
L 4750 4750 
L 1831 -91 
L 1331 -91 
L 4250 4750 
z
M 1428 4750 
Q 1922 4750 2215 4408 
Q 2509 4066 2509 3481 
Q 2509 2891 2217 2550 
Q 1925 2209 1428 2209 
Q 931 2209 642 2551 
Q 353 2894 353 3481 
Q 353 4063 643 4406 
Q 934 4750 1428 4750 
z
" transform="scale(0.015625)"/>
      </defs>
      <use xlink:href="#DejaVuSans-28"/>
      <use xlink:href="#DejaVuSans-52" transform="translate(39.013672 0)"/>
      <use xlink:href="#DejaVuSans-65" transform="translate(103.996094 0)"/>
      <use xlink:href="#DejaVuSans-6c" transform="translate(165.519531 0)"/>
      <use xlink:href="#DejaVuSans-2e" transform="translate(193.302734 0)"/>
      <use xlink:href="#DejaVuSans-29" transform="translate(225.089844 0)"/>
      <use xlink:href="#DejaVuSans-20" transform="translate(264.103516 0)"/>
      <use xlink:href="#DejaVuSans-56" transform="translate(295.890625 0)"/>
      <use xlink:href="#DejaVuSans-6f" transform="translate(356.548828 0)"/>
      <use xlink:href="#DejaVuSans-63" transform="translate(417.730469 0)"/>
      <use xlink:href="#DejaVuSans-68" transform="translate(472.710938 0)"/>
      <use xlink:href="#DejaVuSans-74" transform="translate(536.089844 0)"/>
      <use xlink:href="#DejaVuSans-69" transform="translate(575.298828 0)"/>
      <use xlink:href="#DejaVuSans-67" transform="translate(603.082031 0)"/>
      <use xlink:href="#DejaVuSans-68" transform="translate(666.558594 0)"/>
      <use xlink:href="#DejaVuSans-65" transform="translate(729.9375 0)"/>
      <use xlink:href="#DejaVuSans-69" transform="translate(791.460938 0)"/>
      <use xlink:href="#DejaVuSans-64" transform="translate(819.244141 0)"/>
      <use xlink:href="#DejaVuSans-20" transform="translate(882.720703 0)"/>
      <use xlink:href="#DejaVuSans-28" transform="translate(914.507812 0)"/>
      <use xlink:href="#DejaVuSans-25" transform="translate(953.521484 0)"/>
      <use xlink:href="#DejaVuSans-29" transform="translate(1048.541016 0)"/>
     </g>
    </g>
   </g>
   <g id="line2d_13">
    <path d="M 74.780455 148.677369 
L 78.835549 167.621764 
L 82.890644 173.137221 
L 86.945738 170.019789 
L 91.000833 174.93574 
L 95.055927 171.338703 
L 99.111022 161.3869 
L 103.166117 165.703345 
L 107.221211 162.825715 
L 111.276306 165.943147 
L 115.3314 159.948085 
L 119.386495 157.310258 
L 123.441589 161.866505 
L 127.496684 166.662555 
L 131.551779 162.825715 
L 135.606873 153.233616 
L 139.661968 149.156974 
L 143.717062 149.156974 
L 147.772157 160.42769 
L 151.827251 155.391838 
L 155.882346 157.070456 
L 159.937441 156.111246 
L 163.992535 158.988876 
L 168.04763 147.478357 
L 172.102724 164.504332 
L 176.157819 146.75895 
L 180.212913 172.417814 
L 184.268008 172.657616 
L 188.323103 165.463542 
L 192.378197 161.147098 
L 196.433292 163.30532 
L 200.488386 168.101369 
L 204.543481 176.974061 
L 208.598575 176.014851 
L 212.65367 179.132283 
L 216.708764 173.137221 
L 220.763859 191.362209 
L 224.818954 190.402999 
L 228.874048 196.398061 
L 232.929143 188.244777 
L 236.984237 171.458604 
L 241.039332 185.60695 
L 245.094426 178.412876 
L 249.149521 187.045764 
L 253.204616 176.014851 
L 257.25971 168.820777 
L 261.314805 164.024727 
L 265.369899 163.545122 
L 269.424994 166.902357 
L 273.480088 166.662555 
L 277.535183 176.974061 
L 281.590278 173.616826 
L 285.645372 159.948085 
L 289.700467 158.029666 
L 293.755561 161.626703 
L 297.810656 139.085271 
L 301.86575 123.737913 
L 305.920845 137.886258 
L 309.97594 144.360925 
L 314.031034 139.564875 
L 318.086129 135.248431 
L 322.141223 144.360925 
L 326.196318 147.238555 
L 330.251412 154.432629 
L 334.306507 134.529024 
L 338.361602 160.667493 
L 342.416696 139.564875 
L 346.471791 158.749073 
L 350.526885 138.845468 
L 354.58198 129.013567 
L 358.637074 131.411592 
L 362.692169 138.605666 
L 370.802358 136.687246 
L 374.857453 148.437567 
L 378.912547 150.835592 
L 382.967642 136.207641 
L 387.022736 146.279345 
L 391.077831 131.411592 
L 395.132926 146.519147 
L 399.18802 165.22374 
L 403.243115 144.600727 
L 407.298209 157.550061 
L 411.353304 149.636579 
L 415.408398 150.116184 
L 419.463493 168.341172 
L 423.518588 175.295443 
L 427.573682 167.381962 
L 431.628777 171.218801 
L 435.683871 176.734258 
L 439.738966 175.295443 
L 443.79406 179.611888 
L 447.849155 164.983937 
L 451.90425 146.998752 
L 455.959344 154.912234 
L 460.014439 146.039542 
L 464.069533 128.773764 
L 468.124628 132.130999 
L 472.179722 149.156974 
L 476.234817 139.564875 
L 480.289912 123.977715 
L 484.345006 141.9629 
L 488.400101 142.442505 
L 492.455195 126.615542 
L 496.51029 136.447443 
L 500.565384 135.248431 
L 504.620479 133.569814 
L 508.675574 127.814554 
L 512.730668 143.401715 
L 516.785763 142.202703 
L 520.840857 146.998752 
L 524.895952 148.917172 
L 528.951046 142.442505 
L 533.006141 129.013567 
L 537.061236 130.931987 
L 541.11633 136.927048 
L 545.171425 133.090209 
L 549.226519 136.447443 
L 553.281614 127.814554 
L 557.336708 141.9629 
L 561.391803 131.411592 
L 565.446897 136.687246 
L 569.501992 147.478357 
L 573.557087 130.212579 
L 577.612181 137.886258 
L 581.667276 137.646456 
L 585.72237 147.957962 
L 589.777465 134.768826 
L 593.832559 138.126061 
L 597.887654 135.728036 
L 601.942749 161.3869 
L 605.997843 158.029666 
L 610.052938 149.156974 
L 614.108032 155.51174 
L 618.163127 141.723098 
L 622.218221 142.202703 
L 626.273316 139.684777 
L 630.328411 139.085271 
L 634.383505 141.483295 
L 638.4386 125.656332 
L 642.493694 128.294159 
L 646.548789 129.493172 
L 650.603883 126.135937 
L 654.658978 129.253369 
L 658.714073 146.519147 
L 662.769167 162.34611 
L 666.824262 147.718159 
L 670.879356 129.253369 
L 674.934451 146.519147 
L 678.989545 151.914703 
L 678.989545 151.914703 
" clip-path="url(#p0a4e9cce4f)" style="fill: none; stroke: #1f77b4; stroke-width: 2; stroke-linecap: square"/>
   </g>
   <g id="line2d_14">
    <path d="M 74.780455 122.984248 
L 78.835549 132.867535 
L 82.890644 132.970308 
L 86.945738 133.741101 
L 91.000833 134.272092 
L 95.055927 146.159443 
L 99.111022 136.567345 
L 103.166117 136.567345 
L 107.221211 139.005336 
L 111.276306 139.964546 
L 115.3314 138.006159 
L 123.441589 136.007806 
L 127.496684 136.847114 
L 131.551779 134.808793 
L 135.606873 140.404184 
L 139.661968 135.208464 
L 143.717062 133.809616 
L 147.772157 146.75895 
L 151.827251 136.399483 
L 155.882346 140.04448 
L 159.937441 132.570637 
L 163.992535 143.301797 
L 168.04763 134.449089 
L 172.102724 155.199997 
L 176.157819 140.444151 
L 180.212913 142.542423 
L 184.268008 149.300856 
L 188.323103 145.559937 
L 192.378197 135.368332 
L 196.433292 140.444151 
L 200.488386 143.341764 
L 204.543481 140.084448 
L 208.598575 134.009452 
L 212.65367 138.265945 
L 216.708764 144.680662 
L 220.763859 139.02532 
L 224.818954 136.467427 
L 228.874048 142.262653 
L 232.929143 141.28346 
L 236.984237 135.46825 
L 245.094426 124.637172 
L 249.149521 133.282051 
L 253.204616 124.657155 
L 257.25971 121.739559 
L 261.314805 124.417353 
L 265.369899 133.689715 
L 269.424994 129.732974 
L 273.480088 128.913649 
L 277.535183 128.833715 
L 281.590278 136.047773 
L 285.645372 138.126061 
L 289.700467 135.208464 
L 293.755561 139.325073 
L 297.810656 130.252546 
L 301.86575 140.004513 
L 305.920845 135.048596 
L 309.97594 141.043657 
L 314.031034 134.449089 
L 318.086129 137.286752 
L 322.141223 133.170143 
L 326.196318 133.250077 
L 330.251412 134.289221 
L 334.306507 134.209287 
L 338.361602 141.443328 
L 342.416696 142.482472 
L 346.471791 141.443328 
L 350.526885 133.569814 
L 354.58198 128.034373 
L 358.637074 125.496464 
L 362.692169 132.490703 
L 366.747264 138.305913 
L 370.802358 131.651394 
L 374.857453 139.424991 
L 378.912547 136.267592 
L 382.967642 133.689715 
L 387.022736 133.509863 
L 391.077831 131.29169 
L 395.132926 136.107723 
L 399.18802 142.222686 
L 403.243115 136.407476 
L 407.298209 142.002867 
L 411.353304 137.226801 
L 415.408398 136.827131 
L 419.463493 139.724744 
L 423.518588 139.245139 
L 427.573682 129.013567 
L 431.628777 131.131822 
L 435.683871 132.450736 
L 439.738966 129.752958 
L 443.79406 130.132645 
L 447.849155 130.672201 
L 451.90425 134.568991 
L 455.959344 136.247608 
L 460.014439 142.562406 
L 464.069533 135.967838 
L 468.124628 138.485764 
L 472.179722 135.440273 
L 476.234817 137.086917 
L 480.289912 135.927871 
L 484.345006 140.643987 
L 488.400101 140.803855 
L 492.455195 134.728859 
L 496.51029 139.564875 
L 500.565384 142.082801 
L 504.620479 137.686423 
L 508.675574 132.850406 
L 512.730668 131.891196 
L 516.785763 139.045303 
L 520.840857 136.847114 
L 524.895952 145.599904 
L 528.951046 144.984411 
L 533.006141 138.126061 
L 537.061236 140.04448 
L 541.11633 141.00369 
L 545.171425 141.483295 
L 549.226519 136.187657 
L 553.281614 135.947855 
L 557.336708 132.310851 
L 561.391803 132.510686 
L 565.446897 144.56076 
L 569.501992 139.484941 
L 573.557087 136.247608 
L 577.612181 139.464958 
L 581.667276 143.241847 
L 585.72237 144.600727 
L 589.777465 142.602373 
L 593.832559 138.945386 
L 597.887654 137.366686 
L 601.942749 146.718983 
L 605.997843 140.144398 
L 610.052938 144.480826 
L 614.108032 148.297682 
L 618.163127 144.420876 
L 622.218221 142.562406 
L 626.273316 140.544069 
L 630.328411 134.888727 
L 634.383505 145.280168 
L 638.4386 146.698999 
L 642.493694 139.844645 
L 646.548789 142.122769 
L 650.603883 139.02532 
L 654.658978 138.525731 
L 658.714073 136.867098 
L 662.769167 138.645633 
L 666.824262 142.322604 
L 670.879356 143.161913 
L 674.934451 131.051888 
L 678.989545 136.267592 
L 678.989545 136.267592 
" clip-path="url(#p0a4e9cce4f)" style="fill: none; stroke-dasharray: 5.55,2.4; stroke-dashoffset: 0; stroke: #808080; stroke-width: 1.5"/>
   </g>
   <g id="patch_3">
    <path d="M 44.57 246.04 
L 44.57 26.88 
" style="fill: none; stroke: #000000; stroke-width: 0.8; stroke-linejoin: miter; stroke-linecap: square"/>
   </g>
   <g id="patch_4">
    <path d="M 709.2 246.04 
L 709.2 26.88 
" style="fill: none; stroke: #000000; stroke-width: 0.8; stroke-linejoin: miter; stroke-linecap: square"/>
   </g>
   <g id="patch_5">
    <path d="M 44.57 246.04 
L 709.2 246.04 
" style="fill: none; stroke: #000000; stroke-width: 0.8; stroke-linejoin: miter; stroke-linecap: square"/>
   </g>
   <g id="patch_6">
    <path d="M 44.57 26.88 
L 709.2 26.88 
" style="fill: none; stroke: #000000; stroke-width: 0.8; stroke-linejoin: miter; stroke-linecap: square"/>
   </g>
   <g id="text_15">
    <!-- Luchtvochtigheid - v001/c00001/d001 -->
    <g transform="translate(262.595312 20.88) scale(0.12 -0.12)">
     <defs>
      <path id="DejaVuSans-4c" d="M 628 4666 
L 1259 4666 
L 1259 531 
L 3531 531 
L 3531 0 
L 628 0 
L 628 4666 
z
" transform="scale(0.015625)"/>
      <path id="DejaVuSans-75" d="M 544 1381 
L 544 3500 
L 1119 3500 
L 1119 1403 
Q 1119 906 1312 657 
Q 1506 409 1894 409 
Q 2359 409 2629 706 
Q 2900 1003 2900 1516 
L 2900 3500 
L 3475 3500 
L 3475 0 
L 2900 0 
L 2900 538 
Q 2691 219 2414 64 
Q 2138 -91 1772 -91 
Q 1169 -91 856 284 
Q 544 659 544 1381 
z
M 1991 3584 
L 1991 3584 
z
" transform="scale(0.015625)"/>
      <path id="DejaVuSans-76" d="M 191 3500 
L 800 3500 
L 1894 563 
L 2988 3500 
L 3597 3500 
L 2284 0 
L 1503 0 
L 191 3500 
z
" transform="scale(0.015625)"/>
      <path id="DejaVuSans-2f" d="M 1625 4666 
L 2156 4666 
L 531 -594 
L 0 -594 
L 1625 4666 
z
" transform="scale(0.015625)"/>
     </defs>
     <use xlink:href="#DejaVuSans-4c"/>
     <use xlink:href="#DejaVuSans-75" transform="translate(53.962891 0)"/>
     <use xlink:href="#DejaVuSans-63" transform="translate(117.341797 0)"/>
     <use xlink:href="#DejaVuSans-68" transform="translate(172.322266 0)"/>
     <use xlink:href="#DejaVuSans-74" transform="translate(235.701172 0)"/>
     <use xlink:href="#DejaVuSans-76" transform="translate(274.910156 0)"/>
     <use xlink:href="#DejaVuSans-6f" transform="translate(334.089844 0)"/>
     <use xlink:href="#DejaVuSans-63" transform="translate(395.271484 0)"/>
     <use xlink:href="#DejaVuSans-68" transform="translate(450.251953 0)"/>
     <use xlink:href="#DejaVuSans-74" transform="translate(513.630859 0)"/>
     <use xlink:href="#DejaVuSans-69" transform="translate(552.839844 0)"/>
     <use xlink:href="#DejaVuSans-67" transform="translate(580.623047 0)"/>
     <use xlink:href="#DejaVuSans-68" transform="translate(644.099609 0)"/>
     <use xlink:href="#DejaVuSans-65" transform="translate(707.478516 0)"/>
     <use xlink:href="#DejaVuSans-69" transform="translate(769.001953 0)"/>
     <use xlink:href="#DejaVuSans-64" transform="translate(796.785156 0)"/>
     <use xlink:href="#DejaVuSans-20" transform="translate(860.261719 0)"/>
     <use xlink:href="#DejaVuSans-2d" transform="translate(892.048828 0)"/>
     <use xlink:href="#DejaVuSans-20" transform="translate(928.132812 0)"/>
     <use xlink:href="#DejaVuSans-76" transform="translate(959.919922 0)"/>
     <use xlink:href="#DejaVuSans-30" transform="translate(1019.099609 0)"/>
     <use xlink:href="#DejaVuSans-30" transform="translate(1082.722656 0)"/>
     <use xlink:href="#DejaVuSans-31" transform="translate(1146.345703 0)"/>
     <use xlink:href="#DejaVuSans-2f" transform="translate(1209.96875 0)"/>
     <use xlink:href="#DejaVuSans-63" transform="translate(1243.660156 0)"/>
     <use xlink:href="#DejaVuSans-30" transform="translate(1298.640625 0)"/>
     <use xlink:href="#DejaVuSans-30" transform="translate(1362.263672 0)"/>
     <use xlink:href="#DejaVuSans-30" transform="translate(1425.886719 0)"/>
     <use xlink:href="#DejaVuSans-30" transform="translate(1489.509766 0)"/>
     <use xlink:href="#DejaVuSans-31" transform="translate(1553.132812 0)"/>
     <use xlink:href="#DejaVuSans-2f" transform="translate(1616.755859 0)"/>
     <use xlink:href="#DejaVuSans-64" transform="translate(1650.447266 0)"/>
     <use xlink:href="#DejaVuSans-30" transform="translate(1713.923828 0)"/>
     <use xlink:href="#DejaVuSans-30" transform="translate(1777.546875 0)"/>
     <use xlink:href="#DejaVuSans-31" transform="translate(1841.169922 0)"/>
    </g>
   </g>
   <g id="legend_1">
    <g id="patch_7">
     <path d="M 551.25625 78.914375 
L 702.2 78.914375 
Q 704.2 78.914375 704.2 76.914375 
L 704.2 33.88 
Q 704.2 31.88 702.2 31.88 
L 551.25625 31.88 
Q 549.25625 31.88 549.25625 33.88 
L 549.25625 76.914375 
Q 549.25625 78.914375 551.25625 78.914375 
z
" style="fill: #ffffff; opacity: 0.8; stroke: #cccccc; stroke-linejoin: miter"/>
    </g>
    <g id="line2d_15">
     <path d="M 553.25625 39.978438 
L 563.25625 39.978438 
L 573.25625 39.978438 
" style="fill: none; stroke: #1f77b4; stroke-width: 2; stroke-linecap: square"/>
    </g>
    <g id="text_16">
     <!-- Hive -->
     <g transform="translate(581.25625 43.478438) scale(0.1 -0.1)">
      <defs>
       <path id="DejaVuSans-48" d="M 628 4666 
L 1259 4666 
L 1259 2753 
L 3553 2753 
L 3553 4666 
L 4184 4666 
L 4184 0 
L 3553 0 
L 3553 2222 
L 1259 2222 
L 1259 0 
L 628 0 
L 628 4666 
z
" transform="scale(0.015625)"/>
      </defs>
      <use xlink:href="#DejaVuSans-48"/>
      <use xlink:href="#DejaVuSans-69" transform="translate(75.195312 0)"/>
      <use xlink:href="#DejaVuSans-76" transform="translate(102.978516 0)"/>
      <use xlink:href="#DejaVuSans-65" transform="translate(162.158203 0)"/>
     </g>
    </g>
    <g id="line2d_16">
     <path d="M 553.25625 54.656563 
L 563.25625 54.656563 
L 573.25625 54.656563 
" style="fill: none; stroke-dasharray: 5.55,2.4; stroke-dashoffset: 0; stroke: #808080; stroke-width: 1.5"/>
    </g>
    <g id="text_17">
     <!-- Gemiddelde (alle hives) -->
     <g transform="translate(581.25625 58.156563) scale(0.1 -0.1)">
      <defs>
       <path id="DejaVuSans-47" d="M 3809 666 
L 3809 1919 
L 2778 1919 
L 2778 2438 
L 4434 2438 
L 4434 434 
Q 4069 175 3628 42 
Q 3188 -91 2688 -91 
Q 1594 -91 976 548 
Q 359 1188 359 2328 
Q 359 3472 976 4111 
Q 1594 4750 2688 4750 
Q 3144 4750 3555 4637 
Q 3966 4525 4313 4306 
L 4313 3634 
Q 3963 3931 3569 4081 
Q 3175 4231 2741 4231 
Q 1884 4231 1454 3753 
Q 1025 3275 1025 2328 
Q 1025 1384 1454 906 
Q 1884 428 2741 428 
Q 3075 428 3337 486 
Q 3600 544 3809 666 
z
" transform="scale(0.015625)"/>
       <path id="DejaVuSans-6d" d="M 3328 2828 
Q 3544 3216 3844 3400 
Q 4144 3584 4550 3584 
Q 5097 3584 5394 3201 
Q 5691 2819 5691 2113 
L 5691 0 
L 5113 0 
L 5113 2094 
Q 5113 2597 4934 2840 
Q 4756 3084 4391 3084 
Q 3944 3084 3684 2787 
Q 3425 2491 3425 1978 
L 3425 0 
L 2847 0 
L 2847 2094 
Q 2847 2600 2669 2842 
Q 2491 3084 2119 3084 
Q 1678 3084 1418 2786 
Q 1159 2488 1159 1978 
L 1159 0 
L 581 0 
L 581 3500 
L 1159 3500 
L 1159 2956 
Q 1356 3278 1631 3431 
Q 1906 3584 2284 3584 
Q 2666 3584 2933 3390 
Q 3200 3197 3328 2828 
z
" transform="scale(0.015625)"/>
       <path id="DejaVuSans-61" d="M 2194 1759 
Q 1497 1759 1228 1600 
Q 959 1441 959 1056 
Q 959 750 1161 570 
Q 1363 391 1709 391 
Q 2188 391 2477 730 
Q 2766 1069 2766 1631 
L 2766 1759 
L 2194 1759 
z
M 3341 1997 
L 3341 0 
L 2766 0 
L 2766 531 
Q 2569 213 2275 61 
Q 1981 -91 1556 -91 
Q 1019 -91 701 211 
Q 384 513 384 1019 
Q 384 1609 779 1909 
Q 1175 2209 1959 2209 
L 2766 2209 
L 2766 2266 
Q 2766 2663 2505 2880 
Q 2244 3097 1772 3097 
Q 1472 3097 1187 3025 
Q 903 2953 641 2809 
L 641 3341 
Q 956 3463 1253 3523 
Q 1550 3584 1831 3584 
Q 2591 3584 2966 3190 
Q 3341 2797 3341 1997 
z
" transform="scale(0.015625)"/>
       <path id="DejaVuSans-73" d="M 2834 3397 
L 2834 2853 
Q 2591 2978 2328 3040 
Q 2066 3103 1784 3103 
Q 1356 3103 1142 2972 
Q 928 2841 928 2578 
Q 928 2378 1081 2264 
Q 1234 2150 1697 2047 
L 1894 2003 
Q 2506 1872 2764 1633 
Q 3022 1394 3022 966 
Q 3022 478 2636 193 
Q 2250 -91 1575 -91 
Q 1294 -91 989 -36 
Q 684 19 347 128 
L 347 722 
Q 666 556 975 473 
Q 1284 391 1588 391 
Q 1994 391 2212 530 
Q 2431 669 2431 922 
Q 2431 1156 2273 1281 
Q 2116 1406 1581 1522 
L 1381 1569 
Q 847 1681 609 1914 
Q 372 2147 372 2553 
Q 372 3047 722 3315 
Q 1072 3584 1716 3584 
Q 2034 3584 2315 3537 
Q 2597 3491 2834 3397 
z
" transform="scale(0.015625)"/>
      </defs>
      <use xlink:href="#DejaVuSans-47"/>
      <use xlink:href="#DejaVuSans-65" transform="translate(77.490234 0)"/>
      <use xlink:href="#DejaVuSans-6d" transform="translate(139.013672 0)"/>
      <use xlink:href="#DejaVuSans-69" transform="translate(236.425781 0)"/>
      <use xlink:href="#DejaVuSans-64" transform="translate(264.208984 0)"/>
      <use xlink:href="#DejaVuSans-64" transform="translate(327.685547 0)"/>
      <use xlink:href="#DejaVuSans-65" transform="translate(391.162109 0)"/>
      <use xlink:href="#DejaVuSans-6c" transform="translate(452.685547 0)"/>
      <use xlink:href="#DejaVuSans-64" transform="translate(480.46875 0)"/>
      <use xlink:href="#DejaVuSans-65" transform="translate(543.945312 0)"/>
      <use xlink:href="#DejaVuSans-20" transform="translate(605.46875 0)"/>
      <use xlink:href="#DejaVuSans-28" transform="translate(637.255859 0)"/>
      <use xlink:href="#DejaVuSans-61" transform="translate(676.269531 0)"/>
      <use xlink:href="#DejaVuSans-6c" transform="translate(737.548828 0)"/>
      <use xlink:href="#DejaVuSans-6c" transform="translate(765.332031 0)"/>
      <use xlink:href="#DejaVuSans-65" transform="translate(793.115234 0)"/>
      <use xlink:href="#DejaVuSans-20" transform="translate(854.638672 0)"/>
      <use xlink:href="#DejaVuSans-68" transform="translate(886.425781 0)"/>
      <use xlink:href="#DejaVuSans-69" transform="translate(949.804688 0)"/>
      <use xlink:href="#DejaVuSans-76" transform="translate(977.587891 0)"/>
      <use xlink:href="#DejaVuSans-65" transform="translate(1036.767578 0)"/>
      <use xlink:href="#DejaVuSans-73" transform="translate(1098.291016 0)"/>
      <use xlink:href="#DejaVuSans-29" transform="translate(1150.390625 0)"/>
     </g>
    </g>
    <g id="patch_8">
     <path d="M 553.25625 72.834688 
L 573.25625 72.834688 
L 573.25625 65.834688 
L 553.25625 65.834688 
z
" style="fill: #808080; fill-opacity: 0.2; stroke: #808080; stroke-opacity: 0.2; stroke-linejoin: miter"/>
    </g>
    <g id="text_18">
     <!-- ±2 Std Dev -->
     <g transform="translate(581.25625 72.834688) scale(0.1 -0.1)">
      <defs>
       <path id="DejaVuSans-b1" d="M 2944 4013 
L 2944 2803 
L 4684 2803 
L 4684 2272 
L 2944 2272 
L 2944 1063 
L 2419 1063 
L 2419 2272 
L 678 2272 
L 678 2803 
L 2419 2803 
L 2419 4013 
L 2944 4013 
z
M 678 531 
L 4684 531 
L 4684 0 
L 678 0 
L 678 531 
z
" transform="scale(0.015625)"/>
       <path id="DejaVuSans-53" d="M 3425 4513 
L 3425 3897 
Q 3066 4069 2747 4153 
Q 2428 4238 2131 4238 
Q 1616 4238 1336 4038 
Q 1056 3838 1056 3469 
Q 1056 3159 1242 3001 
Q 1428 2844 1947 2747 
L 2328 2669 
Q 3034 2534 3370 2195 
Q 3706 1856 3706 1288 
Q 3706 609 3251 259 
Q 2797 -91 1919 -91 
Q 1588 -91 1214 -16 
Q 841 59 441 206 
L 441 856 
Q 825 641 1194 531 
Q 1563 422 1919 422 
Q 2459 422 2753 634 
Q 3047 847 3047 1241 
Q 3047 1584 2836 1778 
Q 2625 1972 2144 2069 
L 1759 2144 
Q 1053 2284 737 2584 
Q 422 2884 422 3419 
Q 422 4038 858 4394 
Q 1294 4750 2059 4750 
Q 2388 4750 2728 4690 
Q 3069 4631 3425 4513 
z
" transform="scale(0.015625)"/>
       <path id="DejaVuSans-44" d="M 1259 4147 
L 1259 519 
L 2022 519 
Q 2988 519 3436 956 
Q 3884 1394 3884 2338 
Q 3884 3275 3436 3711 
Q 2988 4147 2022 4147 
L 1259 4147 
z
M 628 4666 
L 1925 4666 
Q 3281 4666 3915 4102 
Q 4550 3538 4550 2338 
Q 4550 1131 3912 565 
Q 3275 0 1925 0 
L 628 0 
L 628 4666 
z
" transform="scale(0.015625)"/>
      </defs>
      <use xlink:href="#DejaVuSans-b1"/>
      <use xlink:href="#DejaVuSans-32" transform="translate(83.789062 0)"/>
      <use xlink:href="#DejaVuSans-20" transform="translate(147.412109 0)"/>
      <use xlink:href="#DejaVuSans-53" transform="translate(179.199219 0)"/>
      <use xlink:href="#DejaVuSans-74" transform="translate(242.675781 0)"/>
      <use xlink:href="#DejaVuSans-64" transform="translate(281.884766 0)"/>
      <use xlink:href="#DejaVuSans-20" transform="translate(345.361328 0)"/>
      <use xlink:href="#DejaVuSans-44" transform="translate(377.148438 0)"/>
      <use xlink:href="#DejaVuSans-65" transform="translate(454.150391 0)"/>
      <use xlink:href="#DejaVuSans-76" transform="translate(515.673828 0)"/>
     </g>
    </g>
   </g>
  </g>
 </g>
 <defs>
  <clipPath id="p0a4e9cce4f">
   <rect x="44.57" y="26.88" width="664.63" height="219.16"/>
  </clipPath>
 </defs>
</svg>
