<?xml version="1.0" encoding="utf-8" standalone="no"?>
<!DOCTYPE svg PUBLIC "-//W3C//DTD SVG 1.1//EN"
  "http://www.w3.org/Graphics/SVG/1.1/DTD/svg11.dtd">
<svg xmlns:xlink="http://www.w3.org/1999/xlink" width="720pt" height="288pt" viewBox="0 0 720 288" xmlns="http://www.w3.org/2000/svg" version="1.1">
 <metadata>
  <rdf:RDF xmlns:dc="http://purl.org/dc/elements/1.1/" xmlns:cc="http://creativecommons.org/ns#" xmlns:rdf="http://www.w3.org/1999/02/22-rdf-syntax-ns#">
   <cc:Work>
    <dc:type rdf:resource="http://purl.org/dc/dcmitype/StillImage"/>
    <dc:date>2025-06-14T09:17:01.635879</dc:date>
    <dc:format>image/svg+xml</dc:format>
    <dc:creator>
     <cc:Agent>
      <dc:title>Matplotlib v3.10.3, https://matplotlib.org/</dc:title>
     </cc:Agent>
    </dc:creator>
   </cc:Work>
  </rdf:RDF>
 </metadata>
 <defs>
  <style type="text/css">*{stroke-linejoin: round; stroke-linecap: butt}</style>
 </defs>
 <g id="figure_1">
  <g id="patch_1">
   <path d="M 0 288 
L 720 288 
L 720 0 
L 0 0 
z
" style="fill: #ffffff"/>
  </g>
  <g id="axes_1">
   <g id="patch_2">
    <path d="M 44.57 246.04 
L 709.2 246.04 
L 709.2 26.88 
L 44.57 26.88 
z
" style="fill: #ffffff"/>
   </g>
   <g id="FillBetweenPolyCollection_1">
    <defs>
     <path id="m9e31e07ecb" d="M 74.780455 -91.903725 
L 74.780455 -70.591372 
L 78.442328 -69.198253 
L 82.104201 -67.422403 
L 85.766074 -64.878163 
L 89.427948 -68.494477 
L 93.089821 -69.743156 
L 96.751694 -70.419382 
L 100.413567 -64.081675 
L 104.075441 -63.198555 
L 107.737314 -66.755192 
L 111.399187 -57.731287 
L 115.061061 -55.103099 
L 118.722934 -63.294069 
L 122.384807 -64.553871 
L 126.04668 -65.883549 
L 129.708554 -58.637153 
L 133.370427 -51.921818 
L 137.0323 -54.330044 
L 140.694174 -64.820041 
L 144.356047 -93.884755 
L 148.01792 -86.884678 
L 151.679793 -77.226315 
L 155.341667 -69.175137 
L 159.00354 -82.584368 
L 162.665413 -80.110706 
L 166.327287 -81.946989 
L 169.98916 -88.090748 
L 173.651033 -83.366009 
L 177.312906 -68.122844 
L 180.97478 -65.892966 
L 184.636653 -61.909274 
L 188.298526 -57.490105 
L 191.960399 -56.580033 
L 195.622273 -57.818097 
L 199.284146 -55.73478 
L 202.946019 -57.925147 
L 206.607893 -66.004675 
L 210.269766 -69.334048 
L 213.931639 -73.397296 
L 217.593512 -74.06344 
L 221.255386 -74.991623 
L 224.917259 -75.939767 
L 228.579132 -77.316156 
L 232.241006 -79.008312 
L 235.902879 -80.032073 
L 239.564752 -81.818501 
L 243.226625 -82.74295 
L 246.888499 -85.122158 
L 250.550372 -85.739313 
L 254.212245 -84.917712 
L 257.874118 -83.446985 
L 261.535992 -82.465551 
L 265.197865 -81.28109 
L 268.859738 -80.646244 
L 272.521612 -79.786478 
L 276.183485 -87.664011 
L 279.845358 -78.261442 
L 283.507231 -77.539301 
L 287.169105 -78.819347 
L 290.830978 -74.210706 
L 294.492851 -82.721703 
L 298.154725 -85.508571 
L 301.816598 -88.694942 
L 305.478471 -79.175045 
L 309.140344 -74.598946 
L 312.802218 -74.791684 
L 316.464091 -87.071846 
L 320.125964 -107.074721 
L 323.787837 -108.524246 
L 327.449711 -93.723526 
L 331.111584 -101.958035 
L 334.773457 -104.877292 
L 338.435331 -116.390653 
L 342.097204 -114.197663 
L 345.759077 -117.792895 
L 349.42095 -121.011251 
L 353.082824 -97.241284 
L 356.744697 -91.611115 
L 360.40657 -89.94799 
L 364.068444 -87.76295 
L 367.730317 -109.945673 
L 371.39219 -107.989462 
L 375.054063 -81.884284 
L 378.715937 -87.736706 
L 382.37781 -89.695771 
L 386.039683 -89.46439 
L 389.701556 -91.004728 
L 393.36343 -90.181547 
L 397.025303 -87.530152 
L 400.687176 -89.959764 
L 404.34905 -90.574751 
L 408.010923 -92.030576 
L 411.672796 -95.335707 
L 415.334669 -95.685944 
L 418.996543 -96.45893 
L 422.658416 -97.160378 
L 426.320289 -97.88612 
L 429.982163 -98.392329 
L 433.644036 -99.475837 
L 437.305909 -99.408716 
L 440.967782 -99.532615 
L 444.629656 -99.752827 
L 448.291529 -100.589999 
L 451.953402 -99.786813 
L 455.615275 -98.732057 
L 459.277149 -97.574857 
L 462.939022 -99.993921 
L 466.600895 -104.958044 
L 470.262769 -105.277857 
L 473.924642 -104.135362 
L 477.586515 -104.69824 
L 481.248388 -105.718181 
L 484.910262 -97.283606 
L 488.572135 -93.684609 
L 492.234008 -107.173409 
L 495.895882 -125.452747 
L 499.557755 -154.741903 
L 503.219628 -136.270895 
L 506.881501 -118.524175 
L 510.543375 -125.70343 
L 514.205248 -127.81603 
L 517.867121 -130.785348 
L 521.528994 -134.174957 
L 525.190868 -130.237755 
L 528.852741 -102.945342 
L 532.514614 -92.760555 
L 536.176488 -86.55429 
L 539.838361 -82.987654 
L 543.500234 -80.921617 
L 547.162107 -101.245921 
L 550.823981 -100.952546 
L 554.485854 -92.1186 
L 558.147727 -86.724339 
L 561.809601 -92.289745 
L 565.471474 -98.98039 
L 569.133347 -99.862209 
L 572.79522 -101.040339 
L 576.457094 -101.890462 
L 580.118967 -101.7023 
L 583.78084 -101.694091 
L 587.442713 -103.300432 
L 591.104587 -113.635662 
L 594.76646 -105.152963 
L 598.428333 -105.709197 
L 602.090207 -104.473355 
L 605.75208 -104.99038 
L 609.413953 -104.712687 
L 613.075826 -108.129223 
L 616.7377 -105.400141 
L 620.399573 -107.160443 
L 624.061446 -107.965603 
L 627.72332 -105.892377 
L 631.385193 -114.565561 
L 635.047066 -114.397329 
L 638.708939 -115.686725 
L 642.370813 -101.78904 
L 646.032686 -107.227655 
L 649.694559 -102.258355 
L 653.356433 -95.81298 
L 657.018306 -92.14008 
L 657.018306 -171.267113 
L 657.018306 -171.267113 
L 653.356433 -160.394602 
L 649.694559 -164.348665 
L 646.032686 -153.253982 
L 642.370813 -164.040879 
L 638.708939 -156.826261 
L 635.047066 -152.685093 
L 631.385193 -147.826829 
L 627.72332 -160.723785 
L 624.061446 -152.561746 
L 620.399573 -152.022978 
L 616.7377 -146.350539 
L 613.075826 -145.95276 
L 609.413953 -138.727585 
L 605.75208 -141.754856 
L 602.090207 -143.026126 
L 598.428333 -145.630076 
L 594.76646 -147.786224 
L 591.104587 -134.52207 
L 587.442713 -156.906933 
L 583.78084 -161.804526 
L 580.118967 -169.087351 
L 576.457094 -169.927704 
L 572.79522 -171.646353 
L 569.133347 -175.29292 
L 565.471474 -177.294679 
L 561.809601 -189.447886 
L 558.147727 -203.424265 
L 554.485854 -196.064396 
L 550.823981 -190.622267 
L 547.162107 -199.818665 
L 543.500234 -230.985812 
L 539.838361 -237.102189 
L 536.176488 -238.929547 
L 532.514614 -234.68889 
L 528.852741 -227.658218 
L 525.190868 -201.188618 
L 521.528994 -200.131261 
L 517.867121 -207.040679 
L 514.205248 -213.758366 
L 510.543375 -226.841801 
L 506.881501 -238.043696 
L 503.219628 -226.148089 
L 499.557755 -196.706245 
L 495.895882 -211.870451 
L 492.234008 -237.692237 
L 488.572135 -251.158182 
L 484.910262 -235.259441 
L 481.248388 -215.677713 
L 477.586515 -203.023292 
L 473.924642 -197.944026 
L 470.262769 -187.45673 
L 466.600895 -173.749546 
L 462.939022 -179.693208 
L 459.277149 -177.704347 
L 455.615275 -168.573701 
L 451.953402 -159.623861 
L 448.291529 -150.259505 
L 444.629656 -143.338729 
L 440.967782 -139.01388 
L 437.305909 -132.731595 
L 433.644036 -128.139004 
L 429.982163 -126.029216 
L 426.320289 -126.254624 
L 422.658416 -124.792729 
L 418.996543 -126.316989 
L 415.334669 -128.9511 
L 411.672796 -130.927371 
L 408.010923 -136.70094 
L 404.34905 -141.212926 
L 400.687176 -146.255429 
L 397.025303 -153.043989 
L 393.36343 -151.969651 
L 389.701556 -154.770765 
L 386.039683 -161.365523 
L 382.37781 -165.816338 
L 378.715937 -174.808493 
L 375.054063 -188.88251 
L 371.39219 -146.257083 
L 367.730317 -149.292602 
L 364.068444 -201.699977 
L 360.40657 -207.351248 
L 356.744697 -211.761264 
L 353.082824 -212.360962 
L 349.42095 -186.984552 
L 345.759077 -193.29825 
L 342.097204 -197.716296 
L 338.435331 -196.071848 
L 334.773457 -215.695791 
L 331.111584 -221.475301 
L 327.449711 -228.436409 
L 323.787837 -200.235597 
L 320.125964 -199.726044 
L 316.464091 -226.899144 
L 312.802218 -240.609433 
L 309.140344 -231.241872 
L 305.478471 -212.364504 
L 301.816598 -186.349172 
L 298.154725 -180.935192 
L 294.492851 -175.376389 
L 290.830978 -181.497311 
L 287.169105 -162.802901 
L 283.507231 -156.050728 
L 279.845358 -146.277647 
L 276.183485 -133.962583 
L 272.521612 -127.140502 
L 268.859738 -119.482736 
L 265.197865 -112.892294 
L 261.535992 -107.064818 
L 257.874118 -102.792134 
L 254.212245 -97.932202 
L 250.550372 -95.28866 
L 246.888499 -94.632413 
L 243.226625 -97.057333 
L 239.564752 -99.914739 
L 235.902879 -104.385104 
L 232.241006 -107.289579 
L 228.579132 -111.900761 
L 224.917259 -117.156125 
L 221.255386 -121.767744 
L 217.593512 -126.261449 
L 213.931639 -129.572347 
L 210.269766 -138.925105 
L 206.607893 -147.759486 
L 202.946019 -163.724303 
L 199.284146 -170.897258 
L 195.622273 -174.145897 
L 191.960399 -181.202422 
L 188.298526 -186.678944 
L 184.636653 -189.429999 
L 180.97478 -187.875564 
L 177.312906 -192.189006 
L 173.651033 -180.002002 
L 169.98916 -182.525851 
L 166.327287 -188.199431 
L 162.665413 -196.618215 
L 159.00354 -196.691355 
L 155.341667 -220.042905 
L 151.679793 -202.166952 
L 148.01792 -186.572584 
L 144.356047 -163.602757 
L 140.694174 -206.632431 
L 137.0323 -222.013592 
L 133.370427 -221.006492 
L 129.708554 -200.24457 
L 126.04668 -156.163594 
L 122.384807 -156.158487 
L 118.722934 -151.27005 
L 115.061061 -171.222669 
L 111.399187 -154.478673 
L 107.737314 -141.043578 
L 104.075441 -133.451104 
L 100.413567 -129.551004 
L 96.751694 -119.444031 
L 93.089821 -115.829877 
L 89.427948 -111.064187 
L 85.766074 -106.60257 
L 82.104201 -101.870693 
L 78.442328 -96.196278 
L 74.780455 -91.903725 
z
" style="stroke: #808080; stroke-opacity: 0.2"/>
    </defs>
    <g clip-path="url(#p89844b4ca0)">
     <use xlink:href="#m9e31e07ecb" x="0" y="288" style="fill: #808080; fill-opacity: 0.2; stroke: #808080; stroke-opacity: 0.2"/>
    </g>
   </g>
   <g id="matplotlib.axis_1">
    <g id="xtick_1">
     <g id="line2d_1">
      <defs>
       <path id="m9a83d4c606" d="M 0 0 
L 0 3.5 
" style="stroke: #000000; stroke-width: 0.8"/>
      </defs>
      <g>
       <use xlink:href="#m9a83d4c606" x="96.751694" y="246.04" style="stroke: #000000; stroke-width: 0.8"/>
      </g>
     </g>
     <g id="text_1">
      <!-- 06-11 12 -->
      <g transform="translate(74.271225 260.638438) scale(0.1 -0.1)">
       <defs>
        <path id="DejaVuSans-30" d="M 2034 4250 
Q 1547 4250 1301 3770 
Q 1056 3291 1056 2328 
Q 1056 1369 1301 889 
Q 1547 409 2034 409 
Q 2525 409 2770 889 
Q 3016 1369 3016 2328 
Q 3016 3291 2770 3770 
Q 2525 4250 2034 4250 
z
M 2034 4750 
Q 2819 4750 3233 4129 
Q 3647 3509 3647 2328 
Q 3647 1150 3233 529 
Q 2819 -91 2034 -91 
Q 1250 -91 836 529 
Q 422 1150 422 2328 
Q 422 3509 836 4129 
Q 1250 4750 2034 4750 
z
" transform="scale(0.015625)"/>
        <path id="DejaVuSans-36" d="M 2113 2584 
Q 1688 2584 1439 2293 
Q 1191 2003 1191 1497 
Q 1191 994 1439 701 
Q 1688 409 2113 409 
Q 2538 409 2786 701 
Q 3034 994 3034 1497 
Q 3034 2003 2786 2293 
Q 2538 2584 2113 2584 
z
M 3366 4563 
L 3366 3988 
Q 3128 4100 2886 4159 
Q 2644 4219 2406 4219 
Q 1781 4219 1451 3797 
Q 1122 3375 1075 2522 
Q 1259 2794 1537 2939 
Q 1816 3084 2150 3084 
Q 2853 3084 3261 2657 
Q 3669 2231 3669 1497 
Q 3669 778 3244 343 
Q 2819 -91 2113 -91 
Q 1303 -91 875 529 
Q 447 1150 447 2328 
Q 447 3434 972 4092 
Q 1497 4750 2381 4750 
Q 2619 4750 2861 4703 
Q 3103 4656 3366 4563 
z
" transform="scale(0.015625)"/>
        <path id="DejaVuSans-2d" d="M 313 2009 
L 1997 2009 
L 1997 1497 
L 313 1497 
L 313 2009 
z
" transform="scale(0.015625)"/>
        <path id="DejaVuSans-31" d="M 794 531 
L 1825 531 
L 1825 4091 
L 703 3866 
L 703 4441 
L 1819 4666 
L 2450 4666 
L 2450 531 
L 3481 531 
L 3481 0 
L 794 0 
L 794 531 
z
" transform="scale(0.015625)"/>
        <path id="DejaVuSans-20" transform="scale(0.015625)"/>
        <path id="DejaVuSans-32" d="M 1228 531 
L 3431 531 
L 3431 0 
L 469 0 
L 469 531 
Q 828 903 1448 1529 
Q 2069 2156 2228 2338 
Q 2531 2678 2651 2914 
Q 2772 3150 2772 3378 
Q 2772 3750 2511 3984 
Q 2250 4219 1831 4219 
Q 1534 4219 1204 4116 
Q 875 4013 500 3803 
L 500 4441 
Q 881 4594 1212 4672 
Q 1544 4750 1819 4750 
Q 2544 4750 2975 4387 
Q 3406 4025 3406 3419 
Q 3406 3131 3298 2873 
Q 3191 2616 2906 2266 
Q 2828 2175 2409 1742 
Q 1991 1309 1228 531 
z
" transform="scale(0.015625)"/>
       </defs>
       <use xlink:href="#DejaVuSans-30"/>
       <use xlink:href="#DejaVuSans-36" transform="translate(63.623047 0)"/>
       <use xlink:href="#DejaVuSans-2d" transform="translate(127.246094 0)"/>
       <use xlink:href="#DejaVuSans-31" transform="translate(163.330078 0)"/>
       <use xlink:href="#DejaVuSans-31" transform="translate(226.953125 0)"/>
       <use xlink:href="#DejaVuSans-20" transform="translate(290.576172 0)"/>
       <use xlink:href="#DejaVuSans-31" transform="translate(322.363281 0)"/>
       <use xlink:href="#DejaVuSans-32" transform="translate(385.986328 0)"/>
      </g>
     </g>
    </g>
    <g id="xtick_2">
     <g id="line2d_2">
      <g>
       <use xlink:href="#m9a83d4c606" x="184.636653" y="246.04" style="stroke: #000000; stroke-width: 0.8"/>
      </g>
     </g>
     <g id="text_2">
      <!-- 06-12 00 -->
      <g transform="translate(162.156184 260.638438) scale(0.1 -0.1)">
       <use xlink:href="#DejaVuSans-30"/>
       <use xlink:href="#DejaVuSans-36" transform="translate(63.623047 0)"/>
       <use xlink:href="#DejaVuSans-2d" transform="translate(127.246094 0)"/>
       <use xlink:href="#DejaVuSans-31" transform="translate(163.330078 0)"/>
       <use xlink:href="#DejaVuSans-32" transform="translate(226.953125 0)"/>
       <use xlink:href="#DejaVuSans-20" transform="translate(290.576172 0)"/>
       <use xlink:href="#DejaVuSans-30" transform="translate(322.363281 0)"/>
       <use xlink:href="#DejaVuSans-30" transform="translate(385.986328 0)"/>
      </g>
     </g>
    </g>
    <g id="xtick_3">
     <g id="line2d_3">
      <g>
       <use xlink:href="#m9a83d4c606" x="272.521612" y="246.04" style="stroke: #000000; stroke-width: 0.8"/>
      </g>
     </g>
     <g id="text_3">
      <!-- 06-12 12 -->
      <g transform="translate(250.041143 260.638438) scale(0.1 -0.1)">
       <use xlink:href="#DejaVuSans-30"/>
       <use xlink:href="#DejaVuSans-36" transform="translate(63.623047 0)"/>
       <use xlink:href="#DejaVuSans-2d" transform="translate(127.246094 0)"/>
       <use xlink:href="#DejaVuSans-31" transform="translate(163.330078 0)"/>
       <use xlink:href="#DejaVuSans-32" transform="translate(226.953125 0)"/>
       <use xlink:href="#DejaVuSans-20" transform="translate(290.576172 0)"/>
       <use xlink:href="#DejaVuSans-31" transform="translate(322.363281 0)"/>
       <use xlink:href="#DejaVuSans-32" transform="translate(385.986328 0)"/>
      </g>
     </g>
    </g>
    <g id="xtick_4">
     <g id="line2d_4">
      <g>
       <use xlink:href="#m9a83d4c606" x="360.40657" y="246.04" style="stroke: #000000; stroke-width: 0.8"/>
      </g>
     </g>
     <g id="text_4">
      <!-- 06-13 00 -->
      <g transform="translate(337.926101 260.638438) scale(0.1 -0.1)">
       <defs>
        <path id="DejaVuSans-33" d="M 2597 2516 
Q 3050 2419 3304 2112 
Q 3559 1806 3559 1356 
Q 3559 666 3084 287 
Q 2609 -91 1734 -91 
Q 1441 -91 1130 -33 
Q 819 25 488 141 
L 488 750 
Q 750 597 1062 519 
Q 1375 441 1716 441 
Q 2309 441 2620 675 
Q 2931 909 2931 1356 
Q 2931 1769 2642 2001 
Q 2353 2234 1838 2234 
L 1294 2234 
L 1294 2753 
L 1863 2753 
Q 2328 2753 2575 2939 
Q 2822 3125 2822 3475 
Q 2822 3834 2567 4026 
Q 2313 4219 1838 4219 
Q 1578 4219 1281 4162 
Q 984 4106 628 3988 
L 628 4550 
Q 988 4650 1302 4700 
Q 1616 4750 1894 4750 
Q 2613 4750 3031 4423 
Q 3450 4097 3450 3541 
Q 3450 3153 3228 2886 
Q 3006 2619 2597 2516 
z
" transform="scale(0.015625)"/>
       </defs>
       <use xlink:href="#DejaVuSans-30"/>
       <use xlink:href="#DejaVuSans-36" transform="translate(63.623047 0)"/>
       <use xlink:href="#DejaVuSans-2d" transform="translate(127.246094 0)"/>
       <use xlink:href="#DejaVuSans-31" transform="translate(163.330078 0)"/>
       <use xlink:href="#DejaVuSans-33" transform="translate(226.953125 0)"/>
       <use xlink:href="#DejaVuSans-20" transform="translate(290.576172 0)"/>
       <use xlink:href="#DejaVuSans-30" transform="translate(322.363281 0)"/>
       <use xlink:href="#DejaVuSans-30" transform="translate(385.986328 0)"/>
      </g>
     </g>
    </g>
    <g id="xtick_5">
     <g id="line2d_5">
      <g>
       <use xlink:href="#m9a83d4c606" x="448.291529" y="246.04" style="stroke: #000000; stroke-width: 0.8"/>
      </g>
     </g>
     <g id="text_5">
      <!-- 06-13 12 -->
      <g transform="translate(425.81106 260.638438) scale(0.1 -0.1)">
       <use xlink:href="#DejaVuSans-30"/>
       <use xlink:href="#DejaVuSans-36" transform="translate(63.623047 0)"/>
       <use xlink:href="#DejaVuSans-2d" transform="translate(127.246094 0)"/>
       <use xlink:href="#DejaVuSans-31" transform="translate(163.330078 0)"/>
       <use xlink:href="#DejaVuSans-33" transform="translate(226.953125 0)"/>
       <use xlink:href="#DejaVuSans-20" transform="translate(290.576172 0)"/>
       <use xlink:href="#DejaVuSans-31" transform="translate(322.363281 0)"/>
       <use xlink:href="#DejaVuSans-32" transform="translate(385.986328 0)"/>
      </g>
     </g>
    </g>
    <g id="xtick_6">
     <g id="line2d_6">
      <g>
       <use xlink:href="#m9a83d4c606" x="536.176488" y="246.04" style="stroke: #000000; stroke-width: 0.8"/>
      </g>
     </g>
     <g id="text_6">
      <!-- 06-14 00 -->
      <g transform="translate(513.696019 260.638438) scale(0.1 -0.1)">
       <defs>
        <path id="DejaVuSans-34" d="M 2419 4116 
L 825 1625 
L 2419 1625 
L 2419 4116 
z
M 2253 4666 
L 3047 4666 
L 3047 1625 
L 3713 1625 
L 3713 1100 
L 3047 1100 
L 3047 0 
L 2419 0 
L 2419 1100 
L 313 1100 
L 313 1709 
L 2253 4666 
z
" transform="scale(0.015625)"/>
       </defs>
       <use xlink:href="#DejaVuSans-30"/>
       <use xlink:href="#DejaVuSans-36" transform="translate(63.623047 0)"/>
       <use xlink:href="#DejaVuSans-2d" transform="translate(127.246094 0)"/>
       <use xlink:href="#DejaVuSans-31" transform="translate(163.330078 0)"/>
       <use xlink:href="#DejaVuSans-34" transform="translate(226.953125 0)"/>
       <use xlink:href="#DejaVuSans-20" transform="translate(290.576172 0)"/>
       <use xlink:href="#DejaVuSans-30" transform="translate(322.363281 0)"/>
       <use xlink:href="#DejaVuSans-30" transform="translate(385.986328 0)"/>
      </g>
     </g>
    </g>
    <g id="xtick_7">
     <g id="line2d_7">
      <g>
       <use xlink:href="#m9a83d4c606" x="624.061446" y="246.04" style="stroke: #000000; stroke-width: 0.8"/>
      </g>
     </g>
     <g id="text_7">
      <!-- 06-14 12 -->
      <g transform="translate(601.580978 260.638438) scale(0.1 -0.1)">
       <use xlink:href="#DejaVuSans-30"/>
       <use xlink:href="#DejaVuSans-36" transform="translate(63.623047 0)"/>
       <use xlink:href="#DejaVuSans-2d" transform="translate(127.246094 0)"/>
       <use xlink:href="#DejaVuSans-31" transform="translate(163.330078 0)"/>
       <use xlink:href="#DejaVuSans-34" transform="translate(226.953125 0)"/>
       <use xlink:href="#DejaVuSans-20" transform="translate(290.576172 0)"/>
       <use xlink:href="#DejaVuSans-31" transform="translate(322.363281 0)"/>
       <use xlink:href="#DejaVuSans-32" transform="translate(385.986328 0)"/>
      </g>
     </g>
    </g>
    <g id="text_8">
     <!-- Tijd -->
     <g transform="translate(368.035 274.316562) scale(0.1 -0.1)">
      <defs>
       <path id="DejaVuSans-54" d="M -19 4666 
L 3928 4666 
L 3928 4134 
L 2272 4134 
L 2272 0 
L 1638 0 
L 1638 4134 
L -19 4134 
L -19 4666 
z
" transform="scale(0.015625)"/>
       <path id="DejaVuSans-69" d="M 603 3500 
L 1178 3500 
L 1178 0 
L 603 0 
L 603 3500 
z
M 603 4863 
L 1178 4863 
L 1178 4134 
L 603 4134 
L 603 4863 
z
" transform="scale(0.015625)"/>
       <path id="DejaVuSans-6a" d="M 603 3500 
L 1178 3500 
L 1178 -63 
Q 1178 -731 923 -1031 
Q 669 -1331 103 -1331 
L -116 -1331 
L -116 -844 
L 38 -844 
Q 366 -844 484 -692 
Q 603 -541 603 -63 
L 603 3500 
z
M 603 4863 
L 1178 4863 
L 1178 4134 
L 603 4134 
L 603 4863 
z
" transform="scale(0.015625)"/>
       <path id="DejaVuSans-64" d="M 2906 2969 
L 2906 4863 
L 3481 4863 
L 3481 0 
L 2906 0 
L 2906 525 
Q 2725 213 2448 61 
Q 2172 -91 1784 -91 
Q 1150 -91 751 415 
Q 353 922 353 1747 
Q 353 2572 751 3078 
Q 1150 3584 1784 3584 
Q 2172 3584 2448 3432 
Q 2725 3281 2906 2969 
z
M 947 1747 
Q 947 1113 1208 752 
Q 1469 391 1925 391 
Q 2381 391 2643 752 
Q 2906 1113 2906 1747 
Q 2906 2381 2643 2742 
Q 2381 3103 1925 3103 
Q 1469 3103 1208 2742 
Q 947 2381 947 1747 
z
" transform="scale(0.015625)"/>
      </defs>
      <use xlink:href="#DejaVuSans-54"/>
      <use xlink:href="#DejaVuSans-69" transform="translate(57.958984 0)"/>
      <use xlink:href="#DejaVuSans-6a" transform="translate(85.742188 0)"/>
      <use xlink:href="#DejaVuSans-64" transform="translate(113.525391 0)"/>
     </g>
    </g>
   </g>
   <g id="matplotlib.axis_2">
    <g id="ytick_1">
     <g id="line2d_8">
      <defs>
       <path id="m4c9d3469a6" d="M 0 0 
L -3.5 0 
" style="stroke: #000000; stroke-width: 0.8"/>
      </defs>
      <g>
       <use xlink:href="#m4c9d3469a6" x="44.57" y="208.956414" style="stroke: #000000; stroke-width: 0.8"/>
      </g>
     </g>
     <g id="text_9">
      <!-- 10 -->
      <g transform="translate(24.845 212.755633) scale(0.1 -0.1)">
       <use xlink:href="#DejaVuSans-31"/>
       <use xlink:href="#DejaVuSans-30" transform="translate(63.623047 0)"/>
      </g>
     </g>
    </g>
    <g id="ytick_2">
     <g id="line2d_9">
      <g>
       <use xlink:href="#m4c9d3469a6" x="44.57" y="167.815781" style="stroke: #000000; stroke-width: 0.8"/>
      </g>
     </g>
     <g id="text_10">
      <!-- 20 -->
      <g transform="translate(24.845 171.615) scale(0.1 -0.1)">
       <use xlink:href="#DejaVuSans-32"/>
       <use xlink:href="#DejaVuSans-30" transform="translate(63.623047 0)"/>
      </g>
     </g>
    </g>
    <g id="ytick_3">
     <g id="line2d_10">
      <g>
       <use xlink:href="#m4c9d3469a6" x="44.57" y="126.675148" style="stroke: #000000; stroke-width: 0.8"/>
      </g>
     </g>
     <g id="text_11">
      <!-- 30 -->
      <g transform="translate(24.845 130.474366) scale(0.1 -0.1)">
       <use xlink:href="#DejaVuSans-33"/>
       <use xlink:href="#DejaVuSans-30" transform="translate(63.623047 0)"/>
      </g>
     </g>
    </g>
    <g id="ytick_4">
     <g id="line2d_11">
      <g>
       <use xlink:href="#m4c9d3469a6" x="44.57" y="85.534514" style="stroke: #000000; stroke-width: 0.8"/>
      </g>
     </g>
     <g id="text_12">
      <!-- 40 -->
      <g transform="translate(24.845 89.333733) scale(0.1 -0.1)">
       <use xlink:href="#DejaVuSans-34"/>
       <use xlink:href="#DejaVuSans-30" transform="translate(63.623047 0)"/>
      </g>
     </g>
    </g>
    <g id="ytick_5">
     <g id="line2d_12">
      <g>
       <use xlink:href="#m4c9d3469a6" x="44.57" y="44.393881" style="stroke: #000000; stroke-width: 0.8"/>
      </g>
     </g>
     <g id="text_13">
      <!-- 50 -->
      <g transform="translate(24.845 48.1931) scale(0.1 -0.1)">
       <defs>
        <path id="DejaVuSans-35" d="M 691 4666 
L 3169 4666 
L 3169 4134 
L 1269 4134 
L 1269 2991 
Q 1406 3038 1543 3061 
Q 1681 3084 1819 3084 
Q 2600 3084 3056 2656 
Q 3513 2228 3513 1497 
Q 3513 744 3044 326 
Q 2575 -91 1722 -91 
Q 1428 -91 1123 -41 
Q 819 9 494 109 
L 494 744 
Q 775 591 1075 516 
Q 1375 441 1709 441 
Q 2250 441 2565 725 
Q 2881 1009 2881 1497 
Q 2881 1984 2565 2268 
Q 2250 2553 1709 2553 
Q 1456 2553 1204 2497 
Q 953 2441 691 2322 
L 691 4666 
z
" transform="scale(0.015625)"/>
       </defs>
       <use xlink:href="#DejaVuSans-35"/>
       <use xlink:href="#DejaVuSans-30" transform="translate(63.623047 0)"/>
      </g>
     </g>
    </g>
    <g id="text_14">
     <!-- Buiten temperatuur (°C) -->
     <g transform="translate(18.765312 197.355312) rotate(-90) scale(0.1 -0.1)">
      <defs>
       <path id="DejaVuSans-42" d="M 1259 2228 
L 1259 519 
L 2272 519 
Q 2781 519 3026 730 
Q 3272 941 3272 1375 
Q 3272 1813 3026 2020 
Q 2781 2228 2272 2228 
L 1259 2228 
z
M 1259 4147 
L 1259 2741 
L 2194 2741 
Q 2656 2741 2882 2914 
Q 3109 3088 3109 3444 
Q 3109 3797 2882 3972 
Q 2656 4147 2194 4147 
L 1259 4147 
z
M 628 4666 
L 2241 4666 
Q 2963 4666 3353 4366 
Q 3744 4066 3744 3513 
Q 3744 3084 3544 2831 
Q 3344 2578 2956 2516 
Q 3422 2416 3680 2098 
Q 3938 1781 3938 1306 
Q 3938 681 3513 340 
Q 3088 0 2303 0 
L 628 0 
L 628 4666 
z
" transform="scale(0.015625)"/>
       <path id="DejaVuSans-75" d="M 544 1381 
L 544 3500 
L 1119 3500 
L 1119 1403 
Q 1119 906 1312 657 
Q 1506 409 1894 409 
Q 2359 409 2629 706 
Q 2900 1003 2900 1516 
L 2900 3500 
L 3475 3500 
L 3475 0 
L 2900 0 
L 2900 538 
Q 2691 219 2414 64 
Q 2138 -91 1772 -91 
Q 1169 -91 856 284 
Q 544 659 544 1381 
z
M 1991 3584 
L 1991 3584 
z
" transform="scale(0.015625)"/>
       <path id="DejaVuSans-74" d="M 1172 4494 
L 1172 3500 
L 2356 3500 
L 2356 3053 
L 1172 3053 
L 1172 1153 
Q 1172 725 1289 603 
Q 1406 481 1766 481 
L 2356 481 
L 2356 0 
L 1766 0 
Q 1100 0 847 248 
Q 594 497 594 1153 
L 594 3053 
L 172 3053 
L 172 3500 
L 594 3500 
L 594 4494 
L 1172 4494 
z
" transform="scale(0.015625)"/>
       <path id="DejaVuSans-65" d="M 3597 1894 
L 3597 1613 
L 953 1613 
Q 991 1019 1311 708 
Q 1631 397 2203 397 
Q 2534 397 2845 478 
Q 3156 559 3463 722 
L 3463 178 
Q 3153 47 2828 -22 
Q 2503 -91 2169 -91 
Q 1331 -91 842 396 
Q 353 884 353 1716 
Q 353 2575 817 3079 
Q 1281 3584 2069 3584 
Q 2775 3584 3186 3129 
Q 3597 2675 3597 1894 
z
M 3022 2063 
Q 3016 2534 2758 2815 
Q 2500 3097 2075 3097 
Q 1594 3097 1305 2825 
Q 1016 2553 972 2059 
L 3022 2063 
z
" transform="scale(0.015625)"/>
       <path id="DejaVuSans-6e" d="M 3513 2113 
L 3513 0 
L 2938 0 
L 2938 2094 
Q 2938 2591 2744 2837 
Q 2550 3084 2163 3084 
Q 1697 3084 1428 2787 
Q 1159 2491 1159 1978 
L 1159 0 
L 581 0 
L 581 3500 
L 1159 3500 
L 1159 2956 
Q 1366 3272 1645 3428 
Q 1925 3584 2291 3584 
Q 2894 3584 3203 3211 
Q 3513 2838 3513 2113 
z
" transform="scale(0.015625)"/>
       <path id="DejaVuSans-6d" d="M 3328 2828 
Q 3544 3216 3844 3400 
Q 4144 3584 4550 3584 
Q 5097 3584 5394 3201 
Q 5691 2819 5691 2113 
L 5691 0 
L 5113 0 
L 5113 2094 
Q 5113 2597 4934 2840 
Q 4756 3084 4391 3084 
Q 3944 3084 3684 2787 
Q 3425 2491 3425 1978 
L 3425 0 
L 2847 0 
L 2847 2094 
Q 2847 2600 2669 2842 
Q 2491 3084 2119 3084 
Q 1678 3084 1418 2786 
Q 1159 2488 1159 1978 
L 1159 0 
L 581 0 
L 581 3500 
L 1159 3500 
L 1159 2956 
Q 1356 3278 1631 3431 
Q 1906 3584 2284 3584 
Q 2666 3584 2933 3390 
Q 3200 3197 3328 2828 
z
" transform="scale(0.015625)"/>
       <path id="DejaVuSans-70" d="M 1159 525 
L 1159 -1331 
L 581 -1331 
L 581 3500 
L 1159 3500 
L 1159 2969 
Q 1341 3281 1617 3432 
Q 1894 3584 2278 3584 
Q 2916 3584 3314 3078 
Q 3713 2572 3713 1747 
Q 3713 922 3314 415 
Q 2916 -91 2278 -91 
Q 1894 -91 1617 61 
Q 1341 213 1159 525 
z
M 3116 1747 
Q 3116 2381 2855 2742 
Q 2594 3103 2138 3103 
Q 1681 3103 1420 2742 
Q 1159 2381 1159 1747 
Q 1159 1113 1420 752 
Q 1681 391 2138 391 
Q 2594 391 2855 752 
Q 3116 1113 3116 1747 
z
" transform="scale(0.015625)"/>
       <path id="DejaVuSans-72" d="M 2631 2963 
Q 2534 3019 2420 3045 
Q 2306 3072 2169 3072 
Q 1681 3072 1420 2755 
Q 1159 2438 1159 1844 
L 1159 0 
L 581 0 
L 581 3500 
L 1159 3500 
L 1159 2956 
Q 1341 3275 1631 3429 
Q 1922 3584 2338 3584 
Q 2397 3584 2469 3576 
Q 2541 3569 2628 3553 
L 2631 2963 
z
" transform="scale(0.015625)"/>
       <path id="DejaVuSans-61" d="M 2194 1759 
Q 1497 1759 1228 1600 
Q 959 1441 959 1056 
Q 959 750 1161 570 
Q 1363 391 1709 391 
Q 2188 391 2477 730 
Q 2766 1069 2766 1631 
L 2766 1759 
L 2194 1759 
z
M 3341 1997 
L 3341 0 
L 2766 0 
L 2766 531 
Q 2569 213 2275 61 
Q 1981 -91 1556 -91 
Q 1019 -91 701 211 
Q 384 513 384 1019 
Q 384 1609 779 1909 
Q 1175 2209 1959 2209 
L 2766 2209 
L 2766 2266 
Q 2766 2663 2505 2880 
Q 2244 3097 1772 3097 
Q 1472 3097 1187 3025 
Q 903 2953 641 2809 
L 641 3341 
Q 956 3463 1253 3523 
Q 1550 3584 1831 3584 
Q 2591 3584 2966 3190 
Q 3341 2797 3341 1997 
z
" transform="scale(0.015625)"/>
       <path id="DejaVuSans-28" d="M 1984 4856 
Q 1566 4138 1362 3434 
Q 1159 2731 1159 2009 
Q 1159 1288 1364 580 
Q 1569 -128 1984 -844 
L 1484 -844 
Q 1016 -109 783 600 
Q 550 1309 550 2009 
Q 550 2706 781 3412 
Q 1013 4119 1484 4856 
L 1984 4856 
z
" transform="scale(0.015625)"/>
       <path id="DejaVuSans-b0" d="M 1600 4347 
Q 1350 4347 1178 4173 
Q 1006 4000 1006 3750 
Q 1006 3503 1178 3333 
Q 1350 3163 1600 3163 
Q 1850 3163 2022 3333 
Q 2194 3503 2194 3750 
Q 2194 3997 2020 4172 
Q 1847 4347 1600 4347 
z
M 1600 4750 
Q 1800 4750 1984 4673 
Q 2169 4597 2303 4453 
Q 2447 4313 2519 4134 
Q 2591 3956 2591 3750 
Q 2591 3338 2302 3052 
Q 2013 2766 1594 2766 
Q 1172 2766 890 3047 
Q 609 3328 609 3750 
Q 609 4169 896 4459 
Q 1184 4750 1600 4750 
z
" transform="scale(0.015625)"/>
       <path id="DejaVuSans-43" d="M 4122 4306 
L 4122 3641 
Q 3803 3938 3442 4084 
Q 3081 4231 2675 4231 
Q 1875 4231 1450 3742 
Q 1025 3253 1025 2328 
Q 1025 1406 1450 917 
Q 1875 428 2675 428 
Q 3081 428 3442 575 
Q 3803 722 4122 1019 
L 4122 359 
Q 3791 134 3420 21 
Q 3050 -91 2638 -91 
Q 1578 -91 968 557 
Q 359 1206 359 2328 
Q 359 3453 968 4101 
Q 1578 4750 2638 4750 
Q 3056 4750 3426 4639 
Q 3797 4528 4122 4306 
z
" transform="scale(0.015625)"/>
       <path id="DejaVuSans-29" d="M 513 4856 
L 1013 4856 
Q 1481 4119 1714 3412 
Q 1947 2706 1947 2009 
Q 1947 1309 1714 600 
Q 1481 -109 1013 -844 
L 513 -844 
Q 928 -128 1133 580 
Q 1338 1288 1338 2009 
Q 1338 2731 1133 3434 
Q 928 4138 513 4856 
z
" transform="scale(0.015625)"/>
      </defs>
      <use xlink:href="#DejaVuSans-42"/>
      <use xlink:href="#DejaVuSans-75" transform="translate(68.603516 0)"/>
      <use xlink:href="#DejaVuSans-69" transform="translate(131.982422 0)"/>
      <use xlink:href="#DejaVuSans-74" transform="translate(159.765625 0)"/>
      <use xlink:href="#DejaVuSans-65" transform="translate(198.974609 0)"/>
      <use xlink:href="#DejaVuSans-6e" transform="translate(260.498047 0)"/>
      <use xlink:href="#DejaVuSans-20" transform="translate(323.876953 0)"/>
      <use xlink:href="#DejaVuSans-74" transform="translate(355.664062 0)"/>
      <use xlink:href="#DejaVuSans-65" transform="translate(394.873047 0)"/>
      <use xlink:href="#DejaVuSans-6d" transform="translate(456.396484 0)"/>
      <use xlink:href="#DejaVuSans-70" transform="translate(553.808594 0)"/>
      <use xlink:href="#DejaVuSans-65" transform="translate(617.285156 0)"/>
      <use xlink:href="#DejaVuSans-72" transform="translate(678.808594 0)"/>
      <use xlink:href="#DejaVuSans-61" transform="translate(719.921875 0)"/>
      <use xlink:href="#DejaVuSans-74" transform="translate(781.201172 0)"/>
      <use xlink:href="#DejaVuSans-75" transform="translate(820.410156 0)"/>
      <use xlink:href="#DejaVuSans-75" transform="translate(883.789062 0)"/>
      <use xlink:href="#DejaVuSans-72" transform="translate(947.167969 0)"/>
      <use xlink:href="#DejaVuSans-20" transform="translate(988.28125 0)"/>
      <use xlink:href="#DejaVuSans-28" transform="translate(1020.068359 0)"/>
      <use xlink:href="#DejaVuSans-b0" transform="translate(1059.082031 0)"/>
      <use xlink:href="#DejaVuSans-43" transform="translate(1109.082031 0)"/>
      <use xlink:href="#DejaVuSans-29" transform="translate(1178.90625 0)"/>
     </g>
    </g>
   </g>
   <g id="line2d_13">
    <path d="M 74.780455 212.864775 
L 78.442328 213.344749 
L 82.104201 214.030426 
L 85.766074 214.578968 
L 89.427948 213.344749 
L 93.089821 209.504956 
L 96.751694 204.56808 
L 100.413567 200.728288 
L 104.075441 196.614224 
L 107.737314 190.648833 
L 118.722934 184.272034 
L 122.384807 178.512346 
L 126.04668 177.552398 
L 133.370427 166.581562 
L 137.0323 157.119216 
L 140.694174 155.062185 
L 148.01792 148.89109 
L 151.679793 136.960306 
L 155.341667 107.064779 
L 159.00354 97.053892 
L 162.665413 88.9629 
L 166.327287 95.545402 
L 169.98916 113.784416 
L 173.651033 149.302496 
L 177.312906 157.256352 
L 180.97478 161.096144 
L 184.636653 160.959009 
L 188.298526 165.347343 
L 191.960399 167.815781 
L 195.622273 170.147084 
L 199.284146 173.986876 
L 202.946019 177.003856 
L 206.607893 180.843648 
L 213.931639 185.231982 
L 217.593512 186.740472 
L 221.255386 188.660369 
L 228.579132 194.35149 
L 232.241006 195.24287 
L 235.902879 195.380005 
L 239.564752 195.24287 
L 243.226625 195.791412 
L 250.550372 197.162766 
L 257.874118 199.631204 
L 261.535992 200.179746 
L 265.197865 200.04261 
L 268.859738 198.945527 
L 272.521612 197.025631 
L 276.183485 194.145786 
L 283.507231 186.191931 
L 287.169105 181.39219 
L 294.492851 170.832761 
L 298.154725 164.387395 
L 301.816598 156.570675 
L 305.478471 151.359528 
L 312.802218 140.045854 
L 316.464091 134.491868 
L 320.125964 131.474888 
L 323.787837 128.11507 
L 327.449711 120.092646 
L 331.111584 94.311183 
L 334.773457 80.734774 
L 338.435331 96.916756 
L 342.097204 87.865817 
L 345.759077 92.665557 
L 349.42095 119.406969 
L 353.082824 132.297701 
L 356.744697 135.451816 
L 360.40657 135.588952 
L 364.068444 139.84015 
L 371.39219 145.325568 
L 375.054063 147.656871 
L 378.715937 154.650778 
L 382.37781 158.627706 
L 386.039683 161.096144 
L 389.701556 164.661666 
L 393.36343 166.992968 
L 397.025303 169.187135 
L 400.687176 171.655573 
L 404.34905 174.398282 
L 408.010923 176.318179 
L 411.672796 177.552398 
L 415.334669 177.415262 
L 418.996543 177.826668 
L 422.658416 179.540862 
L 426.320289 180.980784 
L 429.982163 182.077867 
L 437.305909 183.723493 
L 440.967782 183.449222 
L 444.629656 181.529325 
L 448.291529 178.37521 
L 451.953402 173.849741 
L 455.615275 168.638594 
L 459.277149 164.387395 
L 462.939022 160.821873 
L 466.600895 156.022133 
L 470.262769 151.565231 
L 473.924642 147.519735 
L 477.586515 141.897182 
L 481.248388 139.84015 
L 484.910262 146.285516 
L 488.572135 136.960306 
L 492.234008 129.692127 
L 495.895882 127.772231 
L 499.557755 122.835355 
L 503.219628 115.978583 
L 506.881501 95.682537 
L 510.543375 79.363419 
L 514.205248 76.483575 
L 517.867121 81.557586 
L 521.528994 89.922849 
L 525.190868 114.332958 
L 528.852741 134.080462 
L 532.514614 138.05739 
L 536.176488 135.726087 
L 539.838361 136.000358 
L 543.500234 140.388692 
L 554.485854 152.730882 
L 558.147727 156.296404 
L 561.809601 158.627706 
L 565.471474 158.970545 
L 569.133347 156.70781 
L 576.457094 158.079164 
L 580.118967 159.039113 
L 587.442713 159.587654 
L 591.104587 160.273332 
L 594.76646 161.23328 
L 598.428333 159.72479 
L 602.090207 170.284219 
L 605.75208 173.164063 
L 609.413953 173.849741 
L 613.075826 174.124011 
L 616.7377 173.986876 
L 620.399573 173.301199 
L 624.061446 171.518438 
L 627.72332 169.872813 
L 631.385193 165.758749 
L 635.047066 165.758749 
L 638.708939 163.01604 
L 642.370813 158.2163 
L 646.032686 155.336456 
L 649.694559 150.810986 
L 653.356433 148.479683 
L 657.018306 142.308588 
L 657.018306 142.308588 
" clip-path="url(#p89844b4ca0)" style="fill: none; stroke: #1f77b4; stroke-width: 2; stroke-linecap: square"/>
   </g>
   <g id="line2d_14">
    <path d="M 74.780455 206.752452 
L 78.442328 205.302734 
L 82.104201 203.353452 
L 85.766074 202.259633 
L 89.427948 198.220668 
L 93.089821 195.213484 
L 96.751694 193.068294 
L 100.413567 191.183661 
L 104.075441 189.675171 
L 107.737314 184.100615 
L 111.399187 181.89502 
L 115.061061 174.837116 
L 118.722934 180.717941 
L 122.384807 177.643821 
L 126.04668 176.976429 
L 129.708554 158.559139 
L 133.370427 151.535845 
L 137.0323 149.828182 
L 140.694174 152.273764 
L 144.356047 159.256244 
L 148.01792 151.271369 
L 151.679793 148.303366 
L 155.341667 143.390979 
L 159.00354 148.362139 
L 162.665413 149.635539 
L 166.327287 152.92679 
L 169.98916 152.691701 
L 173.651033 156.315994 
L 177.312906 157.844075 
L 180.97478 161.115735 
L 184.636653 162.330363 
L 188.298526 165.915476 
L 191.960399 169.108772 
L 195.622273 172.018003 
L 199.284146 174.683981 
L 202.946019 177.175275 
L 206.607893 181.117919 
L 213.931639 186.515178 
L 217.593512 187.837556 
L 224.917259 191.452054 
L 228.579132 193.391541 
L 232.241006 194.851054 
L 235.902879 195.791412 
L 239.564752 197.13338 
L 243.226625 198.099858 
L 246.888499 198.122714 
L 250.550372 197.486014 
L 254.212245 196.575043 
L 261.535992 193.234815 
L 265.197865 190.913308 
L 268.859738 187.93551 
L 272.521612 184.53651 
L 276.183485 177.186703 
L 279.845358 175.730455 
L 283.507231 171.204986 
L 287.169105 167.188876 
L 290.830978 160.145992 
L 294.492851 158.950954 
L 301.816598 150.477943 
L 305.478471 142.230225 
L 309.140344 135.079591 
L 312.802218 130.299442 
L 316.464091 131.014505 
L 320.125964 134.599617 
L 323.787837 133.620078 
L 327.449711 126.920032 
L 331.111584 126.283332 
L 334.773457 127.713459 
L 338.435331 131.76875 
L 342.097204 132.043021 
L 345.759077 132.454427 
L 349.42095 134.002099 
L 353.082824 133.198877 
L 360.40657 139.350381 
L 364.068444 143.268536 
L 367.730317 158.380862 
L 371.39219 160.876728 
L 375.054063 152.616603 
L 378.715937 156.727401 
L 382.37781 160.243945 
L 386.039683 162.585043 
L 389.701556 165.112254 
L 393.36343 166.924401 
L 397.025303 167.712929 
L 404.34905 172.106161 
L 408.010923 173.634242 
L 411.672796 174.868461 
L 415.334669 175.681478 
L 418.996543 176.61204 
L 422.658416 177.023447 
L 426.320289 175.929628 
L 429.982163 175.789228 
L 433.644036 174.192579 
L 437.305909 171.929844 
L 440.967782 168.726752 
L 444.629656 166.454222 
L 448.291529 162.575248 
L 451.953402 158.294663 
L 459.277149 150.360398 
L 462.939022 148.156436 
L 466.600895 148.646205 
L 470.262769 141.632707 
L 473.924642 136.960306 
L 477.586515 134.139234 
L 481.248388 127.302053 
L 484.910262 121.728476 
L 488.572135 115.578605 
L 492.234008 115.567177 
L 495.895882 119.338401 
L 499.557755 112.275926 
L 503.219628 106.790508 
L 506.881501 109.716064 
L 510.543375 111.727384 
L 514.205248 117.212802 
L 521.528994 120.846891 
L 525.190868 122.286813 
L 528.852741 122.69822 
L 532.514614 124.275277 
L 536.176488 125.258081 
L 539.838361 127.955078 
L 543.500234 132.046286 
L 547.162107 137.467707 
L 550.823981 142.212594 
L 554.485854 143.908502 
L 558.147727 142.925698 
L 561.809601 147.131185 
L 565.471474 149.862466 
L 569.133347 150.422435 
L 572.79522 151.656654 
L 580.118967 152.605175 
L 583.78084 156.250692 
L 587.442713 157.896317 
L 591.104587 163.921134 
L 594.76646 161.530406 
L 598.428333 162.330363 
L 602.090207 164.250259 
L 605.75208 164.627382 
L 609.413953 166.279864 
L 613.075826 160.959009 
L 616.7377 162.12466 
L 620.399573 158.40829 
L 624.061446 157.736326 
L 627.72332 154.691919 
L 631.385193 156.803805 
L 635.047066 154.458789 
L 638.708939 151.743507 
L 642.370813 155.085041 
L 646.032686 157.759182 
L 649.694559 154.69649 
L 653.356433 159.896209 
L 657.018306 156.296404 
L 660.680179 169.461406 
L 664.342052 164.113124 
L 668.003926 156.70781 
L 671.665799 153.827966 
L 675.327672 150.331012 
L 678.989545 146.011245 
L 678.989545 146.011245 
" clip-path="url(#p89844b4ca0)" style="fill: none; stroke-dasharray: 5.55,2.4; stroke-dashoffset: 0; stroke: #808080; stroke-width: 1.5"/>
   </g>
   <g id="patch_3">
    <path d="M 44.57 246.04 
L 44.57 26.88 
" style="fill: none; stroke: #000000; stroke-width: 0.8; stroke-linejoin: miter; stroke-linecap: square"/>
   </g>
   <g id="patch_4">
    <path d="M 709.2 246.04 
L 709.2 26.88 
" style="fill: none; stroke: #000000; stroke-width: 0.8; stroke-linejoin: miter; stroke-linecap: square"/>
   </g>
   <g id="patch_5">
    <path d="M 44.57 246.04 
L 709.2 246.04 
" style="fill: none; stroke: #000000; stroke-width: 0.8; stroke-linejoin: miter; stroke-linecap: square"/>
   </g>
   <g id="patch_6">
    <path d="M 44.57 26.88 
L 709.2 26.88 
" style="fill: none; stroke: #000000; stroke-width: 0.8; stroke-linejoin: miter; stroke-linecap: square"/>
   </g>
   <g id="text_15">
    <!-- Buiten temperatuur - v001/c00001/d001 -->
    <g transform="translate(254.91625 20.88) scale(0.12 -0.12)">
     <defs>
      <path id="DejaVuSans-76" d="M 191 3500 
L 800 3500 
L 1894 563 
L 2988 3500 
L 3597 3500 
L 2284 0 
L 1503 0 
L 191 3500 
z
" transform="scale(0.015625)"/>
      <path id="DejaVuSans-2f" d="M 1625 4666 
L 2156 4666 
L 531 -594 
L 0 -594 
L 1625 4666 
z
" transform="scale(0.015625)"/>
      <path id="DejaVuSans-63" d="M 3122 3366 
L 3122 2828 
Q 2878 2963 2633 3030 
Q 2388 3097 2138 3097 
Q 1578 3097 1268 2742 
Q 959 2388 959 1747 
Q 959 1106 1268 751 
Q 1578 397 2138 397 
Q 2388 397 2633 464 
Q 2878 531 3122 666 
L 3122 134 
Q 2881 22 2623 -34 
Q 2366 -91 2075 -91 
Q 1284 -91 818 406 
Q 353 903 353 1747 
Q 353 2603 823 3093 
Q 1294 3584 2113 3584 
Q 2378 3584 2631 3529 
Q 2884 3475 3122 3366 
z
" transform="scale(0.015625)"/>
     </defs>
     <use xlink:href="#DejaVuSans-42"/>
     <use xlink:href="#DejaVuSans-75" transform="translate(68.603516 0)"/>
     <use xlink:href="#DejaVuSans-69" transform="translate(131.982422 0)"/>
     <use xlink:href="#DejaVuSans-74" transform="translate(159.765625 0)"/>
     <use xlink:href="#DejaVuSans-65" transform="translate(198.974609 0)"/>
     <use xlink:href="#DejaVuSans-6e" transform="translate(260.498047 0)"/>
     <use xlink:href="#DejaVuSans-20" transform="translate(323.876953 0)"/>
     <use xlink:href="#DejaVuSans-74" transform="translate(355.664062 0)"/>
     <use xlink:href="#DejaVuSans-65" transform="translate(394.873047 0)"/>
     <use xlink:href="#DejaVuSans-6d" transform="translate(456.396484 0)"/>
     <use xlink:href="#DejaVuSans-70" transform="translate(553.808594 0)"/>
     <use xlink:href="#DejaVuSans-65" transform="translate(617.285156 0)"/>
     <use xlink:href="#DejaVuSans-72" transform="translate(678.808594 0)"/>
     <use xlink:href="#DejaVuSans-61" transform="translate(719.921875 0)"/>
     <use xlink:href="#DejaVuSans-74" transform="translate(781.201172 0)"/>
     <use xlink:href="#DejaVuSans-75" transform="translate(820.410156 0)"/>
     <use xlink:href="#DejaVuSans-75" transform="translate(883.789062 0)"/>
     <use xlink:href="#DejaVuSans-72" transform="translate(947.167969 0)"/>
     <use xlink:href="#DejaVuSans-20" transform="translate(988.28125 0)"/>
     <use xlink:href="#DejaVuSans-2d" transform="translate(1020.068359 0)"/>
     <use xlink:href="#DejaVuSans-20" transform="translate(1056.152344 0)"/>
     <use xlink:href="#DejaVuSans-76" transform="translate(1087.939453 0)"/>
     <use xlink:href="#DejaVuSans-30" transform="translate(1147.119141 0)"/>
     <use xlink:href="#DejaVuSans-30" transform="translate(1210.742188 0)"/>
     <use xlink:href="#DejaVuSans-31" transform="translate(1274.365234 0)"/>
     <use xlink:href="#DejaVuSans-2f" transform="translate(1337.988281 0)"/>
     <use xlink:href="#DejaVuSans-63" transform="translate(1371.679688 0)"/>
     <use xlink:href="#DejaVuSans-30" transform="translate(1426.660156 0)"/>
     <use xlink:href="#DejaVuSans-30" transform="translate(1490.283203 0)"/>
     <use xlink:href="#DejaVuSans-30" transform="translate(1553.90625 0)"/>
     <use xlink:href="#DejaVuSans-30" transform="translate(1617.529297 0)"/>
     <use xlink:href="#DejaVuSans-31" transform="translate(1681.152344 0)"/>
     <use xlink:href="#DejaVuSans-2f" transform="translate(1744.775391 0)"/>
     <use xlink:href="#DejaVuSans-64" transform="translate(1778.466797 0)"/>
     <use xlink:href="#DejaVuSans-30" transform="translate(1841.943359 0)"/>
     <use xlink:href="#DejaVuSans-30" transform="translate(1905.566406 0)"/>
     <use xlink:href="#DejaVuSans-31" transform="translate(1969.189453 0)"/>
    </g>
   </g>
   <g id="legend_1">
    <g id="patch_7">
     <path d="M 551.25625 78.914375 
L 702.2 78.914375 
Q 704.2 78.914375 704.2 76.914375 
L 704.2 33.88 
Q 704.2 31.88 702.2 31.88 
L 551.25625 31.88 
Q 549.25625 31.88 549.25625 33.88 
L 549.25625 76.914375 
Q 549.25625 78.914375 551.25625 78.914375 
z
" style="fill: #ffffff; opacity: 0.8; stroke: #cccccc; stroke-linejoin: miter"/>
    </g>
    <g id="line2d_15">
     <path d="M 553.25625 39.978438 
L 563.25625 39.978438 
L 573.25625 39.978438 
" style="fill: none; stroke: #1f77b4; stroke-width: 2; stroke-linecap: square"/>
    </g>
    <g id="text_16">
     <!-- Hive -->
     <g transform="translate(581.25625 43.478438) scale(0.1 -0.1)">
      <defs>
       <path id="DejaVuSans-48" d="M 628 4666 
L 1259 4666 
L 1259 2753 
L 3553 2753 
L 3553 4666 
L 4184 4666 
L 4184 0 
L 3553 0 
L 3553 2222 
L 1259 2222 
L 1259 0 
L 628 0 
L 628 4666 
z
" transform="scale(0.015625)"/>
      </defs>
      <use xlink:href="#DejaVuSans-48"/>
      <use xlink:href="#DejaVuSans-69" transform="translate(75.195312 0)"/>
      <use xlink:href="#DejaVuSans-76" transform="translate(102.978516 0)"/>
      <use xlink:href="#DejaVuSans-65" transform="translate(162.158203 0)"/>
     </g>
    </g>
    <g id="line2d_16">
     <path d="M 553.25625 54.656563 
L 563.25625 54.656563 
L 573.25625 54.656563 
" style="fill: none; stroke-dasharray: 5.55,2.4; stroke-dashoffset: 0; stroke: #808080; stroke-width: 1.5"/>
    </g>
    <g id="text_17">
     <!-- Gemiddelde (alle hives) -->
     <g transform="translate(581.25625 58.156563) scale(0.1 -0.1)">
      <defs>
       <path id="DejaVuSans-47" d="M 3809 666 
L 3809 1919 
L 2778 1919 
L 2778 2438 
L 4434 2438 
L 4434 434 
Q 4069 175 3628 42 
Q 3188 -91 2688 -91 
Q 1594 -91 976 548 
Q 359 1188 359 2328 
Q 359 3472 976 4111 
Q 1594 4750 2688 4750 
Q 3144 4750 3555 4637 
Q 3966 4525 4313 4306 
L 4313 3634 
Q 3963 3931 3569 4081 
Q 3175 4231 2741 4231 
Q 1884 4231 1454 3753 
Q 1025 3275 1025 2328 
Q 1025 1384 1454 906 
Q 1884 428 2741 428 
Q 3075 428 3337 486 
Q 3600 544 3809 666 
z
" transform="scale(0.015625)"/>
       <path id="DejaVuSans-6c" d="M 603 4863 
L 1178 4863 
L 1178 0 
L 603 0 
L 603 4863 
z
" transform="scale(0.015625)"/>
       <path id="DejaVuSans-68" d="M 3513 2113 
L 3513 0 
L 2938 0 
L 2938 2094 
Q 2938 2591 2744 2837 
Q 2550 3084 2163 3084 
Q 1697 3084 1428 2787 
Q 1159 2491 1159 1978 
L 1159 0 
L 581 0 
L 581 4863 
L 1159 4863 
L 1159 2956 
Q 1366 3272 1645 3428 
Q 1925 3584 2291 3584 
Q 2894 3584 3203 3211 
Q 3513 2838 3513 2113 
z
" transform="scale(0.015625)"/>
       <path id="DejaVuSans-73" d="M 2834 3397 
L 2834 2853 
Q 2591 2978 2328 3040 
Q 2066 3103 1784 3103 
Q 1356 3103 1142 2972 
Q 928 2841 928 2578 
Q 928 2378 1081 2264 
Q 1234 2150 1697 2047 
L 1894 2003 
Q 2506 1872 2764 1633 
Q 3022 1394 3022 966 
Q 3022 478 2636 193 
Q 2250 -91 1575 -91 
Q 1294 -91 989 -36 
Q 684 19 347 128 
L 347 722 
Q 666 556 975 473 
Q 1284 391 1588 391 
Q 1994 391 2212 530 
Q 2431 669 2431 922 
Q 2431 1156 2273 1281 
Q 2116 1406 1581 1522 
L 1381 1569 
Q 847 1681 609 1914 
Q 372 2147 372 2553 
Q 372 3047 722 3315 
Q 1072 3584 1716 3584 
Q 2034 3584 2315 3537 
Q 2597 3491 2834 3397 
z
" transform="scale(0.015625)"/>
      </defs>
      <use xlink:href="#DejaVuSans-47"/>
      <use xlink:href="#DejaVuSans-65" transform="translate(77.490234 0)"/>
      <use xlink:href="#DejaVuSans-6d" transform="translate(139.013672 0)"/>
      <use xlink:href="#DejaVuSans-69" transform="translate(236.425781 0)"/>
      <use xlink:href="#DejaVuSans-64" transform="translate(264.208984 0)"/>
      <use xlink:href="#DejaVuSans-64" transform="translate(327.685547 0)"/>
      <use xlink:href="#DejaVuSans-65" transform="translate(391.162109 0)"/>
      <use xlink:href="#DejaVuSans-6c" transform="translate(452.685547 0)"/>
      <use xlink:href="#DejaVuSans-64" transform="translate(480.46875 0)"/>
      <use xlink:href="#DejaVuSans-65" transform="translate(543.945312 0)"/>
      <use xlink:href="#DejaVuSans-20" transform="translate(605.46875 0)"/>
      <use xlink:href="#DejaVuSans-28" transform="translate(637.255859 0)"/>
      <use xlink:href="#DejaVuSans-61" transform="translate(676.269531 0)"/>
      <use xlink:href="#DejaVuSans-6c" transform="translate(737.548828 0)"/>
      <use xlink:href="#DejaVuSans-6c" transform="translate(765.332031 0)"/>
      <use xlink:href="#DejaVuSans-65" transform="translate(793.115234 0)"/>
      <use xlink:href="#DejaVuSans-20" transform="translate(854.638672 0)"/>
      <use xlink:href="#DejaVuSans-68" transform="translate(886.425781 0)"/>
      <use xlink:href="#DejaVuSans-69" transform="translate(949.804688 0)"/>
      <use xlink:href="#DejaVuSans-76" transform="translate(977.587891 0)"/>
      <use xlink:href="#DejaVuSans-65" transform="translate(1036.767578 0)"/>
      <use xlink:href="#DejaVuSans-73" transform="translate(1098.291016 0)"/>
      <use xlink:href="#DejaVuSans-29" transform="translate(1150.390625 0)"/>
     </g>
    </g>
    <g id="patch_8">
     <path d="M 553.25625 72.834688 
L 573.25625 72.834688 
L 573.25625 65.834688 
L 553.25625 65.834688 
z
" style="fill: #808080; fill-opacity: 0.2; stroke: #808080; stroke-opacity: 0.2; stroke-linejoin: miter"/>
    </g>
    <g id="text_18">
     <!-- ±2 Std Dev -->
     <g transform="translate(581.25625 72.834688) scale(0.1 -0.1)">
      <defs>
       <path id="DejaVuSans-b1" d="M 2944 4013 
L 2944 2803 
L 4684 2803 
L 4684 2272 
L 2944 2272 
L 2944 1063 
L 2419 1063 
L 2419 2272 
L 678 2272 
L 678 2803 
L 2419 2803 
L 2419 4013 
L 2944 4013 
z
M 678 531 
L 4684 531 
L 4684 0 
L 678 0 
L 678 531 
z
" transform="scale(0.015625)"/>
       <path id="DejaVuSans-53" d="M 3425 4513 
L 3425 3897 
Q 3066 4069 2747 4153 
Q 2428 4238 2131 4238 
Q 1616 4238 1336 4038 
Q 1056 3838 1056 3469 
Q 1056 3159 1242 3001 
Q 1428 2844 1947 2747 
L 2328 2669 
Q 3034 2534 3370 2195 
Q 3706 1856 3706 1288 
Q 3706 609 3251 259 
Q 2797 -91 1919 -91 
Q 1588 -91 1214 -16 
Q 841 59 441 206 
L 441 856 
Q 825 641 1194 531 
Q 1563 422 1919 422 
Q 2459 422 2753 634 
Q 3047 847 3047 1241 
Q 3047 1584 2836 1778 
Q 2625 1972 2144 2069 
L 1759 2144 
Q 1053 2284 737 2584 
Q 422 2884 422 3419 
Q 422 4038 858 4394 
Q 1294 4750 2059 4750 
Q 2388 4750 2728 4690 
Q 3069 4631 3425 4513 
z
" transform="scale(0.015625)"/>
       <path id="DejaVuSans-44" d="M 1259 4147 
L 1259 519 
L 2022 519 
Q 2988 519 3436 956 
Q 3884 1394 3884 2338 
Q 3884 3275 3436 3711 
Q 2988 4147 2022 4147 
L 1259 4147 
z
M 628 4666 
L 1925 4666 
Q 3281 4666 3915 4102 
Q 4550 3538 4550 2338 
Q 4550 1131 3912 565 
Q 3275 0 1925 0 
L 628 0 
L 628 4666 
z
" transform="scale(0.015625)"/>
      </defs>
      <use xlink:href="#DejaVuSans-b1"/>
      <use xlink:href="#DejaVuSans-32" transform="translate(83.789062 0)"/>
      <use xlink:href="#DejaVuSans-20" transform="translate(147.412109 0)"/>
      <use xlink:href="#DejaVuSans-53" transform="translate(179.199219 0)"/>
      <use xlink:href="#DejaVuSans-74" transform="translate(242.675781 0)"/>
      <use xlink:href="#DejaVuSans-64" transform="translate(281.884766 0)"/>
      <use xlink:href="#DejaVuSans-20" transform="translate(345.361328 0)"/>
      <use xlink:href="#DejaVuSans-44" transform="translate(377.148438 0)"/>
      <use xlink:href="#DejaVuSans-65" transform="translate(454.150391 0)"/>
      <use xlink:href="#DejaVuSans-76" transform="translate(515.673828 0)"/>
     </g>
    </g>
   </g>
  </g>
 </g>
 <defs>
  <clipPath id="p89844b4ca0">
   <rect x="44.57" y="26.88" width="664.63" height="219.16"/>
  </clipPath>
 </defs>
</svg>
