<?xml version="1.0" encoding="utf-8" standalone="no"?>
<!DOCTYPE svg PUBLIC "-//W3C//DTD SVG 1.1//EN"
  "http://www.w3.org/Graphics/SVG/1.1/DTD/svg11.dtd">
<svg xmlns:xlink="http://www.w3.org/1999/xlink" width="720pt" height="288pt" viewBox="0 0 720 288" xmlns="http://www.w3.org/2000/svg" version="1.1">
 <metadata>
  <rdf:RDF xmlns:dc="http://purl.org/dc/elements/1.1/" xmlns:cc="http://creativecommons.org/ns#" xmlns:rdf="http://www.w3.org/1999/02/22-rdf-syntax-ns#">
   <cc:Work>
    <dc:type rdf:resource="http://purl.org/dc/dcmitype/StillImage"/>
    <dc:date>2025-06-01T18:20:47.244370</dc:date>
    <dc:format>image/svg+xml</dc:format>
    <dc:creator>
     <cc:Agent>
      <dc:title>Matplotlib v3.10.3, https://matplotlib.org/</dc:title>
     </cc:Agent>
    </dc:creator>
   </cc:Work>
  </rdf:RDF>
 </metadata>
 <defs>
  <style type="text/css">*{stroke-linejoin: round; stroke-linecap: butt}</style>
 </defs>
 <g id="figure_1">
  <g id="patch_1">
   <path d="M 0 288 
L 720 288 
L 720 0 
L 0 0 
z
" style="fill: #ffffff"/>
  </g>
  <g id="axes_1">
   <g id="patch_2">
    <path d="M 44.57 246.04 
L 709.2 246.04 
L 709.2 26.88 
L 44.57 26.88 
z
" style="fill: #ffffff"/>
   </g>
   <g id="FillBetweenPolyCollection_1">
    <defs>
     <path id="m7f3a8d73a0" d="M 74.780455 -218.249603 
L 74.780455 -122.572532 
L 78.533306 -119.209436 
L 82.286158 -107.675359 
L 86.039009 -109.459644 
L 89.791861 -108.4301 
L 93.544712 -102.33499 
L 97.297564 -94.116422 
L 101.050415 -96.469179 
L 104.803267 -98.132216 
L 108.556118 -116.338186 
L 112.30897 -125.032672 
L 116.061821 -119.122803 
L 119.814673 -127.14182 
L 123.567524 -124.495459 
L 127.320375 -134.063366 
L 131.073227 -131.656075 
L 134.826078 -131.358283 
L 138.57893 -125.530306 
L 142.331781 -133.974524 
L 146.084633 -134.563781 
L 149.837484 -131.718389 
L 153.590336 -129.297779 
L 157.343187 -135.838413 
L 161.096039 -120.574249 
L 164.84889 -124.376047 
L 168.601742 -121.323478 
L 172.354593 -122.125618 
L 176.107445 -127.089392 
L 179.860296 -130.016552 
L 183.613148 -131.677553 
L 187.365999 -124.641124 
L 191.118851 -128.525702 
L 194.871702 -123.231553 
L 198.624554 -121.251218 
L 202.377405 -106.53812 
L 206.130257 -112.919406 
L 209.883108 -106.256195 
L 213.63596 -118.780798 
L 217.388811 -137.18579 
L 221.141663 -137.322858 
L 224.894514 -146.996547 
L 228.647366 -160.904958 
L 232.400217 -155.02947 
L 236.153069 -147.112903 
L 239.90592 -128.036265 
L 243.658772 -113.484691 
L 247.411623 -115.018079 
L 251.164475 -95.214905 
L 254.917326 -93.212012 
L 258.670178 -111.851117 
L 262.423029 -94.260852 
L 266.175881 -71.331097 
L 269.928732 -77.683052 
L 273.681584 -71.08679 
L 277.434435 -80.646855 
L 281.187287 -82.87503 
L 284.940138 -78.483283 
L 288.69299 -87.679945 
L 292.445841 -91.158613 
L 296.198693 -100.928705 
L 299.951544 -92.912372 
L 303.704396 -108.042205 
L 307.457247 -104.584447 
L 311.210099 -103.717247 
L 314.96295 -110.888718 
L 318.715802 -113.119109 
L 322.468653 -96.181368 
L 326.221505 -100.372339 
L 329.974356 -94.652229 
L 333.727208 -103.673258 
L 337.480059 -98.845728 
L 341.232911 -107.117886 
L 344.985762 -96.893515 
L 348.738614 -91.701688 
L 352.491465 -100.243678 
L 356.244317 -98.676956 
L 359.997168 -91.865766 
L 363.75002 -87.881423 
L 367.502871 -96.86491 
L 371.255723 -96.905858 
L 375.008574 -106.957376 
L 378.761426 -99.038687 
L 382.514277 -118.0602 
L 386.267129 -117.808547 
L 390.01998 -112.867499 
L 393.772832 -111.901398 
L 397.525683 -116.036876 
L 401.278535 -118.229433 
L 405.031386 -111.605152 
L 408.784238 -120.058949 
L 412.537089 -127.5432 
L 416.289941 -121.057276 
L 420.042792 -110.496749 
L 423.795644 -110.171211 
L 427.548495 -108.195364 
L 431.301347 -108.579954 
L 435.054198 -108.926358 
L 438.80705 -108.997273 
L 442.559901 -96.69751 
L 446.312753 -85.278747 
L 450.065604 -77.511433 
L 453.818456 -77.990946 
L 457.571307 -77.412503 
L 461.324159 -76.684685 
L 465.07701 -72.464479 
L 468.829862 -69.547177 
L 472.582713 -76.719501 
L 476.335565 -92.893974 
L 480.088416 -105.282444 
L 483.841268 -98.79437 
L 487.594119 -101.572186 
L 491.346971 -88.781295 
L 495.099822 -88.827595 
L 498.852674 -84.053998 
L 502.605525 -77.786803 
L 506.358377 -97.794627 
L 510.111228 -96.327274 
L 513.86408 -89.150422 
L 517.616931 -96.6121 
L 521.369783 -80.855525 
L 525.122634 -73.242919 
L 528.875486 -76.389797 
L 532.628337 -83.849071 
L 536.381189 -75.850804 
L 540.13404 -70.039866 
L 543.886892 -78.581577 
L 547.639743 -81.540044 
L 551.392595 -87.26457 
L 555.145446 -94.421018 
L 558.898298 -88.556772 
L 562.651149 -87.197962 
L 566.404001 -86.24248 
L 570.156852 -82.505025 
L 573.909704 -88.203219 
L 577.662555 -92.779413 
L 581.415407 -94.553195 
L 585.168258 -82.299188 
L 588.92111 -76.709638 
L 592.673961 -76.179669 
L 596.426813 -74.392915 
L 600.179664 -85.923394 
L 603.932516 -66.909488 
L 607.685367 -79.930975 
L 611.438219 -64.577512 
L 615.19107 -70.238906 
L 618.943922 -63.908082 
L 622.696773 -51.921818 
L 626.449625 -57.769008 
L 626.449625 -225.923565 
L 626.449625 -225.923565 
L 622.696773 -238.237567 
L 618.943922 -231.737194 
L 615.19107 -235.25191 
L 611.438219 -234.700805 
L 607.685367 -228.756917 
L 603.932516 -232.078186 
L 600.179664 -226.869834 
L 596.426813 -239.526555 
L 592.673961 -229.856103 
L 588.92111 -223.803912 
L 585.168258 -231.838265 
L 581.415407 -216.387182 
L 577.662555 -215.581506 
L 573.909704 -206.333981 
L 570.156852 -218.771465 
L 566.404001 -213.29015 
L 562.651149 -213.497241 
L 558.898298 -212.756047 
L 555.145446 -209.035295 
L 551.392595 -209.143645 
L 547.639743 -213.342294 
L 543.886892 -216.26443 
L 540.13404 -212.853439 
L 536.381189 -201.011653 
L 532.628337 -202.277639 
L 528.875486 -210.499851 
L 525.122634 -209.505064 
L 521.369783 -202.619066 
L 517.616931 -191.222139 
L 513.86408 -186.694784 
L 510.111228 -194.195415 
L 506.358377 -191.928793 
L 502.605525 -213.317173 
L 498.852674 -209.302463 
L 495.099822 -201.343901 
L 491.346971 -215.445223 
L 487.594119 -207.799929 
L 483.841268 -207.398834 
L 480.088416 -199.384883 
L 476.335565 -217.973742 
L 472.582713 -228.771316 
L 468.829862 -235.217032 
L 465.07701 -243.198851 
L 461.324159 -228.66081 
L 457.571307 -245.880212 
L 453.818456 -246.754985 
L 450.065604 -251.158182 
L 446.312753 -242.337286 
L 442.559901 -245.051051 
L 438.80705 -231.116419 
L 435.054198 -239.434336 
L 431.301347 -238.182202 
L 427.548495 -242.744789 
L 423.795644 -237.135902 
L 420.042792 -243.858462 
L 416.289941 -230.355172 
L 412.537089 -235.930943 
L 408.784238 -233.569654 
L 405.031386 -236.464899 
L 401.278535 -231.875121 
L 397.525683 -229.344725 
L 393.772832 -228.902571 
L 390.01998 -214.203578 
L 386.267129 -219.544035 
L 382.514277 -212.789239 
L 378.761426 -216.261338 
L 375.008574 -210.050178 
L 371.255723 -215.197092 
L 367.502871 -214.620423 
L 363.75002 -219.643896 
L 359.997168 -201.272712 
L 356.244317 -206.014591 
L 352.491465 -200.742168 
L 348.738614 -211.536643 
L 344.985762 -206.490138 
L 341.232911 -193.904291 
L 337.480059 -194.983028 
L 333.727208 -193.316243 
L 329.974356 -196.815051 
L 326.221505 -199.596256 
L 322.468653 -203.787227 
L 318.715802 -186.631503 
L 314.96295 -197.508531 
L 311.210099 -200.102371 
L 307.457247 -202.359586 
L 303.704396 -209.87361 
L 299.951544 -217.301397 
L 296.198693 -202.018983 
L 292.445841 -216.148724 
L 288.69299 -220.281338 
L 284.940138 -232.602416 
L 281.187287 -230.317832 
L 277.434435 -232.981972 
L 273.681584 -238.473032 
L 269.928732 -239.215512 
L 266.175881 -235.14064 
L 262.423029 -222.928355 
L 258.670178 -216.05556 
L 254.917326 -224.994446 
L 251.164475 -226.915237 
L 247.411623 -211.181068 
L 243.658772 -218.345669 
L 239.90592 -209.57063 
L 236.153069 -199.612923 
L 232.400217 -205.756222 
L 228.647366 -205.330295 
L 224.894514 -221.055226 
L 221.141663 -208.276725 
L 217.388811 -203.981484 
L 213.63596 -208.435601 
L 209.883108 -212.531549 
L 206.130257 -197.367024 
L 202.377405 -211.958981 
L 198.624554 -198.190473 
L 194.871702 -192.940402 
L 191.118851 -181.833388 
L 187.365999 -189.60532 
L 183.613148 -182.005769 
L 179.860296 -182.885667 
L 176.107445 -191.553031 
L 172.354593 -186.27163 
L 168.601742 -188.962952 
L 164.84889 -186.891304 
L 161.096039 -189.130894 
L 157.343187 -174.883982 
L 153.590336 -186.801515 
L 149.837484 -181.837777 
L 146.084633 -182.262121 
L 142.331781 -181.507154 
L 138.57893 -182.527859 
L 134.826078 -189.391303 
L 131.073227 -188.94819 
L 127.320375 -188.660172 
L 123.567524 -199.753956 
L 119.814673 -197.349798 
L 116.061821 -202.571374 
L 112.30897 -195.716915 
L 108.556118 -207.656917 
L 104.803267 -205.51786 
L 101.050415 -212.012841 
L 97.297564 -215.637161 
L 93.544712 -218.559918 
L 89.791861 -208.10516 
L 86.039009 -201.69266 
L 82.286158 -231.748056 
L 78.533306 -201.685472 
L 74.780455 -218.249603 
z
" style="stroke: #808080; stroke-opacity: 0.2"/>
    </defs>
    <g clip-path="url(#pebe80b9b38)">
     <use xlink:href="#m7f3a8d73a0" x="0" y="288" style="fill: #808080; fill-opacity: 0.2; stroke: #808080; stroke-opacity: 0.2"/>
    </g>
   </g>
   <g id="matplotlib.axis_1">
    <g id="xtick_1">
     <g id="line2d_1">
      <defs>
       <path id="mb1890880e0" d="M 0 0 
L 0 3.5 
" style="stroke: #000000; stroke-width: 0.8"/>
      </defs>
      <g>
       <use xlink:href="#mb1890880e0" x="119.814673" y="246.04" style="stroke: #000000; stroke-width: 0.8"/>
      </g>
     </g>
     <g id="text_1">
      <!-- 05-30 00 -->
      <g transform="translate(97.334204 260.638438) scale(0.1 -0.1)">
       <defs>
        <path id="DejaVuSans-30" d="M 2034 4250 
Q 1547 4250 1301 3770 
Q 1056 3291 1056 2328 
Q 1056 1369 1301 889 
Q 1547 409 2034 409 
Q 2525 409 2770 889 
Q 3016 1369 3016 2328 
Q 3016 3291 2770 3770 
Q 2525 4250 2034 4250 
z
M 2034 4750 
Q 2819 4750 3233 4129 
Q 3647 3509 3647 2328 
Q 3647 1150 3233 529 
Q 2819 -91 2034 -91 
Q 1250 -91 836 529 
Q 422 1150 422 2328 
Q 422 3509 836 4129 
Q 1250 4750 2034 4750 
z
" transform="scale(0.015625)"/>
        <path id="DejaVuSans-35" d="M 691 4666 
L 3169 4666 
L 3169 4134 
L 1269 4134 
L 1269 2991 
Q 1406 3038 1543 3061 
Q 1681 3084 1819 3084 
Q 2600 3084 3056 2656 
Q 3513 2228 3513 1497 
Q 3513 744 3044 326 
Q 2575 -91 1722 -91 
Q 1428 -91 1123 -41 
Q 819 9 494 109 
L 494 744 
Q 775 591 1075 516 
Q 1375 441 1709 441 
Q 2250 441 2565 725 
Q 2881 1009 2881 1497 
Q 2881 1984 2565 2268 
Q 2250 2553 1709 2553 
Q 1456 2553 1204 2497 
Q 953 2441 691 2322 
L 691 4666 
z
" transform="scale(0.015625)"/>
        <path id="DejaVuSans-2d" d="M 313 2009 
L 1997 2009 
L 1997 1497 
L 313 1497 
L 313 2009 
z
" transform="scale(0.015625)"/>
        <path id="DejaVuSans-33" d="M 2597 2516 
Q 3050 2419 3304 2112 
Q 3559 1806 3559 1356 
Q 3559 666 3084 287 
Q 2609 -91 1734 -91 
Q 1441 -91 1130 -33 
Q 819 25 488 141 
L 488 750 
Q 750 597 1062 519 
Q 1375 441 1716 441 
Q 2309 441 2620 675 
Q 2931 909 2931 1356 
Q 2931 1769 2642 2001 
Q 2353 2234 1838 2234 
L 1294 2234 
L 1294 2753 
L 1863 2753 
Q 2328 2753 2575 2939 
Q 2822 3125 2822 3475 
Q 2822 3834 2567 4026 
Q 2313 4219 1838 4219 
Q 1578 4219 1281 4162 
Q 984 4106 628 3988 
L 628 4550 
Q 988 4650 1302 4700 
Q 1616 4750 1894 4750 
Q 2613 4750 3031 4423 
Q 3450 4097 3450 3541 
Q 3450 3153 3228 2886 
Q 3006 2619 2597 2516 
z
" transform="scale(0.015625)"/>
        <path id="DejaVuSans-20" transform="scale(0.015625)"/>
       </defs>
       <use xlink:href="#DejaVuSans-30"/>
       <use xlink:href="#DejaVuSans-35" transform="translate(63.623047 0)"/>
       <use xlink:href="#DejaVuSans-2d" transform="translate(127.246094 0)"/>
       <use xlink:href="#DejaVuSans-33" transform="translate(163.330078 0)"/>
       <use xlink:href="#DejaVuSans-30" transform="translate(226.953125 0)"/>
       <use xlink:href="#DejaVuSans-20" transform="translate(290.576172 0)"/>
       <use xlink:href="#DejaVuSans-30" transform="translate(322.363281 0)"/>
       <use xlink:href="#DejaVuSans-30" transform="translate(385.986328 0)"/>
      </g>
     </g>
    </g>
    <g id="xtick_2">
     <g id="line2d_2">
      <g>
       <use xlink:href="#mb1890880e0" x="209.883108" y="246.04" style="stroke: #000000; stroke-width: 0.8"/>
      </g>
     </g>
     <g id="text_2">
      <!-- 05-30 12 -->
      <g transform="translate(187.40264 260.638438) scale(0.1 -0.1)">
       <defs>
        <path id="DejaVuSans-31" d="M 794 531 
L 1825 531 
L 1825 4091 
L 703 3866 
L 703 4441 
L 1819 4666 
L 2450 4666 
L 2450 531 
L 3481 531 
L 3481 0 
L 794 0 
L 794 531 
z
" transform="scale(0.015625)"/>
        <path id="DejaVuSans-32" d="M 1228 531 
L 3431 531 
L 3431 0 
L 469 0 
L 469 531 
Q 828 903 1448 1529 
Q 2069 2156 2228 2338 
Q 2531 2678 2651 2914 
Q 2772 3150 2772 3378 
Q 2772 3750 2511 3984 
Q 2250 4219 1831 4219 
Q 1534 4219 1204 4116 
Q 875 4013 500 3803 
L 500 4441 
Q 881 4594 1212 4672 
Q 1544 4750 1819 4750 
Q 2544 4750 2975 4387 
Q 3406 4025 3406 3419 
Q 3406 3131 3298 2873 
Q 3191 2616 2906 2266 
Q 2828 2175 2409 1742 
Q 1991 1309 1228 531 
z
" transform="scale(0.015625)"/>
       </defs>
       <use xlink:href="#DejaVuSans-30"/>
       <use xlink:href="#DejaVuSans-35" transform="translate(63.623047 0)"/>
       <use xlink:href="#DejaVuSans-2d" transform="translate(127.246094 0)"/>
       <use xlink:href="#DejaVuSans-33" transform="translate(163.330078 0)"/>
       <use xlink:href="#DejaVuSans-30" transform="translate(226.953125 0)"/>
       <use xlink:href="#DejaVuSans-20" transform="translate(290.576172 0)"/>
       <use xlink:href="#DejaVuSans-31" transform="translate(322.363281 0)"/>
       <use xlink:href="#DejaVuSans-32" transform="translate(385.986328 0)"/>
      </g>
     </g>
    </g>
    <g id="xtick_3">
     <g id="line2d_3">
      <g>
       <use xlink:href="#mb1890880e0" x="299.951544" y="246.04" style="stroke: #000000; stroke-width: 0.8"/>
      </g>
     </g>
     <g id="text_3">
      <!-- 05-31 00 -->
      <g transform="translate(277.471076 260.638438) scale(0.1 -0.1)">
       <use xlink:href="#DejaVuSans-30"/>
       <use xlink:href="#DejaVuSans-35" transform="translate(63.623047 0)"/>
       <use xlink:href="#DejaVuSans-2d" transform="translate(127.246094 0)"/>
       <use xlink:href="#DejaVuSans-33" transform="translate(163.330078 0)"/>
       <use xlink:href="#DejaVuSans-31" transform="translate(226.953125 0)"/>
       <use xlink:href="#DejaVuSans-20" transform="translate(290.576172 0)"/>
       <use xlink:href="#DejaVuSans-30" transform="translate(322.363281 0)"/>
       <use xlink:href="#DejaVuSans-30" transform="translate(385.986328 0)"/>
      </g>
     </g>
    </g>
    <g id="xtick_4">
     <g id="line2d_4">
      <g>
       <use xlink:href="#mb1890880e0" x="390.01998" y="246.04" style="stroke: #000000; stroke-width: 0.8"/>
      </g>
     </g>
     <g id="text_4">
      <!-- 05-31 12 -->
      <g transform="translate(367.539511 260.638438) scale(0.1 -0.1)">
       <use xlink:href="#DejaVuSans-30"/>
       <use xlink:href="#DejaVuSans-35" transform="translate(63.623047 0)"/>
       <use xlink:href="#DejaVuSans-2d" transform="translate(127.246094 0)"/>
       <use xlink:href="#DejaVuSans-33" transform="translate(163.330078 0)"/>
       <use xlink:href="#DejaVuSans-31" transform="translate(226.953125 0)"/>
       <use xlink:href="#DejaVuSans-20" transform="translate(290.576172 0)"/>
       <use xlink:href="#DejaVuSans-31" transform="translate(322.363281 0)"/>
       <use xlink:href="#DejaVuSans-32" transform="translate(385.986328 0)"/>
      </g>
     </g>
    </g>
    <g id="xtick_5">
     <g id="line2d_5">
      <g>
       <use xlink:href="#mb1890880e0" x="480.088416" y="246.04" style="stroke: #000000; stroke-width: 0.8"/>
      </g>
     </g>
     <g id="text_5">
      <!-- 06-01 00 -->
      <g transform="translate(457.607947 260.638438) scale(0.1 -0.1)">
       <defs>
        <path id="DejaVuSans-36" d="M 2113 2584 
Q 1688 2584 1439 2293 
Q 1191 2003 1191 1497 
Q 1191 994 1439 701 
Q 1688 409 2113 409 
Q 2538 409 2786 701 
Q 3034 994 3034 1497 
Q 3034 2003 2786 2293 
Q 2538 2584 2113 2584 
z
M 3366 4563 
L 3366 3988 
Q 3128 4100 2886 4159 
Q 2644 4219 2406 4219 
Q 1781 4219 1451 3797 
Q 1122 3375 1075 2522 
Q 1259 2794 1537 2939 
Q 1816 3084 2150 3084 
Q 2853 3084 3261 2657 
Q 3669 2231 3669 1497 
Q 3669 778 3244 343 
Q 2819 -91 2113 -91 
Q 1303 -91 875 529 
Q 447 1150 447 2328 
Q 447 3434 972 4092 
Q 1497 4750 2381 4750 
Q 2619 4750 2861 4703 
Q 3103 4656 3366 4563 
z
" transform="scale(0.015625)"/>
       </defs>
       <use xlink:href="#DejaVuSans-30"/>
       <use xlink:href="#DejaVuSans-36" transform="translate(63.623047 0)"/>
       <use xlink:href="#DejaVuSans-2d" transform="translate(127.246094 0)"/>
       <use xlink:href="#DejaVuSans-30" transform="translate(163.330078 0)"/>
       <use xlink:href="#DejaVuSans-31" transform="translate(226.953125 0)"/>
       <use xlink:href="#DejaVuSans-20" transform="translate(290.576172 0)"/>
       <use xlink:href="#DejaVuSans-30" transform="translate(322.363281 0)"/>
       <use xlink:href="#DejaVuSans-30" transform="translate(385.986328 0)"/>
      </g>
     </g>
    </g>
    <g id="xtick_6">
     <g id="line2d_6">
      <g>
       <use xlink:href="#mb1890880e0" x="570.156852" y="246.04" style="stroke: #000000; stroke-width: 0.8"/>
      </g>
     </g>
     <g id="text_6">
      <!-- 06-01 12 -->
      <g transform="translate(547.676383 260.638438) scale(0.1 -0.1)">
       <use xlink:href="#DejaVuSans-30"/>
       <use xlink:href="#DejaVuSans-36" transform="translate(63.623047 0)"/>
       <use xlink:href="#DejaVuSans-2d" transform="translate(127.246094 0)"/>
       <use xlink:href="#DejaVuSans-30" transform="translate(163.330078 0)"/>
       <use xlink:href="#DejaVuSans-31" transform="translate(226.953125 0)"/>
       <use xlink:href="#DejaVuSans-20" transform="translate(290.576172 0)"/>
       <use xlink:href="#DejaVuSans-31" transform="translate(322.363281 0)"/>
       <use xlink:href="#DejaVuSans-32" transform="translate(385.986328 0)"/>
      </g>
     </g>
    </g>
    <g id="xtick_7">
     <g id="line2d_7">
      <g>
       <use xlink:href="#mb1890880e0" x="660.225288" y="246.04" style="stroke: #000000; stroke-width: 0.8"/>
      </g>
     </g>
     <g id="text_7">
      <!-- 06-02 00 -->
      <g transform="translate(637.744819 260.638438) scale(0.1 -0.1)">
       <use xlink:href="#DejaVuSans-30"/>
       <use xlink:href="#DejaVuSans-36" transform="translate(63.623047 0)"/>
       <use xlink:href="#DejaVuSans-2d" transform="translate(127.246094 0)"/>
       <use xlink:href="#DejaVuSans-30" transform="translate(163.330078 0)"/>
       <use xlink:href="#DejaVuSans-32" transform="translate(226.953125 0)"/>
       <use xlink:href="#DejaVuSans-20" transform="translate(290.576172 0)"/>
       <use xlink:href="#DejaVuSans-30" transform="translate(322.363281 0)"/>
       <use xlink:href="#DejaVuSans-30" transform="translate(385.986328 0)"/>
      </g>
     </g>
    </g>
    <g id="text_8">
     <!-- Tijd -->
     <g transform="translate(368.035 274.316562) scale(0.1 -0.1)">
      <defs>
       <path id="DejaVuSans-54" d="M -19 4666 
L 3928 4666 
L 3928 4134 
L 2272 4134 
L 2272 0 
L 1638 0 
L 1638 4134 
L -19 4134 
L -19 4666 
z
" transform="scale(0.015625)"/>
       <path id="DejaVuSans-69" d="M 603 3500 
L 1178 3500 
L 1178 0 
L 603 0 
L 603 3500 
z
M 603 4863 
L 1178 4863 
L 1178 4134 
L 603 4134 
L 603 4863 
z
" transform="scale(0.015625)"/>
       <path id="DejaVuSans-6a" d="M 603 3500 
L 1178 3500 
L 1178 -63 
Q 1178 -731 923 -1031 
Q 669 -1331 103 -1331 
L -116 -1331 
L -116 -844 
L 38 -844 
Q 366 -844 484 -692 
Q 603 -541 603 -63 
L 603 3500 
z
M 603 4863 
L 1178 4863 
L 1178 4134 
L 603 4134 
L 603 4863 
z
" transform="scale(0.015625)"/>
       <path id="DejaVuSans-64" d="M 2906 2969 
L 2906 4863 
L 3481 4863 
L 3481 0 
L 2906 0 
L 2906 525 
Q 2725 213 2448 61 
Q 2172 -91 1784 -91 
Q 1150 -91 751 415 
Q 353 922 353 1747 
Q 353 2572 751 3078 
Q 1150 3584 1784 3584 
Q 2172 3584 2448 3432 
Q 2725 3281 2906 2969 
z
M 947 1747 
Q 947 1113 1208 752 
Q 1469 391 1925 391 
Q 2381 391 2643 752 
Q 2906 1113 2906 1747 
Q 2906 2381 2643 2742 
Q 2381 3103 1925 3103 
Q 1469 3103 1208 2742 
Q 947 2381 947 1747 
z
" transform="scale(0.015625)"/>
      </defs>
      <use xlink:href="#DejaVuSans-54"/>
      <use xlink:href="#DejaVuSans-69" transform="translate(57.958984 0)"/>
      <use xlink:href="#DejaVuSans-6a" transform="translate(85.742188 0)"/>
      <use xlink:href="#DejaVuSans-64" transform="translate(113.525391 0)"/>
     </g>
    </g>
   </g>
   <g id="matplotlib.axis_2">
    <g id="ytick_1">
     <g id="line2d_8">
      <defs>
       <path id="m5cc875781f" d="M 0 0 
L -3.5 0 
" style="stroke: #000000; stroke-width: 0.8"/>
      </defs>
      <g>
       <use xlink:href="#m5cc875781f" x="44.57" y="239.849828" style="stroke: #000000; stroke-width: 0.8"/>
      </g>
     </g>
     <g id="text_9">
      <!-- 40 -->
      <g transform="translate(24.845 243.649047) scale(0.1 -0.1)">
       <defs>
        <path id="DejaVuSans-34" d="M 2419 4116 
L 825 1625 
L 2419 1625 
L 2419 4116 
z
M 2253 4666 
L 3047 4666 
L 3047 1625 
L 3713 1625 
L 3713 1100 
L 3047 1100 
L 3047 0 
L 2419 0 
L 2419 1100 
L 313 1100 
L 313 1709 
L 2253 4666 
z
" transform="scale(0.015625)"/>
       </defs>
       <use xlink:href="#DejaVuSans-34"/>
       <use xlink:href="#DejaVuSans-30" transform="translate(63.623047 0)"/>
      </g>
     </g>
    </g>
    <g id="ytick_2">
     <g id="line2d_9">
      <g>
       <use xlink:href="#m5cc875781f" x="44.57" y="201.702903" style="stroke: #000000; stroke-width: 0.8"/>
      </g>
     </g>
     <g id="text_10">
      <!-- 45 -->
      <g transform="translate(24.845 205.502121) scale(0.1 -0.1)">
       <use xlink:href="#DejaVuSans-34"/>
       <use xlink:href="#DejaVuSans-35" transform="translate(63.623047 0)"/>
      </g>
     </g>
    </g>
    <g id="ytick_3">
     <g id="line2d_10">
      <g>
       <use xlink:href="#m5cc875781f" x="44.57" y="163.555977" style="stroke: #000000; stroke-width: 0.8"/>
      </g>
     </g>
     <g id="text_11">
      <!-- 50 -->
      <g transform="translate(24.845 167.355196) scale(0.1 -0.1)">
       <use xlink:href="#DejaVuSans-35"/>
       <use xlink:href="#DejaVuSans-30" transform="translate(63.623047 0)"/>
      </g>
     </g>
    </g>
    <g id="ytick_4">
     <g id="line2d_11">
      <g>
       <use xlink:href="#m5cc875781f" x="44.57" y="125.409052" style="stroke: #000000; stroke-width: 0.8"/>
      </g>
     </g>
     <g id="text_12">
      <!-- 55 -->
      <g transform="translate(24.845 129.208271) scale(0.1 -0.1)">
       <use xlink:href="#DejaVuSans-35"/>
       <use xlink:href="#DejaVuSans-35" transform="translate(63.623047 0)"/>
      </g>
     </g>
    </g>
    <g id="ytick_5">
     <g id="line2d_12">
      <g>
       <use xlink:href="#m5cc875781f" x="44.57" y="87.262127" style="stroke: #000000; stroke-width: 0.8"/>
      </g>
     </g>
     <g id="text_13">
      <!-- 60 -->
      <g transform="translate(24.845 91.061346) scale(0.1 -0.1)">
       <use xlink:href="#DejaVuSans-36"/>
       <use xlink:href="#DejaVuSans-30" transform="translate(63.623047 0)"/>
      </g>
     </g>
    </g>
    <g id="ytick_6">
     <g id="line2d_13">
      <g>
       <use xlink:href="#m5cc875781f" x="44.57" y="49.115202" style="stroke: #000000; stroke-width: 0.8"/>
      </g>
     </g>
     <g id="text_14">
      <!-- 65 -->
      <g transform="translate(24.845 52.91442) scale(0.1 -0.1)">
       <use xlink:href="#DejaVuSans-36"/>
       <use xlink:href="#DejaVuSans-35" transform="translate(63.623047 0)"/>
      </g>
     </g>
    </g>
    <g id="text_15">
     <!-- (Rel.) Vochtigheid (%) -->
     <g transform="translate(18.765312 190.838125) rotate(-90) scale(0.1 -0.1)">
      <defs>
       <path id="DejaVuSans-28" d="M 1984 4856 
Q 1566 4138 1362 3434 
Q 1159 2731 1159 2009 
Q 1159 1288 1364 580 
Q 1569 -128 1984 -844 
L 1484 -844 
Q 1016 -109 783 600 
Q 550 1309 550 2009 
Q 550 2706 781 3412 
Q 1013 4119 1484 4856 
L 1984 4856 
z
" transform="scale(0.015625)"/>
       <path id="DejaVuSans-52" d="M 2841 2188 
Q 3044 2119 3236 1894 
Q 3428 1669 3622 1275 
L 4263 0 
L 3584 0 
L 2988 1197 
Q 2756 1666 2539 1819 
Q 2322 1972 1947 1972 
L 1259 1972 
L 1259 0 
L 628 0 
L 628 4666 
L 2053 4666 
Q 2853 4666 3247 4331 
Q 3641 3997 3641 3322 
Q 3641 2881 3436 2590 
Q 3231 2300 2841 2188 
z
M 1259 4147 
L 1259 2491 
L 2053 2491 
Q 2509 2491 2742 2702 
Q 2975 2913 2975 3322 
Q 2975 3731 2742 3939 
Q 2509 4147 2053 4147 
L 1259 4147 
z
" transform="scale(0.015625)"/>
       <path id="DejaVuSans-65" d="M 3597 1894 
L 3597 1613 
L 953 1613 
Q 991 1019 1311 708 
Q 1631 397 2203 397 
Q 2534 397 2845 478 
Q 3156 559 3463 722 
L 3463 178 
Q 3153 47 2828 -22 
Q 2503 -91 2169 -91 
Q 1331 -91 842 396 
Q 353 884 353 1716 
Q 353 2575 817 3079 
Q 1281 3584 2069 3584 
Q 2775 3584 3186 3129 
Q 3597 2675 3597 1894 
z
M 3022 2063 
Q 3016 2534 2758 2815 
Q 2500 3097 2075 3097 
Q 1594 3097 1305 2825 
Q 1016 2553 972 2059 
L 3022 2063 
z
" transform="scale(0.015625)"/>
       <path id="DejaVuSans-6c" d="M 603 4863 
L 1178 4863 
L 1178 0 
L 603 0 
L 603 4863 
z
" transform="scale(0.015625)"/>
       <path id="DejaVuSans-2e" d="M 684 794 
L 1344 794 
L 1344 0 
L 684 0 
L 684 794 
z
" transform="scale(0.015625)"/>
       <path id="DejaVuSans-29" d="M 513 4856 
L 1013 4856 
Q 1481 4119 1714 3412 
Q 1947 2706 1947 2009 
Q 1947 1309 1714 600 
Q 1481 -109 1013 -844 
L 513 -844 
Q 928 -128 1133 580 
Q 1338 1288 1338 2009 
Q 1338 2731 1133 3434 
Q 928 4138 513 4856 
z
" transform="scale(0.015625)"/>
       <path id="DejaVuSans-56" d="M 1831 0 
L 50 4666 
L 709 4666 
L 2188 738 
L 3669 4666 
L 4325 4666 
L 2547 0 
L 1831 0 
z
" transform="scale(0.015625)"/>
       <path id="DejaVuSans-6f" d="M 1959 3097 
Q 1497 3097 1228 2736 
Q 959 2375 959 1747 
Q 959 1119 1226 758 
Q 1494 397 1959 397 
Q 2419 397 2687 759 
Q 2956 1122 2956 1747 
Q 2956 2369 2687 2733 
Q 2419 3097 1959 3097 
z
M 1959 3584 
Q 2709 3584 3137 3096 
Q 3566 2609 3566 1747 
Q 3566 888 3137 398 
Q 2709 -91 1959 -91 
Q 1206 -91 779 398 
Q 353 888 353 1747 
Q 353 2609 779 3096 
Q 1206 3584 1959 3584 
z
" transform="scale(0.015625)"/>
       <path id="DejaVuSans-63" d="M 3122 3366 
L 3122 2828 
Q 2878 2963 2633 3030 
Q 2388 3097 2138 3097 
Q 1578 3097 1268 2742 
Q 959 2388 959 1747 
Q 959 1106 1268 751 
Q 1578 397 2138 397 
Q 2388 397 2633 464 
Q 2878 531 3122 666 
L 3122 134 
Q 2881 22 2623 -34 
Q 2366 -91 2075 -91 
Q 1284 -91 818 406 
Q 353 903 353 1747 
Q 353 2603 823 3093 
Q 1294 3584 2113 3584 
Q 2378 3584 2631 3529 
Q 2884 3475 3122 3366 
z
" transform="scale(0.015625)"/>
       <path id="DejaVuSans-68" d="M 3513 2113 
L 3513 0 
L 2938 0 
L 2938 2094 
Q 2938 2591 2744 2837 
Q 2550 3084 2163 3084 
Q 1697 3084 1428 2787 
Q 1159 2491 1159 1978 
L 1159 0 
L 581 0 
L 581 4863 
L 1159 4863 
L 1159 2956 
Q 1366 3272 1645 3428 
Q 1925 3584 2291 3584 
Q 2894 3584 3203 3211 
Q 3513 2838 3513 2113 
z
" transform="scale(0.015625)"/>
       <path id="DejaVuSans-74" d="M 1172 4494 
L 1172 3500 
L 2356 3500 
L 2356 3053 
L 1172 3053 
L 1172 1153 
Q 1172 725 1289 603 
Q 1406 481 1766 481 
L 2356 481 
L 2356 0 
L 1766 0 
Q 1100 0 847 248 
Q 594 497 594 1153 
L 594 3053 
L 172 3053 
L 172 3500 
L 594 3500 
L 594 4494 
L 1172 4494 
z
" transform="scale(0.015625)"/>
       <path id="DejaVuSans-67" d="M 2906 1791 
Q 2906 2416 2648 2759 
Q 2391 3103 1925 3103 
Q 1463 3103 1205 2759 
Q 947 2416 947 1791 
Q 947 1169 1205 825 
Q 1463 481 1925 481 
Q 2391 481 2648 825 
Q 2906 1169 2906 1791 
z
M 3481 434 
Q 3481 -459 3084 -895 
Q 2688 -1331 1869 -1331 
Q 1566 -1331 1297 -1286 
Q 1028 -1241 775 -1147 
L 775 -588 
Q 1028 -725 1275 -790 
Q 1522 -856 1778 -856 
Q 2344 -856 2625 -561 
Q 2906 -266 2906 331 
L 2906 616 
Q 2728 306 2450 153 
Q 2172 0 1784 0 
Q 1141 0 747 490 
Q 353 981 353 1791 
Q 353 2603 747 3093 
Q 1141 3584 1784 3584 
Q 2172 3584 2450 3431 
Q 2728 3278 2906 2969 
L 2906 3500 
L 3481 3500 
L 3481 434 
z
" transform="scale(0.015625)"/>
       <path id="DejaVuSans-25" d="M 4653 2053 
Q 4381 2053 4226 1822 
Q 4072 1591 4072 1178 
Q 4072 772 4226 539 
Q 4381 306 4653 306 
Q 4919 306 5073 539 
Q 5228 772 5228 1178 
Q 5228 1588 5073 1820 
Q 4919 2053 4653 2053 
z
M 4653 2450 
Q 5147 2450 5437 2106 
Q 5728 1763 5728 1178 
Q 5728 594 5436 251 
Q 5144 -91 4653 -91 
Q 4153 -91 3862 251 
Q 3572 594 3572 1178 
Q 3572 1766 3864 2108 
Q 4156 2450 4653 2450 
z
M 1428 4353 
Q 1159 4353 1004 4120 
Q 850 3888 850 3481 
Q 850 3069 1003 2837 
Q 1156 2606 1428 2606 
Q 1700 2606 1854 2837 
Q 2009 3069 2009 3481 
Q 2009 3884 1853 4118 
Q 1697 4353 1428 4353 
z
M 4250 4750 
L 4750 4750 
L 1831 -91 
L 1331 -91 
L 4250 4750 
z
M 1428 4750 
Q 1922 4750 2215 4408 
Q 2509 4066 2509 3481 
Q 2509 2891 2217 2550 
Q 1925 2209 1428 2209 
Q 931 2209 642 2551 
Q 353 2894 353 3481 
Q 353 4063 643 4406 
Q 934 4750 1428 4750 
z
" transform="scale(0.015625)"/>
      </defs>
      <use xlink:href="#DejaVuSans-28"/>
      <use xlink:href="#DejaVuSans-52" transform="translate(39.013672 0)"/>
      <use xlink:href="#DejaVuSans-65" transform="translate(103.996094 0)"/>
      <use xlink:href="#DejaVuSans-6c" transform="translate(165.519531 0)"/>
      <use xlink:href="#DejaVuSans-2e" transform="translate(193.302734 0)"/>
      <use xlink:href="#DejaVuSans-29" transform="translate(225.089844 0)"/>
      <use xlink:href="#DejaVuSans-20" transform="translate(264.103516 0)"/>
      <use xlink:href="#DejaVuSans-56" transform="translate(295.890625 0)"/>
      <use xlink:href="#DejaVuSans-6f" transform="translate(356.548828 0)"/>
      <use xlink:href="#DejaVuSans-63" transform="translate(417.730469 0)"/>
      <use xlink:href="#DejaVuSans-68" transform="translate(472.710938 0)"/>
      <use xlink:href="#DejaVuSans-74" transform="translate(536.089844 0)"/>
      <use xlink:href="#DejaVuSans-69" transform="translate(575.298828 0)"/>
      <use xlink:href="#DejaVuSans-67" transform="translate(603.082031 0)"/>
      <use xlink:href="#DejaVuSans-68" transform="translate(666.558594 0)"/>
      <use xlink:href="#DejaVuSans-65" transform="translate(729.9375 0)"/>
      <use xlink:href="#DejaVuSans-69" transform="translate(791.460938 0)"/>
      <use xlink:href="#DejaVuSans-64" transform="translate(819.244141 0)"/>
      <use xlink:href="#DejaVuSans-20" transform="translate(882.720703 0)"/>
      <use xlink:href="#DejaVuSans-28" transform="translate(914.507812 0)"/>
      <use xlink:href="#DejaVuSans-25" transform="translate(953.521484 0)"/>
      <use xlink:href="#DejaVuSans-29" transform="translate(1048.541016 0)"/>
     </g>
    </g>
   </g>
   <g id="line2d_14">
    <path d="M 74.780455 104.046774 
L 78.533306 115.490852 
L 82.286158 98.706204 
L 89.791861 105.572651 
L 93.544712 99.469143 
L 112.30897 112.184785 
L 116.061821 116.762416 
L 119.814673 124.137488 
L 123.567524 113.456349 
L 127.320375 117.779667 
L 131.073227 116.762416 
L 134.826078 128.969432 
L 138.57893 127.443555 
L 142.331781 123.628862 
L 146.084633 120.068483 
L 149.837484 140.413509 
L 153.590336 137.361755 
L 157.343187 127.189242 
L 161.096039 123.628862 
L 164.84889 121.848672 
L 168.601742 116.25379 
L 172.354593 119.559857 
L 176.107445 115.490852 
L 179.860296 118.03398 
L 183.613148 112.947723 
L 187.365999 103.538148 
L 191.118851 122.865924 
L 194.871702 111.676159 
L 198.624554 101.249333 
L 202.377405 107.352841 
L 206.130257 104.5554 
L 209.883108 98.451892 
L 213.63596 94.128573 
L 217.388811 92.857009 
L 221.141663 83.447434 
L 224.894514 88.279378 
L 228.647366 90.059568 
L 232.400217 93.619948 
L 236.153069 116.25379 
L 239.90592 122.865924 
L 243.658772 119.305544 
L 247.411623 107.098528 
L 251.164475 104.046774 
L 254.917326 105.318338 
L 258.670178 97.688953 
L 262.423029 92.602696 
L 266.175881 85.73625 
L 269.928732 103.283835 
L 273.681584 100.232081 
L 277.434435 103.792461 
L 281.187287 104.809712 
L 284.940138 98.960517 
L 288.69299 110.913221 
L 292.445841 104.5554 
L 296.198693 115.999477 
L 299.951544 113.202036 
L 303.704396 113.456349 
L 307.457247 113.456349 
L 311.210099 112.184785 
L 314.96295 111.676159 
L 322.468653 118.288293 
L 326.221505 116.508103 
L 329.974356 110.404595 
L 333.727208 117.016729 
L 337.480059 114.219287 
L 341.232911 111.930472 
L 344.985762 108.370092 
L 348.738614 122.357298 
L 352.491465 117.016729 
L 356.244317 127.189242 
L 359.997168 126.171991 
L 363.75002 112.184785 
L 367.502871 104.5554 
L 371.255723 111.421846 
L 375.008574 103.792461 
L 378.761426 98.451892 
L 382.514277 91.331132 
L 386.267129 86.753501 
L 390.01998 80.649993 
L 393.772832 76.072362 
L 397.525683 71.749044 
L 401.278535 67.171413 
L 405.031386 66.662787 
L 408.784238 73.783547 
L 412.537089 70.47748 
L 416.289941 72.003357 
L 420.042792 56.363117 
L 423.795644 75.818049 
L 427.548495 78.869803 
L 431.301347 84.718999 
L 435.054198 88.406535 
L 438.80705 85.354781 
L 442.559901 84.210373 
L 446.312753 91.839758 
L 450.065604 89.042317 
L 453.818456 91.076819 
L 457.571307 96.926015 
L 461.324159 106.081277 
L 465.07701 100.740707 
L 468.829862 109.895969 
L 472.582713 108.878718 
L 476.335565 124.646114 
L 480.088416 115.490852 
L 483.841268 110.658908 
L 487.594119 109.005874 
L 498.852674 117.016729 
L 502.605525 125.027583 
L 506.358377 123.883175 
L 510.111228 123.501706 
L 513.86408 146.008392 
L 517.616931 123.501706 
L 521.369783 123.501706 
L 525.122634 129.73237 
L 528.875486 116.762416 
L 532.628337 129.986683 
L 536.381189 129.605214 
L 540.13404 121.59436 
L 547.639743 118.542606 
L 551.392595 114.219287 
L 555.145446 115.872321 
L 558.898298 109.768813 
L 562.651149 106.717059 
L 566.404001 100.232081 
L 570.156852 106.717059 
L 577.662555 98.706204 
L 581.415407 101.757958 
L 585.168258 84.210373 
L 588.92111 91.076819 
L 592.673961 89.169473 
L 596.426813 89.932412 
L 600.179664 92.221227 
L 603.932516 105.572651 
L 607.685367 99.469143 
L 611.438219 99.087674 
L 615.19107 90.313881 
L 618.943922 97.180327 
L 622.696773 105.572651 
L 626.449625 117.016729 
L 626.449625 117.016729 
" clip-path="url(#pebe80b9b38)" style="fill: none; stroke: #1f77b4; stroke-width: 2; stroke-linecap: square"/>
   </g>
   <g id="line2d_15">
    <path d="M 74.780455 117.588932 
L 78.533306 127.552546 
L 82.286158 118.288293 
L 86.039009 132.423848 
L 89.791861 129.73237 
L 93.544712 127.552546 
L 97.297564 133.123208 
L 101.050415 133.75899 
L 104.803267 136.174962 
L 108.556118 126.002449 
L 112.30897 127.625207 
L 116.061821 127.152912 
L 119.814673 125.754191 
L 123.567524 125.875292 
L 127.320375 126.638231 
L 131.073227 127.697868 
L 134.826078 127.625207 
L 138.57893 133.970918 
L 142.331781 130.259161 
L 146.084633 129.587049 
L 149.837484 131.221917 
L 153.590336 129.950353 
L 157.343187 132.638803 
L 161.096039 133.147428 
L 164.84889 132.366325 
L 168.601742 132.856785 
L 172.354593 133.801376 
L 176.107445 128.678789 
L 179.860296 131.548891 
L 187.365999 130.876778 
L 191.118851 132.820455 
L 194.871702 129.914022 
L 198.624554 128.279154 
L 202.377405 128.751449 
L 206.130257 132.856785 
L 213.63596 124.391801 
L 217.388811 117.416363 
L 221.141663 115.200208 
L 224.894514 103.974113 
L 228.647366 104.882373 
L 232.400217 107.607154 
L 236.153069 114.637087 
L 239.90592 119.196553 
L 247.411623 124.900426 
L 254.917326 128.896771 
L 258.670178 124.046662 
L 266.175881 134.764131 
L 269.928732 129.550718 
L 273.681584 133.220089 
L 277.434435 131.185587 
L 281.187287 131.403569 
L 284.940138 132.457151 
L 288.69299 134.019358 
L 292.445841 134.346332 
L 296.198693 136.526156 
L 299.951544 132.893116 
L 303.704396 129.042093 
L 307.457247 134.527984 
L 311.210099 136.090191 
L 314.96295 133.801376 
L 318.715802 138.124694 
L 326.221505 138.015703 
L 329.974356 142.26636 
L 333.727208 139.505249 
L 337.480059 141.085622 
L 341.232911 137.488912 
L 344.985762 136.308174 
L 348.738614 136.380834 
L 352.491465 137.507077 
L 356.244317 135.654226 
L 359.997168 141.430761 
L 363.75002 134.237341 
L 367.502871 132.257333 
L 371.255723 131.948525 
L 375.008574 129.496223 
L 378.761426 130.349987 
L 382.514277 122.575281 
L 386.267129 119.323709 
L 390.01998 124.464462 
L 393.772832 117.598015 
L 401.278535 112.947723 
L 405.031386 113.964975 
L 408.784238 111.185699 
L 412.537089 106.262929 
L 416.289941 112.293776 
L 420.042792 110.822395 
L 423.795644 114.346444 
L 427.548495 112.529924 
L 431.301347 114.618922 
L 435.054198 113.819653 
L 438.80705 117.943154 
L 442.559901 117.12572 
L 446.312753 124.191984 
L 450.065604 123.665193 
L 453.818456 125.627035 
L 457.571307 126.353643 
L 461.324159 135.327253 
L 465.07701 130.168335 
L 468.829862 135.617896 
L 472.582713 135.254592 
L 476.335565 132.566142 
L 480.088416 135.666336 
L 483.841268 134.903398 
L 487.594119 133.313943 
L 491.346971 135.886741 
L 495.099822 142.914252 
L 498.852674 141.32177 
L 502.605525 142.448012 
L 506.358377 143.13829 
L 510.111228 142.738655 
L 513.86408 150.077397 
L 517.616931 144.08288 
L 521.369783 146.262705 
L 525.122634 146.626009 
L 528.875486 144.555176 
L 532.628337 144.936645 
L 536.381189 149.568771 
L 540.13404 146.553348 
L 543.886892 140.576996 
L 547.639743 140.558831 
L 551.392595 139.795893 
L 555.145446 136.271843 
L 558.898298 137.34359 
L 562.651149 137.652399 
L 566.404001 138.233685 
L 570.156852 137.361755 
L 573.909704 140.7314 
L 577.662555 133.819541 
L 581.415407 132.529812 
L 585.168258 130.931274 
L 588.92111 137.743225 
L 592.673961 134.982114 
L 596.426813 131.040265 
L 600.179664 131.603386 
L 603.932516 138.506163 
L 607.685367 133.656054 
L 611.438219 138.360842 
L 615.19107 135.254592 
L 618.943922 140.177362 
L 622.696773 142.920307 
L 626.449625 146.153713 
L 630.202476 96.926015 
L 633.955327 85.227624 
L 637.708179 88.788004 
L 641.46103 106.589902 
L 645.213882 91.585445 
L 648.966733 108.370092 
L 652.719585 102.77521 
L 656.472436 105.318338 
L 660.225288 108.878718 
L 663.978139 105.064025 
L 667.730991 112.184785 
L 671.483842 123.374549 
L 675.236694 137.107443 
L 678.989545 131.51256 
L 678.989545 131.51256 
" clip-path="url(#pebe80b9b38)" style="fill: none; stroke-dasharray: 5.55,2.4; stroke-dashoffset: 0; stroke: #808080; stroke-width: 1.5"/>
   </g>
   <g id="patch_3">
    <path d="M 44.57 246.04 
L 44.57 26.88 
" style="fill: none; stroke: #000000; stroke-width: 0.8; stroke-linejoin: miter; stroke-linecap: square"/>
   </g>
   <g id="patch_4">
    <path d="M 709.2 246.04 
L 709.2 26.88 
" style="fill: none; stroke: #000000; stroke-width: 0.8; stroke-linejoin: miter; stroke-linecap: square"/>
   </g>
   <g id="patch_5">
    <path d="M 44.57 246.04 
L 709.2 246.04 
" style="fill: none; stroke: #000000; stroke-width: 0.8; stroke-linejoin: miter; stroke-linecap: square"/>
   </g>
   <g id="patch_6">
    <path d="M 44.57 26.88 
L 709.2 26.88 
" style="fill: none; stroke: #000000; stroke-width: 0.8; stroke-linejoin: miter; stroke-linecap: square"/>
   </g>
   <g id="text_16">
    <!-- Luchtvochtigheid - v001/c00001/d011 -->
    <g transform="translate(262.595312 20.88) scale(0.12 -0.12)">
     <defs>
      <path id="DejaVuSans-4c" d="M 628 4666 
L 1259 4666 
L 1259 531 
L 3531 531 
L 3531 0 
L 628 0 
L 628 4666 
z
" transform="scale(0.015625)"/>
      <path id="DejaVuSans-75" d="M 544 1381 
L 544 3500 
L 1119 3500 
L 1119 1403 
Q 1119 906 1312 657 
Q 1506 409 1894 409 
Q 2359 409 2629 706 
Q 2900 1003 2900 1516 
L 2900 3500 
L 3475 3500 
L 3475 0 
L 2900 0 
L 2900 538 
Q 2691 219 2414 64 
Q 2138 -91 1772 -91 
Q 1169 -91 856 284 
Q 544 659 544 1381 
z
M 1991 3584 
L 1991 3584 
z
" transform="scale(0.015625)"/>
      <path id="DejaVuSans-76" d="M 191 3500 
L 800 3500 
L 1894 563 
L 2988 3500 
L 3597 3500 
L 2284 0 
L 1503 0 
L 191 3500 
z
" transform="scale(0.015625)"/>
      <path id="DejaVuSans-2f" d="M 1625 4666 
L 2156 4666 
L 531 -594 
L 0 -594 
L 1625 4666 
z
" transform="scale(0.015625)"/>
     </defs>
     <use xlink:href="#DejaVuSans-4c"/>
     <use xlink:href="#DejaVuSans-75" transform="translate(53.962891 0)"/>
     <use xlink:href="#DejaVuSans-63" transform="translate(117.341797 0)"/>
     <use xlink:href="#DejaVuSans-68" transform="translate(172.322266 0)"/>
     <use xlink:href="#DejaVuSans-74" transform="translate(235.701172 0)"/>
     <use xlink:href="#DejaVuSans-76" transform="translate(274.910156 0)"/>
     <use xlink:href="#DejaVuSans-6f" transform="translate(334.089844 0)"/>
     <use xlink:href="#DejaVuSans-63" transform="translate(395.271484 0)"/>
     <use xlink:href="#DejaVuSans-68" transform="translate(450.251953 0)"/>
     <use xlink:href="#DejaVuSans-74" transform="translate(513.630859 0)"/>
     <use xlink:href="#DejaVuSans-69" transform="translate(552.839844 0)"/>
     <use xlink:href="#DejaVuSans-67" transform="translate(580.623047 0)"/>
     <use xlink:href="#DejaVuSans-68" transform="translate(644.099609 0)"/>
     <use xlink:href="#DejaVuSans-65" transform="translate(707.478516 0)"/>
     <use xlink:href="#DejaVuSans-69" transform="translate(769.001953 0)"/>
     <use xlink:href="#DejaVuSans-64" transform="translate(796.785156 0)"/>
     <use xlink:href="#DejaVuSans-20" transform="translate(860.261719 0)"/>
     <use xlink:href="#DejaVuSans-2d" transform="translate(892.048828 0)"/>
     <use xlink:href="#DejaVuSans-20" transform="translate(928.132812 0)"/>
     <use xlink:href="#DejaVuSans-76" transform="translate(959.919922 0)"/>
     <use xlink:href="#DejaVuSans-30" transform="translate(1019.099609 0)"/>
     <use xlink:href="#DejaVuSans-30" transform="translate(1082.722656 0)"/>
     <use xlink:href="#DejaVuSans-31" transform="translate(1146.345703 0)"/>
     <use xlink:href="#DejaVuSans-2f" transform="translate(1209.96875 0)"/>
     <use xlink:href="#DejaVuSans-63" transform="translate(1243.660156 0)"/>
     <use xlink:href="#DejaVuSans-30" transform="translate(1298.640625 0)"/>
     <use xlink:href="#DejaVuSans-30" transform="translate(1362.263672 0)"/>
     <use xlink:href="#DejaVuSans-30" transform="translate(1425.886719 0)"/>
     <use xlink:href="#DejaVuSans-30" transform="translate(1489.509766 0)"/>
     <use xlink:href="#DejaVuSans-31" transform="translate(1553.132812 0)"/>
     <use xlink:href="#DejaVuSans-2f" transform="translate(1616.755859 0)"/>
     <use xlink:href="#DejaVuSans-64" transform="translate(1650.447266 0)"/>
     <use xlink:href="#DejaVuSans-30" transform="translate(1713.923828 0)"/>
     <use xlink:href="#DejaVuSans-31" transform="translate(1777.546875 0)"/>
     <use xlink:href="#DejaVuSans-31" transform="translate(1841.169922 0)"/>
    </g>
   </g>
   <g id="legend_1">
    <g id="patch_7">
     <path d="M 51.57 241.04 
L 202.51375 241.04 
Q 204.51375 241.04 204.51375 239.04 
L 204.51375 196.005625 
Q 204.51375 194.005625 202.51375 194.005625 
L 51.57 194.005625 
Q 49.57 194.005625 49.57 196.005625 
L 49.57 239.04 
Q 49.57 241.04 51.57 241.04 
z
" style="fill: #ffffff; opacity: 0.8; stroke: #cccccc; stroke-linejoin: miter"/>
    </g>
    <g id="line2d_16">
     <path d="M 53.57 202.104062 
L 63.57 202.104062 
L 73.57 202.104062 
" style="fill: none; stroke: #1f77b4; stroke-width: 2; stroke-linecap: square"/>
    </g>
    <g id="text_17">
     <!-- Hive -->
     <g transform="translate(81.57 205.604062) scale(0.1 -0.1)">
      <defs>
       <path id="DejaVuSans-48" d="M 628 4666 
L 1259 4666 
L 1259 2753 
L 3553 2753 
L 3553 4666 
L 4184 4666 
L 4184 0 
L 3553 0 
L 3553 2222 
L 1259 2222 
L 1259 0 
L 628 0 
L 628 4666 
z
" transform="scale(0.015625)"/>
      </defs>
      <use xlink:href="#DejaVuSans-48"/>
      <use xlink:href="#DejaVuSans-69" transform="translate(75.195312 0)"/>
      <use xlink:href="#DejaVuSans-76" transform="translate(102.978516 0)"/>
      <use xlink:href="#DejaVuSans-65" transform="translate(162.158203 0)"/>
     </g>
    </g>
    <g id="line2d_17">
     <path d="M 53.57 216.782187 
L 63.57 216.782187 
L 73.57 216.782187 
" style="fill: none; stroke-dasharray: 5.55,2.4; stroke-dashoffset: 0; stroke: #808080; stroke-width: 1.5"/>
    </g>
    <g id="text_18">
     <!-- Gemiddelde (alle hives) -->
     <g transform="translate(81.57 220.282187) scale(0.1 -0.1)">
      <defs>
       <path id="DejaVuSans-47" d="M 3809 666 
L 3809 1919 
L 2778 1919 
L 2778 2438 
L 4434 2438 
L 4434 434 
Q 4069 175 3628 42 
Q 3188 -91 2688 -91 
Q 1594 -91 976 548 
Q 359 1188 359 2328 
Q 359 3472 976 4111 
Q 1594 4750 2688 4750 
Q 3144 4750 3555 4637 
Q 3966 4525 4313 4306 
L 4313 3634 
Q 3963 3931 3569 4081 
Q 3175 4231 2741 4231 
Q 1884 4231 1454 3753 
Q 1025 3275 1025 2328 
Q 1025 1384 1454 906 
Q 1884 428 2741 428 
Q 3075 428 3337 486 
Q 3600 544 3809 666 
z
" transform="scale(0.015625)"/>
       <path id="DejaVuSans-6d" d="M 3328 2828 
Q 3544 3216 3844 3400 
Q 4144 3584 4550 3584 
Q 5097 3584 5394 3201 
Q 5691 2819 5691 2113 
L 5691 0 
L 5113 0 
L 5113 2094 
Q 5113 2597 4934 2840 
Q 4756 3084 4391 3084 
Q 3944 3084 3684 2787 
Q 3425 2491 3425 1978 
L 3425 0 
L 2847 0 
L 2847 2094 
Q 2847 2600 2669 2842 
Q 2491 3084 2119 3084 
Q 1678 3084 1418 2786 
Q 1159 2488 1159 1978 
L 1159 0 
L 581 0 
L 581 3500 
L 1159 3500 
L 1159 2956 
Q 1356 3278 1631 3431 
Q 1906 3584 2284 3584 
Q 2666 3584 2933 3390 
Q 3200 3197 3328 2828 
z
" transform="scale(0.015625)"/>
       <path id="DejaVuSans-61" d="M 2194 1759 
Q 1497 1759 1228 1600 
Q 959 1441 959 1056 
Q 959 750 1161 570 
Q 1363 391 1709 391 
Q 2188 391 2477 730 
Q 2766 1069 2766 1631 
L 2766 1759 
L 2194 1759 
z
M 3341 1997 
L 3341 0 
L 2766 0 
L 2766 531 
Q 2569 213 2275 61 
Q 1981 -91 1556 -91 
Q 1019 -91 701 211 
Q 384 513 384 1019 
Q 384 1609 779 1909 
Q 1175 2209 1959 2209 
L 2766 2209 
L 2766 2266 
Q 2766 2663 2505 2880 
Q 2244 3097 1772 3097 
Q 1472 3097 1187 3025 
Q 903 2953 641 2809 
L 641 3341 
Q 956 3463 1253 3523 
Q 1550 3584 1831 3584 
Q 2591 3584 2966 3190 
Q 3341 2797 3341 1997 
z
" transform="scale(0.015625)"/>
       <path id="DejaVuSans-73" d="M 2834 3397 
L 2834 2853 
Q 2591 2978 2328 3040 
Q 2066 3103 1784 3103 
Q 1356 3103 1142 2972 
Q 928 2841 928 2578 
Q 928 2378 1081 2264 
Q 1234 2150 1697 2047 
L 1894 2003 
Q 2506 1872 2764 1633 
Q 3022 1394 3022 966 
Q 3022 478 2636 193 
Q 2250 -91 1575 -91 
Q 1294 -91 989 -36 
Q 684 19 347 128 
L 347 722 
Q 666 556 975 473 
Q 1284 391 1588 391 
Q 1994 391 2212 530 
Q 2431 669 2431 922 
Q 2431 1156 2273 1281 
Q 2116 1406 1581 1522 
L 1381 1569 
Q 847 1681 609 1914 
Q 372 2147 372 2553 
Q 372 3047 722 3315 
Q 1072 3584 1716 3584 
Q 2034 3584 2315 3537 
Q 2597 3491 2834 3397 
z
" transform="scale(0.015625)"/>
      </defs>
      <use xlink:href="#DejaVuSans-47"/>
      <use xlink:href="#DejaVuSans-65" transform="translate(77.490234 0)"/>
      <use xlink:href="#DejaVuSans-6d" transform="translate(139.013672 0)"/>
      <use xlink:href="#DejaVuSans-69" transform="translate(236.425781 0)"/>
      <use xlink:href="#DejaVuSans-64" transform="translate(264.208984 0)"/>
      <use xlink:href="#DejaVuSans-64" transform="translate(327.685547 0)"/>
      <use xlink:href="#DejaVuSans-65" transform="translate(391.162109 0)"/>
      <use xlink:href="#DejaVuSans-6c" transform="translate(452.685547 0)"/>
      <use xlink:href="#DejaVuSans-64" transform="translate(480.46875 0)"/>
      <use xlink:href="#DejaVuSans-65" transform="translate(543.945312 0)"/>
      <use xlink:href="#DejaVuSans-20" transform="translate(605.46875 0)"/>
      <use xlink:href="#DejaVuSans-28" transform="translate(637.255859 0)"/>
      <use xlink:href="#DejaVuSans-61" transform="translate(676.269531 0)"/>
      <use xlink:href="#DejaVuSans-6c" transform="translate(737.548828 0)"/>
      <use xlink:href="#DejaVuSans-6c" transform="translate(765.332031 0)"/>
      <use xlink:href="#DejaVuSans-65" transform="translate(793.115234 0)"/>
      <use xlink:href="#DejaVuSans-20" transform="translate(854.638672 0)"/>
      <use xlink:href="#DejaVuSans-68" transform="translate(886.425781 0)"/>
      <use xlink:href="#DejaVuSans-69" transform="translate(949.804688 0)"/>
      <use xlink:href="#DejaVuSans-76" transform="translate(977.587891 0)"/>
      <use xlink:href="#DejaVuSans-65" transform="translate(1036.767578 0)"/>
      <use xlink:href="#DejaVuSans-73" transform="translate(1098.291016 0)"/>
      <use xlink:href="#DejaVuSans-29" transform="translate(1150.390625 0)"/>
     </g>
    </g>
    <g id="patch_8">
     <path d="M 53.57 234.960312 
L 73.57 234.960312 
L 73.57 227.960312 
L 53.57 227.960312 
z
" style="fill: #808080; fill-opacity: 0.2; stroke: #808080; stroke-opacity: 0.2; stroke-linejoin: miter"/>
    </g>
    <g id="text_19">
     <!-- ±2 Std Dev -->
     <g transform="translate(81.57 234.960312) scale(0.1 -0.1)">
      <defs>
       <path id="DejaVuSans-b1" d="M 2944 4013 
L 2944 2803 
L 4684 2803 
L 4684 2272 
L 2944 2272 
L 2944 1063 
L 2419 1063 
L 2419 2272 
L 678 2272 
L 678 2803 
L 2419 2803 
L 2419 4013 
L 2944 4013 
z
M 678 531 
L 4684 531 
L 4684 0 
L 678 0 
L 678 531 
z
" transform="scale(0.015625)"/>
       <path id="DejaVuSans-53" d="M 3425 4513 
L 3425 3897 
Q 3066 4069 2747 4153 
Q 2428 4238 2131 4238 
Q 1616 4238 1336 4038 
Q 1056 3838 1056 3469 
Q 1056 3159 1242 3001 
Q 1428 2844 1947 2747 
L 2328 2669 
Q 3034 2534 3370 2195 
Q 3706 1856 3706 1288 
Q 3706 609 3251 259 
Q 2797 -91 1919 -91 
Q 1588 -91 1214 -16 
Q 841 59 441 206 
L 441 856 
Q 825 641 1194 531 
Q 1563 422 1919 422 
Q 2459 422 2753 634 
Q 3047 847 3047 1241 
Q 3047 1584 2836 1778 
Q 2625 1972 2144 2069 
L 1759 2144 
Q 1053 2284 737 2584 
Q 422 2884 422 3419 
Q 422 4038 858 4394 
Q 1294 4750 2059 4750 
Q 2388 4750 2728 4690 
Q 3069 4631 3425 4513 
z
" transform="scale(0.015625)"/>
       <path id="DejaVuSans-44" d="M 1259 4147 
L 1259 519 
L 2022 519 
Q 2988 519 3436 956 
Q 3884 1394 3884 2338 
Q 3884 3275 3436 3711 
Q 2988 4147 2022 4147 
L 1259 4147 
z
M 628 4666 
L 1925 4666 
Q 3281 4666 3915 4102 
Q 4550 3538 4550 2338 
Q 4550 1131 3912 565 
Q 3275 0 1925 0 
L 628 0 
L 628 4666 
z
" transform="scale(0.015625)"/>
      </defs>
      <use xlink:href="#DejaVuSans-b1"/>
      <use xlink:href="#DejaVuSans-32" transform="translate(83.789062 0)"/>
      <use xlink:href="#DejaVuSans-20" transform="translate(147.412109 0)"/>
      <use xlink:href="#DejaVuSans-53" transform="translate(179.199219 0)"/>
      <use xlink:href="#DejaVuSans-74" transform="translate(242.675781 0)"/>
      <use xlink:href="#DejaVuSans-64" transform="translate(281.884766 0)"/>
      <use xlink:href="#DejaVuSans-20" transform="translate(345.361328 0)"/>
      <use xlink:href="#DejaVuSans-44" transform="translate(377.148438 0)"/>
      <use xlink:href="#DejaVuSans-65" transform="translate(454.150391 0)"/>
      <use xlink:href="#DejaVuSans-76" transform="translate(515.673828 0)"/>
     </g>
    </g>
   </g>
  </g>
 </g>
 <defs>
  <clipPath id="pebe80b9b38">
   <rect x="44.57" y="26.88" width="664.63" height="219.16"/>
  </clipPath>
 </defs>
</svg>
