<?xml version="1.0" encoding="utf-8" standalone="no"?>
<!DOCTYPE svg PUBLIC "-//W3C//DTD SVG 1.1//EN"
  "http://www.w3.org/Graphics/SVG/1.1/DTD/svg11.dtd">
<svg xmlns:xlink="http://www.w3.org/1999/xlink" width="720pt" height="288pt" viewBox="0 0 720 288" xmlns="http://www.w3.org/2000/svg" version="1.1">
 <metadata>
  <rdf:RDF xmlns:dc="http://purl.org/dc/elements/1.1/" xmlns:cc="http://creativecommons.org/ns#" xmlns:rdf="http://www.w3.org/1999/02/22-rdf-syntax-ns#">
   <cc:Work>
    <dc:type rdf:resource="http://purl.org/dc/dcmitype/StillImage"/>
    <dc:date>2025-06-19T21:15:00.322208</dc:date>
    <dc:format>image/svg+xml</dc:format>
    <dc:creator>
     <cc:Agent>
      <dc:title>Matplotlib v3.10.3, https://matplotlib.org/</dc:title>
     </cc:Agent>
    </dc:creator>
   </cc:Work>
  </rdf:RDF>
 </metadata>
 <defs>
  <style type="text/css">*{stroke-linejoin: round; stroke-linecap: butt}</style>
 </defs>
 <g id="figure_1">
  <g id="patch_1">
   <path d="M 0 288 
L 720 288 
L 720 0 
L 0 0 
z
" style="fill: #ffffff"/>
  </g>
  <g id="axes_1">
   <g id="patch_2">
    <path d="M 71.84 246.04 
L 706.345116 246.04 
L 706.345116 26.88 
L 71.84 26.88 
z
" style="fill: #ffffff"/>
   </g>
   <g id="FillBetweenPolyCollection_1">
    <defs>
     <path id="md7042918d6" d="M 100.681142 -217.521886 
L 100.681142 -63.996356 
L 104.034763 -65.345185 
L 107.388384 -70.651107 
L 110.742005 -93.710123 
L 114.095626 -109.293764 
L 117.449247 -93.939046 
L 120.802868 -78.893872 
L 124.15649 -76.851273 
L 127.510111 -68.380871 
L 130.863732 -60.836272 
L 134.217353 -64.068969 
L 137.570974 -64.839827 
L 140.924595 -71.693976 
L 144.278216 -76.925724 
L 147.631837 -82.883128 
L 150.985458 -88.799731 
L 154.33908 -100.871041 
L 157.692701 -111.617688 
L 161.046322 -112.808649 
L 164.399943 -113.342767 
L 167.753564 -114.151109 
L 171.107185 -114.718831 
L 174.460806 -115.427184 
L 177.814427 -115.882169 
L 181.168049 -115.895202 
L 184.52167 -115.65896 
L 187.875291 -115.471505 
L 191.228912 -115.248184 
L 194.582533 -113.565559 
L 197.936154 -115.204966 
L 201.289775 -115.387466 
L 204.643396 -115.181588 
L 207.997018 -115.18226 
L 211.350639 -99.661922 
L 214.70426 -114.661708 
L 218.057881 -90.665967 
L 221.411502 -114.778489 
L 224.765123 -113.655454 
L 228.118744 -113.569917 
L 231.472365 -106.731955 
L 234.825987 -89.286789 
L 238.179608 -76.441089 
L 241.533229 -79.951254 
L 244.88685 -86.849691 
L 248.240471 -98.685379 
L 251.594092 -106.430611 
L 254.947713 -75.081899 
L 258.301334 -71.049899 
L 261.654956 -90.300592 
L 265.008577 -87.924878 
L 268.362198 -94.448519 
L 271.715819 -110.126236 
L 275.06944 -114.952535 
L 278.423061 -108.741353 
L 281.776682 -95.254474 
L 285.130303 -70.023667 
L 288.483924 -55.870759 
L 291.837546 -58.270167 
L 295.191167 -71.638907 
L 298.544788 -76.458671 
L 301.898409 -75.581326 
L 305.25203 -93.73908 
L 308.605651 -91.084371 
L 311.959272 -102.466465 
L 315.312893 -105.898188 
L 318.666515 -107.110587 
L 322.020136 -109.320044 
L 325.373757 -110.800533 
L 328.727378 -112.372491 
L 332.080999 -113.728681 
L 335.43462 -114.066459 
L 338.788241 -115.087377 
L 342.141862 -115.762738 
L 345.495484 -115.672339 
L 348.849105 -114.968227 
L 352.202726 -115.243288 
L 355.556347 -114.719829 
L 358.909968 -115.260508 
L 362.263589 -115.339049 
L 365.61721 -115.376641 
L 368.970831 -115.226455 
L 372.324453 -114.104786 
L 375.678074 -113.428254 
L 379.031695 -99.136185 
L 382.385316 -102.255247 
L 385.738937 -112.93426 
L 389.092558 -113.400611 
L 392.446179 -108.6403 
L 395.7998 -102.882211 
L 399.153422 -73.913587 
L 402.507043 -70.118069 
L 405.860664 -79.46781 
L 409.214285 -80.719709 
L 412.567906 -100.047961 
L 415.921527 -68.728291 
L 419.275148 -54.382396 
L 422.628769 -62.404337 
L 425.98239 -63.241937 
L 429.336012 -73.020597 
L 432.689633 -84.706644 
L 436.043254 -103.231774 
L 439.396875 -113.48062 
L 442.750496 -115.184912 
L 446.104117 -112.323448 
L 449.457738 -114.450364 
L 452.811359 -51.921818 
L 456.164981 -59.15202 
L 459.518602 -58.493913 
L 462.872223 -67.167382 
L 466.225844 -75.783974 
L 469.579465 -74.316524 
L 472.933086 -83.467518 
L 476.286707 -116.366262 
L 479.640328 -98.229142 
L 482.99395 -112.509887 
L 486.347571 -113.20659 
L 489.701192 -113.903935 
L 493.054813 -114.040931 
L 496.408434 -115.023559 
L 499.762055 -113.69237 
L 503.115676 -115.291539 
L 506.469297 -113.707817 
L 509.822919 -112.413317 
L 513.17654 -113.097509 
L 516.530161 -110.431775 
L 519.883782 -109.013685 
L 523.237403 -108.472116 
L 526.591024 -67.981067 
L 529.944645 -81.358498 
L 533.298266 -115.054052 
L 536.651888 -113.231634 
L 540.005509 -111.261423 
L 543.35913 -114.920623 
L 546.712751 -114.65238 
L 550.066372 -115.848164 
L 553.419993 -114.421149 
L 556.773614 -98.38615 
L 560.127235 -112.707992 
L 563.480856 -102.104968 
L 566.834478 -85.351904 
L 570.188099 -73.547394 
L 573.54172 -89.398945 
L 576.895341 -88.638288 
L 580.248962 -114.392994 
L 583.602583 -73.546027 
L 586.956204 -113.348415 
L 590.309825 -115.190691 
L 593.663447 -115.007061 
L 597.017068 -112.846809 
L 600.370689 -109.482325 
L 603.72431 -105.100821 
L 607.077931 -98.411823 
L 610.431552 -77.801428 
L 613.785173 -89.094713 
L 617.138794 -95.877147 
L 620.492416 -95.393298 
L 623.846037 -75.726815 
L 627.199658 -76.089723 
L 630.553279 -72.794538 
L 630.553279 -208.411363 
L 630.553279 -208.411363 
L 627.199658 -201.541269 
L 623.846037 -191.014542 
L 620.492416 -152.368929 
L 617.138794 -152.145527 
L 613.785173 -167.250997 
L 610.431552 -189.30074 
L 607.077931 -153.938909 
L 603.72431 -144.027587 
L 600.370689 -140.089729 
L 597.017068 -135.497955 
L 593.663447 -133.919172 
L 590.309825 -135.662436 
L 586.956204 -141.260464 
L 583.602583 -206.991215 
L 580.248962 -135.890602 
L 576.895341 -188.624303 
L 573.54172 -171.26553 
L 570.188099 -196.373998 
L 566.834478 -181.140023 
L 563.480856 -160.549256 
L 560.127235 -143.707163 
L 556.773614 -159.522029 
L 553.419993 -136.059629 
L 550.066372 -132.646243 
L 546.712751 -131.514337 
L 543.35913 -132.798 
L 540.005509 -140.483344 
L 536.651888 -138.167454 
L 533.298266 -128.898065 
L 529.944645 -179.907966 
L 526.591024 -198.997837 
L 523.237403 -136.317218 
L 519.883782 -133.537262 
L 516.530161 -130.421576 
L 513.17654 -124.835642 
L 509.822919 -125.849838 
L 506.469297 -122.773002 
L 503.115676 -120.4725 
L 499.762055 -122.197255 
L 496.408434 -119.915799 
L 493.054813 -121.516895 
L 489.701192 -121.269531 
L 486.347571 -122.281884 
L 482.99395 -123.183841 
L 479.640328 -145.284066 
L 476.286707 -117.026653 
L 472.933086 -165.462048 
L 469.579465 -180.65426 
L 466.225844 -180.695685 
L 462.872223 -189.470031 
L 459.518602 -205.44078 
L 456.164981 -202.605536 
L 452.811359 -215.825824 
L 449.457738 -121.711973 
L 446.104117 -127.103375 
L 442.750496 -122.47525 
L 439.396875 -127.9684 
L 436.043254 -148.878178 
L 432.689633 -183.231467 
L 429.336012 -199.945381 
L 425.98239 -212.642692 
L 422.628769 -227.945673 
L 419.275148 -251.158182 
L 415.921527 -227.346638 
L 412.567906 -161.29976 
L 409.214285 -184.351953 
L 405.860664 -197.833519 
L 402.507043 -220.664309 
L 399.153422 -200.589095 
L 395.7998 -152.029174 
L 392.446179 -140.241517 
L 389.092558 -131.114636 
L 385.738937 -131.200085 
L 382.385316 -150.694827 
L 379.031695 -152.87121 
L 375.678074 -129.191231 
L 372.324453 -127.513122 
L 368.970831 -124.914664 
L 365.61721 -124.011547 
L 362.263589 -123.485457 
L 358.909968 -122.296513 
L 355.556347 -122.719269 
L 352.202726 -121.543383 
L 348.849105 -120.885016 
L 345.495484 -119.706783 
L 342.141862 -118.870624 
L 338.788241 -119.565389 
L 335.43462 -120.855999 
L 332.080999 -121.097355 
L 328.727378 -123.114706 
L 325.373757 -125.175375 
L 322.020136 -127.344341 
L 318.666515 -131.03007 
L 315.312893 -132.864376 
L 311.959272 -137.391944 
L 308.605651 -154.080812 
L 305.25203 -150.267875 
L 301.898409 -181.747604 
L 298.544788 -177.469719 
L 295.191167 -184.646131 
L 291.837546 -206.857843 
L 288.483924 -215.60538 
L 285.130303 -191.269239 
L 281.776682 -155.411457 
L 278.423061 -138.111366 
L 275.06944 -133.01466 
L 271.715819 -141.085494 
L 268.362198 -166.243288 
L 265.008577 -178.400965 
L 261.654956 -179.094811 
L 258.301334 -222.983132 
L 254.947713 -217.861629 
L 251.594092 -155.212371 
L 248.240471 -162.883557 
L 244.88685 -187.962163 
L 241.533229 -201.676915 
L 238.179608 -206.613717 
L 234.825987 -176.536802 
L 231.472365 -143.128251 
L 228.118744 -131.295546 
L 224.765123 -131.140415 
L 221.411502 -127.947715 
L 218.057881 -165.482999 
L 214.70426 -126.796482 
L 211.350639 -148.599157 
L 207.997018 -124.349623 
L 204.643396 -124.234647 
L 201.289775 -122.621326 
L 197.936154 -122.638412 
L 194.582533 -124.279259 
L 191.228912 -121.009684 
L 187.875291 -120.018221 
L 184.52167 -119.25292 
L 181.168049 -118.516445 
L 177.814427 -118.431465 
L 174.460806 -118.756473 
L 171.107185 -119.71741 
L 167.753564 -120.301222 
L 164.399943 -121.60431 
L 161.046322 -122.229917 
L 157.692701 -123.975909 
L 154.33908 -139.730895 
L 150.985458 -157.427884 
L 147.631837 -166.106346 
L 144.278216 -174.871661 
L 140.924595 -182.684143 
L 137.570974 -195.753195 
L 134.217353 -194.64893 
L 130.863732 -202.3764 
L 127.510111 -192.161034 
L 124.15649 -180.487012 
L 120.802868 -178.515318 
L 117.449247 -157.207917 
L 114.095626 -140.346946 
L 110.742005 -168.559245 
L 107.388384 -200.626209 
L 104.034763 -214.729927 
L 100.681142 -217.521886 
z
" style="stroke: #808080; stroke-opacity: 0.2"/>
    </defs>
    <g clip-path="url(#pb9cb22c895)">
     <use xlink:href="#md7042918d6" x="0" y="288" style="fill: #808080; fill-opacity: 0.2; stroke: #808080; stroke-opacity: 0.2"/>
    </g>
   </g>
   <g id="matplotlib.axis_1">
    <g id="xtick_1">
     <g id="line2d_1">
      <defs>
       <path id="m2be5e0d79d" d="M 0 0 
L 0 3.5 
" style="stroke: #000000; stroke-width: 0.8"/>
      </defs>
      <g>
       <use xlink:href="#m2be5e0d79d" x="120.802868" y="246.04" style="stroke: #000000; stroke-width: 0.8"/>
      </g>
     </g>
     <g id="text_1">
      <!-- 06-17 00 -->
      <g transform="translate(98.3224 260.638438) scale(0.1 -0.1)">
       <defs>
        <path id="DejaVuSans-30" d="M 2034 4250 
Q 1547 4250 1301 3770 
Q 1056 3291 1056 2328 
Q 1056 1369 1301 889 
Q 1547 409 2034 409 
Q 2525 409 2770 889 
Q 3016 1369 3016 2328 
Q 3016 3291 2770 3770 
Q 2525 4250 2034 4250 
z
M 2034 4750 
Q 2819 4750 3233 4129 
Q 3647 3509 3647 2328 
Q 3647 1150 3233 529 
Q 2819 -91 2034 -91 
Q 1250 -91 836 529 
Q 422 1150 422 2328 
Q 422 3509 836 4129 
Q 1250 4750 2034 4750 
z
" transform="scale(0.015625)"/>
        <path id="DejaVuSans-36" d="M 2113 2584 
Q 1688 2584 1439 2293 
Q 1191 2003 1191 1497 
Q 1191 994 1439 701 
Q 1688 409 2113 409 
Q 2538 409 2786 701 
Q 3034 994 3034 1497 
Q 3034 2003 2786 2293 
Q 2538 2584 2113 2584 
z
M 3366 4563 
L 3366 3988 
Q 3128 4100 2886 4159 
Q 2644 4219 2406 4219 
Q 1781 4219 1451 3797 
Q 1122 3375 1075 2522 
Q 1259 2794 1537 2939 
Q 1816 3084 2150 3084 
Q 2853 3084 3261 2657 
Q 3669 2231 3669 1497 
Q 3669 778 3244 343 
Q 2819 -91 2113 -91 
Q 1303 -91 875 529 
Q 447 1150 447 2328 
Q 447 3434 972 4092 
Q 1497 4750 2381 4750 
Q 2619 4750 2861 4703 
Q 3103 4656 3366 4563 
z
" transform="scale(0.015625)"/>
        <path id="DejaVuSans-2d" d="M 313 2009 
L 1997 2009 
L 1997 1497 
L 313 1497 
L 313 2009 
z
" transform="scale(0.015625)"/>
        <path id="DejaVuSans-31" d="M 794 531 
L 1825 531 
L 1825 4091 
L 703 3866 
L 703 4441 
L 1819 4666 
L 2450 4666 
L 2450 531 
L 3481 531 
L 3481 0 
L 794 0 
L 794 531 
z
" transform="scale(0.015625)"/>
        <path id="DejaVuSans-37" d="M 525 4666 
L 3525 4666 
L 3525 4397 
L 1831 0 
L 1172 0 
L 2766 4134 
L 525 4134 
L 525 4666 
z
" transform="scale(0.015625)"/>
        <path id="DejaVuSans-20" transform="scale(0.015625)"/>
       </defs>
       <use xlink:href="#DejaVuSans-30"/>
       <use xlink:href="#DejaVuSans-36" transform="translate(63.623047 0)"/>
       <use xlink:href="#DejaVuSans-2d" transform="translate(127.246094 0)"/>
       <use xlink:href="#DejaVuSans-31" transform="translate(163.330078 0)"/>
       <use xlink:href="#DejaVuSans-37" transform="translate(226.953125 0)"/>
       <use xlink:href="#DejaVuSans-20" transform="translate(290.576172 0)"/>
       <use xlink:href="#DejaVuSans-30" transform="translate(322.363281 0)"/>
       <use xlink:href="#DejaVuSans-30" transform="translate(385.986328 0)"/>
      </g>
     </g>
    </g>
    <g id="xtick_2">
     <g id="line2d_2">
      <g>
       <use xlink:href="#m2be5e0d79d" x="201.289775" y="246.04" style="stroke: #000000; stroke-width: 0.8"/>
      </g>
     </g>
     <g id="text_2">
      <!-- 06-17 12 -->
      <g transform="translate(178.809307 260.638438) scale(0.1 -0.1)">
       <defs>
        <path id="DejaVuSans-32" d="M 1228 531 
L 3431 531 
L 3431 0 
L 469 0 
L 469 531 
Q 828 903 1448 1529 
Q 2069 2156 2228 2338 
Q 2531 2678 2651 2914 
Q 2772 3150 2772 3378 
Q 2772 3750 2511 3984 
Q 2250 4219 1831 4219 
Q 1534 4219 1204 4116 
Q 875 4013 500 3803 
L 500 4441 
Q 881 4594 1212 4672 
Q 1544 4750 1819 4750 
Q 2544 4750 2975 4387 
Q 3406 4025 3406 3419 
Q 3406 3131 3298 2873 
Q 3191 2616 2906 2266 
Q 2828 2175 2409 1742 
Q 1991 1309 1228 531 
z
" transform="scale(0.015625)"/>
       </defs>
       <use xlink:href="#DejaVuSans-30"/>
       <use xlink:href="#DejaVuSans-36" transform="translate(63.623047 0)"/>
       <use xlink:href="#DejaVuSans-2d" transform="translate(127.246094 0)"/>
       <use xlink:href="#DejaVuSans-31" transform="translate(163.330078 0)"/>
       <use xlink:href="#DejaVuSans-37" transform="translate(226.953125 0)"/>
       <use xlink:href="#DejaVuSans-20" transform="translate(290.576172 0)"/>
       <use xlink:href="#DejaVuSans-31" transform="translate(322.363281 0)"/>
       <use xlink:href="#DejaVuSans-32" transform="translate(385.986328 0)"/>
      </g>
     </g>
    </g>
    <g id="xtick_3">
     <g id="line2d_3">
      <g>
       <use xlink:href="#m2be5e0d79d" x="281.776682" y="246.04" style="stroke: #000000; stroke-width: 0.8"/>
      </g>
     </g>
     <g id="text_3">
      <!-- 06-18 00 -->
      <g transform="translate(259.296213 260.638438) scale(0.1 -0.1)">
       <defs>
        <path id="DejaVuSans-38" d="M 2034 2216 
Q 1584 2216 1326 1975 
Q 1069 1734 1069 1313 
Q 1069 891 1326 650 
Q 1584 409 2034 409 
Q 2484 409 2743 651 
Q 3003 894 3003 1313 
Q 3003 1734 2745 1975 
Q 2488 2216 2034 2216 
z
M 1403 2484 
Q 997 2584 770 2862 
Q 544 3141 544 3541 
Q 544 4100 942 4425 
Q 1341 4750 2034 4750 
Q 2731 4750 3128 4425 
Q 3525 4100 3525 3541 
Q 3525 3141 3298 2862 
Q 3072 2584 2669 2484 
Q 3125 2378 3379 2068 
Q 3634 1759 3634 1313 
Q 3634 634 3220 271 
Q 2806 -91 2034 -91 
Q 1263 -91 848 271 
Q 434 634 434 1313 
Q 434 1759 690 2068 
Q 947 2378 1403 2484 
z
M 1172 3481 
Q 1172 3119 1398 2916 
Q 1625 2713 2034 2713 
Q 2441 2713 2670 2916 
Q 2900 3119 2900 3481 
Q 2900 3844 2670 4047 
Q 2441 4250 2034 4250 
Q 1625 4250 1398 4047 
Q 1172 3844 1172 3481 
z
" transform="scale(0.015625)"/>
       </defs>
       <use xlink:href="#DejaVuSans-30"/>
       <use xlink:href="#DejaVuSans-36" transform="translate(63.623047 0)"/>
       <use xlink:href="#DejaVuSans-2d" transform="translate(127.246094 0)"/>
       <use xlink:href="#DejaVuSans-31" transform="translate(163.330078 0)"/>
       <use xlink:href="#DejaVuSans-38" transform="translate(226.953125 0)"/>
       <use xlink:href="#DejaVuSans-20" transform="translate(290.576172 0)"/>
       <use xlink:href="#DejaVuSans-30" transform="translate(322.363281 0)"/>
       <use xlink:href="#DejaVuSans-30" transform="translate(385.986328 0)"/>
      </g>
     </g>
    </g>
    <g id="xtick_4">
     <g id="line2d_4">
      <g>
       <use xlink:href="#m2be5e0d79d" x="362.263589" y="246.04" style="stroke: #000000; stroke-width: 0.8"/>
      </g>
     </g>
     <g id="text_4">
      <!-- 06-18 12 -->
      <g transform="translate(339.78312 260.638438) scale(0.1 -0.1)">
       <use xlink:href="#DejaVuSans-30"/>
       <use xlink:href="#DejaVuSans-36" transform="translate(63.623047 0)"/>
       <use xlink:href="#DejaVuSans-2d" transform="translate(127.246094 0)"/>
       <use xlink:href="#DejaVuSans-31" transform="translate(163.330078 0)"/>
       <use xlink:href="#DejaVuSans-38" transform="translate(226.953125 0)"/>
       <use xlink:href="#DejaVuSans-20" transform="translate(290.576172 0)"/>
       <use xlink:href="#DejaVuSans-31" transform="translate(322.363281 0)"/>
       <use xlink:href="#DejaVuSans-32" transform="translate(385.986328 0)"/>
      </g>
     </g>
    </g>
    <g id="xtick_5">
     <g id="line2d_5">
      <g>
       <use xlink:href="#m2be5e0d79d" x="442.750496" y="246.04" style="stroke: #000000; stroke-width: 0.8"/>
      </g>
     </g>
     <g id="text_5">
      <!-- 06-19 00 -->
      <g transform="translate(420.270027 260.638438) scale(0.1 -0.1)">
       <defs>
        <path id="DejaVuSans-39" d="M 703 97 
L 703 672 
Q 941 559 1184 500 
Q 1428 441 1663 441 
Q 2288 441 2617 861 
Q 2947 1281 2994 2138 
Q 2813 1869 2534 1725 
Q 2256 1581 1919 1581 
Q 1219 1581 811 2004 
Q 403 2428 403 3163 
Q 403 3881 828 4315 
Q 1253 4750 1959 4750 
Q 2769 4750 3195 4129 
Q 3622 3509 3622 2328 
Q 3622 1225 3098 567 
Q 2575 -91 1691 -91 
Q 1453 -91 1209 -44 
Q 966 3 703 97 
z
M 1959 2075 
Q 2384 2075 2632 2365 
Q 2881 2656 2881 3163 
Q 2881 3666 2632 3958 
Q 2384 4250 1959 4250 
Q 1534 4250 1286 3958 
Q 1038 3666 1038 3163 
Q 1038 2656 1286 2365 
Q 1534 2075 1959 2075 
z
" transform="scale(0.015625)"/>
       </defs>
       <use xlink:href="#DejaVuSans-30"/>
       <use xlink:href="#DejaVuSans-36" transform="translate(63.623047 0)"/>
       <use xlink:href="#DejaVuSans-2d" transform="translate(127.246094 0)"/>
       <use xlink:href="#DejaVuSans-31" transform="translate(163.330078 0)"/>
       <use xlink:href="#DejaVuSans-39" transform="translate(226.953125 0)"/>
       <use xlink:href="#DejaVuSans-20" transform="translate(290.576172 0)"/>
       <use xlink:href="#DejaVuSans-30" transform="translate(322.363281 0)"/>
       <use xlink:href="#DejaVuSans-30" transform="translate(385.986328 0)"/>
      </g>
     </g>
    </g>
    <g id="xtick_6">
     <g id="line2d_6">
      <g>
       <use xlink:href="#m2be5e0d79d" x="523.237403" y="246.04" style="stroke: #000000; stroke-width: 0.8"/>
      </g>
     </g>
     <g id="text_6">
      <!-- 06-19 12 -->
      <g transform="translate(500.756934 260.638438) scale(0.1 -0.1)">
       <use xlink:href="#DejaVuSans-30"/>
       <use xlink:href="#DejaVuSans-36" transform="translate(63.623047 0)"/>
       <use xlink:href="#DejaVuSans-2d" transform="translate(127.246094 0)"/>
       <use xlink:href="#DejaVuSans-31" transform="translate(163.330078 0)"/>
       <use xlink:href="#DejaVuSans-39" transform="translate(226.953125 0)"/>
       <use xlink:href="#DejaVuSans-20" transform="translate(290.576172 0)"/>
       <use xlink:href="#DejaVuSans-31" transform="translate(322.363281 0)"/>
       <use xlink:href="#DejaVuSans-32" transform="translate(385.986328 0)"/>
      </g>
     </g>
    </g>
    <g id="xtick_7">
     <g id="line2d_7">
      <g>
       <use xlink:href="#m2be5e0d79d" x="603.72431" y="246.04" style="stroke: #000000; stroke-width: 0.8"/>
      </g>
     </g>
     <g id="text_7">
      <!-- 06-20 00 -->
      <g transform="translate(581.243841 260.638438) scale(0.1 -0.1)">
       <use xlink:href="#DejaVuSans-30"/>
       <use xlink:href="#DejaVuSans-36" transform="translate(63.623047 0)"/>
       <use xlink:href="#DejaVuSans-2d" transform="translate(127.246094 0)"/>
       <use xlink:href="#DejaVuSans-32" transform="translate(163.330078 0)"/>
       <use xlink:href="#DejaVuSans-30" transform="translate(226.953125 0)"/>
       <use xlink:href="#DejaVuSans-20" transform="translate(290.576172 0)"/>
       <use xlink:href="#DejaVuSans-30" transform="translate(322.363281 0)"/>
       <use xlink:href="#DejaVuSans-30" transform="translate(385.986328 0)"/>
      </g>
     </g>
    </g>
    <g id="xtick_8">
     <g id="line2d_8">
      <g>
       <use xlink:href="#m2be5e0d79d" x="684.211217" y="246.04" style="stroke: #000000; stroke-width: 0.8"/>
      </g>
     </g>
     <g id="text_8">
      <!-- 06-20 12 -->
      <g transform="translate(661.730748 260.638438) scale(0.1 -0.1)">
       <use xlink:href="#DejaVuSans-30"/>
       <use xlink:href="#DejaVuSans-36" transform="translate(63.623047 0)"/>
       <use xlink:href="#DejaVuSans-2d" transform="translate(127.246094 0)"/>
       <use xlink:href="#DejaVuSans-32" transform="translate(163.330078 0)"/>
       <use xlink:href="#DejaVuSans-30" transform="translate(226.953125 0)"/>
       <use xlink:href="#DejaVuSans-20" transform="translate(290.576172 0)"/>
       <use xlink:href="#DejaVuSans-31" transform="translate(322.363281 0)"/>
       <use xlink:href="#DejaVuSans-32" transform="translate(385.986328 0)"/>
      </g>
     </g>
    </g>
    <g id="text_9">
     <!-- Tijd -->
     <g transform="translate(380.242558 274.316562) scale(0.1 -0.1)">
      <defs>
       <path id="DejaVuSans-54" d="M -19 4666 
L 3928 4666 
L 3928 4134 
L 2272 4134 
L 2272 0 
L 1638 0 
L 1638 4134 
L -19 4134 
L -19 4666 
z
" transform="scale(0.015625)"/>
       <path id="DejaVuSans-69" d="M 603 3500 
L 1178 3500 
L 1178 0 
L 603 0 
L 603 3500 
z
M 603 4863 
L 1178 4863 
L 1178 4134 
L 603 4134 
L 603 4863 
z
" transform="scale(0.015625)"/>
       <path id="DejaVuSans-6a" d="M 603 3500 
L 1178 3500 
L 1178 -63 
Q 1178 -731 923 -1031 
Q 669 -1331 103 -1331 
L -116 -1331 
L -116 -844 
L 38 -844 
Q 366 -844 484 -692 
Q 603 -541 603 -63 
L 603 3500 
z
M 603 4863 
L 1178 4863 
L 1178 4134 
L 603 4134 
L 603 4863 
z
" transform="scale(0.015625)"/>
       <path id="DejaVuSans-64" d="M 2906 2969 
L 2906 4863 
L 3481 4863 
L 3481 0 
L 2906 0 
L 2906 525 
Q 2725 213 2448 61 
Q 2172 -91 1784 -91 
Q 1150 -91 751 415 
Q 353 922 353 1747 
Q 353 2572 751 3078 
Q 1150 3584 1784 3584 
Q 2172 3584 2448 3432 
Q 2725 3281 2906 2969 
z
M 947 1747 
Q 947 1113 1208 752 
Q 1469 391 1925 391 
Q 2381 391 2643 752 
Q 2906 1113 2906 1747 
Q 2906 2381 2643 2742 
Q 2381 3103 1925 3103 
Q 1469 3103 1208 2742 
Q 947 2381 947 1747 
z
" transform="scale(0.015625)"/>
      </defs>
      <use xlink:href="#DejaVuSans-54"/>
      <use xlink:href="#DejaVuSans-69" transform="translate(57.958984 0)"/>
      <use xlink:href="#DejaVuSans-6a" transform="translate(85.742188 0)"/>
      <use xlink:href="#DejaVuSans-64" transform="translate(113.525391 0)"/>
     </g>
    </g>
   </g>
   <g id="matplotlib.axis_2">
    <g id="ytick_1">
     <g id="line2d_9">
      <defs>
       <path id="m7aac2c16a8" d="M 0 0 
L -3.5 0 
" style="stroke: #000000; stroke-width: 0.8"/>
      </defs>
      <g>
       <use xlink:href="#m7aac2c16a8" x="71.84" y="237.092233" style="stroke: #000000; stroke-width: 0.8"/>
      </g>
     </g>
     <g id="text_10">
      <!-- −20000 -->
      <g transform="translate(24.647813 240.891452) scale(0.1 -0.1)">
       <defs>
        <path id="DejaVuSans-2212" d="M 678 2272 
L 4684 2272 
L 4684 1741 
L 678 1741 
L 678 2272 
z
" transform="scale(0.015625)"/>
       </defs>
       <use xlink:href="#DejaVuSans-2212"/>
       <use xlink:href="#DejaVuSans-32" transform="translate(83.789062 0)"/>
       <use xlink:href="#DejaVuSans-30" transform="translate(147.412109 0)"/>
       <use xlink:href="#DejaVuSans-30" transform="translate(211.035156 0)"/>
       <use xlink:href="#DejaVuSans-30" transform="translate(274.658203 0)"/>
       <use xlink:href="#DejaVuSans-30" transform="translate(338.28125 0)"/>
      </g>
     </g>
    </g>
    <g id="ytick_2">
     <g id="line2d_10">
      <g>
       <use xlink:href="#m7aac2c16a8" x="71.84" y="204.231588" style="stroke: #000000; stroke-width: 0.8"/>
      </g>
     </g>
     <g id="text_11">
      <!-- −10000 -->
      <g transform="translate(24.647813 208.030807) scale(0.1 -0.1)">
       <use xlink:href="#DejaVuSans-2212"/>
       <use xlink:href="#DejaVuSans-31" transform="translate(83.789062 0)"/>
       <use xlink:href="#DejaVuSans-30" transform="translate(147.412109 0)"/>
       <use xlink:href="#DejaVuSans-30" transform="translate(211.035156 0)"/>
       <use xlink:href="#DejaVuSans-30" transform="translate(274.658203 0)"/>
       <use xlink:href="#DejaVuSans-30" transform="translate(338.28125 0)"/>
      </g>
     </g>
    </g>
    <g id="ytick_3">
     <g id="line2d_11">
      <g>
       <use xlink:href="#m7aac2c16a8" x="71.84" y="171.370943" style="stroke: #000000; stroke-width: 0.8"/>
      </g>
     </g>
     <g id="text_12">
      <!-- 0 -->
      <g transform="translate(58.4775 175.170162) scale(0.1 -0.1)">
       <use xlink:href="#DejaVuSans-30"/>
      </g>
     </g>
    </g>
    <g id="ytick_4">
     <g id="line2d_12">
      <g>
       <use xlink:href="#m7aac2c16a8" x="71.84" y="138.510299" style="stroke: #000000; stroke-width: 0.8"/>
      </g>
     </g>
     <g id="text_13">
      <!-- 10000 -->
      <g transform="translate(33.0275 142.309517) scale(0.1 -0.1)">
       <use xlink:href="#DejaVuSans-31"/>
       <use xlink:href="#DejaVuSans-30" transform="translate(63.623047 0)"/>
       <use xlink:href="#DejaVuSans-30" transform="translate(127.246094 0)"/>
       <use xlink:href="#DejaVuSans-30" transform="translate(190.869141 0)"/>
       <use xlink:href="#DejaVuSans-30" transform="translate(254.492188 0)"/>
      </g>
     </g>
    </g>
    <g id="ytick_5">
     <g id="line2d_13">
      <g>
       <use xlink:href="#m7aac2c16a8" x="71.84" y="105.649654" style="stroke: #000000; stroke-width: 0.8"/>
      </g>
     </g>
     <g id="text_14">
      <!-- 20000 -->
      <g transform="translate(33.0275 109.448873) scale(0.1 -0.1)">
       <use xlink:href="#DejaVuSans-32"/>
       <use xlink:href="#DejaVuSans-30" transform="translate(63.623047 0)"/>
       <use xlink:href="#DejaVuSans-30" transform="translate(127.246094 0)"/>
       <use xlink:href="#DejaVuSans-30" transform="translate(190.869141 0)"/>
       <use xlink:href="#DejaVuSans-30" transform="translate(254.492188 0)"/>
      </g>
     </g>
    </g>
    <g id="ytick_6">
     <g id="line2d_14">
      <g>
       <use xlink:href="#m7aac2c16a8" x="71.84" y="72.789009" style="stroke: #000000; stroke-width: 0.8"/>
      </g>
     </g>
     <g id="text_15">
      <!-- 30000 -->
      <g transform="translate(33.0275 76.588228) scale(0.1 -0.1)">
       <defs>
        <path id="DejaVuSans-33" d="M 2597 2516 
Q 3050 2419 3304 2112 
Q 3559 1806 3559 1356 
Q 3559 666 3084 287 
Q 2609 -91 1734 -91 
Q 1441 -91 1130 -33 
Q 819 25 488 141 
L 488 750 
Q 750 597 1062 519 
Q 1375 441 1716 441 
Q 2309 441 2620 675 
Q 2931 909 2931 1356 
Q 2931 1769 2642 2001 
Q 2353 2234 1838 2234 
L 1294 2234 
L 1294 2753 
L 1863 2753 
Q 2328 2753 2575 2939 
Q 2822 3125 2822 3475 
Q 2822 3834 2567 4026 
Q 2313 4219 1838 4219 
Q 1578 4219 1281 4162 
Q 984 4106 628 3988 
L 628 4550 
Q 988 4650 1302 4700 
Q 1616 4750 1894 4750 
Q 2613 4750 3031 4423 
Q 3450 4097 3450 3541 
Q 3450 3153 3228 2886 
Q 3006 2619 2597 2516 
z
" transform="scale(0.015625)"/>
       </defs>
       <use xlink:href="#DejaVuSans-33"/>
       <use xlink:href="#DejaVuSans-30" transform="translate(63.623047 0)"/>
       <use xlink:href="#DejaVuSans-30" transform="translate(127.246094 0)"/>
       <use xlink:href="#DejaVuSans-30" transform="translate(190.869141 0)"/>
       <use xlink:href="#DejaVuSans-30" transform="translate(254.492188 0)"/>
      </g>
     </g>
    </g>
    <g id="ytick_7">
     <g id="line2d_15">
      <g>
       <use xlink:href="#m7aac2c16a8" x="71.84" y="39.928364" style="stroke: #000000; stroke-width: 0.8"/>
      </g>
     </g>
     <g id="text_16">
      <!-- 40000 -->
      <g transform="translate(33.0275 43.727583) scale(0.1 -0.1)">
       <defs>
        <path id="DejaVuSans-34" d="M 2419 4116 
L 825 1625 
L 2419 1625 
L 2419 4116 
z
M 2253 4666 
L 3047 4666 
L 3047 1625 
L 3713 1625 
L 3713 1100 
L 3047 1100 
L 3047 0 
L 2419 0 
L 2419 1100 
L 313 1100 
L 313 1709 
L 2253 4666 
z
" transform="scale(0.015625)"/>
       </defs>
       <use xlink:href="#DejaVuSans-34"/>
       <use xlink:href="#DejaVuSans-30" transform="translate(63.623047 0)"/>
       <use xlink:href="#DejaVuSans-30" transform="translate(127.246094 0)"/>
       <use xlink:href="#DejaVuSans-30" transform="translate(190.869141 0)"/>
       <use xlink:href="#DejaVuSans-30" transform="translate(254.492188 0)"/>
      </g>
     </g>
    </g>
    <g id="text_17">
     <!-- Lichtintensiteit -->
     <g transform="translate(18.568125 173.656094) rotate(-90) scale(0.1 -0.1)">
      <defs>
       <path id="DejaVuSans-4c" d="M 628 4666 
L 1259 4666 
L 1259 531 
L 3531 531 
L 3531 0 
L 628 0 
L 628 4666 
z
" transform="scale(0.015625)"/>
       <path id="DejaVuSans-63" d="M 3122 3366 
L 3122 2828 
Q 2878 2963 2633 3030 
Q 2388 3097 2138 3097 
Q 1578 3097 1268 2742 
Q 959 2388 959 1747 
Q 959 1106 1268 751 
Q 1578 397 2138 397 
Q 2388 397 2633 464 
Q 2878 531 3122 666 
L 3122 134 
Q 2881 22 2623 -34 
Q 2366 -91 2075 -91 
Q 1284 -91 818 406 
Q 353 903 353 1747 
Q 353 2603 823 3093 
Q 1294 3584 2113 3584 
Q 2378 3584 2631 3529 
Q 2884 3475 3122 3366 
z
" transform="scale(0.015625)"/>
       <path id="DejaVuSans-68" d="M 3513 2113 
L 3513 0 
L 2938 0 
L 2938 2094 
Q 2938 2591 2744 2837 
Q 2550 3084 2163 3084 
Q 1697 3084 1428 2787 
Q 1159 2491 1159 1978 
L 1159 0 
L 581 0 
L 581 4863 
L 1159 4863 
L 1159 2956 
Q 1366 3272 1645 3428 
Q 1925 3584 2291 3584 
Q 2894 3584 3203 3211 
Q 3513 2838 3513 2113 
z
" transform="scale(0.015625)"/>
       <path id="DejaVuSans-74" d="M 1172 4494 
L 1172 3500 
L 2356 3500 
L 2356 3053 
L 1172 3053 
L 1172 1153 
Q 1172 725 1289 603 
Q 1406 481 1766 481 
L 2356 481 
L 2356 0 
L 1766 0 
Q 1100 0 847 248 
Q 594 497 594 1153 
L 594 3053 
L 172 3053 
L 172 3500 
L 594 3500 
L 594 4494 
L 1172 4494 
z
" transform="scale(0.015625)"/>
       <path id="DejaVuSans-6e" d="M 3513 2113 
L 3513 0 
L 2938 0 
L 2938 2094 
Q 2938 2591 2744 2837 
Q 2550 3084 2163 3084 
Q 1697 3084 1428 2787 
Q 1159 2491 1159 1978 
L 1159 0 
L 581 0 
L 581 3500 
L 1159 3500 
L 1159 2956 
Q 1366 3272 1645 3428 
Q 1925 3584 2291 3584 
Q 2894 3584 3203 3211 
Q 3513 2838 3513 2113 
z
" transform="scale(0.015625)"/>
       <path id="DejaVuSans-65" d="M 3597 1894 
L 3597 1613 
L 953 1613 
Q 991 1019 1311 708 
Q 1631 397 2203 397 
Q 2534 397 2845 478 
Q 3156 559 3463 722 
L 3463 178 
Q 3153 47 2828 -22 
Q 2503 -91 2169 -91 
Q 1331 -91 842 396 
Q 353 884 353 1716 
Q 353 2575 817 3079 
Q 1281 3584 2069 3584 
Q 2775 3584 3186 3129 
Q 3597 2675 3597 1894 
z
M 3022 2063 
Q 3016 2534 2758 2815 
Q 2500 3097 2075 3097 
Q 1594 3097 1305 2825 
Q 1016 2553 972 2059 
L 3022 2063 
z
" transform="scale(0.015625)"/>
       <path id="DejaVuSans-73" d="M 2834 3397 
L 2834 2853 
Q 2591 2978 2328 3040 
Q 2066 3103 1784 3103 
Q 1356 3103 1142 2972 
Q 928 2841 928 2578 
Q 928 2378 1081 2264 
Q 1234 2150 1697 2047 
L 1894 2003 
Q 2506 1872 2764 1633 
Q 3022 1394 3022 966 
Q 3022 478 2636 193 
Q 2250 -91 1575 -91 
Q 1294 -91 989 -36 
Q 684 19 347 128 
L 347 722 
Q 666 556 975 473 
Q 1284 391 1588 391 
Q 1994 391 2212 530 
Q 2431 669 2431 922 
Q 2431 1156 2273 1281 
Q 2116 1406 1581 1522 
L 1381 1569 
Q 847 1681 609 1914 
Q 372 2147 372 2553 
Q 372 3047 722 3315 
Q 1072 3584 1716 3584 
Q 2034 3584 2315 3537 
Q 2597 3491 2834 3397 
z
" transform="scale(0.015625)"/>
      </defs>
      <use xlink:href="#DejaVuSans-4c"/>
      <use xlink:href="#DejaVuSans-69" transform="translate(55.712891 0)"/>
      <use xlink:href="#DejaVuSans-63" transform="translate(83.496094 0)"/>
      <use xlink:href="#DejaVuSans-68" transform="translate(138.476562 0)"/>
      <use xlink:href="#DejaVuSans-74" transform="translate(201.855469 0)"/>
      <use xlink:href="#DejaVuSans-69" transform="translate(241.064453 0)"/>
      <use xlink:href="#DejaVuSans-6e" transform="translate(268.847656 0)"/>
      <use xlink:href="#DejaVuSans-74" transform="translate(332.226562 0)"/>
      <use xlink:href="#DejaVuSans-65" transform="translate(371.435547 0)"/>
      <use xlink:href="#DejaVuSans-6e" transform="translate(432.958984 0)"/>
      <use xlink:href="#DejaVuSans-73" transform="translate(496.337891 0)"/>
      <use xlink:href="#DejaVuSans-69" transform="translate(548.4375 0)"/>
      <use xlink:href="#DejaVuSans-74" transform="translate(576.220703 0)"/>
      <use xlink:href="#DejaVuSans-65" transform="translate(615.429688 0)"/>
      <use xlink:href="#DejaVuSans-69" transform="translate(676.953125 0)"/>
      <use xlink:href="#DejaVuSans-74" transform="translate(704.736328 0)"/>
     </g>
    </g>
   </g>
   <g id="line2d_16">
    <path d="M 100.681142 157.339448 
L 104.034763 158.221209 
L 107.388384 160.950504 
L 110.742005 162.736809 
L 114.095626 164.81163 
L 120.802868 168.51842 
L 127.510111 170.641656 
L 130.863732 171.268747 
L 137.570974 171.370943 
L 177.814427 171.271376 
L 181.168049 170.761159 
L 184.52167 169.950597 
L 191.228912 168.820519 
L 194.582533 168.387087 
L 197.936154 167.68606 
L 201.289775 167.48791 
L 207.997018 166.449186 
L 211.350639 165.25974 
L 214.70426 163.675199 
L 218.057881 163.308256 
L 221.411502 161.658761 
L 224.765123 159.56488 
L 228.118744 157.194314 
L 231.472365 145.38365 
L 234.825987 139.574655 
L 238.179608 148.551854 
L 241.533229 117.540716 
L 244.88685 116.292888 
L 248.240471 122.950674 
L 251.594092 133.782966 
L 254.947713 151.236569 
L 258.301334 152.48615 
L 261.654956 157.026396 
L 265.008577 158.664827 
L 268.362198 156.981596 
L 271.715819 160.974273 
L 275.06944 164.474699 
L 278.423061 165.463366 
L 281.776682 166.939357 
L 285.130303 167.956175 
L 288.483924 170.127716 
L 291.837546 171.141905 
L 295.191167 171.359114 
L 328.727378 171.370943 
L 338.788241 171.34219 
L 342.141862 170.814065 
L 348.849105 169.119113 
L 355.556347 167.959899 
L 358.909968 167.352853 
L 362.263589 166.964002 
L 368.970831 165.510905 
L 372.324453 161.712543 
L 375.678074 159.502774 
L 379.031695 160.15911 
L 382.385316 157.770361 
L 385.738937 157.190699 
L 389.092558 157.012594 
L 392.446179 147.368981 
L 395.7998 149.082225 
L 399.153422 149.127902 
L 402.507043 128.047798 
L 405.860664 111.267838 
L 409.214285 97.008181 
L 412.567906 125.938364 
L 415.921527 144.410537 
L 419.275148 149.024829 
L 422.628769 152.25974 
L 425.98239 155.03274 
L 429.336012 159.67814 
L 432.689633 160.507762 
L 436.043254 164.491239 
L 439.396875 166.513921 
L 442.750496 167.44322 
L 446.104117 168.979346 
L 449.457738 170.187084 
L 452.811359 171.024044 
L 456.164981 171.336221 
L 469.579465 171.370943 
L 499.762055 171.33173 
L 503.115676 171.000385 
L 509.822919 169.558022 
L 523.237403 168.046541 
L 526.591024 167.719797 
L 529.944645 167.248795 
L 533.298266 166.583257 
L 536.651888 162.049474 
L 540.005509 165.090069 
L 543.35913 164.058464 
L 546.712751 162.363512 
L 550.066372 159.500912 
L 553.419993 156.839309 
L 556.773614 128.759779 
L 560.127235 152.832939 
L 563.480856 134.629018 
L 566.834478 107.252487 
L 570.188099 91.45747 
L 573.54172 117.527024 
L 576.895341 124.932499 
L 580.248962 155.817891 
L 583.602583 156.599207 
L 586.956204 156.125357 
L 590.309825 158.226685 
L 593.663447 163.588447 
L 597.017068 163.805656 
L 600.370689 165.906875 
L 607.077931 168.727524 
L 610.431552 169.914121 
L 613.785173 170.86719 
L 617.138794 171.305222 
L 623.846037 171.370943 
L 623.846037 171.370943 
" clip-path="url(#pb9cb22c895)" style="fill: none; stroke: #1f77b4; stroke-width: 2; stroke-linecap: square"/>
   </g>
   <g id="line2d_17">
    <path d="M 100.681142 147.240879 
L 104.034763 147.962444 
L 110.742005 156.865316 
L 114.095626 163.179645 
L 117.449247 162.426518 
L 120.802868 159.295405 
L 124.15649 159.330858 
L 127.510111 157.729048 
L 130.863732 156.393664 
L 134.217353 158.64105 
L 137.570974 157.703489 
L 140.924595 160.81094 
L 147.631837 163.505263 
L 150.985458 164.886192 
L 154.33908 167.699032 
L 157.692701 170.203201 
L 161.046322 170.480717 
L 164.399943 170.526461 
L 167.753564 170.773834 
L 171.107185 170.78188 
L 174.460806 170.908172 
L 181.168049 170.794176 
L 187.875291 170.255137 
L 191.228912 169.871066 
L 194.582533 169.077591 
L 201.289775 168.995604 
L 204.643396 168.291883 
L 207.997018 168.234058 
L 211.350639 163.869461 
L 214.70426 167.270905 
L 218.057881 159.925517 
L 221.411502 166.636898 
L 224.765123 165.602065 
L 228.118744 165.567268 
L 231.472365 163.069897 
L 234.825987 155.088204 
L 238.179608 146.472597 
L 241.533229 147.185916 
L 244.88685 150.594073 
L 248.240471 157.215532 
L 251.594092 157.178509 
L 254.947713 141.528236 
L 258.301334 140.983485 
L 261.654956 153.302299 
L 265.008577 154.837079 
L 268.362198 157.654097 
L 271.715819 162.394135 
L 275.06944 164.016402 
L 278.423061 164.573641 
L 281.776682 162.667035 
L 285.130303 157.353547 
L 288.483924 152.261931 
L 291.837546 155.435995 
L 295.191167 159.857481 
L 298.544788 161.035805 
L 301.898409 159.335535 
L 305.25203 165.996522 
L 308.605651 165.417408 
L 311.959272 168.070796 
L 315.312893 168.618718 
L 318.666515 168.929671 
L 322.020136 169.667807 
L 328.727378 170.256402 
L 332.080999 170.586982 
L 335.43462 170.538771 
L 338.788241 170.673617 
L 342.141862 170.683319 
L 345.495484 170.310439 
L 348.849105 170.073378 
L 352.202726 169.606664 
L 355.556347 169.280451 
L 358.909968 169.221489 
L 362.263589 168.587747 
L 368.970831 167.92944 
L 372.324453 167.191046 
L 375.678074 166.690257 
L 379.031695 161.996302 
L 382.385316 161.524963 
L 385.738937 165.932827 
L 389.092558 165.742377 
L 392.446179 163.559092 
L 395.7998 160.544308 
L 399.153422 150.748659 
L 402.507043 142.608811 
L 405.860664 149.349335 
L 409.214285 155.464169 
L 412.567906 157.326139 
L 415.921527 139.962536 
L 419.275148 135.229711 
L 422.628769 142.824995 
L 425.98239 150.057686 
L 429.336012 151.517011 
L 432.689633 154.030944 
L 436.043254 161.945024 
L 439.396875 167.27549 
L 442.750496 169.169919 
L 446.104117 168.286588 
L 449.457738 169.918831 
L 452.811359 154.126179 
L 456.164981 157.121222 
L 459.518602 156.032653 
L 462.872223 159.681293 
L 466.225844 159.760171 
L 469.579465 160.514608 
L 472.933086 163.535217 
L 476.286707 171.303543 
L 479.640328 166.243396 
L 482.99395 170.153136 
L 489.701192 170.413267 
L 493.054813 170.221087 
L 496.408434 170.530321 
L 499.762055 170.055187 
L 503.115676 170.117981 
L 506.469297 169.75959 
L 509.822919 168.868423 
L 513.17654 169.033425 
L 516.530161 167.573325 
L 519.883782 166.724526 
L 523.237403 165.605333 
L 526.591024 154.510548 
L 529.944645 157.366768 
L 533.298266 166.023941 
L 536.651888 162.300456 
L 540.005509 162.127616 
L 543.35913 164.140689 
L 546.712751 164.916642 
L 550.066372 163.752796 
L 553.419993 162.759611 
L 556.773614 159.04591 
L 560.127235 159.792422 
L 563.480856 156.672888 
L 566.834478 154.754036 
L 570.188099 153.039304 
L 573.54172 157.667762 
L 576.895341 149.368704 
L 580.248962 162.858202 
L 583.602583 147.731379 
L 586.956204 160.69556 
L 590.309825 162.573437 
L 593.663447 163.536883 
L 597.017068 163.827618 
L 600.370689 163.213973 
L 603.72431 163.435796 
L 607.077931 161.824634 
L 610.431552 154.448916 
L 613.785173 159.827145 
L 617.138794 163.988663 
L 620.492416 164.118887 
L 623.846037 154.629321 
L 627.199658 149.184504 
L 630.553279 147.397049 
L 633.9069 127.97304 
L 637.260521 119.971473 
L 640.614142 126.365662 
L 643.967763 155.591481 
L 647.321385 164.230106 
L 650.675006 165.759112 
L 660.735869 168.94057 
L 667.443111 170.549427 
L 670.796732 171.159211 
L 674.150354 171.357251 
L 677.503975 171.370943 
L 677.503975 171.370943 
" clip-path="url(#pb9cb22c895)" style="fill: none; stroke-dasharray: 5.55,2.4; stroke-dashoffset: 0; stroke: #808080; stroke-width: 1.5"/>
   </g>
   <g id="patch_3">
    <path d="M 71.84 246.04 
L 71.84 26.88 
" style="fill: none; stroke: #000000; stroke-width: 0.8; stroke-linejoin: miter; stroke-linecap: square"/>
   </g>
   <g id="patch_4">
    <path d="M 706.345116 246.04 
L 706.345116 26.88 
" style="fill: none; stroke: #000000; stroke-width: 0.8; stroke-linejoin: miter; stroke-linecap: square"/>
   </g>
   <g id="patch_5">
    <path d="M 71.84 246.04 
L 706.345116 246.04 
" style="fill: none; stroke: #000000; stroke-width: 0.8; stroke-linejoin: miter; stroke-linecap: square"/>
   </g>
   <g id="patch_6">
    <path d="M 71.84 26.88 
L 706.345116 26.88 
" style="fill: none; stroke: #000000; stroke-width: 0.8; stroke-linejoin: miter; stroke-linecap: square"/>
   </g>
   <g id="text_18">
    <!-- Licht - v001/c00004/d001 -->
    <g transform="translate(311.955996 20.88) scale(0.12 -0.12)">
     <defs>
      <path id="DejaVuSans-76" d="M 191 3500 
L 800 3500 
L 1894 563 
L 2988 3500 
L 3597 3500 
L 2284 0 
L 1503 0 
L 191 3500 
z
" transform="scale(0.015625)"/>
      <path id="DejaVuSans-2f" d="M 1625 4666 
L 2156 4666 
L 531 -594 
L 0 -594 
L 1625 4666 
z
" transform="scale(0.015625)"/>
     </defs>
     <use xlink:href="#DejaVuSans-4c"/>
     <use xlink:href="#DejaVuSans-69" transform="translate(55.712891 0)"/>
     <use xlink:href="#DejaVuSans-63" transform="translate(83.496094 0)"/>
     <use xlink:href="#DejaVuSans-68" transform="translate(138.476562 0)"/>
     <use xlink:href="#DejaVuSans-74" transform="translate(201.855469 0)"/>
     <use xlink:href="#DejaVuSans-20" transform="translate(241.064453 0)"/>
     <use xlink:href="#DejaVuSans-2d" transform="translate(272.851562 0)"/>
     <use xlink:href="#DejaVuSans-20" transform="translate(308.935547 0)"/>
     <use xlink:href="#DejaVuSans-76" transform="translate(340.722656 0)"/>
     <use xlink:href="#DejaVuSans-30" transform="translate(399.902344 0)"/>
     <use xlink:href="#DejaVuSans-30" transform="translate(463.525391 0)"/>
     <use xlink:href="#DejaVuSans-31" transform="translate(527.148438 0)"/>
     <use xlink:href="#DejaVuSans-2f" transform="translate(590.771484 0)"/>
     <use xlink:href="#DejaVuSans-63" transform="translate(624.462891 0)"/>
     <use xlink:href="#DejaVuSans-30" transform="translate(679.443359 0)"/>
     <use xlink:href="#DejaVuSans-30" transform="translate(743.066406 0)"/>
     <use xlink:href="#DejaVuSans-30" transform="translate(806.689453 0)"/>
     <use xlink:href="#DejaVuSans-30" transform="translate(870.3125 0)"/>
     <use xlink:href="#DejaVuSans-34" transform="translate(933.935547 0)"/>
     <use xlink:href="#DejaVuSans-2f" transform="translate(997.558594 0)"/>
     <use xlink:href="#DejaVuSans-64" transform="translate(1031.25 0)"/>
     <use xlink:href="#DejaVuSans-30" transform="translate(1094.726562 0)"/>
     <use xlink:href="#DejaVuSans-30" transform="translate(1158.349609 0)"/>
     <use xlink:href="#DejaVuSans-31" transform="translate(1221.972656 0)"/>
    </g>
   </g>
   <g id="legend_1">
    <g id="patch_7">
     <path d="M 548.401366 78.914375 
L 699.345116 78.914375 
Q 701.345116 78.914375 701.345116 76.914375 
L 701.345116 33.88 
Q 701.345116 31.88 699.345116 31.88 
L 548.401366 31.88 
Q 546.401366 31.88 546.401366 33.88 
L 546.401366 76.914375 
Q 546.401366 78.914375 548.401366 78.914375 
z
" style="fill: #ffffff; opacity: 0.8; stroke: #cccccc; stroke-linejoin: miter"/>
    </g>
    <g id="line2d_18">
     <path d="M 550.401366 39.978438 
L 560.401366 39.978438 
L 570.401366 39.978438 
" style="fill: none; stroke: #1f77b4; stroke-width: 2; stroke-linecap: square"/>
    </g>
    <g id="text_19">
     <!-- Hive -->
     <g transform="translate(578.401366 43.478438) scale(0.1 -0.1)">
      <defs>
       <path id="DejaVuSans-48" d="M 628 4666 
L 1259 4666 
L 1259 2753 
L 3553 2753 
L 3553 4666 
L 4184 4666 
L 4184 0 
L 3553 0 
L 3553 2222 
L 1259 2222 
L 1259 0 
L 628 0 
L 628 4666 
z
" transform="scale(0.015625)"/>
      </defs>
      <use xlink:href="#DejaVuSans-48"/>
      <use xlink:href="#DejaVuSans-69" transform="translate(75.195312 0)"/>
      <use xlink:href="#DejaVuSans-76" transform="translate(102.978516 0)"/>
      <use xlink:href="#DejaVuSans-65" transform="translate(162.158203 0)"/>
     </g>
    </g>
    <g id="line2d_19">
     <path d="M 550.401366 54.656563 
L 560.401366 54.656563 
L 570.401366 54.656563 
" style="fill: none; stroke-dasharray: 5.55,2.4; stroke-dashoffset: 0; stroke: #808080; stroke-width: 1.5"/>
    </g>
    <g id="text_20">
     <!-- Gemiddelde (alle hives) -->
     <g transform="translate(578.401366 58.156563) scale(0.1 -0.1)">
      <defs>
       <path id="DejaVuSans-47" d="M 3809 666 
L 3809 1919 
L 2778 1919 
L 2778 2438 
L 4434 2438 
L 4434 434 
Q 4069 175 3628 42 
Q 3188 -91 2688 -91 
Q 1594 -91 976 548 
Q 359 1188 359 2328 
Q 359 3472 976 4111 
Q 1594 4750 2688 4750 
Q 3144 4750 3555 4637 
Q 3966 4525 4313 4306 
L 4313 3634 
Q 3963 3931 3569 4081 
Q 3175 4231 2741 4231 
Q 1884 4231 1454 3753 
Q 1025 3275 1025 2328 
Q 1025 1384 1454 906 
Q 1884 428 2741 428 
Q 3075 428 3337 486 
Q 3600 544 3809 666 
z
" transform="scale(0.015625)"/>
       <path id="DejaVuSans-6d" d="M 3328 2828 
Q 3544 3216 3844 3400 
Q 4144 3584 4550 3584 
Q 5097 3584 5394 3201 
Q 5691 2819 5691 2113 
L 5691 0 
L 5113 0 
L 5113 2094 
Q 5113 2597 4934 2840 
Q 4756 3084 4391 3084 
Q 3944 3084 3684 2787 
Q 3425 2491 3425 1978 
L 3425 0 
L 2847 0 
L 2847 2094 
Q 2847 2600 2669 2842 
Q 2491 3084 2119 3084 
Q 1678 3084 1418 2786 
Q 1159 2488 1159 1978 
L 1159 0 
L 581 0 
L 581 3500 
L 1159 3500 
L 1159 2956 
Q 1356 3278 1631 3431 
Q 1906 3584 2284 3584 
Q 2666 3584 2933 3390 
Q 3200 3197 3328 2828 
z
" transform="scale(0.015625)"/>
       <path id="DejaVuSans-6c" d="M 603 4863 
L 1178 4863 
L 1178 0 
L 603 0 
L 603 4863 
z
" transform="scale(0.015625)"/>
       <path id="DejaVuSans-28" d="M 1984 4856 
Q 1566 4138 1362 3434 
Q 1159 2731 1159 2009 
Q 1159 1288 1364 580 
Q 1569 -128 1984 -844 
L 1484 -844 
Q 1016 -109 783 600 
Q 550 1309 550 2009 
Q 550 2706 781 3412 
Q 1013 4119 1484 4856 
L 1984 4856 
z
" transform="scale(0.015625)"/>
       <path id="DejaVuSans-61" d="M 2194 1759 
Q 1497 1759 1228 1600 
Q 959 1441 959 1056 
Q 959 750 1161 570 
Q 1363 391 1709 391 
Q 2188 391 2477 730 
Q 2766 1069 2766 1631 
L 2766 1759 
L 2194 1759 
z
M 3341 1997 
L 3341 0 
L 2766 0 
L 2766 531 
Q 2569 213 2275 61 
Q 1981 -91 1556 -91 
Q 1019 -91 701 211 
Q 384 513 384 1019 
Q 384 1609 779 1909 
Q 1175 2209 1959 2209 
L 2766 2209 
L 2766 2266 
Q 2766 2663 2505 2880 
Q 2244 3097 1772 3097 
Q 1472 3097 1187 3025 
Q 903 2953 641 2809 
L 641 3341 
Q 956 3463 1253 3523 
Q 1550 3584 1831 3584 
Q 2591 3584 2966 3190 
Q 3341 2797 3341 1997 
z
" transform="scale(0.015625)"/>
       <path id="DejaVuSans-29" d="M 513 4856 
L 1013 4856 
Q 1481 4119 1714 3412 
Q 1947 2706 1947 2009 
Q 1947 1309 1714 600 
Q 1481 -109 1013 -844 
L 513 -844 
Q 928 -128 1133 580 
Q 1338 1288 1338 2009 
Q 1338 2731 1133 3434 
Q 928 4138 513 4856 
z
" transform="scale(0.015625)"/>
      </defs>
      <use xlink:href="#DejaVuSans-47"/>
      <use xlink:href="#DejaVuSans-65" transform="translate(77.490234 0)"/>
      <use xlink:href="#DejaVuSans-6d" transform="translate(139.013672 0)"/>
      <use xlink:href="#DejaVuSans-69" transform="translate(236.425781 0)"/>
      <use xlink:href="#DejaVuSans-64" transform="translate(264.208984 0)"/>
      <use xlink:href="#DejaVuSans-64" transform="translate(327.685547 0)"/>
      <use xlink:href="#DejaVuSans-65" transform="translate(391.162109 0)"/>
      <use xlink:href="#DejaVuSans-6c" transform="translate(452.685547 0)"/>
      <use xlink:href="#DejaVuSans-64" transform="translate(480.46875 0)"/>
      <use xlink:href="#DejaVuSans-65" transform="translate(543.945312 0)"/>
      <use xlink:href="#DejaVuSans-20" transform="translate(605.46875 0)"/>
      <use xlink:href="#DejaVuSans-28" transform="translate(637.255859 0)"/>
      <use xlink:href="#DejaVuSans-61" transform="translate(676.269531 0)"/>
      <use xlink:href="#DejaVuSans-6c" transform="translate(737.548828 0)"/>
      <use xlink:href="#DejaVuSans-6c" transform="translate(765.332031 0)"/>
      <use xlink:href="#DejaVuSans-65" transform="translate(793.115234 0)"/>
      <use xlink:href="#DejaVuSans-20" transform="translate(854.638672 0)"/>
      <use xlink:href="#DejaVuSans-68" transform="translate(886.425781 0)"/>
      <use xlink:href="#DejaVuSans-69" transform="translate(949.804688 0)"/>
      <use xlink:href="#DejaVuSans-76" transform="translate(977.587891 0)"/>
      <use xlink:href="#DejaVuSans-65" transform="translate(1036.767578 0)"/>
      <use xlink:href="#DejaVuSans-73" transform="translate(1098.291016 0)"/>
      <use xlink:href="#DejaVuSans-29" transform="translate(1150.390625 0)"/>
     </g>
    </g>
    <g id="patch_8">
     <path d="M 550.401366 72.834688 
L 570.401366 72.834688 
L 570.401366 65.834688 
L 550.401366 65.834688 
z
" style="fill: #808080; fill-opacity: 0.2; stroke: #808080; stroke-opacity: 0.2; stroke-linejoin: miter"/>
    </g>
    <g id="text_21">
     <!-- ±2 Std Dev -->
     <g transform="translate(578.401366 72.834688) scale(0.1 -0.1)">
      <defs>
       <path id="DejaVuSans-b1" d="M 2944 4013 
L 2944 2803 
L 4684 2803 
L 4684 2272 
L 2944 2272 
L 2944 1063 
L 2419 1063 
L 2419 2272 
L 678 2272 
L 678 2803 
L 2419 2803 
L 2419 4013 
L 2944 4013 
z
M 678 531 
L 4684 531 
L 4684 0 
L 678 0 
L 678 531 
z
" transform="scale(0.015625)"/>
       <path id="DejaVuSans-53" d="M 3425 4513 
L 3425 3897 
Q 3066 4069 2747 4153 
Q 2428 4238 2131 4238 
Q 1616 4238 1336 4038 
Q 1056 3838 1056 3469 
Q 1056 3159 1242 3001 
Q 1428 2844 1947 2747 
L 2328 2669 
Q 3034 2534 3370 2195 
Q 3706 1856 3706 1288 
Q 3706 609 3251 259 
Q 2797 -91 1919 -91 
Q 1588 -91 1214 -16 
Q 841 59 441 206 
L 441 856 
Q 825 641 1194 531 
Q 1563 422 1919 422 
Q 2459 422 2753 634 
Q 3047 847 3047 1241 
Q 3047 1584 2836 1778 
Q 2625 1972 2144 2069 
L 1759 2144 
Q 1053 2284 737 2584 
Q 422 2884 422 3419 
Q 422 4038 858 4394 
Q 1294 4750 2059 4750 
Q 2388 4750 2728 4690 
Q 3069 4631 3425 4513 
z
" transform="scale(0.015625)"/>
       <path id="DejaVuSans-44" d="M 1259 4147 
L 1259 519 
L 2022 519 
Q 2988 519 3436 956 
Q 3884 1394 3884 2338 
Q 3884 3275 3436 3711 
Q 2988 4147 2022 4147 
L 1259 4147 
z
M 628 4666 
L 1925 4666 
Q 3281 4666 3915 4102 
Q 4550 3538 4550 2338 
Q 4550 1131 3912 565 
Q 3275 0 1925 0 
L 628 0 
L 628 4666 
z
" transform="scale(0.015625)"/>
      </defs>
      <use xlink:href="#DejaVuSans-b1"/>
      <use xlink:href="#DejaVuSans-32" transform="translate(83.789062 0)"/>
      <use xlink:href="#DejaVuSans-20" transform="translate(147.412109 0)"/>
      <use xlink:href="#DejaVuSans-53" transform="translate(179.199219 0)"/>
      <use xlink:href="#DejaVuSans-74" transform="translate(242.675781 0)"/>
      <use xlink:href="#DejaVuSans-64" transform="translate(281.884766 0)"/>
      <use xlink:href="#DejaVuSans-20" transform="translate(345.361328 0)"/>
      <use xlink:href="#DejaVuSans-44" transform="translate(377.148438 0)"/>
      <use xlink:href="#DejaVuSans-65" transform="translate(454.150391 0)"/>
      <use xlink:href="#DejaVuSans-76" transform="translate(515.673828 0)"/>
     </g>
    </g>
   </g>
  </g>
 </g>
 <defs>
  <clipPath id="pb9cb22c895">
   <rect x="71.84" y="26.88" width="634.505116" height="219.16"/>
  </clipPath>
 </defs>
</svg>
