<?xml version="1.0" encoding="utf-8" standalone="no"?>
<!DOCTYPE svg PUBLIC "-//W3C//DTD SVG 1.1//EN"
  "http://www.w3.org/Graphics/SVG/1.1/DTD/svg11.dtd">
<svg xmlns:xlink="http://www.w3.org/1999/xlink" width="720pt" height="288pt" viewBox="0 0 720 288" xmlns="http://www.w3.org/2000/svg" version="1.1">
 <metadata>
  <rdf:RDF xmlns:dc="http://purl.org/dc/elements/1.1/" xmlns:cc="http://creativecommons.org/ns#" xmlns:rdf="http://www.w3.org/1999/02/22-rdf-syntax-ns#">
   <cc:Work>
    <dc:type rdf:resource="http://purl.org/dc/dcmitype/StillImage"/>
    <dc:date>2025-06-11T17:15:07.501146</dc:date>
    <dc:format>image/svg+xml</dc:format>
    <dc:creator>
     <cc:Agent>
      <dc:title>Matplotlib v3.10.3, https://matplotlib.org/</dc:title>
     </cc:Agent>
    </dc:creator>
   </cc:Work>
  </rdf:RDF>
 </metadata>
 <defs>
  <style type="text/css">*{stroke-linejoin: round; stroke-linecap: butt}</style>
 </defs>
 <g id="figure_1">
  <g id="patch_1">
   <path d="M 0 288 
L 720 288 
L 720 0 
L 0 0 
z
" style="fill: #ffffff"/>
  </g>
  <g id="axes_1">
   <g id="patch_2">
    <path d="M 44.57 246.04 
L 709.2 246.04 
L 709.2 26.88 
L 44.57 26.88 
z
" style="fill: #ffffff"/>
   </g>
   <g id="FillBetweenPolyCollection_1">
    <defs>
     <path id="m27240d4269" d="M 74.780455 -199.470822 
L 74.780455 -76.153101 
L 78.420268 -70.032363 
L 82.060082 -74.330072 
L 85.699896 -74.214216 
L 89.33971 -71.450415 
L 92.979524 -75.972587 
L 96.619337 -76.810294 
L 100.259151 -77.612234 
L 103.898965 -73.007698 
L 107.538779 -78.184458 
L 111.178593 -73.776238 
L 114.818406 -72.807367 
L 118.45822 -82.681469 
L 122.098034 -82.98418 
L 125.737848 -71.04939 
L 129.377662 -76.306804 
L 133.017475 -72.089776 
L 136.657289 -83.955645 
L 140.297103 -99.396794 
L 143.936917 -85.360578 
L 147.576731 -71.101742 
L 151.216544 -84.434425 
L 154.856358 -92.148084 
L 158.496172 -76.359926 
L 162.135986 -76.964903 
L 165.7758 -65.211429 
L 169.415613 -81.37648 
L 173.055427 -106.492044 
L 176.695241 -95.596249 
L 180.335055 -84.538413 
L 183.974869 -91.125397 
L 187.614682 -88.231594 
L 191.254496 -77.723478 
L 194.89431 -96.184753 
L 198.534124 -72.284763 
L 202.173938 -78.090446 
L 205.813751 -73.904821 
L 209.453565 -71.902409 
L 213.093379 -66.965994 
L 216.733193 -64.083857 
L 220.373007 -65.759893 
L 224.01282 -71.402472 
L 227.652634 -77.310661 
L 231.292448 -76.193272 
L 234.932262 -85.228082 
L 238.572076 -78.457704 
L 242.211889 -98.038929 
L 245.851703 -104.972172 
L 249.491517 -98.574308 
L 253.131331 -107.065858 
L 256.771145 -99.962606 
L 260.410958 -96.230201 
L 264.050772 -74.523122 
L 267.690586 -91.144296 
L 271.3304 -84.932401 
L 274.970214 -89.407452 
L 278.610027 -55.636475 
L 282.249841 -60.465388 
L 285.889655 -51.921818 
L 289.529469 -56.595816 
L 293.169283 -65.321683 
L 296.809096 -66.711939 
L 300.44891 -65.527121 
L 304.088724 -75.855581 
L 307.728538 -58.236951 
L 311.368352 -60.139557 
L 315.008165 -53.41063 
L 318.647979 -58.449409 
L 322.287793 -74.096276 
L 325.927607 -81.682207 
L 329.567421 -81.499214 
L 333.207234 -75.856301 
L 336.847048 -80.773242 
L 340.486862 -65.223368 
L 344.126676 -70.053757 
L 347.76649 -74.203563 
L 351.406303 -64.356005 
L 355.046117 -56.610834 
L 358.685931 -81.529702 
L 362.325745 -64.764747 
L 365.965559 -66.367625 
L 369.605372 -80.847648 
L 373.245186 -58.992296 
L 376.885 -70.9687 
L 380.524814 -67.458607 
L 384.164628 -64.530129 
L 387.804441 -62.777736 
L 391.444255 -60.53269 
L 395.084069 -63.489503 
L 398.723883 -68.361424 
L 402.363697 -78.340759 
L 406.00351 -74.49165 
L 409.643324 -57.813743 
L 413.283138 -71.008298 
L 416.922952 -74.166803 
L 420.562766 -92.783573 
L 424.202579 -79.953825 
L 427.842393 -75.203867 
L 431.482207 -77.622651 
L 435.122021 -78.793721 
L 438.761835 -88.532417 
L 442.401648 -81.465851 
L 446.041462 -62.749635 
L 449.681276 -63.481007 
L 453.32109 -70.824437 
L 456.960904 -79.761834 
L 460.600717 -64.73078 
L 464.240531 -75.870695 
L 467.880345 -62.189858 
L 471.520159 -72.228342 
L 475.159973 -87.242819 
L 478.799786 -80.02269 
L 482.4396 -79.077473 
L 486.079414 -86.375066 
L 489.719228 -77.593536 
L 493.359042 -67.661969 
L 496.998855 -73.893702 
L 500.638669 -77.300211 
L 504.278483 -82.80317 
L 507.918297 -79.612217 
L 511.558111 -87.683379 
L 515.197924 -91.815214 
L 518.837738 -83.631052 
L 522.477552 -86.647084 
L 526.117366 -78.662953 
L 529.75718 -81.438996 
L 533.396993 -93.176182 
L 537.036807 -72.88669 
L 540.676621 -63.717469 
L 544.316435 -73.351856 
L 547.956249 -75.312713 
L 551.596062 -127.271015 
L 555.235876 -77.045454 
L 558.87569 -77.15695 
L 562.515504 -78.947133 
L 566.155318 -100.621607 
L 569.795131 -98.87816 
L 573.434945 -68.10245 
L 577.074759 -99.555941 
L 580.714573 -69.436183 
L 584.354387 -93.829262 
L 587.9942 -97.952407 
L 591.634014 -100.592182 
L 595.273828 -83.060971 
L 598.913642 -91.304092 
L 602.553456 -87.318145 
L 606.193269 -94.843373 
L 609.833083 -96.949524 
L 613.472897 -97.633601 
L 617.112711 -88.128647 
L 617.112711 -245.342695 
L 617.112711 -245.342695 
L 613.472897 -240.264379 
L 609.833083 -237.44529 
L 606.193269 -233.754653 
L 602.553456 -244.512029 
L 598.913642 -235.692916 
L 595.273828 -251.158182 
L 591.634014 -222.068528 
L 587.9942 -219.930345 
L 584.354387 -224.123755 
L 580.714573 -213.764216 
L 577.074759 -206.662973 
L 573.434945 -211.943091 
L 569.795131 -202.028789 
L 566.155318 -207.747388 
L 562.515504 -212.998133 
L 558.87569 -217.408163 
L 555.235876 -217.730452 
L 551.596062 -184.217706 
L 547.956249 -207.177015 
L 544.316435 -204.379989 
L 540.676621 -215.429696 
L 537.036807 -207.796247 
L 533.396993 -198.407727 
L 529.75718 -196.895113 
L 526.117366 -196.117801 
L 522.477552 -190.091027 
L 518.837738 -198.70811 
L 515.197924 -207.236763 
L 511.558111 -211.970861 
L 507.918297 -221.899003 
L 504.278483 -224.89129 
L 500.638669 -234.640208 
L 496.998855 -239.160904 
L 493.359042 -249.457917 
L 489.719228 -239.616689 
L 486.079414 -224.059693 
L 482.4396 -232.501587 
L 478.799786 -227.822336 
L 475.159973 -209.219425 
L 471.520159 -215.741985 
L 467.880345 -217.288552 
L 464.240531 -201.017981 
L 460.600717 -204.689828 
L 456.960904 -195.922315 
L 453.32109 -202.691563 
L 449.681276 -207.144128 
L 446.041462 -215.464021 
L 442.401648 -180.627216 
L 438.761835 -181.2897 
L 435.122021 -194.120016 
L 431.482207 -197.961121 
L 427.842393 -199.95832 
L 424.202579 -211.569857 
L 420.562766 -213.555794 
L 416.922952 -209.828584 
L 413.283138 -216.540444 
L 409.643324 -220.545461 
L 406.00351 -205.167439 
L 402.363697 -208.665946 
L 398.723883 -210.39427 
L 395.084069 -204.907257 
L 391.444255 -207.412372 
L 387.804441 -207.787172 
L 384.164628 -200.042256 
L 380.524814 -195.999591 
L 376.885 -202.005263 
L 373.245186 -201.665376 
L 369.605372 -192.066089 
L 365.965559 -203.896152 
L 362.325745 -199.777526 
L 358.685931 -196.985086 
L 355.046117 -210.039361 
L 351.406303 -208.617958 
L 347.76649 -201.721492 
L 344.126676 -195.552515 
L 340.486862 -198.274981 
L 336.847048 -186.800424 
L 333.207234 -216.179306 
L 329.567421 -208.940394 
L 325.927607 -212.130077 
L 322.287793 -226.943171 
L 318.647979 -232.943783 
L 315.008165 -241.636294 
L 311.368352 -242.636417 
L 307.728538 -238.63684 
L 304.088724 -238.85525 
L 300.44891 -240.209982 
L 296.809096 -229.388947 
L 293.169283 -223.762832 
L 289.529469 -231.635491 
L 285.889655 -239.401109 
L 282.249841 -242.942963 
L 278.610027 -247.490819 
L 274.970214 -240.93212 
L 271.3304 -237.969215 
L 267.690586 -231.395961 
L 264.050772 -236.483788 
L 260.410958 -231.73043 
L 256.771145 -228.540061 
L 253.131331 -216.016438 
L 249.491517 -219.870558 
L 245.851703 -212.328393 
L 242.211889 -214.443527 
L 238.572076 -214.150052 
L 234.932262 -210.029635 
L 231.292448 -223.325459 
L 227.652634 -224.391276 
L 224.01282 -225.119998 
L 220.373007 -226.004694 
L 216.733193 -222.139906 
L 213.093379 -205.315366 
L 209.453565 -200.308687 
L 205.813751 -202.100535 
L 202.173938 -191.801935 
L 198.534124 -200.388068 
L 194.89431 -178.987472 
L 191.254496 -191.847696 
L 187.614682 -190.795118 
L 183.974869 -182.27015 
L 180.335055 -178.708993 
L 176.695241 -183.942388 
L 173.055427 -182.160849 
L 169.415613 -195.482083 
L 165.7758 -202.151445 
L 162.135986 -200.134565 
L 158.496172 -204.051993 
L 154.856358 -184.313989 
L 151.216544 -197.754171 
L 147.576731 -215.724284 
L 143.936917 -201.043864 
L 140.297103 -193.421755 
L 136.657289 -177.743943 
L 133.017475 -191.380468 
L 129.377662 -182.610326 
L 125.737848 -206.57204 
L 122.098034 -217.212098 
L 118.45822 -217.876168 
L 114.818406 -217.451561 
L 111.178593 -217.205406 
L 107.538779 -207.135909 
L 103.898965 -210.14452 
L 100.259151 -204.094551 
L 96.619337 -218.628101 
L 92.979524 -204.077973 
L 89.33971 -208.780825 
L 85.699896 -201.951744 
L 82.060082 -212.616407 
L 78.420268 -207.940388 
L 74.780455 -199.470822 
z
" style="stroke: #808080; stroke-opacity: 0.2"/>
    </defs>
    <g clip-path="url(#p1be9add548)">
     <use xlink:href="#m27240d4269" x="0" y="288" style="fill: #808080; fill-opacity: 0.2; stroke: #808080; stroke-opacity: 0.2"/>
    </g>
   </g>
   <g id="matplotlib.axis_1">
    <g id="xtick_1">
     <g id="line2d_1">
      <defs>
       <path id="m2671e8b59d" d="M 0 0 
L 0 3.5 
" style="stroke: #000000; stroke-width: 0.8"/>
      </defs>
      <g>
       <use xlink:href="#m2671e8b59d" x="125.737848" y="246.04" style="stroke: #000000; stroke-width: 0.8"/>
      </g>
     </g>
     <g id="text_1">
      <!-- 06-09 00 -->
      <g transform="translate(103.257379 260.638438) scale(0.1 -0.1)">
       <defs>
        <path id="DejaVuSans-30" d="M 2034 4250 
Q 1547 4250 1301 3770 
Q 1056 3291 1056 2328 
Q 1056 1369 1301 889 
Q 1547 409 2034 409 
Q 2525 409 2770 889 
Q 3016 1369 3016 2328 
Q 3016 3291 2770 3770 
Q 2525 4250 2034 4250 
z
M 2034 4750 
Q 2819 4750 3233 4129 
Q 3647 3509 3647 2328 
Q 3647 1150 3233 529 
Q 2819 -91 2034 -91 
Q 1250 -91 836 529 
Q 422 1150 422 2328 
Q 422 3509 836 4129 
Q 1250 4750 2034 4750 
z
" transform="scale(0.015625)"/>
        <path id="DejaVuSans-36" d="M 2113 2584 
Q 1688 2584 1439 2293 
Q 1191 2003 1191 1497 
Q 1191 994 1439 701 
Q 1688 409 2113 409 
Q 2538 409 2786 701 
Q 3034 994 3034 1497 
Q 3034 2003 2786 2293 
Q 2538 2584 2113 2584 
z
M 3366 4563 
L 3366 3988 
Q 3128 4100 2886 4159 
Q 2644 4219 2406 4219 
Q 1781 4219 1451 3797 
Q 1122 3375 1075 2522 
Q 1259 2794 1537 2939 
Q 1816 3084 2150 3084 
Q 2853 3084 3261 2657 
Q 3669 2231 3669 1497 
Q 3669 778 3244 343 
Q 2819 -91 2113 -91 
Q 1303 -91 875 529 
Q 447 1150 447 2328 
Q 447 3434 972 4092 
Q 1497 4750 2381 4750 
Q 2619 4750 2861 4703 
Q 3103 4656 3366 4563 
z
" transform="scale(0.015625)"/>
        <path id="DejaVuSans-2d" d="M 313 2009 
L 1997 2009 
L 1997 1497 
L 313 1497 
L 313 2009 
z
" transform="scale(0.015625)"/>
        <path id="DejaVuSans-39" d="M 703 97 
L 703 672 
Q 941 559 1184 500 
Q 1428 441 1663 441 
Q 2288 441 2617 861 
Q 2947 1281 2994 2138 
Q 2813 1869 2534 1725 
Q 2256 1581 1919 1581 
Q 1219 1581 811 2004 
Q 403 2428 403 3163 
Q 403 3881 828 4315 
Q 1253 4750 1959 4750 
Q 2769 4750 3195 4129 
Q 3622 3509 3622 2328 
Q 3622 1225 3098 567 
Q 2575 -91 1691 -91 
Q 1453 -91 1209 -44 
Q 966 3 703 97 
z
M 1959 2075 
Q 2384 2075 2632 2365 
Q 2881 2656 2881 3163 
Q 2881 3666 2632 3958 
Q 2384 4250 1959 4250 
Q 1534 4250 1286 3958 
Q 1038 3666 1038 3163 
Q 1038 2656 1286 2365 
Q 1534 2075 1959 2075 
z
" transform="scale(0.015625)"/>
        <path id="DejaVuSans-20" transform="scale(0.015625)"/>
       </defs>
       <use xlink:href="#DejaVuSans-30"/>
       <use xlink:href="#DejaVuSans-36" transform="translate(63.623047 0)"/>
       <use xlink:href="#DejaVuSans-2d" transform="translate(127.246094 0)"/>
       <use xlink:href="#DejaVuSans-30" transform="translate(163.330078 0)"/>
       <use xlink:href="#DejaVuSans-39" transform="translate(226.953125 0)"/>
       <use xlink:href="#DejaVuSans-20" transform="translate(290.576172 0)"/>
       <use xlink:href="#DejaVuSans-30" transform="translate(322.363281 0)"/>
       <use xlink:href="#DejaVuSans-30" transform="translate(385.986328 0)"/>
      </g>
     </g>
    </g>
    <g id="xtick_2">
     <g id="line2d_2">
      <g>
       <use xlink:href="#m2671e8b59d" x="213.093379" y="246.04" style="stroke: #000000; stroke-width: 0.8"/>
      </g>
     </g>
     <g id="text_2">
      <!-- 06-09 12 -->
      <g transform="translate(190.61291 260.638438) scale(0.1 -0.1)">
       <defs>
        <path id="DejaVuSans-31" d="M 794 531 
L 1825 531 
L 1825 4091 
L 703 3866 
L 703 4441 
L 1819 4666 
L 2450 4666 
L 2450 531 
L 3481 531 
L 3481 0 
L 794 0 
L 794 531 
z
" transform="scale(0.015625)"/>
        <path id="DejaVuSans-32" d="M 1228 531 
L 3431 531 
L 3431 0 
L 469 0 
L 469 531 
Q 828 903 1448 1529 
Q 2069 2156 2228 2338 
Q 2531 2678 2651 2914 
Q 2772 3150 2772 3378 
Q 2772 3750 2511 3984 
Q 2250 4219 1831 4219 
Q 1534 4219 1204 4116 
Q 875 4013 500 3803 
L 500 4441 
Q 881 4594 1212 4672 
Q 1544 4750 1819 4750 
Q 2544 4750 2975 4387 
Q 3406 4025 3406 3419 
Q 3406 3131 3298 2873 
Q 3191 2616 2906 2266 
Q 2828 2175 2409 1742 
Q 1991 1309 1228 531 
z
" transform="scale(0.015625)"/>
       </defs>
       <use xlink:href="#DejaVuSans-30"/>
       <use xlink:href="#DejaVuSans-36" transform="translate(63.623047 0)"/>
       <use xlink:href="#DejaVuSans-2d" transform="translate(127.246094 0)"/>
       <use xlink:href="#DejaVuSans-30" transform="translate(163.330078 0)"/>
       <use xlink:href="#DejaVuSans-39" transform="translate(226.953125 0)"/>
       <use xlink:href="#DejaVuSans-20" transform="translate(290.576172 0)"/>
       <use xlink:href="#DejaVuSans-31" transform="translate(322.363281 0)"/>
       <use xlink:href="#DejaVuSans-32" transform="translate(385.986328 0)"/>
      </g>
     </g>
    </g>
    <g id="xtick_3">
     <g id="line2d_3">
      <g>
       <use xlink:href="#m2671e8b59d" x="300.44891" y="246.04" style="stroke: #000000; stroke-width: 0.8"/>
      </g>
     </g>
     <g id="text_3">
      <!-- 06-10 00 -->
      <g transform="translate(277.968441 260.638438) scale(0.1 -0.1)">
       <use xlink:href="#DejaVuSans-30"/>
       <use xlink:href="#DejaVuSans-36" transform="translate(63.623047 0)"/>
       <use xlink:href="#DejaVuSans-2d" transform="translate(127.246094 0)"/>
       <use xlink:href="#DejaVuSans-31" transform="translate(163.330078 0)"/>
       <use xlink:href="#DejaVuSans-30" transform="translate(226.953125 0)"/>
       <use xlink:href="#DejaVuSans-20" transform="translate(290.576172 0)"/>
       <use xlink:href="#DejaVuSans-30" transform="translate(322.363281 0)"/>
       <use xlink:href="#DejaVuSans-30" transform="translate(385.986328 0)"/>
      </g>
     </g>
    </g>
    <g id="xtick_4">
     <g id="line2d_4">
      <g>
       <use xlink:href="#m2671e8b59d" x="387.804441" y="246.04" style="stroke: #000000; stroke-width: 0.8"/>
      </g>
     </g>
     <g id="text_4">
      <!-- 06-10 12 -->
      <g transform="translate(365.323973 260.638438) scale(0.1 -0.1)">
       <use xlink:href="#DejaVuSans-30"/>
       <use xlink:href="#DejaVuSans-36" transform="translate(63.623047 0)"/>
       <use xlink:href="#DejaVuSans-2d" transform="translate(127.246094 0)"/>
       <use xlink:href="#DejaVuSans-31" transform="translate(163.330078 0)"/>
       <use xlink:href="#DejaVuSans-30" transform="translate(226.953125 0)"/>
       <use xlink:href="#DejaVuSans-20" transform="translate(290.576172 0)"/>
       <use xlink:href="#DejaVuSans-31" transform="translate(322.363281 0)"/>
       <use xlink:href="#DejaVuSans-32" transform="translate(385.986328 0)"/>
      </g>
     </g>
    </g>
    <g id="xtick_5">
     <g id="line2d_5">
      <g>
       <use xlink:href="#m2671e8b59d" x="475.159973" y="246.04" style="stroke: #000000; stroke-width: 0.8"/>
      </g>
     </g>
     <g id="text_5">
      <!-- 06-11 00 -->
      <g transform="translate(452.679504 260.638438) scale(0.1 -0.1)">
       <use xlink:href="#DejaVuSans-30"/>
       <use xlink:href="#DejaVuSans-36" transform="translate(63.623047 0)"/>
       <use xlink:href="#DejaVuSans-2d" transform="translate(127.246094 0)"/>
       <use xlink:href="#DejaVuSans-31" transform="translate(163.330078 0)"/>
       <use xlink:href="#DejaVuSans-31" transform="translate(226.953125 0)"/>
       <use xlink:href="#DejaVuSans-20" transform="translate(290.576172 0)"/>
       <use xlink:href="#DejaVuSans-30" transform="translate(322.363281 0)"/>
       <use xlink:href="#DejaVuSans-30" transform="translate(385.986328 0)"/>
      </g>
     </g>
    </g>
    <g id="xtick_6">
     <g id="line2d_6">
      <g>
       <use xlink:href="#m2671e8b59d" x="562.515504" y="246.04" style="stroke: #000000; stroke-width: 0.8"/>
      </g>
     </g>
     <g id="text_6">
      <!-- 06-11 12 -->
      <g transform="translate(540.035035 260.638438) scale(0.1 -0.1)">
       <use xlink:href="#DejaVuSans-30"/>
       <use xlink:href="#DejaVuSans-36" transform="translate(63.623047 0)"/>
       <use xlink:href="#DejaVuSans-2d" transform="translate(127.246094 0)"/>
       <use xlink:href="#DejaVuSans-31" transform="translate(163.330078 0)"/>
       <use xlink:href="#DejaVuSans-31" transform="translate(226.953125 0)"/>
       <use xlink:href="#DejaVuSans-20" transform="translate(290.576172 0)"/>
       <use xlink:href="#DejaVuSans-31" transform="translate(322.363281 0)"/>
       <use xlink:href="#DejaVuSans-32" transform="translate(385.986328 0)"/>
      </g>
     </g>
    </g>
    <g id="xtick_7">
     <g id="line2d_7">
      <g>
       <use xlink:href="#m2671e8b59d" x="649.871035" y="246.04" style="stroke: #000000; stroke-width: 0.8"/>
      </g>
     </g>
     <g id="text_7">
      <!-- 06-12 00 -->
      <g transform="translate(627.390566 260.638438) scale(0.1 -0.1)">
       <use xlink:href="#DejaVuSans-30"/>
       <use xlink:href="#DejaVuSans-36" transform="translate(63.623047 0)"/>
       <use xlink:href="#DejaVuSans-2d" transform="translate(127.246094 0)"/>
       <use xlink:href="#DejaVuSans-31" transform="translate(163.330078 0)"/>
       <use xlink:href="#DejaVuSans-32" transform="translate(226.953125 0)"/>
       <use xlink:href="#DejaVuSans-20" transform="translate(290.576172 0)"/>
       <use xlink:href="#DejaVuSans-30" transform="translate(322.363281 0)"/>
       <use xlink:href="#DejaVuSans-30" transform="translate(385.986328 0)"/>
      </g>
     </g>
    </g>
    <g id="text_8">
     <!-- Tijd -->
     <g transform="translate(368.035 274.316562) scale(0.1 -0.1)">
      <defs>
       <path id="DejaVuSans-54" d="M -19 4666 
L 3928 4666 
L 3928 4134 
L 2272 4134 
L 2272 0 
L 1638 0 
L 1638 4134 
L -19 4134 
L -19 4666 
z
" transform="scale(0.015625)"/>
       <path id="DejaVuSans-69" d="M 603 3500 
L 1178 3500 
L 1178 0 
L 603 0 
L 603 3500 
z
M 603 4863 
L 1178 4863 
L 1178 4134 
L 603 4134 
L 603 4863 
z
" transform="scale(0.015625)"/>
       <path id="DejaVuSans-6a" d="M 603 3500 
L 1178 3500 
L 1178 -63 
Q 1178 -731 923 -1031 
Q 669 -1331 103 -1331 
L -116 -1331 
L -116 -844 
L 38 -844 
Q 366 -844 484 -692 
Q 603 -541 603 -63 
L 603 3500 
z
M 603 4863 
L 1178 4863 
L 1178 4134 
L 603 4134 
L 603 4863 
z
" transform="scale(0.015625)"/>
       <path id="DejaVuSans-64" d="M 2906 2969 
L 2906 4863 
L 3481 4863 
L 3481 0 
L 2906 0 
L 2906 525 
Q 2725 213 2448 61 
Q 2172 -91 1784 -91 
Q 1150 -91 751 415 
Q 353 922 353 1747 
Q 353 2572 751 3078 
Q 1150 3584 1784 3584 
Q 2172 3584 2448 3432 
Q 2725 3281 2906 2969 
z
M 947 1747 
Q 947 1113 1208 752 
Q 1469 391 1925 391 
Q 2381 391 2643 752 
Q 2906 1113 2906 1747 
Q 2906 2381 2643 2742 
Q 2381 3103 1925 3103 
Q 1469 3103 1208 2742 
Q 947 2381 947 1747 
z
" transform="scale(0.015625)"/>
      </defs>
      <use xlink:href="#DejaVuSans-54"/>
      <use xlink:href="#DejaVuSans-69" transform="translate(57.958984 0)"/>
      <use xlink:href="#DejaVuSans-6a" transform="translate(85.742188 0)"/>
      <use xlink:href="#DejaVuSans-64" transform="translate(113.525391 0)"/>
     </g>
    </g>
   </g>
   <g id="matplotlib.axis_2">
    <g id="ytick_1">
     <g id="line2d_8">
      <defs>
       <path id="mb0c11dd4e5" d="M 0 0 
L -3.5 0 
" style="stroke: #000000; stroke-width: 0.8"/>
      </defs>
      <g>
       <use xlink:href="#mb0c11dd4e5" x="44.57" y="214.780811" style="stroke: #000000; stroke-width: 0.8"/>
      </g>
     </g>
     <g id="text_9">
      <!-- 40 -->
      <g transform="translate(24.845 218.580029) scale(0.1 -0.1)">
       <defs>
        <path id="DejaVuSans-34" d="M 2419 4116 
L 825 1625 
L 2419 1625 
L 2419 4116 
z
M 2253 4666 
L 3047 4666 
L 3047 1625 
L 3713 1625 
L 3713 1100 
L 3047 1100 
L 3047 0 
L 2419 0 
L 2419 1100 
L 313 1100 
L 313 1709 
L 2253 4666 
z
" transform="scale(0.015625)"/>
       </defs>
       <use xlink:href="#DejaVuSans-34"/>
       <use xlink:href="#DejaVuSans-30" transform="translate(63.623047 0)"/>
      </g>
     </g>
    </g>
    <g id="ytick_2">
     <g id="line2d_9">
      <g>
       <use xlink:href="#mb0c11dd4e5" x="44.57" y="183.161971" style="stroke: #000000; stroke-width: 0.8"/>
      </g>
     </g>
     <g id="text_10">
      <!-- 45 -->
      <g transform="translate(24.845 186.96119) scale(0.1 -0.1)">
       <defs>
        <path id="DejaVuSans-35" d="M 691 4666 
L 3169 4666 
L 3169 4134 
L 1269 4134 
L 1269 2991 
Q 1406 3038 1543 3061 
Q 1681 3084 1819 3084 
Q 2600 3084 3056 2656 
Q 3513 2228 3513 1497 
Q 3513 744 3044 326 
Q 2575 -91 1722 -91 
Q 1428 -91 1123 -41 
Q 819 9 494 109 
L 494 744 
Q 775 591 1075 516 
Q 1375 441 1709 441 
Q 2250 441 2565 725 
Q 2881 1009 2881 1497 
Q 2881 1984 2565 2268 
Q 2250 2553 1709 2553 
Q 1456 2553 1204 2497 
Q 953 2441 691 2322 
L 691 4666 
z
" transform="scale(0.015625)"/>
       </defs>
       <use xlink:href="#DejaVuSans-34"/>
       <use xlink:href="#DejaVuSans-35" transform="translate(63.623047 0)"/>
      </g>
     </g>
    </g>
    <g id="ytick_3">
     <g id="line2d_10">
      <g>
       <use xlink:href="#mb0c11dd4e5" x="44.57" y="151.543132" style="stroke: #000000; stroke-width: 0.8"/>
      </g>
     </g>
     <g id="text_11">
      <!-- 50 -->
      <g transform="translate(24.845 155.34235) scale(0.1 -0.1)">
       <use xlink:href="#DejaVuSans-35"/>
       <use xlink:href="#DejaVuSans-30" transform="translate(63.623047 0)"/>
      </g>
     </g>
    </g>
    <g id="ytick_4">
     <g id="line2d_11">
      <g>
       <use xlink:href="#mb0c11dd4e5" x="44.57" y="119.924292" style="stroke: #000000; stroke-width: 0.8"/>
      </g>
     </g>
     <g id="text_12">
      <!-- 55 -->
      <g transform="translate(24.845 123.723511) scale(0.1 -0.1)">
       <use xlink:href="#DejaVuSans-35"/>
       <use xlink:href="#DejaVuSans-35" transform="translate(63.623047 0)"/>
      </g>
     </g>
    </g>
    <g id="ytick_5">
     <g id="line2d_12">
      <g>
       <use xlink:href="#mb0c11dd4e5" x="44.57" y="88.305453" style="stroke: #000000; stroke-width: 0.8"/>
      </g>
     </g>
     <g id="text_13">
      <!-- 60 -->
      <g transform="translate(24.845 92.104672) scale(0.1 -0.1)">
       <use xlink:href="#DejaVuSans-36"/>
       <use xlink:href="#DejaVuSans-30" transform="translate(63.623047 0)"/>
      </g>
     </g>
    </g>
    <g id="ytick_6">
     <g id="line2d_13">
      <g>
       <use xlink:href="#mb0c11dd4e5" x="44.57" y="56.686613" style="stroke: #000000; stroke-width: 0.8"/>
      </g>
     </g>
     <g id="text_14">
      <!-- 65 -->
      <g transform="translate(24.845 60.485832) scale(0.1 -0.1)">
       <use xlink:href="#DejaVuSans-36"/>
       <use xlink:href="#DejaVuSans-35" transform="translate(63.623047 0)"/>
      </g>
     </g>
    </g>
    <g id="text_15">
     <!-- (Rel.) Vochtigheid (%) -->
     <g transform="translate(18.765312 190.838125) rotate(-90) scale(0.1 -0.1)">
      <defs>
       <path id="DejaVuSans-28" d="M 1984 4856 
Q 1566 4138 1362 3434 
Q 1159 2731 1159 2009 
Q 1159 1288 1364 580 
Q 1569 -128 1984 -844 
L 1484 -844 
Q 1016 -109 783 600 
Q 550 1309 550 2009 
Q 550 2706 781 3412 
Q 1013 4119 1484 4856 
L 1984 4856 
z
" transform="scale(0.015625)"/>
       <path id="DejaVuSans-52" d="M 2841 2188 
Q 3044 2119 3236 1894 
Q 3428 1669 3622 1275 
L 4263 0 
L 3584 0 
L 2988 1197 
Q 2756 1666 2539 1819 
Q 2322 1972 1947 1972 
L 1259 1972 
L 1259 0 
L 628 0 
L 628 4666 
L 2053 4666 
Q 2853 4666 3247 4331 
Q 3641 3997 3641 3322 
Q 3641 2881 3436 2590 
Q 3231 2300 2841 2188 
z
M 1259 4147 
L 1259 2491 
L 2053 2491 
Q 2509 2491 2742 2702 
Q 2975 2913 2975 3322 
Q 2975 3731 2742 3939 
Q 2509 4147 2053 4147 
L 1259 4147 
z
" transform="scale(0.015625)"/>
       <path id="DejaVuSans-65" d="M 3597 1894 
L 3597 1613 
L 953 1613 
Q 991 1019 1311 708 
Q 1631 397 2203 397 
Q 2534 397 2845 478 
Q 3156 559 3463 722 
L 3463 178 
Q 3153 47 2828 -22 
Q 2503 -91 2169 -91 
Q 1331 -91 842 396 
Q 353 884 353 1716 
Q 353 2575 817 3079 
Q 1281 3584 2069 3584 
Q 2775 3584 3186 3129 
Q 3597 2675 3597 1894 
z
M 3022 2063 
Q 3016 2534 2758 2815 
Q 2500 3097 2075 3097 
Q 1594 3097 1305 2825 
Q 1016 2553 972 2059 
L 3022 2063 
z
" transform="scale(0.015625)"/>
       <path id="DejaVuSans-6c" d="M 603 4863 
L 1178 4863 
L 1178 0 
L 603 0 
L 603 4863 
z
" transform="scale(0.015625)"/>
       <path id="DejaVuSans-2e" d="M 684 794 
L 1344 794 
L 1344 0 
L 684 0 
L 684 794 
z
" transform="scale(0.015625)"/>
       <path id="DejaVuSans-29" d="M 513 4856 
L 1013 4856 
Q 1481 4119 1714 3412 
Q 1947 2706 1947 2009 
Q 1947 1309 1714 600 
Q 1481 -109 1013 -844 
L 513 -844 
Q 928 -128 1133 580 
Q 1338 1288 1338 2009 
Q 1338 2731 1133 3434 
Q 928 4138 513 4856 
z
" transform="scale(0.015625)"/>
       <path id="DejaVuSans-56" d="M 1831 0 
L 50 4666 
L 709 4666 
L 2188 738 
L 3669 4666 
L 4325 4666 
L 2547 0 
L 1831 0 
z
" transform="scale(0.015625)"/>
       <path id="DejaVuSans-6f" d="M 1959 3097 
Q 1497 3097 1228 2736 
Q 959 2375 959 1747 
Q 959 1119 1226 758 
Q 1494 397 1959 397 
Q 2419 397 2687 759 
Q 2956 1122 2956 1747 
Q 2956 2369 2687 2733 
Q 2419 3097 1959 3097 
z
M 1959 3584 
Q 2709 3584 3137 3096 
Q 3566 2609 3566 1747 
Q 3566 888 3137 398 
Q 2709 -91 1959 -91 
Q 1206 -91 779 398 
Q 353 888 353 1747 
Q 353 2609 779 3096 
Q 1206 3584 1959 3584 
z
" transform="scale(0.015625)"/>
       <path id="DejaVuSans-63" d="M 3122 3366 
L 3122 2828 
Q 2878 2963 2633 3030 
Q 2388 3097 2138 3097 
Q 1578 3097 1268 2742 
Q 959 2388 959 1747 
Q 959 1106 1268 751 
Q 1578 397 2138 397 
Q 2388 397 2633 464 
Q 2878 531 3122 666 
L 3122 134 
Q 2881 22 2623 -34 
Q 2366 -91 2075 -91 
Q 1284 -91 818 406 
Q 353 903 353 1747 
Q 353 2603 823 3093 
Q 1294 3584 2113 3584 
Q 2378 3584 2631 3529 
Q 2884 3475 3122 3366 
z
" transform="scale(0.015625)"/>
       <path id="DejaVuSans-68" d="M 3513 2113 
L 3513 0 
L 2938 0 
L 2938 2094 
Q 2938 2591 2744 2837 
Q 2550 3084 2163 3084 
Q 1697 3084 1428 2787 
Q 1159 2491 1159 1978 
L 1159 0 
L 581 0 
L 581 4863 
L 1159 4863 
L 1159 2956 
Q 1366 3272 1645 3428 
Q 1925 3584 2291 3584 
Q 2894 3584 3203 3211 
Q 3513 2838 3513 2113 
z
" transform="scale(0.015625)"/>
       <path id="DejaVuSans-74" d="M 1172 4494 
L 1172 3500 
L 2356 3500 
L 2356 3053 
L 1172 3053 
L 1172 1153 
Q 1172 725 1289 603 
Q 1406 481 1766 481 
L 2356 481 
L 2356 0 
L 1766 0 
Q 1100 0 847 248 
Q 594 497 594 1153 
L 594 3053 
L 172 3053 
L 172 3500 
L 594 3500 
L 594 4494 
L 1172 4494 
z
" transform="scale(0.015625)"/>
       <path id="DejaVuSans-67" d="M 2906 1791 
Q 2906 2416 2648 2759 
Q 2391 3103 1925 3103 
Q 1463 3103 1205 2759 
Q 947 2416 947 1791 
Q 947 1169 1205 825 
Q 1463 481 1925 481 
Q 2391 481 2648 825 
Q 2906 1169 2906 1791 
z
M 3481 434 
Q 3481 -459 3084 -895 
Q 2688 -1331 1869 -1331 
Q 1566 -1331 1297 -1286 
Q 1028 -1241 775 -1147 
L 775 -588 
Q 1028 -725 1275 -790 
Q 1522 -856 1778 -856 
Q 2344 -856 2625 -561 
Q 2906 -266 2906 331 
L 2906 616 
Q 2728 306 2450 153 
Q 2172 0 1784 0 
Q 1141 0 747 490 
Q 353 981 353 1791 
Q 353 2603 747 3093 
Q 1141 3584 1784 3584 
Q 2172 3584 2450 3431 
Q 2728 3278 2906 2969 
L 2906 3500 
L 3481 3500 
L 3481 434 
z
" transform="scale(0.015625)"/>
       <path id="DejaVuSans-25" d="M 4653 2053 
Q 4381 2053 4226 1822 
Q 4072 1591 4072 1178 
Q 4072 772 4226 539 
Q 4381 306 4653 306 
Q 4919 306 5073 539 
Q 5228 772 5228 1178 
Q 5228 1588 5073 1820 
Q 4919 2053 4653 2053 
z
M 4653 2450 
Q 5147 2450 5437 2106 
Q 5728 1763 5728 1178 
Q 5728 594 5436 251 
Q 5144 -91 4653 -91 
Q 4153 -91 3862 251 
Q 3572 594 3572 1178 
Q 3572 1766 3864 2108 
Q 4156 2450 4653 2450 
z
M 1428 4353 
Q 1159 4353 1004 4120 
Q 850 3888 850 3481 
Q 850 3069 1003 2837 
Q 1156 2606 1428 2606 
Q 1700 2606 1854 2837 
Q 2009 3069 2009 3481 
Q 2009 3884 1853 4118 
Q 1697 4353 1428 4353 
z
M 4250 4750 
L 4750 4750 
L 1831 -91 
L 1331 -91 
L 4250 4750 
z
M 1428 4750 
Q 1922 4750 2215 4408 
Q 2509 4066 2509 3481 
Q 2509 2891 2217 2550 
Q 1925 2209 1428 2209 
Q 931 2209 642 2551 
Q 353 2894 353 3481 
Q 353 4063 643 4406 
Q 934 4750 1428 4750 
z
" transform="scale(0.015625)"/>
      </defs>
      <use xlink:href="#DejaVuSans-28"/>
      <use xlink:href="#DejaVuSans-52" transform="translate(39.013672 0)"/>
      <use xlink:href="#DejaVuSans-65" transform="translate(103.996094 0)"/>
      <use xlink:href="#DejaVuSans-6c" transform="translate(165.519531 0)"/>
      <use xlink:href="#DejaVuSans-2e" transform="translate(193.302734 0)"/>
      <use xlink:href="#DejaVuSans-29" transform="translate(225.089844 0)"/>
      <use xlink:href="#DejaVuSans-20" transform="translate(264.103516 0)"/>
      <use xlink:href="#DejaVuSans-56" transform="translate(295.890625 0)"/>
      <use xlink:href="#DejaVuSans-6f" transform="translate(356.548828 0)"/>
      <use xlink:href="#DejaVuSans-63" transform="translate(417.730469 0)"/>
      <use xlink:href="#DejaVuSans-68" transform="translate(472.710938 0)"/>
      <use xlink:href="#DejaVuSans-74" transform="translate(536.089844 0)"/>
      <use xlink:href="#DejaVuSans-69" transform="translate(575.298828 0)"/>
      <use xlink:href="#DejaVuSans-67" transform="translate(603.082031 0)"/>
      <use xlink:href="#DejaVuSans-68" transform="translate(666.558594 0)"/>
      <use xlink:href="#DejaVuSans-65" transform="translate(729.9375 0)"/>
      <use xlink:href="#DejaVuSans-69" transform="translate(791.460938 0)"/>
      <use xlink:href="#DejaVuSans-64" transform="translate(819.244141 0)"/>
      <use xlink:href="#DejaVuSans-20" transform="translate(882.720703 0)"/>
      <use xlink:href="#DejaVuSans-28" transform="translate(914.507812 0)"/>
      <use xlink:href="#DejaVuSans-25" transform="translate(953.521484 0)"/>
      <use xlink:href="#DejaVuSans-29" transform="translate(1048.541016 0)"/>
     </g>
    </g>
   </g>
   <g id="line2d_14">
    <path d="M 74.780455 124.667118 
L 78.420268 130.88549 
L 82.060082 134.468958 
L 85.699896 136.155296 
L 89.33971 139.211784 
L 92.979524 135.312127 
L 96.619337 128.98836 
L 100.259151 137.209258 
L 103.898965 128.98836 
L 107.538779 142.689857 
L 111.178593 133.625789 
L 114.818406 139.31718 
L 118.45822 136.998466 
L 122.098034 126.669645 
L 125.737848 131.728659 
L 129.377662 126.037268 
L 133.017475 124.983307 
L 136.657289 125.194099 
L 140.297103 115.286862 
L 143.936917 120.135085 
L 147.576731 114.865278 
L 151.216544 120.556669 
L 154.856358 115.919239 
L 158.496172 126.037268 
L 162.135986 129.199152 
L 165.7758 130.674698 
L 169.415613 132.361036 
L 173.055427 129.409944 
L 176.695241 129.831529 
L 180.335055 143.322233 
L 183.974869 128.566775 
L 187.614682 122.032215 
L 191.254496 127.723606 
L 194.89431 119.502708 
L 198.534124 113.600524 
L 202.173938 110.860225 
L 205.813751 114.443693 
L 209.453565 115.07607 
L 213.093379 116.130032 
L 216.733193 102.428534 
L 220.373007 100.320612 
L 224.01282 94.207636 
L 227.652634 94.207636 
L 231.292448 98.634274 
L 234.932262 110.860225 
L 238.572076 116.762408 
L 242.211889 101.585365 
L 245.851703 98.212689 
L 249.491517 95.261597 
L 253.131331 92.099714 
L 256.771145 91.888921 
L 260.410958 90.83496 
L 264.050772 90.83496 
L 267.690586 103.693288 
L 271.3304 106.64438 
L 274.970214 103.271703 
L 278.610027 121.399838 
L 282.249841 123.718553 
L 285.889655 133.414997 
L 289.529469 127.723606 
L 293.169283 127.934398 
L 296.809096 125.615683 
L 300.44891 127.302021 
L 304.088724 120.345877 
L 307.728538 128.777567 
L 311.368352 129.409944 
L 315.008165 130.674698 
L 318.647979 127.723606 
L 322.287793 121.821423 
L 325.927607 131.517867 
L 329.567421 138.684804 
L 333.207234 125.826476 
L 336.847048 132.571828 
L 340.486862 134.890543 
L 344.126676 133.625789 
L 347.76649 123.086176 
L 351.406303 108.54151 
L 355.046117 109.595471 
L 358.685931 119.7135 
L 362.325745 124.772514 
L 365.965559 129.199152 
L 369.605372 129.409944 
L 373.245186 133.520393 
L 376.885 130.674698 
L 380.524814 135.101335 
L 384.164628 127.302021 
L 387.804441 120.345877 
L 391.444255 122.769988 
L 395.084069 122.453799 
L 398.723883 117.605577 
L 402.363697 107.698341 
L 406.00351 123.296968 
L 409.643324 116.973201 
L 413.283138 114.654486 
L 416.922952 124.561722 
L 420.562766 97.158728 
L 424.202579 122.769988 
L 427.842393 116.340824 
L 435.122021 119.7135 
L 438.761835 123.929345 
L 442.401648 124.561722 
L 446.041462 126.458852 
L 449.681276 128.14519 
L 453.32109 128.566775 
L 456.960904 124.772514 
L 460.600717 134.468958 
L 464.240531 138.684804 
L 467.880345 132.78262 
L 471.520159 128.777567 
L 475.159973 122.875384 
L 478.799786 128.566775 
L 482.4396 114.232901 
L 486.079414 124.983307 
L 489.719228 123.086176 
L 493.359042 121.821423 
L 496.998855 122.875384 
L 500.638669 122.453799 
L 504.278483 125.615683 
L 507.918297 113.811317 
L 511.558111 117.183993 
L 515.197924 117.81637 
L 518.837738 131.939451 
L 522.477552 124.772514 
L 526.117366 139.31718 
L 529.75718 134.047374 
L 533.396993 119.7135 
L 537.036807 109.173887 
L 540.676621 103.798684 
L 544.316435 119.7135 
L 547.956249 114.865278 
L 551.596062 108.963095 
L 555.235876 99.055858 
L 558.87569 93.364467 
L 562.515504 92.73209 
L 566.155318 91.045752 
L 569.795131 93.153675 
L 573.434945 82.824854 
L 577.074759 94.418428 
L 580.714573 88.727037 
L 584.354387 85.143569 
L 587.9942 86.829907 
L 591.634014 79.030593 
L 595.273828 57.951367 
L 598.913642 69.966526 
L 602.553456 63.642758 
L 606.193269 77.555047 
L 609.833083 76.079502 
L 613.472897 84.721984 
L 617.112711 85.143569 
L 617.112711 85.143569 
" clip-path="url(#p1be9add548)" style="fill: none; stroke: #1f77b4; stroke-width: 2; stroke-linecap: square"/>
   </g>
   <g id="line2d_15">
    <path d="M 74.780455 150.188039 
L 78.420268 149.013625 
L 82.060082 144.526761 
L 85.699896 149.91702 
L 89.33971 147.88438 
L 92.979524 147.97472 
L 96.619337 140.280802 
L 100.259151 147.146607 
L 103.898965 146.423891 
L 107.538779 145.339817 
L 111.178593 142.509178 
L 114.818406 142.870536 
L 118.45822 137.721182 
L 122.098034 137.901861 
L 125.737848 149.189285 
L 129.377662 158.541435 
L 133.017475 156.264878 
L 136.657289 157.150206 
L 140.297103 141.590726 
L 143.936917 144.797779 
L 147.576731 144.586987 
L 151.216544 146.905702 
L 154.856358 149.768963 
L 158.496172 147.794041 
L 162.135986 149.450266 
L 165.7758 154.318563 
L 169.415613 149.570718 
L 173.055427 143.673554 
L 176.695241 148.230682 
L 180.335055 156.376297 
L 183.974869 151.302226 
L 187.614682 148.486644 
L 191.254496 153.214413 
L 194.89431 150.413887 
L 198.534124 151.663584 
L 202.173938 153.05381 
L 205.813751 149.997322 
L 209.453565 151.894452 
L 213.093379 151.85932 
L 216.733193 144.888119 
L 220.373007 142.117706 
L 224.01282 139.738765 
L 227.652634 137.149031 
L 231.292448 138.240634 
L 234.932262 140.371142 
L 238.572076 141.696122 
L 242.211889 131.758772 
L 245.851703 129.349718 
L 249.491517 128.777567 
L 253.131331 126.458852 
L 256.771145 123.748666 
L 260.410958 124.019685 
L 264.050772 132.496545 
L 267.690586 126.729871 
L 271.3304 126.549192 
L 274.970214 122.830214 
L 278.610027 136.436353 
L 282.249841 136.295825 
L 285.889655 142.338536 
L 289.529469 143.884346 
L 293.169283 143.457743 
L 296.809096 139.949557 
L 300.44891 135.131448 
L 304.088724 130.644584 
L 307.728538 139.563105 
L 311.368352 136.612013 
L 315.008165 140.476538 
L 318.647979 142.303404 
L 322.287793 137.480276 
L 325.927607 141.093858 
L 329.567421 142.780196 
L 333.207234 141.982197 
L 336.847048 154.213167 
L 340.486862 156.250826 
L 344.126676 155.196864 
L 347.76649 150.037473 
L 351.406303 151.513019 
L 355.046117 154.674902 
L 358.685931 148.742606 
L 362.325745 155.728864 
L 365.965559 152.868112 
L 369.605372 151.543132 
L 373.245186 157.671164 
L 376.885 151.513019 
L 380.524814 156.270901 
L 384.164628 155.713807 
L 387.804441 152.717546 
L 391.444255 154.027469 
L 395.084069 153.80162 
L 398.723883 148.622153 
L 402.363697 144.496647 
L 406.00351 148.170455 
L 409.643324 148.820398 
L 413.283138 144.225629 
L 416.922952 146.002306 
L 420.562766 134.830317 
L 424.202579 142.238159 
L 427.842393 150.418906 
L 431.482207 150.208114 
L 435.122021 151.543132 
L 438.761835 153.088942 
L 442.401648 156.953466 
L 446.041462 148.893172 
L 449.681276 152.687433 
L 453.32109 151.242 
L 456.960904 150.157925 
L 460.600717 153.289696 
L 464.240531 149.555662 
L 467.880345 148.260795 
L 475.159973 139.768878 
L 478.799786 134.077487 
L 482.4396 132.21047 
L 486.079414 132.78262 
L 489.719228 129.394887 
L 493.359042 129.440057 
L 496.998855 131.472697 
L 500.638669 132.029791 
L 504.278483 134.15277 
L 507.918297 137.24439 
L 511.558111 138.17288 
L 515.197924 138.474011 
L 518.837738 146.830419 
L 522.477552 149.630945 
L 526.117366 150.609623 
L 529.75718 148.832945 
L 533.396993 142.208046 
L 537.036807 147.658531 
L 544.316435 149.134077 
L 547.956249 146.755136 
L 551.596062 132.25564 
L 555.235876 140.612047 
L 558.87569 140.717443 
L 562.515504 142.027367 
L 566.155318 133.815502 
L 569.795131 137.546525 
L 573.434945 147.977229 
L 577.074759 134.890543 
L 580.714573 146.3998 
L 584.354387 129.023492 
L 587.9942 129.058624 
L 591.634014 126.669645 
L 595.273828 120.890423 
L 598.913642 124.501496 
L 602.553456 122.084913 
L 606.193269 123.700987 
L 609.833083 120.802593 
L 613.472897 119.05101 
L 617.112711 121.264329 
L 620.752525 78.187424 
L 624.392338 80.084555 
L 628.032152 96.104767 
L 631.671966 88.305453 
L 635.31178 73.549994 
L 638.951594 53.735522 
L 646.231221 52.470768 
L 649.871035 39.401648 
L 653.510849 41.50957 
L 657.150663 53.524729 
L 660.790476 46.147 
L 664.43029 52.892353 
L 668.070104 64.907512 
L 671.709918 63.642758 
L 675.349732 59.532309 
L 678.989545 87.673076 
L 678.989545 87.673076 
" clip-path="url(#p1be9add548)" style="fill: none; stroke-dasharray: 5.55,2.4; stroke-dashoffset: 0; stroke: #808080; stroke-width: 1.5"/>
   </g>
   <g id="patch_3">
    <path d="M 44.57 246.04 
L 44.57 26.88 
" style="fill: none; stroke: #000000; stroke-width: 0.8; stroke-linejoin: miter; stroke-linecap: square"/>
   </g>
   <g id="patch_4">
    <path d="M 709.2 246.04 
L 709.2 26.88 
" style="fill: none; stroke: #000000; stroke-width: 0.8; stroke-linejoin: miter; stroke-linecap: square"/>
   </g>
   <g id="patch_5">
    <path d="M 44.57 246.04 
L 709.2 246.04 
" style="fill: none; stroke: #000000; stroke-width: 0.8; stroke-linejoin: miter; stroke-linecap: square"/>
   </g>
   <g id="patch_6">
    <path d="M 44.57 26.88 
L 709.2 26.88 
" style="fill: none; stroke: #000000; stroke-width: 0.8; stroke-linejoin: miter; stroke-linecap: square"/>
   </g>
   <g id="text_16">
    <!-- Luchtvochtigheid - v001/c00001/d031 -->
    <g transform="translate(262.595312 20.88) scale(0.12 -0.12)">
     <defs>
      <path id="DejaVuSans-4c" d="M 628 4666 
L 1259 4666 
L 1259 531 
L 3531 531 
L 3531 0 
L 628 0 
L 628 4666 
z
" transform="scale(0.015625)"/>
      <path id="DejaVuSans-75" d="M 544 1381 
L 544 3500 
L 1119 3500 
L 1119 1403 
Q 1119 906 1312 657 
Q 1506 409 1894 409 
Q 2359 409 2629 706 
Q 2900 1003 2900 1516 
L 2900 3500 
L 3475 3500 
L 3475 0 
L 2900 0 
L 2900 538 
Q 2691 219 2414 64 
Q 2138 -91 1772 -91 
Q 1169 -91 856 284 
Q 544 659 544 1381 
z
M 1991 3584 
L 1991 3584 
z
" transform="scale(0.015625)"/>
      <path id="DejaVuSans-76" d="M 191 3500 
L 800 3500 
L 1894 563 
L 2988 3500 
L 3597 3500 
L 2284 0 
L 1503 0 
L 191 3500 
z
" transform="scale(0.015625)"/>
      <path id="DejaVuSans-2f" d="M 1625 4666 
L 2156 4666 
L 531 -594 
L 0 -594 
L 1625 4666 
z
" transform="scale(0.015625)"/>
      <path id="DejaVuSans-33" d="M 2597 2516 
Q 3050 2419 3304 2112 
Q 3559 1806 3559 1356 
Q 3559 666 3084 287 
Q 2609 -91 1734 -91 
Q 1441 -91 1130 -33 
Q 819 25 488 141 
L 488 750 
Q 750 597 1062 519 
Q 1375 441 1716 441 
Q 2309 441 2620 675 
Q 2931 909 2931 1356 
Q 2931 1769 2642 2001 
Q 2353 2234 1838 2234 
L 1294 2234 
L 1294 2753 
L 1863 2753 
Q 2328 2753 2575 2939 
Q 2822 3125 2822 3475 
Q 2822 3834 2567 4026 
Q 2313 4219 1838 4219 
Q 1578 4219 1281 4162 
Q 984 4106 628 3988 
L 628 4550 
Q 988 4650 1302 4700 
Q 1616 4750 1894 4750 
Q 2613 4750 3031 4423 
Q 3450 4097 3450 3541 
Q 3450 3153 3228 2886 
Q 3006 2619 2597 2516 
z
" transform="scale(0.015625)"/>
     </defs>
     <use xlink:href="#DejaVuSans-4c"/>
     <use xlink:href="#DejaVuSans-75" transform="translate(53.962891 0)"/>
     <use xlink:href="#DejaVuSans-63" transform="translate(117.341797 0)"/>
     <use xlink:href="#DejaVuSans-68" transform="translate(172.322266 0)"/>
     <use xlink:href="#DejaVuSans-74" transform="translate(235.701172 0)"/>
     <use xlink:href="#DejaVuSans-76" transform="translate(274.910156 0)"/>
     <use xlink:href="#DejaVuSans-6f" transform="translate(334.089844 0)"/>
     <use xlink:href="#DejaVuSans-63" transform="translate(395.271484 0)"/>
     <use xlink:href="#DejaVuSans-68" transform="translate(450.251953 0)"/>
     <use xlink:href="#DejaVuSans-74" transform="translate(513.630859 0)"/>
     <use xlink:href="#DejaVuSans-69" transform="translate(552.839844 0)"/>
     <use xlink:href="#DejaVuSans-67" transform="translate(580.623047 0)"/>
     <use xlink:href="#DejaVuSans-68" transform="translate(644.099609 0)"/>
     <use xlink:href="#DejaVuSans-65" transform="translate(707.478516 0)"/>
     <use xlink:href="#DejaVuSans-69" transform="translate(769.001953 0)"/>
     <use xlink:href="#DejaVuSans-64" transform="translate(796.785156 0)"/>
     <use xlink:href="#DejaVuSans-20" transform="translate(860.261719 0)"/>
     <use xlink:href="#DejaVuSans-2d" transform="translate(892.048828 0)"/>
     <use xlink:href="#DejaVuSans-20" transform="translate(928.132812 0)"/>
     <use xlink:href="#DejaVuSans-76" transform="translate(959.919922 0)"/>
     <use xlink:href="#DejaVuSans-30" transform="translate(1019.099609 0)"/>
     <use xlink:href="#DejaVuSans-30" transform="translate(1082.722656 0)"/>
     <use xlink:href="#DejaVuSans-31" transform="translate(1146.345703 0)"/>
     <use xlink:href="#DejaVuSans-2f" transform="translate(1209.96875 0)"/>
     <use xlink:href="#DejaVuSans-63" transform="translate(1243.660156 0)"/>
     <use xlink:href="#DejaVuSans-30" transform="translate(1298.640625 0)"/>
     <use xlink:href="#DejaVuSans-30" transform="translate(1362.263672 0)"/>
     <use xlink:href="#DejaVuSans-30" transform="translate(1425.886719 0)"/>
     <use xlink:href="#DejaVuSans-30" transform="translate(1489.509766 0)"/>
     <use xlink:href="#DejaVuSans-31" transform="translate(1553.132812 0)"/>
     <use xlink:href="#DejaVuSans-2f" transform="translate(1616.755859 0)"/>
     <use xlink:href="#DejaVuSans-64" transform="translate(1650.447266 0)"/>
     <use xlink:href="#DejaVuSans-30" transform="translate(1713.923828 0)"/>
     <use xlink:href="#DejaVuSans-33" transform="translate(1777.546875 0)"/>
     <use xlink:href="#DejaVuSans-31" transform="translate(1841.169922 0)"/>
    </g>
   </g>
   <g id="legend_1">
    <g id="patch_7">
     <path d="M 51.57 78.914375 
L 202.51375 78.914375 
Q 204.51375 78.914375 204.51375 76.914375 
L 204.51375 33.88 
Q 204.51375 31.88 202.51375 31.88 
L 51.57 31.88 
Q 49.57 31.88 49.57 33.88 
L 49.57 76.914375 
Q 49.57 78.914375 51.57 78.914375 
z
" style="fill: #ffffff; opacity: 0.8; stroke: #cccccc; stroke-linejoin: miter"/>
    </g>
    <g id="line2d_16">
     <path d="M 53.57 39.978438 
L 63.57 39.978438 
L 73.57 39.978438 
" style="fill: none; stroke: #1f77b4; stroke-width: 2; stroke-linecap: square"/>
    </g>
    <g id="text_17">
     <!-- Hive -->
     <g transform="translate(81.57 43.478438) scale(0.1 -0.1)">
      <defs>
       <path id="DejaVuSans-48" d="M 628 4666 
L 1259 4666 
L 1259 2753 
L 3553 2753 
L 3553 4666 
L 4184 4666 
L 4184 0 
L 3553 0 
L 3553 2222 
L 1259 2222 
L 1259 0 
L 628 0 
L 628 4666 
z
" transform="scale(0.015625)"/>
      </defs>
      <use xlink:href="#DejaVuSans-48"/>
      <use xlink:href="#DejaVuSans-69" transform="translate(75.195312 0)"/>
      <use xlink:href="#DejaVuSans-76" transform="translate(102.978516 0)"/>
      <use xlink:href="#DejaVuSans-65" transform="translate(162.158203 0)"/>
     </g>
    </g>
    <g id="line2d_17">
     <path d="M 53.57 54.656563 
L 63.57 54.656563 
L 73.57 54.656563 
" style="fill: none; stroke-dasharray: 5.55,2.4; stroke-dashoffset: 0; stroke: #808080; stroke-width: 1.5"/>
    </g>
    <g id="text_18">
     <!-- Gemiddelde (alle hives) -->
     <g transform="translate(81.57 58.156563) scale(0.1 -0.1)">
      <defs>
       <path id="DejaVuSans-47" d="M 3809 666 
L 3809 1919 
L 2778 1919 
L 2778 2438 
L 4434 2438 
L 4434 434 
Q 4069 175 3628 42 
Q 3188 -91 2688 -91 
Q 1594 -91 976 548 
Q 359 1188 359 2328 
Q 359 3472 976 4111 
Q 1594 4750 2688 4750 
Q 3144 4750 3555 4637 
Q 3966 4525 4313 4306 
L 4313 3634 
Q 3963 3931 3569 4081 
Q 3175 4231 2741 4231 
Q 1884 4231 1454 3753 
Q 1025 3275 1025 2328 
Q 1025 1384 1454 906 
Q 1884 428 2741 428 
Q 3075 428 3337 486 
Q 3600 544 3809 666 
z
" transform="scale(0.015625)"/>
       <path id="DejaVuSans-6d" d="M 3328 2828 
Q 3544 3216 3844 3400 
Q 4144 3584 4550 3584 
Q 5097 3584 5394 3201 
Q 5691 2819 5691 2113 
L 5691 0 
L 5113 0 
L 5113 2094 
Q 5113 2597 4934 2840 
Q 4756 3084 4391 3084 
Q 3944 3084 3684 2787 
Q 3425 2491 3425 1978 
L 3425 0 
L 2847 0 
L 2847 2094 
Q 2847 2600 2669 2842 
Q 2491 3084 2119 3084 
Q 1678 3084 1418 2786 
Q 1159 2488 1159 1978 
L 1159 0 
L 581 0 
L 581 3500 
L 1159 3500 
L 1159 2956 
Q 1356 3278 1631 3431 
Q 1906 3584 2284 3584 
Q 2666 3584 2933 3390 
Q 3200 3197 3328 2828 
z
" transform="scale(0.015625)"/>
       <path id="DejaVuSans-61" d="M 2194 1759 
Q 1497 1759 1228 1600 
Q 959 1441 959 1056 
Q 959 750 1161 570 
Q 1363 391 1709 391 
Q 2188 391 2477 730 
Q 2766 1069 2766 1631 
L 2766 1759 
L 2194 1759 
z
M 3341 1997 
L 3341 0 
L 2766 0 
L 2766 531 
Q 2569 213 2275 61 
Q 1981 -91 1556 -91 
Q 1019 -91 701 211 
Q 384 513 384 1019 
Q 384 1609 779 1909 
Q 1175 2209 1959 2209 
L 2766 2209 
L 2766 2266 
Q 2766 2663 2505 2880 
Q 2244 3097 1772 3097 
Q 1472 3097 1187 3025 
Q 903 2953 641 2809 
L 641 3341 
Q 956 3463 1253 3523 
Q 1550 3584 1831 3584 
Q 2591 3584 2966 3190 
Q 3341 2797 3341 1997 
z
" transform="scale(0.015625)"/>
       <path id="DejaVuSans-73" d="M 2834 3397 
L 2834 2853 
Q 2591 2978 2328 3040 
Q 2066 3103 1784 3103 
Q 1356 3103 1142 2972 
Q 928 2841 928 2578 
Q 928 2378 1081 2264 
Q 1234 2150 1697 2047 
L 1894 2003 
Q 2506 1872 2764 1633 
Q 3022 1394 3022 966 
Q 3022 478 2636 193 
Q 2250 -91 1575 -91 
Q 1294 -91 989 -36 
Q 684 19 347 128 
L 347 722 
Q 666 556 975 473 
Q 1284 391 1588 391 
Q 1994 391 2212 530 
Q 2431 669 2431 922 
Q 2431 1156 2273 1281 
Q 2116 1406 1581 1522 
L 1381 1569 
Q 847 1681 609 1914 
Q 372 2147 372 2553 
Q 372 3047 722 3315 
Q 1072 3584 1716 3584 
Q 2034 3584 2315 3537 
Q 2597 3491 2834 3397 
z
" transform="scale(0.015625)"/>
      </defs>
      <use xlink:href="#DejaVuSans-47"/>
      <use xlink:href="#DejaVuSans-65" transform="translate(77.490234 0)"/>
      <use xlink:href="#DejaVuSans-6d" transform="translate(139.013672 0)"/>
      <use xlink:href="#DejaVuSans-69" transform="translate(236.425781 0)"/>
      <use xlink:href="#DejaVuSans-64" transform="translate(264.208984 0)"/>
      <use xlink:href="#DejaVuSans-64" transform="translate(327.685547 0)"/>
      <use xlink:href="#DejaVuSans-65" transform="translate(391.162109 0)"/>
      <use xlink:href="#DejaVuSans-6c" transform="translate(452.685547 0)"/>
      <use xlink:href="#DejaVuSans-64" transform="translate(480.46875 0)"/>
      <use xlink:href="#DejaVuSans-65" transform="translate(543.945312 0)"/>
      <use xlink:href="#DejaVuSans-20" transform="translate(605.46875 0)"/>
      <use xlink:href="#DejaVuSans-28" transform="translate(637.255859 0)"/>
      <use xlink:href="#DejaVuSans-61" transform="translate(676.269531 0)"/>
      <use xlink:href="#DejaVuSans-6c" transform="translate(737.548828 0)"/>
      <use xlink:href="#DejaVuSans-6c" transform="translate(765.332031 0)"/>
      <use xlink:href="#DejaVuSans-65" transform="translate(793.115234 0)"/>
      <use xlink:href="#DejaVuSans-20" transform="translate(854.638672 0)"/>
      <use xlink:href="#DejaVuSans-68" transform="translate(886.425781 0)"/>
      <use xlink:href="#DejaVuSans-69" transform="translate(949.804688 0)"/>
      <use xlink:href="#DejaVuSans-76" transform="translate(977.587891 0)"/>
      <use xlink:href="#DejaVuSans-65" transform="translate(1036.767578 0)"/>
      <use xlink:href="#DejaVuSans-73" transform="translate(1098.291016 0)"/>
      <use xlink:href="#DejaVuSans-29" transform="translate(1150.390625 0)"/>
     </g>
    </g>
    <g id="patch_8">
     <path d="M 53.57 72.834688 
L 73.57 72.834688 
L 73.57 65.834688 
L 53.57 65.834688 
z
" style="fill: #808080; fill-opacity: 0.2; stroke: #808080; stroke-opacity: 0.2; stroke-linejoin: miter"/>
    </g>
    <g id="text_19">
     <!-- ±2 Std Dev -->
     <g transform="translate(81.57 72.834688) scale(0.1 -0.1)">
      <defs>
       <path id="DejaVuSans-b1" d="M 2944 4013 
L 2944 2803 
L 4684 2803 
L 4684 2272 
L 2944 2272 
L 2944 1063 
L 2419 1063 
L 2419 2272 
L 678 2272 
L 678 2803 
L 2419 2803 
L 2419 4013 
L 2944 4013 
z
M 678 531 
L 4684 531 
L 4684 0 
L 678 0 
L 678 531 
z
" transform="scale(0.015625)"/>
       <path id="DejaVuSans-53" d="M 3425 4513 
L 3425 3897 
Q 3066 4069 2747 4153 
Q 2428 4238 2131 4238 
Q 1616 4238 1336 4038 
Q 1056 3838 1056 3469 
Q 1056 3159 1242 3001 
Q 1428 2844 1947 2747 
L 2328 2669 
Q 3034 2534 3370 2195 
Q 3706 1856 3706 1288 
Q 3706 609 3251 259 
Q 2797 -91 1919 -91 
Q 1588 -91 1214 -16 
Q 841 59 441 206 
L 441 856 
Q 825 641 1194 531 
Q 1563 422 1919 422 
Q 2459 422 2753 634 
Q 3047 847 3047 1241 
Q 3047 1584 2836 1778 
Q 2625 1972 2144 2069 
L 1759 2144 
Q 1053 2284 737 2584 
Q 422 2884 422 3419 
Q 422 4038 858 4394 
Q 1294 4750 2059 4750 
Q 2388 4750 2728 4690 
Q 3069 4631 3425 4513 
z
" transform="scale(0.015625)"/>
       <path id="DejaVuSans-44" d="M 1259 4147 
L 1259 519 
L 2022 519 
Q 2988 519 3436 956 
Q 3884 1394 3884 2338 
Q 3884 3275 3436 3711 
Q 2988 4147 2022 4147 
L 1259 4147 
z
M 628 4666 
L 1925 4666 
Q 3281 4666 3915 4102 
Q 4550 3538 4550 2338 
Q 4550 1131 3912 565 
Q 3275 0 1925 0 
L 628 0 
L 628 4666 
z
" transform="scale(0.015625)"/>
      </defs>
      <use xlink:href="#DejaVuSans-b1"/>
      <use xlink:href="#DejaVuSans-32" transform="translate(83.789062 0)"/>
      <use xlink:href="#DejaVuSans-20" transform="translate(147.412109 0)"/>
      <use xlink:href="#DejaVuSans-53" transform="translate(179.199219 0)"/>
      <use xlink:href="#DejaVuSans-74" transform="translate(242.675781 0)"/>
      <use xlink:href="#DejaVuSans-64" transform="translate(281.884766 0)"/>
      <use xlink:href="#DejaVuSans-20" transform="translate(345.361328 0)"/>
      <use xlink:href="#DejaVuSans-44" transform="translate(377.148438 0)"/>
      <use xlink:href="#DejaVuSans-65" transform="translate(454.150391 0)"/>
      <use xlink:href="#DejaVuSans-76" transform="translate(515.673828 0)"/>
     </g>
    </g>
   </g>
  </g>
 </g>
 <defs>
  <clipPath id="p1be9add548">
   <rect x="44.57" y="26.88" width="664.63" height="219.16"/>
  </clipPath>
 </defs>
</svg>
