<?xml version="1.0" encoding="utf-8" standalone="no"?>
<!DOCTYPE svg PUBLIC "-//W3C//DTD SVG 1.1//EN"
  "http://www.w3.org/Graphics/SVG/1.1/DTD/svg11.dtd">
<svg xmlns:xlink="http://www.w3.org/1999/xlink" width="720pt" height="288pt" viewBox="0 0 720 288" xmlns="http://www.w3.org/2000/svg" version="1.1">
 <metadata>
  <rdf:RDF xmlns:dc="http://purl.org/dc/elements/1.1/" xmlns:cc="http://creativecommons.org/ns#" xmlns:rdf="http://www.w3.org/1999/02/22-rdf-syntax-ns#">
   <cc:Work>
    <dc:type rdf:resource="http://purl.org/dc/dcmitype/StillImage"/>
    <dc:date>2025-06-15T19:12:41.306606</dc:date>
    <dc:format>image/svg+xml</dc:format>
    <dc:creator>
     <cc:Agent>
      <dc:title>Matplotlib v3.10.3, https://matplotlib.org/</dc:title>
     </cc:Agent>
    </dc:creator>
   </cc:Work>
  </rdf:RDF>
 </metadata>
 <defs>
  <style type="text/css">*{stroke-linejoin: round; stroke-linecap: butt}</style>
 </defs>
 <g id="figure_1">
  <g id="patch_1">
   <path d="M 0 288 
L 720 288 
L 720 0 
L 0 0 
z
" style="fill: #ffffff"/>
  </g>
  <g id="axes_1">
   <g id="patch_2">
    <path d="M 50.87 246.04 
L 709.2 246.04 
L 709.2 26.88 
L 50.87 26.88 
z
" style="fill: #ffffff"/>
   </g>
   <g id="FillBetweenPolyCollection_1">
    <defs>
     <path id="m138b6f6661" d="M 80.794091 -178.583472 
L 80.794091 -69.84075 
L 84.335403 -55.8753 
L 87.876716 -54.475392 
L 91.418029 -59.243364 
L 94.959341 -69.516435 
L 98.500654 -74.254975 
L 102.041966 -78.515457 
L 105.583279 -85.909037 
L 109.124591 -88.320273 
L 112.665904 -88.873087 
L 116.207216 -89.559684 
L 119.748529 -82.444322 
L 123.289841 -106.273265 
L 126.831154 -113.215226 
L 130.372466 -99.124027 
L 133.913779 -107.105513 
L 137.455091 -112.312131 
L 140.996404 -110.561748 
L 144.537717 -115.475174 
L 148.079029 -118.977796 
L 151.620342 -113.821681 
L 155.161654 -121.720269 
L 158.702967 -126.554007 
L 162.244279 -129.148675 
L 165.785592 -132.324508 
L 169.326904 -135.490374 
L 172.868217 -140.084937 
L 176.409529 -142.997508 
L 179.950842 -141.066893 
L 183.492154 -144.999379 
L 187.033467 -145.701738 
L 190.574779 -140.709629 
L 194.116092 -138.177657 
L 197.657405 -135.274434 
L 201.198717 -131.200529 
L 204.74003 -123.067628 
L 208.281342 -115.339893 
L 211.822655 -109.626302 
L 215.363967 -107.935224 
L 218.90528 -121.173692 
L 222.446592 -105.516668 
L 225.987905 -95.358915 
L 229.529217 -92.814568 
L 233.07053 -84.131748 
L 236.611842 -74.662557 
L 240.153155 -71.453574 
L 243.694467 -78.183797 
L 247.23578 -93.740312 
L 250.777093 -95.651385 
L 254.318405 -78.796978 
L 257.859718 -67.22587 
L 261.40103 -67.215099 
L 264.942343 -76.244518 
L 268.483655 -80.353048 
L 272.024968 -86.330075 
L 275.56628 -88.897298 
L 279.107593 -77.877391 
L 282.648905 -75.99812 
L 286.190218 -77.932341 
L 289.73153 -78.633668 
L 293.272843 -80.623429 
L 296.814155 -86.880418 
L 300.355468 -96.342067 
L 303.896781 -100.523768 
L 307.438093 -88.693988 
L 310.979406 -101.128378 
L 314.520718 -98.012754 
L 318.062031 -101.729848 
L 321.603343 -109.368552 
L 325.144656 -111.788083 
L 328.685968 -112.877905 
L 332.227281 -113.34104 
L 335.768593 -118.472606 
L 339.309906 -144.611174 
L 342.851218 -126.707129 
L 346.392531 -127.980496 
L 349.933843 -133.046554 
L 353.475156 -138.079927 
L 357.016469 -159.552366 
L 360.557781 -126.008054 
L 364.099094 -130.913126 
L 367.640406 -114.893577 
L 371.181719 -118.981877 
L 374.723031 -108.102039 
L 378.264344 -114.018175 
L 381.805656 -112.404601 
L 385.346969 -109.862597 
L 388.888281 -105.680502 
L 392.429594 -116.329062 
L 395.970906 -107.119319 
L 399.512219 -102.625508 
L 403.053531 -98.594855 
L 406.594844 -88.763029 
L 410.136157 -95.864401 
L 413.677469 -107.599241 
L 417.218782 -124.158564 
L 420.760094 -126.60296 
L 424.301407 -124.991225 
L 427.842719 -134.713483 
L 431.384032 -130.34811 
L 434.925344 -122.554525 
L 438.466657 -118.636491 
L 442.007969 -105.068455 
L 445.549282 -113.917217 
L 449.090594 -121.583427 
L 452.631907 -121.286175 
L 456.173219 -115.970749 
L 459.714532 -119.137767 
L 463.255845 -109.941871 
L 466.797157 -110.057088 
L 470.33847 -119.211046 
L 473.879782 -125.703372 
L 477.421095 -132.389792 
L 480.962407 -131.8861 
L 484.50372 -130.560742 
L 488.045032 -134.825406 
L 491.586345 -132.083516 
L 495.127657 -137.942516 
L 498.66897 -142.840699 
L 502.210282 -144.858156 
L 505.751595 -144.74149 
L 509.292907 -143.630001 
L 512.83422 -143.042087 
L 516.375533 -143.777398 
L 519.916845 -146.219836 
L 523.458158 -146.926175 
L 526.99947 -151.106286 
L 530.540783 -151.687349 
L 534.082095 -154.215568 
L 537.623408 -154.494194 
L 541.16472 -156.017024 
L 544.706033 -152.624071 
L 548.247345 -151.15736 
L 551.788658 -149.151817 
L 555.32997 -144.455798 
L 558.871283 -139.221428 
L 562.412595 -139.412481 
L 565.953908 -135.386184 
L 569.495221 -131.117078 
L 573.036533 -123.013625 
L 576.577846 -92.219075 
L 580.119158 -84.096652 
L 583.660471 -89.334057 
L 587.201783 -94.932822 
L 590.743096 -108.679817 
L 594.284408 -107.354414 
L 597.825721 -65.40188 
L 601.367033 -51.921818 
L 604.908346 -68.84333 
L 608.449658 -73.995507 
L 611.990971 -95.102291 
L 615.532283 -105.874758 
L 619.073596 -130.158956 
L 622.614909 -111.727527 
L 626.156221 -96.841773 
L 629.697534 -99.394993 
L 633.238846 -78.909287 
L 636.780159 -95.617072 
L 640.321471 -63.157345 
L 643.862784 -80.022055 
L 643.862784 -230.314221 
L 643.862784 -230.314221 
L 640.321471 -231.554655 
L 636.780159 -201.893991 
L 633.238846 -206.189539 
L 629.697534 -189.374734 
L 626.156221 -189.7713 
L 622.614909 -177.271632 
L 619.073596 -150.075925 
L 615.532283 -165.091096 
L 611.990971 -173.890453 
L 608.449658 -178.569951 
L 604.908346 -186.934167 
L 601.367033 -197.798691 
L 597.825721 -200.745915 
L 594.284408 -173.545818 
L 590.743096 -178.713323 
L 587.201783 -188.192895 
L 583.660471 -193.952261 
L 580.119158 -196.470904 
L 576.577846 -195.782057 
L 573.036533 -181.67864 
L 569.495221 -184.668193 
L 565.953908 -188.796275 
L 562.412595 -190.035428 
L 558.871283 -194.161229 
L 555.32997 -193.939935 
L 551.788658 -193.832542 
L 548.247345 -197.413653 
L 544.706033 -198.126541 
L 541.16472 -198.324188 
L 537.623408 -199.525815 
L 534.082095 -197.498655 
L 530.540783 -196.711591 
L 526.99947 -195.044227 
L 523.458158 -196.287616 
L 519.916845 -195.158505 
L 516.375533 -194.526562 
L 512.83422 -194.137659 
L 509.292907 -189.087305 
L 505.751595 -189.145916 
L 502.210282 -185.828683 
L 498.66897 -186.148347 
L 495.127657 -190.404122 
L 491.586345 -192.144829 
L 488.045032 -189.207923 
L 484.50372 -183.33172 
L 480.962407 -182.396396 
L 477.421095 -178.955982 
L 473.879782 -183.875781 
L 470.33847 -189.289779 
L 466.797157 -192.735485 
L 463.255845 -197.629758 
L 459.714532 -182.457174 
L 456.173219 -185.234159 
L 452.631907 -187.076991 
L 449.090594 -186.183218 
L 445.549282 -186.828828 
L 442.007969 -189.872977 
L 438.466657 -191.401525 
L 434.925344 -189.663089 
L 431.384032 -181.043551 
L 427.842719 -177.527073 
L 424.301407 -184.966489 
L 420.760094 -191.522511 
L 417.218782 -193.771891 
L 413.677469 -208.369575 
L 410.136157 -218.23455 
L 406.594844 -221.320873 
L 403.053531 -219.932121 
L 399.512219 -215.041101 
L 395.970906 -217.086084 
L 392.429594 -219.038176 
L 388.888281 -235.766667 
L 385.346969 -226.927116 
L 381.805656 -231.6122 
L 378.264344 -233.038591 
L 374.723031 -251.158182 
L 371.181719 -240.120036 
L 367.640406 -245.110002 
L 364.099094 -241.209017 
L 360.557781 -242.282585 
L 357.016469 -232.938694 
L 353.475156 -237.391914 
L 349.933843 -240.521007 
L 346.392531 -231.293491 
L 342.851218 -229.51542 
L 339.309906 -221.587052 
L 335.768593 -226.59958 
L 332.227281 -227.693153 
L 328.685968 -215.181945 
L 325.144656 -210.788357 
L 321.603343 -216.041365 
L 318.062031 -223.358865 
L 314.520718 -228.727865 
L 310.979406 -228.422775 
L 307.438093 -234.967662 
L 303.896781 -222.580364 
L 300.355468 -218.523184 
L 296.814155 -209.180639 
L 293.272843 -215.052183 
L 289.73153 -210.365491 
L 286.190218 -204.619797 
L 282.648905 -199.028668 
L 279.107593 -187.903313 
L 275.56628 -169.266285 
L 272.024968 -164.285217 
L 268.483655 -168.220304 
L 264.942343 -167.556662 
L 261.40103 -165.366887 
L 257.859718 -167.145681 
L 254.318405 -152.757156 
L 250.777093 -147.011815 
L 247.23578 -163.413773 
L 243.694467 -171.123736 
L 240.153155 -182.10991 
L 236.611842 -185.064437 
L 233.07053 -181.996381 
L 229.529217 -185.525865 
L 225.987905 -187.288272 
L 222.446592 -189.421486 
L 218.90528 -190.362183 
L 215.363967 -200.896638 
L 211.822655 -205.292046 
L 208.281342 -208.486948 
L 204.74003 -212.892855 
L 201.198717 -217.945702 
L 197.657405 -223.330924 
L 194.116092 -225.580075 
L 190.574779 -226.794389 
L 187.033467 -228.537729 
L 183.492154 -229.181091 
L 179.950842 -234.794982 
L 176.409529 -228.508448 
L 172.868217 -229.592124 
L 169.326904 -230.450233 
L 165.785592 -230.32212 
L 162.244279 -229.063373 
L 158.702967 -224.263795 
L 155.161654 -222.381749 
L 151.620342 -224.000473 
L 148.079029 -215.714259 
L 144.537717 -211.675143 
L 140.996404 -209.184492 
L 137.455091 -204.385949 
L 133.913779 -200.585747 
L 130.372466 -202.860947 
L 126.831154 -197.410134 
L 123.289841 -194.151576 
L 119.748529 -187.400596 
L 116.207216 -176.765101 
L 112.665904 -172.417318 
L 109.124591 -163.845319 
L 105.583279 -163.18873 
L 102.041966 -165.842913 
L 98.500654 -169.710084 
L 94.959341 -171.479127 
L 91.418029 -175.282234 
L 87.876716 -178.417965 
L 84.335403 -178.207823 
L 80.794091 -178.583472 
z
" style="stroke: #808080; stroke-opacity: 0.2"/>
    </defs>
    <g clip-path="url(#pfd0f404b85)">
     <use xlink:href="#m138b6f6661" x="0" y="288" style="fill: #808080; fill-opacity: 0.2; stroke: #808080; stroke-opacity: 0.2"/>
    </g>
   </g>
   <g id="matplotlib.axis_1">
    <g id="xtick_1">
     <g id="line2d_1">
      <defs>
       <path id="me184840217" d="M 0 0 
L 0 3.5 
" style="stroke: #000000; stroke-width: 0.8"/>
      </defs>
      <g>
       <use xlink:href="#me184840217" x="116.207216" y="246.04" style="stroke: #000000; stroke-width: 0.8"/>
      </g>
     </g>
     <g id="text_1">
      <!-- 06-13 00 -->
      <g transform="translate(93.726747 260.638438) scale(0.1 -0.1)">
       <defs>
        <path id="DejaVuSans-30" d="M 2034 4250 
Q 1547 4250 1301 3770 
Q 1056 3291 1056 2328 
Q 1056 1369 1301 889 
Q 1547 409 2034 409 
Q 2525 409 2770 889 
Q 3016 1369 3016 2328 
Q 3016 3291 2770 3770 
Q 2525 4250 2034 4250 
z
M 2034 4750 
Q 2819 4750 3233 4129 
Q 3647 3509 3647 2328 
Q 3647 1150 3233 529 
Q 2819 -91 2034 -91 
Q 1250 -91 836 529 
Q 422 1150 422 2328 
Q 422 3509 836 4129 
Q 1250 4750 2034 4750 
z
" transform="scale(0.015625)"/>
        <path id="DejaVuSans-36" d="M 2113 2584 
Q 1688 2584 1439 2293 
Q 1191 2003 1191 1497 
Q 1191 994 1439 701 
Q 1688 409 2113 409 
Q 2538 409 2786 701 
Q 3034 994 3034 1497 
Q 3034 2003 2786 2293 
Q 2538 2584 2113 2584 
z
M 3366 4563 
L 3366 3988 
Q 3128 4100 2886 4159 
Q 2644 4219 2406 4219 
Q 1781 4219 1451 3797 
Q 1122 3375 1075 2522 
Q 1259 2794 1537 2939 
Q 1816 3084 2150 3084 
Q 2853 3084 3261 2657 
Q 3669 2231 3669 1497 
Q 3669 778 3244 343 
Q 2819 -91 2113 -91 
Q 1303 -91 875 529 
Q 447 1150 447 2328 
Q 447 3434 972 4092 
Q 1497 4750 2381 4750 
Q 2619 4750 2861 4703 
Q 3103 4656 3366 4563 
z
" transform="scale(0.015625)"/>
        <path id="DejaVuSans-2d" d="M 313 2009 
L 1997 2009 
L 1997 1497 
L 313 1497 
L 313 2009 
z
" transform="scale(0.015625)"/>
        <path id="DejaVuSans-31" d="M 794 531 
L 1825 531 
L 1825 4091 
L 703 3866 
L 703 4441 
L 1819 4666 
L 2450 4666 
L 2450 531 
L 3481 531 
L 3481 0 
L 794 0 
L 794 531 
z
" transform="scale(0.015625)"/>
        <path id="DejaVuSans-33" d="M 2597 2516 
Q 3050 2419 3304 2112 
Q 3559 1806 3559 1356 
Q 3559 666 3084 287 
Q 2609 -91 1734 -91 
Q 1441 -91 1130 -33 
Q 819 25 488 141 
L 488 750 
Q 750 597 1062 519 
Q 1375 441 1716 441 
Q 2309 441 2620 675 
Q 2931 909 2931 1356 
Q 2931 1769 2642 2001 
Q 2353 2234 1838 2234 
L 1294 2234 
L 1294 2753 
L 1863 2753 
Q 2328 2753 2575 2939 
Q 2822 3125 2822 3475 
Q 2822 3834 2567 4026 
Q 2313 4219 1838 4219 
Q 1578 4219 1281 4162 
Q 984 4106 628 3988 
L 628 4550 
Q 988 4650 1302 4700 
Q 1616 4750 1894 4750 
Q 2613 4750 3031 4423 
Q 3450 4097 3450 3541 
Q 3450 3153 3228 2886 
Q 3006 2619 2597 2516 
z
" transform="scale(0.015625)"/>
        <path id="DejaVuSans-20" transform="scale(0.015625)"/>
       </defs>
       <use xlink:href="#DejaVuSans-30"/>
       <use xlink:href="#DejaVuSans-36" transform="translate(63.623047 0)"/>
       <use xlink:href="#DejaVuSans-2d" transform="translate(127.246094 0)"/>
       <use xlink:href="#DejaVuSans-31" transform="translate(163.330078 0)"/>
       <use xlink:href="#DejaVuSans-33" transform="translate(226.953125 0)"/>
       <use xlink:href="#DejaVuSans-20" transform="translate(290.576172 0)"/>
       <use xlink:href="#DejaVuSans-30" transform="translate(322.363281 0)"/>
       <use xlink:href="#DejaVuSans-30" transform="translate(385.986328 0)"/>
      </g>
     </g>
    </g>
    <g id="xtick_2">
     <g id="line2d_2">
      <g>
       <use xlink:href="#me184840217" x="201.198717" y="246.04" style="stroke: #000000; stroke-width: 0.8"/>
      </g>
     </g>
     <g id="text_2">
      <!-- 06-13 12 -->
      <g transform="translate(178.718248 260.638438) scale(0.1 -0.1)">
       <defs>
        <path id="DejaVuSans-32" d="M 1228 531 
L 3431 531 
L 3431 0 
L 469 0 
L 469 531 
Q 828 903 1448 1529 
Q 2069 2156 2228 2338 
Q 2531 2678 2651 2914 
Q 2772 3150 2772 3378 
Q 2772 3750 2511 3984 
Q 2250 4219 1831 4219 
Q 1534 4219 1204 4116 
Q 875 4013 500 3803 
L 500 4441 
Q 881 4594 1212 4672 
Q 1544 4750 1819 4750 
Q 2544 4750 2975 4387 
Q 3406 4025 3406 3419 
Q 3406 3131 3298 2873 
Q 3191 2616 2906 2266 
Q 2828 2175 2409 1742 
Q 1991 1309 1228 531 
z
" transform="scale(0.015625)"/>
       </defs>
       <use xlink:href="#DejaVuSans-30"/>
       <use xlink:href="#DejaVuSans-36" transform="translate(63.623047 0)"/>
       <use xlink:href="#DejaVuSans-2d" transform="translate(127.246094 0)"/>
       <use xlink:href="#DejaVuSans-31" transform="translate(163.330078 0)"/>
       <use xlink:href="#DejaVuSans-33" transform="translate(226.953125 0)"/>
       <use xlink:href="#DejaVuSans-20" transform="translate(290.576172 0)"/>
       <use xlink:href="#DejaVuSans-31" transform="translate(322.363281 0)"/>
       <use xlink:href="#DejaVuSans-32" transform="translate(385.986328 0)"/>
      </g>
     </g>
    </g>
    <g id="xtick_3">
     <g id="line2d_3">
      <g>
       <use xlink:href="#me184840217" x="286.190218" y="246.04" style="stroke: #000000; stroke-width: 0.8"/>
      </g>
     </g>
     <g id="text_3">
      <!-- 06-14 00 -->
      <g transform="translate(263.709749 260.638438) scale(0.1 -0.1)">
       <defs>
        <path id="DejaVuSans-34" d="M 2419 4116 
L 825 1625 
L 2419 1625 
L 2419 4116 
z
M 2253 4666 
L 3047 4666 
L 3047 1625 
L 3713 1625 
L 3713 1100 
L 3047 1100 
L 3047 0 
L 2419 0 
L 2419 1100 
L 313 1100 
L 313 1709 
L 2253 4666 
z
" transform="scale(0.015625)"/>
       </defs>
       <use xlink:href="#DejaVuSans-30"/>
       <use xlink:href="#DejaVuSans-36" transform="translate(63.623047 0)"/>
       <use xlink:href="#DejaVuSans-2d" transform="translate(127.246094 0)"/>
       <use xlink:href="#DejaVuSans-31" transform="translate(163.330078 0)"/>
       <use xlink:href="#DejaVuSans-34" transform="translate(226.953125 0)"/>
       <use xlink:href="#DejaVuSans-20" transform="translate(290.576172 0)"/>
       <use xlink:href="#DejaVuSans-30" transform="translate(322.363281 0)"/>
       <use xlink:href="#DejaVuSans-30" transform="translate(385.986328 0)"/>
      </g>
     </g>
    </g>
    <g id="xtick_4">
     <g id="line2d_4">
      <g>
       <use xlink:href="#me184840217" x="371.181719" y="246.04" style="stroke: #000000; stroke-width: 0.8"/>
      </g>
     </g>
     <g id="text_4">
      <!-- 06-14 12 -->
      <g transform="translate(348.70125 260.638438) scale(0.1 -0.1)">
       <use xlink:href="#DejaVuSans-30"/>
       <use xlink:href="#DejaVuSans-36" transform="translate(63.623047 0)"/>
       <use xlink:href="#DejaVuSans-2d" transform="translate(127.246094 0)"/>
       <use xlink:href="#DejaVuSans-31" transform="translate(163.330078 0)"/>
       <use xlink:href="#DejaVuSans-34" transform="translate(226.953125 0)"/>
       <use xlink:href="#DejaVuSans-20" transform="translate(290.576172 0)"/>
       <use xlink:href="#DejaVuSans-31" transform="translate(322.363281 0)"/>
       <use xlink:href="#DejaVuSans-32" transform="translate(385.986328 0)"/>
      </g>
     </g>
    </g>
    <g id="xtick_5">
     <g id="line2d_5">
      <g>
       <use xlink:href="#me184840217" x="456.173219" y="246.04" style="stroke: #000000; stroke-width: 0.8"/>
      </g>
     </g>
     <g id="text_5">
      <!-- 06-15 00 -->
      <g transform="translate(433.692751 260.638438) scale(0.1 -0.1)">
       <defs>
        <path id="DejaVuSans-35" d="M 691 4666 
L 3169 4666 
L 3169 4134 
L 1269 4134 
L 1269 2991 
Q 1406 3038 1543 3061 
Q 1681 3084 1819 3084 
Q 2600 3084 3056 2656 
Q 3513 2228 3513 1497 
Q 3513 744 3044 326 
Q 2575 -91 1722 -91 
Q 1428 -91 1123 -41 
Q 819 9 494 109 
L 494 744 
Q 775 591 1075 516 
Q 1375 441 1709 441 
Q 2250 441 2565 725 
Q 2881 1009 2881 1497 
Q 2881 1984 2565 2268 
Q 2250 2553 1709 2553 
Q 1456 2553 1204 2497 
Q 953 2441 691 2322 
L 691 4666 
z
" transform="scale(0.015625)"/>
       </defs>
       <use xlink:href="#DejaVuSans-30"/>
       <use xlink:href="#DejaVuSans-36" transform="translate(63.623047 0)"/>
       <use xlink:href="#DejaVuSans-2d" transform="translate(127.246094 0)"/>
       <use xlink:href="#DejaVuSans-31" transform="translate(163.330078 0)"/>
       <use xlink:href="#DejaVuSans-35" transform="translate(226.953125 0)"/>
       <use xlink:href="#DejaVuSans-20" transform="translate(290.576172 0)"/>
       <use xlink:href="#DejaVuSans-30" transform="translate(322.363281 0)"/>
       <use xlink:href="#DejaVuSans-30" transform="translate(385.986328 0)"/>
      </g>
     </g>
    </g>
    <g id="xtick_6">
     <g id="line2d_6">
      <g>
       <use xlink:href="#me184840217" x="541.16472" y="246.04" style="stroke: #000000; stroke-width: 0.8"/>
      </g>
     </g>
     <g id="text_6">
      <!-- 06-15 12 -->
      <g transform="translate(518.684252 260.638438) scale(0.1 -0.1)">
       <use xlink:href="#DejaVuSans-30"/>
       <use xlink:href="#DejaVuSans-36" transform="translate(63.623047 0)"/>
       <use xlink:href="#DejaVuSans-2d" transform="translate(127.246094 0)"/>
       <use xlink:href="#DejaVuSans-31" transform="translate(163.330078 0)"/>
       <use xlink:href="#DejaVuSans-35" transform="translate(226.953125 0)"/>
       <use xlink:href="#DejaVuSans-20" transform="translate(290.576172 0)"/>
       <use xlink:href="#DejaVuSans-31" transform="translate(322.363281 0)"/>
       <use xlink:href="#DejaVuSans-32" transform="translate(385.986328 0)"/>
      </g>
     </g>
    </g>
    <g id="xtick_7">
     <g id="line2d_7">
      <g>
       <use xlink:href="#me184840217" x="626.156221" y="246.04" style="stroke: #000000; stroke-width: 0.8"/>
      </g>
     </g>
     <g id="text_7">
      <!-- 06-16 00 -->
      <g transform="translate(603.675752 260.638438) scale(0.1 -0.1)">
       <use xlink:href="#DejaVuSans-30"/>
       <use xlink:href="#DejaVuSans-36" transform="translate(63.623047 0)"/>
       <use xlink:href="#DejaVuSans-2d" transform="translate(127.246094 0)"/>
       <use xlink:href="#DejaVuSans-31" transform="translate(163.330078 0)"/>
       <use xlink:href="#DejaVuSans-36" transform="translate(226.953125 0)"/>
       <use xlink:href="#DejaVuSans-20" transform="translate(290.576172 0)"/>
       <use xlink:href="#DejaVuSans-30" transform="translate(322.363281 0)"/>
       <use xlink:href="#DejaVuSans-30" transform="translate(385.986328 0)"/>
      </g>
     </g>
    </g>
    <g id="text_8">
     <!-- Tijd -->
     <g transform="translate(371.185 274.316562) scale(0.1 -0.1)">
      <defs>
       <path id="DejaVuSans-54" d="M -19 4666 
L 3928 4666 
L 3928 4134 
L 2272 4134 
L 2272 0 
L 1638 0 
L 1638 4134 
L -19 4134 
L -19 4666 
z
" transform="scale(0.015625)"/>
       <path id="DejaVuSans-69" d="M 603 3500 
L 1178 3500 
L 1178 0 
L 603 0 
L 603 3500 
z
M 603 4863 
L 1178 4863 
L 1178 4134 
L 603 4134 
L 603 4863 
z
" transform="scale(0.015625)"/>
       <path id="DejaVuSans-6a" d="M 603 3500 
L 1178 3500 
L 1178 -63 
Q 1178 -731 923 -1031 
Q 669 -1331 103 -1331 
L -116 -1331 
L -116 -844 
L 38 -844 
Q 366 -844 484 -692 
Q 603 -541 603 -63 
L 603 3500 
z
M 603 4863 
L 1178 4863 
L 1178 4134 
L 603 4134 
L 603 4863 
z
" transform="scale(0.015625)"/>
       <path id="DejaVuSans-64" d="M 2906 2969 
L 2906 4863 
L 3481 4863 
L 3481 0 
L 2906 0 
L 2906 525 
Q 2725 213 2448 61 
Q 2172 -91 1784 -91 
Q 1150 -91 751 415 
Q 353 922 353 1747 
Q 353 2572 751 3078 
Q 1150 3584 1784 3584 
Q 2172 3584 2448 3432 
Q 2725 3281 2906 2969 
z
M 947 1747 
Q 947 1113 1208 752 
Q 1469 391 1925 391 
Q 2381 391 2643 752 
Q 2906 1113 2906 1747 
Q 2906 2381 2643 2742 
Q 2381 3103 1925 3103 
Q 1469 3103 1208 2742 
Q 947 2381 947 1747 
z
" transform="scale(0.015625)"/>
      </defs>
      <use xlink:href="#DejaVuSans-54"/>
      <use xlink:href="#DejaVuSans-69" transform="translate(57.958984 0)"/>
      <use xlink:href="#DejaVuSans-6a" transform="translate(85.742188 0)"/>
      <use xlink:href="#DejaVuSans-64" transform="translate(113.525391 0)"/>
     </g>
    </g>
   </g>
   <g id="matplotlib.axis_2">
    <g id="ytick_1">
     <g id="line2d_8">
      <defs>
       <path id="m215ddfeaa8" d="M 0 0 
L -3.5 0 
" style="stroke: #000000; stroke-width: 0.8"/>
      </defs>
      <g>
       <use xlink:href="#m215ddfeaa8" x="50.87" y="213.431101" style="stroke: #000000; stroke-width: 0.8"/>
      </g>
     </g>
     <g id="text_9">
      <!-- 20 -->
      <g transform="translate(31.145 217.23032) scale(0.1 -0.1)">
       <use xlink:href="#DejaVuSans-32"/>
       <use xlink:href="#DejaVuSans-30" transform="translate(63.623047 0)"/>
      </g>
     </g>
    </g>
    <g id="ytick_2">
     <g id="line2d_9">
      <g>
       <use xlink:href="#m215ddfeaa8" x="50.87" y="172.133455" style="stroke: #000000; stroke-width: 0.8"/>
      </g>
     </g>
     <g id="text_10">
      <!-- 40 -->
      <g transform="translate(31.145 175.932674) scale(0.1 -0.1)">
       <use xlink:href="#DejaVuSans-34"/>
       <use xlink:href="#DejaVuSans-30" transform="translate(63.623047 0)"/>
      </g>
     </g>
    </g>
    <g id="ytick_3">
     <g id="line2d_10">
      <g>
       <use xlink:href="#m215ddfeaa8" x="50.87" y="130.835809" style="stroke: #000000; stroke-width: 0.8"/>
      </g>
     </g>
     <g id="text_11">
      <!-- 60 -->
      <g transform="translate(31.145 134.635028) scale(0.1 -0.1)">
       <use xlink:href="#DejaVuSans-36"/>
       <use xlink:href="#DejaVuSans-30" transform="translate(63.623047 0)"/>
      </g>
     </g>
    </g>
    <g id="ytick_4">
     <g id="line2d_11">
      <g>
       <use xlink:href="#m215ddfeaa8" x="50.87" y="89.538163" style="stroke: #000000; stroke-width: 0.8"/>
      </g>
     </g>
     <g id="text_12">
      <!-- 80 -->
      <g transform="translate(31.145 93.337382) scale(0.1 -0.1)">
       <defs>
        <path id="DejaVuSans-38" d="M 2034 2216 
Q 1584 2216 1326 1975 
Q 1069 1734 1069 1313 
Q 1069 891 1326 650 
Q 1584 409 2034 409 
Q 2484 409 2743 651 
Q 3003 894 3003 1313 
Q 3003 1734 2745 1975 
Q 2488 2216 2034 2216 
z
M 1403 2484 
Q 997 2584 770 2862 
Q 544 3141 544 3541 
Q 544 4100 942 4425 
Q 1341 4750 2034 4750 
Q 2731 4750 3128 4425 
Q 3525 4100 3525 3541 
Q 3525 3141 3298 2862 
Q 3072 2584 2669 2484 
Q 3125 2378 3379 2068 
Q 3634 1759 3634 1313 
Q 3634 634 3220 271 
Q 2806 -91 2034 -91 
Q 1263 -91 848 271 
Q 434 634 434 1313 
Q 434 1759 690 2068 
Q 947 2378 1403 2484 
z
M 1172 3481 
Q 1172 3119 1398 2916 
Q 1625 2713 2034 2713 
Q 2441 2713 2670 2916 
Q 2900 3119 2900 3481 
Q 2900 3844 2670 4047 
Q 2441 4250 2034 4250 
Q 1625 4250 1398 4047 
Q 1172 3844 1172 3481 
z
" transform="scale(0.015625)"/>
       </defs>
       <use xlink:href="#DejaVuSans-38"/>
       <use xlink:href="#DejaVuSans-30" transform="translate(63.623047 0)"/>
      </g>
     </g>
    </g>
    <g id="ytick_5">
     <g id="line2d_12">
      <g>
       <use xlink:href="#m215ddfeaa8" x="50.87" y="48.240517" style="stroke: #000000; stroke-width: 0.8"/>
      </g>
     </g>
     <g id="text_13">
      <!-- 100 -->
      <g transform="translate(24.7825 52.039736) scale(0.1 -0.1)">
       <use xlink:href="#DejaVuSans-31"/>
       <use xlink:href="#DejaVuSans-30" transform="translate(63.623047 0)"/>
       <use xlink:href="#DejaVuSans-30" transform="translate(127.246094 0)"/>
      </g>
     </g>
    </g>
    <g id="text_14">
     <!-- (Rel.) Buiten Vochtigheid (%) -->
     <g transform="translate(18.702813 208.620937) rotate(-90) scale(0.1 -0.1)">
      <defs>
       <path id="DejaVuSans-28" d="M 1984 4856 
Q 1566 4138 1362 3434 
Q 1159 2731 1159 2009 
Q 1159 1288 1364 580 
Q 1569 -128 1984 -844 
L 1484 -844 
Q 1016 -109 783 600 
Q 550 1309 550 2009 
Q 550 2706 781 3412 
Q 1013 4119 1484 4856 
L 1984 4856 
z
" transform="scale(0.015625)"/>
       <path id="DejaVuSans-52" d="M 2841 2188 
Q 3044 2119 3236 1894 
Q 3428 1669 3622 1275 
L 4263 0 
L 3584 0 
L 2988 1197 
Q 2756 1666 2539 1819 
Q 2322 1972 1947 1972 
L 1259 1972 
L 1259 0 
L 628 0 
L 628 4666 
L 2053 4666 
Q 2853 4666 3247 4331 
Q 3641 3997 3641 3322 
Q 3641 2881 3436 2590 
Q 3231 2300 2841 2188 
z
M 1259 4147 
L 1259 2491 
L 2053 2491 
Q 2509 2491 2742 2702 
Q 2975 2913 2975 3322 
Q 2975 3731 2742 3939 
Q 2509 4147 2053 4147 
L 1259 4147 
z
" transform="scale(0.015625)"/>
       <path id="DejaVuSans-65" d="M 3597 1894 
L 3597 1613 
L 953 1613 
Q 991 1019 1311 708 
Q 1631 397 2203 397 
Q 2534 397 2845 478 
Q 3156 559 3463 722 
L 3463 178 
Q 3153 47 2828 -22 
Q 2503 -91 2169 -91 
Q 1331 -91 842 396 
Q 353 884 353 1716 
Q 353 2575 817 3079 
Q 1281 3584 2069 3584 
Q 2775 3584 3186 3129 
Q 3597 2675 3597 1894 
z
M 3022 2063 
Q 3016 2534 2758 2815 
Q 2500 3097 2075 3097 
Q 1594 3097 1305 2825 
Q 1016 2553 972 2059 
L 3022 2063 
z
" transform="scale(0.015625)"/>
       <path id="DejaVuSans-6c" d="M 603 4863 
L 1178 4863 
L 1178 0 
L 603 0 
L 603 4863 
z
" transform="scale(0.015625)"/>
       <path id="DejaVuSans-2e" d="M 684 794 
L 1344 794 
L 1344 0 
L 684 0 
L 684 794 
z
" transform="scale(0.015625)"/>
       <path id="DejaVuSans-29" d="M 513 4856 
L 1013 4856 
Q 1481 4119 1714 3412 
Q 1947 2706 1947 2009 
Q 1947 1309 1714 600 
Q 1481 -109 1013 -844 
L 513 -844 
Q 928 -128 1133 580 
Q 1338 1288 1338 2009 
Q 1338 2731 1133 3434 
Q 928 4138 513 4856 
z
" transform="scale(0.015625)"/>
       <path id="DejaVuSans-42" d="M 1259 2228 
L 1259 519 
L 2272 519 
Q 2781 519 3026 730 
Q 3272 941 3272 1375 
Q 3272 1813 3026 2020 
Q 2781 2228 2272 2228 
L 1259 2228 
z
M 1259 4147 
L 1259 2741 
L 2194 2741 
Q 2656 2741 2882 2914 
Q 3109 3088 3109 3444 
Q 3109 3797 2882 3972 
Q 2656 4147 2194 4147 
L 1259 4147 
z
M 628 4666 
L 2241 4666 
Q 2963 4666 3353 4366 
Q 3744 4066 3744 3513 
Q 3744 3084 3544 2831 
Q 3344 2578 2956 2516 
Q 3422 2416 3680 2098 
Q 3938 1781 3938 1306 
Q 3938 681 3513 340 
Q 3088 0 2303 0 
L 628 0 
L 628 4666 
z
" transform="scale(0.015625)"/>
       <path id="DejaVuSans-75" d="M 544 1381 
L 544 3500 
L 1119 3500 
L 1119 1403 
Q 1119 906 1312 657 
Q 1506 409 1894 409 
Q 2359 409 2629 706 
Q 2900 1003 2900 1516 
L 2900 3500 
L 3475 3500 
L 3475 0 
L 2900 0 
L 2900 538 
Q 2691 219 2414 64 
Q 2138 -91 1772 -91 
Q 1169 -91 856 284 
Q 544 659 544 1381 
z
M 1991 3584 
L 1991 3584 
z
" transform="scale(0.015625)"/>
       <path id="DejaVuSans-74" d="M 1172 4494 
L 1172 3500 
L 2356 3500 
L 2356 3053 
L 1172 3053 
L 1172 1153 
Q 1172 725 1289 603 
Q 1406 481 1766 481 
L 2356 481 
L 2356 0 
L 1766 0 
Q 1100 0 847 248 
Q 594 497 594 1153 
L 594 3053 
L 172 3053 
L 172 3500 
L 594 3500 
L 594 4494 
L 1172 4494 
z
" transform="scale(0.015625)"/>
       <path id="DejaVuSans-6e" d="M 3513 2113 
L 3513 0 
L 2938 0 
L 2938 2094 
Q 2938 2591 2744 2837 
Q 2550 3084 2163 3084 
Q 1697 3084 1428 2787 
Q 1159 2491 1159 1978 
L 1159 0 
L 581 0 
L 581 3500 
L 1159 3500 
L 1159 2956 
Q 1366 3272 1645 3428 
Q 1925 3584 2291 3584 
Q 2894 3584 3203 3211 
Q 3513 2838 3513 2113 
z
" transform="scale(0.015625)"/>
       <path id="DejaVuSans-56" d="M 1831 0 
L 50 4666 
L 709 4666 
L 2188 738 
L 3669 4666 
L 4325 4666 
L 2547 0 
L 1831 0 
z
" transform="scale(0.015625)"/>
       <path id="DejaVuSans-6f" d="M 1959 3097 
Q 1497 3097 1228 2736 
Q 959 2375 959 1747 
Q 959 1119 1226 758 
Q 1494 397 1959 397 
Q 2419 397 2687 759 
Q 2956 1122 2956 1747 
Q 2956 2369 2687 2733 
Q 2419 3097 1959 3097 
z
M 1959 3584 
Q 2709 3584 3137 3096 
Q 3566 2609 3566 1747 
Q 3566 888 3137 398 
Q 2709 -91 1959 -91 
Q 1206 -91 779 398 
Q 353 888 353 1747 
Q 353 2609 779 3096 
Q 1206 3584 1959 3584 
z
" transform="scale(0.015625)"/>
       <path id="DejaVuSans-63" d="M 3122 3366 
L 3122 2828 
Q 2878 2963 2633 3030 
Q 2388 3097 2138 3097 
Q 1578 3097 1268 2742 
Q 959 2388 959 1747 
Q 959 1106 1268 751 
Q 1578 397 2138 397 
Q 2388 397 2633 464 
Q 2878 531 3122 666 
L 3122 134 
Q 2881 22 2623 -34 
Q 2366 -91 2075 -91 
Q 1284 -91 818 406 
Q 353 903 353 1747 
Q 353 2603 823 3093 
Q 1294 3584 2113 3584 
Q 2378 3584 2631 3529 
Q 2884 3475 3122 3366 
z
" transform="scale(0.015625)"/>
       <path id="DejaVuSans-68" d="M 3513 2113 
L 3513 0 
L 2938 0 
L 2938 2094 
Q 2938 2591 2744 2837 
Q 2550 3084 2163 3084 
Q 1697 3084 1428 2787 
Q 1159 2491 1159 1978 
L 1159 0 
L 581 0 
L 581 4863 
L 1159 4863 
L 1159 2956 
Q 1366 3272 1645 3428 
Q 1925 3584 2291 3584 
Q 2894 3584 3203 3211 
Q 3513 2838 3513 2113 
z
" transform="scale(0.015625)"/>
       <path id="DejaVuSans-67" d="M 2906 1791 
Q 2906 2416 2648 2759 
Q 2391 3103 1925 3103 
Q 1463 3103 1205 2759 
Q 947 2416 947 1791 
Q 947 1169 1205 825 
Q 1463 481 1925 481 
Q 2391 481 2648 825 
Q 2906 1169 2906 1791 
z
M 3481 434 
Q 3481 -459 3084 -895 
Q 2688 -1331 1869 -1331 
Q 1566 -1331 1297 -1286 
Q 1028 -1241 775 -1147 
L 775 -588 
Q 1028 -725 1275 -790 
Q 1522 -856 1778 -856 
Q 2344 -856 2625 -561 
Q 2906 -266 2906 331 
L 2906 616 
Q 2728 306 2450 153 
Q 2172 0 1784 0 
Q 1141 0 747 490 
Q 353 981 353 1791 
Q 353 2603 747 3093 
Q 1141 3584 1784 3584 
Q 2172 3584 2450 3431 
Q 2728 3278 2906 2969 
L 2906 3500 
L 3481 3500 
L 3481 434 
z
" transform="scale(0.015625)"/>
       <path id="DejaVuSans-25" d="M 4653 2053 
Q 4381 2053 4226 1822 
Q 4072 1591 4072 1178 
Q 4072 772 4226 539 
Q 4381 306 4653 306 
Q 4919 306 5073 539 
Q 5228 772 5228 1178 
Q 5228 1588 5073 1820 
Q 4919 2053 4653 2053 
z
M 4653 2450 
Q 5147 2450 5437 2106 
Q 5728 1763 5728 1178 
Q 5728 594 5436 251 
Q 5144 -91 4653 -91 
Q 4153 -91 3862 251 
Q 3572 594 3572 1178 
Q 3572 1766 3864 2108 
Q 4156 2450 4653 2450 
z
M 1428 4353 
Q 1159 4353 1004 4120 
Q 850 3888 850 3481 
Q 850 3069 1003 2837 
Q 1156 2606 1428 2606 
Q 1700 2606 1854 2837 
Q 2009 3069 2009 3481 
Q 2009 3884 1853 4118 
Q 1697 4353 1428 4353 
z
M 4250 4750 
L 4750 4750 
L 1831 -91 
L 1331 -91 
L 4250 4750 
z
M 1428 4750 
Q 1922 4750 2215 4408 
Q 2509 4066 2509 3481 
Q 2509 2891 2217 2550 
Q 1925 2209 1428 2209 
Q 931 2209 642 2551 
Q 353 2894 353 3481 
Q 353 4063 643 4406 
Q 934 4750 1428 4750 
z
" transform="scale(0.015625)"/>
      </defs>
      <use xlink:href="#DejaVuSans-28"/>
      <use xlink:href="#DejaVuSans-52" transform="translate(39.013672 0)"/>
      <use xlink:href="#DejaVuSans-65" transform="translate(103.996094 0)"/>
      <use xlink:href="#DejaVuSans-6c" transform="translate(165.519531 0)"/>
      <use xlink:href="#DejaVuSans-2e" transform="translate(193.302734 0)"/>
      <use xlink:href="#DejaVuSans-29" transform="translate(225.089844 0)"/>
      <use xlink:href="#DejaVuSans-20" transform="translate(264.103516 0)"/>
      <use xlink:href="#DejaVuSans-42" transform="translate(295.890625 0)"/>
      <use xlink:href="#DejaVuSans-75" transform="translate(364.494141 0)"/>
      <use xlink:href="#DejaVuSans-69" transform="translate(427.873047 0)"/>
      <use xlink:href="#DejaVuSans-74" transform="translate(455.65625 0)"/>
      <use xlink:href="#DejaVuSans-65" transform="translate(494.865234 0)"/>
      <use xlink:href="#DejaVuSans-6e" transform="translate(556.388672 0)"/>
      <use xlink:href="#DejaVuSans-20" transform="translate(619.767578 0)"/>
      <use xlink:href="#DejaVuSans-56" transform="translate(651.554688 0)"/>
      <use xlink:href="#DejaVuSans-6f" transform="translate(712.212891 0)"/>
      <use xlink:href="#DejaVuSans-63" transform="translate(773.394531 0)"/>
      <use xlink:href="#DejaVuSans-68" transform="translate(828.375 0)"/>
      <use xlink:href="#DejaVuSans-74" transform="translate(891.753906 0)"/>
      <use xlink:href="#DejaVuSans-69" transform="translate(930.962891 0)"/>
      <use xlink:href="#DejaVuSans-67" transform="translate(958.746094 0)"/>
      <use xlink:href="#DejaVuSans-68" transform="translate(1022.222656 0)"/>
      <use xlink:href="#DejaVuSans-65" transform="translate(1085.601562 0)"/>
      <use xlink:href="#DejaVuSans-69" transform="translate(1147.125 0)"/>
      <use xlink:href="#DejaVuSans-64" transform="translate(1174.908203 0)"/>
      <use xlink:href="#DejaVuSans-20" transform="translate(1238.384766 0)"/>
      <use xlink:href="#DejaVuSans-28" transform="translate(1270.171875 0)"/>
      <use xlink:href="#DejaVuSans-25" transform="translate(1309.185547 0)"/>
      <use xlink:href="#DejaVuSans-29" transform="translate(1404.205078 0)"/>
     </g>
    </g>
   </g>
   <g id="line2d_13">
    <path d="M 80.794091 187.000608 
L 84.335403 185.211043 
L 87.876716 183.283819 
L 91.418029 182.11372 
L 94.959341 178.465761 
L 98.500654 177.020343 
L 102.041966 175.850243 
L 105.583279 172.064626 
L 109.124591 168.00369 
L 112.665904 167.315396 
L 116.207216 162.979144 
L 119.748529 160.501285 
L 123.289841 154.03132 
L 126.831154 151.071656 
L 130.372466 150.176873 
L 133.913779 144.67052 
L 137.455091 142.055003 
L 140.996404 141.022562 
L 144.537717 138.613532 
L 148.079029 138.544703 
L 151.620342 136.342162 
L 155.161654 134.965574 
L 158.702967 132.969521 
L 162.244279 128.977415 
L 165.785592 128.35795 
L 172.868217 121.33735 
L 176.409529 120.098421 
L 179.950842 119.203639 
L 183.492154 117.551733 
L 187.033467 118.859492 
L 190.574779 123.67755 
L 194.116092 128.770927 
L 197.657405 129.252733 
L 201.198717 134.139621 
L 204.74003 136.686309 
L 208.281342 140.816073 
L 211.822655 143.018615 
L 215.363967 143.018615 
L 218.90528 147.286038 
L 222.446592 151.140485 
L 225.987905 159.606502 
L 229.529217 165.869979 
L 233.07053 170.41272 
L 236.611842 173.716531 
L 240.153155 174.198337 
L 243.694467 179.498202 
L 247.23578 181.287767 
L 250.777093 180.94362 
L 254.318405 180.186496 
L 257.859718 178.328102 
L 261.40103 178.328102 
L 264.942343 176.26322 
L 268.483655 174.473655 
L 272.024968 171.445161 
L 275.56628 170.550379 
L 279.107593 165.250514 
L 282.648905 160.570114 
L 286.190218 156.578008 
L 289.73153 154.444297 
L 293.272843 156.027373 
L 296.814155 154.857273 
L 300.355468 150.796338 
L 303.896781 143.56925 
L 307.438093 140.678415 
L 314.520718 137.374603 
L 318.062031 136.479821 
L 321.603343 134.070791 
L 325.144656 132.281227 
L 328.685968 128.220291 
L 332.227281 125.467115 
L 335.768593 125.880091 
L 339.309906 124.709992 
L 342.851218 124.090527 
L 346.392531 124.503503 
L 349.933843 119.203639 
L 353.475156 114.660898 
L 357.016469 112.940162 
L 360.557781 114.523239 
L 364.099094 115.624509 
L 371.181719 127.944974 
L 374.723031 131.248785 
L 378.264344 133.244838 
L 381.805656 137.443432 
L 385.346969 143.225103 
L 388.888281 139.990121 
L 392.429594 144.326373 
L 395.970906 156.302691 
L 399.512219 159.675332 
L 403.053531 166.83359 
L 406.594844 174.611314 
L 410.136157 172.546432 
L 413.677469 163.047973 
L 417.218782 150.865167 
L 420.760094 152.241756 
L 424.301407 145.289985 
L 427.842719 141.504368 
L 431.384032 142.949785 
L 434.925344 135.37855 
L 438.466657 124.985309 
L 442.007969 122.300962 
L 445.549282 118.584174 
L 449.090594 117.069927 
L 452.631907 116.932268 
L 456.173219 113.284309 
L 459.714532 111.563574 
L 463.255845 105.437757 
L 466.797157 104.749463 
L 470.33847 103.717021 
L 473.879782 107.158492 
L 477.421095 115.486851 
L 480.962407 111.770062 
L 484.50372 113.353139 
L 488.045032 114.729727 
L 491.586345 114.041433 
L 495.127657 108.466251 
L 498.66897 114.38558 
L 502.210282 126.912533 
L 505.751595 126.499556 
L 509.292907 132.831862 
L 512.83422 128.839756 
L 516.375533 127.325509 
L 519.916845 125.673603 
L 523.458158 119.478956 
L 526.99947 119.754274 
L 530.540783 119.341298 
L 534.082095 118.584174 
L 537.623408 114.798556 
L 541.16472 105.644245 
L 544.706033 104.542974 
L 548.247345 111.081768 
L 551.788658 114.179092 
L 555.32997 113.834945 
L 558.871283 116.588121 
L 562.412595 122.232133 
L 565.953908 123.952868 
L 569.495221 130.560491 
L 573.036533 135.034403 
L 580.119158 152.723561 
L 583.660471 148.387309 
L 587.201783 142.880956 
L 590.743096 151.75995 
L 594.284408 158.092255 
L 594.284408 158.092255 
" clip-path="url(#pfd0f404b85)" style="fill: none; stroke: #1f77b4; stroke-width: 2; stroke-linecap: square"/>
   </g>
   <g id="line2d_14">
    <path d="M 80.794091 163.787889 
L 84.335403 170.958439 
L 87.876716 171.553321 
L 91.418029 170.737201 
L 94.959341 167.502219 
L 98.500654 166.01747 
L 102.041966 165.820815 
L 105.583279 163.451117 
L 109.124591 161.917204 
L 112.665904 157.354797 
L 116.207216 154.837608 
L 119.748529 153.077541 
L 123.289841 137.787579 
L 126.831154 132.68732 
L 130.372466 137.007513 
L 133.913779 134.15437 
L 137.455091 129.65096 
L 140.996404 128.12688 
L 148.079029 120.653973 
L 151.620342 119.088923 
L 155.161654 115.948991 
L 158.702967 112.591099 
L 162.244279 108.893976 
L 165.785592 106.676686 
L 169.326904 105.029697 
L 172.868217 103.16147 
L 176.409529 102.247022 
L 179.950842 100.069063 
L 183.492154 100.909765 
L 187.033467 100.880266 
L 190.574779 104.247991 
L 194.116092 106.121134 
L 197.657405 108.697321 
L 201.198717 113.426885 
L 204.74003 120.019759 
L 208.281342 126.08658 
L 211.822655 130.540826 
L 215.363967 133.584069 
L 218.90528 132.232063 
L 222.446592 140.530923 
L 225.987905 146.676406 
L 229.529217 148.829783 
L 233.07053 154.935935 
L 240.153155 161.218258 
L 243.694467 163.346234 
L 247.23578 159.422957 
L 250.777093 166.6684 
L 254.318405 172.222933 
L 257.859718 170.814225 
L 261.40103 171.709007 
L 264.942343 166.09941 
L 268.483655 163.713324 
L 272.024968 162.692354 
L 279.107593 155.109648 
L 282.648905 150.486606 
L 286.190218 146.723931 
L 293.272843 140.162194 
L 296.814155 139.969472 
L 300.355468 130.567374 
L 303.896781 126.447934 
L 307.438093 126.169175 
L 310.979406 123.224423 
L 314.520718 124.629691 
L 318.062031 125.455643 
L 321.603343 125.295041 
L 325.144656 126.71178 
L 328.685968 123.970075 
L 332.227281 117.482903 
L 335.768593 115.463907 
L 339.309906 104.900887 
L 342.851218 109.888725 
L 346.392531 108.363007 
L 349.933843 101.21622 
L 353.475156 100.264079 
L 357.016469 91.75447 
L 360.557781 103.85468 
L 364.099094 101.938928 
L 367.640406 107.998211 
L 371.181719 108.449043 
L 374.723031 108.36989 
L 378.264344 114.471617 
L 381.805656 115.9916 
L 385.346969 119.605144 
L 388.888281 117.276415 
L 392.429594 120.316381 
L 395.970906 125.897299 
L 399.512219 129.166696 
L 403.053531 128.736512 
L 406.594844 132.958049 
L 410.136157 130.950525 
L 417.218782 129.034773 
L 420.760094 128.937264 
L 424.301407 133.021143 
L 427.842719 131.879722 
L 431.384032 132.30417 
L 434.925344 131.891193 
L 438.466657 132.980992 
L 442.007969 140.529284 
L 445.549282 137.626977 
L 449.090594 134.116678 
L 452.631907 133.818417 
L 456.173219 137.397546 
L 459.714532 137.202529 
L 463.255845 134.214186 
L 466.797157 136.603714 
L 470.33847 133.749587 
L 473.879782 133.210424 
L 477.421095 132.327113 
L 480.962407 130.858752 
L 484.50372 131.053769 
L 488.045032 125.983336 
L 491.586345 125.885827 
L 495.127657 123.826681 
L 498.66897 123.505477 
L 502.210282 122.656581 
L 505.751595 121.056297 
L 509.292907 121.641347 
L 512.83422 119.410127 
L 516.375533 118.84802 
L 519.916845 117.31083 
L 523.458158 116.393104 
L 526.99947 114.924744 
L 530.540783 113.80053 
L 534.082095 112.142888 
L 537.623408 110.989996 
L 541.16472 110.829394 
L 544.706033 112.624694 
L 548.247345 113.714493 
L 551.788658 116.50782 
L 555.32997 118.802134 
L 558.871283 121.308671 
L 562.412595 123.276045 
L 565.953908 125.90877 
L 569.495221 130.107364 
L 573.036533 135.653868 
L 576.577846 143.999434 
L 580.119158 147.716222 
L 583.660471 146.356841 
L 587.201783 146.437142 
L 590.743096 144.30343 
L 594.284408 147.549884 
L 597.825721 154.926103 
L 601.367033 163.139745 
L 604.908346 160.111251 
L 608.449658 161.717271 
L 611.990971 153.503628 
L 615.532283 152.517073 
L 619.073596 147.88256 
L 622.614909 143.50042 
L 626.156221 144.693464 
L 629.697534 143.615136 
L 633.238846 145.450587 
L 636.780159 139.244469 
L 640.321471 140.644 
L 643.862784 132.831862 
L 647.404096 159.812991 
L 650.945409 151.071656 
L 654.486721 144.395203 
L 658.028034 133.933132 
L 661.569346 142.536809 
L 665.110659 144.051056 
L 668.651971 138.131726 
L 672.193284 135.516209 
L 675.734597 130.939053 
L 679.275909 125.880091 
L 679.275909 125.880091 
" clip-path="url(#pfd0f404b85)" style="fill: none; stroke-dasharray: 5.55,2.4; stroke-dashoffset: 0; stroke: #808080; stroke-width: 1.5"/>
   </g>
   <g id="patch_3">
    <path d="M 50.87 246.04 
L 50.87 26.88 
" style="fill: none; stroke: #000000; stroke-width: 0.8; stroke-linejoin: miter; stroke-linecap: square"/>
   </g>
   <g id="patch_4">
    <path d="M 709.2 246.04 
L 709.2 26.88 
" style="fill: none; stroke: #000000; stroke-width: 0.8; stroke-linejoin: miter; stroke-linecap: square"/>
   </g>
   <g id="patch_5">
    <path d="M 50.87 246.04 
L 709.2 246.04 
" style="fill: none; stroke: #000000; stroke-width: 0.8; stroke-linejoin: miter; stroke-linecap: square"/>
   </g>
   <g id="patch_6">
    <path d="M 50.87 26.88 
L 709.2 26.88 
" style="fill: none; stroke: #000000; stroke-width: 0.8; stroke-linejoin: miter; stroke-linecap: square"/>
   </g>
   <g id="text_15">
    <!-- Luchtvochtigheid - v001/c00004/d001 -->
    <g transform="translate(265.745312 20.88) scale(0.12 -0.12)">
     <defs>
      <path id="DejaVuSans-4c" d="M 628 4666 
L 1259 4666 
L 1259 531 
L 3531 531 
L 3531 0 
L 628 0 
L 628 4666 
z
" transform="scale(0.015625)"/>
      <path id="DejaVuSans-76" d="M 191 3500 
L 800 3500 
L 1894 563 
L 2988 3500 
L 3597 3500 
L 2284 0 
L 1503 0 
L 191 3500 
z
" transform="scale(0.015625)"/>
      <path id="DejaVuSans-2f" d="M 1625 4666 
L 2156 4666 
L 531 -594 
L 0 -594 
L 1625 4666 
z
" transform="scale(0.015625)"/>
     </defs>
     <use xlink:href="#DejaVuSans-4c"/>
     <use xlink:href="#DejaVuSans-75" transform="translate(53.962891 0)"/>
     <use xlink:href="#DejaVuSans-63" transform="translate(117.341797 0)"/>
     <use xlink:href="#DejaVuSans-68" transform="translate(172.322266 0)"/>
     <use xlink:href="#DejaVuSans-74" transform="translate(235.701172 0)"/>
     <use xlink:href="#DejaVuSans-76" transform="translate(274.910156 0)"/>
     <use xlink:href="#DejaVuSans-6f" transform="translate(334.089844 0)"/>
     <use xlink:href="#DejaVuSans-63" transform="translate(395.271484 0)"/>
     <use xlink:href="#DejaVuSans-68" transform="translate(450.251953 0)"/>
     <use xlink:href="#DejaVuSans-74" transform="translate(513.630859 0)"/>
     <use xlink:href="#DejaVuSans-69" transform="translate(552.839844 0)"/>
     <use xlink:href="#DejaVuSans-67" transform="translate(580.623047 0)"/>
     <use xlink:href="#DejaVuSans-68" transform="translate(644.099609 0)"/>
     <use xlink:href="#DejaVuSans-65" transform="translate(707.478516 0)"/>
     <use xlink:href="#DejaVuSans-69" transform="translate(769.001953 0)"/>
     <use xlink:href="#DejaVuSans-64" transform="translate(796.785156 0)"/>
     <use xlink:href="#DejaVuSans-20" transform="translate(860.261719 0)"/>
     <use xlink:href="#DejaVuSans-2d" transform="translate(892.048828 0)"/>
     <use xlink:href="#DejaVuSans-20" transform="translate(928.132812 0)"/>
     <use xlink:href="#DejaVuSans-76" transform="translate(959.919922 0)"/>
     <use xlink:href="#DejaVuSans-30" transform="translate(1019.099609 0)"/>
     <use xlink:href="#DejaVuSans-30" transform="translate(1082.722656 0)"/>
     <use xlink:href="#DejaVuSans-31" transform="translate(1146.345703 0)"/>
     <use xlink:href="#DejaVuSans-2f" transform="translate(1209.96875 0)"/>
     <use xlink:href="#DejaVuSans-63" transform="translate(1243.660156 0)"/>
     <use xlink:href="#DejaVuSans-30" transform="translate(1298.640625 0)"/>
     <use xlink:href="#DejaVuSans-30" transform="translate(1362.263672 0)"/>
     <use xlink:href="#DejaVuSans-30" transform="translate(1425.886719 0)"/>
     <use xlink:href="#DejaVuSans-30" transform="translate(1489.509766 0)"/>
     <use xlink:href="#DejaVuSans-34" transform="translate(1553.132812 0)"/>
     <use xlink:href="#DejaVuSans-2f" transform="translate(1616.755859 0)"/>
     <use xlink:href="#DejaVuSans-64" transform="translate(1650.447266 0)"/>
     <use xlink:href="#DejaVuSans-30" transform="translate(1713.923828 0)"/>
     <use xlink:href="#DejaVuSans-30" transform="translate(1777.546875 0)"/>
     <use xlink:href="#DejaVuSans-31" transform="translate(1841.169922 0)"/>
    </g>
   </g>
   <g id="legend_1">
    <g id="patch_7">
     <path d="M 304.563125 241.04 
L 455.506875 241.04 
Q 457.506875 241.04 457.506875 239.04 
L 457.506875 196.005625 
Q 457.506875 194.005625 455.506875 194.005625 
L 304.563125 194.005625 
Q 302.563125 194.005625 302.563125 196.005625 
L 302.563125 239.04 
Q 302.563125 241.04 304.563125 241.04 
z
" style="fill: #ffffff; opacity: 0.8; stroke: #cccccc; stroke-linejoin: miter"/>
    </g>
    <g id="line2d_15">
     <path d="M 306.563125 202.104062 
L 316.563125 202.104062 
L 326.563125 202.104062 
" style="fill: none; stroke: #1f77b4; stroke-width: 2; stroke-linecap: square"/>
    </g>
    <g id="text_16">
     <!-- Hive -->
     <g transform="translate(334.563125 205.604062) scale(0.1 -0.1)">
      <defs>
       <path id="DejaVuSans-48" d="M 628 4666 
L 1259 4666 
L 1259 2753 
L 3553 2753 
L 3553 4666 
L 4184 4666 
L 4184 0 
L 3553 0 
L 3553 2222 
L 1259 2222 
L 1259 0 
L 628 0 
L 628 4666 
z
" transform="scale(0.015625)"/>
      </defs>
      <use xlink:href="#DejaVuSans-48"/>
      <use xlink:href="#DejaVuSans-69" transform="translate(75.195312 0)"/>
      <use xlink:href="#DejaVuSans-76" transform="translate(102.978516 0)"/>
      <use xlink:href="#DejaVuSans-65" transform="translate(162.158203 0)"/>
     </g>
    </g>
    <g id="line2d_16">
     <path d="M 306.563125 216.782187 
L 316.563125 216.782187 
L 326.563125 216.782187 
" style="fill: none; stroke-dasharray: 5.55,2.4; stroke-dashoffset: 0; stroke: #808080; stroke-width: 1.5"/>
    </g>
    <g id="text_17">
     <!-- Gemiddelde (alle hives) -->
     <g transform="translate(334.563125 220.282187) scale(0.1 -0.1)">
      <defs>
       <path id="DejaVuSans-47" d="M 3809 666 
L 3809 1919 
L 2778 1919 
L 2778 2438 
L 4434 2438 
L 4434 434 
Q 4069 175 3628 42 
Q 3188 -91 2688 -91 
Q 1594 -91 976 548 
Q 359 1188 359 2328 
Q 359 3472 976 4111 
Q 1594 4750 2688 4750 
Q 3144 4750 3555 4637 
Q 3966 4525 4313 4306 
L 4313 3634 
Q 3963 3931 3569 4081 
Q 3175 4231 2741 4231 
Q 1884 4231 1454 3753 
Q 1025 3275 1025 2328 
Q 1025 1384 1454 906 
Q 1884 428 2741 428 
Q 3075 428 3337 486 
Q 3600 544 3809 666 
z
" transform="scale(0.015625)"/>
       <path id="DejaVuSans-6d" d="M 3328 2828 
Q 3544 3216 3844 3400 
Q 4144 3584 4550 3584 
Q 5097 3584 5394 3201 
Q 5691 2819 5691 2113 
L 5691 0 
L 5113 0 
L 5113 2094 
Q 5113 2597 4934 2840 
Q 4756 3084 4391 3084 
Q 3944 3084 3684 2787 
Q 3425 2491 3425 1978 
L 3425 0 
L 2847 0 
L 2847 2094 
Q 2847 2600 2669 2842 
Q 2491 3084 2119 3084 
Q 1678 3084 1418 2786 
Q 1159 2488 1159 1978 
L 1159 0 
L 581 0 
L 581 3500 
L 1159 3500 
L 1159 2956 
Q 1356 3278 1631 3431 
Q 1906 3584 2284 3584 
Q 2666 3584 2933 3390 
Q 3200 3197 3328 2828 
z
" transform="scale(0.015625)"/>
       <path id="DejaVuSans-61" d="M 2194 1759 
Q 1497 1759 1228 1600 
Q 959 1441 959 1056 
Q 959 750 1161 570 
Q 1363 391 1709 391 
Q 2188 391 2477 730 
Q 2766 1069 2766 1631 
L 2766 1759 
L 2194 1759 
z
M 3341 1997 
L 3341 0 
L 2766 0 
L 2766 531 
Q 2569 213 2275 61 
Q 1981 -91 1556 -91 
Q 1019 -91 701 211 
Q 384 513 384 1019 
Q 384 1609 779 1909 
Q 1175 2209 1959 2209 
L 2766 2209 
L 2766 2266 
Q 2766 2663 2505 2880 
Q 2244 3097 1772 3097 
Q 1472 3097 1187 3025 
Q 903 2953 641 2809 
L 641 3341 
Q 956 3463 1253 3523 
Q 1550 3584 1831 3584 
Q 2591 3584 2966 3190 
Q 3341 2797 3341 1997 
z
" transform="scale(0.015625)"/>
       <path id="DejaVuSans-73" d="M 2834 3397 
L 2834 2853 
Q 2591 2978 2328 3040 
Q 2066 3103 1784 3103 
Q 1356 3103 1142 2972 
Q 928 2841 928 2578 
Q 928 2378 1081 2264 
Q 1234 2150 1697 2047 
L 1894 2003 
Q 2506 1872 2764 1633 
Q 3022 1394 3022 966 
Q 3022 478 2636 193 
Q 2250 -91 1575 -91 
Q 1294 -91 989 -36 
Q 684 19 347 128 
L 347 722 
Q 666 556 975 473 
Q 1284 391 1588 391 
Q 1994 391 2212 530 
Q 2431 669 2431 922 
Q 2431 1156 2273 1281 
Q 2116 1406 1581 1522 
L 1381 1569 
Q 847 1681 609 1914 
Q 372 2147 372 2553 
Q 372 3047 722 3315 
Q 1072 3584 1716 3584 
Q 2034 3584 2315 3537 
Q 2597 3491 2834 3397 
z
" transform="scale(0.015625)"/>
      </defs>
      <use xlink:href="#DejaVuSans-47"/>
      <use xlink:href="#DejaVuSans-65" transform="translate(77.490234 0)"/>
      <use xlink:href="#DejaVuSans-6d" transform="translate(139.013672 0)"/>
      <use xlink:href="#DejaVuSans-69" transform="translate(236.425781 0)"/>
      <use xlink:href="#DejaVuSans-64" transform="translate(264.208984 0)"/>
      <use xlink:href="#DejaVuSans-64" transform="translate(327.685547 0)"/>
      <use xlink:href="#DejaVuSans-65" transform="translate(391.162109 0)"/>
      <use xlink:href="#DejaVuSans-6c" transform="translate(452.685547 0)"/>
      <use xlink:href="#DejaVuSans-64" transform="translate(480.46875 0)"/>
      <use xlink:href="#DejaVuSans-65" transform="translate(543.945312 0)"/>
      <use xlink:href="#DejaVuSans-20" transform="translate(605.46875 0)"/>
      <use xlink:href="#DejaVuSans-28" transform="translate(637.255859 0)"/>
      <use xlink:href="#DejaVuSans-61" transform="translate(676.269531 0)"/>
      <use xlink:href="#DejaVuSans-6c" transform="translate(737.548828 0)"/>
      <use xlink:href="#DejaVuSans-6c" transform="translate(765.332031 0)"/>
      <use xlink:href="#DejaVuSans-65" transform="translate(793.115234 0)"/>
      <use xlink:href="#DejaVuSans-20" transform="translate(854.638672 0)"/>
      <use xlink:href="#DejaVuSans-68" transform="translate(886.425781 0)"/>
      <use xlink:href="#DejaVuSans-69" transform="translate(949.804688 0)"/>
      <use xlink:href="#DejaVuSans-76" transform="translate(977.587891 0)"/>
      <use xlink:href="#DejaVuSans-65" transform="translate(1036.767578 0)"/>
      <use xlink:href="#DejaVuSans-73" transform="translate(1098.291016 0)"/>
      <use xlink:href="#DejaVuSans-29" transform="translate(1150.390625 0)"/>
     </g>
    </g>
    <g id="patch_8">
     <path d="M 306.563125 234.960312 
L 326.563125 234.960312 
L 326.563125 227.960312 
L 306.563125 227.960312 
z
" style="fill: #808080; fill-opacity: 0.2; stroke: #808080; stroke-opacity: 0.2; stroke-linejoin: miter"/>
    </g>
    <g id="text_18">
     <!-- 2 Std Dev -->
     <g transform="translate(334.563125 234.960312) scale(0.1 -0.1)">
      <defs>
       <path id="DejaVuSans-b1" d="M 2944 4013 
L 2944 2803 
L 4684 2803 
L 4684 2272 
L 2944 2272 
L 2944 1063 
L 2419 1063 
L 2419 2272 
L 678 2272 
L 678 2803 
L 2419 2803 
L 2419 4013 
L 2944 4013 
z
M 678 531 
L 4684 531 
L 4684 0 
L 678 0 
L 678 531 
z
" transform="scale(0.015625)"/>
       <path id="DejaVuSans-53" d="M 3425 4513 
L 3425 3897 
Q 3066 4069 2747 4153 
Q 2428 4238 2131 4238 
Q 1616 4238 1336 4038 
Q 1056 3838 1056 3469 
Q 1056 3159 1242 3001 
Q 1428 2844 1947 2747 
L 2328 2669 
Q 3034 2534 3370 2195 
Q 3706 1856 3706 1288 
Q 3706 609 3251 259 
Q 2797 -91 1919 -91 
Q 1588 -91 1214 -16 
Q 841 59 441 206 
L 441 856 
Q 825 641 1194 531 
Q 1563 422 1919 422 
Q 2459 422 2753 634 
Q 3047 847 3047 1241 
Q 3047 1584 2836 1778 
Q 2625 1972 2144 2069 
L 1759 2144 
Q 1053 2284 737 2584 
Q 422 2884 422 3419 
Q 422 4038 858 4394 
Q 1294 4750 2059 4750 
Q 2388 4750 2728 4690 
Q 3069 4631 3425 4513 
z
" transform="scale(0.015625)"/>
       <path id="DejaVuSans-44" d="M 1259 4147 
L 1259 519 
L 2022 519 
Q 2988 519 3436 956 
Q 3884 1394 3884 2338 
Q 3884 3275 3436 3711 
Q 2988 4147 2022 4147 
L 1259 4147 
z
M 628 4666 
L 1925 4666 
Q 3281 4666 3915 4102 
Q 4550 3538 4550 2338 
Q 4550 1131 3912 565 
Q 3275 0 1925 0 
L 628 0 
L 628 4666 
z
" transform="scale(0.015625)"/>
      </defs>
      <use xlink:href="#DejaVuSans-b1"/>
      <use xlink:href="#DejaVuSans-32" transform="translate(83.789062 0)"/>
      <use xlink:href="#DejaVuSans-20" transform="translate(147.412109 0)"/>
      <use xlink:href="#DejaVuSans-53" transform="translate(179.199219 0)"/>
      <use xlink:href="#DejaVuSans-74" transform="translate(242.675781 0)"/>
      <use xlink:href="#DejaVuSans-64" transform="translate(281.884766 0)"/>
      <use xlink:href="#DejaVuSans-20" transform="translate(345.361328 0)"/>
      <use xlink:href="#DejaVuSans-44" transform="translate(377.148438 0)"/>
      <use xlink:href="#DejaVuSans-65" transform="translate(454.150391 0)"/>
      <use xlink:href="#DejaVuSans-76" transform="translate(515.673828 0)"/>
     </g>
    </g>
   </g>
  </g>
 </g>
 <defs>
  <clipPath id="pfd0f404b85">
   <rect x="50.87" y="26.88" width="658.33" height="219.16"/>
  </clipPath>
 </defs>
</svg>
