<?xml version="1.0" encoding="utf-8" standalone="no"?>
<!DOCTYPE svg PUBLIC "-//W3C//DTD SVG 1.1//EN"
  "http://www.w3.org/Graphics/SVG/1.1/DTD/svg11.dtd">
<svg xmlns:xlink="http://www.w3.org/1999/xlink" width="720pt" height="288pt" viewBox="0 0 720 288" xmlns="http://www.w3.org/2000/svg" version="1.1">
 <metadata>
  <rdf:RDF xmlns:dc="http://purl.org/dc/elements/1.1/" xmlns:cc="http://creativecommons.org/ns#" xmlns:rdf="http://www.w3.org/1999/02/22-rdf-syntax-ns#">
   <cc:Work>
    <dc:type rdf:resource="http://purl.org/dc/dcmitype/StillImage"/>
    <dc:date>2025-05-16T09:17:21.714000</dc:date>
    <dc:format>image/svg+xml</dc:format>
    <dc:creator>
     <cc:Agent>
      <dc:title>Matplotlib v3.10.3, https://matplotlib.org/</dc:title>
     </cc:Agent>
    </dc:creator>
   </cc:Work>
  </rdf:RDF>
 </metadata>
 <defs>
  <style type="text/css">*{stroke-linejoin: round; stroke-linecap: butt}</style>
 </defs>
 <g id="figure_1">
  <g id="patch_1">
   <path d="M 0 288 
L 720 288 
L 720 0 
L 0 0 
z
" style="fill: #ffffff"/>
  </g>
  <g id="axes_1">
   <g id="patch_2">
    <path d="M 71.84 246.04 
L 709.2 246.04 
L 709.2 26.88 
L 71.84 26.88 
z
" style="fill: #ffffff"/>
   </g>
   <g id="FillBetweenPolyCollection_1">
    <path d="M 100.810909 167.069353 
L 100.810909 170.348517 
L 104.597956 171.928491 
L 108.385003 170.135587 
L 112.17205 171.319697 
L 115.959097 169.677347 
L 119.746144 170.30913 
L 123.533191 216.339138 
L 127.320238 221.469139 
L 131.107285 236.078182 
L 131.107285 37.807301 
L 131.107285 37.807301 
L 127.320238 75.353464 
L 123.533191 74.580438 
L 119.746144 165.152602 
L 115.959097 165.569935 
L 112.17205 165.191154 
L 108.385003 165.485588 
L 104.597956 162.928282 
L 100.810909 167.069353 
z
" clip-path="url(#p4108fad183)" style="fill: #808080; fill-opacity: 0.2; stroke: #808080; stroke-opacity: 0.2"/>
    <path d="M 138.681378 37.697186 
L 138.681378 196.025368 
L 142.468425 205.263073 
L 146.255472 214.712852 
L 150.042519 219.208176 
L 153.829566 216.795995 
L 157.616613 211.857663 
L 161.40366 213.599777 
L 165.190707 218.564148 
L 168.977754 215.191309 
L 172.764801 192.030729 
L 176.551848 184.080797 
L 180.338895 173.511077 
L 184.125942 174.02651 
L 187.912989 180.179215 
L 191.700036 172.324883 
L 195.487083 171.879626 
L 199.27413 171.434831 
L 203.061176 171.014882 
L 206.848223 170.686127 
L 210.63527 170.607094 
L 214.422317 170.604856 
L 218.209364 170.604856 
L 221.996411 170.604856 
L 225.783458 170.604856 
L 229.570505 170.604856 
L 233.357552 170.604856 
L 237.144599 170.606657 
L 240.931646 170.639138 
L 244.718693 170.756899 
L 248.50574 170.916509 
L 252.292787 171.096621 
L 256.079834 171.338627 
L 259.866881 171.602226 
L 263.653928 172.151571 
L 267.440974 172.530925 
L 271.228021 172.874317 
L 275.015068 172.512918 
L 278.802115 171.815874 
L 282.589162 171.100807 
L 286.376209 171.495523 
L 290.163256 171.988577 
L 293.950303 172.500159 
L 297.73735 172.623321 
L 301.524397 172.986843 
L 305.311444 188.523599 
L 309.098491 200.120983 
L 312.885538 200.857786 
L 316.672585 214.683611 
L 320.459632 216.488898 
L 324.246679 215.401789 
L 328.033725 213.666693 
L 331.820772 208.629852 
L 335.607819 209.982268 
L 339.394866 224.696573 
L 343.181913 220.844042 
L 346.96896 215.174342 
L 350.756007 216.857946 
L 354.543054 194.444374 
L 358.330101 175.735833 
L 362.117148 172.832878 
L 365.904195 173.314218 
L 369.691242 172.966119 
L 373.478289 172.059013 
L 377.265336 171.212845 
L 381.052383 170.895524 
L 384.83943 170.67484 
L 388.626477 170.608239 
L 392.413523 170.604856 
L 396.20057 170.604856 
L 399.987617 170.604856 
L 403.774664 170.604856 
L 407.561711 170.604856 
L 411.348758 170.604856 
L 415.135805 170.604856 
L 418.922852 170.606086 
L 422.709899 170.635079 
L 426.496946 170.762423 
L 430.283993 170.933743 
L 434.07104 172.431443 
L 437.858087 172.558636 
L 441.645134 174.702486 
L 445.432181 178.127246 
L 449.219228 172.805821 
L 453.006275 191.614142 
L 456.793321 171.836515 
L 460.580368 178.41238 
L 464.367415 170.868131 
L 468.154462 195.879212 
L 471.941509 170.290903 
L 475.728556 180.287679 
L 479.515603 214.602728 
L 483.30265 217.907784 
L 487.089697 215.801958 
L 490.876744 204.715941 
L 494.663791 211.525233 
L 498.450838 224.149604 
L 502.237885 221.92051 
L 506.024932 213.562779 
L 509.811979 207.652533 
L 513.599026 210.866114 
L 517.386072 218.566895 
L 521.173119 222.288144 
L 524.960166 222.466501 
L 528.747213 217.159001 
L 532.53426 216.936051 
L 536.321307 196.05798 
L 540.108354 194.940271 
L 543.895401 184.80728 
L 547.682448 174.245025 
L 551.469495 175.677887 
L 555.256542 172.582474 
L 559.043589 172.194617 
L 562.830636 171.873145 
L 566.617683 171.445657 
L 570.40473 171.092699 
L 574.191777 170.729505 
L 577.978824 170.609877 
L 581.76587 170.604856 
L 585.552917 170.604856 
L 589.339964 170.604856 
L 593.127011 170.604856 
L 596.914058 170.604856 
L 600.701105 170.605691 
L 604.488152 170.647273 
L 608.275199 170.853005 
L 612.062246 171.108406 
L 615.849293 171.354619 
L 619.63634 171.621683 
L 623.423387 171.653761 
L 627.210434 181.979 
L 630.997481 182.36926 
L 634.784528 174.330971 
L 638.571575 198.572139 
L 642.358622 171.880031 
L 646.145668 170.809287 
L 649.932715 171.783015 
L 653.719762 171.119055 
L 657.506809 171.371367 
L 661.293856 171.891837 
L 665.080903 171.178241 
L 668.86795 172.332283 
L 672.654997 167.067636 
L 672.654997 158.95266 
L 672.654997 158.95266 
L 668.86795 152.772847 
L 665.080903 156.811083 
L 661.293856 159.288179 
L 657.506809 162.748649 
L 653.719762 161.867272 
L 649.932715 162.226752 
L 646.145668 163.56107 
L 642.358622 162.723799 
L 638.571575 123.232269 
L 634.784528 161.295858 
L 630.997481 149.295745 
L 627.210434 149.586381 
L 623.423387 167.244803 
L 619.63634 167.938767 
L 615.849293 168.724623 
L 612.062246 169.496376 
L 608.275199 170.113268 
L 604.488152 170.525823 
L 600.701105 170.603321 
L 596.914058 170.604856 
L 593.127011 170.604856 
L 589.339964 170.604856 
L 585.552917 170.604856 
L 581.76587 170.604856 
L 577.978824 170.59726 
L 574.191777 170.416268 
L 570.40473 169.858737 
L 566.617683 169.249434 
L 562.830636 168.456367 
L 559.043589 167.801762 
L 555.256542 166.829549 
L 551.469495 161.374627 
L 547.682448 163.331041 
L 543.895401 146.75388 
L 540.108354 129.303178 
L 536.321307 118.033269 
L 532.53426 76.918557 
L 528.747213 71.476722 
L 524.960166 62.887703 
L 521.173119 59.996138 
L 517.386072 59.484408 
L 513.599026 79.615434 
L 509.811979 82.578641 
L 506.024932 49.924685 
L 502.237885 49.606584 
L 498.450838 53.486542 
L 494.663791 78.602634 
L 490.876744 107.228739 
L 487.089697 87.886667 
L 483.30265 87.559339 
L 479.515603 91.454713 
L 475.728556 145.559542 
L 471.941509 162.143737 
L 468.154462 123.025983 
L 464.367415 164.063737 
L 460.580368 152.576797 
L 456.793321 163.899618 
L 453.006275 134.830368 
L 449.219228 164.495396 
L 445.432181 156.399949 
L 441.645134 162.528297 
L 437.858087 166.702469 
L 434.07104 167.550589 
L 430.283993 169.900046 
L 426.496946 170.289079 
L 422.709899 170.55011 
L 418.922852 170.602702 
L 415.135805 170.604856 
L 411.348758 170.604856 
L 407.561711 170.604856 
L 403.774664 170.604856 
L 399.987617 170.604856 
L 396.20057 170.604856 
L 392.413523 170.604856 
L 388.626477 170.599525 
L 384.83943 170.49456 
L 381.052383 170.146759 
L 377.265336 169.646658 
L 373.478289 168.313084 
L 369.691242 166.881688 
L 365.904195 166.26706 
L 362.117148 166.670631 
L 358.330101 161.285031 
L 354.543054 120.104485 
L 350.756007 79.285121 
L 346.96896 75.992229 
L 343.181913 66.335313 
L 339.394866 59.475357 
L 335.607819 81.531126 
L 331.820772 87.331349 
L 328.033725 71.810168 
L 324.246679 36.841818 
L 320.459632 42.873338 
L 316.672585 64.930536 
L 312.885538 95.128317 
L 309.098491 109.886371 
L 305.311444 129.526535 
L 301.524397 154.150472 
L 297.73735 156.933467 
L 293.950303 159.516162 
L 290.163256 161.381665 
L 286.376209 163.256187 
L 282.589162 164.797526 
L 278.802115 165.135133 
L 275.015068 165.041452 
L 271.228021 165.191133 
L 267.440974 166.000422 
L 263.653928 166.711006 
L 259.866881 167.34649 
L 256.079834 168.429402 
L 252.292787 169.111129 
L 248.50574 169.854363 
L 244.718693 170.317531 
L 240.931646 170.548403 
L 237.144599 170.602131 
L 233.357552 170.604856 
L 229.570505 170.604856 
L 225.783458 170.604856 
L 221.996411 170.604856 
L 218.209364 170.604856 
L 214.422317 170.604856 
L 210.63527 170.601471 
L 206.848223 170.478794 
L 203.061176 169.930535 
L 199.27413 169.146407 
L 195.487083 168.282396 
L 191.700036 167.34956 
L 187.912989 154.512699 
L 184.125942 163.936355 
L 180.338895 164.571212 
L 176.551848 143.434247 
L 172.764801 130.28561 
L 168.977754 80.634134 
L 165.190707 73.935069 
L 161.40366 65.243319 
L 157.616613 86.781119 
L 153.829566 50.689999 
L 150.042519 50.53821 
L 146.255472 71.252006 
L 142.468425 44.230203 
L 138.681378 37.697186 
z
" clip-path="url(#p4108fad183)" style="fill: #808080; fill-opacity: 0.2; stroke: #808080; stroke-opacity: 0.2"/>
   </g>
   <g id="matplotlib.axis_1">
    <g id="xtick_1">
     <g id="line2d_1">
      <defs>
       <path id="m719c227363" d="M 0 0 
L 0 3.5 
" style="stroke: #000000; stroke-width: 0.8"/>
      </defs>
      <g>
       <use xlink:href="#m719c227363" x="123.533191" y="246.04" style="stroke: #000000; stroke-width: 0.8"/>
      </g>
     </g>
     <g id="text_1">
      <!-- 05-13 12 -->
      <g transform="translate(101.052722 260.638438) scale(0.1 -0.1)">
       <defs>
        <path id="DejaVuSans-30" d="M 2034 4250 
Q 1547 4250 1301 3770 
Q 1056 3291 1056 2328 
Q 1056 1369 1301 889 
Q 1547 409 2034 409 
Q 2525 409 2770 889 
Q 3016 1369 3016 2328 
Q 3016 3291 2770 3770 
Q 2525 4250 2034 4250 
z
M 2034 4750 
Q 2819 4750 3233 4129 
Q 3647 3509 3647 2328 
Q 3647 1150 3233 529 
Q 2819 -91 2034 -91 
Q 1250 -91 836 529 
Q 422 1150 422 2328 
Q 422 3509 836 4129 
Q 1250 4750 2034 4750 
z
" transform="scale(0.015625)"/>
        <path id="DejaVuSans-35" d="M 691 4666 
L 3169 4666 
L 3169 4134 
L 1269 4134 
L 1269 2991 
Q 1406 3038 1543 3061 
Q 1681 3084 1819 3084 
Q 2600 3084 3056 2656 
Q 3513 2228 3513 1497 
Q 3513 744 3044 326 
Q 2575 -91 1722 -91 
Q 1428 -91 1123 -41 
Q 819 9 494 109 
L 494 744 
Q 775 591 1075 516 
Q 1375 441 1709 441 
Q 2250 441 2565 725 
Q 2881 1009 2881 1497 
Q 2881 1984 2565 2268 
Q 2250 2553 1709 2553 
Q 1456 2553 1204 2497 
Q 953 2441 691 2322 
L 691 4666 
z
" transform="scale(0.015625)"/>
        <path id="DejaVuSans-2d" d="M 313 2009 
L 1997 2009 
L 1997 1497 
L 313 1497 
L 313 2009 
z
" transform="scale(0.015625)"/>
        <path id="DejaVuSans-31" d="M 794 531 
L 1825 531 
L 1825 4091 
L 703 3866 
L 703 4441 
L 1819 4666 
L 2450 4666 
L 2450 531 
L 3481 531 
L 3481 0 
L 794 0 
L 794 531 
z
" transform="scale(0.015625)"/>
        <path id="DejaVuSans-33" d="M 2597 2516 
Q 3050 2419 3304 2112 
Q 3559 1806 3559 1356 
Q 3559 666 3084 287 
Q 2609 -91 1734 -91 
Q 1441 -91 1130 -33 
Q 819 25 488 141 
L 488 750 
Q 750 597 1062 519 
Q 1375 441 1716 441 
Q 2309 441 2620 675 
Q 2931 909 2931 1356 
Q 2931 1769 2642 2001 
Q 2353 2234 1838 2234 
L 1294 2234 
L 1294 2753 
L 1863 2753 
Q 2328 2753 2575 2939 
Q 2822 3125 2822 3475 
Q 2822 3834 2567 4026 
Q 2313 4219 1838 4219 
Q 1578 4219 1281 4162 
Q 984 4106 628 3988 
L 628 4550 
Q 988 4650 1302 4700 
Q 1616 4750 1894 4750 
Q 2613 4750 3031 4423 
Q 3450 4097 3450 3541 
Q 3450 3153 3228 2886 
Q 3006 2619 2597 2516 
z
" transform="scale(0.015625)"/>
        <path id="DejaVuSans-20" transform="scale(0.015625)"/>
        <path id="DejaVuSans-32" d="M 1228 531 
L 3431 531 
L 3431 0 
L 469 0 
L 469 531 
Q 828 903 1448 1529 
Q 2069 2156 2228 2338 
Q 2531 2678 2651 2914 
Q 2772 3150 2772 3378 
Q 2772 3750 2511 3984 
Q 2250 4219 1831 4219 
Q 1534 4219 1204 4116 
Q 875 4013 500 3803 
L 500 4441 
Q 881 4594 1212 4672 
Q 1544 4750 1819 4750 
Q 2544 4750 2975 4387 
Q 3406 4025 3406 3419 
Q 3406 3131 3298 2873 
Q 3191 2616 2906 2266 
Q 2828 2175 2409 1742 
Q 1991 1309 1228 531 
z
" transform="scale(0.015625)"/>
       </defs>
       <use xlink:href="#DejaVuSans-30"/>
       <use xlink:href="#DejaVuSans-35" transform="translate(63.623047 0)"/>
       <use xlink:href="#DejaVuSans-2d" transform="translate(127.246094 0)"/>
       <use xlink:href="#DejaVuSans-31" transform="translate(163.330078 0)"/>
       <use xlink:href="#DejaVuSans-33" transform="translate(226.953125 0)"/>
       <use xlink:href="#DejaVuSans-20" transform="translate(290.576172 0)"/>
       <use xlink:href="#DejaVuSans-31" transform="translate(322.363281 0)"/>
       <use xlink:href="#DejaVuSans-32" transform="translate(385.986328 0)"/>
      </g>
     </g>
    </g>
    <g id="xtick_2">
     <g id="line2d_2">
      <g>
       <use xlink:href="#m719c227363" x="214.422317" y="246.04" style="stroke: #000000; stroke-width: 0.8"/>
      </g>
     </g>
     <g id="text_2">
      <!-- 05-14 00 -->
      <g transform="translate(191.941849 260.638438) scale(0.1 -0.1)">
       <defs>
        <path id="DejaVuSans-34" d="M 2419 4116 
L 825 1625 
L 2419 1625 
L 2419 4116 
z
M 2253 4666 
L 3047 4666 
L 3047 1625 
L 3713 1625 
L 3713 1100 
L 3047 1100 
L 3047 0 
L 2419 0 
L 2419 1100 
L 313 1100 
L 313 1709 
L 2253 4666 
z
" transform="scale(0.015625)"/>
       </defs>
       <use xlink:href="#DejaVuSans-30"/>
       <use xlink:href="#DejaVuSans-35" transform="translate(63.623047 0)"/>
       <use xlink:href="#DejaVuSans-2d" transform="translate(127.246094 0)"/>
       <use xlink:href="#DejaVuSans-31" transform="translate(163.330078 0)"/>
       <use xlink:href="#DejaVuSans-34" transform="translate(226.953125 0)"/>
       <use xlink:href="#DejaVuSans-20" transform="translate(290.576172 0)"/>
       <use xlink:href="#DejaVuSans-30" transform="translate(322.363281 0)"/>
       <use xlink:href="#DejaVuSans-30" transform="translate(385.986328 0)"/>
      </g>
     </g>
    </g>
    <g id="xtick_3">
     <g id="line2d_3">
      <g>
       <use xlink:href="#m719c227363" x="305.311444" y="246.04" style="stroke: #000000; stroke-width: 0.8"/>
      </g>
     </g>
     <g id="text_3">
      <!-- 05-14 12 -->
      <g transform="translate(282.830975 260.638438) scale(0.1 -0.1)">
       <use xlink:href="#DejaVuSans-30"/>
       <use xlink:href="#DejaVuSans-35" transform="translate(63.623047 0)"/>
       <use xlink:href="#DejaVuSans-2d" transform="translate(127.246094 0)"/>
       <use xlink:href="#DejaVuSans-31" transform="translate(163.330078 0)"/>
       <use xlink:href="#DejaVuSans-34" transform="translate(226.953125 0)"/>
       <use xlink:href="#DejaVuSans-20" transform="translate(290.576172 0)"/>
       <use xlink:href="#DejaVuSans-31" transform="translate(322.363281 0)"/>
       <use xlink:href="#DejaVuSans-32" transform="translate(385.986328 0)"/>
      </g>
     </g>
    </g>
    <g id="xtick_4">
     <g id="line2d_4">
      <g>
       <use xlink:href="#m719c227363" x="396.20057" y="246.04" style="stroke: #000000; stroke-width: 0.8"/>
      </g>
     </g>
     <g id="text_4">
      <!-- 05-15 00 -->
      <g transform="translate(373.720102 260.638438) scale(0.1 -0.1)">
       <use xlink:href="#DejaVuSans-30"/>
       <use xlink:href="#DejaVuSans-35" transform="translate(63.623047 0)"/>
       <use xlink:href="#DejaVuSans-2d" transform="translate(127.246094 0)"/>
       <use xlink:href="#DejaVuSans-31" transform="translate(163.330078 0)"/>
       <use xlink:href="#DejaVuSans-35" transform="translate(226.953125 0)"/>
       <use xlink:href="#DejaVuSans-20" transform="translate(290.576172 0)"/>
       <use xlink:href="#DejaVuSans-30" transform="translate(322.363281 0)"/>
       <use xlink:href="#DejaVuSans-30" transform="translate(385.986328 0)"/>
      </g>
     </g>
    </g>
    <g id="xtick_5">
     <g id="line2d_5">
      <g>
       <use xlink:href="#m719c227363" x="487.089697" y="246.04" style="stroke: #000000; stroke-width: 0.8"/>
      </g>
     </g>
     <g id="text_5">
      <!-- 05-15 12 -->
      <g transform="translate(464.609228 260.638438) scale(0.1 -0.1)">
       <use xlink:href="#DejaVuSans-30"/>
       <use xlink:href="#DejaVuSans-35" transform="translate(63.623047 0)"/>
       <use xlink:href="#DejaVuSans-2d" transform="translate(127.246094 0)"/>
       <use xlink:href="#DejaVuSans-31" transform="translate(163.330078 0)"/>
       <use xlink:href="#DejaVuSans-35" transform="translate(226.953125 0)"/>
       <use xlink:href="#DejaVuSans-20" transform="translate(290.576172 0)"/>
       <use xlink:href="#DejaVuSans-31" transform="translate(322.363281 0)"/>
       <use xlink:href="#DejaVuSans-32" transform="translate(385.986328 0)"/>
      </g>
     </g>
    </g>
    <g id="xtick_6">
     <g id="line2d_6">
      <g>
       <use xlink:href="#m719c227363" x="577.978824" y="246.04" style="stroke: #000000; stroke-width: 0.8"/>
      </g>
     </g>
     <g id="text_6">
      <!-- 05-16 00 -->
      <g transform="translate(555.498355 260.638438) scale(0.1 -0.1)">
       <defs>
        <path id="DejaVuSans-36" d="M 2113 2584 
Q 1688 2584 1439 2293 
Q 1191 2003 1191 1497 
Q 1191 994 1439 701 
Q 1688 409 2113 409 
Q 2538 409 2786 701 
Q 3034 994 3034 1497 
Q 3034 2003 2786 2293 
Q 2538 2584 2113 2584 
z
M 3366 4563 
L 3366 3988 
Q 3128 4100 2886 4159 
Q 2644 4219 2406 4219 
Q 1781 4219 1451 3797 
Q 1122 3375 1075 2522 
Q 1259 2794 1537 2939 
Q 1816 3084 2150 3084 
Q 2853 3084 3261 2657 
Q 3669 2231 3669 1497 
Q 3669 778 3244 343 
Q 2819 -91 2113 -91 
Q 1303 -91 875 529 
Q 447 1150 447 2328 
Q 447 3434 972 4092 
Q 1497 4750 2381 4750 
Q 2619 4750 2861 4703 
Q 3103 4656 3366 4563 
z
" transform="scale(0.015625)"/>
       </defs>
       <use xlink:href="#DejaVuSans-30"/>
       <use xlink:href="#DejaVuSans-35" transform="translate(63.623047 0)"/>
       <use xlink:href="#DejaVuSans-2d" transform="translate(127.246094 0)"/>
       <use xlink:href="#DejaVuSans-31" transform="translate(163.330078 0)"/>
       <use xlink:href="#DejaVuSans-36" transform="translate(226.953125 0)"/>
       <use xlink:href="#DejaVuSans-20" transform="translate(290.576172 0)"/>
       <use xlink:href="#DejaVuSans-30" transform="translate(322.363281 0)"/>
       <use xlink:href="#DejaVuSans-30" transform="translate(385.986328 0)"/>
      </g>
     </g>
    </g>
    <g id="xtick_7">
     <g id="line2d_7">
      <g>
       <use xlink:href="#m719c227363" x="668.86795" y="246.04" style="stroke: #000000; stroke-width: 0.8"/>
      </g>
     </g>
     <g id="text_7">
      <!-- 05-16 12 -->
      <g transform="translate(646.387481 260.638438) scale(0.1 -0.1)">
       <use xlink:href="#DejaVuSans-30"/>
       <use xlink:href="#DejaVuSans-35" transform="translate(63.623047 0)"/>
       <use xlink:href="#DejaVuSans-2d" transform="translate(127.246094 0)"/>
       <use xlink:href="#DejaVuSans-31" transform="translate(163.330078 0)"/>
       <use xlink:href="#DejaVuSans-36" transform="translate(226.953125 0)"/>
       <use xlink:href="#DejaVuSans-20" transform="translate(290.576172 0)"/>
       <use xlink:href="#DejaVuSans-31" transform="translate(322.363281 0)"/>
       <use xlink:href="#DejaVuSans-32" transform="translate(385.986328 0)"/>
      </g>
     </g>
    </g>
    <g id="text_8">
     <!-- Tijd -->
     <g transform="translate(381.67 274.316562) scale(0.1 -0.1)">
      <defs>
       <path id="DejaVuSans-54" d="M -19 4666 
L 3928 4666 
L 3928 4134 
L 2272 4134 
L 2272 0 
L 1638 0 
L 1638 4134 
L -19 4134 
L -19 4666 
z
" transform="scale(0.015625)"/>
       <path id="DejaVuSans-69" d="M 603 3500 
L 1178 3500 
L 1178 0 
L 603 0 
L 603 3500 
z
M 603 4863 
L 1178 4863 
L 1178 4134 
L 603 4134 
L 603 4863 
z
" transform="scale(0.015625)"/>
       <path id="DejaVuSans-6a" d="M 603 3500 
L 1178 3500 
L 1178 -63 
Q 1178 -731 923 -1031 
Q 669 -1331 103 -1331 
L -116 -1331 
L -116 -844 
L 38 -844 
Q 366 -844 484 -692 
Q 603 -541 603 -63 
L 603 3500 
z
M 603 4863 
L 1178 4863 
L 1178 4134 
L 603 4134 
L 603 4863 
z
" transform="scale(0.015625)"/>
       <path id="DejaVuSans-64" d="M 2906 2969 
L 2906 4863 
L 3481 4863 
L 3481 0 
L 2906 0 
L 2906 525 
Q 2725 213 2448 61 
Q 2172 -91 1784 -91 
Q 1150 -91 751 415 
Q 353 922 353 1747 
Q 353 2572 751 3078 
Q 1150 3584 1784 3584 
Q 2172 3584 2448 3432 
Q 2725 3281 2906 2969 
z
M 947 1747 
Q 947 1113 1208 752 
Q 1469 391 1925 391 
Q 2381 391 2643 752 
Q 2906 1113 2906 1747 
Q 2906 2381 2643 2742 
Q 2381 3103 1925 3103 
Q 1469 3103 1208 2742 
Q 947 2381 947 1747 
z
" transform="scale(0.015625)"/>
      </defs>
      <use xlink:href="#DejaVuSans-54"/>
      <use xlink:href="#DejaVuSans-69" transform="translate(57.958984 0)"/>
      <use xlink:href="#DejaVuSans-6a" transform="translate(85.742188 0)"/>
      <use xlink:href="#DejaVuSans-64" transform="translate(113.525391 0)"/>
     </g>
    </g>
   </g>
   <g id="matplotlib.axis_2">
    <g id="ytick_1">
     <g id="line2d_8">
      <defs>
       <path id="m7e87fa626d" d="M 0 0 
L -3.5 0 
" style="stroke: #000000; stroke-width: 0.8"/>
      </defs>
      <g>
       <use xlink:href="#m7e87fa626d" x="71.84" y="220.994792" style="stroke: #000000; stroke-width: 0.8"/>
      </g>
     </g>
     <g id="text_9">
      <!-- −20000 -->
      <g transform="translate(24.647813 224.794011) scale(0.1 -0.1)">
       <defs>
        <path id="DejaVuSans-2212" d="M 678 2272 
L 4684 2272 
L 4684 1741 
L 678 1741 
L 678 2272 
z
" transform="scale(0.015625)"/>
       </defs>
       <use xlink:href="#DejaVuSans-2212"/>
       <use xlink:href="#DejaVuSans-32" transform="translate(83.789062 0)"/>
       <use xlink:href="#DejaVuSans-30" transform="translate(147.412109 0)"/>
       <use xlink:href="#DejaVuSans-30" transform="translate(211.035156 0)"/>
       <use xlink:href="#DejaVuSans-30" transform="translate(274.658203 0)"/>
       <use xlink:href="#DejaVuSans-30" transform="translate(338.28125 0)"/>
      </g>
     </g>
    </g>
    <g id="ytick_2">
     <g id="line2d_9">
      <g>
       <use xlink:href="#m7e87fa626d" x="71.84" y="195.799824" style="stroke: #000000; stroke-width: 0.8"/>
      </g>
     </g>
     <g id="text_10">
      <!-- −10000 -->
      <g transform="translate(24.647813 199.599043) scale(0.1 -0.1)">
       <use xlink:href="#DejaVuSans-2212"/>
       <use xlink:href="#DejaVuSans-31" transform="translate(83.789062 0)"/>
       <use xlink:href="#DejaVuSans-30" transform="translate(147.412109 0)"/>
       <use xlink:href="#DejaVuSans-30" transform="translate(211.035156 0)"/>
       <use xlink:href="#DejaVuSans-30" transform="translate(274.658203 0)"/>
       <use xlink:href="#DejaVuSans-30" transform="translate(338.28125 0)"/>
      </g>
     </g>
    </g>
    <g id="ytick_3">
     <g id="line2d_10">
      <g>
       <use xlink:href="#m7e87fa626d" x="71.84" y="170.604856" style="stroke: #000000; stroke-width: 0.8"/>
      </g>
     </g>
     <g id="text_11">
      <!-- 0 -->
      <g transform="translate(58.4775 174.404075) scale(0.1 -0.1)">
       <use xlink:href="#DejaVuSans-30"/>
      </g>
     </g>
    </g>
    <g id="ytick_4">
     <g id="line2d_11">
      <g>
       <use xlink:href="#m7e87fa626d" x="71.84" y="145.409888" style="stroke: #000000; stroke-width: 0.8"/>
      </g>
     </g>
     <g id="text_12">
      <!-- 10000 -->
      <g transform="translate(33.0275 149.209107) scale(0.1 -0.1)">
       <use xlink:href="#DejaVuSans-31"/>
       <use xlink:href="#DejaVuSans-30" transform="translate(63.623047 0)"/>
       <use xlink:href="#DejaVuSans-30" transform="translate(127.246094 0)"/>
       <use xlink:href="#DejaVuSans-30" transform="translate(190.869141 0)"/>
       <use xlink:href="#DejaVuSans-30" transform="translate(254.492188 0)"/>
      </g>
     </g>
    </g>
    <g id="ytick_5">
     <g id="line2d_12">
      <g>
       <use xlink:href="#m7e87fa626d" x="71.84" y="120.21492" style="stroke: #000000; stroke-width: 0.8"/>
      </g>
     </g>
     <g id="text_13">
      <!-- 20000 -->
      <g transform="translate(33.0275 124.014139) scale(0.1 -0.1)">
       <use xlink:href="#DejaVuSans-32"/>
       <use xlink:href="#DejaVuSans-30" transform="translate(63.623047 0)"/>
       <use xlink:href="#DejaVuSans-30" transform="translate(127.246094 0)"/>
       <use xlink:href="#DejaVuSans-30" transform="translate(190.869141 0)"/>
       <use xlink:href="#DejaVuSans-30" transform="translate(254.492188 0)"/>
      </g>
     </g>
    </g>
    <g id="ytick_6">
     <g id="line2d_13">
      <g>
       <use xlink:href="#m7e87fa626d" x="71.84" y="95.019952" style="stroke: #000000; stroke-width: 0.8"/>
      </g>
     </g>
     <g id="text_14">
      <!-- 30000 -->
      <g transform="translate(33.0275 98.819171) scale(0.1 -0.1)">
       <use xlink:href="#DejaVuSans-33"/>
       <use xlink:href="#DejaVuSans-30" transform="translate(63.623047 0)"/>
       <use xlink:href="#DejaVuSans-30" transform="translate(127.246094 0)"/>
       <use xlink:href="#DejaVuSans-30" transform="translate(190.869141 0)"/>
       <use xlink:href="#DejaVuSans-30" transform="translate(254.492188 0)"/>
      </g>
     </g>
    </g>
    <g id="ytick_7">
     <g id="line2d_14">
      <g>
       <use xlink:href="#m7e87fa626d" x="71.84" y="69.824984" style="stroke: #000000; stroke-width: 0.8"/>
      </g>
     </g>
     <g id="text_15">
      <!-- 40000 -->
      <g transform="translate(33.0275 73.624203) scale(0.1 -0.1)">
       <use xlink:href="#DejaVuSans-34"/>
       <use xlink:href="#DejaVuSans-30" transform="translate(63.623047 0)"/>
       <use xlink:href="#DejaVuSans-30" transform="translate(127.246094 0)"/>
       <use xlink:href="#DejaVuSans-30" transform="translate(190.869141 0)"/>
       <use xlink:href="#DejaVuSans-30" transform="translate(254.492188 0)"/>
      </g>
     </g>
    </g>
    <g id="ytick_8">
     <g id="line2d_15">
      <g>
       <use xlink:href="#m7e87fa626d" x="71.84" y="44.630017" style="stroke: #000000; stroke-width: 0.8"/>
      </g>
     </g>
     <g id="text_16">
      <!-- 50000 -->
      <g transform="translate(33.0275 48.429235) scale(0.1 -0.1)">
       <use xlink:href="#DejaVuSans-35"/>
       <use xlink:href="#DejaVuSans-30" transform="translate(63.623047 0)"/>
       <use xlink:href="#DejaVuSans-30" transform="translate(127.246094 0)"/>
       <use xlink:href="#DejaVuSans-30" transform="translate(190.869141 0)"/>
       <use xlink:href="#DejaVuSans-30" transform="translate(254.492188 0)"/>
      </g>
     </g>
    </g>
    <g id="text_17">
     <!-- Lichtintensiteit -->
     <g transform="translate(18.568125 173.656094) rotate(-90) scale(0.1 -0.1)">
      <defs>
       <path id="DejaVuSans-4c" d="M 628 4666 
L 1259 4666 
L 1259 531 
L 3531 531 
L 3531 0 
L 628 0 
L 628 4666 
z
" transform="scale(0.015625)"/>
       <path id="DejaVuSans-63" d="M 3122 3366 
L 3122 2828 
Q 2878 2963 2633 3030 
Q 2388 3097 2138 3097 
Q 1578 3097 1268 2742 
Q 959 2388 959 1747 
Q 959 1106 1268 751 
Q 1578 397 2138 397 
Q 2388 397 2633 464 
Q 2878 531 3122 666 
L 3122 134 
Q 2881 22 2623 -34 
Q 2366 -91 2075 -91 
Q 1284 -91 818 406 
Q 353 903 353 1747 
Q 353 2603 823 3093 
Q 1294 3584 2113 3584 
Q 2378 3584 2631 3529 
Q 2884 3475 3122 3366 
z
" transform="scale(0.015625)"/>
       <path id="DejaVuSans-68" d="M 3513 2113 
L 3513 0 
L 2938 0 
L 2938 2094 
Q 2938 2591 2744 2837 
Q 2550 3084 2163 3084 
Q 1697 3084 1428 2787 
Q 1159 2491 1159 1978 
L 1159 0 
L 581 0 
L 581 4863 
L 1159 4863 
L 1159 2956 
Q 1366 3272 1645 3428 
Q 1925 3584 2291 3584 
Q 2894 3584 3203 3211 
Q 3513 2838 3513 2113 
z
" transform="scale(0.015625)"/>
       <path id="DejaVuSans-74" d="M 1172 4494 
L 1172 3500 
L 2356 3500 
L 2356 3053 
L 1172 3053 
L 1172 1153 
Q 1172 725 1289 603 
Q 1406 481 1766 481 
L 2356 481 
L 2356 0 
L 1766 0 
Q 1100 0 847 248 
Q 594 497 594 1153 
L 594 3053 
L 172 3053 
L 172 3500 
L 594 3500 
L 594 4494 
L 1172 4494 
z
" transform="scale(0.015625)"/>
       <path id="DejaVuSans-6e" d="M 3513 2113 
L 3513 0 
L 2938 0 
L 2938 2094 
Q 2938 2591 2744 2837 
Q 2550 3084 2163 3084 
Q 1697 3084 1428 2787 
Q 1159 2491 1159 1978 
L 1159 0 
L 581 0 
L 581 3500 
L 1159 3500 
L 1159 2956 
Q 1366 3272 1645 3428 
Q 1925 3584 2291 3584 
Q 2894 3584 3203 3211 
Q 3513 2838 3513 2113 
z
" transform="scale(0.015625)"/>
       <path id="DejaVuSans-65" d="M 3597 1894 
L 3597 1613 
L 953 1613 
Q 991 1019 1311 708 
Q 1631 397 2203 397 
Q 2534 397 2845 478 
Q 3156 559 3463 722 
L 3463 178 
Q 3153 47 2828 -22 
Q 2503 -91 2169 -91 
Q 1331 -91 842 396 
Q 353 884 353 1716 
Q 353 2575 817 3079 
Q 1281 3584 2069 3584 
Q 2775 3584 3186 3129 
Q 3597 2675 3597 1894 
z
M 3022 2063 
Q 3016 2534 2758 2815 
Q 2500 3097 2075 3097 
Q 1594 3097 1305 2825 
Q 1016 2553 972 2059 
L 3022 2063 
z
" transform="scale(0.015625)"/>
       <path id="DejaVuSans-73" d="M 2834 3397 
L 2834 2853 
Q 2591 2978 2328 3040 
Q 2066 3103 1784 3103 
Q 1356 3103 1142 2972 
Q 928 2841 928 2578 
Q 928 2378 1081 2264 
Q 1234 2150 1697 2047 
L 1894 2003 
Q 2506 1872 2764 1633 
Q 3022 1394 3022 966 
Q 3022 478 2636 193 
Q 2250 -91 1575 -91 
Q 1294 -91 989 -36 
Q 684 19 347 128 
L 347 722 
Q 666 556 975 473 
Q 1284 391 1588 391 
Q 1994 391 2212 530 
Q 2431 669 2431 922 
Q 2431 1156 2273 1281 
Q 2116 1406 1581 1522 
L 1381 1569 
Q 847 1681 609 1914 
Q 372 2147 372 2553 
Q 372 3047 722 3315 
Q 1072 3584 1716 3584 
Q 2034 3584 2315 3537 
Q 2597 3491 2834 3397 
z
" transform="scale(0.015625)"/>
      </defs>
      <use xlink:href="#DejaVuSans-4c"/>
      <use xlink:href="#DejaVuSans-69" transform="translate(55.712891 0)"/>
      <use xlink:href="#DejaVuSans-63" transform="translate(83.496094 0)"/>
      <use xlink:href="#DejaVuSans-68" transform="translate(138.476562 0)"/>
      <use xlink:href="#DejaVuSans-74" transform="translate(201.855469 0)"/>
      <use xlink:href="#DejaVuSans-69" transform="translate(241.064453 0)"/>
      <use xlink:href="#DejaVuSans-6e" transform="translate(268.847656 0)"/>
      <use xlink:href="#DejaVuSans-74" transform="translate(332.226562 0)"/>
      <use xlink:href="#DejaVuSans-65" transform="translate(371.435547 0)"/>
      <use xlink:href="#DejaVuSans-6e" transform="translate(432.958984 0)"/>
      <use xlink:href="#DejaVuSans-73" transform="translate(496.337891 0)"/>
      <use xlink:href="#DejaVuSans-69" transform="translate(548.4375 0)"/>
      <use xlink:href="#DejaVuSans-74" transform="translate(576.220703 0)"/>
      <use xlink:href="#DejaVuSans-65" transform="translate(615.429688 0)"/>
      <use xlink:href="#DejaVuSans-69" transform="translate(676.953125 0)"/>
      <use xlink:href="#DejaVuSans-74" transform="translate(704.736328 0)"/>
     </g>
    </g>
   </g>
   <g id="line2d_16">
    <path d="M 138.681378 144.754147 
L 142.468425 167.801244 
L 150.042519 168.580188 
L 161.40366 168.838059 
L 165.190707 168.937789 
L 176.551848 170.389943 
L 180.338895 170.589487 
L 210.63527 170.604856 
L 240.931646 170.548167 
L 244.718693 170.318641 
L 252.292787 169.382228 
L 259.866881 167.887327 
L 263.653928 166.931934 
L 267.440974 166.213877 
L 271.228021 165.33768 
L 275.015068 165.178868 
L 278.802115 165.437032 
L 282.589162 166.754897 
L 286.376209 167.009702 
L 290.163256 166.985095 
L 293.950303 166.704507 
L 297.73735 163.461075 
L 301.524397 162.473264 
L 305.311444 168.119624 
L 309.098491 168.060164 
L 312.885538 168.17287 
L 316.672585 167.303643 
L 320.459632 162.940715 
L 324.246679 166.86206 
L 328.033725 166.051622 
L 331.820772 168.249798 
L 335.607819 168.564736 
L 339.394866 168.58506 
L 343.181913 167.885143 
L 346.96896 168.468155 
L 350.756007 168.879001 
L 358.330101 170.245828 
L 362.117148 170.562865 
L 373.478289 170.604856 
L 422.709899 170.583104 
L 430.283993 170.236002 
L 434.07104 170.318557 
L 437.858087 169.577489 
L 441.645134 167.997177 
L 445.432181 165.78002 
L 449.219228 165.752725 
L 453.006275 166.916565 
L 456.793321 167.637477 
L 460.580368 168.23233 
L 464.367415 168.246355 
L 468.154462 168.51443 
L 471.941509 168.154645 
L 475.728556 168.407939 
L 479.515603 168.373002 
L 483.30265 166.787063 
L 487.089697 166.345479 
L 490.876744 167.298688 
L 494.663791 167.475809 
L 498.450838 168.169259 
L 502.237885 166.080344 
L 506.024932 163.255652 
L 509.811979 167.356721 
L 513.599026 168.608911 
L 532.53426 169.221988 
L 543.895401 170.510291 
L 551.469495 170.604856 
L 604.488152 170.567064 
L 619.63634 169.527771 
L 623.423387 169.039997 
L 627.210434 168.008347 
L 630.997481 167.850164 
L 634.784528 166.445545 
L 638.571575 166.659702 
L 642.358622 166.102683 
L 646.145668 166.824939 
L 646.145668 166.824939 
" clip-path="url(#p4108fad183)" style="fill: none; stroke: #1f77b4; stroke-width: 2; stroke-linecap: square"/>
   </g>
   <g id="line2d_17">
    <path d="M 100.810909 168.708935 
L 104.597956 167.428387 
L 112.17205 168.255425 
L 115.959097 167.623641 
L 119.746144 167.730866 
L 123.533191 145.459788 
L 127.320238 148.411302 
L 131.107285 136.942741 
L 134.894332 155.447983 
L 138.681378 116.861277 
L 142.468425 124.746638 
L 146.255472 142.982429 
L 150.042519 134.873193 
L 153.829566 133.742997 
L 157.616613 149.319391 
L 161.40366 139.421548 
L 165.190707 146.249608 
L 168.977754 147.912721 
L 172.764801 161.15817 
L 176.551848 163.757522 
L 180.338895 169.041144 
L 184.125942 168.981432 
L 187.912989 167.345957 
L 191.700036 169.837221 
L 203.061176 170.472709 
L 210.63527 170.604282 
L 244.718693 170.537215 
L 248.50574 170.385436 
L 259.866881 169.474358 
L 263.653928 169.431289 
L 271.228021 169.032725 
L 278.802115 168.475503 
L 286.376209 167.375855 
L 293.950303 166.00816 
L 301.524397 163.568657 
L 305.311444 159.025067 
L 309.098491 155.003677 
L 312.885538 147.993051 
L 316.672585 139.807073 
L 320.459632 129.681118 
L 324.246679 126.121804 
L 328.033725 142.738431 
L 331.820772 147.980601 
L 335.607819 145.756697 
L 339.394866 142.085965 
L 343.181913 143.589678 
L 346.96896 145.583286 
L 350.756007 148.071534 
L 354.543054 157.27443 
L 358.330101 168.510432 
L 362.117148 169.751755 
L 369.691242 169.923903 
L 377.265336 170.429751 
L 388.626477 170.603882 
L 426.496946 170.525751 
L 430.283993 170.416895 
L 437.858087 169.630553 
L 441.645134 168.615391 
L 445.432181 167.263597 
L 449.219228 168.650608 
L 453.006275 163.222255 
L 456.793321 167.868067 
L 460.580368 165.494589 
L 464.367415 167.465934 
L 468.154462 159.452598 
L 471.941509 166.21732 
L 475.728556 162.92361 
L 479.515603 153.028721 
L 483.30265 152.733561 
L 487.089697 151.844312 
L 490.876744 155.97234 
L 494.663791 145.063933 
L 498.450838 138.818073 
L 502.237885 135.763547 
L 506.024932 131.743732 
L 509.811979 145.115587 
L 513.599026 145.240774 
L 517.386072 139.025651 
L 521.173119 141.142141 
L 528.747213 144.317861 
L 532.53426 146.927304 
L 536.321307 157.045624 
L 540.108354 162.121724 
L 543.895401 165.78058 
L 547.682448 168.788033 
L 551.469495 168.526257 
L 555.256542 169.706012 
L 559.043589 169.998189 
L 574.191777 170.572887 
L 589.339964 170.604856 
L 604.488152 170.586548 
L 612.062246 170.302391 
L 623.423387 169.449282 
L 627.210434 165.78269 
L 630.997481 165.832502 
L 634.784528 167.813415 
L 638.571575 160.902204 
L 642.358622 167.301915 
L 649.932715 167.004884 
L 653.719762 166.493163 
L 657.506809 167.060008 
L 661.293856 165.590008 
L 665.080903 163.994662 
L 668.86795 162.552565 
L 672.654997 163.010148 
L 680.229091 164.560205 
L 680.229091 164.560205 
" clip-path="url(#p4108fad183)" style="fill: none; stroke-dasharray: 5.55,2.4; stroke-dashoffset: 0; stroke: #808080; stroke-width: 1.5"/>
   </g>
   <g id="patch_3">
    <path d="M 71.84 246.04 
L 71.84 26.88 
" style="fill: none; stroke: #000000; stroke-width: 0.8; stroke-linejoin: miter; stroke-linecap: square"/>
   </g>
   <g id="patch_4">
    <path d="M 709.2 246.04 
L 709.2 26.88 
" style="fill: none; stroke: #000000; stroke-width: 0.8; stroke-linejoin: miter; stroke-linecap: square"/>
   </g>
   <g id="patch_5">
    <path d="M 71.84 246.04 
L 709.2 246.04 
" style="fill: none; stroke: #000000; stroke-width: 0.8; stroke-linejoin: miter; stroke-linecap: square"/>
   </g>
   <g id="patch_6">
    <path d="M 71.84 26.88 
L 709.2 26.88 
" style="fill: none; stroke: #000000; stroke-width: 0.8; stroke-linejoin: miter; stroke-linecap: square"/>
   </g>
   <g id="text_18">
    <!-- Licht - v001/c00001/d031 -->
    <g transform="translate(313.383438 20.88) scale(0.12 -0.12)">
     <defs>
      <path id="DejaVuSans-76" d="M 191 3500 
L 800 3500 
L 1894 563 
L 2988 3500 
L 3597 3500 
L 2284 0 
L 1503 0 
L 191 3500 
z
" transform="scale(0.015625)"/>
      <path id="DejaVuSans-2f" d="M 1625 4666 
L 2156 4666 
L 531 -594 
L 0 -594 
L 1625 4666 
z
" transform="scale(0.015625)"/>
     </defs>
     <use xlink:href="#DejaVuSans-4c"/>
     <use xlink:href="#DejaVuSans-69" transform="translate(55.712891 0)"/>
     <use xlink:href="#DejaVuSans-63" transform="translate(83.496094 0)"/>
     <use xlink:href="#DejaVuSans-68" transform="translate(138.476562 0)"/>
     <use xlink:href="#DejaVuSans-74" transform="translate(201.855469 0)"/>
     <use xlink:href="#DejaVuSans-20" transform="translate(241.064453 0)"/>
     <use xlink:href="#DejaVuSans-2d" transform="translate(272.851562 0)"/>
     <use xlink:href="#DejaVuSans-20" transform="translate(308.935547 0)"/>
     <use xlink:href="#DejaVuSans-76" transform="translate(340.722656 0)"/>
     <use xlink:href="#DejaVuSans-30" transform="translate(399.902344 0)"/>
     <use xlink:href="#DejaVuSans-30" transform="translate(463.525391 0)"/>
     <use xlink:href="#DejaVuSans-31" transform="translate(527.148438 0)"/>
     <use xlink:href="#DejaVuSans-2f" transform="translate(590.771484 0)"/>
     <use xlink:href="#DejaVuSans-63" transform="translate(624.462891 0)"/>
     <use xlink:href="#DejaVuSans-30" transform="translate(679.443359 0)"/>
     <use xlink:href="#DejaVuSans-30" transform="translate(743.066406 0)"/>
     <use xlink:href="#DejaVuSans-30" transform="translate(806.689453 0)"/>
     <use xlink:href="#DejaVuSans-30" transform="translate(870.3125 0)"/>
     <use xlink:href="#DejaVuSans-31" transform="translate(933.935547 0)"/>
     <use xlink:href="#DejaVuSans-2f" transform="translate(997.558594 0)"/>
     <use xlink:href="#DejaVuSans-64" transform="translate(1031.25 0)"/>
     <use xlink:href="#DejaVuSans-30" transform="translate(1094.726562 0)"/>
     <use xlink:href="#DejaVuSans-33" transform="translate(1158.349609 0)"/>
     <use xlink:href="#DejaVuSans-31" transform="translate(1221.972656 0)"/>
    </g>
   </g>
   <g id="legend_1">
    <g id="patch_7">
     <path d="M 551.25625 78.914375 
L 702.2 78.914375 
Q 704.2 78.914375 704.2 76.914375 
L 704.2 33.88 
Q 704.2 31.88 702.2 31.88 
L 551.25625 31.88 
Q 549.25625 31.88 549.25625 33.88 
L 549.25625 76.914375 
Q 549.25625 78.914375 551.25625 78.914375 
z
" style="fill: #ffffff; opacity: 0.8; stroke: #cccccc; stroke-linejoin: miter"/>
    </g>
    <g id="line2d_18">
     <path d="M 553.25625 39.978438 
L 563.25625 39.978438 
L 573.25625 39.978438 
" style="fill: none; stroke: #1f77b4; stroke-width: 2; stroke-linecap: square"/>
    </g>
    <g id="text_19">
     <!-- Hive -->
     <g transform="translate(581.25625 43.478438) scale(0.1 -0.1)">
      <defs>
       <path id="DejaVuSans-48" d="M 628 4666 
L 1259 4666 
L 1259 2753 
L 3553 2753 
L 3553 4666 
L 4184 4666 
L 4184 0 
L 3553 0 
L 3553 2222 
L 1259 2222 
L 1259 0 
L 628 0 
L 628 4666 
z
" transform="scale(0.015625)"/>
      </defs>
      <use xlink:href="#DejaVuSans-48"/>
      <use xlink:href="#DejaVuSans-69" transform="translate(75.195312 0)"/>
      <use xlink:href="#DejaVuSans-76" transform="translate(102.978516 0)"/>
      <use xlink:href="#DejaVuSans-65" transform="translate(162.158203 0)"/>
     </g>
    </g>
    <g id="line2d_19">
     <path d="M 553.25625 54.656563 
L 563.25625 54.656563 
L 573.25625 54.656563 
" style="fill: none; stroke-dasharray: 5.55,2.4; stroke-dashoffset: 0; stroke: #808080; stroke-width: 1.5"/>
    </g>
    <g id="text_20">
     <!-- Gemiddelde (alle hives) -->
     <g transform="translate(581.25625 58.156563) scale(0.1 -0.1)">
      <defs>
       <path id="DejaVuSans-47" d="M 3809 666 
L 3809 1919 
L 2778 1919 
L 2778 2438 
L 4434 2438 
L 4434 434 
Q 4069 175 3628 42 
Q 3188 -91 2688 -91 
Q 1594 -91 976 548 
Q 359 1188 359 2328 
Q 359 3472 976 4111 
Q 1594 4750 2688 4750 
Q 3144 4750 3555 4637 
Q 3966 4525 4313 4306 
L 4313 3634 
Q 3963 3931 3569 4081 
Q 3175 4231 2741 4231 
Q 1884 4231 1454 3753 
Q 1025 3275 1025 2328 
Q 1025 1384 1454 906 
Q 1884 428 2741 428 
Q 3075 428 3337 486 
Q 3600 544 3809 666 
z
" transform="scale(0.015625)"/>
       <path id="DejaVuSans-6d" d="M 3328 2828 
Q 3544 3216 3844 3400 
Q 4144 3584 4550 3584 
Q 5097 3584 5394 3201 
Q 5691 2819 5691 2113 
L 5691 0 
L 5113 0 
L 5113 2094 
Q 5113 2597 4934 2840 
Q 4756 3084 4391 3084 
Q 3944 3084 3684 2787 
Q 3425 2491 3425 1978 
L 3425 0 
L 2847 0 
L 2847 2094 
Q 2847 2600 2669 2842 
Q 2491 3084 2119 3084 
Q 1678 3084 1418 2786 
Q 1159 2488 1159 1978 
L 1159 0 
L 581 0 
L 581 3500 
L 1159 3500 
L 1159 2956 
Q 1356 3278 1631 3431 
Q 1906 3584 2284 3584 
Q 2666 3584 2933 3390 
Q 3200 3197 3328 2828 
z
" transform="scale(0.015625)"/>
       <path id="DejaVuSans-6c" d="M 603 4863 
L 1178 4863 
L 1178 0 
L 603 0 
L 603 4863 
z
" transform="scale(0.015625)"/>
       <path id="DejaVuSans-28" d="M 1984 4856 
Q 1566 4138 1362 3434 
Q 1159 2731 1159 2009 
Q 1159 1288 1364 580 
Q 1569 -128 1984 -844 
L 1484 -844 
Q 1016 -109 783 600 
Q 550 1309 550 2009 
Q 550 2706 781 3412 
Q 1013 4119 1484 4856 
L 1984 4856 
z
" transform="scale(0.015625)"/>
       <path id="DejaVuSans-61" d="M 2194 1759 
Q 1497 1759 1228 1600 
Q 959 1441 959 1056 
Q 959 750 1161 570 
Q 1363 391 1709 391 
Q 2188 391 2477 730 
Q 2766 1069 2766 1631 
L 2766 1759 
L 2194 1759 
z
M 3341 1997 
L 3341 0 
L 2766 0 
L 2766 531 
Q 2569 213 2275 61 
Q 1981 -91 1556 -91 
Q 1019 -91 701 211 
Q 384 513 384 1019 
Q 384 1609 779 1909 
Q 1175 2209 1959 2209 
L 2766 2209 
L 2766 2266 
Q 2766 2663 2505 2880 
Q 2244 3097 1772 3097 
Q 1472 3097 1187 3025 
Q 903 2953 641 2809 
L 641 3341 
Q 956 3463 1253 3523 
Q 1550 3584 1831 3584 
Q 2591 3584 2966 3190 
Q 3341 2797 3341 1997 
z
" transform="scale(0.015625)"/>
       <path id="DejaVuSans-29" d="M 513 4856 
L 1013 4856 
Q 1481 4119 1714 3412 
Q 1947 2706 1947 2009 
Q 1947 1309 1714 600 
Q 1481 -109 1013 -844 
L 513 -844 
Q 928 -128 1133 580 
Q 1338 1288 1338 2009 
Q 1338 2731 1133 3434 
Q 928 4138 513 4856 
z
" transform="scale(0.015625)"/>
      </defs>
      <use xlink:href="#DejaVuSans-47"/>
      <use xlink:href="#DejaVuSans-65" transform="translate(77.490234 0)"/>
      <use xlink:href="#DejaVuSans-6d" transform="translate(139.013672 0)"/>
      <use xlink:href="#DejaVuSans-69" transform="translate(236.425781 0)"/>
      <use xlink:href="#DejaVuSans-64" transform="translate(264.208984 0)"/>
      <use xlink:href="#DejaVuSans-64" transform="translate(327.685547 0)"/>
      <use xlink:href="#DejaVuSans-65" transform="translate(391.162109 0)"/>
      <use xlink:href="#DejaVuSans-6c" transform="translate(452.685547 0)"/>
      <use xlink:href="#DejaVuSans-64" transform="translate(480.46875 0)"/>
      <use xlink:href="#DejaVuSans-65" transform="translate(543.945312 0)"/>
      <use xlink:href="#DejaVuSans-20" transform="translate(605.46875 0)"/>
      <use xlink:href="#DejaVuSans-28" transform="translate(637.255859 0)"/>
      <use xlink:href="#DejaVuSans-61" transform="translate(676.269531 0)"/>
      <use xlink:href="#DejaVuSans-6c" transform="translate(737.548828 0)"/>
      <use xlink:href="#DejaVuSans-6c" transform="translate(765.332031 0)"/>
      <use xlink:href="#DejaVuSans-65" transform="translate(793.115234 0)"/>
      <use xlink:href="#DejaVuSans-20" transform="translate(854.638672 0)"/>
      <use xlink:href="#DejaVuSans-68" transform="translate(886.425781 0)"/>
      <use xlink:href="#DejaVuSans-69" transform="translate(949.804688 0)"/>
      <use xlink:href="#DejaVuSans-76" transform="translate(977.587891 0)"/>
      <use xlink:href="#DejaVuSans-65" transform="translate(1036.767578 0)"/>
      <use xlink:href="#DejaVuSans-73" transform="translate(1098.291016 0)"/>
      <use xlink:href="#DejaVuSans-29" transform="translate(1150.390625 0)"/>
     </g>
    </g>
    <g id="patch_8">
     <path d="M 553.25625 72.834688 
L 573.25625 72.834688 
L 573.25625 65.834688 
L 553.25625 65.834688 
z
" style="fill: #808080; fill-opacity: 0.2; stroke: #808080; stroke-opacity: 0.2; stroke-linejoin: miter"/>
    </g>
    <g id="text_21">
     <!-- ±2 Std Dev -->
     <g transform="translate(581.25625 72.834688) scale(0.1 -0.1)">
      <defs>
       <path id="DejaVuSans-b1" d="M 2944 4013 
L 2944 2803 
L 4684 2803 
L 4684 2272 
L 2944 2272 
L 2944 1063 
L 2419 1063 
L 2419 2272 
L 678 2272 
L 678 2803 
L 2419 2803 
L 2419 4013 
L 2944 4013 
z
M 678 531 
L 4684 531 
L 4684 0 
L 678 0 
L 678 531 
z
" transform="scale(0.015625)"/>
       <path id="DejaVuSans-53" d="M 3425 4513 
L 3425 3897 
Q 3066 4069 2747 4153 
Q 2428 4238 2131 4238 
Q 1616 4238 1336 4038 
Q 1056 3838 1056 3469 
Q 1056 3159 1242 3001 
Q 1428 2844 1947 2747 
L 2328 2669 
Q 3034 2534 3370 2195 
Q 3706 1856 3706 1288 
Q 3706 609 3251 259 
Q 2797 -91 1919 -91 
Q 1588 -91 1214 -16 
Q 841 59 441 206 
L 441 856 
Q 825 641 1194 531 
Q 1563 422 1919 422 
Q 2459 422 2753 634 
Q 3047 847 3047 1241 
Q 3047 1584 2836 1778 
Q 2625 1972 2144 2069 
L 1759 2144 
Q 1053 2284 737 2584 
Q 422 2884 422 3419 
Q 422 4038 858 4394 
Q 1294 4750 2059 4750 
Q 2388 4750 2728 4690 
Q 3069 4631 3425 4513 
z
" transform="scale(0.015625)"/>
       <path id="DejaVuSans-44" d="M 1259 4147 
L 1259 519 
L 2022 519 
Q 2988 519 3436 956 
Q 3884 1394 3884 2338 
Q 3884 3275 3436 3711 
Q 2988 4147 2022 4147 
L 1259 4147 
z
M 628 4666 
L 1925 4666 
Q 3281 4666 3915 4102 
Q 4550 3538 4550 2338 
Q 4550 1131 3912 565 
Q 3275 0 1925 0 
L 628 0 
L 628 4666 
z
" transform="scale(0.015625)"/>
      </defs>
      <use xlink:href="#DejaVuSans-b1"/>
      <use xlink:href="#DejaVuSans-32" transform="translate(83.789062 0)"/>
      <use xlink:href="#DejaVuSans-20" transform="translate(147.412109 0)"/>
      <use xlink:href="#DejaVuSans-53" transform="translate(179.199219 0)"/>
      <use xlink:href="#DejaVuSans-74" transform="translate(242.675781 0)"/>
      <use xlink:href="#DejaVuSans-64" transform="translate(281.884766 0)"/>
      <use xlink:href="#DejaVuSans-20" transform="translate(345.361328 0)"/>
      <use xlink:href="#DejaVuSans-44" transform="translate(377.148438 0)"/>
      <use xlink:href="#DejaVuSans-65" transform="translate(454.150391 0)"/>
      <use xlink:href="#DejaVuSans-76" transform="translate(515.673828 0)"/>
     </g>
    </g>
   </g>
  </g>
 </g>
 <defs>
  <clipPath id="p4108fad183">
   <rect x="71.84" y="26.88" width="637.36" height="219.16"/>
  </clipPath>
 </defs>
</svg>
