<?xml version="1.0" encoding="utf-8" standalone="no"?>
<!DOCTYPE svg PUBLIC "-//W3C//DTD SVG 1.1//EN"
  "http://www.w3.org/Graphics/SVG/1.1/DTD/svg11.dtd">
<svg xmlns:xlink="http://www.w3.org/1999/xlink" width="720pt" height="288pt" viewBox="0 0 720 288" xmlns="http://www.w3.org/2000/svg" version="1.1">
 <metadata>
  <rdf:RDF xmlns:dc="http://purl.org/dc/elements/1.1/" xmlns:cc="http://creativecommons.org/ns#" xmlns:rdf="http://www.w3.org/1999/02/22-rdf-syntax-ns#">
   <cc:Work>
    <dc:type rdf:resource="http://purl.org/dc/dcmitype/StillImage"/>
    <dc:date>2025-06-16T06:26:42.014485</dc:date>
    <dc:format>image/svg+xml</dc:format>
    <dc:creator>
     <cc:Agent>
      <dc:title>Matplotlib v3.10.3, https://matplotlib.org/</dc:title>
     </cc:Agent>
    </dc:creator>
   </cc:Work>
  </rdf:RDF>
 </metadata>
 <defs>
  <style type="text/css">*{stroke-linejoin: round; stroke-linecap: butt}</style>
 </defs>
 <g id="figure_1">
  <g id="patch_1">
   <path d="M 0 288 
L 720 288 
L 720 0 
L 0 0 
z
" style="fill: #ffffff"/>
  </g>
  <g id="axes_1">
   <g id="patch_2">
    <path d="M 65.45 246.04 
L 709.2 246.04 
L 709.2 26.88 
L 65.45 26.88 
z
" style="fill: #ffffff"/>
   </g>
   <g id="FillBetweenPolyCollection_1">
    <defs>
     <path id="m9783d0902a" d="M 94.711364 -150.076899 
L 94.711364 -105.309717 
L 98.153877 -93.873078 
L 101.59639 -91.526507 
L 105.038904 -82.414751 
L 108.481417 -96.609819 
L 111.92393 -92.249507 
L 115.366444 -113.165208 
L 118.808957 -94.116652 
L 122.251471 -98.247056 
L 125.693984 -90.668043 
L 129.136497 -94.823686 
L 132.579011 -91.666917 
L 136.021524 -70.025136 
L 139.464037 -77.105386 
L 142.906551 -78.826322 
L 146.349064 -73.033109 
L 149.791578 -77.325569 
L 153.234091 -81.900294 
L 156.676604 -94.753342 
L 160.119118 -89.358968 
L 163.561631 -90.175329 
L 167.004144 -88.76513 
L 170.446658 -92.622675 
L 173.889171 -88.79931 
L 177.331684 -90.460132 
L 180.774198 -94.729073 
L 184.216711 -89.267253 
L 187.659225 -93.043014 
L 191.101738 -95.125054 
L 194.544251 -95.95098 
L 197.986765 -94.385743 
L 201.429278 -95.09359 
L 204.871791 -97.216289 
L 208.314305 -94.846361 
L 211.756818 -92.675357 
L 215.199332 -92.168658 
L 218.641845 -93.253174 
L 222.084358 -91.317509 
L 225.526872 -92.230291 
L 228.969385 -91.872281 
L 232.411898 -89.106435 
L 235.854412 -89.342549 
L 239.296925 -91.930679 
L 242.739439 -83.498148 
L 246.181952 -97.452746 
L 249.624465 -95.531481 
L 253.066979 -88.867021 
L 256.509492 -92.489229 
L 259.952005 -84.1144 
L 263.394519 -94.250796 
L 266.837032 -92.673134 
L 270.279545 -100.279064 
L 273.722059 -101.599497 
L 277.164572 -88.600134 
L 280.607086 -90.690228 
L 284.049599 -95.03917 
L 287.492112 -86.504893 
L 290.934626 -93.110534 
L 294.377139 -91.37334 
L 297.819652 -102.641661 
L 301.262166 -98.077243 
L 304.704679 -94.676728 
L 308.147193 -102.484682 
L 311.589706 -94.556443 
L 315.032219 -95.847134 
L 318.474733 -95.410103 
L 321.917246 -99.768909 
L 325.359759 -96.745729 
L 328.802273 -95.760328 
L 332.244786 -96.22869 
L 335.687299 -92.920998 
L 339.129813 -91.50118 
L 342.572326 -94.039655 
L 346.01484 -83.333276 
L 349.457353 -84.665911 
L 352.899866 -84.392428 
L 356.34238 -84.155239 
L 359.784893 -98.230785 
L 363.227406 -97.36148 
L 366.66992 -98.03364 
L 370.112433 -101.611667 
L 373.554947 -97.187593 
L 376.99746 -94.319824 
L 380.439973 -93.837983 
L 383.882487 -95.146601 
L 387.325 -97.150961 
L 390.767513 -98.906361 
L 394.210027 -100.078659 
L 397.65254 -101.571434 
L 401.095053 -103.536984 
L 404.537567 -102.8758 
L 407.98008 -102.689887 
L 411.422594 -111.081592 
L 414.865107 -115.341856 
L 418.30762 -104.881148 
L 421.750134 -101.807516 
L 425.192647 -104.17625 
L 428.63516 -106.822898 
L 432.077674 -106.947184 
L 435.520187 -106.13758 
L 438.962701 -100.592679 
L 442.405214 -102.142466 
L 445.847727 -107.836854 
L 449.290241 -110.756899 
L 452.732754 -112.848061 
L 456.175267 -111.664814 
L 459.617781 -109.634668 
L 463.060294 -83.462203 
L 466.502807 -51.921818 
L 469.945321 -114.727718 
L 473.387834 -102.727061 
L 476.830348 -105.119192 
L 480.272861 -110.799835 
L 483.715374 -109.027215 
L 487.157888 -114.128138 
L 490.600401 -114.890332 
L 494.042914 -106.621017 
L 497.485428 -116.256433 
L 500.927941 -113.887 
L 504.370455 -110.961601 
L 507.812968 -112.62054 
L 511.255481 -113.010255 
L 514.697995 -116.474384 
L 518.140508 -114.95026 
L 521.583021 -110.784622 
L 525.025535 -113.435762 
L 528.468048 -110.164309 
L 531.910561 -114.250191 
L 535.353075 -109.73445 
L 538.795588 -112.143818 
L 542.238102 -112.714245 
L 545.680615 -108.358842 
L 549.123128 -108.126968 
L 552.565642 -107.779082 
L 556.008155 -103.6919 
L 559.450668 -103.679456 
L 562.893182 -104.348617 
L 566.335695 -104.258107 
L 569.778209 -97.239261 
L 573.220722 -92.67781 
L 576.663235 -100.042192 
L 580.105749 -111.285413 
L 583.548262 -111.963673 
L 586.990775 -97.809878 
L 590.433289 -104.757374 
L 593.875802 -103.791704 
L 597.318316 -108.566044 
L 600.760829 -107.614187 
L 604.203342 -102.396888 
L 607.645856 -98.628454 
L 611.088369 -109.397421 
L 614.530882 -113.721497 
L 617.973396 -109.415335 
L 621.415909 -110.380692 
L 624.858422 -115.572429 
L 628.300936 -144.197556 
L 631.743449 -126.304626 
L 635.185963 -107.909419 
L 638.628476 -126.54035 
L 642.070989 -108.832726 
L 645.513503 -165.886822 
L 645.513503 -167.606237 
L 645.513503 -167.606237 
L 642.070989 -166.891972 
L 638.628476 -159.963366 
L 635.185963 -167.291495 
L 631.743449 -166.790321 
L 628.300936 -154.781677 
L 624.858422 -172.668396 
L 621.415909 -179.784045 
L 617.973396 -191.085524 
L 614.530882 -181.700643 
L 611.088369 -182.203248 
L 607.645856 -196.133568 
L 604.203342 -191.123633 
L 600.760829 -181.462869 
L 597.318316 -170.238374 
L 593.875802 -184.131701 
L 590.433289 -188.093084 
L 586.990775 -193.996326 
L 583.548262 -179.170397 
L 580.105749 -178.381315 
L 576.663235 -183.6553 
L 573.220722 -192.173333 
L 569.778209 -178.124092 
L 566.335695 -173.60151 
L 562.893182 -164.755844 
L 559.450668 -164.106014 
L 556.008155 -152.755544 
L 552.565642 -146.032036 
L 549.123128 -141.385306 
L 545.680615 -138.611586 
L 542.238102 -135.008708 
L 538.795588 -133.387861 
L 535.353075 -135.889222 
L 531.910561 -133.725538 
L 528.468048 -139.544384 
L 525.025535 -138.172478 
L 521.583021 -150.124935 
L 518.140508 -138.30641 
L 514.697995 -136.49263 
L 511.255481 -138.059283 
L 507.812968 -136.602906 
L 504.370455 -142.206804 
L 500.927941 -135.382443 
L 497.485428 -138.536781 
L 494.042914 -148.330492 
L 490.600401 -137.431067 
L 487.157888 -149.275196 
L 483.715374 -150.033764 
L 480.272861 -147.461793 
L 476.830348 -155.562452 
L 473.387834 -152.287021 
L 469.945321 -144.189469 
L 466.502807 -251.158182 
L 463.060294 -200.110973 
L 459.617781 -165.897341 
L 456.175267 -167.326906 
L 452.732754 -156.753664 
L 449.290241 -156.526749 
L 445.847727 -162.604003 
L 442.405214 -166.506171 
L 438.962701 -171.217726 
L 435.520187 -157.275285 
L 432.077674 -158.775056 
L 428.63516 -155.238652 
L 425.192647 -160.865568 
L 421.750134 -158.91681 
L 418.30762 -153.25865 
L 414.865107 -142.679428 
L 411.422594 -145.888393 
L 407.98008 -151.028408 
L 404.537567 -148.176334 
L 401.095053 -147.719856 
L 397.65254 -148.097478 
L 394.210027 -146.281626 
L 390.767513 -135.204415 
L 387.325 -132.784872 
L 383.882487 -133.380319 
L 380.439973 -137.72556 
L 376.99746 -134.585845 
L 373.554947 -134.372635 
L 370.112433 -132.884074 
L 366.66992 -136.946104 
L 363.227406 -135.988068 
L 359.784893 -137.823049 
L 356.34238 -141.092938 
L 352.899866 -141.068151 
L 349.457353 -143.793878 
L 346.01484 -140.287072 
L 342.572326 -136.257523 
L 339.129813 -139.331799 
L 335.687299 -134.972324 
L 332.244786 -136.283383 
L 328.802273 -139.652864 
L 325.359759 -140.219755 
L 321.917246 -139.842017 
L 318.474733 -139.461403 
L 315.032219 -141.250539 
L 311.589706 -142.218837 
L 308.147193 -135.845376 
L 304.704679 -152.301656 
L 301.262166 -149.556203 
L 297.819652 -130.227862 
L 294.377139 -153.493663 
L 290.934626 -141.838545 
L 287.492112 -169.745966 
L 284.049599 -148.505941 
L 280.607086 -161.595948 
L 277.164572 -162.873016 
L 273.722059 -139.775057 
L 270.279545 -147.240343 
L 266.837032 -151.150443 
L 263.394519 -152.935941 
L 259.952005 -160.023697 
L 256.509492 -157.083545 
L 253.066979 -162.736246 
L 249.624465 -147.691237 
L 246.181952 -145.793592 
L 242.739439 -154.967414 
L 239.296925 -134.236724 
L 235.854412 -144.201347 
L 232.411898 -145.836678 
L 228.969385 -133.714816 
L 225.526872 -133.419958 
L 222.084358 -127.590674 
L 218.641845 -125.172664 
L 215.199332 -127.277399 
L 211.756818 -125.394937 
L 208.314305 -123.208186 
L 204.871791 -123.035334 
L 201.429278 -124.142787 
L 197.986765 -127.825928 
L 194.544251 -123.598673 
L 191.101738 -124.314372 
L 187.659225 -126.893676 
L 184.216711 -134.414827 
L 180.774198 -137.834384 
L 177.331684 -135.766944 
L 173.889171 -134.961752 
L 170.446658 -137.955101 
L 167.004144 -144.922675 
L 163.561631 -143.312861 
L 160.119118 -146.542727 
L 156.676604 -144.717285 
L 153.234091 -152.308173 
L 149.791578 -162.146124 
L 146.349064 -173.184586 
L 142.906551 -166.20167 
L 139.464037 -176.704903 
L 136.021524 -179.484928 
L 132.579011 -179.555769 
L 129.136497 -181.311254 
L 125.693984 -183.679945 
L 122.251471 -182.1608 
L 118.808957 -188.414519 
L 115.366444 -156.959473 
L 111.92393 -183.366503 
L 108.481417 -171.769229 
L 105.038904 -190.262787 
L 101.59639 -183.183063 
L 98.153877 -190.0927 
L 94.711364 -150.076899 
z
" style="stroke: #808080; stroke-opacity: 0.2"/>
    </defs>
    <g clip-path="url(#p36cc1cb555)">
     <use xlink:href="#m9783d0902a" x="0" y="288" style="fill: #808080; fill-opacity: 0.2; stroke: #808080; stroke-opacity: 0.2"/>
    </g>
   </g>
   <g id="matplotlib.axis_1">
    <g id="xtick_1">
     <g id="line2d_1">
      <defs>
       <path id="m7340cb4b9c" d="M 0 0 
L 0 3.5 
" style="stroke: #000000; stroke-width: 0.8"/>
      </defs>
      <g>
       <use xlink:href="#m7340cb4b9c" x="136.021524" y="246.04" style="stroke: #000000; stroke-width: 0.8"/>
      </g>
     </g>
     <g id="text_1">
      <!-- 06-13 12 -->
      <g transform="translate(113.541055 260.638438) scale(0.1 -0.1)">
       <defs>
        <path id="DejaVuSans-30" d="M 2034 4250 
Q 1547 4250 1301 3770 
Q 1056 3291 1056 2328 
Q 1056 1369 1301 889 
Q 1547 409 2034 409 
Q 2525 409 2770 889 
Q 3016 1369 3016 2328 
Q 3016 3291 2770 3770 
Q 2525 4250 2034 4250 
z
M 2034 4750 
Q 2819 4750 3233 4129 
Q 3647 3509 3647 2328 
Q 3647 1150 3233 529 
Q 2819 -91 2034 -91 
Q 1250 -91 836 529 
Q 422 1150 422 2328 
Q 422 3509 836 4129 
Q 1250 4750 2034 4750 
z
" transform="scale(0.015625)"/>
        <path id="DejaVuSans-36" d="M 2113 2584 
Q 1688 2584 1439 2293 
Q 1191 2003 1191 1497 
Q 1191 994 1439 701 
Q 1688 409 2113 409 
Q 2538 409 2786 701 
Q 3034 994 3034 1497 
Q 3034 2003 2786 2293 
Q 2538 2584 2113 2584 
z
M 3366 4563 
L 3366 3988 
Q 3128 4100 2886 4159 
Q 2644 4219 2406 4219 
Q 1781 4219 1451 3797 
Q 1122 3375 1075 2522 
Q 1259 2794 1537 2939 
Q 1816 3084 2150 3084 
Q 2853 3084 3261 2657 
Q 3669 2231 3669 1497 
Q 3669 778 3244 343 
Q 2819 -91 2113 -91 
Q 1303 -91 875 529 
Q 447 1150 447 2328 
Q 447 3434 972 4092 
Q 1497 4750 2381 4750 
Q 2619 4750 2861 4703 
Q 3103 4656 3366 4563 
z
" transform="scale(0.015625)"/>
        <path id="DejaVuSans-2d" d="M 313 2009 
L 1997 2009 
L 1997 1497 
L 313 1497 
L 313 2009 
z
" transform="scale(0.015625)"/>
        <path id="DejaVuSans-31" d="M 794 531 
L 1825 531 
L 1825 4091 
L 703 3866 
L 703 4441 
L 1819 4666 
L 2450 4666 
L 2450 531 
L 3481 531 
L 3481 0 
L 794 0 
L 794 531 
z
" transform="scale(0.015625)"/>
        <path id="DejaVuSans-33" d="M 2597 2516 
Q 3050 2419 3304 2112 
Q 3559 1806 3559 1356 
Q 3559 666 3084 287 
Q 2609 -91 1734 -91 
Q 1441 -91 1130 -33 
Q 819 25 488 141 
L 488 750 
Q 750 597 1062 519 
Q 1375 441 1716 441 
Q 2309 441 2620 675 
Q 2931 909 2931 1356 
Q 2931 1769 2642 2001 
Q 2353 2234 1838 2234 
L 1294 2234 
L 1294 2753 
L 1863 2753 
Q 2328 2753 2575 2939 
Q 2822 3125 2822 3475 
Q 2822 3834 2567 4026 
Q 2313 4219 1838 4219 
Q 1578 4219 1281 4162 
Q 984 4106 628 3988 
L 628 4550 
Q 988 4650 1302 4700 
Q 1616 4750 1894 4750 
Q 2613 4750 3031 4423 
Q 3450 4097 3450 3541 
Q 3450 3153 3228 2886 
Q 3006 2619 2597 2516 
z
" transform="scale(0.015625)"/>
        <path id="DejaVuSans-20" transform="scale(0.015625)"/>
        <path id="DejaVuSans-32" d="M 1228 531 
L 3431 531 
L 3431 0 
L 469 0 
L 469 531 
Q 828 903 1448 1529 
Q 2069 2156 2228 2338 
Q 2531 2678 2651 2914 
Q 2772 3150 2772 3378 
Q 2772 3750 2511 3984 
Q 2250 4219 1831 4219 
Q 1534 4219 1204 4116 
Q 875 4013 500 3803 
L 500 4441 
Q 881 4594 1212 4672 
Q 1544 4750 1819 4750 
Q 2544 4750 2975 4387 
Q 3406 4025 3406 3419 
Q 3406 3131 3298 2873 
Q 3191 2616 2906 2266 
Q 2828 2175 2409 1742 
Q 1991 1309 1228 531 
z
" transform="scale(0.015625)"/>
       </defs>
       <use xlink:href="#DejaVuSans-30"/>
       <use xlink:href="#DejaVuSans-36" transform="translate(63.623047 0)"/>
       <use xlink:href="#DejaVuSans-2d" transform="translate(127.246094 0)"/>
       <use xlink:href="#DejaVuSans-31" transform="translate(163.330078 0)"/>
       <use xlink:href="#DejaVuSans-33" transform="translate(226.953125 0)"/>
       <use xlink:href="#DejaVuSans-20" transform="translate(290.576172 0)"/>
       <use xlink:href="#DejaVuSans-31" transform="translate(322.363281 0)"/>
       <use xlink:href="#DejaVuSans-32" transform="translate(385.986328 0)"/>
      </g>
     </g>
    </g>
    <g id="xtick_2">
     <g id="line2d_2">
      <g>
       <use xlink:href="#m7340cb4b9c" x="218.641845" y="246.04" style="stroke: #000000; stroke-width: 0.8"/>
      </g>
     </g>
     <g id="text_2">
      <!-- 06-14 00 -->
      <g transform="translate(196.161376 260.638438) scale(0.1 -0.1)">
       <defs>
        <path id="DejaVuSans-34" d="M 2419 4116 
L 825 1625 
L 2419 1625 
L 2419 4116 
z
M 2253 4666 
L 3047 4666 
L 3047 1625 
L 3713 1625 
L 3713 1100 
L 3047 1100 
L 3047 0 
L 2419 0 
L 2419 1100 
L 313 1100 
L 313 1709 
L 2253 4666 
z
" transform="scale(0.015625)"/>
       </defs>
       <use xlink:href="#DejaVuSans-30"/>
       <use xlink:href="#DejaVuSans-36" transform="translate(63.623047 0)"/>
       <use xlink:href="#DejaVuSans-2d" transform="translate(127.246094 0)"/>
       <use xlink:href="#DejaVuSans-31" transform="translate(163.330078 0)"/>
       <use xlink:href="#DejaVuSans-34" transform="translate(226.953125 0)"/>
       <use xlink:href="#DejaVuSans-20" transform="translate(290.576172 0)"/>
       <use xlink:href="#DejaVuSans-30" transform="translate(322.363281 0)"/>
       <use xlink:href="#DejaVuSans-30" transform="translate(385.986328 0)"/>
      </g>
     </g>
    </g>
    <g id="xtick_3">
     <g id="line2d_3">
      <g>
       <use xlink:href="#m7340cb4b9c" x="301.262166" y="246.04" style="stroke: #000000; stroke-width: 0.8"/>
      </g>
     </g>
     <g id="text_3">
      <!-- 06-14 12 -->
      <g transform="translate(278.781697 260.638438) scale(0.1 -0.1)">
       <use xlink:href="#DejaVuSans-30"/>
       <use xlink:href="#DejaVuSans-36" transform="translate(63.623047 0)"/>
       <use xlink:href="#DejaVuSans-2d" transform="translate(127.246094 0)"/>
       <use xlink:href="#DejaVuSans-31" transform="translate(163.330078 0)"/>
       <use xlink:href="#DejaVuSans-34" transform="translate(226.953125 0)"/>
       <use xlink:href="#DejaVuSans-20" transform="translate(290.576172 0)"/>
       <use xlink:href="#DejaVuSans-31" transform="translate(322.363281 0)"/>
       <use xlink:href="#DejaVuSans-32" transform="translate(385.986328 0)"/>
      </g>
     </g>
    </g>
    <g id="xtick_4">
     <g id="line2d_4">
      <g>
       <use xlink:href="#m7340cb4b9c" x="383.882487" y="246.04" style="stroke: #000000; stroke-width: 0.8"/>
      </g>
     </g>
     <g id="text_4">
      <!-- 06-15 00 -->
      <g transform="translate(361.402018 260.638438) scale(0.1 -0.1)">
       <defs>
        <path id="DejaVuSans-35" d="M 691 4666 
L 3169 4666 
L 3169 4134 
L 1269 4134 
L 1269 2991 
Q 1406 3038 1543 3061 
Q 1681 3084 1819 3084 
Q 2600 3084 3056 2656 
Q 3513 2228 3513 1497 
Q 3513 744 3044 326 
Q 2575 -91 1722 -91 
Q 1428 -91 1123 -41 
Q 819 9 494 109 
L 494 744 
Q 775 591 1075 516 
Q 1375 441 1709 441 
Q 2250 441 2565 725 
Q 2881 1009 2881 1497 
Q 2881 1984 2565 2268 
Q 2250 2553 1709 2553 
Q 1456 2553 1204 2497 
Q 953 2441 691 2322 
L 691 4666 
z
" transform="scale(0.015625)"/>
       </defs>
       <use xlink:href="#DejaVuSans-30"/>
       <use xlink:href="#DejaVuSans-36" transform="translate(63.623047 0)"/>
       <use xlink:href="#DejaVuSans-2d" transform="translate(127.246094 0)"/>
       <use xlink:href="#DejaVuSans-31" transform="translate(163.330078 0)"/>
       <use xlink:href="#DejaVuSans-35" transform="translate(226.953125 0)"/>
       <use xlink:href="#DejaVuSans-20" transform="translate(290.576172 0)"/>
       <use xlink:href="#DejaVuSans-30" transform="translate(322.363281 0)"/>
       <use xlink:href="#DejaVuSans-30" transform="translate(385.986328 0)"/>
      </g>
     </g>
    </g>
    <g id="xtick_5">
     <g id="line2d_5">
      <g>
       <use xlink:href="#m7340cb4b9c" x="466.502807" y="246.04" style="stroke: #000000; stroke-width: 0.8"/>
      </g>
     </g>
     <g id="text_5">
      <!-- 06-15 12 -->
      <g transform="translate(444.022339 260.638438) scale(0.1 -0.1)">
       <use xlink:href="#DejaVuSans-30"/>
       <use xlink:href="#DejaVuSans-36" transform="translate(63.623047 0)"/>
       <use xlink:href="#DejaVuSans-2d" transform="translate(127.246094 0)"/>
       <use xlink:href="#DejaVuSans-31" transform="translate(163.330078 0)"/>
       <use xlink:href="#DejaVuSans-35" transform="translate(226.953125 0)"/>
       <use xlink:href="#DejaVuSans-20" transform="translate(290.576172 0)"/>
       <use xlink:href="#DejaVuSans-31" transform="translate(322.363281 0)"/>
       <use xlink:href="#DejaVuSans-32" transform="translate(385.986328 0)"/>
      </g>
     </g>
    </g>
    <g id="xtick_6">
     <g id="line2d_6">
      <g>
       <use xlink:href="#m7340cb4b9c" x="549.123128" y="246.04" style="stroke: #000000; stroke-width: 0.8"/>
      </g>
     </g>
     <g id="text_6">
      <!-- 06-16 00 -->
      <g transform="translate(526.64266 260.638438) scale(0.1 -0.1)">
       <use xlink:href="#DejaVuSans-30"/>
       <use xlink:href="#DejaVuSans-36" transform="translate(63.623047 0)"/>
       <use xlink:href="#DejaVuSans-2d" transform="translate(127.246094 0)"/>
       <use xlink:href="#DejaVuSans-31" transform="translate(163.330078 0)"/>
       <use xlink:href="#DejaVuSans-36" transform="translate(226.953125 0)"/>
       <use xlink:href="#DejaVuSans-20" transform="translate(290.576172 0)"/>
       <use xlink:href="#DejaVuSans-30" transform="translate(322.363281 0)"/>
       <use xlink:href="#DejaVuSans-30" transform="translate(385.986328 0)"/>
      </g>
     </g>
    </g>
    <g id="xtick_7">
     <g id="line2d_7">
      <g>
       <use xlink:href="#m7340cb4b9c" x="631.743449" y="246.04" style="stroke: #000000; stroke-width: 0.8"/>
      </g>
     </g>
     <g id="text_7">
      <!-- 06-16 12 -->
      <g transform="translate(609.26298 260.638438) scale(0.1 -0.1)">
       <use xlink:href="#DejaVuSans-30"/>
       <use xlink:href="#DejaVuSans-36" transform="translate(63.623047 0)"/>
       <use xlink:href="#DejaVuSans-2d" transform="translate(127.246094 0)"/>
       <use xlink:href="#DejaVuSans-31" transform="translate(163.330078 0)"/>
       <use xlink:href="#DejaVuSans-36" transform="translate(226.953125 0)"/>
       <use xlink:href="#DejaVuSans-20" transform="translate(290.576172 0)"/>
       <use xlink:href="#DejaVuSans-31" transform="translate(322.363281 0)"/>
       <use xlink:href="#DejaVuSans-32" transform="translate(385.986328 0)"/>
      </g>
     </g>
    </g>
    <g id="text_8">
     <!-- Tijd -->
     <g transform="translate(378.475 274.316562) scale(0.1 -0.1)">
      <defs>
       <path id="DejaVuSans-54" d="M -19 4666 
L 3928 4666 
L 3928 4134 
L 2272 4134 
L 2272 0 
L 1638 0 
L 1638 4134 
L -19 4134 
L -19 4666 
z
" transform="scale(0.015625)"/>
       <path id="DejaVuSans-69" d="M 603 3500 
L 1178 3500 
L 1178 0 
L 603 0 
L 603 3500 
z
M 603 4863 
L 1178 4863 
L 1178 4134 
L 603 4134 
L 603 4863 
z
" transform="scale(0.015625)"/>
       <path id="DejaVuSans-6a" d="M 603 3500 
L 1178 3500 
L 1178 -63 
Q 1178 -731 923 -1031 
Q 669 -1331 103 -1331 
L -116 -1331 
L -116 -844 
L 38 -844 
Q 366 -844 484 -692 
Q 603 -541 603 -63 
L 603 3500 
z
M 603 4863 
L 1178 4863 
L 1178 4134 
L 603 4134 
L 603 4863 
z
" transform="scale(0.015625)"/>
       <path id="DejaVuSans-64" d="M 2906 2969 
L 2906 4863 
L 3481 4863 
L 3481 0 
L 2906 0 
L 2906 525 
Q 2725 213 2448 61 
Q 2172 -91 1784 -91 
Q 1150 -91 751 415 
Q 353 922 353 1747 
Q 353 2572 751 3078 
Q 1150 3584 1784 3584 
Q 2172 3584 2448 3432 
Q 2725 3281 2906 2969 
z
M 947 1747 
Q 947 1113 1208 752 
Q 1469 391 1925 391 
Q 2381 391 2643 752 
Q 2906 1113 2906 1747 
Q 2906 2381 2643 2742 
Q 2381 3103 1925 3103 
Q 1469 3103 1208 2742 
Q 947 2381 947 1747 
z
" transform="scale(0.015625)"/>
      </defs>
      <use xlink:href="#DejaVuSans-54"/>
      <use xlink:href="#DejaVuSans-69" transform="translate(57.958984 0)"/>
      <use xlink:href="#DejaVuSans-6a" transform="translate(85.742188 0)"/>
      <use xlink:href="#DejaVuSans-64" transform="translate(113.525391 0)"/>
     </g>
    </g>
   </g>
   <g id="matplotlib.axis_2">
    <g id="ytick_1">
     <g id="line2d_8">
      <defs>
       <path id="m8d81b1dd77" d="M 0 0 
L -3.5 0 
" style="stroke: #000000; stroke-width: 0.8"/>
      </defs>
      <g>
       <use xlink:href="#m8d81b1dd77" x="65.45" y="238.797272" style="stroke: #000000; stroke-width: 0.8"/>
      </g>
     </g>
     <g id="text_9">
      <!-- −5000 -->
      <g transform="translate(24.620313 242.596491) scale(0.1 -0.1)">
       <defs>
        <path id="DejaVuSans-2212" d="M 678 2272 
L 4684 2272 
L 4684 1741 
L 678 1741 
L 678 2272 
z
" transform="scale(0.015625)"/>
       </defs>
       <use xlink:href="#DejaVuSans-2212"/>
       <use xlink:href="#DejaVuSans-35" transform="translate(83.789062 0)"/>
       <use xlink:href="#DejaVuSans-30" transform="translate(147.412109 0)"/>
       <use xlink:href="#DejaVuSans-30" transform="translate(211.035156 0)"/>
       <use xlink:href="#DejaVuSans-30" transform="translate(274.658203 0)"/>
      </g>
     </g>
    </g>
    <g id="ytick_2">
     <g id="line2d_9">
      <g>
       <use xlink:href="#m8d81b1dd77" x="65.45" y="201.502499" style="stroke: #000000; stroke-width: 0.8"/>
      </g>
     </g>
     <g id="text_10">
      <!-- 0 -->
      <g transform="translate(52.0875 205.301718) scale(0.1 -0.1)">
       <use xlink:href="#DejaVuSans-30"/>
      </g>
     </g>
    </g>
    <g id="ytick_3">
     <g id="line2d_10">
      <g>
       <use xlink:href="#m8d81b1dd77" x="65.45" y="164.207726" style="stroke: #000000; stroke-width: 0.8"/>
      </g>
     </g>
     <g id="text_11">
      <!-- 5000 -->
      <g transform="translate(33 168.006944) scale(0.1 -0.1)">
       <use xlink:href="#DejaVuSans-35"/>
       <use xlink:href="#DejaVuSans-30" transform="translate(63.623047 0)"/>
       <use xlink:href="#DejaVuSans-30" transform="translate(127.246094 0)"/>
       <use xlink:href="#DejaVuSans-30" transform="translate(190.869141 0)"/>
      </g>
     </g>
    </g>
    <g id="ytick_4">
     <g id="line2d_11">
      <g>
       <use xlink:href="#m8d81b1dd77" x="65.45" y="126.912952" style="stroke: #000000; stroke-width: 0.8"/>
      </g>
     </g>
     <g id="text_12">
      <!-- 10000 -->
      <g transform="translate(26.6375 130.712171) scale(0.1 -0.1)">
       <use xlink:href="#DejaVuSans-31"/>
       <use xlink:href="#DejaVuSans-30" transform="translate(63.623047 0)"/>
       <use xlink:href="#DejaVuSans-30" transform="translate(127.246094 0)"/>
       <use xlink:href="#DejaVuSans-30" transform="translate(190.869141 0)"/>
       <use xlink:href="#DejaVuSans-30" transform="translate(254.492188 0)"/>
      </g>
     </g>
    </g>
    <g id="ytick_5">
     <g id="line2d_12">
      <g>
       <use xlink:href="#m8d81b1dd77" x="65.45" y="89.618179" style="stroke: #000000; stroke-width: 0.8"/>
      </g>
     </g>
     <g id="text_13">
      <!-- 15000 -->
      <g transform="translate(26.6375 93.417398) scale(0.1 -0.1)">
       <use xlink:href="#DejaVuSans-31"/>
       <use xlink:href="#DejaVuSans-35" transform="translate(63.623047 0)"/>
       <use xlink:href="#DejaVuSans-30" transform="translate(127.246094 0)"/>
       <use xlink:href="#DejaVuSans-30" transform="translate(190.869141 0)"/>
       <use xlink:href="#DejaVuSans-30" transform="translate(254.492188 0)"/>
      </g>
     </g>
    </g>
    <g id="ytick_6">
     <g id="line2d_13">
      <g>
       <use xlink:href="#m8d81b1dd77" x="65.45" y="52.323406" style="stroke: #000000; stroke-width: 0.8"/>
      </g>
     </g>
     <g id="text_14">
      <!-- 20000 -->
      <g transform="translate(26.6375 56.122625) scale(0.1 -0.1)">
       <use xlink:href="#DejaVuSans-32"/>
       <use xlink:href="#DejaVuSans-30" transform="translate(63.623047 0)"/>
       <use xlink:href="#DejaVuSans-30" transform="translate(127.246094 0)"/>
       <use xlink:href="#DejaVuSans-30" transform="translate(190.869141 0)"/>
       <use xlink:href="#DejaVuSans-30" transform="translate(254.492188 0)"/>
      </g>
     </g>
    </g>
    <g id="text_15">
     <!-- CO2 (PPM) -->
     <g transform="translate(18.540625 162.902969) rotate(-90) scale(0.1 -0.1)">
      <defs>
       <path id="DejaVuSans-43" d="M 4122 4306 
L 4122 3641 
Q 3803 3938 3442 4084 
Q 3081 4231 2675 4231 
Q 1875 4231 1450 3742 
Q 1025 3253 1025 2328 
Q 1025 1406 1450 917 
Q 1875 428 2675 428 
Q 3081 428 3442 575 
Q 3803 722 4122 1019 
L 4122 359 
Q 3791 134 3420 21 
Q 3050 -91 2638 -91 
Q 1578 -91 968 557 
Q 359 1206 359 2328 
Q 359 3453 968 4101 
Q 1578 4750 2638 4750 
Q 3056 4750 3426 4639 
Q 3797 4528 4122 4306 
z
" transform="scale(0.015625)"/>
       <path id="DejaVuSans-4f" d="M 2522 4238 
Q 1834 4238 1429 3725 
Q 1025 3213 1025 2328 
Q 1025 1447 1429 934 
Q 1834 422 2522 422 
Q 3209 422 3611 934 
Q 4013 1447 4013 2328 
Q 4013 3213 3611 3725 
Q 3209 4238 2522 4238 
z
M 2522 4750 
Q 3503 4750 4090 4092 
Q 4678 3434 4678 2328 
Q 4678 1225 4090 567 
Q 3503 -91 2522 -91 
Q 1538 -91 948 565 
Q 359 1222 359 2328 
Q 359 3434 948 4092 
Q 1538 4750 2522 4750 
z
" transform="scale(0.015625)"/>
       <path id="DejaVuSans-28" d="M 1984 4856 
Q 1566 4138 1362 3434 
Q 1159 2731 1159 2009 
Q 1159 1288 1364 580 
Q 1569 -128 1984 -844 
L 1484 -844 
Q 1016 -109 783 600 
Q 550 1309 550 2009 
Q 550 2706 781 3412 
Q 1013 4119 1484 4856 
L 1984 4856 
z
" transform="scale(0.015625)"/>
       <path id="DejaVuSans-50" d="M 1259 4147 
L 1259 2394 
L 2053 2394 
Q 2494 2394 2734 2622 
Q 2975 2850 2975 3272 
Q 2975 3691 2734 3919 
Q 2494 4147 2053 4147 
L 1259 4147 
z
M 628 4666 
L 2053 4666 
Q 2838 4666 3239 4311 
Q 3641 3956 3641 3272 
Q 3641 2581 3239 2228 
Q 2838 1875 2053 1875 
L 1259 1875 
L 1259 0 
L 628 0 
L 628 4666 
z
" transform="scale(0.015625)"/>
       <path id="DejaVuSans-4d" d="M 628 4666 
L 1569 4666 
L 2759 1491 
L 3956 4666 
L 4897 4666 
L 4897 0 
L 4281 0 
L 4281 4097 
L 3078 897 
L 2444 897 
L 1241 4097 
L 1241 0 
L 628 0 
L 628 4666 
z
" transform="scale(0.015625)"/>
       <path id="DejaVuSans-29" d="M 513 4856 
L 1013 4856 
Q 1481 4119 1714 3412 
Q 1947 2706 1947 2009 
Q 1947 1309 1714 600 
Q 1481 -109 1013 -844 
L 513 -844 
Q 928 -128 1133 580 
Q 1338 1288 1338 2009 
Q 1338 2731 1133 3434 
Q 928 4138 513 4856 
z
" transform="scale(0.015625)"/>
      </defs>
      <use xlink:href="#DejaVuSans-43"/>
      <use xlink:href="#DejaVuSans-4f" transform="translate(69.824219 0)"/>
      <use xlink:href="#DejaVuSans-32" transform="translate(148.535156 0)"/>
      <use xlink:href="#DejaVuSans-20" transform="translate(212.158203 0)"/>
      <use xlink:href="#DejaVuSans-28" transform="translate(243.945312 0)"/>
      <use xlink:href="#DejaVuSans-50" transform="translate(282.958984 0)"/>
      <use xlink:href="#DejaVuSans-50" transform="translate(343.261719 0)"/>
      <use xlink:href="#DejaVuSans-4d" transform="translate(403.564453 0)"/>
      <use xlink:href="#DejaVuSans-29" transform="translate(489.84375 0)"/>
     </g>
    </g>
   </g>
   <g id="line2d_14">
    <path d="M 94.711364 173.158471 
L 98.153877 167.914826 
L 101.59639 167.758188 
L 105.038904 171.767376 
L 108.481417 163.854669 
L 111.92393 154.11576 
L 115.366444 135.528045 
L 118.808957 148.178432 
L 122.251471 145.646117 
L 125.693984 149.342029 
L 129.136497 149.943718 
L 132.579011 150.132678 
L 136.021524 140.902222 
L 139.464037 129.294845 
L 142.906551 140.41739 
L 146.349064 132.66132 
L 149.791578 140.458414 
L 153.234091 149.845509 
L 156.676604 155.786566 
L 160.119118 155.953149 
L 163.561631 150.755501 
L 167.004144 160.418577 
L 170.446658 155.864885 
L 173.889171 160.438467 
L 177.331684 160.515543 
L 180.774198 160.094112 
L 191.101738 174.110731 
L 194.544251 173.76016 
L 197.986765 167.14904 
L 201.429278 176.0426 
L 204.871791 176.413062 
L 208.314305 179.503555 
L 211.756818 183.213142 
L 215.199332 183.782509 
L 218.641845 184.160429 
L 222.084358 183.906825 
L 225.526872 180.644775 
L 228.969385 184.384198 
L 232.411898 183.899366 
L 235.854412 184.123135 
L 239.296925 184.496082 
L 242.739439 184.72731 
L 246.181952 181.87053 
L 249.624465 183.571172 
L 253.066979 185.135066 
L 256.509492 184.100758 
L 259.952005 180.856113 
L 263.394519 185.261868 
L 266.837032 186.51 
L 277.164572 175.71192 
L 280.607086 173.717893 
L 284.049599 174.59805 
L 290.934626 176.694016 
L 294.377139 174.565727 
L 297.819652 168.581159 
L 301.262166 170.353904 
L 308.147193 171.580902 
L 311.589706 172.019738 
L 315.032219 170.590105 
L 318.474733 156.18562 
L 321.917246 161.164472 
L 325.359759 172.880004 
L 328.802273 170.007063 
L 332.244786 172.95708 
L 335.687299 173.923014 
L 339.129813 176.634344 
L 342.572326 171.932716 
L 346.01484 169.135608 
L 349.457353 167.821589 
L 352.899866 170.920785 
L 356.34238 170.294233 
L 359.784893 174.742256 
L 363.227406 175.888449 
L 366.66992 174.125649 
L 370.112433 177.467261 
L 373.554947 177.847667 
L 376.99746 179.786996 
L 380.439973 180.217129 
L 383.882487 179.660193 
L 387.325 182.837708 
L 390.767513 181.904096 
L 401.095053 166.60205 
L 404.537567 159.635387 
L 407.98008 162.298233 
L 411.422594 161.447912 
L 414.865107 163.904395 
L 418.30762 172.785524 
L 421.750134 171.736297 
L 425.192647 164.55581 
L 428.63516 167.094341 
L 432.077674 170.93073 
L 435.520187 170.152513 
L 438.962701 169.809401 
L 442.405214 166.214185 
L 445.847727 158.870844 
L 449.290241 155.383782 
L 452.732754 153.466831 
L 456.175267 135.06186 
L 459.617781 146.38331 
L 463.060294 164.073465 
L 466.502807 159.292275 
L 469.945321 154.742312 
L 473.387834 155.18612 
L 476.830348 155.995417 
L 480.272861 158.061547 
L 483.715374 163.954121 
L 487.157888 160.614996 
L 490.600401 164.826819 
L 494.042914 172.017251 
L 497.485428 165.923285 
L 500.927941 163.623441 
L 504.370455 163.689328 
L 507.812968 161.052588 
L 511.255481 165.411104 
L 514.697995 156.077465 
L 518.140508 154.573243 
L 521.583021 146.902951 
L 525.025535 155.85121 
L 528.468048 150.19235 
L 531.910561 161.505098 
L 535.353075 168.926758 
L 538.795588 163.081424 
L 542.238102 163.290274 
L 545.680615 167.815373 
L 549.123128 167.464803 
L 552.565642 165.286788 
L 556.008155 165.600064 
L 559.450668 169.983443 
L 562.893182 167.094341 
L 566.335695 167.442426 
L 569.778209 166.398172 
L 573.220722 167.012293 
L 576.663235 163.665708 
L 580.105749 159.407888 
L 583.548262 160.087896 
L 586.990775 170.652263 
L 590.433289 169.021238 
L 593.875802 169.028697 
L 597.318316 168.31761 
L 600.760829 164.719907 
L 604.203342 164.058547 
L 607.645856 161.450399 
L 611.088369 147.027267 
L 614.530882 147.243577 
L 617.973396 144.516085 
L 621.415909 140.436037 
L 624.858422 139.593175 
L 628.300936 138.451955 
L 631.743449 135.285629 
L 635.185963 158.034198 
L 638.628476 144.851738 
L 642.070989 139.874129 
L 645.513503 120.949518 
L 648.956016 131.172016 
L 652.398529 137.251064 
L 655.841043 158.655777 
L 659.283556 152.360419 
L 662.72607 133.026809 
L 666.168583 135.08548 
L 669.611096 141.537476 
L 673.05361 143.076507 
L 676.496123 152.017307 
L 679.938636 154.138137 
L 679.938636 154.138137 
" clip-path="url(#p36cc1cb555)" style="fill: none; stroke: #1f77b4; stroke-width: 2; stroke-linecap: square"/>
   </g>
   <g id="line2d_15">
    <path d="M 94.711364 160.306692 
L 98.153877 146.017111 
L 101.59639 150.645215 
L 105.038904 151.661231 
L 108.481417 153.810476 
L 111.92393 150.191995 
L 115.366444 152.93766 
L 118.808957 146.734414 
L 122.251471 147.796072 
L 125.693984 150.826006 
L 129.136497 149.93253 
L 132.579011 152.388657 
L 136.021524 163.244968 
L 139.464037 161.094855 
L 142.906551 165.486004 
L 146.349064 164.891152 
L 149.791578 168.264154 
L 153.234091 170.895766 
L 156.676604 168.264687 
L 160.119118 170.049153 
L 163.561631 171.255905 
L 167.004144 171.156097 
L 170.446658 172.711112 
L 173.889171 176.119469 
L 177.331684 174.886462 
L 180.774198 171.718271 
L 184.216711 176.15896 
L 187.659225 178.031655 
L 191.101738 178.280287 
L 194.544251 178.225173 
L 197.986765 176.894164 
L 201.429278 178.381812 
L 204.871791 177.874188 
L 208.314305 178.972726 
L 211.756818 178.964853 
L 215.199332 178.276972 
L 218.641845 178.787081 
L 222.084358 178.545909 
L 225.526872 175.174875 
L 228.969385 175.206452 
L 232.411898 170.528444 
L 235.854412 171.228052 
L 239.296925 174.916298 
L 242.739439 168.767219 
L 246.181952 166.376831 
L 249.624465 166.388641 
L 253.066979 162.198366 
L 256.509492 163.213613 
L 259.952005 165.930951 
L 263.394519 164.406631 
L 266.837032 166.088211 
L 270.279545 164.240296 
L 273.722059 167.312723 
L 277.164572 162.263425 
L 280.607086 161.856912 
L 284.049599 166.227445 
L 287.492112 159.87457 
L 290.934626 170.52546 
L 294.377139 165.566499 
L 297.819652 171.565239 
L 301.262166 164.183277 
L 304.704679 164.510808 
L 308.147193 168.834971 
L 311.589706 169.61236 
L 315.032219 169.451164 
L 318.474733 170.564247 
L 321.917246 168.194537 
L 325.359759 169.517258 
L 328.802273 170.293404 
L 332.244786 171.743963 
L 335.687299 174.053339 
L 339.129813 172.58351 
L 342.572326 172.851411 
L 346.01484 176.189826 
L 349.457353 173.770106 
L 352.899866 175.269711 
L 356.34238 175.375912 
L 359.784893 169.973083 
L 363.227406 171.325226 
L 366.66992 170.510128 
L 370.112433 170.75213 
L 373.554947 172.219886 
L 376.99746 173.547166 
L 380.439973 172.218229 
L 383.882487 173.73654 
L 387.325 173.032083 
L 390.767513 170.944612 
L 394.210027 164.819857 
L 397.65254 163.165544 
L 401.095053 162.37158 
L 404.537567 162.473933 
L 407.98008 161.140852 
L 411.422594 159.515007 
L 414.865107 158.989358 
L 418.30762 158.930101 
L 421.750134 157.637837 
L 425.192647 155.479091 
L 428.63516 156.969225 
L 432.077674 155.13888 
L 435.520187 156.293568 
L 438.962701 152.094798 
L 442.405214 153.675682 
L 445.847727 152.779571 
L 449.290241 154.358176 
L 452.732754 153.199137 
L 456.175267 148.50414 
L 459.617781 150.233996 
L 463.060294 146.213412 
L 466.502807 136.46 
L 469.945321 158.541406 
L 473.387834 160.492959 
L 476.830348 157.659178 
L 480.272861 158.869186 
L 483.715374 158.46951 
L 487.157888 156.298333 
L 490.600401 161.8393 
L 494.042914 160.524245 
L 497.485428 160.603393 
L 500.927941 163.365278 
L 504.370455 161.415798 
L 507.812968 163.388277 
L 514.697995 161.516493 
L 518.140508 161.371665 
L 521.583021 157.545222 
L 525.025535 162.19588 
L 531.910561 164.012135 
L 535.353075 165.188164 
L 538.795588 165.234161 
L 542.238102 164.138523 
L 545.680615 164.514786 
L 549.123128 163.243863 
L 552.565642 161.094441 
L 556.008155 159.776278 
L 559.450668 154.107265 
L 562.893182 153.447769 
L 566.335695 149.070192 
L 569.778209 150.318323 
L 573.220722 145.574428 
L 576.663235 146.151254 
L 580.105749 143.166636 
L 583.548262 142.432965 
L 586.990775 142.096898 
L 590.433289 141.574771 
L 593.875802 144.038298 
L 597.318316 148.597791 
L 600.760829 143.461472 
L 604.203342 141.23974 
L 607.645856 140.618989 
L 611.088369 142.199666 
L 614.530882 140.28893 
L 617.973396 137.74957 
L 621.415909 142.917631 
L 624.858422 143.879588 
L 628.300936 138.510384 
L 631.743449 141.452527 
L 635.185963 150.399543 
L 638.628476 144.748142 
L 642.070989 150.137651 
L 645.513503 121.253471 
L 648.956016 131.172016 
L 652.398529 137.251064 
L 655.841043 158.655777 
L 659.283556 152.360419 
L 662.72607 133.026809 
L 666.168583 135.08548 
L 669.611096 141.537476 
L 673.05361 143.076507 
L 676.496123 152.017307 
L 679.938636 154.138137 
L 679.938636 154.138137 
" clip-path="url(#p36cc1cb555)" style="fill: none; stroke-dasharray: 5.55,2.4; stroke-dashoffset: 0; stroke: #808080; stroke-width: 1.5"/>
   </g>
   <g id="patch_3">
    <path d="M 65.45 246.04 
L 65.45 26.88 
" style="fill: none; stroke: #000000; stroke-width: 0.8; stroke-linejoin: miter; stroke-linecap: square"/>
   </g>
   <g id="patch_4">
    <path d="M 709.2 246.04 
L 709.2 26.88 
" style="fill: none; stroke: #000000; stroke-width: 0.8; stroke-linejoin: miter; stroke-linecap: square"/>
   </g>
   <g id="patch_5">
    <path d="M 65.45 246.04 
L 709.2 246.04 
" style="fill: none; stroke: #000000; stroke-width: 0.8; stroke-linejoin: miter; stroke-linecap: square"/>
   </g>
   <g id="patch_6">
    <path d="M 65.45 26.88 
L 709.2 26.88 
" style="fill: none; stroke: #000000; stroke-width: 0.8; stroke-linejoin: miter; stroke-linecap: square"/>
   </g>
   <g id="text_16">
    <!-- CO2 - v001/c00002/d001 -->
    <g transform="translate(311.921875 20.88) scale(0.12 -0.12)">
     <defs>
      <path id="DejaVuSans-76" d="M 191 3500 
L 800 3500 
L 1894 563 
L 2988 3500 
L 3597 3500 
L 2284 0 
L 1503 0 
L 191 3500 
z
" transform="scale(0.015625)"/>
      <path id="DejaVuSans-2f" d="M 1625 4666 
L 2156 4666 
L 531 -594 
L 0 -594 
L 1625 4666 
z
" transform="scale(0.015625)"/>
      <path id="DejaVuSans-63" d="M 3122 3366 
L 3122 2828 
Q 2878 2963 2633 3030 
Q 2388 3097 2138 3097 
Q 1578 3097 1268 2742 
Q 959 2388 959 1747 
Q 959 1106 1268 751 
Q 1578 397 2138 397 
Q 2388 397 2633 464 
Q 2878 531 3122 666 
L 3122 134 
Q 2881 22 2623 -34 
Q 2366 -91 2075 -91 
Q 1284 -91 818 406 
Q 353 903 353 1747 
Q 353 2603 823 3093 
Q 1294 3584 2113 3584 
Q 2378 3584 2631 3529 
Q 2884 3475 3122 3366 
z
" transform="scale(0.015625)"/>
     </defs>
     <use xlink:href="#DejaVuSans-43"/>
     <use xlink:href="#DejaVuSans-4f" transform="translate(69.824219 0)"/>
     <use xlink:href="#DejaVuSans-32" transform="translate(148.535156 0)"/>
     <use xlink:href="#DejaVuSans-20" transform="translate(212.158203 0)"/>
     <use xlink:href="#DejaVuSans-2d" transform="translate(243.945312 0)"/>
     <use xlink:href="#DejaVuSans-20" transform="translate(280.029297 0)"/>
     <use xlink:href="#DejaVuSans-76" transform="translate(311.816406 0)"/>
     <use xlink:href="#DejaVuSans-30" transform="translate(370.996094 0)"/>
     <use xlink:href="#DejaVuSans-30" transform="translate(434.619141 0)"/>
     <use xlink:href="#DejaVuSans-31" transform="translate(498.242188 0)"/>
     <use xlink:href="#DejaVuSans-2f" transform="translate(561.865234 0)"/>
     <use xlink:href="#DejaVuSans-63" transform="translate(595.556641 0)"/>
     <use xlink:href="#DejaVuSans-30" transform="translate(650.537109 0)"/>
     <use xlink:href="#DejaVuSans-30" transform="translate(714.160156 0)"/>
     <use xlink:href="#DejaVuSans-30" transform="translate(777.783203 0)"/>
     <use xlink:href="#DejaVuSans-30" transform="translate(841.40625 0)"/>
     <use xlink:href="#DejaVuSans-32" transform="translate(905.029297 0)"/>
     <use xlink:href="#DejaVuSans-2f" transform="translate(968.652344 0)"/>
     <use xlink:href="#DejaVuSans-64" transform="translate(1002.34375 0)"/>
     <use xlink:href="#DejaVuSans-30" transform="translate(1065.820312 0)"/>
     <use xlink:href="#DejaVuSans-30" transform="translate(1129.443359 0)"/>
     <use xlink:href="#DejaVuSans-31" transform="translate(1193.066406 0)"/>
    </g>
   </g>
   <g id="legend_1">
    <g id="patch_7">
     <path d="M 551.25625 78.914375 
L 702.2 78.914375 
Q 704.2 78.914375 704.2 76.914375 
L 704.2 33.88 
Q 704.2 31.88 702.2 31.88 
L 551.25625 31.88 
Q 549.25625 31.88 549.25625 33.88 
L 549.25625 76.914375 
Q 549.25625 78.914375 551.25625 78.914375 
z
" style="fill: #ffffff; opacity: 0.8; stroke: #cccccc; stroke-linejoin: miter"/>
    </g>
    <g id="line2d_16">
     <path d="M 553.25625 39.978438 
L 563.25625 39.978438 
L 573.25625 39.978438 
" style="fill: none; stroke: #1f77b4; stroke-width: 2; stroke-linecap: square"/>
    </g>
    <g id="text_17">
     <!-- Hive -->
     <g transform="translate(581.25625 43.478438) scale(0.1 -0.1)">
      <defs>
       <path id="DejaVuSans-48" d="M 628 4666 
L 1259 4666 
L 1259 2753 
L 3553 2753 
L 3553 4666 
L 4184 4666 
L 4184 0 
L 3553 0 
L 3553 2222 
L 1259 2222 
L 1259 0 
L 628 0 
L 628 4666 
z
" transform="scale(0.015625)"/>
       <path id="DejaVuSans-65" d="M 3597 1894 
L 3597 1613 
L 953 1613 
Q 991 1019 1311 708 
Q 1631 397 2203 397 
Q 2534 397 2845 478 
Q 3156 559 3463 722 
L 3463 178 
Q 3153 47 2828 -22 
Q 2503 -91 2169 -91 
Q 1331 -91 842 396 
Q 353 884 353 1716 
Q 353 2575 817 3079 
Q 1281 3584 2069 3584 
Q 2775 3584 3186 3129 
Q 3597 2675 3597 1894 
z
M 3022 2063 
Q 3016 2534 2758 2815 
Q 2500 3097 2075 3097 
Q 1594 3097 1305 2825 
Q 1016 2553 972 2059 
L 3022 2063 
z
" transform="scale(0.015625)"/>
      </defs>
      <use xlink:href="#DejaVuSans-48"/>
      <use xlink:href="#DejaVuSans-69" transform="translate(75.195312 0)"/>
      <use xlink:href="#DejaVuSans-76" transform="translate(102.978516 0)"/>
      <use xlink:href="#DejaVuSans-65" transform="translate(162.158203 0)"/>
     </g>
    </g>
    <g id="line2d_17">
     <path d="M 553.25625 54.656563 
L 563.25625 54.656563 
L 573.25625 54.656563 
" style="fill: none; stroke-dasharray: 5.55,2.4; stroke-dashoffset: 0; stroke: #808080; stroke-width: 1.5"/>
    </g>
    <g id="text_18">
     <!-- Gemiddelde (alle hives) -->
     <g transform="translate(581.25625 58.156563) scale(0.1 -0.1)">
      <defs>
       <path id="DejaVuSans-47" d="M 3809 666 
L 3809 1919 
L 2778 1919 
L 2778 2438 
L 4434 2438 
L 4434 434 
Q 4069 175 3628 42 
Q 3188 -91 2688 -91 
Q 1594 -91 976 548 
Q 359 1188 359 2328 
Q 359 3472 976 4111 
Q 1594 4750 2688 4750 
Q 3144 4750 3555 4637 
Q 3966 4525 4313 4306 
L 4313 3634 
Q 3963 3931 3569 4081 
Q 3175 4231 2741 4231 
Q 1884 4231 1454 3753 
Q 1025 3275 1025 2328 
Q 1025 1384 1454 906 
Q 1884 428 2741 428 
Q 3075 428 3337 486 
Q 3600 544 3809 666 
z
" transform="scale(0.015625)"/>
       <path id="DejaVuSans-6d" d="M 3328 2828 
Q 3544 3216 3844 3400 
Q 4144 3584 4550 3584 
Q 5097 3584 5394 3201 
Q 5691 2819 5691 2113 
L 5691 0 
L 5113 0 
L 5113 2094 
Q 5113 2597 4934 2840 
Q 4756 3084 4391 3084 
Q 3944 3084 3684 2787 
Q 3425 2491 3425 1978 
L 3425 0 
L 2847 0 
L 2847 2094 
Q 2847 2600 2669 2842 
Q 2491 3084 2119 3084 
Q 1678 3084 1418 2786 
Q 1159 2488 1159 1978 
L 1159 0 
L 581 0 
L 581 3500 
L 1159 3500 
L 1159 2956 
Q 1356 3278 1631 3431 
Q 1906 3584 2284 3584 
Q 2666 3584 2933 3390 
Q 3200 3197 3328 2828 
z
" transform="scale(0.015625)"/>
       <path id="DejaVuSans-6c" d="M 603 4863 
L 1178 4863 
L 1178 0 
L 603 0 
L 603 4863 
z
" transform="scale(0.015625)"/>
       <path id="DejaVuSans-61" d="M 2194 1759 
Q 1497 1759 1228 1600 
Q 959 1441 959 1056 
Q 959 750 1161 570 
Q 1363 391 1709 391 
Q 2188 391 2477 730 
Q 2766 1069 2766 1631 
L 2766 1759 
L 2194 1759 
z
M 3341 1997 
L 3341 0 
L 2766 0 
L 2766 531 
Q 2569 213 2275 61 
Q 1981 -91 1556 -91 
Q 1019 -91 701 211 
Q 384 513 384 1019 
Q 384 1609 779 1909 
Q 1175 2209 1959 2209 
L 2766 2209 
L 2766 2266 
Q 2766 2663 2505 2880 
Q 2244 3097 1772 3097 
Q 1472 3097 1187 3025 
Q 903 2953 641 2809 
L 641 3341 
Q 956 3463 1253 3523 
Q 1550 3584 1831 3584 
Q 2591 3584 2966 3190 
Q 3341 2797 3341 1997 
z
" transform="scale(0.015625)"/>
       <path id="DejaVuSans-68" d="M 3513 2113 
L 3513 0 
L 2938 0 
L 2938 2094 
Q 2938 2591 2744 2837 
Q 2550 3084 2163 3084 
Q 1697 3084 1428 2787 
Q 1159 2491 1159 1978 
L 1159 0 
L 581 0 
L 581 4863 
L 1159 4863 
L 1159 2956 
Q 1366 3272 1645 3428 
Q 1925 3584 2291 3584 
Q 2894 3584 3203 3211 
Q 3513 2838 3513 2113 
z
" transform="scale(0.015625)"/>
       <path id="DejaVuSans-73" d="M 2834 3397 
L 2834 2853 
Q 2591 2978 2328 3040 
Q 2066 3103 1784 3103 
Q 1356 3103 1142 2972 
Q 928 2841 928 2578 
Q 928 2378 1081 2264 
Q 1234 2150 1697 2047 
L 1894 2003 
Q 2506 1872 2764 1633 
Q 3022 1394 3022 966 
Q 3022 478 2636 193 
Q 2250 -91 1575 -91 
Q 1294 -91 989 -36 
Q 684 19 347 128 
L 347 722 
Q 666 556 975 473 
Q 1284 391 1588 391 
Q 1994 391 2212 530 
Q 2431 669 2431 922 
Q 2431 1156 2273 1281 
Q 2116 1406 1581 1522 
L 1381 1569 
Q 847 1681 609 1914 
Q 372 2147 372 2553 
Q 372 3047 722 3315 
Q 1072 3584 1716 3584 
Q 2034 3584 2315 3537 
Q 2597 3491 2834 3397 
z
" transform="scale(0.015625)"/>
      </defs>
      <use xlink:href="#DejaVuSans-47"/>
      <use xlink:href="#DejaVuSans-65" transform="translate(77.490234 0)"/>
      <use xlink:href="#DejaVuSans-6d" transform="translate(139.013672 0)"/>
      <use xlink:href="#DejaVuSans-69" transform="translate(236.425781 0)"/>
      <use xlink:href="#DejaVuSans-64" transform="translate(264.208984 0)"/>
      <use xlink:href="#DejaVuSans-64" transform="translate(327.685547 0)"/>
      <use xlink:href="#DejaVuSans-65" transform="translate(391.162109 0)"/>
      <use xlink:href="#DejaVuSans-6c" transform="translate(452.685547 0)"/>
      <use xlink:href="#DejaVuSans-64" transform="translate(480.46875 0)"/>
      <use xlink:href="#DejaVuSans-65" transform="translate(543.945312 0)"/>
      <use xlink:href="#DejaVuSans-20" transform="translate(605.46875 0)"/>
      <use xlink:href="#DejaVuSans-28" transform="translate(637.255859 0)"/>
      <use xlink:href="#DejaVuSans-61" transform="translate(676.269531 0)"/>
      <use xlink:href="#DejaVuSans-6c" transform="translate(737.548828 0)"/>
      <use xlink:href="#DejaVuSans-6c" transform="translate(765.332031 0)"/>
      <use xlink:href="#DejaVuSans-65" transform="translate(793.115234 0)"/>
      <use xlink:href="#DejaVuSans-20" transform="translate(854.638672 0)"/>
      <use xlink:href="#DejaVuSans-68" transform="translate(886.425781 0)"/>
      <use xlink:href="#DejaVuSans-69" transform="translate(949.804688 0)"/>
      <use xlink:href="#DejaVuSans-76" transform="translate(977.587891 0)"/>
      <use xlink:href="#DejaVuSans-65" transform="translate(1036.767578 0)"/>
      <use xlink:href="#DejaVuSans-73" transform="translate(1098.291016 0)"/>
      <use xlink:href="#DejaVuSans-29" transform="translate(1150.390625 0)"/>
     </g>
    </g>
    <g id="patch_8">
     <path d="M 553.25625 72.834688 
L 573.25625 72.834688 
L 573.25625 65.834688 
L 553.25625 65.834688 
z
" style="fill: #808080; fill-opacity: 0.2; stroke: #808080; stroke-opacity: 0.2; stroke-linejoin: miter"/>
    </g>
    <g id="text_19">
     <!-- ±2 Std Dev -->
     <g transform="translate(581.25625 72.834688) scale(0.1 -0.1)">
      <defs>
       <path id="DejaVuSans-b1" d="M 2944 4013 
L 2944 2803 
L 4684 2803 
L 4684 2272 
L 2944 2272 
L 2944 1063 
L 2419 1063 
L 2419 2272 
L 678 2272 
L 678 2803 
L 2419 2803 
L 2419 4013 
L 2944 4013 
z
M 678 531 
L 4684 531 
L 4684 0 
L 678 0 
L 678 531 
z
" transform="scale(0.015625)"/>
       <path id="DejaVuSans-53" d="M 3425 4513 
L 3425 3897 
Q 3066 4069 2747 4153 
Q 2428 4238 2131 4238 
Q 1616 4238 1336 4038 
Q 1056 3838 1056 3469 
Q 1056 3159 1242 3001 
Q 1428 2844 1947 2747 
L 2328 2669 
Q 3034 2534 3370 2195 
Q 3706 1856 3706 1288 
Q 3706 609 3251 259 
Q 2797 -91 1919 -91 
Q 1588 -91 1214 -16 
Q 841 59 441 206 
L 441 856 
Q 825 641 1194 531 
Q 1563 422 1919 422 
Q 2459 422 2753 634 
Q 3047 847 3047 1241 
Q 3047 1584 2836 1778 
Q 2625 1972 2144 2069 
L 1759 2144 
Q 1053 2284 737 2584 
Q 422 2884 422 3419 
Q 422 4038 858 4394 
Q 1294 4750 2059 4750 
Q 2388 4750 2728 4690 
Q 3069 4631 3425 4513 
z
" transform="scale(0.015625)"/>
       <path id="DejaVuSans-74" d="M 1172 4494 
L 1172 3500 
L 2356 3500 
L 2356 3053 
L 1172 3053 
L 1172 1153 
Q 1172 725 1289 603 
Q 1406 481 1766 481 
L 2356 481 
L 2356 0 
L 1766 0 
Q 1100 0 847 248 
Q 594 497 594 1153 
L 594 3053 
L 172 3053 
L 172 3500 
L 594 3500 
L 594 4494 
L 1172 4494 
z
" transform="scale(0.015625)"/>
       <path id="DejaVuSans-44" d="M 1259 4147 
L 1259 519 
L 2022 519 
Q 2988 519 3436 956 
Q 3884 1394 3884 2338 
Q 3884 3275 3436 3711 
Q 2988 4147 2022 4147 
L 1259 4147 
z
M 628 4666 
L 1925 4666 
Q 3281 4666 3915 4102 
Q 4550 3538 4550 2338 
Q 4550 1131 3912 565 
Q 3275 0 1925 0 
L 628 0 
L 628 4666 
z
" transform="scale(0.015625)"/>
      </defs>
      <use xlink:href="#DejaVuSans-b1"/>
      <use xlink:href="#DejaVuSans-32" transform="translate(83.789062 0)"/>
      <use xlink:href="#DejaVuSans-20" transform="translate(147.412109 0)"/>
      <use xlink:href="#DejaVuSans-53" transform="translate(179.199219 0)"/>
      <use xlink:href="#DejaVuSans-74" transform="translate(242.675781 0)"/>
      <use xlink:href="#DejaVuSans-64" transform="translate(281.884766 0)"/>
      <use xlink:href="#DejaVuSans-20" transform="translate(345.361328 0)"/>
      <use xlink:href="#DejaVuSans-44" transform="translate(377.148438 0)"/>
      <use xlink:href="#DejaVuSans-65" transform="translate(454.150391 0)"/>
      <use xlink:href="#DejaVuSans-76" transform="translate(515.673828 0)"/>
     </g>
    </g>
   </g>
  </g>
 </g>
 <defs>
  <clipPath id="p36cc1cb555">
   <rect x="65.45" y="26.88" width="643.75" height="219.16"/>
  </clipPath>
 </defs>
</svg>
