<?xml version="1.0" encoding="utf-8" standalone="no"?>
<!DOCTYPE svg PUBLIC "-//W3C//DTD SVG 1.1//EN"
  "http://www.w3.org/Graphics/SVG/1.1/DTD/svg11.dtd">
<svg xmlns:xlink="http://www.w3.org/1999/xlink" width="720pt" height="288pt" viewBox="0 0 720 288" xmlns="http://www.w3.org/2000/svg" version="1.1">
 <metadata>
  <rdf:RDF xmlns:dc="http://purl.org/dc/elements/1.1/" xmlns:cc="http://creativecommons.org/ns#" xmlns:rdf="http://www.w3.org/1999/02/22-rdf-syntax-ns#">
   <cc:Work>
    <dc:type rdf:resource="http://purl.org/dc/dcmitype/StillImage"/>
    <dc:date>2025-06-12T13:30:41.281736</dc:date>
    <dc:format>image/svg+xml</dc:format>
    <dc:creator>
     <cc:Agent>
      <dc:title>Matplotlib v3.10.3, https://matplotlib.org/</dc:title>
     </cc:Agent>
    </dc:creator>
   </cc:Work>
  </rdf:RDF>
 </metadata>
 <defs>
  <style type="text/css">*{stroke-linejoin: round; stroke-linecap: butt}</style>
 </defs>
 <g id="figure_1">
  <g id="patch_1">
   <path d="M 0 288 
L 720 288 
L 720 0 
L 0 0 
z
" style="fill: #ffffff"/>
  </g>
  <g id="axes_1">
   <g id="patch_2">
    <path d="M 71.84 246.04 
L 709.2 246.04 
L 709.2 26.88 
L 71.84 26.88 
z
" style="fill: #ffffff"/>
   </g>
   <g id="FillBetweenPolyCollection_1">
    <defs>
     <path id="m1f6be18d4e" d="M 100.810909 -128.12217 
L 100.810909 -105.424403 
L 104.525128 -102.236435 
L 108.239347 -104.493432 
L 111.953566 -103.700148 
L 115.667786 -97.949264 
L 119.382005 -90.2529 
L 123.096224 -76.730503 
L 126.810443 -89.41139 
L 130.524662 -94.098707 
L 134.238881 -97.18727 
L 137.9531 -79.472827 
L 141.667319 -83.236805 
L 145.381538 -83.137225 
L 149.095758 -81.80707 
L 152.809977 -75.946203 
L 156.524196 -77.951453 
L 160.238415 -87.248508 
L 163.952634 -99.009082 
L 167.666853 -105.02363 
L 171.381072 -105.033145 
L 175.095291 -103.528869 
L 178.80951 -100.95734 
L 182.52373 -99.742938 
L 186.237949 -78.741388 
L 189.952168 -98.855237 
L 193.666387 -92.879409 
L 197.380606 -97.006338 
L 201.094825 -101.028342 
L 204.809044 -102.888508 
L 208.523263 -105.127331 
L 212.237483 -105.887224 
L 215.951702 -106.664881 
L 219.665921 -107.202959 
L 223.38014 -108.268739 
L 227.094359 -108.59203 
L 230.808578 -108.471016 
L 234.522797 -108.139396 
L 238.237016 -107.876012 
L 241.951235 -107.012262 
L 245.665455 -106.875761 
L 249.379674 -107.304721 
L 253.093893 -107.390906 
L 256.808112 -106.691087 
L 260.522331 -106.240387 
L 264.23655 -105.276253 
L 267.950769 -106.97177 
L 271.664988 -105.745238 
L 275.379207 -107.675813 
L 279.093427 -107.88909 
L 282.807646 -107.854305 
L 286.521865 -107.540734 
L 290.236084 -108.175485 
L 293.950303 -108.283851 
L 297.664522 -107.759091 
L 301.378741 -108.338496 
L 305.09296 -102.929641 
L 308.807179 -112.360792 
L 312.521399 -104.483922 
L 316.235618 -108.858963 
L 319.949837 -107.819986 
L 323.664056 -94.915596 
L 327.378275 -105.070007 
L 331.092494 -102.707968 
L 334.806713 -107.370886 
L 338.520932 -107.209041 
L 342.235152 -105.78992 
L 345.949371 -102.366034 
L 349.66359 -102.136792 
L 353.377809 -96.664133 
L 357.092028 -102.933604 
L 360.806247 -95.805924 
L 364.520466 -90.170198 
L 368.234685 -94.807762 
L 371.948904 -90.411458 
L 375.663124 -87.741026 
L 379.377343 -97.311695 
L 383.091562 -102.920865 
L 386.805781 -104.581025 
L 390.52 -105.914787 
L 394.234219 -106.492916 
L 397.948438 -107.015918 
L 401.662657 -107.350101 
L 405.376876 -108.25177 
L 409.091096 -108.294026 
L 412.805315 -107.966073 
L 416.519534 -107.758254 
L 420.233753 -107.679329 
L 423.947972 -106.637126 
L 427.662191 -106.642308 
L 431.37641 -106.178485 
L 435.090629 -105.805422 
L 438.804848 -106.048017 
L 442.519068 -106.076421 
L 446.233287 -105.27686 
L 449.947506 -105.419207 
L 453.661725 -104.570615 
L 457.375944 -105.232694 
L 461.090163 -80.827271 
L 464.804382 -106.471034 
L 468.518601 -107.126677 
L 472.232821 -107.617964 
L 475.94704 -100.438328 
L 479.661259 -69.6097 
L 483.375478 -65.058927 
L 487.089697 -72.820569 
L 490.803916 -63.044186 
L 494.518135 -78.506449 
L 498.232354 -73.052975 
L 501.946573 -64.230503 
L 505.660793 -67.172548 
L 509.375012 -62.575966 
L 513.089231 -63.366955 
L 516.80345 -63.676706 
L 520.517669 -67.237219 
L 524.231888 -52.950889 
L 527.946107 -68.333821 
L 531.660326 -58.779705 
L 535.374545 -62.106145 
L 539.088765 -64.019849 
L 542.802984 -68.188482 
L 546.517203 -73.048808 
L 550.231422 -75.894338 
L 553.945641 -81.153861 
L 557.65986 -96.671776 
L 561.374079 -103.629115 
L 565.088298 -104.86583 
L 568.802517 -105.390401 
L 572.516737 -106.230924 
L 576.230956 -106.920547 
L 579.945175 -107.593171 
L 583.659394 -108.254241 
L 587.373613 -108.358561 
L 591.087832 -107.985321 
L 594.802051 -107.758179 
L 598.51627 -107.736437 
L 602.23049 -107.613028 
L 605.944709 -107.438908 
L 609.658928 -107.288231 
L 613.373147 -107.357388 
L 617.087366 -107.456374 
L 620.801585 -107.654909 
L 624.515804 -107.599529 
L 628.230023 -108.370206 
L 631.944242 -106.968323 
L 635.658462 -105.287983 
L 639.372681 -91.769641 
L 643.0869 -80.557186 
L 646.801119 -104.35893 
L 650.515338 -102.328824 
L 654.229557 -104.002307 
L 657.943776 -77.135659 
L 661.657995 -56.649459 
L 665.372214 -60.730057 
L 669.086434 -65.442723 
L 672.800653 -51.921818 
L 676.514872 -77.716715 
L 680.229091 -58.475689 
L 680.229091 -251.158182 
L 680.229091 -251.158182 
L 676.514872 -181.305192 
L 672.800653 -219.907513 
L 669.086434 -206.812378 
L 665.372214 -213.993794 
L 661.657995 -207.437647 
L 657.943776 -169.44983 
L 654.229557 -126.490315 
L 650.515338 -130.895445 
L 646.801119 -126.587019 
L 643.0869 -159.259966 
L 639.372681 -141.555371 
L 635.658462 -121.068075 
L 631.944242 -117.274161 
L 628.230023 -115.996846 
L 624.515804 -114.969747 
L 620.801585 -114.241398 
L 617.087366 -113.878886 
L 613.373147 -113.391023 
L 609.658928 -113.006899 
L 605.944709 -112.055259 
L 602.23049 -111.3669 
L 598.51627 -110.681927 
L 594.802051 -110.30467 
L 591.087832 -109.72236 
L 587.373613 -109.230236 
L 583.659394 -109.359171 
L 579.945175 -110.282165 
L 576.230956 -111.263537 
L 572.516737 -112.27455 
L 568.802517 -113.506788 
L 565.088298 -114.275829 
L 561.374079 -116.090696 
L 557.65986 -126.32073 
L 553.945641 -150.53418 
L 550.231422 -158.77703 
L 546.517203 -161.884738 
L 542.802984 -169.653401 
L 539.088765 -176.756432 
L 535.374545 -182.471768 
L 531.660326 -187.945886 
L 527.946107 -175.635005 
L 524.231888 -204.206717 
L 520.517669 -199.121586 
L 516.80345 -194.311975 
L 513.089231 -204.033184 
L 509.375012 -202.430366 
L 505.660793 -213.122544 
L 501.946573 -205.692411 
L 498.232354 -187.656692 
L 494.518135 -173.926396 
L 490.803916 -214.214486 
L 487.089697 -206.01661 
L 483.375478 -199.782932 
L 479.661259 -189.68349 
L 475.94704 -133.778537 
L 472.232821 -124.061121 
L 468.518601 -121.784528 
L 464.804382 -125.059931 
L 461.090163 -165.475415 
L 457.375944 -125.122266 
L 453.661725 -126.068667 
L 449.947506 -122.940107 
L 446.233287 -121.341016 
L 442.519068 -119.215562 
L 438.804848 -117.741171 
L 435.090629 -116.868557 
L 431.37641 -115.089025 
L 427.662191 -113.830455 
L 423.947972 -113.045276 
L 420.233753 -110.892891 
L 416.519534 -110.288226 
L 412.805315 -109.771736 
L 409.091096 -109.312714 
L 405.376876 -109.390657 
L 401.662657 -110.644348 
L 397.948438 -111.12407 
L 394.234219 -111.890461 
L 390.52 -112.867834 
L 386.805781 -114.885756 
L 383.091562 -117.127921 
L 379.377343 -125.36396 
L 375.663124 -139.480789 
L 371.948904 -135.772573 
L 368.234685 -129.686595 
L 364.520466 -137.106209 
L 360.806247 -129.27644 
L 357.092028 -120.386323 
L 353.377809 -136.332315 
L 349.66359 -123.629112 
L 345.949371 -127.961049 
L 342.235152 -127.681576 
L 338.520932 -124.362538 
L 334.806713 -123.042287 
L 331.092494 -129.027291 
L 327.378275 -128.282103 
L 323.664056 -152.011754 
L 319.949837 -127.478747 
L 316.235618 -124.427203 
L 312.521399 -129.732595 
L 308.807179 -119.151642 
L 305.09296 -135.778456 
L 301.378741 -125.732827 
L 297.664522 -123.504821 
L 293.950303 -120.261879 
L 290.236084 -117.849845 
L 286.521865 -117.154438 
L 282.807646 -115.592046 
L 279.093427 -115.320285 
L 275.379207 -114.752326 
L 271.664988 -116.933265 
L 267.950769 -114.543986 
L 264.23655 -117.459872 
L 260.522331 -115.297425 
L 256.808112 -114.901864 
L 253.093893 -113.017852 
L 249.379674 -111.837167 
L 245.665455 -112.077527 
L 241.951235 -111.556394 
L 238.237016 -109.992744 
L 234.522797 -109.493024 
L 230.808578 -108.994099 
L 227.094359 -108.841891 
L 223.38014 -109.313475 
L 219.665921 -110.918888 
L 215.951702 -111.732976 
L 212.237483 -112.778428 
L 208.523263 -113.892459 
L 204.809044 -117.174657 
L 201.094825 -119.906109 
L 197.380606 -126.395373 
L 193.666387 -132.779674 
L 189.952168 -124.061664 
L 186.237949 -155.032291 
L 182.52373 -123.06371 
L 178.80951 -122.234702 
L 175.095291 -120.152295 
L 171.381072 -118.611264 
L 167.666853 -120.018252 
L 163.952634 -129.255174 
L 160.238415 -158.352817 
L 156.524196 -175.189311 
L 152.809977 -180.312623 
L 149.095758 -181.016993 
L 145.381538 -184.634082 
L 141.667319 -174.869603 
L 137.9531 -176.337957 
L 134.238881 -160.810825 
L 130.524662 -160.643874 
L 126.810443 -162.253493 
L 123.096224 -178.089242 
L 119.382005 -156.428366 
L 115.667786 -142.058254 
L 111.953566 -131.522172 
L 108.239347 -130.221341 
L 104.525128 -135.707562 
L 100.810909 -128.12217 
z
" style="stroke: #808080; stroke-opacity: 0.2"/>
    </defs>
    <g clip-path="url(#pc5cb73357a)">
     <use xlink:href="#m1f6be18d4e" x="0" y="288" style="fill: #808080; fill-opacity: 0.2; stroke: #808080; stroke-opacity: 0.2"/>
    </g>
   </g>
   <g id="matplotlib.axis_1">
    <g id="xtick_1">
     <g id="line2d_1">
      <defs>
       <path id="m383eed7cb7" d="M 0 0 
L 0 3.5 
" style="stroke: #000000; stroke-width: 0.8"/>
      </defs>
      <g>
       <use xlink:href="#m383eed7cb7" x="89.668252" y="246.04" style="stroke: #000000; stroke-width: 0.8"/>
      </g>
     </g>
     <g id="text_1">
      <!-- 06-09 12 -->
      <g transform="translate(67.187783 260.638438) scale(0.1 -0.1)">
       <defs>
        <path id="DejaVuSans-30" d="M 2034 4250 
Q 1547 4250 1301 3770 
Q 1056 3291 1056 2328 
Q 1056 1369 1301 889 
Q 1547 409 2034 409 
Q 2525 409 2770 889 
Q 3016 1369 3016 2328 
Q 3016 3291 2770 3770 
Q 2525 4250 2034 4250 
z
M 2034 4750 
Q 2819 4750 3233 4129 
Q 3647 3509 3647 2328 
Q 3647 1150 3233 529 
Q 2819 -91 2034 -91 
Q 1250 -91 836 529 
Q 422 1150 422 2328 
Q 422 3509 836 4129 
Q 1250 4750 2034 4750 
z
" transform="scale(0.015625)"/>
        <path id="DejaVuSans-36" d="M 2113 2584 
Q 1688 2584 1439 2293 
Q 1191 2003 1191 1497 
Q 1191 994 1439 701 
Q 1688 409 2113 409 
Q 2538 409 2786 701 
Q 3034 994 3034 1497 
Q 3034 2003 2786 2293 
Q 2538 2584 2113 2584 
z
M 3366 4563 
L 3366 3988 
Q 3128 4100 2886 4159 
Q 2644 4219 2406 4219 
Q 1781 4219 1451 3797 
Q 1122 3375 1075 2522 
Q 1259 2794 1537 2939 
Q 1816 3084 2150 3084 
Q 2853 3084 3261 2657 
Q 3669 2231 3669 1497 
Q 3669 778 3244 343 
Q 2819 -91 2113 -91 
Q 1303 -91 875 529 
Q 447 1150 447 2328 
Q 447 3434 972 4092 
Q 1497 4750 2381 4750 
Q 2619 4750 2861 4703 
Q 3103 4656 3366 4563 
z
" transform="scale(0.015625)"/>
        <path id="DejaVuSans-2d" d="M 313 2009 
L 1997 2009 
L 1997 1497 
L 313 1497 
L 313 2009 
z
" transform="scale(0.015625)"/>
        <path id="DejaVuSans-39" d="M 703 97 
L 703 672 
Q 941 559 1184 500 
Q 1428 441 1663 441 
Q 2288 441 2617 861 
Q 2947 1281 2994 2138 
Q 2813 1869 2534 1725 
Q 2256 1581 1919 1581 
Q 1219 1581 811 2004 
Q 403 2428 403 3163 
Q 403 3881 828 4315 
Q 1253 4750 1959 4750 
Q 2769 4750 3195 4129 
Q 3622 3509 3622 2328 
Q 3622 1225 3098 567 
Q 2575 -91 1691 -91 
Q 1453 -91 1209 -44 
Q 966 3 703 97 
z
M 1959 2075 
Q 2384 2075 2632 2365 
Q 2881 2656 2881 3163 
Q 2881 3666 2632 3958 
Q 2384 4250 1959 4250 
Q 1534 4250 1286 3958 
Q 1038 3666 1038 3163 
Q 1038 2656 1286 2365 
Q 1534 2075 1959 2075 
z
" transform="scale(0.015625)"/>
        <path id="DejaVuSans-20" transform="scale(0.015625)"/>
        <path id="DejaVuSans-31" d="M 794 531 
L 1825 531 
L 1825 4091 
L 703 3866 
L 703 4441 
L 1819 4666 
L 2450 4666 
L 2450 531 
L 3481 531 
L 3481 0 
L 794 0 
L 794 531 
z
" transform="scale(0.015625)"/>
        <path id="DejaVuSans-32" d="M 1228 531 
L 3431 531 
L 3431 0 
L 469 0 
L 469 531 
Q 828 903 1448 1529 
Q 2069 2156 2228 2338 
Q 2531 2678 2651 2914 
Q 2772 3150 2772 3378 
Q 2772 3750 2511 3984 
Q 2250 4219 1831 4219 
Q 1534 4219 1204 4116 
Q 875 4013 500 3803 
L 500 4441 
Q 881 4594 1212 4672 
Q 1544 4750 1819 4750 
Q 2544 4750 2975 4387 
Q 3406 4025 3406 3419 
Q 3406 3131 3298 2873 
Q 3191 2616 2906 2266 
Q 2828 2175 2409 1742 
Q 1991 1309 1228 531 
z
" transform="scale(0.015625)"/>
       </defs>
       <use xlink:href="#DejaVuSans-30"/>
       <use xlink:href="#DejaVuSans-36" transform="translate(63.623047 0)"/>
       <use xlink:href="#DejaVuSans-2d" transform="translate(127.246094 0)"/>
       <use xlink:href="#DejaVuSans-30" transform="translate(163.330078 0)"/>
       <use xlink:href="#DejaVuSans-39" transform="translate(226.953125 0)"/>
       <use xlink:href="#DejaVuSans-20" transform="translate(290.576172 0)"/>
       <use xlink:href="#DejaVuSans-31" transform="translate(322.363281 0)"/>
       <use xlink:href="#DejaVuSans-32" transform="translate(385.986328 0)"/>
      </g>
     </g>
    </g>
    <g id="xtick_2">
     <g id="line2d_2">
      <g>
       <use xlink:href="#m383eed7cb7" x="178.80951" y="246.04" style="stroke: #000000; stroke-width: 0.8"/>
      </g>
     </g>
     <g id="text_2">
      <!-- 06-10 00 -->
      <g transform="translate(156.329042 260.638438) scale(0.1 -0.1)">
       <use xlink:href="#DejaVuSans-30"/>
       <use xlink:href="#DejaVuSans-36" transform="translate(63.623047 0)"/>
       <use xlink:href="#DejaVuSans-2d" transform="translate(127.246094 0)"/>
       <use xlink:href="#DejaVuSans-31" transform="translate(163.330078 0)"/>
       <use xlink:href="#DejaVuSans-30" transform="translate(226.953125 0)"/>
       <use xlink:href="#DejaVuSans-20" transform="translate(290.576172 0)"/>
       <use xlink:href="#DejaVuSans-30" transform="translate(322.363281 0)"/>
       <use xlink:href="#DejaVuSans-30" transform="translate(385.986328 0)"/>
      </g>
     </g>
    </g>
    <g id="xtick_3">
     <g id="line2d_3">
      <g>
       <use xlink:href="#m383eed7cb7" x="267.950769" y="246.04" style="stroke: #000000; stroke-width: 0.8"/>
      </g>
     </g>
     <g id="text_3">
      <!-- 06-10 12 -->
      <g transform="translate(245.4703 260.638438) scale(0.1 -0.1)">
       <use xlink:href="#DejaVuSans-30"/>
       <use xlink:href="#DejaVuSans-36" transform="translate(63.623047 0)"/>
       <use xlink:href="#DejaVuSans-2d" transform="translate(127.246094 0)"/>
       <use xlink:href="#DejaVuSans-31" transform="translate(163.330078 0)"/>
       <use xlink:href="#DejaVuSans-30" transform="translate(226.953125 0)"/>
       <use xlink:href="#DejaVuSans-20" transform="translate(290.576172 0)"/>
       <use xlink:href="#DejaVuSans-31" transform="translate(322.363281 0)"/>
       <use xlink:href="#DejaVuSans-32" transform="translate(385.986328 0)"/>
      </g>
     </g>
    </g>
    <g id="xtick_4">
     <g id="line2d_4">
      <g>
       <use xlink:href="#m383eed7cb7" x="357.092028" y="246.04" style="stroke: #000000; stroke-width: 0.8"/>
      </g>
     </g>
     <g id="text_4">
      <!-- 06-11 00 -->
      <g transform="translate(334.611559 260.638438) scale(0.1 -0.1)">
       <use xlink:href="#DejaVuSans-30"/>
       <use xlink:href="#DejaVuSans-36" transform="translate(63.623047 0)"/>
       <use xlink:href="#DejaVuSans-2d" transform="translate(127.246094 0)"/>
       <use xlink:href="#DejaVuSans-31" transform="translate(163.330078 0)"/>
       <use xlink:href="#DejaVuSans-31" transform="translate(226.953125 0)"/>
       <use xlink:href="#DejaVuSans-20" transform="translate(290.576172 0)"/>
       <use xlink:href="#DejaVuSans-30" transform="translate(322.363281 0)"/>
       <use xlink:href="#DejaVuSans-30" transform="translate(385.986328 0)"/>
      </g>
     </g>
    </g>
    <g id="xtick_5">
     <g id="line2d_5">
      <g>
       <use xlink:href="#m383eed7cb7" x="446.233287" y="246.04" style="stroke: #000000; stroke-width: 0.8"/>
      </g>
     </g>
     <g id="text_5">
      <!-- 06-11 12 -->
      <g transform="translate(423.752818 260.638438) scale(0.1 -0.1)">
       <use xlink:href="#DejaVuSans-30"/>
       <use xlink:href="#DejaVuSans-36" transform="translate(63.623047 0)"/>
       <use xlink:href="#DejaVuSans-2d" transform="translate(127.246094 0)"/>
       <use xlink:href="#DejaVuSans-31" transform="translate(163.330078 0)"/>
       <use xlink:href="#DejaVuSans-31" transform="translate(226.953125 0)"/>
       <use xlink:href="#DejaVuSans-20" transform="translate(290.576172 0)"/>
       <use xlink:href="#DejaVuSans-31" transform="translate(322.363281 0)"/>
       <use xlink:href="#DejaVuSans-32" transform="translate(385.986328 0)"/>
      </g>
     </g>
    </g>
    <g id="xtick_6">
     <g id="line2d_6">
      <g>
       <use xlink:href="#m383eed7cb7" x="535.374545" y="246.04" style="stroke: #000000; stroke-width: 0.8"/>
      </g>
     </g>
     <g id="text_6">
      <!-- 06-12 00 -->
      <g transform="translate(512.894077 260.638438) scale(0.1 -0.1)">
       <use xlink:href="#DejaVuSans-30"/>
       <use xlink:href="#DejaVuSans-36" transform="translate(63.623047 0)"/>
       <use xlink:href="#DejaVuSans-2d" transform="translate(127.246094 0)"/>
       <use xlink:href="#DejaVuSans-31" transform="translate(163.330078 0)"/>
       <use xlink:href="#DejaVuSans-32" transform="translate(226.953125 0)"/>
       <use xlink:href="#DejaVuSans-20" transform="translate(290.576172 0)"/>
       <use xlink:href="#DejaVuSans-30" transform="translate(322.363281 0)"/>
       <use xlink:href="#DejaVuSans-30" transform="translate(385.986328 0)"/>
      </g>
     </g>
    </g>
    <g id="xtick_7">
     <g id="line2d_7">
      <g>
       <use xlink:href="#m383eed7cb7" x="624.515804" y="246.04" style="stroke: #000000; stroke-width: 0.8"/>
      </g>
     </g>
     <g id="text_7">
      <!-- 06-12 12 -->
      <g transform="translate(602.035335 260.638438) scale(0.1 -0.1)">
       <use xlink:href="#DejaVuSans-30"/>
       <use xlink:href="#DejaVuSans-36" transform="translate(63.623047 0)"/>
       <use xlink:href="#DejaVuSans-2d" transform="translate(127.246094 0)"/>
       <use xlink:href="#DejaVuSans-31" transform="translate(163.330078 0)"/>
       <use xlink:href="#DejaVuSans-32" transform="translate(226.953125 0)"/>
       <use xlink:href="#DejaVuSans-20" transform="translate(290.576172 0)"/>
       <use xlink:href="#DejaVuSans-31" transform="translate(322.363281 0)"/>
       <use xlink:href="#DejaVuSans-32" transform="translate(385.986328 0)"/>
      </g>
     </g>
    </g>
    <g id="text_8">
     <!-- Tijd -->
     <g transform="translate(381.67 274.316562) scale(0.1 -0.1)">
      <defs>
       <path id="DejaVuSans-54" d="M -19 4666 
L 3928 4666 
L 3928 4134 
L 2272 4134 
L 2272 0 
L 1638 0 
L 1638 4134 
L -19 4134 
L -19 4666 
z
" transform="scale(0.015625)"/>
       <path id="DejaVuSans-69" d="M 603 3500 
L 1178 3500 
L 1178 0 
L 603 0 
L 603 3500 
z
M 603 4863 
L 1178 4863 
L 1178 4134 
L 603 4134 
L 603 4863 
z
" transform="scale(0.015625)"/>
       <path id="DejaVuSans-6a" d="M 603 3500 
L 1178 3500 
L 1178 -63 
Q 1178 -731 923 -1031 
Q 669 -1331 103 -1331 
L -116 -1331 
L -116 -844 
L 38 -844 
Q 366 -844 484 -692 
Q 603 -541 603 -63 
L 603 3500 
z
M 603 4863 
L 1178 4863 
L 1178 4134 
L 603 4134 
L 603 4863 
z
" transform="scale(0.015625)"/>
       <path id="DejaVuSans-64" d="M 2906 2969 
L 2906 4863 
L 3481 4863 
L 3481 0 
L 2906 0 
L 2906 525 
Q 2725 213 2448 61 
Q 2172 -91 1784 -91 
Q 1150 -91 751 415 
Q 353 922 353 1747 
Q 353 2572 751 3078 
Q 1150 3584 1784 3584 
Q 2172 3584 2448 3432 
Q 2725 3281 2906 2969 
z
M 947 1747 
Q 947 1113 1208 752 
Q 1469 391 1925 391 
Q 2381 391 2643 752 
Q 2906 1113 2906 1747 
Q 2906 2381 2643 2742 
Q 2381 3103 1925 3103 
Q 1469 3103 1208 2742 
Q 947 2381 947 1747 
z
" transform="scale(0.015625)"/>
      </defs>
      <use xlink:href="#DejaVuSans-54"/>
      <use xlink:href="#DejaVuSans-69" transform="translate(57.958984 0)"/>
      <use xlink:href="#DejaVuSans-6a" transform="translate(85.742188 0)"/>
      <use xlink:href="#DejaVuSans-64" transform="translate(113.525391 0)"/>
     </g>
    </g>
   </g>
   <g id="matplotlib.axis_2">
    <g id="ytick_1">
     <g id="line2d_8">
      <defs>
       <path id="m049778d7aa" d="M 0 0 
L -3.5 0 
" style="stroke: #000000; stroke-width: 0.8"/>
      </defs>
      <g>
       <use xlink:href="#m049778d7aa" x="71.84" y="243.291703" style="stroke: #000000; stroke-width: 0.8"/>
      </g>
     </g>
     <g id="text_9">
      <!-- −20000 -->
      <g transform="translate(24.647813 247.090922) scale(0.1 -0.1)">
       <defs>
        <path id="DejaVuSans-2212" d="M 678 2272 
L 4684 2272 
L 4684 1741 
L 678 1741 
L 678 2272 
z
" transform="scale(0.015625)"/>
       </defs>
       <use xlink:href="#DejaVuSans-2212"/>
       <use xlink:href="#DejaVuSans-32" transform="translate(83.789062 0)"/>
       <use xlink:href="#DejaVuSans-30" transform="translate(147.412109 0)"/>
       <use xlink:href="#DejaVuSans-30" transform="translate(211.035156 0)"/>
       <use xlink:href="#DejaVuSans-30" transform="translate(274.658203 0)"/>
       <use xlink:href="#DejaVuSans-30" transform="translate(338.28125 0)"/>
      </g>
     </g>
    </g>
    <g id="ytick_2">
     <g id="line2d_9">
      <g>
       <use xlink:href="#m049778d7aa" x="71.84" y="211.305017" style="stroke: #000000; stroke-width: 0.8"/>
      </g>
     </g>
     <g id="text_10">
      <!-- −10000 -->
      <g transform="translate(24.647813 215.104236) scale(0.1 -0.1)">
       <use xlink:href="#DejaVuSans-2212"/>
       <use xlink:href="#DejaVuSans-31" transform="translate(83.789062 0)"/>
       <use xlink:href="#DejaVuSans-30" transform="translate(147.412109 0)"/>
       <use xlink:href="#DejaVuSans-30" transform="translate(211.035156 0)"/>
       <use xlink:href="#DejaVuSans-30" transform="translate(274.658203 0)"/>
       <use xlink:href="#DejaVuSans-30" transform="translate(338.28125 0)"/>
      </g>
     </g>
    </g>
    <g id="ytick_3">
     <g id="line2d_10">
      <g>
       <use xlink:href="#m049778d7aa" x="71.84" y="179.318332" style="stroke: #000000; stroke-width: 0.8"/>
      </g>
     </g>
     <g id="text_11">
      <!-- 0 -->
      <g transform="translate(58.4775 183.117551) scale(0.1 -0.1)">
       <use xlink:href="#DejaVuSans-30"/>
      </g>
     </g>
    </g>
    <g id="ytick_4">
     <g id="line2d_11">
      <g>
       <use xlink:href="#m049778d7aa" x="71.84" y="147.331646" style="stroke: #000000; stroke-width: 0.8"/>
      </g>
     </g>
     <g id="text_12">
      <!-- 10000 -->
      <g transform="translate(33.0275 151.130865) scale(0.1 -0.1)">
       <use xlink:href="#DejaVuSans-31"/>
       <use xlink:href="#DejaVuSans-30" transform="translate(63.623047 0)"/>
       <use xlink:href="#DejaVuSans-30" transform="translate(127.246094 0)"/>
       <use xlink:href="#DejaVuSans-30" transform="translate(190.869141 0)"/>
       <use xlink:href="#DejaVuSans-30" transform="translate(254.492188 0)"/>
      </g>
     </g>
    </g>
    <g id="ytick_5">
     <g id="line2d_12">
      <g>
       <use xlink:href="#m049778d7aa" x="71.84" y="115.344961" style="stroke: #000000; stroke-width: 0.8"/>
      </g>
     </g>
     <g id="text_13">
      <!-- 20000 -->
      <g transform="translate(33.0275 119.14418) scale(0.1 -0.1)">
       <use xlink:href="#DejaVuSans-32"/>
       <use xlink:href="#DejaVuSans-30" transform="translate(63.623047 0)"/>
       <use xlink:href="#DejaVuSans-30" transform="translate(127.246094 0)"/>
       <use xlink:href="#DejaVuSans-30" transform="translate(190.869141 0)"/>
       <use xlink:href="#DejaVuSans-30" transform="translate(254.492188 0)"/>
      </g>
     </g>
    </g>
    <g id="ytick_6">
     <g id="line2d_13">
      <g>
       <use xlink:href="#m049778d7aa" x="71.84" y="83.358275" style="stroke: #000000; stroke-width: 0.8"/>
      </g>
     </g>
     <g id="text_14">
      <!-- 30000 -->
      <g transform="translate(33.0275 87.157494) scale(0.1 -0.1)">
       <defs>
        <path id="DejaVuSans-33" d="M 2597 2516 
Q 3050 2419 3304 2112 
Q 3559 1806 3559 1356 
Q 3559 666 3084 287 
Q 2609 -91 1734 -91 
Q 1441 -91 1130 -33 
Q 819 25 488 141 
L 488 750 
Q 750 597 1062 519 
Q 1375 441 1716 441 
Q 2309 441 2620 675 
Q 2931 909 2931 1356 
Q 2931 1769 2642 2001 
Q 2353 2234 1838 2234 
L 1294 2234 
L 1294 2753 
L 1863 2753 
Q 2328 2753 2575 2939 
Q 2822 3125 2822 3475 
Q 2822 3834 2567 4026 
Q 2313 4219 1838 4219 
Q 1578 4219 1281 4162 
Q 984 4106 628 3988 
L 628 4550 
Q 988 4650 1302 4700 
Q 1616 4750 1894 4750 
Q 2613 4750 3031 4423 
Q 3450 4097 3450 3541 
Q 3450 3153 3228 2886 
Q 3006 2619 2597 2516 
z
" transform="scale(0.015625)"/>
       </defs>
       <use xlink:href="#DejaVuSans-33"/>
       <use xlink:href="#DejaVuSans-30" transform="translate(63.623047 0)"/>
       <use xlink:href="#DejaVuSans-30" transform="translate(127.246094 0)"/>
       <use xlink:href="#DejaVuSans-30" transform="translate(190.869141 0)"/>
       <use xlink:href="#DejaVuSans-30" transform="translate(254.492188 0)"/>
      </g>
     </g>
    </g>
    <g id="ytick_7">
     <g id="line2d_14">
      <g>
       <use xlink:href="#m049778d7aa" x="71.84" y="51.37159" style="stroke: #000000; stroke-width: 0.8"/>
      </g>
     </g>
     <g id="text_15">
      <!-- 40000 -->
      <g transform="translate(33.0275 55.170808) scale(0.1 -0.1)">
       <defs>
        <path id="DejaVuSans-34" d="M 2419 4116 
L 825 1625 
L 2419 1625 
L 2419 4116 
z
M 2253 4666 
L 3047 4666 
L 3047 1625 
L 3713 1625 
L 3713 1100 
L 3047 1100 
L 3047 0 
L 2419 0 
L 2419 1100 
L 313 1100 
L 313 1709 
L 2253 4666 
z
" transform="scale(0.015625)"/>
       </defs>
       <use xlink:href="#DejaVuSans-34"/>
       <use xlink:href="#DejaVuSans-30" transform="translate(63.623047 0)"/>
       <use xlink:href="#DejaVuSans-30" transform="translate(127.246094 0)"/>
       <use xlink:href="#DejaVuSans-30" transform="translate(190.869141 0)"/>
       <use xlink:href="#DejaVuSans-30" transform="translate(254.492188 0)"/>
      </g>
     </g>
    </g>
    <g id="text_16">
     <!-- Lichtintensiteit -->
     <g transform="translate(18.568125 173.656094) rotate(-90) scale(0.1 -0.1)">
      <defs>
       <path id="DejaVuSans-4c" d="M 628 4666 
L 1259 4666 
L 1259 531 
L 3531 531 
L 3531 0 
L 628 0 
L 628 4666 
z
" transform="scale(0.015625)"/>
       <path id="DejaVuSans-63" d="M 3122 3366 
L 3122 2828 
Q 2878 2963 2633 3030 
Q 2388 3097 2138 3097 
Q 1578 3097 1268 2742 
Q 959 2388 959 1747 
Q 959 1106 1268 751 
Q 1578 397 2138 397 
Q 2388 397 2633 464 
Q 2878 531 3122 666 
L 3122 134 
Q 2881 22 2623 -34 
Q 2366 -91 2075 -91 
Q 1284 -91 818 406 
Q 353 903 353 1747 
Q 353 2603 823 3093 
Q 1294 3584 2113 3584 
Q 2378 3584 2631 3529 
Q 2884 3475 3122 3366 
z
" transform="scale(0.015625)"/>
       <path id="DejaVuSans-68" d="M 3513 2113 
L 3513 0 
L 2938 0 
L 2938 2094 
Q 2938 2591 2744 2837 
Q 2550 3084 2163 3084 
Q 1697 3084 1428 2787 
Q 1159 2491 1159 1978 
L 1159 0 
L 581 0 
L 581 4863 
L 1159 4863 
L 1159 2956 
Q 1366 3272 1645 3428 
Q 1925 3584 2291 3584 
Q 2894 3584 3203 3211 
Q 3513 2838 3513 2113 
z
" transform="scale(0.015625)"/>
       <path id="DejaVuSans-74" d="M 1172 4494 
L 1172 3500 
L 2356 3500 
L 2356 3053 
L 1172 3053 
L 1172 1153 
Q 1172 725 1289 603 
Q 1406 481 1766 481 
L 2356 481 
L 2356 0 
L 1766 0 
Q 1100 0 847 248 
Q 594 497 594 1153 
L 594 3053 
L 172 3053 
L 172 3500 
L 594 3500 
L 594 4494 
L 1172 4494 
z
" transform="scale(0.015625)"/>
       <path id="DejaVuSans-6e" d="M 3513 2113 
L 3513 0 
L 2938 0 
L 2938 2094 
Q 2938 2591 2744 2837 
Q 2550 3084 2163 3084 
Q 1697 3084 1428 2787 
Q 1159 2491 1159 1978 
L 1159 0 
L 581 0 
L 581 3500 
L 1159 3500 
L 1159 2956 
Q 1366 3272 1645 3428 
Q 1925 3584 2291 3584 
Q 2894 3584 3203 3211 
Q 3513 2838 3513 2113 
z
" transform="scale(0.015625)"/>
       <path id="DejaVuSans-65" d="M 3597 1894 
L 3597 1613 
L 953 1613 
Q 991 1019 1311 708 
Q 1631 397 2203 397 
Q 2534 397 2845 478 
Q 3156 559 3463 722 
L 3463 178 
Q 3153 47 2828 -22 
Q 2503 -91 2169 -91 
Q 1331 -91 842 396 
Q 353 884 353 1716 
Q 353 2575 817 3079 
Q 1281 3584 2069 3584 
Q 2775 3584 3186 3129 
Q 3597 2675 3597 1894 
z
M 3022 2063 
Q 3016 2534 2758 2815 
Q 2500 3097 2075 3097 
Q 1594 3097 1305 2825 
Q 1016 2553 972 2059 
L 3022 2063 
z
" transform="scale(0.015625)"/>
       <path id="DejaVuSans-73" d="M 2834 3397 
L 2834 2853 
Q 2591 2978 2328 3040 
Q 2066 3103 1784 3103 
Q 1356 3103 1142 2972 
Q 928 2841 928 2578 
Q 928 2378 1081 2264 
Q 1234 2150 1697 2047 
L 1894 2003 
Q 2506 1872 2764 1633 
Q 3022 1394 3022 966 
Q 3022 478 2636 193 
Q 2250 -91 1575 -91 
Q 1294 -91 989 -36 
Q 684 19 347 128 
L 347 722 
Q 666 556 975 473 
Q 1284 391 1588 391 
Q 1994 391 2212 530 
Q 2431 669 2431 922 
Q 2431 1156 2273 1281 
Q 2116 1406 1581 1522 
L 1381 1569 
Q 847 1681 609 1914 
Q 372 2147 372 2553 
Q 372 3047 722 3315 
Q 1072 3584 1716 3584 
Q 2034 3584 2315 3537 
Q 2597 3491 2834 3397 
z
" transform="scale(0.015625)"/>
      </defs>
      <use xlink:href="#DejaVuSans-4c"/>
      <use xlink:href="#DejaVuSans-69" transform="translate(55.712891 0)"/>
      <use xlink:href="#DejaVuSans-63" transform="translate(83.496094 0)"/>
      <use xlink:href="#DejaVuSans-68" transform="translate(138.476562 0)"/>
      <use xlink:href="#DejaVuSans-74" transform="translate(201.855469 0)"/>
      <use xlink:href="#DejaVuSans-69" transform="translate(241.064453 0)"/>
      <use xlink:href="#DejaVuSans-6e" transform="translate(268.847656 0)"/>
      <use xlink:href="#DejaVuSans-74" transform="translate(332.226562 0)"/>
      <use xlink:href="#DejaVuSans-65" transform="translate(371.435547 0)"/>
      <use xlink:href="#DejaVuSans-6e" transform="translate(432.958984 0)"/>
      <use xlink:href="#DejaVuSans-73" transform="translate(496.337891 0)"/>
      <use xlink:href="#DejaVuSans-69" transform="translate(548.4375 0)"/>
      <use xlink:href="#DejaVuSans-74" transform="translate(576.220703 0)"/>
      <use xlink:href="#DejaVuSans-65" transform="translate(615.429688 0)"/>
      <use xlink:href="#DejaVuSans-69" transform="translate(676.953125 0)"/>
      <use xlink:href="#DejaVuSans-74" transform="translate(704.736328 0)"/>
     </g>
    </g>
   </g>
   <g id="line2d_15">
    <path d="M 100.810909 179.277495 
L 104.525128 178.925642 
L 108.239347 178.173102 
L 111.953566 177.019769 
L 115.667786 175.74382 
L 119.382005 174.167196 
L 123.096224 172.925473 
L 126.810443 171.186677 
L 130.524662 169.899959 
L 134.238881 166.839046 
L 137.9531 167.558853 
L 141.667319 163.025114 
L 145.381538 162.553683 
L 149.095758 161.026426 
L 152.809977 164.196733 
L 156.524196 158.678923 
L 160.238415 159.422613 
L 163.952634 175.724308 
L 167.666853 174.536322 
L 171.381072 175.187571 
L 175.095291 167.991527 
L 178.80951 164.745731 
L 182.52373 163.578217 
L 186.237949 132.21975 
L 189.952168 163.707017 
L 193.666387 154.811306 
L 197.380606 161.301831 
L 201.094825 166.83009 
L 204.809044 169.868932 
L 208.523263 173.520745 
L 212.237483 174.760229 
L 215.951702 176.21477 
L 219.665921 177.042799 
L 223.38014 178.675879 
L 227.094359 179.166395 
L 230.808578 179.310335 
L 279.093427 179.316519 
L 282.807646 179.29978 
L 286.521865 179.022455 
L 290.236084 178.461408 
L 293.950303 177.374288 
L 297.664522 176.600903 
L 301.378741 175.381411 
L 305.09296 175.751816 
L 308.807179 172.395027 
L 312.521399 171.878762 
L 316.235618 174.138195 
L 319.949837 174.502523 
L 323.664056 171.574888 
L 327.378275 173.104065 
L 331.092494 173.762458 
L 334.806713 174.095652 
L 338.520932 171.77214 
L 342.235152 168.141544 
L 345.949371 159.699831 
L 349.66359 163.566702 
L 353.377809 156.526965 
L 357.092028 167.069244 
L 360.806247 156.61301 
L 364.520466 147.828399 
L 368.234685 156.011553 
L 371.948904 149.19759 
L 375.663124 145.056113 
L 379.377343 160.758058 
L 383.091562 169.920963 
L 386.805781 173.007998 
L 390.52 175.060477 
L 394.234219 175.748191 
L 397.948438 176.600903 
L 401.662657 177.13524 
L 405.376876 178.560087 
L 409.091096 179.149549 
L 412.805315 179.315613 
L 461.090163 179.278348 
L 464.804382 178.968291 
L 479.661259 176.452005 
L 483.375478 174.968143 
L 487.089697 172.942266 
L 490.803916 171.156449 
L 494.518135 168.109771 
L 498.232354 166.922052 
L 501.946573 164.491224 
L 505.660793 160.863827 
L 509.375012 159.453747 
L 513.089231 154.396226 
L 516.80345 159.04677 
L 520.517669 103.378422 
L 524.231888 74.027013 
L 527.946107 105.455744 
L 531.660326 91.600178 
L 539.088765 103.780921 
L 542.802984 111.603478 
L 546.517203 120.190944 
L 553.945641 136.75205 
L 557.65986 159.6945 
L 561.374079 171.075043 
L 565.088298 173.094203 
L 568.802517 173.949846 
L 572.516737 175.320849 
L 579.945175 177.537846 
L 583.659394 178.5772 
L 587.373613 179.100609 
L 591.087832 179.311775 
L 639.372681 179.311775 
L 643.0869 179.224931 
L 646.801119 178.373445 
L 661.657995 176.002272 
L 665.372214 175.184053 
L 669.086434 174.962865 
L 672.800653 174.572307 
L 676.514872 174.001398 
L 680.229091 172.255991 
L 680.229091 172.255991 
" clip-path="url(#pc5cb73357a)" style="fill: none; stroke: #1f77b4; stroke-width: 2; stroke-linecap: square"/>
   </g>
   <g id="line2d_16">
    <path d="M 100.810909 171.226713 
L 104.525128 169.028002 
L 108.239347 170.642614 
L 111.953566 170.38884 
L 115.667786 167.996241 
L 119.382005 164.659367 
L 123.096224 160.590127 
L 126.810443 162.167558 
L 134.238881 159.000953 
L 137.9531 160.094608 
L 141.667319 158.946796 
L 145.381538 154.114347 
L 149.095758 156.587969 
L 152.809977 159.870587 
L 156.524196 161.429618 
L 160.238415 165.199338 
L 163.952634 173.867872 
L 167.666853 175.479059 
L 171.381072 176.177795 
L 175.095291 176.159418 
L 182.52373 176.596676 
L 186.237949 171.113161 
L 189.952168 176.54155 
L 193.666387 175.170458 
L 201.094825 177.532774 
L 208.523263 178.490105 
L 227.094359 179.28304 
L 234.522797 179.18379 
L 238.237016 179.065622 
L 241.951235 178.715672 
L 249.379674 178.429056 
L 256.808112 177.203524 
L 260.522331 177.231094 
L 264.23655 176.631938 
L 267.950769 177.242122 
L 271.664988 176.660748 
L 275.379207 176.785931 
L 279.093427 176.395312 
L 282.807646 176.276824 
L 290.236084 174.987335 
L 297.664522 172.368044 
L 301.378741 170.964339 
L 305.09296 168.645951 
L 308.807179 172.243783 
L 312.521399 170.891742 
L 316.235618 171.356917 
L 319.949837 170.350633 
L 323.664056 164.536325 
L 327.378275 171.323945 
L 331.092494 172.132371 
L 334.806713 172.793413 
L 338.520932 172.214211 
L 342.235152 171.264252 
L 345.949371 172.836458 
L 349.66359 175.117048 
L 353.377809 171.501776 
L 357.092028 176.340036 
L 360.806247 175.458818 
L 364.520466 174.361797 
L 368.234685 175.752822 
L 371.948904 174.907985 
L 375.663124 174.389092 
L 379.377343 176.662173 
L 383.091562 177.975607 
L 394.234219 178.808312 
L 409.091096 179.19663 
L 416.519534 178.97676 
L 420.233753 178.71389 
L 423.947972 178.158799 
L 431.37641 177.366245 
L 435.090629 176.66301 
L 438.804848 176.105406 
L 449.947506 173.820343 
L 453.661725 172.680359 
L 457.375944 172.82252 
L 461.090163 164.848657 
L 464.804382 172.234518 
L 468.518601 173.544397 
L 475.94704 170.891567 
L 479.661259 158.353405 
L 483.375478 155.57907 
L 487.089697 148.581411 
L 490.803916 149.370664 
L 494.518135 161.783577 
L 498.232354 157.645167 
L 501.946573 153.038543 
L 505.660793 147.852454 
L 509.375012 155.496834 
L 513.089231 154.29993 
L 516.80345 159.005659 
L 520.517669 154.820598 
L 524.231888 159.421197 
L 527.946107 166.015587 
L 531.660326 164.637205 
L 535.374545 165.711043 
L 539.088765 167.61186 
L 546.517203 170.533227 
L 550.231422 170.664316 
L 553.945641 172.15598 
L 557.65986 176.503747 
L 561.374079 178.140095 
L 565.088298 178.42917 
L 572.516737 178.747263 
L 583.659394 179.193294 
L 591.087832 179.14616 
L 602.23049 178.510036 
L 605.944709 178.252916 
L 609.658928 177.852435 
L 617.087366 177.33237 
L 624.515804 176.715362 
L 628.230023 175.816474 
L 631.944242 175.878758 
L 635.658462 174.821971 
L 639.372681 171.337494 
L 643.0869 168.091424 
L 646.801119 172.527025 
L 650.515338 171.387865 
L 654.229557 172.753689 
L 657.943776 164.707256 
L 661.657995 155.956447 
L 665.372214 150.638074 
L 669.086434 151.872449 
L 672.800653 152.085334 
L 676.514872 158.489046 
L 680.229091 133.183065 
L 680.229091 133.183065 
" clip-path="url(#pc5cb73357a)" style="fill: none; stroke-dasharray: 5.55,2.4; stroke-dashoffset: 0; stroke: #808080; stroke-width: 1.5"/>
   </g>
   <g id="patch_3">
    <path d="M 71.84 246.04 
L 71.84 26.88 
" style="fill: none; stroke: #000000; stroke-width: 0.8; stroke-linejoin: miter; stroke-linecap: square"/>
   </g>
   <g id="patch_4">
    <path d="M 709.2 246.04 
L 709.2 26.88 
" style="fill: none; stroke: #000000; stroke-width: 0.8; stroke-linejoin: miter; stroke-linecap: square"/>
   </g>
   <g id="patch_5">
    <path d="M 71.84 246.04 
L 709.2 246.04 
" style="fill: none; stroke: #000000; stroke-width: 0.8; stroke-linejoin: miter; stroke-linecap: square"/>
   </g>
   <g id="patch_6">
    <path d="M 71.84 26.88 
L 709.2 26.88 
" style="fill: none; stroke: #000000; stroke-width: 0.8; stroke-linejoin: miter; stroke-linecap: square"/>
   </g>
   <g id="text_17">
    <!-- Licht - v001/c00002/d001 -->
    <g transform="translate(313.383438 20.88) scale(0.12 -0.12)">
     <defs>
      <path id="DejaVuSans-76" d="M 191 3500 
L 800 3500 
L 1894 563 
L 2988 3500 
L 3597 3500 
L 2284 0 
L 1503 0 
L 191 3500 
z
" transform="scale(0.015625)"/>
      <path id="DejaVuSans-2f" d="M 1625 4666 
L 2156 4666 
L 531 -594 
L 0 -594 
L 1625 4666 
z
" transform="scale(0.015625)"/>
     </defs>
     <use xlink:href="#DejaVuSans-4c"/>
     <use xlink:href="#DejaVuSans-69" transform="translate(55.712891 0)"/>
     <use xlink:href="#DejaVuSans-63" transform="translate(83.496094 0)"/>
     <use xlink:href="#DejaVuSans-68" transform="translate(138.476562 0)"/>
     <use xlink:href="#DejaVuSans-74" transform="translate(201.855469 0)"/>
     <use xlink:href="#DejaVuSans-20" transform="translate(241.064453 0)"/>
     <use xlink:href="#DejaVuSans-2d" transform="translate(272.851562 0)"/>
     <use xlink:href="#DejaVuSans-20" transform="translate(308.935547 0)"/>
     <use xlink:href="#DejaVuSans-76" transform="translate(340.722656 0)"/>
     <use xlink:href="#DejaVuSans-30" transform="translate(399.902344 0)"/>
     <use xlink:href="#DejaVuSans-30" transform="translate(463.525391 0)"/>
     <use xlink:href="#DejaVuSans-31" transform="translate(527.148438 0)"/>
     <use xlink:href="#DejaVuSans-2f" transform="translate(590.771484 0)"/>
     <use xlink:href="#DejaVuSans-63" transform="translate(624.462891 0)"/>
     <use xlink:href="#DejaVuSans-30" transform="translate(679.443359 0)"/>
     <use xlink:href="#DejaVuSans-30" transform="translate(743.066406 0)"/>
     <use xlink:href="#DejaVuSans-30" transform="translate(806.689453 0)"/>
     <use xlink:href="#DejaVuSans-30" transform="translate(870.3125 0)"/>
     <use xlink:href="#DejaVuSans-32" transform="translate(933.935547 0)"/>
     <use xlink:href="#DejaVuSans-2f" transform="translate(997.558594 0)"/>
     <use xlink:href="#DejaVuSans-64" transform="translate(1031.25 0)"/>
     <use xlink:href="#DejaVuSans-30" transform="translate(1094.726562 0)"/>
     <use xlink:href="#DejaVuSans-30" transform="translate(1158.349609 0)"/>
     <use xlink:href="#DejaVuSans-31" transform="translate(1221.972656 0)"/>
    </g>
   </g>
   <g id="legend_1">
    <g id="patch_7">
     <path d="M 78.84 78.914375 
L 229.78375 78.914375 
Q 231.78375 78.914375 231.78375 76.914375 
L 231.78375 33.88 
Q 231.78375 31.88 229.78375 31.88 
L 78.84 31.88 
Q 76.84 31.88 76.84 33.88 
L 76.84 76.914375 
Q 76.84 78.914375 78.84 78.914375 
z
" style="fill: #ffffff; opacity: 0.8; stroke: #cccccc; stroke-linejoin: miter"/>
    </g>
    <g id="line2d_17">
     <path d="M 80.84 39.978438 
L 90.84 39.978438 
L 100.84 39.978438 
" style="fill: none; stroke: #1f77b4; stroke-width: 2; stroke-linecap: square"/>
    </g>
    <g id="text_18">
     <!-- Hive -->
     <g transform="translate(108.84 43.478438) scale(0.1 -0.1)">
      <defs>
       <path id="DejaVuSans-48" d="M 628 4666 
L 1259 4666 
L 1259 2753 
L 3553 2753 
L 3553 4666 
L 4184 4666 
L 4184 0 
L 3553 0 
L 3553 2222 
L 1259 2222 
L 1259 0 
L 628 0 
L 628 4666 
z
" transform="scale(0.015625)"/>
      </defs>
      <use xlink:href="#DejaVuSans-48"/>
      <use xlink:href="#DejaVuSans-69" transform="translate(75.195312 0)"/>
      <use xlink:href="#DejaVuSans-76" transform="translate(102.978516 0)"/>
      <use xlink:href="#DejaVuSans-65" transform="translate(162.158203 0)"/>
     </g>
    </g>
    <g id="line2d_18">
     <path d="M 80.84 54.656563 
L 90.84 54.656563 
L 100.84 54.656563 
" style="fill: none; stroke-dasharray: 5.55,2.4; stroke-dashoffset: 0; stroke: #808080; stroke-width: 1.5"/>
    </g>
    <g id="text_19">
     <!-- Gemiddelde (alle hives) -->
     <g transform="translate(108.84 58.156563) scale(0.1 -0.1)">
      <defs>
       <path id="DejaVuSans-47" d="M 3809 666 
L 3809 1919 
L 2778 1919 
L 2778 2438 
L 4434 2438 
L 4434 434 
Q 4069 175 3628 42 
Q 3188 -91 2688 -91 
Q 1594 -91 976 548 
Q 359 1188 359 2328 
Q 359 3472 976 4111 
Q 1594 4750 2688 4750 
Q 3144 4750 3555 4637 
Q 3966 4525 4313 4306 
L 4313 3634 
Q 3963 3931 3569 4081 
Q 3175 4231 2741 4231 
Q 1884 4231 1454 3753 
Q 1025 3275 1025 2328 
Q 1025 1384 1454 906 
Q 1884 428 2741 428 
Q 3075 428 3337 486 
Q 3600 544 3809 666 
z
" transform="scale(0.015625)"/>
       <path id="DejaVuSans-6d" d="M 3328 2828 
Q 3544 3216 3844 3400 
Q 4144 3584 4550 3584 
Q 5097 3584 5394 3201 
Q 5691 2819 5691 2113 
L 5691 0 
L 5113 0 
L 5113 2094 
Q 5113 2597 4934 2840 
Q 4756 3084 4391 3084 
Q 3944 3084 3684 2787 
Q 3425 2491 3425 1978 
L 3425 0 
L 2847 0 
L 2847 2094 
Q 2847 2600 2669 2842 
Q 2491 3084 2119 3084 
Q 1678 3084 1418 2786 
Q 1159 2488 1159 1978 
L 1159 0 
L 581 0 
L 581 3500 
L 1159 3500 
L 1159 2956 
Q 1356 3278 1631 3431 
Q 1906 3584 2284 3584 
Q 2666 3584 2933 3390 
Q 3200 3197 3328 2828 
z
" transform="scale(0.015625)"/>
       <path id="DejaVuSans-6c" d="M 603 4863 
L 1178 4863 
L 1178 0 
L 603 0 
L 603 4863 
z
" transform="scale(0.015625)"/>
       <path id="DejaVuSans-28" d="M 1984 4856 
Q 1566 4138 1362 3434 
Q 1159 2731 1159 2009 
Q 1159 1288 1364 580 
Q 1569 -128 1984 -844 
L 1484 -844 
Q 1016 -109 783 600 
Q 550 1309 550 2009 
Q 550 2706 781 3412 
Q 1013 4119 1484 4856 
L 1984 4856 
z
" transform="scale(0.015625)"/>
       <path id="DejaVuSans-61" d="M 2194 1759 
Q 1497 1759 1228 1600 
Q 959 1441 959 1056 
Q 959 750 1161 570 
Q 1363 391 1709 391 
Q 2188 391 2477 730 
Q 2766 1069 2766 1631 
L 2766 1759 
L 2194 1759 
z
M 3341 1997 
L 3341 0 
L 2766 0 
L 2766 531 
Q 2569 213 2275 61 
Q 1981 -91 1556 -91 
Q 1019 -91 701 211 
Q 384 513 384 1019 
Q 384 1609 779 1909 
Q 1175 2209 1959 2209 
L 2766 2209 
L 2766 2266 
Q 2766 2663 2505 2880 
Q 2244 3097 1772 3097 
Q 1472 3097 1187 3025 
Q 903 2953 641 2809 
L 641 3341 
Q 956 3463 1253 3523 
Q 1550 3584 1831 3584 
Q 2591 3584 2966 3190 
Q 3341 2797 3341 1997 
z
" transform="scale(0.015625)"/>
       <path id="DejaVuSans-29" d="M 513 4856 
L 1013 4856 
Q 1481 4119 1714 3412 
Q 1947 2706 1947 2009 
Q 1947 1309 1714 600 
Q 1481 -109 1013 -844 
L 513 -844 
Q 928 -128 1133 580 
Q 1338 1288 1338 2009 
Q 1338 2731 1133 3434 
Q 928 4138 513 4856 
z
" transform="scale(0.015625)"/>
      </defs>
      <use xlink:href="#DejaVuSans-47"/>
      <use xlink:href="#DejaVuSans-65" transform="translate(77.490234 0)"/>
      <use xlink:href="#DejaVuSans-6d" transform="translate(139.013672 0)"/>
      <use xlink:href="#DejaVuSans-69" transform="translate(236.425781 0)"/>
      <use xlink:href="#DejaVuSans-64" transform="translate(264.208984 0)"/>
      <use xlink:href="#DejaVuSans-64" transform="translate(327.685547 0)"/>
      <use xlink:href="#DejaVuSans-65" transform="translate(391.162109 0)"/>
      <use xlink:href="#DejaVuSans-6c" transform="translate(452.685547 0)"/>
      <use xlink:href="#DejaVuSans-64" transform="translate(480.46875 0)"/>
      <use xlink:href="#DejaVuSans-65" transform="translate(543.945312 0)"/>
      <use xlink:href="#DejaVuSans-20" transform="translate(605.46875 0)"/>
      <use xlink:href="#DejaVuSans-28" transform="translate(637.255859 0)"/>
      <use xlink:href="#DejaVuSans-61" transform="translate(676.269531 0)"/>
      <use xlink:href="#DejaVuSans-6c" transform="translate(737.548828 0)"/>
      <use xlink:href="#DejaVuSans-6c" transform="translate(765.332031 0)"/>
      <use xlink:href="#DejaVuSans-65" transform="translate(793.115234 0)"/>
      <use xlink:href="#DejaVuSans-20" transform="translate(854.638672 0)"/>
      <use xlink:href="#DejaVuSans-68" transform="translate(886.425781 0)"/>
      <use xlink:href="#DejaVuSans-69" transform="translate(949.804688 0)"/>
      <use xlink:href="#DejaVuSans-76" transform="translate(977.587891 0)"/>
      <use xlink:href="#DejaVuSans-65" transform="translate(1036.767578 0)"/>
      <use xlink:href="#DejaVuSans-73" transform="translate(1098.291016 0)"/>
      <use xlink:href="#DejaVuSans-29" transform="translate(1150.390625 0)"/>
     </g>
    </g>
    <g id="patch_8">
     <path d="M 80.84 72.834688 
L 100.84 72.834688 
L 100.84 65.834688 
L 80.84 65.834688 
z
" style="fill: #808080; fill-opacity: 0.2; stroke: #808080; stroke-opacity: 0.2; stroke-linejoin: miter"/>
    </g>
    <g id="text_20">
     <!-- ±2 Std Dev -->
     <g transform="translate(108.84 72.834688) scale(0.1 -0.1)">
      <defs>
       <path id="DejaVuSans-b1" d="M 2944 4013 
L 2944 2803 
L 4684 2803 
L 4684 2272 
L 2944 2272 
L 2944 1063 
L 2419 1063 
L 2419 2272 
L 678 2272 
L 678 2803 
L 2419 2803 
L 2419 4013 
L 2944 4013 
z
M 678 531 
L 4684 531 
L 4684 0 
L 678 0 
L 678 531 
z
" transform="scale(0.015625)"/>
       <path id="DejaVuSans-53" d="M 3425 4513 
L 3425 3897 
Q 3066 4069 2747 4153 
Q 2428 4238 2131 4238 
Q 1616 4238 1336 4038 
Q 1056 3838 1056 3469 
Q 1056 3159 1242 3001 
Q 1428 2844 1947 2747 
L 2328 2669 
Q 3034 2534 3370 2195 
Q 3706 1856 3706 1288 
Q 3706 609 3251 259 
Q 2797 -91 1919 -91 
Q 1588 -91 1214 -16 
Q 841 59 441 206 
L 441 856 
Q 825 641 1194 531 
Q 1563 422 1919 422 
Q 2459 422 2753 634 
Q 3047 847 3047 1241 
Q 3047 1584 2836 1778 
Q 2625 1972 2144 2069 
L 1759 2144 
Q 1053 2284 737 2584 
Q 422 2884 422 3419 
Q 422 4038 858 4394 
Q 1294 4750 2059 4750 
Q 2388 4750 2728 4690 
Q 3069 4631 3425 4513 
z
" transform="scale(0.015625)"/>
       <path id="DejaVuSans-44" d="M 1259 4147 
L 1259 519 
L 2022 519 
Q 2988 519 3436 956 
Q 3884 1394 3884 2338 
Q 3884 3275 3436 3711 
Q 2988 4147 2022 4147 
L 1259 4147 
z
M 628 4666 
L 1925 4666 
Q 3281 4666 3915 4102 
Q 4550 3538 4550 2338 
Q 4550 1131 3912 565 
Q 3275 0 1925 0 
L 628 0 
L 628 4666 
z
" transform="scale(0.015625)"/>
      </defs>
      <use xlink:href="#DejaVuSans-b1"/>
      <use xlink:href="#DejaVuSans-32" transform="translate(83.789062 0)"/>
      <use xlink:href="#DejaVuSans-20" transform="translate(147.412109 0)"/>
      <use xlink:href="#DejaVuSans-53" transform="translate(179.199219 0)"/>
      <use xlink:href="#DejaVuSans-74" transform="translate(242.675781 0)"/>
      <use xlink:href="#DejaVuSans-64" transform="translate(281.884766 0)"/>
      <use xlink:href="#DejaVuSans-20" transform="translate(345.361328 0)"/>
      <use xlink:href="#DejaVuSans-44" transform="translate(377.148438 0)"/>
      <use xlink:href="#DejaVuSans-65" transform="translate(454.150391 0)"/>
      <use xlink:href="#DejaVuSans-76" transform="translate(515.673828 0)"/>
     </g>
    </g>
   </g>
  </g>
 </g>
 <defs>
  <clipPath id="pc5cb73357a">
   <rect x="71.84" y="26.88" width="637.36" height="219.16"/>
  </clipPath>
 </defs>
</svg>
