<?xml version="1.0" encoding="utf-8" standalone="no"?>
<!DOCTYPE svg PUBLIC "-//W3C//DTD SVG 1.1//EN"
  "http://www.w3.org/Graphics/SVG/1.1/DTD/svg11.dtd">
<svg xmlns:xlink="http://www.w3.org/1999/xlink" width="720pt" height="288pt" viewBox="0 0 720 288" xmlns="http://www.w3.org/2000/svg" version="1.1">
 <metadata>
  <rdf:RDF xmlns:dc="http://purl.org/dc/elements/1.1/" xmlns:cc="http://creativecommons.org/ns#" xmlns:rdf="http://www.w3.org/1999/02/22-rdf-syntax-ns#">
   <cc:Work>
    <dc:type rdf:resource="http://purl.org/dc/dcmitype/StillImage"/>
    <dc:date>2025-06-14T06:22:01.427675</dc:date>
    <dc:format>image/svg+xml</dc:format>
    <dc:creator>
     <cc:Agent>
      <dc:title>Matplotlib v3.10.3, https://matplotlib.org/</dc:title>
     </cc:Agent>
    </dc:creator>
   </cc:Work>
  </rdf:RDF>
 </metadata>
 <defs>
  <style type="text/css">*{stroke-linejoin: round; stroke-linecap: butt}</style>
 </defs>
 <g id="figure_1">
  <g id="patch_1">
   <path d="M 0 288 
L 720 288 
L 720 0 
L 0 0 
z
" style="fill: #ffffff"/>
  </g>
  <g id="axes_1">
   <g id="patch_2">
    <path d="M 50.87 246.04 
L 709.2 246.04 
L 709.2 26.88 
L 50.87 26.88 
z
" style="fill: #ffffff"/>
   </g>
   <g id="FillBetweenPolyCollection_1">
    <defs>
     <path id="me2d841c5ba" d="M 80.794091 -219.483379 
L 80.794091 -172.077631 
L 84.356483 -165.530887 
L 87.918874 -167.084838 
L 91.481266 -168.378104 
L 95.043658 -169.205121 
L 98.60605 -170.400026 
L 102.168442 -171.242142 
L 105.730833 -172.509215 
L 109.293225 -169.432397 
L 112.855617 -162.754854 
L 116.418009 -150.292091 
L 119.9804 -143.605291 
L 123.542792 -133.062136 
L 127.105184 -117.272087 
L 130.667576 -115.452696 
L 134.229968 -109.43153 
L 137.792359 -100.414992 
L 141.354751 -80.05762 
L 144.917143 -99.84656 
L 148.479535 -92.300373 
L 152.041926 -81.939203 
L 155.604318 -63.011645 
L 159.16671 -60.447566 
L 162.729102 -62.722478 
L 166.291494 -64.808763 
L 169.853885 -87.803672 
L 173.416277 -80.765828 
L 176.978669 -69.626512 
L 180.541061 -51.921818 
L 184.103452 -58.303903 
L 187.665844 -64.200927 
L 191.228236 -70.341504 
L 194.790628 -82.012983 
L 198.353019 -98.834348 
L 201.915411 -105.171115 
L 205.477803 -109.419042 
L 209.040195 -112.057439 
L 212.602587 -116.805203 
L 216.164978 -119.719133 
L 219.72737 -126.933796 
L 223.289762 -138.604755 
L 226.852154 -144.261238 
L 230.414545 -144.296507 
L 233.976937 -147.665886 
L 237.539329 -147.85646 
L 241.101721 -148.876779 
L 244.664113 -148.958205 
L 248.226504 -148.707362 
L 251.788896 -146.682889 
L 255.351288 -146.858066 
L 258.91368 -149.301846 
L 262.476071 -151.750996 
L 266.038463 -158.205918 
L 269.600855 -157.410653 
L 273.163247 -160.277538 
L 276.725639 -160.600818 
L 280.28803 -158.671309 
L 283.850422 -153.878867 
L 287.412814 -150.484173 
L 290.975206 -142.307006 
L 294.537597 -135.233378 
L 298.099989 -123.63797 
L 301.662381 -112.091111 
L 305.224773 -102.032014 
L 308.787165 -92.789026 
L 312.349556 -75.343509 
L 315.911948 -75.887696 
L 319.47434 -70.585461 
L 323.036732 -67.785279 
L 326.599123 -60.137663 
L 330.161515 -53.870801 
L 333.723907 -53.97257 
L 337.286299 -60.443871 
L 340.84869 -68.962095 
L 344.411082 -67.426086 
L 347.973474 -55.346387 
L 351.535866 -54.128154 
L 355.098258 -58.277358 
L 358.660649 -67.217231 
L 362.223041 -71.340823 
L 365.785433 -75.048397 
L 369.347825 -81.482468 
L 372.910216 -83.580783 
L 376.472608 -84.061855 
L 380.035 -84.659348 
L 383.597392 -78.467389 
L 387.159784 -99.203909 
L 390.722175 -105.24497 
L 394.284567 -92.98247 
L 397.846959 -99.928151 
L 401.409351 -104.459075 
L 404.971742 -102.93585 
L 408.534134 -107.211632 
L 412.096526 -110.259697 
L 415.658918 -105.772722 
L 419.22131 -112.646263 
L 422.783701 -116.852698 
L 426.346093 -119.11064 
L 429.908485 -121.874327 
L 433.470877 -124.62934 
L 437.033268 -128.627639 
L 440.59566 -131.162228 
L 444.158052 -129.482161 
L 447.720444 -132.904305 
L 451.282835 -133.515514 
L 454.845227 -129.171261 
L 458.407619 -126.967878 
L 461.970011 -124.441424 
L 465.532403 -120.896214 
L 469.094794 -113.818767 
L 472.657186 -107.093906 
L 476.219578 -102.121802 
L 479.78197 -100.650185 
L 483.344361 -112.170619 
L 486.906753 -98.5455 
L 490.469145 -89.705979 
L 494.031537 -87.491827 
L 497.593929 -79.935828 
L 501.15632 -71.695511 
L 504.718712 -68.902977 
L 508.281104 -74.759778 
L 511.843496 -88.297432 
L 515.405887 -89.960493 
L 518.968279 -75.293383 
L 522.530671 -65.223927 
L 526.093063 -65.214553 
L 529.655455 -73.072171 
L 533.217846 -76.647513 
L 536.780238 -81.848865 
L 540.34263 -84.082924 
L 543.905022 -74.493136 
L 547.467413 -72.85775 
L 551.029805 -74.540955 
L 554.592197 -75.151266 
L 558.154589 -76.882804 
L 561.716981 -82.327787 
L 565.279372 -90.561541 
L 568.841764 -94.200558 
L 572.404156 -83.905999 
L 575.966548 -94.726704 
L 579.528939 -92.015413 
L 583.091331 -95.250118 
L 586.653723 -101.897502 
L 590.216115 -104.003036 
L 593.778506 -104.951425 
L 597.340898 -105.354456 
L 600.90329 -109.820068 
L 604.465682 -132.566479 
L 608.028074 -116.985949 
L 611.590465 -118.094063 
L 615.152857 -122.502669 
L 618.715249 -126.882831 
L 622.277641 -144.738844 
L 625.840032 -111.629641 
L 629.402424 -120.246249 
L 632.964816 -94.769251 
L 636.527208 -112.655503 
L 640.0896 -149.894613 
L 643.651991 -96.246693 
L 647.214383 -96.228784 
L 647.214383 -251.158182 
L 647.214383 -251.158182 
L 643.651991 -248.80429 
L 640.0896 -230.705244 
L 636.527208 -236.917704 
L 632.964816 -237.014544 
L 629.402424 -222.798184 
L 625.840032 -226.473289 
L 622.277641 -214.747318 
L 618.715249 -213.306511 
L 615.152857 -216.029523 
L 611.590465 -207.999516 
L 608.028074 -206.452197 
L 604.465682 -199.552739 
L 600.90329 -203.914762 
L 597.340898 -204.866416 
L 593.778506 -193.978861 
L 590.216115 -190.155455 
L 586.653723 -194.72675 
L 583.091331 -201.094614 
L 579.528939 -205.766847 
L 575.966548 -205.50135 
L 572.404156 -211.196868 
L 568.841764 -200.417144 
L 565.279372 -196.886488 
L 561.716981 -188.75638 
L 558.154589 -193.86594 
L 554.592197 -189.787468 
L 551.029805 -184.787426 
L 547.467413 -179.921892 
L 543.905022 -170.24034 
L 540.34263 -154.02195 
L 536.780238 -149.687304 
L 533.217846 -153.111712 
L 529.655455 -152.534195 
L 526.093063 -150.6286 
L 522.530671 -152.176549 
L 518.968279 -139.655309 
L 515.405887 -134.655575 
L 511.843496 -148.928953 
L 508.281104 -155.638348 
L 504.718712 -165.198781 
L 501.15632 -167.769881 
L 497.593929 -165.099986 
L 494.031537 -168.171427 
L 490.469145 -169.705117 
L 486.906753 -171.561491 
L 483.344361 -172.380107 
L 479.78197 -181.547444 
L 476.219578 -185.372434 
L 472.657186 -188.152714 
L 469.094794 -191.98684 
L 465.532403 -196.383949 
L 461.970011 -201.070299 
L 458.407619 -203.027564 
L 454.845227 -204.084289 
L 451.282835 -205.601386 
L 447.720444 -206.161255 
L 444.158052 -211.046598 
L 440.59566 -205.575905 
L 437.033268 -206.518946 
L 433.470877 -207.265693 
L 429.908485 -207.154206 
L 426.346093 -206.058814 
L 422.783701 -201.882106 
L 419.22131 -200.244304 
L 415.658918 -201.652957 
L 412.096526 -194.442094 
L 408.534134 -190.927158 
L 404.971742 -188.759734 
L 401.409351 -184.583926 
L 397.846959 -181.276899 
L 394.284567 -183.256833 
L 390.722175 -178.513404 
L 387.159784 -175.677729 
L 383.597392 -169.802863 
L 380.035 -160.5476 
L 376.472608 -156.764055 
L 372.910216 -149.304495 
L 369.347825 -148.733115 
L 365.785433 -151.042849 
L 362.223041 -154.408154 
L 358.660649 -155.947618 
L 355.098258 -159.257173 
L 351.535866 -161.985962 
L 347.973474 -161.803091 
L 344.411082 -158.896191 
L 340.84869 -157.659667 
L 337.286299 -163.593763 
L 333.723907 -171.100427 
L 330.161515 -176.515917 
L 326.599123 -180.183401 
L 323.036732 -184.540857 
L 319.47434 -188.483366 
L 315.911948 -192.884447 
L 312.349556 -199.392664 
L 308.787165 -197.160987 
L 305.224773 -198.408533 
L 301.662381 -198.292339 
L 298.099989 -187.211821 
L 294.537597 -194.736394 
L 290.975206 -193.755147 
L 287.412814 -193.638405 
L 283.850422 -193.050315 
L 280.28803 -193.100973 
L 276.725639 -194.645491 
L 273.163247 -196.637331 
L 269.600855 -200.736382 
L 266.038463 -204.175265 
L 262.476071 -204.171293 
L 258.91368 -204.849203 
L 255.351288 -205.829785 
L 251.788896 -204.738569 
L 248.226504 -201.704403 
L 244.664113 -198.826648 
L 241.101721 -196.845905 
L 237.539329 -197.010553 
L 233.976937 -197.047106 
L 230.414545 -195.094208 
L 226.852154 -197.425529 
L 223.289762 -196.772861 
L 219.72737 -194.821529 
L 216.164978 -192.247309 
L 212.602587 -188.042052 
L 209.040195 -180.844641 
L 205.477803 -179.392929 
L 201.915411 -173.612385 
L 198.353019 -170.742126 
L 194.790628 -177.021618 
L 191.228236 -186.725051 
L 187.665844 -184.976337 
L 184.103452 -188.888204 
L 180.541061 -193.828482 
L 176.978669 -183.238697 
L 173.416277 -172.356082 
L 169.853885 -175.917156 
L 166.291494 -188.769505 
L 162.729102 -195.937053 
L 159.16671 -200.931575 
L 155.604318 -204.492677 
L 152.041926 -212.205312 
L 148.479535 -204.363809 
L 144.917143 -204.224886 
L 141.354751 -210.876416 
L 137.792359 -213.539461 
L 134.229968 -209.743945 
L 130.667576 -221.805686 
L 127.105184 -226.359336 
L 123.542792 -215.826534 
L 119.9804 -213.446485 
L 116.418009 -213.117324 
L 112.855617 -214.091457 
L 109.293225 -209.267869 
L 105.730833 -211.530441 
L 102.168442 -216.305768 
L 98.60605 -216.737162 
L 95.043658 -216.468868 
L 91.481266 -216.063718 
L 87.918874 -216.159044 
L 84.356483 -216.207013 
L 80.794091 -219.483379 
z
" style="stroke: #808080; stroke-opacity: 0.2"/>
    </defs>
    <g clip-path="url(#p31254ee900)">
     <use xlink:href="#me2d841c5ba" x="0" y="288" style="fill: #808080; fill-opacity: 0.2; stroke: #808080; stroke-opacity: 0.2"/>
    </g>
   </g>
   <g id="matplotlib.axis_1">
    <g id="xtick_1">
     <g id="line2d_1">
      <defs>
       <path id="md815522d67" d="M 0 0 
L 0 3.5 
" style="stroke: #000000; stroke-width: 0.8"/>
      </defs>
      <g>
       <use xlink:href="#md815522d67" x="123.542792" y="246.04" style="stroke: #000000; stroke-width: 0.8"/>
      </g>
     </g>
     <g id="text_1">
      <!-- 06-11 12 -->
      <g transform="translate(101.062323 260.638438) scale(0.1 -0.1)">
       <defs>
        <path id="DejaVuSans-30" d="M 2034 4250 
Q 1547 4250 1301 3770 
Q 1056 3291 1056 2328 
Q 1056 1369 1301 889 
Q 1547 409 2034 409 
Q 2525 409 2770 889 
Q 3016 1369 3016 2328 
Q 3016 3291 2770 3770 
Q 2525 4250 2034 4250 
z
M 2034 4750 
Q 2819 4750 3233 4129 
Q 3647 3509 3647 2328 
Q 3647 1150 3233 529 
Q 2819 -91 2034 -91 
Q 1250 -91 836 529 
Q 422 1150 422 2328 
Q 422 3509 836 4129 
Q 1250 4750 2034 4750 
z
" transform="scale(0.015625)"/>
        <path id="DejaVuSans-36" d="M 2113 2584 
Q 1688 2584 1439 2293 
Q 1191 2003 1191 1497 
Q 1191 994 1439 701 
Q 1688 409 2113 409 
Q 2538 409 2786 701 
Q 3034 994 3034 1497 
Q 3034 2003 2786 2293 
Q 2538 2584 2113 2584 
z
M 3366 4563 
L 3366 3988 
Q 3128 4100 2886 4159 
Q 2644 4219 2406 4219 
Q 1781 4219 1451 3797 
Q 1122 3375 1075 2522 
Q 1259 2794 1537 2939 
Q 1816 3084 2150 3084 
Q 2853 3084 3261 2657 
Q 3669 2231 3669 1497 
Q 3669 778 3244 343 
Q 2819 -91 2113 -91 
Q 1303 -91 875 529 
Q 447 1150 447 2328 
Q 447 3434 972 4092 
Q 1497 4750 2381 4750 
Q 2619 4750 2861 4703 
Q 3103 4656 3366 4563 
z
" transform="scale(0.015625)"/>
        <path id="DejaVuSans-2d" d="M 313 2009 
L 1997 2009 
L 1997 1497 
L 313 1497 
L 313 2009 
z
" transform="scale(0.015625)"/>
        <path id="DejaVuSans-31" d="M 794 531 
L 1825 531 
L 1825 4091 
L 703 3866 
L 703 4441 
L 1819 4666 
L 2450 4666 
L 2450 531 
L 3481 531 
L 3481 0 
L 794 0 
L 794 531 
z
" transform="scale(0.015625)"/>
        <path id="DejaVuSans-20" transform="scale(0.015625)"/>
        <path id="DejaVuSans-32" d="M 1228 531 
L 3431 531 
L 3431 0 
L 469 0 
L 469 531 
Q 828 903 1448 1529 
Q 2069 2156 2228 2338 
Q 2531 2678 2651 2914 
Q 2772 3150 2772 3378 
Q 2772 3750 2511 3984 
Q 2250 4219 1831 4219 
Q 1534 4219 1204 4116 
Q 875 4013 500 3803 
L 500 4441 
Q 881 4594 1212 4672 
Q 1544 4750 1819 4750 
Q 2544 4750 2975 4387 
Q 3406 4025 3406 3419 
Q 3406 3131 3298 2873 
Q 3191 2616 2906 2266 
Q 2828 2175 2409 1742 
Q 1991 1309 1228 531 
z
" transform="scale(0.015625)"/>
       </defs>
       <use xlink:href="#DejaVuSans-30"/>
       <use xlink:href="#DejaVuSans-36" transform="translate(63.623047 0)"/>
       <use xlink:href="#DejaVuSans-2d" transform="translate(127.246094 0)"/>
       <use xlink:href="#DejaVuSans-31" transform="translate(163.330078 0)"/>
       <use xlink:href="#DejaVuSans-31" transform="translate(226.953125 0)"/>
       <use xlink:href="#DejaVuSans-20" transform="translate(290.576172 0)"/>
       <use xlink:href="#DejaVuSans-31" transform="translate(322.363281 0)"/>
       <use xlink:href="#DejaVuSans-32" transform="translate(385.986328 0)"/>
      </g>
     </g>
    </g>
    <g id="xtick_2">
     <g id="line2d_2">
      <g>
       <use xlink:href="#md815522d67" x="209.040195" y="246.04" style="stroke: #000000; stroke-width: 0.8"/>
      </g>
     </g>
     <g id="text_2">
      <!-- 06-12 00 -->
      <g transform="translate(186.559726 260.638438) scale(0.1 -0.1)">
       <use xlink:href="#DejaVuSans-30"/>
       <use xlink:href="#DejaVuSans-36" transform="translate(63.623047 0)"/>
       <use xlink:href="#DejaVuSans-2d" transform="translate(127.246094 0)"/>
       <use xlink:href="#DejaVuSans-31" transform="translate(163.330078 0)"/>
       <use xlink:href="#DejaVuSans-32" transform="translate(226.953125 0)"/>
       <use xlink:href="#DejaVuSans-20" transform="translate(290.576172 0)"/>
       <use xlink:href="#DejaVuSans-30" transform="translate(322.363281 0)"/>
       <use xlink:href="#DejaVuSans-30" transform="translate(385.986328 0)"/>
      </g>
     </g>
    </g>
    <g id="xtick_3">
     <g id="line2d_3">
      <g>
       <use xlink:href="#md815522d67" x="294.537597" y="246.04" style="stroke: #000000; stroke-width: 0.8"/>
      </g>
     </g>
     <g id="text_3">
      <!-- 06-12 12 -->
      <g transform="translate(272.057129 260.638438) scale(0.1 -0.1)">
       <use xlink:href="#DejaVuSans-30"/>
       <use xlink:href="#DejaVuSans-36" transform="translate(63.623047 0)"/>
       <use xlink:href="#DejaVuSans-2d" transform="translate(127.246094 0)"/>
       <use xlink:href="#DejaVuSans-31" transform="translate(163.330078 0)"/>
       <use xlink:href="#DejaVuSans-32" transform="translate(226.953125 0)"/>
       <use xlink:href="#DejaVuSans-20" transform="translate(290.576172 0)"/>
       <use xlink:href="#DejaVuSans-31" transform="translate(322.363281 0)"/>
       <use xlink:href="#DejaVuSans-32" transform="translate(385.986328 0)"/>
      </g>
     </g>
    </g>
    <g id="xtick_4">
     <g id="line2d_4">
      <g>
       <use xlink:href="#md815522d67" x="380.035" y="246.04" style="stroke: #000000; stroke-width: 0.8"/>
      </g>
     </g>
     <g id="text_4">
      <!-- 06-13 00 -->
      <g transform="translate(357.554531 260.638438) scale(0.1 -0.1)">
       <defs>
        <path id="DejaVuSans-33" d="M 2597 2516 
Q 3050 2419 3304 2112 
Q 3559 1806 3559 1356 
Q 3559 666 3084 287 
Q 2609 -91 1734 -91 
Q 1441 -91 1130 -33 
Q 819 25 488 141 
L 488 750 
Q 750 597 1062 519 
Q 1375 441 1716 441 
Q 2309 441 2620 675 
Q 2931 909 2931 1356 
Q 2931 1769 2642 2001 
Q 2353 2234 1838 2234 
L 1294 2234 
L 1294 2753 
L 1863 2753 
Q 2328 2753 2575 2939 
Q 2822 3125 2822 3475 
Q 2822 3834 2567 4026 
Q 2313 4219 1838 4219 
Q 1578 4219 1281 4162 
Q 984 4106 628 3988 
L 628 4550 
Q 988 4650 1302 4700 
Q 1616 4750 1894 4750 
Q 2613 4750 3031 4423 
Q 3450 4097 3450 3541 
Q 3450 3153 3228 2886 
Q 3006 2619 2597 2516 
z
" transform="scale(0.015625)"/>
       </defs>
       <use xlink:href="#DejaVuSans-30"/>
       <use xlink:href="#DejaVuSans-36" transform="translate(63.623047 0)"/>
       <use xlink:href="#DejaVuSans-2d" transform="translate(127.246094 0)"/>
       <use xlink:href="#DejaVuSans-31" transform="translate(163.330078 0)"/>
       <use xlink:href="#DejaVuSans-33" transform="translate(226.953125 0)"/>
       <use xlink:href="#DejaVuSans-20" transform="translate(290.576172 0)"/>
       <use xlink:href="#DejaVuSans-30" transform="translate(322.363281 0)"/>
       <use xlink:href="#DejaVuSans-30" transform="translate(385.986328 0)"/>
      </g>
     </g>
    </g>
    <g id="xtick_5">
     <g id="line2d_5">
      <g>
       <use xlink:href="#md815522d67" x="465.532403" y="246.04" style="stroke: #000000; stroke-width: 0.8"/>
      </g>
     </g>
     <g id="text_5">
      <!-- 06-13 12 -->
      <g transform="translate(443.051934 260.638438) scale(0.1 -0.1)">
       <use xlink:href="#DejaVuSans-30"/>
       <use xlink:href="#DejaVuSans-36" transform="translate(63.623047 0)"/>
       <use xlink:href="#DejaVuSans-2d" transform="translate(127.246094 0)"/>
       <use xlink:href="#DejaVuSans-31" transform="translate(163.330078 0)"/>
       <use xlink:href="#DejaVuSans-33" transform="translate(226.953125 0)"/>
       <use xlink:href="#DejaVuSans-20" transform="translate(290.576172 0)"/>
       <use xlink:href="#DejaVuSans-31" transform="translate(322.363281 0)"/>
       <use xlink:href="#DejaVuSans-32" transform="translate(385.986328 0)"/>
      </g>
     </g>
    </g>
    <g id="xtick_6">
     <g id="line2d_6">
      <g>
       <use xlink:href="#md815522d67" x="551.029805" y="246.04" style="stroke: #000000; stroke-width: 0.8"/>
      </g>
     </g>
     <g id="text_6">
      <!-- 06-14 00 -->
      <g transform="translate(528.549336 260.638438) scale(0.1 -0.1)">
       <defs>
        <path id="DejaVuSans-34" d="M 2419 4116 
L 825 1625 
L 2419 1625 
L 2419 4116 
z
M 2253 4666 
L 3047 4666 
L 3047 1625 
L 3713 1625 
L 3713 1100 
L 3047 1100 
L 3047 0 
L 2419 0 
L 2419 1100 
L 313 1100 
L 313 1709 
L 2253 4666 
z
" transform="scale(0.015625)"/>
       </defs>
       <use xlink:href="#DejaVuSans-30"/>
       <use xlink:href="#DejaVuSans-36" transform="translate(63.623047 0)"/>
       <use xlink:href="#DejaVuSans-2d" transform="translate(127.246094 0)"/>
       <use xlink:href="#DejaVuSans-31" transform="translate(163.330078 0)"/>
       <use xlink:href="#DejaVuSans-34" transform="translate(226.953125 0)"/>
       <use xlink:href="#DejaVuSans-20" transform="translate(290.576172 0)"/>
       <use xlink:href="#DejaVuSans-30" transform="translate(322.363281 0)"/>
       <use xlink:href="#DejaVuSans-30" transform="translate(385.986328 0)"/>
      </g>
     </g>
    </g>
    <g id="xtick_7">
     <g id="line2d_7">
      <g>
       <use xlink:href="#md815522d67" x="636.527208" y="246.04" style="stroke: #000000; stroke-width: 0.8"/>
      </g>
     </g>
     <g id="text_7">
      <!-- 06-14 12 -->
      <g transform="translate(614.046739 260.638438) scale(0.1 -0.1)">
       <use xlink:href="#DejaVuSans-30"/>
       <use xlink:href="#DejaVuSans-36" transform="translate(63.623047 0)"/>
       <use xlink:href="#DejaVuSans-2d" transform="translate(127.246094 0)"/>
       <use xlink:href="#DejaVuSans-31" transform="translate(163.330078 0)"/>
       <use xlink:href="#DejaVuSans-34" transform="translate(226.953125 0)"/>
       <use xlink:href="#DejaVuSans-20" transform="translate(290.576172 0)"/>
       <use xlink:href="#DejaVuSans-31" transform="translate(322.363281 0)"/>
       <use xlink:href="#DejaVuSans-32" transform="translate(385.986328 0)"/>
      </g>
     </g>
    </g>
    <g id="text_8">
     <!-- Tijd -->
     <g transform="translate(371.185 274.316562) scale(0.1 -0.1)">
      <defs>
       <path id="DejaVuSans-54" d="M -19 4666 
L 3928 4666 
L 3928 4134 
L 2272 4134 
L 2272 0 
L 1638 0 
L 1638 4134 
L -19 4134 
L -19 4666 
z
" transform="scale(0.015625)"/>
       <path id="DejaVuSans-69" d="M 603 3500 
L 1178 3500 
L 1178 0 
L 603 0 
L 603 3500 
z
M 603 4863 
L 1178 4863 
L 1178 4134 
L 603 4134 
L 603 4863 
z
" transform="scale(0.015625)"/>
       <path id="DejaVuSans-6a" d="M 603 3500 
L 1178 3500 
L 1178 -63 
Q 1178 -731 923 -1031 
Q 669 -1331 103 -1331 
L -116 -1331 
L -116 -844 
L 38 -844 
Q 366 -844 484 -692 
Q 603 -541 603 -63 
L 603 3500 
z
M 603 4863 
L 1178 4863 
L 1178 4134 
L 603 4134 
L 603 4863 
z
" transform="scale(0.015625)"/>
       <path id="DejaVuSans-64" d="M 2906 2969 
L 2906 4863 
L 3481 4863 
L 3481 0 
L 2906 0 
L 2906 525 
Q 2725 213 2448 61 
Q 2172 -91 1784 -91 
Q 1150 -91 751 415 
Q 353 922 353 1747 
Q 353 2572 751 3078 
Q 1150 3584 1784 3584 
Q 2172 3584 2448 3432 
Q 2725 3281 2906 2969 
z
M 947 1747 
Q 947 1113 1208 752 
Q 1469 391 1925 391 
Q 2381 391 2643 752 
Q 2906 1113 2906 1747 
Q 2906 2381 2643 2742 
Q 2381 3103 1925 3103 
Q 1469 3103 1208 2742 
Q 947 2381 947 1747 
z
" transform="scale(0.015625)"/>
      </defs>
      <use xlink:href="#DejaVuSans-54"/>
      <use xlink:href="#DejaVuSans-69" transform="translate(57.958984 0)"/>
      <use xlink:href="#DejaVuSans-6a" transform="translate(85.742188 0)"/>
      <use xlink:href="#DejaVuSans-64" transform="translate(113.525391 0)"/>
     </g>
    </g>
   </g>
   <g id="matplotlib.axis_2">
    <g id="ytick_1">
     <g id="line2d_8">
      <defs>
       <path id="m7e39825151" d="M 0 0 
L -3.5 0 
" style="stroke: #000000; stroke-width: 0.8"/>
      </defs>
      <g>
       <use xlink:href="#m7e39825151" x="50.87" y="216.385993" style="stroke: #000000; stroke-width: 0.8"/>
      </g>
     </g>
     <g id="text_9">
      <!-- 20 -->
      <g transform="translate(31.145 220.185212) scale(0.1 -0.1)">
       <use xlink:href="#DejaVuSans-32"/>
       <use xlink:href="#DejaVuSans-30" transform="translate(63.623047 0)"/>
      </g>
     </g>
    </g>
    <g id="ytick_2">
     <g id="line2d_9">
      <g>
       <use xlink:href="#m7e39825151" x="50.87" y="180.447788" style="stroke: #000000; stroke-width: 0.8"/>
      </g>
     </g>
     <g id="text_10">
      <!-- 40 -->
      <g transform="translate(31.145 184.247007) scale(0.1 -0.1)">
       <use xlink:href="#DejaVuSans-34"/>
       <use xlink:href="#DejaVuSans-30" transform="translate(63.623047 0)"/>
      </g>
     </g>
    </g>
    <g id="ytick_3">
     <g id="line2d_10">
      <g>
       <use xlink:href="#m7e39825151" x="50.87" y="144.509583" style="stroke: #000000; stroke-width: 0.8"/>
      </g>
     </g>
     <g id="text_11">
      <!-- 60 -->
      <g transform="translate(31.145 148.308802) scale(0.1 -0.1)">
       <use xlink:href="#DejaVuSans-36"/>
       <use xlink:href="#DejaVuSans-30" transform="translate(63.623047 0)"/>
      </g>
     </g>
    </g>
    <g id="ytick_4">
     <g id="line2d_11">
      <g>
       <use xlink:href="#m7e39825151" x="50.87" y="108.571379" style="stroke: #000000; stroke-width: 0.8"/>
      </g>
     </g>
     <g id="text_12">
      <!-- 80 -->
      <g transform="translate(31.145 112.370597) scale(0.1 -0.1)">
       <defs>
        <path id="DejaVuSans-38" d="M 2034 2216 
Q 1584 2216 1326 1975 
Q 1069 1734 1069 1313 
Q 1069 891 1326 650 
Q 1584 409 2034 409 
Q 2484 409 2743 651 
Q 3003 894 3003 1313 
Q 3003 1734 2745 1975 
Q 2488 2216 2034 2216 
z
M 1403 2484 
Q 997 2584 770 2862 
Q 544 3141 544 3541 
Q 544 4100 942 4425 
Q 1341 4750 2034 4750 
Q 2731 4750 3128 4425 
Q 3525 4100 3525 3541 
Q 3525 3141 3298 2862 
Q 3072 2584 2669 2484 
Q 3125 2378 3379 2068 
Q 3634 1759 3634 1313 
Q 3634 634 3220 271 
Q 2806 -91 2034 -91 
Q 1263 -91 848 271 
Q 434 634 434 1313 
Q 434 1759 690 2068 
Q 947 2378 1403 2484 
z
M 1172 3481 
Q 1172 3119 1398 2916 
Q 1625 2713 2034 2713 
Q 2441 2713 2670 2916 
Q 2900 3119 2900 3481 
Q 2900 3844 2670 4047 
Q 2441 4250 2034 4250 
Q 1625 4250 1398 4047 
Q 1172 3844 1172 3481 
z
" transform="scale(0.015625)"/>
       </defs>
       <use xlink:href="#DejaVuSans-38"/>
       <use xlink:href="#DejaVuSans-30" transform="translate(63.623047 0)"/>
      </g>
     </g>
    </g>
    <g id="ytick_5">
     <g id="line2d_12">
      <g>
       <use xlink:href="#m7e39825151" x="50.87" y="72.633174" style="stroke: #000000; stroke-width: 0.8"/>
      </g>
     </g>
     <g id="text_13">
      <!-- 100 -->
      <g transform="translate(24.7825 76.432392) scale(0.1 -0.1)">
       <use xlink:href="#DejaVuSans-31"/>
       <use xlink:href="#DejaVuSans-30" transform="translate(63.623047 0)"/>
       <use xlink:href="#DejaVuSans-30" transform="translate(127.246094 0)"/>
      </g>
     </g>
    </g>
    <g id="ytick_6">
     <g id="line2d_13">
      <g>
       <use xlink:href="#m7e39825151" x="50.87" y="36.694969" style="stroke: #000000; stroke-width: 0.8"/>
      </g>
     </g>
     <g id="text_14">
      <!-- 120 -->
      <g transform="translate(24.7825 40.494188) scale(0.1 -0.1)">
       <use xlink:href="#DejaVuSans-31"/>
       <use xlink:href="#DejaVuSans-32" transform="translate(63.623047 0)"/>
       <use xlink:href="#DejaVuSans-30" transform="translate(127.246094 0)"/>
      </g>
     </g>
    </g>
    <g id="text_15">
     <!-- (Rel.) Buiten Vochtigheid (%) -->
     <g transform="translate(18.702813 208.620937) rotate(-90) scale(0.1 -0.1)">
      <defs>
       <path id="DejaVuSans-28" d="M 1984 4856 
Q 1566 4138 1362 3434 
Q 1159 2731 1159 2009 
Q 1159 1288 1364 580 
Q 1569 -128 1984 -844 
L 1484 -844 
Q 1016 -109 783 600 
Q 550 1309 550 2009 
Q 550 2706 781 3412 
Q 1013 4119 1484 4856 
L 1984 4856 
z
" transform="scale(0.015625)"/>
       <path id="DejaVuSans-52" d="M 2841 2188 
Q 3044 2119 3236 1894 
Q 3428 1669 3622 1275 
L 4263 0 
L 3584 0 
L 2988 1197 
Q 2756 1666 2539 1819 
Q 2322 1972 1947 1972 
L 1259 1972 
L 1259 0 
L 628 0 
L 628 4666 
L 2053 4666 
Q 2853 4666 3247 4331 
Q 3641 3997 3641 3322 
Q 3641 2881 3436 2590 
Q 3231 2300 2841 2188 
z
M 1259 4147 
L 1259 2491 
L 2053 2491 
Q 2509 2491 2742 2702 
Q 2975 2913 2975 3322 
Q 2975 3731 2742 3939 
Q 2509 4147 2053 4147 
L 1259 4147 
z
" transform="scale(0.015625)"/>
       <path id="DejaVuSans-65" d="M 3597 1894 
L 3597 1613 
L 953 1613 
Q 991 1019 1311 708 
Q 1631 397 2203 397 
Q 2534 397 2845 478 
Q 3156 559 3463 722 
L 3463 178 
Q 3153 47 2828 -22 
Q 2503 -91 2169 -91 
Q 1331 -91 842 396 
Q 353 884 353 1716 
Q 353 2575 817 3079 
Q 1281 3584 2069 3584 
Q 2775 3584 3186 3129 
Q 3597 2675 3597 1894 
z
M 3022 2063 
Q 3016 2534 2758 2815 
Q 2500 3097 2075 3097 
Q 1594 3097 1305 2825 
Q 1016 2553 972 2059 
L 3022 2063 
z
" transform="scale(0.015625)"/>
       <path id="DejaVuSans-6c" d="M 603 4863 
L 1178 4863 
L 1178 0 
L 603 0 
L 603 4863 
z
" transform="scale(0.015625)"/>
       <path id="DejaVuSans-2e" d="M 684 794 
L 1344 794 
L 1344 0 
L 684 0 
L 684 794 
z
" transform="scale(0.015625)"/>
       <path id="DejaVuSans-29" d="M 513 4856 
L 1013 4856 
Q 1481 4119 1714 3412 
Q 1947 2706 1947 2009 
Q 1947 1309 1714 600 
Q 1481 -109 1013 -844 
L 513 -844 
Q 928 -128 1133 580 
Q 1338 1288 1338 2009 
Q 1338 2731 1133 3434 
Q 928 4138 513 4856 
z
" transform="scale(0.015625)"/>
       <path id="DejaVuSans-42" d="M 1259 2228 
L 1259 519 
L 2272 519 
Q 2781 519 3026 730 
Q 3272 941 3272 1375 
Q 3272 1813 3026 2020 
Q 2781 2228 2272 2228 
L 1259 2228 
z
M 1259 4147 
L 1259 2741 
L 2194 2741 
Q 2656 2741 2882 2914 
Q 3109 3088 3109 3444 
Q 3109 3797 2882 3972 
Q 2656 4147 2194 4147 
L 1259 4147 
z
M 628 4666 
L 2241 4666 
Q 2963 4666 3353 4366 
Q 3744 4066 3744 3513 
Q 3744 3084 3544 2831 
Q 3344 2578 2956 2516 
Q 3422 2416 3680 2098 
Q 3938 1781 3938 1306 
Q 3938 681 3513 340 
Q 3088 0 2303 0 
L 628 0 
L 628 4666 
z
" transform="scale(0.015625)"/>
       <path id="DejaVuSans-75" d="M 544 1381 
L 544 3500 
L 1119 3500 
L 1119 1403 
Q 1119 906 1312 657 
Q 1506 409 1894 409 
Q 2359 409 2629 706 
Q 2900 1003 2900 1516 
L 2900 3500 
L 3475 3500 
L 3475 0 
L 2900 0 
L 2900 538 
Q 2691 219 2414 64 
Q 2138 -91 1772 -91 
Q 1169 -91 856 284 
Q 544 659 544 1381 
z
M 1991 3584 
L 1991 3584 
z
" transform="scale(0.015625)"/>
       <path id="DejaVuSans-74" d="M 1172 4494 
L 1172 3500 
L 2356 3500 
L 2356 3053 
L 1172 3053 
L 1172 1153 
Q 1172 725 1289 603 
Q 1406 481 1766 481 
L 2356 481 
L 2356 0 
L 1766 0 
Q 1100 0 847 248 
Q 594 497 594 1153 
L 594 3053 
L 172 3053 
L 172 3500 
L 594 3500 
L 594 4494 
L 1172 4494 
z
" transform="scale(0.015625)"/>
       <path id="DejaVuSans-6e" d="M 3513 2113 
L 3513 0 
L 2938 0 
L 2938 2094 
Q 2938 2591 2744 2837 
Q 2550 3084 2163 3084 
Q 1697 3084 1428 2787 
Q 1159 2491 1159 1978 
L 1159 0 
L 581 0 
L 581 3500 
L 1159 3500 
L 1159 2956 
Q 1366 3272 1645 3428 
Q 1925 3584 2291 3584 
Q 2894 3584 3203 3211 
Q 3513 2838 3513 2113 
z
" transform="scale(0.015625)"/>
       <path id="DejaVuSans-56" d="M 1831 0 
L 50 4666 
L 709 4666 
L 2188 738 
L 3669 4666 
L 4325 4666 
L 2547 0 
L 1831 0 
z
" transform="scale(0.015625)"/>
       <path id="DejaVuSans-6f" d="M 1959 3097 
Q 1497 3097 1228 2736 
Q 959 2375 959 1747 
Q 959 1119 1226 758 
Q 1494 397 1959 397 
Q 2419 397 2687 759 
Q 2956 1122 2956 1747 
Q 2956 2369 2687 2733 
Q 2419 3097 1959 3097 
z
M 1959 3584 
Q 2709 3584 3137 3096 
Q 3566 2609 3566 1747 
Q 3566 888 3137 398 
Q 2709 -91 1959 -91 
Q 1206 -91 779 398 
Q 353 888 353 1747 
Q 353 2609 779 3096 
Q 1206 3584 1959 3584 
z
" transform="scale(0.015625)"/>
       <path id="DejaVuSans-63" d="M 3122 3366 
L 3122 2828 
Q 2878 2963 2633 3030 
Q 2388 3097 2138 3097 
Q 1578 3097 1268 2742 
Q 959 2388 959 1747 
Q 959 1106 1268 751 
Q 1578 397 2138 397 
Q 2388 397 2633 464 
Q 2878 531 3122 666 
L 3122 134 
Q 2881 22 2623 -34 
Q 2366 -91 2075 -91 
Q 1284 -91 818 406 
Q 353 903 353 1747 
Q 353 2603 823 3093 
Q 1294 3584 2113 3584 
Q 2378 3584 2631 3529 
Q 2884 3475 3122 3366 
z
" transform="scale(0.015625)"/>
       <path id="DejaVuSans-68" d="M 3513 2113 
L 3513 0 
L 2938 0 
L 2938 2094 
Q 2938 2591 2744 2837 
Q 2550 3084 2163 3084 
Q 1697 3084 1428 2787 
Q 1159 2491 1159 1978 
L 1159 0 
L 581 0 
L 581 4863 
L 1159 4863 
L 1159 2956 
Q 1366 3272 1645 3428 
Q 1925 3584 2291 3584 
Q 2894 3584 3203 3211 
Q 3513 2838 3513 2113 
z
" transform="scale(0.015625)"/>
       <path id="DejaVuSans-67" d="M 2906 1791 
Q 2906 2416 2648 2759 
Q 2391 3103 1925 3103 
Q 1463 3103 1205 2759 
Q 947 2416 947 1791 
Q 947 1169 1205 825 
Q 1463 481 1925 481 
Q 2391 481 2648 825 
Q 2906 1169 2906 1791 
z
M 3481 434 
Q 3481 -459 3084 -895 
Q 2688 -1331 1869 -1331 
Q 1566 -1331 1297 -1286 
Q 1028 -1241 775 -1147 
L 775 -588 
Q 1028 -725 1275 -790 
Q 1522 -856 1778 -856 
Q 2344 -856 2625 -561 
Q 2906 -266 2906 331 
L 2906 616 
Q 2728 306 2450 153 
Q 2172 0 1784 0 
Q 1141 0 747 490 
Q 353 981 353 1791 
Q 353 2603 747 3093 
Q 1141 3584 1784 3584 
Q 2172 3584 2450 3431 
Q 2728 3278 2906 2969 
L 2906 3500 
L 3481 3500 
L 3481 434 
z
" transform="scale(0.015625)"/>
       <path id="DejaVuSans-25" d="M 4653 2053 
Q 4381 2053 4226 1822 
Q 4072 1591 4072 1178 
Q 4072 772 4226 539 
Q 4381 306 4653 306 
Q 4919 306 5073 539 
Q 5228 772 5228 1178 
Q 5228 1588 5073 1820 
Q 4919 2053 4653 2053 
z
M 4653 2450 
Q 5147 2450 5437 2106 
Q 5728 1763 5728 1178 
Q 5728 594 5436 251 
Q 5144 -91 4653 -91 
Q 4153 -91 3862 251 
Q 3572 594 3572 1178 
Q 3572 1766 3864 2108 
Q 4156 2450 4653 2450 
z
M 1428 4353 
Q 1159 4353 1004 4120 
Q 850 3888 850 3481 
Q 850 3069 1003 2837 
Q 1156 2606 1428 2606 
Q 1700 2606 1854 2837 
Q 2009 3069 2009 3481 
Q 2009 3884 1853 4118 
Q 1697 4353 1428 4353 
z
M 4250 4750 
L 4750 4750 
L 1831 -91 
L 1331 -91 
L 4250 4750 
z
M 1428 4750 
Q 1922 4750 2215 4408 
Q 2509 4066 2509 3481 
Q 2509 2891 2217 2550 
Q 1925 2209 1428 2209 
Q 931 2209 642 2551 
Q 353 2894 353 3481 
Q 353 4063 643 4406 
Q 934 4750 1428 4750 
z
" transform="scale(0.015625)"/>
      </defs>
      <use xlink:href="#DejaVuSans-28"/>
      <use xlink:href="#DejaVuSans-52" transform="translate(39.013672 0)"/>
      <use xlink:href="#DejaVuSans-65" transform="translate(103.996094 0)"/>
      <use xlink:href="#DejaVuSans-6c" transform="translate(165.519531 0)"/>
      <use xlink:href="#DejaVuSans-2e" transform="translate(193.302734 0)"/>
      <use xlink:href="#DejaVuSans-29" transform="translate(225.089844 0)"/>
      <use xlink:href="#DejaVuSans-20" transform="translate(264.103516 0)"/>
      <use xlink:href="#DejaVuSans-42" transform="translate(295.890625 0)"/>
      <use xlink:href="#DejaVuSans-75" transform="translate(364.494141 0)"/>
      <use xlink:href="#DejaVuSans-69" transform="translate(427.873047 0)"/>
      <use xlink:href="#DejaVuSans-74" transform="translate(455.65625 0)"/>
      <use xlink:href="#DejaVuSans-65" transform="translate(494.865234 0)"/>
      <use xlink:href="#DejaVuSans-6e" transform="translate(556.388672 0)"/>
      <use xlink:href="#DejaVuSans-20" transform="translate(619.767578 0)"/>
      <use xlink:href="#DejaVuSans-56" transform="translate(651.554688 0)"/>
      <use xlink:href="#DejaVuSans-6f" transform="translate(712.212891 0)"/>
      <use xlink:href="#DejaVuSans-63" transform="translate(773.394531 0)"/>
      <use xlink:href="#DejaVuSans-68" transform="translate(828.375 0)"/>
      <use xlink:href="#DejaVuSans-74" transform="translate(891.753906 0)"/>
      <use xlink:href="#DejaVuSans-69" transform="translate(930.962891 0)"/>
      <use xlink:href="#DejaVuSans-67" transform="translate(958.746094 0)"/>
      <use xlink:href="#DejaVuSans-68" transform="translate(1022.222656 0)"/>
      <use xlink:href="#DejaVuSans-65" transform="translate(1085.601562 0)"/>
      <use xlink:href="#DejaVuSans-69" transform="translate(1147.125 0)"/>
      <use xlink:href="#DejaVuSans-64" transform="translate(1174.908203 0)"/>
      <use xlink:href="#DejaVuSans-20" transform="translate(1238.384766 0)"/>
      <use xlink:href="#DejaVuSans-28" transform="translate(1270.171875 0)"/>
      <use xlink:href="#DejaVuSans-25" transform="translate(1309.185547 0)"/>
      <use xlink:href="#DejaVuSans-29" transform="translate(1404.205078 0)"/>
     </g>
    </g>
   </g>
   <g id="line2d_14">
    <path d="M 80.794091 83.594326 
L 84.356483 82.336489 
L 87.918874 81.91721 
L 91.481266 82.096901 
L 98.60605 81.977107 
L 102.168442 82.156798 
L 105.730833 91.979907 
L 109.293225 106.774468 
L 112.855617 119.053355 
L 116.418009 128.1577 
L 119.9804 127.55873 
L 123.542792 135.16565 
L 127.105184 131.452036 
L 130.667576 132.230697 
L 134.229968 141.394939 
L 137.792359 135.76462 
L 141.354751 144.749171 
L 144.917143 144.749171 
L 148.479535 148.882065 
L 152.041926 152.356091 
L 155.604318 155.350942 
L 159.16671 153.913414 
L 162.729102 153.613929 
L 166.291494 157.267646 
L 169.853885 152.655577 
L 173.416277 152.715474 
L 176.978669 150.619078 
L 184.103452 150.319593 
L 187.665844 144.809068 
L 191.228236 138.639677 
L 194.790628 128.217597 
L 198.353019 121.509132 
L 201.915411 118.693973 
L 205.477803 112.704272 
L 209.040195 112.94386 
L 212.602587 105.93591 
L 216.164978 102.881163 
L 223.289762 98.92796 
L 226.852154 96.112801 
L 230.414545 94.974758 
L 237.539329 91.740319 
L 241.101721 92.578877 
L 244.664113 90.961658 
L 248.226504 89.613976 
L 251.788896 88.445984 
L 255.351288 87.547529 
L 258.91368 87.12825 
L 262.476071 87.906911 
L 266.038463 89.104851 
L 269.600855 92.578877 
L 273.163247 98.808166 
L 276.725639 104.797867 
L 280.28803 113.962109 
L 283.850422 121.808617 
L 287.412814 125.342541 
L 290.975206 132.410388 
L 294.537597 133.608328 
L 298.099989 144.269995 
L 301.662381 144.629377 
L 305.224773 152.356091 
L 308.787165 162.059407 
L 312.349556 170.085606 
L 315.911948 182.00511 
L 319.47434 182.783772 
L 323.036732 185.179652 
L 326.599123 186.01821 
L 330.161515 185.41924 
L 333.723907 182.364493 
L 337.286299 179.01026 
L 340.84869 179.130054 
L 344.411082 177.452938 
L 347.973474 172.780971 
L 355.098258 167.629829 
L 358.660649 161.759922 
L 362.223041 150.199799 
L 365.785433 147.264846 
L 369.347825 139.957411 
L 372.910216 137.501633 
L 376.472608 129.35564 
L 380.035 131.092654 
L 383.597392 128.876464 
L 387.159784 125.16285 
L 390.722175 124.474034 
L 394.284567 123.36594 
L 397.846959 119.35284 
L 401.409351 117.316342 
L 404.971742 119.113252 
L 408.534134 118.095003 
L 412.096526 113.962109 
L 415.658918 114.680873 
L 419.22131 115.040255 
L 422.783701 111.74592 
L 426.346093 107.193747 
L 429.908485 107.613026 
L 433.470877 112.404787 
L 437.033268 110.667774 
L 440.59566 112.584478 
L 444.158052 108.930761 
L 447.720444 119.113252 
L 451.282835 118.574179 
L 454.845227 131.152551 
L 458.407619 132.470285 
L 461.970011 142.083755 
L 465.532403 147.803919 
L 469.094794 151.697224 
L 472.657186 153.314444 
L 476.219578 153.314444 
L 479.78197 157.267646 
L 483.344361 152.535783 
L 486.906753 160.142703 
L 490.469145 163.856317 
L 494.031537 160.741673 
L 497.593929 168.40849 
L 501.15632 169.546533 
L 504.718712 161.700025 
L 508.281104 164.455287 
L 511.843496 157.806719 
L 515.405887 161.40054 
L 518.968279 169.666327 
L 522.530671 169.726224 
L 526.093063 168.887666 
L 529.655455 161.99951 
L 533.217846 154.153002 
L 536.780238 153.554032 
L 540.34263 142.712673 
L 543.905022 136.782869 
L 547.467413 131.272345 
L 551.029805 129.655125 
L 554.592197 127.618627 
L 558.154589 128.1577 
L 561.716981 124.623777 
L 565.279372 120.16145 
L 568.841764 122.467484 
L 572.404156 120.371089 
L 575.966548 122.826866 
L 579.528939 120.970059 
L 583.091331 116.35799 
L 586.653723 118.993458 
L 590.216115 127.259245 
L 593.778506 116.837166 
L 597.340898 107.852614 
L 600.90329 107.373438 
L 604.465682 103.120751 
L 608.028074 103.54003 
L 611.590465 102.461884 
L 615.152857 104.079103 
L 618.715249 118.274694 
L 618.715249 118.274694 
" clip-path="url(#p31254ee900)" style="fill: none; stroke: #1f77b4; stroke-width: 2; stroke-linecap: square"/>
   </g>
   <g id="line2d_15">
    <path d="M 80.794091 92.219495 
L 84.356483 97.13105 
L 87.918874 96.378059 
L 95.043658 95.163005 
L 98.60605 94.431406 
L 102.168442 94.226045 
L 105.730833 95.980172 
L 109.293225 98.649867 
L 112.855617 99.576845 
L 116.418009 106.295292 
L 119.9804 109.474112 
L 123.542792 113.555665 
L 127.105184 116.184288 
L 130.667576 119.370809 
L 134.229968 128.412263 
L 137.792359 131.022774 
L 141.354751 142.532982 
L 144.917143 135.964277 
L 148.479535 139.667909 
L 152.041926 140.927742 
L 155.604318 154.247839 
L 159.16671 157.31043 
L 162.729102 158.670234 
L 166.291494 161.210866 
L 169.853885 156.139586 
L 173.416277 161.439045 
L 176.978669 161.567396 
L 180.541061 165.12485 
L 184.103452 164.403947 
L 187.665844 163.411368 
L 191.228236 159.466722 
L 194.790628 158.4827 
L 198.353019 153.211763 
L 201.915411 148.60825 
L 205.477803 143.594015 
L 209.040195 141.54896 
L 212.602587 135.576373 
L 216.164978 132.016779 
L 219.72737 127.122338 
L 223.289762 120.311192 
L 226.852154 117.156616 
L 230.414545 118.304642 
L 233.976937 115.643504 
L 237.539329 115.566493 
L 241.101721 115.138658 
L 244.664113 114.107573 
L 248.226504 112.794118 
L 251.788896 112.289271 
L 258.91368 110.924475 
L 262.476071 110.038855 
L 266.038463 106.809408 
L 269.600855 108.926482 
L 273.163247 109.542566 
L 276.725639 110.376846 
L 280.28803 112.113859 
L 283.850422 114.535409 
L 287.412814 115.938711 
L 290.975206 119.968924 
L 294.537597 123.015114 
L 298.099989 132.575105 
L 301.662381 132.808275 
L 305.224773 137.779727 
L 308.787165 143.024993 
L 312.349556 150.631913 
L 315.911948 153.613929 
L 319.47434 158.465586 
L 323.036732 161.836932 
L 326.599123 167.839468 
L 330.161515 172.806641 
L 333.723907 175.463502 
L 337.286299 175.981183 
L 340.84869 174.689119 
L 344.411082 174.838861 
L 347.973474 179.425261 
L 351.535866 179.942942 
L 355.098258 179.232735 
L 358.660649 176.417575 
L 362.223041 175.125511 
L 365.785433 174.954377 
L 369.347825 172.892209 
L 372.910216 171.557361 
L 376.472608 167.587045 
L 380.035 165.396526 
L 383.597392 163.864874 
L 387.159784 150.559181 
L 390.722175 146.120813 
L 394.284567 149.880348 
L 397.846959 147.397475 
L 401.409351 143.478499 
L 404.971742 142.152208 
L 412.096526 135.649105 
L 415.658918 134.287161 
L 419.22131 131.554716 
L 422.783701 128.632598 
L 426.346093 125.415273 
L 429.908485 123.485734 
L 433.470877 122.052484 
L 437.033268 120.426708 
L 440.59566 119.630933 
L 444.158052 117.735621 
L 447.720444 118.46722 
L 451.282835 118.44155 
L 454.845227 121.372225 
L 458.407619 123.002279 
L 461.970011 125.244139 
L 465.532403 129.359919 
L 469.094794 135.097196 
L 472.657186 140.37669 
L 476.219578 144.252882 
L 479.78197 146.901185 
L 483.344361 145.724637 
L 486.906753 152.946505 
L 490.469145 158.294452 
L 494.031537 160.168373 
L 497.593929 165.482093 
L 504.718712 170.949121 
L 508.281104 172.800937 
L 511.843496 169.386807 
L 515.405887 175.691966 
L 518.968279 180.525654 
L 522.530671 179.299762 
L 526.093063 180.078423 
L 529.655455 175.196817 
L 533.217846 173.120388 
L 536.780238 172.231915 
L 543.905022 165.633262 
L 547.467413 161.610179 
L 551.029805 158.335809 
L 558.154589 152.625628 
L 561.716981 152.457916 
L 565.279372 144.275985 
L 568.841764 140.691149 
L 572.404156 140.448566 
L 575.966548 137.885973 
L 579.528939 139.10887 
L 583.091331 139.827634 
L 586.653723 139.687874 
L 590.216115 140.920754 
L 593.778506 138.534857 
L 597.340898 132.889564 
L 600.90329 131.132585 
L 604.465682 121.940391 
L 608.028074 126.280927 
L 611.590465 124.95321 
L 615.152857 118.733904 
L 618.715249 117.905329 
L 622.277641 108.256919 
L 625.840032 118.948535 
L 629.402424 116.477784 
L 632.964816 122.108102 
L 636.527208 113.213397 
L 640.0896 97.700072 
L 643.651991 115.474509 
L 647.214383 114.306517 
L 650.776775 136.96256 
L 654.339167 109.919061 
L 657.901558 105.696322 
L 661.46395 100.904562 
L 665.026342 99.317291 
L 668.588734 99.047754 
L 672.151126 98.598527 
L 675.713517 101.443635 
L 679.275909 109.589628 
L 679.275909 109.589628 
" clip-path="url(#p31254ee900)" style="fill: none; stroke-dasharray: 5.55,2.4; stroke-dashoffset: 0; stroke: #808080; stroke-width: 1.5"/>
   </g>
   <g id="patch_3">
    <path d="M 50.87 246.04 
L 50.87 26.88 
" style="fill: none; stroke: #000000; stroke-width: 0.8; stroke-linejoin: miter; stroke-linecap: square"/>
   </g>
   <g id="patch_4">
    <path d="M 709.2 246.04 
L 709.2 26.88 
" style="fill: none; stroke: #000000; stroke-width: 0.8; stroke-linejoin: miter; stroke-linecap: square"/>
   </g>
   <g id="patch_5">
    <path d="M 50.87 246.04 
L 709.2 246.04 
" style="fill: none; stroke: #000000; stroke-width: 0.8; stroke-linejoin: miter; stroke-linecap: square"/>
   </g>
   <g id="patch_6">
    <path d="M 50.87 26.88 
L 709.2 26.88 
" style="fill: none; stroke: #000000; stroke-width: 0.8; stroke-linejoin: miter; stroke-linecap: square"/>
   </g>
   <g id="text_16">
    <!-- Luchtvochtigheid - v001/c00001/d031 -->
    <g transform="translate(265.745313 20.88) scale(0.12 -0.12)">
     <defs>
      <path id="DejaVuSans-4c" d="M 628 4666 
L 1259 4666 
L 1259 531 
L 3531 531 
L 3531 0 
L 628 0 
L 628 4666 
z
" transform="scale(0.015625)"/>
      <path id="DejaVuSans-76" d="M 191 3500 
L 800 3500 
L 1894 563 
L 2988 3500 
L 3597 3500 
L 2284 0 
L 1503 0 
L 191 3500 
z
" transform="scale(0.015625)"/>
      <path id="DejaVuSans-2f" d="M 1625 4666 
L 2156 4666 
L 531 -594 
L 0 -594 
L 1625 4666 
z
" transform="scale(0.015625)"/>
     </defs>
     <use xlink:href="#DejaVuSans-4c"/>
     <use xlink:href="#DejaVuSans-75" transform="translate(53.962891 0)"/>
     <use xlink:href="#DejaVuSans-63" transform="translate(117.341797 0)"/>
     <use xlink:href="#DejaVuSans-68" transform="translate(172.322266 0)"/>
     <use xlink:href="#DejaVuSans-74" transform="translate(235.701172 0)"/>
     <use xlink:href="#DejaVuSans-76" transform="translate(274.910156 0)"/>
     <use xlink:href="#DejaVuSans-6f" transform="translate(334.089844 0)"/>
     <use xlink:href="#DejaVuSans-63" transform="translate(395.271484 0)"/>
     <use xlink:href="#DejaVuSans-68" transform="translate(450.251953 0)"/>
     <use xlink:href="#DejaVuSans-74" transform="translate(513.630859 0)"/>
     <use xlink:href="#DejaVuSans-69" transform="translate(552.839844 0)"/>
     <use xlink:href="#DejaVuSans-67" transform="translate(580.623047 0)"/>
     <use xlink:href="#DejaVuSans-68" transform="translate(644.099609 0)"/>
     <use xlink:href="#DejaVuSans-65" transform="translate(707.478516 0)"/>
     <use xlink:href="#DejaVuSans-69" transform="translate(769.001953 0)"/>
     <use xlink:href="#DejaVuSans-64" transform="translate(796.785156 0)"/>
     <use xlink:href="#DejaVuSans-20" transform="translate(860.261719 0)"/>
     <use xlink:href="#DejaVuSans-2d" transform="translate(892.048828 0)"/>
     <use xlink:href="#DejaVuSans-20" transform="translate(928.132812 0)"/>
     <use xlink:href="#DejaVuSans-76" transform="translate(959.919922 0)"/>
     <use xlink:href="#DejaVuSans-30" transform="translate(1019.099609 0)"/>
     <use xlink:href="#DejaVuSans-30" transform="translate(1082.722656 0)"/>
     <use xlink:href="#DejaVuSans-31" transform="translate(1146.345703 0)"/>
     <use xlink:href="#DejaVuSans-2f" transform="translate(1209.96875 0)"/>
     <use xlink:href="#DejaVuSans-63" transform="translate(1243.660156 0)"/>
     <use xlink:href="#DejaVuSans-30" transform="translate(1298.640625 0)"/>
     <use xlink:href="#DejaVuSans-30" transform="translate(1362.263672 0)"/>
     <use xlink:href="#DejaVuSans-30" transform="translate(1425.886719 0)"/>
     <use xlink:href="#DejaVuSans-30" transform="translate(1489.509766 0)"/>
     <use xlink:href="#DejaVuSans-31" transform="translate(1553.132812 0)"/>
     <use xlink:href="#DejaVuSans-2f" transform="translate(1616.755859 0)"/>
     <use xlink:href="#DejaVuSans-64" transform="translate(1650.447266 0)"/>
     <use xlink:href="#DejaVuSans-30" transform="translate(1713.923828 0)"/>
     <use xlink:href="#DejaVuSans-33" transform="translate(1777.546875 0)"/>
     <use xlink:href="#DejaVuSans-31" transform="translate(1841.169922 0)"/>
    </g>
   </g>
   <g id="legend_1">
    <g id="patch_7">
     <path d="M 304.563125 78.914375 
L 455.506875 78.914375 
Q 457.506875 78.914375 457.506875 76.914375 
L 457.506875 33.88 
Q 457.506875 31.88 455.506875 31.88 
L 304.563125 31.88 
Q 302.563125 31.88 302.563125 33.88 
L 302.563125 76.914375 
Q 302.563125 78.914375 304.563125 78.914375 
z
" style="fill: #ffffff; opacity: 0.8; stroke: #cccccc; stroke-linejoin: miter"/>
    </g>
    <g id="line2d_16">
     <path d="M 306.563125 39.978438 
L 316.563125 39.978438 
L 326.563125 39.978438 
" style="fill: none; stroke: #1f77b4; stroke-width: 2; stroke-linecap: square"/>
    </g>
    <g id="text_17">
     <!-- Hive -->
     <g transform="translate(334.563125 43.478438) scale(0.1 -0.1)">
      <defs>
       <path id="DejaVuSans-48" d="M 628 4666 
L 1259 4666 
L 1259 2753 
L 3553 2753 
L 3553 4666 
L 4184 4666 
L 4184 0 
L 3553 0 
L 3553 2222 
L 1259 2222 
L 1259 0 
L 628 0 
L 628 4666 
z
" transform="scale(0.015625)"/>
      </defs>
      <use xlink:href="#DejaVuSans-48"/>
      <use xlink:href="#DejaVuSans-69" transform="translate(75.195312 0)"/>
      <use xlink:href="#DejaVuSans-76" transform="translate(102.978516 0)"/>
      <use xlink:href="#DejaVuSans-65" transform="translate(162.158203 0)"/>
     </g>
    </g>
    <g id="line2d_17">
     <path d="M 306.563125 54.656563 
L 316.563125 54.656563 
L 326.563125 54.656563 
" style="fill: none; stroke-dasharray: 5.55,2.4; stroke-dashoffset: 0; stroke: #808080; stroke-width: 1.5"/>
    </g>
    <g id="text_18">
     <!-- Gemiddelde (alle hives) -->
     <g transform="translate(334.563125 58.156563) scale(0.1 -0.1)">
      <defs>
       <path id="DejaVuSans-47" d="M 3809 666 
L 3809 1919 
L 2778 1919 
L 2778 2438 
L 4434 2438 
L 4434 434 
Q 4069 175 3628 42 
Q 3188 -91 2688 -91 
Q 1594 -91 976 548 
Q 359 1188 359 2328 
Q 359 3472 976 4111 
Q 1594 4750 2688 4750 
Q 3144 4750 3555 4637 
Q 3966 4525 4313 4306 
L 4313 3634 
Q 3963 3931 3569 4081 
Q 3175 4231 2741 4231 
Q 1884 4231 1454 3753 
Q 1025 3275 1025 2328 
Q 1025 1384 1454 906 
Q 1884 428 2741 428 
Q 3075 428 3337 486 
Q 3600 544 3809 666 
z
" transform="scale(0.015625)"/>
       <path id="DejaVuSans-6d" d="M 3328 2828 
Q 3544 3216 3844 3400 
Q 4144 3584 4550 3584 
Q 5097 3584 5394 3201 
Q 5691 2819 5691 2113 
L 5691 0 
L 5113 0 
L 5113 2094 
Q 5113 2597 4934 2840 
Q 4756 3084 4391 3084 
Q 3944 3084 3684 2787 
Q 3425 2491 3425 1978 
L 3425 0 
L 2847 0 
L 2847 2094 
Q 2847 2600 2669 2842 
Q 2491 3084 2119 3084 
Q 1678 3084 1418 2786 
Q 1159 2488 1159 1978 
L 1159 0 
L 581 0 
L 581 3500 
L 1159 3500 
L 1159 2956 
Q 1356 3278 1631 3431 
Q 1906 3584 2284 3584 
Q 2666 3584 2933 3390 
Q 3200 3197 3328 2828 
z
" transform="scale(0.015625)"/>
       <path id="DejaVuSans-61" d="M 2194 1759 
Q 1497 1759 1228 1600 
Q 959 1441 959 1056 
Q 959 750 1161 570 
Q 1363 391 1709 391 
Q 2188 391 2477 730 
Q 2766 1069 2766 1631 
L 2766 1759 
L 2194 1759 
z
M 3341 1997 
L 3341 0 
L 2766 0 
L 2766 531 
Q 2569 213 2275 61 
Q 1981 -91 1556 -91 
Q 1019 -91 701 211 
Q 384 513 384 1019 
Q 384 1609 779 1909 
Q 1175 2209 1959 2209 
L 2766 2209 
L 2766 2266 
Q 2766 2663 2505 2880 
Q 2244 3097 1772 3097 
Q 1472 3097 1187 3025 
Q 903 2953 641 2809 
L 641 3341 
Q 956 3463 1253 3523 
Q 1550 3584 1831 3584 
Q 2591 3584 2966 3190 
Q 3341 2797 3341 1997 
z
" transform="scale(0.015625)"/>
       <path id="DejaVuSans-73" d="M 2834 3397 
L 2834 2853 
Q 2591 2978 2328 3040 
Q 2066 3103 1784 3103 
Q 1356 3103 1142 2972 
Q 928 2841 928 2578 
Q 928 2378 1081 2264 
Q 1234 2150 1697 2047 
L 1894 2003 
Q 2506 1872 2764 1633 
Q 3022 1394 3022 966 
Q 3022 478 2636 193 
Q 2250 -91 1575 -91 
Q 1294 -91 989 -36 
Q 684 19 347 128 
L 347 722 
Q 666 556 975 473 
Q 1284 391 1588 391 
Q 1994 391 2212 530 
Q 2431 669 2431 922 
Q 2431 1156 2273 1281 
Q 2116 1406 1581 1522 
L 1381 1569 
Q 847 1681 609 1914 
Q 372 2147 372 2553 
Q 372 3047 722 3315 
Q 1072 3584 1716 3584 
Q 2034 3584 2315 3537 
Q 2597 3491 2834 3397 
z
" transform="scale(0.015625)"/>
      </defs>
      <use xlink:href="#DejaVuSans-47"/>
      <use xlink:href="#DejaVuSans-65" transform="translate(77.490234 0)"/>
      <use xlink:href="#DejaVuSans-6d" transform="translate(139.013672 0)"/>
      <use xlink:href="#DejaVuSans-69" transform="translate(236.425781 0)"/>
      <use xlink:href="#DejaVuSans-64" transform="translate(264.208984 0)"/>
      <use xlink:href="#DejaVuSans-64" transform="translate(327.685547 0)"/>
      <use xlink:href="#DejaVuSans-65" transform="translate(391.162109 0)"/>
      <use xlink:href="#DejaVuSans-6c" transform="translate(452.685547 0)"/>
      <use xlink:href="#DejaVuSans-64" transform="translate(480.46875 0)"/>
      <use xlink:href="#DejaVuSans-65" transform="translate(543.945312 0)"/>
      <use xlink:href="#DejaVuSans-20" transform="translate(605.46875 0)"/>
      <use xlink:href="#DejaVuSans-28" transform="translate(637.255859 0)"/>
      <use xlink:href="#DejaVuSans-61" transform="translate(676.269531 0)"/>
      <use xlink:href="#DejaVuSans-6c" transform="translate(737.548828 0)"/>
      <use xlink:href="#DejaVuSans-6c" transform="translate(765.332031 0)"/>
      <use xlink:href="#DejaVuSans-65" transform="translate(793.115234 0)"/>
      <use xlink:href="#DejaVuSans-20" transform="translate(854.638672 0)"/>
      <use xlink:href="#DejaVuSans-68" transform="translate(886.425781 0)"/>
      <use xlink:href="#DejaVuSans-69" transform="translate(949.804688 0)"/>
      <use xlink:href="#DejaVuSans-76" transform="translate(977.587891 0)"/>
      <use xlink:href="#DejaVuSans-65" transform="translate(1036.767578 0)"/>
      <use xlink:href="#DejaVuSans-73" transform="translate(1098.291016 0)"/>
      <use xlink:href="#DejaVuSans-29" transform="translate(1150.390625 0)"/>
     </g>
    </g>
    <g id="patch_8">
     <path d="M 306.563125 72.834688 
L 326.563125 72.834688 
L 326.563125 65.834688 
L 306.563125 65.834688 
z
" style="fill: #808080; fill-opacity: 0.2; stroke: #808080; stroke-opacity: 0.2; stroke-linejoin: miter"/>
    </g>
    <g id="text_19">
     <!-- 2 Std Dev -->
     <g transform="translate(334.563125 72.834688) scale(0.1 -0.1)">
      <defs>
       <path id="DejaVuSans-b1" d="M 2944 4013 
L 2944 2803 
L 4684 2803 
L 4684 2272 
L 2944 2272 
L 2944 1063 
L 2419 1063 
L 2419 2272 
L 678 2272 
L 678 2803 
L 2419 2803 
L 2419 4013 
L 2944 4013 
z
M 678 531 
L 4684 531 
L 4684 0 
L 678 0 
L 678 531 
z
" transform="scale(0.015625)"/>
       <path id="DejaVuSans-53" d="M 3425 4513 
L 3425 3897 
Q 3066 4069 2747 4153 
Q 2428 4238 2131 4238 
Q 1616 4238 1336 4038 
Q 1056 3838 1056 3469 
Q 1056 3159 1242 3001 
Q 1428 2844 1947 2747 
L 2328 2669 
Q 3034 2534 3370 2195 
Q 3706 1856 3706 1288 
Q 3706 609 3251 259 
Q 2797 -91 1919 -91 
Q 1588 -91 1214 -16 
Q 841 59 441 206 
L 441 856 
Q 825 641 1194 531 
Q 1563 422 1919 422 
Q 2459 422 2753 634 
Q 3047 847 3047 1241 
Q 3047 1584 2836 1778 
Q 2625 1972 2144 2069 
L 1759 2144 
Q 1053 2284 737 2584 
Q 422 2884 422 3419 
Q 422 4038 858 4394 
Q 1294 4750 2059 4750 
Q 2388 4750 2728 4690 
Q 3069 4631 3425 4513 
z
" transform="scale(0.015625)"/>
       <path id="DejaVuSans-44" d="M 1259 4147 
L 1259 519 
L 2022 519 
Q 2988 519 3436 956 
Q 3884 1394 3884 2338 
Q 3884 3275 3436 3711 
Q 2988 4147 2022 4147 
L 1259 4147 
z
M 628 4666 
L 1925 4666 
Q 3281 4666 3915 4102 
Q 4550 3538 4550 2338 
Q 4550 1131 3912 565 
Q 3275 0 1925 0 
L 628 0 
L 628 4666 
z
" transform="scale(0.015625)"/>
      </defs>
      <use xlink:href="#DejaVuSans-b1"/>
      <use xlink:href="#DejaVuSans-32" transform="translate(83.789062 0)"/>
      <use xlink:href="#DejaVuSans-20" transform="translate(147.412109 0)"/>
      <use xlink:href="#DejaVuSans-53" transform="translate(179.199219 0)"/>
      <use xlink:href="#DejaVuSans-74" transform="translate(242.675781 0)"/>
      <use xlink:href="#DejaVuSans-64" transform="translate(281.884766 0)"/>
      <use xlink:href="#DejaVuSans-20" transform="translate(345.361328 0)"/>
      <use xlink:href="#DejaVuSans-44" transform="translate(377.148438 0)"/>
      <use xlink:href="#DejaVuSans-65" transform="translate(454.150391 0)"/>
      <use xlink:href="#DejaVuSans-76" transform="translate(515.673828 0)"/>
     </g>
    </g>
   </g>
  </g>
 </g>
 <defs>
  <clipPath id="p31254ee900">
   <rect x="50.87" y="26.88" width="658.33" height="219.16"/>
  </clipPath>
 </defs>
</svg>
