<?xml version="1.0" encoding="utf-8" standalone="no"?>
<!DOCTYPE svg PUBLIC "-//W3C//DTD SVG 1.1//EN"
  "http://www.w3.org/Graphics/SVG/1.1/DTD/svg11.dtd">
<svg xmlns:xlink="http://www.w3.org/1999/xlink" width="720pt" height="288pt" viewBox="0 0 720 288" xmlns="http://www.w3.org/2000/svg" version="1.1">
 <metadata>
  <rdf:RDF xmlns:dc="http://purl.org/dc/elements/1.1/" xmlns:cc="http://creativecommons.org/ns#" xmlns:rdf="http://www.w3.org/1999/02/22-rdf-syntax-ns#">
   <cc:Work>
    <dc:type rdf:resource="http://purl.org/dc/dcmitype/StillImage"/>
    <dc:date>2025-06-14T12:30:47.042816</dc:date>
    <dc:format>image/svg+xml</dc:format>
    <dc:creator>
     <cc:Agent>
      <dc:title>Matplotlib v3.10.3, https://matplotlib.org/</dc:title>
     </cc:Agent>
    </dc:creator>
   </cc:Work>
  </rdf:RDF>
 </metadata>
 <defs>
  <style type="text/css">*{stroke-linejoin: round; stroke-linecap: butt}</style>
 </defs>
 <g id="figure_1">
  <g id="patch_1">
   <path d="M 0 288 
L 720 288 
L 720 0 
L 0 0 
z
" style="fill: #ffffff"/>
  </g>
  <g id="axes_1">
   <g id="patch_2">
    <path d="M 44.57 246.04 
L 709.2 246.04 
L 709.2 26.88 
L 44.57 26.88 
z
" style="fill: #ffffff"/>
   </g>
   <g id="FillBetweenPolyCollection_1">
    <defs>
     <path id="m24bbd34ebc" d="M 74.780455 -211.782938 
L 74.780455 -51.921818 
L 78.604563 -53.451104 
L 82.428671 -62.579488 
L 86.252779 -59.956758 
L 90.076887 -109.213535 
L 93.900995 -57.867255 
L 97.725104 -67.82986 
L 101.549212 -54.570124 
L 105.37332 -100.168233 
L 109.197428 -73.437683 
L 113.021536 -85.15955 
L 116.845644 -93.31375 
L 120.669753 -104.472274 
L 124.493861 -108.017493 
L 128.317969 -111.074292 
L 132.142077 -111.823152 
L 135.966185 -115.355074 
L 139.790293 -113.808472 
L 143.614402 -111.773015 
L 147.43851 -110.540632 
L 151.262618 -110.521946 
L 155.086726 -109.146001 
L 158.910834 -109.670707 
L 162.734942 -107.914017 
L 166.559051 -100.771783 
L 170.383159 -98.23564 
L 174.207267 -96.965503 
L 178.031375 -89.823842 
L 181.855483 -95.503553 
L 185.679591 -98.842885 
L 189.5037 -95.507617 
L 193.327808 -93.634781 
L 197.151916 -94.845267 
L 200.976024 -91.782635 
L 204.800132 -92.502181 
L 208.624241 -92.654065 
L 212.448349 -88.673555 
L 216.272457 -81.882011 
L 220.096565 -80.951472 
L 223.920673 -70.535283 
L 227.744781 -72.698119 
L 231.56889 -74.04225 
L 235.392998 -76.797286 
L 239.217106 -74.304844 
L 243.041214 -72.668421 
L 246.865322 -66.828791 
L 250.68943 -66.032417 
L 254.513539 -67.382668 
L 258.337647 -80.232744 
L 262.161755 -67.011177 
L 265.985863 -70.298232 
L 269.809971 -70.373729 
L 273.634079 -69.285322 
L 277.458188 -72.599562 
L 281.282296 -78.626206 
L 285.106404 -78.544876 
L 288.930512 -79.96006 
L 292.75462 -79.871563 
L 296.578728 -84.276213 
L 300.402837 -87.318661 
L 304.226945 -89.286175 
L 308.051053 -91.945074 
L 311.875161 -97.376129 
L 315.699269 -107.530021 
L 319.523377 -116.555042 
L 323.347486 -122.929985 
L 327.171594 -121.633926 
L 330.995702 -123.226734 
L 334.81981 -123.593043 
L 338.643918 -121.864969 
L 342.468026 -120.191343 
L 346.292135 -122.287811 
L 350.116243 -119.855719 
L 353.940351 -111.589597 
L 357.764459 -107.960693 
L 361.588567 -108.681617 
L 365.412675 -110.803525 
L 369.236784 -105.226864 
L 373.060892 -104.794665 
L 376.885 -107.414921 
L 380.709108 -107.963188 
L 384.533216 -105.36041 
L 388.357325 -104.837147 
L 392.181433 -104.134465 
L 396.005541 -103.029612 
L 399.829649 -96.006769 
L 403.653757 -94.894729 
L 407.477865 -96.355908 
L 411.301974 -94.563875 
L 415.126082 -94.841739 
L 418.95019 -96.648843 
L 422.774298 -98.021488 
L 426.598406 -97.559378 
L 430.422514 -93.936103 
L 434.246623 -97.913776 
L 438.070731 -100.414837 
L 441.894839 -100.310043 
L 445.718947 -103.932584 
L 449.543055 -105.518033 
L 453.367163 -106.460256 
L 457.191272 -105.154471 
L 461.01538 -100.545907 
L 464.839488 -92.986502 
L 468.663596 -93.834393 
L 472.487704 -96.824715 
L 476.311812 -98.827199 
L 480.135921 -94.244661 
L 483.960029 -99.1709 
L 487.784137 -111.855642 
L 491.608245 -126.970743 
L 495.432353 -122.296461 
L 499.256461 -118.226037 
L 503.08057 -121.435599 
L 506.904678 -127.272073 
L 510.728786 -124.781647 
L 514.552894 -126.484963 
L 518.377002 -129.760678 
L 522.20111 -135.720535 
L 526.025219 -136.194045 
L 529.849327 -135.705633 
L 533.673435 -133.562456 
L 537.497543 -126.490676 
L 541.321651 -129.088629 
L 545.145759 -129.878554 
L 548.969868 -134.771169 
L 552.793976 -129.780167 
L 556.618084 -128.636711 
L 560.442192 -127.106738 
L 564.2663 -125.011657 
L 568.090409 -121.181069 
L 571.914517 -121.557248 
L 575.738625 -116.657608 
L 579.562733 -117.055838 
L 583.386841 -112.173012 
L 587.210949 -106.335986 
L 591.035058 -108.101858 
L 594.859166 -106.876613 
L 598.683274 -105.30097 
L 602.507382 -102.478778 
L 606.33149 -99.875935 
L 610.155598 -93.57012 
L 613.979707 -98.677131 
L 617.803815 -97.976352 
L 621.627923 -99.402507 
L 625.452031 -103.156934 
L 629.276139 -99.650645 
L 633.100247 -97.648716 
L 636.924356 -96.750051 
L 640.748464 -95.420521 
L 644.572572 -98.654156 
L 648.39668 -100.437946 
L 652.220788 -108.779358 
L 656.044896 -116.322614 
L 659.869005 -116.801718 
L 663.693113 -107.144677 
L 667.517221 -92.955809 
L 671.341329 -96.202 
L 675.165437 -134.385242 
L 678.989545 -141.636022 
L 678.989545 -160.409369 
L 678.989545 -160.409369 
L 675.165437 -158.680163 
L 671.341329 -218.988008 
L 667.517221 -220.151884 
L 663.693113 -219.30285 
L 659.869005 -212.652151 
L 656.044896 -209.226913 
L 652.220788 -228.795542 
L 648.39668 -230.629718 
L 644.572572 -230.591482 
L 640.748464 -221.227108 
L 636.924356 -229.502258 
L 633.100247 -226.911712 
L 629.276139 -223.608336 
L 625.452031 -228.951888 
L 621.627923 -218.130105 
L 617.803815 -205.552689 
L 613.979707 -217.293745 
L 610.155598 -204.649016 
L 606.33149 -219.58282 
L 602.507382 -209.717901 
L 598.683274 -208.717735 
L 594.859166 -208.44354 
L 591.035058 -208.649887 
L 587.210949 -216.402416 
L 583.386841 -210.3051 
L 579.562733 -210.628063 
L 575.738625 -211.677016 
L 571.914517 -210.551574 
L 568.090409 -213.530647 
L 564.2663 -214.905848 
L 560.442192 -216.454819 
L 556.618084 -217.788029 
L 552.793976 -208.887948 
L 548.969868 -213.085164 
L 545.145759 -214.099465 
L 541.321651 -233.161709 
L 537.497543 -230.605932 
L 533.673435 -221.451836 
L 529.849327 -220.089527 
L 526.025219 -219.601115 
L 522.20111 -221.115784 
L 518.377002 -224.993325 
L 514.552894 -227.748461 
L 510.728786 -229.712066 
L 506.904678 -230.345114 
L 503.08057 -235.921299 
L 499.256461 -238.870571 
L 495.432353 -247.918735 
L 491.608245 -246.836447 
L 487.784137 -246.802702 
L 483.960029 -251.158182 
L 480.135921 -246.193423 
L 476.311812 -244.436884 
L 472.487704 -240.861738 
L 468.663596 -240.282375 
L 464.839488 -239.010767 
L 461.01538 -233.347756 
L 457.191272 -227.623666 
L 453.367163 -226.875644 
L 449.543055 -223.132657 
L 445.718947 -222.710159 
L 441.894839 -223.432333 
L 438.070731 -220.984933 
L 434.246623 -219.4701 
L 430.422514 -220.435853 
L 426.598406 -215.920157 
L 422.774298 -214.119415 
L 418.95019 -212.703245 
L 415.126082 -201.34714 
L 411.301974 -213.338028 
L 407.477865 -214.000153 
L 403.653757 -214.792016 
L 399.829649 -217.472766 
L 396.005541 -215.692896 
L 392.181433 -216.484437 
L 388.357325 -218.57057 
L 384.533216 -208.918585 
L 380.709108 -219.795081 
L 376.885 -221.905085 
L 373.060892 -226.979498 
L 369.236784 -228.889905 
L 365.412675 -224.763428 
L 361.588567 -220.303732 
L 357.764459 -211.498061 
L 353.940351 -210.992631 
L 350.116243 -220.842654 
L 346.292135 -216.402615 
L 342.468026 -217.160451 
L 338.643918 -214.81751 
L 334.81981 -215.097383 
L 330.995702 -215.017481 
L 327.171594 -216.833394 
L 323.347486 -217.099072 
L 319.523377 -220.350542 
L 315.699269 -224.467248 
L 311.875161 -229.266614 
L 308.051053 -230.793328 
L 304.226945 -229.882543 
L 300.402837 -228.16882 
L 296.578728 -228.534006 
L 292.75462 -229.592077 
L 288.930512 -227.049423 
L 285.106404 -225.787344 
L 281.282296 -224.25583 
L 277.458188 -226.043475 
L 273.634079 -225.564925 
L 269.809971 -226.038255 
L 265.985863 -222.878726 
L 262.161755 -223.376965 
L 258.337647 -225.847134 
L 254.513539 -221.443738 
L 250.68943 -219.335858 
L 246.865322 -217.53551 
L 243.041214 -214.150038 
L 239.217106 -214.186904 
L 235.392998 -213.479304 
L 231.56889 -215.341919 
L 227.744781 -217.020708 
L 223.920673 -205.741454 
L 220.096565 -215.125854 
L 216.272457 -216.426368 
L 212.448349 -212.869849 
L 208.624241 -212.124366 
L 204.800132 -215.957485 
L 200.976024 -219.688952 
L 197.151916 -219.192031 
L 193.327808 -220.514069 
L 189.5037 -223.437995 
L 185.679591 -222.445333 
L 181.855483 -220.987902 
L 178.031375 -224.845587 
L 174.207267 -228.227056 
L 170.383159 -225.952946 
L 166.559051 -221.631961 
L 162.734942 -215.159042 
L 158.910834 -212.286827 
L 155.086726 -210.58048 
L 151.262618 -205.857957 
L 147.43851 -206.954796 
L 143.614402 -205.276203 
L 139.790293 -203.240746 
L 135.966185 -202.80967 
L 132.142077 -204.947185 
L 128.317969 -201.959032 
L 124.493861 -203.23099 
L 120.669753 -194.709934 
L 116.845644 -198.189918 
L 113.021536 -203.350791 
L 109.197428 -217.619775 
L 105.37332 -208.25425 
L 101.549212 -211.16489 
L 97.725104 -217.687151 
L 93.900995 -222.443968 
L 90.076887 -187.131517 
L 86.252779 -221.916202 
L 82.428671 -209.142183 
L 78.604563 -213.5333 
L 74.780455 -211.782938 
z
" style="stroke: #808080; stroke-opacity: 0.2"/>
    </defs>
    <g clip-path="url(#p19cd37c18b)">
     <use xlink:href="#m24bbd34ebc" x="0" y="288" style="fill: #808080; fill-opacity: 0.2; stroke: #808080; stroke-opacity: 0.2"/>
    </g>
   </g>
   <g id="matplotlib.axis_1">
    <g id="xtick_1">
     <g id="line2d_1">
      <defs>
       <path id="m257a1df236" d="M 0 0 
L 0 3.5 
" style="stroke: #000000; stroke-width: 0.8"/>
      </defs>
      <g>
       <use xlink:href="#m257a1df236" x="70.956346" y="246.04" style="stroke: #000000; stroke-width: 0.8"/>
      </g>
     </g>
     <g id="text_1">
      <!-- 06-11 12 -->
      <g transform="translate(48.475878 260.638438) scale(0.1 -0.1)">
       <defs>
        <path id="DejaVuSans-30" d="M 2034 4250 
Q 1547 4250 1301 3770 
Q 1056 3291 1056 2328 
Q 1056 1369 1301 889 
Q 1547 409 2034 409 
Q 2525 409 2770 889 
Q 3016 1369 3016 2328 
Q 3016 3291 2770 3770 
Q 2525 4250 2034 4250 
z
M 2034 4750 
Q 2819 4750 3233 4129 
Q 3647 3509 3647 2328 
Q 3647 1150 3233 529 
Q 2819 -91 2034 -91 
Q 1250 -91 836 529 
Q 422 1150 422 2328 
Q 422 3509 836 4129 
Q 1250 4750 2034 4750 
z
" transform="scale(0.015625)"/>
        <path id="DejaVuSans-36" d="M 2113 2584 
Q 1688 2584 1439 2293 
Q 1191 2003 1191 1497 
Q 1191 994 1439 701 
Q 1688 409 2113 409 
Q 2538 409 2786 701 
Q 3034 994 3034 1497 
Q 3034 2003 2786 2293 
Q 2538 2584 2113 2584 
z
M 3366 4563 
L 3366 3988 
Q 3128 4100 2886 4159 
Q 2644 4219 2406 4219 
Q 1781 4219 1451 3797 
Q 1122 3375 1075 2522 
Q 1259 2794 1537 2939 
Q 1816 3084 2150 3084 
Q 2853 3084 3261 2657 
Q 3669 2231 3669 1497 
Q 3669 778 3244 343 
Q 2819 -91 2113 -91 
Q 1303 -91 875 529 
Q 447 1150 447 2328 
Q 447 3434 972 4092 
Q 1497 4750 2381 4750 
Q 2619 4750 2861 4703 
Q 3103 4656 3366 4563 
z
" transform="scale(0.015625)"/>
        <path id="DejaVuSans-2d" d="M 313 2009 
L 1997 2009 
L 1997 1497 
L 313 1497 
L 313 2009 
z
" transform="scale(0.015625)"/>
        <path id="DejaVuSans-31" d="M 794 531 
L 1825 531 
L 1825 4091 
L 703 3866 
L 703 4441 
L 1819 4666 
L 2450 4666 
L 2450 531 
L 3481 531 
L 3481 0 
L 794 0 
L 794 531 
z
" transform="scale(0.015625)"/>
        <path id="DejaVuSans-20" transform="scale(0.015625)"/>
        <path id="DejaVuSans-32" d="M 1228 531 
L 3431 531 
L 3431 0 
L 469 0 
L 469 531 
Q 828 903 1448 1529 
Q 2069 2156 2228 2338 
Q 2531 2678 2651 2914 
Q 2772 3150 2772 3378 
Q 2772 3750 2511 3984 
Q 2250 4219 1831 4219 
Q 1534 4219 1204 4116 
Q 875 4013 500 3803 
L 500 4441 
Q 881 4594 1212 4672 
Q 1544 4750 1819 4750 
Q 2544 4750 2975 4387 
Q 3406 4025 3406 3419 
Q 3406 3131 3298 2873 
Q 3191 2616 2906 2266 
Q 2828 2175 2409 1742 
Q 1991 1309 1228 531 
z
" transform="scale(0.015625)"/>
       </defs>
       <use xlink:href="#DejaVuSans-30"/>
       <use xlink:href="#DejaVuSans-36" transform="translate(63.623047 0)"/>
       <use xlink:href="#DejaVuSans-2d" transform="translate(127.246094 0)"/>
       <use xlink:href="#DejaVuSans-31" transform="translate(163.330078 0)"/>
       <use xlink:href="#DejaVuSans-31" transform="translate(226.953125 0)"/>
       <use xlink:href="#DejaVuSans-20" transform="translate(290.576172 0)"/>
       <use xlink:href="#DejaVuSans-31" transform="translate(322.363281 0)"/>
       <use xlink:href="#DejaVuSans-32" transform="translate(385.986328 0)"/>
      </g>
     </g>
    </g>
    <g id="xtick_2">
     <g id="line2d_2">
      <g>
       <use xlink:href="#m257a1df236" x="162.734942" y="246.04" style="stroke: #000000; stroke-width: 0.8"/>
      </g>
     </g>
     <g id="text_2">
      <!-- 06-12 00 -->
      <g transform="translate(140.254474 260.638438) scale(0.1 -0.1)">
       <use xlink:href="#DejaVuSans-30"/>
       <use xlink:href="#DejaVuSans-36" transform="translate(63.623047 0)"/>
       <use xlink:href="#DejaVuSans-2d" transform="translate(127.246094 0)"/>
       <use xlink:href="#DejaVuSans-31" transform="translate(163.330078 0)"/>
       <use xlink:href="#DejaVuSans-32" transform="translate(226.953125 0)"/>
       <use xlink:href="#DejaVuSans-20" transform="translate(290.576172 0)"/>
       <use xlink:href="#DejaVuSans-30" transform="translate(322.363281 0)"/>
       <use xlink:href="#DejaVuSans-30" transform="translate(385.986328 0)"/>
      </g>
     </g>
    </g>
    <g id="xtick_3">
     <g id="line2d_3">
      <g>
       <use xlink:href="#m257a1df236" x="254.513539" y="246.04" style="stroke: #000000; stroke-width: 0.8"/>
      </g>
     </g>
     <g id="text_3">
      <!-- 06-12 12 -->
      <g transform="translate(232.03307 260.638438) scale(0.1 -0.1)">
       <use xlink:href="#DejaVuSans-30"/>
       <use xlink:href="#DejaVuSans-36" transform="translate(63.623047 0)"/>
       <use xlink:href="#DejaVuSans-2d" transform="translate(127.246094 0)"/>
       <use xlink:href="#DejaVuSans-31" transform="translate(163.330078 0)"/>
       <use xlink:href="#DejaVuSans-32" transform="translate(226.953125 0)"/>
       <use xlink:href="#DejaVuSans-20" transform="translate(290.576172 0)"/>
       <use xlink:href="#DejaVuSans-31" transform="translate(322.363281 0)"/>
       <use xlink:href="#DejaVuSans-32" transform="translate(385.986328 0)"/>
      </g>
     </g>
    </g>
    <g id="xtick_4">
     <g id="line2d_4">
      <g>
       <use xlink:href="#m257a1df236" x="346.292135" y="246.04" style="stroke: #000000; stroke-width: 0.8"/>
      </g>
     </g>
     <g id="text_4">
      <!-- 06-13 00 -->
      <g transform="translate(323.811666 260.638438) scale(0.1 -0.1)">
       <defs>
        <path id="DejaVuSans-33" d="M 2597 2516 
Q 3050 2419 3304 2112 
Q 3559 1806 3559 1356 
Q 3559 666 3084 287 
Q 2609 -91 1734 -91 
Q 1441 -91 1130 -33 
Q 819 25 488 141 
L 488 750 
Q 750 597 1062 519 
Q 1375 441 1716 441 
Q 2309 441 2620 675 
Q 2931 909 2931 1356 
Q 2931 1769 2642 2001 
Q 2353 2234 1838 2234 
L 1294 2234 
L 1294 2753 
L 1863 2753 
Q 2328 2753 2575 2939 
Q 2822 3125 2822 3475 
Q 2822 3834 2567 4026 
Q 2313 4219 1838 4219 
Q 1578 4219 1281 4162 
Q 984 4106 628 3988 
L 628 4550 
Q 988 4650 1302 4700 
Q 1616 4750 1894 4750 
Q 2613 4750 3031 4423 
Q 3450 4097 3450 3541 
Q 3450 3153 3228 2886 
Q 3006 2619 2597 2516 
z
" transform="scale(0.015625)"/>
       </defs>
       <use xlink:href="#DejaVuSans-30"/>
       <use xlink:href="#DejaVuSans-36" transform="translate(63.623047 0)"/>
       <use xlink:href="#DejaVuSans-2d" transform="translate(127.246094 0)"/>
       <use xlink:href="#DejaVuSans-31" transform="translate(163.330078 0)"/>
       <use xlink:href="#DejaVuSans-33" transform="translate(226.953125 0)"/>
       <use xlink:href="#DejaVuSans-20" transform="translate(290.576172 0)"/>
       <use xlink:href="#DejaVuSans-30" transform="translate(322.363281 0)"/>
       <use xlink:href="#DejaVuSans-30" transform="translate(385.986328 0)"/>
      </g>
     </g>
    </g>
    <g id="xtick_5">
     <g id="line2d_5">
      <g>
       <use xlink:href="#m257a1df236" x="438.070731" y="246.04" style="stroke: #000000; stroke-width: 0.8"/>
      </g>
     </g>
     <g id="text_5">
      <!-- 06-13 12 -->
      <g transform="translate(415.590262 260.638438) scale(0.1 -0.1)">
       <use xlink:href="#DejaVuSans-30"/>
       <use xlink:href="#DejaVuSans-36" transform="translate(63.623047 0)"/>
       <use xlink:href="#DejaVuSans-2d" transform="translate(127.246094 0)"/>
       <use xlink:href="#DejaVuSans-31" transform="translate(163.330078 0)"/>
       <use xlink:href="#DejaVuSans-33" transform="translate(226.953125 0)"/>
       <use xlink:href="#DejaVuSans-20" transform="translate(290.576172 0)"/>
       <use xlink:href="#DejaVuSans-31" transform="translate(322.363281 0)"/>
       <use xlink:href="#DejaVuSans-32" transform="translate(385.986328 0)"/>
      </g>
     </g>
    </g>
    <g id="xtick_6">
     <g id="line2d_6">
      <g>
       <use xlink:href="#m257a1df236" x="529.849327" y="246.04" style="stroke: #000000; stroke-width: 0.8"/>
      </g>
     </g>
     <g id="text_6">
      <!-- 06-14 00 -->
      <g transform="translate(507.368858 260.638438) scale(0.1 -0.1)">
       <defs>
        <path id="DejaVuSans-34" d="M 2419 4116 
L 825 1625 
L 2419 1625 
L 2419 4116 
z
M 2253 4666 
L 3047 4666 
L 3047 1625 
L 3713 1625 
L 3713 1100 
L 3047 1100 
L 3047 0 
L 2419 0 
L 2419 1100 
L 313 1100 
L 313 1709 
L 2253 4666 
z
" transform="scale(0.015625)"/>
       </defs>
       <use xlink:href="#DejaVuSans-30"/>
       <use xlink:href="#DejaVuSans-36" transform="translate(63.623047 0)"/>
       <use xlink:href="#DejaVuSans-2d" transform="translate(127.246094 0)"/>
       <use xlink:href="#DejaVuSans-31" transform="translate(163.330078 0)"/>
       <use xlink:href="#DejaVuSans-34" transform="translate(226.953125 0)"/>
       <use xlink:href="#DejaVuSans-20" transform="translate(290.576172 0)"/>
       <use xlink:href="#DejaVuSans-30" transform="translate(322.363281 0)"/>
       <use xlink:href="#DejaVuSans-30" transform="translate(385.986328 0)"/>
      </g>
     </g>
    </g>
    <g id="xtick_7">
     <g id="line2d_7">
      <g>
       <use xlink:href="#m257a1df236" x="621.627923" y="246.04" style="stroke: #000000; stroke-width: 0.8"/>
      </g>
     </g>
     <g id="text_7">
      <!-- 06-14 12 -->
      <g transform="translate(599.147454 260.638438) scale(0.1 -0.1)">
       <use xlink:href="#DejaVuSans-30"/>
       <use xlink:href="#DejaVuSans-36" transform="translate(63.623047 0)"/>
       <use xlink:href="#DejaVuSans-2d" transform="translate(127.246094 0)"/>
       <use xlink:href="#DejaVuSans-31" transform="translate(163.330078 0)"/>
       <use xlink:href="#DejaVuSans-34" transform="translate(226.953125 0)"/>
       <use xlink:href="#DejaVuSans-20" transform="translate(290.576172 0)"/>
       <use xlink:href="#DejaVuSans-31" transform="translate(322.363281 0)"/>
       <use xlink:href="#DejaVuSans-32" transform="translate(385.986328 0)"/>
      </g>
     </g>
    </g>
    <g id="text_8">
     <!-- Tijd -->
     <g transform="translate(368.035 274.316562) scale(0.1 -0.1)">
      <defs>
       <path id="DejaVuSans-54" d="M -19 4666 
L 3928 4666 
L 3928 4134 
L 2272 4134 
L 2272 0 
L 1638 0 
L 1638 4134 
L -19 4134 
L -19 4666 
z
" transform="scale(0.015625)"/>
       <path id="DejaVuSans-69" d="M 603 3500 
L 1178 3500 
L 1178 0 
L 603 0 
L 603 3500 
z
M 603 4863 
L 1178 4863 
L 1178 4134 
L 603 4134 
L 603 4863 
z
" transform="scale(0.015625)"/>
       <path id="DejaVuSans-6a" d="M 603 3500 
L 1178 3500 
L 1178 -63 
Q 1178 -731 923 -1031 
Q 669 -1331 103 -1331 
L -116 -1331 
L -116 -844 
L 38 -844 
Q 366 -844 484 -692 
Q 603 -541 603 -63 
L 603 3500 
z
M 603 4863 
L 1178 4863 
L 1178 4134 
L 603 4134 
L 603 4863 
z
" transform="scale(0.015625)"/>
       <path id="DejaVuSans-64" d="M 2906 2969 
L 2906 4863 
L 3481 4863 
L 3481 0 
L 2906 0 
L 2906 525 
Q 2725 213 2448 61 
Q 2172 -91 1784 -91 
Q 1150 -91 751 415 
Q 353 922 353 1747 
Q 353 2572 751 3078 
Q 1150 3584 1784 3584 
Q 2172 3584 2448 3432 
Q 2725 3281 2906 2969 
z
M 947 1747 
Q 947 1113 1208 752 
Q 1469 391 1925 391 
Q 2381 391 2643 752 
Q 2906 1113 2906 1747 
Q 2906 2381 2643 2742 
Q 2381 3103 1925 3103 
Q 1469 3103 1208 2742 
Q 947 2381 947 1747 
z
" transform="scale(0.015625)"/>
      </defs>
      <use xlink:href="#DejaVuSans-54"/>
      <use xlink:href="#DejaVuSans-69" transform="translate(57.958984 0)"/>
      <use xlink:href="#DejaVuSans-6a" transform="translate(85.742188 0)"/>
      <use xlink:href="#DejaVuSans-64" transform="translate(113.525391 0)"/>
     </g>
    </g>
   </g>
   <g id="matplotlib.axis_2">
    <g id="ytick_1">
     <g id="line2d_8">
      <defs>
       <path id="m7258caca1e" d="M 0 0 
L -3.5 0 
" style="stroke: #000000; stroke-width: 0.8"/>
      </defs>
      <g>
       <use xlink:href="#m7258caca1e" x="44.57" y="235.56193" style="stroke: #000000; stroke-width: 0.8"/>
      </g>
     </g>
     <g id="text_9">
      <!-- 30 -->
      <g transform="translate(24.845 239.361149) scale(0.1 -0.1)">
       <use xlink:href="#DejaVuSans-33"/>
       <use xlink:href="#DejaVuSans-30" transform="translate(63.623047 0)"/>
      </g>
     </g>
    </g>
    <g id="ytick_2">
     <g id="line2d_9">
      <g>
       <use xlink:href="#m7258caca1e" x="44.57" y="188.709831" style="stroke: #000000; stroke-width: 0.8"/>
      </g>
     </g>
     <g id="text_10">
      <!-- 32 -->
      <g transform="translate(24.845 192.509049) scale(0.1 -0.1)">
       <use xlink:href="#DejaVuSans-33"/>
       <use xlink:href="#DejaVuSans-32" transform="translate(63.623047 0)"/>
      </g>
     </g>
    </g>
    <g id="ytick_3">
     <g id="line2d_10">
      <g>
       <use xlink:href="#m7258caca1e" x="44.57" y="141.857731" style="stroke: #000000; stroke-width: 0.8"/>
      </g>
     </g>
     <g id="text_11">
      <!-- 34 -->
      <g transform="translate(24.845 145.65695) scale(0.1 -0.1)">
       <use xlink:href="#DejaVuSans-33"/>
       <use xlink:href="#DejaVuSans-34" transform="translate(63.623047 0)"/>
      </g>
     </g>
    </g>
    <g id="ytick_4">
     <g id="line2d_11">
      <g>
       <use xlink:href="#m7258caca1e" x="44.57" y="95.005632" style="stroke: #000000; stroke-width: 0.8"/>
      </g>
     </g>
     <g id="text_12">
      <!-- 36 -->
      <g transform="translate(24.845 98.804851) scale(0.1 -0.1)">
       <use xlink:href="#DejaVuSans-33"/>
       <use xlink:href="#DejaVuSans-36" transform="translate(63.623047 0)"/>
      </g>
     </g>
    </g>
    <g id="ytick_5">
     <g id="line2d_12">
      <g>
       <use xlink:href="#m7258caca1e" x="44.57" y="48.153533" style="stroke: #000000; stroke-width: 0.8"/>
      </g>
     </g>
     <g id="text_13">
      <!-- 38 -->
      <g transform="translate(24.845 51.952752) scale(0.1 -0.1)">
       <defs>
        <path id="DejaVuSans-38" d="M 2034 2216 
Q 1584 2216 1326 1975 
Q 1069 1734 1069 1313 
Q 1069 891 1326 650 
Q 1584 409 2034 409 
Q 2484 409 2743 651 
Q 3003 894 3003 1313 
Q 3003 1734 2745 1975 
Q 2488 2216 2034 2216 
z
M 1403 2484 
Q 997 2584 770 2862 
Q 544 3141 544 3541 
Q 544 4100 942 4425 
Q 1341 4750 2034 4750 
Q 2731 4750 3128 4425 
Q 3525 4100 3525 3541 
Q 3525 3141 3298 2862 
Q 3072 2584 2669 2484 
Q 3125 2378 3379 2068 
Q 3634 1759 3634 1313 
Q 3634 634 3220 271 
Q 2806 -91 2034 -91 
Q 1263 -91 848 271 
Q 434 634 434 1313 
Q 434 1759 690 2068 
Q 947 2378 1403 2484 
z
M 1172 3481 
Q 1172 3119 1398 2916 
Q 1625 2713 2034 2713 
Q 2441 2713 2670 2916 
Q 2900 3119 2900 3481 
Q 2900 3844 2670 4047 
Q 2441 4250 2034 4250 
Q 1625 4250 1398 4047 
Q 1172 3844 1172 3481 
z
" transform="scale(0.015625)"/>
       </defs>
       <use xlink:href="#DejaVuSans-33"/>
       <use xlink:href="#DejaVuSans-38" transform="translate(63.623047 0)"/>
      </g>
     </g>
    </g>
    <g id="text_14">
     <!-- Temperatuur (°C) -->
     <g transform="translate(18.765312 179.81625) rotate(-90) scale(0.1 -0.1)">
      <defs>
       <path id="DejaVuSans-65" d="M 3597 1894 
L 3597 1613 
L 953 1613 
Q 991 1019 1311 708 
Q 1631 397 2203 397 
Q 2534 397 2845 478 
Q 3156 559 3463 722 
L 3463 178 
Q 3153 47 2828 -22 
Q 2503 -91 2169 -91 
Q 1331 -91 842 396 
Q 353 884 353 1716 
Q 353 2575 817 3079 
Q 1281 3584 2069 3584 
Q 2775 3584 3186 3129 
Q 3597 2675 3597 1894 
z
M 3022 2063 
Q 3016 2534 2758 2815 
Q 2500 3097 2075 3097 
Q 1594 3097 1305 2825 
Q 1016 2553 972 2059 
L 3022 2063 
z
" transform="scale(0.015625)"/>
       <path id="DejaVuSans-6d" d="M 3328 2828 
Q 3544 3216 3844 3400 
Q 4144 3584 4550 3584 
Q 5097 3584 5394 3201 
Q 5691 2819 5691 2113 
L 5691 0 
L 5113 0 
L 5113 2094 
Q 5113 2597 4934 2840 
Q 4756 3084 4391 3084 
Q 3944 3084 3684 2787 
Q 3425 2491 3425 1978 
L 3425 0 
L 2847 0 
L 2847 2094 
Q 2847 2600 2669 2842 
Q 2491 3084 2119 3084 
Q 1678 3084 1418 2786 
Q 1159 2488 1159 1978 
L 1159 0 
L 581 0 
L 581 3500 
L 1159 3500 
L 1159 2956 
Q 1356 3278 1631 3431 
Q 1906 3584 2284 3584 
Q 2666 3584 2933 3390 
Q 3200 3197 3328 2828 
z
" transform="scale(0.015625)"/>
       <path id="DejaVuSans-70" d="M 1159 525 
L 1159 -1331 
L 581 -1331 
L 581 3500 
L 1159 3500 
L 1159 2969 
Q 1341 3281 1617 3432 
Q 1894 3584 2278 3584 
Q 2916 3584 3314 3078 
Q 3713 2572 3713 1747 
Q 3713 922 3314 415 
Q 2916 -91 2278 -91 
Q 1894 -91 1617 61 
Q 1341 213 1159 525 
z
M 3116 1747 
Q 3116 2381 2855 2742 
Q 2594 3103 2138 3103 
Q 1681 3103 1420 2742 
Q 1159 2381 1159 1747 
Q 1159 1113 1420 752 
Q 1681 391 2138 391 
Q 2594 391 2855 752 
Q 3116 1113 3116 1747 
z
" transform="scale(0.015625)"/>
       <path id="DejaVuSans-72" d="M 2631 2963 
Q 2534 3019 2420 3045 
Q 2306 3072 2169 3072 
Q 1681 3072 1420 2755 
Q 1159 2438 1159 1844 
L 1159 0 
L 581 0 
L 581 3500 
L 1159 3500 
L 1159 2956 
Q 1341 3275 1631 3429 
Q 1922 3584 2338 3584 
Q 2397 3584 2469 3576 
Q 2541 3569 2628 3553 
L 2631 2963 
z
" transform="scale(0.015625)"/>
       <path id="DejaVuSans-61" d="M 2194 1759 
Q 1497 1759 1228 1600 
Q 959 1441 959 1056 
Q 959 750 1161 570 
Q 1363 391 1709 391 
Q 2188 391 2477 730 
Q 2766 1069 2766 1631 
L 2766 1759 
L 2194 1759 
z
M 3341 1997 
L 3341 0 
L 2766 0 
L 2766 531 
Q 2569 213 2275 61 
Q 1981 -91 1556 -91 
Q 1019 -91 701 211 
Q 384 513 384 1019 
Q 384 1609 779 1909 
Q 1175 2209 1959 2209 
L 2766 2209 
L 2766 2266 
Q 2766 2663 2505 2880 
Q 2244 3097 1772 3097 
Q 1472 3097 1187 3025 
Q 903 2953 641 2809 
L 641 3341 
Q 956 3463 1253 3523 
Q 1550 3584 1831 3584 
Q 2591 3584 2966 3190 
Q 3341 2797 3341 1997 
z
" transform="scale(0.015625)"/>
       <path id="DejaVuSans-74" d="M 1172 4494 
L 1172 3500 
L 2356 3500 
L 2356 3053 
L 1172 3053 
L 1172 1153 
Q 1172 725 1289 603 
Q 1406 481 1766 481 
L 2356 481 
L 2356 0 
L 1766 0 
Q 1100 0 847 248 
Q 594 497 594 1153 
L 594 3053 
L 172 3053 
L 172 3500 
L 594 3500 
L 594 4494 
L 1172 4494 
z
" transform="scale(0.015625)"/>
       <path id="DejaVuSans-75" d="M 544 1381 
L 544 3500 
L 1119 3500 
L 1119 1403 
Q 1119 906 1312 657 
Q 1506 409 1894 409 
Q 2359 409 2629 706 
Q 2900 1003 2900 1516 
L 2900 3500 
L 3475 3500 
L 3475 0 
L 2900 0 
L 2900 538 
Q 2691 219 2414 64 
Q 2138 -91 1772 -91 
Q 1169 -91 856 284 
Q 544 659 544 1381 
z
M 1991 3584 
L 1991 3584 
z
" transform="scale(0.015625)"/>
       <path id="DejaVuSans-28" d="M 1984 4856 
Q 1566 4138 1362 3434 
Q 1159 2731 1159 2009 
Q 1159 1288 1364 580 
Q 1569 -128 1984 -844 
L 1484 -844 
Q 1016 -109 783 600 
Q 550 1309 550 2009 
Q 550 2706 781 3412 
Q 1013 4119 1484 4856 
L 1984 4856 
z
" transform="scale(0.015625)"/>
       <path id="DejaVuSans-b0" d="M 1600 4347 
Q 1350 4347 1178 4173 
Q 1006 4000 1006 3750 
Q 1006 3503 1178 3333 
Q 1350 3163 1600 3163 
Q 1850 3163 2022 3333 
Q 2194 3503 2194 3750 
Q 2194 3997 2020 4172 
Q 1847 4347 1600 4347 
z
M 1600 4750 
Q 1800 4750 1984 4673 
Q 2169 4597 2303 4453 
Q 2447 4313 2519 4134 
Q 2591 3956 2591 3750 
Q 2591 3338 2302 3052 
Q 2013 2766 1594 2766 
Q 1172 2766 890 3047 
Q 609 3328 609 3750 
Q 609 4169 896 4459 
Q 1184 4750 1600 4750 
z
" transform="scale(0.015625)"/>
       <path id="DejaVuSans-43" d="M 4122 4306 
L 4122 3641 
Q 3803 3938 3442 4084 
Q 3081 4231 2675 4231 
Q 1875 4231 1450 3742 
Q 1025 3253 1025 2328 
Q 1025 1406 1450 917 
Q 1875 428 2675 428 
Q 3081 428 3442 575 
Q 3803 722 4122 1019 
L 4122 359 
Q 3791 134 3420 21 
Q 3050 -91 2638 -91 
Q 1578 -91 968 557 
Q 359 1206 359 2328 
Q 359 3453 968 4101 
Q 1578 4750 2638 4750 
Q 3056 4750 3426 4639 
Q 3797 4528 4122 4306 
z
" transform="scale(0.015625)"/>
       <path id="DejaVuSans-29" d="M 513 4856 
L 1013 4856 
Q 1481 4119 1714 3412 
Q 1947 2706 1947 2009 
Q 1947 1309 1714 600 
Q 1481 -109 1013 -844 
L 513 -844 
Q 928 -128 1133 580 
Q 1338 1288 1338 2009 
Q 1338 2731 1133 3434 
Q 928 4138 513 4856 
z
" transform="scale(0.015625)"/>
      </defs>
      <use xlink:href="#DejaVuSans-54"/>
      <use xlink:href="#DejaVuSans-65" transform="translate(44.083984 0)"/>
      <use xlink:href="#DejaVuSans-6d" transform="translate(105.607422 0)"/>
      <use xlink:href="#DejaVuSans-70" transform="translate(203.019531 0)"/>
      <use xlink:href="#DejaVuSans-65" transform="translate(266.496094 0)"/>
      <use xlink:href="#DejaVuSans-72" transform="translate(328.019531 0)"/>
      <use xlink:href="#DejaVuSans-61" transform="translate(369.132812 0)"/>
      <use xlink:href="#DejaVuSans-74" transform="translate(430.412109 0)"/>
      <use xlink:href="#DejaVuSans-75" transform="translate(469.621094 0)"/>
      <use xlink:href="#DejaVuSans-75" transform="translate(533 0)"/>
      <use xlink:href="#DejaVuSans-72" transform="translate(596.378906 0)"/>
      <use xlink:href="#DejaVuSans-20" transform="translate(637.492188 0)"/>
      <use xlink:href="#DejaVuSans-28" transform="translate(669.279297 0)"/>
      <use xlink:href="#DejaVuSans-b0" transform="translate(708.292969 0)"/>
      <use xlink:href="#DejaVuSans-43" transform="translate(758.292969 0)"/>
      <use xlink:href="#DejaVuSans-29" transform="translate(828.117188 0)"/>
     </g>
    </g>
   </g>
   <g id="line2d_13">
    <path d="M 74.780455 111.403867 
L 82.428671 111.403867 
L 86.252779 112.965604 
L 90.076887 111.403867 
L 93.900995 110.622999 
L 97.725104 108.280394 
L 101.549212 106.718657 
L 105.37332 103.595184 
L 109.197428 102.814315 
L 113.021536 104.376052 
L 116.845644 105.547355 
L 120.669753 104.376052 
L 124.493861 105.15692 
L 128.317969 105.15692 
L 132.142077 105.937789 
L 139.790293 104.376052 
L 143.614402 105.15692 
L 147.43851 103.595184 
L 151.262618 106.718657 
L 155.086726 103.595184 
L 162.734942 102.033447 
L 166.559051 102.814315 
L 170.383159 102.814315 
L 174.207267 103.595184 
L 178.031375 102.033447 
L 181.855483 103.595184 
L 185.679591 102.814315 
L 189.5037 104.376052 
L 197.151916 105.937789 
L 200.976024 104.376052 
L 204.800132 105.547355 
L 208.624241 105.937789 
L 212.448349 106.718657 
L 216.272457 106.718657 
L 220.096565 108.280394 
L 223.920673 107.499525 
L 227.744781 107.889959 
L 231.56889 109.84213 
L 235.392998 111.403867 
L 243.041214 109.84213 
L 246.865322 109.84213 
L 250.68943 109.061262 
L 258.337647 105.937789 
L 262.161755 107.499525 
L 265.985863 105.15692 
L 269.809971 102.033447 
L 273.634079 101.252579 
L 277.458188 98.129105 
L 281.282296 98.909974 
L 285.106404 95.786501 
L 288.930512 93.443896 
L 292.75462 88.758686 
L 300.402837 90.320422 
L 304.226945 88.758686 
L 308.051053 90.320422 
L 311.875161 88.758686 
L 315.699269 90.320422 
L 319.523377 90.320422 
L 323.347486 92.663027 
L 327.171594 93.443896 
L 330.995702 97.348237 
L 334.81981 98.129105 
L 338.643918 99.690842 
L 342.468026 99.690842 
L 346.292135 103.595184 
L 350.116243 104.376052 
L 353.940351 106.718657 
L 357.764459 104.376052 
L 361.588567 106.718657 
L 365.412675 105.15692 
L 376.885 107.499525 
L 384.533216 105.937789 
L 388.357325 105.547355 
L 392.181433 106.718657 
L 396.005541 105.15692 
L 399.829649 105.15692 
L 403.653757 106.718657 
L 411.301974 106.718657 
L 415.126082 108.280394 
L 422.774298 105.15692 
L 426.598406 102.033447 
L 430.422514 99.690842 
L 434.246623 98.51954 
L 438.070731 93.443896 
L 441.894839 90.320422 
L 445.718947 90.320422 
L 449.543055 87.196949 
L 453.367163 81.730871 
L 457.191272 80.950002 
L 461.01538 74.703056 
L 464.839488 69.236978 
L 468.663596 66.113504 
L 472.487704 62.209163 
L 476.311812 56.743084 
L 480.135921 55.181348 
L 483.960029 54.40048 
L 487.784137 56.743084 
L 491.608245 61.428294 
L 495.432353 65.332636 
L 499.256461 70.017846 
L 503.08057 73.141319 
L 510.728786 77.826529 
L 514.552894 78.607397 
L 518.377002 81.730871 
L 526.025219 84.854344 
L 529.849327 89.539554 
L 533.673435 92.663027 
L 537.497543 94.224764 
L 541.321651 97.348237 
L 548.969868 99.690842 
L 552.793976 100.47171 
L 556.618084 102.033447 
L 560.442192 103.20475 
L 564.2663 105.15692 
L 568.090409 104.376052 
L 571.914517 107.889959 
L 575.738625 107.499525 
L 579.562733 104.376052 
L 583.386841 103.595184 
L 587.210949 104.376052 
L 591.035058 106.718657 
L 594.859166 106.718657 
L 598.683274 104.376052 
L 602.507382 104.376052 
L 606.33149 99.690842 
L 610.155598 95.786501 
L 613.979707 92.663027 
L 617.803815 92.663027 
L 621.627923 91.491725 
L 625.452031 86.416081 
L 629.276139 84.854344 
L 633.100247 84.073476 
L 636.924356 81.730871 
L 640.748464 80.950002 
L 644.572572 80.950002 
L 648.39668 79.388266 
L 652.220788 78.607397 
L 652.220788 78.607397 
" clip-path="url(#p19cd37c18b)" style="fill: none; stroke: #1f77b4; stroke-width: 2; stroke-linecap: square"/>
   </g>
   <g id="line2d_14">
    <path d="M 74.780455 156.147622 
L 78.604563 154.507798 
L 82.428671 152.139164 
L 86.252779 147.06352 
L 90.076887 139.827474 
L 93.900995 147.844389 
L 97.725104 145.241494 
L 101.549212 155.132493 
L 105.37332 133.788759 
L 109.197428 142.471271 
L 113.021536 143.74483 
L 116.845644 142.248166 
L 120.669753 138.408896 
L 124.493861 132.375759 
L 128.317969 131.483338 
L 132.142077 129.614832 
L 135.966185 128.917628 
L 139.790293 129.475391 
L 143.614402 129.475391 
L 147.43851 129.252286 
L 151.262618 129.810049 
L 155.086726 128.13676 
L 158.910834 127.021233 
L 162.734942 126.46347 
L 166.559051 126.798128 
L 170.383159 125.905707 
L 174.207267 125.40372 
L 178.031375 130.665285 
L 181.855483 129.754272 
L 185.679591 127.355891 
L 189.5037 128.527194 
L 193.327808 130.925575 
L 197.151916 130.981351 
L 200.976024 132.264206 
L 204.800132 133.770167 
L 208.624241 135.610785 
L 216.272457 138.845811 
L 220.096565 139.961337 
L 223.920673 149.861632 
L 227.744781 143.140587 
L 231.56889 143.307915 
L 235.392998 142.861705 
L 243.041214 144.590771 
L 246.865322 145.817849 
L 250.68943 145.315863 
L 254.513539 143.586797 
L 258.337647 134.960061 
L 262.161755 142.805929 
L 265.985863 141.411521 
L 269.809971 139.794008 
L 273.634079 140.574876 
L 277.458188 138.678482 
L 281.282296 136.558982 
L 285.106404 135.83389 
L 292.75462 133.26818 
L 296.578728 131.594891 
L 300.402837 130.256259 
L 311.875161 124.678628 
L 315.699269 122.001366 
L 319.523377 119.547208 
L 323.347486 117.985471 
L 327.171594 118.76634 
L 330.995702 118.877892 
L 334.81981 118.654787 
L 338.643918 119.658761 
L 342.468026 119.324103 
L 346.292135 118.654787 
L 350.116243 117.650813 
L 353.940351 126.708886 
L 357.764459 128.270623 
L 361.588567 123.507326 
L 365.412675 120.216524 
L 369.236784 120.941616 
L 376.885 123.339997 
L 380.709108 124.120865 
L 384.533216 130.860503 
L 388.357325 126.296141 
L 392.181433 127.690549 
L 396.005541 128.638746 
L 399.829649 131.260233 
L 403.653757 133.156627 
L 407.477865 132.821969 
L 411.301974 134.049048 
L 415.126082 139.905561 
L 418.95019 133.323956 
L 422.774298 131.929548 
L 426.598406 131.260233 
L 430.422514 130.814022 
L 434.246623 129.308062 
L 438.070731 127.300115 
L 441.894839 126.128812 
L 445.718947 124.678628 
L 449.543055 123.674655 
L 453.367163 121.33205 
L 457.191272 121.610931 
L 461.01538 121.053168 
L 464.839488 122.001366 
L 468.663596 120.941616 
L 472.487704 119.156774 
L 476.311812 116.367958 
L 480.135921 117.780958 
L 483.960029 112.835459 
L 487.784137 108.670828 
L 491.608245 101.096405 
L 495.432353 102.892402 
L 499.256461 109.451696 
L 506.904678 109.191407 
L 510.728786 110.753143 
L 514.552894 110.883288 
L 518.377002 110.622999 
L 522.20111 109.581841 
L 526.025219 110.10242 
L 529.849327 110.10242 
L 533.673435 110.492854 
L 537.497543 109.451696 
L 541.321651 106.874831 
L 545.145759 116.01099 
L 548.969868 114.071834 
L 552.793976 118.665942 
L 556.618084 114.78763 
L 560.442192 116.219222 
L 564.2663 118.041248 
L 568.090409 120.644142 
L 571.914517 121.945589 
L 575.738625 123.832688 
L 579.562733 124.158049 
L 583.386841 126.760944 
L 587.210949 126.630799 
L 591.035058 129.624128 
L 598.683274 130.990647 
L 602.507382 131.90166 
L 606.33149 128.270623 
L 610.155598 138.890432 
L 613.979707 130.014562 
L 617.803815 136.23548 
L 621.627923 129.233694 
L 625.452031 121.945589 
L 629.276139 126.37051 
L 633.100247 125.719786 
L 636.924356 124.873845 
L 640.748464 129.676186 
L 644.572572 123.377181 
L 648.39668 122.466168 
L 652.220788 119.21255 
L 656.044896 125.225236 
L 659.869005 123.273065 
L 663.693113 124.776237 
L 667.517221 131.446154 
L 671.341329 130.404996 
L 675.165437 141.467297 
L 678.989545 136.977304 
L 678.989545 136.977304 
" clip-path="url(#p19cd37c18b)" style="fill: none; stroke-dasharray: 5.55,2.4; stroke-dashoffset: 0; stroke: #808080; stroke-width: 1.5"/>
   </g>
   <g id="patch_3">
    <path d="M 44.57 246.04 
L 44.57 26.88 
" style="fill: none; stroke: #000000; stroke-width: 0.8; stroke-linejoin: miter; stroke-linecap: square"/>
   </g>
   <g id="patch_4">
    <path d="M 709.2 246.04 
L 709.2 26.88 
" style="fill: none; stroke: #000000; stroke-width: 0.8; stroke-linejoin: miter; stroke-linecap: square"/>
   </g>
   <g id="patch_5">
    <path d="M 44.57 246.04 
L 709.2 246.04 
" style="fill: none; stroke: #000000; stroke-width: 0.8; stroke-linejoin: miter; stroke-linecap: square"/>
   </g>
   <g id="patch_6">
    <path d="M 44.57 26.88 
L 709.2 26.88 
" style="fill: none; stroke: #000000; stroke-width: 0.8; stroke-linejoin: miter; stroke-linecap: square"/>
   </g>
   <g id="text_15">
    <!-- Temperatuur - v001/c00001/d031 -->
    <g transform="translate(275.963125 20.88) scale(0.12 -0.12)">
     <defs>
      <path id="DejaVuSans-76" d="M 191 3500 
L 800 3500 
L 1894 563 
L 2988 3500 
L 3597 3500 
L 2284 0 
L 1503 0 
L 191 3500 
z
" transform="scale(0.015625)"/>
      <path id="DejaVuSans-2f" d="M 1625 4666 
L 2156 4666 
L 531 -594 
L 0 -594 
L 1625 4666 
z
" transform="scale(0.015625)"/>
      <path id="DejaVuSans-63" d="M 3122 3366 
L 3122 2828 
Q 2878 2963 2633 3030 
Q 2388 3097 2138 3097 
Q 1578 3097 1268 2742 
Q 959 2388 959 1747 
Q 959 1106 1268 751 
Q 1578 397 2138 397 
Q 2388 397 2633 464 
Q 2878 531 3122 666 
L 3122 134 
Q 2881 22 2623 -34 
Q 2366 -91 2075 -91 
Q 1284 -91 818 406 
Q 353 903 353 1747 
Q 353 2603 823 3093 
Q 1294 3584 2113 3584 
Q 2378 3584 2631 3529 
Q 2884 3475 3122 3366 
z
" transform="scale(0.015625)"/>
     </defs>
     <use xlink:href="#DejaVuSans-54"/>
     <use xlink:href="#DejaVuSans-65" transform="translate(44.083984 0)"/>
     <use xlink:href="#DejaVuSans-6d" transform="translate(105.607422 0)"/>
     <use xlink:href="#DejaVuSans-70" transform="translate(203.019531 0)"/>
     <use xlink:href="#DejaVuSans-65" transform="translate(266.496094 0)"/>
     <use xlink:href="#DejaVuSans-72" transform="translate(328.019531 0)"/>
     <use xlink:href="#DejaVuSans-61" transform="translate(369.132812 0)"/>
     <use xlink:href="#DejaVuSans-74" transform="translate(430.412109 0)"/>
     <use xlink:href="#DejaVuSans-75" transform="translate(469.621094 0)"/>
     <use xlink:href="#DejaVuSans-75" transform="translate(533 0)"/>
     <use xlink:href="#DejaVuSans-72" transform="translate(596.378906 0)"/>
     <use xlink:href="#DejaVuSans-20" transform="translate(637.492188 0)"/>
     <use xlink:href="#DejaVuSans-2d" transform="translate(669.279297 0)"/>
     <use xlink:href="#DejaVuSans-20" transform="translate(705.363281 0)"/>
     <use xlink:href="#DejaVuSans-76" transform="translate(737.150391 0)"/>
     <use xlink:href="#DejaVuSans-30" transform="translate(796.330078 0)"/>
     <use xlink:href="#DejaVuSans-30" transform="translate(859.953125 0)"/>
     <use xlink:href="#DejaVuSans-31" transform="translate(923.576172 0)"/>
     <use xlink:href="#DejaVuSans-2f" transform="translate(987.199219 0)"/>
     <use xlink:href="#DejaVuSans-63" transform="translate(1020.890625 0)"/>
     <use xlink:href="#DejaVuSans-30" transform="translate(1075.871094 0)"/>
     <use xlink:href="#DejaVuSans-30" transform="translate(1139.494141 0)"/>
     <use xlink:href="#DejaVuSans-30" transform="translate(1203.117188 0)"/>
     <use xlink:href="#DejaVuSans-30" transform="translate(1266.740234 0)"/>
     <use xlink:href="#DejaVuSans-31" transform="translate(1330.363281 0)"/>
     <use xlink:href="#DejaVuSans-2f" transform="translate(1393.986328 0)"/>
     <use xlink:href="#DejaVuSans-64" transform="translate(1427.677734 0)"/>
     <use xlink:href="#DejaVuSans-30" transform="translate(1491.154297 0)"/>
     <use xlink:href="#DejaVuSans-33" transform="translate(1554.777344 0)"/>
     <use xlink:href="#DejaVuSans-31" transform="translate(1618.400391 0)"/>
    </g>
   </g>
   <g id="legend_1">
    <g id="patch_7">
     <path d="M 551.25625 241.04 
L 702.2 241.04 
Q 704.2 241.04 704.2 239.04 
L 704.2 196.005625 
Q 704.2 194.005625 702.2 194.005625 
L 551.25625 194.005625 
Q 549.25625 194.005625 549.25625 196.005625 
L 549.25625 239.04 
Q 549.25625 241.04 551.25625 241.04 
z
" style="fill: #ffffff; opacity: 0.8; stroke: #cccccc; stroke-linejoin: miter"/>
    </g>
    <g id="line2d_15">
     <path d="M 553.25625 202.104062 
L 563.25625 202.104062 
L 573.25625 202.104062 
" style="fill: none; stroke: #1f77b4; stroke-width: 2; stroke-linecap: square"/>
    </g>
    <g id="text_16">
     <!-- Hive -->
     <g transform="translate(581.25625 205.604062) scale(0.1 -0.1)">
      <defs>
       <path id="DejaVuSans-48" d="M 628 4666 
L 1259 4666 
L 1259 2753 
L 3553 2753 
L 3553 4666 
L 4184 4666 
L 4184 0 
L 3553 0 
L 3553 2222 
L 1259 2222 
L 1259 0 
L 628 0 
L 628 4666 
z
" transform="scale(0.015625)"/>
      </defs>
      <use xlink:href="#DejaVuSans-48"/>
      <use xlink:href="#DejaVuSans-69" transform="translate(75.195312 0)"/>
      <use xlink:href="#DejaVuSans-76" transform="translate(102.978516 0)"/>
      <use xlink:href="#DejaVuSans-65" transform="translate(162.158203 0)"/>
     </g>
    </g>
    <g id="line2d_16">
     <path d="M 553.25625 216.782187 
L 563.25625 216.782187 
L 573.25625 216.782187 
" style="fill: none; stroke-dasharray: 5.55,2.4; stroke-dashoffset: 0; stroke: #808080; stroke-width: 1.5"/>
    </g>
    <g id="text_17">
     <!-- Gemiddelde (alle hives) -->
     <g transform="translate(581.25625 220.282187) scale(0.1 -0.1)">
      <defs>
       <path id="DejaVuSans-47" d="M 3809 666 
L 3809 1919 
L 2778 1919 
L 2778 2438 
L 4434 2438 
L 4434 434 
Q 4069 175 3628 42 
Q 3188 -91 2688 -91 
Q 1594 -91 976 548 
Q 359 1188 359 2328 
Q 359 3472 976 4111 
Q 1594 4750 2688 4750 
Q 3144 4750 3555 4637 
Q 3966 4525 4313 4306 
L 4313 3634 
Q 3963 3931 3569 4081 
Q 3175 4231 2741 4231 
Q 1884 4231 1454 3753 
Q 1025 3275 1025 2328 
Q 1025 1384 1454 906 
Q 1884 428 2741 428 
Q 3075 428 3337 486 
Q 3600 544 3809 666 
z
" transform="scale(0.015625)"/>
       <path id="DejaVuSans-6c" d="M 603 4863 
L 1178 4863 
L 1178 0 
L 603 0 
L 603 4863 
z
" transform="scale(0.015625)"/>
       <path id="DejaVuSans-68" d="M 3513 2113 
L 3513 0 
L 2938 0 
L 2938 2094 
Q 2938 2591 2744 2837 
Q 2550 3084 2163 3084 
Q 1697 3084 1428 2787 
Q 1159 2491 1159 1978 
L 1159 0 
L 581 0 
L 581 4863 
L 1159 4863 
L 1159 2956 
Q 1366 3272 1645 3428 
Q 1925 3584 2291 3584 
Q 2894 3584 3203 3211 
Q 3513 2838 3513 2113 
z
" transform="scale(0.015625)"/>
       <path id="DejaVuSans-73" d="M 2834 3397 
L 2834 2853 
Q 2591 2978 2328 3040 
Q 2066 3103 1784 3103 
Q 1356 3103 1142 2972 
Q 928 2841 928 2578 
Q 928 2378 1081 2264 
Q 1234 2150 1697 2047 
L 1894 2003 
Q 2506 1872 2764 1633 
Q 3022 1394 3022 966 
Q 3022 478 2636 193 
Q 2250 -91 1575 -91 
Q 1294 -91 989 -36 
Q 684 19 347 128 
L 347 722 
Q 666 556 975 473 
Q 1284 391 1588 391 
Q 1994 391 2212 530 
Q 2431 669 2431 922 
Q 2431 1156 2273 1281 
Q 2116 1406 1581 1522 
L 1381 1569 
Q 847 1681 609 1914 
Q 372 2147 372 2553 
Q 372 3047 722 3315 
Q 1072 3584 1716 3584 
Q 2034 3584 2315 3537 
Q 2597 3491 2834 3397 
z
" transform="scale(0.015625)"/>
      </defs>
      <use xlink:href="#DejaVuSans-47"/>
      <use xlink:href="#DejaVuSans-65" transform="translate(77.490234 0)"/>
      <use xlink:href="#DejaVuSans-6d" transform="translate(139.013672 0)"/>
      <use xlink:href="#DejaVuSans-69" transform="translate(236.425781 0)"/>
      <use xlink:href="#DejaVuSans-64" transform="translate(264.208984 0)"/>
      <use xlink:href="#DejaVuSans-64" transform="translate(327.685547 0)"/>
      <use xlink:href="#DejaVuSans-65" transform="translate(391.162109 0)"/>
      <use xlink:href="#DejaVuSans-6c" transform="translate(452.685547 0)"/>
      <use xlink:href="#DejaVuSans-64" transform="translate(480.46875 0)"/>
      <use xlink:href="#DejaVuSans-65" transform="translate(543.945312 0)"/>
      <use xlink:href="#DejaVuSans-20" transform="translate(605.46875 0)"/>
      <use xlink:href="#DejaVuSans-28" transform="translate(637.255859 0)"/>
      <use xlink:href="#DejaVuSans-61" transform="translate(676.269531 0)"/>
      <use xlink:href="#DejaVuSans-6c" transform="translate(737.548828 0)"/>
      <use xlink:href="#DejaVuSans-6c" transform="translate(765.332031 0)"/>
      <use xlink:href="#DejaVuSans-65" transform="translate(793.115234 0)"/>
      <use xlink:href="#DejaVuSans-20" transform="translate(854.638672 0)"/>
      <use xlink:href="#DejaVuSans-68" transform="translate(886.425781 0)"/>
      <use xlink:href="#DejaVuSans-69" transform="translate(949.804688 0)"/>
      <use xlink:href="#DejaVuSans-76" transform="translate(977.587891 0)"/>
      <use xlink:href="#DejaVuSans-65" transform="translate(1036.767578 0)"/>
      <use xlink:href="#DejaVuSans-73" transform="translate(1098.291016 0)"/>
      <use xlink:href="#DejaVuSans-29" transform="translate(1150.390625 0)"/>
     </g>
    </g>
    <g id="patch_8">
     <path d="M 553.25625 234.960312 
L 573.25625 234.960312 
L 573.25625 227.960312 
L 553.25625 227.960312 
z
" style="fill: #808080; fill-opacity: 0.2; stroke: #808080; stroke-opacity: 0.2; stroke-linejoin: miter"/>
    </g>
    <g id="text_18">
     <!-- ±2 Std Dev -->
     <g transform="translate(581.25625 234.960312) scale(0.1 -0.1)">
      <defs>
       <path id="DejaVuSans-b1" d="M 2944 4013 
L 2944 2803 
L 4684 2803 
L 4684 2272 
L 2944 2272 
L 2944 1063 
L 2419 1063 
L 2419 2272 
L 678 2272 
L 678 2803 
L 2419 2803 
L 2419 4013 
L 2944 4013 
z
M 678 531 
L 4684 531 
L 4684 0 
L 678 0 
L 678 531 
z
" transform="scale(0.015625)"/>
       <path id="DejaVuSans-53" d="M 3425 4513 
L 3425 3897 
Q 3066 4069 2747 4153 
Q 2428 4238 2131 4238 
Q 1616 4238 1336 4038 
Q 1056 3838 1056 3469 
Q 1056 3159 1242 3001 
Q 1428 2844 1947 2747 
L 2328 2669 
Q 3034 2534 3370 2195 
Q 3706 1856 3706 1288 
Q 3706 609 3251 259 
Q 2797 -91 1919 -91 
Q 1588 -91 1214 -16 
Q 841 59 441 206 
L 441 856 
Q 825 641 1194 531 
Q 1563 422 1919 422 
Q 2459 422 2753 634 
Q 3047 847 3047 1241 
Q 3047 1584 2836 1778 
Q 2625 1972 2144 2069 
L 1759 2144 
Q 1053 2284 737 2584 
Q 422 2884 422 3419 
Q 422 4038 858 4394 
Q 1294 4750 2059 4750 
Q 2388 4750 2728 4690 
Q 3069 4631 3425 4513 
z
" transform="scale(0.015625)"/>
       <path id="DejaVuSans-44" d="M 1259 4147 
L 1259 519 
L 2022 519 
Q 2988 519 3436 956 
Q 3884 1394 3884 2338 
Q 3884 3275 3436 3711 
Q 2988 4147 2022 4147 
L 1259 4147 
z
M 628 4666 
L 1925 4666 
Q 3281 4666 3915 4102 
Q 4550 3538 4550 2338 
Q 4550 1131 3912 565 
Q 3275 0 1925 0 
L 628 0 
L 628 4666 
z
" transform="scale(0.015625)"/>
      </defs>
      <use xlink:href="#DejaVuSans-b1"/>
      <use xlink:href="#DejaVuSans-32" transform="translate(83.789062 0)"/>
      <use xlink:href="#DejaVuSans-20" transform="translate(147.412109 0)"/>
      <use xlink:href="#DejaVuSans-53" transform="translate(179.199219 0)"/>
      <use xlink:href="#DejaVuSans-74" transform="translate(242.675781 0)"/>
      <use xlink:href="#DejaVuSans-64" transform="translate(281.884766 0)"/>
      <use xlink:href="#DejaVuSans-20" transform="translate(345.361328 0)"/>
      <use xlink:href="#DejaVuSans-44" transform="translate(377.148438 0)"/>
      <use xlink:href="#DejaVuSans-65" transform="translate(454.150391 0)"/>
      <use xlink:href="#DejaVuSans-76" transform="translate(515.673828 0)"/>
     </g>
    </g>
   </g>
  </g>
 </g>
 <defs>
  <clipPath id="p19cd37c18b">
   <rect x="44.57" y="26.88" width="664.63" height="219.16"/>
  </clipPath>
 </defs>
</svg>
