<?xml version="1.0" encoding="utf-8" standalone="no"?>
<!DOCTYPE svg PUBLIC "-//W3C//DTD SVG 1.1//EN"
  "http://www.w3.org/Graphics/SVG/1.1/DTD/svg11.dtd">
<svg xmlns:xlink="http://www.w3.org/1999/xlink" width="720pt" height="288pt" viewBox="0 0 720 288" xmlns="http://www.w3.org/2000/svg" version="1.1">
 <metadata>
  <rdf:RDF xmlns:dc="http://purl.org/dc/elements/1.1/" xmlns:cc="http://creativecommons.org/ns#" xmlns:rdf="http://www.w3.org/1999/02/22-rdf-syntax-ns#">
   <cc:Work>
    <dc:type rdf:resource="http://purl.org/dc/dcmitype/StillImage"/>
    <dc:date>2025-06-14T16:18:38.526559</dc:date>
    <dc:format>image/svg+xml</dc:format>
    <dc:creator>
     <cc:Agent>
      <dc:title>Matplotlib v3.10.3, https://matplotlib.org/</dc:title>
     </cc:Agent>
    </dc:creator>
   </cc:Work>
  </rdf:RDF>
 </metadata>
 <defs>
  <style type="text/css">*{stroke-linejoin: round; stroke-linecap: butt}</style>
 </defs>
 <g id="figure_1">
  <g id="patch_1">
   <path d="M 0 288 
L 720 288 
L 720 0 
L 0 0 
z
" style="fill: #ffffff"/>
  </g>
  <g id="axes_1">
   <g id="patch_2">
    <path d="M 44.57 246.04 
L 709.2 246.04 
L 709.2 26.88 
L 44.57 26.88 
z
" style="fill: #ffffff"/>
   </g>
   <g id="FillBetweenPolyCollection_1">
    <defs>
     <path id="m5f984b7396" d="M 74.780455 -212.504866 
L 74.780455 -51.921818 
L 78.376937 -102.088571 
L 81.97342 -75.697989 
L 85.569903 -87.270773 
L 89.166385 -95.321266 
L 92.762868 -106.337871 
L 96.359351 -109.838001 
L 99.955833 -112.855923 
L 103.552316 -113.595259 
L 107.148799 -117.082261 
L 110.745281 -115.555329 
L 114.341764 -113.54576 
L 117.938247 -112.329051 
L 121.534729 -112.310602 
L 125.131212 -110.952157 
L 128.727695 -111.470189 
L 132.324177 -109.735842 
L 135.92066 -102.684445 
L 139.517143 -100.180558 
L 143.113626 -98.926575 
L 146.710108 -91.875744 
L 150.306591 -97.483218 
L 153.903074 -100.780079 
L 157.499556 -97.487231 
L 161.096039 -95.638213 
L 164.692522 -96.833304 
L 168.289004 -93.809624 
L 171.885487 -94.520019 
L 175.48197 -94.66997 
L 179.078452 -90.740086 
L 182.674935 -84.034919 
L 186.271418 -83.116215 
L 189.8679 -72.832502 
L 193.464383 -74.96783 
L 197.060866 -76.294867 
L 200.657348 -79.014863 
L 204.253831 -76.554121 
L 207.850314 -74.93851 
L 211.446797 -69.173151 
L 215.043279 -68.386905 
L 218.639762 -69.719983 
L 222.236245 -82.406628 
L 225.832727 -69.353217 
L 229.42921 -72.598466 
L 233.025693 -72.673003 
L 236.622175 -71.598439 
L 240.218658 -74.870527 
L 243.815141 -80.820522 
L 247.411623 -80.740227 
L 251.008106 -82.137412 
L 254.604589 -82.050041 
L 258.201071 -86.398671 
L 261.797554 -89.402424 
L 265.394037 -91.344914 
L 268.990519 -93.969997 
L 272.587002 -99.331978 
L 276.183485 -109.35673 
L 279.779968 -118.266968 
L 283.37645 -124.560832 
L 286.972933 -123.281257 
L 290.569416 -124.853807 
L 294.165898 -125.215457 
L 297.762381 -123.509361 
L 301.358864 -121.857021 
L 304.955346 -123.926825 
L 308.551829 -121.525665 
L 312.148312 -113.364674 
L 315.744794 -109.781924 
L 319.341277 -110.493679 
L 322.93776 -112.5886 
L 326.534242 -107.082865 
L 330.130725 -106.656163 
L 333.727208 -109.243094 
L 337.32369 -109.784388 
L 340.920173 -107.214712 
L 344.516656 -106.698104 
L 348.113139 -106.004359 
L 351.709621 -104.913558 
L 355.306104 -97.980033 
L 358.902587 -96.882137 
L 362.499069 -98.324732 
L 366.095552 -96.555491 
L 369.692035 -96.829821 
L 373.288517 -98.613942 
L 376.885 -99.969129 
L 380.481483 -99.512896 
L 384.077965 -95.935703 
L 387.674448 -99.862787 
L 391.270931 -102.332039 
L 394.867413 -102.228577 
L 398.463896 -105.805046 
L 402.060379 -107.370331 
L 405.656861 -108.30057 
L 409.253344 -107.011393 
L 412.849827 -102.461442 
L 416.44631 -94.99818 
L 420.042792 -95.835287 
L 423.639275 -98.787577 
L 427.235758 -100.764593 
L 430.83224 -96.240337 
L 434.428723 -101.103923 
L 438.025206 -113.627336 
L 441.621688 -128.550198 
L 445.218171 -123.935365 
L 448.814654 -119.91671 
L 452.411136 -123.085452 
L 456.007619 -128.847696 
L 459.604102 -126.388944 
L 463.200584 -128.070596 
L 466.797067 -131.30465 
L 470.39355 -137.188707 
L 473.990032 -137.656196 
L 477.586515 -137.173996 
L 481.182998 -135.058076 
L 484.779481 -128.076237 
L 488.375963 -130.641149 
L 491.972446 -131.421027 
L 495.568929 -136.251416 
L 499.165411 -131.323892 
L 502.761894 -130.194978 
L 506.358377 -128.684464 
L 509.954859 -126.616029 
L 513.551342 -122.834159 
L 517.147825 -123.205554 
L 520.744307 -118.368229 
L 524.34079 -118.761394 
L 527.937273 -113.94067 
L 531.533755 -108.177881 
L 535.130238 -109.921294 
L 538.726721 -108.711631 
L 542.323203 -107.156029 
L 545.919686 -104.36973 
L 549.516169 -101.799991 
L 553.112652 -95.574375 
L 556.709134 -100.616434 
L 560.305617 -99.924567 
L 563.9021 -101.332584 
L 567.498582 -105.039261 
L 571.095065 -101.577566 
L 574.691548 -99.601098 
L 578.28803 -98.713862 
L 581.884513 -97.401242 
L 585.480996 -100.593751 
L 589.077478 -102.354854 
L 592.673961 -110.005103 
L 596.270444 -116.379353 
L 599.866926 -118.430429 
L 603.463409 -117.643117 
L 607.059892 -115.215535 
L 610.656374 -117.738631 
L 614.252857 -127.431346 
L 617.84934 -133.411018 
L 617.84934 -219.493535 
L 617.84934 -219.493535 
L 614.252857 -224.059822 
L 610.656374 -229.640872 
L 607.059892 -232.420948 
L 603.463409 -228.194513 
L 599.866926 -227.150222 
L 596.270444 -226.374529 
L 592.673961 -230.178989 
L 589.077478 -230.890805 
L 585.480996 -230.853055 
L 581.884513 -221.607781 
L 578.28803 -229.777685 
L 574.691548 -227.220086 
L 571.095065 -223.958724 
L 567.498582 -229.234314 
L 563.9021 -218.550167 
L 560.305617 -206.132714 
L 556.709134 -217.724444 
L 553.112652 -205.240535 
L 549.516169 -219.984405 
L 545.919686 -210.244952 
L 542.323203 -209.257506 
L 538.726721 -208.986798 
L 535.130238 -209.190521 
L 531.533755 -216.844451 
L 527.937273 -210.824682 
L 524.34079 -211.143538 
L 520.744307 -212.17915 
L 517.147825 -211.068022 
L 513.551342 -214.009206 
L 509.954859 -215.366916 
L 506.358377 -216.896187 
L 502.761894 -218.212442 
L 499.165411 -209.425554 
L 495.568929 -213.569388 
L 491.972446 -214.57079 
L 488.375963 -233.390594 
L 484.779481 -230.867322 
L 481.182998 -221.829651 
L 477.586515 -220.484668 
L 473.990032 -220.002468 
L 470.39355 -221.497873 
L 466.797067 -225.326098 
L 463.200584 -228.046193 
L 459.604102 -229.984824 
L 456.007619 -230.609821 
L 452.411136 -236.115086 
L 448.814654 -239.026849 
L 445.218171 -247.959935 
L 441.621688 -246.891412 
L 438.025206 -246.858096 
L 434.428723 -251.158182 
L 430.83224 -246.256566 
L 427.235758 -244.522367 
L 423.639275 -240.992691 
L 420.042792 -240.420697 
L 416.44631 -239.165262 
L 412.849827 -233.574275 
L 409.253344 -227.922985 
L 405.656861 -227.184477 
L 402.060379 -223.489095 
L 398.463896 -223.07197 
L 394.867413 -223.784959 
L 391.270931 -221.368686 
L 387.674448 -219.873119 
L 384.077965 -220.826589 
L 380.481483 -216.368325 
L 376.885 -214.590486 
L 373.288517 -213.192327 
L 369.692035 -201.980653 
L 366.095552 -213.819037 
L 362.499069 -214.472741 
L 358.902587 -215.254533 
L 355.306104 -217.901188 
L 351.709621 -216.143954 
L 348.113139 -216.925429 
L 344.516656 -218.98503 
L 340.920173 -209.455801 
L 337.32369 -220.193967 
L 333.727208 -222.277135 
L 330.130725 -227.287011 
L 326.534242 -229.17312 
L 322.93776 -225.099125 
L 319.341277 -220.696148 
L 315.744794 -212.002471 
L 312.148312 -211.503469 
L 308.551829 -221.228217 
L 304.955346 -216.844647 
L 301.358864 -217.592845 
L 297.762381 -215.279702 
L 294.165898 -215.556015 
L 290.569416 -215.47713 
L 286.972933 -217.269948 
L 283.37645 -217.532247 
L 279.779968 -220.742363 
L 276.183485 -224.806712 
L 272.587002 -229.545038 
L 268.990519 -231.052335 
L 265.394037 -230.153133 
L 261.797554 -228.461206 
L 258.201071 -228.821747 
L 254.604589 -229.866361 
L 251.008106 -227.356046 
L 247.411623 -226.110019 
L 243.815141 -224.597983 
L 240.218658 -226.362891 
L 236.622175 -225.890428 
L 233.025693 -226.357738 
L 229.42921 -223.238393 
L 225.832727 -223.730296 
L 222.236245 -226.169048 
L 218.639762 -221.821656 
L 215.043279 -219.740584 
L 211.446797 -217.963134 
L 207.850314 -214.62072 
L 204.253831 -214.657116 
L 200.657348 -213.958516 
L 197.060866 -215.797442 
L 193.464383 -217.45488 
L 189.8679 -206.319078 
L 186.271418 -215.584125 
L 182.674935 -216.868098 
L 179.078452 -213.356812 
L 175.48197 -212.62081 
L 171.885487 -216.405179 
L 168.289004 -220.089188 
L 164.692522 -219.598586 
L 161.096039 -220.903811 
L 157.499556 -223.790549 
L 153.903074 -222.810512 
L 150.306591 -221.371617 
L 146.710108 -225.180239 
L 143.113626 -228.518701 
L 139.517143 -226.273514 
L 135.92066 -222.007485 
L 132.324177 -215.616891 
L 128.727695 -212.781205 
L 125.131212 -211.09656 
L 121.534729 -206.434099 
L 117.938247 -207.516989 
L 114.341764 -205.859745 
L 110.745281 -203.850175 
L 107.148799 -203.424582 
L 103.552316 -205.534911 
L 99.955833 -202.584763 
L 96.359351 -203.840543 
L 92.762868 -195.427861 
L 89.166385 -198.863586 
L 85.569903 -203.95882 
L 81.97342 -218.046327 
L 78.376937 -208.799915 
L 74.780455 -212.504866 
z
" style="stroke: #808080; stroke-opacity: 0.2"/>
    </defs>
    <g clip-path="url(#p4020baad38)">
     <use xlink:href="#m5f984b7396" x="0" y="288" style="fill: #808080; fill-opacity: 0.2; stroke: #808080; stroke-opacity: 0.2"/>
    </g>
   </g>
   <g id="matplotlib.axis_1">
    <g id="xtick_1">
     <g id="line2d_1">
      <defs>
       <path id="m77e0a7df00" d="M 0 0 
L 0 3.5 
" style="stroke: #000000; stroke-width: 0.8"/>
      </defs>
      <g>
       <use xlink:href="#m77e0a7df00" x="46.008593" y="246.04" style="stroke: #000000; stroke-width: 0.8"/>
      </g>
     </g>
     <g id="text_1">
      <!-- 06-11 12 -->
      <g transform="translate(23.528124 260.638438) scale(0.1 -0.1)">
       <defs>
        <path id="DejaVuSans-30" d="M 2034 4250 
Q 1547 4250 1301 3770 
Q 1056 3291 1056 2328 
Q 1056 1369 1301 889 
Q 1547 409 2034 409 
Q 2525 409 2770 889 
Q 3016 1369 3016 2328 
Q 3016 3291 2770 3770 
Q 2525 4250 2034 4250 
z
M 2034 4750 
Q 2819 4750 3233 4129 
Q 3647 3509 3647 2328 
Q 3647 1150 3233 529 
Q 2819 -91 2034 -91 
Q 1250 -91 836 529 
Q 422 1150 422 2328 
Q 422 3509 836 4129 
Q 1250 4750 2034 4750 
z
" transform="scale(0.015625)"/>
        <path id="DejaVuSans-36" d="M 2113 2584 
Q 1688 2584 1439 2293 
Q 1191 2003 1191 1497 
Q 1191 994 1439 701 
Q 1688 409 2113 409 
Q 2538 409 2786 701 
Q 3034 994 3034 1497 
Q 3034 2003 2786 2293 
Q 2538 2584 2113 2584 
z
M 3366 4563 
L 3366 3988 
Q 3128 4100 2886 4159 
Q 2644 4219 2406 4219 
Q 1781 4219 1451 3797 
Q 1122 3375 1075 2522 
Q 1259 2794 1537 2939 
Q 1816 3084 2150 3084 
Q 2853 3084 3261 2657 
Q 3669 2231 3669 1497 
Q 3669 778 3244 343 
Q 2819 -91 2113 -91 
Q 1303 -91 875 529 
Q 447 1150 447 2328 
Q 447 3434 972 4092 
Q 1497 4750 2381 4750 
Q 2619 4750 2861 4703 
Q 3103 4656 3366 4563 
z
" transform="scale(0.015625)"/>
        <path id="DejaVuSans-2d" d="M 313 2009 
L 1997 2009 
L 1997 1497 
L 313 1497 
L 313 2009 
z
" transform="scale(0.015625)"/>
        <path id="DejaVuSans-31" d="M 794 531 
L 1825 531 
L 1825 4091 
L 703 3866 
L 703 4441 
L 1819 4666 
L 2450 4666 
L 2450 531 
L 3481 531 
L 3481 0 
L 794 0 
L 794 531 
z
" transform="scale(0.015625)"/>
        <path id="DejaVuSans-20" transform="scale(0.015625)"/>
        <path id="DejaVuSans-32" d="M 1228 531 
L 3431 531 
L 3431 0 
L 469 0 
L 469 531 
Q 828 903 1448 1529 
Q 2069 2156 2228 2338 
Q 2531 2678 2651 2914 
Q 2772 3150 2772 3378 
Q 2772 3750 2511 3984 
Q 2250 4219 1831 4219 
Q 1534 4219 1204 4116 
Q 875 4013 500 3803 
L 500 4441 
Q 881 4594 1212 4672 
Q 1544 4750 1819 4750 
Q 2544 4750 2975 4387 
Q 3406 4025 3406 3419 
Q 3406 3131 3298 2873 
Q 3191 2616 2906 2266 
Q 2828 2175 2409 1742 
Q 1991 1309 1228 531 
z
" transform="scale(0.015625)"/>
       </defs>
       <use xlink:href="#DejaVuSans-30"/>
       <use xlink:href="#DejaVuSans-36" transform="translate(63.623047 0)"/>
       <use xlink:href="#DejaVuSans-2d" transform="translate(127.246094 0)"/>
       <use xlink:href="#DejaVuSans-31" transform="translate(163.330078 0)"/>
       <use xlink:href="#DejaVuSans-31" transform="translate(226.953125 0)"/>
       <use xlink:href="#DejaVuSans-20" transform="translate(290.576172 0)"/>
       <use xlink:href="#DejaVuSans-31" transform="translate(322.363281 0)"/>
       <use xlink:href="#DejaVuSans-32" transform="translate(385.986328 0)"/>
      </g>
     </g>
    </g>
    <g id="xtick_2">
     <g id="line2d_2">
      <g>
       <use xlink:href="#m77e0a7df00" x="132.324177" y="246.04" style="stroke: #000000; stroke-width: 0.8"/>
      </g>
     </g>
     <g id="text_2">
      <!-- 06-12 00 -->
      <g transform="translate(109.843709 260.638438) scale(0.1 -0.1)">
       <use xlink:href="#DejaVuSans-30"/>
       <use xlink:href="#DejaVuSans-36" transform="translate(63.623047 0)"/>
       <use xlink:href="#DejaVuSans-2d" transform="translate(127.246094 0)"/>
       <use xlink:href="#DejaVuSans-31" transform="translate(163.330078 0)"/>
       <use xlink:href="#DejaVuSans-32" transform="translate(226.953125 0)"/>
       <use xlink:href="#DejaVuSans-20" transform="translate(290.576172 0)"/>
       <use xlink:href="#DejaVuSans-30" transform="translate(322.363281 0)"/>
       <use xlink:href="#DejaVuSans-30" transform="translate(385.986328 0)"/>
      </g>
     </g>
    </g>
    <g id="xtick_3">
     <g id="line2d_3">
      <g>
       <use xlink:href="#m77e0a7df00" x="218.639762" y="246.04" style="stroke: #000000; stroke-width: 0.8"/>
      </g>
     </g>
     <g id="text_3">
      <!-- 06-12 12 -->
      <g transform="translate(196.159293 260.638438) scale(0.1 -0.1)">
       <use xlink:href="#DejaVuSans-30"/>
       <use xlink:href="#DejaVuSans-36" transform="translate(63.623047 0)"/>
       <use xlink:href="#DejaVuSans-2d" transform="translate(127.246094 0)"/>
       <use xlink:href="#DejaVuSans-31" transform="translate(163.330078 0)"/>
       <use xlink:href="#DejaVuSans-32" transform="translate(226.953125 0)"/>
       <use xlink:href="#DejaVuSans-20" transform="translate(290.576172 0)"/>
       <use xlink:href="#DejaVuSans-31" transform="translate(322.363281 0)"/>
       <use xlink:href="#DejaVuSans-32" transform="translate(385.986328 0)"/>
      </g>
     </g>
    </g>
    <g id="xtick_4">
     <g id="line2d_4">
      <g>
       <use xlink:href="#m77e0a7df00" x="304.955346" y="246.04" style="stroke: #000000; stroke-width: 0.8"/>
      </g>
     </g>
     <g id="text_4">
      <!-- 06-13 00 -->
      <g transform="translate(282.474878 260.638438) scale(0.1 -0.1)">
       <defs>
        <path id="DejaVuSans-33" d="M 2597 2516 
Q 3050 2419 3304 2112 
Q 3559 1806 3559 1356 
Q 3559 666 3084 287 
Q 2609 -91 1734 -91 
Q 1441 -91 1130 -33 
Q 819 25 488 141 
L 488 750 
Q 750 597 1062 519 
Q 1375 441 1716 441 
Q 2309 441 2620 675 
Q 2931 909 2931 1356 
Q 2931 1769 2642 2001 
Q 2353 2234 1838 2234 
L 1294 2234 
L 1294 2753 
L 1863 2753 
Q 2328 2753 2575 2939 
Q 2822 3125 2822 3475 
Q 2822 3834 2567 4026 
Q 2313 4219 1838 4219 
Q 1578 4219 1281 4162 
Q 984 4106 628 3988 
L 628 4550 
Q 988 4650 1302 4700 
Q 1616 4750 1894 4750 
Q 2613 4750 3031 4423 
Q 3450 4097 3450 3541 
Q 3450 3153 3228 2886 
Q 3006 2619 2597 2516 
z
" transform="scale(0.015625)"/>
       </defs>
       <use xlink:href="#DejaVuSans-30"/>
       <use xlink:href="#DejaVuSans-36" transform="translate(63.623047 0)"/>
       <use xlink:href="#DejaVuSans-2d" transform="translate(127.246094 0)"/>
       <use xlink:href="#DejaVuSans-31" transform="translate(163.330078 0)"/>
       <use xlink:href="#DejaVuSans-33" transform="translate(226.953125 0)"/>
       <use xlink:href="#DejaVuSans-20" transform="translate(290.576172 0)"/>
       <use xlink:href="#DejaVuSans-30" transform="translate(322.363281 0)"/>
       <use xlink:href="#DejaVuSans-30" transform="translate(385.986328 0)"/>
      </g>
     </g>
    </g>
    <g id="xtick_5">
     <g id="line2d_5">
      <g>
       <use xlink:href="#m77e0a7df00" x="391.270931" y="246.04" style="stroke: #000000; stroke-width: 0.8"/>
      </g>
     </g>
     <g id="text_5">
      <!-- 06-13 12 -->
      <g transform="translate(368.790462 260.638438) scale(0.1 -0.1)">
       <use xlink:href="#DejaVuSans-30"/>
       <use xlink:href="#DejaVuSans-36" transform="translate(63.623047 0)"/>
       <use xlink:href="#DejaVuSans-2d" transform="translate(127.246094 0)"/>
       <use xlink:href="#DejaVuSans-31" transform="translate(163.330078 0)"/>
       <use xlink:href="#DejaVuSans-33" transform="translate(226.953125 0)"/>
       <use xlink:href="#DejaVuSans-20" transform="translate(290.576172 0)"/>
       <use xlink:href="#DejaVuSans-31" transform="translate(322.363281 0)"/>
       <use xlink:href="#DejaVuSans-32" transform="translate(385.986328 0)"/>
      </g>
     </g>
    </g>
    <g id="xtick_6">
     <g id="line2d_6">
      <g>
       <use xlink:href="#m77e0a7df00" x="477.586515" y="246.04" style="stroke: #000000; stroke-width: 0.8"/>
      </g>
     </g>
     <g id="text_6">
      <!-- 06-14 00 -->
      <g transform="translate(455.106046 260.638438) scale(0.1 -0.1)">
       <defs>
        <path id="DejaVuSans-34" d="M 2419 4116 
L 825 1625 
L 2419 1625 
L 2419 4116 
z
M 2253 4666 
L 3047 4666 
L 3047 1625 
L 3713 1625 
L 3713 1100 
L 3047 1100 
L 3047 0 
L 2419 0 
L 2419 1100 
L 313 1100 
L 313 1709 
L 2253 4666 
z
" transform="scale(0.015625)"/>
       </defs>
       <use xlink:href="#DejaVuSans-30"/>
       <use xlink:href="#DejaVuSans-36" transform="translate(63.623047 0)"/>
       <use xlink:href="#DejaVuSans-2d" transform="translate(127.246094 0)"/>
       <use xlink:href="#DejaVuSans-31" transform="translate(163.330078 0)"/>
       <use xlink:href="#DejaVuSans-34" transform="translate(226.953125 0)"/>
       <use xlink:href="#DejaVuSans-20" transform="translate(290.576172 0)"/>
       <use xlink:href="#DejaVuSans-30" transform="translate(322.363281 0)"/>
       <use xlink:href="#DejaVuSans-30" transform="translate(385.986328 0)"/>
      </g>
     </g>
    </g>
    <g id="xtick_7">
     <g id="line2d_7">
      <g>
       <use xlink:href="#m77e0a7df00" x="563.9021" y="246.04" style="stroke: #000000; stroke-width: 0.8"/>
      </g>
     </g>
     <g id="text_7">
      <!-- 06-14 12 -->
      <g transform="translate(541.421631 260.638438) scale(0.1 -0.1)">
       <use xlink:href="#DejaVuSans-30"/>
       <use xlink:href="#DejaVuSans-36" transform="translate(63.623047 0)"/>
       <use xlink:href="#DejaVuSans-2d" transform="translate(127.246094 0)"/>
       <use xlink:href="#DejaVuSans-31" transform="translate(163.330078 0)"/>
       <use xlink:href="#DejaVuSans-34" transform="translate(226.953125 0)"/>
       <use xlink:href="#DejaVuSans-20" transform="translate(290.576172 0)"/>
       <use xlink:href="#DejaVuSans-31" transform="translate(322.363281 0)"/>
       <use xlink:href="#DejaVuSans-32" transform="translate(385.986328 0)"/>
      </g>
     </g>
    </g>
    <g id="xtick_8">
     <g id="line2d_8">
      <g>
       <use xlink:href="#m77e0a7df00" x="650.217684" y="246.04" style="stroke: #000000; stroke-width: 0.8"/>
      </g>
     </g>
     <g id="text_8">
      <!-- 06-15 00 -->
      <g transform="translate(627.737215 260.638438) scale(0.1 -0.1)">
       <defs>
        <path id="DejaVuSans-35" d="M 691 4666 
L 3169 4666 
L 3169 4134 
L 1269 4134 
L 1269 2991 
Q 1406 3038 1543 3061 
Q 1681 3084 1819 3084 
Q 2600 3084 3056 2656 
Q 3513 2228 3513 1497 
Q 3513 744 3044 326 
Q 2575 -91 1722 -91 
Q 1428 -91 1123 -41 
Q 819 9 494 109 
L 494 744 
Q 775 591 1075 516 
Q 1375 441 1709 441 
Q 2250 441 2565 725 
Q 2881 1009 2881 1497 
Q 2881 1984 2565 2268 
Q 2250 2553 1709 2553 
Q 1456 2553 1204 2497 
Q 953 2441 691 2322 
L 691 4666 
z
" transform="scale(0.015625)"/>
       </defs>
       <use xlink:href="#DejaVuSans-30"/>
       <use xlink:href="#DejaVuSans-36" transform="translate(63.623047 0)"/>
       <use xlink:href="#DejaVuSans-2d" transform="translate(127.246094 0)"/>
       <use xlink:href="#DejaVuSans-31" transform="translate(163.330078 0)"/>
       <use xlink:href="#DejaVuSans-35" transform="translate(226.953125 0)"/>
       <use xlink:href="#DejaVuSans-20" transform="translate(290.576172 0)"/>
       <use xlink:href="#DejaVuSans-30" transform="translate(322.363281 0)"/>
       <use xlink:href="#DejaVuSans-30" transform="translate(385.986328 0)"/>
      </g>
     </g>
    </g>
    <g id="text_9">
     <!-- Tijd -->
     <g transform="translate(368.035 274.316562) scale(0.1 -0.1)">
      <defs>
       <path id="DejaVuSans-54" d="M -19 4666 
L 3928 4666 
L 3928 4134 
L 2272 4134 
L 2272 0 
L 1638 0 
L 1638 4134 
L -19 4134 
L -19 4666 
z
" transform="scale(0.015625)"/>
       <path id="DejaVuSans-69" d="M 603 3500 
L 1178 3500 
L 1178 0 
L 603 0 
L 603 3500 
z
M 603 4863 
L 1178 4863 
L 1178 4134 
L 603 4134 
L 603 4863 
z
" transform="scale(0.015625)"/>
       <path id="DejaVuSans-6a" d="M 603 3500 
L 1178 3500 
L 1178 -63 
Q 1178 -731 923 -1031 
Q 669 -1331 103 -1331 
L -116 -1331 
L -116 -844 
L 38 -844 
Q 366 -844 484 -692 
Q 603 -541 603 -63 
L 603 3500 
z
M 603 4863 
L 1178 4863 
L 1178 4134 
L 603 4134 
L 603 4863 
z
" transform="scale(0.015625)"/>
       <path id="DejaVuSans-64" d="M 2906 2969 
L 2906 4863 
L 3481 4863 
L 3481 0 
L 2906 0 
L 2906 525 
Q 2725 213 2448 61 
Q 2172 -91 1784 -91 
Q 1150 -91 751 415 
Q 353 922 353 1747 
Q 353 2572 751 3078 
Q 1150 3584 1784 3584 
Q 2172 3584 2448 3432 
Q 2725 3281 2906 2969 
z
M 947 1747 
Q 947 1113 1208 752 
Q 1469 391 1925 391 
Q 2381 391 2643 752 
Q 2906 1113 2906 1747 
Q 2906 2381 2643 2742 
Q 2381 3103 1925 3103 
Q 1469 3103 1208 2742 
Q 947 2381 947 1747 
z
" transform="scale(0.015625)"/>
      </defs>
      <use xlink:href="#DejaVuSans-54"/>
      <use xlink:href="#DejaVuSans-69" transform="translate(57.958984 0)"/>
      <use xlink:href="#DejaVuSans-6a" transform="translate(85.742188 0)"/>
      <use xlink:href="#DejaVuSans-64" transform="translate(113.525391 0)"/>
     </g>
    </g>
   </g>
   <g id="matplotlib.axis_2">
    <g id="ytick_1">
     <g id="line2d_9">
      <defs>
       <path id="m94c1b7ccab" d="M 0 0 
L -3.5 0 
" style="stroke: #000000; stroke-width: 0.8"/>
      </defs>
      <g>
       <use xlink:href="#m94c1b7ccab" x="44.57" y="233.034544" style="stroke: #000000; stroke-width: 0.8"/>
      </g>
     </g>
     <g id="text_10">
      <!-- 30 -->
      <g transform="translate(24.845 236.833763) scale(0.1 -0.1)">
       <use xlink:href="#DejaVuSans-33"/>
       <use xlink:href="#DejaVuSans-30" transform="translate(63.623047 0)"/>
      </g>
     </g>
    </g>
    <g id="ytick_2">
     <g id="line2d_10">
      <g>
       <use xlink:href="#m94c1b7ccab" x="44.57" y="186.778325" style="stroke: #000000; stroke-width: 0.8"/>
      </g>
     </g>
     <g id="text_11">
      <!-- 32 -->
      <g transform="translate(24.845 190.577544) scale(0.1 -0.1)">
       <use xlink:href="#DejaVuSans-33"/>
       <use xlink:href="#DejaVuSans-32" transform="translate(63.623047 0)"/>
      </g>
     </g>
    </g>
    <g id="ytick_3">
     <g id="line2d_11">
      <g>
       <use xlink:href="#m94c1b7ccab" x="44.57" y="140.522106" style="stroke: #000000; stroke-width: 0.8"/>
      </g>
     </g>
     <g id="text_12">
      <!-- 34 -->
      <g transform="translate(24.845 144.321324) scale(0.1 -0.1)">
       <use xlink:href="#DejaVuSans-33"/>
       <use xlink:href="#DejaVuSans-34" transform="translate(63.623047 0)"/>
      </g>
     </g>
    </g>
    <g id="ytick_4">
     <g id="line2d_12">
      <g>
       <use xlink:href="#m94c1b7ccab" x="44.57" y="94.265886" style="stroke: #000000; stroke-width: 0.8"/>
      </g>
     </g>
     <g id="text_13">
      <!-- 36 -->
      <g transform="translate(24.845 98.065105) scale(0.1 -0.1)">
       <use xlink:href="#DejaVuSans-33"/>
       <use xlink:href="#DejaVuSans-36" transform="translate(63.623047 0)"/>
      </g>
     </g>
    </g>
    <g id="ytick_5">
     <g id="line2d_13">
      <g>
       <use xlink:href="#m94c1b7ccab" x="44.57" y="48.009667" style="stroke: #000000; stroke-width: 0.8"/>
      </g>
     </g>
     <g id="text_14">
      <!-- 38 -->
      <g transform="translate(24.845 51.808886) scale(0.1 -0.1)">
       <defs>
        <path id="DejaVuSans-38" d="M 2034 2216 
Q 1584 2216 1326 1975 
Q 1069 1734 1069 1313 
Q 1069 891 1326 650 
Q 1584 409 2034 409 
Q 2484 409 2743 651 
Q 3003 894 3003 1313 
Q 3003 1734 2745 1975 
Q 2488 2216 2034 2216 
z
M 1403 2484 
Q 997 2584 770 2862 
Q 544 3141 544 3541 
Q 544 4100 942 4425 
Q 1341 4750 2034 4750 
Q 2731 4750 3128 4425 
Q 3525 4100 3525 3541 
Q 3525 3141 3298 2862 
Q 3072 2584 2669 2484 
Q 3125 2378 3379 2068 
Q 3634 1759 3634 1313 
Q 3634 634 3220 271 
Q 2806 -91 2034 -91 
Q 1263 -91 848 271 
Q 434 634 434 1313 
Q 434 1759 690 2068 
Q 947 2378 1403 2484 
z
M 1172 3481 
Q 1172 3119 1398 2916 
Q 1625 2713 2034 2713 
Q 2441 2713 2670 2916 
Q 2900 3119 2900 3481 
Q 2900 3844 2670 4047 
Q 2441 4250 2034 4250 
Q 1625 4250 1398 4047 
Q 1172 3844 1172 3481 
z
" transform="scale(0.015625)"/>
       </defs>
       <use xlink:href="#DejaVuSans-33"/>
       <use xlink:href="#DejaVuSans-38" transform="translate(63.623047 0)"/>
      </g>
     </g>
    </g>
    <g id="text_15">
     <!-- Temperatuur (°C) -->
     <g transform="translate(18.765312 179.81625) rotate(-90) scale(0.1 -0.1)">
      <defs>
       <path id="DejaVuSans-65" d="M 3597 1894 
L 3597 1613 
L 953 1613 
Q 991 1019 1311 708 
Q 1631 397 2203 397 
Q 2534 397 2845 478 
Q 3156 559 3463 722 
L 3463 178 
Q 3153 47 2828 -22 
Q 2503 -91 2169 -91 
Q 1331 -91 842 396 
Q 353 884 353 1716 
Q 353 2575 817 3079 
Q 1281 3584 2069 3584 
Q 2775 3584 3186 3129 
Q 3597 2675 3597 1894 
z
M 3022 2063 
Q 3016 2534 2758 2815 
Q 2500 3097 2075 3097 
Q 1594 3097 1305 2825 
Q 1016 2553 972 2059 
L 3022 2063 
z
" transform="scale(0.015625)"/>
       <path id="DejaVuSans-6d" d="M 3328 2828 
Q 3544 3216 3844 3400 
Q 4144 3584 4550 3584 
Q 5097 3584 5394 3201 
Q 5691 2819 5691 2113 
L 5691 0 
L 5113 0 
L 5113 2094 
Q 5113 2597 4934 2840 
Q 4756 3084 4391 3084 
Q 3944 3084 3684 2787 
Q 3425 2491 3425 1978 
L 3425 0 
L 2847 0 
L 2847 2094 
Q 2847 2600 2669 2842 
Q 2491 3084 2119 3084 
Q 1678 3084 1418 2786 
Q 1159 2488 1159 1978 
L 1159 0 
L 581 0 
L 581 3500 
L 1159 3500 
L 1159 2956 
Q 1356 3278 1631 3431 
Q 1906 3584 2284 3584 
Q 2666 3584 2933 3390 
Q 3200 3197 3328 2828 
z
" transform="scale(0.015625)"/>
       <path id="DejaVuSans-70" d="M 1159 525 
L 1159 -1331 
L 581 -1331 
L 581 3500 
L 1159 3500 
L 1159 2969 
Q 1341 3281 1617 3432 
Q 1894 3584 2278 3584 
Q 2916 3584 3314 3078 
Q 3713 2572 3713 1747 
Q 3713 922 3314 415 
Q 2916 -91 2278 -91 
Q 1894 -91 1617 61 
Q 1341 213 1159 525 
z
M 3116 1747 
Q 3116 2381 2855 2742 
Q 2594 3103 2138 3103 
Q 1681 3103 1420 2742 
Q 1159 2381 1159 1747 
Q 1159 1113 1420 752 
Q 1681 391 2138 391 
Q 2594 391 2855 752 
Q 3116 1113 3116 1747 
z
" transform="scale(0.015625)"/>
       <path id="DejaVuSans-72" d="M 2631 2963 
Q 2534 3019 2420 3045 
Q 2306 3072 2169 3072 
Q 1681 3072 1420 2755 
Q 1159 2438 1159 1844 
L 1159 0 
L 581 0 
L 581 3500 
L 1159 3500 
L 1159 2956 
Q 1341 3275 1631 3429 
Q 1922 3584 2338 3584 
Q 2397 3584 2469 3576 
Q 2541 3569 2628 3553 
L 2631 2963 
z
" transform="scale(0.015625)"/>
       <path id="DejaVuSans-61" d="M 2194 1759 
Q 1497 1759 1228 1600 
Q 959 1441 959 1056 
Q 959 750 1161 570 
Q 1363 391 1709 391 
Q 2188 391 2477 730 
Q 2766 1069 2766 1631 
L 2766 1759 
L 2194 1759 
z
M 3341 1997 
L 3341 0 
L 2766 0 
L 2766 531 
Q 2569 213 2275 61 
Q 1981 -91 1556 -91 
Q 1019 -91 701 211 
Q 384 513 384 1019 
Q 384 1609 779 1909 
Q 1175 2209 1959 2209 
L 2766 2209 
L 2766 2266 
Q 2766 2663 2505 2880 
Q 2244 3097 1772 3097 
Q 1472 3097 1187 3025 
Q 903 2953 641 2809 
L 641 3341 
Q 956 3463 1253 3523 
Q 1550 3584 1831 3584 
Q 2591 3584 2966 3190 
Q 3341 2797 3341 1997 
z
" transform="scale(0.015625)"/>
       <path id="DejaVuSans-74" d="M 1172 4494 
L 1172 3500 
L 2356 3500 
L 2356 3053 
L 1172 3053 
L 1172 1153 
Q 1172 725 1289 603 
Q 1406 481 1766 481 
L 2356 481 
L 2356 0 
L 1766 0 
Q 1100 0 847 248 
Q 594 497 594 1153 
L 594 3053 
L 172 3053 
L 172 3500 
L 594 3500 
L 594 4494 
L 1172 4494 
z
" transform="scale(0.015625)"/>
       <path id="DejaVuSans-75" d="M 544 1381 
L 544 3500 
L 1119 3500 
L 1119 1403 
Q 1119 906 1312 657 
Q 1506 409 1894 409 
Q 2359 409 2629 706 
Q 2900 1003 2900 1516 
L 2900 3500 
L 3475 3500 
L 3475 0 
L 2900 0 
L 2900 538 
Q 2691 219 2414 64 
Q 2138 -91 1772 -91 
Q 1169 -91 856 284 
Q 544 659 544 1381 
z
M 1991 3584 
L 1991 3584 
z
" transform="scale(0.015625)"/>
       <path id="DejaVuSans-28" d="M 1984 4856 
Q 1566 4138 1362 3434 
Q 1159 2731 1159 2009 
Q 1159 1288 1364 580 
Q 1569 -128 1984 -844 
L 1484 -844 
Q 1016 -109 783 600 
Q 550 1309 550 2009 
Q 550 2706 781 3412 
Q 1013 4119 1484 4856 
L 1984 4856 
z
" transform="scale(0.015625)"/>
       <path id="DejaVuSans-b0" d="M 1600 4347 
Q 1350 4347 1178 4173 
Q 1006 4000 1006 3750 
Q 1006 3503 1178 3333 
Q 1350 3163 1600 3163 
Q 1850 3163 2022 3333 
Q 2194 3503 2194 3750 
Q 2194 3997 2020 4172 
Q 1847 4347 1600 4347 
z
M 1600 4750 
Q 1800 4750 1984 4673 
Q 2169 4597 2303 4453 
Q 2447 4313 2519 4134 
Q 2591 3956 2591 3750 
Q 2591 3338 2302 3052 
Q 2013 2766 1594 2766 
Q 1172 2766 890 3047 
Q 609 3328 609 3750 
Q 609 4169 896 4459 
Q 1184 4750 1600 4750 
z
" transform="scale(0.015625)"/>
       <path id="DejaVuSans-43" d="M 4122 4306 
L 4122 3641 
Q 3803 3938 3442 4084 
Q 3081 4231 2675 4231 
Q 1875 4231 1450 3742 
Q 1025 3253 1025 2328 
Q 1025 1406 1450 917 
Q 1875 428 2675 428 
Q 3081 428 3442 575 
Q 3803 722 4122 1019 
L 4122 359 
Q 3791 134 3420 21 
Q 3050 -91 2638 -91 
Q 1578 -91 968 557 
Q 359 1206 359 2328 
Q 359 3453 968 4101 
Q 1578 4750 2638 4750 
Q 3056 4750 3426 4639 
Q 3797 4528 4122 4306 
z
" transform="scale(0.015625)"/>
       <path id="DejaVuSans-29" d="M 513 4856 
L 1013 4856 
Q 1481 4119 1714 3412 
Q 1947 2706 1947 2009 
Q 1947 1309 1714 600 
Q 1481 -109 1013 -844 
L 513 -844 
Q 928 -128 1133 580 
Q 1338 1288 1338 2009 
Q 1338 2731 1133 3434 
Q 928 4138 513 4856 
z
" transform="scale(0.015625)"/>
      </defs>
      <use xlink:href="#DejaVuSans-54"/>
      <use xlink:href="#DejaVuSans-65" transform="translate(44.083984 0)"/>
      <use xlink:href="#DejaVuSans-6d" transform="translate(105.607422 0)"/>
      <use xlink:href="#DejaVuSans-70" transform="translate(203.019531 0)"/>
      <use xlink:href="#DejaVuSans-65" transform="translate(266.496094 0)"/>
      <use xlink:href="#DejaVuSans-72" transform="translate(328.019531 0)"/>
      <use xlink:href="#DejaVuSans-61" transform="translate(369.132812 0)"/>
      <use xlink:href="#DejaVuSans-74" transform="translate(430.412109 0)"/>
      <use xlink:href="#DejaVuSans-75" transform="translate(469.621094 0)"/>
      <use xlink:href="#DejaVuSans-75" transform="translate(533 0)"/>
      <use xlink:href="#DejaVuSans-72" transform="translate(596.378906 0)"/>
      <use xlink:href="#DejaVuSans-20" transform="translate(637.492188 0)"/>
      <use xlink:href="#DejaVuSans-28" transform="translate(669.279297 0)"/>
      <use xlink:href="#DejaVuSans-b0" transform="translate(708.292969 0)"/>
      <use xlink:href="#DejaVuSans-43" transform="translate(758.292969 0)"/>
      <use xlink:href="#DejaVuSans-29" transform="translate(828.117188 0)"/>
     </g>
    </g>
   </g>
   <g id="line2d_14">
    <path d="M 74.780455 212.219246 
L 81.97342 204.124407 
L 85.569903 185.62192 
L 89.166385 175.21427 
L 92.762868 161.337404 
L 96.359351 159.024593 
L 99.955833 155.555377 
L 103.552316 157.482719 
L 107.148799 155.169909 
L 110.745281 155.169909 
L 117.938247 161.337404 
L 121.534729 165.192089 
L 125.131212 169.817711 
L 132.324177 172.901459 
L 135.92066 176.756144 
L 139.517143 172.901459 
L 143.113626 177.527081 
L 146.710108 175.21427 
L 150.306591 168.275837 
L 153.903074 169.046774 
L 157.499556 172.130522 
L 161.096039 169.817711 
L 164.692522 166.733963 
L 168.289004 167.5049 
L 171.885487 164.421152 
L 175.48197 163.650215 
L 179.078452 167.5049 
L 182.674935 172.130522 
L 186.271418 169.046774 
L 189.8679 175.21427 
L 193.464383 177.527081 
L 197.060866 175.985207 
L 200.657348 172.130522 
L 204.253831 174.443333 
L 207.850314 178.298018 
L 211.446797 180.610829 
L 215.043279 179.839892 
L 218.639762 185.236451 
L 222.236245 184.465514 
L 225.832727 184.465514 
L 229.42921 185.236451 
L 233.025693 182.92364 
L 236.622175 181.381766 
L 240.218658 182.152703 
L 243.815141 174.443333 
L 247.411623 174.443333 
L 251.008106 175.21427 
L 254.604589 173.672396 
L 258.201071 171.745054 
L 261.797554 171.359585 
L 265.394037 169.817711 
L 268.990519 174.057865 
L 272.587002 171.359585 
L 276.183485 168.275837 
L 279.779968 162.879278 
L 283.37645 158.253656 
L 286.972933 162.879278 
L 290.569416 162.879278 
L 294.165898 163.650215 
L 301.358864 166.733963 
L 304.955346 162.879278 
L 308.551829 165.963026 
L 312.148312 164.421152 
L 315.744794 163.650215 
L 319.341277 163.650215 
L 326.534242 165.192089 
L 330.130725 169.046774 
L 333.727208 168.275837 
L 337.32369 164.421152 
L 340.920173 162.108341 
L 344.516656 165.963026 
L 348.113139 163.650215 
L 351.709621 159.024593 
L 355.306104 165.963026 
L 358.902587 165.963026 
L 362.499069 162.879278 
L 366.095552 165.963026 
L 369.692035 166.733963 
L 373.288517 165.963026 
L 376.885 166.733963 
L 380.481483 165.963026 
L 384.077965 167.119432 
L 387.674448 160.566467 
L 391.270931 153.628035 
L 394.867413 145.918665 
L 398.463896 146.304133 
L 402.060379 144.376791 
L 405.656861 147.460539 
L 409.253344 142.06398 
L 412.849827 143.991322 
L 416.44631 151.315224 
L 420.042792 152.086161 
L 423.639275 146.304133 
L 427.235758 143.605854 
L 430.83224 147.460539 
L 434.428723 145.147728 
L 438.025206 140.522106 
L 441.621688 142.06398 
L 445.218171 148.616944 
L 448.814654 149.77335 
L 452.411136 149.77335 
L 456.007619 145.918665 
L 459.604102 151.315224 
L 463.200584 150.544287 
L 466.797067 150.544287 
L 470.39355 145.147728 
L 473.990032 144.376791 
L 477.586515 145.918665 
L 481.182998 145.918665 
L 484.779481 149.77335 
L 488.375963 142.834917 
L 491.972446 142.834917 
L 495.568929 141.293043 
L 499.165411 140.522106 
L 502.761894 144.376791 
L 506.358377 142.834917 
L 509.954859 145.918665 
L 513.551342 149.77335 
L 517.147825 147.460539 
L 520.744307 149.77335 
L 524.34079 148.231476 
L 527.937273 153.628035 
L 531.533755 153.628035 
L 535.130238 155.940845 
L 538.726721 152.857098 
L 542.323203 155.169909 
L 545.919686 158.253656 
L 549.516169 159.024593 
L 553.112652 165.192089 
L 556.709134 157.482719 
L 563.9021 155.940845 
L 567.498582 155.555377 
L 571.095065 153.628035 
L 574.691548 150.544287 
L 578.28803 152.086161 
L 581.884513 151.315224 
L 585.480996 148.231476 
L 589.077478 149.77335 
L 592.673961 145.918665 
L 596.270444 143.605854 
L 599.866926 142.06398 
L 603.463409 139.751169 
L 607.059892 144.376791 
L 610.656374 148.231476 
L 614.252857 144.376791 
L 617.84934 138.980232 
L 617.84934 138.980232 
" clip-path="url(#p4020baad38)" style="fill: none; stroke: #1f77b4; stroke-width: 2; stroke-linecap: square"/>
   </g>
   <g id="line2d_15">
    <path d="M 74.780455 155.786658 
L 78.376937 132.555757 
L 81.97342 141.127842 
L 85.569903 142.385203 
L 89.166385 140.907574 
L 92.762868 137.117134 
L 96.359351 131.160728 
L 99.955833 130.279657 
L 103.552316 128.434915 
L 107.148799 127.746578 
L 110.745281 128.297248 
L 114.341764 128.297248 
L 117.938247 128.07698 
L 121.534729 128.627649 
L 125.131212 126.975641 
L 128.727695 125.874303 
L 132.324177 125.323634 
L 135.92066 125.654035 
L 139.517143 124.772964 
L 143.113626 124.277362 
L 146.710108 129.472009 
L 150.306591 128.572582 
L 153.903074 126.204704 
L 157.499556 127.36111 
L 161.096039 129.728988 
L 164.692522 129.784055 
L 168.289004 131.050594 
L 171.885487 132.537401 
L 175.48197 134.35461 
L 182.674935 137.548492 
L 186.271418 138.64983 
L 189.8679 148.42421 
L 193.464383 141.788645 
L 197.060866 141.953846 
L 200.657348 141.51331 
L 207.850314 143.220385 
L 211.446797 144.431858 
L 215.043279 143.936255 
L 218.639762 142.22918 
L 222.236245 133.712162 
L 225.832727 141.458243 
L 229.42921 140.08157 
L 233.025693 138.484629 
L 236.622175 139.255566 
L 240.218658 137.383291 
L 243.815141 135.290748 
L 247.411623 134.574877 
L 254.604589 132.041799 
L 258.201071 130.389791 
L 261.797554 129.068185 
L 272.587002 123.561492 
L 276.183485 120.918279 
L 279.779968 118.495335 
L 283.37645 116.953461 
L 286.972933 117.724398 
L 290.569416 117.834531 
L 294.165898 117.614264 
L 297.762381 118.605468 
L 301.358864 118.275067 
L 304.955346 117.614264 
L 308.551829 116.623059 
L 312.148312 125.565928 
L 315.744794 127.107802 
L 319.341277 122.405086 
L 322.93776 119.156138 
L 326.534242 119.872008 
L 333.727208 122.239886 
L 337.32369 123.010823 
L 340.920173 129.664743 
L 344.516656 125.158433 
L 348.113139 126.535106 
L 351.709621 127.471244 
L 355.306104 130.059389 
L 358.902587 131.931665 
L 362.499069 131.601263 
L 366.095552 132.812736 
L 369.692035 138.594763 
L 373.288517 132.096866 
L 376.885 130.720193 
L 380.481483 130.059389 
L 384.077965 129.618854 
L 387.674448 128.132047 
L 391.270931 126.149638 
L 394.867413 124.993232 
L 398.463896 123.561492 
L 402.060379 122.570287 
L 405.656861 120.257476 
L 409.253344 120.532811 
L 412.849827 119.982142 
L 416.44631 120.918279 
L 420.042792 119.872008 
L 423.639275 118.109866 
L 427.235758 115.35652 
L 430.83224 116.751549 
L 434.428723 111.868948 
L 438.025206 107.757284 
L 441.621688 100.279195 
L 445.218171 102.05235 
L 448.814654 108.528221 
L 456.007619 108.271242 
L 459.604102 109.813116 
L 463.200584 109.941605 
L 466.797067 109.684626 
L 470.39355 108.65671 
L 473.990032 109.170668 
L 477.586515 109.170668 
L 481.182998 109.556137 
L 484.779481 108.528221 
L 488.375963 105.984129 
L 491.972446 115.004091 
L 495.568929 113.089598 
L 499.165411 117.625277 
L 502.761894 113.79629 
L 506.358377 115.209675 
L 509.954859 117.008528 
L 513.551342 119.578317 
L 517.147825 120.863212 
L 520.744307 122.72631 
L 524.34079 123.047534 
L 527.937273 125.617324 
L 531.533755 125.488834 
L 535.130238 128.444093 
L 542.323203 129.793233 
L 545.919686 130.692659 
L 549.516169 127.107802 
L 553.112652 137.592545 
L 556.709134 128.829561 
L 560.305617 134.971359 
L 563.9021 128.058624 
L 567.498582 120.863212 
L 571.095065 125.231855 
L 574.691548 124.589408 
L 578.28803 123.754226 
L 581.884513 128.495489 
L 585.480996 122.276597 
L 589.077478 121.37717 
L 592.673961 117.907954 
L 596.270444 116.623059 
L 599.866926 115.209675 
L 603.463409 115.081185 
L 607.059892 114.181759 
L 610.656374 114.310248 
L 614.252857 112.254416 
L 617.84934 111.547724 
L 621.445823 129.728988 
L 625.042305 125.874303 
L 628.638788 127.416177 
L 632.235271 125.103366 
L 635.831753 119.706807 
L 639.428236 121.248681 
L 643.024719 118.164933 
L 646.621201 119.706807 
L 650.217684 116.623059 
L 653.814167 117.393996 
L 657.410649 118.550402 
L 664.603615 124.332429 
L 671.79658 105.829941 
L 675.393063 106.600878 
L 678.989545 109.299158 
L 678.989545 109.299158 
" clip-path="url(#p4020baad38)" style="fill: none; stroke-dasharray: 5.55,2.4; stroke-dashoffset: 0; stroke: #808080; stroke-width: 1.5"/>
   </g>
   <g id="patch_3">
    <path d="M 44.57 246.04 
L 44.57 26.88 
" style="fill: none; stroke: #000000; stroke-width: 0.8; stroke-linejoin: miter; stroke-linecap: square"/>
   </g>
   <g id="patch_4">
    <path d="M 709.2 246.04 
L 709.2 26.88 
" style="fill: none; stroke: #000000; stroke-width: 0.8; stroke-linejoin: miter; stroke-linecap: square"/>
   </g>
   <g id="patch_5">
    <path d="M 44.57 246.04 
L 709.2 246.04 
" style="fill: none; stroke: #000000; stroke-width: 0.8; stroke-linejoin: miter; stroke-linecap: square"/>
   </g>
   <g id="patch_6">
    <path d="M 44.57 26.88 
L 709.2 26.88 
" style="fill: none; stroke: #000000; stroke-width: 0.8; stroke-linejoin: miter; stroke-linecap: square"/>
   </g>
   <g id="text_16">
    <!-- Temperatuur - v001/c00001/d001 -->
    <g transform="translate(275.963125 20.88) scale(0.12 -0.12)">
     <defs>
      <path id="DejaVuSans-76" d="M 191 3500 
L 800 3500 
L 1894 563 
L 2988 3500 
L 3597 3500 
L 2284 0 
L 1503 0 
L 191 3500 
z
" transform="scale(0.015625)"/>
      <path id="DejaVuSans-2f" d="M 1625 4666 
L 2156 4666 
L 531 -594 
L 0 -594 
L 1625 4666 
z
" transform="scale(0.015625)"/>
      <path id="DejaVuSans-63" d="M 3122 3366 
L 3122 2828 
Q 2878 2963 2633 3030 
Q 2388 3097 2138 3097 
Q 1578 3097 1268 2742 
Q 959 2388 959 1747 
Q 959 1106 1268 751 
Q 1578 397 2138 397 
Q 2388 397 2633 464 
Q 2878 531 3122 666 
L 3122 134 
Q 2881 22 2623 -34 
Q 2366 -91 2075 -91 
Q 1284 -91 818 406 
Q 353 903 353 1747 
Q 353 2603 823 3093 
Q 1294 3584 2113 3584 
Q 2378 3584 2631 3529 
Q 2884 3475 3122 3366 
z
" transform="scale(0.015625)"/>
     </defs>
     <use xlink:href="#DejaVuSans-54"/>
     <use xlink:href="#DejaVuSans-65" transform="translate(44.083984 0)"/>
     <use xlink:href="#DejaVuSans-6d" transform="translate(105.607422 0)"/>
     <use xlink:href="#DejaVuSans-70" transform="translate(203.019531 0)"/>
     <use xlink:href="#DejaVuSans-65" transform="translate(266.496094 0)"/>
     <use xlink:href="#DejaVuSans-72" transform="translate(328.019531 0)"/>
     <use xlink:href="#DejaVuSans-61" transform="translate(369.132812 0)"/>
     <use xlink:href="#DejaVuSans-74" transform="translate(430.412109 0)"/>
     <use xlink:href="#DejaVuSans-75" transform="translate(469.621094 0)"/>
     <use xlink:href="#DejaVuSans-75" transform="translate(533 0)"/>
     <use xlink:href="#DejaVuSans-72" transform="translate(596.378906 0)"/>
     <use xlink:href="#DejaVuSans-20" transform="translate(637.492188 0)"/>
     <use xlink:href="#DejaVuSans-2d" transform="translate(669.279297 0)"/>
     <use xlink:href="#DejaVuSans-20" transform="translate(705.363281 0)"/>
     <use xlink:href="#DejaVuSans-76" transform="translate(737.150391 0)"/>
     <use xlink:href="#DejaVuSans-30" transform="translate(796.330078 0)"/>
     <use xlink:href="#DejaVuSans-30" transform="translate(859.953125 0)"/>
     <use xlink:href="#DejaVuSans-31" transform="translate(923.576172 0)"/>
     <use xlink:href="#DejaVuSans-2f" transform="translate(987.199219 0)"/>
     <use xlink:href="#DejaVuSans-63" transform="translate(1020.890625 0)"/>
     <use xlink:href="#DejaVuSans-30" transform="translate(1075.871094 0)"/>
     <use xlink:href="#DejaVuSans-30" transform="translate(1139.494141 0)"/>
     <use xlink:href="#DejaVuSans-30" transform="translate(1203.117188 0)"/>
     <use xlink:href="#DejaVuSans-30" transform="translate(1266.740234 0)"/>
     <use xlink:href="#DejaVuSans-31" transform="translate(1330.363281 0)"/>
     <use xlink:href="#DejaVuSans-2f" transform="translate(1393.986328 0)"/>
     <use xlink:href="#DejaVuSans-64" transform="translate(1427.677734 0)"/>
     <use xlink:href="#DejaVuSans-30" transform="translate(1491.154297 0)"/>
     <use xlink:href="#DejaVuSans-30" transform="translate(1554.777344 0)"/>
     <use xlink:href="#DejaVuSans-31" transform="translate(1618.400391 0)"/>
    </g>
   </g>
   <g id="legend_1">
    <g id="patch_7">
     <path d="M 551.25625 241.04 
L 702.2 241.04 
Q 704.2 241.04 704.2 239.04 
L 704.2 196.005625 
Q 704.2 194.005625 702.2 194.005625 
L 551.25625 194.005625 
Q 549.25625 194.005625 549.25625 196.005625 
L 549.25625 239.04 
Q 549.25625 241.04 551.25625 241.04 
z
" style="fill: #ffffff; opacity: 0.8; stroke: #cccccc; stroke-linejoin: miter"/>
    </g>
    <g id="line2d_16">
     <path d="M 553.25625 202.104062 
L 563.25625 202.104062 
L 573.25625 202.104062 
" style="fill: none; stroke: #1f77b4; stroke-width: 2; stroke-linecap: square"/>
    </g>
    <g id="text_17">
     <!-- Hive -->
     <g transform="translate(581.25625 205.604062) scale(0.1 -0.1)">
      <defs>
       <path id="DejaVuSans-48" d="M 628 4666 
L 1259 4666 
L 1259 2753 
L 3553 2753 
L 3553 4666 
L 4184 4666 
L 4184 0 
L 3553 0 
L 3553 2222 
L 1259 2222 
L 1259 0 
L 628 0 
L 628 4666 
z
" transform="scale(0.015625)"/>
      </defs>
      <use xlink:href="#DejaVuSans-48"/>
      <use xlink:href="#DejaVuSans-69" transform="translate(75.195312 0)"/>
      <use xlink:href="#DejaVuSans-76" transform="translate(102.978516 0)"/>
      <use xlink:href="#DejaVuSans-65" transform="translate(162.158203 0)"/>
     </g>
    </g>
    <g id="line2d_17">
     <path d="M 553.25625 216.782187 
L 563.25625 216.782187 
L 573.25625 216.782187 
" style="fill: none; stroke-dasharray: 5.55,2.4; stroke-dashoffset: 0; stroke: #808080; stroke-width: 1.5"/>
    </g>
    <g id="text_18">
     <!-- Gemiddelde (alle hives) -->
     <g transform="translate(581.25625 220.282187) scale(0.1 -0.1)">
      <defs>
       <path id="DejaVuSans-47" d="M 3809 666 
L 3809 1919 
L 2778 1919 
L 2778 2438 
L 4434 2438 
L 4434 434 
Q 4069 175 3628 42 
Q 3188 -91 2688 -91 
Q 1594 -91 976 548 
Q 359 1188 359 2328 
Q 359 3472 976 4111 
Q 1594 4750 2688 4750 
Q 3144 4750 3555 4637 
Q 3966 4525 4313 4306 
L 4313 3634 
Q 3963 3931 3569 4081 
Q 3175 4231 2741 4231 
Q 1884 4231 1454 3753 
Q 1025 3275 1025 2328 
Q 1025 1384 1454 906 
Q 1884 428 2741 428 
Q 3075 428 3337 486 
Q 3600 544 3809 666 
z
" transform="scale(0.015625)"/>
       <path id="DejaVuSans-6c" d="M 603 4863 
L 1178 4863 
L 1178 0 
L 603 0 
L 603 4863 
z
" transform="scale(0.015625)"/>
       <path id="DejaVuSans-68" d="M 3513 2113 
L 3513 0 
L 2938 0 
L 2938 2094 
Q 2938 2591 2744 2837 
Q 2550 3084 2163 3084 
Q 1697 3084 1428 2787 
Q 1159 2491 1159 1978 
L 1159 0 
L 581 0 
L 581 4863 
L 1159 4863 
L 1159 2956 
Q 1366 3272 1645 3428 
Q 1925 3584 2291 3584 
Q 2894 3584 3203 3211 
Q 3513 2838 3513 2113 
z
" transform="scale(0.015625)"/>
       <path id="DejaVuSans-73" d="M 2834 3397 
L 2834 2853 
Q 2591 2978 2328 3040 
Q 2066 3103 1784 3103 
Q 1356 3103 1142 2972 
Q 928 2841 928 2578 
Q 928 2378 1081 2264 
Q 1234 2150 1697 2047 
L 1894 2003 
Q 2506 1872 2764 1633 
Q 3022 1394 3022 966 
Q 3022 478 2636 193 
Q 2250 -91 1575 -91 
Q 1294 -91 989 -36 
Q 684 19 347 128 
L 347 722 
Q 666 556 975 473 
Q 1284 391 1588 391 
Q 1994 391 2212 530 
Q 2431 669 2431 922 
Q 2431 1156 2273 1281 
Q 2116 1406 1581 1522 
L 1381 1569 
Q 847 1681 609 1914 
Q 372 2147 372 2553 
Q 372 3047 722 3315 
Q 1072 3584 1716 3584 
Q 2034 3584 2315 3537 
Q 2597 3491 2834 3397 
z
" transform="scale(0.015625)"/>
      </defs>
      <use xlink:href="#DejaVuSans-47"/>
      <use xlink:href="#DejaVuSans-65" transform="translate(77.490234 0)"/>
      <use xlink:href="#DejaVuSans-6d" transform="translate(139.013672 0)"/>
      <use xlink:href="#DejaVuSans-69" transform="translate(236.425781 0)"/>
      <use xlink:href="#DejaVuSans-64" transform="translate(264.208984 0)"/>
      <use xlink:href="#DejaVuSans-64" transform="translate(327.685547 0)"/>
      <use xlink:href="#DejaVuSans-65" transform="translate(391.162109 0)"/>
      <use xlink:href="#DejaVuSans-6c" transform="translate(452.685547 0)"/>
      <use xlink:href="#DejaVuSans-64" transform="translate(480.46875 0)"/>
      <use xlink:href="#DejaVuSans-65" transform="translate(543.945312 0)"/>
      <use xlink:href="#DejaVuSans-20" transform="translate(605.46875 0)"/>
      <use xlink:href="#DejaVuSans-28" transform="translate(637.255859 0)"/>
      <use xlink:href="#DejaVuSans-61" transform="translate(676.269531 0)"/>
      <use xlink:href="#DejaVuSans-6c" transform="translate(737.548828 0)"/>
      <use xlink:href="#DejaVuSans-6c" transform="translate(765.332031 0)"/>
      <use xlink:href="#DejaVuSans-65" transform="translate(793.115234 0)"/>
      <use xlink:href="#DejaVuSans-20" transform="translate(854.638672 0)"/>
      <use xlink:href="#DejaVuSans-68" transform="translate(886.425781 0)"/>
      <use xlink:href="#DejaVuSans-69" transform="translate(949.804688 0)"/>
      <use xlink:href="#DejaVuSans-76" transform="translate(977.587891 0)"/>
      <use xlink:href="#DejaVuSans-65" transform="translate(1036.767578 0)"/>
      <use xlink:href="#DejaVuSans-73" transform="translate(1098.291016 0)"/>
      <use xlink:href="#DejaVuSans-29" transform="translate(1150.390625 0)"/>
     </g>
    </g>
    <g id="patch_8">
     <path d="M 553.25625 234.960312 
L 573.25625 234.960312 
L 573.25625 227.960312 
L 553.25625 227.960312 
z
" style="fill: #808080; fill-opacity: 0.2; stroke: #808080; stroke-opacity: 0.2; stroke-linejoin: miter"/>
    </g>
    <g id="text_19">
     <!-- ±2 Std Dev -->
     <g transform="translate(581.25625 234.960312) scale(0.1 -0.1)">
      <defs>
       <path id="DejaVuSans-b1" d="M 2944 4013 
L 2944 2803 
L 4684 2803 
L 4684 2272 
L 2944 2272 
L 2944 1063 
L 2419 1063 
L 2419 2272 
L 678 2272 
L 678 2803 
L 2419 2803 
L 2419 4013 
L 2944 4013 
z
M 678 531 
L 4684 531 
L 4684 0 
L 678 0 
L 678 531 
z
" transform="scale(0.015625)"/>
       <path id="DejaVuSans-53" d="M 3425 4513 
L 3425 3897 
Q 3066 4069 2747 4153 
Q 2428 4238 2131 4238 
Q 1616 4238 1336 4038 
Q 1056 3838 1056 3469 
Q 1056 3159 1242 3001 
Q 1428 2844 1947 2747 
L 2328 2669 
Q 3034 2534 3370 2195 
Q 3706 1856 3706 1288 
Q 3706 609 3251 259 
Q 2797 -91 1919 -91 
Q 1588 -91 1214 -16 
Q 841 59 441 206 
L 441 856 
Q 825 641 1194 531 
Q 1563 422 1919 422 
Q 2459 422 2753 634 
Q 3047 847 3047 1241 
Q 3047 1584 2836 1778 
Q 2625 1972 2144 2069 
L 1759 2144 
Q 1053 2284 737 2584 
Q 422 2884 422 3419 
Q 422 4038 858 4394 
Q 1294 4750 2059 4750 
Q 2388 4750 2728 4690 
Q 3069 4631 3425 4513 
z
" transform="scale(0.015625)"/>
       <path id="DejaVuSans-44" d="M 1259 4147 
L 1259 519 
L 2022 519 
Q 2988 519 3436 956 
Q 3884 1394 3884 2338 
Q 3884 3275 3436 3711 
Q 2988 4147 2022 4147 
L 1259 4147 
z
M 628 4666 
L 1925 4666 
Q 3281 4666 3915 4102 
Q 4550 3538 4550 2338 
Q 4550 1131 3912 565 
Q 3275 0 1925 0 
L 628 0 
L 628 4666 
z
" transform="scale(0.015625)"/>
      </defs>
      <use xlink:href="#DejaVuSans-b1"/>
      <use xlink:href="#DejaVuSans-32" transform="translate(83.789062 0)"/>
      <use xlink:href="#DejaVuSans-20" transform="translate(147.412109 0)"/>
      <use xlink:href="#DejaVuSans-53" transform="translate(179.199219 0)"/>
      <use xlink:href="#DejaVuSans-74" transform="translate(242.675781 0)"/>
      <use xlink:href="#DejaVuSans-64" transform="translate(281.884766 0)"/>
      <use xlink:href="#DejaVuSans-20" transform="translate(345.361328 0)"/>
      <use xlink:href="#DejaVuSans-44" transform="translate(377.148438 0)"/>
      <use xlink:href="#DejaVuSans-65" transform="translate(454.150391 0)"/>
      <use xlink:href="#DejaVuSans-76" transform="translate(515.673828 0)"/>
     </g>
    </g>
   </g>
  </g>
 </g>
 <defs>
  <clipPath id="p4020baad38">
   <rect x="44.57" y="26.88" width="664.63" height="219.16"/>
  </clipPath>
 </defs>
</svg>
