<?xml version="1.0" encoding="utf-8" standalone="no"?>
<!DOCTYPE svg PUBLIC "-//W3C//DTD SVG 1.1//EN"
  "http://www.w3.org/Graphics/SVG/1.1/DTD/svg11.dtd">
<svg xmlns:xlink="http://www.w3.org/1999/xlink" width="720pt" height="288pt" viewBox="0 0 720 288" xmlns="http://www.w3.org/2000/svg" version="1.1">
 <metadata>
  <rdf:RDF xmlns:dc="http://purl.org/dc/elements/1.1/" xmlns:cc="http://creativecommons.org/ns#" xmlns:rdf="http://www.w3.org/1999/02/22-rdf-syntax-ns#">
   <cc:Work>
    <dc:type rdf:resource="http://purl.org/dc/dcmitype/StillImage"/>
    <dc:date>2025-05-05T04:20:18.559633</dc:date>
    <dc:format>image/svg+xml</dc:format>
    <dc:creator>
     <cc:Agent>
      <dc:title>Matplotlib v3.10.1, https://matplotlib.org/</dc:title>
     </cc:Agent>
    </dc:creator>
   </cc:Work>
  </rdf:RDF>
 </metadata>
 <defs>
  <style type="text/css">*{stroke-linejoin: round; stroke-linecap: butt}</style>
 </defs>
 <g id="figure_1">
  <g id="patch_1">
   <path d="M 0 288 
L 720 288 
L 720 0 
L 0 0 
z
" style="fill: #ffffff"/>
  </g>
  <g id="axes_1">
   <g id="patch_2">
    <path d="M 44.57 246.04 
L 709.2 246.04 
L 709.2 26.88 
L 44.57 26.88 
z
" style="fill: #ffffff"/>
   </g>
   <g id="FillBetweenPolyCollection_1">
    <defs>
     <path id="m5569a5acd4" d="M 74.780455 -179.738799 
L 74.780455 -170.499396 
L 78.835549 -148.985295 
L 82.890644 -148.612138 
L 86.945738 -150.866548 
L 91.000833 -142.490925 
L 95.055927 -143.295137 
L 99.111022 -140.497828 
L 103.166117 -171.363072 
L 107.221211 -133.327418 
L 111.276306 -134.815546 
L 115.3314 -140.442892 
L 119.386495 -132.970207 
L 123.441589 -136.76111 
L 127.496684 -147.179687 
L 131.551779 -161.869902 
L 135.606873 -141.31408 
L 139.661968 -166.486789 
L 143.717062 -118.953268 
L 147.772157 -140.212858 
L 151.827251 -121.788171 
L 155.882346 -123.972184 
L 159.937441 -123.36173 
L 163.992535 -134.175781 
L 168.04763 -119.566243 
L 172.102724 -112.899033 
L 176.157819 -111.69025 
L 180.212913 -114.520209 
L 184.268008 -115.271742 
L 188.323103 -119.435907 
L 192.378197 -132.723594 
L 196.433292 -108.050647 
L 200.488386 -98.223713 
L 204.543481 -101.432309 
L 208.598575 -102.991239 
L 212.65367 -119.24179 
L 216.708764 -108.533264 
L 220.763859 -117.437476 
L 224.818954 -124.289737 
L 228.874048 -133.861277 
L 232.929143 -124.043163 
L 236.984237 -124.708467 
L 241.039332 -118.586015 
L 245.094426 -125.514074 
L 249.149521 -115.238289 
L 253.204616 -123.334207 
L 257.25971 -126.563708 
L 261.314805 -118.758182 
L 265.369899 -122.173158 
L 269.424994 -119.074564 
L 273.480088 -125.336584 
L 277.535183 -120.67246 
L 281.590278 -141.113047 
L 285.645372 -122.222959 
L 289.700467 -128.532566 
L 293.755561 -124.290142 
L 297.810656 -117.238329 
L 301.86575 -121.080569 
L 305.920845 -126.836871 
L 309.97594 -140.637862 
L 314.031034 -110.181483 
L 318.086129 -110.100418 
L 322.141223 -107.650155 
L 326.196318 -102.135539 
L 330.251412 -103.03122 
L 334.306507 -132.786511 
L 338.361602 -93.656318 
L 342.416696 -105.516973 
L 346.471791 -96.341598 
L 350.526885 -101.895192 
L 354.58198 -104.024401 
L 358.637074 -81.571193 
L 362.692169 -111.809457 
L 366.747264 -103.855704 
L 370.802358 -86.910277 
L 374.857453 -93.210599 
L 378.912547 -83.155228 
L 382.967642 -83.833796 
L 387.022736 -71.643506 
L 391.077831 -80.297017 
L 395.132926 -72.521857 
L 399.18802 -75.231332 
L 403.243115 -83.30797 
L 407.298209 -83.769073 
L 411.353304 -74.912098 
L 415.408398 -69.777702 
L 419.463493 -80.344029 
L 423.518588 -86.131772 
L 427.573682 -87.375787 
L 431.628777 -87.067789 
L 435.683871 -91.384805 
L 439.738966 -92.027379 
L 443.79406 -96.308262 
L 447.849155 -106.424063 
L 451.90425 -103.301421 
L 455.959344 -105.45674 
L 460.014439 -105.253794 
L 464.069533 -94.197356 
L 468.124628 -89.121913 
L 472.179722 -102.923468 
L 476.234817 -102.415174 
L 480.289912 -93.989405 
L 484.345006 -98.627082 
L 488.400101 -96.351332 
L 492.455195 -86.648183 
L 496.51029 -88.688195 
L 500.565384 -84.020239 
L 504.620479 -90.065708 
L 508.675574 -79.007626 
L 512.730668 -84.167731 
L 516.785763 -75.726512 
L 520.840857 -76.675808 
L 524.895952 -75.153966 
L 528.951046 -78.402747 
L 533.006141 -74.263391 
L 537.061236 -68.506892 
L 541.11633 -77.438771 
L 545.171425 -73.073182 
L 549.226519 -76.911821 
L 553.281614 -90.400561 
L 557.336708 -51.921818 
L 561.391803 -67.4954 
L 565.446897 -60.985969 
L 569.501992 -68.878134 
L 573.557087 -73.636356 
L 577.612181 -64.047451 
L 581.667276 -65.074284 
L 585.72237 -68.458894 
L 589.777465 -68.713699 
L 593.832559 -78.414918 
L 597.887654 -80.496375 
L 601.942749 -81.951931 
L 605.997843 -71.799306 
L 610.052938 -86.527433 
L 614.108032 -98.495587 
L 618.163127 -96.790648 
L 622.218221 -87.046828 
L 626.273316 -85.701426 
L 630.328411 -97.548856 
L 634.383505 -106.500366 
L 638.4386 -121.805011 
L 642.493694 -116.594561 
L 646.548789 -116.026977 
L 650.603883 -120.482278 
L 654.658978 -95.641947 
L 658.714073 -110.33435 
L 662.769167 -116.093919 
L 666.824262 -114.206445 
L 670.879356 -114.143376 
L 674.934451 -135.986366 
L 674.934451 -160.624776 
L 674.934451 -160.624776 
L 670.879356 -189.772297 
L 666.824262 -202.911827 
L 662.769167 -194.264259 
L 658.714073 -193.10494 
L 654.658978 -236.357606 
L 650.603883 -194.639725 
L 646.548789 -190.83773 
L 642.493694 -188.001658 
L 638.4386 -189.505932 
L 634.383505 -185.5738 
L 630.328411 -196.158621 
L 626.273316 -227.412966 
L 622.218221 -217.254488 
L 618.163127 -213.907804 
L 614.108032 -206.077948 
L 610.052938 -212.942003 
L 605.997843 -230.936753 
L 601.942749 -215.339757 
L 597.887654 -216.114767 
L 593.832559 -213.976836 
L 589.777465 -224.358602 
L 585.72237 -213.724665 
L 581.667276 -217.68774 
L 577.612181 -183.065286 
L 573.557087 -183.503098 
L 569.501992 -179.278108 
L 565.446897 -218.951787 
L 561.391803 -214.075668 
L 557.336708 -240.435909 
L 553.281614 -165.105582 
L 549.226519 -202.141226 
L 545.171425 -209.144405 
L 541.11633 -177.704414 
L 537.061236 -217.181481 
L 533.006141 -214.521468 
L 528.951046 -209.735593 
L 524.895952 -213.256592 
L 520.840857 -214.014581 
L 516.785763 -217.413844 
L 512.730668 -207.849724 
L 508.675574 -216.92297 
L 504.620479 -206.34127 
L 500.565384 -215.211007 
L 496.51029 -216.293667 
L 492.455195 -214.080265 
L 488.400101 -218.362343 
L 484.345006 -215.099801 
L 480.289912 -225.669573 
L 476.234817 -208.011059 
L 472.179722 -206.958328 
L 468.124628 -215.077321 
L 464.069533 -214.663621 
L 460.014439 -207.894624 
L 455.959344 -210.345809 
L 451.90425 -209.676861 
L 447.849155 -207.370875 
L 443.79406 -216.295719 
L 439.738966 -213.294756 
L 435.683871 -219.585866 
L 431.628777 -219.751548 
L 427.573682 -217.878294 
L 423.518588 -216.400124 
L 419.463493 -223.41285 
L 415.408398 -231.461155 
L 411.353304 -224.761502 
L 407.298209 -221.96139 
L 403.243115 -217.998942 
L 399.18802 -221.243701 
L 395.132926 -228.240618 
L 391.077831 -219.989076 
L 387.022736 -228.200232 
L 382.967642 -228.566022 
L 378.912547 -251.158182 
L 374.857453 -186.885952 
L 370.802358 -234.438725 
L 366.747264 -187.038849 
L 362.692169 -185.618341 
L 358.637074 -241.275011 
L 354.58198 -190.046034 
L 350.526885 -222.278077 
L 346.471791 -239.605124 
L 342.416696 -223.726366 
L 338.361602 -226.97811 
L 334.306507 -177.662407 
L 330.251412 -234.07243 
L 326.196318 -226.291145 
L 322.141223 -224.689671 
L 318.086129 -229.657363 
L 314.031034 -219.674348 
L 309.97594 -168.676812 
L 305.920845 -204.516162 
L 301.86575 -222.442901 
L 297.810656 -215.850098 
L 293.755561 -209.785076 
L 289.700467 -209.489822 
L 285.645372 -219.066052 
L 281.590278 -171.604359 
L 277.535183 -213.606923 
L 273.480088 -213.468432 
L 269.424994 -219.254069 
L 265.369899 -212.582607 
L 261.314805 -219.910724 
L 257.25971 -216.460695 
L 253.204616 -224.454021 
L 249.149521 -225.81253 
L 245.094426 -218.735313 
L 241.039332 -222.805077 
L 236.984237 -220.561739 
L 232.929143 -218.640967 
L 228.874048 -216.649137 
L 224.818954 -222.681835 
L 220.763859 -224.566108 
L 216.708764 -231.156462 
L 212.65367 -224.395106 
L 208.598575 -230.845789 
L 204.543481 -231.724172 
L 200.488386 -233.980003 
L 196.433292 -225.820408 
L 192.378197 -183.895611 
L 188.323103 -224.847507 
L 184.268008 -235.783108 
L 180.212913 -237.555461 
L 176.157819 -236.642415 
L 172.102724 -239.380801 
L 168.04763 -238.157962 
L 163.992535 -232.667745 
L 159.937441 -233.137492 
L 155.882346 -232.016628 
L 151.827251 -231.002072 
L 147.772157 -188.565441 
L 143.717062 -233.768921 
L 139.661968 -179.30517 
L 135.606873 -226.141937 
L 131.551779 -182.016527 
L 127.496684 -224.733909 
L 123.441589 -233.417093 
L 119.386495 -230.844887 
L 115.3314 -225.992306 
L 111.276306 -228.557193 
L 107.221211 -229.943239 
L 103.166117 -179.873258 
L 99.111022 -222.432556 
L 95.055927 -216.164461 
L 91.000833 -214.654815 
L 86.945738 -209.647896 
L 82.890644 -206.321827 
L 78.835549 -211.39304 
L 74.780455 -179.738799 
z
" style="stroke: #808080; stroke-opacity: 0.2"/>
    </defs>
    <g clip-path="url(#p7d66efaead)">
     <use xlink:href="#m5569a5acd4" x="0" y="288" style="fill: #808080; fill-opacity: 0.2; stroke: #808080; stroke-opacity: 0.2"/>
    </g>
   </g>
   <g id="matplotlib.axis_1">
    <g id="xtick_1">
     <g id="line2d_1">
      <defs>
       <path id="m01276a1b81" d="M 0 0 
L 0 3.5 
" style="stroke: #000000; stroke-width: 0.8"/>
      </defs>
      <g>
       <use xlink:href="#m01276a1b81" x="139.661968" y="246.04" style="stroke: #000000; stroke-width: 0.8"/>
      </g>
     </g>
     <g id="text_1">
      <!-- 05-02 12 -->
      <g transform="translate(117.181499 260.638438) scale(0.1 -0.1)">
       <defs>
        <path id="DejaVuSans-30" d="M 2034 4250 
Q 1547 4250 1301 3770 
Q 1056 3291 1056 2328 
Q 1056 1369 1301 889 
Q 1547 409 2034 409 
Q 2525 409 2770 889 
Q 3016 1369 3016 2328 
Q 3016 3291 2770 3770 
Q 2525 4250 2034 4250 
z
M 2034 4750 
Q 2819 4750 3233 4129 
Q 3647 3509 3647 2328 
Q 3647 1150 3233 529 
Q 2819 -91 2034 -91 
Q 1250 -91 836 529 
Q 422 1150 422 2328 
Q 422 3509 836 4129 
Q 1250 4750 2034 4750 
z
" transform="scale(0.015625)"/>
        <path id="DejaVuSans-35" d="M 691 4666 
L 3169 4666 
L 3169 4134 
L 1269 4134 
L 1269 2991 
Q 1406 3038 1543 3061 
Q 1681 3084 1819 3084 
Q 2600 3084 3056 2656 
Q 3513 2228 3513 1497 
Q 3513 744 3044 326 
Q 2575 -91 1722 -91 
Q 1428 -91 1123 -41 
Q 819 9 494 109 
L 494 744 
Q 775 591 1075 516 
Q 1375 441 1709 441 
Q 2250 441 2565 725 
Q 2881 1009 2881 1497 
Q 2881 1984 2565 2268 
Q 2250 2553 1709 2553 
Q 1456 2553 1204 2497 
Q 953 2441 691 2322 
L 691 4666 
z
" transform="scale(0.015625)"/>
        <path id="DejaVuSans-2d" d="M 313 2009 
L 1997 2009 
L 1997 1497 
L 313 1497 
L 313 2009 
z
" transform="scale(0.015625)"/>
        <path id="DejaVuSans-32" d="M 1228 531 
L 3431 531 
L 3431 0 
L 469 0 
L 469 531 
Q 828 903 1448 1529 
Q 2069 2156 2228 2338 
Q 2531 2678 2651 2914 
Q 2772 3150 2772 3378 
Q 2772 3750 2511 3984 
Q 2250 4219 1831 4219 
Q 1534 4219 1204 4116 
Q 875 4013 500 3803 
L 500 4441 
Q 881 4594 1212 4672 
Q 1544 4750 1819 4750 
Q 2544 4750 2975 4387 
Q 3406 4025 3406 3419 
Q 3406 3131 3298 2873 
Q 3191 2616 2906 2266 
Q 2828 2175 2409 1742 
Q 1991 1309 1228 531 
z
" transform="scale(0.015625)"/>
        <path id="DejaVuSans-20" transform="scale(0.015625)"/>
        <path id="DejaVuSans-31" d="M 794 531 
L 1825 531 
L 1825 4091 
L 703 3866 
L 703 4441 
L 1819 4666 
L 2450 4666 
L 2450 531 
L 3481 531 
L 3481 0 
L 794 0 
L 794 531 
z
" transform="scale(0.015625)"/>
       </defs>
       <use xlink:href="#DejaVuSans-30"/>
       <use xlink:href="#DejaVuSans-35" transform="translate(63.623047 0)"/>
       <use xlink:href="#DejaVuSans-2d" transform="translate(127.246094 0)"/>
       <use xlink:href="#DejaVuSans-30" transform="translate(163.330078 0)"/>
       <use xlink:href="#DejaVuSans-32" transform="translate(226.953125 0)"/>
       <use xlink:href="#DejaVuSans-20" transform="translate(290.576172 0)"/>
       <use xlink:href="#DejaVuSans-31" transform="translate(322.363281 0)"/>
       <use xlink:href="#DejaVuSans-32" transform="translate(385.986328 0)"/>
      </g>
     </g>
    </g>
    <g id="xtick_2">
     <g id="line2d_2">
      <g>
       <use xlink:href="#m01276a1b81" x="236.984237" y="246.04" style="stroke: #000000; stroke-width: 0.8"/>
      </g>
     </g>
     <g id="text_2">
      <!-- 05-03 00 -->
      <g transform="translate(214.503769 260.638438) scale(0.1 -0.1)">
       <defs>
        <path id="DejaVuSans-33" d="M 2597 2516 
Q 3050 2419 3304 2112 
Q 3559 1806 3559 1356 
Q 3559 666 3084 287 
Q 2609 -91 1734 -91 
Q 1441 -91 1130 -33 
Q 819 25 488 141 
L 488 750 
Q 750 597 1062 519 
Q 1375 441 1716 441 
Q 2309 441 2620 675 
Q 2931 909 2931 1356 
Q 2931 1769 2642 2001 
Q 2353 2234 1838 2234 
L 1294 2234 
L 1294 2753 
L 1863 2753 
Q 2328 2753 2575 2939 
Q 2822 3125 2822 3475 
Q 2822 3834 2567 4026 
Q 2313 4219 1838 4219 
Q 1578 4219 1281 4162 
Q 984 4106 628 3988 
L 628 4550 
Q 988 4650 1302 4700 
Q 1616 4750 1894 4750 
Q 2613 4750 3031 4423 
Q 3450 4097 3450 3541 
Q 3450 3153 3228 2886 
Q 3006 2619 2597 2516 
z
" transform="scale(0.015625)"/>
       </defs>
       <use xlink:href="#DejaVuSans-30"/>
       <use xlink:href="#DejaVuSans-35" transform="translate(63.623047 0)"/>
       <use xlink:href="#DejaVuSans-2d" transform="translate(127.246094 0)"/>
       <use xlink:href="#DejaVuSans-30" transform="translate(163.330078 0)"/>
       <use xlink:href="#DejaVuSans-33" transform="translate(226.953125 0)"/>
       <use xlink:href="#DejaVuSans-20" transform="translate(290.576172 0)"/>
       <use xlink:href="#DejaVuSans-30" transform="translate(322.363281 0)"/>
       <use xlink:href="#DejaVuSans-30" transform="translate(385.986328 0)"/>
      </g>
     </g>
    </g>
    <g id="xtick_3">
     <g id="line2d_3">
      <g>
       <use xlink:href="#m01276a1b81" x="334.306507" y="246.04" style="stroke: #000000; stroke-width: 0.8"/>
      </g>
     </g>
     <g id="text_3">
      <!-- 05-03 12 -->
      <g transform="translate(311.826038 260.638438) scale(0.1 -0.1)">
       <use xlink:href="#DejaVuSans-30"/>
       <use xlink:href="#DejaVuSans-35" transform="translate(63.623047 0)"/>
       <use xlink:href="#DejaVuSans-2d" transform="translate(127.246094 0)"/>
       <use xlink:href="#DejaVuSans-30" transform="translate(163.330078 0)"/>
       <use xlink:href="#DejaVuSans-33" transform="translate(226.953125 0)"/>
       <use xlink:href="#DejaVuSans-20" transform="translate(290.576172 0)"/>
       <use xlink:href="#DejaVuSans-31" transform="translate(322.363281 0)"/>
       <use xlink:href="#DejaVuSans-32" transform="translate(385.986328 0)"/>
      </g>
     </g>
    </g>
    <g id="xtick_4">
     <g id="line2d_4">
      <g>
       <use xlink:href="#m01276a1b81" x="431.628777" y="246.04" style="stroke: #000000; stroke-width: 0.8"/>
      </g>
     </g>
     <g id="text_4">
      <!-- 05-04 00 -->
      <g transform="translate(409.148308 260.638438) scale(0.1 -0.1)">
       <defs>
        <path id="DejaVuSans-34" d="M 2419 4116 
L 825 1625 
L 2419 1625 
L 2419 4116 
z
M 2253 4666 
L 3047 4666 
L 3047 1625 
L 3713 1625 
L 3713 1100 
L 3047 1100 
L 3047 0 
L 2419 0 
L 2419 1100 
L 313 1100 
L 313 1709 
L 2253 4666 
z
" transform="scale(0.015625)"/>
       </defs>
       <use xlink:href="#DejaVuSans-30"/>
       <use xlink:href="#DejaVuSans-35" transform="translate(63.623047 0)"/>
       <use xlink:href="#DejaVuSans-2d" transform="translate(127.246094 0)"/>
       <use xlink:href="#DejaVuSans-30" transform="translate(163.330078 0)"/>
       <use xlink:href="#DejaVuSans-34" transform="translate(226.953125 0)"/>
       <use xlink:href="#DejaVuSans-20" transform="translate(290.576172 0)"/>
       <use xlink:href="#DejaVuSans-30" transform="translate(322.363281 0)"/>
       <use xlink:href="#DejaVuSans-30" transform="translate(385.986328 0)"/>
      </g>
     </g>
    </g>
    <g id="xtick_5">
     <g id="line2d_5">
      <g>
       <use xlink:href="#m01276a1b81" x="528.951046" y="246.04" style="stroke: #000000; stroke-width: 0.8"/>
      </g>
     </g>
     <g id="text_5">
      <!-- 05-04 12 -->
      <g transform="translate(506.470578 260.638438) scale(0.1 -0.1)">
       <use xlink:href="#DejaVuSans-30"/>
       <use xlink:href="#DejaVuSans-35" transform="translate(63.623047 0)"/>
       <use xlink:href="#DejaVuSans-2d" transform="translate(127.246094 0)"/>
       <use xlink:href="#DejaVuSans-30" transform="translate(163.330078 0)"/>
       <use xlink:href="#DejaVuSans-34" transform="translate(226.953125 0)"/>
       <use xlink:href="#DejaVuSans-20" transform="translate(290.576172 0)"/>
       <use xlink:href="#DejaVuSans-31" transform="translate(322.363281 0)"/>
       <use xlink:href="#DejaVuSans-32" transform="translate(385.986328 0)"/>
      </g>
     </g>
    </g>
    <g id="xtick_6">
     <g id="line2d_6">
      <g>
       <use xlink:href="#m01276a1b81" x="626.273316" y="246.04" style="stroke: #000000; stroke-width: 0.8"/>
      </g>
     </g>
     <g id="text_6">
      <!-- 05-05 00 -->
      <g transform="translate(603.792847 260.638438) scale(0.1 -0.1)">
       <use xlink:href="#DejaVuSans-30"/>
       <use xlink:href="#DejaVuSans-35" transform="translate(63.623047 0)"/>
       <use xlink:href="#DejaVuSans-2d" transform="translate(127.246094 0)"/>
       <use xlink:href="#DejaVuSans-30" transform="translate(163.330078 0)"/>
       <use xlink:href="#DejaVuSans-35" transform="translate(226.953125 0)"/>
       <use xlink:href="#DejaVuSans-20" transform="translate(290.576172 0)"/>
       <use xlink:href="#DejaVuSans-30" transform="translate(322.363281 0)"/>
       <use xlink:href="#DejaVuSans-30" transform="translate(385.986328 0)"/>
      </g>
     </g>
    </g>
    <g id="text_7">
     <!-- Tijd -->
     <g transform="translate(368.035 274.316562) scale(0.1 -0.1)">
      <defs>
       <path id="DejaVuSans-54" d="M -19 4666 
L 3928 4666 
L 3928 4134 
L 2272 4134 
L 2272 0 
L 1638 0 
L 1638 4134 
L -19 4134 
L -19 4666 
z
" transform="scale(0.015625)"/>
       <path id="DejaVuSans-69" d="M 603 3500 
L 1178 3500 
L 1178 0 
L 603 0 
L 603 3500 
z
M 603 4863 
L 1178 4863 
L 1178 4134 
L 603 4134 
L 603 4863 
z
" transform="scale(0.015625)"/>
       <path id="DejaVuSans-6a" d="M 603 3500 
L 1178 3500 
L 1178 -63 
Q 1178 -731 923 -1031 
Q 669 -1331 103 -1331 
L -116 -1331 
L -116 -844 
L 38 -844 
Q 366 -844 484 -692 
Q 603 -541 603 -63 
L 603 3500 
z
M 603 4863 
L 1178 4863 
L 1178 4134 
L 603 4134 
L 603 4863 
z
" transform="scale(0.015625)"/>
       <path id="DejaVuSans-64" d="M 2906 2969 
L 2906 4863 
L 3481 4863 
L 3481 0 
L 2906 0 
L 2906 525 
Q 2725 213 2448 61 
Q 2172 -91 1784 -91 
Q 1150 -91 751 415 
Q 353 922 353 1747 
Q 353 2572 751 3078 
Q 1150 3584 1784 3584 
Q 2172 3584 2448 3432 
Q 2725 3281 2906 2969 
z
M 947 1747 
Q 947 1113 1208 752 
Q 1469 391 1925 391 
Q 2381 391 2643 752 
Q 2906 1113 2906 1747 
Q 2906 2381 2643 2742 
Q 2381 3103 1925 3103 
Q 1469 3103 1208 2742 
Q 947 2381 947 1747 
z
" transform="scale(0.015625)"/>
      </defs>
      <use xlink:href="#DejaVuSans-54"/>
      <use xlink:href="#DejaVuSans-69" transform="translate(57.958984 0)"/>
      <use xlink:href="#DejaVuSans-6a" transform="translate(85.742188 0)"/>
      <use xlink:href="#DejaVuSans-64" transform="translate(113.525391 0)"/>
     </g>
    </g>
   </g>
   <g id="matplotlib.axis_2">
    <g id="ytick_1">
     <g id="line2d_7">
      <defs>
       <path id="md409fcba6a" d="M 0 0 
L -3.5 0 
" style="stroke: #000000; stroke-width: 0.8"/>
      </defs>
      <g>
       <use xlink:href="#md409fcba6a" x="44.57" y="236.604229" style="stroke: #000000; stroke-width: 0.8"/>
      </g>
     </g>
     <g id="text_8">
      <!-- 20 -->
      <g transform="translate(24.845 240.403448) scale(0.1 -0.1)">
       <use xlink:href="#DejaVuSans-32"/>
       <use xlink:href="#DejaVuSans-30" transform="translate(63.623047 0)"/>
      </g>
     </g>
    </g>
    <g id="ytick_2">
     <g id="line2d_8">
      <g>
       <use xlink:href="#md409fcba6a" x="44.57" y="195.771448" style="stroke: #000000; stroke-width: 0.8"/>
      </g>
     </g>
     <g id="text_9">
      <!-- 30 -->
      <g transform="translate(24.845 199.570667) scale(0.1 -0.1)">
       <use xlink:href="#DejaVuSans-33"/>
       <use xlink:href="#DejaVuSans-30" transform="translate(63.623047 0)"/>
      </g>
     </g>
    </g>
    <g id="ytick_3">
     <g id="line2d_9">
      <g>
       <use xlink:href="#md409fcba6a" x="44.57" y="154.938667" style="stroke: #000000; stroke-width: 0.8"/>
      </g>
     </g>
     <g id="text_10">
      <!-- 40 -->
      <g transform="translate(24.845 158.737886) scale(0.1 -0.1)">
       <use xlink:href="#DejaVuSans-34"/>
       <use xlink:href="#DejaVuSans-30" transform="translate(63.623047 0)"/>
      </g>
     </g>
    </g>
    <g id="ytick_4">
     <g id="line2d_10">
      <g>
       <use xlink:href="#md409fcba6a" x="44.57" y="114.105886" style="stroke: #000000; stroke-width: 0.8"/>
      </g>
     </g>
     <g id="text_11">
      <!-- 50 -->
      <g transform="translate(24.845 117.905105) scale(0.1 -0.1)">
       <use xlink:href="#DejaVuSans-35"/>
       <use xlink:href="#DejaVuSans-30" transform="translate(63.623047 0)"/>
      </g>
     </g>
    </g>
    <g id="ytick_5">
     <g id="line2d_11">
      <g>
       <use xlink:href="#md409fcba6a" x="44.57" y="73.273105" style="stroke: #000000; stroke-width: 0.8"/>
      </g>
     </g>
     <g id="text_12">
      <!-- 60 -->
      <g transform="translate(24.845 77.072324) scale(0.1 -0.1)">
       <defs>
        <path id="DejaVuSans-36" d="M 2113 2584 
Q 1688 2584 1439 2293 
Q 1191 2003 1191 1497 
Q 1191 994 1439 701 
Q 1688 409 2113 409 
Q 2538 409 2786 701 
Q 3034 994 3034 1497 
Q 3034 2003 2786 2293 
Q 2538 2584 2113 2584 
z
M 3366 4563 
L 3366 3988 
Q 3128 4100 2886 4159 
Q 2644 4219 2406 4219 
Q 1781 4219 1451 3797 
Q 1122 3375 1075 2522 
Q 1259 2794 1537 2939 
Q 1816 3084 2150 3084 
Q 2853 3084 3261 2657 
Q 3669 2231 3669 1497 
Q 3669 778 3244 343 
Q 2819 -91 2113 -91 
Q 1303 -91 875 529 
Q 447 1150 447 2328 
Q 447 3434 972 4092 
Q 1497 4750 2381 4750 
Q 2619 4750 2861 4703 
Q 3103 4656 3366 4563 
z
" transform="scale(0.015625)"/>
       </defs>
       <use xlink:href="#DejaVuSans-36"/>
       <use xlink:href="#DejaVuSans-30" transform="translate(63.623047 0)"/>
      </g>
     </g>
    </g>
    <g id="ytick_6">
     <g id="line2d_12">
      <g>
       <use xlink:href="#md409fcba6a" x="44.57" y="32.440324" style="stroke: #000000; stroke-width: 0.8"/>
      </g>
     </g>
     <g id="text_13">
      <!-- 70 -->
      <g transform="translate(24.845 36.239543) scale(0.1 -0.1)">
       <defs>
        <path id="DejaVuSans-37" d="M 525 4666 
L 3525 4666 
L 3525 4397 
L 1831 0 
L 1172 0 
L 2766 4134 
L 525 4134 
L 525 4666 
z
" transform="scale(0.015625)"/>
       </defs>
       <use xlink:href="#DejaVuSans-37"/>
       <use xlink:href="#DejaVuSans-30" transform="translate(63.623047 0)"/>
      </g>
     </g>
    </g>
    <g id="text_14">
     <!-- (Rel.) Vochtigheid (%) -->
     <g transform="translate(18.765312 190.838125) rotate(-90) scale(0.1 -0.1)">
      <defs>
       <path id="DejaVuSans-28" d="M 1984 4856 
Q 1566 4138 1362 3434 
Q 1159 2731 1159 2009 
Q 1159 1288 1364 580 
Q 1569 -128 1984 -844 
L 1484 -844 
Q 1016 -109 783 600 
Q 550 1309 550 2009 
Q 550 2706 781 3412 
Q 1013 4119 1484 4856 
L 1984 4856 
z
" transform="scale(0.015625)"/>
       <path id="DejaVuSans-52" d="M 2841 2188 
Q 3044 2119 3236 1894 
Q 3428 1669 3622 1275 
L 4263 0 
L 3584 0 
L 2988 1197 
Q 2756 1666 2539 1819 
Q 2322 1972 1947 1972 
L 1259 1972 
L 1259 0 
L 628 0 
L 628 4666 
L 2053 4666 
Q 2853 4666 3247 4331 
Q 3641 3997 3641 3322 
Q 3641 2881 3436 2590 
Q 3231 2300 2841 2188 
z
M 1259 4147 
L 1259 2491 
L 2053 2491 
Q 2509 2491 2742 2702 
Q 2975 2913 2975 3322 
Q 2975 3731 2742 3939 
Q 2509 4147 2053 4147 
L 1259 4147 
z
" transform="scale(0.015625)"/>
       <path id="DejaVuSans-65" d="M 3597 1894 
L 3597 1613 
L 953 1613 
Q 991 1019 1311 708 
Q 1631 397 2203 397 
Q 2534 397 2845 478 
Q 3156 559 3463 722 
L 3463 178 
Q 3153 47 2828 -22 
Q 2503 -91 2169 -91 
Q 1331 -91 842 396 
Q 353 884 353 1716 
Q 353 2575 817 3079 
Q 1281 3584 2069 3584 
Q 2775 3584 3186 3129 
Q 3597 2675 3597 1894 
z
M 3022 2063 
Q 3016 2534 2758 2815 
Q 2500 3097 2075 3097 
Q 1594 3097 1305 2825 
Q 1016 2553 972 2059 
L 3022 2063 
z
" transform="scale(0.015625)"/>
       <path id="DejaVuSans-6c" d="M 603 4863 
L 1178 4863 
L 1178 0 
L 603 0 
L 603 4863 
z
" transform="scale(0.015625)"/>
       <path id="DejaVuSans-2e" d="M 684 794 
L 1344 794 
L 1344 0 
L 684 0 
L 684 794 
z
" transform="scale(0.015625)"/>
       <path id="DejaVuSans-29" d="M 513 4856 
L 1013 4856 
Q 1481 4119 1714 3412 
Q 1947 2706 1947 2009 
Q 1947 1309 1714 600 
Q 1481 -109 1013 -844 
L 513 -844 
Q 928 -128 1133 580 
Q 1338 1288 1338 2009 
Q 1338 2731 1133 3434 
Q 928 4138 513 4856 
z
" transform="scale(0.015625)"/>
       <path id="DejaVuSans-56" d="M 1831 0 
L 50 4666 
L 709 4666 
L 2188 738 
L 3669 4666 
L 4325 4666 
L 2547 0 
L 1831 0 
z
" transform="scale(0.015625)"/>
       <path id="DejaVuSans-6f" d="M 1959 3097 
Q 1497 3097 1228 2736 
Q 959 2375 959 1747 
Q 959 1119 1226 758 
Q 1494 397 1959 397 
Q 2419 397 2687 759 
Q 2956 1122 2956 1747 
Q 2956 2369 2687 2733 
Q 2419 3097 1959 3097 
z
M 1959 3584 
Q 2709 3584 3137 3096 
Q 3566 2609 3566 1747 
Q 3566 888 3137 398 
Q 2709 -91 1959 -91 
Q 1206 -91 779 398 
Q 353 888 353 1747 
Q 353 2609 779 3096 
Q 1206 3584 1959 3584 
z
" transform="scale(0.015625)"/>
       <path id="DejaVuSans-63" d="M 3122 3366 
L 3122 2828 
Q 2878 2963 2633 3030 
Q 2388 3097 2138 3097 
Q 1578 3097 1268 2742 
Q 959 2388 959 1747 
Q 959 1106 1268 751 
Q 1578 397 2138 397 
Q 2388 397 2633 464 
Q 2878 531 3122 666 
L 3122 134 
Q 2881 22 2623 -34 
Q 2366 -91 2075 -91 
Q 1284 -91 818 406 
Q 353 903 353 1747 
Q 353 2603 823 3093 
Q 1294 3584 2113 3584 
Q 2378 3584 2631 3529 
Q 2884 3475 3122 3366 
z
" transform="scale(0.015625)"/>
       <path id="DejaVuSans-68" d="M 3513 2113 
L 3513 0 
L 2938 0 
L 2938 2094 
Q 2938 2591 2744 2837 
Q 2550 3084 2163 3084 
Q 1697 3084 1428 2787 
Q 1159 2491 1159 1978 
L 1159 0 
L 581 0 
L 581 4863 
L 1159 4863 
L 1159 2956 
Q 1366 3272 1645 3428 
Q 1925 3584 2291 3584 
Q 2894 3584 3203 3211 
Q 3513 2838 3513 2113 
z
" transform="scale(0.015625)"/>
       <path id="DejaVuSans-74" d="M 1172 4494 
L 1172 3500 
L 2356 3500 
L 2356 3053 
L 1172 3053 
L 1172 1153 
Q 1172 725 1289 603 
Q 1406 481 1766 481 
L 2356 481 
L 2356 0 
L 1766 0 
Q 1100 0 847 248 
Q 594 497 594 1153 
L 594 3053 
L 172 3053 
L 172 3500 
L 594 3500 
L 594 4494 
L 1172 4494 
z
" transform="scale(0.015625)"/>
       <path id="DejaVuSans-67" d="M 2906 1791 
Q 2906 2416 2648 2759 
Q 2391 3103 1925 3103 
Q 1463 3103 1205 2759 
Q 947 2416 947 1791 
Q 947 1169 1205 825 
Q 1463 481 1925 481 
Q 2391 481 2648 825 
Q 2906 1169 2906 1791 
z
M 3481 434 
Q 3481 -459 3084 -895 
Q 2688 -1331 1869 -1331 
Q 1566 -1331 1297 -1286 
Q 1028 -1241 775 -1147 
L 775 -588 
Q 1028 -725 1275 -790 
Q 1522 -856 1778 -856 
Q 2344 -856 2625 -561 
Q 2906 -266 2906 331 
L 2906 616 
Q 2728 306 2450 153 
Q 2172 0 1784 0 
Q 1141 0 747 490 
Q 353 981 353 1791 
Q 353 2603 747 3093 
Q 1141 3584 1784 3584 
Q 2172 3584 2450 3431 
Q 2728 3278 2906 2969 
L 2906 3500 
L 3481 3500 
L 3481 434 
z
" transform="scale(0.015625)"/>
       <path id="DejaVuSans-25" d="M 4653 2053 
Q 4381 2053 4226 1822 
Q 4072 1591 4072 1178 
Q 4072 772 4226 539 
Q 4381 306 4653 306 
Q 4919 306 5073 539 
Q 5228 772 5228 1178 
Q 5228 1588 5073 1820 
Q 4919 2053 4653 2053 
z
M 4653 2450 
Q 5147 2450 5437 2106 
Q 5728 1763 5728 1178 
Q 5728 594 5436 251 
Q 5144 -91 4653 -91 
Q 4153 -91 3862 251 
Q 3572 594 3572 1178 
Q 3572 1766 3864 2108 
Q 4156 2450 4653 2450 
z
M 1428 4353 
Q 1159 4353 1004 4120 
Q 850 3888 850 3481 
Q 850 3069 1003 2837 
Q 1156 2606 1428 2606 
Q 1700 2606 1854 2837 
Q 2009 3069 2009 3481 
Q 2009 3884 1853 4118 
Q 1697 4353 1428 4353 
z
M 4250 4750 
L 4750 4750 
L 1831 -91 
L 1331 -91 
L 4250 4750 
z
M 1428 4750 
Q 1922 4750 2215 4408 
Q 2509 4066 2509 3481 
Q 2509 2891 2217 2550 
Q 1925 2209 1428 2209 
Q 931 2209 642 2551 
Q 353 2894 353 3481 
Q 353 4063 643 4406 
Q 934 4750 1428 4750 
z
" transform="scale(0.015625)"/>
      </defs>
      <use xlink:href="#DejaVuSans-28"/>
      <use xlink:href="#DejaVuSans-52" transform="translate(39.013672 0)"/>
      <use xlink:href="#DejaVuSans-65" transform="translate(103.996094 0)"/>
      <use xlink:href="#DejaVuSans-6c" transform="translate(165.519531 0)"/>
      <use xlink:href="#DejaVuSans-2e" transform="translate(193.302734 0)"/>
      <use xlink:href="#DejaVuSans-29" transform="translate(225.089844 0)"/>
      <use xlink:href="#DejaVuSans-20" transform="translate(264.103516 0)"/>
      <use xlink:href="#DejaVuSans-56" transform="translate(295.890625 0)"/>
      <use xlink:href="#DejaVuSans-6f" transform="translate(356.548828 0)"/>
      <use xlink:href="#DejaVuSans-63" transform="translate(417.730469 0)"/>
      <use xlink:href="#DejaVuSans-68" transform="translate(472.710938 0)"/>
      <use xlink:href="#DejaVuSans-74" transform="translate(536.089844 0)"/>
      <use xlink:href="#DejaVuSans-69" transform="translate(575.298828 0)"/>
      <use xlink:href="#DejaVuSans-67" transform="translate(603.082031 0)"/>
      <use xlink:href="#DejaVuSans-68" transform="translate(666.558594 0)"/>
      <use xlink:href="#DejaVuSans-65" transform="translate(729.9375 0)"/>
      <use xlink:href="#DejaVuSans-69" transform="translate(791.460938 0)"/>
      <use xlink:href="#DejaVuSans-64" transform="translate(819.244141 0)"/>
      <use xlink:href="#DejaVuSans-20" transform="translate(882.720703 0)"/>
      <use xlink:href="#DejaVuSans-28" transform="translate(914.507812 0)"/>
      <use xlink:href="#DejaVuSans-25" transform="translate(953.521484 0)"/>
      <use xlink:href="#DejaVuSans-29" transform="translate(1048.541016 0)"/>
     </g>
    </g>
   </g>
   <g id="line2d_13">
    <path d="M 78.835549 119.686366 
L 82.890644 118.801656 
L 86.945738 119.686366 
L 91.000833 120.366913 
L 95.055927 115.33087 
L 99.111022 113.493394 
L 103.166117 112.064247 
L 107.221211 115.33087 
L 111.276306 122.272442 
L 115.3314 118.461383 
L 119.386495 118.597492 
L 123.441589 120.230803 
L 127.496684 116.555853 
L 131.551779 121.864114 
L 135.606873 121.319677 
L 139.661968 115.33087 
L 143.717062 121.659951 
L 147.772157 123.089098 
L 151.827251 126.900157 
L 155.882346 122.884934 
L 159.937441 118.597492 
L 163.992535 122.68077 
L 168.04763 122.884934 
L 172.102724 117.508618 
L 176.157819 125.130737 
L 180.212913 126.35572 
L 184.268008 134.930604 
L 188.323103 138.809719 
L 192.378197 137.380571 
L 200.488386 142.280505 
L 204.543481 140.783303 
L 208.598575 135.883369 
L 212.65367 136.427806 
L 216.708764 134.522277 
L 220.763859 131.663982 
L 224.818954 132.888965 
L 228.874048 130.711217 
L 232.929143 135.066714 
L 236.984237 131.391763 
L 241.039332 138.061118 
L 245.094426 142.688833 
L 249.149521 143.641598 
L 253.204616 137.380571 
L 257.25971 135.611151 
L 261.314805 142.144396 
L 265.369899 139.55832 
L 269.424994 144.186035 
L 273.480088 140.783303 
L 277.535183 145.274909 
L 281.590278 138.809719 
L 285.645372 133.297293 
L 289.700467 131.527873 
L 293.755561 130.030671 
L 297.810656 139.55832 
L 301.86575 138.741664 
L 305.920845 137.584735 
L 309.97594 134.930604 
L 314.031034 145.342964 
L 318.086129 141.872177 
L 322.141223 145.1388 
L 326.196318 145.342964 
L 330.251412 144.458253 
L 334.306507 145.342964 
L 338.361602 146.772111 
L 342.416696 146.90822 
L 346.471791 152.897028 
L 350.526885 155.483104 
L 354.58198 152.62481 
L 358.637074 156.29976 
L 362.692169 158.06918 
L 366.747264 158.885836 
L 370.802358 153.917848 
L 374.857453 155.346995 
L 378.912547 161.676076 
L 382.967642 169.638468 
L 387.022736 171.680107 
L 391.077831 171.407889 
L 395.132926 168.821813 
L 399.18802 165.282972 
L 403.243115 167.052392 
L 407.298209 159.566382 
L 411.353304 166.507955 
L 415.408398 161.744131 
L 419.463493 164.194098 
L 423.518588 161.88024 
L 427.573682 163.78577 
L 431.628777 152.4887 
L 435.683871 157.524743 
L 439.738966 154.802558 
L 443.79406 152.62481 
L 447.849155 153.441465 
L 451.90425 147.316548 
L 455.959344 145.683237 
L 460.014439 154.122012 
L 464.069533 163.921879 
L 468.124628 168.549594 
L 472.179722 161.471912 
L 476.234817 159.294164 
L 480.289912 162.084404 
L 484.345006 166.984338 
L 488.400101 165.6913 
L 492.455195 174.742566 
L 496.51029 171.952326 
L 500.565384 178.213352 
L 504.620479 180.118882 
L 508.675574 183.249395 
L 512.730668 180.867483 
L 516.785763 182.500794 
L 520.840857 179.030008 
L 524.895952 180.663319 
L 528.951046 178.417516 
L 533.006141 177.805025 
L 537.061236 185.699362 
L 541.11633 188.285438 
L 545.171425 182.296631 
L 549.226519 179.302227 
L 553.281614 174.130074 
L 557.336708 184.33827 
L 561.391803 184.33827 
L 565.446897 183.929942 
L 569.501992 184.746597 
L 573.557087 183.31745 
L 577.612181 185.699362 
L 581.667276 181.343866 
L 585.72237 183.657723 
L 589.777465 187.604892 
L 593.832559 186.652127 
L 597.887654 179.302227 
L 601.942749 173.585637 
L 605.997843 176.035604 
L 610.052938 174.538402 
L 614.108032 162.969114 
L 618.163127 163.241333 
L 622.218221 170.727343 
L 626.273316 167.869048 
L 630.328411 168.005157 
L 634.383505 159.430273 
L 638.4386 151.535935 
L 642.493694 151.127608 
L 646.548789 151.535935 
L 650.603883 151.127608 
L 654.658978 158.613617 
L 658.714073 157.490716 
L 662.769167 154.326175 
L 666.824262 154.802558 
L 670.879356 152.080373 
L 674.934451 144.049926 
L 678.989545 145.547128 
L 678.989545 145.547128 
" clip-path="url(#p7d66efaead)" style="fill: none; stroke: #1f77b4; stroke-width: 2; stroke-linecap: square"/>
   </g>
   <g id="line2d_14">
    <path d="M 74.780455 112.880903 
L 78.835549 107.810832 
L 82.890644 110.533018 
L 86.945738 107.742778 
L 91.000833 109.42713 
L 95.055927 108.270201 
L 99.111022 106.534808 
L 103.166117 112.381835 
L 107.221211 106.364671 
L 111.276306 106.31363 
L 115.3314 104.782401 
L 119.386495 106.092453 
L 123.441589 102.910899 
L 127.496684 102.043202 
L 131.551779 116.056786 
L 135.606873 104.271991 
L 139.661968 115.104021 
L 143.717062 111.638906 
L 147.772157 123.61085 
L 151.827251 111.604878 
L 155.882346 110.005594 
L 159.937441 109.750389 
L 163.992535 104.578237 
L 168.04763 109.137898 
L 172.102724 111.860083 
L 176.157819 113.833668 
L 180.212913 111.962165 
L 184.268008 112.472575 
L 188.323103 115.858293 
L 192.378197 129.690398 
L 196.433292 121.064473 
L 200.488386 121.898142 
L 204.543481 121.421759 
L 208.598575 121.081486 
L 212.65367 116.181552 
L 216.708764 118.155137 
L 220.763859 116.998208 
L 224.818954 114.514214 
L 228.874048 112.744793 
L 232.929143 116.657935 
L 236.984237 115.364897 
L 241.039332 117.304454 
L 245.094426 115.875307 
L 249.149521 117.474591 
L 253.204616 114.105886 
L 257.25971 116.487798 
L 261.314805 118.665547 
L 265.369899 120.622117 
L 269.424994 118.835683 
L 273.480088 118.597492 
L 277.535183 120.860309 
L 281.590278 131.641297 
L 285.645372 117.355495 
L 289.700467 118.988806 
L 293.755561 120.962391 
L 297.810656 121.455787 
L 301.86575 116.238265 
L 305.920845 122.323483 
L 309.97594 133.342663 
L 314.031034 123.072084 
L 318.086129 118.12111 
L 322.141223 121.830087 
L 326.196318 123.786658 
L 330.251412 119.448175 
L 334.306507 132.775541 
L 338.361602 127.682786 
L 342.416696 123.37833 
L 346.471791 120.026639 
L 350.526885 125.913365 
L 354.58198 140.964782 
L 358.637074 126.576898 
L 362.692169 139.286101 
L 366.747264 142.552724 
L 370.802358 127.325499 
L 374.857453 147.951725 
L 378.912547 120.843295 
L 382.967642 131.800091 
L 387.022736 138.078131 
L 395.132926 137.618763 
L 399.18802 139.762484 
L 403.243115 137.346544 
L 407.298209 135.134768 
L 411.353304 138.1632 
L 415.408398 137.380571 
L 419.463493 136.121561 
L 423.518588 136.734052 
L 427.573682 135.37296 
L 431.628777 134.590331 
L 435.683871 132.514665 
L 439.738966 135.338932 
L 443.79406 131.698009 
L 447.849155 131.102531 
L 451.90425 131.510859 
L 455.959344 130.098725 
L 460.014439 131.425791 
L 464.069533 133.569512 
L 468.124628 135.900383 
L 472.179722 133.059102 
L 476.234817 132.786883 
L 480.289912 128.170511 
L 484.345006 131.136559 
L 488.400101 130.643162 
L 492.455195 137.635776 
L 496.51029 135.509069 
L 500.565384 138.384377 
L 504.620479 139.796511 
L 508.675574 140.034702 
L 512.730668 141.991273 
L 516.785763 141.429822 
L 524.895952 143.794721 
L 528.951046 143.93083 
L 533.006141 143.60757 
L 537.061236 145.155813 
L 541.11633 160.428408 
L 545.171425 146.891207 
L 549.226519 148.473477 
L 553.281614 160.246929 
L 557.336708 141.821136 
L 561.391803 147.214466 
L 565.446897 148.031122 
L 569.501992 163.921879 
L 573.557087 159.430273 
L 577.612181 164.443631 
L 581.667276 146.618988 
L 585.72237 146.90822 
L 589.777465 141.463849 
L 593.832559 141.804123 
L 597.887654 139.694429 
L 601.942749 139.354156 
L 605.997843 136.63197 
L 610.052938 138.265282 
L 614.108032 135.713233 
L 618.163127 132.650774 
L 622.218221 135.849342 
L 626.273316 131.442804 
L 630.328411 141.146261 
L 634.383505 141.962917 
L 638.4386 132.344528 
L 642.493694 135.70189 
L 646.548789 134.567646 
L 650.603883 130.438999 
L 654.658978 122.000224 
L 658.714073 136.280355 
L 666.824262 129.440864 
L 670.879356 136.042163 
L 674.934451 139.694429 
L 678.989545 145.547128 
L 678.989545 145.547128 
" clip-path="url(#p7d66efaead)" style="fill: none; stroke-dasharray: 5.55,2.4; stroke-dashoffset: 0; stroke: #808080; stroke-width: 1.5"/>
   </g>
   <g id="patch_3">
    <path d="M 44.57 246.04 
L 44.57 26.88 
" style="fill: none; stroke: #000000; stroke-width: 0.8; stroke-linejoin: miter; stroke-linecap: square"/>
   </g>
   <g id="patch_4">
    <path d="M 709.2 246.04 
L 709.2 26.88 
" style="fill: none; stroke: #000000; stroke-width: 0.8; stroke-linejoin: miter; stroke-linecap: square"/>
   </g>
   <g id="patch_5">
    <path d="M 44.57 246.04 
L 709.2 246.04 
" style="fill: none; stroke: #000000; stroke-width: 0.8; stroke-linejoin: miter; stroke-linecap: square"/>
   </g>
   <g id="patch_6">
    <path d="M 44.57 26.88 
L 709.2 26.88 
" style="fill: none; stroke: #000000; stroke-width: 0.8; stroke-linejoin: miter; stroke-linecap: square"/>
   </g>
   <g id="text_15">
    <!-- Luchtvochtigheid - v001/c00002/d001 -->
    <g transform="translate(262.595312 20.88) scale(0.12 -0.12)">
     <defs>
      <path id="DejaVuSans-4c" d="M 628 4666 
L 1259 4666 
L 1259 531 
L 3531 531 
L 3531 0 
L 628 0 
L 628 4666 
z
" transform="scale(0.015625)"/>
      <path id="DejaVuSans-75" d="M 544 1381 
L 544 3500 
L 1119 3500 
L 1119 1403 
Q 1119 906 1312 657 
Q 1506 409 1894 409 
Q 2359 409 2629 706 
Q 2900 1003 2900 1516 
L 2900 3500 
L 3475 3500 
L 3475 0 
L 2900 0 
L 2900 538 
Q 2691 219 2414 64 
Q 2138 -91 1772 -91 
Q 1169 -91 856 284 
Q 544 659 544 1381 
z
M 1991 3584 
L 1991 3584 
z
" transform="scale(0.015625)"/>
      <path id="DejaVuSans-76" d="M 191 3500 
L 800 3500 
L 1894 563 
L 2988 3500 
L 3597 3500 
L 2284 0 
L 1503 0 
L 191 3500 
z
" transform="scale(0.015625)"/>
      <path id="DejaVuSans-2f" d="M 1625 4666 
L 2156 4666 
L 531 -594 
L 0 -594 
L 1625 4666 
z
" transform="scale(0.015625)"/>
     </defs>
     <use xlink:href="#DejaVuSans-4c"/>
     <use xlink:href="#DejaVuSans-75" transform="translate(53.962891 0)"/>
     <use xlink:href="#DejaVuSans-63" transform="translate(117.341797 0)"/>
     <use xlink:href="#DejaVuSans-68" transform="translate(172.322266 0)"/>
     <use xlink:href="#DejaVuSans-74" transform="translate(235.701172 0)"/>
     <use xlink:href="#DejaVuSans-76" transform="translate(274.910156 0)"/>
     <use xlink:href="#DejaVuSans-6f" transform="translate(334.089844 0)"/>
     <use xlink:href="#DejaVuSans-63" transform="translate(395.271484 0)"/>
     <use xlink:href="#DejaVuSans-68" transform="translate(450.251953 0)"/>
     <use xlink:href="#DejaVuSans-74" transform="translate(513.630859 0)"/>
     <use xlink:href="#DejaVuSans-69" transform="translate(552.839844 0)"/>
     <use xlink:href="#DejaVuSans-67" transform="translate(580.623047 0)"/>
     <use xlink:href="#DejaVuSans-68" transform="translate(644.099609 0)"/>
     <use xlink:href="#DejaVuSans-65" transform="translate(707.478516 0)"/>
     <use xlink:href="#DejaVuSans-69" transform="translate(769.001953 0)"/>
     <use xlink:href="#DejaVuSans-64" transform="translate(796.785156 0)"/>
     <use xlink:href="#DejaVuSans-20" transform="translate(860.261719 0)"/>
     <use xlink:href="#DejaVuSans-2d" transform="translate(892.048828 0)"/>
     <use xlink:href="#DejaVuSans-20" transform="translate(928.132812 0)"/>
     <use xlink:href="#DejaVuSans-76" transform="translate(959.919922 0)"/>
     <use xlink:href="#DejaVuSans-30" transform="translate(1019.099609 0)"/>
     <use xlink:href="#DejaVuSans-30" transform="translate(1082.722656 0)"/>
     <use xlink:href="#DejaVuSans-31" transform="translate(1146.345703 0)"/>
     <use xlink:href="#DejaVuSans-2f" transform="translate(1209.96875 0)"/>
     <use xlink:href="#DejaVuSans-63" transform="translate(1243.660156 0)"/>
     <use xlink:href="#DejaVuSans-30" transform="translate(1298.640625 0)"/>
     <use xlink:href="#DejaVuSans-30" transform="translate(1362.263672 0)"/>
     <use xlink:href="#DejaVuSans-30" transform="translate(1425.886719 0)"/>
     <use xlink:href="#DejaVuSans-30" transform="translate(1489.509766 0)"/>
     <use xlink:href="#DejaVuSans-32" transform="translate(1553.132812 0)"/>
     <use xlink:href="#DejaVuSans-2f" transform="translate(1616.755859 0)"/>
     <use xlink:href="#DejaVuSans-64" transform="translate(1650.447266 0)"/>
     <use xlink:href="#DejaVuSans-30" transform="translate(1713.923828 0)"/>
     <use xlink:href="#DejaVuSans-30" transform="translate(1777.546875 0)"/>
     <use xlink:href="#DejaVuSans-31" transform="translate(1841.169922 0)"/>
    </g>
   </g>
   <g id="legend_1">
    <g id="patch_7">
     <path d="M 51.57 241.04 
L 202.51375 241.04 
Q 204.51375 241.04 204.51375 239.04 
L 204.51375 196.005625 
Q 204.51375 194.005625 202.51375 194.005625 
L 51.57 194.005625 
Q 49.57 194.005625 49.57 196.005625 
L 49.57 239.04 
Q 49.57 241.04 51.57 241.04 
z
" style="fill: #ffffff; opacity: 0.8; stroke: #cccccc; stroke-linejoin: miter"/>
    </g>
    <g id="line2d_15">
     <path d="M 53.57 202.104062 
L 63.57 202.104062 
L 73.57 202.104062 
" style="fill: none; stroke: #1f77b4; stroke-width: 2; stroke-linecap: square"/>
    </g>
    <g id="text_16">
     <!-- Hive -->
     <g transform="translate(81.57 205.604062) scale(0.1 -0.1)">
      <defs>
       <path id="DejaVuSans-48" d="M 628 4666 
L 1259 4666 
L 1259 2753 
L 3553 2753 
L 3553 4666 
L 4184 4666 
L 4184 0 
L 3553 0 
L 3553 2222 
L 1259 2222 
L 1259 0 
L 628 0 
L 628 4666 
z
" transform="scale(0.015625)"/>
      </defs>
      <use xlink:href="#DejaVuSans-48"/>
      <use xlink:href="#DejaVuSans-69" transform="translate(75.195312 0)"/>
      <use xlink:href="#DejaVuSans-76" transform="translate(102.978516 0)"/>
      <use xlink:href="#DejaVuSans-65" transform="translate(162.158203 0)"/>
     </g>
    </g>
    <g id="line2d_16">
     <path d="M 53.57 216.782187 
L 63.57 216.782187 
L 73.57 216.782187 
" style="fill: none; stroke-dasharray: 5.55,2.4; stroke-dashoffset: 0; stroke: #808080; stroke-width: 1.5"/>
    </g>
    <g id="text_17">
     <!-- Gemiddelde (alle hives) -->
     <g transform="translate(81.57 220.282187) scale(0.1 -0.1)">
      <defs>
       <path id="DejaVuSans-47" d="M 3809 666 
L 3809 1919 
L 2778 1919 
L 2778 2438 
L 4434 2438 
L 4434 434 
Q 4069 175 3628 42 
Q 3188 -91 2688 -91 
Q 1594 -91 976 548 
Q 359 1188 359 2328 
Q 359 3472 976 4111 
Q 1594 4750 2688 4750 
Q 3144 4750 3555 4637 
Q 3966 4525 4313 4306 
L 4313 3634 
Q 3963 3931 3569 4081 
Q 3175 4231 2741 4231 
Q 1884 4231 1454 3753 
Q 1025 3275 1025 2328 
Q 1025 1384 1454 906 
Q 1884 428 2741 428 
Q 3075 428 3337 486 
Q 3600 544 3809 666 
z
" transform="scale(0.015625)"/>
       <path id="DejaVuSans-6d" d="M 3328 2828 
Q 3544 3216 3844 3400 
Q 4144 3584 4550 3584 
Q 5097 3584 5394 3201 
Q 5691 2819 5691 2113 
L 5691 0 
L 5113 0 
L 5113 2094 
Q 5113 2597 4934 2840 
Q 4756 3084 4391 3084 
Q 3944 3084 3684 2787 
Q 3425 2491 3425 1978 
L 3425 0 
L 2847 0 
L 2847 2094 
Q 2847 2600 2669 2842 
Q 2491 3084 2119 3084 
Q 1678 3084 1418 2786 
Q 1159 2488 1159 1978 
L 1159 0 
L 581 0 
L 581 3500 
L 1159 3500 
L 1159 2956 
Q 1356 3278 1631 3431 
Q 1906 3584 2284 3584 
Q 2666 3584 2933 3390 
Q 3200 3197 3328 2828 
z
" transform="scale(0.015625)"/>
       <path id="DejaVuSans-61" d="M 2194 1759 
Q 1497 1759 1228 1600 
Q 959 1441 959 1056 
Q 959 750 1161 570 
Q 1363 391 1709 391 
Q 2188 391 2477 730 
Q 2766 1069 2766 1631 
L 2766 1759 
L 2194 1759 
z
M 3341 1997 
L 3341 0 
L 2766 0 
L 2766 531 
Q 2569 213 2275 61 
Q 1981 -91 1556 -91 
Q 1019 -91 701 211 
Q 384 513 384 1019 
Q 384 1609 779 1909 
Q 1175 2209 1959 2209 
L 2766 2209 
L 2766 2266 
Q 2766 2663 2505 2880 
Q 2244 3097 1772 3097 
Q 1472 3097 1187 3025 
Q 903 2953 641 2809 
L 641 3341 
Q 956 3463 1253 3523 
Q 1550 3584 1831 3584 
Q 2591 3584 2966 3190 
Q 3341 2797 3341 1997 
z
" transform="scale(0.015625)"/>
       <path id="DejaVuSans-73" d="M 2834 3397 
L 2834 2853 
Q 2591 2978 2328 3040 
Q 2066 3103 1784 3103 
Q 1356 3103 1142 2972 
Q 928 2841 928 2578 
Q 928 2378 1081 2264 
Q 1234 2150 1697 2047 
L 1894 2003 
Q 2506 1872 2764 1633 
Q 3022 1394 3022 966 
Q 3022 478 2636 193 
Q 2250 -91 1575 -91 
Q 1294 -91 989 -36 
Q 684 19 347 128 
L 347 722 
Q 666 556 975 473 
Q 1284 391 1588 391 
Q 1994 391 2212 530 
Q 2431 669 2431 922 
Q 2431 1156 2273 1281 
Q 2116 1406 1581 1522 
L 1381 1569 
Q 847 1681 609 1914 
Q 372 2147 372 2553 
Q 372 3047 722 3315 
Q 1072 3584 1716 3584 
Q 2034 3584 2315 3537 
Q 2597 3491 2834 3397 
z
" transform="scale(0.015625)"/>
      </defs>
      <use xlink:href="#DejaVuSans-47"/>
      <use xlink:href="#DejaVuSans-65" transform="translate(77.490234 0)"/>
      <use xlink:href="#DejaVuSans-6d" transform="translate(139.013672 0)"/>
      <use xlink:href="#DejaVuSans-69" transform="translate(236.425781 0)"/>
      <use xlink:href="#DejaVuSans-64" transform="translate(264.208984 0)"/>
      <use xlink:href="#DejaVuSans-64" transform="translate(327.685547 0)"/>
      <use xlink:href="#DejaVuSans-65" transform="translate(391.162109 0)"/>
      <use xlink:href="#DejaVuSans-6c" transform="translate(452.685547 0)"/>
      <use xlink:href="#DejaVuSans-64" transform="translate(480.46875 0)"/>
      <use xlink:href="#DejaVuSans-65" transform="translate(543.945312 0)"/>
      <use xlink:href="#DejaVuSans-20" transform="translate(605.46875 0)"/>
      <use xlink:href="#DejaVuSans-28" transform="translate(637.255859 0)"/>
      <use xlink:href="#DejaVuSans-61" transform="translate(676.269531 0)"/>
      <use xlink:href="#DejaVuSans-6c" transform="translate(737.548828 0)"/>
      <use xlink:href="#DejaVuSans-6c" transform="translate(765.332031 0)"/>
      <use xlink:href="#DejaVuSans-65" transform="translate(793.115234 0)"/>
      <use xlink:href="#DejaVuSans-20" transform="translate(854.638672 0)"/>
      <use xlink:href="#DejaVuSans-68" transform="translate(886.425781 0)"/>
      <use xlink:href="#DejaVuSans-69" transform="translate(949.804688 0)"/>
      <use xlink:href="#DejaVuSans-76" transform="translate(977.587891 0)"/>
      <use xlink:href="#DejaVuSans-65" transform="translate(1036.767578 0)"/>
      <use xlink:href="#DejaVuSans-73" transform="translate(1098.291016 0)"/>
      <use xlink:href="#DejaVuSans-29" transform="translate(1150.390625 0)"/>
     </g>
    </g>
    <g id="patch_8">
     <path d="M 53.57 234.960312 
L 73.57 234.960312 
L 73.57 227.960312 
L 53.57 227.960312 
z
" style="fill: #808080; fill-opacity: 0.2; stroke: #808080; stroke-opacity: 0.2; stroke-linejoin: miter"/>
    </g>
    <g id="text_18">
     <!-- ±2 Std Dev -->
     <g transform="translate(81.57 234.960312) scale(0.1 -0.1)">
      <defs>
       <path id="DejaVuSans-b1" d="M 2944 4013 
L 2944 2803 
L 4684 2803 
L 4684 2272 
L 2944 2272 
L 2944 1063 
L 2419 1063 
L 2419 2272 
L 678 2272 
L 678 2803 
L 2419 2803 
L 2419 4013 
L 2944 4013 
z
M 678 531 
L 4684 531 
L 4684 0 
L 678 0 
L 678 531 
z
" transform="scale(0.015625)"/>
       <path id="DejaVuSans-53" d="M 3425 4513 
L 3425 3897 
Q 3066 4069 2747 4153 
Q 2428 4238 2131 4238 
Q 1616 4238 1336 4038 
Q 1056 3838 1056 3469 
Q 1056 3159 1242 3001 
Q 1428 2844 1947 2747 
L 2328 2669 
Q 3034 2534 3370 2195 
Q 3706 1856 3706 1288 
Q 3706 609 3251 259 
Q 2797 -91 1919 -91 
Q 1588 -91 1214 -16 
Q 841 59 441 206 
L 441 856 
Q 825 641 1194 531 
Q 1563 422 1919 422 
Q 2459 422 2753 634 
Q 3047 847 3047 1241 
Q 3047 1584 2836 1778 
Q 2625 1972 2144 2069 
L 1759 2144 
Q 1053 2284 737 2584 
Q 422 2884 422 3419 
Q 422 4038 858 4394 
Q 1294 4750 2059 4750 
Q 2388 4750 2728 4690 
Q 3069 4631 3425 4513 
z
" transform="scale(0.015625)"/>
       <path id="DejaVuSans-44" d="M 1259 4147 
L 1259 519 
L 2022 519 
Q 2988 519 3436 956 
Q 3884 1394 3884 2338 
Q 3884 3275 3436 3711 
Q 2988 4147 2022 4147 
L 1259 4147 
z
M 628 4666 
L 1925 4666 
Q 3281 4666 3915 4102 
Q 4550 3538 4550 2338 
Q 4550 1131 3912 565 
Q 3275 0 1925 0 
L 628 0 
L 628 4666 
z
" transform="scale(0.015625)"/>
      </defs>
      <use xlink:href="#DejaVuSans-b1"/>
      <use xlink:href="#DejaVuSans-32" transform="translate(83.789062 0)"/>
      <use xlink:href="#DejaVuSans-20" transform="translate(147.412109 0)"/>
      <use xlink:href="#DejaVuSans-53" transform="translate(179.199219 0)"/>
      <use xlink:href="#DejaVuSans-74" transform="translate(242.675781 0)"/>
      <use xlink:href="#DejaVuSans-64" transform="translate(281.884766 0)"/>
      <use xlink:href="#DejaVuSans-20" transform="translate(345.361328 0)"/>
      <use xlink:href="#DejaVuSans-44" transform="translate(377.148438 0)"/>
      <use xlink:href="#DejaVuSans-65" transform="translate(454.150391 0)"/>
      <use xlink:href="#DejaVuSans-76" transform="translate(515.673828 0)"/>
     </g>
    </g>
   </g>
  </g>
 </g>
 <defs>
  <clipPath id="p7d66efaead">
   <rect x="44.57" y="26.88" width="664.63" height="219.16"/>
  </clipPath>
 </defs>
</svg>
