<?xml version="1.0" encoding="utf-8" standalone="no"?>
<!DOCTYPE svg PUBLIC "-//W3C//DTD SVG 1.1//EN"
  "http://www.w3.org/Graphics/SVG/1.1/DTD/svg11.dtd">
<svg xmlns:xlink="http://www.w3.org/1999/xlink" width="720pt" height="288pt" viewBox="0 0 720 288" xmlns="http://www.w3.org/2000/svg" version="1.1">
 <metadata>
  <rdf:RDF xmlns:dc="http://purl.org/dc/elements/1.1/" xmlns:cc="http://creativecommons.org/ns#" xmlns:rdf="http://www.w3.org/1999/02/22-rdf-syntax-ns#">
   <cc:Work>
    <dc:type rdf:resource="http://purl.org/dc/dcmitype/StillImage"/>
    <dc:date>2025-06-20T23:15:59.037270</dc:date>
    <dc:format>image/svg+xml</dc:format>
    <dc:creator>
     <cc:Agent>
      <dc:title>Matplotlib v3.10.3, https://matplotlib.org/</dc:title>
     </cc:Agent>
    </dc:creator>
   </cc:Work>
  </rdf:RDF>
 </metadata>
 <defs>
  <style type="text/css">*{stroke-linejoin: round; stroke-linecap: butt}</style>
 </defs>
 <g id="figure_1">
  <g id="patch_1">
   <path d="M 0 288 
L 720 288 
L 720 0 
L 0 0 
z
" style="fill: #ffffff"/>
  </g>
  <g id="axes_1">
   <g id="patch_2">
    <path d="M 44.57 246.04 
L 709.2 246.04 
L 709.2 26.88 
L 44.57 26.88 
z
" style="fill: #ffffff"/>
   </g>
   <g id="FillBetweenPolyCollection_1">
    <defs>
     <path id="mbc811bb669" d="M 74.780455 -150.177387 
L 74.780455 -133.556432 
L 78.272993 -128.825867 
L 81.765531 -117.420606 
L 85.258069 -100.275689 
L 88.750607 -73.793239 
L 92.243145 -70.2099 
L 95.735683 -74.917206 
L 99.228221 -71.796241 
L 102.720759 -73.535425 
L 106.213297 -82.104005 
L 109.705836 -83.24392 
L 113.198374 -84.1433 
L 116.690912 -85.607184 
L 120.18345 -88.260503 
L 123.675988 -89.284606 
L 127.168526 -90.077571 
L 130.661064 -89.420871 
L 134.153602 -93.534735 
L 137.64614 -94.733036 
L 141.138678 -97.434315 
L 144.631216 -101.226457 
L 148.123755 -104.697372 
L 151.616293 -106.796706 
L 155.108831 -109.080954 
L 158.601369 -108.790883 
L 162.093907 -108.608147 
L 165.586445 -108.813092 
L 169.078983 -110.833426 
L 172.571521 -110.729048 
L 176.064059 -109.459836 
L 179.556597 -108.617955 
L 183.049136 -105.501046 
L 186.541674 -91.888122 
L 190.034212 -103.191899 
L 193.52675 -105.044184 
L 197.019288 -106.114036 
L 200.511826 -107.809358 
L 204.004364 -100.26173 
L 207.496902 -93.338636 
L 210.98944 -93.646885 
L 214.481978 -117.336032 
L 217.974517 -121.875074 
L 221.467055 -111.705068 
L 224.959593 -100.381531 
L 228.452131 -101.25888 
L 231.944669 -106.585267 
L 235.437207 -105.725379 
L 238.929745 -110.433674 
L 242.422283 -119.775179 
L 245.914821 -121.893905 
L 249.407359 -120.123254 
L 252.899898 -117.637918 
L 256.392436 -114.567127 
L 259.884974 -65.465395 
L 263.377512 -67.365145 
L 266.87005 -64.390147 
L 270.362588 -67.817268 
L 273.855126 -73.763911 
L 277.347664 -70.433962 
L 280.840202 -75.620069 
L 284.33274 -108.076143 
L 287.825279 -79.413049 
L 291.317817 -85.429655 
L 294.810355 -89.688271 
L 298.302893 -92.339322 
L 301.795431 -92.305468 
L 305.287969 -94.507801 
L 308.780507 -91.938445 
L 312.273045 -96.980967 
L 315.765583 -96.4697 
L 319.258121 -91.254773 
L 322.750659 -93.843049 
L 326.243198 -91.990199 
L 329.735736 -89.627294 
L 333.228274 -89.620066 
L 336.720812 -72.839079 
L 340.21335 -72.803162 
L 343.705888 -87.170567 
L 347.198426 -99.316532 
L 350.690964 -98.86621 
L 354.183502 -99.151593 
L 357.67604 -105.366301 
L 361.168579 -108.225371 
L 364.661117 -107.885125 
L 368.153655 -107.71149 
L 371.646193 -108.477281 
L 375.138731 -108.849117 
L 378.631269 -109.398995 
L 382.123807 -111.309791 
L 385.616345 -110.34094 
L 389.108883 -108.571927 
L 392.601421 -117.141594 
L 396.09396 -108.861809 
L 399.586498 -117.51738 
L 403.079036 -125.671564 
L 406.571574 -127.174084 
L 410.064112 -127.828475 
L 413.55665 -125.739386 
L 417.049188 -120.828675 
L 420.541726 -112.78942 
L 424.034264 -105.593399 
L 427.526802 -97.877004 
L 431.019341 -97.050405 
L 434.511879 -95.656456 
L 438.004417 -90.366679 
L 441.496955 -86.815443 
L 444.989493 -83.322208 
L 448.482031 -81.746805 
L 451.974569 -81.051593 
L 455.467107 -82.038079 
L 458.959645 -84.933979 
L 462.452183 -88.552329 
L 465.944721 -90.340725 
L 469.43726 -87.444048 
L 472.929798 -89.422504 
L 476.422336 -89.388916 
L 479.914874 -89.035977 
L 483.407412 -89.298528 
L 486.89995 -89.354343 
L 490.392488 -89.056574 
L 493.885026 -89.358198 
L 497.377564 -89.217772 
L 500.870102 -71.106859 
L 504.362641 -100.884426 
L 507.855179 -67.941723 
L 511.347717 -79.029205 
L 514.840255 -88.538045 
L 518.332793 -103.943991 
L 521.825331 -104.365395 
L 525.317869 -101.707326 
L 528.810407 -103.906914 
L 532.302945 -106.102942 
L 535.795483 -109.746888 
L 539.288022 -108.700498 
L 542.78056 -107.268961 
L 546.273098 -105.411149 
L 549.765636 -106.831798 
L 553.258174 -109.011679 
L 556.750712 -109.15717 
L 560.24325 -112.533395 
L 563.735788 -112.983255 
L 567.228326 -112.106139 
L 570.720864 -110.978409 
L 574.213403 -110.080779 
L 577.705941 -107.856283 
L 581.198479 -129.901632 
L 584.691017 -126.962995 
L 588.183555 -119.867406 
L 591.676093 -102.975982 
L 595.168631 -79.487863 
L 598.661169 -63.685481 
L 602.153707 -55.970577 
L 605.646245 -51.921818 
L 609.138783 -53.527661 
L 612.631322 -53.315987 
L 616.12386 -59.831371 
L 619.616398 -64.599706 
L 619.616398 -248.096588 
L 619.616398 -248.096588 
L 616.12386 -235.932602 
L 612.631322 -251.158182 
L 609.138783 -236.614106 
L 605.646245 -242.246537 
L 602.153707 -239.605676 
L 598.661169 -232.566563 
L 595.168631 -211.977328 
L 591.676093 -179.140766 
L 588.183555 -157.518803 
L 584.691017 -151.04269 
L 581.198479 -151.088797 
L 577.705941 -159.224112 
L 574.213403 -159.815412 
L 570.720864 -160.494629 
L 567.228326 -161.46936 
L 563.735788 -164.027515 
L 560.24325 -165.247026 
L 556.750712 -170.613081 
L 553.258174 -171.08574 
L 549.765636 -174.520661 
L 546.273098 -179.609891 
L 542.78056 -182.546978 
L 539.288022 -182.30612 
L 535.795483 -182.353869 
L 532.302945 -186.188215 
L 528.810407 -188.309156 
L 525.317869 -191.146991 
L 521.825331 -191.3074 
L 518.332793 -187.947591 
L 514.840255 -214.278828 
L 511.347717 -229.660613 
L 507.855179 -238.431097 
L 504.362641 -162.656111 
L 500.870102 -211.632582 
L 497.377564 -177.090291 
L 493.885026 -170.014961 
L 490.392488 -168.305302 
L 486.89995 -164.652713 
L 483.407412 -164.230647 
L 479.914874 -161.921974 
L 476.422336 -160.861063 
L 472.929798 -160.100196 
L 469.43726 -155.825974 
L 465.944721 -158.565717 
L 462.452183 -160.622821 
L 458.959645 -167.311193 
L 455.467107 -173.344695 
L 451.974569 -175.50577 
L 448.482031 -175.405898 
L 444.989493 -174.892452 
L 441.496955 -172.943882 
L 438.004417 -171.500471 
L 434.511879 -166.435958 
L 431.019341 -169.080665 
L 427.526802 -178.777098 
L 424.034264 -171.961758 
L 420.541726 -165.396476 
L 417.049188 -162.714742 
L 413.55665 -158.874034 
L 410.064112 -158.962494 
L 406.571574 -161.268819 
L 403.079036 -165.699767 
L 399.586498 -177.608345 
L 396.09396 -191.276034 
L 392.601421 -177.263288 
L 389.108883 -185.247269 
L 385.616345 -177.839156 
L 382.123807 -174.955563 
L 378.631269 -176.828815 
L 375.138731 -178.692731 
L 371.646193 -173.808414 
L 368.153655 -174.968417 
L 364.661117 -171.509686 
L 361.168579 -167.490133 
L 357.67604 -162.502518 
L 354.183502 -178.760232 
L 350.690964 -176.886837 
L 347.198426 -172.644577 
L 343.705888 -185.05335 
L 340.21335 -202.856026 
L 336.720812 -199.30975 
L 333.228274 -170.420839 
L 329.735736 -160.31697 
L 326.243198 -152.966084 
L 322.750659 -147.29984 
L 319.258121 -152.22925 
L 315.765583 -138.719792 
L 312.273045 -136.788559 
L 308.780507 -144.393456 
L 305.287969 -139.145071 
L 301.795431 -145.68373 
L 298.302893 -144.185662 
L 294.810355 -148.622733 
L 291.317817 -156.397071 
L 287.825279 -168.144493 
L 284.33274 -121.910831 
L 280.840202 -174.782768 
L 277.347664 -186.82869 
L 273.855126 -188.526768 
L 270.362588 -196.334699 
L 266.87005 -209.410616 
L 263.377512 -205.202031 
L 259.884974 -214.098364 
L 256.392436 -142.526578 
L 252.899898 -142.684567 
L 249.407359 -144.216433 
L 245.914821 -152.4432 
L 242.422283 -163.765557 
L 238.929745 -179.800612 
L 235.437207 -189.142903 
L 231.944669 -192.112498 
L 228.452131 -212.048844 
L 224.959593 -216.787856 
L 221.467055 -197.676632 
L 217.974517 -176.887051 
L 214.481978 -181.973163 
L 210.98944 -222.235282 
L 207.496902 -223.042329 
L 204.004364 -207.559215 
L 200.511826 -191.017128 
L 197.019288 -185.552283 
L 193.52675 -183.597165 
L 190.034212 -180.010941 
L 186.541674 -195.278286 
L 183.049136 -170.879522 
L 179.556597 -162.533277 
L 176.064059 -157.00913 
L 172.571521 -150.993289 
L 169.078983 -144.855063 
L 165.586445 -142.705336 
L 162.093907 -137.426183 
L 158.601369 -134.009304 
L 155.108831 -132.432011 
L 151.616293 -130.307528 
L 148.123755 -131.465581 
L 144.631216 -131.887391 
L 141.138678 -134.794569 
L 137.64614 -137.447577 
L 134.153602 -138.838961 
L 130.661064 -145.784711 
L 127.168526 -145.128012 
L 123.675988 -147.433461 
L 120.18345 -152.051056 
L 116.690912 -157.069644 
L 113.198374 -163.11389 
L 109.705836 -167.231323 
L 106.213297 -173.504032 
L 102.720759 -195.865186 
L 99.228221 -196.485561 
L 95.735683 -200.851932 
L 92.243145 -211.212284 
L 88.750607 -217.503004 
L 85.258069 -182.943242 
L 81.765531 -164.028396 
L 78.272993 -153.0093 
L 74.780455 -150.177387 
z
" style="stroke: #808080; stroke-opacity: 0.2"/>
    </defs>
    <g clip-path="url(#p242082bd31)">
     <use xlink:href="#mbc811bb669" x="0" y="288" style="fill: #808080; fill-opacity: 0.2; stroke: #808080; stroke-opacity: 0.2"/>
    </g>
   </g>
   <g id="matplotlib.axis_1">
    <g id="xtick_1">
     <g id="line2d_1">
      <defs>
       <path id="me93b92f8eb" d="M 0 0 
L 0 3.5 
" style="stroke: #000000; stroke-width: 0.8"/>
      </defs>
      <g>
       <use xlink:href="#me93b92f8eb" x="81.765531" y="246.04" style="stroke: #000000; stroke-width: 0.8"/>
      </g>
     </g>
     <g id="text_1">
      <!-- 06-18 00 -->
      <g transform="translate(59.285062 260.638438) scale(0.1 -0.1)">
       <defs>
        <path id="DejaVuSans-30" d="M 2034 4250 
Q 1547 4250 1301 3770 
Q 1056 3291 1056 2328 
Q 1056 1369 1301 889 
Q 1547 409 2034 409 
Q 2525 409 2770 889 
Q 3016 1369 3016 2328 
Q 3016 3291 2770 3770 
Q 2525 4250 2034 4250 
z
M 2034 4750 
Q 2819 4750 3233 4129 
Q 3647 3509 3647 2328 
Q 3647 1150 3233 529 
Q 2819 -91 2034 -91 
Q 1250 -91 836 529 
Q 422 1150 422 2328 
Q 422 3509 836 4129 
Q 1250 4750 2034 4750 
z
" transform="scale(0.015625)"/>
        <path id="DejaVuSans-36" d="M 2113 2584 
Q 1688 2584 1439 2293 
Q 1191 2003 1191 1497 
Q 1191 994 1439 701 
Q 1688 409 2113 409 
Q 2538 409 2786 701 
Q 3034 994 3034 1497 
Q 3034 2003 2786 2293 
Q 2538 2584 2113 2584 
z
M 3366 4563 
L 3366 3988 
Q 3128 4100 2886 4159 
Q 2644 4219 2406 4219 
Q 1781 4219 1451 3797 
Q 1122 3375 1075 2522 
Q 1259 2794 1537 2939 
Q 1816 3084 2150 3084 
Q 2853 3084 3261 2657 
Q 3669 2231 3669 1497 
Q 3669 778 3244 343 
Q 2819 -91 2113 -91 
Q 1303 -91 875 529 
Q 447 1150 447 2328 
Q 447 3434 972 4092 
Q 1497 4750 2381 4750 
Q 2619 4750 2861 4703 
Q 3103 4656 3366 4563 
z
" transform="scale(0.015625)"/>
        <path id="DejaVuSans-2d" d="M 313 2009 
L 1997 2009 
L 1997 1497 
L 313 1497 
L 313 2009 
z
" transform="scale(0.015625)"/>
        <path id="DejaVuSans-31" d="M 794 531 
L 1825 531 
L 1825 4091 
L 703 3866 
L 703 4441 
L 1819 4666 
L 2450 4666 
L 2450 531 
L 3481 531 
L 3481 0 
L 794 0 
L 794 531 
z
" transform="scale(0.015625)"/>
        <path id="DejaVuSans-38" d="M 2034 2216 
Q 1584 2216 1326 1975 
Q 1069 1734 1069 1313 
Q 1069 891 1326 650 
Q 1584 409 2034 409 
Q 2484 409 2743 651 
Q 3003 894 3003 1313 
Q 3003 1734 2745 1975 
Q 2488 2216 2034 2216 
z
M 1403 2484 
Q 997 2584 770 2862 
Q 544 3141 544 3541 
Q 544 4100 942 4425 
Q 1341 4750 2034 4750 
Q 2731 4750 3128 4425 
Q 3525 4100 3525 3541 
Q 3525 3141 3298 2862 
Q 3072 2584 2669 2484 
Q 3125 2378 3379 2068 
Q 3634 1759 3634 1313 
Q 3634 634 3220 271 
Q 2806 -91 2034 -91 
Q 1263 -91 848 271 
Q 434 634 434 1313 
Q 434 1759 690 2068 
Q 947 2378 1403 2484 
z
M 1172 3481 
Q 1172 3119 1398 2916 
Q 1625 2713 2034 2713 
Q 2441 2713 2670 2916 
Q 2900 3119 2900 3481 
Q 2900 3844 2670 4047 
Q 2441 4250 2034 4250 
Q 1625 4250 1398 4047 
Q 1172 3844 1172 3481 
z
" transform="scale(0.015625)"/>
        <path id="DejaVuSans-20" transform="scale(0.015625)"/>
       </defs>
       <use xlink:href="#DejaVuSans-30"/>
       <use xlink:href="#DejaVuSans-36" transform="translate(63.623047 0)"/>
       <use xlink:href="#DejaVuSans-2d" transform="translate(127.246094 0)"/>
       <use xlink:href="#DejaVuSans-31" transform="translate(163.330078 0)"/>
       <use xlink:href="#DejaVuSans-38" transform="translate(226.953125 0)"/>
       <use xlink:href="#DejaVuSans-20" transform="translate(290.576172 0)"/>
       <use xlink:href="#DejaVuSans-30" transform="translate(322.363281 0)"/>
       <use xlink:href="#DejaVuSans-30" transform="translate(385.986328 0)"/>
      </g>
     </g>
    </g>
    <g id="xtick_2">
     <g id="line2d_2">
      <g>
       <use xlink:href="#me93b92f8eb" x="165.586445" y="246.04" style="stroke: #000000; stroke-width: 0.8"/>
      </g>
     </g>
     <g id="text_2">
      <!-- 06-18 12 -->
      <g transform="translate(143.105976 260.638438) scale(0.1 -0.1)">
       <defs>
        <path id="DejaVuSans-32" d="M 1228 531 
L 3431 531 
L 3431 0 
L 469 0 
L 469 531 
Q 828 903 1448 1529 
Q 2069 2156 2228 2338 
Q 2531 2678 2651 2914 
Q 2772 3150 2772 3378 
Q 2772 3750 2511 3984 
Q 2250 4219 1831 4219 
Q 1534 4219 1204 4116 
Q 875 4013 500 3803 
L 500 4441 
Q 881 4594 1212 4672 
Q 1544 4750 1819 4750 
Q 2544 4750 2975 4387 
Q 3406 4025 3406 3419 
Q 3406 3131 3298 2873 
Q 3191 2616 2906 2266 
Q 2828 2175 2409 1742 
Q 1991 1309 1228 531 
z
" transform="scale(0.015625)"/>
       </defs>
       <use xlink:href="#DejaVuSans-30"/>
       <use xlink:href="#DejaVuSans-36" transform="translate(63.623047 0)"/>
       <use xlink:href="#DejaVuSans-2d" transform="translate(127.246094 0)"/>
       <use xlink:href="#DejaVuSans-31" transform="translate(163.330078 0)"/>
       <use xlink:href="#DejaVuSans-38" transform="translate(226.953125 0)"/>
       <use xlink:href="#DejaVuSans-20" transform="translate(290.576172 0)"/>
       <use xlink:href="#DejaVuSans-31" transform="translate(322.363281 0)"/>
       <use xlink:href="#DejaVuSans-32" transform="translate(385.986328 0)"/>
      </g>
     </g>
    </g>
    <g id="xtick_3">
     <g id="line2d_3">
      <g>
       <use xlink:href="#me93b92f8eb" x="249.407359" y="246.04" style="stroke: #000000; stroke-width: 0.8"/>
      </g>
     </g>
     <g id="text_3">
      <!-- 06-19 00 -->
      <g transform="translate(226.926891 260.638438) scale(0.1 -0.1)">
       <defs>
        <path id="DejaVuSans-39" d="M 703 97 
L 703 672 
Q 941 559 1184 500 
Q 1428 441 1663 441 
Q 2288 441 2617 861 
Q 2947 1281 2994 2138 
Q 2813 1869 2534 1725 
Q 2256 1581 1919 1581 
Q 1219 1581 811 2004 
Q 403 2428 403 3163 
Q 403 3881 828 4315 
Q 1253 4750 1959 4750 
Q 2769 4750 3195 4129 
Q 3622 3509 3622 2328 
Q 3622 1225 3098 567 
Q 2575 -91 1691 -91 
Q 1453 -91 1209 -44 
Q 966 3 703 97 
z
M 1959 2075 
Q 2384 2075 2632 2365 
Q 2881 2656 2881 3163 
Q 2881 3666 2632 3958 
Q 2384 4250 1959 4250 
Q 1534 4250 1286 3958 
Q 1038 3666 1038 3163 
Q 1038 2656 1286 2365 
Q 1534 2075 1959 2075 
z
" transform="scale(0.015625)"/>
       </defs>
       <use xlink:href="#DejaVuSans-30"/>
       <use xlink:href="#DejaVuSans-36" transform="translate(63.623047 0)"/>
       <use xlink:href="#DejaVuSans-2d" transform="translate(127.246094 0)"/>
       <use xlink:href="#DejaVuSans-31" transform="translate(163.330078 0)"/>
       <use xlink:href="#DejaVuSans-39" transform="translate(226.953125 0)"/>
       <use xlink:href="#DejaVuSans-20" transform="translate(290.576172 0)"/>
       <use xlink:href="#DejaVuSans-30" transform="translate(322.363281 0)"/>
       <use xlink:href="#DejaVuSans-30" transform="translate(385.986328 0)"/>
      </g>
     </g>
    </g>
    <g id="xtick_4">
     <g id="line2d_4">
      <g>
       <use xlink:href="#me93b92f8eb" x="333.228274" y="246.04" style="stroke: #000000; stroke-width: 0.8"/>
      </g>
     </g>
     <g id="text_4">
      <!-- 06-19 12 -->
      <g transform="translate(310.747805 260.638438) scale(0.1 -0.1)">
       <use xlink:href="#DejaVuSans-30"/>
       <use xlink:href="#DejaVuSans-36" transform="translate(63.623047 0)"/>
       <use xlink:href="#DejaVuSans-2d" transform="translate(127.246094 0)"/>
       <use xlink:href="#DejaVuSans-31" transform="translate(163.330078 0)"/>
       <use xlink:href="#DejaVuSans-39" transform="translate(226.953125 0)"/>
       <use xlink:href="#DejaVuSans-20" transform="translate(290.576172 0)"/>
       <use xlink:href="#DejaVuSans-31" transform="translate(322.363281 0)"/>
       <use xlink:href="#DejaVuSans-32" transform="translate(385.986328 0)"/>
      </g>
     </g>
    </g>
    <g id="xtick_5">
     <g id="line2d_5">
      <g>
       <use xlink:href="#me93b92f8eb" x="417.049188" y="246.04" style="stroke: #000000; stroke-width: 0.8"/>
      </g>
     </g>
     <g id="text_5">
      <!-- 06-20 00 -->
      <g transform="translate(394.568719 260.638438) scale(0.1 -0.1)">
       <use xlink:href="#DejaVuSans-30"/>
       <use xlink:href="#DejaVuSans-36" transform="translate(63.623047 0)"/>
       <use xlink:href="#DejaVuSans-2d" transform="translate(127.246094 0)"/>
       <use xlink:href="#DejaVuSans-32" transform="translate(163.330078 0)"/>
       <use xlink:href="#DejaVuSans-30" transform="translate(226.953125 0)"/>
       <use xlink:href="#DejaVuSans-20" transform="translate(290.576172 0)"/>
       <use xlink:href="#DejaVuSans-30" transform="translate(322.363281 0)"/>
       <use xlink:href="#DejaVuSans-30" transform="translate(385.986328 0)"/>
      </g>
     </g>
    </g>
    <g id="xtick_6">
     <g id="line2d_6">
      <g>
       <use xlink:href="#me93b92f8eb" x="500.870102" y="246.04" style="stroke: #000000; stroke-width: 0.8"/>
      </g>
     </g>
     <g id="text_6">
      <!-- 06-20 12 -->
      <g transform="translate(478.389634 260.638438) scale(0.1 -0.1)">
       <use xlink:href="#DejaVuSans-30"/>
       <use xlink:href="#DejaVuSans-36" transform="translate(63.623047 0)"/>
       <use xlink:href="#DejaVuSans-2d" transform="translate(127.246094 0)"/>
       <use xlink:href="#DejaVuSans-32" transform="translate(163.330078 0)"/>
       <use xlink:href="#DejaVuSans-30" transform="translate(226.953125 0)"/>
       <use xlink:href="#DejaVuSans-20" transform="translate(290.576172 0)"/>
       <use xlink:href="#DejaVuSans-31" transform="translate(322.363281 0)"/>
       <use xlink:href="#DejaVuSans-32" transform="translate(385.986328 0)"/>
      </g>
     </g>
    </g>
    <g id="xtick_7">
     <g id="line2d_7">
      <g>
       <use xlink:href="#me93b92f8eb" x="584.691017" y="246.04" style="stroke: #000000; stroke-width: 0.8"/>
      </g>
     </g>
     <g id="text_7">
      <!-- 06-21 00 -->
      <g transform="translate(562.210548 260.638438) scale(0.1 -0.1)">
       <use xlink:href="#DejaVuSans-30"/>
       <use xlink:href="#DejaVuSans-36" transform="translate(63.623047 0)"/>
       <use xlink:href="#DejaVuSans-2d" transform="translate(127.246094 0)"/>
       <use xlink:href="#DejaVuSans-32" transform="translate(163.330078 0)"/>
       <use xlink:href="#DejaVuSans-31" transform="translate(226.953125 0)"/>
       <use xlink:href="#DejaVuSans-20" transform="translate(290.576172 0)"/>
       <use xlink:href="#DejaVuSans-30" transform="translate(322.363281 0)"/>
       <use xlink:href="#DejaVuSans-30" transform="translate(385.986328 0)"/>
      </g>
     </g>
    </g>
    <g id="xtick_8">
     <g id="line2d_8">
      <g>
       <use xlink:href="#me93b92f8eb" x="668.511931" y="246.04" style="stroke: #000000; stroke-width: 0.8"/>
      </g>
     </g>
     <g id="text_8">
      <!-- 06-21 12 -->
      <g transform="translate(646.031462 260.638438) scale(0.1 -0.1)">
       <use xlink:href="#DejaVuSans-30"/>
       <use xlink:href="#DejaVuSans-36" transform="translate(63.623047 0)"/>
       <use xlink:href="#DejaVuSans-2d" transform="translate(127.246094 0)"/>
       <use xlink:href="#DejaVuSans-32" transform="translate(163.330078 0)"/>
       <use xlink:href="#DejaVuSans-31" transform="translate(226.953125 0)"/>
       <use xlink:href="#DejaVuSans-20" transform="translate(290.576172 0)"/>
       <use xlink:href="#DejaVuSans-31" transform="translate(322.363281 0)"/>
       <use xlink:href="#DejaVuSans-32" transform="translate(385.986328 0)"/>
      </g>
     </g>
    </g>
    <g id="text_9">
     <!-- Tijd -->
     <g transform="translate(368.035 274.316562) scale(0.1 -0.1)">
      <defs>
       <path id="DejaVuSans-54" d="M -19 4666 
L 3928 4666 
L 3928 4134 
L 2272 4134 
L 2272 0 
L 1638 0 
L 1638 4134 
L -19 4134 
L -19 4666 
z
" transform="scale(0.015625)"/>
       <path id="DejaVuSans-69" d="M 603 3500 
L 1178 3500 
L 1178 0 
L 603 0 
L 603 3500 
z
M 603 4863 
L 1178 4863 
L 1178 4134 
L 603 4134 
L 603 4863 
z
" transform="scale(0.015625)"/>
       <path id="DejaVuSans-6a" d="M 603 3500 
L 1178 3500 
L 1178 -63 
Q 1178 -731 923 -1031 
Q 669 -1331 103 -1331 
L -116 -1331 
L -116 -844 
L 38 -844 
Q 366 -844 484 -692 
Q 603 -541 603 -63 
L 603 3500 
z
M 603 4863 
L 1178 4863 
L 1178 4134 
L 603 4134 
L 603 4863 
z
" transform="scale(0.015625)"/>
       <path id="DejaVuSans-64" d="M 2906 2969 
L 2906 4863 
L 3481 4863 
L 3481 0 
L 2906 0 
L 2906 525 
Q 2725 213 2448 61 
Q 2172 -91 1784 -91 
Q 1150 -91 751 415 
Q 353 922 353 1747 
Q 353 2572 751 3078 
Q 1150 3584 1784 3584 
Q 2172 3584 2448 3432 
Q 2725 3281 2906 2969 
z
M 947 1747 
Q 947 1113 1208 752 
Q 1469 391 1925 391 
Q 2381 391 2643 752 
Q 2906 1113 2906 1747 
Q 2906 2381 2643 2742 
Q 2381 3103 1925 3103 
Q 1469 3103 1208 2742 
Q 947 2381 947 1747 
z
" transform="scale(0.015625)"/>
      </defs>
      <use xlink:href="#DejaVuSans-54"/>
      <use xlink:href="#DejaVuSans-69" transform="translate(57.958984 0)"/>
      <use xlink:href="#DejaVuSans-6a" transform="translate(85.742188 0)"/>
      <use xlink:href="#DejaVuSans-64" transform="translate(113.525391 0)"/>
     </g>
    </g>
   </g>
   <g id="matplotlib.axis_2">
    <g id="ytick_1">
     <g id="line2d_9">
      <defs>
       <path id="mfd6d2ecf1c" d="M 0 0 
L -3.5 0 
" style="stroke: #000000; stroke-width: 0.8"/>
      </defs>
      <g>
       <use xlink:href="#mfd6d2ecf1c" x="44.57" y="225.248919" style="stroke: #000000; stroke-width: 0.8"/>
      </g>
     </g>
     <g id="text_10">
      <!-- 0 -->
      <g transform="translate(31.2075 229.048138) scale(0.1 -0.1)">
       <use xlink:href="#DejaVuSans-30"/>
      </g>
     </g>
    </g>
    <g id="ytick_2">
     <g id="line2d_10">
      <g>
       <use xlink:href="#mfd6d2ecf1c" x="44.57" y="191.459364" style="stroke: #000000; stroke-width: 0.8"/>
      </g>
     </g>
     <g id="text_11">
      <!-- 10 -->
      <g transform="translate(24.845 195.258583) scale(0.1 -0.1)">
       <use xlink:href="#DejaVuSans-31"/>
       <use xlink:href="#DejaVuSans-30" transform="translate(63.623047 0)"/>
      </g>
     </g>
    </g>
    <g id="ytick_3">
     <g id="line2d_11">
      <g>
       <use xlink:href="#mfd6d2ecf1c" x="44.57" y="157.66981" style="stroke: #000000; stroke-width: 0.8"/>
      </g>
     </g>
     <g id="text_12">
      <!-- 20 -->
      <g transform="translate(24.845 161.469029) scale(0.1 -0.1)">
       <use xlink:href="#DejaVuSans-32"/>
       <use xlink:href="#DejaVuSans-30" transform="translate(63.623047 0)"/>
      </g>
     </g>
    </g>
    <g id="ytick_4">
     <g id="line2d_12">
      <g>
       <use xlink:href="#mfd6d2ecf1c" x="44.57" y="123.880255" style="stroke: #000000; stroke-width: 0.8"/>
      </g>
     </g>
     <g id="text_13">
      <!-- 30 -->
      <g transform="translate(24.845 127.679474) scale(0.1 -0.1)">
       <defs>
        <path id="DejaVuSans-33" d="M 2597 2516 
Q 3050 2419 3304 2112 
Q 3559 1806 3559 1356 
Q 3559 666 3084 287 
Q 2609 -91 1734 -91 
Q 1441 -91 1130 -33 
Q 819 25 488 141 
L 488 750 
Q 750 597 1062 519 
Q 1375 441 1716 441 
Q 2309 441 2620 675 
Q 2931 909 2931 1356 
Q 2931 1769 2642 2001 
Q 2353 2234 1838 2234 
L 1294 2234 
L 1294 2753 
L 1863 2753 
Q 2328 2753 2575 2939 
Q 2822 3125 2822 3475 
Q 2822 3834 2567 4026 
Q 2313 4219 1838 4219 
Q 1578 4219 1281 4162 
Q 984 4106 628 3988 
L 628 4550 
Q 988 4650 1302 4700 
Q 1616 4750 1894 4750 
Q 2613 4750 3031 4423 
Q 3450 4097 3450 3541 
Q 3450 3153 3228 2886 
Q 3006 2619 2597 2516 
z
" transform="scale(0.015625)"/>
       </defs>
       <use xlink:href="#DejaVuSans-33"/>
       <use xlink:href="#DejaVuSans-30" transform="translate(63.623047 0)"/>
      </g>
     </g>
    </g>
    <g id="ytick_5">
     <g id="line2d_13">
      <g>
       <use xlink:href="#mfd6d2ecf1c" x="44.57" y="90.090701" style="stroke: #000000; stroke-width: 0.8"/>
      </g>
     </g>
     <g id="text_14">
      <!-- 40 -->
      <g transform="translate(24.845 93.88992) scale(0.1 -0.1)">
       <defs>
        <path id="DejaVuSans-34" d="M 2419 4116 
L 825 1625 
L 2419 1625 
L 2419 4116 
z
M 2253 4666 
L 3047 4666 
L 3047 1625 
L 3713 1625 
L 3713 1100 
L 3047 1100 
L 3047 0 
L 2419 0 
L 2419 1100 
L 313 1100 
L 313 1709 
L 2253 4666 
z
" transform="scale(0.015625)"/>
       </defs>
       <use xlink:href="#DejaVuSans-34"/>
       <use xlink:href="#DejaVuSans-30" transform="translate(63.623047 0)"/>
      </g>
     </g>
    </g>
    <g id="ytick_6">
     <g id="line2d_14">
      <g>
       <use xlink:href="#mfd6d2ecf1c" x="44.57" y="56.301146" style="stroke: #000000; stroke-width: 0.8"/>
      </g>
     </g>
     <g id="text_15">
      <!-- 50 -->
      <g transform="translate(24.845 60.100365) scale(0.1 -0.1)">
       <defs>
        <path id="DejaVuSans-35" d="M 691 4666 
L 3169 4666 
L 3169 4134 
L 1269 4134 
L 1269 2991 
Q 1406 3038 1543 3061 
Q 1681 3084 1819 3084 
Q 2600 3084 3056 2656 
Q 3513 2228 3513 1497 
Q 3513 744 3044 326 
Q 2575 -91 1722 -91 
Q 1428 -91 1123 -41 
Q 819 9 494 109 
L 494 744 
Q 775 591 1075 516 
Q 1375 441 1709 441 
Q 2250 441 2565 725 
Q 2881 1009 2881 1497 
Q 2881 1984 2565 2268 
Q 2250 2553 1709 2553 
Q 1456 2553 1204 2497 
Q 953 2441 691 2322 
L 691 4666 
z
" transform="scale(0.015625)"/>
       </defs>
       <use xlink:href="#DejaVuSans-35"/>
       <use xlink:href="#DejaVuSans-30" transform="translate(63.623047 0)"/>
      </g>
     </g>
    </g>
    <g id="text_16">
     <!-- Buiten temperatuur (°C) -->
     <g transform="translate(18.765312 197.355312) rotate(-90) scale(0.1 -0.1)">
      <defs>
       <path id="DejaVuSans-42" d="M 1259 2228 
L 1259 519 
L 2272 519 
Q 2781 519 3026 730 
Q 3272 941 3272 1375 
Q 3272 1813 3026 2020 
Q 2781 2228 2272 2228 
L 1259 2228 
z
M 1259 4147 
L 1259 2741 
L 2194 2741 
Q 2656 2741 2882 2914 
Q 3109 3088 3109 3444 
Q 3109 3797 2882 3972 
Q 2656 4147 2194 4147 
L 1259 4147 
z
M 628 4666 
L 2241 4666 
Q 2963 4666 3353 4366 
Q 3744 4066 3744 3513 
Q 3744 3084 3544 2831 
Q 3344 2578 2956 2516 
Q 3422 2416 3680 2098 
Q 3938 1781 3938 1306 
Q 3938 681 3513 340 
Q 3088 0 2303 0 
L 628 0 
L 628 4666 
z
" transform="scale(0.015625)"/>
       <path id="DejaVuSans-75" d="M 544 1381 
L 544 3500 
L 1119 3500 
L 1119 1403 
Q 1119 906 1312 657 
Q 1506 409 1894 409 
Q 2359 409 2629 706 
Q 2900 1003 2900 1516 
L 2900 3500 
L 3475 3500 
L 3475 0 
L 2900 0 
L 2900 538 
Q 2691 219 2414 64 
Q 2138 -91 1772 -91 
Q 1169 -91 856 284 
Q 544 659 544 1381 
z
M 1991 3584 
L 1991 3584 
z
" transform="scale(0.015625)"/>
       <path id="DejaVuSans-74" d="M 1172 4494 
L 1172 3500 
L 2356 3500 
L 2356 3053 
L 1172 3053 
L 1172 1153 
Q 1172 725 1289 603 
Q 1406 481 1766 481 
L 2356 481 
L 2356 0 
L 1766 0 
Q 1100 0 847 248 
Q 594 497 594 1153 
L 594 3053 
L 172 3053 
L 172 3500 
L 594 3500 
L 594 4494 
L 1172 4494 
z
" transform="scale(0.015625)"/>
       <path id="DejaVuSans-65" d="M 3597 1894 
L 3597 1613 
L 953 1613 
Q 991 1019 1311 708 
Q 1631 397 2203 397 
Q 2534 397 2845 478 
Q 3156 559 3463 722 
L 3463 178 
Q 3153 47 2828 -22 
Q 2503 -91 2169 -91 
Q 1331 -91 842 396 
Q 353 884 353 1716 
Q 353 2575 817 3079 
Q 1281 3584 2069 3584 
Q 2775 3584 3186 3129 
Q 3597 2675 3597 1894 
z
M 3022 2063 
Q 3016 2534 2758 2815 
Q 2500 3097 2075 3097 
Q 1594 3097 1305 2825 
Q 1016 2553 972 2059 
L 3022 2063 
z
" transform="scale(0.015625)"/>
       <path id="DejaVuSans-6e" d="M 3513 2113 
L 3513 0 
L 2938 0 
L 2938 2094 
Q 2938 2591 2744 2837 
Q 2550 3084 2163 3084 
Q 1697 3084 1428 2787 
Q 1159 2491 1159 1978 
L 1159 0 
L 581 0 
L 581 3500 
L 1159 3500 
L 1159 2956 
Q 1366 3272 1645 3428 
Q 1925 3584 2291 3584 
Q 2894 3584 3203 3211 
Q 3513 2838 3513 2113 
z
" transform="scale(0.015625)"/>
       <path id="DejaVuSans-6d" d="M 3328 2828 
Q 3544 3216 3844 3400 
Q 4144 3584 4550 3584 
Q 5097 3584 5394 3201 
Q 5691 2819 5691 2113 
L 5691 0 
L 5113 0 
L 5113 2094 
Q 5113 2597 4934 2840 
Q 4756 3084 4391 3084 
Q 3944 3084 3684 2787 
Q 3425 2491 3425 1978 
L 3425 0 
L 2847 0 
L 2847 2094 
Q 2847 2600 2669 2842 
Q 2491 3084 2119 3084 
Q 1678 3084 1418 2786 
Q 1159 2488 1159 1978 
L 1159 0 
L 581 0 
L 581 3500 
L 1159 3500 
L 1159 2956 
Q 1356 3278 1631 3431 
Q 1906 3584 2284 3584 
Q 2666 3584 2933 3390 
Q 3200 3197 3328 2828 
z
" transform="scale(0.015625)"/>
       <path id="DejaVuSans-70" d="M 1159 525 
L 1159 -1331 
L 581 -1331 
L 581 3500 
L 1159 3500 
L 1159 2969 
Q 1341 3281 1617 3432 
Q 1894 3584 2278 3584 
Q 2916 3584 3314 3078 
Q 3713 2572 3713 1747 
Q 3713 922 3314 415 
Q 2916 -91 2278 -91 
Q 1894 -91 1617 61 
Q 1341 213 1159 525 
z
M 3116 1747 
Q 3116 2381 2855 2742 
Q 2594 3103 2138 3103 
Q 1681 3103 1420 2742 
Q 1159 2381 1159 1747 
Q 1159 1113 1420 752 
Q 1681 391 2138 391 
Q 2594 391 2855 752 
Q 3116 1113 3116 1747 
z
" transform="scale(0.015625)"/>
       <path id="DejaVuSans-72" d="M 2631 2963 
Q 2534 3019 2420 3045 
Q 2306 3072 2169 3072 
Q 1681 3072 1420 2755 
Q 1159 2438 1159 1844 
L 1159 0 
L 581 0 
L 581 3500 
L 1159 3500 
L 1159 2956 
Q 1341 3275 1631 3429 
Q 1922 3584 2338 3584 
Q 2397 3584 2469 3576 
Q 2541 3569 2628 3553 
L 2631 2963 
z
" transform="scale(0.015625)"/>
       <path id="DejaVuSans-61" d="M 2194 1759 
Q 1497 1759 1228 1600 
Q 959 1441 959 1056 
Q 959 750 1161 570 
Q 1363 391 1709 391 
Q 2188 391 2477 730 
Q 2766 1069 2766 1631 
L 2766 1759 
L 2194 1759 
z
M 3341 1997 
L 3341 0 
L 2766 0 
L 2766 531 
Q 2569 213 2275 61 
Q 1981 -91 1556 -91 
Q 1019 -91 701 211 
Q 384 513 384 1019 
Q 384 1609 779 1909 
Q 1175 2209 1959 2209 
L 2766 2209 
L 2766 2266 
Q 2766 2663 2505 2880 
Q 2244 3097 1772 3097 
Q 1472 3097 1187 3025 
Q 903 2953 641 2809 
L 641 3341 
Q 956 3463 1253 3523 
Q 1550 3584 1831 3584 
Q 2591 3584 2966 3190 
Q 3341 2797 3341 1997 
z
" transform="scale(0.015625)"/>
       <path id="DejaVuSans-28" d="M 1984 4856 
Q 1566 4138 1362 3434 
Q 1159 2731 1159 2009 
Q 1159 1288 1364 580 
Q 1569 -128 1984 -844 
L 1484 -844 
Q 1016 -109 783 600 
Q 550 1309 550 2009 
Q 550 2706 781 3412 
Q 1013 4119 1484 4856 
L 1984 4856 
z
" transform="scale(0.015625)"/>
       <path id="DejaVuSans-b0" d="M 1600 4347 
Q 1350 4347 1178 4173 
Q 1006 4000 1006 3750 
Q 1006 3503 1178 3333 
Q 1350 3163 1600 3163 
Q 1850 3163 2022 3333 
Q 2194 3503 2194 3750 
Q 2194 3997 2020 4172 
Q 1847 4347 1600 4347 
z
M 1600 4750 
Q 1800 4750 1984 4673 
Q 2169 4597 2303 4453 
Q 2447 4313 2519 4134 
Q 2591 3956 2591 3750 
Q 2591 3338 2302 3052 
Q 2013 2766 1594 2766 
Q 1172 2766 890 3047 
Q 609 3328 609 3750 
Q 609 4169 896 4459 
Q 1184 4750 1600 4750 
z
" transform="scale(0.015625)"/>
       <path id="DejaVuSans-43" d="M 4122 4306 
L 4122 3641 
Q 3803 3938 3442 4084 
Q 3081 4231 2675 4231 
Q 1875 4231 1450 3742 
Q 1025 3253 1025 2328 
Q 1025 1406 1450 917 
Q 1875 428 2675 428 
Q 3081 428 3442 575 
Q 3803 722 4122 1019 
L 4122 359 
Q 3791 134 3420 21 
Q 3050 -91 2638 -91 
Q 1578 -91 968 557 
Q 359 1206 359 2328 
Q 359 3453 968 4101 
Q 1578 4750 2638 4750 
Q 3056 4750 3426 4639 
Q 3797 4528 4122 4306 
z
" transform="scale(0.015625)"/>
       <path id="DejaVuSans-29" d="M 513 4856 
L 1013 4856 
Q 1481 4119 1714 3412 
Q 1947 2706 1947 2009 
Q 1947 1309 1714 600 
Q 1481 -109 1013 -844 
L 513 -844 
Q 928 -128 1133 580 
Q 1338 1288 1338 2009 
Q 1338 2731 1133 3434 
Q 928 4138 513 4856 
z
" transform="scale(0.015625)"/>
      </defs>
      <use xlink:href="#DejaVuSans-42"/>
      <use xlink:href="#DejaVuSans-75" transform="translate(68.603516 0)"/>
      <use xlink:href="#DejaVuSans-69" transform="translate(131.982422 0)"/>
      <use xlink:href="#DejaVuSans-74" transform="translate(159.765625 0)"/>
      <use xlink:href="#DejaVuSans-65" transform="translate(198.974609 0)"/>
      <use xlink:href="#DejaVuSans-6e" transform="translate(260.498047 0)"/>
      <use xlink:href="#DejaVuSans-20" transform="translate(323.876953 0)"/>
      <use xlink:href="#DejaVuSans-74" transform="translate(355.664062 0)"/>
      <use xlink:href="#DejaVuSans-65" transform="translate(394.873047 0)"/>
      <use xlink:href="#DejaVuSans-6d" transform="translate(456.396484 0)"/>
      <use xlink:href="#DejaVuSans-70" transform="translate(553.808594 0)"/>
      <use xlink:href="#DejaVuSans-65" transform="translate(617.285156 0)"/>
      <use xlink:href="#DejaVuSans-72" transform="translate(678.808594 0)"/>
      <use xlink:href="#DejaVuSans-61" transform="translate(719.921875 0)"/>
      <use xlink:href="#DejaVuSans-74" transform="translate(781.201172 0)"/>
      <use xlink:href="#DejaVuSans-75" transform="translate(820.410156 0)"/>
      <use xlink:href="#DejaVuSans-75" transform="translate(883.789062 0)"/>
      <use xlink:href="#DejaVuSans-72" transform="translate(947.167969 0)"/>
      <use xlink:href="#DejaVuSans-20" transform="translate(988.28125 0)"/>
      <use xlink:href="#DejaVuSans-28" transform="translate(1020.068359 0)"/>
      <use xlink:href="#DejaVuSans-b0" transform="translate(1059.082031 0)"/>
      <use xlink:href="#DejaVuSans-43" transform="translate(1109.082031 0)"/>
      <use xlink:href="#DejaVuSans-29" transform="translate(1178.90625 0)"/>
     </g>
    </g>
   </g>
   <g id="line2d_15">
    <path d="M 74.780455 152.601377 
L 78.272993 155.8677 
L 81.765531 161.048765 
L 85.258069 165.328776 
L 88.750607 168.932995 
L 92.243145 171.636159 
L 95.735683 173.888796 
L 99.228221 175.578274 
L 102.720759 176.479329 
L 106.213297 177.943543 
L 109.705836 179.069861 
L 123.675988 181.885657 
L 127.168526 181.998289 
L 130.661064 181.998289 
L 134.153602 181.097234 
L 137.64614 179.182493 
L 141.138678 175.578274 
L 144.631216 170.059313 
L 148.123755 166.680358 
L 151.616293 161.94982 
L 155.108831 159.134024 
L 158.601369 156.881387 
L 162.093907 155.079277 
L 165.586445 152.376113 
L 169.078983 150.236108 
L 172.571521 147.758207 
L 183.049136 142.46451 
L 186.541674 145.280307 
L 190.034212 143.928724 
L 193.52675 142.915038 
L 197.019288 142.46451 
L 200.511826 142.802406 
L 204.004364 142.239247 
L 214.481978 144.153988 
L 217.974517 145.50557 
L 221.467055 145.618202 
L 224.959593 147.758207 
L 228.452131 148.884526 
L 231.944669 152.263481 
L 235.437207 155.191909 
L 238.929745 156.092964 
L 242.422283 157.895074 
L 245.914821 160.598238 
L 249.407359 162.738243 
L 256.392436 168.03194 
L 259.884974 169.608786 
L 263.377512 171.861423 
L 266.87005 173.776164 
L 270.362588 174.677219 
L 273.855126 176.366697 
L 280.840202 177.830911 
L 284.33274 178.39407 
L 291.317817 180.083548 
L 294.810355 181.097234 
L 298.302893 181.829341 
L 301.795431 182.223553 
L 305.287969 181.998289 
L 308.780507 181.885657 
L 312.273045 179.858284 
L 315.765583 175.578274 
L 319.258121 170.622473 
L 326.243198 161.724556 
L 329.735736 158.90876 
L 336.720812 156.543491 
L 340.21335 154.741382 
L 343.705888 153.727695 
L 347.198426 152.376113 
L 350.690964 152.488745 
L 354.183502 151.58769 
L 357.67604 151.925586 
L 361.168579 150.799267 
L 364.661117 150.123476 
L 368.153655 148.54663 
L 371.646193 147.195048 
L 375.138731 145.055043 
L 378.631269 146.857152 
L 382.123807 147.30768 
L 385.616345 147.532944 
L 389.108883 148.433998 
L 392.601421 148.54663 
L 396.09396 148.997158 
L 399.586498 150.123476 
L 406.571574 152.038217 
L 413.55665 156.881387 
L 417.049188 160.598238 
L 420.541726 164.652985 
L 427.526802 170.397209 
L 434.511879 172.875109 
L 441.496955 174.789851 
L 451.974569 179.069861 
L 455.467107 179.970916 
L 458.959645 181.097234 
L 465.944721 182.67408 
L 469.43726 183.462503 
L 472.929798 183.23724 
L 479.914874 179.970916 
L 483.407412 176.704592 
L 486.89995 173.888796 
L 490.392488 170.847736 
L 497.377564 163.75193 
L 504.362641 159.134024 
L 507.855179 156.43086 
L 514.840255 151.58769 
L 521.825331 148.208735 
L 525.317869 146.181361 
L 528.810407 143.703461 
L 532.302945 142.971354 
L 535.795483 141.563456 
L 539.288022 139.98661 
L 542.78056 136.495022 
L 546.273098 137.508709 
L 549.765636 139.310819 
L 553.258174 138.747659 
L 560.24325 139.648714 
L 563.735788 141.112928 
L 567.228326 144.379252 
L 570.720864 146.06873 
L 574.213403 146.06873 
L 588.183555 160.147711 
L 591.676093 164.089825 
L 595.168631 167.356149 
L 598.661169 169.27089 
L 602.153707 170.735104 
L 605.646245 171.523527 
L 609.138783 171.861423 
L 609.138783 171.861423 
" clip-path="url(#p242082bd31)" style="fill: none; stroke: #1f77b4; stroke-width: 2; stroke-linecap: square"/>
   </g>
   <g id="line2d_16">
    <path d="M 74.780455 146.133091 
L 78.272993 147.082416 
L 81.765531 147.275499 
L 85.258069 146.390535 
L 88.750607 142.351879 
L 92.243145 147.288908 
L 95.735683 150.115431 
L 99.228221 153.859099 
L 102.720759 153.299694 
L 106.213297 160.195981 
L 109.705836 162.762378 
L 113.198374 164.371405 
L 116.690912 166.661586 
L 120.18345 167.84422 
L 123.675988 169.640966 
L 127.168526 170.397209 
L 130.661064 170.397209 
L 134.153602 171.813152 
L 137.64614 171.909694 
L 141.138678 171.885558 
L 144.631216 171.443076 
L 148.123755 169.918523 
L 151.616293 169.447883 
L 155.108831 167.243517 
L 158.601369 166.599906 
L 162.093907 164.982835 
L 165.586445 162.240786 
L 169.078983 160.155756 
L 172.571521 157.138831 
L 179.556597 152.424384 
L 183.049136 149.809716 
L 186.541674 144.416796 
L 190.034212 146.39858 
L 193.52675 143.679325 
L 197.019288 142.16684 
L 200.511826 138.586757 
L 204.004364 134.089528 
L 207.496902 129.809518 
L 210.98944 130.058917 
L 214.481978 138.345403 
L 217.974517 138.618937 
L 221.467055 133.30915 
L 224.959593 129.415306 
L 228.452131 131.346138 
L 231.944669 138.651118 
L 235.437207 140.565859 
L 238.929745 142.882857 
L 242.422283 146.229632 
L 245.914821 150.831448 
L 249.407359 155.830156 
L 252.899898 157.838758 
L 256.392436 159.453148 
L 259.884974 148.218121 
L 263.377512 151.716412 
L 266.87005 151.099619 
L 270.362588 155.924016 
L 273.855126 156.854661 
L 277.347664 159.368674 
L 280.840202 162.798582 
L 284.33274 173.006513 
L 287.825279 164.221229 
L 291.317817 167.086637 
L 294.810355 168.844498 
L 298.302893 169.737508 
L 301.795431 169.005401 
L 305.287969 171.173564 
L 308.780507 169.83405 
L 312.273045 171.115237 
L 315.765583 170.405254 
L 319.258121 166.257988 
L 322.750659 167.428555 
L 326.243198 165.521859 
L 329.735736 163.027868 
L 333.228274 157.979547 
L 336.720812 151.925586 
L 340.21335 150.170406 
L 343.705888 151.888042 
L 347.198426 152.019446 
L 350.690964 150.123476 
L 354.183502 149.044088 
L 357.67604 154.065591 
L 361.168579 150.142248 
L 364.661117 148.302595 
L 368.153655 146.660047 
L 371.646193 146.857152 
L 375.138731 144.229076 
L 378.631269 144.886095 
L 382.123807 144.867323 
L 385.616345 143.909952 
L 389.108883 141.090402 
L 392.601421 140.797559 
L 396.09396 137.931078 
L 399.586498 140.437137 
L 403.079036 142.314335 
L 406.571574 143.778549 
L 410.064112 144.604515 
L 413.55665 145.69329 
L 417.049188 146.228291 
L 420.541726 148.907052 
L 424.034264 149.222421 
L 427.526802 149.672949 
L 431.019341 154.934465 
L 434.511879 156.953793 
L 438.004417 157.066425 
L 441.496955 158.120337 
L 444.989493 158.89267 
L 448.482031 159.423649 
L 451.974569 159.721319 
L 455.467107 160.308613 
L 462.452183 163.412425 
L 465.944721 163.546779 
L 469.43726 166.364989 
L 472.929798 163.23865 
L 479.914874 162.521025 
L 483.407412 161.235412 
L 486.89995 160.996472 
L 490.392488 159.319062 
L 493.885026 158.31342 
L 497.377564 154.845969 
L 500.870102 146.63028 
L 504.362641 156.229731 
L 507.855179 134.81359 
L 511.347717 133.655091 
L 514.840255 136.591564 
L 518.332793 142.054209 
L 521.825331 140.163603 
L 525.317869 141.572842 
L 528.810407 141.891965 
L 532.302945 141.854421 
L 535.795483 141.949622 
L 542.78056 143.092031 
L 546.273098 145.48948 
L 549.765636 147.32377 
L 553.258174 147.95129 
L 556.750712 148.114875 
L 560.24325 149.109789 
L 563.735788 149.494615 
L 567.228326 151.212251 
L 570.720864 152.263481 
L 574.213403 153.051904 
L 577.705941 154.459802 
L 581.198479 147.504786 
L 584.691017 148.997158 
L 588.183555 149.306895 
L 591.676093 146.941626 
L 595.168631 142.267405 
L 598.661169 139.873978 
L 602.153707 140.211873 
L 605.646245 140.915822 
L 609.138783 142.929117 
L 612.631322 135.762915 
L 616.12386 140.118014 
L 619.616398 131.651853 
L 623.108936 104.958105 
L 626.601474 108.674956 
L 630.094012 118.248663 
L 633.58655 130.412903 
L 637.079088 133.679226 
L 640.571626 136.044495 
L 644.064164 141.450824 
L 647.556703 145.730834 
L 651.049241 148.208735 
L 654.541779 153.277168 
L 661.526855 162.625611 
L 665.019393 165.216144 
L 668.511931 167.130885 
L 672.004469 168.820363 
L 675.497007 168.932995 
L 678.989545 169.83405 
L 678.989545 169.83405 
" clip-path="url(#p242082bd31)" style="fill: none; stroke-dasharray: 5.55,2.4; stroke-dashoffset: 0; stroke: #808080; stroke-width: 1.5"/>
   </g>
   <g id="patch_3">
    <path d="M 44.57 246.04 
L 44.57 26.88 
" style="fill: none; stroke: #000000; stroke-width: 0.8; stroke-linejoin: miter; stroke-linecap: square"/>
   </g>
   <g id="patch_4">
    <path d="M 709.2 246.04 
L 709.2 26.88 
" style="fill: none; stroke: #000000; stroke-width: 0.8; stroke-linejoin: miter; stroke-linecap: square"/>
   </g>
   <g id="patch_5">
    <path d="M 44.57 246.04 
L 709.2 246.04 
" style="fill: none; stroke: #000000; stroke-width: 0.8; stroke-linejoin: miter; stroke-linecap: square"/>
   </g>
   <g id="patch_6">
    <path d="M 44.57 26.88 
L 709.2 26.88 
" style="fill: none; stroke: #000000; stroke-width: 0.8; stroke-linejoin: miter; stroke-linecap: square"/>
   </g>
   <g id="text_17">
    <!-- Buiten temperatuur - v001/c00001/d031 -->
    <g transform="translate(254.91625 20.88) scale(0.12 -0.12)">
     <defs>
      <path id="DejaVuSans-76" d="M 191 3500 
L 800 3500 
L 1894 563 
L 2988 3500 
L 3597 3500 
L 2284 0 
L 1503 0 
L 191 3500 
z
" transform="scale(0.015625)"/>
      <path id="DejaVuSans-2f" d="M 1625 4666 
L 2156 4666 
L 531 -594 
L 0 -594 
L 1625 4666 
z
" transform="scale(0.015625)"/>
      <path id="DejaVuSans-63" d="M 3122 3366 
L 3122 2828 
Q 2878 2963 2633 3030 
Q 2388 3097 2138 3097 
Q 1578 3097 1268 2742 
Q 959 2388 959 1747 
Q 959 1106 1268 751 
Q 1578 397 2138 397 
Q 2388 397 2633 464 
Q 2878 531 3122 666 
L 3122 134 
Q 2881 22 2623 -34 
Q 2366 -91 2075 -91 
Q 1284 -91 818 406 
Q 353 903 353 1747 
Q 353 2603 823 3093 
Q 1294 3584 2113 3584 
Q 2378 3584 2631 3529 
Q 2884 3475 3122 3366 
z
" transform="scale(0.015625)"/>
     </defs>
     <use xlink:href="#DejaVuSans-42"/>
     <use xlink:href="#DejaVuSans-75" transform="translate(68.603516 0)"/>
     <use xlink:href="#DejaVuSans-69" transform="translate(131.982422 0)"/>
     <use xlink:href="#DejaVuSans-74" transform="translate(159.765625 0)"/>
     <use xlink:href="#DejaVuSans-65" transform="translate(198.974609 0)"/>
     <use xlink:href="#DejaVuSans-6e" transform="translate(260.498047 0)"/>
     <use xlink:href="#DejaVuSans-20" transform="translate(323.876953 0)"/>
     <use xlink:href="#DejaVuSans-74" transform="translate(355.664062 0)"/>
     <use xlink:href="#DejaVuSans-65" transform="translate(394.873047 0)"/>
     <use xlink:href="#DejaVuSans-6d" transform="translate(456.396484 0)"/>
     <use xlink:href="#DejaVuSans-70" transform="translate(553.808594 0)"/>
     <use xlink:href="#DejaVuSans-65" transform="translate(617.285156 0)"/>
     <use xlink:href="#DejaVuSans-72" transform="translate(678.808594 0)"/>
     <use xlink:href="#DejaVuSans-61" transform="translate(719.921875 0)"/>
     <use xlink:href="#DejaVuSans-74" transform="translate(781.201172 0)"/>
     <use xlink:href="#DejaVuSans-75" transform="translate(820.410156 0)"/>
     <use xlink:href="#DejaVuSans-75" transform="translate(883.789062 0)"/>
     <use xlink:href="#DejaVuSans-72" transform="translate(947.167969 0)"/>
     <use xlink:href="#DejaVuSans-20" transform="translate(988.28125 0)"/>
     <use xlink:href="#DejaVuSans-2d" transform="translate(1020.068359 0)"/>
     <use xlink:href="#DejaVuSans-20" transform="translate(1056.152344 0)"/>
     <use xlink:href="#DejaVuSans-76" transform="translate(1087.939453 0)"/>
     <use xlink:href="#DejaVuSans-30" transform="translate(1147.119141 0)"/>
     <use xlink:href="#DejaVuSans-30" transform="translate(1210.742188 0)"/>
     <use xlink:href="#DejaVuSans-31" transform="translate(1274.365234 0)"/>
     <use xlink:href="#DejaVuSans-2f" transform="translate(1337.988281 0)"/>
     <use xlink:href="#DejaVuSans-63" transform="translate(1371.679688 0)"/>
     <use xlink:href="#DejaVuSans-30" transform="translate(1426.660156 0)"/>
     <use xlink:href="#DejaVuSans-30" transform="translate(1490.283203 0)"/>
     <use xlink:href="#DejaVuSans-30" transform="translate(1553.90625 0)"/>
     <use xlink:href="#DejaVuSans-30" transform="translate(1617.529297 0)"/>
     <use xlink:href="#DejaVuSans-31" transform="translate(1681.152344 0)"/>
     <use xlink:href="#DejaVuSans-2f" transform="translate(1744.775391 0)"/>
     <use xlink:href="#DejaVuSans-64" transform="translate(1778.466797 0)"/>
     <use xlink:href="#DejaVuSans-30" transform="translate(1841.943359 0)"/>
     <use xlink:href="#DejaVuSans-33" transform="translate(1905.566406 0)"/>
     <use xlink:href="#DejaVuSans-31" transform="translate(1969.189453 0)"/>
    </g>
   </g>
   <g id="legend_1">
    <g id="patch_7">
     <path d="M 301.413125 78.914375 
L 452.356875 78.914375 
Q 454.356875 78.914375 454.356875 76.914375 
L 454.356875 33.88 
Q 454.356875 31.88 452.356875 31.88 
L 301.413125 31.88 
Q 299.413125 31.88 299.413125 33.88 
L 299.413125 76.914375 
Q 299.413125 78.914375 301.413125 78.914375 
z
" style="fill: #ffffff; opacity: 0.8; stroke: #cccccc; stroke-linejoin: miter"/>
    </g>
    <g id="line2d_17">
     <path d="M 303.413125 39.978438 
L 313.413125 39.978438 
L 323.413125 39.978438 
" style="fill: none; stroke: #1f77b4; stroke-width: 2; stroke-linecap: square"/>
    </g>
    <g id="text_18">
     <!-- Hive -->
     <g transform="translate(331.413125 43.478438) scale(0.1 -0.1)">
      <defs>
       <path id="DejaVuSans-48" d="M 628 4666 
L 1259 4666 
L 1259 2753 
L 3553 2753 
L 3553 4666 
L 4184 4666 
L 4184 0 
L 3553 0 
L 3553 2222 
L 1259 2222 
L 1259 0 
L 628 0 
L 628 4666 
z
" transform="scale(0.015625)"/>
      </defs>
      <use xlink:href="#DejaVuSans-48"/>
      <use xlink:href="#DejaVuSans-69" transform="translate(75.195312 0)"/>
      <use xlink:href="#DejaVuSans-76" transform="translate(102.978516 0)"/>
      <use xlink:href="#DejaVuSans-65" transform="translate(162.158203 0)"/>
     </g>
    </g>
    <g id="line2d_18">
     <path d="M 303.413125 54.656563 
L 313.413125 54.656563 
L 323.413125 54.656563 
" style="fill: none; stroke-dasharray: 5.55,2.4; stroke-dashoffset: 0; stroke: #808080; stroke-width: 1.5"/>
    </g>
    <g id="text_19">
     <!-- Gemiddelde (alle hives) -->
     <g transform="translate(331.413125 58.156563) scale(0.1 -0.1)">
      <defs>
       <path id="DejaVuSans-47" d="M 3809 666 
L 3809 1919 
L 2778 1919 
L 2778 2438 
L 4434 2438 
L 4434 434 
Q 4069 175 3628 42 
Q 3188 -91 2688 -91 
Q 1594 -91 976 548 
Q 359 1188 359 2328 
Q 359 3472 976 4111 
Q 1594 4750 2688 4750 
Q 3144 4750 3555 4637 
Q 3966 4525 4313 4306 
L 4313 3634 
Q 3963 3931 3569 4081 
Q 3175 4231 2741 4231 
Q 1884 4231 1454 3753 
Q 1025 3275 1025 2328 
Q 1025 1384 1454 906 
Q 1884 428 2741 428 
Q 3075 428 3337 486 
Q 3600 544 3809 666 
z
" transform="scale(0.015625)"/>
       <path id="DejaVuSans-6c" d="M 603 4863 
L 1178 4863 
L 1178 0 
L 603 0 
L 603 4863 
z
" transform="scale(0.015625)"/>
       <path id="DejaVuSans-68" d="M 3513 2113 
L 3513 0 
L 2938 0 
L 2938 2094 
Q 2938 2591 2744 2837 
Q 2550 3084 2163 3084 
Q 1697 3084 1428 2787 
Q 1159 2491 1159 1978 
L 1159 0 
L 581 0 
L 581 4863 
L 1159 4863 
L 1159 2956 
Q 1366 3272 1645 3428 
Q 1925 3584 2291 3584 
Q 2894 3584 3203 3211 
Q 3513 2838 3513 2113 
z
" transform="scale(0.015625)"/>
       <path id="DejaVuSans-73" d="M 2834 3397 
L 2834 2853 
Q 2591 2978 2328 3040 
Q 2066 3103 1784 3103 
Q 1356 3103 1142 2972 
Q 928 2841 928 2578 
Q 928 2378 1081 2264 
Q 1234 2150 1697 2047 
L 1894 2003 
Q 2506 1872 2764 1633 
Q 3022 1394 3022 966 
Q 3022 478 2636 193 
Q 2250 -91 1575 -91 
Q 1294 -91 989 -36 
Q 684 19 347 128 
L 347 722 
Q 666 556 975 473 
Q 1284 391 1588 391 
Q 1994 391 2212 530 
Q 2431 669 2431 922 
Q 2431 1156 2273 1281 
Q 2116 1406 1581 1522 
L 1381 1569 
Q 847 1681 609 1914 
Q 372 2147 372 2553 
Q 372 3047 722 3315 
Q 1072 3584 1716 3584 
Q 2034 3584 2315 3537 
Q 2597 3491 2834 3397 
z
" transform="scale(0.015625)"/>
      </defs>
      <use xlink:href="#DejaVuSans-47"/>
      <use xlink:href="#DejaVuSans-65" transform="translate(77.490234 0)"/>
      <use xlink:href="#DejaVuSans-6d" transform="translate(139.013672 0)"/>
      <use xlink:href="#DejaVuSans-69" transform="translate(236.425781 0)"/>
      <use xlink:href="#DejaVuSans-64" transform="translate(264.208984 0)"/>
      <use xlink:href="#DejaVuSans-64" transform="translate(327.685547 0)"/>
      <use xlink:href="#DejaVuSans-65" transform="translate(391.162109 0)"/>
      <use xlink:href="#DejaVuSans-6c" transform="translate(452.685547 0)"/>
      <use xlink:href="#DejaVuSans-64" transform="translate(480.46875 0)"/>
      <use xlink:href="#DejaVuSans-65" transform="translate(543.945312 0)"/>
      <use xlink:href="#DejaVuSans-20" transform="translate(605.46875 0)"/>
      <use xlink:href="#DejaVuSans-28" transform="translate(637.255859 0)"/>
      <use xlink:href="#DejaVuSans-61" transform="translate(676.269531 0)"/>
      <use xlink:href="#DejaVuSans-6c" transform="translate(737.548828 0)"/>
      <use xlink:href="#DejaVuSans-6c" transform="translate(765.332031 0)"/>
      <use xlink:href="#DejaVuSans-65" transform="translate(793.115234 0)"/>
      <use xlink:href="#DejaVuSans-20" transform="translate(854.638672 0)"/>
      <use xlink:href="#DejaVuSans-68" transform="translate(886.425781 0)"/>
      <use xlink:href="#DejaVuSans-69" transform="translate(949.804688 0)"/>
      <use xlink:href="#DejaVuSans-76" transform="translate(977.587891 0)"/>
      <use xlink:href="#DejaVuSans-65" transform="translate(1036.767578 0)"/>
      <use xlink:href="#DejaVuSans-73" transform="translate(1098.291016 0)"/>
      <use xlink:href="#DejaVuSans-29" transform="translate(1150.390625 0)"/>
     </g>
    </g>
    <g id="patch_8">
     <path d="M 303.413125 72.834688 
L 323.413125 72.834688 
L 323.413125 65.834688 
L 303.413125 65.834688 
z
" style="fill: #808080; fill-opacity: 0.2; stroke: #808080; stroke-opacity: 0.2; stroke-linejoin: miter"/>
    </g>
    <g id="text_20">
     <!-- ±2 Std Dev -->
     <g transform="translate(331.413125 72.834688) scale(0.1 -0.1)">
      <defs>
       <path id="DejaVuSans-b1" d="M 2944 4013 
L 2944 2803 
L 4684 2803 
L 4684 2272 
L 2944 2272 
L 2944 1063 
L 2419 1063 
L 2419 2272 
L 678 2272 
L 678 2803 
L 2419 2803 
L 2419 4013 
L 2944 4013 
z
M 678 531 
L 4684 531 
L 4684 0 
L 678 0 
L 678 531 
z
" transform="scale(0.015625)"/>
       <path id="DejaVuSans-53" d="M 3425 4513 
L 3425 3897 
Q 3066 4069 2747 4153 
Q 2428 4238 2131 4238 
Q 1616 4238 1336 4038 
Q 1056 3838 1056 3469 
Q 1056 3159 1242 3001 
Q 1428 2844 1947 2747 
L 2328 2669 
Q 3034 2534 3370 2195 
Q 3706 1856 3706 1288 
Q 3706 609 3251 259 
Q 2797 -91 1919 -91 
Q 1588 -91 1214 -16 
Q 841 59 441 206 
L 441 856 
Q 825 641 1194 531 
Q 1563 422 1919 422 
Q 2459 422 2753 634 
Q 3047 847 3047 1241 
Q 3047 1584 2836 1778 
Q 2625 1972 2144 2069 
L 1759 2144 
Q 1053 2284 737 2584 
Q 422 2884 422 3419 
Q 422 4038 858 4394 
Q 1294 4750 2059 4750 
Q 2388 4750 2728 4690 
Q 3069 4631 3425 4513 
z
" transform="scale(0.015625)"/>
       <path id="DejaVuSans-44" d="M 1259 4147 
L 1259 519 
L 2022 519 
Q 2988 519 3436 956 
Q 3884 1394 3884 2338 
Q 3884 3275 3436 3711 
Q 2988 4147 2022 4147 
L 1259 4147 
z
M 628 4666 
L 1925 4666 
Q 3281 4666 3915 4102 
Q 4550 3538 4550 2338 
Q 4550 1131 3912 565 
Q 3275 0 1925 0 
L 628 0 
L 628 4666 
z
" transform="scale(0.015625)"/>
      </defs>
      <use xlink:href="#DejaVuSans-b1"/>
      <use xlink:href="#DejaVuSans-32" transform="translate(83.789062 0)"/>
      <use xlink:href="#DejaVuSans-20" transform="translate(147.412109 0)"/>
      <use xlink:href="#DejaVuSans-53" transform="translate(179.199219 0)"/>
      <use xlink:href="#DejaVuSans-74" transform="translate(242.675781 0)"/>
      <use xlink:href="#DejaVuSans-64" transform="translate(281.884766 0)"/>
      <use xlink:href="#DejaVuSans-20" transform="translate(345.361328 0)"/>
      <use xlink:href="#DejaVuSans-44" transform="translate(377.148438 0)"/>
      <use xlink:href="#DejaVuSans-65" transform="translate(454.150391 0)"/>
      <use xlink:href="#DejaVuSans-76" transform="translate(515.673828 0)"/>
     </g>
    </g>
   </g>
  </g>
 </g>
 <defs>
  <clipPath id="p242082bd31">
   <rect x="44.57" y="26.88" width="664.63" height="219.16"/>
  </clipPath>
 </defs>
</svg>
