<?xml version="1.0" encoding="utf-8" standalone="no"?>
<!DOCTYPE svg PUBLIC "-//W3C//DTD SVG 1.1//EN"
  "http://www.w3.org/Graphics/SVG/1.1/DTD/svg11.dtd">
<svg xmlns:xlink="http://www.w3.org/1999/xlink" width="720pt" height="288pt" viewBox="0 0 720 288" xmlns="http://www.w3.org/2000/svg" version="1.1">
 <metadata>
  <rdf:RDF xmlns:dc="http://purl.org/dc/elements/1.1/" xmlns:cc="http://creativecommons.org/ns#" xmlns:rdf="http://www.w3.org/1999/02/22-rdf-syntax-ns#">
   <cc:Work>
    <dc:type rdf:resource="http://purl.org/dc/dcmitype/StillImage"/>
    <dc:date>2025-06-22T08:20:09.053213</dc:date>
    <dc:format>image/svg+xml</dc:format>
    <dc:creator>
     <cc:Agent>
      <dc:title>Matplotlib v3.10.3, https://matplotlib.org/</dc:title>
     </cc:Agent>
    </dc:creator>
   </cc:Work>
  </rdf:RDF>
 </metadata>
 <defs>
  <style type="text/css">*{stroke-linejoin: round; stroke-linecap: butt}</style>
 </defs>
 <g id="figure_1">
  <g id="patch_1">
   <path d="M 0 288 
L 720 288 
L 720 0 
L 0 0 
z
" style="fill: #ffffff"/>
  </g>
  <g id="axes_1">
   <g id="patch_2">
    <path d="M 50.87 246.04 
L 709.2 246.04 
L 709.2 26.88 
L 50.87 26.88 
z
" style="fill: #ffffff"/>
   </g>
   <g id="FillBetweenPolyCollection_1">
    <defs>
     <path id="m54b3e1a5e5" d="M 80.794091 -248.586083 
L 80.794091 -145.050676 
L 84.377814 -143.721805 
L 87.961538 -149.434622 
L 91.545261 -153.049389 
L 95.128985 -138.343514 
L 98.712708 -146.620517 
L 102.296432 -142.788704 
L 105.880155 -134.174824 
L 109.463879 -131.562798 
L 113.047602 -109.681424 
L 116.631326 -112.434091 
L 120.215049 -125.55862 
L 123.798772 -123.676728 
L 127.382496 -115.816438 
L 130.966219 -111.4684 
L 134.549943 -120.42682 
L 138.133666 -117.416483 
L 141.71739 -111.567933 
L 145.301113 -105.42932 
L 148.884837 -105.412365 
L 152.46856 -99.100381 
L 156.052284 -102.143069 
L 159.636007 -102.568672 
L 163.219731 -102.384104 
L 166.803454 -93.613554 
L 170.387177 -102.446466 
L 173.970901 -105.861146 
L 177.554624 -106.946351 
L 181.138348 -114.980551 
L 184.722071 -118.999012 
L 188.305795 -120.178433 
L 191.889518 -119.297965 
L 195.473242 -115.335082 
L 199.056965 -111.743719 
L 202.640689 -106.190513 
L 206.224412 -96.775848 
L 209.808136 -107.760361 
L 213.391859 -108.636179 
L 216.975582 -105.796461 
L 220.559306 -110.927542 
L 224.143029 -115.530663 
L 227.726753 -109.936786 
L 231.310476 -106.67546 
L 234.8942 -108.977381 
L 238.477923 -114.323646 
L 242.061647 -115.853418 
L 245.64537 -115.904203 
L 249.229094 -117.474043 
L 252.812817 -111.851816 
L 256.396541 -112.477853 
L 259.980264 -113.388979 
L 263.563987 -114.297852 
L 267.147711 -114.455793 
L 270.731434 -114.412124 
L 274.315158 -115.281812 
L 277.898881 -111.874746 
L 281.482605 -94.340981 
L 285.066328 -118.071727 
L 288.650052 -89.057728 
L 292.233775 -88.180383 
L 295.817499 -94.425928 
L 299.401222 -104.160278 
L 302.984946 -98.854309 
L 306.568669 -99.294637 
L 310.152392 -100.37417 
L 313.736116 -99.009514 
L 317.319839 -99.549873 
L 320.903563 -99.337468 
L 324.487286 -95.388101 
L 328.07101 -94.758026 
L 331.654733 -97.675672 
L 335.238457 -99.746784 
L 338.82218 -98.289259 
L 342.405904 -95.45249 
L 345.989627 -97.309928 
L 349.573351 -103.145863 
L 353.157074 -103.444653 
L 356.740797 -105.811078 
L 360.324521 -105.492433 
L 363.908244 -111.34615 
L 367.491968 -115.360203 
L 371.075691 -120.727395 
L 374.659415 -120.323475 
L 378.243138 -113.862486 
L 381.826862 -104.153019 
L 385.410585 -100.236913 
L 388.994309 -108.347161 
L 392.578032 -112.827815 
L 396.161756 -106.760306 
L 399.745479 -104.07394 
L 403.329203 -111.789458 
L 406.912926 -122.052765 
L 410.496649 -119.272696 
L 414.080373 -121.513947 
L 417.664096 -120.493286 
L 421.24782 -118.736656 
L 424.831543 -112.734137 
L 428.415267 -107.236449 
L 431.99899 -98.352196 
L 435.582714 -92.749865 
L 439.166437 -90.358733 
L 442.750161 -82.83592 
L 446.333884 -81.094664 
L 449.917608 -81.556674 
L 453.501331 -73.995385 
L 457.085054 -59.705199 
L 460.668778 -55.442338 
L 464.252501 -51.921818 
L 467.836225 -70.005261 
L 471.419948 -73.491241 
L 475.003672 -68.816164 
L 478.587395 -73.518272 
L 482.171119 -78.868205 
L 485.754842 -79.858271 
L 489.338566 -71.842805 
L 492.922289 -74.895229 
L 496.506013 -72.903016 
L 500.089736 -70.824291 
L 503.673459 -70.324757 
L 507.257183 -71.391708 
L 510.840906 -74.170282 
L 514.42463 -72.991458 
L 518.008353 -71.266206 
L 521.592077 -76.974692 
L 525.1758 -78.340253 
L 528.759524 -83.528589 
L 532.343247 -85.46742 
L 535.926971 -83.394088 
L 539.510694 -88.994844 
L 543.094418 -92.544416 
L 546.678141 -99.768813 
L 550.261864 -96.816033 
L 553.845588 -89.059881 
L 557.429311 -84.451252 
L 561.013035 -83.571019 
L 564.596758 -85.576861 
L 568.180482 -88.448196 
L 571.764205 -88.079898 
L 575.347929 -90.884531 
L 578.931652 -91.130337 
L 582.515376 -89.039606 
L 586.099099 -92.180442 
L 589.682823 -95.124949 
L 593.266546 -98.231716 
L 596.850269 -100.280822 
L 600.433993 -82.694992 
L 604.017716 -93.430558 
L 607.60144 -94.562841 
L 611.185163 -105.536897 
L 614.768887 -110.08177 
L 618.35261 -114.73464 
L 621.936334 -122.724652 
L 625.520057 -122.474065 
L 629.103781 -119.885691 
L 632.687504 -126.71742 
L 636.271228 -131.200634 
L 639.854951 -122.911869 
L 643.438674 -118.071797 
L 643.438674 -174.676974 
L 643.438674 -174.676974 
L 639.854951 -165.947861 
L 636.271228 -162.995883 
L 632.687504 -171.680397 
L 629.103781 -174.651472 
L 625.520057 -184.127644 
L 621.936334 -190.122233 
L 618.35261 -205.010327 
L 614.768887 -209.265776 
L 611.185163 -210.006769 
L 607.60144 -220.100822 
L 604.017716 -215.442124 
L 600.433993 -227.909307 
L 596.850269 -194.515881 
L 593.266546 -189.460085 
L 589.682823 -193.361692 
L 586.099099 -198.974593 
L 582.515376 -211.085773 
L 578.931652 -224.753975 
L 575.347929 -234.391878 
L 571.764205 -235.314847 
L 568.180482 -235.043876 
L 564.596758 -236.58507 
L 561.013035 -233.919195 
L 557.429311 -229.243192 
L 553.845588 -220.558977 
L 550.261864 -217.429934 
L 546.678141 -212.871252 
L 543.094418 -217.159604 
L 539.510694 -217.708248 
L 535.926971 -213.916906 
L 532.343247 -212.135557 
L 528.759524 -211.049127 
L 525.1758 -210.641136 
L 521.592077 -208.202817 
L 518.008353 -207.228153 
L 514.42463 -201.317822 
L 510.840906 -196.959635 
L 507.257183 -193.671466 
L 503.673459 -190.439789 
L 500.089736 -187.174534 
L 496.506013 -180.456535 
L 492.922289 -178.17234 
L 489.338566 -180.113609 
L 485.754842 -176.072346 
L 482.171119 -171.417422 
L 478.587395 -169.792222 
L 475.003672 -170.576901 
L 471.419948 -176.099576 
L 467.836225 -180.787279 
L 464.252501 -187.917331 
L 460.668778 -194.372872 
L 457.085054 -202.073174 
L 453.501331 -203.302657 
L 449.917608 -209.087392 
L 446.333884 -218.600853 
L 442.750161 -222.374817 
L 439.166437 -225.667515 
L 435.582714 -230.174464 
L 431.99899 -237.705928 
L 428.415267 -235.095239 
L 424.831543 -229.30692 
L 421.24782 -228.673632 
L 417.664096 -228.271475 
L 414.080373 -230.381513 
L 410.496649 -233.133733 
L 406.912926 -232.00012 
L 403.329203 -242.117436 
L 399.745479 -248.697466 
L 396.161756 -244.940499 
L 392.578032 -238.362021 
L 388.994309 -237.108467 
L 385.410585 -237.610955 
L 381.826862 -229.671982 
L 378.243138 -215.972091 
L 374.659415 -207.345566 
L 371.075691 -203.620347 
L 367.491968 -205.082277 
L 363.908244 -208.269047 
L 360.324521 -210.456764 
L 356.740797 -208.240234 
L 353.157074 -205.756509 
L 349.573351 -200.053441 
L 345.989627 -197.832828 
L 342.405904 -198.270907 
L 338.82218 -188.356272 
L 335.238457 -185.779481 
L 331.654733 -185.806718 
L 328.07101 -185.634218 
L 324.487286 -178.531868 
L 320.903563 -173.828215 
L 317.319839 -172.585761 
L 313.736116 -176.262226 
L 310.152392 -174.150041 
L 306.568669 -174.595594 
L 302.984946 -171.541597 
L 299.401222 -171.365595 
L 295.817499 -178.245006 
L 292.233775 -181.58695 
L 288.650052 -187.287317 
L 285.066328 -185.87105 
L 281.482605 -203.970864 
L 277.898881 -202.505046 
L 274.315158 -205.923066 
L 270.731434 -210.385758 
L 267.147711 -212.754998 
L 263.563987 -212.759649 
L 259.980264 -218.063666 
L 256.396541 -219.303272 
L 252.812817 -218.213101 
L 249.229094 -222.580994 
L 245.64537 -216.44061 
L 242.061647 -217.248115 
L 238.477923 -219.728452 
L 234.8942 -222.008903 
L 231.310476 -222.55082 
L 227.726753 -219.038064 
L 224.143029 -213.517183 
L 220.559306 -213.132274 
L 216.975582 -214.224267 
L 213.391859 -212.706579 
L 209.808136 -211.238429 
L 206.224412 -218.245494 
L 202.640689 -207.820246 
L 199.056965 -200.438906 
L 195.473242 -185.92984 
L 191.889518 -179.970393 
L 188.305795 -175.513141 
L 184.722071 -175.17858 
L 181.138348 -176.850369 
L 177.554624 -179.358534 
L 173.970901 -179.535349 
L 170.387177 -187.662299 
L 166.803454 -200.378575 
L 163.219731 -198.038665 
L 159.636007 -198.166355 
L 156.052284 -196.888728 
L 152.46856 -195.294846 
L 148.884837 -195.057716 
L 145.301113 -194.700115 
L 141.71739 -194.853991 
L 138.133666 -195.676424 
L 134.549943 -202.883574 
L 130.966219 -202.920854 
L 127.382496 -201.521297 
L 123.798772 -204.39514 
L 120.215049 -208.34208 
L 116.631326 -221.428759 
L 113.047602 -228.19348 
L 109.463879 -222.000746 
L 105.880155 -237.478104 
L 102.296432 -239.602683 
L 98.712708 -240.126272 
L 95.128985 -251.158182 
L 91.545261 -241.629585 
L 87.961538 -245.441711 
L 84.377814 -246.26112 
L 80.794091 -248.586083 
z
" style="stroke: #808080; stroke-opacity: 0.2"/>
    </defs>
    <g clip-path="url(#p65ac9877c0)">
     <use xlink:href="#m54b3e1a5e5" x="0" y="288" style="fill: #808080; fill-opacity: 0.2; stroke: #808080; stroke-opacity: 0.2"/>
    </g>
   </g>
   <g id="matplotlib.axis_1">
    <g id="xtick_1">
     <g id="line2d_1">
      <defs>
       <path id="m3bc2438b39" d="M 0 0 
L 0 3.5 
" style="stroke: #000000; stroke-width: 0.8"/>
      </defs>
      <g>
       <use xlink:href="#m3bc2438b39" x="109.463879" y="246.04" style="stroke: #000000; stroke-width: 0.8"/>
      </g>
     </g>
     <g id="text_1">
      <!-- 06-19 12 -->
      <g transform="translate(86.98341 260.638438) scale(0.1 -0.1)">
       <defs>
        <path id="DejaVuSans-30" d="M 2034 4250 
Q 1547 4250 1301 3770 
Q 1056 3291 1056 2328 
Q 1056 1369 1301 889 
Q 1547 409 2034 409 
Q 2525 409 2770 889 
Q 3016 1369 3016 2328 
Q 3016 3291 2770 3770 
Q 2525 4250 2034 4250 
z
M 2034 4750 
Q 2819 4750 3233 4129 
Q 3647 3509 3647 2328 
Q 3647 1150 3233 529 
Q 2819 -91 2034 -91 
Q 1250 -91 836 529 
Q 422 1150 422 2328 
Q 422 3509 836 4129 
Q 1250 4750 2034 4750 
z
" transform="scale(0.015625)"/>
        <path id="DejaVuSans-36" d="M 2113 2584 
Q 1688 2584 1439 2293 
Q 1191 2003 1191 1497 
Q 1191 994 1439 701 
Q 1688 409 2113 409 
Q 2538 409 2786 701 
Q 3034 994 3034 1497 
Q 3034 2003 2786 2293 
Q 2538 2584 2113 2584 
z
M 3366 4563 
L 3366 3988 
Q 3128 4100 2886 4159 
Q 2644 4219 2406 4219 
Q 1781 4219 1451 3797 
Q 1122 3375 1075 2522 
Q 1259 2794 1537 2939 
Q 1816 3084 2150 3084 
Q 2853 3084 3261 2657 
Q 3669 2231 3669 1497 
Q 3669 778 3244 343 
Q 2819 -91 2113 -91 
Q 1303 -91 875 529 
Q 447 1150 447 2328 
Q 447 3434 972 4092 
Q 1497 4750 2381 4750 
Q 2619 4750 2861 4703 
Q 3103 4656 3366 4563 
z
" transform="scale(0.015625)"/>
        <path id="DejaVuSans-2d" d="M 313 2009 
L 1997 2009 
L 1997 1497 
L 313 1497 
L 313 2009 
z
" transform="scale(0.015625)"/>
        <path id="DejaVuSans-31" d="M 794 531 
L 1825 531 
L 1825 4091 
L 703 3866 
L 703 4441 
L 1819 4666 
L 2450 4666 
L 2450 531 
L 3481 531 
L 3481 0 
L 794 0 
L 794 531 
z
" transform="scale(0.015625)"/>
        <path id="DejaVuSans-39" d="M 703 97 
L 703 672 
Q 941 559 1184 500 
Q 1428 441 1663 441 
Q 2288 441 2617 861 
Q 2947 1281 2994 2138 
Q 2813 1869 2534 1725 
Q 2256 1581 1919 1581 
Q 1219 1581 811 2004 
Q 403 2428 403 3163 
Q 403 3881 828 4315 
Q 1253 4750 1959 4750 
Q 2769 4750 3195 4129 
Q 3622 3509 3622 2328 
Q 3622 1225 3098 567 
Q 2575 -91 1691 -91 
Q 1453 -91 1209 -44 
Q 966 3 703 97 
z
M 1959 2075 
Q 2384 2075 2632 2365 
Q 2881 2656 2881 3163 
Q 2881 3666 2632 3958 
Q 2384 4250 1959 4250 
Q 1534 4250 1286 3958 
Q 1038 3666 1038 3163 
Q 1038 2656 1286 2365 
Q 1534 2075 1959 2075 
z
" transform="scale(0.015625)"/>
        <path id="DejaVuSans-20" transform="scale(0.015625)"/>
        <path id="DejaVuSans-32" d="M 1228 531 
L 3431 531 
L 3431 0 
L 469 0 
L 469 531 
Q 828 903 1448 1529 
Q 2069 2156 2228 2338 
Q 2531 2678 2651 2914 
Q 2772 3150 2772 3378 
Q 2772 3750 2511 3984 
Q 2250 4219 1831 4219 
Q 1534 4219 1204 4116 
Q 875 4013 500 3803 
L 500 4441 
Q 881 4594 1212 4672 
Q 1544 4750 1819 4750 
Q 2544 4750 2975 4387 
Q 3406 4025 3406 3419 
Q 3406 3131 3298 2873 
Q 3191 2616 2906 2266 
Q 2828 2175 2409 1742 
Q 1991 1309 1228 531 
z
" transform="scale(0.015625)"/>
       </defs>
       <use xlink:href="#DejaVuSans-30"/>
       <use xlink:href="#DejaVuSans-36" transform="translate(63.623047 0)"/>
       <use xlink:href="#DejaVuSans-2d" transform="translate(127.246094 0)"/>
       <use xlink:href="#DejaVuSans-31" transform="translate(163.330078 0)"/>
       <use xlink:href="#DejaVuSans-39" transform="translate(226.953125 0)"/>
       <use xlink:href="#DejaVuSans-20" transform="translate(290.576172 0)"/>
       <use xlink:href="#DejaVuSans-31" transform="translate(322.363281 0)"/>
       <use xlink:href="#DejaVuSans-32" transform="translate(385.986328 0)"/>
      </g>
     </g>
    </g>
    <g id="xtick_2">
     <g id="line2d_2">
      <g>
       <use xlink:href="#m3bc2438b39" x="195.473242" y="246.04" style="stroke: #000000; stroke-width: 0.8"/>
      </g>
     </g>
     <g id="text_2">
      <!-- 06-20 00 -->
      <g transform="translate(172.992773 260.638438) scale(0.1 -0.1)">
       <use xlink:href="#DejaVuSans-30"/>
       <use xlink:href="#DejaVuSans-36" transform="translate(63.623047 0)"/>
       <use xlink:href="#DejaVuSans-2d" transform="translate(127.246094 0)"/>
       <use xlink:href="#DejaVuSans-32" transform="translate(163.330078 0)"/>
       <use xlink:href="#DejaVuSans-30" transform="translate(226.953125 0)"/>
       <use xlink:href="#DejaVuSans-20" transform="translate(290.576172 0)"/>
       <use xlink:href="#DejaVuSans-30" transform="translate(322.363281 0)"/>
       <use xlink:href="#DejaVuSans-30" transform="translate(385.986328 0)"/>
      </g>
     </g>
    </g>
    <g id="xtick_3">
     <g id="line2d_3">
      <g>
       <use xlink:href="#m3bc2438b39" x="281.482605" y="246.04" style="stroke: #000000; stroke-width: 0.8"/>
      </g>
     </g>
     <g id="text_3">
      <!-- 06-20 12 -->
      <g transform="translate(259.002136 260.638438) scale(0.1 -0.1)">
       <use xlink:href="#DejaVuSans-30"/>
       <use xlink:href="#DejaVuSans-36" transform="translate(63.623047 0)"/>
       <use xlink:href="#DejaVuSans-2d" transform="translate(127.246094 0)"/>
       <use xlink:href="#DejaVuSans-32" transform="translate(163.330078 0)"/>
       <use xlink:href="#DejaVuSans-30" transform="translate(226.953125 0)"/>
       <use xlink:href="#DejaVuSans-20" transform="translate(290.576172 0)"/>
       <use xlink:href="#DejaVuSans-31" transform="translate(322.363281 0)"/>
       <use xlink:href="#DejaVuSans-32" transform="translate(385.986328 0)"/>
      </g>
     </g>
    </g>
    <g id="xtick_4">
     <g id="line2d_4">
      <g>
       <use xlink:href="#m3bc2438b39" x="367.491968" y="246.04" style="stroke: #000000; stroke-width: 0.8"/>
      </g>
     </g>
     <g id="text_4">
      <!-- 06-21 00 -->
      <g transform="translate(345.011499 260.638438) scale(0.1 -0.1)">
       <use xlink:href="#DejaVuSans-30"/>
       <use xlink:href="#DejaVuSans-36" transform="translate(63.623047 0)"/>
       <use xlink:href="#DejaVuSans-2d" transform="translate(127.246094 0)"/>
       <use xlink:href="#DejaVuSans-32" transform="translate(163.330078 0)"/>
       <use xlink:href="#DejaVuSans-31" transform="translate(226.953125 0)"/>
       <use xlink:href="#DejaVuSans-20" transform="translate(290.576172 0)"/>
       <use xlink:href="#DejaVuSans-30" transform="translate(322.363281 0)"/>
       <use xlink:href="#DejaVuSans-30" transform="translate(385.986328 0)"/>
      </g>
     </g>
    </g>
    <g id="xtick_5">
     <g id="line2d_5">
      <g>
       <use xlink:href="#m3bc2438b39" x="453.501331" y="246.04" style="stroke: #000000; stroke-width: 0.8"/>
      </g>
     </g>
     <g id="text_5">
      <!-- 06-21 12 -->
      <g transform="translate(431.020862 260.638438) scale(0.1 -0.1)">
       <use xlink:href="#DejaVuSans-30"/>
       <use xlink:href="#DejaVuSans-36" transform="translate(63.623047 0)"/>
       <use xlink:href="#DejaVuSans-2d" transform="translate(127.246094 0)"/>
       <use xlink:href="#DejaVuSans-32" transform="translate(163.330078 0)"/>
       <use xlink:href="#DejaVuSans-31" transform="translate(226.953125 0)"/>
       <use xlink:href="#DejaVuSans-20" transform="translate(290.576172 0)"/>
       <use xlink:href="#DejaVuSans-31" transform="translate(322.363281 0)"/>
       <use xlink:href="#DejaVuSans-32" transform="translate(385.986328 0)"/>
      </g>
     </g>
    </g>
    <g id="xtick_6">
     <g id="line2d_6">
      <g>
       <use xlink:href="#m3bc2438b39" x="539.510694" y="246.04" style="stroke: #000000; stroke-width: 0.8"/>
      </g>
     </g>
     <g id="text_6">
      <!-- 06-22 00 -->
      <g transform="translate(517.030225 260.638438) scale(0.1 -0.1)">
       <use xlink:href="#DejaVuSans-30"/>
       <use xlink:href="#DejaVuSans-36" transform="translate(63.623047 0)"/>
       <use xlink:href="#DejaVuSans-2d" transform="translate(127.246094 0)"/>
       <use xlink:href="#DejaVuSans-32" transform="translate(163.330078 0)"/>
       <use xlink:href="#DejaVuSans-32" transform="translate(226.953125 0)"/>
       <use xlink:href="#DejaVuSans-20" transform="translate(290.576172 0)"/>
       <use xlink:href="#DejaVuSans-30" transform="translate(322.363281 0)"/>
       <use xlink:href="#DejaVuSans-30" transform="translate(385.986328 0)"/>
      </g>
     </g>
    </g>
    <g id="xtick_7">
     <g id="line2d_7">
      <g>
       <use xlink:href="#m3bc2438b39" x="625.520057" y="246.04" style="stroke: #000000; stroke-width: 0.8"/>
      </g>
     </g>
     <g id="text_7">
      <!-- 06-22 12 -->
      <g transform="translate(603.039588 260.638438) scale(0.1 -0.1)">
       <use xlink:href="#DejaVuSans-30"/>
       <use xlink:href="#DejaVuSans-36" transform="translate(63.623047 0)"/>
       <use xlink:href="#DejaVuSans-2d" transform="translate(127.246094 0)"/>
       <use xlink:href="#DejaVuSans-32" transform="translate(163.330078 0)"/>
       <use xlink:href="#DejaVuSans-32" transform="translate(226.953125 0)"/>
       <use xlink:href="#DejaVuSans-20" transform="translate(290.576172 0)"/>
       <use xlink:href="#DejaVuSans-31" transform="translate(322.363281 0)"/>
       <use xlink:href="#DejaVuSans-32" transform="translate(385.986328 0)"/>
      </g>
     </g>
    </g>
    <g id="text_8">
     <!-- Tijd -->
     <g transform="translate(371.185 274.316562) scale(0.1 -0.1)">
      <defs>
       <path id="DejaVuSans-54" d="M -19 4666 
L 3928 4666 
L 3928 4134 
L 2272 4134 
L 2272 0 
L 1638 0 
L 1638 4134 
L -19 4134 
L -19 4666 
z
" transform="scale(0.015625)"/>
       <path id="DejaVuSans-69" d="M 603 3500 
L 1178 3500 
L 1178 0 
L 603 0 
L 603 3500 
z
M 603 4863 
L 1178 4863 
L 1178 4134 
L 603 4134 
L 603 4863 
z
" transform="scale(0.015625)"/>
       <path id="DejaVuSans-6a" d="M 603 3500 
L 1178 3500 
L 1178 -63 
Q 1178 -731 923 -1031 
Q 669 -1331 103 -1331 
L -116 -1331 
L -116 -844 
L 38 -844 
Q 366 -844 484 -692 
Q 603 -541 603 -63 
L 603 3500 
z
M 603 4863 
L 1178 4863 
L 1178 4134 
L 603 4134 
L 603 4863 
z
" transform="scale(0.015625)"/>
       <path id="DejaVuSans-64" d="M 2906 2969 
L 2906 4863 
L 3481 4863 
L 3481 0 
L 2906 0 
L 2906 525 
Q 2725 213 2448 61 
Q 2172 -91 1784 -91 
Q 1150 -91 751 415 
Q 353 922 353 1747 
Q 353 2572 751 3078 
Q 1150 3584 1784 3584 
Q 2172 3584 2448 3432 
Q 2725 3281 2906 2969 
z
M 947 1747 
Q 947 1113 1208 752 
Q 1469 391 1925 391 
Q 2381 391 2643 752 
Q 2906 1113 2906 1747 
Q 2906 2381 2643 2742 
Q 2381 3103 1925 3103 
Q 1469 3103 1208 2742 
Q 947 2381 947 1747 
z
" transform="scale(0.015625)"/>
      </defs>
      <use xlink:href="#DejaVuSans-54"/>
      <use xlink:href="#DejaVuSans-69" transform="translate(57.958984 0)"/>
      <use xlink:href="#DejaVuSans-6a" transform="translate(85.742188 0)"/>
      <use xlink:href="#DejaVuSans-64" transform="translate(113.525391 0)"/>
     </g>
    </g>
   </g>
   <g id="matplotlib.axis_2">
    <g id="ytick_1">
     <g id="line2d_8">
      <defs>
       <path id="m00a000be1b" d="M 0 0 
L -3.5 0 
" style="stroke: #000000; stroke-width: 0.8"/>
      </defs>
      <g>
       <use xlink:href="#m00a000be1b" x="50.87" y="227.085178" style="stroke: #000000; stroke-width: 0.8"/>
      </g>
     </g>
     <g id="text_9">
      <!-- 0 -->
      <g transform="translate(37.5075 230.884397) scale(0.1 -0.1)">
       <use xlink:href="#DejaVuSans-30"/>
      </g>
     </g>
    </g>
    <g id="ytick_2">
     <g id="line2d_9">
      <g>
       <use xlink:href="#m00a000be1b" x="50.87" y="193.020578" style="stroke: #000000; stroke-width: 0.8"/>
      </g>
     </g>
     <g id="text_10">
      <!-- 20 -->
      <g transform="translate(31.145 196.819797) scale(0.1 -0.1)">
       <use xlink:href="#DejaVuSans-32"/>
       <use xlink:href="#DejaVuSans-30" transform="translate(63.623047 0)"/>
      </g>
     </g>
    </g>
    <g id="ytick_3">
     <g id="line2d_10">
      <g>
       <use xlink:href="#m00a000be1b" x="50.87" y="158.955979" style="stroke: #000000; stroke-width: 0.8"/>
      </g>
     </g>
     <g id="text_11">
      <!-- 40 -->
      <g transform="translate(31.145 162.755198) scale(0.1 -0.1)">
       <defs>
        <path id="DejaVuSans-34" d="M 2419 4116 
L 825 1625 
L 2419 1625 
L 2419 4116 
z
M 2253 4666 
L 3047 4666 
L 3047 1625 
L 3713 1625 
L 3713 1100 
L 3047 1100 
L 3047 0 
L 2419 0 
L 2419 1100 
L 313 1100 
L 313 1709 
L 2253 4666 
z
" transform="scale(0.015625)"/>
       </defs>
       <use xlink:href="#DejaVuSans-34"/>
       <use xlink:href="#DejaVuSans-30" transform="translate(63.623047 0)"/>
      </g>
     </g>
    </g>
    <g id="ytick_4">
     <g id="line2d_11">
      <g>
       <use xlink:href="#m00a000be1b" x="50.87" y="124.89138" style="stroke: #000000; stroke-width: 0.8"/>
      </g>
     </g>
     <g id="text_12">
      <!-- 60 -->
      <g transform="translate(31.145 128.690599) scale(0.1 -0.1)">
       <use xlink:href="#DejaVuSans-36"/>
       <use xlink:href="#DejaVuSans-30" transform="translate(63.623047 0)"/>
      </g>
     </g>
    </g>
    <g id="ytick_5">
     <g id="line2d_12">
      <g>
       <use xlink:href="#m00a000be1b" x="50.87" y="90.826781" style="stroke: #000000; stroke-width: 0.8"/>
      </g>
     </g>
     <g id="text_13">
      <!-- 80 -->
      <g transform="translate(31.145 94.625999) scale(0.1 -0.1)">
       <defs>
        <path id="DejaVuSans-38" d="M 2034 2216 
Q 1584 2216 1326 1975 
Q 1069 1734 1069 1313 
Q 1069 891 1326 650 
Q 1584 409 2034 409 
Q 2484 409 2743 651 
Q 3003 894 3003 1313 
Q 3003 1734 2745 1975 
Q 2488 2216 2034 2216 
z
M 1403 2484 
Q 997 2584 770 2862 
Q 544 3141 544 3541 
Q 544 4100 942 4425 
Q 1341 4750 2034 4750 
Q 2731 4750 3128 4425 
Q 3525 4100 3525 3541 
Q 3525 3141 3298 2862 
Q 3072 2584 2669 2484 
Q 3125 2378 3379 2068 
Q 3634 1759 3634 1313 
Q 3634 634 3220 271 
Q 2806 -91 2034 -91 
Q 1263 -91 848 271 
Q 434 634 434 1313 
Q 434 1759 690 2068 
Q 947 2378 1403 2484 
z
M 1172 3481 
Q 1172 3119 1398 2916 
Q 1625 2713 2034 2713 
Q 2441 2713 2670 2916 
Q 2900 3119 2900 3481 
Q 2900 3844 2670 4047 
Q 2441 4250 2034 4250 
Q 1625 4250 1398 4047 
Q 1172 3844 1172 3481 
z
" transform="scale(0.015625)"/>
       </defs>
       <use xlink:href="#DejaVuSans-38"/>
       <use xlink:href="#DejaVuSans-30" transform="translate(63.623047 0)"/>
      </g>
     </g>
    </g>
    <g id="ytick_6">
     <g id="line2d_13">
      <g>
       <use xlink:href="#m00a000be1b" x="50.87" y="56.762181" style="stroke: #000000; stroke-width: 0.8"/>
      </g>
     </g>
     <g id="text_14">
      <!-- 100 -->
      <g transform="translate(24.7825 60.5614) scale(0.1 -0.1)">
       <use xlink:href="#DejaVuSans-31"/>
       <use xlink:href="#DejaVuSans-30" transform="translate(63.623047 0)"/>
       <use xlink:href="#DejaVuSans-30" transform="translate(127.246094 0)"/>
      </g>
     </g>
    </g>
    <g id="text_15">
     <!-- (Rel.) Buiten Vochtigheid (%) -->
     <g transform="translate(18.702813 208.620937) rotate(-90) scale(0.1 -0.1)">
      <defs>
       <path id="DejaVuSans-28" d="M 1984 4856 
Q 1566 4138 1362 3434 
Q 1159 2731 1159 2009 
Q 1159 1288 1364 580 
Q 1569 -128 1984 -844 
L 1484 -844 
Q 1016 -109 783 600 
Q 550 1309 550 2009 
Q 550 2706 781 3412 
Q 1013 4119 1484 4856 
L 1984 4856 
z
" transform="scale(0.015625)"/>
       <path id="DejaVuSans-52" d="M 2841 2188 
Q 3044 2119 3236 1894 
Q 3428 1669 3622 1275 
L 4263 0 
L 3584 0 
L 2988 1197 
Q 2756 1666 2539 1819 
Q 2322 1972 1947 1972 
L 1259 1972 
L 1259 0 
L 628 0 
L 628 4666 
L 2053 4666 
Q 2853 4666 3247 4331 
Q 3641 3997 3641 3322 
Q 3641 2881 3436 2590 
Q 3231 2300 2841 2188 
z
M 1259 4147 
L 1259 2491 
L 2053 2491 
Q 2509 2491 2742 2702 
Q 2975 2913 2975 3322 
Q 2975 3731 2742 3939 
Q 2509 4147 2053 4147 
L 1259 4147 
z
" transform="scale(0.015625)"/>
       <path id="DejaVuSans-65" d="M 3597 1894 
L 3597 1613 
L 953 1613 
Q 991 1019 1311 708 
Q 1631 397 2203 397 
Q 2534 397 2845 478 
Q 3156 559 3463 722 
L 3463 178 
Q 3153 47 2828 -22 
Q 2503 -91 2169 -91 
Q 1331 -91 842 396 
Q 353 884 353 1716 
Q 353 2575 817 3079 
Q 1281 3584 2069 3584 
Q 2775 3584 3186 3129 
Q 3597 2675 3597 1894 
z
M 3022 2063 
Q 3016 2534 2758 2815 
Q 2500 3097 2075 3097 
Q 1594 3097 1305 2825 
Q 1016 2553 972 2059 
L 3022 2063 
z
" transform="scale(0.015625)"/>
       <path id="DejaVuSans-6c" d="M 603 4863 
L 1178 4863 
L 1178 0 
L 603 0 
L 603 4863 
z
" transform="scale(0.015625)"/>
       <path id="DejaVuSans-2e" d="M 684 794 
L 1344 794 
L 1344 0 
L 684 0 
L 684 794 
z
" transform="scale(0.015625)"/>
       <path id="DejaVuSans-29" d="M 513 4856 
L 1013 4856 
Q 1481 4119 1714 3412 
Q 1947 2706 1947 2009 
Q 1947 1309 1714 600 
Q 1481 -109 1013 -844 
L 513 -844 
Q 928 -128 1133 580 
Q 1338 1288 1338 2009 
Q 1338 2731 1133 3434 
Q 928 4138 513 4856 
z
" transform="scale(0.015625)"/>
       <path id="DejaVuSans-42" d="M 1259 2228 
L 1259 519 
L 2272 519 
Q 2781 519 3026 730 
Q 3272 941 3272 1375 
Q 3272 1813 3026 2020 
Q 2781 2228 2272 2228 
L 1259 2228 
z
M 1259 4147 
L 1259 2741 
L 2194 2741 
Q 2656 2741 2882 2914 
Q 3109 3088 3109 3444 
Q 3109 3797 2882 3972 
Q 2656 4147 2194 4147 
L 1259 4147 
z
M 628 4666 
L 2241 4666 
Q 2963 4666 3353 4366 
Q 3744 4066 3744 3513 
Q 3744 3084 3544 2831 
Q 3344 2578 2956 2516 
Q 3422 2416 3680 2098 
Q 3938 1781 3938 1306 
Q 3938 681 3513 340 
Q 3088 0 2303 0 
L 628 0 
L 628 4666 
z
" transform="scale(0.015625)"/>
       <path id="DejaVuSans-75" d="M 544 1381 
L 544 3500 
L 1119 3500 
L 1119 1403 
Q 1119 906 1312 657 
Q 1506 409 1894 409 
Q 2359 409 2629 706 
Q 2900 1003 2900 1516 
L 2900 3500 
L 3475 3500 
L 3475 0 
L 2900 0 
L 2900 538 
Q 2691 219 2414 64 
Q 2138 -91 1772 -91 
Q 1169 -91 856 284 
Q 544 659 544 1381 
z
M 1991 3584 
L 1991 3584 
z
" transform="scale(0.015625)"/>
       <path id="DejaVuSans-74" d="M 1172 4494 
L 1172 3500 
L 2356 3500 
L 2356 3053 
L 1172 3053 
L 1172 1153 
Q 1172 725 1289 603 
Q 1406 481 1766 481 
L 2356 481 
L 2356 0 
L 1766 0 
Q 1100 0 847 248 
Q 594 497 594 1153 
L 594 3053 
L 172 3053 
L 172 3500 
L 594 3500 
L 594 4494 
L 1172 4494 
z
" transform="scale(0.015625)"/>
       <path id="DejaVuSans-6e" d="M 3513 2113 
L 3513 0 
L 2938 0 
L 2938 2094 
Q 2938 2591 2744 2837 
Q 2550 3084 2163 3084 
Q 1697 3084 1428 2787 
Q 1159 2491 1159 1978 
L 1159 0 
L 581 0 
L 581 3500 
L 1159 3500 
L 1159 2956 
Q 1366 3272 1645 3428 
Q 1925 3584 2291 3584 
Q 2894 3584 3203 3211 
Q 3513 2838 3513 2113 
z
" transform="scale(0.015625)"/>
       <path id="DejaVuSans-56" d="M 1831 0 
L 50 4666 
L 709 4666 
L 2188 738 
L 3669 4666 
L 4325 4666 
L 2547 0 
L 1831 0 
z
" transform="scale(0.015625)"/>
       <path id="DejaVuSans-6f" d="M 1959 3097 
Q 1497 3097 1228 2736 
Q 959 2375 959 1747 
Q 959 1119 1226 758 
Q 1494 397 1959 397 
Q 2419 397 2687 759 
Q 2956 1122 2956 1747 
Q 2956 2369 2687 2733 
Q 2419 3097 1959 3097 
z
M 1959 3584 
Q 2709 3584 3137 3096 
Q 3566 2609 3566 1747 
Q 3566 888 3137 398 
Q 2709 -91 1959 -91 
Q 1206 -91 779 398 
Q 353 888 353 1747 
Q 353 2609 779 3096 
Q 1206 3584 1959 3584 
z
" transform="scale(0.015625)"/>
       <path id="DejaVuSans-63" d="M 3122 3366 
L 3122 2828 
Q 2878 2963 2633 3030 
Q 2388 3097 2138 3097 
Q 1578 3097 1268 2742 
Q 959 2388 959 1747 
Q 959 1106 1268 751 
Q 1578 397 2138 397 
Q 2388 397 2633 464 
Q 2878 531 3122 666 
L 3122 134 
Q 2881 22 2623 -34 
Q 2366 -91 2075 -91 
Q 1284 -91 818 406 
Q 353 903 353 1747 
Q 353 2603 823 3093 
Q 1294 3584 2113 3584 
Q 2378 3584 2631 3529 
Q 2884 3475 3122 3366 
z
" transform="scale(0.015625)"/>
       <path id="DejaVuSans-68" d="M 3513 2113 
L 3513 0 
L 2938 0 
L 2938 2094 
Q 2938 2591 2744 2837 
Q 2550 3084 2163 3084 
Q 1697 3084 1428 2787 
Q 1159 2491 1159 1978 
L 1159 0 
L 581 0 
L 581 4863 
L 1159 4863 
L 1159 2956 
Q 1366 3272 1645 3428 
Q 1925 3584 2291 3584 
Q 2894 3584 3203 3211 
Q 3513 2838 3513 2113 
z
" transform="scale(0.015625)"/>
       <path id="DejaVuSans-67" d="M 2906 1791 
Q 2906 2416 2648 2759 
Q 2391 3103 1925 3103 
Q 1463 3103 1205 2759 
Q 947 2416 947 1791 
Q 947 1169 1205 825 
Q 1463 481 1925 481 
Q 2391 481 2648 825 
Q 2906 1169 2906 1791 
z
M 3481 434 
Q 3481 -459 3084 -895 
Q 2688 -1331 1869 -1331 
Q 1566 -1331 1297 -1286 
Q 1028 -1241 775 -1147 
L 775 -588 
Q 1028 -725 1275 -790 
Q 1522 -856 1778 -856 
Q 2344 -856 2625 -561 
Q 2906 -266 2906 331 
L 2906 616 
Q 2728 306 2450 153 
Q 2172 0 1784 0 
Q 1141 0 747 490 
Q 353 981 353 1791 
Q 353 2603 747 3093 
Q 1141 3584 1784 3584 
Q 2172 3584 2450 3431 
Q 2728 3278 2906 2969 
L 2906 3500 
L 3481 3500 
L 3481 434 
z
" transform="scale(0.015625)"/>
       <path id="DejaVuSans-25" d="M 4653 2053 
Q 4381 2053 4226 1822 
Q 4072 1591 4072 1178 
Q 4072 772 4226 539 
Q 4381 306 4653 306 
Q 4919 306 5073 539 
Q 5228 772 5228 1178 
Q 5228 1588 5073 1820 
Q 4919 2053 4653 2053 
z
M 4653 2450 
Q 5147 2450 5437 2106 
Q 5728 1763 5728 1178 
Q 5728 594 5436 251 
Q 5144 -91 4653 -91 
Q 4153 -91 3862 251 
Q 3572 594 3572 1178 
Q 3572 1766 3864 2108 
Q 4156 2450 4653 2450 
z
M 1428 4353 
Q 1159 4353 1004 4120 
Q 850 3888 850 3481 
Q 850 3069 1003 2837 
Q 1156 2606 1428 2606 
Q 1700 2606 1854 2837 
Q 2009 3069 2009 3481 
Q 2009 3884 1853 4118 
Q 1697 4353 1428 4353 
z
M 4250 4750 
L 4750 4750 
L 1831 -91 
L 1331 -91 
L 4250 4750 
z
M 1428 4750 
Q 1922 4750 2215 4408 
Q 2509 4066 2509 3481 
Q 2509 2891 2217 2550 
Q 1925 2209 1428 2209 
Q 931 2209 642 2551 
Q 353 2894 353 3481 
Q 353 4063 643 4406 
Q 934 4750 1428 4750 
z
" transform="scale(0.015625)"/>
      </defs>
      <use xlink:href="#DejaVuSans-28"/>
      <use xlink:href="#DejaVuSans-52" transform="translate(39.013672 0)"/>
      <use xlink:href="#DejaVuSans-65" transform="translate(103.996094 0)"/>
      <use xlink:href="#DejaVuSans-6c" transform="translate(165.519531 0)"/>
      <use xlink:href="#DejaVuSans-2e" transform="translate(193.302734 0)"/>
      <use xlink:href="#DejaVuSans-29" transform="translate(225.089844 0)"/>
      <use xlink:href="#DejaVuSans-20" transform="translate(264.103516 0)"/>
      <use xlink:href="#DejaVuSans-42" transform="translate(295.890625 0)"/>
      <use xlink:href="#DejaVuSans-75" transform="translate(364.494141 0)"/>
      <use xlink:href="#DejaVuSans-69" transform="translate(427.873047 0)"/>
      <use xlink:href="#DejaVuSans-74" transform="translate(455.65625 0)"/>
      <use xlink:href="#DejaVuSans-65" transform="translate(494.865234 0)"/>
      <use xlink:href="#DejaVuSans-6e" transform="translate(556.388672 0)"/>
      <use xlink:href="#DejaVuSans-20" transform="translate(619.767578 0)"/>
      <use xlink:href="#DejaVuSans-56" transform="translate(651.554688 0)"/>
      <use xlink:href="#DejaVuSans-6f" transform="translate(712.212891 0)"/>
      <use xlink:href="#DejaVuSans-63" transform="translate(773.394531 0)"/>
      <use xlink:href="#DejaVuSans-68" transform="translate(828.375 0)"/>
      <use xlink:href="#DejaVuSans-74" transform="translate(891.753906 0)"/>
      <use xlink:href="#DejaVuSans-69" transform="translate(930.962891 0)"/>
      <use xlink:href="#DejaVuSans-67" transform="translate(958.746094 0)"/>
      <use xlink:href="#DejaVuSans-68" transform="translate(1022.222656 0)"/>
      <use xlink:href="#DejaVuSans-65" transform="translate(1085.601562 0)"/>
      <use xlink:href="#DejaVuSans-69" transform="translate(1147.125 0)"/>
      <use xlink:href="#DejaVuSans-64" transform="translate(1174.908203 0)"/>
      <use xlink:href="#DejaVuSans-20" transform="translate(1238.384766 0)"/>
      <use xlink:href="#DejaVuSans-28" transform="translate(1270.171875 0)"/>
      <use xlink:href="#DejaVuSans-25" transform="translate(1309.185547 0)"/>
      <use xlink:href="#DejaVuSans-29" transform="translate(1404.205078 0)"/>
     </g>
    </g>
   </g>
   <g id="line2d_14">
    <path d="M 84.377814 93.040979 
L 98.712708 91.508073 
L 102.296432 90.997104 
L 105.880155 91.848719 
L 109.463879 94.23324 
L 113.047602 95.595824 
L 116.631326 100.364868 
L 120.215049 103.090036 
L 123.798772 105.644881 
L 130.966219 117.737814 
L 134.549943 124.550734 
L 138.133666 130.512039 
L 141.71739 135.962375 
L 145.301113 140.475934 
L 148.884837 142.264326 
L 152.46856 144.478524 
L 156.052284 148.736599 
L 159.636007 152.313382 
L 163.219731 158.955979 
L 166.803454 165.995996 
L 170.387177 166.166319 
L 173.970901 172.127624 
L 177.554624 169.402456 
L 181.138348 159.466948 
L 184.722071 154.357258 
L 191.889518 145.897883 
L 195.473242 146.607562 
L 209.808136 140.050127 
L 213.391859 136.728828 
L 216.975582 135.451406 
L 220.559306 128.383001 
L 224.143029 121.825566 
L 227.726753 116.715876 
L 231.310476 117.822975 
L 234.8942 118.589429 
L 238.477923 117.737814 
L 242.061647 118.793817 
L 245.64537 121.101693 
L 249.229094 123.801313 
L 252.812817 127.548419 
L 256.396541 128.411388 
L 259.980264 130.299135 
L 263.563987 135.519535 
L 267.147711 134.131402 
L 270.731434 134.968824 
L 274.315158 131.874623 
L 277.898881 137.793347 
L 281.482605 144.240072 
L 285.066328 146.352077 
L 288.650052 165.25793 
L 292.233775 177.010217 
L 295.817499 187.99605 
L 299.401222 169.288908 
L 302.984946 167.940517 
L 306.568669 162.589536 
L 310.152392 157.593395 
L 313.736116 157.423072 
L 317.319839 156.656619 
L 320.903563 156.060488 
L 324.487286 152.143059 
L 328.07101 144.932719 
L 331.654733 142.349487 
L 335.238457 140.390773 
L 338.82218 136.019149 
L 342.405904 126.481061 
L 345.989627 122.847504 
L 349.573351 120.292659 
L 353.157074 116.37523 
L 356.740797 113.479739 
L 360.324521 111.606186 
L 363.908244 111.606186 
L 367.491968 112.117155 
L 371.075691 113.181674 
L 378.243138 112.741673 
L 381.826862 109.505536 
L 385.410585 107.518434 
L 388.994309 105.36101 
L 392.578032 104.45262 
L 396.161756 103.345521 
L 399.745479 103.033262 
L 403.329203 104.963589 
L 406.912926 108.994567 
L 410.496649 111.861671 
L 414.080373 114.331354 
L 417.664096 120.462982 
L 421.24782 126.026866 
L 428.415267 137.921089 
L 431.99899 150.439829 
L 435.582714 154.584356 
L 442.750161 168.26697 
L 446.333884 171.730204 
L 449.917608 172.638593 
L 453.501331 173.717306 
L 457.085054 178.798608 
L 460.668778 195.121229 
L 464.252501 202.728989 
L 471.419948 190.465734 
L 475.003672 190.465734 
L 482.171119 168.777939 
L 485.754842 160.318563 
L 489.338566 160.261789 
L 492.922289 159.069528 
L 496.506013 158.672108 
L 500.089736 153.590805 
L 503.673459 151.03596 
L 507.257183 146.692723 
L 510.840906 140.504321 
L 514.42463 135.224308 
L 518.008353 128.29784 
L 521.592077 124.89138 
L 525.1758 121.059112 
L 528.759524 119.355882 
L 532.343247 115.921035 
L 535.926971 114.955872 
L 539.510694 112.173929 
L 543.094418 111.946832 
L 546.678141 113.025544 
L 550.261864 112.401027 
L 553.845588 113.877159 
L 557.429311 112.173929 
L 561.013035 111.379089 
L 568.180482 110.357151 
L 571.764205 111.66296 
L 575.347929 112.344252 
L 578.931652 117.567491 
L 582.515376 132.442366 
L 586.099099 139.198512 
L 589.682823 144.478524 
L 593.266546 147.374015 
L 596.850269 145.841108 
L 596.850269 145.841108 
" clip-path="url(#p65ac9877c0)" style="fill: none; stroke: #1f77b4; stroke-width: 2; stroke-linecap: square"/>
   </g>
   <g id="line2d_15">
    <path d="M 80.794091 91.18162 
L 84.377814 93.008537 
L 87.961538 90.561834 
L 91.545261 90.660513 
L 95.128985 93.249152 
L 98.712708 94.626605 
L 102.296432 96.804307 
L 105.880155 102.173536 
L 109.463879 111.218228 
L 113.047602 119.062548 
L 116.631326 121.068575 
L 120.215049 121.04965 
L 123.798772 123.964066 
L 127.382496 129.331133 
L 130.966219 130.805373 
L 134.549943 126.344803 
L 138.133666 131.453546 
L 141.71739 134.789038 
L 145.301113 137.935283 
L 148.884837 137.76496 
L 152.46856 140.802386 
L 156.052284 138.484101 
L 159.636007 137.632486 
L 163.219731 137.788616 
L 166.803454 141.003935 
L 170.387177 142.945617 
L 173.970901 145.301752 
L 177.554624 144.847558 
L 181.138348 142.08454 
L 184.722071 140.911204 
L 188.305795 140.154213 
L 191.889518 138.365821 
L 195.473242 137.367539 
L 199.056965 131.908687 
L 202.640689 130.994621 
L 206.224412 130.489329 
L 209.808136 128.500605 
L 213.391859 127.328621 
L 216.975582 127.989636 
L 220.559306 125.970092 
L 224.143029 123.476077 
L 227.726753 123.512575 
L 231.310476 123.38686 
L 234.8942 122.506858 
L 238.477923 120.973951 
L 245.64537 121.827594 
L 249.229094 117.972481 
L 252.812817 122.967541 
L 256.396541 122.109438 
L 259.980264 122.273678 
L 263.563987 124.47125 
L 267.147711 124.394604 
L 270.731434 125.601059 
L 274.315158 127.397561 
L 277.898881 130.810104 
L 281.482605 138.844078 
L 285.066328 136.028611 
L 288.650052 149.827478 
L 292.233775 153.116334 
L 299.401222 150.237064 
L 302.984946 152.802047 
L 306.568669 151.054885 
L 313.736116 150.36413 
L 317.319839 151.932183 
L 320.903563 151.417159 
L 324.487286 151.040015 
L 328.07101 147.803878 
L 331.654733 146.258805 
L 335.238457 145.236867 
L 338.82218 144.677235 
L 342.405904 141.138301 
L 345.989627 140.428622 
L 349.573351 136.400348 
L 353.157074 133.399419 
L 356.740797 130.974344 
L 360.324521 130.025402 
L 363.908244 128.192402 
L 367.491968 127.77876 
L 371.075691 125.826129 
L 374.659415 124.165479 
L 378.243138 123.082712 
L 385.410585 119.076066 
L 388.994309 115.272186 
L 392.578032 112.405082 
L 396.161756 112.149598 
L 403.329203 111.046553 
L 406.912926 110.973558 
L 410.496649 111.796786 
L 414.080373 112.05227 
L 417.664096 113.61762 
L 421.24782 114.294856 
L 424.831543 116.979471 
L 428.415267 116.834156 
L 431.99899 119.970938 
L 435.582714 126.537835 
L 439.166437 129.986876 
L 442.750161 135.394631 
L 446.333884 138.152242 
L 449.917608 142.677967 
L 453.501331 149.350979 
L 457.085054 157.110813 
L 460.668778 163.092395 
L 464.252501 168.080425 
L 467.836225 162.60373 
L 471.419948 163.204592 
L 475.003672 168.303467 
L 478.587395 166.344753 
L 482.171119 162.857187 
L 485.754842 160.034691 
L 489.338566 162.021793 
L 492.922289 161.466216 
L 496.506013 161.320225 
L 500.089736 159.000588 
L 503.673459 157.617727 
L 507.257183 155.468413 
L 510.840906 152.435042 
L 514.42463 150.84536 
L 518.008353 148.752821 
L 521.592077 145.411246 
L 525.1758 143.509306 
L 528.759524 140.711142 
L 532.343247 139.198512 
L 535.926971 139.344503 
L 539.510694 134.648454 
L 546.678141 131.679968 
L 550.261864 130.877017 
L 553.845588 133.190571 
L 557.429311 131.152778 
L 561.013035 129.254893 
L 564.596758 126.919035 
L 568.180482 126.253964 
L 571.764205 126.302628 
L 575.347929 125.361796 
L 578.931652 130.057844 
L 582.515376 137.93731 
L 586.099099 142.422483 
L 589.682823 143.756679 
L 593.266546 144.1541 
L 596.850269 140.601649 
L 600.433993 132.697851 
L 604.017716 133.563659 
L 607.60144 130.668168 
L 611.185163 130.228167 
L 614.768887 128.326227 
L 618.35261 128.127517 
L 621.936334 131.576557 
L 625.520057 134.699146 
L 629.103781 140.731419 
L 632.687504 138.801091 
L 636.271228 140.901742 
L 639.854951 143.570135 
L 643.438674 141.625614 
L 647.022398 128.723647 
L 650.606121 131.7043 
L 654.189845 129.830747 
L 657.773568 129.09268 
L 661.357292 133.237207 
L 664.941015 129.546875 
L 668.524739 124.976541 
L 672.108462 121.48492 
L 675.692186 121.201048 
L 679.275909 121.314597 
L 679.275909 121.314597 
" clip-path="url(#p65ac9877c0)" style="fill: none; stroke-dasharray: 5.55,2.4; stroke-dashoffset: 0; stroke: #808080; stroke-width: 1.5"/>
   </g>
   <g id="patch_3">
    <path d="M 50.87 246.04 
L 50.87 26.88 
" style="fill: none; stroke: #000000; stroke-width: 0.8; stroke-linejoin: miter; stroke-linecap: square"/>
   </g>
   <g id="patch_4">
    <path d="M 709.2 246.04 
L 709.2 26.88 
" style="fill: none; stroke: #000000; stroke-width: 0.8; stroke-linejoin: miter; stroke-linecap: square"/>
   </g>
   <g id="patch_5">
    <path d="M 50.87 246.04 
L 709.2 246.04 
" style="fill: none; stroke: #000000; stroke-width: 0.8; stroke-linejoin: miter; stroke-linecap: square"/>
   </g>
   <g id="patch_6">
    <path d="M 50.87 26.88 
L 709.2 26.88 
" style="fill: none; stroke: #000000; stroke-width: 0.8; stroke-linejoin: miter; stroke-linecap: square"/>
   </g>
   <g id="text_16">
    <!-- Luchtvochtigheid - v001/c00001/d011 -->
    <g transform="translate(265.745312 20.88) scale(0.12 -0.12)">
     <defs>
      <path id="DejaVuSans-4c" d="M 628 4666 
L 1259 4666 
L 1259 531 
L 3531 531 
L 3531 0 
L 628 0 
L 628 4666 
z
" transform="scale(0.015625)"/>
      <path id="DejaVuSans-76" d="M 191 3500 
L 800 3500 
L 1894 563 
L 2988 3500 
L 3597 3500 
L 2284 0 
L 1503 0 
L 191 3500 
z
" transform="scale(0.015625)"/>
      <path id="DejaVuSans-2f" d="M 1625 4666 
L 2156 4666 
L 531 -594 
L 0 -594 
L 1625 4666 
z
" transform="scale(0.015625)"/>
     </defs>
     <use xlink:href="#DejaVuSans-4c"/>
     <use xlink:href="#DejaVuSans-75" transform="translate(53.962891 0)"/>
     <use xlink:href="#DejaVuSans-63" transform="translate(117.341797 0)"/>
     <use xlink:href="#DejaVuSans-68" transform="translate(172.322266 0)"/>
     <use xlink:href="#DejaVuSans-74" transform="translate(235.701172 0)"/>
     <use xlink:href="#DejaVuSans-76" transform="translate(274.910156 0)"/>
     <use xlink:href="#DejaVuSans-6f" transform="translate(334.089844 0)"/>
     <use xlink:href="#DejaVuSans-63" transform="translate(395.271484 0)"/>
     <use xlink:href="#DejaVuSans-68" transform="translate(450.251953 0)"/>
     <use xlink:href="#DejaVuSans-74" transform="translate(513.630859 0)"/>
     <use xlink:href="#DejaVuSans-69" transform="translate(552.839844 0)"/>
     <use xlink:href="#DejaVuSans-67" transform="translate(580.623047 0)"/>
     <use xlink:href="#DejaVuSans-68" transform="translate(644.099609 0)"/>
     <use xlink:href="#DejaVuSans-65" transform="translate(707.478516 0)"/>
     <use xlink:href="#DejaVuSans-69" transform="translate(769.001953 0)"/>
     <use xlink:href="#DejaVuSans-64" transform="translate(796.785156 0)"/>
     <use xlink:href="#DejaVuSans-20" transform="translate(860.261719 0)"/>
     <use xlink:href="#DejaVuSans-2d" transform="translate(892.048828 0)"/>
     <use xlink:href="#DejaVuSans-20" transform="translate(928.132812 0)"/>
     <use xlink:href="#DejaVuSans-76" transform="translate(959.919922 0)"/>
     <use xlink:href="#DejaVuSans-30" transform="translate(1019.099609 0)"/>
     <use xlink:href="#DejaVuSans-30" transform="translate(1082.722656 0)"/>
     <use xlink:href="#DejaVuSans-31" transform="translate(1146.345703 0)"/>
     <use xlink:href="#DejaVuSans-2f" transform="translate(1209.96875 0)"/>
     <use xlink:href="#DejaVuSans-63" transform="translate(1243.660156 0)"/>
     <use xlink:href="#DejaVuSans-30" transform="translate(1298.640625 0)"/>
     <use xlink:href="#DejaVuSans-30" transform="translate(1362.263672 0)"/>
     <use xlink:href="#DejaVuSans-30" transform="translate(1425.886719 0)"/>
     <use xlink:href="#DejaVuSans-30" transform="translate(1489.509766 0)"/>
     <use xlink:href="#DejaVuSans-31" transform="translate(1553.132812 0)"/>
     <use xlink:href="#DejaVuSans-2f" transform="translate(1616.755859 0)"/>
     <use xlink:href="#DejaVuSans-64" transform="translate(1650.447266 0)"/>
     <use xlink:href="#DejaVuSans-30" transform="translate(1713.923828 0)"/>
     <use xlink:href="#DejaVuSans-31" transform="translate(1777.546875 0)"/>
     <use xlink:href="#DejaVuSans-31" transform="translate(1841.169922 0)"/>
    </g>
   </g>
   <g id="legend_1">
    <g id="patch_7">
     <path d="M 57.87 241.04 
L 208.81375 241.04 
Q 210.81375 241.04 210.81375 239.04 
L 210.81375 196.005625 
Q 210.81375 194.005625 208.81375 194.005625 
L 57.87 194.005625 
Q 55.87 194.005625 55.87 196.005625 
L 55.87 239.04 
Q 55.87 241.04 57.87 241.04 
z
" style="fill: #ffffff; opacity: 0.8; stroke: #cccccc; stroke-linejoin: miter"/>
    </g>
    <g id="line2d_16">
     <path d="M 59.87 202.104062 
L 69.87 202.104062 
L 79.87 202.104062 
" style="fill: none; stroke: #1f77b4; stroke-width: 2; stroke-linecap: square"/>
    </g>
    <g id="text_17">
     <!-- Hive -->
     <g transform="translate(87.87 205.604062) scale(0.1 -0.1)">
      <defs>
       <path id="DejaVuSans-48" d="M 628 4666 
L 1259 4666 
L 1259 2753 
L 3553 2753 
L 3553 4666 
L 4184 4666 
L 4184 0 
L 3553 0 
L 3553 2222 
L 1259 2222 
L 1259 0 
L 628 0 
L 628 4666 
z
" transform="scale(0.015625)"/>
      </defs>
      <use xlink:href="#DejaVuSans-48"/>
      <use xlink:href="#DejaVuSans-69" transform="translate(75.195312 0)"/>
      <use xlink:href="#DejaVuSans-76" transform="translate(102.978516 0)"/>
      <use xlink:href="#DejaVuSans-65" transform="translate(162.158203 0)"/>
     </g>
    </g>
    <g id="line2d_17">
     <path d="M 59.87 216.782187 
L 69.87 216.782187 
L 79.87 216.782187 
" style="fill: none; stroke-dasharray: 5.55,2.4; stroke-dashoffset: 0; stroke: #808080; stroke-width: 1.5"/>
    </g>
    <g id="text_18">
     <!-- Gemiddelde (alle hives) -->
     <g transform="translate(87.87 220.282187) scale(0.1 -0.1)">
      <defs>
       <path id="DejaVuSans-47" d="M 3809 666 
L 3809 1919 
L 2778 1919 
L 2778 2438 
L 4434 2438 
L 4434 434 
Q 4069 175 3628 42 
Q 3188 -91 2688 -91 
Q 1594 -91 976 548 
Q 359 1188 359 2328 
Q 359 3472 976 4111 
Q 1594 4750 2688 4750 
Q 3144 4750 3555 4637 
Q 3966 4525 4313 4306 
L 4313 3634 
Q 3963 3931 3569 4081 
Q 3175 4231 2741 4231 
Q 1884 4231 1454 3753 
Q 1025 3275 1025 2328 
Q 1025 1384 1454 906 
Q 1884 428 2741 428 
Q 3075 428 3337 486 
Q 3600 544 3809 666 
z
" transform="scale(0.015625)"/>
       <path id="DejaVuSans-6d" d="M 3328 2828 
Q 3544 3216 3844 3400 
Q 4144 3584 4550 3584 
Q 5097 3584 5394 3201 
Q 5691 2819 5691 2113 
L 5691 0 
L 5113 0 
L 5113 2094 
Q 5113 2597 4934 2840 
Q 4756 3084 4391 3084 
Q 3944 3084 3684 2787 
Q 3425 2491 3425 1978 
L 3425 0 
L 2847 0 
L 2847 2094 
Q 2847 2600 2669 2842 
Q 2491 3084 2119 3084 
Q 1678 3084 1418 2786 
Q 1159 2488 1159 1978 
L 1159 0 
L 581 0 
L 581 3500 
L 1159 3500 
L 1159 2956 
Q 1356 3278 1631 3431 
Q 1906 3584 2284 3584 
Q 2666 3584 2933 3390 
Q 3200 3197 3328 2828 
z
" transform="scale(0.015625)"/>
       <path id="DejaVuSans-61" d="M 2194 1759 
Q 1497 1759 1228 1600 
Q 959 1441 959 1056 
Q 959 750 1161 570 
Q 1363 391 1709 391 
Q 2188 391 2477 730 
Q 2766 1069 2766 1631 
L 2766 1759 
L 2194 1759 
z
M 3341 1997 
L 3341 0 
L 2766 0 
L 2766 531 
Q 2569 213 2275 61 
Q 1981 -91 1556 -91 
Q 1019 -91 701 211 
Q 384 513 384 1019 
Q 384 1609 779 1909 
Q 1175 2209 1959 2209 
L 2766 2209 
L 2766 2266 
Q 2766 2663 2505 2880 
Q 2244 3097 1772 3097 
Q 1472 3097 1187 3025 
Q 903 2953 641 2809 
L 641 3341 
Q 956 3463 1253 3523 
Q 1550 3584 1831 3584 
Q 2591 3584 2966 3190 
Q 3341 2797 3341 1997 
z
" transform="scale(0.015625)"/>
       <path id="DejaVuSans-73" d="M 2834 3397 
L 2834 2853 
Q 2591 2978 2328 3040 
Q 2066 3103 1784 3103 
Q 1356 3103 1142 2972 
Q 928 2841 928 2578 
Q 928 2378 1081 2264 
Q 1234 2150 1697 2047 
L 1894 2003 
Q 2506 1872 2764 1633 
Q 3022 1394 3022 966 
Q 3022 478 2636 193 
Q 2250 -91 1575 -91 
Q 1294 -91 989 -36 
Q 684 19 347 128 
L 347 722 
Q 666 556 975 473 
Q 1284 391 1588 391 
Q 1994 391 2212 530 
Q 2431 669 2431 922 
Q 2431 1156 2273 1281 
Q 2116 1406 1581 1522 
L 1381 1569 
Q 847 1681 609 1914 
Q 372 2147 372 2553 
Q 372 3047 722 3315 
Q 1072 3584 1716 3584 
Q 2034 3584 2315 3537 
Q 2597 3491 2834 3397 
z
" transform="scale(0.015625)"/>
      </defs>
      <use xlink:href="#DejaVuSans-47"/>
      <use xlink:href="#DejaVuSans-65" transform="translate(77.490234 0)"/>
      <use xlink:href="#DejaVuSans-6d" transform="translate(139.013672 0)"/>
      <use xlink:href="#DejaVuSans-69" transform="translate(236.425781 0)"/>
      <use xlink:href="#DejaVuSans-64" transform="translate(264.208984 0)"/>
      <use xlink:href="#DejaVuSans-64" transform="translate(327.685547 0)"/>
      <use xlink:href="#DejaVuSans-65" transform="translate(391.162109 0)"/>
      <use xlink:href="#DejaVuSans-6c" transform="translate(452.685547 0)"/>
      <use xlink:href="#DejaVuSans-64" transform="translate(480.46875 0)"/>
      <use xlink:href="#DejaVuSans-65" transform="translate(543.945312 0)"/>
      <use xlink:href="#DejaVuSans-20" transform="translate(605.46875 0)"/>
      <use xlink:href="#DejaVuSans-28" transform="translate(637.255859 0)"/>
      <use xlink:href="#DejaVuSans-61" transform="translate(676.269531 0)"/>
      <use xlink:href="#DejaVuSans-6c" transform="translate(737.548828 0)"/>
      <use xlink:href="#DejaVuSans-6c" transform="translate(765.332031 0)"/>
      <use xlink:href="#DejaVuSans-65" transform="translate(793.115234 0)"/>
      <use xlink:href="#DejaVuSans-20" transform="translate(854.638672 0)"/>
      <use xlink:href="#DejaVuSans-68" transform="translate(886.425781 0)"/>
      <use xlink:href="#DejaVuSans-69" transform="translate(949.804688 0)"/>
      <use xlink:href="#DejaVuSans-76" transform="translate(977.587891 0)"/>
      <use xlink:href="#DejaVuSans-65" transform="translate(1036.767578 0)"/>
      <use xlink:href="#DejaVuSans-73" transform="translate(1098.291016 0)"/>
      <use xlink:href="#DejaVuSans-29" transform="translate(1150.390625 0)"/>
     </g>
    </g>
    <g id="patch_8">
     <path d="M 59.87 234.960312 
L 79.87 234.960312 
L 79.87 227.960312 
L 59.87 227.960312 
z
" style="fill: #808080; fill-opacity: 0.2; stroke: #808080; stroke-opacity: 0.2; stroke-linejoin: miter"/>
    </g>
    <g id="text_19">
     <!-- 2 Std Dev -->
     <g transform="translate(87.87 234.960312) scale(0.1 -0.1)">
      <defs>
       <path id="DejaVuSans-b1" d="M 2944 4013 
L 2944 2803 
L 4684 2803 
L 4684 2272 
L 2944 2272 
L 2944 1063 
L 2419 1063 
L 2419 2272 
L 678 2272 
L 678 2803 
L 2419 2803 
L 2419 4013 
L 2944 4013 
z
M 678 531 
L 4684 531 
L 4684 0 
L 678 0 
L 678 531 
z
" transform="scale(0.015625)"/>
       <path id="DejaVuSans-53" d="M 3425 4513 
L 3425 3897 
Q 3066 4069 2747 4153 
Q 2428 4238 2131 4238 
Q 1616 4238 1336 4038 
Q 1056 3838 1056 3469 
Q 1056 3159 1242 3001 
Q 1428 2844 1947 2747 
L 2328 2669 
Q 3034 2534 3370 2195 
Q 3706 1856 3706 1288 
Q 3706 609 3251 259 
Q 2797 -91 1919 -91 
Q 1588 -91 1214 -16 
Q 841 59 441 206 
L 441 856 
Q 825 641 1194 531 
Q 1563 422 1919 422 
Q 2459 422 2753 634 
Q 3047 847 3047 1241 
Q 3047 1584 2836 1778 
Q 2625 1972 2144 2069 
L 1759 2144 
Q 1053 2284 737 2584 
Q 422 2884 422 3419 
Q 422 4038 858 4394 
Q 1294 4750 2059 4750 
Q 2388 4750 2728 4690 
Q 3069 4631 3425 4513 
z
" transform="scale(0.015625)"/>
       <path id="DejaVuSans-44" d="M 1259 4147 
L 1259 519 
L 2022 519 
Q 2988 519 3436 956 
Q 3884 1394 3884 2338 
Q 3884 3275 3436 3711 
Q 2988 4147 2022 4147 
L 1259 4147 
z
M 628 4666 
L 1925 4666 
Q 3281 4666 3915 4102 
Q 4550 3538 4550 2338 
Q 4550 1131 3912 565 
Q 3275 0 1925 0 
L 628 0 
L 628 4666 
z
" transform="scale(0.015625)"/>
      </defs>
      <use xlink:href="#DejaVuSans-b1"/>
      <use xlink:href="#DejaVuSans-32" transform="translate(83.789062 0)"/>
      <use xlink:href="#DejaVuSans-20" transform="translate(147.412109 0)"/>
      <use xlink:href="#DejaVuSans-53" transform="translate(179.199219 0)"/>
      <use xlink:href="#DejaVuSans-74" transform="translate(242.675781 0)"/>
      <use xlink:href="#DejaVuSans-64" transform="translate(281.884766 0)"/>
      <use xlink:href="#DejaVuSans-20" transform="translate(345.361328 0)"/>
      <use xlink:href="#DejaVuSans-44" transform="translate(377.148438 0)"/>
      <use xlink:href="#DejaVuSans-65" transform="translate(454.150391 0)"/>
      <use xlink:href="#DejaVuSans-76" transform="translate(515.673828 0)"/>
     </g>
    </g>
   </g>
  </g>
 </g>
 <defs>
  <clipPath id="p65ac9877c0">
   <rect x="50.87" y="26.88" width="658.33" height="219.16"/>
  </clipPath>
 </defs>
</svg>
