<?xml version="1.0" encoding="utf-8" standalone="no"?>
<!DOCTYPE svg PUBLIC "-//W3C//DTD SVG 1.1//EN"
  "http://www.w3.org/Graphics/SVG/1.1/DTD/svg11.dtd">
<svg xmlns:xlink="http://www.w3.org/1999/xlink" width="720pt" height="288pt" viewBox="0 0 720 288" xmlns="http://www.w3.org/2000/svg" version="1.1">
 <metadata>
  <rdf:RDF xmlns:dc="http://purl.org/dc/elements/1.1/" xmlns:cc="http://creativecommons.org/ns#" xmlns:rdf="http://www.w3.org/1999/02/22-rdf-syntax-ns#">
   <cc:Work>
    <dc:type rdf:resource="http://purl.org/dc/dcmitype/StillImage"/>
    <dc:date>2025-06-16T17:15:04.281749</dc:date>
    <dc:format>image/svg+xml</dc:format>
    <dc:creator>
     <cc:Agent>
      <dc:title>Matplotlib v3.10.3, https://matplotlib.org/</dc:title>
     </cc:Agent>
    </dc:creator>
   </cc:Work>
  </rdf:RDF>
 </metadata>
 <defs>
  <style type="text/css">*{stroke-linejoin: round; stroke-linecap: butt}</style>
 </defs>
 <g id="figure_1">
  <g id="patch_1">
   <path d="M 0 288 
L 720 288 
L 720 0 
L 0 0 
z
" style="fill: #ffffff"/>
  </g>
  <g id="axes_1">
   <g id="patch_2">
    <path d="M 65.45 246.04 
L 709.2 246.04 
L 709.2 26.88 
L 65.45 26.88 
z
" style="fill: #ffffff"/>
   </g>
   <g id="FillBetweenPolyCollection_1">
    <defs>
     <path id="m838c41d5bd" d="M 94.711364 -143.256642 
L 94.711364 -84.932187 
L 98.133745 -88.65 
L 101.556127 -89.724626 
L 104.978509 -92.974124 
L 108.40089 -89.427575 
L 111.823272 -93.990509 
L 115.245654 -95.638451 
L 118.668036 -96.573803 
L 122.090417 -93.990862 
L 125.512799 -95.30227 
L 128.935181 -96.641823 
L 132.357562 -93.584347 
L 135.779944 -93.060395 
L 139.202326 -93.037797 
L 142.624708 -93.539863 
L 146.047089 -92.861871 
L 149.469471 -92.790832 
L 152.891853 -93.882973 
L 156.314234 -89.518201 
L 159.736616 -89.830231 
L 163.158998 -93.23306 
L 166.58138 -84.032137 
L 170.003761 -96.088913 
L 173.426143 -95.165347 
L 176.848525 -87.108284 
L 180.270906 -90.153986 
L 183.693288 -84.032324 
L 187.11567 -94.606393 
L 190.538052 -93.647566 
L 193.960433 -98.286724 
L 197.382815 -99.56515 
L 200.805197 -87.158227 
L 204.227578 -88.367033 
L 207.64996 -93.163083 
L 211.072342 -84.778094 
L 214.494724 -92.229096 
L 217.917105 -89.686641 
L 221.339487 -101.799458 
L 224.761869 -95.170422 
L 228.18425 -91.950068 
L 231.606632 -98.11178 
L 235.029014 -91.697562 
L 238.451396 -92.19196 
L 241.873777 -92.431592 
L 245.296159 -96.025726 
L 248.718541 -94.452642 
L 252.140922 -93.350152 
L 255.563304 -94.750806 
L 258.985686 -93.149447 
L 262.408068 -92.213517 
L 265.830449 -94.689895 
L 269.252831 -84.427031 
L 272.675213 -85.748721 
L 276.097594 -85.642351 
L 279.519976 -85.921521 
L 282.942358 -96.877787 
L 286.36474 -96.915118 
L 289.787121 -97.052348 
L 293.209503 -99.701665 
L 296.631885 -96.780066 
L 300.054266 -95.550752 
L 303.476648 -94.889805 
L 306.89903 -96.06002 
L 310.321411 -99.667244 
L 313.743793 -101.635818 
L 317.166175 -104.149141 
L 320.588557 -105.128987 
L 324.010938 -106.464256 
L 327.43332 -106.031407 
L 330.855702 -106.55149 
L 334.278083 -114.322492 
L 337.700465 -117.930738 
L 341.122847 -107.316148 
L 344.545229 -103.681757 
L 347.96761 -106.590302 
L 351.389992 -109.898776 
L 354.812374 -110.710598 
L 358.234755 -106.063128 
L 361.657137 -101.257825 
L 365.079519 -102.053546 
L 368.501901 -105.589734 
L 371.924282 -109.632983 
L 375.346664 -113.045683 
L 378.769046 -108.654394 
L 382.191427 -109.370786 
L 385.613809 -83.579994 
L 389.036191 -51.921818 
L 392.458573 -112.604337 
L 395.880954 -101.773304 
L 399.303336 -101.484217 
L 402.725718 -105.041974 
L 406.148099 -103.551202 
L 409.570481 -105.839878 
L 412.992863 -106.953993 
L 416.415245 -101.615056 
L 419.837626 -107.307069 
L 423.260008 -105.653026 
L 426.68239 -103.42116 
L 430.104771 -106.327322 
L 433.527153 -109.816293 
L 436.949535 -111.025175 
L 440.371917 -110.796245 
L 443.794298 -105.00949 
L 447.21668 -109.615112 
L 450.639062 -106.638022 
L 454.061443 -109.35482 
L 457.483825 -107.757309 
L 460.906207 -110.269711 
L 464.328589 -108.2007 
L 467.75097 -107.29879 
L 471.173352 -107.111126 
L 474.595734 -108.322776 
L 478.018115 -106.270548 
L 481.440497 -107.834052 
L 484.862879 -108.431037 
L 488.285261 -107.189391 
L 491.707642 -102.196485 
L 495.130024 -96.897395 
L 498.552406 -101.253035 
L 501.974787 -112.695663 
L 505.397169 -112.519069 
L 508.819551 -99.86064 
L 512.241932 -105.692566 
L 515.664314 -104.757944 
L 519.086696 -109.465649 
L 522.509078 -106.975186 
L 525.931459 -101.074916 
L 529.353841 -97.002252 
L 532.776223 -108.002423 
L 536.198604 -110.9621 
L 539.620986 -105.039446 
L 543.043368 -108.609036 
L 546.46575 -111.819144 
L 549.888131 -118.778498 
L 553.310513 -119.501141 
L 556.732895 -111.115908 
L 560.155276 -111.424603 
L 563.577658 -103.490915 
L 567.00004 -100.710955 
L 570.422422 -98.35642 
L 573.844803 -100.538208 
L 577.267185 -108.983757 
L 580.689567 -107.025812 
L 584.111948 -97.409038 
L 587.53433 -98.89267 
L 590.956712 -100.966318 
L 594.379094 -106.579857 
L 597.801475 -107.150165 
L 601.223857 -104.10722 
L 604.646239 -113.605671 
L 604.646239 -133.773469 
L 604.646239 -133.773469 
L 601.223857 -152.014678 
L 597.801475 -146.020542 
L 594.379094 -155.189509 
L 590.956712 -156.51412 
L 587.53433 -158.898658 
L 584.111948 -162.835754 
L 580.689567 -150.833406 
L 577.267185 -144.130974 
L 573.844803 -161.365046 
L 570.422422 -171.324395 
L 567.00004 -180.577578 
L 563.577658 -171.321865 
L 560.155276 -164.853749 
L 556.732895 -165.238087 
L 553.310513 -171.685212 
L 549.888131 -174.815177 
L 546.46575 -183.863398 
L 543.043368 -184.767923 
L 539.620986 -195.734971 
L 536.198604 -186.060449 
L 532.776223 -185.654792 
L 529.353841 -198.959412 
L 525.931459 -194.085694 
L 522.509078 -184.501256 
L 519.086696 -172.765012 
L 515.664314 -186.475685 
L 512.241932 -190.555404 
L 508.819551 -195.903974 
L 505.397169 -182.135114 
L 501.974787 -181.065561 
L 498.552406 -185.697716 
L 495.130024 -193.991305 
L 491.707642 -180.906333 
L 488.285261 -175.632037 
L 484.862879 -171.829137 
L 481.440497 -166.572527 
L 478.018115 -154.561608 
L 474.595734 -148.339966 
L 471.173352 -144.296733 
L 467.75097 -141.554621 
L 464.328589 -140.299461 
L 460.906207 -137.126827 
L 457.483825 -139.416839 
L 454.061443 -139.464553 
L 450.639062 -143.921884 
L 447.21668 -143.094553 
L 443.794298 -155.714498 
L 440.371917 -143.597223 
L 436.949535 -142.789249 
L 433.527153 -142.579456 
L 430.104771 -142.916027 
L 426.68239 -148.943954 
L 423.260008 -143.096756 
L 419.837626 -146.926793 
L 416.415245 -153.069635 
L 412.992863 -145.032152 
L 409.570481 -156.709363 
L 406.148099 -155.269242 
L 402.725718 -153.070078 
L 399.303336 -159.447788 
L 395.880954 -154.784673 
L 392.458573 -148.272449 
L 389.036191 -251.158182 
L 385.613809 -201.470618 
L 382.191427 -168.814135 
L 378.769046 -171.554343 
L 375.346664 -159.67596 
L 371.924282 -159.792917 
L 368.501901 -166.128511 
L 365.079519 -168.805779 
L 361.657137 -173.26184 
L 358.234755 -159.773913 
L 354.812374 -161.116951 
L 351.389992 -157.290375 
L 347.96761 -162.764494 
L 344.545229 -160.68782 
L 341.122847 -155.123411 
L 337.700465 -145.017895 
L 334.278083 -148.194601 
L 330.855702 -153.880517 
L 327.43332 -150.110915 
L 324.010938 -149.572166 
L 320.588557 -152.716047 
L 317.166175 -148.492321 
L 313.743793 -136.921516 
L 310.321411 -134.306533 
L 306.89903 -134.568847 
L 303.476648 -138.863096 
L 300.054266 -135.698383 
L 296.631885 -136.072689 
L 293.209503 -135.585266 
L 289.787121 -138.948648 
L 286.36474 -137.730364 
L 282.942358 -139.996879 
L 279.519976 -142.262674 
L 276.097594 -142.142736 
L 272.675213 -144.918155 
L 269.252831 -141.291361 
L 265.830449 -137.455603 
L 262.408068 -140.390753 
L 258.985686 -136.173452 
L 255.563304 -138.328499 
L 252.140922 -142.071422 
L 248.718541 -142.67694 
L 245.296159 -143.261936 
L 241.873777 -141.618332 
L 238.451396 -144.251167 
L 235.029014 -144.739513 
L 231.606632 -139.885043 
L 228.18425 -154.224906 
L 224.761869 -152.443965 
L 221.339487 -132.226639 
L 217.917105 -155.364978 
L 214.494724 -142.961012 
L 211.072342 -170.579689 
L 207.64996 -150.698681 
L 204.227578 -163.714044 
L 200.805197 -164.544637 
L 197.382815 -142.550029 
L 193.960433 -149.414968 
L 190.538052 -152.381355 
L 187.11567 -154.406624 
L 183.693288 -160.992443 
L 180.270906 -159.312129 
L 176.848525 -164.528015 
L 173.426143 -149.386276 
L 170.003761 -147.96536 
L 166.58138 -155.732829 
L 163.158998 -134.747941 
L 159.736616 -145.217291 
L 156.314234 -146.290536 
L 152.891853 -134.231726 
L 149.469471 -134.48329 
L 146.047089 -128.478854 
L 142.624708 -126.269858 
L 139.202326 -128.215183 
L 135.779944 -126.430871 
L 132.357562 -124.965927 
L 128.935181 -124.707222 
L 125.512799 -125.381121 
L 122.090417 -129.241681 
L 118.668036 -124.782051 
L 115.245654 -125.475347 
L 111.823272 -127.518268 
L 108.40089 -134.917544 
L 104.978509 -139.875984 
L 101.556127 -137.074461 
L 98.133745 -138.431296 
L 94.711364 -143.256642 
z
" style="stroke: #808080; stroke-opacity: 0.2"/>
    </defs>
    <g clip-path="url(#pe10d3b6261)">
     <use xlink:href="#m838c41d5bd" x="0" y="288" style="fill: #808080; fill-opacity: 0.2; stroke: #808080; stroke-opacity: 0.2"/>
    </g>
   </g>
   <g id="matplotlib.axis_1">
    <g id="xtick_1">
     <g id="line2d_1">
      <defs>
       <path id="m7184368210" d="M 0 0 
L 0 3.5 
" style="stroke: #000000; stroke-width: 0.8"/>
      </defs>
      <g>
       <use xlink:href="#m7184368210" x="142.624708" y="246.04" style="stroke: #000000; stroke-width: 0.8"/>
      </g>
     </g>
     <g id="text_1">
      <!-- 06-14 00 -->
      <g transform="translate(120.144239 260.638438) scale(0.1 -0.1)">
       <defs>
        <path id="DejaVuSans-30" d="M 2034 4250 
Q 1547 4250 1301 3770 
Q 1056 3291 1056 2328 
Q 1056 1369 1301 889 
Q 1547 409 2034 409 
Q 2525 409 2770 889 
Q 3016 1369 3016 2328 
Q 3016 3291 2770 3770 
Q 2525 4250 2034 4250 
z
M 2034 4750 
Q 2819 4750 3233 4129 
Q 3647 3509 3647 2328 
Q 3647 1150 3233 529 
Q 2819 -91 2034 -91 
Q 1250 -91 836 529 
Q 422 1150 422 2328 
Q 422 3509 836 4129 
Q 1250 4750 2034 4750 
z
" transform="scale(0.015625)"/>
        <path id="DejaVuSans-36" d="M 2113 2584 
Q 1688 2584 1439 2293 
Q 1191 2003 1191 1497 
Q 1191 994 1439 701 
Q 1688 409 2113 409 
Q 2538 409 2786 701 
Q 3034 994 3034 1497 
Q 3034 2003 2786 2293 
Q 2538 2584 2113 2584 
z
M 3366 4563 
L 3366 3988 
Q 3128 4100 2886 4159 
Q 2644 4219 2406 4219 
Q 1781 4219 1451 3797 
Q 1122 3375 1075 2522 
Q 1259 2794 1537 2939 
Q 1816 3084 2150 3084 
Q 2853 3084 3261 2657 
Q 3669 2231 3669 1497 
Q 3669 778 3244 343 
Q 2819 -91 2113 -91 
Q 1303 -91 875 529 
Q 447 1150 447 2328 
Q 447 3434 972 4092 
Q 1497 4750 2381 4750 
Q 2619 4750 2861 4703 
Q 3103 4656 3366 4563 
z
" transform="scale(0.015625)"/>
        <path id="DejaVuSans-2d" d="M 313 2009 
L 1997 2009 
L 1997 1497 
L 313 1497 
L 313 2009 
z
" transform="scale(0.015625)"/>
        <path id="DejaVuSans-31" d="M 794 531 
L 1825 531 
L 1825 4091 
L 703 3866 
L 703 4441 
L 1819 4666 
L 2450 4666 
L 2450 531 
L 3481 531 
L 3481 0 
L 794 0 
L 794 531 
z
" transform="scale(0.015625)"/>
        <path id="DejaVuSans-34" d="M 2419 4116 
L 825 1625 
L 2419 1625 
L 2419 4116 
z
M 2253 4666 
L 3047 4666 
L 3047 1625 
L 3713 1625 
L 3713 1100 
L 3047 1100 
L 3047 0 
L 2419 0 
L 2419 1100 
L 313 1100 
L 313 1709 
L 2253 4666 
z
" transform="scale(0.015625)"/>
        <path id="DejaVuSans-20" transform="scale(0.015625)"/>
       </defs>
       <use xlink:href="#DejaVuSans-30"/>
       <use xlink:href="#DejaVuSans-36" transform="translate(63.623047 0)"/>
       <use xlink:href="#DejaVuSans-2d" transform="translate(127.246094 0)"/>
       <use xlink:href="#DejaVuSans-31" transform="translate(163.330078 0)"/>
       <use xlink:href="#DejaVuSans-34" transform="translate(226.953125 0)"/>
       <use xlink:href="#DejaVuSans-20" transform="translate(290.576172 0)"/>
       <use xlink:href="#DejaVuSans-30" transform="translate(322.363281 0)"/>
       <use xlink:href="#DejaVuSans-30" transform="translate(385.986328 0)"/>
      </g>
     </g>
    </g>
    <g id="xtick_2">
     <g id="line2d_2">
      <g>
       <use xlink:href="#m7184368210" x="224.761869" y="246.04" style="stroke: #000000; stroke-width: 0.8"/>
      </g>
     </g>
     <g id="text_2">
      <!-- 06-14 12 -->
      <g transform="translate(202.2814 260.638438) scale(0.1 -0.1)">
       <defs>
        <path id="DejaVuSans-32" d="M 1228 531 
L 3431 531 
L 3431 0 
L 469 0 
L 469 531 
Q 828 903 1448 1529 
Q 2069 2156 2228 2338 
Q 2531 2678 2651 2914 
Q 2772 3150 2772 3378 
Q 2772 3750 2511 3984 
Q 2250 4219 1831 4219 
Q 1534 4219 1204 4116 
Q 875 4013 500 3803 
L 500 4441 
Q 881 4594 1212 4672 
Q 1544 4750 1819 4750 
Q 2544 4750 2975 4387 
Q 3406 4025 3406 3419 
Q 3406 3131 3298 2873 
Q 3191 2616 2906 2266 
Q 2828 2175 2409 1742 
Q 1991 1309 1228 531 
z
" transform="scale(0.015625)"/>
       </defs>
       <use xlink:href="#DejaVuSans-30"/>
       <use xlink:href="#DejaVuSans-36" transform="translate(63.623047 0)"/>
       <use xlink:href="#DejaVuSans-2d" transform="translate(127.246094 0)"/>
       <use xlink:href="#DejaVuSans-31" transform="translate(163.330078 0)"/>
       <use xlink:href="#DejaVuSans-34" transform="translate(226.953125 0)"/>
       <use xlink:href="#DejaVuSans-20" transform="translate(290.576172 0)"/>
       <use xlink:href="#DejaVuSans-31" transform="translate(322.363281 0)"/>
       <use xlink:href="#DejaVuSans-32" transform="translate(385.986328 0)"/>
      </g>
     </g>
    </g>
    <g id="xtick_3">
     <g id="line2d_3">
      <g>
       <use xlink:href="#m7184368210" x="306.89903" y="246.04" style="stroke: #000000; stroke-width: 0.8"/>
      </g>
     </g>
     <g id="text_3">
      <!-- 06-15 00 -->
      <g transform="translate(284.418561 260.638438) scale(0.1 -0.1)">
       <defs>
        <path id="DejaVuSans-35" d="M 691 4666 
L 3169 4666 
L 3169 4134 
L 1269 4134 
L 1269 2991 
Q 1406 3038 1543 3061 
Q 1681 3084 1819 3084 
Q 2600 3084 3056 2656 
Q 3513 2228 3513 1497 
Q 3513 744 3044 326 
Q 2575 -91 1722 -91 
Q 1428 -91 1123 -41 
Q 819 9 494 109 
L 494 744 
Q 775 591 1075 516 
Q 1375 441 1709 441 
Q 2250 441 2565 725 
Q 2881 1009 2881 1497 
Q 2881 1984 2565 2268 
Q 2250 2553 1709 2553 
Q 1456 2553 1204 2497 
Q 953 2441 691 2322 
L 691 4666 
z
" transform="scale(0.015625)"/>
       </defs>
       <use xlink:href="#DejaVuSans-30"/>
       <use xlink:href="#DejaVuSans-36" transform="translate(63.623047 0)"/>
       <use xlink:href="#DejaVuSans-2d" transform="translate(127.246094 0)"/>
       <use xlink:href="#DejaVuSans-31" transform="translate(163.330078 0)"/>
       <use xlink:href="#DejaVuSans-35" transform="translate(226.953125 0)"/>
       <use xlink:href="#DejaVuSans-20" transform="translate(290.576172 0)"/>
       <use xlink:href="#DejaVuSans-30" transform="translate(322.363281 0)"/>
       <use xlink:href="#DejaVuSans-30" transform="translate(385.986328 0)"/>
      </g>
     </g>
    </g>
    <g id="xtick_4">
     <g id="line2d_4">
      <g>
       <use xlink:href="#m7184368210" x="389.036191" y="246.04" style="stroke: #000000; stroke-width: 0.8"/>
      </g>
     </g>
     <g id="text_4">
      <!-- 06-15 12 -->
      <g transform="translate(366.555722 260.638438) scale(0.1 -0.1)">
       <use xlink:href="#DejaVuSans-30"/>
       <use xlink:href="#DejaVuSans-36" transform="translate(63.623047 0)"/>
       <use xlink:href="#DejaVuSans-2d" transform="translate(127.246094 0)"/>
       <use xlink:href="#DejaVuSans-31" transform="translate(163.330078 0)"/>
       <use xlink:href="#DejaVuSans-35" transform="translate(226.953125 0)"/>
       <use xlink:href="#DejaVuSans-20" transform="translate(290.576172 0)"/>
       <use xlink:href="#DejaVuSans-31" transform="translate(322.363281 0)"/>
       <use xlink:href="#DejaVuSans-32" transform="translate(385.986328 0)"/>
      </g>
     </g>
    </g>
    <g id="xtick_5">
     <g id="line2d_5">
      <g>
       <use xlink:href="#m7184368210" x="471.173352" y="246.04" style="stroke: #000000; stroke-width: 0.8"/>
      </g>
     </g>
     <g id="text_5">
      <!-- 06-16 00 -->
      <g transform="translate(448.692883 260.638438) scale(0.1 -0.1)">
       <use xlink:href="#DejaVuSans-30"/>
       <use xlink:href="#DejaVuSans-36" transform="translate(63.623047 0)"/>
       <use xlink:href="#DejaVuSans-2d" transform="translate(127.246094 0)"/>
       <use xlink:href="#DejaVuSans-31" transform="translate(163.330078 0)"/>
       <use xlink:href="#DejaVuSans-36" transform="translate(226.953125 0)"/>
       <use xlink:href="#DejaVuSans-20" transform="translate(290.576172 0)"/>
       <use xlink:href="#DejaVuSans-30" transform="translate(322.363281 0)"/>
       <use xlink:href="#DejaVuSans-30" transform="translate(385.986328 0)"/>
      </g>
     </g>
    </g>
    <g id="xtick_6">
     <g id="line2d_6">
      <g>
       <use xlink:href="#m7184368210" x="553.310513" y="246.04" style="stroke: #000000; stroke-width: 0.8"/>
      </g>
     </g>
     <g id="text_6">
      <!-- 06-16 12 -->
      <g transform="translate(530.830044 260.638438) scale(0.1 -0.1)">
       <use xlink:href="#DejaVuSans-30"/>
       <use xlink:href="#DejaVuSans-36" transform="translate(63.623047 0)"/>
       <use xlink:href="#DejaVuSans-2d" transform="translate(127.246094 0)"/>
       <use xlink:href="#DejaVuSans-31" transform="translate(163.330078 0)"/>
       <use xlink:href="#DejaVuSans-36" transform="translate(226.953125 0)"/>
       <use xlink:href="#DejaVuSans-20" transform="translate(290.576172 0)"/>
       <use xlink:href="#DejaVuSans-31" transform="translate(322.363281 0)"/>
       <use xlink:href="#DejaVuSans-32" transform="translate(385.986328 0)"/>
      </g>
     </g>
    </g>
    <g id="xtick_7">
     <g id="line2d_7">
      <g>
       <use xlink:href="#m7184368210" x="635.447674" y="246.04" style="stroke: #000000; stroke-width: 0.8"/>
      </g>
     </g>
     <g id="text_7">
      <!-- 06-17 00 -->
      <g transform="translate(612.967205 260.638438) scale(0.1 -0.1)">
       <defs>
        <path id="DejaVuSans-37" d="M 525 4666 
L 3525 4666 
L 3525 4397 
L 1831 0 
L 1172 0 
L 2766 4134 
L 525 4134 
L 525 4666 
z
" transform="scale(0.015625)"/>
       </defs>
       <use xlink:href="#DejaVuSans-30"/>
       <use xlink:href="#DejaVuSans-36" transform="translate(63.623047 0)"/>
       <use xlink:href="#DejaVuSans-2d" transform="translate(127.246094 0)"/>
       <use xlink:href="#DejaVuSans-31" transform="translate(163.330078 0)"/>
       <use xlink:href="#DejaVuSans-37" transform="translate(226.953125 0)"/>
       <use xlink:href="#DejaVuSans-20" transform="translate(290.576172 0)"/>
       <use xlink:href="#DejaVuSans-30" transform="translate(322.363281 0)"/>
       <use xlink:href="#DejaVuSans-30" transform="translate(385.986328 0)"/>
      </g>
     </g>
    </g>
    <g id="text_8">
     <!-- Tijd -->
     <g transform="translate(378.475 274.316562) scale(0.1 -0.1)">
      <defs>
       <path id="DejaVuSans-54" d="M -19 4666 
L 3928 4666 
L 3928 4134 
L 2272 4134 
L 2272 0 
L 1638 0 
L 1638 4134 
L -19 4134 
L -19 4666 
z
" transform="scale(0.015625)"/>
       <path id="DejaVuSans-69" d="M 603 3500 
L 1178 3500 
L 1178 0 
L 603 0 
L 603 3500 
z
M 603 4863 
L 1178 4863 
L 1178 4134 
L 603 4134 
L 603 4863 
z
" transform="scale(0.015625)"/>
       <path id="DejaVuSans-6a" d="M 603 3500 
L 1178 3500 
L 1178 -63 
Q 1178 -731 923 -1031 
Q 669 -1331 103 -1331 
L -116 -1331 
L -116 -844 
L 38 -844 
Q 366 -844 484 -692 
Q 603 -541 603 -63 
L 603 3500 
z
M 603 4863 
L 1178 4863 
L 1178 4134 
L 603 4134 
L 603 4863 
z
" transform="scale(0.015625)"/>
       <path id="DejaVuSans-64" d="M 2906 2969 
L 2906 4863 
L 3481 4863 
L 3481 0 
L 2906 0 
L 2906 525 
Q 2725 213 2448 61 
Q 2172 -91 1784 -91 
Q 1150 -91 751 415 
Q 353 922 353 1747 
Q 353 2572 751 3078 
Q 1150 3584 1784 3584 
Q 2172 3584 2448 3432 
Q 2725 3281 2906 2969 
z
M 947 1747 
Q 947 1113 1208 752 
Q 1469 391 1925 391 
Q 2381 391 2643 752 
Q 2906 1113 2906 1747 
Q 2906 2381 2643 2742 
Q 2381 3103 1925 3103 
Q 1469 3103 1208 2742 
Q 947 2381 947 1747 
z
" transform="scale(0.015625)"/>
      </defs>
      <use xlink:href="#DejaVuSans-54"/>
      <use xlink:href="#DejaVuSans-69" transform="translate(57.958984 0)"/>
      <use xlink:href="#DejaVuSans-6a" transform="translate(85.742188 0)"/>
      <use xlink:href="#DejaVuSans-64" transform="translate(113.525391 0)"/>
     </g>
    </g>
   </g>
   <g id="matplotlib.axis_2">
    <g id="ytick_1">
     <g id="line2d_8">
      <defs>
       <path id="mf820c6826e" d="M 0 0 
L -3.5 0 
" style="stroke: #000000; stroke-width: 0.8"/>
      </defs>
      <g>
       <use xlink:href="#mf820c6826e" x="65.45" y="241.010781" style="stroke: #000000; stroke-width: 0.8"/>
      </g>
     </g>
     <g id="text_9">
      <!-- −5000 -->
      <g transform="translate(24.620313 244.81) scale(0.1 -0.1)">
       <defs>
        <path id="DejaVuSans-2212" d="M 678 2272 
L 4684 2272 
L 4684 1741 
L 678 1741 
L 678 2272 
z
" transform="scale(0.015625)"/>
       </defs>
       <use xlink:href="#DejaVuSans-2212"/>
       <use xlink:href="#DejaVuSans-35" transform="translate(83.789062 0)"/>
       <use xlink:href="#DejaVuSans-30" transform="translate(147.412109 0)"/>
       <use xlink:href="#DejaVuSans-30" transform="translate(211.035156 0)"/>
       <use xlink:href="#DejaVuSans-30" transform="translate(274.658203 0)"/>
      </g>
     </g>
    </g>
    <g id="ytick_2">
     <g id="line2d_9">
      <g>
       <use xlink:href="#mf820c6826e" x="65.45" y="201.298474" style="stroke: #000000; stroke-width: 0.8"/>
      </g>
     </g>
     <g id="text_10">
      <!-- 0 -->
      <g transform="translate(52.0875 205.097692) scale(0.1 -0.1)">
       <use xlink:href="#DejaVuSans-30"/>
      </g>
     </g>
    </g>
    <g id="ytick_3">
     <g id="line2d_10">
      <g>
       <use xlink:href="#mf820c6826e" x="65.45" y="161.586166" style="stroke: #000000; stroke-width: 0.8"/>
      </g>
     </g>
     <g id="text_11">
      <!-- 5000 -->
      <g transform="translate(33 165.385385) scale(0.1 -0.1)">
       <use xlink:href="#DejaVuSans-35"/>
       <use xlink:href="#DejaVuSans-30" transform="translate(63.623047 0)"/>
       <use xlink:href="#DejaVuSans-30" transform="translate(127.246094 0)"/>
       <use xlink:href="#DejaVuSans-30" transform="translate(190.869141 0)"/>
      </g>
     </g>
    </g>
    <g id="ytick_4">
     <g id="line2d_11">
      <g>
       <use xlink:href="#mf820c6826e" x="65.45" y="121.873859" style="stroke: #000000; stroke-width: 0.8"/>
      </g>
     </g>
     <g id="text_12">
      <!-- 10000 -->
      <g transform="translate(26.6375 125.673077) scale(0.1 -0.1)">
       <use xlink:href="#DejaVuSans-31"/>
       <use xlink:href="#DejaVuSans-30" transform="translate(63.623047 0)"/>
       <use xlink:href="#DejaVuSans-30" transform="translate(127.246094 0)"/>
       <use xlink:href="#DejaVuSans-30" transform="translate(190.869141 0)"/>
       <use xlink:href="#DejaVuSans-30" transform="translate(254.492188 0)"/>
      </g>
     </g>
    </g>
    <g id="ytick_5">
     <g id="line2d_12">
      <g>
       <use xlink:href="#mf820c6826e" x="65.45" y="82.161551" style="stroke: #000000; stroke-width: 0.8"/>
      </g>
     </g>
     <g id="text_13">
      <!-- 15000 -->
      <g transform="translate(26.6375 85.96077) scale(0.1 -0.1)">
       <use xlink:href="#DejaVuSans-31"/>
       <use xlink:href="#DejaVuSans-35" transform="translate(63.623047 0)"/>
       <use xlink:href="#DejaVuSans-30" transform="translate(127.246094 0)"/>
       <use xlink:href="#DejaVuSans-30" transform="translate(190.869141 0)"/>
       <use xlink:href="#DejaVuSans-30" transform="translate(254.492188 0)"/>
      </g>
     </g>
    </g>
    <g id="ytick_6">
     <g id="line2d_13">
      <g>
       <use xlink:href="#mf820c6826e" x="65.45" y="42.449244" style="stroke: #000000; stroke-width: 0.8"/>
      </g>
     </g>
     <g id="text_14">
      <!-- 20000 -->
      <g transform="translate(26.6375 46.248462) scale(0.1 -0.1)">
       <use xlink:href="#DejaVuSans-32"/>
       <use xlink:href="#DejaVuSans-30" transform="translate(63.623047 0)"/>
       <use xlink:href="#DejaVuSans-30" transform="translate(127.246094 0)"/>
       <use xlink:href="#DejaVuSans-30" transform="translate(190.869141 0)"/>
       <use xlink:href="#DejaVuSans-30" transform="translate(254.492188 0)"/>
      </g>
     </g>
    </g>
    <g id="text_15">
     <!-- CO2 (PPM) -->
     <g transform="translate(18.540625 162.902969) rotate(-90) scale(0.1 -0.1)">
      <defs>
       <path id="DejaVuSans-43" d="M 4122 4306 
L 4122 3641 
Q 3803 3938 3442 4084 
Q 3081 4231 2675 4231 
Q 1875 4231 1450 3742 
Q 1025 3253 1025 2328 
Q 1025 1406 1450 917 
Q 1875 428 2675 428 
Q 3081 428 3442 575 
Q 3803 722 4122 1019 
L 4122 359 
Q 3791 134 3420 21 
Q 3050 -91 2638 -91 
Q 1578 -91 968 557 
Q 359 1206 359 2328 
Q 359 3453 968 4101 
Q 1578 4750 2638 4750 
Q 3056 4750 3426 4639 
Q 3797 4528 4122 4306 
z
" transform="scale(0.015625)"/>
       <path id="DejaVuSans-4f" d="M 2522 4238 
Q 1834 4238 1429 3725 
Q 1025 3213 1025 2328 
Q 1025 1447 1429 934 
Q 1834 422 2522 422 
Q 3209 422 3611 934 
Q 4013 1447 4013 2328 
Q 4013 3213 3611 3725 
Q 3209 4238 2522 4238 
z
M 2522 4750 
Q 3503 4750 4090 4092 
Q 4678 3434 4678 2328 
Q 4678 1225 4090 567 
Q 3503 -91 2522 -91 
Q 1538 -91 948 565 
Q 359 1222 359 2328 
Q 359 3434 948 4092 
Q 1538 4750 2522 4750 
z
" transform="scale(0.015625)"/>
       <path id="DejaVuSans-28" d="M 1984 4856 
Q 1566 4138 1362 3434 
Q 1159 2731 1159 2009 
Q 1159 1288 1364 580 
Q 1569 -128 1984 -844 
L 1484 -844 
Q 1016 -109 783 600 
Q 550 1309 550 2009 
Q 550 2706 781 3412 
Q 1013 4119 1484 4856 
L 1984 4856 
z
" transform="scale(0.015625)"/>
       <path id="DejaVuSans-50" d="M 1259 4147 
L 1259 2394 
L 2053 2394 
Q 2494 2394 2734 2622 
Q 2975 2850 2975 3272 
Q 2975 3691 2734 3919 
Q 2494 4147 2053 4147 
L 1259 4147 
z
M 628 4666 
L 2053 4666 
Q 2838 4666 3239 4311 
Q 3641 3956 3641 3272 
Q 3641 2581 3239 2228 
Q 2838 1875 2053 1875 
L 1259 1875 
L 1259 0 
L 628 0 
L 628 4666 
z
" transform="scale(0.015625)"/>
       <path id="DejaVuSans-4d" d="M 628 4666 
L 1569 4666 
L 2759 1491 
L 3956 4666 
L 4897 4666 
L 4897 0 
L 4281 0 
L 4281 4097 
L 3078 897 
L 2444 897 
L 1241 4097 
L 1241 0 
L 628 0 
L 628 4666 
z
" transform="scale(0.015625)"/>
       <path id="DejaVuSans-29" d="M 513 4856 
L 1013 4856 
Q 1481 4119 1714 3412 
Q 1947 2706 1947 2009 
Q 1947 1309 1714 600 
Q 1481 -109 1013 -844 
L 513 -844 
Q 928 -128 1133 580 
Q 1338 1288 1338 2009 
Q 1338 2731 1133 3434 
Q 928 4138 513 4856 
z
" transform="scale(0.015625)"/>
      </defs>
      <use xlink:href="#DejaVuSans-43"/>
      <use xlink:href="#DejaVuSans-4f" transform="translate(69.824219 0)"/>
      <use xlink:href="#DejaVuSans-32" transform="translate(148.535156 0)"/>
      <use xlink:href="#DejaVuSans-20" transform="translate(212.158203 0)"/>
      <use xlink:href="#DejaVuSans-28" transform="translate(243.945312 0)"/>
      <use xlink:href="#DejaVuSans-50" transform="translate(282.958984 0)"/>
      <use xlink:href="#DejaVuSans-50" transform="translate(343.261719 0)"/>
      <use xlink:href="#DejaVuSans-4d" transform="translate(403.564453 0)"/>
      <use xlink:href="#DejaVuSans-29" transform="translate(489.84375 0)"/>
     </g>
    </g>
   </g>
   <g id="line2d_14">
    <path d="M 94.711364 187.526245 
L 98.133745 187.55272 
L 101.556127 187.920721 
L 104.978509 188.593183 
L 108.40089 187.04705 
L 111.823272 188.436981 
L 115.245654 189.472148 
L 118.668036 189.011486 
L 122.090417 188.767917 
L 125.512799 188.778507 
L 128.935181 186.244862 
L 132.357562 188.309901 
L 135.779944 187.407108 
L 139.202326 186.755827 
L 142.624708 184.804628 
L 146.047089 186.544028 
L 149.469471 184.309548 
L 152.891853 178.551264 
L 156.314234 173.703715 
L 159.736616 173.341009 
L 163.158998 173.330419 
L 166.58138 177.32283 
L 170.003761 174.021413 
L 173.426143 174.26763 
L 176.848525 171.482473 
L 180.270906 168.940885 
L 183.693288 175.31074 
L 187.11567 166.261628 
L 190.538052 169.650412 
L 193.960433 173.716952 
L 197.382815 171.596315 
L 200.805197 166.727586 
L 204.227578 165.340303 
L 207.64996 169.065317 
L 211.072342 172.379971 
L 214.494724 169.833089 
L 217.917105 170.232859 
L 221.339487 165.515037 
L 224.761869 171.519538 
L 228.18425 172.970361 
L 231.606632 175.432524 
L 235.029014 173.404549 
L 238.451396 176.236036 
L 241.873777 179.626144 
L 245.296159 180.791038 
L 248.718541 180.370087 
L 252.140922 183.658267 
L 255.563304 186.189264 
L 262.408068 189.109443 
L 265.830449 185.831854 
L 269.252831 183.292913 
L 272.675213 183.713864 
L 276.097594 185.784199 
L 279.519976 183.541777 
L 282.942358 185.021722 
L 289.787121 184.799334 
L 293.209503 181.291413 
L 296.631885 185.204399 
L 300.054266 187.269439 
L 303.476648 184.57165 
L 306.89903 184.778154 
L 310.321411 181.021369 
L 313.743793 178.580386 
L 317.166175 175.81641 
L 320.588557 164.712848 
L 324.010938 161.501446 
L 327.43332 168.501403 
L 330.855702 167.802466 
L 334.278083 151.337743 
L 337.700465 158.464779 
L 341.122847 161.586166 
L 344.545229 158.544203 
L 347.96761 154.517375 
L 351.389992 159.587313 
L 354.812374 153.551043 
L 358.234755 152.621775 
L 361.657137 150.810893 
L 365.079519 159.507889 
L 368.501901 163.624731 
L 371.924282 165.141741 
L 375.346664 161.411432 
L 378.769046 163.113766 
L 382.191427 156.418271 
L 385.613809 161.170511 
L 389.036191 162.31952 
L 392.458573 159.82294 
L 395.880954 157.824087 
L 399.303336 154.1229 
L 402.725718 159.023398 
L 406.148099 163.640616 
L 409.570481 162.197736 
L 412.992863 166.041887 
L 416.415245 169.48362 
L 419.837626 164.432215 
L 423.260008 168.186352 
L 426.68239 145.597991 
L 430.104771 171.7962 
L 433.527153 167.034695 
L 436.949535 168.345201 
L 440.371917 167.349746 
L 443.794298 168.506697 
L 447.21668 171.577783 
L 450.639062 170.714702 
L 454.061443 170.338759 
L 457.483825 172.755914 
L 460.906207 169.994585 
L 464.328589 169.719247 
L 467.75097 167.622437 
L 471.173352 167.519185 
L 474.595734 160.442452 
L 478.018115 161.181101 
L 481.440497 151.266261 
L 484.862879 138.748942 
L 488.285261 132.588239 
L 491.707642 142.70164 
L 495.130024 128.381382 
L 498.552406 139.577605 
L 501.974787 135.153654 
L 505.397169 131.43923 
L 508.819551 114.050534 
L 512.241932 133.869623 
L 515.664314 140.334787 
L 519.086696 128.074274 
L 522.509078 110.70411 
L 525.931459 115.575487 
L 529.353841 126.448716 
L 532.776223 125.294412 
L 536.198604 119.769106 
L 539.620986 127.348862 
L 543.043368 127.478589 
L 546.46575 128.198705 
L 549.888131 131.039459 
L 553.310513 136.413858 
L 556.732895 144.999659 
L 560.155276 148.674371 
L 563.577658 155.189837 
L 567.00004 156.373264 
L 570.422422 168.784684 
L 573.844803 169.353893 
L 577.267185 166.497255 
L 580.689567 162.549851 
L 584.111948 168.562295 
L 587.53433 168.085747 
L 590.956712 167.243846 
L 594.379094 163.206428 
L 597.801475 167.640969 
L 601.223857 167.741574 
L 604.646239 167.066464 
L 604.646239 167.066464 
" clip-path="url(#pe10d3b6261)" style="fill: none; stroke: #1f77b4; stroke-width: 2; stroke-linecap: square"/>
   </g>
   <g id="line2d_15">
    <path d="M 94.711364 173.905586 
L 98.133745 174.459352 
L 101.556127 174.600457 
L 104.978509 171.574946 
L 108.40089 175.827441 
L 111.823272 177.245611 
L 115.245654 177.443101 
L 118.668036 177.322073 
L 122.090417 176.383728 
L 125.512799 177.658304 
L 128.935181 177.325477 
L 132.357562 178.724863 
L 135.779944 178.254367 
L 139.202326 177.37351 
L 142.624708 178.09514 
L 146.047089 177.329638 
L 149.469471 174.362939 
L 152.891853 173.942651 
L 156.314234 170.095631 
L 159.736616 170.476239 
L 163.158998 174.0095 
L 166.58138 168.117517 
L 170.003761 165.972863 
L 173.426143 165.724188 
L 176.848525 162.181851 
L 180.270906 163.266942 
L 183.693288 165.487617 
L 187.11567 163.493491 
L 190.538052 164.98554 
L 193.960433 164.149154 
L 197.382815 166.942411 
L 200.805197 162.148568 
L 204.227578 161.959462 
L 207.64996 166.069118 
L 211.072342 160.321108 
L 214.494724 170.404946 
L 217.917105 165.47419 
L 221.339487 170.986952 
L 224.761869 164.192806 
L 228.18425 164.912513 
L 231.606632 169.001588 
L 235.029014 169.781463 
L 238.451396 169.778437 
L 241.873777 170.975038 
L 245.296159 168.356169 
L 248.718541 169.435209 
L 252.140922 170.289213 
L 255.563304 171.460348 
L 258.985686 173.338551 
L 262.408068 171.697865 
L 265.830449 171.927251 
L 269.252831 175.140804 
L 272.675213 172.666562 
L 276.097594 174.107457 
L 279.519976 173.907902 
L 282.942358 169.562667 
L 286.36474 170.677259 
L 289.787121 169.999502 
L 293.209503 170.356535 
L 296.631885 171.573622 
L 300.054266 172.375433 
L 303.476648 171.123549 
L 306.89903 172.685567 
L 310.321411 171.013111 
L 313.743793 168.721333 
L 317.166175 161.679269 
L 320.588557 159.077483 
L 324.010938 159.981789 
L 327.43332 159.928839 
L 330.855702 157.783996 
L 334.278083 156.741454 
L 337.700465 156.525683 
L 341.122847 156.78022 
L 344.545229 155.815211 
L 347.96761 153.322602 
L 351.389992 154.405424 
L 354.812374 152.086226 
L 358.234755 155.081479 
L 361.657137 150.740168 
L 365.079519 152.570338 
L 368.501901 152.140877 
L 371.924282 153.28705 
L 375.346664 151.639179 
L 378.769046 147.895632 
L 382.191427 148.907539 
L 385.613809 145.474694 
L 389.036191 136.46 
L 392.458573 157.561607 
L 395.880954 159.721011 
L 399.303336 157.533998 
L 402.725718 158.943974 
L 406.148099 158.589778 
L 409.570481 156.72538 
L 412.992863 162.006927 
L 416.415245 160.657654 
L 419.837626 160.883069 
L 423.260008 163.625109 
L 426.68239 161.817443 
L 430.104771 163.378326 
L 433.527153 161.802125 
L 436.949535 161.092788 
L 440.371917 160.803266 
L 443.794298 157.638006 
L 447.21668 161.645167 
L 450.639062 162.720047 
L 457.483825 164.412926 
L 460.906207 164.301731 
L 464.328589 163.749919 
L 467.75097 163.573294 
L 471.173352 162.296071 
L 474.595734 159.668629 
L 478.018115 157.583922 
L 481.440497 150.79671 
L 484.862879 147.869913 
L 488.285261 146.589286 
L 491.707642 146.448591 
L 495.130024 142.55565 
L 498.552406 144.524624 
L 501.974787 141.119388 
L 512.241932 139.876015 
L 515.664314 142.383185 
L 519.086696 146.88467 
L 522.509078 142.261779 
L 525.931459 140.419695 
L 529.353841 140.019168 
L 532.776223 141.171393 
L 536.198604 139.488725 
L 539.620986 137.612792 
L 543.043368 141.31152 
L 546.46575 140.158729 
L 549.888131 141.203162 
L 553.310513 142.406823 
L 556.732895 149.823002 
L 560.155276 149.860824 
L 563.577658 150.59361 
L 567.00004 147.355733 
L 570.422422 153.159593 
L 573.844803 157.048373 
L 577.267185 161.442634 
L 580.689567 159.070391 
L 584.111948 157.877604 
L 587.53433 159.104336 
L 590.956712 159.259781 
L 594.379094 157.115317 
L 597.801475 161.414647 
L 601.223857 159.939051 
L 604.646239 164.31043 
L 608.06862 158.509786 
L 611.491002 137.261054 
L 614.913384 154.06995 
L 618.335766 146.331345 
L 621.758147 147.257966 
L 625.180529 156.492401 
L 628.602911 157.11456 
L 632.025292 159.658795 
L 635.447674 162.77224 
L 638.870056 159.608493 
L 642.292438 163.312328 
L 645.714819 162.526024 
L 649.137201 158.738794 
L 652.559583 156.105868 
L 655.981964 164.679755 
L 659.404346 163.512213 
L 662.826728 162.578974 
L 666.24911 162.27716 
L 669.671491 166.290751 
L 673.093873 163.293795 
L 676.516255 159.690565 
L 679.938636 158.893672 
L 679.938636 158.893672 
" clip-path="url(#pe10d3b6261)" style="fill: none; stroke-dasharray: 5.55,2.4; stroke-dashoffset: 0; stroke: #808080; stroke-width: 1.5"/>
   </g>
   <g id="patch_3">
    <path d="M 65.45 246.04 
L 65.45 26.88 
" style="fill: none; stroke: #000000; stroke-width: 0.8; stroke-linejoin: miter; stroke-linecap: square"/>
   </g>
   <g id="patch_4">
    <path d="M 709.2 246.04 
L 709.2 26.88 
" style="fill: none; stroke: #000000; stroke-width: 0.8; stroke-linejoin: miter; stroke-linecap: square"/>
   </g>
   <g id="patch_5">
    <path d="M 65.45 246.04 
L 709.2 246.04 
" style="fill: none; stroke: #000000; stroke-width: 0.8; stroke-linejoin: miter; stroke-linecap: square"/>
   </g>
   <g id="patch_6">
    <path d="M 65.45 26.88 
L 709.2 26.88 
" style="fill: none; stroke: #000000; stroke-width: 0.8; stroke-linejoin: miter; stroke-linecap: square"/>
   </g>
   <g id="text_16">
    <!-- CO2 - v001/c00004/d001 -->
    <g transform="translate(311.921875 20.88) scale(0.12 -0.12)">
     <defs>
      <path id="DejaVuSans-76" d="M 191 3500 
L 800 3500 
L 1894 563 
L 2988 3500 
L 3597 3500 
L 2284 0 
L 1503 0 
L 191 3500 
z
" transform="scale(0.015625)"/>
      <path id="DejaVuSans-2f" d="M 1625 4666 
L 2156 4666 
L 531 -594 
L 0 -594 
L 1625 4666 
z
" transform="scale(0.015625)"/>
      <path id="DejaVuSans-63" d="M 3122 3366 
L 3122 2828 
Q 2878 2963 2633 3030 
Q 2388 3097 2138 3097 
Q 1578 3097 1268 2742 
Q 959 2388 959 1747 
Q 959 1106 1268 751 
Q 1578 397 2138 397 
Q 2388 397 2633 464 
Q 2878 531 3122 666 
L 3122 134 
Q 2881 22 2623 -34 
Q 2366 -91 2075 -91 
Q 1284 -91 818 406 
Q 353 903 353 1747 
Q 353 2603 823 3093 
Q 1294 3584 2113 3584 
Q 2378 3584 2631 3529 
Q 2884 3475 3122 3366 
z
" transform="scale(0.015625)"/>
     </defs>
     <use xlink:href="#DejaVuSans-43"/>
     <use xlink:href="#DejaVuSans-4f" transform="translate(69.824219 0)"/>
     <use xlink:href="#DejaVuSans-32" transform="translate(148.535156 0)"/>
     <use xlink:href="#DejaVuSans-20" transform="translate(212.158203 0)"/>
     <use xlink:href="#DejaVuSans-2d" transform="translate(243.945312 0)"/>
     <use xlink:href="#DejaVuSans-20" transform="translate(280.029297 0)"/>
     <use xlink:href="#DejaVuSans-76" transform="translate(311.816406 0)"/>
     <use xlink:href="#DejaVuSans-30" transform="translate(370.996094 0)"/>
     <use xlink:href="#DejaVuSans-30" transform="translate(434.619141 0)"/>
     <use xlink:href="#DejaVuSans-31" transform="translate(498.242188 0)"/>
     <use xlink:href="#DejaVuSans-2f" transform="translate(561.865234 0)"/>
     <use xlink:href="#DejaVuSans-63" transform="translate(595.556641 0)"/>
     <use xlink:href="#DejaVuSans-30" transform="translate(650.537109 0)"/>
     <use xlink:href="#DejaVuSans-30" transform="translate(714.160156 0)"/>
     <use xlink:href="#DejaVuSans-30" transform="translate(777.783203 0)"/>
     <use xlink:href="#DejaVuSans-30" transform="translate(841.40625 0)"/>
     <use xlink:href="#DejaVuSans-34" transform="translate(905.029297 0)"/>
     <use xlink:href="#DejaVuSans-2f" transform="translate(968.652344 0)"/>
     <use xlink:href="#DejaVuSans-64" transform="translate(1002.34375 0)"/>
     <use xlink:href="#DejaVuSans-30" transform="translate(1065.820312 0)"/>
     <use xlink:href="#DejaVuSans-30" transform="translate(1129.443359 0)"/>
     <use xlink:href="#DejaVuSans-31" transform="translate(1193.066406 0)"/>
    </g>
   </g>
   <g id="legend_1">
    <g id="patch_7">
     <path d="M 551.25625 78.914375 
L 702.2 78.914375 
Q 704.2 78.914375 704.2 76.914375 
L 704.2 33.88 
Q 704.2 31.88 702.2 31.88 
L 551.25625 31.88 
Q 549.25625 31.88 549.25625 33.88 
L 549.25625 76.914375 
Q 549.25625 78.914375 551.25625 78.914375 
z
" style="fill: #ffffff; opacity: 0.8; stroke: #cccccc; stroke-linejoin: miter"/>
    </g>
    <g id="line2d_16">
     <path d="M 553.25625 39.978438 
L 563.25625 39.978438 
L 573.25625 39.978438 
" style="fill: none; stroke: #1f77b4; stroke-width: 2; stroke-linecap: square"/>
    </g>
    <g id="text_17">
     <!-- Hive -->
     <g transform="translate(581.25625 43.478438) scale(0.1 -0.1)">
      <defs>
       <path id="DejaVuSans-48" d="M 628 4666 
L 1259 4666 
L 1259 2753 
L 3553 2753 
L 3553 4666 
L 4184 4666 
L 4184 0 
L 3553 0 
L 3553 2222 
L 1259 2222 
L 1259 0 
L 628 0 
L 628 4666 
z
" transform="scale(0.015625)"/>
       <path id="DejaVuSans-65" d="M 3597 1894 
L 3597 1613 
L 953 1613 
Q 991 1019 1311 708 
Q 1631 397 2203 397 
Q 2534 397 2845 478 
Q 3156 559 3463 722 
L 3463 178 
Q 3153 47 2828 -22 
Q 2503 -91 2169 -91 
Q 1331 -91 842 396 
Q 353 884 353 1716 
Q 353 2575 817 3079 
Q 1281 3584 2069 3584 
Q 2775 3584 3186 3129 
Q 3597 2675 3597 1894 
z
M 3022 2063 
Q 3016 2534 2758 2815 
Q 2500 3097 2075 3097 
Q 1594 3097 1305 2825 
Q 1016 2553 972 2059 
L 3022 2063 
z
" transform="scale(0.015625)"/>
      </defs>
      <use xlink:href="#DejaVuSans-48"/>
      <use xlink:href="#DejaVuSans-69" transform="translate(75.195312 0)"/>
      <use xlink:href="#DejaVuSans-76" transform="translate(102.978516 0)"/>
      <use xlink:href="#DejaVuSans-65" transform="translate(162.158203 0)"/>
     </g>
    </g>
    <g id="line2d_17">
     <path d="M 553.25625 54.656563 
L 563.25625 54.656563 
L 573.25625 54.656563 
" style="fill: none; stroke-dasharray: 5.55,2.4; stroke-dashoffset: 0; stroke: #808080; stroke-width: 1.5"/>
    </g>
    <g id="text_18">
     <!-- Gemiddelde (alle hives) -->
     <g transform="translate(581.25625 58.156563) scale(0.1 -0.1)">
      <defs>
       <path id="DejaVuSans-47" d="M 3809 666 
L 3809 1919 
L 2778 1919 
L 2778 2438 
L 4434 2438 
L 4434 434 
Q 4069 175 3628 42 
Q 3188 -91 2688 -91 
Q 1594 -91 976 548 
Q 359 1188 359 2328 
Q 359 3472 976 4111 
Q 1594 4750 2688 4750 
Q 3144 4750 3555 4637 
Q 3966 4525 4313 4306 
L 4313 3634 
Q 3963 3931 3569 4081 
Q 3175 4231 2741 4231 
Q 1884 4231 1454 3753 
Q 1025 3275 1025 2328 
Q 1025 1384 1454 906 
Q 1884 428 2741 428 
Q 3075 428 3337 486 
Q 3600 544 3809 666 
z
" transform="scale(0.015625)"/>
       <path id="DejaVuSans-6d" d="M 3328 2828 
Q 3544 3216 3844 3400 
Q 4144 3584 4550 3584 
Q 5097 3584 5394 3201 
Q 5691 2819 5691 2113 
L 5691 0 
L 5113 0 
L 5113 2094 
Q 5113 2597 4934 2840 
Q 4756 3084 4391 3084 
Q 3944 3084 3684 2787 
Q 3425 2491 3425 1978 
L 3425 0 
L 2847 0 
L 2847 2094 
Q 2847 2600 2669 2842 
Q 2491 3084 2119 3084 
Q 1678 3084 1418 2786 
Q 1159 2488 1159 1978 
L 1159 0 
L 581 0 
L 581 3500 
L 1159 3500 
L 1159 2956 
Q 1356 3278 1631 3431 
Q 1906 3584 2284 3584 
Q 2666 3584 2933 3390 
Q 3200 3197 3328 2828 
z
" transform="scale(0.015625)"/>
       <path id="DejaVuSans-6c" d="M 603 4863 
L 1178 4863 
L 1178 0 
L 603 0 
L 603 4863 
z
" transform="scale(0.015625)"/>
       <path id="DejaVuSans-61" d="M 2194 1759 
Q 1497 1759 1228 1600 
Q 959 1441 959 1056 
Q 959 750 1161 570 
Q 1363 391 1709 391 
Q 2188 391 2477 730 
Q 2766 1069 2766 1631 
L 2766 1759 
L 2194 1759 
z
M 3341 1997 
L 3341 0 
L 2766 0 
L 2766 531 
Q 2569 213 2275 61 
Q 1981 -91 1556 -91 
Q 1019 -91 701 211 
Q 384 513 384 1019 
Q 384 1609 779 1909 
Q 1175 2209 1959 2209 
L 2766 2209 
L 2766 2266 
Q 2766 2663 2505 2880 
Q 2244 3097 1772 3097 
Q 1472 3097 1187 3025 
Q 903 2953 641 2809 
L 641 3341 
Q 956 3463 1253 3523 
Q 1550 3584 1831 3584 
Q 2591 3584 2966 3190 
Q 3341 2797 3341 1997 
z
" transform="scale(0.015625)"/>
       <path id="DejaVuSans-68" d="M 3513 2113 
L 3513 0 
L 2938 0 
L 2938 2094 
Q 2938 2591 2744 2837 
Q 2550 3084 2163 3084 
Q 1697 3084 1428 2787 
Q 1159 2491 1159 1978 
L 1159 0 
L 581 0 
L 581 4863 
L 1159 4863 
L 1159 2956 
Q 1366 3272 1645 3428 
Q 1925 3584 2291 3584 
Q 2894 3584 3203 3211 
Q 3513 2838 3513 2113 
z
" transform="scale(0.015625)"/>
       <path id="DejaVuSans-73" d="M 2834 3397 
L 2834 2853 
Q 2591 2978 2328 3040 
Q 2066 3103 1784 3103 
Q 1356 3103 1142 2972 
Q 928 2841 928 2578 
Q 928 2378 1081 2264 
Q 1234 2150 1697 2047 
L 1894 2003 
Q 2506 1872 2764 1633 
Q 3022 1394 3022 966 
Q 3022 478 2636 193 
Q 2250 -91 1575 -91 
Q 1294 -91 989 -36 
Q 684 19 347 128 
L 347 722 
Q 666 556 975 473 
Q 1284 391 1588 391 
Q 1994 391 2212 530 
Q 2431 669 2431 922 
Q 2431 1156 2273 1281 
Q 2116 1406 1581 1522 
L 1381 1569 
Q 847 1681 609 1914 
Q 372 2147 372 2553 
Q 372 3047 722 3315 
Q 1072 3584 1716 3584 
Q 2034 3584 2315 3537 
Q 2597 3491 2834 3397 
z
" transform="scale(0.015625)"/>
      </defs>
      <use xlink:href="#DejaVuSans-47"/>
      <use xlink:href="#DejaVuSans-65" transform="translate(77.490234 0)"/>
      <use xlink:href="#DejaVuSans-6d" transform="translate(139.013672 0)"/>
      <use xlink:href="#DejaVuSans-69" transform="translate(236.425781 0)"/>
      <use xlink:href="#DejaVuSans-64" transform="translate(264.208984 0)"/>
      <use xlink:href="#DejaVuSans-64" transform="translate(327.685547 0)"/>
      <use xlink:href="#DejaVuSans-65" transform="translate(391.162109 0)"/>
      <use xlink:href="#DejaVuSans-6c" transform="translate(452.685547 0)"/>
      <use xlink:href="#DejaVuSans-64" transform="translate(480.46875 0)"/>
      <use xlink:href="#DejaVuSans-65" transform="translate(543.945312 0)"/>
      <use xlink:href="#DejaVuSans-20" transform="translate(605.46875 0)"/>
      <use xlink:href="#DejaVuSans-28" transform="translate(637.255859 0)"/>
      <use xlink:href="#DejaVuSans-61" transform="translate(676.269531 0)"/>
      <use xlink:href="#DejaVuSans-6c" transform="translate(737.548828 0)"/>
      <use xlink:href="#DejaVuSans-6c" transform="translate(765.332031 0)"/>
      <use xlink:href="#DejaVuSans-65" transform="translate(793.115234 0)"/>
      <use xlink:href="#DejaVuSans-20" transform="translate(854.638672 0)"/>
      <use xlink:href="#DejaVuSans-68" transform="translate(886.425781 0)"/>
      <use xlink:href="#DejaVuSans-69" transform="translate(949.804688 0)"/>
      <use xlink:href="#DejaVuSans-76" transform="translate(977.587891 0)"/>
      <use xlink:href="#DejaVuSans-65" transform="translate(1036.767578 0)"/>
      <use xlink:href="#DejaVuSans-73" transform="translate(1098.291016 0)"/>
      <use xlink:href="#DejaVuSans-29" transform="translate(1150.390625 0)"/>
     </g>
    </g>
    <g id="patch_8">
     <path d="M 553.25625 72.834688 
L 573.25625 72.834688 
L 573.25625 65.834688 
L 553.25625 65.834688 
z
" style="fill: #808080; fill-opacity: 0.2; stroke: #808080; stroke-opacity: 0.2; stroke-linejoin: miter"/>
    </g>
    <g id="text_19">
     <!-- ±2 Std Dev -->
     <g transform="translate(581.25625 72.834688) scale(0.1 -0.1)">
      <defs>
       <path id="DejaVuSans-b1" d="M 2944 4013 
L 2944 2803 
L 4684 2803 
L 4684 2272 
L 2944 2272 
L 2944 1063 
L 2419 1063 
L 2419 2272 
L 678 2272 
L 678 2803 
L 2419 2803 
L 2419 4013 
L 2944 4013 
z
M 678 531 
L 4684 531 
L 4684 0 
L 678 0 
L 678 531 
z
" transform="scale(0.015625)"/>
       <path id="DejaVuSans-53" d="M 3425 4513 
L 3425 3897 
Q 3066 4069 2747 4153 
Q 2428 4238 2131 4238 
Q 1616 4238 1336 4038 
Q 1056 3838 1056 3469 
Q 1056 3159 1242 3001 
Q 1428 2844 1947 2747 
L 2328 2669 
Q 3034 2534 3370 2195 
Q 3706 1856 3706 1288 
Q 3706 609 3251 259 
Q 2797 -91 1919 -91 
Q 1588 -91 1214 -16 
Q 841 59 441 206 
L 441 856 
Q 825 641 1194 531 
Q 1563 422 1919 422 
Q 2459 422 2753 634 
Q 3047 847 3047 1241 
Q 3047 1584 2836 1778 
Q 2625 1972 2144 2069 
L 1759 2144 
Q 1053 2284 737 2584 
Q 422 2884 422 3419 
Q 422 4038 858 4394 
Q 1294 4750 2059 4750 
Q 2388 4750 2728 4690 
Q 3069 4631 3425 4513 
z
" transform="scale(0.015625)"/>
       <path id="DejaVuSans-74" d="M 1172 4494 
L 1172 3500 
L 2356 3500 
L 2356 3053 
L 1172 3053 
L 1172 1153 
Q 1172 725 1289 603 
Q 1406 481 1766 481 
L 2356 481 
L 2356 0 
L 1766 0 
Q 1100 0 847 248 
Q 594 497 594 1153 
L 594 3053 
L 172 3053 
L 172 3500 
L 594 3500 
L 594 4494 
L 1172 4494 
z
" transform="scale(0.015625)"/>
       <path id="DejaVuSans-44" d="M 1259 4147 
L 1259 519 
L 2022 519 
Q 2988 519 3436 956 
Q 3884 1394 3884 2338 
Q 3884 3275 3436 3711 
Q 2988 4147 2022 4147 
L 1259 4147 
z
M 628 4666 
L 1925 4666 
Q 3281 4666 3915 4102 
Q 4550 3538 4550 2338 
Q 4550 1131 3912 565 
Q 3275 0 1925 0 
L 628 0 
L 628 4666 
z
" transform="scale(0.015625)"/>
      </defs>
      <use xlink:href="#DejaVuSans-b1"/>
      <use xlink:href="#DejaVuSans-32" transform="translate(83.789062 0)"/>
      <use xlink:href="#DejaVuSans-20" transform="translate(147.412109 0)"/>
      <use xlink:href="#DejaVuSans-53" transform="translate(179.199219 0)"/>
      <use xlink:href="#DejaVuSans-74" transform="translate(242.675781 0)"/>
      <use xlink:href="#DejaVuSans-64" transform="translate(281.884766 0)"/>
      <use xlink:href="#DejaVuSans-20" transform="translate(345.361328 0)"/>
      <use xlink:href="#DejaVuSans-44" transform="translate(377.148438 0)"/>
      <use xlink:href="#DejaVuSans-65" transform="translate(454.150391 0)"/>
      <use xlink:href="#DejaVuSans-76" transform="translate(515.673828 0)"/>
     </g>
    </g>
   </g>
  </g>
 </g>
 <defs>
  <clipPath id="pe10d3b6261">
   <rect x="65.45" y="26.88" width="643.75" height="219.16"/>
  </clipPath>
 </defs>
</svg>
