<?xml version="1.0" encoding="utf-8" standalone="no"?>
<!DOCTYPE svg PUBLIC "-//W3C//DTD SVG 1.1//EN"
  "http://www.w3.org/Graphics/SVG/1.1/DTD/svg11.dtd">
<svg xmlns:xlink="http://www.w3.org/1999/xlink" width="720pt" height="288pt" viewBox="0 0 720 288" xmlns="http://www.w3.org/2000/svg" version="1.1">
 <metadata>
  <rdf:RDF xmlns:dc="http://purl.org/dc/elements/1.1/" xmlns:cc="http://creativecommons.org/ns#" xmlns:rdf="http://www.w3.org/1999/02/22-rdf-syntax-ns#">
   <cc:Work>
    <dc:type rdf:resource="http://purl.org/dc/dcmitype/StillImage"/>
    <dc:date>2025-05-25T08:18:59.474598</dc:date>
    <dc:format>image/svg+xml</dc:format>
    <dc:creator>
     <cc:Agent>
      <dc:title>Matplotlib v3.10.3, https://matplotlib.org/</dc:title>
     </cc:Agent>
    </dc:creator>
   </cc:Work>
  </rdf:RDF>
 </metadata>
 <defs>
  <style type="text/css">*{stroke-linejoin: round; stroke-linecap: butt}</style>
 </defs>
 <g id="figure_1">
  <g id="patch_1">
   <path d="M 0 288 
L 720 288 
L 720 0 
L 0 0 
z
" style="fill: #ffffff"/>
  </g>
  <g id="axes_1">
   <g id="patch_2">
    <path d="M 44.57 246.04 
L 709.2 246.04 
L 709.2 26.88 
L 44.57 26.88 
z
" style="fill: #ffffff"/>
   </g>
   <g id="FillBetweenPolyCollection_1">
    <defs>
     <path id="ma9bebbaca7" d="M 74.780455 -192.24036 
L 74.780455 -115.654734 
L 78.62892 -112.20907 
L 82.477386 -72.352949 
L 86.325851 -102.147304 
L 90.174317 -79.292981 
L 94.022782 -67.543383 
L 97.871248 -77.518646 
L 101.719713 -100.505592 
L 105.568179 -101.776826 
L 109.416644 -122.207466 
L 113.26511 -101.140383 
L 117.113576 -81.704339 
L 120.962041 -99.160429 
L 124.810507 -94.810538 
L 128.658972 -84.296187 
L 132.507438 -96.247939 
L 136.355903 -93.41097 
L 140.204369 -98.068447 
L 144.052834 -107.786377 
L 147.9013 -88.223636 
L 151.749765 -51.921818 
L 155.598231 -71.330352 
L 159.446697 -93.736295 
L 163.295162 -99.23906 
L 167.143628 -94.752219 
L 170.992093 -102.882532 
L 174.840559 -103.180333 
L 178.689024 -91.372013 
L 182.53749 -84.056565 
L 186.385955 -116.982487 
L 190.234421 -126.440333 
L 194.082887 -93.099994 
L 197.931352 -118.46448 
L 201.779818 -91.776884 
L 205.628283 -105.034579 
L 209.476749 -130.802148 
L 213.325214 -111.131519 
L 217.17368 -113.532611 
L 221.022145 -127.039344 
L 224.870611 -110.153709 
L 228.719076 -107.676684 
L 232.567542 -99.378416 
L 236.416008 -118.950138 
L 240.264473 -104.697233 
L 244.112939 -89.648892 
L 247.961404 -106.997103 
L 251.80987 -80.016076 
L 255.658335 -94.060069 
L 259.506801 -92.231247 
L 263.355266 -89.438134 
L 267.203732 -100.287938 
L 271.052197 -77.140475 
L 274.900663 -84.854347 
L 278.749129 -107.131746 
L 282.597594 -98.205397 
L 286.44606 -96.514883 
L 290.294525 -96.365787 
L 294.142991 -93.97507 
L 297.991456 -95.172899 
L 301.839922 -130.918162 
L 305.688387 -106.972258 
L 309.536853 -113.122795 
L 313.385318 -109.707969 
L 317.233784 -127.079615 
L 321.08225 -119.780057 
L 324.930715 -119.294806 
L 328.779181 -95.976862 
L 332.627646 -88.130498 
L 336.476112 -83.853418 
L 340.324577 -90.939782 
L 344.173043 -92.509022 
L 348.021508 -93.442313 
L 351.869974 -97.104609 
L 355.718439 -87.299891 
L 359.566905 -110.61088 
L 363.415371 -93.718982 
L 367.263836 -88.166292 
L 371.112302 -85.288047 
L 374.960767 -91.385865 
L 378.809233 -89.891534 
L 382.657698 -93.950239 
L 386.506164 -108.127648 
L 390.354629 -95.286144 
L 394.203095 -116.610712 
L 398.051561 -118.06695 
L 401.900026 -100.799326 
L 405.748492 -100.664922 
L 409.596957 -113.677829 
L 413.445423 -110.966091 
L 417.293888 -72.969447 
L 421.142354 -110.244593 
L 424.990819 -93.559103 
L 428.839285 -88.400482 
L 432.68775 -72.949492 
L 436.536216 -94.363488 
L 440.384682 -60.603172 
L 444.233147 -80.760756 
L 448.081613 -85.428347 
L 451.930078 -69.4813 
L 455.778544 -77.371325 
L 459.627009 -65.397343 
L 463.475475 -71.351591 
L 467.32394 -64.488473 
L 471.172406 -83.522686 
L 475.020871 -97.000651 
L 478.869337 -64.67063 
L 482.717803 -92.991993 
L 486.566268 -82.826162 
L 490.414734 -106.180587 
L 494.263199 -91.383431 
L 498.111665 -110.622601 
L 501.96013 -111.614859 
L 505.808596 -115.781261 
L 509.657061 -123.706841 
L 513.505527 -132.523648 
L 517.353992 -113.579221 
L 521.202458 -108.303006 
L 525.050924 -99.792411 
L 528.899389 -117.006386 
L 532.747855 -93.296017 
L 536.59632 -96.243584 
L 540.444786 -117.54267 
L 544.293251 -101.212788 
L 548.141717 -104.358362 
L 551.990182 -101.701573 
L 555.838648 -105.149992 
L 559.687113 -127.501797 
L 563.535579 -118.38011 
L 567.384045 -119.322465 
L 571.23251 -118.266192 
L 575.080976 -112.306854 
L 578.929441 -140.611073 
L 582.777907 -142.328876 
L 586.626372 -134.2351 
L 590.474838 -121.456631 
L 594.323303 -122.332467 
L 598.171769 -121.382913 
L 602.020235 -108.503214 
L 605.8687 -116.181026 
L 609.717166 -110.900224 
L 613.565631 -111.506969 
L 617.414097 -121.051601 
L 621.262562 -113.123433 
L 625.111028 -108.089224 
L 628.959493 -103.121798 
L 632.807959 -106.829055 
L 636.656424 -93.492033 
L 640.50489 -110.539046 
L 644.353356 -98.061429 
L 648.201821 -132.393553 
L 652.050287 -94.609517 
L 655.898752 -97.423515 
L 659.747218 -90.13352 
L 663.595683 -92.08204 
L 663.595683 -206.883589 
L 663.595683 -206.883589 
L 659.747218 -194.220257 
L 655.898752 -183.142005 
L 652.050287 -185.685412 
L 648.201821 -148.848441 
L 644.353356 -235.133815 
L 640.50489 -242.815142 
L 636.656424 -251.158182 
L 632.807959 -218.60928 
L 628.959493 -223.768703 
L 625.111028 -211.937315 
L 621.262562 -201.852095 
L 617.414097 -213.496593 
L 613.565631 -213.254892 
L 609.717166 -223.196987 
L 605.8687 -218.773052 
L 602.020235 -227.533223 
L 598.171769 -214.698623 
L 594.323303 -212.621612 
L 590.474838 -213.452349 
L 586.626372 -199.411127 
L 582.777907 -200.255836 
L 578.929441 -204.787774 
L 575.080976 -230.061386 
L 571.23251 -219.339667 
L 567.384045 -224.110095 
L 563.535579 -212.154334 
L 559.687113 -219.899414 
L 555.838648 -226.827599 
L 551.990182 -241.956479 
L 548.141717 -244.035012 
L 544.293251 -247.811963 
L 540.444786 -232.83503 
L 536.59632 -246.647796 
L 532.747855 -247.971825 
L 528.899389 -235.716426 
L 525.050924 -241.493469 
L 521.202458 -242.886463 
L 517.353992 -214.429718 
L 513.505527 -210.818715 
L 509.657061 -207.639373 
L 505.808596 -218.992424 
L 501.96013 -216.619572 
L 498.111665 -197.497984 
L 494.263199 -213.039093 
L 490.414734 -196.257612 
L 486.566268 -231.833678 
L 482.717803 -226.583563 
L 478.869337 -244.523295 
L 475.020871 -235.337725 
L 471.172406 -238.533277 
L 467.32394 -242.36936 
L 463.475475 -230.365035 
L 459.627009 -235.59771 
L 455.778544 -220.602141 
L 451.930078 -239.496153 
L 448.081613 -218.191428 
L 444.233147 -212.612683 
L 440.384682 -216.715269 
L 436.536216 -185.863795 
L 432.68775 -194.898304 
L 428.839285 -185.1748 
L 424.990819 -180.918145 
L 421.142354 -157.467909 
L 417.293888 -201.192112 
L 413.445423 -175.011226 
L 409.596957 -181.499542 
L 405.748492 -196.632069 
L 401.900026 -195.189814 
L 398.051561 -177.218657 
L 394.203095 -180.94785 
L 390.354629 -204.437137 
L 386.506164 -194.536042 
L 382.657698 -209.615418 
L 378.809233 -228.466367 
L 374.960767 -218.042571 
L 371.112302 -226.665894 
L 367.263836 -223.426863 
L 363.415371 -204.434877 
L 359.566905 -191.331237 
L 355.718439 -214.82262 
L 351.869974 -203.619854 
L 348.021508 -196.909539 
L 344.173043 -202.487956 
L 340.324577 -199.524816 
L 336.476112 -198.200345 
L 332.627646 -199.199768 
L 328.779181 -201.726014 
L 324.930715 -185.443407 
L 321.08225 -183.334617 
L 317.233784 -187.399831 
L 313.385318 -211.987207 
L 309.536853 -201.13116 
L 305.688387 -211.881724 
L 301.839922 -209.177124 
L 297.991456 -232.745843 
L 294.142991 -194.527752 
L 290.294525 -217.392087 
L 286.44606 -192.258528 
L 282.597594 -184.434644 
L 278.749129 -185.069137 
L 274.900663 -200.3112 
L 271.052197 -218.036896 
L 267.203732 -185.418789 
L 263.355266 -215.435373 
L 259.506801 -199.744144 
L 255.658335 -206.258509 
L 251.80987 -217.731899 
L 247.961404 -190.119496 
L 244.112939 -196.914702 
L 240.264473 -191.878185 
L 236.416008 -178.031165 
L 232.567542 -192.145992 
L 228.719076 -194.265434 
L 224.870611 -195.170782 
L 221.022145 -185.681268 
L 217.17368 -180.427106 
L 213.325214 -188.1047 
L 209.476749 -182.234153 
L 205.628283 -185.542765 
L 201.779818 -196.725938 
L 197.931352 -176.532498 
L 194.082887 -187.555722 
L 190.234421 -177.846896 
L 186.385955 -194.700865 
L 182.53749 -205.889403 
L 178.689024 -205.158308 
L 174.840559 -199.483357 
L 170.992093 -198.969389 
L 167.143628 -210.256583 
L 163.295162 -198.644209 
L 159.446697 -202.433239 
L 155.598231 -210.182232 
L 151.749765 -215.429897 
L 147.9013 -192.341883 
L 144.052834 -184.279211 
L 140.204369 -199.183446 
L 136.355903 -207.854673 
L 132.507438 -201.274544 
L 128.658972 -212.098838 
L 124.810507 -194.59425 
L 120.962041 -195.385566 
L 117.113576 -197.372936 
L 113.26511 -181.138872 
L 109.416644 -183.522909 
L 105.568179 -191.190728 
L 101.719713 -187.907033 
L 97.871248 -206.699836 
L 94.022782 -207.926028 
L 90.174317 -204.790206 
L 86.325851 -191.722216 
L 82.477386 -206.679228 
L 78.62892 -187.929115 
L 74.780455 -192.24036 
z
" style="stroke: #808080; stroke-opacity: 0.2"/>
    </defs>
    <g clip-path="url(#pc4fd03ff08)">
     <use xlink:href="#ma9bebbaca7" x="0" y="288" style="fill: #808080; fill-opacity: 0.2; stroke: #808080; stroke-opacity: 0.2"/>
    </g>
   </g>
   <g id="matplotlib.axis_1">
    <g id="xtick_1">
     <g id="line2d_1">
      <defs>
       <path id="me87af9617b" d="M 0 0 
L 0 3.5 
" style="stroke: #000000; stroke-width: 0.8"/>
      </defs>
      <g>
       <use xlink:href="#me87af9617b" x="105.568179" y="246.04" style="stroke: #000000; stroke-width: 0.8"/>
      </g>
     </g>
     <g id="text_1">
      <!-- 05-22 12 -->
      <g transform="translate(83.08771 260.638438) scale(0.1 -0.1)">
       <defs>
        <path id="DejaVuSans-30" d="M 2034 4250 
Q 1547 4250 1301 3770 
Q 1056 3291 1056 2328 
Q 1056 1369 1301 889 
Q 1547 409 2034 409 
Q 2525 409 2770 889 
Q 3016 1369 3016 2328 
Q 3016 3291 2770 3770 
Q 2525 4250 2034 4250 
z
M 2034 4750 
Q 2819 4750 3233 4129 
Q 3647 3509 3647 2328 
Q 3647 1150 3233 529 
Q 2819 -91 2034 -91 
Q 1250 -91 836 529 
Q 422 1150 422 2328 
Q 422 3509 836 4129 
Q 1250 4750 2034 4750 
z
" transform="scale(0.015625)"/>
        <path id="DejaVuSans-35" d="M 691 4666 
L 3169 4666 
L 3169 4134 
L 1269 4134 
L 1269 2991 
Q 1406 3038 1543 3061 
Q 1681 3084 1819 3084 
Q 2600 3084 3056 2656 
Q 3513 2228 3513 1497 
Q 3513 744 3044 326 
Q 2575 -91 1722 -91 
Q 1428 -91 1123 -41 
Q 819 9 494 109 
L 494 744 
Q 775 591 1075 516 
Q 1375 441 1709 441 
Q 2250 441 2565 725 
Q 2881 1009 2881 1497 
Q 2881 1984 2565 2268 
Q 2250 2553 1709 2553 
Q 1456 2553 1204 2497 
Q 953 2441 691 2322 
L 691 4666 
z
" transform="scale(0.015625)"/>
        <path id="DejaVuSans-2d" d="M 313 2009 
L 1997 2009 
L 1997 1497 
L 313 1497 
L 313 2009 
z
" transform="scale(0.015625)"/>
        <path id="DejaVuSans-32" d="M 1228 531 
L 3431 531 
L 3431 0 
L 469 0 
L 469 531 
Q 828 903 1448 1529 
Q 2069 2156 2228 2338 
Q 2531 2678 2651 2914 
Q 2772 3150 2772 3378 
Q 2772 3750 2511 3984 
Q 2250 4219 1831 4219 
Q 1534 4219 1204 4116 
Q 875 4013 500 3803 
L 500 4441 
Q 881 4594 1212 4672 
Q 1544 4750 1819 4750 
Q 2544 4750 2975 4387 
Q 3406 4025 3406 3419 
Q 3406 3131 3298 2873 
Q 3191 2616 2906 2266 
Q 2828 2175 2409 1742 
Q 1991 1309 1228 531 
z
" transform="scale(0.015625)"/>
        <path id="DejaVuSans-20" transform="scale(0.015625)"/>
        <path id="DejaVuSans-31" d="M 794 531 
L 1825 531 
L 1825 4091 
L 703 3866 
L 703 4441 
L 1819 4666 
L 2450 4666 
L 2450 531 
L 3481 531 
L 3481 0 
L 794 0 
L 794 531 
z
" transform="scale(0.015625)"/>
       </defs>
       <use xlink:href="#DejaVuSans-30"/>
       <use xlink:href="#DejaVuSans-35" transform="translate(63.623047 0)"/>
       <use xlink:href="#DejaVuSans-2d" transform="translate(127.246094 0)"/>
       <use xlink:href="#DejaVuSans-32" transform="translate(163.330078 0)"/>
       <use xlink:href="#DejaVuSans-32" transform="translate(226.953125 0)"/>
       <use xlink:href="#DejaVuSans-20" transform="translate(290.576172 0)"/>
       <use xlink:href="#DejaVuSans-31" transform="translate(322.363281 0)"/>
       <use xlink:href="#DejaVuSans-32" transform="translate(385.986328 0)"/>
      </g>
     </g>
    </g>
    <g id="xtick_2">
     <g id="line2d_2">
      <g>
       <use xlink:href="#me87af9617b" x="197.931352" y="246.04" style="stroke: #000000; stroke-width: 0.8"/>
      </g>
     </g>
     <g id="text_2">
      <!-- 05-23 00 -->
      <g transform="translate(175.450883 260.638438) scale(0.1 -0.1)">
       <defs>
        <path id="DejaVuSans-33" d="M 2597 2516 
Q 3050 2419 3304 2112 
Q 3559 1806 3559 1356 
Q 3559 666 3084 287 
Q 2609 -91 1734 -91 
Q 1441 -91 1130 -33 
Q 819 25 488 141 
L 488 750 
Q 750 597 1062 519 
Q 1375 441 1716 441 
Q 2309 441 2620 675 
Q 2931 909 2931 1356 
Q 2931 1769 2642 2001 
Q 2353 2234 1838 2234 
L 1294 2234 
L 1294 2753 
L 1863 2753 
Q 2328 2753 2575 2939 
Q 2822 3125 2822 3475 
Q 2822 3834 2567 4026 
Q 2313 4219 1838 4219 
Q 1578 4219 1281 4162 
Q 984 4106 628 3988 
L 628 4550 
Q 988 4650 1302 4700 
Q 1616 4750 1894 4750 
Q 2613 4750 3031 4423 
Q 3450 4097 3450 3541 
Q 3450 3153 3228 2886 
Q 3006 2619 2597 2516 
z
" transform="scale(0.015625)"/>
       </defs>
       <use xlink:href="#DejaVuSans-30"/>
       <use xlink:href="#DejaVuSans-35" transform="translate(63.623047 0)"/>
       <use xlink:href="#DejaVuSans-2d" transform="translate(127.246094 0)"/>
       <use xlink:href="#DejaVuSans-32" transform="translate(163.330078 0)"/>
       <use xlink:href="#DejaVuSans-33" transform="translate(226.953125 0)"/>
       <use xlink:href="#DejaVuSans-20" transform="translate(290.576172 0)"/>
       <use xlink:href="#DejaVuSans-30" transform="translate(322.363281 0)"/>
       <use xlink:href="#DejaVuSans-30" transform="translate(385.986328 0)"/>
      </g>
     </g>
    </g>
    <g id="xtick_3">
     <g id="line2d_3">
      <g>
       <use xlink:href="#me87af9617b" x="290.294525" y="246.04" style="stroke: #000000; stroke-width: 0.8"/>
      </g>
     </g>
     <g id="text_3">
      <!-- 05-23 12 -->
      <g transform="translate(267.814056 260.638438) scale(0.1 -0.1)">
       <use xlink:href="#DejaVuSans-30"/>
       <use xlink:href="#DejaVuSans-35" transform="translate(63.623047 0)"/>
       <use xlink:href="#DejaVuSans-2d" transform="translate(127.246094 0)"/>
       <use xlink:href="#DejaVuSans-32" transform="translate(163.330078 0)"/>
       <use xlink:href="#DejaVuSans-33" transform="translate(226.953125 0)"/>
       <use xlink:href="#DejaVuSans-20" transform="translate(290.576172 0)"/>
       <use xlink:href="#DejaVuSans-31" transform="translate(322.363281 0)"/>
       <use xlink:href="#DejaVuSans-32" transform="translate(385.986328 0)"/>
      </g>
     </g>
    </g>
    <g id="xtick_4">
     <g id="line2d_4">
      <g>
       <use xlink:href="#me87af9617b" x="382.657698" y="246.04" style="stroke: #000000; stroke-width: 0.8"/>
      </g>
     </g>
     <g id="text_4">
      <!-- 05-24 00 -->
      <g transform="translate(360.17723 260.638438) scale(0.1 -0.1)">
       <defs>
        <path id="DejaVuSans-34" d="M 2419 4116 
L 825 1625 
L 2419 1625 
L 2419 4116 
z
M 2253 4666 
L 3047 4666 
L 3047 1625 
L 3713 1625 
L 3713 1100 
L 3047 1100 
L 3047 0 
L 2419 0 
L 2419 1100 
L 313 1100 
L 313 1709 
L 2253 4666 
z
" transform="scale(0.015625)"/>
       </defs>
       <use xlink:href="#DejaVuSans-30"/>
       <use xlink:href="#DejaVuSans-35" transform="translate(63.623047 0)"/>
       <use xlink:href="#DejaVuSans-2d" transform="translate(127.246094 0)"/>
       <use xlink:href="#DejaVuSans-32" transform="translate(163.330078 0)"/>
       <use xlink:href="#DejaVuSans-34" transform="translate(226.953125 0)"/>
       <use xlink:href="#DejaVuSans-20" transform="translate(290.576172 0)"/>
       <use xlink:href="#DejaVuSans-30" transform="translate(322.363281 0)"/>
       <use xlink:href="#DejaVuSans-30" transform="translate(385.986328 0)"/>
      </g>
     </g>
    </g>
    <g id="xtick_5">
     <g id="line2d_5">
      <g>
       <use xlink:href="#me87af9617b" x="475.020871" y="246.04" style="stroke: #000000; stroke-width: 0.8"/>
      </g>
     </g>
     <g id="text_5">
      <!-- 05-24 12 -->
      <g transform="translate(452.540403 260.638438) scale(0.1 -0.1)">
       <use xlink:href="#DejaVuSans-30"/>
       <use xlink:href="#DejaVuSans-35" transform="translate(63.623047 0)"/>
       <use xlink:href="#DejaVuSans-2d" transform="translate(127.246094 0)"/>
       <use xlink:href="#DejaVuSans-32" transform="translate(163.330078 0)"/>
       <use xlink:href="#DejaVuSans-34" transform="translate(226.953125 0)"/>
       <use xlink:href="#DejaVuSans-20" transform="translate(290.576172 0)"/>
       <use xlink:href="#DejaVuSans-31" transform="translate(322.363281 0)"/>
       <use xlink:href="#DejaVuSans-32" transform="translate(385.986328 0)"/>
      </g>
     </g>
    </g>
    <g id="xtick_6">
     <g id="line2d_6">
      <g>
       <use xlink:href="#me87af9617b" x="567.384045" y="246.04" style="stroke: #000000; stroke-width: 0.8"/>
      </g>
     </g>
     <g id="text_6">
      <!-- 05-25 00 -->
      <g transform="translate(544.903576 260.638438) scale(0.1 -0.1)">
       <use xlink:href="#DejaVuSans-30"/>
       <use xlink:href="#DejaVuSans-35" transform="translate(63.623047 0)"/>
       <use xlink:href="#DejaVuSans-2d" transform="translate(127.246094 0)"/>
       <use xlink:href="#DejaVuSans-32" transform="translate(163.330078 0)"/>
       <use xlink:href="#DejaVuSans-35" transform="translate(226.953125 0)"/>
       <use xlink:href="#DejaVuSans-20" transform="translate(290.576172 0)"/>
       <use xlink:href="#DejaVuSans-30" transform="translate(322.363281 0)"/>
       <use xlink:href="#DejaVuSans-30" transform="translate(385.986328 0)"/>
      </g>
     </g>
    </g>
    <g id="xtick_7">
     <g id="line2d_7">
      <g>
       <use xlink:href="#me87af9617b" x="659.747218" y="246.04" style="stroke: #000000; stroke-width: 0.8"/>
      </g>
     </g>
     <g id="text_7">
      <!-- 05-25 12 -->
      <g transform="translate(637.266749 260.638438) scale(0.1 -0.1)">
       <use xlink:href="#DejaVuSans-30"/>
       <use xlink:href="#DejaVuSans-35" transform="translate(63.623047 0)"/>
       <use xlink:href="#DejaVuSans-2d" transform="translate(127.246094 0)"/>
       <use xlink:href="#DejaVuSans-32" transform="translate(163.330078 0)"/>
       <use xlink:href="#DejaVuSans-35" transform="translate(226.953125 0)"/>
       <use xlink:href="#DejaVuSans-20" transform="translate(290.576172 0)"/>
       <use xlink:href="#DejaVuSans-31" transform="translate(322.363281 0)"/>
       <use xlink:href="#DejaVuSans-32" transform="translate(385.986328 0)"/>
      </g>
     </g>
    </g>
    <g id="text_8">
     <!-- Tijd -->
     <g transform="translate(368.035 274.316562) scale(0.1 -0.1)">
      <defs>
       <path id="DejaVuSans-54" d="M -19 4666 
L 3928 4666 
L 3928 4134 
L 2272 4134 
L 2272 0 
L 1638 0 
L 1638 4134 
L -19 4134 
L -19 4666 
z
" transform="scale(0.015625)"/>
       <path id="DejaVuSans-69" d="M 603 3500 
L 1178 3500 
L 1178 0 
L 603 0 
L 603 3500 
z
M 603 4863 
L 1178 4863 
L 1178 4134 
L 603 4134 
L 603 4863 
z
" transform="scale(0.015625)"/>
       <path id="DejaVuSans-6a" d="M 603 3500 
L 1178 3500 
L 1178 -63 
Q 1178 -731 923 -1031 
Q 669 -1331 103 -1331 
L -116 -1331 
L -116 -844 
L 38 -844 
Q 366 -844 484 -692 
Q 603 -541 603 -63 
L 603 3500 
z
M 603 4863 
L 1178 4863 
L 1178 4134 
L 603 4134 
L 603 4863 
z
" transform="scale(0.015625)"/>
       <path id="DejaVuSans-64" d="M 2906 2969 
L 2906 4863 
L 3481 4863 
L 3481 0 
L 2906 0 
L 2906 525 
Q 2725 213 2448 61 
Q 2172 -91 1784 -91 
Q 1150 -91 751 415 
Q 353 922 353 1747 
Q 353 2572 751 3078 
Q 1150 3584 1784 3584 
Q 2172 3584 2448 3432 
Q 2725 3281 2906 2969 
z
M 947 1747 
Q 947 1113 1208 752 
Q 1469 391 1925 391 
Q 2381 391 2643 752 
Q 2906 1113 2906 1747 
Q 2906 2381 2643 2742 
Q 2381 3103 1925 3103 
Q 1469 3103 1208 2742 
Q 947 2381 947 1747 
z
" transform="scale(0.015625)"/>
      </defs>
      <use xlink:href="#DejaVuSans-54"/>
      <use xlink:href="#DejaVuSans-69" transform="translate(57.958984 0)"/>
      <use xlink:href="#DejaVuSans-6a" transform="translate(85.742188 0)"/>
      <use xlink:href="#DejaVuSans-64" transform="translate(113.525391 0)"/>
     </g>
    </g>
   </g>
   <g id="matplotlib.axis_2">
    <g id="ytick_1">
     <g id="line2d_8">
      <defs>
       <path id="mcdb0e9eee7" d="M 0 0 
L -3.5 0 
" style="stroke: #000000; stroke-width: 0.8"/>
      </defs>
      <g>
       <use xlink:href="#mcdb0e9eee7" x="44.57" y="231.870682" style="stroke: #000000; stroke-width: 0.8"/>
      </g>
     </g>
     <g id="text_9">
      <!-- 40 -->
      <g transform="translate(24.845 235.669901) scale(0.1 -0.1)">
       <use xlink:href="#DejaVuSans-34"/>
       <use xlink:href="#DejaVuSans-30" transform="translate(63.623047 0)"/>
      </g>
     </g>
    </g>
    <g id="ytick_2">
     <g id="line2d_9">
      <g>
       <use xlink:href="#mcdb0e9eee7" x="44.57" y="191.282205" style="stroke: #000000; stroke-width: 0.8"/>
      </g>
     </g>
     <g id="text_10">
      <!-- 45 -->
      <g transform="translate(24.845 195.081424) scale(0.1 -0.1)">
       <use xlink:href="#DejaVuSans-34"/>
       <use xlink:href="#DejaVuSans-35" transform="translate(63.623047 0)"/>
      </g>
     </g>
    </g>
    <g id="ytick_3">
     <g id="line2d_10">
      <g>
       <use xlink:href="#mcdb0e9eee7" x="44.57" y="150.693729" style="stroke: #000000; stroke-width: 0.8"/>
      </g>
     </g>
     <g id="text_11">
      <!-- 50 -->
      <g transform="translate(24.845 154.492947) scale(0.1 -0.1)">
       <use xlink:href="#DejaVuSans-35"/>
       <use xlink:href="#DejaVuSans-30" transform="translate(63.623047 0)"/>
      </g>
     </g>
    </g>
    <g id="ytick_4">
     <g id="line2d_11">
      <g>
       <use xlink:href="#mcdb0e9eee7" x="44.57" y="110.105252" style="stroke: #000000; stroke-width: 0.8"/>
      </g>
     </g>
     <g id="text_12">
      <!-- 55 -->
      <g transform="translate(24.845 113.904471) scale(0.1 -0.1)">
       <use xlink:href="#DejaVuSans-35"/>
       <use xlink:href="#DejaVuSans-35" transform="translate(63.623047 0)"/>
      </g>
     </g>
    </g>
    <g id="ytick_5">
     <g id="line2d_12">
      <g>
       <use xlink:href="#mcdb0e9eee7" x="44.57" y="69.516775" style="stroke: #000000; stroke-width: 0.8"/>
      </g>
     </g>
     <g id="text_13">
      <!-- 60 -->
      <g transform="translate(24.845 73.315994) scale(0.1 -0.1)">
       <defs>
        <path id="DejaVuSans-36" d="M 2113 2584 
Q 1688 2584 1439 2293 
Q 1191 2003 1191 1497 
Q 1191 994 1439 701 
Q 1688 409 2113 409 
Q 2538 409 2786 701 
Q 3034 994 3034 1497 
Q 3034 2003 2786 2293 
Q 2538 2584 2113 2584 
z
M 3366 4563 
L 3366 3988 
Q 3128 4100 2886 4159 
Q 2644 4219 2406 4219 
Q 1781 4219 1451 3797 
Q 1122 3375 1075 2522 
Q 1259 2794 1537 2939 
Q 1816 3084 2150 3084 
Q 2853 3084 3261 2657 
Q 3669 2231 3669 1497 
Q 3669 778 3244 343 
Q 2819 -91 2113 -91 
Q 1303 -91 875 529 
Q 447 1150 447 2328 
Q 447 3434 972 4092 
Q 1497 4750 2381 4750 
Q 2619 4750 2861 4703 
Q 3103 4656 3366 4563 
z
" transform="scale(0.015625)"/>
       </defs>
       <use xlink:href="#DejaVuSans-36"/>
       <use xlink:href="#DejaVuSans-30" transform="translate(63.623047 0)"/>
      </g>
     </g>
    </g>
    <g id="ytick_6">
     <g id="line2d_13">
      <g>
       <use xlink:href="#mcdb0e9eee7" x="44.57" y="28.928298" style="stroke: #000000; stroke-width: 0.8"/>
      </g>
     </g>
     <g id="text_14">
      <!-- 65 -->
      <g transform="translate(24.845 32.727517) scale(0.1 -0.1)">
       <use xlink:href="#DejaVuSans-36"/>
       <use xlink:href="#DejaVuSans-35" transform="translate(63.623047 0)"/>
      </g>
     </g>
    </g>
    <g id="text_15">
     <!-- (Rel.) Vochtigheid (%) -->
     <g transform="translate(18.765312 190.838125) rotate(-90) scale(0.1 -0.1)">
      <defs>
       <path id="DejaVuSans-28" d="M 1984 4856 
Q 1566 4138 1362 3434 
Q 1159 2731 1159 2009 
Q 1159 1288 1364 580 
Q 1569 -128 1984 -844 
L 1484 -844 
Q 1016 -109 783 600 
Q 550 1309 550 2009 
Q 550 2706 781 3412 
Q 1013 4119 1484 4856 
L 1984 4856 
z
" transform="scale(0.015625)"/>
       <path id="DejaVuSans-52" d="M 2841 2188 
Q 3044 2119 3236 1894 
Q 3428 1669 3622 1275 
L 4263 0 
L 3584 0 
L 2988 1197 
Q 2756 1666 2539 1819 
Q 2322 1972 1947 1972 
L 1259 1972 
L 1259 0 
L 628 0 
L 628 4666 
L 2053 4666 
Q 2853 4666 3247 4331 
Q 3641 3997 3641 3322 
Q 3641 2881 3436 2590 
Q 3231 2300 2841 2188 
z
M 1259 4147 
L 1259 2491 
L 2053 2491 
Q 2509 2491 2742 2702 
Q 2975 2913 2975 3322 
Q 2975 3731 2742 3939 
Q 2509 4147 2053 4147 
L 1259 4147 
z
" transform="scale(0.015625)"/>
       <path id="DejaVuSans-65" d="M 3597 1894 
L 3597 1613 
L 953 1613 
Q 991 1019 1311 708 
Q 1631 397 2203 397 
Q 2534 397 2845 478 
Q 3156 559 3463 722 
L 3463 178 
Q 3153 47 2828 -22 
Q 2503 -91 2169 -91 
Q 1331 -91 842 396 
Q 353 884 353 1716 
Q 353 2575 817 3079 
Q 1281 3584 2069 3584 
Q 2775 3584 3186 3129 
Q 3597 2675 3597 1894 
z
M 3022 2063 
Q 3016 2534 2758 2815 
Q 2500 3097 2075 3097 
Q 1594 3097 1305 2825 
Q 1016 2553 972 2059 
L 3022 2063 
z
" transform="scale(0.015625)"/>
       <path id="DejaVuSans-6c" d="M 603 4863 
L 1178 4863 
L 1178 0 
L 603 0 
L 603 4863 
z
" transform="scale(0.015625)"/>
       <path id="DejaVuSans-2e" d="M 684 794 
L 1344 794 
L 1344 0 
L 684 0 
L 684 794 
z
" transform="scale(0.015625)"/>
       <path id="DejaVuSans-29" d="M 513 4856 
L 1013 4856 
Q 1481 4119 1714 3412 
Q 1947 2706 1947 2009 
Q 1947 1309 1714 600 
Q 1481 -109 1013 -844 
L 513 -844 
Q 928 -128 1133 580 
Q 1338 1288 1338 2009 
Q 1338 2731 1133 3434 
Q 928 4138 513 4856 
z
" transform="scale(0.015625)"/>
       <path id="DejaVuSans-56" d="M 1831 0 
L 50 4666 
L 709 4666 
L 2188 738 
L 3669 4666 
L 4325 4666 
L 2547 0 
L 1831 0 
z
" transform="scale(0.015625)"/>
       <path id="DejaVuSans-6f" d="M 1959 3097 
Q 1497 3097 1228 2736 
Q 959 2375 959 1747 
Q 959 1119 1226 758 
Q 1494 397 1959 397 
Q 2419 397 2687 759 
Q 2956 1122 2956 1747 
Q 2956 2369 2687 2733 
Q 2419 3097 1959 3097 
z
M 1959 3584 
Q 2709 3584 3137 3096 
Q 3566 2609 3566 1747 
Q 3566 888 3137 398 
Q 2709 -91 1959 -91 
Q 1206 -91 779 398 
Q 353 888 353 1747 
Q 353 2609 779 3096 
Q 1206 3584 1959 3584 
z
" transform="scale(0.015625)"/>
       <path id="DejaVuSans-63" d="M 3122 3366 
L 3122 2828 
Q 2878 2963 2633 3030 
Q 2388 3097 2138 3097 
Q 1578 3097 1268 2742 
Q 959 2388 959 1747 
Q 959 1106 1268 751 
Q 1578 397 2138 397 
Q 2388 397 2633 464 
Q 2878 531 3122 666 
L 3122 134 
Q 2881 22 2623 -34 
Q 2366 -91 2075 -91 
Q 1284 -91 818 406 
Q 353 903 353 1747 
Q 353 2603 823 3093 
Q 1294 3584 2113 3584 
Q 2378 3584 2631 3529 
Q 2884 3475 3122 3366 
z
" transform="scale(0.015625)"/>
       <path id="DejaVuSans-68" d="M 3513 2113 
L 3513 0 
L 2938 0 
L 2938 2094 
Q 2938 2591 2744 2837 
Q 2550 3084 2163 3084 
Q 1697 3084 1428 2787 
Q 1159 2491 1159 1978 
L 1159 0 
L 581 0 
L 581 4863 
L 1159 4863 
L 1159 2956 
Q 1366 3272 1645 3428 
Q 1925 3584 2291 3584 
Q 2894 3584 3203 3211 
Q 3513 2838 3513 2113 
z
" transform="scale(0.015625)"/>
       <path id="DejaVuSans-74" d="M 1172 4494 
L 1172 3500 
L 2356 3500 
L 2356 3053 
L 1172 3053 
L 1172 1153 
Q 1172 725 1289 603 
Q 1406 481 1766 481 
L 2356 481 
L 2356 0 
L 1766 0 
Q 1100 0 847 248 
Q 594 497 594 1153 
L 594 3053 
L 172 3053 
L 172 3500 
L 594 3500 
L 594 4494 
L 1172 4494 
z
" transform="scale(0.015625)"/>
       <path id="DejaVuSans-67" d="M 2906 1791 
Q 2906 2416 2648 2759 
Q 2391 3103 1925 3103 
Q 1463 3103 1205 2759 
Q 947 2416 947 1791 
Q 947 1169 1205 825 
Q 1463 481 1925 481 
Q 2391 481 2648 825 
Q 2906 1169 2906 1791 
z
M 3481 434 
Q 3481 -459 3084 -895 
Q 2688 -1331 1869 -1331 
Q 1566 -1331 1297 -1286 
Q 1028 -1241 775 -1147 
L 775 -588 
Q 1028 -725 1275 -790 
Q 1522 -856 1778 -856 
Q 2344 -856 2625 -561 
Q 2906 -266 2906 331 
L 2906 616 
Q 2728 306 2450 153 
Q 2172 0 1784 0 
Q 1141 0 747 490 
Q 353 981 353 1791 
Q 353 2603 747 3093 
Q 1141 3584 1784 3584 
Q 2172 3584 2450 3431 
Q 2728 3278 2906 2969 
L 2906 3500 
L 3481 3500 
L 3481 434 
z
" transform="scale(0.015625)"/>
       <path id="DejaVuSans-25" d="M 4653 2053 
Q 4381 2053 4226 1822 
Q 4072 1591 4072 1178 
Q 4072 772 4226 539 
Q 4381 306 4653 306 
Q 4919 306 5073 539 
Q 5228 772 5228 1178 
Q 5228 1588 5073 1820 
Q 4919 2053 4653 2053 
z
M 4653 2450 
Q 5147 2450 5437 2106 
Q 5728 1763 5728 1178 
Q 5728 594 5436 251 
Q 5144 -91 4653 -91 
Q 4153 -91 3862 251 
Q 3572 594 3572 1178 
Q 3572 1766 3864 2108 
Q 4156 2450 4653 2450 
z
M 1428 4353 
Q 1159 4353 1004 4120 
Q 850 3888 850 3481 
Q 850 3069 1003 2837 
Q 1156 2606 1428 2606 
Q 1700 2606 1854 2837 
Q 2009 3069 2009 3481 
Q 2009 3884 1853 4118 
Q 1697 4353 1428 4353 
z
M 4250 4750 
L 4750 4750 
L 1831 -91 
L 1331 -91 
L 4250 4750 
z
M 1428 4750 
Q 1922 4750 2215 4408 
Q 2509 4066 2509 3481 
Q 2509 2891 2217 2550 
Q 1925 2209 1428 2209 
Q 931 2209 642 2551 
Q 353 2894 353 3481 
Q 353 4063 643 4406 
Q 934 4750 1428 4750 
z
" transform="scale(0.015625)"/>
      </defs>
      <use xlink:href="#DejaVuSans-28"/>
      <use xlink:href="#DejaVuSans-52" transform="translate(39.013672 0)"/>
      <use xlink:href="#DejaVuSans-65" transform="translate(103.996094 0)"/>
      <use xlink:href="#DejaVuSans-6c" transform="translate(165.519531 0)"/>
      <use xlink:href="#DejaVuSans-2e" transform="translate(193.302734 0)"/>
      <use xlink:href="#DejaVuSans-29" transform="translate(225.089844 0)"/>
      <use xlink:href="#DejaVuSans-20" transform="translate(264.103516 0)"/>
      <use xlink:href="#DejaVuSans-56" transform="translate(295.890625 0)"/>
      <use xlink:href="#DejaVuSans-6f" transform="translate(356.548828 0)"/>
      <use xlink:href="#DejaVuSans-63" transform="translate(417.730469 0)"/>
      <use xlink:href="#DejaVuSans-68" transform="translate(472.710938 0)"/>
      <use xlink:href="#DejaVuSans-74" transform="translate(536.089844 0)"/>
      <use xlink:href="#DejaVuSans-69" transform="translate(575.298828 0)"/>
      <use xlink:href="#DejaVuSans-67" transform="translate(603.082031 0)"/>
      <use xlink:href="#DejaVuSans-68" transform="translate(666.558594 0)"/>
      <use xlink:href="#DejaVuSans-65" transform="translate(729.9375 0)"/>
      <use xlink:href="#DejaVuSans-69" transform="translate(791.460938 0)"/>
      <use xlink:href="#DejaVuSans-64" transform="translate(819.244141 0)"/>
      <use xlink:href="#DejaVuSans-20" transform="translate(882.720703 0)"/>
      <use xlink:href="#DejaVuSans-28" transform="translate(914.507812 0)"/>
      <use xlink:href="#DejaVuSans-25" transform="translate(953.521484 0)"/>
      <use xlink:href="#DejaVuSans-29" transform="translate(1048.541016 0)"/>
     </g>
    </g>
   </g>
   <g id="line2d_14">
    <path d="M 74.780455 162.870272 
L 78.62892 161.517322 
L 82.477386 180.323316 
L 86.325851 155.564346 
L 90.174317 177.482123 
L 94.022782 177.211533 
L 97.871248 171.799736 
L 101.719713 176.940943 
L 105.568179 178.293893 
L 109.416644 139.599545 
L 113.26511 171.799736 
L 117.113576 166.11735 
L 120.962041 139.058365 
L 124.810507 170.717377 
L 128.658972 161.787912 
L 132.507438 155.564346 
L 136.355903 150.964318 
L 140.204369 132.293619 
L 144.052834 157.187885 
L 147.9013 163.140861 
L 151.749765 175.452699 
L 155.598231 158.540834 
L 159.446697 173.693865 
L 167.143628 156.646705 
L 170.992093 137.434826 
L 174.840559 147.98783 
L 178.689024 136.623057 
L 182.53749 128.234771 
L 186.385955 140.681904 
L 190.234421 143.387803 
L 194.082887 151.234908 
L 197.931352 143.658393 
L 201.779818 134.458338 
L 205.628283 144.740752 
L 209.476749 126.611232 
L 213.325214 151.776088 
L 217.17368 150.287844 
L 221.022145 138.787775 
L 224.870611 149.070189 
L 228.719076 165.711465 
L 232.567542 169.093838 
L 236.416008 163.682041 
L 240.264473 170.987967 
L 244.112939 176.264469 
L 247.961404 169.905607 
L 255.658335 173.693865 
L 259.506801 168.958543 
L 263.355266 179.105662 
L 267.203732 162.058502 
L 271.052197 176.129174 
L 274.900663 174.235045 
L 278.749129 160.705553 
L 282.597594 175.046815 
L 286.44606 165.03499 
L 290.294525 164.7644 
L 297.991456 138.92307 
L 301.839922 129.317131 
L 305.688387 146.093701 
L 309.536853 145.281932 
L 313.385318 137.705416 
L 317.233784 148.52901 
L 321.08225 132.023029 
L 324.930715 137.976006 
L 328.779181 158.811424 
L 332.627646 160.705553 
L 336.476112 169.093838 
L 340.324577 162.058502 
L 344.173043 155.293756 
L 348.021508 166.658529 
L 351.869974 152.858447 
L 355.718439 160.164373 
L 359.566905 148.7996 
L 363.415371 157.999654 
L 367.263836 145.011342 
L 371.112302 143.117213 
L 374.960767 138.517186 
L 378.809233 139.599545 
L 382.657698 134.187748 
L 386.506164 142.846623 
L 390.354629 138.517186 
L 394.203095 138.517186 
L 398.051561 143.117213 
L 401.900026 148.7996 
L 405.748492 146.905471 
L 409.596957 148.7996 
L 413.445423 154.211396 
L 417.293888 168.552658 
L 421.142354 156.376115 
L 424.990819 175.317404 
L 428.839285 159.623193 
L 432.68775 168.958543 
L 436.536216 151.505498 
L 440.384682 149.881959 
L 444.233147 159.623193 
L 448.081613 139.599545 
L 451.930078 134.999518 
L 455.778544 134.999518 
L 459.627009 121.470025 
L 463.475475 154.481986 
L 467.32394 116.058228 
L 471.172406 137.164236 
L 475.020871 137.705416 
L 478.869337 144.740752 
L 482.717803 137.299531 
L 486.566268 152.317268 
L 490.414734 155.564346 
L 494.263199 145.823111 
L 498.111665 146.364291 
L 501.96013 147.98783 
L 505.808596 133.646568 
L 509.657061 137.976006 
L 513.505527 131.21126 
L 517.353992 141.493674 
L 521.202458 139.058365 
L 525.050924 129.317131 
L 528.899389 125.799463 
L 532.747855 132.564209 
L 536.59632 129.317131 
L 540.444786 129.587721 
L 544.293251 130.39949 
L 548.141717 124.175924 
L 551.990182 119.034717 
L 555.838648 111.187611 
L 559.687113 107.940533 
L 563.535579 117.411178 
L 567.384045 116.058228 
L 571.23251 125.799463 
L 575.080976 120.117076 
L 578.929441 121.199435 
L 582.777907 121.199435 
L 586.626372 120.658256 
L 590.474838 117.681767 
L 594.323303 122.552385 
L 598.171769 124.446514 
L 602.020235 129.181836 
L 605.8687 136.623057 
L 609.717166 139.058365 
L 613.565631 139.328955 
L 617.414097 135.540697 
L 621.262562 152.587857 
L 625.111028 139.599545 
L 628.959493 127.693592 
L 632.807959 131.48185 
L 636.656424 130.94067 
L 640.50489 112.54056 
L 640.50489 112.54056 
" clip-path="url(#pc4fd03ff08)" style="fill: none; stroke: #1f77b4; stroke-width: 2; stroke-linecap: square"/>
   </g>
   <g id="line2d_15">
    <path d="M 74.780455 134.052453 
L 78.62892 137.930908 
L 82.477386 148.483911 
L 86.325851 141.06524 
L 90.174317 145.958406 
L 94.022782 150.265295 
L 97.871248 145.890759 
L 101.719713 143.793687 
L 105.568179 141.516223 
L 109.416644 135.134812 
L 113.26511 146.860372 
L 117.113576 148.461362 
L 120.962041 140.727003 
L 124.810507 143.297606 
L 128.658972 139.802487 
L 132.507438 139.238758 
L 136.355903 137.367179 
L 140.204369 139.374053 
L 144.052834 141.967206 
L 147.9013 147.71724 
L 151.749765 154.324142 
L 155.598231 147.243708 
L 159.446697 139.915233 
L 163.295162 139.058365 
L 167.143628 135.495599 
L 170.992093 137.07404 
L 174.840559 136.668155 
L 178.689024 139.73484 
L 182.53749 143.027016 
L 186.385955 132.158324 
L 190.234421 135.856385 
L 194.082887 147.672142 
L 197.931352 140.501511 
L 201.779818 143.748589 
L 205.628283 142.711328 
L 209.476749 131.48185 
L 213.325214 138.381891 
L 217.17368 141.020142 
L 221.022145 131.639694 
L 224.870611 135.337755 
L 228.719076 137.028941 
L 232.567542 142.237796 
L 236.416008 139.509348 
L 240.264473 139.712291 
L 244.112939 144.718203 
L 247.961404 139.441701 
L 251.80987 139.126013 
L 255.658335 137.840711 
L 259.506801 142.012304 
L 263.355266 135.563246 
L 267.203732 145.146637 
L 271.052197 140.411314 
L 274.900663 145.417227 
L 278.749129 141.899559 
L 282.597594 146.679979 
L 286.44606 143.613294 
L 290.294525 131.121063 
L 294.142991 143.748589 
L 297.991456 124.040629 
L 301.839922 117.952357 
L 305.688387 128.573009 
L 309.536853 130.873022 
L 313.385318 127.152412 
L 317.233784 130.760277 
L 321.08225 136.442663 
L 324.930715 135.630894 
L 328.779181 139.148562 
L 332.627646 144.334867 
L 336.476112 146.973118 
L 340.324577 142.767701 
L 344.173043 140.501511 
L 348.021508 142.824074 
L 351.869974 137.637769 
L 355.718439 136.938745 
L 359.566905 137.028941 
L 363.415371 138.92307 
L 367.263836 132.203422 
L 371.112302 132.023029 
L 374.960767 133.285782 
L 378.809233 128.821049 
L 382.657698 136.217172 
L 386.506164 136.668155 
L 390.354629 138.13836 
L 398.051561 140.357196 
L 401.900026 140.00543 
L 405.748492 139.351504 
L 409.596957 140.411314 
L 413.445423 145.011342 
L 417.293888 150.91922 
L 421.142354 154.143749 
L 424.990819 150.761376 
L 428.839285 151.212359 
L 432.68775 154.076102 
L 436.536216 147.886359 
L 440.384682 149.340779 
L 444.233147 141.313281 
L 448.081613 136.190113 
L 451.930078 133.511273 
L 455.778544 139.013267 
L 459.627009 137.502474 
L 463.475475 137.141687 
L 467.32394 134.571084 
L 471.172406 126.972019 
L 475.020871 121.830812 
L 478.869337 133.403037 
L 482.717803 128.212222 
L 486.566268 130.67008 
L 490.414734 136.780901 
L 494.263199 135.788738 
L 498.111665 133.939707 
L 501.96013 123.882785 
L 505.808596 120.613157 
L 509.657061 122.326893 
L 513.505527 116.328818 
L 517.353992 123.995531 
L 521.202458 112.405266 
L 525.050924 117.35706 
L 528.899389 111.638594 
L 532.747855 117.366079 
L 536.59632 116.55431 
L 540.444786 112.81115 
L 544.293251 113.487625 
L 548.141717 113.803313 
L 551.990182 116.170974 
L 555.838648 122.011205 
L 559.687113 114.299394 
L 563.535579 122.732778 
L 567.384045 116.28372 
L 571.23251 119.197071 
L 575.080976 116.81588 
L 578.929441 115.300577 
L 582.777907 116.707644 
L 586.626372 121.176886 
L 590.474838 120.54551 
L 594.323303 120.522961 
L 598.171769 119.959232 
L 602.020235 119.981781 
L 605.8687 120.522961 
L 609.717166 120.951395 
L 613.565631 125.61907 
L 617.414097 120.725903 
L 621.262562 130.512236 
L 625.111028 127.986731 
L 628.959493 124.55475 
L 632.807959 125.280832 
L 636.656424 115.674893 
L 640.50489 111.322906 
L 644.353356 121.402378 
L 648.201821 147.379003 
L 652.050287 147.852535 
L 655.898752 147.71724 
L 659.747218 145.823111 
L 663.595683 138.517186 
L 667.444149 154.481986 
L 671.292614 155.564346 
L 675.14108 140.681904 
L 678.989545 153.129037 
L 678.989545 153.129037 
" clip-path="url(#pc4fd03ff08)" style="fill: none; stroke-dasharray: 5.55,2.4; stroke-dashoffset: 0; stroke: #808080; stroke-width: 1.5"/>
   </g>
   <g id="patch_3">
    <path d="M 44.57 246.04 
L 44.57 26.88 
" style="fill: none; stroke: #000000; stroke-width: 0.8; stroke-linejoin: miter; stroke-linecap: square"/>
   </g>
   <g id="patch_4">
    <path d="M 709.2 246.04 
L 709.2 26.88 
" style="fill: none; stroke: #000000; stroke-width: 0.8; stroke-linejoin: miter; stroke-linecap: square"/>
   </g>
   <g id="patch_5">
    <path d="M 44.57 246.04 
L 709.2 246.04 
" style="fill: none; stroke: #000000; stroke-width: 0.8; stroke-linejoin: miter; stroke-linecap: square"/>
   </g>
   <g id="patch_6">
    <path d="M 44.57 26.88 
L 709.2 26.88 
" style="fill: none; stroke: #000000; stroke-width: 0.8; stroke-linejoin: miter; stroke-linecap: square"/>
   </g>
   <g id="text_16">
    <!-- Luchtvochtigheid - v001/c00001/d031 -->
    <g transform="translate(262.595312 20.88) scale(0.12 -0.12)">
     <defs>
      <path id="DejaVuSans-4c" d="M 628 4666 
L 1259 4666 
L 1259 531 
L 3531 531 
L 3531 0 
L 628 0 
L 628 4666 
z
" transform="scale(0.015625)"/>
      <path id="DejaVuSans-75" d="M 544 1381 
L 544 3500 
L 1119 3500 
L 1119 1403 
Q 1119 906 1312 657 
Q 1506 409 1894 409 
Q 2359 409 2629 706 
Q 2900 1003 2900 1516 
L 2900 3500 
L 3475 3500 
L 3475 0 
L 2900 0 
L 2900 538 
Q 2691 219 2414 64 
Q 2138 -91 1772 -91 
Q 1169 -91 856 284 
Q 544 659 544 1381 
z
M 1991 3584 
L 1991 3584 
z
" transform="scale(0.015625)"/>
      <path id="DejaVuSans-76" d="M 191 3500 
L 800 3500 
L 1894 563 
L 2988 3500 
L 3597 3500 
L 2284 0 
L 1503 0 
L 191 3500 
z
" transform="scale(0.015625)"/>
      <path id="DejaVuSans-2f" d="M 1625 4666 
L 2156 4666 
L 531 -594 
L 0 -594 
L 1625 4666 
z
" transform="scale(0.015625)"/>
     </defs>
     <use xlink:href="#DejaVuSans-4c"/>
     <use xlink:href="#DejaVuSans-75" transform="translate(53.962891 0)"/>
     <use xlink:href="#DejaVuSans-63" transform="translate(117.341797 0)"/>
     <use xlink:href="#DejaVuSans-68" transform="translate(172.322266 0)"/>
     <use xlink:href="#DejaVuSans-74" transform="translate(235.701172 0)"/>
     <use xlink:href="#DejaVuSans-76" transform="translate(274.910156 0)"/>
     <use xlink:href="#DejaVuSans-6f" transform="translate(334.089844 0)"/>
     <use xlink:href="#DejaVuSans-63" transform="translate(395.271484 0)"/>
     <use xlink:href="#DejaVuSans-68" transform="translate(450.251953 0)"/>
     <use xlink:href="#DejaVuSans-74" transform="translate(513.630859 0)"/>
     <use xlink:href="#DejaVuSans-69" transform="translate(552.839844 0)"/>
     <use xlink:href="#DejaVuSans-67" transform="translate(580.623047 0)"/>
     <use xlink:href="#DejaVuSans-68" transform="translate(644.099609 0)"/>
     <use xlink:href="#DejaVuSans-65" transform="translate(707.478516 0)"/>
     <use xlink:href="#DejaVuSans-69" transform="translate(769.001953 0)"/>
     <use xlink:href="#DejaVuSans-64" transform="translate(796.785156 0)"/>
     <use xlink:href="#DejaVuSans-20" transform="translate(860.261719 0)"/>
     <use xlink:href="#DejaVuSans-2d" transform="translate(892.048828 0)"/>
     <use xlink:href="#DejaVuSans-20" transform="translate(928.132812 0)"/>
     <use xlink:href="#DejaVuSans-76" transform="translate(959.919922 0)"/>
     <use xlink:href="#DejaVuSans-30" transform="translate(1019.099609 0)"/>
     <use xlink:href="#DejaVuSans-30" transform="translate(1082.722656 0)"/>
     <use xlink:href="#DejaVuSans-31" transform="translate(1146.345703 0)"/>
     <use xlink:href="#DejaVuSans-2f" transform="translate(1209.96875 0)"/>
     <use xlink:href="#DejaVuSans-63" transform="translate(1243.660156 0)"/>
     <use xlink:href="#DejaVuSans-30" transform="translate(1298.640625 0)"/>
     <use xlink:href="#DejaVuSans-30" transform="translate(1362.263672 0)"/>
     <use xlink:href="#DejaVuSans-30" transform="translate(1425.886719 0)"/>
     <use xlink:href="#DejaVuSans-30" transform="translate(1489.509766 0)"/>
     <use xlink:href="#DejaVuSans-31" transform="translate(1553.132812 0)"/>
     <use xlink:href="#DejaVuSans-2f" transform="translate(1616.755859 0)"/>
     <use xlink:href="#DejaVuSans-64" transform="translate(1650.447266 0)"/>
     <use xlink:href="#DejaVuSans-30" transform="translate(1713.923828 0)"/>
     <use xlink:href="#DejaVuSans-33" transform="translate(1777.546875 0)"/>
     <use xlink:href="#DejaVuSans-31" transform="translate(1841.169922 0)"/>
    </g>
   </g>
   <g id="legend_1">
    <g id="patch_7">
     <path d="M 551.25625 241.04 
L 702.2 241.04 
Q 704.2 241.04 704.2 239.04 
L 704.2 196.005625 
Q 704.2 194.005625 702.2 194.005625 
L 551.25625 194.005625 
Q 549.25625 194.005625 549.25625 196.005625 
L 549.25625 239.04 
Q 549.25625 241.04 551.25625 241.04 
z
" style="fill: #ffffff; opacity: 0.8; stroke: #cccccc; stroke-linejoin: miter"/>
    </g>
    <g id="line2d_16">
     <path d="M 553.25625 202.104062 
L 563.25625 202.104062 
L 573.25625 202.104062 
" style="fill: none; stroke: #1f77b4; stroke-width: 2; stroke-linecap: square"/>
    </g>
    <g id="text_17">
     <!-- Hive -->
     <g transform="translate(581.25625 205.604062) scale(0.1 -0.1)">
      <defs>
       <path id="DejaVuSans-48" d="M 628 4666 
L 1259 4666 
L 1259 2753 
L 3553 2753 
L 3553 4666 
L 4184 4666 
L 4184 0 
L 3553 0 
L 3553 2222 
L 1259 2222 
L 1259 0 
L 628 0 
L 628 4666 
z
" transform="scale(0.015625)"/>
      </defs>
      <use xlink:href="#DejaVuSans-48"/>
      <use xlink:href="#DejaVuSans-69" transform="translate(75.195312 0)"/>
      <use xlink:href="#DejaVuSans-76" transform="translate(102.978516 0)"/>
      <use xlink:href="#DejaVuSans-65" transform="translate(162.158203 0)"/>
     </g>
    </g>
    <g id="line2d_17">
     <path d="M 553.25625 216.782187 
L 563.25625 216.782187 
L 573.25625 216.782187 
" style="fill: none; stroke-dasharray: 5.55,2.4; stroke-dashoffset: 0; stroke: #808080; stroke-width: 1.5"/>
    </g>
    <g id="text_18">
     <!-- Gemiddelde (alle hives) -->
     <g transform="translate(581.25625 220.282187) scale(0.1 -0.1)">
      <defs>
       <path id="DejaVuSans-47" d="M 3809 666 
L 3809 1919 
L 2778 1919 
L 2778 2438 
L 4434 2438 
L 4434 434 
Q 4069 175 3628 42 
Q 3188 -91 2688 -91 
Q 1594 -91 976 548 
Q 359 1188 359 2328 
Q 359 3472 976 4111 
Q 1594 4750 2688 4750 
Q 3144 4750 3555 4637 
Q 3966 4525 4313 4306 
L 4313 3634 
Q 3963 3931 3569 4081 
Q 3175 4231 2741 4231 
Q 1884 4231 1454 3753 
Q 1025 3275 1025 2328 
Q 1025 1384 1454 906 
Q 1884 428 2741 428 
Q 3075 428 3337 486 
Q 3600 544 3809 666 
z
" transform="scale(0.015625)"/>
       <path id="DejaVuSans-6d" d="M 3328 2828 
Q 3544 3216 3844 3400 
Q 4144 3584 4550 3584 
Q 5097 3584 5394 3201 
Q 5691 2819 5691 2113 
L 5691 0 
L 5113 0 
L 5113 2094 
Q 5113 2597 4934 2840 
Q 4756 3084 4391 3084 
Q 3944 3084 3684 2787 
Q 3425 2491 3425 1978 
L 3425 0 
L 2847 0 
L 2847 2094 
Q 2847 2600 2669 2842 
Q 2491 3084 2119 3084 
Q 1678 3084 1418 2786 
Q 1159 2488 1159 1978 
L 1159 0 
L 581 0 
L 581 3500 
L 1159 3500 
L 1159 2956 
Q 1356 3278 1631 3431 
Q 1906 3584 2284 3584 
Q 2666 3584 2933 3390 
Q 3200 3197 3328 2828 
z
" transform="scale(0.015625)"/>
       <path id="DejaVuSans-61" d="M 2194 1759 
Q 1497 1759 1228 1600 
Q 959 1441 959 1056 
Q 959 750 1161 570 
Q 1363 391 1709 391 
Q 2188 391 2477 730 
Q 2766 1069 2766 1631 
L 2766 1759 
L 2194 1759 
z
M 3341 1997 
L 3341 0 
L 2766 0 
L 2766 531 
Q 2569 213 2275 61 
Q 1981 -91 1556 -91 
Q 1019 -91 701 211 
Q 384 513 384 1019 
Q 384 1609 779 1909 
Q 1175 2209 1959 2209 
L 2766 2209 
L 2766 2266 
Q 2766 2663 2505 2880 
Q 2244 3097 1772 3097 
Q 1472 3097 1187 3025 
Q 903 2953 641 2809 
L 641 3341 
Q 956 3463 1253 3523 
Q 1550 3584 1831 3584 
Q 2591 3584 2966 3190 
Q 3341 2797 3341 1997 
z
" transform="scale(0.015625)"/>
       <path id="DejaVuSans-73" d="M 2834 3397 
L 2834 2853 
Q 2591 2978 2328 3040 
Q 2066 3103 1784 3103 
Q 1356 3103 1142 2972 
Q 928 2841 928 2578 
Q 928 2378 1081 2264 
Q 1234 2150 1697 2047 
L 1894 2003 
Q 2506 1872 2764 1633 
Q 3022 1394 3022 966 
Q 3022 478 2636 193 
Q 2250 -91 1575 -91 
Q 1294 -91 989 -36 
Q 684 19 347 128 
L 347 722 
Q 666 556 975 473 
Q 1284 391 1588 391 
Q 1994 391 2212 530 
Q 2431 669 2431 922 
Q 2431 1156 2273 1281 
Q 2116 1406 1581 1522 
L 1381 1569 
Q 847 1681 609 1914 
Q 372 2147 372 2553 
Q 372 3047 722 3315 
Q 1072 3584 1716 3584 
Q 2034 3584 2315 3537 
Q 2597 3491 2834 3397 
z
" transform="scale(0.015625)"/>
      </defs>
      <use xlink:href="#DejaVuSans-47"/>
      <use xlink:href="#DejaVuSans-65" transform="translate(77.490234 0)"/>
      <use xlink:href="#DejaVuSans-6d" transform="translate(139.013672 0)"/>
      <use xlink:href="#DejaVuSans-69" transform="translate(236.425781 0)"/>
      <use xlink:href="#DejaVuSans-64" transform="translate(264.208984 0)"/>
      <use xlink:href="#DejaVuSans-64" transform="translate(327.685547 0)"/>
      <use xlink:href="#DejaVuSans-65" transform="translate(391.162109 0)"/>
      <use xlink:href="#DejaVuSans-6c" transform="translate(452.685547 0)"/>
      <use xlink:href="#DejaVuSans-64" transform="translate(480.46875 0)"/>
      <use xlink:href="#DejaVuSans-65" transform="translate(543.945312 0)"/>
      <use xlink:href="#DejaVuSans-20" transform="translate(605.46875 0)"/>
      <use xlink:href="#DejaVuSans-28" transform="translate(637.255859 0)"/>
      <use xlink:href="#DejaVuSans-61" transform="translate(676.269531 0)"/>
      <use xlink:href="#DejaVuSans-6c" transform="translate(737.548828 0)"/>
      <use xlink:href="#DejaVuSans-6c" transform="translate(765.332031 0)"/>
      <use xlink:href="#DejaVuSans-65" transform="translate(793.115234 0)"/>
      <use xlink:href="#DejaVuSans-20" transform="translate(854.638672 0)"/>
      <use xlink:href="#DejaVuSans-68" transform="translate(886.425781 0)"/>
      <use xlink:href="#DejaVuSans-69" transform="translate(949.804688 0)"/>
      <use xlink:href="#DejaVuSans-76" transform="translate(977.587891 0)"/>
      <use xlink:href="#DejaVuSans-65" transform="translate(1036.767578 0)"/>
      <use xlink:href="#DejaVuSans-73" transform="translate(1098.291016 0)"/>
      <use xlink:href="#DejaVuSans-29" transform="translate(1150.390625 0)"/>
     </g>
    </g>
    <g id="patch_8">
     <path d="M 553.25625 234.960312 
L 573.25625 234.960312 
L 573.25625 227.960312 
L 553.25625 227.960312 
z
" style="fill: #808080; fill-opacity: 0.2; stroke: #808080; stroke-opacity: 0.2; stroke-linejoin: miter"/>
    </g>
    <g id="text_19">
     <!-- ±2 Std Dev -->
     <g transform="translate(581.25625 234.960312) scale(0.1 -0.1)">
      <defs>
       <path id="DejaVuSans-b1" d="M 2944 4013 
L 2944 2803 
L 4684 2803 
L 4684 2272 
L 2944 2272 
L 2944 1063 
L 2419 1063 
L 2419 2272 
L 678 2272 
L 678 2803 
L 2419 2803 
L 2419 4013 
L 2944 4013 
z
M 678 531 
L 4684 531 
L 4684 0 
L 678 0 
L 678 531 
z
" transform="scale(0.015625)"/>
       <path id="DejaVuSans-53" d="M 3425 4513 
L 3425 3897 
Q 3066 4069 2747 4153 
Q 2428 4238 2131 4238 
Q 1616 4238 1336 4038 
Q 1056 3838 1056 3469 
Q 1056 3159 1242 3001 
Q 1428 2844 1947 2747 
L 2328 2669 
Q 3034 2534 3370 2195 
Q 3706 1856 3706 1288 
Q 3706 609 3251 259 
Q 2797 -91 1919 -91 
Q 1588 -91 1214 -16 
Q 841 59 441 206 
L 441 856 
Q 825 641 1194 531 
Q 1563 422 1919 422 
Q 2459 422 2753 634 
Q 3047 847 3047 1241 
Q 3047 1584 2836 1778 
Q 2625 1972 2144 2069 
L 1759 2144 
Q 1053 2284 737 2584 
Q 422 2884 422 3419 
Q 422 4038 858 4394 
Q 1294 4750 2059 4750 
Q 2388 4750 2728 4690 
Q 3069 4631 3425 4513 
z
" transform="scale(0.015625)"/>
       <path id="DejaVuSans-44" d="M 1259 4147 
L 1259 519 
L 2022 519 
Q 2988 519 3436 956 
Q 3884 1394 3884 2338 
Q 3884 3275 3436 3711 
Q 2988 4147 2022 4147 
L 1259 4147 
z
M 628 4666 
L 1925 4666 
Q 3281 4666 3915 4102 
Q 4550 3538 4550 2338 
Q 4550 1131 3912 565 
Q 3275 0 1925 0 
L 628 0 
L 628 4666 
z
" transform="scale(0.015625)"/>
      </defs>
      <use xlink:href="#DejaVuSans-b1"/>
      <use xlink:href="#DejaVuSans-32" transform="translate(83.789062 0)"/>
      <use xlink:href="#DejaVuSans-20" transform="translate(147.412109 0)"/>
      <use xlink:href="#DejaVuSans-53" transform="translate(179.199219 0)"/>
      <use xlink:href="#DejaVuSans-74" transform="translate(242.675781 0)"/>
      <use xlink:href="#DejaVuSans-64" transform="translate(281.884766 0)"/>
      <use xlink:href="#DejaVuSans-20" transform="translate(345.361328 0)"/>
      <use xlink:href="#DejaVuSans-44" transform="translate(377.148438 0)"/>
      <use xlink:href="#DejaVuSans-65" transform="translate(454.150391 0)"/>
      <use xlink:href="#DejaVuSans-76" transform="translate(515.673828 0)"/>
     </g>
    </g>
   </g>
  </g>
 </g>
 <defs>
  <clipPath id="pc4fd03ff08">
   <rect x="44.57" y="26.88" width="664.63" height="219.16"/>
  </clipPath>
 </defs>
</svg>
