<?xml version="1.0" encoding="utf-8" standalone="no"?>
<!DOCTYPE svg PUBLIC "-//W3C//DTD SVG 1.1//EN"
  "http://www.w3.org/Graphics/SVG/1.1/DTD/svg11.dtd">
<svg xmlns:xlink="http://www.w3.org/1999/xlink" width="720pt" height="288pt" viewBox="0 0 720 288" xmlns="http://www.w3.org/2000/svg" version="1.1">
 <metadata>
  <rdf:RDF xmlns:dc="http://purl.org/dc/elements/1.1/" xmlns:cc="http://creativecommons.org/ns#" xmlns:rdf="http://www.w3.org/1999/02/22-rdf-syntax-ns#">
   <cc:Work>
    <dc:type rdf:resource="http://purl.org/dc/dcmitype/StillImage"/>
    <dc:date>2025-06-10T21:16:04.327433</dc:date>
    <dc:format>image/svg+xml</dc:format>
    <dc:creator>
     <cc:Agent>
      <dc:title>Matplotlib v3.10.3, https://matplotlib.org/</dc:title>
     </cc:Agent>
    </dc:creator>
   </cc:Work>
  </rdf:RDF>
 </metadata>
 <defs>
  <style type="text/css">*{stroke-linejoin: round; stroke-linecap: butt}</style>
 </defs>
 <g id="figure_1">
  <g id="patch_1">
   <path d="M 0 288 
L 720 288 
L 720 0 
L 0 0 
z
" style="fill: #ffffff"/>
  </g>
  <g id="axes_1">
   <g id="patch_2">
    <path d="M 44.57 246.04 
L 687.706758 246.04 
L 687.706758 26.88 
L 44.57 26.88 
z
" style="fill: #ffffff"/>
   </g>
   <g id="FillBetweenPolyCollection_1">
    <defs>
     <path id="m3b5c0cdae6" d="M 73.803489 -214.845647 
L 73.803489 -65.899418 
L 77.325596 -69.718328 
L 80.847703 -73.805423 
L 84.36981 -80.007732 
L 87.891917 -83.313037 
L 91.414025 -88.322683 
L 94.936132 -96.462961 
L 98.458239 -96.263778 
L 101.980346 -79.065017 
L 105.502453 -70.761676 
L 109.02456 -80.482338 
L 112.546667 -102.064725 
L 116.068774 -71.17029 
L 119.590881 -68.511835 
L 123.112989 -89.68157 
L 126.635096 -85.659159 
L 130.157203 -70.708683 
L 133.67931 -84.730511 
L 137.201417 -77.050966 
L 140.723524 -76.51805 
L 144.245631 -70.271259 
L 147.767738 -59.121233 
L 151.289845 -57.300856 
L 154.811952 -60.876204 
L 158.33406 -64.614591 
L 161.856167 -60.567712 
L 165.378274 -67.622801 
L 168.900381 -80.304026 
L 172.422488 -79.020219 
L 175.944595 -81.110437 
L 179.466702 -84.4426 
L 182.988809 -63.878902 
L 186.510916 -71.411183 
L 190.033024 -58.96758 
L 193.555131 -51.921818 
L 197.077238 -52.989209 
L 200.599345 -58.995921 
L 204.121452 -75.977267 
L 207.643559 -78.806956 
L 211.165666 -76.929994 
L 214.687773 -67.486498 
L 218.20988 -60.737228 
L 221.731988 -64.754946 
L 225.254095 -64.646639 
L 228.776202 -62.062896 
L 232.298309 -66.290453 
L 235.820416 -67.073585 
L 239.342523 -67.823279 
L 242.86463 -63.518724 
L 246.386737 -68.358223 
L 249.908844 -64.237194 
L 253.430952 -63.331444 
L 256.953059 -72.562258 
L 260.475166 -72.845249 
L 263.997273 -61.687997 
L 267.51938 -66.602896 
L 271.041487 -62.660603 
L 274.563594 -73.753424 
L 278.085701 -88.188598 
L 281.607808 -75.066827 
L 285.129915 -61.736938 
L 288.652023 -74.201012 
L 292.17413 -81.412134 
L 295.696237 -66.652557 
L 299.218344 -67.218121 
L 302.740451 -56.230373 
L 306.262558 -71.342289 
L 309.784665 -96.641739 
L 313.306772 -89.674603 
L 316.828879 -80.493767 
L 320.350987 -73.80839 
L 323.873094 -84.235996 
L 327.395201 -79.434432 
L 330.917308 -80.828242 
L 334.439415 -73.783214 
L 337.961522 -77.282451 
L 341.483629 -93.570932 
L 345.005736 -89.195404 
L 348.527843 -80.639858 
L 352.049951 -76.332614 
L 355.572058 -75.869483 
L 359.094165 -72.650635 
L 362.616272 -83.486011 
L 366.138379 -74.776831 
L 369.660486 -68.678981 
L 373.182593 -79.302561 
L 376.7047 -100.439317 
L 380.226807 -106.410388 
L 383.748915 -97.020122 
L 387.271022 -114.00569 
L 390.793129 -119.335822 
L 394.315236 -121.779884 
L 397.837343 -99.825667 
L 401.35945 -106.59241 
L 404.881557 -105.115637 
L 408.403664 -101.900962 
L 411.925771 -91.486947 
L 415.447878 -101.735952 
L 418.969986 -84.872113 
L 422.492093 -97.222578 
L 426.0142 -95.629729 
L 429.536307 -97.470629 
L 433.058414 -79.428487 
L 436.580521 -81.991607 
L 440.102628 -93.603464 
L 443.624735 -99.000283 
L 447.146842 -100.560079 
L 450.66895 -104.035874 
L 454.191057 -109.840078 
L 457.713164 -119.777712 
L 461.235271 -114.007696 
L 464.757378 -114.390201 
L 468.279485 -104.379996 
L 471.801592 -108.399649 
L 475.323699 -110.708359 
L 478.845806 -110.643412 
L 482.367914 -76.577567 
L 485.890021 -80.977365 
L 489.412128 -103.854943 
L 492.934235 -87.020055 
L 496.456342 -101.539444 
L 499.978449 -104.923275 
L 503.500556 -91.771455 
L 507.022663 -112.182817 
L 510.54477 -89.82063 
L 514.066878 -89.099689 
L 517.588985 -80.76494 
L 521.111092 -78.680218 
L 524.633199 -58.171207 
L 528.155306 -93.274785 
L 531.677413 -79.915804 
L 535.19952 -76.75057 
L 538.721627 -76.784286 
L 542.243734 -96.475714 
L 545.765841 -99.023114 
L 549.287949 -96.261426 
L 552.810056 -108.075752 
L 556.332163 -94.629502 
L 559.85427 -95.313103 
L 563.376377 -91.546989 
L 566.898484 -90.719026 
L 570.420591 -78.041208 
L 573.942698 -88.125283 
L 577.464805 -70.058137 
L 580.986913 -83.823786 
L 584.50902 -105.628761 
L 588.031127 -115.825134 
L 591.553234 -112.93156 
L 595.075341 -87.484385 
L 598.597448 -79.05094 
L 602.119555 -99.825704 
L 605.641662 -95.131085 
L 609.163769 -89.495585 
L 612.685877 -97.563417 
L 616.207984 -96.488541 
L 616.207984 -251.158182 
L 616.207984 -251.158182 
L 612.685877 -232.446492 
L 609.163769 -237.755493 
L 605.641662 -227.784687 
L 602.119555 -192.348805 
L 598.597448 -207.802966 
L 595.075341 -188.925375 
L 591.553234 -150.275221 
L 588.031127 -138.119857 
L 584.50902 -129.595589 
L 580.986913 -149.035851 
L 577.464805 -149.204404 
L 573.942698 -152.222611 
L 570.420591 -172.356714 
L 566.898484 -159.974485 
L 563.376377 -167.620075 
L 559.85427 -165.430436 
L 556.332163 -168.872868 
L 552.810056 -158.08692 
L 549.287949 -187.43953 
L 545.765841 -163.099841 
L 542.243734 -173.726675 
L 538.721627 -181.036206 
L 535.19952 -177.194421 
L 531.677413 -184.768922 
L 528.155306 -168.74964 
L 524.633199 -180.895801 
L 521.111092 -168.12137 
L 517.588985 -167.366799 
L 514.066878 -158.588666 
L 510.54477 -153.384625 
L 507.022663 -146.688658 
L 503.500556 -151.088945 
L 499.978449 -150.204072 
L 496.456342 -152.996724 
L 492.934235 -163.870515 
L 489.412128 -162.603318 
L 485.890021 -176.219105 
L 482.367914 -180.717433 
L 478.845806 -156.997205 
L 475.323699 -145.896933 
L 471.801592 -144.264455 
L 468.279485 -150.648821 
L 464.757378 -168.670312 
L 461.235271 -164.865306 
L 457.713164 -164.120304 
L 454.191057 -184.403554 
L 450.66895 -192.86806 
L 447.146842 -196.737974 
L 443.624735 -205.391907 
L 440.102628 -204.482827 
L 436.580521 -220.429989 
L 433.058414 -208.509246 
L 429.536307 -175.195002 
L 426.0142 -174.375601 
L 422.492093 -183.226898 
L 418.969986 -197.449427 
L 415.447878 -193.000329 
L 411.925771 -199.505206 
L 408.403664 -204.166233 
L 404.881557 -202.330973 
L 401.35945 -196.420364 
L 397.837343 -205.108437 
L 394.315236 -193.253512 
L 390.793129 -188.209318 
L 387.271022 -189.007085 
L 383.748915 -191.410259 
L 380.226807 -184.089116 
L 376.7047 -181.586634 
L 373.182593 -176.317434 
L 369.660486 -189.732689 
L 366.138379 -194.53879 
L 362.616272 -196.667876 
L 359.094165 -197.256165 
L 355.572058 -190.687307 
L 352.049951 -184.805044 
L 348.527843 -176.852201 
L 345.005736 -168.986364 
L 341.483629 -168.453493 
L 337.961522 -175.283124 
L 334.439415 -173.264698 
L 330.917308 -164.59393 
L 327.395201 -172.264081 
L 323.873094 -176.13313 
L 320.350987 -169.574218 
L 316.828879 -164.353649 
L 313.306772 -169.525304 
L 309.784665 -164.660135 
L 306.262558 -178.014034 
L 302.740451 -184.248894 
L 299.218344 -182.363412 
L 295.696237 -186.025623 
L 292.17413 -167.573529 
L 288.652023 -180.138098 
L 285.129915 -196.937477 
L 281.607808 -183.21347 
L 278.085701 -176.087934 
L 274.563594 -161.431515 
L 271.041487 -174.179634 
L 267.51938 -165.980858 
L 263.997273 -188.381492 
L 260.475166 -198.328362 
L 256.953059 -198.949168 
L 253.430952 -198.552224 
L 249.908844 -198.322106 
L 246.386737 -188.908625 
L 242.86463 -191.721228 
L 239.342523 -186.065409 
L 235.820416 -199.652114 
L 232.298309 -186.049911 
L 228.776202 -190.446377 
L 225.254095 -184.062203 
L 221.731988 -194.032075 
L 218.20988 -189.660693 
L 214.687773 -184.234537 
L 211.165666 -183.264594 
L 207.643559 -179.933146 
L 204.121452 -185.653039 
L 200.599345 -197.567144 
L 197.077238 -206.38899 
L 193.555131 -203.468275 
L 190.033024 -195.455983 
L 186.510916 -190.55694 
L 182.988809 -187.110198 
L 179.466702 -180.42511 
L 175.944595 -177.59213 
L 172.422488 -188.193436 
L 168.900381 -185.792959 
L 165.378274 -181.888354 
L 161.856167 -190.280631 
L 158.33406 -188.823675 
L 154.811952 -195.349046 
L 151.289845 -194.335725 
L 147.767738 -189.7659 
L 144.245631 -189.092865 
L 140.723524 -189.869833 
L 137.201417 -188.323468 
L 133.67931 -188.132179 
L 130.157203 -193.614768 
L 126.635096 -186.781261 
L 123.112989 -186.587432 
L 119.590881 -200.672414 
L 116.068774 -203.268876 
L 112.546667 -190.926173 
L 109.02456 -214.563608 
L 105.502453 -210.613979 
L 101.980346 -204.754175 
L 98.458239 -196.698969 
L 94.936132 -187.829173 
L 91.414025 -192.750814 
L 87.891917 -195.330062 
L 84.36981 -197.255951 
L 80.847703 -199.385699 
L 77.325596 -209.187517 
L 73.803489 -214.845647 
z
" style="stroke: #808080; stroke-opacity: 0.2"/>
    </defs>
    <g clip-path="url(#pca092e65e9)">
     <use xlink:href="#m3b5c0cdae6" x="0" y="288" style="fill: #808080; fill-opacity: 0.2; stroke: #808080; stroke-opacity: 0.2"/>
    </g>
   </g>
   <g id="matplotlib.axis_1">
    <g id="xtick_1">
     <g id="line2d_1">
      <defs>
       <path id="m763fb62c14" d="M 0 0 
L 0 3.5 
" style="stroke: #000000; stroke-width: 0.8"/>
      </defs>
      <g>
       <use xlink:href="#m763fb62c14" x="94.936132" y="246.04" style="stroke: #000000; stroke-width: 0.8"/>
      </g>
     </g>
     <g id="text_1">
      <!-- 06-08 00 -->
      <g transform="translate(72.455663 260.638438) scale(0.1 -0.1)">
       <defs>
        <path id="DejaVuSans-30" d="M 2034 4250 
Q 1547 4250 1301 3770 
Q 1056 3291 1056 2328 
Q 1056 1369 1301 889 
Q 1547 409 2034 409 
Q 2525 409 2770 889 
Q 3016 1369 3016 2328 
Q 3016 3291 2770 3770 
Q 2525 4250 2034 4250 
z
M 2034 4750 
Q 2819 4750 3233 4129 
Q 3647 3509 3647 2328 
Q 3647 1150 3233 529 
Q 2819 -91 2034 -91 
Q 1250 -91 836 529 
Q 422 1150 422 2328 
Q 422 3509 836 4129 
Q 1250 4750 2034 4750 
z
" transform="scale(0.015625)"/>
        <path id="DejaVuSans-36" d="M 2113 2584 
Q 1688 2584 1439 2293 
Q 1191 2003 1191 1497 
Q 1191 994 1439 701 
Q 1688 409 2113 409 
Q 2538 409 2786 701 
Q 3034 994 3034 1497 
Q 3034 2003 2786 2293 
Q 2538 2584 2113 2584 
z
M 3366 4563 
L 3366 3988 
Q 3128 4100 2886 4159 
Q 2644 4219 2406 4219 
Q 1781 4219 1451 3797 
Q 1122 3375 1075 2522 
Q 1259 2794 1537 2939 
Q 1816 3084 2150 3084 
Q 2853 3084 3261 2657 
Q 3669 2231 3669 1497 
Q 3669 778 3244 343 
Q 2819 -91 2113 -91 
Q 1303 -91 875 529 
Q 447 1150 447 2328 
Q 447 3434 972 4092 
Q 1497 4750 2381 4750 
Q 2619 4750 2861 4703 
Q 3103 4656 3366 4563 
z
" transform="scale(0.015625)"/>
        <path id="DejaVuSans-2d" d="M 313 2009 
L 1997 2009 
L 1997 1497 
L 313 1497 
L 313 2009 
z
" transform="scale(0.015625)"/>
        <path id="DejaVuSans-38" d="M 2034 2216 
Q 1584 2216 1326 1975 
Q 1069 1734 1069 1313 
Q 1069 891 1326 650 
Q 1584 409 2034 409 
Q 2484 409 2743 651 
Q 3003 894 3003 1313 
Q 3003 1734 2745 1975 
Q 2488 2216 2034 2216 
z
M 1403 2484 
Q 997 2584 770 2862 
Q 544 3141 544 3541 
Q 544 4100 942 4425 
Q 1341 4750 2034 4750 
Q 2731 4750 3128 4425 
Q 3525 4100 3525 3541 
Q 3525 3141 3298 2862 
Q 3072 2584 2669 2484 
Q 3125 2378 3379 2068 
Q 3634 1759 3634 1313 
Q 3634 634 3220 271 
Q 2806 -91 2034 -91 
Q 1263 -91 848 271 
Q 434 634 434 1313 
Q 434 1759 690 2068 
Q 947 2378 1403 2484 
z
M 1172 3481 
Q 1172 3119 1398 2916 
Q 1625 2713 2034 2713 
Q 2441 2713 2670 2916 
Q 2900 3119 2900 3481 
Q 2900 3844 2670 4047 
Q 2441 4250 2034 4250 
Q 1625 4250 1398 4047 
Q 1172 3844 1172 3481 
z
" transform="scale(0.015625)"/>
        <path id="DejaVuSans-20" transform="scale(0.015625)"/>
       </defs>
       <use xlink:href="#DejaVuSans-30"/>
       <use xlink:href="#DejaVuSans-36" transform="translate(63.623047 0)"/>
       <use xlink:href="#DejaVuSans-2d" transform="translate(127.246094 0)"/>
       <use xlink:href="#DejaVuSans-30" transform="translate(163.330078 0)"/>
       <use xlink:href="#DejaVuSans-38" transform="translate(226.953125 0)"/>
       <use xlink:href="#DejaVuSans-20" transform="translate(290.576172 0)"/>
       <use xlink:href="#DejaVuSans-30" transform="translate(322.363281 0)"/>
       <use xlink:href="#DejaVuSans-30" transform="translate(385.986328 0)"/>
      </g>
     </g>
    </g>
    <g id="xtick_2">
     <g id="line2d_2">
      <g>
       <use xlink:href="#m763fb62c14" x="179.466702" y="246.04" style="stroke: #000000; stroke-width: 0.8"/>
      </g>
     </g>
     <g id="text_2">
      <!-- 06-08 12 -->
      <g transform="translate(156.986233 260.638438) scale(0.1 -0.1)">
       <defs>
        <path id="DejaVuSans-31" d="M 794 531 
L 1825 531 
L 1825 4091 
L 703 3866 
L 703 4441 
L 1819 4666 
L 2450 4666 
L 2450 531 
L 3481 531 
L 3481 0 
L 794 0 
L 794 531 
z
" transform="scale(0.015625)"/>
        <path id="DejaVuSans-32" d="M 1228 531 
L 3431 531 
L 3431 0 
L 469 0 
L 469 531 
Q 828 903 1448 1529 
Q 2069 2156 2228 2338 
Q 2531 2678 2651 2914 
Q 2772 3150 2772 3378 
Q 2772 3750 2511 3984 
Q 2250 4219 1831 4219 
Q 1534 4219 1204 4116 
Q 875 4013 500 3803 
L 500 4441 
Q 881 4594 1212 4672 
Q 1544 4750 1819 4750 
Q 2544 4750 2975 4387 
Q 3406 4025 3406 3419 
Q 3406 3131 3298 2873 
Q 3191 2616 2906 2266 
Q 2828 2175 2409 1742 
Q 1991 1309 1228 531 
z
" transform="scale(0.015625)"/>
       </defs>
       <use xlink:href="#DejaVuSans-30"/>
       <use xlink:href="#DejaVuSans-36" transform="translate(63.623047 0)"/>
       <use xlink:href="#DejaVuSans-2d" transform="translate(127.246094 0)"/>
       <use xlink:href="#DejaVuSans-30" transform="translate(163.330078 0)"/>
       <use xlink:href="#DejaVuSans-38" transform="translate(226.953125 0)"/>
       <use xlink:href="#DejaVuSans-20" transform="translate(290.576172 0)"/>
       <use xlink:href="#DejaVuSans-31" transform="translate(322.363281 0)"/>
       <use xlink:href="#DejaVuSans-32" transform="translate(385.986328 0)"/>
      </g>
     </g>
    </g>
    <g id="xtick_3">
     <g id="line2d_3">
      <g>
       <use xlink:href="#m763fb62c14" x="263.997273" y="246.04" style="stroke: #000000; stroke-width: 0.8"/>
      </g>
     </g>
     <g id="text_3">
      <!-- 06-09 00 -->
      <g transform="translate(241.516804 260.638438) scale(0.1 -0.1)">
       <defs>
        <path id="DejaVuSans-39" d="M 703 97 
L 703 672 
Q 941 559 1184 500 
Q 1428 441 1663 441 
Q 2288 441 2617 861 
Q 2947 1281 2994 2138 
Q 2813 1869 2534 1725 
Q 2256 1581 1919 1581 
Q 1219 1581 811 2004 
Q 403 2428 403 3163 
Q 403 3881 828 4315 
Q 1253 4750 1959 4750 
Q 2769 4750 3195 4129 
Q 3622 3509 3622 2328 
Q 3622 1225 3098 567 
Q 2575 -91 1691 -91 
Q 1453 -91 1209 -44 
Q 966 3 703 97 
z
M 1959 2075 
Q 2384 2075 2632 2365 
Q 2881 2656 2881 3163 
Q 2881 3666 2632 3958 
Q 2384 4250 1959 4250 
Q 1534 4250 1286 3958 
Q 1038 3666 1038 3163 
Q 1038 2656 1286 2365 
Q 1534 2075 1959 2075 
z
" transform="scale(0.015625)"/>
       </defs>
       <use xlink:href="#DejaVuSans-30"/>
       <use xlink:href="#DejaVuSans-36" transform="translate(63.623047 0)"/>
       <use xlink:href="#DejaVuSans-2d" transform="translate(127.246094 0)"/>
       <use xlink:href="#DejaVuSans-30" transform="translate(163.330078 0)"/>
       <use xlink:href="#DejaVuSans-39" transform="translate(226.953125 0)"/>
       <use xlink:href="#DejaVuSans-20" transform="translate(290.576172 0)"/>
       <use xlink:href="#DejaVuSans-30" transform="translate(322.363281 0)"/>
       <use xlink:href="#DejaVuSans-30" transform="translate(385.986328 0)"/>
      </g>
     </g>
    </g>
    <g id="xtick_4">
     <g id="line2d_4">
      <g>
       <use xlink:href="#m763fb62c14" x="348.527843" y="246.04" style="stroke: #000000; stroke-width: 0.8"/>
      </g>
     </g>
     <g id="text_4">
      <!-- 06-09 12 -->
      <g transform="translate(326.047375 260.638438) scale(0.1 -0.1)">
       <use xlink:href="#DejaVuSans-30"/>
       <use xlink:href="#DejaVuSans-36" transform="translate(63.623047 0)"/>
       <use xlink:href="#DejaVuSans-2d" transform="translate(127.246094 0)"/>
       <use xlink:href="#DejaVuSans-30" transform="translate(163.330078 0)"/>
       <use xlink:href="#DejaVuSans-39" transform="translate(226.953125 0)"/>
       <use xlink:href="#DejaVuSans-20" transform="translate(290.576172 0)"/>
       <use xlink:href="#DejaVuSans-31" transform="translate(322.363281 0)"/>
       <use xlink:href="#DejaVuSans-32" transform="translate(385.986328 0)"/>
      </g>
     </g>
    </g>
    <g id="xtick_5">
     <g id="line2d_5">
      <g>
       <use xlink:href="#m763fb62c14" x="433.058414" y="246.04" style="stroke: #000000; stroke-width: 0.8"/>
      </g>
     </g>
     <g id="text_5">
      <!-- 06-10 00 -->
      <g transform="translate(410.577945 260.638438) scale(0.1 -0.1)">
       <use xlink:href="#DejaVuSans-30"/>
       <use xlink:href="#DejaVuSans-36" transform="translate(63.623047 0)"/>
       <use xlink:href="#DejaVuSans-2d" transform="translate(127.246094 0)"/>
       <use xlink:href="#DejaVuSans-31" transform="translate(163.330078 0)"/>
       <use xlink:href="#DejaVuSans-30" transform="translate(226.953125 0)"/>
       <use xlink:href="#DejaVuSans-20" transform="translate(290.576172 0)"/>
       <use xlink:href="#DejaVuSans-30" transform="translate(322.363281 0)"/>
       <use xlink:href="#DejaVuSans-30" transform="translate(385.986328 0)"/>
      </g>
     </g>
    </g>
    <g id="xtick_6">
     <g id="line2d_6">
      <g>
       <use xlink:href="#m763fb62c14" x="517.588985" y="246.04" style="stroke: #000000; stroke-width: 0.8"/>
      </g>
     </g>
     <g id="text_6">
      <!-- 06-10 12 -->
      <g transform="translate(495.108516 260.638438) scale(0.1 -0.1)">
       <use xlink:href="#DejaVuSans-30"/>
       <use xlink:href="#DejaVuSans-36" transform="translate(63.623047 0)"/>
       <use xlink:href="#DejaVuSans-2d" transform="translate(127.246094 0)"/>
       <use xlink:href="#DejaVuSans-31" transform="translate(163.330078 0)"/>
       <use xlink:href="#DejaVuSans-30" transform="translate(226.953125 0)"/>
       <use xlink:href="#DejaVuSans-20" transform="translate(290.576172 0)"/>
       <use xlink:href="#DejaVuSans-31" transform="translate(322.363281 0)"/>
       <use xlink:href="#DejaVuSans-32" transform="translate(385.986328 0)"/>
      </g>
     </g>
    </g>
    <g id="xtick_7">
     <g id="line2d_7">
      <g>
       <use xlink:href="#m763fb62c14" x="602.119555" y="246.04" style="stroke: #000000; stroke-width: 0.8"/>
      </g>
     </g>
     <g id="text_7">
      <!-- 06-11 00 -->
      <g transform="translate(579.639086 260.638438) scale(0.1 -0.1)">
       <use xlink:href="#DejaVuSans-30"/>
       <use xlink:href="#DejaVuSans-36" transform="translate(63.623047 0)"/>
       <use xlink:href="#DejaVuSans-2d" transform="translate(127.246094 0)"/>
       <use xlink:href="#DejaVuSans-31" transform="translate(163.330078 0)"/>
       <use xlink:href="#DejaVuSans-31" transform="translate(226.953125 0)"/>
       <use xlink:href="#DejaVuSans-20" transform="translate(290.576172 0)"/>
       <use xlink:href="#DejaVuSans-30" transform="translate(322.363281 0)"/>
       <use xlink:href="#DejaVuSans-30" transform="translate(385.986328 0)"/>
      </g>
     </g>
    </g>
    <g id="xtick_8">
     <g id="line2d_8">
      <g>
       <use xlink:href="#m763fb62c14" x="686.650126" y="246.04" style="stroke: #000000; stroke-width: 0.8"/>
      </g>
     </g>
     <g id="text_8">
      <!-- 06-11 12 -->
      <g transform="translate(664.169657 260.638438) scale(0.1 -0.1)">
       <use xlink:href="#DejaVuSans-30"/>
       <use xlink:href="#DejaVuSans-36" transform="translate(63.623047 0)"/>
       <use xlink:href="#DejaVuSans-2d" transform="translate(127.246094 0)"/>
       <use xlink:href="#DejaVuSans-31" transform="translate(163.330078 0)"/>
       <use xlink:href="#DejaVuSans-31" transform="translate(226.953125 0)"/>
       <use xlink:href="#DejaVuSans-20" transform="translate(290.576172 0)"/>
       <use xlink:href="#DejaVuSans-31" transform="translate(322.363281 0)"/>
       <use xlink:href="#DejaVuSans-32" transform="translate(385.986328 0)"/>
      </g>
     </g>
    </g>
    <g id="text_9">
     <!-- Tijd -->
     <g transform="translate(357.288379 274.316562) scale(0.1 -0.1)">
      <defs>
       <path id="DejaVuSans-54" d="M -19 4666 
L 3928 4666 
L 3928 4134 
L 2272 4134 
L 2272 0 
L 1638 0 
L 1638 4134 
L -19 4134 
L -19 4666 
z
" transform="scale(0.015625)"/>
       <path id="DejaVuSans-69" d="M 603 3500 
L 1178 3500 
L 1178 0 
L 603 0 
L 603 3500 
z
M 603 4863 
L 1178 4863 
L 1178 4134 
L 603 4134 
L 603 4863 
z
" transform="scale(0.015625)"/>
       <path id="DejaVuSans-6a" d="M 603 3500 
L 1178 3500 
L 1178 -63 
Q 1178 -731 923 -1031 
Q 669 -1331 103 -1331 
L -116 -1331 
L -116 -844 
L 38 -844 
Q 366 -844 484 -692 
Q 603 -541 603 -63 
L 603 3500 
z
M 603 4863 
L 1178 4863 
L 1178 4134 
L 603 4134 
L 603 4863 
z
" transform="scale(0.015625)"/>
       <path id="DejaVuSans-64" d="M 2906 2969 
L 2906 4863 
L 3481 4863 
L 3481 0 
L 2906 0 
L 2906 525 
Q 2725 213 2448 61 
Q 2172 -91 1784 -91 
Q 1150 -91 751 415 
Q 353 922 353 1747 
Q 353 2572 751 3078 
Q 1150 3584 1784 3584 
Q 2172 3584 2448 3432 
Q 2725 3281 2906 2969 
z
M 947 1747 
Q 947 1113 1208 752 
Q 1469 391 1925 391 
Q 2381 391 2643 752 
Q 2906 1113 2906 1747 
Q 2906 2381 2643 2742 
Q 2381 3103 1925 3103 
Q 1469 3103 1208 2742 
Q 947 2381 947 1747 
z
" transform="scale(0.015625)"/>
      </defs>
      <use xlink:href="#DejaVuSans-54"/>
      <use xlink:href="#DejaVuSans-69" transform="translate(57.958984 0)"/>
      <use xlink:href="#DejaVuSans-6a" transform="translate(85.742188 0)"/>
      <use xlink:href="#DejaVuSans-64" transform="translate(113.525391 0)"/>
     </g>
    </g>
   </g>
   <g id="matplotlib.axis_2">
    <g id="ytick_1">
     <g id="line2d_9">
      <defs>
       <path id="m1a9b127ebe" d="M 0 0 
L -3.5 0 
" style="stroke: #000000; stroke-width: 0.8"/>
      </defs>
      <g>
       <use xlink:href="#m1a9b127ebe" x="44.57" y="224.283563" style="stroke: #000000; stroke-width: 0.8"/>
      </g>
     </g>
     <g id="text_10">
      <!-- 40 -->
      <g transform="translate(24.845 228.082782) scale(0.1 -0.1)">
       <defs>
        <path id="DejaVuSans-34" d="M 2419 4116 
L 825 1625 
L 2419 1625 
L 2419 4116 
z
M 2253 4666 
L 3047 4666 
L 3047 1625 
L 3713 1625 
L 3713 1100 
L 3047 1100 
L 3047 0 
L 2419 0 
L 2419 1100 
L 313 1100 
L 313 1709 
L 2253 4666 
z
" transform="scale(0.015625)"/>
       </defs>
       <use xlink:href="#DejaVuSans-34"/>
       <use xlink:href="#DejaVuSans-30" transform="translate(63.623047 0)"/>
      </g>
     </g>
    </g>
    <g id="ytick_2">
     <g id="line2d_10">
      <g>
       <use xlink:href="#m1a9b127ebe" x="44.57" y="194.724657" style="stroke: #000000; stroke-width: 0.8"/>
      </g>
     </g>
     <g id="text_11">
      <!-- 45 -->
      <g transform="translate(24.845 198.523876) scale(0.1 -0.1)">
       <defs>
        <path id="DejaVuSans-35" d="M 691 4666 
L 3169 4666 
L 3169 4134 
L 1269 4134 
L 1269 2991 
Q 1406 3038 1543 3061 
Q 1681 3084 1819 3084 
Q 2600 3084 3056 2656 
Q 3513 2228 3513 1497 
Q 3513 744 3044 326 
Q 2575 -91 1722 -91 
Q 1428 -91 1123 -41 
Q 819 9 494 109 
L 494 744 
Q 775 591 1075 516 
Q 1375 441 1709 441 
Q 2250 441 2565 725 
Q 2881 1009 2881 1497 
Q 2881 1984 2565 2268 
Q 2250 2553 1709 2553 
Q 1456 2553 1204 2497 
Q 953 2441 691 2322 
L 691 4666 
z
" transform="scale(0.015625)"/>
       </defs>
       <use xlink:href="#DejaVuSans-34"/>
       <use xlink:href="#DejaVuSans-35" transform="translate(63.623047 0)"/>
      </g>
     </g>
    </g>
    <g id="ytick_3">
     <g id="line2d_11">
      <g>
       <use xlink:href="#m1a9b127ebe" x="44.57" y="165.165752" style="stroke: #000000; stroke-width: 0.8"/>
      </g>
     </g>
     <g id="text_12">
      <!-- 50 -->
      <g transform="translate(24.845 168.96497) scale(0.1 -0.1)">
       <use xlink:href="#DejaVuSans-35"/>
       <use xlink:href="#DejaVuSans-30" transform="translate(63.623047 0)"/>
      </g>
     </g>
    </g>
    <g id="ytick_4">
     <g id="line2d_12">
      <g>
       <use xlink:href="#m1a9b127ebe" x="44.57" y="135.606846" style="stroke: #000000; stroke-width: 0.8"/>
      </g>
     </g>
     <g id="text_13">
      <!-- 55 -->
      <g transform="translate(24.845 139.406064) scale(0.1 -0.1)">
       <use xlink:href="#DejaVuSans-35"/>
       <use xlink:href="#DejaVuSans-35" transform="translate(63.623047 0)"/>
      </g>
     </g>
    </g>
    <g id="ytick_5">
     <g id="line2d_13">
      <g>
       <use xlink:href="#m1a9b127ebe" x="44.57" y="106.04794" style="stroke: #000000; stroke-width: 0.8"/>
      </g>
     </g>
     <g id="text_14">
      <!-- 60 -->
      <g transform="translate(24.845 109.847158) scale(0.1 -0.1)">
       <use xlink:href="#DejaVuSans-36"/>
       <use xlink:href="#DejaVuSans-30" transform="translate(63.623047 0)"/>
      </g>
     </g>
    </g>
    <g id="ytick_6">
     <g id="line2d_14">
      <g>
       <use xlink:href="#m1a9b127ebe" x="44.57" y="76.489034" style="stroke: #000000; stroke-width: 0.8"/>
      </g>
     </g>
     <g id="text_15">
      <!-- 65 -->
      <g transform="translate(24.845 80.288252) scale(0.1 -0.1)">
       <use xlink:href="#DejaVuSans-36"/>
       <use xlink:href="#DejaVuSans-35" transform="translate(63.623047 0)"/>
      </g>
     </g>
    </g>
    <g id="ytick_7">
     <g id="line2d_15">
      <g>
       <use xlink:href="#m1a9b127ebe" x="44.57" y="46.930128" style="stroke: #000000; stroke-width: 0.8"/>
      </g>
     </g>
     <g id="text_16">
      <!-- 70 -->
      <g transform="translate(24.845 50.729346) scale(0.1 -0.1)">
       <defs>
        <path id="DejaVuSans-37" d="M 525 4666 
L 3525 4666 
L 3525 4397 
L 1831 0 
L 1172 0 
L 2766 4134 
L 525 4134 
L 525 4666 
z
" transform="scale(0.015625)"/>
       </defs>
       <use xlink:href="#DejaVuSans-37"/>
       <use xlink:href="#DejaVuSans-30" transform="translate(63.623047 0)"/>
      </g>
     </g>
    </g>
    <g id="text_17">
     <!-- (Rel.) Vochtigheid (%) -->
     <g transform="translate(18.765312 190.838125) rotate(-90) scale(0.1 -0.1)">
      <defs>
       <path id="DejaVuSans-28" d="M 1984 4856 
Q 1566 4138 1362 3434 
Q 1159 2731 1159 2009 
Q 1159 1288 1364 580 
Q 1569 -128 1984 -844 
L 1484 -844 
Q 1016 -109 783 600 
Q 550 1309 550 2009 
Q 550 2706 781 3412 
Q 1013 4119 1484 4856 
L 1984 4856 
z
" transform="scale(0.015625)"/>
       <path id="DejaVuSans-52" d="M 2841 2188 
Q 3044 2119 3236 1894 
Q 3428 1669 3622 1275 
L 4263 0 
L 3584 0 
L 2988 1197 
Q 2756 1666 2539 1819 
Q 2322 1972 1947 1972 
L 1259 1972 
L 1259 0 
L 628 0 
L 628 4666 
L 2053 4666 
Q 2853 4666 3247 4331 
Q 3641 3997 3641 3322 
Q 3641 2881 3436 2590 
Q 3231 2300 2841 2188 
z
M 1259 4147 
L 1259 2491 
L 2053 2491 
Q 2509 2491 2742 2702 
Q 2975 2913 2975 3322 
Q 2975 3731 2742 3939 
Q 2509 4147 2053 4147 
L 1259 4147 
z
" transform="scale(0.015625)"/>
       <path id="DejaVuSans-65" d="M 3597 1894 
L 3597 1613 
L 953 1613 
Q 991 1019 1311 708 
Q 1631 397 2203 397 
Q 2534 397 2845 478 
Q 3156 559 3463 722 
L 3463 178 
Q 3153 47 2828 -22 
Q 2503 -91 2169 -91 
Q 1331 -91 842 396 
Q 353 884 353 1716 
Q 353 2575 817 3079 
Q 1281 3584 2069 3584 
Q 2775 3584 3186 3129 
Q 3597 2675 3597 1894 
z
M 3022 2063 
Q 3016 2534 2758 2815 
Q 2500 3097 2075 3097 
Q 1594 3097 1305 2825 
Q 1016 2553 972 2059 
L 3022 2063 
z
" transform="scale(0.015625)"/>
       <path id="DejaVuSans-6c" d="M 603 4863 
L 1178 4863 
L 1178 0 
L 603 0 
L 603 4863 
z
" transform="scale(0.015625)"/>
       <path id="DejaVuSans-2e" d="M 684 794 
L 1344 794 
L 1344 0 
L 684 0 
L 684 794 
z
" transform="scale(0.015625)"/>
       <path id="DejaVuSans-29" d="M 513 4856 
L 1013 4856 
Q 1481 4119 1714 3412 
Q 1947 2706 1947 2009 
Q 1947 1309 1714 600 
Q 1481 -109 1013 -844 
L 513 -844 
Q 928 -128 1133 580 
Q 1338 1288 1338 2009 
Q 1338 2731 1133 3434 
Q 928 4138 513 4856 
z
" transform="scale(0.015625)"/>
       <path id="DejaVuSans-56" d="M 1831 0 
L 50 4666 
L 709 4666 
L 2188 738 
L 3669 4666 
L 4325 4666 
L 2547 0 
L 1831 0 
z
" transform="scale(0.015625)"/>
       <path id="DejaVuSans-6f" d="M 1959 3097 
Q 1497 3097 1228 2736 
Q 959 2375 959 1747 
Q 959 1119 1226 758 
Q 1494 397 1959 397 
Q 2419 397 2687 759 
Q 2956 1122 2956 1747 
Q 2956 2369 2687 2733 
Q 2419 3097 1959 3097 
z
M 1959 3584 
Q 2709 3584 3137 3096 
Q 3566 2609 3566 1747 
Q 3566 888 3137 398 
Q 2709 -91 1959 -91 
Q 1206 -91 779 398 
Q 353 888 353 1747 
Q 353 2609 779 3096 
Q 1206 3584 1959 3584 
z
" transform="scale(0.015625)"/>
       <path id="DejaVuSans-63" d="M 3122 3366 
L 3122 2828 
Q 2878 2963 2633 3030 
Q 2388 3097 2138 3097 
Q 1578 3097 1268 2742 
Q 959 2388 959 1747 
Q 959 1106 1268 751 
Q 1578 397 2138 397 
Q 2388 397 2633 464 
Q 2878 531 3122 666 
L 3122 134 
Q 2881 22 2623 -34 
Q 2366 -91 2075 -91 
Q 1284 -91 818 406 
Q 353 903 353 1747 
Q 353 2603 823 3093 
Q 1294 3584 2113 3584 
Q 2378 3584 2631 3529 
Q 2884 3475 3122 3366 
z
" transform="scale(0.015625)"/>
       <path id="DejaVuSans-68" d="M 3513 2113 
L 3513 0 
L 2938 0 
L 2938 2094 
Q 2938 2591 2744 2837 
Q 2550 3084 2163 3084 
Q 1697 3084 1428 2787 
Q 1159 2491 1159 1978 
L 1159 0 
L 581 0 
L 581 4863 
L 1159 4863 
L 1159 2956 
Q 1366 3272 1645 3428 
Q 1925 3584 2291 3584 
Q 2894 3584 3203 3211 
Q 3513 2838 3513 2113 
z
" transform="scale(0.015625)"/>
       <path id="DejaVuSans-74" d="M 1172 4494 
L 1172 3500 
L 2356 3500 
L 2356 3053 
L 1172 3053 
L 1172 1153 
Q 1172 725 1289 603 
Q 1406 481 1766 481 
L 2356 481 
L 2356 0 
L 1766 0 
Q 1100 0 847 248 
Q 594 497 594 1153 
L 594 3053 
L 172 3053 
L 172 3500 
L 594 3500 
L 594 4494 
L 1172 4494 
z
" transform="scale(0.015625)"/>
       <path id="DejaVuSans-67" d="M 2906 1791 
Q 2906 2416 2648 2759 
Q 2391 3103 1925 3103 
Q 1463 3103 1205 2759 
Q 947 2416 947 1791 
Q 947 1169 1205 825 
Q 1463 481 1925 481 
Q 2391 481 2648 825 
Q 2906 1169 2906 1791 
z
M 3481 434 
Q 3481 -459 3084 -895 
Q 2688 -1331 1869 -1331 
Q 1566 -1331 1297 -1286 
Q 1028 -1241 775 -1147 
L 775 -588 
Q 1028 -725 1275 -790 
Q 1522 -856 1778 -856 
Q 2344 -856 2625 -561 
Q 2906 -266 2906 331 
L 2906 616 
Q 2728 306 2450 153 
Q 2172 0 1784 0 
Q 1141 0 747 490 
Q 353 981 353 1791 
Q 353 2603 747 3093 
Q 1141 3584 1784 3584 
Q 2172 3584 2450 3431 
Q 2728 3278 2906 2969 
L 2906 3500 
L 3481 3500 
L 3481 434 
z
" transform="scale(0.015625)"/>
       <path id="DejaVuSans-25" d="M 4653 2053 
Q 4381 2053 4226 1822 
Q 4072 1591 4072 1178 
Q 4072 772 4226 539 
Q 4381 306 4653 306 
Q 4919 306 5073 539 
Q 5228 772 5228 1178 
Q 5228 1588 5073 1820 
Q 4919 2053 4653 2053 
z
M 4653 2450 
Q 5147 2450 5437 2106 
Q 5728 1763 5728 1178 
Q 5728 594 5436 251 
Q 5144 -91 4653 -91 
Q 4153 -91 3862 251 
Q 3572 594 3572 1178 
Q 3572 1766 3864 2108 
Q 4156 2450 4653 2450 
z
M 1428 4353 
Q 1159 4353 1004 4120 
Q 850 3888 850 3481 
Q 850 3069 1003 2837 
Q 1156 2606 1428 2606 
Q 1700 2606 1854 2837 
Q 2009 3069 2009 3481 
Q 2009 3884 1853 4118 
Q 1697 4353 1428 4353 
z
M 4250 4750 
L 4750 4750 
L 1831 -91 
L 1331 -91 
L 4250 4750 
z
M 1428 4750 
Q 1922 4750 2215 4408 
Q 2509 4066 2509 3481 
Q 2509 2891 2217 2550 
Q 1925 2209 1428 2209 
Q 931 2209 642 2551 
Q 353 2894 353 3481 
Q 353 4063 643 4406 
Q 934 4750 1428 4750 
z
" transform="scale(0.015625)"/>
      </defs>
      <use xlink:href="#DejaVuSans-28"/>
      <use xlink:href="#DejaVuSans-52" transform="translate(39.013672 0)"/>
      <use xlink:href="#DejaVuSans-65" transform="translate(103.996094 0)"/>
      <use xlink:href="#DejaVuSans-6c" transform="translate(165.519531 0)"/>
      <use xlink:href="#DejaVuSans-2e" transform="translate(193.302734 0)"/>
      <use xlink:href="#DejaVuSans-29" transform="translate(225.089844 0)"/>
      <use xlink:href="#DejaVuSans-20" transform="translate(264.103516 0)"/>
      <use xlink:href="#DejaVuSans-56" transform="translate(295.890625 0)"/>
      <use xlink:href="#DejaVuSans-6f" transform="translate(356.548828 0)"/>
      <use xlink:href="#DejaVuSans-63" transform="translate(417.730469 0)"/>
      <use xlink:href="#DejaVuSans-68" transform="translate(472.710938 0)"/>
      <use xlink:href="#DejaVuSans-74" transform="translate(536.089844 0)"/>
      <use xlink:href="#DejaVuSans-69" transform="translate(575.298828 0)"/>
      <use xlink:href="#DejaVuSans-67" transform="translate(603.082031 0)"/>
      <use xlink:href="#DejaVuSans-68" transform="translate(666.558594 0)"/>
      <use xlink:href="#DejaVuSans-65" transform="translate(729.9375 0)"/>
      <use xlink:href="#DejaVuSans-69" transform="translate(791.460938 0)"/>
      <use xlink:href="#DejaVuSans-64" transform="translate(819.244141 0)"/>
      <use xlink:href="#DejaVuSans-20" transform="translate(882.720703 0)"/>
      <use xlink:href="#DejaVuSans-28" transform="translate(914.507812 0)"/>
      <use xlink:href="#DejaVuSans-25" transform="translate(953.521484 0)"/>
      <use xlink:href="#DejaVuSans-29" transform="translate(1048.541016 0)"/>
     </g>
    </g>
   </g>
   <g id="line2d_16">
    <path d="M 109.02456 116.097968 
L 112.546667 140.336271 
L 116.068774 140.63186 
L 119.590881 159.845148 
L 123.112989 166.939286 
L 126.635096 178.762848 
L 130.157203 158.268673 
L 133.67931 160.436327 
L 137.201417 153.637778 
L 140.723524 169.303998 
L 144.245631 165.165752 
L 147.767738 177.580492 
L 151.289845 177.876081 
L 154.811952 189.404054 
L 158.33406 175.412839 
L 161.856167 183.787862 
L 165.378274 178.959908 
L 168.900381 160.239267 
L 172.422488 145.065695 
L 175.944595 163.983395 
L 179.466702 162.60398 
L 182.988809 165.165752 
L 186.510916 186.743753 
L 190.033024 170.289295 
L 193.555131 156.10102 
L 197.077238 165.362811 
L 200.599345 161.421623 
L 204.121452 153.933367 
L 207.643559 160.830445 
L 211.165666 157.283377 
L 214.687773 148.809824 
L 218.20988 145.656874 
L 221.731988 158.662792 
L 225.254095 177.876081 
L 228.776202 167.136345 
L 232.298309 170.880473 
L 235.820416 151.371595 
L 239.342523 162.012802 
L 242.86463 168.121642 
L 246.386737 155.706902 
L 249.908844 131.862717 
L 253.430952 131.665658 
L 256.953059 125.359758 
L 260.475166 128.906827 
L 263.997273 182.506976 
L 267.51938 182.309917 
L 271.041487 175.609898 
L 274.563594 181.718739 
L 278.085701 173.245186 
L 281.607808 165.165752 
L 285.129915 170.486355 
L 288.652023 168.90988 
L 292.17413 183.787862 
L 295.696237 186.054045 
L 299.218344 188.615817 
L 302.740451 193.148182 
L 306.262558 197.877607 
L 313.306772 190.980529 
L 316.828879 199.257023 
L 320.350987 197.08937 
L 323.873094 183.098154 
L 327.395201 183.492273 
L 330.917308 183.196684 
L 334.439415 188.221698 
L 337.961522 184.871689 
L 341.483629 167.136345 
L 348.527843 189.206995 
L 352.049951 181.127561 
L 359.094165 187.039342 
L 362.616272 180.536383 
L 366.138379 188.812876 
L 369.660486 187.433461 
L 373.182593 191.768767 
L 376.7047 165.75693 
L 380.226807 159.845148 
L 383.748915 167.727523 
L 387.271022 138.956855 
L 390.793129 135.803905 
L 394.315236 127.92153 
L 397.837343 120.531804 
L 401.35945 113.930315 
L 404.881557 106.04794 
L 408.403664 106.639118 
L 411.925771 108.018533 
L 415.447878 111.368543 
L 418.969986 107.427355 
L 426.0142 131.271539 
L 429.536307 130.089183 
L 433.058414 98.953802 
L 436.580521 88.115537 
L 440.102628 98.559683 
L 443.624735 96.58909 
L 447.146842 103.880286 
L 450.66895 107.230296 
L 454.191057 116.097968 
L 457.713164 131.271539 
L 461.235271 130.877421 
L 464.757378 129.990653 
L 468.279485 175.01872 
L 475.323699 167.530464 
L 478.845806 166.348108 
L 482.367914 188.221698 
L 485.890021 175.01872 
L 489.412128 170.683414 
L 492.934235 187.039342 
L 496.456342 172.456948 
L 499.978449 165.75693 
L 503.500556 183.492273 
L 507.022663 163.392217 
L 510.54477 188.024639 
L 514.066878 184.37904 
L 517.588985 188.812876 
L 521.111092 192.951123 
L 524.633199 210.883526 
L 528.155306 178.959908 
L 531.677413 188.221698 
L 535.19952 196.498192 
L 538.721627 184.970219 
L 542.243734 177.777551 
L 545.765841 178.17167 
L 549.287949 167.530464 
L 552.810056 166.052519 
L 556.332163 169.895176 
L 559.85427 169.501058 
L 563.376377 173.639305 
L 566.898484 176.595195 
L 570.420591 187.039342 
L 573.942698 179.156967 
L 577.464805 192.359945 
L 580.986913 183.098154 
L 584.50902 174.624601 
L 588.031127 157.086317 
L 591.553234 149.79512 
L 595.075341 131.862717 
L 598.597448 121.812689 
L 602.119555 125.556818 
L 605.641662 103.092049 
L 609.163769 98.165565 
L 612.685877 99.150862 
L 616.207984 86.834651 
L 619.730091 76.094915 
L 623.252198 87.721418 
L 626.774305 90.08613 
L 630.296412 102.89499 
L 633.818519 112.35384 
L 637.340626 130.286242 
L 640.862733 137.084791 
L 644.384841 151.273066 
L 647.906948 167.826053 
L 651.429055 156.29808 
L 654.951162 163.983395 
L 658.473269 158.662792 
L 658.473269 158.662792 
" clip-path="url(#pca092e65e9)" style="fill: none; stroke: #1f77b4; stroke-width: 2; stroke-linecap: square"/>
   </g>
   <g id="line2d_17">
    <path d="M 73.803489 147.627467 
L 77.325596 148.547078 
L 80.847703 151.404439 
L 84.36981 149.368158 
L 87.891917 148.678451 
L 91.414025 147.463251 
L 94.936132 145.853933 
L 98.458239 141.518627 
L 101.980346 146.090404 
L 105.502453 147.312172 
L 109.02456 140.477027 
L 112.546667 141.504551 
L 116.068774 150.780417 
L 119.590881 153.407876 
L 123.112989 149.865499 
L 126.635096 151.77979 
L 130.157203 155.838275 
L 133.67931 151.568655 
L 137.201417 155.312783 
L 140.723524 154.806059 
L 144.245631 158.317938 
L 147.767738 163.556433 
L 151.289845 162.18171 
L 154.811952 159.887375 
L 161.856167 162.575828 
L 165.378274 163.244423 
L 168.900381 154.951507 
L 172.422488 154.393172 
L 175.944595 158.648717 
L 179.466702 155.566145 
L 182.988809 162.50545 
L 186.510916 157.015939 
L 190.033024 160.788218 
L 193.555131 160.304954 
L 197.077238 158.3109 
L 200.599345 159.718467 
L 204.121452 157.184847 
L 207.643559 158.629949 
L 211.165666 157.902706 
L 214.687773 162.139483 
L 218.20988 162.801039 
L 221.731988 158.60649 
L 225.254095 163.645579 
L 228.776202 161.745364 
L 232.298309 161.829818 
L 235.820416 154.637151 
L 239.342523 161.055656 
L 242.86463 160.380024 
L 246.386737 159.366576 
L 249.908844 156.72035 
L 253.430952 157.058166 
L 256.953059 152.244287 
L 260.475166 152.413195 
L 263.997273 162.965255 
L 267.51938 171.708123 
L 271.041487 169.579881 
L 274.563594 170.407531 
L 278.085701 155.861734 
L 281.607808 158.859852 
L 285.129915 158.662792 
L 288.652023 160.830445 
L 292.17413 163.507168 
L 295.696237 161.66091 
L 299.218344 163.209233 
L 302.740451 167.760367 
L 306.262558 163.321839 
L 309.784665 157.349063 
L 313.306772 158.400046 
L 316.828879 165.576292 
L 320.350987 166.308696 
L 323.873094 157.815437 
L 327.395201 162.150743 
L 330.917308 165.288914 
L 334.439415 164.476044 
L 337.961522 161.717212 
L 341.483629 156.987788 
L 345.005736 158.909116 
L 348.527843 159.25397 
L 352.049951 157.431171 
L 355.572058 154.721605 
L 359.094165 153.0466 
L 362.616272 147.923056 
L 369.660486 158.794165 
L 373.182593 160.190002 
L 376.7047 146.987024 
L 380.226807 142.750248 
L 383.748915 143.78481 
L 387.271022 136.493613 
L 390.793129 134.22743 
L 394.315236 130.483302 
L 397.837343 135.532948 
L 401.35945 136.493613 
L 404.881557 134.276695 
L 408.403664 134.966403 
L 411.925771 142.503924 
L 415.447878 140.63186 
L 418.969986 146.83923 
L 422.492093 147.775262 
L 426.0142 152.997335 
L 429.536307 151.667184 
L 433.058414 144.031134 
L 436.580521 136.789202 
L 440.102628 138.956855 
L 443.624735 135.803905 
L 447.146842 139.350974 
L 450.66895 139.548033 
L 454.191057 140.878184 
L 457.713164 146.050992 
L 461.235271 148.563499 
L 464.757378 146.469743 
L 468.279485 160.485591 
L 471.801592 161.667948 
L 475.323699 159.697354 
L 478.845806 154.179691 
L 482.367914 159.3525 
L 485.890021 159.401765 
L 489.412128 154.77087 
L 492.934235 162.554715 
L 496.456342 160.731916 
L 499.978449 160.436327 
L 503.500556 166.5698 
L 507.022663 158.564263 
L 510.54477 166.397373 
L 514.066878 164.155822 
L 517.588985 163.93413 
L 521.111092 164.599206 
L 524.633199 168.466496 
L 528.155306 156.987788 
L 531.677413 155.657637 
L 535.19952 161.027505 
L 538.721627 159.089754 
L 542.243734 152.898806 
L 545.765841 156.938523 
L 549.287949 146.149522 
L 552.810056 154.918664 
L 559.85427 157.62823 
L 563.376377 158.416468 
L 566.898484 162.653245 
L 570.420591 162.801039 
L 573.942698 167.826053 
L 577.464805 178.36873 
L 580.986913 171.570181 
L 584.50902 170.387825 
L 588.031127 161.027505 
L 591.553234 156.396609 
L 595.075341 149.79512 
L 598.597448 144.573047 
L 602.119555 141.912745 
L 605.641662 126.542114 
L 609.163769 124.374461 
L 612.685877 122.995046 
L 616.207984 114.176639 
L 619.730091 76.094915 
L 623.252198 87.721418 
L 626.774305 90.08613 
L 630.296412 102.89499 
L 633.818519 112.35384 
L 637.340626 130.286242 
L 640.862733 137.084791 
L 644.384841 151.273066 
L 647.906948 167.826053 
L 651.429055 156.29808 
L 654.951162 163.983395 
L 658.473269 158.662792 
L 658.473269 158.662792 
" clip-path="url(#pca092e65e9)" style="fill: none; stroke-dasharray: 5.55,2.4; stroke-dashoffset: 0; stroke: #808080; stroke-width: 1.5"/>
   </g>
   <g id="patch_3">
    <path d="M 44.57 246.04 
L 44.57 26.88 
" style="fill: none; stroke: #000000; stroke-width: 0.8; stroke-linejoin: miter; stroke-linecap: square"/>
   </g>
   <g id="patch_4">
    <path d="M 687.706758 246.04 
L 687.706758 26.88 
" style="fill: none; stroke: #000000; stroke-width: 0.8; stroke-linejoin: miter; stroke-linecap: square"/>
   </g>
   <g id="patch_5">
    <path d="M 44.57 246.04 
L 687.706758 246.04 
" style="fill: none; stroke: #000000; stroke-width: 0.8; stroke-linejoin: miter; stroke-linecap: square"/>
   </g>
   <g id="patch_6">
    <path d="M 44.57 26.88 
L 687.706758 26.88 
" style="fill: none; stroke: #000000; stroke-width: 0.8; stroke-linejoin: miter; stroke-linecap: square"/>
   </g>
   <g id="text_18">
    <!-- Luchtvochtigheid - v001/c00002/d001 -->
    <g transform="translate(251.848691 20.88) scale(0.12 -0.12)">
     <defs>
      <path id="DejaVuSans-4c" d="M 628 4666 
L 1259 4666 
L 1259 531 
L 3531 531 
L 3531 0 
L 628 0 
L 628 4666 
z
" transform="scale(0.015625)"/>
      <path id="DejaVuSans-75" d="M 544 1381 
L 544 3500 
L 1119 3500 
L 1119 1403 
Q 1119 906 1312 657 
Q 1506 409 1894 409 
Q 2359 409 2629 706 
Q 2900 1003 2900 1516 
L 2900 3500 
L 3475 3500 
L 3475 0 
L 2900 0 
L 2900 538 
Q 2691 219 2414 64 
Q 2138 -91 1772 -91 
Q 1169 -91 856 284 
Q 544 659 544 1381 
z
M 1991 3584 
L 1991 3584 
z
" transform="scale(0.015625)"/>
      <path id="DejaVuSans-76" d="M 191 3500 
L 800 3500 
L 1894 563 
L 2988 3500 
L 3597 3500 
L 2284 0 
L 1503 0 
L 191 3500 
z
" transform="scale(0.015625)"/>
      <path id="DejaVuSans-2f" d="M 1625 4666 
L 2156 4666 
L 531 -594 
L 0 -594 
L 1625 4666 
z
" transform="scale(0.015625)"/>
     </defs>
     <use xlink:href="#DejaVuSans-4c"/>
     <use xlink:href="#DejaVuSans-75" transform="translate(53.962891 0)"/>
     <use xlink:href="#DejaVuSans-63" transform="translate(117.341797 0)"/>
     <use xlink:href="#DejaVuSans-68" transform="translate(172.322266 0)"/>
     <use xlink:href="#DejaVuSans-74" transform="translate(235.701172 0)"/>
     <use xlink:href="#DejaVuSans-76" transform="translate(274.910156 0)"/>
     <use xlink:href="#DejaVuSans-6f" transform="translate(334.089844 0)"/>
     <use xlink:href="#DejaVuSans-63" transform="translate(395.271484 0)"/>
     <use xlink:href="#DejaVuSans-68" transform="translate(450.251953 0)"/>
     <use xlink:href="#DejaVuSans-74" transform="translate(513.630859 0)"/>
     <use xlink:href="#DejaVuSans-69" transform="translate(552.839844 0)"/>
     <use xlink:href="#DejaVuSans-67" transform="translate(580.623047 0)"/>
     <use xlink:href="#DejaVuSans-68" transform="translate(644.099609 0)"/>
     <use xlink:href="#DejaVuSans-65" transform="translate(707.478516 0)"/>
     <use xlink:href="#DejaVuSans-69" transform="translate(769.001953 0)"/>
     <use xlink:href="#DejaVuSans-64" transform="translate(796.785156 0)"/>
     <use xlink:href="#DejaVuSans-20" transform="translate(860.261719 0)"/>
     <use xlink:href="#DejaVuSans-2d" transform="translate(892.048828 0)"/>
     <use xlink:href="#DejaVuSans-20" transform="translate(928.132812 0)"/>
     <use xlink:href="#DejaVuSans-76" transform="translate(959.919922 0)"/>
     <use xlink:href="#DejaVuSans-30" transform="translate(1019.099609 0)"/>
     <use xlink:href="#DejaVuSans-30" transform="translate(1082.722656 0)"/>
     <use xlink:href="#DejaVuSans-31" transform="translate(1146.345703 0)"/>
     <use xlink:href="#DejaVuSans-2f" transform="translate(1209.96875 0)"/>
     <use xlink:href="#DejaVuSans-63" transform="translate(1243.660156 0)"/>
     <use xlink:href="#DejaVuSans-30" transform="translate(1298.640625 0)"/>
     <use xlink:href="#DejaVuSans-30" transform="translate(1362.263672 0)"/>
     <use xlink:href="#DejaVuSans-30" transform="translate(1425.886719 0)"/>
     <use xlink:href="#DejaVuSans-30" transform="translate(1489.509766 0)"/>
     <use xlink:href="#DejaVuSans-32" transform="translate(1553.132812 0)"/>
     <use xlink:href="#DejaVuSans-2f" transform="translate(1616.755859 0)"/>
     <use xlink:href="#DejaVuSans-64" transform="translate(1650.447266 0)"/>
     <use xlink:href="#DejaVuSans-30" transform="translate(1713.923828 0)"/>
     <use xlink:href="#DejaVuSans-30" transform="translate(1777.546875 0)"/>
     <use xlink:href="#DejaVuSans-31" transform="translate(1841.169922 0)"/>
    </g>
   </g>
   <g id="legend_1">
    <g id="patch_7">
     <path d="M 290.666504 78.914375 
L 441.610254 78.914375 
Q 443.610254 78.914375 443.610254 76.914375 
L 443.610254 33.88 
Q 443.610254 31.88 441.610254 31.88 
L 290.666504 31.88 
Q 288.666504 31.88 288.666504 33.88 
L 288.666504 76.914375 
Q 288.666504 78.914375 290.666504 78.914375 
z
" style="fill: #ffffff; opacity: 0.8; stroke: #cccccc; stroke-linejoin: miter"/>
    </g>
    <g id="line2d_18">
     <path d="M 292.666504 39.978438 
L 302.666504 39.978438 
L 312.666504 39.978438 
" style="fill: none; stroke: #1f77b4; stroke-width: 2; stroke-linecap: square"/>
    </g>
    <g id="text_19">
     <!-- Hive -->
     <g transform="translate(320.666504 43.478438) scale(0.1 -0.1)">
      <defs>
       <path id="DejaVuSans-48" d="M 628 4666 
L 1259 4666 
L 1259 2753 
L 3553 2753 
L 3553 4666 
L 4184 4666 
L 4184 0 
L 3553 0 
L 3553 2222 
L 1259 2222 
L 1259 0 
L 628 0 
L 628 4666 
z
" transform="scale(0.015625)"/>
      </defs>
      <use xlink:href="#DejaVuSans-48"/>
      <use xlink:href="#DejaVuSans-69" transform="translate(75.195312 0)"/>
      <use xlink:href="#DejaVuSans-76" transform="translate(102.978516 0)"/>
      <use xlink:href="#DejaVuSans-65" transform="translate(162.158203 0)"/>
     </g>
    </g>
    <g id="line2d_19">
     <path d="M 292.666504 54.656563 
L 302.666504 54.656563 
L 312.666504 54.656563 
" style="fill: none; stroke-dasharray: 5.55,2.4; stroke-dashoffset: 0; stroke: #808080; stroke-width: 1.5"/>
    </g>
    <g id="text_20">
     <!-- Gemiddelde (alle hives) -->
     <g transform="translate(320.666504 58.156563) scale(0.1 -0.1)">
      <defs>
       <path id="DejaVuSans-47" d="M 3809 666 
L 3809 1919 
L 2778 1919 
L 2778 2438 
L 4434 2438 
L 4434 434 
Q 4069 175 3628 42 
Q 3188 -91 2688 -91 
Q 1594 -91 976 548 
Q 359 1188 359 2328 
Q 359 3472 976 4111 
Q 1594 4750 2688 4750 
Q 3144 4750 3555 4637 
Q 3966 4525 4313 4306 
L 4313 3634 
Q 3963 3931 3569 4081 
Q 3175 4231 2741 4231 
Q 1884 4231 1454 3753 
Q 1025 3275 1025 2328 
Q 1025 1384 1454 906 
Q 1884 428 2741 428 
Q 3075 428 3337 486 
Q 3600 544 3809 666 
z
" transform="scale(0.015625)"/>
       <path id="DejaVuSans-6d" d="M 3328 2828 
Q 3544 3216 3844 3400 
Q 4144 3584 4550 3584 
Q 5097 3584 5394 3201 
Q 5691 2819 5691 2113 
L 5691 0 
L 5113 0 
L 5113 2094 
Q 5113 2597 4934 2840 
Q 4756 3084 4391 3084 
Q 3944 3084 3684 2787 
Q 3425 2491 3425 1978 
L 3425 0 
L 2847 0 
L 2847 2094 
Q 2847 2600 2669 2842 
Q 2491 3084 2119 3084 
Q 1678 3084 1418 2786 
Q 1159 2488 1159 1978 
L 1159 0 
L 581 0 
L 581 3500 
L 1159 3500 
L 1159 2956 
Q 1356 3278 1631 3431 
Q 1906 3584 2284 3584 
Q 2666 3584 2933 3390 
Q 3200 3197 3328 2828 
z
" transform="scale(0.015625)"/>
       <path id="DejaVuSans-61" d="M 2194 1759 
Q 1497 1759 1228 1600 
Q 959 1441 959 1056 
Q 959 750 1161 570 
Q 1363 391 1709 391 
Q 2188 391 2477 730 
Q 2766 1069 2766 1631 
L 2766 1759 
L 2194 1759 
z
M 3341 1997 
L 3341 0 
L 2766 0 
L 2766 531 
Q 2569 213 2275 61 
Q 1981 -91 1556 -91 
Q 1019 -91 701 211 
Q 384 513 384 1019 
Q 384 1609 779 1909 
Q 1175 2209 1959 2209 
L 2766 2209 
L 2766 2266 
Q 2766 2663 2505 2880 
Q 2244 3097 1772 3097 
Q 1472 3097 1187 3025 
Q 903 2953 641 2809 
L 641 3341 
Q 956 3463 1253 3523 
Q 1550 3584 1831 3584 
Q 2591 3584 2966 3190 
Q 3341 2797 3341 1997 
z
" transform="scale(0.015625)"/>
       <path id="DejaVuSans-73" d="M 2834 3397 
L 2834 2853 
Q 2591 2978 2328 3040 
Q 2066 3103 1784 3103 
Q 1356 3103 1142 2972 
Q 928 2841 928 2578 
Q 928 2378 1081 2264 
Q 1234 2150 1697 2047 
L 1894 2003 
Q 2506 1872 2764 1633 
Q 3022 1394 3022 966 
Q 3022 478 2636 193 
Q 2250 -91 1575 -91 
Q 1294 -91 989 -36 
Q 684 19 347 128 
L 347 722 
Q 666 556 975 473 
Q 1284 391 1588 391 
Q 1994 391 2212 530 
Q 2431 669 2431 922 
Q 2431 1156 2273 1281 
Q 2116 1406 1581 1522 
L 1381 1569 
Q 847 1681 609 1914 
Q 372 2147 372 2553 
Q 372 3047 722 3315 
Q 1072 3584 1716 3584 
Q 2034 3584 2315 3537 
Q 2597 3491 2834 3397 
z
" transform="scale(0.015625)"/>
      </defs>
      <use xlink:href="#DejaVuSans-47"/>
      <use xlink:href="#DejaVuSans-65" transform="translate(77.490234 0)"/>
      <use xlink:href="#DejaVuSans-6d" transform="translate(139.013672 0)"/>
      <use xlink:href="#DejaVuSans-69" transform="translate(236.425781 0)"/>
      <use xlink:href="#DejaVuSans-64" transform="translate(264.208984 0)"/>
      <use xlink:href="#DejaVuSans-64" transform="translate(327.685547 0)"/>
      <use xlink:href="#DejaVuSans-65" transform="translate(391.162109 0)"/>
      <use xlink:href="#DejaVuSans-6c" transform="translate(452.685547 0)"/>
      <use xlink:href="#DejaVuSans-64" transform="translate(480.46875 0)"/>
      <use xlink:href="#DejaVuSans-65" transform="translate(543.945312 0)"/>
      <use xlink:href="#DejaVuSans-20" transform="translate(605.46875 0)"/>
      <use xlink:href="#DejaVuSans-28" transform="translate(637.255859 0)"/>
      <use xlink:href="#DejaVuSans-61" transform="translate(676.269531 0)"/>
      <use xlink:href="#DejaVuSans-6c" transform="translate(737.548828 0)"/>
      <use xlink:href="#DejaVuSans-6c" transform="translate(765.332031 0)"/>
      <use xlink:href="#DejaVuSans-65" transform="translate(793.115234 0)"/>
      <use xlink:href="#DejaVuSans-20" transform="translate(854.638672 0)"/>
      <use xlink:href="#DejaVuSans-68" transform="translate(886.425781 0)"/>
      <use xlink:href="#DejaVuSans-69" transform="translate(949.804688 0)"/>
      <use xlink:href="#DejaVuSans-76" transform="translate(977.587891 0)"/>
      <use xlink:href="#DejaVuSans-65" transform="translate(1036.767578 0)"/>
      <use xlink:href="#DejaVuSans-73" transform="translate(1098.291016 0)"/>
      <use xlink:href="#DejaVuSans-29" transform="translate(1150.390625 0)"/>
     </g>
    </g>
    <g id="patch_8">
     <path d="M 292.666504 72.834688 
L 312.666504 72.834688 
L 312.666504 65.834688 
L 292.666504 65.834688 
z
" style="fill: #808080; fill-opacity: 0.2; stroke: #808080; stroke-opacity: 0.2; stroke-linejoin: miter"/>
    </g>
    <g id="text_21">
     <!-- 2 Std Dev -->
     <g transform="translate(320.666504 72.834688) scale(0.1 -0.1)">
      <defs>
       <path id="DejaVuSans-b1" d="M 2944 4013 
L 2944 2803 
L 4684 2803 
L 4684 2272 
L 2944 2272 
L 2944 1063 
L 2419 1063 
L 2419 2272 
L 678 2272 
L 678 2803 
L 2419 2803 
L 2419 4013 
L 2944 4013 
z
M 678 531 
L 4684 531 
L 4684 0 
L 678 0 
L 678 531 
z
" transform="scale(0.015625)"/>
       <path id="DejaVuSans-53" d="M 3425 4513 
L 3425 3897 
Q 3066 4069 2747 4153 
Q 2428 4238 2131 4238 
Q 1616 4238 1336 4038 
Q 1056 3838 1056 3469 
Q 1056 3159 1242 3001 
Q 1428 2844 1947 2747 
L 2328 2669 
Q 3034 2534 3370 2195 
Q 3706 1856 3706 1288 
Q 3706 609 3251 259 
Q 2797 -91 1919 -91 
Q 1588 -91 1214 -16 
Q 841 59 441 206 
L 441 856 
Q 825 641 1194 531 
Q 1563 422 1919 422 
Q 2459 422 2753 634 
Q 3047 847 3047 1241 
Q 3047 1584 2836 1778 
Q 2625 1972 2144 2069 
L 1759 2144 
Q 1053 2284 737 2584 
Q 422 2884 422 3419 
Q 422 4038 858 4394 
Q 1294 4750 2059 4750 
Q 2388 4750 2728 4690 
Q 3069 4631 3425 4513 
z
" transform="scale(0.015625)"/>
       <path id="DejaVuSans-44" d="M 1259 4147 
L 1259 519 
L 2022 519 
Q 2988 519 3436 956 
Q 3884 1394 3884 2338 
Q 3884 3275 3436 3711 
Q 2988 4147 2022 4147 
L 1259 4147 
z
M 628 4666 
L 1925 4666 
Q 3281 4666 3915 4102 
Q 4550 3538 4550 2338 
Q 4550 1131 3912 565 
Q 3275 0 1925 0 
L 628 0 
L 628 4666 
z
" transform="scale(0.015625)"/>
      </defs>
      <use xlink:href="#DejaVuSans-b1"/>
      <use xlink:href="#DejaVuSans-32" transform="translate(83.789062 0)"/>
      <use xlink:href="#DejaVuSans-20" transform="translate(147.412109 0)"/>
      <use xlink:href="#DejaVuSans-53" transform="translate(179.199219 0)"/>
      <use xlink:href="#DejaVuSans-74" transform="translate(242.675781 0)"/>
      <use xlink:href="#DejaVuSans-64" transform="translate(281.884766 0)"/>
      <use xlink:href="#DejaVuSans-20" transform="translate(345.361328 0)"/>
      <use xlink:href="#DejaVuSans-44" transform="translate(377.148438 0)"/>
      <use xlink:href="#DejaVuSans-65" transform="translate(454.150391 0)"/>
      <use xlink:href="#DejaVuSans-76" transform="translate(515.673828 0)"/>
     </g>
    </g>
   </g>
  </g>
 </g>
 <defs>
  <clipPath id="pca092e65e9">
   <rect x="44.57" y="26.88" width="643.136758" height="219.16"/>
  </clipPath>
 </defs>
</svg>
