<?xml version="1.0" encoding="utf-8" standalone="no"?>
<!DOCTYPE svg PUBLIC "-//W3C//DTD SVG 1.1//EN"
  "http://www.w3.org/Graphics/SVG/1.1/DTD/svg11.dtd">
<svg xmlns:xlink="http://www.w3.org/1999/xlink" width="720pt" height="288pt" viewBox="0 0 720 288" xmlns="http://www.w3.org/2000/svg" version="1.1">
 <metadata>
  <rdf:RDF xmlns:dc="http://purl.org/dc/elements/1.1/" xmlns:cc="http://creativecommons.org/ns#" xmlns:rdf="http://www.w3.org/1999/02/22-rdf-syntax-ns#">
   <cc:Work>
    <dc:type rdf:resource="http://purl.org/dc/dcmitype/StillImage"/>
    <dc:date>2025-05-28T06:24:12.327310</dc:date>
    <dc:format>image/svg+xml</dc:format>
    <dc:creator>
     <cc:Agent>
      <dc:title>Matplotlib v3.10.3, https://matplotlib.org/</dc:title>
     </cc:Agent>
    </dc:creator>
   </cc:Work>
  </rdf:RDF>
 </metadata>
 <defs>
  <style type="text/css">*{stroke-linejoin: round; stroke-linecap: butt}</style>
 </defs>
 <g id="figure_1">
  <g id="patch_1">
   <path d="M 0 288 
L 720 288 
L 720 0 
L 0 0 
z
" style="fill: #ffffff"/>
  </g>
  <g id="axes_1">
   <g id="patch_2">
    <path d="M 63.47 246.04 
L 709.2 246.04 
L 709.2 26.88 
L 63.47 26.88 
z
" style="fill: #ffffff"/>
   </g>
   <g id="FillBetweenPolyCollection_1">
    <defs>
     <path id="me90c3ea535" d="M 92.821364 -185.478752 
L 92.821364 -88.41102 
L 96.513359 -81.382527 
L 100.205354 -78.308313 
L 103.89735 -76.134376 
L 107.589345 -73.77437 
L 111.281341 -68.050575 
L 114.973336 -75.991131 
L 118.665332 -79.458834 
L 122.357327 -85.635668 
L 126.049322 -90.168993 
L 129.741318 -86.590399 
L 133.433313 -70.208619 
L 137.125309 -80.50332 
L 140.817304 -92.333913 
L 144.5093 -104.66846 
L 148.201295 -78.169103 
L 151.89329 -74.649865 
L 155.585286 -80.299894 
L 159.277281 -103.726132 
L 162.969277 -95.259239 
L 166.661272 -86.086108 
L 170.353268 -72.586376 
L 174.045263 -64.860572 
L 177.737258 -51.921818 
L 181.429254 -77.099199 
L 185.121249 -75.368548 
L 188.813245 -80.362121 
L 192.50524 -85.911562 
L 196.197236 -83.40921 
L 199.889231 -77.233272 
L 203.581226 -92.607434 
L 207.273222 -82.143191 
L 210.965217 -90.005218 
L 214.657213 -96.538353 
L 218.349208 -86.049803 
L 222.041204 -102.988763 
L 225.733199 -111.6156 
L 229.425194 -104.304319 
L 233.11719 -114.878715 
L 236.809185 -102.51857 
L 240.501181 -107.147398 
L 244.193176 -107.102632 
L 247.885172 -90.11595 
L 251.577167 -69.643504 
L 255.269162 -67.936608 
L 258.961158 -87.611267 
L 262.653153 -55.671773 
L 266.345149 -71.934611 
L 270.037144 -101.880551 
L 273.72914 -111.93254 
L 277.421135 -115.219768 
L 281.11313 -104.556773 
L 284.805126 -106.288263 
L 288.497121 -84.925962 
L 292.189117 -91.910152 
L 295.881112 -99.020515 
L 299.573107 -93.836558 
L 303.265103 -90.491459 
L 306.957098 -86.479455 
L 310.649094 -86.289596 
L 314.341089 -91.538997 
L 318.033085 -85.380647 
L 321.72508 -81.265766 
L 325.417075 -69.501614 
L 329.109071 -74.780371 
L 332.801066 -53.51128 
L 336.493062 -77.658343 
L 340.185057 -93.442975 
L 343.877053 -88.607371 
L 347.569048 -82.178017 
L 351.261043 -71.191018 
L 354.953039 -83.079811 
L 358.645034 -81.737402 
L 362.33703 -54.832151 
L 366.029025 -78.197843 
L 369.721021 -89.236868 
L 373.413016 -84.379564 
L 377.105011 -74.369559 
L 380.797007 -80.79418 
L 384.489002 -75.671379 
L 388.180998 -81.599051 
L 391.872993 -91.153834 
L 395.564989 -62.336803 
L 399.256984 -77.671164 
L 402.948979 -66.802465 
L 406.640975 -88.087326 
L 410.33297 -83.638141 
L 414.024966 -86.172437 
L 417.716961 -75.256142 
L 421.408957 -87.205591 
L 425.100952 -68.607471 
L 428.792947 -82.285516 
L 432.484943 -60.063542 
L 436.176938 -70.974697 
L 439.868934 -70.595436 
L 443.560929 -85.647191 
L 447.252925 -90.592599 
L 450.94492 -80.730681 
L 454.636915 -91.095977 
L 458.328911 -79.971519 
L 462.020906 -66.320181 
L 465.712902 -68.006985 
L 469.404897 -63.810454 
L 473.096893 -75.148002 
L 476.788888 -79.600997 
L 480.480883 -67.099115 
L 484.172879 -84.315631 
L 487.864874 -100.457252 
L 491.55687 -103.186937 
L 495.248865 -103.852444 
L 498.94086 -98.076459 
L 502.632856 -86.692425 
L 506.324851 -86.214909 
L 510.016847 -77.673308 
L 513.708842 -80.520998 
L 517.400838 -100.66233 
L 521.092833 -79.060044 
L 524.784828 -52.234921 
L 528.476824 -71.567817 
L 532.168819 -75.357696 
L 535.860815 -58.694105 
L 539.55281 -64.917245 
L 543.244806 -66.930105 
L 546.936801 -81.451683 
L 550.628796 -67.478286 
L 554.320792 -73.752137 
L 558.012787 -83.138355 
L 561.704783 -64.262197 
L 565.396778 -77.644757 
L 569.088774 -76.444947 
L 572.780769 -70.271961 
L 576.472764 -87.765542 
L 580.16476 -69.384118 
L 583.856755 -77.279917 
L 587.548751 -68.649254 
L 591.240746 -79.7523 
L 594.932742 -76.281032 
L 598.624737 -76.10466 
L 602.316732 -72.668258 
L 606.008728 -72.385714 
L 609.700723 -82.809752 
L 613.392719 -67.791129 
L 617.084714 -66.432528 
L 620.77671 -64.959006 
L 624.468705 -65.414682 
L 628.1607 -86.014447 
L 631.852696 -75.267115 
L 635.544691 -84.764718 
L 639.236687 -69.589006 
L 642.928682 -101.520327 
L 646.620678 -100.640959 
L 650.312673 -101.894567 
L 654.004668 -108.630012 
L 657.696664 -99.170582 
L 661.388659 -82.102686 
L 661.388659 -171.740518 
L 661.388659 -171.740518 
L 657.696664 -160.256002 
L 654.004668 -129.360737 
L 650.312673 -123.77855 
L 646.620678 -133.941561 
L 642.928682 -164.798343 
L 639.236687 -196.124085 
L 635.544691 -178.457007 
L 631.852696 -204.850196 
L 628.1607 -172.728189 
L 624.468705 -197.830061 
L 620.77671 -205.124006 
L 617.084714 -199.265218 
L 613.392719 -188.007903 
L 609.700723 -189.507269 
L 606.008728 -194.159295 
L 602.316732 -180.571231 
L 598.624737 -190.36746 
L 594.932742 -183.405321 
L 591.240746 -188.810025 
L 587.548751 -191.379071 
L 583.856755 -189.709547 
L 580.16476 -190.479798 
L 576.472764 -167.743689 
L 572.780769 -193.725234 
L 569.088774 -185.810044 
L 565.396778 -185.737542 
L 561.704783 -194.859679 
L 558.012787 -179.89649 
L 554.320792 -184.703329 
L 550.628796 -188.257831 
L 546.936801 -169.171269 
L 543.244806 -177.872168 
L 539.55281 -190.516138 
L 535.860815 -216.443542 
L 532.168819 -203.687987 
L 528.476824 -198.811243 
L 524.784828 -206.083536 
L 521.092833 -172.614039 
L 517.400838 -158.410224 
L 513.708842 -191.301038 
L 510.016847 -194.079676 
L 506.324851 -189.201688 
L 502.632856 -180.39733 
L 498.94086 -170.662881 
L 495.248865 -165.223937 
L 491.55687 -161.298008 
L 487.864874 -175.472854 
L 484.172879 -170.129316 
L 480.480883 -184.39302 
L 476.788888 -185.554743 
L 473.096893 -190.862673 
L 469.404897 -206.496813 
L 465.712902 -190.124044 
L 462.020906 -199.546908 
L 458.328911 -189.683039 
L 454.636915 -173.523237 
L 450.94492 -176.043413 
L 447.252925 -174.00568 
L 443.560929 -177.884722 
L 439.868934 -192.265682 
L 436.176938 -197.676958 
L 432.484943 -213.820749 
L 428.792947 -179.659836 
L 425.100952 -198.612168 
L 421.408957 -178.333225 
L 417.716961 -202.637024 
L 414.024966 -177.63141 
L 410.33297 -180.282329 
L 406.640975 -168.761302 
L 402.948979 -190.51528 
L 399.256984 -167.745456 
L 395.564989 -194.757345 
L 391.872993 -159.706965 
L 388.180998 -153.960615 
L 384.489002 -167.311967 
L 380.797007 -144.29254 
L 377.105011 -159.121824 
L 373.413016 -144.784535 
L 369.721021 -143.36341 
L 366.029025 -146.423047 
L 362.33703 -182.154049 
L 358.645034 -163.462196 
L 354.953039 -169.250817 
L 351.261043 -180.890255 
L 347.569048 -168.673465 
L 343.877053 -165.053886 
L 340.185057 -169.129877 
L 336.493062 -172.976666 
L 332.801066 -247.565733 
L 329.109071 -229.728656 
L 325.417075 -220.857153 
L 321.72508 -228.027057 
L 318.033085 -200.628093 
L 314.341089 -181.773694 
L 310.649094 -190.231291 
L 306.957098 -205.83196 
L 303.265103 -200.197225 
L 299.573107 -190.348596 
L 295.881112 -185.420572 
L 292.189117 -192.324325 
L 288.497121 -196.299804 
L 284.805126 -177.307973 
L 281.11313 -174.061991 
L 277.421135 -174.372847 
L 273.72914 -161.507295 
L 270.037144 -174.380019 
L 266.345149 -230.833857 
L 262.653153 -251.158182 
L 258.961158 -206.642931 
L 255.269162 -233.366963 
L 251.577167 -242.734207 
L 247.885172 -222.294644 
L 244.193176 -177.238712 
L 240.501181 -169.291064 
L 236.809185 -175.90597 
L 233.11719 -169.389193 
L 229.425194 -178.924514 
L 225.733199 -158.567812 
L 222.041204 -180.018664 
L 218.349208 -195.972257 
L 214.657213 -187.16179 
L 210.965217 -161.844236 
L 207.273222 -165.895229 
L 203.581226 -147.176484 
L 199.889231 -160.599642 
L 196.197236 -158.395861 
L 192.50524 -160.421373 
L 188.813245 -160.007098 
L 185.121249 -174.84831 
L 181.429254 -174.953028 
L 177.737258 -196.539684 
L 174.045263 -193.228259 
L 170.353268 -164.098953 
L 166.661272 -178.694776 
L 162.969277 -177.146454 
L 159.277281 -171.320541 
L 155.585286 -206.839168 
L 151.89329 -204.123993 
L 148.201295 -188.126549 
L 144.5093 -170.939401 
L 140.817304 -190.392921 
L 137.125309 -195.176881 
L 133.433313 -187.369991 
L 129.741318 -162.854278 
L 126.049322 -158.101793 
L 122.357327 -165.312268 
L 118.665332 -190.20778 
L 114.973336 -189.643044 
L 111.281341 -207.15448 
L 107.589345 -199.932906 
L 103.89735 -186.258172 
L 100.205354 -180.445832 
L 96.513359 -199.084211 
L 92.821364 -185.478752 
z
" style="stroke: #808080; stroke-opacity: 0.2"/>
    </defs>
    <g clip-path="url(#p854f95fab8)">
     <use xlink:href="#me90c3ea535" x="0" y="288" style="fill: #808080; fill-opacity: 0.2; stroke: #808080; stroke-opacity: 0.2"/>
    </g>
   </g>
   <g id="matplotlib.axis_1">
    <g id="xtick_1">
     <g id="line2d_1">
      <defs>
       <path id="m489a51da58" d="M 0 0 
L 0 3.5 
" style="stroke: #000000; stroke-width: 0.8"/>
      </defs>
      <g>
       <use xlink:href="#m489a51da58" x="137.125309" y="246.04" style="stroke: #000000; stroke-width: 0.8"/>
      </g>
     </g>
     <g id="text_1">
      <!-- 05-25 12 -->
      <g transform="translate(114.64484 260.638438) scale(0.1 -0.1)">
       <defs>
        <path id="DejaVuSans-30" d="M 2034 4250 
Q 1547 4250 1301 3770 
Q 1056 3291 1056 2328 
Q 1056 1369 1301 889 
Q 1547 409 2034 409 
Q 2525 409 2770 889 
Q 3016 1369 3016 2328 
Q 3016 3291 2770 3770 
Q 2525 4250 2034 4250 
z
M 2034 4750 
Q 2819 4750 3233 4129 
Q 3647 3509 3647 2328 
Q 3647 1150 3233 529 
Q 2819 -91 2034 -91 
Q 1250 -91 836 529 
Q 422 1150 422 2328 
Q 422 3509 836 4129 
Q 1250 4750 2034 4750 
z
" transform="scale(0.015625)"/>
        <path id="DejaVuSans-35" d="M 691 4666 
L 3169 4666 
L 3169 4134 
L 1269 4134 
L 1269 2991 
Q 1406 3038 1543 3061 
Q 1681 3084 1819 3084 
Q 2600 3084 3056 2656 
Q 3513 2228 3513 1497 
Q 3513 744 3044 326 
Q 2575 -91 1722 -91 
Q 1428 -91 1123 -41 
Q 819 9 494 109 
L 494 744 
Q 775 591 1075 516 
Q 1375 441 1709 441 
Q 2250 441 2565 725 
Q 2881 1009 2881 1497 
Q 2881 1984 2565 2268 
Q 2250 2553 1709 2553 
Q 1456 2553 1204 2497 
Q 953 2441 691 2322 
L 691 4666 
z
" transform="scale(0.015625)"/>
        <path id="DejaVuSans-2d" d="M 313 2009 
L 1997 2009 
L 1997 1497 
L 313 1497 
L 313 2009 
z
" transform="scale(0.015625)"/>
        <path id="DejaVuSans-32" d="M 1228 531 
L 3431 531 
L 3431 0 
L 469 0 
L 469 531 
Q 828 903 1448 1529 
Q 2069 2156 2228 2338 
Q 2531 2678 2651 2914 
Q 2772 3150 2772 3378 
Q 2772 3750 2511 3984 
Q 2250 4219 1831 4219 
Q 1534 4219 1204 4116 
Q 875 4013 500 3803 
L 500 4441 
Q 881 4594 1212 4672 
Q 1544 4750 1819 4750 
Q 2544 4750 2975 4387 
Q 3406 4025 3406 3419 
Q 3406 3131 3298 2873 
Q 3191 2616 2906 2266 
Q 2828 2175 2409 1742 
Q 1991 1309 1228 531 
z
" transform="scale(0.015625)"/>
        <path id="DejaVuSans-20" transform="scale(0.015625)"/>
        <path id="DejaVuSans-31" d="M 794 531 
L 1825 531 
L 1825 4091 
L 703 3866 
L 703 4441 
L 1819 4666 
L 2450 4666 
L 2450 531 
L 3481 531 
L 3481 0 
L 794 0 
L 794 531 
z
" transform="scale(0.015625)"/>
       </defs>
       <use xlink:href="#DejaVuSans-30"/>
       <use xlink:href="#DejaVuSans-35" transform="translate(63.623047 0)"/>
       <use xlink:href="#DejaVuSans-2d" transform="translate(127.246094 0)"/>
       <use xlink:href="#DejaVuSans-32" transform="translate(163.330078 0)"/>
       <use xlink:href="#DejaVuSans-35" transform="translate(226.953125 0)"/>
       <use xlink:href="#DejaVuSans-20" transform="translate(290.576172 0)"/>
       <use xlink:href="#DejaVuSans-31" transform="translate(322.363281 0)"/>
       <use xlink:href="#DejaVuSans-32" transform="translate(385.986328 0)"/>
      </g>
     </g>
    </g>
    <g id="xtick_2">
     <g id="line2d_2">
      <g>
       <use xlink:href="#m489a51da58" x="225.733199" y="246.04" style="stroke: #000000; stroke-width: 0.8"/>
      </g>
     </g>
     <g id="text_2">
      <!-- 05-26 00 -->
      <g transform="translate(203.25273 260.638438) scale(0.1 -0.1)">
       <defs>
        <path id="DejaVuSans-36" d="M 2113 2584 
Q 1688 2584 1439 2293 
Q 1191 2003 1191 1497 
Q 1191 994 1439 701 
Q 1688 409 2113 409 
Q 2538 409 2786 701 
Q 3034 994 3034 1497 
Q 3034 2003 2786 2293 
Q 2538 2584 2113 2584 
z
M 3366 4563 
L 3366 3988 
Q 3128 4100 2886 4159 
Q 2644 4219 2406 4219 
Q 1781 4219 1451 3797 
Q 1122 3375 1075 2522 
Q 1259 2794 1537 2939 
Q 1816 3084 2150 3084 
Q 2853 3084 3261 2657 
Q 3669 2231 3669 1497 
Q 3669 778 3244 343 
Q 2819 -91 2113 -91 
Q 1303 -91 875 529 
Q 447 1150 447 2328 
Q 447 3434 972 4092 
Q 1497 4750 2381 4750 
Q 2619 4750 2861 4703 
Q 3103 4656 3366 4563 
z
" transform="scale(0.015625)"/>
       </defs>
       <use xlink:href="#DejaVuSans-30"/>
       <use xlink:href="#DejaVuSans-35" transform="translate(63.623047 0)"/>
       <use xlink:href="#DejaVuSans-2d" transform="translate(127.246094 0)"/>
       <use xlink:href="#DejaVuSans-32" transform="translate(163.330078 0)"/>
       <use xlink:href="#DejaVuSans-36" transform="translate(226.953125 0)"/>
       <use xlink:href="#DejaVuSans-20" transform="translate(290.576172 0)"/>
       <use xlink:href="#DejaVuSans-30" transform="translate(322.363281 0)"/>
       <use xlink:href="#DejaVuSans-30" transform="translate(385.986328 0)"/>
      </g>
     </g>
    </g>
    <g id="xtick_3">
     <g id="line2d_3">
      <g>
       <use xlink:href="#m489a51da58" x="314.341089" y="246.04" style="stroke: #000000; stroke-width: 0.8"/>
      </g>
     </g>
     <g id="text_3">
      <!-- 05-26 12 -->
      <g transform="translate(291.86062 260.638438) scale(0.1 -0.1)">
       <use xlink:href="#DejaVuSans-30"/>
       <use xlink:href="#DejaVuSans-35" transform="translate(63.623047 0)"/>
       <use xlink:href="#DejaVuSans-2d" transform="translate(127.246094 0)"/>
       <use xlink:href="#DejaVuSans-32" transform="translate(163.330078 0)"/>
       <use xlink:href="#DejaVuSans-36" transform="translate(226.953125 0)"/>
       <use xlink:href="#DejaVuSans-20" transform="translate(290.576172 0)"/>
       <use xlink:href="#DejaVuSans-31" transform="translate(322.363281 0)"/>
       <use xlink:href="#DejaVuSans-32" transform="translate(385.986328 0)"/>
      </g>
     </g>
    </g>
    <g id="xtick_4">
     <g id="line2d_4">
      <g>
       <use xlink:href="#m489a51da58" x="402.948979" y="246.04" style="stroke: #000000; stroke-width: 0.8"/>
      </g>
     </g>
     <g id="text_4">
      <!-- 05-27 00 -->
      <g transform="translate(380.468511 260.638438) scale(0.1 -0.1)">
       <defs>
        <path id="DejaVuSans-37" d="M 525 4666 
L 3525 4666 
L 3525 4397 
L 1831 0 
L 1172 0 
L 2766 4134 
L 525 4134 
L 525 4666 
z
" transform="scale(0.015625)"/>
       </defs>
       <use xlink:href="#DejaVuSans-30"/>
       <use xlink:href="#DejaVuSans-35" transform="translate(63.623047 0)"/>
       <use xlink:href="#DejaVuSans-2d" transform="translate(127.246094 0)"/>
       <use xlink:href="#DejaVuSans-32" transform="translate(163.330078 0)"/>
       <use xlink:href="#DejaVuSans-37" transform="translate(226.953125 0)"/>
       <use xlink:href="#DejaVuSans-20" transform="translate(290.576172 0)"/>
       <use xlink:href="#DejaVuSans-30" transform="translate(322.363281 0)"/>
       <use xlink:href="#DejaVuSans-30" transform="translate(385.986328 0)"/>
      </g>
     </g>
    </g>
    <g id="xtick_5">
     <g id="line2d_5">
      <g>
       <use xlink:href="#m489a51da58" x="491.55687" y="246.04" style="stroke: #000000; stroke-width: 0.8"/>
      </g>
     </g>
     <g id="text_5">
      <!-- 05-27 12 -->
      <g transform="translate(469.076401 260.638438) scale(0.1 -0.1)">
       <use xlink:href="#DejaVuSans-30"/>
       <use xlink:href="#DejaVuSans-35" transform="translate(63.623047 0)"/>
       <use xlink:href="#DejaVuSans-2d" transform="translate(127.246094 0)"/>
       <use xlink:href="#DejaVuSans-32" transform="translate(163.330078 0)"/>
       <use xlink:href="#DejaVuSans-37" transform="translate(226.953125 0)"/>
       <use xlink:href="#DejaVuSans-20" transform="translate(290.576172 0)"/>
       <use xlink:href="#DejaVuSans-31" transform="translate(322.363281 0)"/>
       <use xlink:href="#DejaVuSans-32" transform="translate(385.986328 0)"/>
      </g>
     </g>
    </g>
    <g id="xtick_6">
     <g id="line2d_6">
      <g>
       <use xlink:href="#m489a51da58" x="580.16476" y="246.04" style="stroke: #000000; stroke-width: 0.8"/>
      </g>
     </g>
     <g id="text_6">
      <!-- 05-28 00 -->
      <g transform="translate(557.684291 260.638438) scale(0.1 -0.1)">
       <defs>
        <path id="DejaVuSans-38" d="M 2034 2216 
Q 1584 2216 1326 1975 
Q 1069 1734 1069 1313 
Q 1069 891 1326 650 
Q 1584 409 2034 409 
Q 2484 409 2743 651 
Q 3003 894 3003 1313 
Q 3003 1734 2745 1975 
Q 2488 2216 2034 2216 
z
M 1403 2484 
Q 997 2584 770 2862 
Q 544 3141 544 3541 
Q 544 4100 942 4425 
Q 1341 4750 2034 4750 
Q 2731 4750 3128 4425 
Q 3525 4100 3525 3541 
Q 3525 3141 3298 2862 
Q 3072 2584 2669 2484 
Q 3125 2378 3379 2068 
Q 3634 1759 3634 1313 
Q 3634 634 3220 271 
Q 2806 -91 2034 -91 
Q 1263 -91 848 271 
Q 434 634 434 1313 
Q 434 1759 690 2068 
Q 947 2378 1403 2484 
z
M 1172 3481 
Q 1172 3119 1398 2916 
Q 1625 2713 2034 2713 
Q 2441 2713 2670 2916 
Q 2900 3119 2900 3481 
Q 2900 3844 2670 4047 
Q 2441 4250 2034 4250 
Q 1625 4250 1398 4047 
Q 1172 3844 1172 3481 
z
" transform="scale(0.015625)"/>
       </defs>
       <use xlink:href="#DejaVuSans-30"/>
       <use xlink:href="#DejaVuSans-35" transform="translate(63.623047 0)"/>
       <use xlink:href="#DejaVuSans-2d" transform="translate(127.246094 0)"/>
       <use xlink:href="#DejaVuSans-32" transform="translate(163.330078 0)"/>
       <use xlink:href="#DejaVuSans-38" transform="translate(226.953125 0)"/>
       <use xlink:href="#DejaVuSans-20" transform="translate(290.576172 0)"/>
       <use xlink:href="#DejaVuSans-30" transform="translate(322.363281 0)"/>
       <use xlink:href="#DejaVuSans-30" transform="translate(385.986328 0)"/>
      </g>
     </g>
    </g>
    <g id="xtick_7">
     <g id="line2d_7">
      <g>
       <use xlink:href="#m489a51da58" x="668.77265" y="246.04" style="stroke: #000000; stroke-width: 0.8"/>
      </g>
     </g>
     <g id="text_7">
      <!-- 05-28 12 -->
      <g transform="translate(646.292181 260.638438) scale(0.1 -0.1)">
       <use xlink:href="#DejaVuSans-30"/>
       <use xlink:href="#DejaVuSans-35" transform="translate(63.623047 0)"/>
       <use xlink:href="#DejaVuSans-2d" transform="translate(127.246094 0)"/>
       <use xlink:href="#DejaVuSans-32" transform="translate(163.330078 0)"/>
       <use xlink:href="#DejaVuSans-38" transform="translate(226.953125 0)"/>
       <use xlink:href="#DejaVuSans-20" transform="translate(290.576172 0)"/>
       <use xlink:href="#DejaVuSans-31" transform="translate(322.363281 0)"/>
       <use xlink:href="#DejaVuSans-32" transform="translate(385.986328 0)"/>
      </g>
     </g>
    </g>
    <g id="text_8">
     <!-- Tijd -->
     <g transform="translate(377.485 274.316562) scale(0.1 -0.1)">
      <defs>
       <path id="DejaVuSans-54" d="M -19 4666 
L 3928 4666 
L 3928 4134 
L 2272 4134 
L 2272 0 
L 1638 0 
L 1638 4134 
L -19 4134 
L -19 4666 
z
" transform="scale(0.015625)"/>
       <path id="DejaVuSans-69" d="M 603 3500 
L 1178 3500 
L 1178 0 
L 603 0 
L 603 3500 
z
M 603 4863 
L 1178 4863 
L 1178 4134 
L 603 4134 
L 603 4863 
z
" transform="scale(0.015625)"/>
       <path id="DejaVuSans-6a" d="M 603 3500 
L 1178 3500 
L 1178 -63 
Q 1178 -731 923 -1031 
Q 669 -1331 103 -1331 
L -116 -1331 
L -116 -844 
L 38 -844 
Q 366 -844 484 -692 
Q 603 -541 603 -63 
L 603 3500 
z
M 603 4863 
L 1178 4863 
L 1178 4134 
L 603 4134 
L 603 4863 
z
" transform="scale(0.015625)"/>
       <path id="DejaVuSans-64" d="M 2906 2969 
L 2906 4863 
L 3481 4863 
L 3481 0 
L 2906 0 
L 2906 525 
Q 2725 213 2448 61 
Q 2172 -91 1784 -91 
Q 1150 -91 751 415 
Q 353 922 353 1747 
Q 353 2572 751 3078 
Q 1150 3584 1784 3584 
Q 2172 3584 2448 3432 
Q 2725 3281 2906 2969 
z
M 947 1747 
Q 947 1113 1208 752 
Q 1469 391 1925 391 
Q 2381 391 2643 752 
Q 2906 1113 2906 1747 
Q 2906 2381 2643 2742 
Q 2381 3103 1925 3103 
Q 1469 3103 1208 2742 
Q 947 2381 947 1747 
z
" transform="scale(0.015625)"/>
      </defs>
      <use xlink:href="#DejaVuSans-54"/>
      <use xlink:href="#DejaVuSans-69" transform="translate(57.958984 0)"/>
      <use xlink:href="#DejaVuSans-6a" transform="translate(85.742188 0)"/>
      <use xlink:href="#DejaVuSans-64" transform="translate(113.525391 0)"/>
     </g>
    </g>
   </g>
   <g id="matplotlib.axis_2">
    <g id="ytick_1">
     <g id="line2d_8">
      <defs>
       <path id="m768451d034" d="M 0 0 
L -3.5 0 
" style="stroke: #000000; stroke-width: 0.8"/>
      </defs>
      <g>
       <use xlink:href="#m768451d034" x="63.47" y="236.953823" style="stroke: #000000; stroke-width: 0.8"/>
      </g>
     </g>
     <g id="text_9">
      <!-- 0 -->
      <g transform="translate(50.1075 240.753042) scale(0.1 -0.1)">
       <use xlink:href="#DejaVuSans-30"/>
      </g>
     </g>
    </g>
    <g id="ytick_2">
     <g id="line2d_9">
      <g>
       <use xlink:href="#m768451d034" x="63.47" y="212.292255" style="stroke: #000000; stroke-width: 0.8"/>
      </g>
     </g>
     <g id="text_10">
      <!-- 2500 -->
      <g transform="translate(31.02 216.091474) scale(0.1 -0.1)">
       <use xlink:href="#DejaVuSans-32"/>
       <use xlink:href="#DejaVuSans-35" transform="translate(63.623047 0)"/>
       <use xlink:href="#DejaVuSans-30" transform="translate(127.246094 0)"/>
       <use xlink:href="#DejaVuSans-30" transform="translate(190.869141 0)"/>
      </g>
     </g>
    </g>
    <g id="ytick_3">
     <g id="line2d_10">
      <g>
       <use xlink:href="#m768451d034" x="63.47" y="187.630686" style="stroke: #000000; stroke-width: 0.8"/>
      </g>
     </g>
     <g id="text_11">
      <!-- 5000 -->
      <g transform="translate(31.02 191.429905) scale(0.1 -0.1)">
       <use xlink:href="#DejaVuSans-35"/>
       <use xlink:href="#DejaVuSans-30" transform="translate(63.623047 0)"/>
       <use xlink:href="#DejaVuSans-30" transform="translate(127.246094 0)"/>
       <use xlink:href="#DejaVuSans-30" transform="translate(190.869141 0)"/>
      </g>
     </g>
    </g>
    <g id="ytick_4">
     <g id="line2d_11">
      <g>
       <use xlink:href="#m768451d034" x="63.47" y="162.969118" style="stroke: #000000; stroke-width: 0.8"/>
      </g>
     </g>
     <g id="text_12">
      <!-- 7500 -->
      <g transform="translate(31.02 166.768337) scale(0.1 -0.1)">
       <use xlink:href="#DejaVuSans-37"/>
       <use xlink:href="#DejaVuSans-35" transform="translate(63.623047 0)"/>
       <use xlink:href="#DejaVuSans-30" transform="translate(127.246094 0)"/>
       <use xlink:href="#DejaVuSans-30" transform="translate(190.869141 0)"/>
      </g>
     </g>
    </g>
    <g id="ytick_5">
     <g id="line2d_12">
      <g>
       <use xlink:href="#m768451d034" x="63.47" y="138.30755" style="stroke: #000000; stroke-width: 0.8"/>
      </g>
     </g>
     <g id="text_13">
      <!-- 10000 -->
      <g transform="translate(24.6575 142.106768) scale(0.1 -0.1)">
       <use xlink:href="#DejaVuSans-31"/>
       <use xlink:href="#DejaVuSans-30" transform="translate(63.623047 0)"/>
       <use xlink:href="#DejaVuSans-30" transform="translate(127.246094 0)"/>
       <use xlink:href="#DejaVuSans-30" transform="translate(190.869141 0)"/>
       <use xlink:href="#DejaVuSans-30" transform="translate(254.492188 0)"/>
      </g>
     </g>
    </g>
    <g id="ytick_6">
     <g id="line2d_13">
      <g>
       <use xlink:href="#m768451d034" x="63.47" y="113.645981" style="stroke: #000000; stroke-width: 0.8"/>
      </g>
     </g>
     <g id="text_14">
      <!-- 12500 -->
      <g transform="translate(24.6575 117.4452) scale(0.1 -0.1)">
       <use xlink:href="#DejaVuSans-31"/>
       <use xlink:href="#DejaVuSans-32" transform="translate(63.623047 0)"/>
       <use xlink:href="#DejaVuSans-35" transform="translate(127.246094 0)"/>
       <use xlink:href="#DejaVuSans-30" transform="translate(190.869141 0)"/>
       <use xlink:href="#DejaVuSans-30" transform="translate(254.492188 0)"/>
      </g>
     </g>
    </g>
    <g id="ytick_7">
     <g id="line2d_14">
      <g>
       <use xlink:href="#m768451d034" x="63.47" y="88.984413" style="stroke: #000000; stroke-width: 0.8"/>
      </g>
     </g>
     <g id="text_15">
      <!-- 15000 -->
      <g transform="translate(24.6575 92.783631) scale(0.1 -0.1)">
       <use xlink:href="#DejaVuSans-31"/>
       <use xlink:href="#DejaVuSans-35" transform="translate(63.623047 0)"/>
       <use xlink:href="#DejaVuSans-30" transform="translate(127.246094 0)"/>
       <use xlink:href="#DejaVuSans-30" transform="translate(190.869141 0)"/>
       <use xlink:href="#DejaVuSans-30" transform="translate(254.492188 0)"/>
      </g>
     </g>
    </g>
    <g id="ytick_8">
     <g id="line2d_15">
      <g>
       <use xlink:href="#m768451d034" x="63.47" y="64.322844" style="stroke: #000000; stroke-width: 0.8"/>
      </g>
     </g>
     <g id="text_16">
      <!-- 17500 -->
      <g transform="translate(24.6575 68.122063) scale(0.1 -0.1)">
       <use xlink:href="#DejaVuSans-31"/>
       <use xlink:href="#DejaVuSans-37" transform="translate(63.623047 0)"/>
       <use xlink:href="#DejaVuSans-35" transform="translate(127.246094 0)"/>
       <use xlink:href="#DejaVuSans-30" transform="translate(190.869141 0)"/>
       <use xlink:href="#DejaVuSans-30" transform="translate(254.492188 0)"/>
      </g>
     </g>
    </g>
    <g id="ytick_9">
     <g id="line2d_16">
      <g>
       <use xlink:href="#m768451d034" x="63.47" y="39.661276" style="stroke: #000000; stroke-width: 0.8"/>
      </g>
     </g>
     <g id="text_17">
      <!-- 20000 -->
      <g transform="translate(24.6575 43.460495) scale(0.1 -0.1)">
       <use xlink:href="#DejaVuSans-32"/>
       <use xlink:href="#DejaVuSans-30" transform="translate(63.623047 0)"/>
       <use xlink:href="#DejaVuSans-30" transform="translate(127.246094 0)"/>
       <use xlink:href="#DejaVuSans-30" transform="translate(190.869141 0)"/>
       <use xlink:href="#DejaVuSans-30" transform="translate(254.492188 0)"/>
      </g>
     </g>
    </g>
    <g id="text_18">
     <!-- CO2 (PPM) -->
     <g transform="translate(18.577813 162.902969) rotate(-90) scale(0.1 -0.1)">
      <defs>
       <path id="DejaVuSans-43" d="M 4122 4306 
L 4122 3641 
Q 3803 3938 3442 4084 
Q 3081 4231 2675 4231 
Q 1875 4231 1450 3742 
Q 1025 3253 1025 2328 
Q 1025 1406 1450 917 
Q 1875 428 2675 428 
Q 3081 428 3442 575 
Q 3803 722 4122 1019 
L 4122 359 
Q 3791 134 3420 21 
Q 3050 -91 2638 -91 
Q 1578 -91 968 557 
Q 359 1206 359 2328 
Q 359 3453 968 4101 
Q 1578 4750 2638 4750 
Q 3056 4750 3426 4639 
Q 3797 4528 4122 4306 
z
" transform="scale(0.015625)"/>
       <path id="DejaVuSans-4f" d="M 2522 4238 
Q 1834 4238 1429 3725 
Q 1025 3213 1025 2328 
Q 1025 1447 1429 934 
Q 1834 422 2522 422 
Q 3209 422 3611 934 
Q 4013 1447 4013 2328 
Q 4013 3213 3611 3725 
Q 3209 4238 2522 4238 
z
M 2522 4750 
Q 3503 4750 4090 4092 
Q 4678 3434 4678 2328 
Q 4678 1225 4090 567 
Q 3503 -91 2522 -91 
Q 1538 -91 948 565 
Q 359 1222 359 2328 
Q 359 3434 948 4092 
Q 1538 4750 2522 4750 
z
" transform="scale(0.015625)"/>
       <path id="DejaVuSans-28" d="M 1984 4856 
Q 1566 4138 1362 3434 
Q 1159 2731 1159 2009 
Q 1159 1288 1364 580 
Q 1569 -128 1984 -844 
L 1484 -844 
Q 1016 -109 783 600 
Q 550 1309 550 2009 
Q 550 2706 781 3412 
Q 1013 4119 1484 4856 
L 1984 4856 
z
" transform="scale(0.015625)"/>
       <path id="DejaVuSans-50" d="M 1259 4147 
L 1259 2394 
L 2053 2394 
Q 2494 2394 2734 2622 
Q 2975 2850 2975 3272 
Q 2975 3691 2734 3919 
Q 2494 4147 2053 4147 
L 1259 4147 
z
M 628 4666 
L 2053 4666 
Q 2838 4666 3239 4311 
Q 3641 3956 3641 3272 
Q 3641 2581 3239 2228 
Q 2838 1875 2053 1875 
L 1259 1875 
L 1259 0 
L 628 0 
L 628 4666 
z
" transform="scale(0.015625)"/>
       <path id="DejaVuSans-4d" d="M 628 4666 
L 1569 4666 
L 2759 1491 
L 3956 4666 
L 4897 4666 
L 4897 0 
L 4281 0 
L 4281 4097 
L 3078 897 
L 2444 897 
L 1241 4097 
L 1241 0 
L 628 0 
L 628 4666 
z
" transform="scale(0.015625)"/>
       <path id="DejaVuSans-29" d="M 513 4856 
L 1013 4856 
Q 1481 4119 1714 3412 
Q 1947 2706 1947 2009 
Q 1947 1309 1714 600 
Q 1481 -109 1013 -844 
L 513 -844 
Q 928 -128 1133 580 
Q 1338 1288 1338 2009 
Q 1338 2731 1133 3434 
Q 928 4138 513 4856 
z
" transform="scale(0.015625)"/>
      </defs>
      <use xlink:href="#DejaVuSans-43"/>
      <use xlink:href="#DejaVuSans-4f" transform="translate(69.824219 0)"/>
      <use xlink:href="#DejaVuSans-32" transform="translate(148.535156 0)"/>
      <use xlink:href="#DejaVuSans-20" transform="translate(212.158203 0)"/>
      <use xlink:href="#DejaVuSans-28" transform="translate(243.945312 0)"/>
      <use xlink:href="#DejaVuSans-50" transform="translate(282.958984 0)"/>
      <use xlink:href="#DejaVuSans-50" transform="translate(343.261719 0)"/>
      <use xlink:href="#DejaVuSans-4d" transform="translate(403.564453 0)"/>
      <use xlink:href="#DejaVuSans-29" transform="translate(489.84375 0)"/>
     </g>
    </g>
   </g>
   <g id="line2d_17">
    <path d="M 92.821364 119.209631 
L 96.513359 113.738051 
L 100.205354 135.246227 
L 103.89735 140.615872 
L 107.589345 145.715885 
L 111.281341 147.330395 
L 114.973336 148.083395 
L 118.665332 138.833663 
L 122.357327 149.645295 
L 126.049322 167.312842 
L 129.741318 175.526789 
L 133.433313 174.313439 
L 137.125309 153.725962 
L 140.817304 145.396928 
L 144.5093 160.427332 
L 148.201295 151.74646 
L 151.89329 164.412642 
L 155.585286 167.884991 
L 159.277281 149.500613 
L 162.969277 155.692311 
L 166.661272 159.345512 
L 170.353268 172.452313 
L 174.045263 189.090651 
L 177.737258 197.653148 
L 181.429254 186.17401 
L 185.121249 179.778443 
L 188.813245 184.224102 
L 192.50524 171.416527 
L 196.197236 156.99773 
L 199.889231 182.550403 
L 203.581226 168.394663 
L 207.273222 158.783228 
L 210.965217 158.954215 
L 214.657213 135.519148 
L 218.349208 121.277915 
L 222.041204 121.136522 
L 225.733199 153.334665 
L 229.425194 136.364218 
L 233.11719 128.804625 
L 236.809185 136.995554 
L 240.501181 136.620698 
L 244.193176 139.622833 
L 247.885172 119.475976 
L 251.577167 144.992479 
L 255.269162 138.906004 
L 258.961158 141.608912 
L 262.653153 146.380103 
L 266.345149 143.683771 
L 270.037144 137.133659 
L 273.72914 145.038514 
L 277.421135 137.656484 
L 281.11313 137.663061 
L 284.805126 147.238326 
L 288.497121 153.827897 
L 292.189117 149.730788 
L 295.881112 156.823455 
L 299.573107 164.649393 
L 303.265103 157.079935 
L 306.957098 158.421525 
L 310.649094 172.034711 
L 314.341089 165.33334 
L 318.033085 172.27886 
L 321.72508 154.756816 
L 325.417075 171.837418 
L 329.109071 172.744964 
L 332.801066 167.832379 
L 336.493062 169.680353 
L 340.185057 158.388643 
L 343.877053 178.985985 
L 347.569048 172.327361 
L 351.261043 187.847708 
L 354.953039 188.952546 
L 358.645034 180.028347 
L 362.33703 183.770329 
L 366.029025 173.346706 
L 369.721021 170.522134 
L 373.413016 156.129643 
L 377.105011 148.172177 
L 380.797007 174.231234 
L 384.489002 173.19216 
L 388.180998 163.251904 
L 391.872993 147.169273 
L 395.564989 126.203652 
L 399.256984 137.288205 
L 402.948979 145.028649 
L 406.640975 154.640084 
L 410.33297 137.991881 
L 414.024966 142.730191 
L 417.716961 152.256133 
L 421.408957 153.127508 
L 425.100952 155.71204 
L 428.792947 157.168717 
L 432.484943 164.646105 
L 436.176938 151.96677 
L 439.868934 158.437966 
L 443.560929 142.667715 
L 447.252925 149.612413 
L 450.94492 148.556897 
L 454.636915 159.894642 
L 458.328911 167.191178 
L 462.020906 157.638931 
L 465.712902 161.581494 
L 469.404897 162.673179 
L 473.096893 163.09407 
L 476.788888 168.342052 
L 480.480883 166.369126 
L 484.172879 166.332956 
L 487.864874 157.119394 
L 491.55687 166.448043 
L 495.248865 163.153258 
L 498.94086 153.581281 
L 502.632856 159.082455 
L 506.324851 156.3368 
L 510.016847 186.315403 
L 513.708842 176.167989 
L 517.400838 154.771613 
L 521.092833 148.086684 
L 524.784828 169.394279 
L 528.476824 162.314764 
L 532.168819 161.611088 
L 535.860815 170.841091 
L 539.55281 163.067764 
L 543.244806 161.939909 
L 546.936801 153.548399 
L 550.628796 160.57859 
L 554.320792 161.71631 
L 561.704783 143.598278 
L 565.396778 149.19481 
L 569.088774 148.79036 
L 572.780769 132.053376 
L 576.472764 142.240248 
L 580.16476 145.235806 
L 583.856755 153.966001 
L 587.548751 155.899468 
L 591.240746 152.446849 
L 594.932742 152.979539 
L 598.624737 142.536187 
L 606.008728 150.631757 
L 609.700723 149.036976 
L 613.392719 153.778573 
L 617.084714 126.769224 
L 620.77671 141.661523 
L 624.468705 146.521496 
L 628.1607 146.478749 
L 631.852696 137.423021 
L 635.544691 152.200233 
L 639.236687 154.880124 
L 642.928682 154.00546 
L 646.620678 158.954215 
L 646.620678 158.954215 
" clip-path="url(#p854f95fab8)" style="fill: none; stroke: #1f77b4; stroke-width: 2; stroke-linecap: square"/>
   </g>
   <g id="line2d_18">
    <path d="M 92.821364 151.055114 
L 96.513359 147.766631 
L 100.205354 158.622928 
L 103.89735 156.803726 
L 107.589345 151.146362 
L 111.281341 150.397472 
L 114.973336 155.182913 
L 118.665332 153.166693 
L 122.357327 162.526032 
L 126.049322 163.864607 
L 129.741318 163.277662 
L 133.433313 159.210695 
L 137.125309 150.159899 
L 140.817304 146.636583 
L 144.5093 150.19607 
L 148.201295 154.852174 
L 151.89329 148.613071 
L 155.585286 144.430469 
L 159.277281 150.476663 
L 162.969277 151.797153 
L 166.661272 155.609558 
L 170.353268 169.657335 
L 174.045263 158.955585 
L 177.737258 163.769249 
L 181.429254 161.973887 
L 185.121249 162.891571 
L 188.813245 167.81539 
L 192.50524 164.833533 
L 196.197236 167.097465 
L 199.889231 169.083543 
L 203.581226 168.108041 
L 207.273222 163.98079 
L 210.965217 162.075273 
L 214.657213 146.149928 
L 218.349208 146.98897 
L 222.041204 146.496286 
L 225.733199 152.908294 
L 229.425194 146.385583 
L 233.11719 145.866046 
L 236.809185 148.78773 
L 240.501181 149.780769 
L 244.193176 145.829328 
L 247.885172 131.794703 
L 251.577167 131.811144 
L 255.269162 137.348215 
L 258.961158 140.872901 
L 262.653153 134.585023 
L 266.345149 136.615766 
L 270.037144 149.869715 
L 273.72914 151.280083 
L 277.421135 143.203693 
L 281.11313 148.690618 
L 284.805126 146.201882 
L 288.497121 147.387117 
L 292.189117 145.882761 
L 295.881112 145.779457 
L 299.573107 145.907423 
L 303.265103 142.655658 
L 306.957098 141.844292 
L 310.649094 149.739557 
L 314.341089 151.343655 
L 318.033085 144.99563 
L 321.72508 133.353589 
L 325.417075 142.820617 
L 329.109071 135.745487 
L 332.801066 137.461493 
L 336.493062 162.682496 
L 340.185057 156.713574 
L 343.877053 161.169372 
L 347.569048 162.574259 
L 351.261043 161.959364 
L 354.953039 161.834686 
L 358.645034 165.400201 
L 362.33703 169.5069 
L 366.029025 175.689555 
L 369.721021 171.699861 
L 373.413016 173.417951 
L 377.105011 171.254309 
L 380.797007 175.45664 
L 384.489002 166.508327 
L 388.180998 170.220167 
L 391.872993 162.569601 
L 395.564989 159.452926 
L 399.256984 165.29169 
L 402.948979 159.341127 
L 406.640975 159.575686 
L 410.33297 156.039765 
L 414.024966 156.098076 
L 417.716961 149.053417 
L 421.408957 155.230592 
L 425.100952 154.39018 
L 428.792947 157.027324 
L 432.484943 151.057854 
L 436.176938 153.674173 
L 439.868934 156.569441 
L 443.560929 156.234044 
L 447.252925 155.700861 
L 450.94492 159.612953 
L 454.636915 155.690393 
L 458.328911 153.172721 
L 462.020906 155.066455 
L 465.712902 158.934485 
L 469.404897 152.846366 
L 473.096893 154.994663 
L 476.788888 155.42213 
L 480.480883 162.253933 
L 484.172879 160.777527 
L 487.864874 150.034947 
L 491.55687 155.757527 
L 495.248865 153.461809 
L 498.94086 153.63033 
L 502.632856 154.455123 
L 506.324851 150.291702 
L 510.016847 152.123508 
L 513.708842 152.088982 
L 517.400838 158.463723 
L 521.092833 162.162959 
L 524.784828 158.840771 
L 528.476824 152.81047 
L 532.168819 148.477158 
L 535.860815 150.431177 
L 539.55281 160.283309 
L 543.244806 165.598863 
L 546.936801 162.688524 
L 550.628796 160.131942 
L 554.320792 158.772267 
L 558.012787 156.482577 
L 561.704783 158.439062 
L 565.396778 156.30885 
L 569.088774 156.872504 
L 572.780769 156.001403 
L 576.472764 160.245385 
L 580.16476 158.068042 
L 583.856755 154.505268 
L 587.548751 157.985837 
L 591.240746 153.718838 
L 594.932742 158.156824 
L 598.624737 154.76394 
L 602.316732 161.380255 
L 606.008728 154.727496 
L 609.700723 151.841489 
L 613.392719 160.100484 
L 617.084714 155.151127 
L 620.77671 152.958494 
L 624.468705 156.377629 
L 628.1607 158.628682 
L 631.852696 147.941345 
L 635.544691 156.389138 
L 639.236687 155.143454 
L 642.928682 154.840665 
L 646.620678 170.70874 
L 650.312673 175.163442 
L 654.004668 169.004626 
L 657.696664 158.286708 
L 661.388659 161.078398 
L 665.080655 167.55617 
L 668.77265 155.869874 
L 672.464646 149.129046 
L 676.156641 151.097039 
L 679.848636 158.865433 
L 679.848636 158.865433 
" clip-path="url(#p854f95fab8)" style="fill: none; stroke-dasharray: 5.55,2.4; stroke-dashoffset: 0; stroke: #808080; stroke-width: 1.5"/>
   </g>
   <g id="patch_3">
    <path d="M 63.47 246.04 
L 63.47 26.88 
" style="fill: none; stroke: #000000; stroke-width: 0.8; stroke-linejoin: miter; stroke-linecap: square"/>
   </g>
   <g id="patch_4">
    <path d="M 709.2 246.04 
L 709.2 26.88 
" style="fill: none; stroke: #000000; stroke-width: 0.8; stroke-linejoin: miter; stroke-linecap: square"/>
   </g>
   <g id="patch_5">
    <path d="M 63.47 246.04 
L 709.2 246.04 
" style="fill: none; stroke: #000000; stroke-width: 0.8; stroke-linejoin: miter; stroke-linecap: square"/>
   </g>
   <g id="patch_6">
    <path d="M 63.47 26.88 
L 709.2 26.88 
" style="fill: none; stroke: #000000; stroke-width: 0.8; stroke-linejoin: miter; stroke-linecap: square"/>
   </g>
   <g id="text_19">
    <!-- CO2 - v001/c00004/d001 -->
    <g transform="translate(310.931875 20.88) scale(0.12 -0.12)">
     <defs>
      <path id="DejaVuSans-76" d="M 191 3500 
L 800 3500 
L 1894 563 
L 2988 3500 
L 3597 3500 
L 2284 0 
L 1503 0 
L 191 3500 
z
" transform="scale(0.015625)"/>
      <path id="DejaVuSans-2f" d="M 1625 4666 
L 2156 4666 
L 531 -594 
L 0 -594 
L 1625 4666 
z
" transform="scale(0.015625)"/>
      <path id="DejaVuSans-63" d="M 3122 3366 
L 3122 2828 
Q 2878 2963 2633 3030 
Q 2388 3097 2138 3097 
Q 1578 3097 1268 2742 
Q 959 2388 959 1747 
Q 959 1106 1268 751 
Q 1578 397 2138 397 
Q 2388 397 2633 464 
Q 2878 531 3122 666 
L 3122 134 
Q 2881 22 2623 -34 
Q 2366 -91 2075 -91 
Q 1284 -91 818 406 
Q 353 903 353 1747 
Q 353 2603 823 3093 
Q 1294 3584 2113 3584 
Q 2378 3584 2631 3529 
Q 2884 3475 3122 3366 
z
" transform="scale(0.015625)"/>
      <path id="DejaVuSans-34" d="M 2419 4116 
L 825 1625 
L 2419 1625 
L 2419 4116 
z
M 2253 4666 
L 3047 4666 
L 3047 1625 
L 3713 1625 
L 3713 1100 
L 3047 1100 
L 3047 0 
L 2419 0 
L 2419 1100 
L 313 1100 
L 313 1709 
L 2253 4666 
z
" transform="scale(0.015625)"/>
     </defs>
     <use xlink:href="#DejaVuSans-43"/>
     <use xlink:href="#DejaVuSans-4f" transform="translate(69.824219 0)"/>
     <use xlink:href="#DejaVuSans-32" transform="translate(148.535156 0)"/>
     <use xlink:href="#DejaVuSans-20" transform="translate(212.158203 0)"/>
     <use xlink:href="#DejaVuSans-2d" transform="translate(243.945312 0)"/>
     <use xlink:href="#DejaVuSans-20" transform="translate(280.029297 0)"/>
     <use xlink:href="#DejaVuSans-76" transform="translate(311.816406 0)"/>
     <use xlink:href="#DejaVuSans-30" transform="translate(370.996094 0)"/>
     <use xlink:href="#DejaVuSans-30" transform="translate(434.619141 0)"/>
     <use xlink:href="#DejaVuSans-31" transform="translate(498.242188 0)"/>
     <use xlink:href="#DejaVuSans-2f" transform="translate(561.865234 0)"/>
     <use xlink:href="#DejaVuSans-63" transform="translate(595.556641 0)"/>
     <use xlink:href="#DejaVuSans-30" transform="translate(650.537109 0)"/>
     <use xlink:href="#DejaVuSans-30" transform="translate(714.160156 0)"/>
     <use xlink:href="#DejaVuSans-30" transform="translate(777.783203 0)"/>
     <use xlink:href="#DejaVuSans-30" transform="translate(841.40625 0)"/>
     <use xlink:href="#DejaVuSans-34" transform="translate(905.029297 0)"/>
     <use xlink:href="#DejaVuSans-2f" transform="translate(968.652344 0)"/>
     <use xlink:href="#DejaVuSans-64" transform="translate(1002.34375 0)"/>
     <use xlink:href="#DejaVuSans-30" transform="translate(1065.820312 0)"/>
     <use xlink:href="#DejaVuSans-30" transform="translate(1129.443359 0)"/>
     <use xlink:href="#DejaVuSans-31" transform="translate(1193.066406 0)"/>
    </g>
   </g>
   <g id="legend_1">
    <g id="patch_7">
     <path d="M 551.25625 78.914375 
L 702.2 78.914375 
Q 704.2 78.914375 704.2 76.914375 
L 704.2 33.88 
Q 704.2 31.88 702.2 31.88 
L 551.25625 31.88 
Q 549.25625 31.88 549.25625 33.88 
L 549.25625 76.914375 
Q 549.25625 78.914375 551.25625 78.914375 
z
" style="fill: #ffffff; opacity: 0.8; stroke: #cccccc; stroke-linejoin: miter"/>
    </g>
    <g id="line2d_19">
     <path d="M 553.25625 39.978438 
L 563.25625 39.978438 
L 573.25625 39.978438 
" style="fill: none; stroke: #1f77b4; stroke-width: 2; stroke-linecap: square"/>
    </g>
    <g id="text_20">
     <!-- Hive -->
     <g transform="translate(581.25625 43.478438) scale(0.1 -0.1)">
      <defs>
       <path id="DejaVuSans-48" d="M 628 4666 
L 1259 4666 
L 1259 2753 
L 3553 2753 
L 3553 4666 
L 4184 4666 
L 4184 0 
L 3553 0 
L 3553 2222 
L 1259 2222 
L 1259 0 
L 628 0 
L 628 4666 
z
" transform="scale(0.015625)"/>
       <path id="DejaVuSans-65" d="M 3597 1894 
L 3597 1613 
L 953 1613 
Q 991 1019 1311 708 
Q 1631 397 2203 397 
Q 2534 397 2845 478 
Q 3156 559 3463 722 
L 3463 178 
Q 3153 47 2828 -22 
Q 2503 -91 2169 -91 
Q 1331 -91 842 396 
Q 353 884 353 1716 
Q 353 2575 817 3079 
Q 1281 3584 2069 3584 
Q 2775 3584 3186 3129 
Q 3597 2675 3597 1894 
z
M 3022 2063 
Q 3016 2534 2758 2815 
Q 2500 3097 2075 3097 
Q 1594 3097 1305 2825 
Q 1016 2553 972 2059 
L 3022 2063 
z
" transform="scale(0.015625)"/>
      </defs>
      <use xlink:href="#DejaVuSans-48"/>
      <use xlink:href="#DejaVuSans-69" transform="translate(75.195312 0)"/>
      <use xlink:href="#DejaVuSans-76" transform="translate(102.978516 0)"/>
      <use xlink:href="#DejaVuSans-65" transform="translate(162.158203 0)"/>
     </g>
    </g>
    <g id="line2d_20">
     <path d="M 553.25625 54.656563 
L 563.25625 54.656563 
L 573.25625 54.656563 
" style="fill: none; stroke-dasharray: 5.55,2.4; stroke-dashoffset: 0; stroke: #808080; stroke-width: 1.5"/>
    </g>
    <g id="text_21">
     <!-- Gemiddelde (alle hives) -->
     <g transform="translate(581.25625 58.156563) scale(0.1 -0.1)">
      <defs>
       <path id="DejaVuSans-47" d="M 3809 666 
L 3809 1919 
L 2778 1919 
L 2778 2438 
L 4434 2438 
L 4434 434 
Q 4069 175 3628 42 
Q 3188 -91 2688 -91 
Q 1594 -91 976 548 
Q 359 1188 359 2328 
Q 359 3472 976 4111 
Q 1594 4750 2688 4750 
Q 3144 4750 3555 4637 
Q 3966 4525 4313 4306 
L 4313 3634 
Q 3963 3931 3569 4081 
Q 3175 4231 2741 4231 
Q 1884 4231 1454 3753 
Q 1025 3275 1025 2328 
Q 1025 1384 1454 906 
Q 1884 428 2741 428 
Q 3075 428 3337 486 
Q 3600 544 3809 666 
z
" transform="scale(0.015625)"/>
       <path id="DejaVuSans-6d" d="M 3328 2828 
Q 3544 3216 3844 3400 
Q 4144 3584 4550 3584 
Q 5097 3584 5394 3201 
Q 5691 2819 5691 2113 
L 5691 0 
L 5113 0 
L 5113 2094 
Q 5113 2597 4934 2840 
Q 4756 3084 4391 3084 
Q 3944 3084 3684 2787 
Q 3425 2491 3425 1978 
L 3425 0 
L 2847 0 
L 2847 2094 
Q 2847 2600 2669 2842 
Q 2491 3084 2119 3084 
Q 1678 3084 1418 2786 
Q 1159 2488 1159 1978 
L 1159 0 
L 581 0 
L 581 3500 
L 1159 3500 
L 1159 2956 
Q 1356 3278 1631 3431 
Q 1906 3584 2284 3584 
Q 2666 3584 2933 3390 
Q 3200 3197 3328 2828 
z
" transform="scale(0.015625)"/>
       <path id="DejaVuSans-6c" d="M 603 4863 
L 1178 4863 
L 1178 0 
L 603 0 
L 603 4863 
z
" transform="scale(0.015625)"/>
       <path id="DejaVuSans-61" d="M 2194 1759 
Q 1497 1759 1228 1600 
Q 959 1441 959 1056 
Q 959 750 1161 570 
Q 1363 391 1709 391 
Q 2188 391 2477 730 
Q 2766 1069 2766 1631 
L 2766 1759 
L 2194 1759 
z
M 3341 1997 
L 3341 0 
L 2766 0 
L 2766 531 
Q 2569 213 2275 61 
Q 1981 -91 1556 -91 
Q 1019 -91 701 211 
Q 384 513 384 1019 
Q 384 1609 779 1909 
Q 1175 2209 1959 2209 
L 2766 2209 
L 2766 2266 
Q 2766 2663 2505 2880 
Q 2244 3097 1772 3097 
Q 1472 3097 1187 3025 
Q 903 2953 641 2809 
L 641 3341 
Q 956 3463 1253 3523 
Q 1550 3584 1831 3584 
Q 2591 3584 2966 3190 
Q 3341 2797 3341 1997 
z
" transform="scale(0.015625)"/>
       <path id="DejaVuSans-68" d="M 3513 2113 
L 3513 0 
L 2938 0 
L 2938 2094 
Q 2938 2591 2744 2837 
Q 2550 3084 2163 3084 
Q 1697 3084 1428 2787 
Q 1159 2491 1159 1978 
L 1159 0 
L 581 0 
L 581 4863 
L 1159 4863 
L 1159 2956 
Q 1366 3272 1645 3428 
Q 1925 3584 2291 3584 
Q 2894 3584 3203 3211 
Q 3513 2838 3513 2113 
z
" transform="scale(0.015625)"/>
       <path id="DejaVuSans-73" d="M 2834 3397 
L 2834 2853 
Q 2591 2978 2328 3040 
Q 2066 3103 1784 3103 
Q 1356 3103 1142 2972 
Q 928 2841 928 2578 
Q 928 2378 1081 2264 
Q 1234 2150 1697 2047 
L 1894 2003 
Q 2506 1872 2764 1633 
Q 3022 1394 3022 966 
Q 3022 478 2636 193 
Q 2250 -91 1575 -91 
Q 1294 -91 989 -36 
Q 684 19 347 128 
L 347 722 
Q 666 556 975 473 
Q 1284 391 1588 391 
Q 1994 391 2212 530 
Q 2431 669 2431 922 
Q 2431 1156 2273 1281 
Q 2116 1406 1581 1522 
L 1381 1569 
Q 847 1681 609 1914 
Q 372 2147 372 2553 
Q 372 3047 722 3315 
Q 1072 3584 1716 3584 
Q 2034 3584 2315 3537 
Q 2597 3491 2834 3397 
z
" transform="scale(0.015625)"/>
      </defs>
      <use xlink:href="#DejaVuSans-47"/>
      <use xlink:href="#DejaVuSans-65" transform="translate(77.490234 0)"/>
      <use xlink:href="#DejaVuSans-6d" transform="translate(139.013672 0)"/>
      <use xlink:href="#DejaVuSans-69" transform="translate(236.425781 0)"/>
      <use xlink:href="#DejaVuSans-64" transform="translate(264.208984 0)"/>
      <use xlink:href="#DejaVuSans-64" transform="translate(327.685547 0)"/>
      <use xlink:href="#DejaVuSans-65" transform="translate(391.162109 0)"/>
      <use xlink:href="#DejaVuSans-6c" transform="translate(452.685547 0)"/>
      <use xlink:href="#DejaVuSans-64" transform="translate(480.46875 0)"/>
      <use xlink:href="#DejaVuSans-65" transform="translate(543.945312 0)"/>
      <use xlink:href="#DejaVuSans-20" transform="translate(605.46875 0)"/>
      <use xlink:href="#DejaVuSans-28" transform="translate(637.255859 0)"/>
      <use xlink:href="#DejaVuSans-61" transform="translate(676.269531 0)"/>
      <use xlink:href="#DejaVuSans-6c" transform="translate(737.548828 0)"/>
      <use xlink:href="#DejaVuSans-6c" transform="translate(765.332031 0)"/>
      <use xlink:href="#DejaVuSans-65" transform="translate(793.115234 0)"/>
      <use xlink:href="#DejaVuSans-20" transform="translate(854.638672 0)"/>
      <use xlink:href="#DejaVuSans-68" transform="translate(886.425781 0)"/>
      <use xlink:href="#DejaVuSans-69" transform="translate(949.804688 0)"/>
      <use xlink:href="#DejaVuSans-76" transform="translate(977.587891 0)"/>
      <use xlink:href="#DejaVuSans-65" transform="translate(1036.767578 0)"/>
      <use xlink:href="#DejaVuSans-73" transform="translate(1098.291016 0)"/>
      <use xlink:href="#DejaVuSans-29" transform="translate(1150.390625 0)"/>
     </g>
    </g>
    <g id="patch_8">
     <path d="M 553.25625 72.834688 
L 573.25625 72.834688 
L 573.25625 65.834688 
L 553.25625 65.834688 
z
" style="fill: #808080; fill-opacity: 0.2; stroke: #808080; stroke-opacity: 0.2; stroke-linejoin: miter"/>
    </g>
    <g id="text_22">
     <!-- ±2 Std Dev -->
     <g transform="translate(581.25625 72.834688) scale(0.1 -0.1)">
      <defs>
       <path id="DejaVuSans-b1" d="M 2944 4013 
L 2944 2803 
L 4684 2803 
L 4684 2272 
L 2944 2272 
L 2944 1063 
L 2419 1063 
L 2419 2272 
L 678 2272 
L 678 2803 
L 2419 2803 
L 2419 4013 
L 2944 4013 
z
M 678 531 
L 4684 531 
L 4684 0 
L 678 0 
L 678 531 
z
" transform="scale(0.015625)"/>
       <path id="DejaVuSans-53" d="M 3425 4513 
L 3425 3897 
Q 3066 4069 2747 4153 
Q 2428 4238 2131 4238 
Q 1616 4238 1336 4038 
Q 1056 3838 1056 3469 
Q 1056 3159 1242 3001 
Q 1428 2844 1947 2747 
L 2328 2669 
Q 3034 2534 3370 2195 
Q 3706 1856 3706 1288 
Q 3706 609 3251 259 
Q 2797 -91 1919 -91 
Q 1588 -91 1214 -16 
Q 841 59 441 206 
L 441 856 
Q 825 641 1194 531 
Q 1563 422 1919 422 
Q 2459 422 2753 634 
Q 3047 847 3047 1241 
Q 3047 1584 2836 1778 
Q 2625 1972 2144 2069 
L 1759 2144 
Q 1053 2284 737 2584 
Q 422 2884 422 3419 
Q 422 4038 858 4394 
Q 1294 4750 2059 4750 
Q 2388 4750 2728 4690 
Q 3069 4631 3425 4513 
z
" transform="scale(0.015625)"/>
       <path id="DejaVuSans-74" d="M 1172 4494 
L 1172 3500 
L 2356 3500 
L 2356 3053 
L 1172 3053 
L 1172 1153 
Q 1172 725 1289 603 
Q 1406 481 1766 481 
L 2356 481 
L 2356 0 
L 1766 0 
Q 1100 0 847 248 
Q 594 497 594 1153 
L 594 3053 
L 172 3053 
L 172 3500 
L 594 3500 
L 594 4494 
L 1172 4494 
z
" transform="scale(0.015625)"/>
       <path id="DejaVuSans-44" d="M 1259 4147 
L 1259 519 
L 2022 519 
Q 2988 519 3436 956 
Q 3884 1394 3884 2338 
Q 3884 3275 3436 3711 
Q 2988 4147 2022 4147 
L 1259 4147 
z
M 628 4666 
L 1925 4666 
Q 3281 4666 3915 4102 
Q 4550 3538 4550 2338 
Q 4550 1131 3912 565 
Q 3275 0 1925 0 
L 628 0 
L 628 4666 
z
" transform="scale(0.015625)"/>
      </defs>
      <use xlink:href="#DejaVuSans-b1"/>
      <use xlink:href="#DejaVuSans-32" transform="translate(83.789062 0)"/>
      <use xlink:href="#DejaVuSans-20" transform="translate(147.412109 0)"/>
      <use xlink:href="#DejaVuSans-53" transform="translate(179.199219 0)"/>
      <use xlink:href="#DejaVuSans-74" transform="translate(242.675781 0)"/>
      <use xlink:href="#DejaVuSans-64" transform="translate(281.884766 0)"/>
      <use xlink:href="#DejaVuSans-20" transform="translate(345.361328 0)"/>
      <use xlink:href="#DejaVuSans-44" transform="translate(377.148438 0)"/>
      <use xlink:href="#DejaVuSans-65" transform="translate(454.150391 0)"/>
      <use xlink:href="#DejaVuSans-76" transform="translate(515.673828 0)"/>
     </g>
    </g>
   </g>
  </g>
 </g>
 <defs>
  <clipPath id="p854f95fab8">
   <rect x="63.47" y="26.88" width="645.73" height="219.16"/>
  </clipPath>
 </defs>
</svg>
