<?xml version="1.0" encoding="utf-8" standalone="no"?>
<!DOCTYPE svg PUBLIC "-//W3C//DTD SVG 1.1//EN"
  "http://www.w3.org/Graphics/SVG/1.1/DTD/svg11.dtd">
<svg xmlns:xlink="http://www.w3.org/1999/xlink" width="720pt" height="288pt" viewBox="0 0 720 288" xmlns="http://www.w3.org/2000/svg" version="1.1">
 <metadata>
  <rdf:RDF xmlns:dc="http://purl.org/dc/elements/1.1/" xmlns:cc="http://creativecommons.org/ns#" xmlns:rdf="http://www.w3.org/1999/02/22-rdf-syntax-ns#">
   <cc:Work>
    <dc:type rdf:resource="http://purl.org/dc/dcmitype/StillImage"/>
    <dc:date>2025-06-02T06:25:54.289956</dc:date>
    <dc:format>image/svg+xml</dc:format>
    <dc:creator>
     <cc:Agent>
      <dc:title>Matplotlib v3.10.3, https://matplotlib.org/</dc:title>
     </cc:Agent>
    </dc:creator>
   </cc:Work>
  </rdf:RDF>
 </metadata>
 <defs>
  <style type="text/css">*{stroke-linejoin: round; stroke-linecap: butt}</style>
 </defs>
 <g id="figure_1">
  <g id="patch_1">
   <path d="M 0 288 
L 720 288 
L 720 0 
L 0 0 
z
" style="fill: #ffffff"/>
  </g>
  <g id="axes_1">
   <g id="patch_2">
    <path d="M 63.47 246.04 
L 709.2 246.04 
L 709.2 26.88 
L 63.47 26.88 
z
" style="fill: #ffffff"/>
   </g>
   <g id="FillBetweenPolyCollection_1">
    <defs>
     <path id="mc6e81c2649" d="M 92.821364 -191.630586 
L 92.821364 -53.806759 
L 96.444989 -81.246224 
L 100.068614 -81.267459 
L 103.692239 -118.189257 
L 107.315864 -113.770992 
L 110.939489 -113.600035 
L 114.563114 -100.158646 
L 118.18674 -107.176445 
L 121.810365 -102.511885 
L 125.43399 -94.857532 
L 129.057615 -93.626654 
L 132.68124 -103.416545 
L 136.304865 -100.608844 
L 139.92849 -96.028876 
L 143.552116 -98.223686 
L 147.175741 -94.154735 
L 150.799366 -95.912125 
L 154.422991 -98.770699 
L 158.046616 -99.751463 
L 161.670241 -99.375861 
L 165.293866 -86.656884 
L 168.917492 -79.623565 
L 172.541117 -88.085227 
L 176.164742 -89.746705 
L 179.788367 -86.605089 
L 183.411992 -88.816123 
L 187.035617 -83.571338 
L 190.659242 -76.383477 
L 194.282868 -76.519112 
L 197.906493 -80.820211 
L 201.530118 -79.477325 
L 205.153743 -86.599385 
L 208.777368 -79.741871 
L 212.400993 -81.551354 
L 216.024618 -79.695421 
L 219.648244 -85.127019 
L 223.271869 -90.304317 
L 226.895494 -98.218763 
L 230.519119 -104.204743 
L 234.142744 -96.043613 
L 237.766369 -107.079614 
L 241.389994 -113.194624 
L 245.01362 -116.335032 
L 248.637245 -95.151247 
L 252.26087 -103.497368 
L 255.884495 -108.905435 
L 259.50812 -117.234713 
L 263.131745 -115.232958 
L 266.75537 -121.487694 
L 270.378996 -118.42665 
L 274.002621 -122.420077 
L 277.626246 -137.066941 
L 281.249871 -125.182845 
L 284.873496 -113.085394 
L 288.497121 -110.000699 
L 292.120746 -89.712954 
L 295.744371 -71.700406 
L 299.367997 -84.315582 
L 302.991622 -72.767566 
L 306.615247 -82.601496 
L 310.238872 -83.30393 
L 313.862497 -51.921818 
L 317.486122 -68.561685 
L 321.109747 -75.650305 
L 324.733373 -80.870276 
L 328.356998 -86.763142 
L 331.980623 -71.300508 
L 335.604248 -73.110596 
L 339.227873 -73.869264 
L 342.851498 -71.629275 
L 346.475123 -73.724355 
L 350.098749 -78.78242 
L 353.722374 -74.279446 
L 357.345999 -77.502176 
L 360.969624 -78.667413 
L 364.593249 -77.837824 
L 368.216874 -72.668294 
L 371.840499 -77.336434 
L 375.464125 -80.811188 
L 379.08775 -81.744518 
L 382.711375 -80.799143 
L 386.335 -83.781026 
L 389.958625 -84.152145 
L 393.58225 -80.753457 
L 397.205875 -88.666723 
L 400.829501 -94.090144 
L 404.453126 -94.984679 
L 408.076751 -96.491714 
L 411.700376 -94.390061 
L 415.324001 -85.267088 
L 418.947626 -85.726802 
L 422.571251 -86.339649 
L 426.194877 -96.281561 
L 429.818502 -99.777705 
L 433.442127 -104.398356 
L 437.065752 -98.751956 
L 440.689377 -95.130682 
L 444.313002 -98.405134 
L 447.936627 -99.739778 
L 451.560253 -100.869532 
L 455.183878 -103.97137 
L 458.807503 -91.456656 
L 462.431128 -95.736802 
L 466.054753 -93.823703 
L 469.678378 -96.320162 
L 473.302003 -89.67625 
L 476.925629 -87.790665 
L 480.549254 -90.602287 
L 484.172879 -88.767931 
L 487.796504 -89.903998 
L 491.420129 -97.681786 
L 495.043754 -95.595222 
L 498.667379 -91.045856 
L 502.291004 -92.356657 
L 505.91463 -88.54874 
L 509.538255 -85.011028 
L 513.16188 -89.403013 
L 516.785505 -87.203394 
L 520.40913 -97.1733 
L 524.032755 -87.071431 
L 527.65638 -88.318446 
L 531.280006 -87.76039 
L 534.903631 -89.848287 
L 538.527256 -88.031744 
L 542.150881 -85.445602 
L 545.774506 -83.453531 
L 549.398131 -91.095815 
L 553.021756 -95.49408 
L 556.645382 -93.432517 
L 560.269007 -100.57905 
L 563.892632 -101.437303 
L 567.516257 -112.008314 
L 571.139882 -110.780784 
L 574.763507 -114.922504 
L 578.387132 -105.138534 
L 582.010758 -112.17394 
L 585.634383 -111.523803 
L 589.258008 -110.764479 
L 592.881633 -123.636661 
L 596.505258 -118.121861 
L 600.128883 -106.089834 
L 603.752508 -124.502451 
L 607.376134 -120.822602 
L 610.999759 -129.225063 
L 614.623384 -137.451515 
L 618.247009 -123.491709 
L 621.870634 -123.935441 
L 625.494259 -126.158246 
L 629.117884 -118.443955 
L 632.74151 -104.624418 
L 636.365135 -123.375411 
L 639.98876 -131.729389 
L 643.612385 -136.200868 
L 647.23601 -114.693322 
L 650.859635 -105.41881 
L 654.48326 -136.378262 
L 658.106886 -102.808533 
L 658.106886 -197.451313 
L 658.106886 -197.451313 
L 654.48326 -153.818781 
L 650.859635 -169.726499 
L 647.23601 -138.39531 
L 643.612385 -158.813234 
L 639.98876 -152.091803 
L 636.365135 -169.079193 
L 632.74151 -188.876965 
L 629.117884 -166.945604 
L 625.494259 -169.007441 
L 621.870634 -167.402991 
L 618.247009 -177.42984 
L 614.623384 -169.951302 
L 610.999759 -166.878004 
L 607.376134 -174.286963 
L 603.752508 -174.024456 
L 600.128883 -177.376617 
L 596.505258 -170.270953 
L 592.881633 -164.592719 
L 589.258008 -171.882712 
L 585.634383 -165.088058 
L 582.010758 -169.245026 
L 578.387132 -158.708352 
L 574.763507 -156.768492 
L 571.139882 -165.869375 
L 567.516257 -159.376289 
L 563.892632 -152.969803 
L 560.269007 -149.113097 
L 556.645382 -142.097307 
L 553.021756 -142.432281 
L 549.398131 -147.388727 
L 545.774506 -154.854304 
L 542.150881 -151.984767 
L 538.527256 -147.325544 
L 534.903631 -151.925427 
L 531.280006 -157.898976 
L 527.65638 -168.360063 
L 524.032755 -159.302725 
L 520.40913 -158.035433 
L 516.785505 -152.917391 
L 513.16188 -159.908228 
L 509.538255 -161.176561 
L 505.91463 -158.708949 
L 502.291004 -143.911467 
L 498.667379 -157.804848 
L 495.043754 -149.635649 
L 491.420129 -144.768419 
L 487.796504 -153.037775 
L 484.172879 -161.717121 
L 480.549254 -156.16434 
L 476.925629 -170.634434 
L 473.302003 -164.734269 
L 469.678378 -157.496153 
L 466.054753 -163.58628 
L 462.431128 -153.614065 
L 458.807503 -163.489292 
L 455.183878 -140.756304 
L 451.560253 -144.681003 
L 447.936627 -146.53844 
L 444.313002 -152.852346 
L 440.689377 -157.407732 
L 437.065752 -153.86116 
L 433.442127 -143.686746 
L 429.818502 -140.007489 
L 426.194877 -154.35517 
L 422.571251 -161.549407 
L 418.947626 -158.013817 
L 415.324001 -164.933186 
L 411.700376 -145.780525 
L 408.076751 -133.800462 
L 404.453126 -143.188035 
L 400.829501 -134.823163 
L 397.205875 -141.303033 
L 393.58225 -161.325132 
L 389.958625 -144.219918 
L 386.335 -140.187779 
L 382.711375 -146.579419 
L 379.08775 -135.495402 
L 375.464125 -142.748841 
L 371.840499 -142.75089 
L 368.216874 -147.17786 
L 364.593249 -146.598155 
L 360.969624 -153.691928 
L 357.345999 -155.138151 
L 353.722374 -164.575194 
L 350.098749 -151.9585 
L 346.475123 -164.338897 
L 342.851498 -164.493237 
L 339.227873 -170.207705 
L 335.604248 -193.689492 
L 331.980623 -189.083154 
L 328.356998 -175.530924 
L 324.733373 -179.029528 
L 321.109747 -188.303894 
L 317.486122 -218.811463 
L 313.862497 -242.198797 
L 310.238872 -192.286748 
L 306.615247 -218.106942 
L 302.991622 -235.524094 
L 299.367997 -212.795017 
L 295.744371 -251.158182 
L 292.120746 -224.920809 
L 288.497121 -192.546475 
L 284.873496 -202.407634 
L 281.249871 -198.701856 
L 277.626246 -189.408447 
L 274.002621 -205.574382 
L 270.378996 -206.460273 
L 266.75537 -202.914992 
L 263.131745 -205.355745 
L 259.50812 -196.380521 
L 255.884495 -207.728223 
L 252.26087 -208.551016 
L 248.637245 -212.655417 
L 245.01362 -198.155393 
L 241.389994 -194.141075 
L 237.766369 -187.254111 
L 234.142744 -191.742863 
L 230.519119 -176.578686 
L 226.895494 -199.451154 
L 223.271869 -193.696236 
L 219.648244 -180.675016 
L 216.024618 -175.016562 
L 212.400993 -168.133209 
L 208.777368 -163.065539 
L 205.153743 -152.728495 
L 201.530118 -152.481202 
L 197.906493 -155.744826 
L 194.282868 -161.153944 
L 190.659242 -155.549265 
L 187.035617 -152.002473 
L 183.411992 -154.88468 
L 179.788367 -151.011846 
L 176.164742 -153.552147 
L 172.541117 -162.115805 
L 168.917492 -172.989172 
L 165.293866 -166.769614 
L 161.670241 -148.710378 
L 158.046616 -164.47993 
L 154.422991 -176.21326 
L 150.799366 -189.405765 
L 147.175741 -178.652623 
L 143.552116 -172.925814 
L 139.92849 -174.546516 
L 136.304865 -164.126885 
L 132.68124 -164.88024 
L 129.057615 -172.23757 
L 125.43399 -172.830829 
L 121.810365 -170.417574 
L 118.18674 -164.183889 
L 114.563114 -177.20858 
L 110.939489 -166.0439 
L 107.315864 -165.765631 
L 103.692239 -163.52283 
L 100.068614 -180.418751 
L 96.444989 -190.023007 
L 92.821364 -191.630586 
z
" style="stroke: #808080; stroke-opacity: 0.2"/>
    </defs>
    <g clip-path="url(#pd65b523192)">
     <use xlink:href="#mc6e81c2649" x="0" y="288" style="fill: #808080; fill-opacity: 0.2; stroke: #808080; stroke-opacity: 0.2"/>
    </g>
   </g>
   <g id="matplotlib.axis_1">
    <g id="xtick_1">
     <g id="line2d_1">
      <defs>
       <path id="m7e99dd5fbd" d="M 0 0 
L 0 3.5 
" style="stroke: #000000; stroke-width: 0.8"/>
      </defs>
      <g>
       <use xlink:href="#m7e99dd5fbd" x="136.304865" y="246.04" style="stroke: #000000; stroke-width: 0.8"/>
      </g>
     </g>
     <g id="text_1">
      <!-- 05-30 12 -->
      <g transform="translate(113.824397 260.638438) scale(0.1 -0.1)">
       <defs>
        <path id="DejaVuSans-30" d="M 2034 4250 
Q 1547 4250 1301 3770 
Q 1056 3291 1056 2328 
Q 1056 1369 1301 889 
Q 1547 409 2034 409 
Q 2525 409 2770 889 
Q 3016 1369 3016 2328 
Q 3016 3291 2770 3770 
Q 2525 4250 2034 4250 
z
M 2034 4750 
Q 2819 4750 3233 4129 
Q 3647 3509 3647 2328 
Q 3647 1150 3233 529 
Q 2819 -91 2034 -91 
Q 1250 -91 836 529 
Q 422 1150 422 2328 
Q 422 3509 836 4129 
Q 1250 4750 2034 4750 
z
" transform="scale(0.015625)"/>
        <path id="DejaVuSans-35" d="M 691 4666 
L 3169 4666 
L 3169 4134 
L 1269 4134 
L 1269 2991 
Q 1406 3038 1543 3061 
Q 1681 3084 1819 3084 
Q 2600 3084 3056 2656 
Q 3513 2228 3513 1497 
Q 3513 744 3044 326 
Q 2575 -91 1722 -91 
Q 1428 -91 1123 -41 
Q 819 9 494 109 
L 494 744 
Q 775 591 1075 516 
Q 1375 441 1709 441 
Q 2250 441 2565 725 
Q 2881 1009 2881 1497 
Q 2881 1984 2565 2268 
Q 2250 2553 1709 2553 
Q 1456 2553 1204 2497 
Q 953 2441 691 2322 
L 691 4666 
z
" transform="scale(0.015625)"/>
        <path id="DejaVuSans-2d" d="M 313 2009 
L 1997 2009 
L 1997 1497 
L 313 1497 
L 313 2009 
z
" transform="scale(0.015625)"/>
        <path id="DejaVuSans-33" d="M 2597 2516 
Q 3050 2419 3304 2112 
Q 3559 1806 3559 1356 
Q 3559 666 3084 287 
Q 2609 -91 1734 -91 
Q 1441 -91 1130 -33 
Q 819 25 488 141 
L 488 750 
Q 750 597 1062 519 
Q 1375 441 1716 441 
Q 2309 441 2620 675 
Q 2931 909 2931 1356 
Q 2931 1769 2642 2001 
Q 2353 2234 1838 2234 
L 1294 2234 
L 1294 2753 
L 1863 2753 
Q 2328 2753 2575 2939 
Q 2822 3125 2822 3475 
Q 2822 3834 2567 4026 
Q 2313 4219 1838 4219 
Q 1578 4219 1281 4162 
Q 984 4106 628 3988 
L 628 4550 
Q 988 4650 1302 4700 
Q 1616 4750 1894 4750 
Q 2613 4750 3031 4423 
Q 3450 4097 3450 3541 
Q 3450 3153 3228 2886 
Q 3006 2619 2597 2516 
z
" transform="scale(0.015625)"/>
        <path id="DejaVuSans-20" transform="scale(0.015625)"/>
        <path id="DejaVuSans-31" d="M 794 531 
L 1825 531 
L 1825 4091 
L 703 3866 
L 703 4441 
L 1819 4666 
L 2450 4666 
L 2450 531 
L 3481 531 
L 3481 0 
L 794 0 
L 794 531 
z
" transform="scale(0.015625)"/>
        <path id="DejaVuSans-32" d="M 1228 531 
L 3431 531 
L 3431 0 
L 469 0 
L 469 531 
Q 828 903 1448 1529 
Q 2069 2156 2228 2338 
Q 2531 2678 2651 2914 
Q 2772 3150 2772 3378 
Q 2772 3750 2511 3984 
Q 2250 4219 1831 4219 
Q 1534 4219 1204 4116 
Q 875 4013 500 3803 
L 500 4441 
Q 881 4594 1212 4672 
Q 1544 4750 1819 4750 
Q 2544 4750 2975 4387 
Q 3406 4025 3406 3419 
Q 3406 3131 3298 2873 
Q 3191 2616 2906 2266 
Q 2828 2175 2409 1742 
Q 1991 1309 1228 531 
z
" transform="scale(0.015625)"/>
       </defs>
       <use xlink:href="#DejaVuSans-30"/>
       <use xlink:href="#DejaVuSans-35" transform="translate(63.623047 0)"/>
       <use xlink:href="#DejaVuSans-2d" transform="translate(127.246094 0)"/>
       <use xlink:href="#DejaVuSans-33" transform="translate(163.330078 0)"/>
       <use xlink:href="#DejaVuSans-30" transform="translate(226.953125 0)"/>
       <use xlink:href="#DejaVuSans-20" transform="translate(290.576172 0)"/>
       <use xlink:href="#DejaVuSans-31" transform="translate(322.363281 0)"/>
       <use xlink:href="#DejaVuSans-32" transform="translate(385.986328 0)"/>
      </g>
     </g>
    </g>
    <g id="xtick_2">
     <g id="line2d_2">
      <g>
       <use xlink:href="#m7e99dd5fbd" x="223.271869" y="246.04" style="stroke: #000000; stroke-width: 0.8"/>
      </g>
     </g>
     <g id="text_2">
      <!-- 05-31 00 -->
      <g transform="translate(200.7914 260.638438) scale(0.1 -0.1)">
       <use xlink:href="#DejaVuSans-30"/>
       <use xlink:href="#DejaVuSans-35" transform="translate(63.623047 0)"/>
       <use xlink:href="#DejaVuSans-2d" transform="translate(127.246094 0)"/>
       <use xlink:href="#DejaVuSans-33" transform="translate(163.330078 0)"/>
       <use xlink:href="#DejaVuSans-31" transform="translate(226.953125 0)"/>
       <use xlink:href="#DejaVuSans-20" transform="translate(290.576172 0)"/>
       <use xlink:href="#DejaVuSans-30" transform="translate(322.363281 0)"/>
       <use xlink:href="#DejaVuSans-30" transform="translate(385.986328 0)"/>
      </g>
     </g>
    </g>
    <g id="xtick_3">
     <g id="line2d_3">
      <g>
       <use xlink:href="#m7e99dd5fbd" x="310.238872" y="246.04" style="stroke: #000000; stroke-width: 0.8"/>
      </g>
     </g>
     <g id="text_3">
      <!-- 05-31 12 -->
      <g transform="translate(287.758403 260.638438) scale(0.1 -0.1)">
       <use xlink:href="#DejaVuSans-30"/>
       <use xlink:href="#DejaVuSans-35" transform="translate(63.623047 0)"/>
       <use xlink:href="#DejaVuSans-2d" transform="translate(127.246094 0)"/>
       <use xlink:href="#DejaVuSans-33" transform="translate(163.330078 0)"/>
       <use xlink:href="#DejaVuSans-31" transform="translate(226.953125 0)"/>
       <use xlink:href="#DejaVuSans-20" transform="translate(290.576172 0)"/>
       <use xlink:href="#DejaVuSans-31" transform="translate(322.363281 0)"/>
       <use xlink:href="#DejaVuSans-32" transform="translate(385.986328 0)"/>
      </g>
     </g>
    </g>
    <g id="xtick_4">
     <g id="line2d_4">
      <g>
       <use xlink:href="#m7e99dd5fbd" x="397.205875" y="246.04" style="stroke: #000000; stroke-width: 0.8"/>
      </g>
     </g>
     <g id="text_4">
      <!-- 06-01 00 -->
      <g transform="translate(374.725407 260.638438) scale(0.1 -0.1)">
       <defs>
        <path id="DejaVuSans-36" d="M 2113 2584 
Q 1688 2584 1439 2293 
Q 1191 2003 1191 1497 
Q 1191 994 1439 701 
Q 1688 409 2113 409 
Q 2538 409 2786 701 
Q 3034 994 3034 1497 
Q 3034 2003 2786 2293 
Q 2538 2584 2113 2584 
z
M 3366 4563 
L 3366 3988 
Q 3128 4100 2886 4159 
Q 2644 4219 2406 4219 
Q 1781 4219 1451 3797 
Q 1122 3375 1075 2522 
Q 1259 2794 1537 2939 
Q 1816 3084 2150 3084 
Q 2853 3084 3261 2657 
Q 3669 2231 3669 1497 
Q 3669 778 3244 343 
Q 2819 -91 2113 -91 
Q 1303 -91 875 529 
Q 447 1150 447 2328 
Q 447 3434 972 4092 
Q 1497 4750 2381 4750 
Q 2619 4750 2861 4703 
Q 3103 4656 3366 4563 
z
" transform="scale(0.015625)"/>
       </defs>
       <use xlink:href="#DejaVuSans-30"/>
       <use xlink:href="#DejaVuSans-36" transform="translate(63.623047 0)"/>
       <use xlink:href="#DejaVuSans-2d" transform="translate(127.246094 0)"/>
       <use xlink:href="#DejaVuSans-30" transform="translate(163.330078 0)"/>
       <use xlink:href="#DejaVuSans-31" transform="translate(226.953125 0)"/>
       <use xlink:href="#DejaVuSans-20" transform="translate(290.576172 0)"/>
       <use xlink:href="#DejaVuSans-30" transform="translate(322.363281 0)"/>
       <use xlink:href="#DejaVuSans-30" transform="translate(385.986328 0)"/>
      </g>
     </g>
    </g>
    <g id="xtick_5">
     <g id="line2d_5">
      <g>
       <use xlink:href="#m7e99dd5fbd" x="484.172879" y="246.04" style="stroke: #000000; stroke-width: 0.8"/>
      </g>
     </g>
     <g id="text_5">
      <!-- 06-01 12 -->
      <g transform="translate(461.69241 260.638438) scale(0.1 -0.1)">
       <use xlink:href="#DejaVuSans-30"/>
       <use xlink:href="#DejaVuSans-36" transform="translate(63.623047 0)"/>
       <use xlink:href="#DejaVuSans-2d" transform="translate(127.246094 0)"/>
       <use xlink:href="#DejaVuSans-30" transform="translate(163.330078 0)"/>
       <use xlink:href="#DejaVuSans-31" transform="translate(226.953125 0)"/>
       <use xlink:href="#DejaVuSans-20" transform="translate(290.576172 0)"/>
       <use xlink:href="#DejaVuSans-31" transform="translate(322.363281 0)"/>
       <use xlink:href="#DejaVuSans-32" transform="translate(385.986328 0)"/>
      </g>
     </g>
    </g>
    <g id="xtick_6">
     <g id="line2d_6">
      <g>
       <use xlink:href="#m7e99dd5fbd" x="571.139882" y="246.04" style="stroke: #000000; stroke-width: 0.8"/>
      </g>
     </g>
     <g id="text_6">
      <!-- 06-02 00 -->
      <g transform="translate(548.659413 260.638438) scale(0.1 -0.1)">
       <use xlink:href="#DejaVuSans-30"/>
       <use xlink:href="#DejaVuSans-36" transform="translate(63.623047 0)"/>
       <use xlink:href="#DejaVuSans-2d" transform="translate(127.246094 0)"/>
       <use xlink:href="#DejaVuSans-30" transform="translate(163.330078 0)"/>
       <use xlink:href="#DejaVuSans-32" transform="translate(226.953125 0)"/>
       <use xlink:href="#DejaVuSans-20" transform="translate(290.576172 0)"/>
       <use xlink:href="#DejaVuSans-30" transform="translate(322.363281 0)"/>
       <use xlink:href="#DejaVuSans-30" transform="translate(385.986328 0)"/>
      </g>
     </g>
    </g>
    <g id="xtick_7">
     <g id="line2d_7">
      <g>
       <use xlink:href="#m7e99dd5fbd" x="658.106886" y="246.04" style="stroke: #000000; stroke-width: 0.8"/>
      </g>
     </g>
     <g id="text_7">
      <!-- 06-02 12 -->
      <g transform="translate(635.626417 260.638438) scale(0.1 -0.1)">
       <use xlink:href="#DejaVuSans-30"/>
       <use xlink:href="#DejaVuSans-36" transform="translate(63.623047 0)"/>
       <use xlink:href="#DejaVuSans-2d" transform="translate(127.246094 0)"/>
       <use xlink:href="#DejaVuSans-30" transform="translate(163.330078 0)"/>
       <use xlink:href="#DejaVuSans-32" transform="translate(226.953125 0)"/>
       <use xlink:href="#DejaVuSans-20" transform="translate(290.576172 0)"/>
       <use xlink:href="#DejaVuSans-31" transform="translate(322.363281 0)"/>
       <use xlink:href="#DejaVuSans-32" transform="translate(385.986328 0)"/>
      </g>
     </g>
    </g>
    <g id="text_8">
     <!-- Tijd -->
     <g transform="translate(377.485 274.316562) scale(0.1 -0.1)">
      <defs>
       <path id="DejaVuSans-54" d="M -19 4666 
L 3928 4666 
L 3928 4134 
L 2272 4134 
L 2272 0 
L 1638 0 
L 1638 4134 
L -19 4134 
L -19 4666 
z
" transform="scale(0.015625)"/>
       <path id="DejaVuSans-69" d="M 603 3500 
L 1178 3500 
L 1178 0 
L 603 0 
L 603 3500 
z
M 603 4863 
L 1178 4863 
L 1178 4134 
L 603 4134 
L 603 4863 
z
" transform="scale(0.015625)"/>
       <path id="DejaVuSans-6a" d="M 603 3500 
L 1178 3500 
L 1178 -63 
Q 1178 -731 923 -1031 
Q 669 -1331 103 -1331 
L -116 -1331 
L -116 -844 
L 38 -844 
Q 366 -844 484 -692 
Q 603 -541 603 -63 
L 603 3500 
z
M 603 4863 
L 1178 4863 
L 1178 4134 
L 603 4134 
L 603 4863 
z
" transform="scale(0.015625)"/>
       <path id="DejaVuSans-64" d="M 2906 2969 
L 2906 4863 
L 3481 4863 
L 3481 0 
L 2906 0 
L 2906 525 
Q 2725 213 2448 61 
Q 2172 -91 1784 -91 
Q 1150 -91 751 415 
Q 353 922 353 1747 
Q 353 2572 751 3078 
Q 1150 3584 1784 3584 
Q 2172 3584 2448 3432 
Q 2725 3281 2906 2969 
z
M 947 1747 
Q 947 1113 1208 752 
Q 1469 391 1925 391 
Q 2381 391 2643 752 
Q 2906 1113 2906 1747 
Q 2906 2381 2643 2742 
Q 2381 3103 1925 3103 
Q 1469 3103 1208 2742 
Q 947 2381 947 1747 
z
" transform="scale(0.015625)"/>
      </defs>
      <use xlink:href="#DejaVuSans-54"/>
      <use xlink:href="#DejaVuSans-69" transform="translate(57.958984 0)"/>
      <use xlink:href="#DejaVuSans-6a" transform="translate(85.742188 0)"/>
      <use xlink:href="#DejaVuSans-64" transform="translate(113.525391 0)"/>
     </g>
    </g>
   </g>
   <g id="matplotlib.axis_2">
    <g id="ytick_1">
     <g id="line2d_8">
      <defs>
       <path id="md0de612062" d="M 0 0 
L -3.5 0 
" style="stroke: #000000; stroke-width: 0.8"/>
      </defs>
      <g>
       <use xlink:href="#md0de612062" x="63.47" y="214.531595" style="stroke: #000000; stroke-width: 0.8"/>
      </g>
     </g>
     <g id="text_9">
      <!-- 0 -->
      <g transform="translate(50.1075 218.330814) scale(0.1 -0.1)">
       <use xlink:href="#DejaVuSans-30"/>
      </g>
     </g>
    </g>
    <g id="ytick_2">
     <g id="line2d_9">
      <g>
       <use xlink:href="#md0de612062" x="63.47" y="174.715703" style="stroke: #000000; stroke-width: 0.8"/>
      </g>
     </g>
     <g id="text_10">
      <!-- 5000 -->
      <g transform="translate(31.02 178.514922) scale(0.1 -0.1)">
       <use xlink:href="#DejaVuSans-35"/>
       <use xlink:href="#DejaVuSans-30" transform="translate(63.623047 0)"/>
       <use xlink:href="#DejaVuSans-30" transform="translate(127.246094 0)"/>
       <use xlink:href="#DejaVuSans-30" transform="translate(190.869141 0)"/>
      </g>
     </g>
    </g>
    <g id="ytick_3">
     <g id="line2d_10">
      <g>
       <use xlink:href="#md0de612062" x="63.47" y="134.899811" style="stroke: #000000; stroke-width: 0.8"/>
      </g>
     </g>
     <g id="text_11">
      <!-- 10000 -->
      <g transform="translate(24.6575 138.69903) scale(0.1 -0.1)">
       <use xlink:href="#DejaVuSans-31"/>
       <use xlink:href="#DejaVuSans-30" transform="translate(63.623047 0)"/>
       <use xlink:href="#DejaVuSans-30" transform="translate(127.246094 0)"/>
       <use xlink:href="#DejaVuSans-30" transform="translate(190.869141 0)"/>
       <use xlink:href="#DejaVuSans-30" transform="translate(254.492188 0)"/>
      </g>
     </g>
    </g>
    <g id="ytick_4">
     <g id="line2d_11">
      <g>
       <use xlink:href="#md0de612062" x="63.47" y="95.08392" style="stroke: #000000; stroke-width: 0.8"/>
      </g>
     </g>
     <g id="text_12">
      <!-- 15000 -->
      <g transform="translate(24.6575 98.883138) scale(0.1 -0.1)">
       <use xlink:href="#DejaVuSans-31"/>
       <use xlink:href="#DejaVuSans-35" transform="translate(63.623047 0)"/>
       <use xlink:href="#DejaVuSans-30" transform="translate(127.246094 0)"/>
       <use xlink:href="#DejaVuSans-30" transform="translate(190.869141 0)"/>
       <use xlink:href="#DejaVuSans-30" transform="translate(254.492188 0)"/>
      </g>
     </g>
    </g>
    <g id="ytick_5">
     <g id="line2d_12">
      <g>
       <use xlink:href="#md0de612062" x="63.47" y="55.268028" style="stroke: #000000; stroke-width: 0.8"/>
      </g>
     </g>
     <g id="text_13">
      <!-- 20000 -->
      <g transform="translate(24.6575 59.067246) scale(0.1 -0.1)">
       <use xlink:href="#DejaVuSans-32"/>
       <use xlink:href="#DejaVuSans-30" transform="translate(63.623047 0)"/>
       <use xlink:href="#DejaVuSans-30" transform="translate(127.246094 0)"/>
       <use xlink:href="#DejaVuSans-30" transform="translate(190.869141 0)"/>
       <use xlink:href="#DejaVuSans-30" transform="translate(254.492188 0)"/>
      </g>
     </g>
    </g>
    <g id="text_14">
     <!-- CO2 (PPM) -->
     <g transform="translate(18.577813 162.902969) rotate(-90) scale(0.1 -0.1)">
      <defs>
       <path id="DejaVuSans-43" d="M 4122 4306 
L 4122 3641 
Q 3803 3938 3442 4084 
Q 3081 4231 2675 4231 
Q 1875 4231 1450 3742 
Q 1025 3253 1025 2328 
Q 1025 1406 1450 917 
Q 1875 428 2675 428 
Q 3081 428 3442 575 
Q 3803 722 4122 1019 
L 4122 359 
Q 3791 134 3420 21 
Q 3050 -91 2638 -91 
Q 1578 -91 968 557 
Q 359 1206 359 2328 
Q 359 3453 968 4101 
Q 1578 4750 2638 4750 
Q 3056 4750 3426 4639 
Q 3797 4528 4122 4306 
z
" transform="scale(0.015625)"/>
       <path id="DejaVuSans-4f" d="M 2522 4238 
Q 1834 4238 1429 3725 
Q 1025 3213 1025 2328 
Q 1025 1447 1429 934 
Q 1834 422 2522 422 
Q 3209 422 3611 934 
Q 4013 1447 4013 2328 
Q 4013 3213 3611 3725 
Q 3209 4238 2522 4238 
z
M 2522 4750 
Q 3503 4750 4090 4092 
Q 4678 3434 4678 2328 
Q 4678 1225 4090 567 
Q 3503 -91 2522 -91 
Q 1538 -91 948 565 
Q 359 1222 359 2328 
Q 359 3434 948 4092 
Q 1538 4750 2522 4750 
z
" transform="scale(0.015625)"/>
       <path id="DejaVuSans-28" d="M 1984 4856 
Q 1566 4138 1362 3434 
Q 1159 2731 1159 2009 
Q 1159 1288 1364 580 
Q 1569 -128 1984 -844 
L 1484 -844 
Q 1016 -109 783 600 
Q 550 1309 550 2009 
Q 550 2706 781 3412 
Q 1013 4119 1484 4856 
L 1984 4856 
z
" transform="scale(0.015625)"/>
       <path id="DejaVuSans-50" d="M 1259 4147 
L 1259 2394 
L 2053 2394 
Q 2494 2394 2734 2622 
Q 2975 2850 2975 3272 
Q 2975 3691 2734 3919 
Q 2494 4147 2053 4147 
L 1259 4147 
z
M 628 4666 
L 2053 4666 
Q 2838 4666 3239 4311 
Q 3641 3956 3641 3272 
Q 3641 2581 3239 2228 
Q 2838 1875 2053 1875 
L 1259 1875 
L 1259 0 
L 628 0 
L 628 4666 
z
" transform="scale(0.015625)"/>
       <path id="DejaVuSans-4d" d="M 628 4666 
L 1569 4666 
L 2759 1491 
L 3956 4666 
L 4897 4666 
L 4897 0 
L 4281 0 
L 4281 4097 
L 3078 897 
L 2444 897 
L 1241 4097 
L 1241 0 
L 628 0 
L 628 4666 
z
" transform="scale(0.015625)"/>
       <path id="DejaVuSans-29" d="M 513 4856 
L 1013 4856 
Q 1481 4119 1714 3412 
Q 1947 2706 1947 2009 
Q 1947 1309 1714 600 
Q 1481 -109 1013 -844 
L 513 -844 
Q 928 -128 1133 580 
Q 1338 1288 1338 2009 
Q 1338 2731 1133 3434 
Q 928 4138 513 4856 
z
" transform="scale(0.015625)"/>
      </defs>
      <use xlink:href="#DejaVuSans-43"/>
      <use xlink:href="#DejaVuSans-4f" transform="translate(69.824219 0)"/>
      <use xlink:href="#DejaVuSans-32" transform="translate(148.535156 0)"/>
      <use xlink:href="#DejaVuSans-20" transform="translate(212.158203 0)"/>
      <use xlink:href="#DejaVuSans-28" transform="translate(243.945312 0)"/>
      <use xlink:href="#DejaVuSans-50" transform="translate(282.958984 0)"/>
      <use xlink:href="#DejaVuSans-50" transform="translate(343.261719 0)"/>
      <use xlink:href="#DejaVuSans-4d" transform="translate(403.564453 0)"/>
      <use xlink:href="#DejaVuSans-29" transform="translate(489.84375 0)"/>
     </g>
    </g>
   </g>
   <g id="line2d_13">
    <path d="M 92.821364 215.542919 
L 96.444989 215.542919 
L 100.068614 215.542919 
" clip-path="url(#pd65b523192)" style="fill: none; stroke: #1f77b4; stroke-width: 2; stroke-linecap: square"/>
   </g>
   <g id="line2d_14">
    <path d="M 92.821364 165.281328 
L 96.444989 152.365384 
L 100.068614 157.156895 
L 103.692239 147.143957 
L 107.315864 148.231689 
L 110.939489 148.178032 
L 114.563114 149.316387 
L 118.18674 152.319833 
L 121.810365 151.53527 
L 125.43399 154.15582 
L 129.057615 155.067888 
L 132.68124 153.851607 
L 136.304865 155.632136 
L 139.92849 152.712304 
L 143.552116 152.42525 
L 147.175741 151.596321 
L 150.799366 145.341055 
L 154.422991 150.50802 
L 158.046616 155.884303 
L 161.670241 163.956881 
L 165.293866 161.286751 
L 168.917492 161.693631 
L 172.541117 162.899484 
L 176.164742 166.350574 
L 179.788367 169.191533 
L 183.411992 166.149599 
L 187.035617 170.213095 
L 190.659242 172.033629 
L 194.282868 169.163472 
L 197.906493 169.717482 
L 201.530118 172.020736 
L 205.153743 168.33606 
L 208.777368 166.596295 
L 212.400993 163.157719 
L 216.024618 160.644009 
L 219.648244 155.098982 
L 223.271869 145.999724 
L 226.895494 139.165041 
L 230.519119 147.608286 
L 234.142744 144.106762 
L 237.766369 140.833138 
L 241.389994 134.332151 
L 245.01362 130.754787 
L 248.637245 134.096668 
L 252.26087 131.975808 
L 255.884495 129.683171 
L 259.50812 131.192383 
L 263.131745 127.705649 
L 266.75537 125.798657 
L 270.378996 125.556538 
L 274.002621 124.002771 
L 277.626246 124.762306 
L 281.249871 126.05765 
L 284.873496 130.253486 
L 288.497121 136.726413 
L 292.120746 130.683119 
L 295.744371 126.570706 
L 299.367997 139.444701 
L 302.991622 133.85417 
L 306.615247 137.645781 
L 310.238872 150.204661 
L 313.862497 140.939693 
L 317.486122 144.313426 
L 321.109747 156.0229 
L 324.733373 158.050098 
L 328.356998 156.852967 
L 331.980623 157.808169 
L 335.604248 154.599956 
L 339.227873 165.961516 
L 342.851498 169.938744 
L 346.475123 168.968374 
L 350.098749 172.62954 
L 353.722374 168.57268 
L 357.345999 171.679836 
L 360.969624 171.82033 
L 364.593249 175.782011 
L 368.216874 178.076923 
L 371.840499 177.956338 
L 375.464125 176.219986 
L 379.08775 179.38004 
L 382.711375 174.310719 
L 386.335 176.015597 
L 389.958625 173.813968 
L 393.58225 166.960705 
L 397.205875 173.015122 
L 400.829501 173.543346 
L 404.453126 168.913643 
L 408.076751 172.853912 
L 415.324001 162.899863 
L 418.947626 166.129691 
L 422.571251 164.055472 
L 426.194877 162.681634 
L 429.818502 168.107403 
L 433.442127 163.957449 
L 437.065752 161.693442 
L 440.689377 161.730793 
L 444.313002 162.37126 
L 447.936627 164.860891 
L 455.183878 165.636163 
L 458.807503 160.527026 
L 462.431128 163.324566 
L 466.054753 159.295008 
L 469.678378 161.091843 
L 473.302003 160.79474 
L 476.925629 158.787451 
L 480.549254 164.616687 
L 484.172879 162.757474 
L 487.796504 166.529114 
L 491.420129 166.774898 
L 495.043754 165.384565 
L 498.667379 163.574648 
L 502.291004 169.865938 
L 505.91463 164.371155 
L 509.538255 164.906205 
L 513.16188 163.344379 
L 516.785505 167.939607 
L 520.40913 160.395633 
L 524.032755 164.812922 
L 527.65638 159.660746 
L 531.280006 165.170317 
L 534.903631 167.113143 
L 538.527256 170.321356 
L 542.150881 169.284816 
L 545.774506 168.846082 
L 549.398131 168.757729 
L 553.021756 169.03682 
L 556.645382 170.235088 
L 560.269007 163.153927 
L 563.892632 160.796447 
L 567.516257 152.307699 
L 571.139882 149.67492 
L 574.763507 152.154502 
L 578.387132 156.076557 
L 582.010758 147.290517 
L 585.634383 149.69407 
L 589.258008 146.676404 
L 592.881633 143.88531 
L 596.505258 143.803593 
L 600.128883 146.266775 
L 603.752508 138.736547 
L 607.376134 140.445217 
L 610.999759 139.948467 
L 614.623384 134.298591 
L 618.247009 137.539226 
L 621.870634 142.330784 
L 625.494259 140.417156 
L 629.117884 145.305221 
L 632.74151 141.249309 
L 636.365135 141.772698 
L 639.98876 146.089404 
L 643.612385 140.492949 
L 647.23601 161.455684 
L 650.859635 150.427346 
L 654.48326 142.901478 
L 658.106886 137.870077 
L 661.730511 145.566489 
L 665.354136 160.891626 
L 668.977761 145.992519 
L 672.601386 152.896595 
L 676.225011 134.27072 
L 679.848636 142.31353 
L 679.848636 142.31353 
" clip-path="url(#pd65b523192)" style="fill: none; stroke-dasharray: 5.55,2.4; stroke-dashoffset: 0; stroke: #808080; stroke-width: 1.5"/>
   </g>
   <g id="patch_3">
    <path d="M 63.47 246.04 
L 63.47 26.88 
" style="fill: none; stroke: #000000; stroke-width: 0.8; stroke-linejoin: miter; stroke-linecap: square"/>
   </g>
   <g id="patch_4">
    <path d="M 709.2 246.04 
L 709.2 26.88 
" style="fill: none; stroke: #000000; stroke-width: 0.8; stroke-linejoin: miter; stroke-linecap: square"/>
   </g>
   <g id="patch_5">
    <path d="M 63.47 246.04 
L 709.2 246.04 
" style="fill: none; stroke: #000000; stroke-width: 0.8; stroke-linejoin: miter; stroke-linecap: square"/>
   </g>
   <g id="patch_6">
    <path d="M 63.47 26.88 
L 709.2 26.88 
" style="fill: none; stroke: #000000; stroke-width: 0.8; stroke-linejoin: miter; stroke-linecap: square"/>
   </g>
   <g id="text_15">
    <!-- CO2 - v001/c99999/d001 -->
    <g transform="translate(310.931875 20.88) scale(0.12 -0.12)">
     <defs>
      <path id="DejaVuSans-76" d="M 191 3500 
L 800 3500 
L 1894 563 
L 2988 3500 
L 3597 3500 
L 2284 0 
L 1503 0 
L 191 3500 
z
" transform="scale(0.015625)"/>
      <path id="DejaVuSans-2f" d="M 1625 4666 
L 2156 4666 
L 531 -594 
L 0 -594 
L 1625 4666 
z
" transform="scale(0.015625)"/>
      <path id="DejaVuSans-63" d="M 3122 3366 
L 3122 2828 
Q 2878 2963 2633 3030 
Q 2388 3097 2138 3097 
Q 1578 3097 1268 2742 
Q 959 2388 959 1747 
Q 959 1106 1268 751 
Q 1578 397 2138 397 
Q 2388 397 2633 464 
Q 2878 531 3122 666 
L 3122 134 
Q 2881 22 2623 -34 
Q 2366 -91 2075 -91 
Q 1284 -91 818 406 
Q 353 903 353 1747 
Q 353 2603 823 3093 
Q 1294 3584 2113 3584 
Q 2378 3584 2631 3529 
Q 2884 3475 3122 3366 
z
" transform="scale(0.015625)"/>
      <path id="DejaVuSans-39" d="M 703 97 
L 703 672 
Q 941 559 1184 500 
Q 1428 441 1663 441 
Q 2288 441 2617 861 
Q 2947 1281 2994 2138 
Q 2813 1869 2534 1725 
Q 2256 1581 1919 1581 
Q 1219 1581 811 2004 
Q 403 2428 403 3163 
Q 403 3881 828 4315 
Q 1253 4750 1959 4750 
Q 2769 4750 3195 4129 
Q 3622 3509 3622 2328 
Q 3622 1225 3098 567 
Q 2575 -91 1691 -91 
Q 1453 -91 1209 -44 
Q 966 3 703 97 
z
M 1959 2075 
Q 2384 2075 2632 2365 
Q 2881 2656 2881 3163 
Q 2881 3666 2632 3958 
Q 2384 4250 1959 4250 
Q 1534 4250 1286 3958 
Q 1038 3666 1038 3163 
Q 1038 2656 1286 2365 
Q 1534 2075 1959 2075 
z
" transform="scale(0.015625)"/>
     </defs>
     <use xlink:href="#DejaVuSans-43"/>
     <use xlink:href="#DejaVuSans-4f" transform="translate(69.824219 0)"/>
     <use xlink:href="#DejaVuSans-32" transform="translate(148.535156 0)"/>
     <use xlink:href="#DejaVuSans-20" transform="translate(212.158203 0)"/>
     <use xlink:href="#DejaVuSans-2d" transform="translate(243.945312 0)"/>
     <use xlink:href="#DejaVuSans-20" transform="translate(280.029297 0)"/>
     <use xlink:href="#DejaVuSans-76" transform="translate(311.816406 0)"/>
     <use xlink:href="#DejaVuSans-30" transform="translate(370.996094 0)"/>
     <use xlink:href="#DejaVuSans-30" transform="translate(434.619141 0)"/>
     <use xlink:href="#DejaVuSans-31" transform="translate(498.242188 0)"/>
     <use xlink:href="#DejaVuSans-2f" transform="translate(561.865234 0)"/>
     <use xlink:href="#DejaVuSans-63" transform="translate(595.556641 0)"/>
     <use xlink:href="#DejaVuSans-39" transform="translate(650.537109 0)"/>
     <use xlink:href="#DejaVuSans-39" transform="translate(714.160156 0)"/>
     <use xlink:href="#DejaVuSans-39" transform="translate(777.783203 0)"/>
     <use xlink:href="#DejaVuSans-39" transform="translate(841.40625 0)"/>
     <use xlink:href="#DejaVuSans-39" transform="translate(905.029297 0)"/>
     <use xlink:href="#DejaVuSans-2f" transform="translate(968.652344 0)"/>
     <use xlink:href="#DejaVuSans-64" transform="translate(1002.34375 0)"/>
     <use xlink:href="#DejaVuSans-30" transform="translate(1065.820312 0)"/>
     <use xlink:href="#DejaVuSans-30" transform="translate(1129.443359 0)"/>
     <use xlink:href="#DejaVuSans-31" transform="translate(1193.066406 0)"/>
    </g>
   </g>
   <g id="legend_1">
    <g id="patch_7">
     <path d="M 551.25625 78.914375 
L 702.2 78.914375 
Q 704.2 78.914375 704.2 76.914375 
L 704.2 33.88 
Q 704.2 31.88 702.2 31.88 
L 551.25625 31.88 
Q 549.25625 31.88 549.25625 33.88 
L 549.25625 76.914375 
Q 549.25625 78.914375 551.25625 78.914375 
z
" style="fill: #ffffff; opacity: 0.8; stroke: #cccccc; stroke-linejoin: miter"/>
    </g>
    <g id="line2d_15">
     <path d="M 553.25625 39.978438 
L 563.25625 39.978438 
L 573.25625 39.978438 
" style="fill: none; stroke: #1f77b4; stroke-width: 2; stroke-linecap: square"/>
    </g>
    <g id="text_16">
     <!-- Hive -->
     <g transform="translate(581.25625 43.478438) scale(0.1 -0.1)">
      <defs>
       <path id="DejaVuSans-48" d="M 628 4666 
L 1259 4666 
L 1259 2753 
L 3553 2753 
L 3553 4666 
L 4184 4666 
L 4184 0 
L 3553 0 
L 3553 2222 
L 1259 2222 
L 1259 0 
L 628 0 
L 628 4666 
z
" transform="scale(0.015625)"/>
       <path id="DejaVuSans-65" d="M 3597 1894 
L 3597 1613 
L 953 1613 
Q 991 1019 1311 708 
Q 1631 397 2203 397 
Q 2534 397 2845 478 
Q 3156 559 3463 722 
L 3463 178 
Q 3153 47 2828 -22 
Q 2503 -91 2169 -91 
Q 1331 -91 842 396 
Q 353 884 353 1716 
Q 353 2575 817 3079 
Q 1281 3584 2069 3584 
Q 2775 3584 3186 3129 
Q 3597 2675 3597 1894 
z
M 3022 2063 
Q 3016 2534 2758 2815 
Q 2500 3097 2075 3097 
Q 1594 3097 1305 2825 
Q 1016 2553 972 2059 
L 3022 2063 
z
" transform="scale(0.015625)"/>
      </defs>
      <use xlink:href="#DejaVuSans-48"/>
      <use xlink:href="#DejaVuSans-69" transform="translate(75.195312 0)"/>
      <use xlink:href="#DejaVuSans-76" transform="translate(102.978516 0)"/>
      <use xlink:href="#DejaVuSans-65" transform="translate(162.158203 0)"/>
     </g>
    </g>
    <g id="line2d_16">
     <path d="M 553.25625 54.656563 
L 563.25625 54.656563 
L 573.25625 54.656563 
" style="fill: none; stroke-dasharray: 5.55,2.4; stroke-dashoffset: 0; stroke: #808080; stroke-width: 1.5"/>
    </g>
    <g id="text_17">
     <!-- Gemiddelde (alle hives) -->
     <g transform="translate(581.25625 58.156563) scale(0.1 -0.1)">
      <defs>
       <path id="DejaVuSans-47" d="M 3809 666 
L 3809 1919 
L 2778 1919 
L 2778 2438 
L 4434 2438 
L 4434 434 
Q 4069 175 3628 42 
Q 3188 -91 2688 -91 
Q 1594 -91 976 548 
Q 359 1188 359 2328 
Q 359 3472 976 4111 
Q 1594 4750 2688 4750 
Q 3144 4750 3555 4637 
Q 3966 4525 4313 4306 
L 4313 3634 
Q 3963 3931 3569 4081 
Q 3175 4231 2741 4231 
Q 1884 4231 1454 3753 
Q 1025 3275 1025 2328 
Q 1025 1384 1454 906 
Q 1884 428 2741 428 
Q 3075 428 3337 486 
Q 3600 544 3809 666 
z
" transform="scale(0.015625)"/>
       <path id="DejaVuSans-6d" d="M 3328 2828 
Q 3544 3216 3844 3400 
Q 4144 3584 4550 3584 
Q 5097 3584 5394 3201 
Q 5691 2819 5691 2113 
L 5691 0 
L 5113 0 
L 5113 2094 
Q 5113 2597 4934 2840 
Q 4756 3084 4391 3084 
Q 3944 3084 3684 2787 
Q 3425 2491 3425 1978 
L 3425 0 
L 2847 0 
L 2847 2094 
Q 2847 2600 2669 2842 
Q 2491 3084 2119 3084 
Q 1678 3084 1418 2786 
Q 1159 2488 1159 1978 
L 1159 0 
L 581 0 
L 581 3500 
L 1159 3500 
L 1159 2956 
Q 1356 3278 1631 3431 
Q 1906 3584 2284 3584 
Q 2666 3584 2933 3390 
Q 3200 3197 3328 2828 
z
" transform="scale(0.015625)"/>
       <path id="DejaVuSans-6c" d="M 603 4863 
L 1178 4863 
L 1178 0 
L 603 0 
L 603 4863 
z
" transform="scale(0.015625)"/>
       <path id="DejaVuSans-61" d="M 2194 1759 
Q 1497 1759 1228 1600 
Q 959 1441 959 1056 
Q 959 750 1161 570 
Q 1363 391 1709 391 
Q 2188 391 2477 730 
Q 2766 1069 2766 1631 
L 2766 1759 
L 2194 1759 
z
M 3341 1997 
L 3341 0 
L 2766 0 
L 2766 531 
Q 2569 213 2275 61 
Q 1981 -91 1556 -91 
Q 1019 -91 701 211 
Q 384 513 384 1019 
Q 384 1609 779 1909 
Q 1175 2209 1959 2209 
L 2766 2209 
L 2766 2266 
Q 2766 2663 2505 2880 
Q 2244 3097 1772 3097 
Q 1472 3097 1187 3025 
Q 903 2953 641 2809 
L 641 3341 
Q 956 3463 1253 3523 
Q 1550 3584 1831 3584 
Q 2591 3584 2966 3190 
Q 3341 2797 3341 1997 
z
" transform="scale(0.015625)"/>
       <path id="DejaVuSans-68" d="M 3513 2113 
L 3513 0 
L 2938 0 
L 2938 2094 
Q 2938 2591 2744 2837 
Q 2550 3084 2163 3084 
Q 1697 3084 1428 2787 
Q 1159 2491 1159 1978 
L 1159 0 
L 581 0 
L 581 4863 
L 1159 4863 
L 1159 2956 
Q 1366 3272 1645 3428 
Q 1925 3584 2291 3584 
Q 2894 3584 3203 3211 
Q 3513 2838 3513 2113 
z
" transform="scale(0.015625)"/>
       <path id="DejaVuSans-73" d="M 2834 3397 
L 2834 2853 
Q 2591 2978 2328 3040 
Q 2066 3103 1784 3103 
Q 1356 3103 1142 2972 
Q 928 2841 928 2578 
Q 928 2378 1081 2264 
Q 1234 2150 1697 2047 
L 1894 2003 
Q 2506 1872 2764 1633 
Q 3022 1394 3022 966 
Q 3022 478 2636 193 
Q 2250 -91 1575 -91 
Q 1294 -91 989 -36 
Q 684 19 347 128 
L 347 722 
Q 666 556 975 473 
Q 1284 391 1588 391 
Q 1994 391 2212 530 
Q 2431 669 2431 922 
Q 2431 1156 2273 1281 
Q 2116 1406 1581 1522 
L 1381 1569 
Q 847 1681 609 1914 
Q 372 2147 372 2553 
Q 372 3047 722 3315 
Q 1072 3584 1716 3584 
Q 2034 3584 2315 3537 
Q 2597 3491 2834 3397 
z
" transform="scale(0.015625)"/>
      </defs>
      <use xlink:href="#DejaVuSans-47"/>
      <use xlink:href="#DejaVuSans-65" transform="translate(77.490234 0)"/>
      <use xlink:href="#DejaVuSans-6d" transform="translate(139.013672 0)"/>
      <use xlink:href="#DejaVuSans-69" transform="translate(236.425781 0)"/>
      <use xlink:href="#DejaVuSans-64" transform="translate(264.208984 0)"/>
      <use xlink:href="#DejaVuSans-64" transform="translate(327.685547 0)"/>
      <use xlink:href="#DejaVuSans-65" transform="translate(391.162109 0)"/>
      <use xlink:href="#DejaVuSans-6c" transform="translate(452.685547 0)"/>
      <use xlink:href="#DejaVuSans-64" transform="translate(480.46875 0)"/>
      <use xlink:href="#DejaVuSans-65" transform="translate(543.945312 0)"/>
      <use xlink:href="#DejaVuSans-20" transform="translate(605.46875 0)"/>
      <use xlink:href="#DejaVuSans-28" transform="translate(637.255859 0)"/>
      <use xlink:href="#DejaVuSans-61" transform="translate(676.269531 0)"/>
      <use xlink:href="#DejaVuSans-6c" transform="translate(737.548828 0)"/>
      <use xlink:href="#DejaVuSans-6c" transform="translate(765.332031 0)"/>
      <use xlink:href="#DejaVuSans-65" transform="translate(793.115234 0)"/>
      <use xlink:href="#DejaVuSans-20" transform="translate(854.638672 0)"/>
      <use xlink:href="#DejaVuSans-68" transform="translate(886.425781 0)"/>
      <use xlink:href="#DejaVuSans-69" transform="translate(949.804688 0)"/>
      <use xlink:href="#DejaVuSans-76" transform="translate(977.587891 0)"/>
      <use xlink:href="#DejaVuSans-65" transform="translate(1036.767578 0)"/>
      <use xlink:href="#DejaVuSans-73" transform="translate(1098.291016 0)"/>
      <use xlink:href="#DejaVuSans-29" transform="translate(1150.390625 0)"/>
     </g>
    </g>
    <g id="patch_8">
     <path d="M 553.25625 72.834688 
L 573.25625 72.834688 
L 573.25625 65.834688 
L 553.25625 65.834688 
z
" style="fill: #808080; fill-opacity: 0.2; stroke: #808080; stroke-opacity: 0.2; stroke-linejoin: miter"/>
    </g>
    <g id="text_18">
     <!-- ±2 Std Dev -->
     <g transform="translate(581.25625 72.834688) scale(0.1 -0.1)">
      <defs>
       <path id="DejaVuSans-b1" d="M 2944 4013 
L 2944 2803 
L 4684 2803 
L 4684 2272 
L 2944 2272 
L 2944 1063 
L 2419 1063 
L 2419 2272 
L 678 2272 
L 678 2803 
L 2419 2803 
L 2419 4013 
L 2944 4013 
z
M 678 531 
L 4684 531 
L 4684 0 
L 678 0 
L 678 531 
z
" transform="scale(0.015625)"/>
       <path id="DejaVuSans-53" d="M 3425 4513 
L 3425 3897 
Q 3066 4069 2747 4153 
Q 2428 4238 2131 4238 
Q 1616 4238 1336 4038 
Q 1056 3838 1056 3469 
Q 1056 3159 1242 3001 
Q 1428 2844 1947 2747 
L 2328 2669 
Q 3034 2534 3370 2195 
Q 3706 1856 3706 1288 
Q 3706 609 3251 259 
Q 2797 -91 1919 -91 
Q 1588 -91 1214 -16 
Q 841 59 441 206 
L 441 856 
Q 825 641 1194 531 
Q 1563 422 1919 422 
Q 2459 422 2753 634 
Q 3047 847 3047 1241 
Q 3047 1584 2836 1778 
Q 2625 1972 2144 2069 
L 1759 2144 
Q 1053 2284 737 2584 
Q 422 2884 422 3419 
Q 422 4038 858 4394 
Q 1294 4750 2059 4750 
Q 2388 4750 2728 4690 
Q 3069 4631 3425 4513 
z
" transform="scale(0.015625)"/>
       <path id="DejaVuSans-74" d="M 1172 4494 
L 1172 3500 
L 2356 3500 
L 2356 3053 
L 1172 3053 
L 1172 1153 
Q 1172 725 1289 603 
Q 1406 481 1766 481 
L 2356 481 
L 2356 0 
L 1766 0 
Q 1100 0 847 248 
Q 594 497 594 1153 
L 594 3053 
L 172 3053 
L 172 3500 
L 594 3500 
L 594 4494 
L 1172 4494 
z
" transform="scale(0.015625)"/>
       <path id="DejaVuSans-44" d="M 1259 4147 
L 1259 519 
L 2022 519 
Q 2988 519 3436 956 
Q 3884 1394 3884 2338 
Q 3884 3275 3436 3711 
Q 2988 4147 2022 4147 
L 1259 4147 
z
M 628 4666 
L 1925 4666 
Q 3281 4666 3915 4102 
Q 4550 3538 4550 2338 
Q 4550 1131 3912 565 
Q 3275 0 1925 0 
L 628 0 
L 628 4666 
z
" transform="scale(0.015625)"/>
      </defs>
      <use xlink:href="#DejaVuSans-b1"/>
      <use xlink:href="#DejaVuSans-32" transform="translate(83.789062 0)"/>
      <use xlink:href="#DejaVuSans-20" transform="translate(147.412109 0)"/>
      <use xlink:href="#DejaVuSans-53" transform="translate(179.199219 0)"/>
      <use xlink:href="#DejaVuSans-74" transform="translate(242.675781 0)"/>
      <use xlink:href="#DejaVuSans-64" transform="translate(281.884766 0)"/>
      <use xlink:href="#DejaVuSans-20" transform="translate(345.361328 0)"/>
      <use xlink:href="#DejaVuSans-44" transform="translate(377.148438 0)"/>
      <use xlink:href="#DejaVuSans-65" transform="translate(454.150391 0)"/>
      <use xlink:href="#DejaVuSans-76" transform="translate(515.673828 0)"/>
     </g>
    </g>
   </g>
  </g>
 </g>
 <defs>
  <clipPath id="pd65b523192">
   <rect x="63.47" y="26.88" width="645.73" height="219.16"/>
  </clipPath>
 </defs>
</svg>
