<?xml version="1.0" encoding="utf-8" standalone="no"?>
<!DOCTYPE svg PUBLIC "-//W3C//DTD SVG 1.1//EN"
  "http://www.w3.org/Graphics/SVG/1.1/DTD/svg11.dtd">
<svg xmlns:xlink="http://www.w3.org/1999/xlink" width="720pt" height="288pt" viewBox="0 0 720 288" xmlns="http://www.w3.org/2000/svg" version="1.1">
 <metadata>
  <rdf:RDF xmlns:dc="http://purl.org/dc/elements/1.1/" xmlns:cc="http://creativecommons.org/ns#" xmlns:rdf="http://www.w3.org/1999/02/22-rdf-syntax-ns#">
   <cc:Work>
    <dc:type rdf:resource="http://purl.org/dc/dcmitype/StillImage"/>
    <dc:date>2025-04-24T21:23:06.743631</dc:date>
    <dc:format>image/svg+xml</dc:format>
    <dc:creator>
     <cc:Agent>
      <dc:title>Matplotlib v3.10.1, https://matplotlib.org/</dc:title>
     </cc:Agent>
    </dc:creator>
   </cc:Work>
  </rdf:RDF>
 </metadata>
 <defs>
  <style type="text/css">*{stroke-linejoin: round; stroke-linecap: butt}</style>
 </defs>
 <g id="figure_1">
  <g id="patch_1">
   <path d="M 0 288 
L 720 288 
L 720 0 
L 0 0 
z
" style="fill: #ffffff"/>
  </g>
  <g id="axes_1">
   <g id="patch_2">
    <path d="M 50.87 246.04 
L 709.2 246.04 
L 709.2 26.88 
L 50.87 26.88 
z
" style="fill: #ffffff"/>
   </g>
   <g id="FillBetweenPolyCollection_1">
    <defs>
     <path id="m2f80649b5e" d="M 80.794091 -242.619847 
L 80.794091 -174.465278 
L 85.099715 -175.423087 
L 89.40534 -179.175905 
L 93.710965 -170.642578 
L 98.016589 -169.532456 
L 102.322214 -174.19468 
L 106.627838 -175.309574 
L 110.933463 -176.534199 
L 115.239088 -179.915782 
L 119.544712 -179.238163 
L 123.850337 -178.190975 
L 128.155961 -177.213308 
L 132.461586 -175.783413 
L 136.767211 -181.689857 
L 141.072835 -183.573752 
L 145.37846 -182.402686 
L 149.684084 -182.628526 
L 153.989709 -181.662454 
L 158.295334 -181.58036 
L 162.600958 -177.322539 
L 166.906583 -170.904925 
L 171.212207 -161.293376 
L 175.517832 -152.876862 
L 179.823457 -152.097782 
L 184.129081 -147.558772 
L 188.434706 -132.464864 
L 192.74033 -131.263088 
L 197.045955 -115.436189 
L 201.351579 -108.817642 
L 205.657204 -92.367706 
L 209.962829 -65.753514 
L 214.268453 -60.480637 
L 218.574078 -51.921818 
L 222.879702 -63.375163 
L 227.185327 -66.37847 
L 231.490952 -69.276325 
L 235.796576 -58.295264 
L 240.102201 -60.923073 
L 244.407825 -91.328003 
L 248.71345 -113.304901 
L 253.019075 -130.772146 
L 257.324699 -154.882342 
L 261.630324 -164.737168 
L 265.935948 -163.522509 
L 270.241573 -168.342137 
L 274.547198 -170.639815 
L 278.852822 -171.158449 
L 283.158447 -172.211279 
L 287.464071 -174.823335 
L 291.769696 -176.045343 
L 296.07532 -176.932202 
L 300.380945 -174.837496 
L 304.68657 -176.634577 
L 308.992194 -178.656232 
L 313.297819 -179.064871 
L 317.603443 -178.708822 
L 321.909068 -176.928585 
L 326.214693 -169.216701 
L 330.520317 -169.045631 
L 334.825942 -169.864462 
L 339.131566 -173.3292 
L 343.437191 -171.288241 
L 347.742816 -171.76895 
L 352.04844 -178.888123 
L 356.354065 -177.856787 
L 360.659689 -170.821862 
L 364.965314 -183.319194 
L 369.270939 -165.562544 
L 373.576563 -159.266754 
L 377.882188 -158.407885 
L 382.187812 -148.480645 
L 386.493437 -150.700418 
L 390.799061 -149.859797 
L 395.104686 -146.390106 
L 399.410311 -143.23609 
L 403.715935 -138.990396 
L 408.02156 -130.57136 
L 412.327184 -139.652385 
L 416.632809 -143.050527 
L 420.938434 -154.388448 
L 425.244058 -172.283858 
L 429.549683 -161.116367 
L 433.855307 -167.24283 
L 438.160932 -170.999105 
L 442.466557 -172.613591 
L 446.772181 -170.469486 
L 451.077806 -180.237323 
L 455.38343 -182.167767 
L 459.689055 -181.23971 
L 463.99468 -185.398882 
L 468.300304 -188.357866 
L 472.605929 -194.718025 
L 476.911553 -189.414588 
L 481.217178 -188.98966 
L 485.522802 -189.241001 
L 489.828427 -191.846878 
L 494.134052 -191.642837 
L 498.439676 -192.038755 
L 502.745301 -192.7969 
L 507.050925 -191.951048 
L 511.35655 -191.473522 
L 515.662175 -192.712147 
L 519.967799 -193.01655 
L 524.273424 -192.105878 
L 528.579048 -192.721467 
L 532.884673 -191.952179 
L 537.190298 -183.978192 
L 541.495922 -186.874679 
L 545.801547 -185.884779 
L 550.107171 -186.110893 
L 554.412796 -195.811204 
L 558.718421 -196.788012 
L 563.024045 -196.768891 
L 567.32967 -197.730911 
L 571.635294 -196.027703 
L 575.940919 -194.821364 
L 580.246543 -193.193442 
L 584.552168 -190.028614 
L 588.857793 -186.031846 
L 593.163417 -180.866903 
L 597.469042 -170.164238 
L 601.774666 -160.016812 
L 606.080291 -159.966816 
L 610.385916 -157.755871 
L 614.69154 -153.755271 
L 618.997165 -156.517415 
L 623.302789 -151.926996 
L 627.608414 -153.723666 
L 631.914039 -162.31781 
L 636.219663 -165.237342 
L 640.525288 -169.56557 
L 644.830912 -177.459253 
L 649.136537 -183.838544 
L 653.442162 -176.037641 
L 657.747786 -175.080729 
L 662.053411 -183.431555 
L 666.359035 -185.532507 
L 670.66466 -186.073299 
L 674.970284 -186.913079 
L 679.275909 -185.363086 
L 679.275909 -233.254857 
L 679.275909 -233.254857 
L 674.970284 -240.295778 
L 670.66466 -239.376975 
L 666.359035 -241.01094 
L 662.053411 -238.572848 
L 657.747786 -239.057582 
L 653.442162 -242.711008 
L 649.136537 -234.838811 
L 644.830912 -232.924247 
L 640.525288 -237.871116 
L 636.219663 -238.872296 
L 631.914039 -238.250898 
L 627.608414 -240.095888 
L 623.302789 -247.287128 
L 618.997165 -244.383998 
L 614.69154 -246.956024 
L 610.385916 -242.123663 
L 606.080291 -241.932711 
L 601.774666 -244.73447 
L 597.469042 -245.922773 
L 593.163417 -241.565263 
L 588.857793 -241.17701 
L 584.552168 -241.600464 
L 580.246543 -241.097274 
L 575.940919 -241.227934 
L 571.635294 -242.255471 
L 567.32967 -241.40779 
L 563.024045 -241.324166 
L 558.718421 -240.568341 
L 554.412796 -241.212444 
L 550.107171 -243.379368 
L 545.801547 -242.749955 
L 541.495922 -241.118411 
L 537.190298 -241.448317 
L 532.884673 -239.914545 
L 528.579048 -238.004554 
L 524.273424 -237.336853 
L 519.967799 -236.093477 
L 515.662175 -235.257178 
L 511.35655 -235.164984 
L 507.050925 -235.16275 
L 502.745301 -235.172425 
L 498.439676 -235.740453 
L 494.134052 -236.278959 
L 489.828427 -234.363864 
L 485.522802 -233.024813 
L 481.217178 -229.663931 
L 476.911553 -226.81501 
L 472.605929 -209.035143 
L 468.300304 -223.071278 
L 463.99468 -224.604383 
L 459.689055 -225.745448 
L 455.38343 -219.874348 
L 451.077806 -222.066202 
L 446.772181 -231.334982 
L 442.466557 -231.329694 
L 438.160932 -227.668432 
L 433.855307 -222.60803 
L 429.549683 -227.807673 
L 425.244058 -205.803511 
L 420.938434 -205.138746 
L 416.632809 -204.499295 
L 412.327184 -196.110181 
L 408.02156 -185.823033 
L 403.715935 -182.513392 
L 399.410311 -185.397087 
L 395.104686 -186.378117 
L 390.799061 -191.843926 
L 386.493437 -203.099501 
L 382.187812 -223.974508 
L 377.882188 -233.344146 
L 373.576563 -251.116746 
L 369.270939 -245.81907 
L 364.965314 -246.64636 
L 360.659689 -245.835499 
L 356.354065 -251.158182 
L 352.04844 -249.461436 
L 347.742816 -242.749595 
L 343.437191 -242.873835 
L 339.131566 -241.688402 
L 334.825942 -243.869851 
L 330.520317 -244.260918 
L 326.214693 -243.02044 
L 321.909068 -246.668049 
L 317.603443 -245.268045 
L 313.297819 -243.105885 
L 308.992194 -243.13429 
L 304.68657 -242.87454 
L 300.380945 -242.057512 
L 296.07532 -238.489398 
L 291.769696 -236.999795 
L 287.464071 -235.132401 
L 283.158447 -232.611298 
L 278.852822 -227.818029 
L 274.547198 -219.876455 
L 270.241573 -210.719582 
L 265.935948 -199.094086 
L 261.630324 -184.476178 
L 257.324699 -178.503761 
L 253.019075 -171.102059 
L 248.71345 -191.135884 
L 244.407825 -192.15238 
L 240.102201 -206.349832 
L 235.796576 -203.036485 
L 231.490952 -192.198011 
L 227.185327 -204.554188 
L 222.879702 -207.747612 
L 218.574078 -220.769423 
L 214.268453 -193.484077 
L 209.962829 -225.426609 
L 205.657204 -216.065536 
L 201.351579 -188.921518 
L 197.045955 -212.579108 
L 192.74033 -209.513814 
L 188.434706 -219.932942 
L 184.129081 -218.432401 
L 179.823457 -223.684418 
L 175.517832 -233.932126 
L 171.212207 -237.302868 
L 166.906583 -237.434817 
L 162.600958 -241.140935 
L 158.295334 -242.016273 
L 153.989709 -242.932294 
L 149.684084 -241.657281 
L 145.37846 -239.696776 
L 141.072835 -238.002887 
L 136.767211 -238.389611 
L 132.461586 -231.035392 
L 128.155961 -230.247142 
L 123.850337 -228.200067 
L 119.544712 -240.651188 
L 115.239088 -240.638979 
L 110.933463 -242.784801 
L 106.627838 -243.961897 
L 102.322214 -233.479651 
L 98.016589 -244.344444 
L 93.710965 -244.446318 
L 89.40534 -242.472029 
L 85.099715 -242.85027 
L 80.794091 -242.619847 
z
" style="stroke: #808080; stroke-opacity: 0.2"/>
    </defs>
    <g clip-path="url(#pd5319bd319)">
     <use xlink:href="#m2f80649b5e" x="0" y="288" style="fill: #808080; fill-opacity: 0.2; stroke: #808080; stroke-opacity: 0.2"/>
    </g>
   </g>
   <g id="matplotlib.axis_1">
    <g id="xtick_1">
     <g id="line2d_1">
      <defs>
       <path id="mf4ebce7bd5" d="M 0 0 
L 0 3.5 
" style="stroke: #000000; stroke-width: 0.8"/>
      </defs>
      <g>
       <use xlink:href="#mf4ebce7bd5" x="106.627838" y="246.04" style="stroke: #000000; stroke-width: 0.8"/>
      </g>
     </g>
     <g id="text_1">
      <!-- 04-22 00 -->
      <g transform="translate(84.14737 260.638438) scale(0.1 -0.1)">
       <defs>
        <path id="DejaVuSans-30" d="M 2034 4250 
Q 1547 4250 1301 3770 
Q 1056 3291 1056 2328 
Q 1056 1369 1301 889 
Q 1547 409 2034 409 
Q 2525 409 2770 889 
Q 3016 1369 3016 2328 
Q 3016 3291 2770 3770 
Q 2525 4250 2034 4250 
z
M 2034 4750 
Q 2819 4750 3233 4129 
Q 3647 3509 3647 2328 
Q 3647 1150 3233 529 
Q 2819 -91 2034 -91 
Q 1250 -91 836 529 
Q 422 1150 422 2328 
Q 422 3509 836 4129 
Q 1250 4750 2034 4750 
z
" transform="scale(0.015625)"/>
        <path id="DejaVuSans-34" d="M 2419 4116 
L 825 1625 
L 2419 1625 
L 2419 4116 
z
M 2253 4666 
L 3047 4666 
L 3047 1625 
L 3713 1625 
L 3713 1100 
L 3047 1100 
L 3047 0 
L 2419 0 
L 2419 1100 
L 313 1100 
L 313 1709 
L 2253 4666 
z
" transform="scale(0.015625)"/>
        <path id="DejaVuSans-2d" d="M 313 2009 
L 1997 2009 
L 1997 1497 
L 313 1497 
L 313 2009 
z
" transform="scale(0.015625)"/>
        <path id="DejaVuSans-32" d="M 1228 531 
L 3431 531 
L 3431 0 
L 469 0 
L 469 531 
Q 828 903 1448 1529 
Q 2069 2156 2228 2338 
Q 2531 2678 2651 2914 
Q 2772 3150 2772 3378 
Q 2772 3750 2511 3984 
Q 2250 4219 1831 4219 
Q 1534 4219 1204 4116 
Q 875 4013 500 3803 
L 500 4441 
Q 881 4594 1212 4672 
Q 1544 4750 1819 4750 
Q 2544 4750 2975 4387 
Q 3406 4025 3406 3419 
Q 3406 3131 3298 2873 
Q 3191 2616 2906 2266 
Q 2828 2175 2409 1742 
Q 1991 1309 1228 531 
z
" transform="scale(0.015625)"/>
        <path id="DejaVuSans-20" transform="scale(0.015625)"/>
       </defs>
       <use xlink:href="#DejaVuSans-30"/>
       <use xlink:href="#DejaVuSans-34" transform="translate(63.623047 0)"/>
       <use xlink:href="#DejaVuSans-2d" transform="translate(127.246094 0)"/>
       <use xlink:href="#DejaVuSans-32" transform="translate(163.330078 0)"/>
       <use xlink:href="#DejaVuSans-32" transform="translate(226.953125 0)"/>
       <use xlink:href="#DejaVuSans-20" transform="translate(290.576172 0)"/>
       <use xlink:href="#DejaVuSans-30" transform="translate(322.363281 0)"/>
       <use xlink:href="#DejaVuSans-30" transform="translate(385.986328 0)"/>
      </g>
     </g>
    </g>
    <g id="xtick_2">
     <g id="line2d_2">
      <g>
       <use xlink:href="#mf4ebce7bd5" x="209.962829" y="246.04" style="stroke: #000000; stroke-width: 0.8"/>
      </g>
     </g>
     <g id="text_2">
      <!-- 04-22 12 -->
      <g transform="translate(187.48236 260.638438) scale(0.1 -0.1)">
       <defs>
        <path id="DejaVuSans-31" d="M 794 531 
L 1825 531 
L 1825 4091 
L 703 3866 
L 703 4441 
L 1819 4666 
L 2450 4666 
L 2450 531 
L 3481 531 
L 3481 0 
L 794 0 
L 794 531 
z
" transform="scale(0.015625)"/>
       </defs>
       <use xlink:href="#DejaVuSans-30"/>
       <use xlink:href="#DejaVuSans-34" transform="translate(63.623047 0)"/>
       <use xlink:href="#DejaVuSans-2d" transform="translate(127.246094 0)"/>
       <use xlink:href="#DejaVuSans-32" transform="translate(163.330078 0)"/>
       <use xlink:href="#DejaVuSans-32" transform="translate(226.953125 0)"/>
       <use xlink:href="#DejaVuSans-20" transform="translate(290.576172 0)"/>
       <use xlink:href="#DejaVuSans-31" transform="translate(322.363281 0)"/>
       <use xlink:href="#DejaVuSans-32" transform="translate(385.986328 0)"/>
      </g>
     </g>
    </g>
    <g id="xtick_3">
     <g id="line2d_3">
      <g>
       <use xlink:href="#mf4ebce7bd5" x="313.297819" y="246.04" style="stroke: #000000; stroke-width: 0.8"/>
      </g>
     </g>
     <g id="text_3">
      <!-- 04-23 00 -->
      <g transform="translate(290.81735 260.638438) scale(0.1 -0.1)">
       <defs>
        <path id="DejaVuSans-33" d="M 2597 2516 
Q 3050 2419 3304 2112 
Q 3559 1806 3559 1356 
Q 3559 666 3084 287 
Q 2609 -91 1734 -91 
Q 1441 -91 1130 -33 
Q 819 25 488 141 
L 488 750 
Q 750 597 1062 519 
Q 1375 441 1716 441 
Q 2309 441 2620 675 
Q 2931 909 2931 1356 
Q 2931 1769 2642 2001 
Q 2353 2234 1838 2234 
L 1294 2234 
L 1294 2753 
L 1863 2753 
Q 2328 2753 2575 2939 
Q 2822 3125 2822 3475 
Q 2822 3834 2567 4026 
Q 2313 4219 1838 4219 
Q 1578 4219 1281 4162 
Q 984 4106 628 3988 
L 628 4550 
Q 988 4650 1302 4700 
Q 1616 4750 1894 4750 
Q 2613 4750 3031 4423 
Q 3450 4097 3450 3541 
Q 3450 3153 3228 2886 
Q 3006 2619 2597 2516 
z
" transform="scale(0.015625)"/>
       </defs>
       <use xlink:href="#DejaVuSans-30"/>
       <use xlink:href="#DejaVuSans-34" transform="translate(63.623047 0)"/>
       <use xlink:href="#DejaVuSans-2d" transform="translate(127.246094 0)"/>
       <use xlink:href="#DejaVuSans-32" transform="translate(163.330078 0)"/>
       <use xlink:href="#DejaVuSans-33" transform="translate(226.953125 0)"/>
       <use xlink:href="#DejaVuSans-20" transform="translate(290.576172 0)"/>
       <use xlink:href="#DejaVuSans-30" transform="translate(322.363281 0)"/>
       <use xlink:href="#DejaVuSans-30" transform="translate(385.986328 0)"/>
      </g>
     </g>
    </g>
    <g id="xtick_4">
     <g id="line2d_4">
      <g>
       <use xlink:href="#mf4ebce7bd5" x="416.632809" y="246.04" style="stroke: #000000; stroke-width: 0.8"/>
      </g>
     </g>
     <g id="text_4">
      <!-- 04-23 12 -->
      <g transform="translate(394.15234 260.638438) scale(0.1 -0.1)">
       <use xlink:href="#DejaVuSans-30"/>
       <use xlink:href="#DejaVuSans-34" transform="translate(63.623047 0)"/>
       <use xlink:href="#DejaVuSans-2d" transform="translate(127.246094 0)"/>
       <use xlink:href="#DejaVuSans-32" transform="translate(163.330078 0)"/>
       <use xlink:href="#DejaVuSans-33" transform="translate(226.953125 0)"/>
       <use xlink:href="#DejaVuSans-20" transform="translate(290.576172 0)"/>
       <use xlink:href="#DejaVuSans-31" transform="translate(322.363281 0)"/>
       <use xlink:href="#DejaVuSans-32" transform="translate(385.986328 0)"/>
      </g>
     </g>
    </g>
    <g id="xtick_5">
     <g id="line2d_5">
      <g>
       <use xlink:href="#mf4ebce7bd5" x="519.967799" y="246.04" style="stroke: #000000; stroke-width: 0.8"/>
      </g>
     </g>
     <g id="text_5">
      <!-- 04-24 00 -->
      <g transform="translate(497.48733 260.638438) scale(0.1 -0.1)">
       <use xlink:href="#DejaVuSans-30"/>
       <use xlink:href="#DejaVuSans-34" transform="translate(63.623047 0)"/>
       <use xlink:href="#DejaVuSans-2d" transform="translate(127.246094 0)"/>
       <use xlink:href="#DejaVuSans-32" transform="translate(163.330078 0)"/>
       <use xlink:href="#DejaVuSans-34" transform="translate(226.953125 0)"/>
       <use xlink:href="#DejaVuSans-20" transform="translate(290.576172 0)"/>
       <use xlink:href="#DejaVuSans-30" transform="translate(322.363281 0)"/>
       <use xlink:href="#DejaVuSans-30" transform="translate(385.986328 0)"/>
      </g>
     </g>
    </g>
    <g id="xtick_6">
     <g id="line2d_6">
      <g>
       <use xlink:href="#mf4ebce7bd5" x="623.302789" y="246.04" style="stroke: #000000; stroke-width: 0.8"/>
      </g>
     </g>
     <g id="text_6">
      <!-- 04-24 12 -->
      <g transform="translate(600.822321 260.638438) scale(0.1 -0.1)">
       <use xlink:href="#DejaVuSans-30"/>
       <use xlink:href="#DejaVuSans-34" transform="translate(63.623047 0)"/>
       <use xlink:href="#DejaVuSans-2d" transform="translate(127.246094 0)"/>
       <use xlink:href="#DejaVuSans-32" transform="translate(163.330078 0)"/>
       <use xlink:href="#DejaVuSans-34" transform="translate(226.953125 0)"/>
       <use xlink:href="#DejaVuSans-20" transform="translate(290.576172 0)"/>
       <use xlink:href="#DejaVuSans-31" transform="translate(322.363281 0)"/>
       <use xlink:href="#DejaVuSans-32" transform="translate(385.986328 0)"/>
      </g>
     </g>
    </g>
    <g id="text_7">
     <!-- Tijd -->
     <g transform="translate(371.185 274.316562) scale(0.1 -0.1)">
      <defs>
       <path id="DejaVuSans-54" d="M -19 4666 
L 3928 4666 
L 3928 4134 
L 2272 4134 
L 2272 0 
L 1638 0 
L 1638 4134 
L -19 4134 
L -19 4666 
z
" transform="scale(0.015625)"/>
       <path id="DejaVuSans-69" d="M 603 3500 
L 1178 3500 
L 1178 0 
L 603 0 
L 603 3500 
z
M 603 4863 
L 1178 4863 
L 1178 4134 
L 603 4134 
L 603 4863 
z
" transform="scale(0.015625)"/>
       <path id="DejaVuSans-6a" d="M 603 3500 
L 1178 3500 
L 1178 -63 
Q 1178 -731 923 -1031 
Q 669 -1331 103 -1331 
L -116 -1331 
L -116 -844 
L 38 -844 
Q 366 -844 484 -692 
Q 603 -541 603 -63 
L 603 3500 
z
M 603 4863 
L 1178 4863 
L 1178 4134 
L 603 4134 
L 603 4863 
z
" transform="scale(0.015625)"/>
       <path id="DejaVuSans-64" d="M 2906 2969 
L 2906 4863 
L 3481 4863 
L 3481 0 
L 2906 0 
L 2906 525 
Q 2725 213 2448 61 
Q 2172 -91 1784 -91 
Q 1150 -91 751 415 
Q 353 922 353 1747 
Q 353 2572 751 3078 
Q 1150 3584 1784 3584 
Q 2172 3584 2448 3432 
Q 2725 3281 2906 2969 
z
M 947 1747 
Q 947 1113 1208 752 
Q 1469 391 1925 391 
Q 2381 391 2643 752 
Q 2906 1113 2906 1747 
Q 2906 2381 2643 2742 
Q 2381 3103 1925 3103 
Q 1469 3103 1208 2742 
Q 947 2381 947 1747 
z
" transform="scale(0.015625)"/>
      </defs>
      <use xlink:href="#DejaVuSans-54"/>
      <use xlink:href="#DejaVuSans-69" transform="translate(57.958984 0)"/>
      <use xlink:href="#DejaVuSans-6a" transform="translate(85.742188 0)"/>
      <use xlink:href="#DejaVuSans-64" transform="translate(113.525391 0)"/>
     </g>
    </g>
   </g>
   <g id="matplotlib.axis_2">
    <g id="ytick_1">
     <g id="line2d_7">
      <defs>
       <path id="mcd3c70f8d5" d="M 0 0 
L -3.5 0 
" style="stroke: #000000; stroke-width: 0.8"/>
      </defs>
      <g>
       <use xlink:href="#mcd3c70f8d5" x="50.87" y="215.557466" style="stroke: #000000; stroke-width: 0.8"/>
      </g>
     </g>
     <g id="text_8">
      <!-- 20 -->
      <g transform="translate(31.145 219.356685) scale(0.1 -0.1)">
       <use xlink:href="#DejaVuSans-32"/>
       <use xlink:href="#DejaVuSans-30" transform="translate(63.623047 0)"/>
      </g>
     </g>
    </g>
    <g id="ytick_2">
     <g id="line2d_8">
      <g>
       <use xlink:href="#mcd3c70f8d5" x="50.87" y="172.781134" style="stroke: #000000; stroke-width: 0.8"/>
      </g>
     </g>
     <g id="text_9">
      <!-- 40 -->
      <g transform="translate(31.145 176.580353) scale(0.1 -0.1)">
       <use xlink:href="#DejaVuSans-34"/>
       <use xlink:href="#DejaVuSans-30" transform="translate(63.623047 0)"/>
      </g>
     </g>
    </g>
    <g id="ytick_3">
     <g id="line2d_9">
      <g>
       <use xlink:href="#mcd3c70f8d5" x="50.87" y="130.004803" style="stroke: #000000; stroke-width: 0.8"/>
      </g>
     </g>
     <g id="text_10">
      <!-- 60 -->
      <g transform="translate(31.145 133.804021) scale(0.1 -0.1)">
       <defs>
        <path id="DejaVuSans-36" d="M 2113 2584 
Q 1688 2584 1439 2293 
Q 1191 2003 1191 1497 
Q 1191 994 1439 701 
Q 1688 409 2113 409 
Q 2538 409 2786 701 
Q 3034 994 3034 1497 
Q 3034 2003 2786 2293 
Q 2538 2584 2113 2584 
z
M 3366 4563 
L 3366 3988 
Q 3128 4100 2886 4159 
Q 2644 4219 2406 4219 
Q 1781 4219 1451 3797 
Q 1122 3375 1075 2522 
Q 1259 2794 1537 2939 
Q 1816 3084 2150 3084 
Q 2853 3084 3261 2657 
Q 3669 2231 3669 1497 
Q 3669 778 3244 343 
Q 2819 -91 2113 -91 
Q 1303 -91 875 529 
Q 447 1150 447 2328 
Q 447 3434 972 4092 
Q 1497 4750 2381 4750 
Q 2619 4750 2861 4703 
Q 3103 4656 3366 4563 
z
" transform="scale(0.015625)"/>
       </defs>
       <use xlink:href="#DejaVuSans-36"/>
       <use xlink:href="#DejaVuSans-30" transform="translate(63.623047 0)"/>
      </g>
     </g>
    </g>
    <g id="ytick_4">
     <g id="line2d_10">
      <g>
       <use xlink:href="#mcd3c70f8d5" x="50.87" y="87.228471" style="stroke: #000000; stroke-width: 0.8"/>
      </g>
     </g>
     <g id="text_11">
      <!-- 80 -->
      <g transform="translate(31.145 91.02769) scale(0.1 -0.1)">
       <defs>
        <path id="DejaVuSans-38" d="M 2034 2216 
Q 1584 2216 1326 1975 
Q 1069 1734 1069 1313 
Q 1069 891 1326 650 
Q 1584 409 2034 409 
Q 2484 409 2743 651 
Q 3003 894 3003 1313 
Q 3003 1734 2745 1975 
Q 2488 2216 2034 2216 
z
M 1403 2484 
Q 997 2584 770 2862 
Q 544 3141 544 3541 
Q 544 4100 942 4425 
Q 1341 4750 2034 4750 
Q 2731 4750 3128 4425 
Q 3525 4100 3525 3541 
Q 3525 3141 3298 2862 
Q 3072 2584 2669 2484 
Q 3125 2378 3379 2068 
Q 3634 1759 3634 1313 
Q 3634 634 3220 271 
Q 2806 -91 2034 -91 
Q 1263 -91 848 271 
Q 434 634 434 1313 
Q 434 1759 690 2068 
Q 947 2378 1403 2484 
z
M 1172 3481 
Q 1172 3119 1398 2916 
Q 1625 2713 2034 2713 
Q 2441 2713 2670 2916 
Q 2900 3119 2900 3481 
Q 2900 3844 2670 4047 
Q 2441 4250 2034 4250 
Q 1625 4250 1398 4047 
Q 1172 3844 1172 3481 
z
" transform="scale(0.015625)"/>
       </defs>
       <use xlink:href="#DejaVuSans-38"/>
       <use xlink:href="#DejaVuSans-30" transform="translate(63.623047 0)"/>
      </g>
     </g>
    </g>
    <g id="ytick_5">
     <g id="line2d_11">
      <g>
       <use xlink:href="#mcd3c70f8d5" x="50.87" y="44.45214" style="stroke: #000000; stroke-width: 0.8"/>
      </g>
     </g>
     <g id="text_12">
      <!-- 100 -->
      <g transform="translate(24.7825 48.251358) scale(0.1 -0.1)">
       <use xlink:href="#DejaVuSans-31"/>
       <use xlink:href="#DejaVuSans-30" transform="translate(63.623047 0)"/>
       <use xlink:href="#DejaVuSans-30" transform="translate(127.246094 0)"/>
      </g>
     </g>
    </g>
    <g id="text_13">
     <!-- (Rel.) Buiten Vochtigheid (%) -->
     <g transform="translate(18.702813 208.620937) rotate(-90) scale(0.1 -0.1)">
      <defs>
       <path id="DejaVuSans-28" d="M 1984 4856 
Q 1566 4138 1362 3434 
Q 1159 2731 1159 2009 
Q 1159 1288 1364 580 
Q 1569 -128 1984 -844 
L 1484 -844 
Q 1016 -109 783 600 
Q 550 1309 550 2009 
Q 550 2706 781 3412 
Q 1013 4119 1484 4856 
L 1984 4856 
z
" transform="scale(0.015625)"/>
       <path id="DejaVuSans-52" d="M 2841 2188 
Q 3044 2119 3236 1894 
Q 3428 1669 3622 1275 
L 4263 0 
L 3584 0 
L 2988 1197 
Q 2756 1666 2539 1819 
Q 2322 1972 1947 1972 
L 1259 1972 
L 1259 0 
L 628 0 
L 628 4666 
L 2053 4666 
Q 2853 4666 3247 4331 
Q 3641 3997 3641 3322 
Q 3641 2881 3436 2590 
Q 3231 2300 2841 2188 
z
M 1259 4147 
L 1259 2491 
L 2053 2491 
Q 2509 2491 2742 2702 
Q 2975 2913 2975 3322 
Q 2975 3731 2742 3939 
Q 2509 4147 2053 4147 
L 1259 4147 
z
" transform="scale(0.015625)"/>
       <path id="DejaVuSans-65" d="M 3597 1894 
L 3597 1613 
L 953 1613 
Q 991 1019 1311 708 
Q 1631 397 2203 397 
Q 2534 397 2845 478 
Q 3156 559 3463 722 
L 3463 178 
Q 3153 47 2828 -22 
Q 2503 -91 2169 -91 
Q 1331 -91 842 396 
Q 353 884 353 1716 
Q 353 2575 817 3079 
Q 1281 3584 2069 3584 
Q 2775 3584 3186 3129 
Q 3597 2675 3597 1894 
z
M 3022 2063 
Q 3016 2534 2758 2815 
Q 2500 3097 2075 3097 
Q 1594 3097 1305 2825 
Q 1016 2553 972 2059 
L 3022 2063 
z
" transform="scale(0.015625)"/>
       <path id="DejaVuSans-6c" d="M 603 4863 
L 1178 4863 
L 1178 0 
L 603 0 
L 603 4863 
z
" transform="scale(0.015625)"/>
       <path id="DejaVuSans-2e" d="M 684 794 
L 1344 794 
L 1344 0 
L 684 0 
L 684 794 
z
" transform="scale(0.015625)"/>
       <path id="DejaVuSans-29" d="M 513 4856 
L 1013 4856 
Q 1481 4119 1714 3412 
Q 1947 2706 1947 2009 
Q 1947 1309 1714 600 
Q 1481 -109 1013 -844 
L 513 -844 
Q 928 -128 1133 580 
Q 1338 1288 1338 2009 
Q 1338 2731 1133 3434 
Q 928 4138 513 4856 
z
" transform="scale(0.015625)"/>
       <path id="DejaVuSans-42" d="M 1259 2228 
L 1259 519 
L 2272 519 
Q 2781 519 3026 730 
Q 3272 941 3272 1375 
Q 3272 1813 3026 2020 
Q 2781 2228 2272 2228 
L 1259 2228 
z
M 1259 4147 
L 1259 2741 
L 2194 2741 
Q 2656 2741 2882 2914 
Q 3109 3088 3109 3444 
Q 3109 3797 2882 3972 
Q 2656 4147 2194 4147 
L 1259 4147 
z
M 628 4666 
L 2241 4666 
Q 2963 4666 3353 4366 
Q 3744 4066 3744 3513 
Q 3744 3084 3544 2831 
Q 3344 2578 2956 2516 
Q 3422 2416 3680 2098 
Q 3938 1781 3938 1306 
Q 3938 681 3513 340 
Q 3088 0 2303 0 
L 628 0 
L 628 4666 
z
" transform="scale(0.015625)"/>
       <path id="DejaVuSans-75" d="M 544 1381 
L 544 3500 
L 1119 3500 
L 1119 1403 
Q 1119 906 1312 657 
Q 1506 409 1894 409 
Q 2359 409 2629 706 
Q 2900 1003 2900 1516 
L 2900 3500 
L 3475 3500 
L 3475 0 
L 2900 0 
L 2900 538 
Q 2691 219 2414 64 
Q 2138 -91 1772 -91 
Q 1169 -91 856 284 
Q 544 659 544 1381 
z
M 1991 3584 
L 1991 3584 
z
" transform="scale(0.015625)"/>
       <path id="DejaVuSans-74" d="M 1172 4494 
L 1172 3500 
L 2356 3500 
L 2356 3053 
L 1172 3053 
L 1172 1153 
Q 1172 725 1289 603 
Q 1406 481 1766 481 
L 2356 481 
L 2356 0 
L 1766 0 
Q 1100 0 847 248 
Q 594 497 594 1153 
L 594 3053 
L 172 3053 
L 172 3500 
L 594 3500 
L 594 4494 
L 1172 4494 
z
" transform="scale(0.015625)"/>
       <path id="DejaVuSans-6e" d="M 3513 2113 
L 3513 0 
L 2938 0 
L 2938 2094 
Q 2938 2591 2744 2837 
Q 2550 3084 2163 3084 
Q 1697 3084 1428 2787 
Q 1159 2491 1159 1978 
L 1159 0 
L 581 0 
L 581 3500 
L 1159 3500 
L 1159 2956 
Q 1366 3272 1645 3428 
Q 1925 3584 2291 3584 
Q 2894 3584 3203 3211 
Q 3513 2838 3513 2113 
z
" transform="scale(0.015625)"/>
       <path id="DejaVuSans-56" d="M 1831 0 
L 50 4666 
L 709 4666 
L 2188 738 
L 3669 4666 
L 4325 4666 
L 2547 0 
L 1831 0 
z
" transform="scale(0.015625)"/>
       <path id="DejaVuSans-6f" d="M 1959 3097 
Q 1497 3097 1228 2736 
Q 959 2375 959 1747 
Q 959 1119 1226 758 
Q 1494 397 1959 397 
Q 2419 397 2687 759 
Q 2956 1122 2956 1747 
Q 2956 2369 2687 2733 
Q 2419 3097 1959 3097 
z
M 1959 3584 
Q 2709 3584 3137 3096 
Q 3566 2609 3566 1747 
Q 3566 888 3137 398 
Q 2709 -91 1959 -91 
Q 1206 -91 779 398 
Q 353 888 353 1747 
Q 353 2609 779 3096 
Q 1206 3584 1959 3584 
z
" transform="scale(0.015625)"/>
       <path id="DejaVuSans-63" d="M 3122 3366 
L 3122 2828 
Q 2878 2963 2633 3030 
Q 2388 3097 2138 3097 
Q 1578 3097 1268 2742 
Q 959 2388 959 1747 
Q 959 1106 1268 751 
Q 1578 397 2138 397 
Q 2388 397 2633 464 
Q 2878 531 3122 666 
L 3122 134 
Q 2881 22 2623 -34 
Q 2366 -91 2075 -91 
Q 1284 -91 818 406 
Q 353 903 353 1747 
Q 353 2603 823 3093 
Q 1294 3584 2113 3584 
Q 2378 3584 2631 3529 
Q 2884 3475 3122 3366 
z
" transform="scale(0.015625)"/>
       <path id="DejaVuSans-68" d="M 3513 2113 
L 3513 0 
L 2938 0 
L 2938 2094 
Q 2938 2591 2744 2837 
Q 2550 3084 2163 3084 
Q 1697 3084 1428 2787 
Q 1159 2491 1159 1978 
L 1159 0 
L 581 0 
L 581 4863 
L 1159 4863 
L 1159 2956 
Q 1366 3272 1645 3428 
Q 1925 3584 2291 3584 
Q 2894 3584 3203 3211 
Q 3513 2838 3513 2113 
z
" transform="scale(0.015625)"/>
       <path id="DejaVuSans-67" d="M 2906 1791 
Q 2906 2416 2648 2759 
Q 2391 3103 1925 3103 
Q 1463 3103 1205 2759 
Q 947 2416 947 1791 
Q 947 1169 1205 825 
Q 1463 481 1925 481 
Q 2391 481 2648 825 
Q 2906 1169 2906 1791 
z
M 3481 434 
Q 3481 -459 3084 -895 
Q 2688 -1331 1869 -1331 
Q 1566 -1331 1297 -1286 
Q 1028 -1241 775 -1147 
L 775 -588 
Q 1028 -725 1275 -790 
Q 1522 -856 1778 -856 
Q 2344 -856 2625 -561 
Q 2906 -266 2906 331 
L 2906 616 
Q 2728 306 2450 153 
Q 2172 0 1784 0 
Q 1141 0 747 490 
Q 353 981 353 1791 
Q 353 2603 747 3093 
Q 1141 3584 1784 3584 
Q 2172 3584 2450 3431 
Q 2728 3278 2906 2969 
L 2906 3500 
L 3481 3500 
L 3481 434 
z
" transform="scale(0.015625)"/>
       <path id="DejaVuSans-25" d="M 4653 2053 
Q 4381 2053 4226 1822 
Q 4072 1591 4072 1178 
Q 4072 772 4226 539 
Q 4381 306 4653 306 
Q 4919 306 5073 539 
Q 5228 772 5228 1178 
Q 5228 1588 5073 1820 
Q 4919 2053 4653 2053 
z
M 4653 2450 
Q 5147 2450 5437 2106 
Q 5728 1763 5728 1178 
Q 5728 594 5436 251 
Q 5144 -91 4653 -91 
Q 4153 -91 3862 251 
Q 3572 594 3572 1178 
Q 3572 1766 3864 2108 
Q 4156 2450 4653 2450 
z
M 1428 4353 
Q 1159 4353 1004 4120 
Q 850 3888 850 3481 
Q 850 3069 1003 2837 
Q 1156 2606 1428 2606 
Q 1700 2606 1854 2837 
Q 2009 3069 2009 3481 
Q 2009 3884 1853 4118 
Q 1697 4353 1428 4353 
z
M 4250 4750 
L 4750 4750 
L 1831 -91 
L 1331 -91 
L 4250 4750 
z
M 1428 4750 
Q 1922 4750 2215 4408 
Q 2509 4066 2509 3481 
Q 2509 2891 2217 2550 
Q 1925 2209 1428 2209 
Q 931 2209 642 2551 
Q 353 2894 353 3481 
Q 353 4063 643 4406 
Q 934 4750 1428 4750 
z
" transform="scale(0.015625)"/>
      </defs>
      <use xlink:href="#DejaVuSans-28"/>
      <use xlink:href="#DejaVuSans-52" transform="translate(39.013672 0)"/>
      <use xlink:href="#DejaVuSans-65" transform="translate(103.996094 0)"/>
      <use xlink:href="#DejaVuSans-6c" transform="translate(165.519531 0)"/>
      <use xlink:href="#DejaVuSans-2e" transform="translate(193.302734 0)"/>
      <use xlink:href="#DejaVuSans-29" transform="translate(225.089844 0)"/>
      <use xlink:href="#DejaVuSans-20" transform="translate(264.103516 0)"/>
      <use xlink:href="#DejaVuSans-42" transform="translate(295.890625 0)"/>
      <use xlink:href="#DejaVuSans-75" transform="translate(364.494141 0)"/>
      <use xlink:href="#DejaVuSans-69" transform="translate(427.873047 0)"/>
      <use xlink:href="#DejaVuSans-74" transform="translate(455.65625 0)"/>
      <use xlink:href="#DejaVuSans-65" transform="translate(494.865234 0)"/>
      <use xlink:href="#DejaVuSans-6e" transform="translate(556.388672 0)"/>
      <use xlink:href="#DejaVuSans-20" transform="translate(619.767578 0)"/>
      <use xlink:href="#DejaVuSans-56" transform="translate(651.554688 0)"/>
      <use xlink:href="#DejaVuSans-6f" transform="translate(712.212891 0)"/>
      <use xlink:href="#DejaVuSans-63" transform="translate(773.394531 0)"/>
      <use xlink:href="#DejaVuSans-68" transform="translate(828.375 0)"/>
      <use xlink:href="#DejaVuSans-74" transform="translate(891.753906 0)"/>
      <use xlink:href="#DejaVuSans-69" transform="translate(930.962891 0)"/>
      <use xlink:href="#DejaVuSans-67" transform="translate(958.746094 0)"/>
      <use xlink:href="#DejaVuSans-68" transform="translate(1022.222656 0)"/>
      <use xlink:href="#DejaVuSans-65" transform="translate(1085.601562 0)"/>
      <use xlink:href="#DejaVuSans-69" transform="translate(1147.125 0)"/>
      <use xlink:href="#DejaVuSans-64" transform="translate(1174.908203 0)"/>
      <use xlink:href="#DejaVuSans-20" transform="translate(1238.384766 0)"/>
      <use xlink:href="#DejaVuSans-28" transform="translate(1270.171875 0)"/>
      <use xlink:href="#DejaVuSans-25" transform="translate(1309.185547 0)"/>
      <use xlink:href="#DejaVuSans-29" transform="translate(1404.205078 0)"/>
     </g>
    </g>
   </g>
   <g id="line2d_12">
    <path d="M 0 0 
" clip-path="url(#pd5319bd319)" style="fill: none; stroke: #1f77b4; stroke-width: 2; stroke-linecap: square"/>
   </g>
   <g id="line2d_13">
    <path d="M 80.794091 79.457438 
L 85.099715 78.863322 
L 89.40534 77.176033 
L 93.710965 80.455552 
L 98.016589 81.06155 
L 102.322214 84.162834 
L 106.627838 78.364265 
L 110.933463 78.3405 
L 115.239088 77.72262 
L 119.544712 78.055324 
L 123.850337 84.804479 
L 128.155961 84.269775 
L 132.461586 84.590597 
L 136.767211 77.960266 
L 141.072835 77.21168 
L 145.37846 76.950269 
L 149.684084 75.857096 
L 153.989709 75.702626 
L 158.295334 76.201683 
L 162.600958 78.768263 
L 166.906583 83.830129 
L 171.212207 88.701878 
L 175.517832 94.595506 
L 179.823457 100.1089 
L 184.129081 105.004413 
L 188.434706 111.801097 
L 192.74033 117.611549 
L 197.045955 123.992352 
L 201.351579 139.13042 
L 205.657204 133.783379 
L 209.962829 142.409939 
L 214.268453 161.017643 
L 218.574078 151.654379 
L 222.879702 152.438612 
L 227.185327 152.533671 
L 231.490952 157.262832 
L 235.796576 157.334126 
L 240.102201 154.363547 
L 244.407825 146.259809 
L 248.71345 135.779608 
L 253.019075 137.062897 
L 257.324699 121.306949 
L 261.630324 113.393327 
L 265.935948 106.691702 
L 270.241573 98.469141 
L 274.547198 92.741865 
L 278.852822 88.511761 
L 283.158447 85.588712 
L 287.464071 83.022132 
L 291.769696 81.477431 
L 296.07532 80.2892 
L 300.380945 79.552496 
L 304.68657 78.245442 
L 308.992194 77.104739 
L 313.297819 76.914622 
L 317.603443 76.011566 
L 321.909068 76.201683 
L 326.214693 81.88143 
L 330.520317 81.346726 
L 334.825942 81.132844 
L 339.131566 80.491199 
L 343.437191 80.918962 
L 347.742816 80.740728 
L 352.04844 73.825221 
L 356.354065 73.492516 
L 360.659689 79.671319 
L 364.965314 73.017223 
L 369.270939 82.309193 
L 373.576563 82.80825 
L 377.882188 92.123985 
L 382.187812 101.772424 
L 386.493437 111.100041 
L 390.799061 117.148139 
L 395.104686 121.615889 
L 399.410311 123.683412 
L 403.715935 127.248106 
L 408.02156 129.802803 
L 412.327184 120.118717 
L 420.938434 108.236403 
L 425.244058 98.956315 
L 429.549683 93.53798 
L 433.855307 93.07457 
L 438.160932 88.666231 
L 442.466557 86.028357 
L 446.772181 87.097766 
L 451.077806 86.848237 
L 455.38343 86.978943 
L 459.689055 84.507421 
L 463.99468 82.998367 
L 468.300304 82.285428 
L 472.605929 86.123416 
L 476.911553 79.885201 
L 481.217178 78.673205 
L 485.522802 76.867093 
L 489.828427 74.894629 
L 494.134052 74.039102 
L 498.439676 74.110396 
L 502.745301 74.015338 
L 507.050925 74.443101 
L 511.35655 74.680747 
L 519.967799 73.444987 
L 524.273424 73.278634 
L 532.884673 72.066638 
L 537.190298 75.286745 
L 541.495922 74.003455 
L 550.107171 73.254869 
L 554.412796 69.488176 
L 558.718421 69.321823 
L 563.024045 68.953472 
L 567.32967 68.43065 
L 571.635294 68.858413 
L 575.940919 69.975351 
L 580.246543 70.854642 
L 584.552168 72.185461 
L 588.857793 74.395572 
L 593.163417 76.783917 
L 597.469042 79.956495 
L 601.774666 85.624359 
L 606.080291 87.050236 
L 610.385916 88.060233 
L 614.69154 87.644352 
L 618.997165 87.549294 
L 623.302789 88.392938 
L 627.608414 91.090223 
L 631.914039 87.715646 
L 640.525288 84.281657 
L 644.830912 82.80825 
L 649.136537 78.661323 
L 653.442162 78.625676 
L 657.747786 80.930845 
L 662.053411 76.997799 
L 666.359035 74.728276 
L 670.66466 75.274863 
L 674.970284 74.395572 
L 679.275909 78.691028 
L 679.275909 78.691028 
" clip-path="url(#pd5319bd319)" style="fill: none; stroke-dasharray: 5.55,2.4; stroke-dashoffset: 0; stroke: #808080; stroke-width: 1.5"/>
   </g>
   <g id="patch_3">
    <path d="M 50.87 246.04 
L 50.87 26.88 
" style="fill: none; stroke: #000000; stroke-width: 0.8; stroke-linejoin: miter; stroke-linecap: square"/>
   </g>
   <g id="patch_4">
    <path d="M 709.2 246.04 
L 709.2 26.88 
" style="fill: none; stroke: #000000; stroke-width: 0.8; stroke-linejoin: miter; stroke-linecap: square"/>
   </g>
   <g id="patch_5">
    <path d="M 50.87 246.04 
L 709.2 246.04 
" style="fill: none; stroke: #000000; stroke-width: 0.8; stroke-linejoin: miter; stroke-linecap: square"/>
   </g>
   <g id="patch_6">
    <path d="M 50.87 26.88 
L 709.2 26.88 
" style="fill: none; stroke: #000000; stroke-width: 0.8; stroke-linejoin: miter; stroke-linecap: square"/>
   </g>
   <g id="text_14">
    <!-- Luchtvochtigheid - v001/c99999/d001 -->
    <g transform="translate(265.745313 20.88) scale(0.12 -0.12)">
     <defs>
      <path id="DejaVuSans-4c" d="M 628 4666 
L 1259 4666 
L 1259 531 
L 3531 531 
L 3531 0 
L 628 0 
L 628 4666 
z
" transform="scale(0.015625)"/>
      <path id="DejaVuSans-76" d="M 191 3500 
L 800 3500 
L 1894 563 
L 2988 3500 
L 3597 3500 
L 2284 0 
L 1503 0 
L 191 3500 
z
" transform="scale(0.015625)"/>
      <path id="DejaVuSans-2f" d="M 1625 4666 
L 2156 4666 
L 531 -594 
L 0 -594 
L 1625 4666 
z
" transform="scale(0.015625)"/>
      <path id="DejaVuSans-39" d="M 703 97 
L 703 672 
Q 941 559 1184 500 
Q 1428 441 1663 441 
Q 2288 441 2617 861 
Q 2947 1281 2994 2138 
Q 2813 1869 2534 1725 
Q 2256 1581 1919 1581 
Q 1219 1581 811 2004 
Q 403 2428 403 3163 
Q 403 3881 828 4315 
Q 1253 4750 1959 4750 
Q 2769 4750 3195 4129 
Q 3622 3509 3622 2328 
Q 3622 1225 3098 567 
Q 2575 -91 1691 -91 
Q 1453 -91 1209 -44 
Q 966 3 703 97 
z
M 1959 2075 
Q 2384 2075 2632 2365 
Q 2881 2656 2881 3163 
Q 2881 3666 2632 3958 
Q 2384 4250 1959 4250 
Q 1534 4250 1286 3958 
Q 1038 3666 1038 3163 
Q 1038 2656 1286 2365 
Q 1534 2075 1959 2075 
z
" transform="scale(0.015625)"/>
     </defs>
     <use xlink:href="#DejaVuSans-4c"/>
     <use xlink:href="#DejaVuSans-75" transform="translate(53.962891 0)"/>
     <use xlink:href="#DejaVuSans-63" transform="translate(117.341797 0)"/>
     <use xlink:href="#DejaVuSans-68" transform="translate(172.322266 0)"/>
     <use xlink:href="#DejaVuSans-74" transform="translate(235.701172 0)"/>
     <use xlink:href="#DejaVuSans-76" transform="translate(274.910156 0)"/>
     <use xlink:href="#DejaVuSans-6f" transform="translate(334.089844 0)"/>
     <use xlink:href="#DejaVuSans-63" transform="translate(395.271484 0)"/>
     <use xlink:href="#DejaVuSans-68" transform="translate(450.251953 0)"/>
     <use xlink:href="#DejaVuSans-74" transform="translate(513.630859 0)"/>
     <use xlink:href="#DejaVuSans-69" transform="translate(552.839844 0)"/>
     <use xlink:href="#DejaVuSans-67" transform="translate(580.623047 0)"/>
     <use xlink:href="#DejaVuSans-68" transform="translate(644.099609 0)"/>
     <use xlink:href="#DejaVuSans-65" transform="translate(707.478516 0)"/>
     <use xlink:href="#DejaVuSans-69" transform="translate(769.001953 0)"/>
     <use xlink:href="#DejaVuSans-64" transform="translate(796.785156 0)"/>
     <use xlink:href="#DejaVuSans-20" transform="translate(860.261719 0)"/>
     <use xlink:href="#DejaVuSans-2d" transform="translate(892.048828 0)"/>
     <use xlink:href="#DejaVuSans-20" transform="translate(928.132812 0)"/>
     <use xlink:href="#DejaVuSans-76" transform="translate(959.919922 0)"/>
     <use xlink:href="#DejaVuSans-30" transform="translate(1019.099609 0)"/>
     <use xlink:href="#DejaVuSans-30" transform="translate(1082.722656 0)"/>
     <use xlink:href="#DejaVuSans-31" transform="translate(1146.345703 0)"/>
     <use xlink:href="#DejaVuSans-2f" transform="translate(1209.96875 0)"/>
     <use xlink:href="#DejaVuSans-63" transform="translate(1243.660156 0)"/>
     <use xlink:href="#DejaVuSans-39" transform="translate(1298.640625 0)"/>
     <use xlink:href="#DejaVuSans-39" transform="translate(1362.263672 0)"/>
     <use xlink:href="#DejaVuSans-39" transform="translate(1425.886719 0)"/>
     <use xlink:href="#DejaVuSans-39" transform="translate(1489.509766 0)"/>
     <use xlink:href="#DejaVuSans-39" transform="translate(1553.132812 0)"/>
     <use xlink:href="#DejaVuSans-2f" transform="translate(1616.755859 0)"/>
     <use xlink:href="#DejaVuSans-64" transform="translate(1650.447266 0)"/>
     <use xlink:href="#DejaVuSans-30" transform="translate(1713.923828 0)"/>
     <use xlink:href="#DejaVuSans-30" transform="translate(1777.546875 0)"/>
     <use xlink:href="#DejaVuSans-31" transform="translate(1841.169922 0)"/>
    </g>
   </g>
   <g id="legend_1">
    <g id="patch_7">
     <path d="M 551.25625 241.04 
L 702.2 241.04 
Q 704.2 241.04 704.2 239.04 
L 704.2 196.005625 
Q 704.2 194.005625 702.2 194.005625 
L 551.25625 194.005625 
Q 549.25625 194.005625 549.25625 196.005625 
L 549.25625 239.04 
Q 549.25625 241.04 551.25625 241.04 
z
" style="fill: #ffffff; opacity: 0.8; stroke: #cccccc; stroke-linejoin: miter"/>
    </g>
    <g id="line2d_14">
     <path d="M 553.25625 202.104062 
L 563.25625 202.104062 
L 573.25625 202.104062 
" style="fill: none; stroke: #1f77b4; stroke-width: 2; stroke-linecap: square"/>
    </g>
    <g id="text_15">
     <!-- Hive -->
     <g transform="translate(581.25625 205.604062) scale(0.1 -0.1)">
      <defs>
       <path id="DejaVuSans-48" d="M 628 4666 
L 1259 4666 
L 1259 2753 
L 3553 2753 
L 3553 4666 
L 4184 4666 
L 4184 0 
L 3553 0 
L 3553 2222 
L 1259 2222 
L 1259 0 
L 628 0 
L 628 4666 
z
" transform="scale(0.015625)"/>
      </defs>
      <use xlink:href="#DejaVuSans-48"/>
      <use xlink:href="#DejaVuSans-69" transform="translate(75.195312 0)"/>
      <use xlink:href="#DejaVuSans-76" transform="translate(102.978516 0)"/>
      <use xlink:href="#DejaVuSans-65" transform="translate(162.158203 0)"/>
     </g>
    </g>
    <g id="line2d_15">
     <path d="M 553.25625 216.782187 
L 563.25625 216.782187 
L 573.25625 216.782187 
" style="fill: none; stroke-dasharray: 5.55,2.4; stroke-dashoffset: 0; stroke: #808080; stroke-width: 1.5"/>
    </g>
    <g id="text_16">
     <!-- Gemiddelde (alle hives) -->
     <g transform="translate(581.25625 220.282187) scale(0.1 -0.1)">
      <defs>
       <path id="DejaVuSans-47" d="M 3809 666 
L 3809 1919 
L 2778 1919 
L 2778 2438 
L 4434 2438 
L 4434 434 
Q 4069 175 3628 42 
Q 3188 -91 2688 -91 
Q 1594 -91 976 548 
Q 359 1188 359 2328 
Q 359 3472 976 4111 
Q 1594 4750 2688 4750 
Q 3144 4750 3555 4637 
Q 3966 4525 4313 4306 
L 4313 3634 
Q 3963 3931 3569 4081 
Q 3175 4231 2741 4231 
Q 1884 4231 1454 3753 
Q 1025 3275 1025 2328 
Q 1025 1384 1454 906 
Q 1884 428 2741 428 
Q 3075 428 3337 486 
Q 3600 544 3809 666 
z
" transform="scale(0.015625)"/>
       <path id="DejaVuSans-6d" d="M 3328 2828 
Q 3544 3216 3844 3400 
Q 4144 3584 4550 3584 
Q 5097 3584 5394 3201 
Q 5691 2819 5691 2113 
L 5691 0 
L 5113 0 
L 5113 2094 
Q 5113 2597 4934 2840 
Q 4756 3084 4391 3084 
Q 3944 3084 3684 2787 
Q 3425 2491 3425 1978 
L 3425 0 
L 2847 0 
L 2847 2094 
Q 2847 2600 2669 2842 
Q 2491 3084 2119 3084 
Q 1678 3084 1418 2786 
Q 1159 2488 1159 1978 
L 1159 0 
L 581 0 
L 581 3500 
L 1159 3500 
L 1159 2956 
Q 1356 3278 1631 3431 
Q 1906 3584 2284 3584 
Q 2666 3584 2933 3390 
Q 3200 3197 3328 2828 
z
" transform="scale(0.015625)"/>
       <path id="DejaVuSans-61" d="M 2194 1759 
Q 1497 1759 1228 1600 
Q 959 1441 959 1056 
Q 959 750 1161 570 
Q 1363 391 1709 391 
Q 2188 391 2477 730 
Q 2766 1069 2766 1631 
L 2766 1759 
L 2194 1759 
z
M 3341 1997 
L 3341 0 
L 2766 0 
L 2766 531 
Q 2569 213 2275 61 
Q 1981 -91 1556 -91 
Q 1019 -91 701 211 
Q 384 513 384 1019 
Q 384 1609 779 1909 
Q 1175 2209 1959 2209 
L 2766 2209 
L 2766 2266 
Q 2766 2663 2505 2880 
Q 2244 3097 1772 3097 
Q 1472 3097 1187 3025 
Q 903 2953 641 2809 
L 641 3341 
Q 956 3463 1253 3523 
Q 1550 3584 1831 3584 
Q 2591 3584 2966 3190 
Q 3341 2797 3341 1997 
z
" transform="scale(0.015625)"/>
       <path id="DejaVuSans-73" d="M 2834 3397 
L 2834 2853 
Q 2591 2978 2328 3040 
Q 2066 3103 1784 3103 
Q 1356 3103 1142 2972 
Q 928 2841 928 2578 
Q 928 2378 1081 2264 
Q 1234 2150 1697 2047 
L 1894 2003 
Q 2506 1872 2764 1633 
Q 3022 1394 3022 966 
Q 3022 478 2636 193 
Q 2250 -91 1575 -91 
Q 1294 -91 989 -36 
Q 684 19 347 128 
L 347 722 
Q 666 556 975 473 
Q 1284 391 1588 391 
Q 1994 391 2212 530 
Q 2431 669 2431 922 
Q 2431 1156 2273 1281 
Q 2116 1406 1581 1522 
L 1381 1569 
Q 847 1681 609 1914 
Q 372 2147 372 2553 
Q 372 3047 722 3315 
Q 1072 3584 1716 3584 
Q 2034 3584 2315 3537 
Q 2597 3491 2834 3397 
z
" transform="scale(0.015625)"/>
      </defs>
      <use xlink:href="#DejaVuSans-47"/>
      <use xlink:href="#DejaVuSans-65" transform="translate(77.490234 0)"/>
      <use xlink:href="#DejaVuSans-6d" transform="translate(139.013672 0)"/>
      <use xlink:href="#DejaVuSans-69" transform="translate(236.425781 0)"/>
      <use xlink:href="#DejaVuSans-64" transform="translate(264.208984 0)"/>
      <use xlink:href="#DejaVuSans-64" transform="translate(327.685547 0)"/>
      <use xlink:href="#DejaVuSans-65" transform="translate(391.162109 0)"/>
      <use xlink:href="#DejaVuSans-6c" transform="translate(452.685547 0)"/>
      <use xlink:href="#DejaVuSans-64" transform="translate(480.46875 0)"/>
      <use xlink:href="#DejaVuSans-65" transform="translate(543.945312 0)"/>
      <use xlink:href="#DejaVuSans-20" transform="translate(605.46875 0)"/>
      <use xlink:href="#DejaVuSans-28" transform="translate(637.255859 0)"/>
      <use xlink:href="#DejaVuSans-61" transform="translate(676.269531 0)"/>
      <use xlink:href="#DejaVuSans-6c" transform="translate(737.548828 0)"/>
      <use xlink:href="#DejaVuSans-6c" transform="translate(765.332031 0)"/>
      <use xlink:href="#DejaVuSans-65" transform="translate(793.115234 0)"/>
      <use xlink:href="#DejaVuSans-20" transform="translate(854.638672 0)"/>
      <use xlink:href="#DejaVuSans-68" transform="translate(886.425781 0)"/>
      <use xlink:href="#DejaVuSans-69" transform="translate(949.804688 0)"/>
      <use xlink:href="#DejaVuSans-76" transform="translate(977.587891 0)"/>
      <use xlink:href="#DejaVuSans-65" transform="translate(1036.767578 0)"/>
      <use xlink:href="#DejaVuSans-73" transform="translate(1098.291016 0)"/>
      <use xlink:href="#DejaVuSans-29" transform="translate(1150.390625 0)"/>
     </g>
    </g>
    <g id="patch_8">
     <path d="M 553.25625 234.960312 
L 573.25625 234.960312 
L 573.25625 227.960312 
L 553.25625 227.960312 
z
" style="fill: #808080; fill-opacity: 0.2; stroke: #808080; stroke-opacity: 0.2; stroke-linejoin: miter"/>
    </g>
    <g id="text_17">
     <!-- ±2 Std Dev -->
     <g transform="translate(581.25625 234.960312) scale(0.1 -0.1)">
      <defs>
       <path id="DejaVuSans-b1" d="M 2944 4013 
L 2944 2803 
L 4684 2803 
L 4684 2272 
L 2944 2272 
L 2944 1063 
L 2419 1063 
L 2419 2272 
L 678 2272 
L 678 2803 
L 2419 2803 
L 2419 4013 
L 2944 4013 
z
M 678 531 
L 4684 531 
L 4684 0 
L 678 0 
L 678 531 
z
" transform="scale(0.015625)"/>
       <path id="DejaVuSans-53" d="M 3425 4513 
L 3425 3897 
Q 3066 4069 2747 4153 
Q 2428 4238 2131 4238 
Q 1616 4238 1336 4038 
Q 1056 3838 1056 3469 
Q 1056 3159 1242 3001 
Q 1428 2844 1947 2747 
L 2328 2669 
Q 3034 2534 3370 2195 
Q 3706 1856 3706 1288 
Q 3706 609 3251 259 
Q 2797 -91 1919 -91 
Q 1588 -91 1214 -16 
Q 841 59 441 206 
L 441 856 
Q 825 641 1194 531 
Q 1563 422 1919 422 
Q 2459 422 2753 634 
Q 3047 847 3047 1241 
Q 3047 1584 2836 1778 
Q 2625 1972 2144 2069 
L 1759 2144 
Q 1053 2284 737 2584 
Q 422 2884 422 3419 
Q 422 4038 858 4394 
Q 1294 4750 2059 4750 
Q 2388 4750 2728 4690 
Q 3069 4631 3425 4513 
z
" transform="scale(0.015625)"/>
       <path id="DejaVuSans-44" d="M 1259 4147 
L 1259 519 
L 2022 519 
Q 2988 519 3436 956 
Q 3884 1394 3884 2338 
Q 3884 3275 3436 3711 
Q 2988 4147 2022 4147 
L 1259 4147 
z
M 628 4666 
L 1925 4666 
Q 3281 4666 3915 4102 
Q 4550 3538 4550 2338 
Q 4550 1131 3912 565 
Q 3275 0 1925 0 
L 628 0 
L 628 4666 
z
" transform="scale(0.015625)"/>
      </defs>
      <use xlink:href="#DejaVuSans-b1"/>
      <use xlink:href="#DejaVuSans-32" transform="translate(83.789062 0)"/>
      <use xlink:href="#DejaVuSans-20" transform="translate(147.412109 0)"/>
      <use xlink:href="#DejaVuSans-53" transform="translate(179.199219 0)"/>
      <use xlink:href="#DejaVuSans-74" transform="translate(242.675781 0)"/>
      <use xlink:href="#DejaVuSans-64" transform="translate(281.884766 0)"/>
      <use xlink:href="#DejaVuSans-20" transform="translate(345.361328 0)"/>
      <use xlink:href="#DejaVuSans-44" transform="translate(377.148438 0)"/>
      <use xlink:href="#DejaVuSans-65" transform="translate(454.150391 0)"/>
      <use xlink:href="#DejaVuSans-76" transform="translate(515.673828 0)"/>
     </g>
    </g>
   </g>
  </g>
 </g>
 <defs>
  <clipPath id="pd5319bd319">
   <rect x="50.87" y="26.88" width="658.33" height="219.16"/>
  </clipPath>
 </defs>
</svg>
